<?xml version="1.0" encoding="utf-8" ?>
<svg baseProfile="tiny" height="500" version="1.2" width="466.539" xmlns="http://www.w3.org/2000/svg" xmlns:ev="http://www.w3.org/2001/xml-events" xmlns:xlink="http://www.w3.org/1999/xlink"><defs /><polygon fill="none" points="368.7561,168.022 370.445,167.0981 374.9316,166.9209 375.7536,163.6066 376.3754,162.3113 377.011,161.981 379.4077,163.0998 380.0755,164.2574 382.7389,166.0719 386.3544,165.7991 388.0533,165.2302 389.3837,165.5578 390.7185,167.5412 392.714,168.1975 394.3745,167.8622 396.3563,166.082 397.0279,165.8677 400.6693,166.9249 401.2557,167.095 402.6818,167.5086 405.674,167.997 408.7024,169.1756 412.5955,167.452 413.9683,167.7499 414.3133,167.6414 415.1195,166.1712 415.3054,166.1488 415.9108,166.5683 416.6961,166.2814 418.6318,167.1327 421.2902,167.1246 422.6218,168.1145 426.024,199.9563 426.0343,200.0531 426.1713,201.3321 426.1892,201.4986 427.1336,210.3123 427.2716,211.6001 427.2671,212.6205 427.0068,213.3271 426.5474,213.7431 426.3781,213.9582 426.2558,214.2499 426.289,215.0632 426.2136,215.3702 426.0596,215.5853 425.6216,215.932 425.1763,216.1166 424.543,216.4765 423.7889,217.2588 423.5183,217.7026 423.4963,217.9409 423.3436,218.2934 422.7287,218.879 422.3,219.0799 422.3775,219.4321 422.4859,219.6469 422.5797,220.1984 422.25,220.6365 421.0692,221.715 420.3154,222.1769 419.7073,222.2091 419.0849,222.4564 417.4942,223.3745 417.0183,223.7281 416.3741,224.3136 415.2265,225.6489 413.6184,227.2603 413.217,227.5096 412.9312,227.6272 411.4441,228.056 411.0293,228.4723 410.9069,228.8715 410.9084,229.3623 410.8215,229.9953 410.803,230.1298 410.8344,230.7594 410.8439,230.9499 410.5369,231.3349 409.696,231.8858 409.1857,232.3977 408.7569,233.2584 408.0666,234.2939 407.6411,235.6252 407.6187,236.1242 407.6663,236.6738 408.1463,237.6437 408.718,238.229 409.266,238.6452 409.544,238.9513 409.6832,239.2731 409.6997,239.5646 409.6236,239.933 409.525,240.2168 409.4192,240.52 409.3025,240.8543 409.0732,241.1621 408.6518,242.0306 407.9565,242.986 406.5054,244.7056 406.39,244.9754 406.2688,245.6811 405.7934,246.1888 405.3177,246.8187 405.1648,247.1873 405.1046,247.6332 405.1606,248.3164 405.4397,248.9433 405.8724,249.71 406.4597,250.5676 406.9545,251.1644 407.2875,251.8929 406.6593,252.7074 406.5361,253.0295 406.6316,253.766 406.847,254.0717 407.0941,254.179 407.7561,254.208 407.9569,254.2837 408.1192,254.5826 407.3522,255.4749 407.323,255.9199 407.6174,256.8543 407.5268,257.208 407.4649,257.2694 406.8414,257.2791 406.4567,257.3876 406.165,257.5416 405.7981,258.5248 405.1983,258.7872 404.9834,259.0025 404.907,259.1876 404.9466,259.4253 405.2394,259.6696 405.3017,260.099 404.8107,260.5455 404.5804,260.8837 404.8129,261.2206 405.0748,261.3733 405.1991,261.7406 405.193,262.1475 405.317,262.5795 405.4749,263.9112 405.4779,264.9393 404.5567,266.9789 403.9076,267.8495 403.064,268.6132 402.7291,268.8222 401.8283,269.6403 401.8096,269.6572 400.6596,270.8387 400.4629,270.8614 400.1523,271.0245 399.9335,271.5322 399.8192,272.1197 399.7153,272.3394 399.4355,273.475 398.6644,274.5144 398.1803,275.3685 397.9378,275.519 396.9843,275.5628 396.7075,275.6445 396.4996,275.8514 396.3158,276.44 396.3406,276.9232 396.2725,277.4082 395.796,278.5095 395.3467,279.0754 395.3124,279.272 395.0814,279.6182 394.5168,280.0924 393.8238,280.4511 393.5756,280.6423 393.0574,281.5073 392.3744,282.3297 392.3399,282.3161 392.242,282.4265 390.5809,283.5799 388.4113,285.2436 386.8721,286.0309 385.9323,287.2032 384.6053,288.371 384.03,289.2148 383.4961,290.7307 382.3371,291.6239 382.0324,291.9799 381.4497,293.0578 381.336,293.7846 381.0246,294.2575 380.1812,294.5013 378.934,295.6205 378.7634,295.8056 378.5737,296.2944 378.3665,296.8284 379.0797,297.7082 378.9678,298.9534 378.6444,299.2077 377.7783,299.2444 376.2881,300.4253 374.8732,300.9744 373.6318,301.8251 372.5343,302.3467 371.8545,303.1441 370.9129,303.2917 370.3708,304.0172 370.1512,304.0648 369.4671,303.7326 368.0861,304.0296 367.7626,304.2271 367.3831,304.9077 366.7238,305.0817 366.0969,306.2073 365.7838,306.3917 361.5344,306.6283 361.0372,306.5264 359.2548,305.632 358.3799,305.6512 356.3652,305.0458 355.8455,305.1291 354.7421,305.6774 354.1402,305.6217 353.3648,305.2313 353.4202,304.9196 352.9914,304.2886 350.9542,305.9811 350.6767,305.7393 350.5246,305.0958 349.063,304.2658 347.352,303.9626 345.3724,303.3335 344.772,303.6121 344.3527,304.1957 343.7203,306.339 343.4202,306.7207 343.1891,306.7103 342.9333,306.1462 342.5923,306.0948 342.073,306.6147 341.6335,306.7996 340.1188,306.8956 339.8235,306.7987 339.1042,305.8678 338.0593,306.055 336.5692,305.6629 336.281,305.378 335.9962,304.8931 335.6312,303.6252 335.2739,303.3213 334.8287,303.1808 334.0319,303.4591 333.5574,303.4605 332.3679,302.4276 331.6769,302.9865 331.3185,303.0909 330.7144,302.8551 330.3253,301.2091 329.78,300.7152 329.2828,300.7165 327.2205,301.4071 327.1504,301.4305 328.1182,300.472 328.2343,299.948 327.999,299.4254 326.5579,299.3318 324.3799,297.0817 323.9864,295.9532 323.8208,294.9873 324.0898,293.5695 323.9522,292.9872 323.5033,292.6772 321.8566,292.4091 321.6416,292.0992 321.3916,290.8571 321.2999,290.8384 320.4957,290.6744 319.8911,290.5508 318.7986,289.8935 318.0194,289.7786 317.0456,289.8581 316.344,289.7054 315.3501,289.2317 314.654,289.5445 314.3965,289.4987 313.9966,289.0551 312.7757,288.6608 311.8475,288.0538 310.3407,287.8586 309.7427,287.4192 308.5969,287.1956 307.9162,287.3453 307.4557,287.7052 306.6427,287.7927 305.8127,287.5452 305.1203,288.0371 304.1672,287.8688 302.7751,287.9801 301.2288,287.306 299.5635,287.0989 298.3927,286.6344 297.6327,286.5572 297.1202,286.0537 296.1683,286.1376 295.7195,286.0209 295.3625,285.8479 294.519,284.6824 293.1036,284.5434 292.1362,284.1596 291.8355,283.7296 292.0014,283.1745 291.7923,283.2027 291.7305,283.0058 292.3902,281.3575 292.5643,280.5029 291.7152,278.9268 291.7384,278.2188 291.3015,277.4005 291.532,276.3367 291.4742,275.4489 290.4599,274.4517 290.3342,272.9341 289.6483,272.0325 289.8108,271.4328 289.3189,271.0516 288.7823,269.935 288.2614,269.5549 286.6191,269.0669 286.5095,268.7403 286.7272,268.2761 286.8478,267.0214 285.7795,266.3963 285.532,265.8248 284.9676,263.59 284.9066,261.3001 284.1612,260.4105 284.2706,259.6318 283.678,258.7829 283.9226,258.4787 283.9418,257.9506 283.7161,257.1384 283.1431,255.8001 282.4385,255.1318 282.516,254.2885 282.1512,253.3858 282.5564,252.8573 282.4635,252.1671 282.6848,250.3196 283.1913,249.3842 283.993,248.6511 283.5631,247.2712 283.073,246.7649 282.8667,245.1818 283.1406,244.714 283.1803,244.3081 284.0855,243.4486 285.9963,242.413 286.6229,241.0355 287.613,241.3142 288.4094,240.8494 288.4748,240.2193 288.1414,239.7725 287.8078,239.3266 287.8397,238.3325 288.5011,236.6759 289.6637,236.1761 290.4941,236.0087 291.4929,236.3382 292.4573,235.9715 292.1824,232.3624 291.6483,231.1379 290.184,230.3787 289.8152,228.9888 291.1423,227.7934 292.2363,226.1026 293.8383,225.0434 295.4546,222.7497 297.2133,221.4212 297.7754,220.2608 301.7645,219.6889 303.9217,217.9293 304.9183,217.4473 307.246,217.9223 310.0753,219.4063 310.2729,219.3171 310.7396,219.1068 311.2357,217.7805 312.0976,217.0833 312.2287,216.0892 311.8745,212.4658 313.3802,210.4563 314.5354,206.8108 318.6109,203.9966 319.3482,203.4875 320.6735,201.6629 322.1626,198.5132 330.6251,192.6975 332.6214,193.6864 335.8689,193.7689 341.5884,190.1879 343.5805,189.5204 343.7452,188.858 343.2434,187.3681 344.5623,183.0599 347.3853,182.2246 349.1436,180.6808 349.5419,180.5637 354.8434,174.2572 355.8393,173.5929 356.1695,172.5983 358.9439,170.0502 359.0535,169.9496 360.1474,168.9453 363.3021,167.7781 365.4651,168.4351 367.7885,167.767 368.6202,168.0964 368.7561,168.022" stroke="black" /><polygon fill="none" points="310.9218,143.6283 301.5015,123.8801 298.8999,118.5216 298.8681,118.4567 298.6665,118.3528 298.0536,118.0457 297.8624,117.8494 297.8214,117.8072 297.7082,117.691 297.6958,117.6782 297.4123,117.3867 297.0993,117.0647 297.0031,116.8891 296.9781,116.8434 296.8479,116.6057 296.844,116.5984 296.8151,116.5457 296.8004,116.5189 296.7893,116.4986 296.569,116.0962 296.6849,115.5865 296.534,115.5107 296.4067,115.4466 296.2133,115.3509 295.7131,115.1052 295.2327,114.9871 294.1484,114.7204 293.5017,114.3903 291.9936,112.5159 292.1109,111.9215 293.7129,103.8068 295.0119,103.8044 297.4379,103.7358 306.1704,103.4888 309.6623,104.9716 315.3748,108.001 319.1495,110.0026 319.183,110.0203 319.588,110.0783 319.7262,110.098 320.7834,110.2501 321.3769,110.563 321.9093,110.8439 322.0769,111.1684 321.8197,111.8951 321.582,113.9918 321.856,114.7015 322.5252,115.2699 323.2221,115.3939 323.2251,115.3945 323.2768,115.3807 323.4892,115.3241 326.5203,112.7942 327.2084,112.0204 327.3135,111.56 326.9829,110.5352 327.1127,109.9565 327.4013,109.4119 327.9275,109.0162 328.7262,108.8742 329.2322,108.9784 330.9477,110.3244 331.9546,110.4622 332.6156,110.058 334.3718,109.7709 335.3712,112.0664 335.7119,112.8488 340.8339,124.61 324.0851,137.3446 322.9795,138.1852 321.4014,139.3851 315.0275,144.2313 314.8852,144.3395 316.1009,144.2657 317.2093,144.0702 318.3394,143.9615 319.3608,143.918 319.8606,143.8528 320.2953,143.679 320.7082,143.7007 321.4471,144.1353 321.8263,144.3061 322.5779,144.5536 323.185,144.9154 323.6316,145.5167 324.104,146.0169 325.1116,146.8067 326.8207,147.4482 326.9891,147.4116 327.0864,147.3163 327.1273,147.084 327.3429,146.7456 327.5934,146.6345 327.9999,146.6729 329.2577,146.6436 329.7902,146.603 330.3226,146.5624 330.6893,146.604 330.9055,146.6904 331.1218,146.7768 332.143,147.5829 332.3118,147.6057 332.8764,147.5255 333.0001,147.5586 333.0584,147.6204 333.1168,147.6822 333.0716,148.036 333.0264,148.3897 333.0871,148.5955 333.2212,148.7721 333.1382,149.1653 333.1408,149.5121 333.399,149.9011 333.6806,150.1325 333.9228,150.1621 334.5252,149.987 334.9863,149.7473 335.205,149.7041 335.3444,149.751 335.4837,149.798 335.5878,149.9141 335.6918,150.0303 335.8424,150.3604 335.9181,150.9072 336.0827,151.6593 336.2473,152.4115 336.4231,152.9893 336.4277,153.0076 336.4322,153.026 336.6762,153.5961 336.679,154.1558 336.6027,154.6732 336.6453,154.8647 336.6878,155.0562 336.8499,155.2453 337.0119,155.4344 337.6293,155.6822 337.9372,155.693 338.2452,155.7038 338.5421,155.8652 338.839,156.0266 339.3682,156.0412 339.4851,156.1626 339.4719,156.6374 339.5961,156.745 339.7203,156.8527 339.9206,157.1701 339.9263,157.3058 339.9881,158.7602 339.9947,158.9156 340.208,159.1923 340.422,159.7364 340.5353,160.5855 340.9685,161.7003 341.1351,161.8383 341.3018,161.9763 341.4117,162.0175 342.1119,162.2794 343.2388,162.4283 343.5966,162.6947 343.7764,163.0728 343.7562,163.8743 343.8122,164.019 343.8682,164.1637 344.5846,164.9193 344.6179,164.908 344.6512,164.8966 344.8309,165.2307 345.1442,165.653 346.0378,166.0291 346.4075,166.3401 346.699,166.8068 347.3505,168.4755 347.7311,168.8758 348.6026,169.23 349.2727,169.3391 350.5555,169.0023 351.2251,168.7786 351.8724,168.4868 352.6746,168.0392 353.1648,167.6151 353.2217,167.452 353.3201,167.1696 353.6876,166.8347 363.1154,165.4555 363.4918,165.4004 375.7536,163.6066 374.9316,166.9209 370.445,167.0981 368.7561,168.022 368.6202,168.0964 367.7885,167.767 365.4651,168.4351 363.3021,167.7781 360.1474,168.9453 359.0535,169.9496 358.9439,170.0502 356.1695,172.5983 355.8393,173.5929 354.8434,174.2572 349.5419,180.5637 349.1436,180.6808 347.3853,182.2246 344.5623,183.0599 343.2434,187.3681 330.5798,172.8288 330.3495,172.5643 330.3457,172.56 330.3372,172.5502 330.2835,172.4893 321.0044,161.8276 320.9838,161.8038 317.9172,158.2803 317.7441,157.9181 315.5389,153.2995 311.7596,145.3843 310.9218,143.6283" stroke="black" /><polygon fill="none" points="62.3376,329.1039 61.4222,327.7115 61.0116,326.7012 60.2877,326.3657 59.8771,326.534 58.3057,326.2808 57.0046,325.2016 54.1572,323.5315 52.9266,323.4001 51.6722,323.6415 49.8379,323.5717 48.6893,323.9856 48.4632,324.4474 48.1429,324.3871 47.9222,323.4107 48.4208,322.866 49.3237,322.2829 49.3833,322.0437 49.0824,321.3058 49.1423,320.6181 49.2095,320.5298 49.4619,320.1989 49.8829,319.9992 49.8822,319.6001 49.5911,319.4208 49.1813,319.4212 48.8496,319.0259 48.601,316.8898 48.7898,315.0441 48.5087,314.0182 48.7789,313.189 48.238,312.8804 47.2784,313.0948 47.3571,314.1931 47.0184,314.5607 46.7275,314.4612 46.0064,313.8182 45.7759,312.902 43.8871,311.682 42.6815,310.125 42.5217,309.6995 42.5116,308.923 42.8378,307.8169 43.1895,307.3152 43.5412,306.8135 43.9614,305.7465 43.7417,304.8376 44.269,303.8899 44.4228,302.4263 44.7469,301.6496 44.878,301.3357 44.8858,301.3171 45.1354,300.7195 45.2704,300.6263 45.2811,300.6189 45.2826,300.6178 45.64,300.3707 45.7906,299.842 45.7695,299.782 45.6712,299.5025 45.2497,299.1297 44.0092,298.6514 43.5949,297.7834 43.5778,297.6892 43.5312,297.4286 43.3572,296.4623 42.0066,295.1478 42.2256,294.4035 40.9948,293.1876 39.9936,292.4548 39.5226,291.4585 38.9624,291.4368 38.8227,291.0275 38.8917,290.3362 36.7367,289.2731 35.8972,288.7238 35.5086,288.2385 35.0577,288.2883 34.8975,288.1684 34.6574,286.9468 34.827,286.0797 35.3875,285.7907 35.4077,285.6106 35.1737,285.191 34.2466,284.9976 34.3947,284.4764 34.0858,283.7513 33.1347,283.3724 33.0852,282.9786 33.6055,282.3702 33.4671,281.3303 33.8454,281.2531 33.5251,280.9693 33.3645,280.4601 32.554,279.3535 32.8536,279.2636 32.884,279.1142 32.5832,278.2815 32.6926,277.3545 31.8314,275.5251 30.8711,275.2556 30.3504,274.4474 28.8692,273.2364 28.5081,271.3768 28.6083,270.9483 29.0287,270.4794 29.138,269.7139 28.6078,268.3091 28.6043,268.2997 28.528,268.0974 28.6101,267.5545 28.0661,266.312 28.169,265.7389 19.8969,259.4691 20.4158,258.6092 21.2355,258.5157 21.3586,258.3791 21.2911,257.8607 21.5677,257.4071 23.2639,255.9417 23.5151,255.8739 24.6018,255.8179 25.251,255.1072 25.4199,254.5355 25.989,253.7857 26.467,253.4115 27.73,253.1172 28.0705,252.7212 28.1924,252.2246 28.6034,251.8706 30.0866,251.1696 32.6887,249.3492 33.2344,248.7324 34.9122,247.6815 35.6284,246.9425 37.5174,245.4844 38.2498,245.455 38.5101,244.9928 39.387,243.4359 40.2992,243.6506 40.9662,243.055 41.9622,243.251 42.1974,243.0736 42.6764,241.9589 43.5036,241.0634 44.4351,240.4533 44.8006,239.6862 45.9712,239.4476 46.2845,239.1481 46.0884,238.6345 46.3347,237.7872 47.2483,237.2736 46.9165,236.4347 47.4927,235.6295 48.0712,235.2631 48.4538,234.7731 49.0376,233.5032 51.096,231.8795 51.4201,231.0493 53.0337,228.8524 54.3735,228.2471 54.5564,226.7278 54.8388,226.3459 55.3972,225.9937 56.0156,224.5895 79.2241,227.7012 79.4114,227.7264 82.8325,228.1846 85.6146,230.0552 85.6654,230.0893 89.9168,232.9477 91.2308,233.0997 91.4793,233.179 92.4139,233.4773 92.7104,233.6183 93.8261,234.149 94.5076,234.3495 96.0377,234.4838 96.769,234.6632 96.9847,234.8288 97.6034,236.134 98.0786,236.635 98.6005,236.8708 99.3861,237.0787 99.6016,237.2445 99.7276,237.4383 100.0409,237.6879 100.278,237.788 100.7643,237.6695 101.3763,237.8008 102.5048,238.8816 102.797,239.0798 103.2699,239.2178 103.8819,239.2662 104.4741,239.5707 105.1419,240.0972 105.205,241.0365 105.4345,241.1692 105.6997,241.2794 106.0052,241.3071 106.7707,241.2582 107.8404,241.6253 108.0819,241.7687 109.2471,242.847 109.4799,242.9622 110.0085,242.9625 110.5006,242.7806 111.1002,242.7001 111.5099,242.7057 111.9153,242.786 113.0436,243.4722 113.2142,243.721 114.4736,244.289 115.4968,244.9663 115.6686,245.2034 115.8922,245.8249 115.893,246.4131 115.9849,246.7266 116.2868,246.9224 116.5751,246.9616 116.89,247.092 117.0876,247.301 117.2453,247.7195 117.3249,248.7326 117.509,249.321 117.8653,249.5192 117.873,249.5235 118.2836,249.752 118.6904,249.8825 118.9919,249.8431 119.3989,249.8881 120.363,250.8906 120.8172,251.1592 121.348,251.3221 122.2716,251.9098 122.7427,252.1255 122.9836,252.1847 123.3878,252.2841 124.4648,252.2372 125.0491,252.0903 125.1498,252.0238 125.7049,251.6572 126.2029,251.4741 126.677,251.4494 127.1017,251.4274 127.3969,251.6234 127.9157,251.8358 128.3684,252.0902 128.7092,252.129 128.9983,252.0033 130.0224,250.9949 131.2661,250.2073 131.6273,250.1222 132.2892,250.1023 132.7219,250.1469 133.2151,250.3358 133.5364,250.3584 134.8523,249.6446 136.251,249.7053 136.684,249.5679 137.4908,249.5534 137.8317,249.717 138.3304,249.7092 138.56,249.5784 139.2107,248.9353 140.035,248.2662 140.48,248.1149 140.9329,248.0429 141.1948,247.8853 141.3848,247.6373 141.6341,247.4478 142.1521,247.2407 142.3553,247.2139 142.6246,247.4425 142.7624,247.7102 142.98,247.9197 143.8388,248.0824 144.4291,248.0846 145.3084,247.8288 146.5605,247.1667 146.9141,246.9247 147.7991,246.7195 148.288,246.6821 149.0406,246.4188 149.4518,246.1775 150.344,245.7865 150.7857,245.3682 150.8087,245.0282 151.2193,244.0807 151.413,243.9842 151.8519,243.9524 152.1823,244.0533 152.3581,244.0397 145.2429,273.7344 145.1397,274.1658 136.1216,311.8617 135.3151,315.238 129.4592,339.7538 129.4191,339.9216 123.2212,365.9009 123.1391,365.8804 122.9366,364.762 122.7128,364.3981 122.1188,364.2127 121.3023,364.4613 120.9598,364.3513 120.3625,363.4507 119.5343,363.2859 117.1607,363.5465 115.0185,363.1475 115.04,362.5865 115.4699,361.8386 115.4142,361.4646 115.0611,361.2011 113.596,361.2412 113.3163,361.0542 113.2388,360.7576 113.7242,360.1522 114.788,359.4003 115.103,358.9247 114.9258,358.3086 114.4951,358.0125 113.7715,358.1396 113.2218,358.3173 111.7608,358.9971 110.9191,359.0385 110.2466,358.3922 109.4826,356.7859 108.8966,356.4945 106.8314,356.0675 105.5175,356.1619 104.6667,355.7227 103.9302,355.0666 102.315,354.9168 96.3866,353.5859 94.8972,353.5492 93.6907,352.4058 93.1049,352.2573 91.8803,352.4896 91.3056,352.3905 90.5528,351.8959 88.578,351.1007 86.8799,351.075 85.8468,350.7316 84.5927,350.0092 82.5824,349.763 81.1248,348.7909 80.2417,348.9671 78.7079,348.8921 77.8247,349.2935 76.3232,349.0741 72.6713,347.1201 72.425,346.7373 72.5017,346.4061 73.3403,345.9883 73.2488,345.4576 72.9196,344.6757 72.5566,344.4602 72.3391,344.6523 71.7379,344.6288 71.6391,343.7637 71.7831,343.4259 71.0575,342.0445 69.6348,341.8293 69.3221,341.4572 69.0789,340.1592 70.1636,339.3904 70.1156,338.8244 69.1979,337.6463 69.0293,337.1656 69.2207,336.0006 69.076,334.8465 68.81,334.5828 67.8929,334.2705 67.6507,333.2488 66.9988,332.4322 66.1294,332.0236 65.768,332.0597 65.2616,332.493 64.9677,332.3959 63.8865,331.3598 63.7072,331.1879 62.3376,329.1039" stroke="black" /><polygon fill="none" points="365.2141,56.308 365.7753,55.8145 366.461,55.2117 367.703,54.3727 368.5534,53.7561 368.9887,52.9624 369.0231,52.8826 369.039,52.8458 369.8264,53.1656 371.4897,54.6512 373.6474,54.3153 376.5704,54.6386 379.6254,54.6313 380.7884,54.9586 382.7814,54.9545 384.444,55.6125 385.7709,55.278 387.2674,55.4942 389.3571,55.874 390.372,56.5415 391.0237,57.5825 392.4203,58.3077 394.4134,58.5675 394.5774,57.9046 395.4098,58.3994 396.6488,58.3078 397.7335,58.2277 398.7345,60.0466 398.736,60.5431 399.2337,60.5421 399.7341,61.2027 401.5017,60.5761 401.7039,60.65 401.7679,60.7315 402.3916,61.5272 402.4775,61.5354 403.0889,61.5935 403.5562,62.518 405.3824,62.5125 405.7164,63.174 407.6168,64.1412 408.7352,65.3736 409.5939,66.32 410.4575,67.6376 411.8746,68.6628 412.1414,69.085 412.5041,69.2285 412.9357,69.3992 412.8754,72.0391 412.3372,73.2852 414.4282,73.5445 415.3295,73.4398 415.5419,73.4148 415.6462,73.4755 446.6474,91.5404 447.3289,92.9465 447.6288,93.5654 451.9922,102.5675 452.1148,102.8205 452.1976,102.9914 452.2822,103.1658 452.4035,103.4162 452.5983,103.8177 453.2208,105.1011 458.0511,115.0591 458.056,115.0693 466.539,132.5449 465.8755,133.0435 464.0536,133.7005 463.3907,134.8734 462.6565,137.4635 461.7447,139.8459 460.6226,140.3926 460.6074,140.3999 456.271,142.5123 455.11,143.1785 454.0853,144.0065 452.1504,144.2103 449.1358,145.1834 445.4866,146.8505 443.4924,146.8573 441.1625,145.2086 438.8351,144.8838 436.6815,146.877 435.5211,147.7086 434.764,149.0599 432.788,149.7925 432.5154,150.0457 432.8076,153.2817 430.4283,153.5732 428.7331,155.8426 428.5698,156.8365 429.9061,158.9853 429.9084,159.238 428.2492,160.4807 428.0795,160.8212 428.2576,163.4611 428.1495,163.6154 427.5352,164.496 427.2698,164.8762 427.2655,164.8824 427.0992,165.1206 426.6084,167.6059 425.6145,168.7679 424.452,168.9368 422.6218,168.1145 421.2902,167.1246 418.6318,167.1327 416.6961,166.2814 415.9108,166.5683 415.3054,166.1488 415.1195,166.1712 414.3133,167.6414 413.9683,167.7499 412.5955,167.452 408.7024,169.1756 405.674,167.997 402.6818,167.5086 401.2557,167.095 400.6693,166.9249 397.0279,165.8677 396.3563,166.082 394.3745,167.8622 392.714,168.1975 390.7185,167.5412 389.3837,165.5578 388.0533,165.2302 386.3544,165.7991 382.7389,166.0719 380.0755,164.2574 379.4077,163.0998 377.011,161.981 376.3754,162.3113 375.7536,163.6066 363.4918,165.4004 363.1154,165.4555 353.6876,166.8347 353.3201,167.1696 353.2217,167.452 353.1648,167.6151 352.6746,168.0392 351.8724,168.4868 351.2251,168.7786 350.5555,169.0023 349.2727,169.3391 348.6026,169.23 347.7311,168.8758 347.3505,168.4755 346.699,166.8068 346.4075,166.3401 346.0378,166.0291 345.1442,165.653 344.8309,165.2307 344.6512,164.8966 344.6179,164.908 344.5846,164.9193 343.8682,164.1637 343.8122,164.019 343.7562,163.8743 343.7764,163.0728 343.5966,162.6947 343.2388,162.4283 342.1119,162.2794 341.4117,162.0175 341.3018,161.9763 341.1351,161.8383 340.9685,161.7003 340.5353,160.5855 340.422,159.7364 340.208,159.1923 339.9947,158.9156 339.9881,158.7602 339.9263,157.3058 339.9206,157.1701 339.7203,156.8527 339.5961,156.745 339.4719,156.6374 339.4851,156.1626 339.3682,156.0412 338.839,156.0266 338.5421,155.8652 338.2452,155.7038 337.9372,155.693 337.6293,155.6822 337.0119,155.4344 336.8499,155.2453 336.6878,155.0562 336.6453,154.8647 336.6027,154.6732 336.679,154.1558 336.6762,153.5961 336.4322,153.026 336.4277,153.0076 336.4231,152.9893 336.2473,152.4115 336.0827,151.6593 335.9181,150.9072 335.8424,150.3604 335.6918,150.0303 335.5878,149.9141 335.4837,149.798 335.3444,149.751 335.205,149.7041 334.9863,149.7473 334.5252,149.987 333.9228,150.1621 333.6806,150.1325 333.399,149.9011 333.1408,149.5121 333.1382,149.1653 333.2212,148.7721 333.0871,148.5955 333.0264,148.3897 333.0716,148.036 333.1168,147.6822 333.0584,147.6204 333.0001,147.5586 332.8764,147.5255 332.3118,147.6057 332.143,147.5829 331.1218,146.7768 330.9055,146.6904 330.6893,146.604 330.3226,146.5624 329.7902,146.603 329.2577,146.6436 327.9999,146.6729 327.5934,146.6345 327.3429,146.7456 327.1273,147.084 327.0864,147.3163 326.9891,147.4116 326.8207,147.4482 325.1116,146.8067 324.104,146.0169 323.6316,145.5167 323.185,144.9154 322.5779,144.5536 321.8263,144.3061 321.4471,144.1353 320.7082,143.7007 320.2953,143.679 319.8606,143.8528 319.3608,143.918 318.3394,143.9615 317.2093,144.0702 316.1009,144.2657 314.8852,144.3395 315.0275,144.2313 321.4014,139.3851 322.9795,138.1852 324.0851,137.3446 340.8339,124.61 335.7119,112.8488 335.3712,112.0664 334.3718,109.7709 334.6512,109.7251 335.6813,109.3323 336.5295,108.2976 336.8425,107.7685 336.9707,107.5518 337.4199,107.2771 339.8794,106.2852 340.9068,106.1357 342.4952,105.0365 344.2456,104.1825 344.4345,103.6056 343.9446,103.0304 343.3177,102.6412 343.1393,102.0947 343.3049,101.8203 344.6576,100.6236 346.097,100.5837 346.7655,100.3919 348.0696,99.6757 348.6431,99.1513 349.1276,98.2123 349.2262,97.797 349.25,97.0693 348.7636,95.7578 349.1754,94.8128 349.928,94.3882 350.6612,94.1449 351.9109,93.9446 352.7295,93.4174 353.2199,93.1016 353.302,92.8488 352.9112,91.8603 352.898,91.4405 353.2199,90.981 353.7136,90.7345 353.7231,90.3921 353.3307,90.2077 353.1047,89.8369 353.024,89.002 352.7875,88.6061 351.7159,88.5583 351.831,87.6416 351.8518,87.4761 351.6733,86.6964 351.0156,86.703 349.9917,84.2718 350.0288,83.9906 350.0483,83.8418 350.5943,82.2755 350.5522,80.6009 350.8588,78.8667 350.4034,78.0913 350.3566,77.7006 350.3428,76.6487 350.3003,73.4001 350.2773,71.5946 349.2186,71.2851 348.736,70.9594 348.2009,69.8142 347.5888,69.1077 347.5171,68.7261 346.991,68.2459 346.9804,67.7846 346.6301,66.8442 345.7281,66.592 345.3587,64.8278 345.7175,63.6143 345.9371,61.9993 353.3079,57.5095 353.9764,57.5042 357.1354,57.479 357.7913,57.0465 359.1412,55.3036 359.8086,55.198 362.2078,55.9786 363.5637,56.9857 364.0582,56.9966 364.0711,56.9969 364.3378,57.0028 364.5447,56.8387 365.2141,56.308" stroke="black" /><polygon fill="none" points="200.5245,256.4866 201.212,256.2422 202.3703,254.447 202.4809,254.2754 202.5916,254.1039 203.3619,254.0485 203.6721,253.5182 204.1141,252.5434 204.1138,251.5257 204.6681,250.4402 207.1504,248.8886 208.1047,248.6879 209.0356,247.8902 210.0116,247.5349 211.1421,246.4488 211.9847,245.8719 212.8725,245.9595 214.1375,245.4929 214.4915,245.0499 215.5567,244.7377 216.9536,243.5194 217.9716,242.1461 218.7036,241.8129 218.9257,241.2822 220.0345,241.1028 220.3892,240.8804 222.1459,242.6704 224.6104,243.0429 225.0993,243.3514 226.341,243.6589 227.5191,243.4139 228.1835,242.7492 229.8916,242.1048 230.7365,242.8999 231.4027,243.2969 231.6485,244.7718 233.1596,244.865 233.8247,244.6861 235.2237,245.2374 237.1332,245.3669 238.4646,245.2761 239.4175,244.1902 240.4375,243.6572 241.2368,243.8333 242.0124,243.19 242.6779,243.144 243.3015,244.0732 244.1892,243.9385 244.9203,243.5164 245.543,243.8254 246.2891,243.47 246.4744,243.3817 247.0951,242.8491 248.0469,241.4981 248.534,241.0991 248.5336,240.6569 249.2644,239.7933 250.2401,239.1715 250.595,238.5721 250.948,237.9752 251.2344,236.9352 251.723,236.8013 252.0324,236.2701 252.9649,236.0912 253.2078,235.4047 254.3592,234.1204 255.8887,233.21 256.4641,232.191 256.5962,231.4387 257.1948,231.2384 257.7284,231.4594 258.0404,232.3431 259.8839,233.2023 260.2847,233.7328 261.7956,234.7479 262.7057,234.6798 264.0805,234.0571 264.4802,234.2336 266.4592,236.0656 266.7696,236.0659 267.8587,236.7494 267.9923,237.3685 268.6158,238.0313 269.2375,238.251 270.2358,238.183 270.9477,238.9338 272.3483,239.8822 274.4806,240.8072 275.2617,241.6696 277.8786,242.9892 278.6573,242.8343 281.0337,240.7538 281.1391,240.6613 283.1904,241.1579 284.2141,240.679 285.133,240.2495 288.1414,239.7725 288.4748,240.2193 288.4094,240.8494 287.613,241.3142 286.6229,241.0355 285.9963,242.413 284.0855,243.4486 283.1803,244.3081 283.1406,244.714 282.8667,245.1818 283.073,246.7649 283.5631,247.2712 283.993,248.6511 283.1913,249.3842 282.6848,250.3196 282.4635,252.1671 282.5564,252.8573 282.1512,253.3858 282.516,254.2885 282.4385,255.1318 283.1431,255.8001 283.7161,257.1384 283.9418,257.9506 283.9226,258.4787 283.678,258.7829 284.2706,259.6318 284.1612,260.4105 284.9066,261.3001 284.9676,263.59 285.532,265.8248 285.7795,266.3963 286.8478,267.0214 286.7272,268.2761 286.5095,268.7403 286.6191,269.0669 288.2614,269.5549 288.7823,269.935 289.3189,271.0516 289.8108,271.4328 289.6483,272.0325 290.3342,272.9341 290.4599,274.4517 291.4742,275.4489 291.532,276.3367 291.3015,277.4005 291.7384,278.2188 291.7152,278.9268 292.5643,280.5029 292.3902,281.3575 291.7305,283.0058 291.7923,283.2027 292.0014,283.1745 291.8355,283.7296 292.1362,284.1596 293.1036,284.5434 294.519,284.6824 295.3625,285.8479 295.7195,286.0209 296.1683,286.1376 297.1202,286.0537 297.6327,286.5572 298.3927,286.6344 299.5635,287.0989 301.2288,287.306 302.7751,287.9801 304.1672,287.8688 305.1203,288.0371 305.8127,287.5452 306.6427,287.7927 307.4557,287.7052 307.9162,287.3453 308.5969,287.1956 309.7427,287.4192 310.3407,287.8586 311.8475,288.0538 312.7757,288.6608 313.9966,289.0551 314.3965,289.4987 314.654,289.5445 315.3501,289.2317 316.344,289.7054 317.0456,289.8581 318.0194,289.7786 318.7986,289.8935 319.8911,290.5508 320.4957,290.6744 321.2999,290.8384 321.3916,290.8571 321.6416,292.0992 321.8566,292.4091 323.5033,292.6772 323.9522,292.9872 324.0898,293.5695 323.8208,294.9873 323.9864,295.9532 324.3799,297.0817 326.5579,299.3318 327.999,299.4254 328.2343,299.948 328.1182,300.472 327.1504,301.4305 327.2205,301.4071 329.2828,300.7165 329.78,300.7152 330.3253,301.2091 330.7144,302.8551 331.3185,303.0909 331.6769,302.9865 332.3679,302.4276 333.5574,303.4605 334.0319,303.4591 334.8287,303.1808 335.2739,303.3213 335.6312,303.6252 335.9962,304.8931 336.281,305.378 336.5692,305.6629 338.0593,306.055 339.1042,305.8678 339.8235,306.7987 340.1188,306.8956 341.6335,306.7996 342.073,306.6147 342.5923,306.0948 342.9333,306.1462 343.1891,306.7103 343.4202,306.7207 343.7203,306.339 344.3527,304.1957 344.772,303.6121 345.3724,303.3335 347.352,303.9626 349.063,304.2658 350.5246,305.0958 350.6767,305.7393 350.9542,305.9811 352.9914,304.2886 353.4202,304.9196 353.3648,305.2313 354.1402,305.6217 354.7421,305.6774 355.8455,305.1291 356.3652,305.0458 358.3799,305.6512 359.2548,305.632 361.0372,306.5264 361.5344,306.6283 365.7838,306.3917 366.0969,306.2073 366.7238,305.0817 367.3831,304.9077 367.7626,304.2271 368.0861,304.0296 369.4671,303.7326 370.1512,304.0648 370.3708,304.0172 370.9129,303.2917 371.8545,303.1441 372.5343,302.3467 373.6318,301.8251 374.8732,300.9744 376.2881,300.4253 377.7783,299.2444 378.6444,299.2077 378.9678,298.9534 379.0797,297.7082 378.3665,296.8284 378.5737,296.2944 378.7634,295.8056 378.934,295.6205 380.1812,294.5013 381.0246,294.2575 381.336,293.7846 381.4497,293.0578 382.0324,291.9799 382.3371,291.6239 383.4961,290.7307 384.03,289.2148 384.6053,288.371 385.9323,287.2032 386.8721,286.0309 388.4113,285.2436 390.5809,283.5799 392.242,282.4265 392.3399,282.3161 392.3744,282.3297 392.9669,282.5699 393.183,282.8469 393.5502,283.8726 394.3151,284.9285 394.7965,285.0818 396.2487,285.5442 397.5496,286.7068 398.8078,286.7886 399.9232,287.5867 400.5033,287.7133 401.7792,287.2713 403.6673,287.4156 404.2889,287.178 404.9845,286.5455 406.2065,285.9012 410.7685,284.5376 411.5185,283.4917 412.0994,283.1444 412.4517,282.5141 413.5853,281.5908 414.2155,280.7017 414.601,280.55 414.9457,280.7208 415.4171,280.6763 415.9204,280.1931 417.0134,280.017 417.3977,279.4425 419.4693,279.702 422.1166,278.7853 423.4217,277.2403 424.7166,276.4195 426.3102,275.0136 432.2639,278.8654 429.6194,283.8417 427.3189,292.6252 431.3149,289.8873 406.4424,335.5117 393.0281,360.1493 390.2591,359.7994 389.5931,359.9998 388.2676,361.4607 387.2714,362.2917 384.6108,362.9617 383.6123,362.6328 381.9506,363.631 378.4597,364.6344 377.2981,365.9619 371.3215,370.7814 370.9922,372.2727 372.1605,373.5938 372.4985,375.2493 370.8396,377.241 370.5322,377.3169 370.3272,377.367 368.5603,377.8027 362.6917,379.2497 356.025,375.4592 354.6942,375.6283 353.3388,375.3129 352.6695,375.3371 352.4986,375.3433 352.3038,375.3505 350.8046,375.4049 348.5698,375.486 347.2398,376.4955 344.5137,377.3361 340.7521,379.3758 339.1581,379.7052 338.9934,379.7392 338.6803,381.4248 338.5469,382.1424 338.7074,383.9286 339.1493,384.8027 338.916,385.5371 338.3519,385.9773 338.1032,386.6647 337.0065,387.4802 335.4582,389.6871 334.7667,390.2526 333.8128,390.6438 332.7794,391.4597 330.6925,391.7928 330.095,391.3249 329.8743,390.9194 329.6011,389.0935 328.87,388.3771 328.3007,388.5916 327.8012,388.415 327.5843,387.9529 326.8186,387.4588 325.465,387.8881 323.5571,387.8924 323.0588,388.3907 322.7955,389.8112 322.1537,390.026 320.6933,390.0653 319.5352,390.8131 318.8579,390.8148 318.0586,391.5625 317.8465,392.7346 316.7429,393.3406 315.5835,393.0945 313.5521,393.454 312.8562,392.782 311.6064,392.5008 311.3573,392.7855 310.9837,392.857 309.2342,391.7959 307.4688,391.7289 307.0421,391.9431 305.4158,391.5207 303.9574,391.6668 303.3158,391.8806 302.943,392.5206 302.4444,392.6281 301.947,393.5883 301.6269,393.7662 300.1468,393.6276 299.0047,392.9558 297.3114,393.2787 296.7768,393.1018 296.0258,392.2523 295.935,391.5421 295.506,391.1869 294.5788,390.9411 293.9372,391.0141 292.0267,389.7047 291.3847,389.5289 290.1556,389.9582 289.6915,389.7452 289.3695,389.1432 288.6557,388.6467 287.9961,388.7194 286.8537,388.0828 286.1391,387.4805 285.7454,386.6644 285.2947,386.4531 284.1943,386.5613 283.8735,386.3499 281.6467,387.4195 280.471,387.7054 280.0611,387.9556 279.5998,388.8787 279.0642,389.3432 276.84,390.2342 275.4133,390.2372 272.7232,390.7398 270.7088,390.8154 270.1742,390.9933 269.4957,390.7814 268.9966,390.4275 268.3018,390.4645 267.3375,391.7455 265.8987,392.3506 265.329,393.0621 265.0082,393.2398 264.1353,393.1711 262.7382,393.7253 261.2327,394.8807 260.8779,395.5563 260.774,396.2064 260.7019,396.657 258.9424,397.4487 258.4038,397.6911 257.7645,398.9704 257.3243,402.0955 257.2708,402.1287 256.3454,402.7012 256.2395,403.1985 256.3828,403.5887 257.5078,404.3681 257.794,404.8283 257.9577,406.6383 257.6737,407.136 256.0343,407.8139 255.8386,408.2045 256.0188,408.808 256.6261,409.5528 256.6631,410.2981 256.4343,411.6839 256.6141,412.5346 256.0632,413.4936 256.2426,413.9552 255.8859,414.027 255.1386,414.5252 254.6382,414.3851 253.9447,414.8827 253.4449,414.7771 252.9461,414.9914 252.5174,414.637 251.8033,414.3895 251.0372,414.3908 250.3231,414.0378 249.8955,414.1806 249.131,415.2476 248.9187,416.2055 248.4912,416.5975 247.7785,416.8115 246.5116,416.3528 246.0839,416.3537 245.7998,416.7799 245.336,416.8167 245.3526,416.0711 244.6032,415.7882 244.1397,416.0017 243.783,415.8252 243.6224,415.5056 242.587,415.0466 242.1936,414.6916 241.7658,414.7286 240.8237,416.2921 240.9684,417.3576 238.8477,418.1773 238.4756,419.1373 237.8343,419.6709 237.3002,419.8482 236.7289,419.7791 235.9633,419.9222 235.7498,420.3492 234.9606,420.8405 234.7194,421.272 234.325,421.452 234.1651,421.7362 234.8441,422.6229 234.8102,423.4754 233.2963,424.472 231.3161,423.765 230.9229,423.4461 230.3162,423.3051 229.2139,423.3432 228.7411,423.5315 228.7353,423.5338 228.4088,423.6638 227.021,425.3701 225.9099,425.841 224.079,425.6241 223.6348,425.8378 223.0288,426.4423 222.6426,427.2007 221.98,428.5031 221.4103,428.6816 220.9453,428.2559 219.8029,427.8678 219.1794,427.8333 218.0389,428.4033 216.9322,427.8372 216.4147,427.7317 215.4527,428.1228 214.528,429.1189 211.1438,431.289 210.6432,431.61 210.2894,433.209 208.3527,433.7428 207.1703,434.1368 206.2266,434.7779 205.3374,436.731 205.4641,437.2999 205.1786,437.7264 203.6097,437.6575 202.469,438.0143 201.2745,438.4778 200.9185,438.9397 196.4787,440.3678 194.9658,441.043 193.3971,442.0045 191.918,442.2556 190.708,444.4937 190.5847,445.027 190.0489,445.2045 188.2653,444.746 187.3027,445.1024 186.0373,446.3137 184.9898,448.6565 184.3839,449.3669 183.5666,451.3209 182.6981,454.8355 181.5247,455.4964 181.5279,455.0112 181.5283,454.9467 181.5282,454.9462 181.1639,453.9887 180.2676,452.92 179.9013,452.2619 179.535,451.6039 177.8526,449.764 177.4954,449.4847 172.0788,446.0061 170.9591,445.3948 169.5745,444.3688 168.1086,443.5921 165.9244,442.6219 164.2961,442.1449 159.14,441.0926 155.4023,440.0221 152.8114,439.7469 151.4827,439.7082 150.3016,439.9749 147.5613,441.0693 144.6764,442.5425 143.7914,443.2675 142.2826,445.0177 141.0842,447.0629 137.5274,452.1262 136.5988,453.9557 134.8369,456.6364 133.1785,459.8512 132.4467,460.934 131.4168,464.2727 131.0692,465.575 130.9822,469.6453 131.2258,471.8325 131.2792,474.4533 130.574,480.7019 130.812,484.6645 130.7945,486.287 130.4635,488.2275 130.0837,489.0358 128.1951,491.5 125.867,496.0784 125.0221,497.3555 123.6987,498.5179 122.6101,499.2306 120.8919,499.8026 118.9388,500.0 117.4001,499.7895 114.1721,498.7666 112.7547,498.2457 110.4451,497.0156 109.7667,496.6543 109.5947,496.5626 108.584,496.0244 107.2914,495.1321 106.6079,494.3196 105.7235,492.3383 104.176,490.4508 101.1696,485.3984 100.8351,484.6226 99.8356,481.3091 99.4967,479.7198 99.3619,477.0765 99.5598,474.8915 102.0354,474.1203 105.6447,472.5932 106.9665,471.7761 111.1062,467.4906 111.7816,466.1132 112.0241,465.2347 112.6509,460.8765 112.6801,459.4095 111.8696,454.3113 112.2072,449.334 112.6231,447.0739 112.8072,442.3178 112.3419,439.8167 111.1545,437.0946 110.6889,435.3399 110.5058,433.8429 110.9296,432.3892 111.7873,430.6634 112.0144,429.8014 112.0444,429.0905 111.1667,425.4134 111.4457,423.1598 111.3459,421.6189 111.7389,420.317 112.4873,416.3869 112.4906,416.357 113.0684,411.1978 114.1146,409.0186 114.1963,407.2226 114.5742,405.3027 116.6399,401.1124 117.095,400.4228 117.8113,399.3364 118.23,397.3794 118.4648,396.2823 118.5662,395.0948 118.7241,393.246 121.0468,390.3805 123.0572,388.837 123.4246,388.2867 123.6284,387.0244 124.2042,385.872 124.5477,384.3809 125.4263,382.711 125.0955,382.2442 123.6833,381.0144 123.284,380.1331 123.2606,379.5372 124.0067,378.0513 123.6298,376.9708 122.9048,375.9994 122.7454,375.4557 122.607,374.0295 122.7093,372.354 122.5638,371.8482 121.5925,371.2076 120.7474,371.1187 119.4766,369.5875 119.5447,369.3755 119.9083,369.1646 121.697,369.1476 122.31,368.8182 122.7194,368.2435 123.2105,365.9497 123.2212,365.9009 129.4191,339.9216 129.4592,339.7538 135.3151,315.238 136.1216,311.8617 145.1397,274.1658 145.2429,273.7344 152.3581,244.0397 153.4042,244.4941 154.5579,243.9622 155.845,243.6949 157.244,244.1141 158.1348,245.0435 160.3665,246.5158 161.3535,246.9634 162.8873,248.4435 164.4428,249.5916 165.0868,249.8793 165.8413,249.746 167.9736,250.7608 169.1971,252.8168 169.3319,253.7463 168.9991,254.1221 168.778,255.0516 168.9665,255.205 169.2674,255.4496 170.6434,255.7128 171.9084,255.2024 172.3067,254.494 173.4166,253.7406 174.8141,253.5396 175.3472,253.7156 175.5943,256.7429 175.8632,257.587 175.7313,258.6048 174.912,260.6637 173.7813,261.8376 172.9379,261.838 172.1828,261.5298 171.2061,261.4428 170.2514,261.554 169.2769,262.5279 168.1014,264.1455 167.9691,265.0298 167.3488,265.6955 167.0387,266.5359 167.0177,267.2666 168.3508,268.6808 168.8406,269.5201 168.7757,270.9583 168.2891,272.2868 168.1576,273.4372 167.6043,274.5219 167.0727,276.2929 166.1427,277.8868 166.2995,278.9706 165.2801,280.6095 165.2141,281.5162 164.905,282.5342 164.2847,283.7304 164.1074,284.4379 164.0864,285.1239 165.4216,286.7154 165.0,287.8886 164.6281,291.7607 164.9843,292.8666 165.3208,295.7195 164.9672,297.0038 164.3362,298.5866 163.7052,300.1693 163.89,300.0657 164.0503,299.9756 164.4154,299.7702 164.9697,299.0387 165.4143,299.0387 166.0356,299.3479 167.2797,299.3904 167.6124,299.0847 168.7217,298.3931 170.5415,297.6116 171.3623,296.6592 171.8489,295.3312 172.0902,293.3179 172.623,292.6979 174.4876,292.9163 175.0421,292.2737 174.9521,291.168 175.7509,290.5027 177.8157,290.3015 178.2579,289.2389 180.4758,287.776 180.8976,287.2665 181.2077,286.5134 181.8276,285.6721 181.8719,285.1411 181.5819,284.1905 181.9356,282.9068 182.3783,282.4196 183.4665,282.0859 184.0866,281.3776 185.6575,277.3705 187.0988,275.7536 187.4973,275.0452 187.6288,273.8509 188.8046,272.8978 190.092,273.161 190.8038,273.7351 191.7143,274.0651 192.2022,273.667 192.0678,272.9149 192.3329,271.8966 192.9311,270.6349 193.4621,269.9704 193.4169,269.528 193.7937,268.8854 195.5258,269.1928 197.1897,268.3719 197.3674,268.062 196.7886,267.222 196.0774,267.0459 195.655,266.5823 195.7435,266.1397 196.364,265.4751 197.0297,265.1195 197.2943,264.589 198.5162,264.8301 198.5595,263.9453 199.4466,263.5456 200.6677,263.5217 201.0228,263.2115 200.2221,262.3719 200.5099,261.774 200.5088,260.9332 200.2854,260.0931 200.4173,259.2524 200.0398,259.0093 200.1272,258.1683 200.5033,257.4165 200.6144,257.1942 200.5245,256.4866" stroke="black" /><polygon fill="none" points="112.4906,416.357 112.4873,416.3869 111.7389,420.317 111.3459,421.6189 111.4457,423.1598 111.1667,425.4134 112.0444,429.0905 112.0144,429.8014 111.7873,430.6634 110.9296,432.3892 110.5058,433.8429 110.6889,435.3399 111.1545,437.0946 112.3419,439.8167 112.8072,442.3178 112.6231,447.0739 112.2072,449.334 111.8696,454.3113 112.6801,459.4095 112.6509,460.8765 112.0241,465.2347 111.7816,466.1132 111.1062,467.4906 106.9665,471.7761 105.6447,472.5932 102.0354,474.1203 99.5598,474.8915 99.7149,473.1771 99.7447,472.8476 99.5487,469.129 98.8316,465.4297 98.6654,464.5723 97.8194,461.3629 97.8192,461.3623 97.5544,460.675 97.422,460.3314 96.357,458.4699 95.4002,455.3745 94.8302,454.2214 94.0349,453.4505 93.0117,452.8056 93.0114,452.8053 93.011,452.805 93.0096,452.8042 90.9657,450.8857 88.0447,449.8309 86.1716,448.7939 82.6941,447.8447 80.5869,445.6831 78.7235,444.7299 76.5314,442.8921 76.4795,442.8486 76.45,442.8238 76.4493,442.8233 76.087,442.5194 75.9445,442.3999 75.8423,442.3075 74.3192,440.9305 73.2014,439.3665 71.0555,437.7533 69.8744,435.8421 67.5166,433.9945 66.4375,433.1489 66.1044,432.8305 65.2885,432.0505 64.7383,431.2959 61.7083,429.0277 59.1154,427.4592 58.0137,426.9454 57.8118,426.9105 54.6351,426.3605 52.8884,426.3185 52.7676,426.3155 52.687,426.3136 52.4487,426.3079 52.233,426.3027 52.1369,426.3004 52.0645,426.2986 51.9914,426.2969 49.5403,426.4345 47.0647,426.0849 42.5693,425.8593 41.4798,425.8046 40.5465,425.7578 40.5029,425.7556 40.4888,425.7549 40.9412,424.649 39.8321,423.4634 39.6393,422.415 39.6209,422.3157 39.7189,421.8913 40.8874,421.0566 41.0455,420.6359 42.731,419.5428 41.7467,419.1094 41.5816,418.7099 41.4719,417.6777 41.4157,417.1494 41.4927,416.5729 41.9987,415.5182 41.9986,415.1303 41.4734,413.5792 41.6147,412.5012 41.5017,411.5973 41.9609,409.461 41.8543,408.7337 40.6802,406.3636 40.5383,405.5306 41.0272,404.1332 42.7718,402.8578 43.004,402.5519 43.9224,400.4079 44.0077,399.6409 43.7952,398.3734 44.5045,394.9645 44.6641,393.2477 44.6705,393.1792 45.6477,392.9225 47.8981,391.9293 80.7568,380.5531 81.4027,380.3295 95.2977,375.5191 123.1391,365.8804 123.2212,365.9009 123.2105,365.9497 122.7194,368.2435 122.31,368.8182 121.697,369.1476 119.9083,369.1646 119.5447,369.3755 119.4766,369.5875 120.7474,371.1187 121.5925,371.2076 122.5638,371.8482 122.7093,372.354 122.607,374.0295 122.7454,375.4557 122.9048,375.9994 123.6298,376.9708 124.0067,378.0513 123.2606,379.5372 123.284,380.1331 123.6833,381.0144 125.0955,382.2442 125.4263,382.711 124.5477,384.3809 124.2042,385.872 123.6284,387.0244 123.4246,388.2867 123.0572,388.837 121.0468,390.3805 118.7241,393.246 118.5662,395.0948 118.4648,396.2823 118.23,397.3794 117.8113,399.3364 117.095,400.4228 116.6399,401.1124 114.5742,405.3027 114.1963,407.2226 114.1146,409.0186 113.0684,411.1978 112.4906,416.357" stroke="black" /><polygon fill="none" points="297.4379,103.7358 295.0119,103.8044 293.7129,103.8068 290.6444,103.8357 290.5898,103.8363 290.1561,103.8403 273.4495,103.9968 273.4227,103.9971 273.1808,103.9993 266.3064,104.063 269.457,100.9107 270.9456,97.5958 271.9192,96.609 271.6058,95.2757 272.2666,93.619 271.6009,92.2962 271.8676,91.2214 271.9299,90.9693 271.5044,89.3884 271.2614,88.4866 277.8867,79.2 272.3016,72.6805 273.5143,71.9796 274.7328,70.8674 275.6885,69.1374 277.459,68.3511 278.1834,68.0294 278.2401,68.027 279.0101,67.9954 286.0871,63.7424 286.193,63.5844 286.2139,63.5532 286.7633,62.7332 287.6884,62.2197 288.0507,61.5146 288.6121,61.0021 289.6052,61.512 290.7102,60.3103 292.658,58.9942 293.1533,58.4499 293.4332,57.8568 293.9996,57.8731 294.098,57.8759 294.2005,57.8789 296.5414,57.9464 297.4014,58.2009 298.6287,58.9429 299.1991,59.2878 300.0145,59.4018 300.198,59.4274 300.5613,59.2825 300.9247,59.1375 301.4541,59.4085 301.9835,59.6795 302.5966,60.1746 302.9953,61.0698 305.4424,63.6607 305.3919,63.8694 305.5612,64.869 305.7304,65.8685 305.6353,66.2496 305.5402,66.6307 306.1707,67.3751 307.555,67.1715 308.7343,67.9368 308.1052,69.968 309.606,72.1629 305.149,76.3354 304.9886,76.4856 299.4815,81.6417 298.9947,84.4376 298.7936,85.592 298.792,85.6228 298.6862,87.5797 299.4238,89.3338 301.1714,90.5365 301.3249,90.748 301.2472,91.4676 301.3985,92.0901 302.1136,92.9836 302.1118,93.0034 302.1033,93.096 302.0385,93.8177 302.1634,94.4045 302.0818,95.3959 302.2231,95.7988 302.9627,96.5515 303.7453,97.0101 304.1353,98.289 304.7174,99.3385 309.6623,104.9716 306.1704,103.4888 297.4379,103.7358" stroke="black" /><polygon fill="none" points="69.0289,139.7873 68.5878,139.5673 49.479,144.4967 41.5264,143.4397 32.1283,142.1903 32.8984,140.003 33.2828,137.3009 33.0635,136.9067 32.1395,136.2494 30.7986,135.6222 30.4242,134.5252 30.7658,132.9656 29.7677,130.8123 27.9398,129.819 27.4411,128.9913 27.661,126.7935 27.7562,125.8414 27.461,125.2714 27.4207,125.235 24.9474,124.354 21.1262,122.367 20.7935,120.5459 20.8542,119.7873 21.125,116.4047 20.4592,113.2587 19.7948,112.0982 12.9835,107.7944 11.8192,106.1373 11.3507,103.801 11.1546,102.8248 10.1577,101.5001 6.1709,99.016 5.8245,98.5836 4.9669,97.5134 4.8021,97.3078 4.3057,95.2954 3.8453,89.4304 3.4667,89.0769 1.5183,87.2577 0.6127,86.0538 0.5217,84.7913 1.2387,81.3913 2.0954,80.6529 2.3006,79.9621 2.2467,79.2266 1.9581,78.8415 0.3583,77.5589 0.0,76.8566 0.2035,76.1377 2.7179,74.593 4.1919,73.0942 4.4845,72.311 4.6292,69.0765 5.1469,68.5268 6.4809,67.8295 6.482,67.8283 7.5901,66.6452 9.3496,63.422 9.4107,62.1219 9.0715,61.6303 7.4768,60.1465 7.3708,59.8553 7.0315,58.9231 6.9998,58.4019 7.6235,56.7295 8.9624,54.7455 8.9023,53.5082 8.5362,52.1671 8.6175,51.717 8.66,51.4823 8.6785,51.3801 8.6817,51.3625 8.687,51.3331 8.7384,51.0497 9.4914,50.1165 10.325,49.9185 11.1582,50.1844 11.5152,50.1376 13.867,48.2978 15.4024,48.243 16.5809,48.5765 16.5813,48.5774 17.3453,49.9442 17.6277,50.1457 17.6333,50.1443 18.0852,50.0307 18.433,49.4453 18.3702,48.2612 17.3027,45.8665 17.9362,45.0871 17.9643,45.0526 18.2805,44.8851 19.3275,44.9197 19.3387,44.9243 19.5353,45.0049 20.0285,45.2068 20.2962,45.5048 20.3077,45.5063 21.4133,45.6492 23.1024,45.0272 23.8558,45.0273 23.8624,45.032 24.2831,45.3321 25.0352,46.3801 25.8855,47.07 26.2596,47.0414 26.4434,47.0273 26.6657,47.0103 27.0353,46.6981 28.5043,46.2358 28.5532,46.2367 29.4085,46.2525 30.7975,45.9636 31.0799,45.42 30.9971,44.6964 30.8986,43.8368 30.8906,43.7671 30.8885,43.7492 30.8753,43.6345 30.8538,43.4456 30.9049,42.9664 30.9235,42.7918 30.956,42.487 31.2145,41.84 31.2525,41.7449 31.2206,41.6179 31.5546,40.9831 31.4977,40.4956 31.444,40.0352 30.8733,38.8659 30.9331,38.2014 30.975,37.7358 31.381,37.1268 33.4475,35.5856 33.7527,34.8542 33.8433,34.0378 35.0649,32.8203 35.3919,32.6877 35.6921,32.7014 36.1934,32.7244 37.0088,33.5894 38.2905,33.9431 39.4607,33.9799 39.5213,34.0309 40.2734,34.6634 40.6322,34.4532 40.6699,34.4311 40.9142,34.2879 41.6245,34.4239 41.6564,34.43 42.4097,34.8651 43.7229,36.0697 46.4801,35.8924 46.6815,35.8795 47.9782,35.7961 48.3189,35.7741 48.9517,36.0855 49.3815,36.0647 50.312,35.7766 51.6045,34.4126 52.5631,34.0114 53.6172,32.0587 54.2308,30.7392 53.8533,29.6861 53.9551,29.3717 53.9906,29.329 54.4137,28.8212 54.4138,28.8169 54.4143,28.8004 54.4242,28.4715 55.1039,27.6381 54.964,25.418 55.1011,24.3925 55.0745,24.1917 54.8082,23.7099 53.815,23.2337 53.5957,22.3955 53.5844,22.3525 53.5485,22.2152 53.3351,21.9151 53.3129,21.8838 51.7285,20.6631 51.6974,20.2639 52.8433,18.4527 53.3952,15.7133 54.0383,15.3129 54.6022,15.3994 54.8101,15.4313 54.8743,15.5031 55.7967,16.5347 56.1219,17.1316 56.1411,17.1669 56.9235,17.219 57.7707,16.7681 58.5649,16.6705 58.7814,16.7139 59.5619,16.8702 59.8004,17.0177 60.6626,17.2594 60.8329,17.3071 62.2781,17.2098 62.7134,16.958 63.1683,16.9243 63.3557,16.9104 63.6999,17.8755 63.994,18.0284 64.6897,17.778 64.7827,17.7142 65.6904,17.091 66.0785,16.8953 66.1309,16.8689 66.5713,16.6469 66.804,16.3796 67.2618,14.6286 67.7967,14.514 67.8524,14.5191 67.904,14.5237 68.122,14.5436 68.3575,14.565 68.8586,14.9836 69.6039,14.8365 70.4362,14.3243 71.1176,13.6104 71.8707,13.4947 72.1515,13.1986 73.8212,12.6274 75.0298,12.4808 75.1159,12.5221 75.8288,12.8639 76.8383,13.5505 76.9315,13.614 77.2803,13.8512 78.4919,13.8443 79.7031,14.0881 80.6172,13.9221 81.2381,14.1892 81.5521,14.0633 81.5325,12.521 81.7478,12.2226 81.6152,11.1353 81.9109,9.6876 83.0674,8.1535 83.099,7.8876 83.1615,7.3625 83.8222,6.9753 83.8635,6.9511 84.2573,6.7204 84.4219,6.4225 84.1775,5.7113 83.5769,5.2593 83.5978,4.7653 83.8411,4.4964 84.0142,4.4832 84.1902,4.4698 84.7666,4.4259 84.8196,4.4219 85.4384,4.3747 86.8264,3.2262 87.9373,2.5974 88.5377,1.818 89.5787,1.7092 90.7161,1.8133 90.7834,1.8195 91.1473,1.1685 91.633,0.0301 91.6558,0.0185 91.692,0.0 92.0618,0.5097 93.8924,0.3971 93.9439,0.3939 94.9094,0.0025 95.2463,0.0454 96.4567,1.4321 97.0753,1.7656 97.7582,3.1006 98.6937,3.9855 99.04,4.1663 100.6484,4.0214 100.8396,4.7221 102.0818,4.8049 103.2988,7.634 103.5542,7.9258 104.5229,8.5617 104.9267,9.0228 105.1729,9.3901 105.8657,10.8614 106.3548,11.4143 106.6485,12.915 107.1935,13.5043 108.2348,14.1222 108.4602,13.8575 109.7696,13.1655 110.5578,13.0382 112.3631,14.7925 112.3644,14.7937 112.5391,14.9903 113.9222,16.5464 115.2767,17.0818 115.0195,20.2009 116.1202,20.7776 118.4358,20.404 118.4697,23.5203 118.7164,23.6366 119.8518,24.172 121.3684,25.2174 123.5353,26.1624 124.1652,26.6618 124.3501,26.9827 124.5116,28.2281 124.2276,29.6768 124.2405,30.2414 124.2416,30.2895 124.256,30.9207 124.5715,31.6399 125.181,32.1406 126.2517,32.3242 127.7254,33.534 128.6935,34.3284 129.1516,35.7458 129.7614,36.4716 130.5725,37.4371 130.9291,38.0959 130.9806,38.4979 130.542,39.4793 130.3923,40.2815 130.5652,41.6991 131.0728,43.0511 131.2571,43.3511 131.6229,43.4507 132.2719,43.2169 133.3713,43.2941 133.9706,43.7847 134.6757,43.9873 134.8862,44.2873 134.9603,45.0366 134.8057,45.7039 135.1619,47.323 135.3032,47.6543 136.1808,48.4967 125.2385,60.3645 125.12,61.3974 125.1176,61.4175 124.9836,62.5853 124.5511,66.3542 123.9396,71.6829 123.7557,73.2844 127.0499,77.0847 127.146,77.1955 127.1846,77.2401 127.1909,77.2474 127.6675,77.7969 127.7283,77.8671 134.3978,85.5584 137.0937,88.6672 145.7284,98.6191 146.6299,99.6577 150.207,103.7787 149.2122,116.4883 143.2602,128.1109 136.6472,141.027 136.6049,141.1096 136.5379,141.2406 136.5372,141.2418 130.9719,152.1159 127.3014,169.9649 126.3397,174.6447 134.4876,186.9123 133.9083,188.3845 133.6017,189.659 132.649,190.6381 131.1254,190.9879 129.0916,190.6416 128.4046,190.2316 127.3485,190.1564 126.2491,189.1531 125.646,188.9858 124.6939,189.1697 124.2534,188.79 123.4883,188.7146 122.1944,189.4307 121.885,189.8266 121.821,190.3442 121.1063,191.6363 120.9667,191.6385 119.7615,190.7417 119.517,190.2095 119.1421,190.0114 118.8737,190.3009 118.6122,189.9056 117.88,189.6322 117.2684,188.8724 116.487,188.7202 116.0154,188.2653 115.575,188.2193 115.2568,187.9304 115.0285,187.276 113.9702,186.8963 113.6437,186.4704 112.7233,185.8476 112.5274,185.4521 112.5595,184.7987 112.8355,184.372 112.8039,183.8083 112.5747,183.8394 112.3061,183.5499 111.9781,181.7088 111.091,180.7503 110.6178,179.824 109.7058,179.5352 109.5671,178.7894 109.0619,178.5617 109.1111,178.2872 108.8503,177.9683 108.3781,178.456 108.142,178.3167 108.2225,176.5084 108.4984,176.2484 108.3594,175.9142 107.2523,175.489 106.194,175.6875 103.6629,175.538 102.7995,175.1884 101.7411,175.1887 101.4718,174.8695 101.0647,173.7591 100.909,171.1142 101.0215,170.6092 100.5714,168.159 99.6445,166.1415 99.617,165.4367 100.5115,164.4313 100.1927,162.6546 99.3948,162.1645 98.3202,162.1198 97.9295,161.8157 97.4973,161.0554 97.4797,158.8334 97.068,158.3953 97.0526,158.3789 96.4938,157.7844 96.3794,157.4185 95.8909,157.0696 95.6302,156.4459 94.7753,155.9898 94.0581,155.0012 93.0163,154.3015 91.7696,154.1962 90.875,153.8922 90.2886,153.1319 88.7983,152.3416 87.4824,151.159 86.4858,149.7875 84.6428,148.9966 84.2751,148.4815 83.8311,147.8594 83.1137,147.4779 83.0733,146.7923 75.0844,142.8082 75.03,142.781 69.0289,139.7873" stroke="black" /><polygon fill="none" points="301.5015,123.8801 310.9218,143.6283 311.7596,145.3843 315.5389,153.2995 317.7441,157.9181 317.9172,158.2803 320.9838,161.8038 321.0044,161.8276 330.2835,172.4893 330.3372,172.5502 330.3457,172.56 330.3495,172.5643 330.5798,172.8288 343.2434,187.3681 343.7452,188.858 343.5805,189.5204 341.5884,190.1879 335.8689,193.7689 332.6214,193.6864 330.6251,192.6975 322.1626,198.5132 320.6735,201.6629 319.3482,203.4875 318.6109,203.9966 314.5354,206.8108 313.3802,210.4563 311.8745,212.4658 312.2287,216.0892 312.0976,217.0833 311.2357,217.7805 310.7396,219.1068 310.2729,219.3171 310.0753,219.4063 307.246,217.9223 304.9183,217.4473 303.9217,217.9293 301.7645,219.6889 297.7754,220.2608 297.2133,221.4212 295.4546,222.7497 293.8383,225.0434 292.2363,226.1026 291.1423,227.7934 289.8152,228.9888 290.184,230.3787 291.6483,231.1379 292.1824,232.3624 292.4573,235.9715 291.4929,236.3382 290.4941,236.0087 289.6637,236.1761 288.5011,236.6759 287.8397,238.3325 287.8078,239.3266 288.1414,239.7725 285.133,240.2495 284.2141,240.679 283.1904,241.1579 281.1391,240.6613 281.0337,240.7538 278.6573,242.8343 277.8786,242.9892 275.2617,241.6696 274.4806,240.8072 272.3483,239.8822 270.9477,238.9338 270.2358,238.183 269.2375,238.251 268.6158,238.0313 267.9923,237.3685 267.8587,236.7494 266.7696,236.0659 266.4592,236.0656 264.4802,234.2336 264.0805,234.0571 262.7057,234.6798 261.7956,234.7479 260.2847,233.7328 259.8839,233.2023 258.0404,232.3431 257.7284,231.4594 257.1948,231.2384 256.5962,231.4387 256.4641,232.191 255.8887,233.21 254.3592,234.1204 253.2078,235.4047 252.9649,236.0912 252.0324,236.2701 251.723,236.8013 251.2344,236.9352 250.948,237.9752 250.595,238.5721 250.2401,239.1715 249.2644,239.7933 248.5336,240.6569 248.534,241.0991 248.0469,241.4981 247.0951,242.8491 246.4744,243.3817 246.2891,243.47 245.543,243.8254 244.9203,243.5164 244.1892,243.9385 243.3015,244.0732 242.6779,243.144 242.0124,243.19 241.2368,243.8333 240.4375,243.6572 239.4175,244.1902 238.4646,245.2761 237.1332,245.3669 235.2237,245.2374 233.8247,244.6861 233.1596,244.865 231.6485,244.7718 231.4027,243.2969 230.7365,242.8999 229.8916,242.1048 228.1835,242.7492 227.5191,243.4139 226.341,243.6589 225.0993,243.3514 224.6104,243.0429 222.1459,242.6704 220.3892,240.8804 220.0345,241.1028 218.9257,241.2822 218.7036,241.8129 217.9716,242.1461 216.9536,243.5194 215.5567,244.7377 214.4915,245.0499 214.1375,245.4929 212.8725,245.9595 211.9847,245.8719 211.1421,246.4488 210.0116,247.5349 209.0356,247.8902 208.1047,248.6879 207.1504,248.8886 204.6681,250.4402 204.1138,251.5257 204.1141,252.5434 203.6721,253.5182 203.3619,254.0485 202.5916,254.1039 202.4809,254.2754 202.3703,254.447 201.212,256.2422 200.5245,256.4866 200.6144,257.1942 200.5033,257.4165 200.1272,258.1683 200.0398,259.0093 200.4173,259.2524 200.2854,260.0931 200.5088,260.9332 200.5099,261.774 200.2221,262.3719 201.0228,263.2115 200.6677,263.5217 199.4466,263.5456 198.5595,263.9453 198.5162,264.8301 197.2943,264.589 197.0297,265.1195 196.364,265.4751 195.7435,266.1397 195.655,266.5823 196.0774,267.0459 196.7886,267.222 197.3674,268.062 197.1897,268.3719 195.5258,269.1928 193.7937,268.8854 193.4169,269.528 193.4621,269.9704 192.9311,270.6349 192.3329,271.8966 192.0678,272.9149 192.2022,273.667 191.7143,274.0651 190.8038,273.7351 190.092,273.161 188.8046,272.8978 187.6288,273.8509 187.4973,275.0452 187.0988,275.7536 185.6575,277.3705 184.0866,281.3776 183.4665,282.0859 182.3783,282.4196 181.9356,282.9068 181.5819,284.1905 181.8719,285.1411 181.8276,285.6721 181.2077,286.5134 180.8976,287.2665 180.4758,287.776 178.2579,289.2389 177.8157,290.3015 175.7509,290.5027 174.9521,291.168 175.0421,292.2737 174.4876,292.9163 172.623,292.6979 172.0902,293.3179 171.8489,295.3312 171.3623,296.6592 170.5415,297.6116 168.7217,298.3931 167.6124,299.0847 167.2797,299.3904 166.0356,299.3479 165.4143,299.0387 164.9697,299.0387 164.4154,299.7702 164.0503,299.9756 163.89,300.0657 163.7052,300.1693 164.3362,298.5866 164.9672,297.0038 165.3208,295.7195 164.9843,292.8666 164.6281,291.7607 165.0,287.8886 165.4216,286.7154 164.0864,285.1239 164.1074,284.4379 164.2847,283.7304 164.905,282.5342 165.2141,281.5162 165.2801,280.6095 166.2995,278.9706 166.1427,277.8868 167.0727,276.2929 167.6043,274.5219 168.1576,273.4372 168.2891,272.2868 168.7757,270.9583 168.8406,269.5201 168.3508,268.6808 167.0177,267.2666 167.0387,266.5359 167.3488,265.6955 167.9691,265.0298 168.1014,264.1455 169.2769,262.5279 170.2514,261.554 171.2061,261.4428 172.1828,261.5298 172.9379,261.838 173.7813,261.8376 174.912,260.6637 175.7313,258.6048 175.8632,257.587 175.5943,256.7429 175.3472,253.7156 174.8141,253.5396 173.4166,253.7406 172.3067,254.494 171.9084,255.2024 170.6434,255.7128 169.2674,255.4496 168.9665,255.205 168.778,255.0516 168.9991,254.1221 169.3319,253.7463 169.1971,252.8168 167.9736,250.7608 165.8413,249.746 165.0868,249.8793 164.4428,249.5916 162.8873,248.4435 161.3535,246.9634 160.3665,246.5158 158.1348,245.0435 157.244,244.1141 155.845,243.6949 154.5579,243.9622 153.4042,244.4941 152.3581,244.0397 151.1131,240.0548 150.6155,239.2653 150.6745,238.724 150.8123,237.4601 150.435,236.6455 150.021,235.7516 150.1349,234.9296 150.6552,234.2292 152.2797,233.4661 152.6228,232.7665 152.4594,232.0979 152.4575,230.4538 152.8642,229.9978 153.9059,229.9961 155.1105,229.5389 155.9735,229.5676 156.7875,229.8107 157.3423,230.5706 158.5623,229.7168 159.3756,228.7729 159.1776,226.6733 159.4375,225.974 160.2679,225.9118 160.9836,225.4242 160.6579,225.2118 159.3881,225.3345 159.098,224.7392 157.076,223.0068 156.6783,222.2321 139.9712,189.6872 137.7561,185.368 137.5038,185.6418 137.2899,185.5706 137.1451,185.2774 136.0103,185.5624 134.9238,186.0098 134.4876,186.9123 126.3397,174.6447 127.3014,169.9649 130.9719,152.1159 136.5372,141.2418 136.5379,141.2406 136.6049,141.1096 136.6472,141.027 143.2602,128.1109 149.2122,116.4883 150.207,103.7787 146.6299,99.6577 145.7284,98.6191 137.0937,88.6672 134.3978,85.5584 127.7283,77.8671 127.6675,77.7969 127.1909,77.2474 127.1846,77.2401 127.146,77.1955 127.0499,77.0847 123.7557,73.2844 123.9396,71.6829 124.5511,66.3542 124.9836,62.5853 125.1176,61.4175 125.12,61.3974 125.2385,60.3645 136.1808,48.4967 137.5248,48.9845 138.9572,48.7003 139.5884,48.167 140.3292,46.5609 140.8169,46.0093 141.5264,45.6588 141.8969,45.6615 142.5786,47.0094 142.569,47.7407 142.7412,48.2519 143.0655,48.4923 143.2529,48.0678 143.3807,47.7785 143.6472,47.5133 144.0628,47.444 145.3855,48.0791 145.6754,48.3947 145.7718,48.4996 145.9461,48.6893 146.6086,49.0868 147.0552,49.3548 147.7516,49.428 148.448,49.5011 148.8698,49.4046 149.2916,49.3081 151.1224,48.2588 152.4458,47.7512 153.0768,47.3012 153.5528,46.7027 154.6721,46.5381 155.3735,47.5533 156.3592,48.097 157.9255,48.5212 159.439,48.7509 159.598,48.775 161.3284,48.6049 163.7363,46.8411 164.387,46.6583 167.747,46.8864 170.2669,47.4467 171.722,46.9156 172.0279,44.8839 172.0062,42.8055 173.9395,41.2869 177.0301,40.7941 177.5353,40.3764 177.9188,40.5676 179.1751,40.8141 180.8816,40.7615 182.1436,40.4691 183.6602,39.9065 184.2902,39.4113 184.7673,39.0364 185.9261,37.1762 186.1842,35.2245 186.3238,35.189 186.9407,35.032 188.7518,34.9554 188.8777,34.9501 188.8885,34.9496 190.4426,35.1681 191.0236,35.6484 192.4335,36.369 193.6358,36.5675 194.0971,36.3252 194.5584,36.0831 196.9719,39.5933 200.2256,39.9886 201.9741,39.5492 202.5161,39.6193 203.6067,39.7605 204.879,38.4374 206.7866,35.94 205.649,33.8826 206.464,33.4176 211.3545,31.8494 213.5875,31.3311 214.4728,30.4034 214.7555,29.785 215.9596,28.8397 217.1292,28.4605 217.7316,28.0133 218.0139,27.4642 218.0476,25.9018 218.1285,25.7708 218.3654,25.387 219.0003,24.9503 219.2154,24.8023 220.7036,24.1137 221.1448,23.5776 222.6538,20.2301 223.576,20.6928 224.3238,22.991 225.1755,23.436 225.105,23.8305 225.2829,24.4477 225.9927,24.7212 227.3429,26.7614 228.6203,27.1027 229.3994,26.827 229.5055,26.4488 230.0872,26.2412 230.5681,26.0697 231.5969,26.1885 232.5919,27.1826 233.9368,26.2882 234.9808,27.0394 236.102,27.8462 235.9979,29.5622 236.8872,31.0363 237.7752,31.9446 237.7767,32.837 237.2814,33.5242 237.3895,34.2787 237.9218,34.5866 239.3039,34.5677 237.8931,39.0206 239.0291,40.152 239.7066,42.2786 239.6722,42.8176 239.726,42.9041 240.4286,44.0352 242.9192,45.1478 242.3141,46.5354 242.18,46.9936 241.6211,47.8556 237.5717,52.2533 237.9885,52.4423 238.4053,52.6314 238.7025,52.6631 238.9998,52.6949 239.7932,52.5334 242.4864,51.3292 243.246,51.4238 243.7762,51.7363 243.909,52.0236 243.3487,53.1448 243.2506,53.7534 243.7649,54.8882 245.2881,56.1336 245.6862,57.1468 245.344,57.7392 243.623,59.141 242.7664,60.9659 242.7848,62.102 244.0782,64.2753 244.3609,65.4045 244.528,66.8123 244.5345,70.3218 246.1441,73.6539 247.1533,74.1157 248.1466,74.7861 248.6433,75.329 248.7102,75.8342 248.5457,76.2826 248.9433,76.5383 250.1833,76.5205 250.8448,76.7428 252.4149,77.5993 252.6981,77.7536 253.0778,77.6924 254.0043,77.5431 255.5892,75.9086 256.5472,75.4595 257.2252,75.5063 258.6485,76.3677 259.4426,76.5902 263.791,76.6304 266.2051,76.4664 266.9134,75.0412 267.3426,74.7204 269.9705,74.0278 271.6905,73.0337 272.3016,72.6805 277.8867,79.2 271.2614,88.4866 271.5044,89.3884 271.9299,90.9693 271.8676,91.2214 271.6009,92.2962 272.2666,93.619 271.6058,95.2757 271.9192,96.609 270.9456,97.5958 269.457,100.9107 266.3064,104.063 273.1808,103.9993 273.4227,103.9971 273.4495,103.9968 290.1561,103.8403 290.5898,103.8363 290.6444,103.8357 293.7129,103.8068 292.1109,111.9215 291.9936,112.5159 293.5017,114.3903 294.1484,114.7204 295.2327,114.9871 295.7131,115.1052 296.2133,115.3509 296.4067,115.4466 296.534,115.5107 296.6849,115.5865 296.569,116.0962 296.7893,116.4986 296.8004,116.5189 296.8151,116.5457 296.844,116.5984 296.8479,116.6057 296.9781,116.8434 297.0031,116.8891 297.0993,117.0647 297.4123,117.3867 297.6958,117.6782 297.7082,117.691 297.8214,117.8072 297.8624,117.8494 298.0536,118.0457 298.6665,118.3528 298.8681,118.4567 298.8999,118.5216 301.5015,123.8801" stroke="black" /><polygon fill="none" points="319.588,110.0783 319.183,110.0203 319.1495,110.0026 315.3748,108.001 309.6623,104.9716 304.7174,99.3385 304.1353,98.289 303.7453,97.0101 302.9627,96.5515 302.2231,95.7988 302.0818,95.3959 302.1634,94.4045 302.0385,93.8177 302.1033,93.096 302.1118,93.0034 302.1136,92.9836 301.3985,92.0901 301.2472,91.4676 301.3249,90.748 301.1714,90.5365 299.4238,89.3338 298.6862,87.5797 298.792,85.6228 298.7936,85.592 298.9947,84.4376 299.4815,81.6417 304.9886,76.4856 305.149,76.3354 309.606,72.1629 310.0989,72.8839 311.026,73.476 314.3884,73.5761 314.7083,73.5857 316.0656,74.3651 316.4302,74.5744 316.6893,74.7233 316.69,74.7235 317.9611,75.2216 317.9899,75.2213 318.6475,75.2128 318.692,75.2122 320.3327,75.191 322.8584,75.4698 323.052,75.4912 323.2741,75.5804 324.0726,75.9009 325.3479,76.4127 326.6493,75.5135 328.1651,74.7785 329.6397,72.4461 329.2899,71.6838 328.471,69.8995 325.8343,67.1858 325.8348,65.1692 326.1338,64.3276 326.6619,62.8412 326.0273,61.2317 325.8255,60.7199 326.0093,58.7759 327.4246,55.7788 328.1278,55.0793 329.4983,54.2366 331.2225,53.1013 334.5753,49.8427 336.3614,48.5304 339.0762,46.2151 342.616,46.8436 343.2861,48.0116 343.3951,48.0839 343.4267,48.1049 344.1573,48.5896 345.2204,48.6249 346.7834,49.9678 346.8387,50.0153 347.7126,51.3382 348.0786,51.721 349.007,52.6918 350.1183,52.9658 350.5879,53.0816 351.0543,53.9373 351.0578,55.472 351.574,57.0706 352.1171,57.519 352.2594,57.5178 353.3079,57.5095 345.9371,61.9993 345.7175,63.6143 345.3587,64.8278 345.7281,66.592 346.6301,66.8442 346.9804,67.7846 346.991,68.2459 347.5171,68.7261 347.5888,69.1077 348.2009,69.8142 348.736,70.9594 349.2186,71.2851 350.2773,71.5946 350.3003,73.4001 350.3428,76.6487 350.3566,77.7006 350.4034,78.0913 350.8588,78.8667 350.5522,80.6009 350.5943,82.2755 350.0483,83.8418 350.0288,83.9906 349.9917,84.2718 351.0156,86.703 351.6733,86.6964 351.8518,87.4761 351.831,87.6416 351.7159,88.5583 352.7875,88.6061 353.024,89.002 353.1047,89.8369 353.3307,90.2077 353.7231,90.3921 353.7136,90.7345 353.2199,90.981 352.898,91.4405 352.9112,91.8603 353.302,92.8488 353.2199,93.1016 352.7295,93.4174 351.9109,93.9446 350.6612,94.1449 349.928,94.3882 349.1754,94.8128 348.7636,95.7578 349.25,97.0693 349.2262,97.797 349.1276,98.2123 348.6431,99.1513 348.0696,99.6757 346.7655,100.3919 346.097,100.5837 344.6576,100.6236 343.3049,101.8203 343.1393,102.0947 343.3177,102.6412 343.9446,103.0304 344.4345,103.6056 344.2456,104.1825 342.4952,105.0365 340.9068,106.1357 339.8794,106.2852 337.4199,107.2771 336.9707,107.5518 336.8425,107.7685 336.5295,108.2976 335.6813,109.3323 334.6512,109.7251 334.3718,109.7709 332.6156,110.058 331.9546,110.4622 330.9477,110.3244 329.2322,108.9784 328.7262,108.8742 327.9275,109.0162 327.4013,109.4119 327.1127,109.9565 326.9829,110.5352 327.3135,111.56 327.2084,112.0204 326.5203,112.7942 323.4892,115.3241 323.2768,115.3807 323.2251,115.3945 323.2221,115.3939 322.5252,115.2699 321.856,114.7015 321.582,113.9918 321.8197,111.8951 322.0769,111.1684 321.9093,110.8439 321.3769,110.563 320.7834,110.2501 319.7262,110.098 319.588,110.0783" stroke="black" /></svg>