<?xml version="1.0" encoding="utf-8" ?>
<svg baseProfile="tiny" height="500" version="1.2" width="465.946" xmlns="http://www.w3.org/2000/svg" xmlns:ev="http://www.w3.org/2001/xml-events" xmlns:xlink="http://www.w3.org/1999/xlink"><defs /><polygon fill="none" points="324.6171,8.3397 325.1149,7.755 326.3837,6.0982 326.7622,5.1262 326.7955,3.867 326.3392,2.3647 326.6057,1.2018 327.0868,0.531 327.6029,0.1702 327.9314,0.0576 328.1072,0.1237 328.2676,0.2323 328.5452,0.1702 328.812,0.0658 329.2051,0.0 329.5413,0.1007 329.8131,0.2287 329.9577,0.4439 330.1044,0.8086 330.1607,0.9223 330.2133,0.9863 330.2172,1.0503 330.1684,1.1006 330.139,1.1587 330.1509,1.2015 330.2213,1.2248 330.2584,1.279 330.2682,1.3528 330.3267,1.438 330.4185,1.5214 330.5124,1.599 330.5515,1.6514 330.5593,1.7232 330.5263,1.8006 330.4069,1.9227 330.3873,2.0218 330.4128,2.173 330.4812,2.2505 330.5686,2.266 330.7427,2.2639 331.2431,2.3008 331.8845,2.297 332.213,2.2113 332.5257,2.3218 332.7995,2.5546 332.9284,2.6805 332.946,2.7969 332.9988,2.8978 333.0478,2.888 333.0713,2.7853 333.0321,2.6514 333.0496,2.5796 333.1141,2.5953 333.2296,2.8666 333.3282,2.9912 333.3888,3.0755 333.3918,3.183 333.3487,3.3033 333.3631,3.4345 333.3473,3.5354 333.3298,3.6167 333.3396,3.6789 333.4079,3.7215 333.5116,3.77 333.5307,3.8632 333.5111,3.9183 333.515,3.9698 333.564,4.0502 333.7847,4.1752 333.9391,4.3354 334.0257,4.385 334.0844,4.3677 334.1391,4.3115 334.2095,4.321 334.4108,4.5714 334.4462,4.6643 334.5124,4.7613 334.5234,4.8809 334.5341,4.9429 334.5956,5.0563 334.6562,5.1048 334.7227,5.1126 334.8625,5.0882 334.9329,5.1105 335.0131,5.1757 335.0443,5.2221 335.0316,5.2784 334.9739,5.4219 334.9896,5.4925 335.0268,5.536 335.2477,5.6631 335.3404,5.7378 335.3864,5.8879 335.499,6.077 335.5434,6.1446 335.6037,6.1799 335.6994,6.2255 335.8208,6.3982 335.9361,6.6007 336.0122,6.8134 336.014,6.8697 335.9828,6.9218 335.9124,6.9355 335.8586,6.953 335.845,6.9956 335.8958,7.0403 335.9905,7.1082 336.0276,7.235 336.0445,7.3849 336.0222,7.4626 335.9616,7.5147 335.9438,7.5605 335.9548,7.6177 335.9889,7.6311 336.0504,7.6088 336.0944,7.6157 336.1258,7.6621 336.1563,7.7926 336.1866,7.9013 336.2247,7.9448 336.2775,7.9525 336.3137,7.9099 336.3527,7.8614 336.3812,7.8519 336.4192,7.8635 336.4875,7.9081 336.6538,7.9692 336.7438,8.0225 336.8875,8.1669 336.967,8.2653 337.0306,8.3225 337.1342,8.3739 337.2281,8.3981 337.2984,8.4263 337.3385,8.401 337.3875,8.3245 337.4208,8.3177 337.4588,8.3418 337.4745,8.3689 337.4941,8.4824 337.5438,8.5687 337.5889,8.6095 337.6408,8.6712 337.6761,8.6703 337.7084,8.6459 337.7768,8.5363 337.8326,8.4881 337.9,8.4714 337.9478,8.4792 337.9674,8.5035 337.9567,8.6325 337.9615,8.6926 337.9772,8.7099 338.0153,8.7099 338.0613,8.6935 338.0925,8.645 338.1002,8.5908 338.1103,8.5512 338.2023,8.5368 338.2774,8.5502 338.3196,8.5609 338.3235,8.594 338.2355,8.7054 338.1856,8.7685 338.1729,8.817 338.1806,8.8527 338.3294,8.868 338.6225,8.8516 338.6647,8.8293 338.7066,8.7712 338.7565,8.7489 338.8043,8.7584 338.8444,8.7876 338.8797,8.8245 338.9118,8.8418 338.9549,8.8215 338.9872,8.7605 339.0555,8.6712 339.0977,8.6712 339.1357,8.6858 339.1779,8.7149 339.2168,8.6985 339.2747,8.6277 339.2748,8.6168 339.2756,8.5416 339.2765,8.5398 339.302,8.5038 339.3508,8.4999 339.4045,8.5368 339.4496,8.6056 339.4594,8.7336 339.4886,8.7792 339.5327,8.7723 339.5601,8.7065 339.5824,8.6648 339.6266,8.6619 339.6617,8.686 339.6979,8.6851 339.7302,8.6541 339.8024,8.5881 339.9063,8.5851 340.0334,8.5994 340.1498,8.6956 340.2535,8.7808 340.3402,8.8953 340.3872,8.9543 340.4304,8.9753 340.4803,8.9773 340.5293,8.9192 340.578,8.8067 340.6104,8.7698 340.6446,8.7689 340.6953,8.8085 340.7072,8.8591 340.7022,8.9133 340.7111,9.0181 340.7434,9.0336 340.8156,9.0259 340.8459,9.0375 340.8637,9.0666 340.8685,9.1896 340.848,9.2614 340.8332,9.3224 340.8762,9.3418 340.9398,9.334 340.9653,9.2596 340.9751,9.1789 341.0156,9.1297 341.1602,9.1637 341.3293,9.2354 341.5083,9.3343 341.5971,9.3953 341.6853,9.409 341.7263,9.3769 341.74,9.3167 341.691,9.1994 341.6823,9.1142 341.7213,9.0744 341.7516,9.0889 341.7887,9.1694 341.8181,9.2033 341.8582,9.1889 341.9033,9.0992 341.9267,9.071 341.9805,9.0641 342.0301,9.0486 342.088,8.973 342.1201,8.9507 342.1614,8.9507 342.1866,8.976 342.2276,9.1058 342.2247,9.1659 342.2356,9.2222 342.2629,9.229 342.306,9.2126 342.3215,9.1737 342.306,9.1147 342.3128,9.068 342.396,9.0477 342.434,9.0691 342.4818,9.1864 342.5308,9.2999 342.6128,9.3008 342.7155,9.2514 342.7928,9.2634 342.8465,9.3167 342.9335,9.3584 342.9902,9.4088 343.042,9.4873 343.1495,9.5222 343.2757,9.4707 343.2884,9.4242 343.2962,9.3418 343.347,9.2739 343.4262,9.2498 343.475,9.2605 343.5201,9.2721 343.5522,9.3117 343.5756,9.3816 343.5845,9.4224 343.6226,9.463 343.7039,9.5183 343.7066,9.56 343.6597,9.6076 343.6198,9.6356 343.6055,9.6593 343.6242,9.6903 343.672,9.7001 343.7121,9.7194 343.7406,9.7552 343.6702,9.8775 343.6438,9.9124 343.6319,9.9502 343.6729,9.9889 343.6907,10.0249 343.6877,10.0666 343.5825,10.1021 343.564,10.1235 343.5756,10.1739 343.6276,10.1787 343.693,10.1468 343.7273,10.1593 343.7342,10.2099 343.736,10.2709 343.7654,10.3096 343.8201,10.2998 343.9091,10.1884 343.9481,10.1488 343.9813,10.1536 343.995,10.2156 344.0137,10.2623 344.0841,10.2572 344.1544,10.2039 344.1945,10.1497 344.2727,10.1042 344.3235,10.0964 344.3989,10.108 344.4232,10.1593 344.4173,10.2048 344.3597,10.2632 344.3421,10.3126 344.3626,10.3338 344.4321,10.3233 344.5323,10.3971 344.6291,10.4406 344.7669,10.4843 344.8207,10.5338 344.8988,10.5755 344.9517,10.6675 344.9653,10.7586 345.0025,10.7923 345.0209,10.8369 345.0025,10.8718 344.9555,10.9194 344.9526,10.9629 345.0004,11.0406 345.0827,11.157 345.1364,11.1713 345.2059,11.157 345.2692,11.1162 345.328,11.1258 345.4726,11.1996 345.5446,11.231 345.6031,11.2194 345.653,11.2155 345.6824,11.2542 345.6744,11.3066 345.7214,11.3367 345.8505,11.3549 345.9022,11.3028 345.9405,11.3055 345.9687,11.3406 346.0088,11.4084 346.0459,11.4162 346.0881,11.3861 346.1309,11.3927 346.171,11.4481 346.258,11.61 346.2815,11.6791 346.2924,11.7526 346.3304,11.803 346.3872,11.7904 346.4332,11.7508 346.4507,11.7148 346.4858,11.7303 346.476,11.8128 346.4938,11.9301 346.5045,11.9854 346.5698,12.005 346.6256,12.0137 346.6393,12.0854 346.6774,12.1155 346.7409,12.0922 346.778,12.1182 346.7919,12.164 346.7596,12.2077 346.7616,12.2747 346.7958,12.3191 346.8623,12.3048 346.9619,12.2774 347.0104,12.2911 347.0181,12.3998 347.0386,12.4617 347.1149,12.4745 347.1942,12.4549 347.2302,12.4414 347.2762,12.4647 347.3006,12.5606 347.288,12.743 347.2851,12.8341 347.3359,12.9127 347.3994,12.9767 347.4678,13.0057 347.4971,13.0387 347.4853,13.1027 347.4327,13.1113 347.3887,13.1277 347.3837,13.1754 347.4796,13.2373 347.5509,13.3004 347.5641,13.3774 347.5356,13.4822 347.5024,13.5501 347.4584,13.5965 347.4418,13.6471 347.473,13.8765 347.4914,13.9619 347.6058,14.0801 347.6636,14.1334 347.7311,14.1548 347.8033,14.114 347.8472,14.1161 347.9948,14.1926 348.0393,14.261 348.0803,14.2812 348.126,14.2553 348.1682,14.2086 348.2044,14.2115 348.2531,14.2928 348.2434,14.3714 348.1554,14.4209 348.1379,14.4578 348.1691,14.5489 348.2219,14.6429 348.2748,14.6516 348.303,14.5935 348.3402,14.5906 348.3579,14.6448 348.3452,14.7525 348.3295,14.7908 348.3579,14.8152 348.4322,14.8131 348.4987,14.814 348.5611,14.8393 348.5739,14.9081 348.6012,14.976 348.66,15.0438 348.6513,15.1971 348.7294,15.3026 348.7237,15.3939 348.7344,15.4675 348.7677,15.5044 348.8085,15.5315 348.8613,15.5789 348.919,15.5732 348.9454,15.5964 348.9385,15.6643 348.9502,15.7456 349.0568,15.8078 349.1818,15.8525 349.2718,15.8096 349.3431,15.7534 349.3959,15.7554 349.4526,15.8135 349.4987,15.8486 349.6169,15.8156 349.6877,15.8151 349.7563,15.755 349.7934,15.7035 349.8433,15.7124 349.938,15.7773 350.0103,15.8306 350.0651,15.8461 350.0943,15.878 350.1032,15.9274 350.1923,15.9595 350.2371,15.9741 350.2793,16.0026 350.3066,16.0636 350.336,16.0598 350.3681,15.9987 350.4111,16.0181 350.4658,16.0598 350.5344,16.0529 350.5879,16.014 350.6515,16.0208 350.7177,16.0461 350.7453,16.0673 350.7412,16.1217 350.7676,16.1536 350.8079,16.1784 350.8228,16.2133 350.8462,16.2326 350.8852,16.257 350.8813,16.3103 350.8382,16.3675 350.8335,16.4228 350.8587,16.4711 350.9018,16.4887 350.976,16.4818 351.0319,16.4616 351.1129,16.4208 351.2157,16.3766 351.3359,16.3349 351.4649,16.2816 351.5655,16.2563 351.5911,16.1992 351.6311,16.1604 351.6917,16.1595 351.7983,16.1818 352.4054,15.7252 353.6679,15.6431 354.8221,15.768 357.9497,18.9096 373.4861,34.5153 368.4992,38.9607 372.8755,50.2115 372.876,50.2128 372.9267,50.3433 372.7958,50.5159 347.1827,84.301 346.8429,83.5117 333.0869,56.3018 333.8019,55.465 330.6153,51.4747 328.5879,44.5289 321.4273,49.144 309.0967,41.0111 309.0938,41.0092 309.0929,41.0084 309.2552,40.6265 310.1714,39.8013 311.0745,39.3946 311.2899,38.9889 312.9326,37.1685 313.3497,36.5524 313.282,35.9909 313.6173,35.1275 313.6836,34.1467 313.8853,33.6231 313.8707,33.1263 314.584,32.0539 314.5841,31.778 314.1786,31.19 314.1506,30.7276 314.0018,30.3352 314.0555,29.982 314.2303,29.7724 314.4359,28.9673 315.2799,27.9402 315.3057,27.5606 314.7795,27.1465 314.2922,25.879 314.8305,25.1195 315.1948,24.3965 315.744,22.6726 315.918,21.8353 315.766,19.3443 315.9267,18.5987 316.2492,17.8736 316.8951,16.8787 317.9247,16.1492 318.5457,16.3577 319.0295,16.3287 319.3957,16.1908 319.6855,15.9614 320.2398,15.1772 320.7852,13.5426 321.3862,12.2062 322.8554,10.5163 324.0241,9.0363 324.6171,8.3397" stroke="black" /><polygon fill="none" points="86.2619,295.2487 86.281,295.176 64.2772,296.6681 59.4376,280.4198 73.1203,233.042 73.1544,232.9239 73.8303,230.5844 73.9102,230.6123 75.4543,231.151 77.3608,232.7218 79.6318,233.9882 80.6158,234.2025 81.4039,233.972 82.7993,233.2341 83.8102,232.4124 84.4498,232.0708 85.5949,231.7203 86.8323,231.119 89.5395,230.0878 90.4855,229.4319 92.9197,227.0951 93.6891,226.5689 96.8334,223.0496 97.3828,222.5383 101.7654,218.4591 102.4673,216.9759 102.4632,216.7398 102.7716,216.3264 103.5174,215.8428 104.2516,215.5121 106.1991,215.0944 106.9346,214.7283 107.2076,214.4201 107.5095,213.7187 108.1602,213.2355 107.8536,212.3725 107.937,211.4851 107.9204,209.5817 108.1812,208.7522 108.3419,207.5535 108.7049,206.4919 108.709,206.4799 108.6331,206.4352 91.9315,196.6241 105.2528,171.669 115.7009,168.6026 116.5003,169.3198 116.5704,169.3828 119.9981,172.4577 124.1683,179.0162 131.3773,178.5185 131.5703,178.5052 133.5197,178.3706 142.5365,180.1038 146.9976,180.9613 148.7062,181.2897 175.0118,186.346 175.0966,186.3623 180.0034,187.3037 194.8318,268.6799 194.8473,268.7648 196.3169,276.7968 197.1075,277.1585 197.3949,277.29 197.3284,277.3403 197.3616,277.4676 197.4107,277.5073 197.2383,277.6264 197.2382,277.7216 197.3697,277.8885 197.3698,277.9363 196.9835,277.9125 197.0164,278.0875 197.1482,278.143 197.1809,278.262 197.0167,278.6275 196.8777,278.769 196.7623,278.7866 196.6885,278.9541 196.8689,279.7402 196.9845,279.9545 196.9271,280.1055 196.8369,280.2118 196.8534,280.3711 197.1164,280.8632 197.2643,280.9986 197.4452,281.0777 197.4943,281.2208 197.4943,281.3083 197.3795,281.4434 197.2232,281.499 197.1413,281.5865 197.1095,281.74 197.1742,281.8883 197.3465,282.1218 197.3469,282.2888 197.2566,282.4237 197.0349,282.6466 197.0432,282.7893 197.265,282.9881 197.2735,283.1387 197.1009,283.3057 197.093,283.4727 197.1914,283.5838 197.2489,283.823 197.1832,283.95 197.1178,284.3633 196.9782,284.5144 196.6002,284.7134 196.5427,284.7847 196.5183,285.0143 196.6414,285.0628 196.732,284.9753 196.781,284.848 196.8468,284.8244 196.9372,284.8243 196.9946,284.9435 196.708,285.2369 196.658,285.3487 196.658,285.5076 196.576,285.6903 196.7322,285.8572 196.6911,285.9764 196.576,286.0876 196.5763,286.2146 196.6455,286.3265 197.0281,286.4643 197.0445,286.5197 196.8394,286.6944 196.8064,286.7579 196.831,286.8932 197.0683,287.17 197.0367,287.2745 196.8807,287.4176 196.8725,287.4808 196.9053,287.5847 197.0121,287.7352 197.0206,288.029 197.0618,288.1361 197.3242,288.2235 197.3242,288.3826 197.3575,288.462 197.4725,288.4861 197.5794,288.4224 197.6615,288.3109 197.7683,288.3034 197.9574,288.4539 198.0809,288.7559 198.2614,288.9226 198.3519,288.9786 198.5738,288.978 198.8042,289.153 199.059,289.558 199.2313,289.4706 199.3464,289.5022 199.3219,289.8752 199.3713,289.939 199.5188,289.8514 199.5522,289.6767 199.6833,289.6764 199.7407,289.7803 199.7408,289.9312 199.6753,290.1296 199.2976,290.6941 199.3224,290.7891 199.7248,290.8131 199.9715,290.9479 200.0044,290.9957 199.865,291.2337 199.8892,291.393 200.062,291.4723 200.2514,291.3213 200.3907,291.2817 200.4154,291.4087 200.5551,291.4482 200.5554,291.504 200.4648,291.6629 200.5059,291.7501 200.6044,291.7502 200.7686,291.5353 200.9331,291.4799 201.0235,291.5832 200.9659,291.7105 200.81,291.7661 200.7688,291.8372 200.8183,291.9012 201.0974,291.8615 201.3688,292.0988 201.4756,291.9961 201.4757,291.8848 201.5988,291.869 201.6234,292.107 201.5824,292.2105 201.6156,292.2742 201.7223,292.3536 201.7307,292.4647 201.5582,292.5282 201.599,292.6078 201.9688,292.6873 202.0427,292.8219 202.0429,292.9332 201.9525,293.0127 201.8786,293.0211 201.8706,293.0923 202.1087,293.1642 202.1582,293.3069 202.1664,293.4259 202.0102,293.5215 201.8951,293.5373 201.8966,293.6254 202.5275,293.9261 202.6187,294.0216 202.6104,294.117 202.4048,294.2603 202.1421,294.1888 202.0682,294.2285 202.0434,294.3715 202.0764,294.4907 202.216,294.6654 202.0767,294.8559 202.0931,294.9355 202.1751,294.967 202.2492,294.8878 202.3228,294.8877 202.3722,294.9832 202.3723,295.1102 202.2412,295.2456 202.4727,295.315 202.4959,295.4038 202.4879,295.4357 202.3073,295.5393 202.3238,295.5788 202.677,295.6901 202.7428,295.841 202.7347,295.8808 202.628,295.9126 202.4552,296.0396 202.4474,296.1907 202.5046,296.3339 202.5129,296.5402 202.1759,296.6516 202.1105,296.7473 202.1103,296.8106 202.2586,296.9297 202.357,296.9295 202.3981,296.8901 202.4556,296.9852 202.3982,297.1045 202.2505,297.1681 202.1682,297.1681 202.1106,297.3747 202.1603,297.4542 202.3573,297.4781 202.4559,297.5334 202.5053,297.6127 202.4641,297.7084 202.5629,297.7399 202.5792,297.8354 202.5299,297.9468 202.7028,298.1454 202.6455,298.3359 202.7685,298.447 202.818,298.5818 202.6451,298.6378 202.3744,298.6062 202.3496,298.7648 202.3744,298.8764 202.6126,299.0034 202.7195,299.0031 202.8346,298.8841 202.9494,298.9794 202.818,299.1781 202.7854,299.2972 202.7855,299.591 202.8349,299.7024 202.991,299.734 203.0813,299.6943 203.1389,299.742 203.1389,299.8374 203.0075,300.0042 202.9913,300.1235 203.2379,300.2823 203.2706,300.3535 203.2215,300.4173 202.9833,300.457 202.9421,300.5287 202.9997,300.8466 202.819,300.8863 202.8108,300.9498 202.9342,300.9974 202.9641,301.0579 202.926,301.1168 202.7782,301.1723 202.7124,301.2757 202.8603,301.347 203.0576,301.3707 203.1563,301.4266 203.1808,301.5054 202.8605,301.6885 202.9672,301.8 203.2222,301.9107 203.0778,302.0662 202.9673,302.1176 203.0335,302.197 203.2878,302.2366 203.2914,302.2468 203.3396,302.3864 203.3913,302.5359 203.4526,302.7133 203.4281,302.8404 203.5678,302.9834 203.5513,303.039 203.461,303.0947 203.4364,303.1742 203.6008,303.2933 203.7241,303.2771 203.7981,303.3177 203.8303,303.4195 203.8475,303.65 203.4951,303.8096 203.4943,303.8735 203.7762,304.0202 203.7984,304.0557 203.5437,304.048 203.5107,304.1039 203.6094,304.199 203.6095,304.2546 203.2808,304.3105 203.1905,304.4298 203.2153,304.5488 203.5685,304.6758 203.5686,304.8109 203.4117,304.7956 203.2893,304.7315 203.2565,304.7869 203.2648,304.8588 203.3631,305.0254 203.1907,304.962 203.084,304.9622 203.0758,305.0336 203.232,305.1921 203.232,305.264 203.1496,305.2799 203.117,305.4383 203.0021,305.55 203.0348,305.6212 203.1992,305.7489 203.2073,305.828 203.1419,305.9154 203.142,306.0307 202.9611,305.9314 202.8707,305.9473 202.8542,306.0109 202.871,306.1379 203.0352,306.3605 203.3722,306.4394 203.5038,306.5271 203.4872,306.6305 203.4135,306.7255 203.1426,306.8689 203.1259,306.9563 203.225,307.282 203.2245,307.5044 202.9457,307.5761 203.0524,307.6794 202.9866,307.6954 202.9454,307.7828 202.9538,307.8778 203.1182,307.9416 203.151,308.0767 203.0853,308.1004 202.921,308.0289 202.8308,307.9417 202.7483,307.9415 202.691,308.0134 202.6909,308.0767 202.7731,308.2831 202.7241,308.2991 202.5595,308.18 202.4856,308.196 202.4854,308.2517 202.6416,308.4345 202.6253,308.5297 202.5599,308.617 202.3789,308.6806 202.1651,308.6568 202.124,308.6808 202.0831,308.9268 201.845,309.0068 201.8206,309.118 201.9185,309.2531 201.9353,309.3483 201.911,309.3961 202.034,309.4634 201.9223,309.5871 201.7877,309.6148 201.7797,309.6622 201.8127,309.7098 202.0259,309.7256 202.026,309.948 201.7879,310.0273 201.7141,309.9481 201.607,309.9007 201.5576,309.9641 201.5741,310.0833 201.6235,310.1235 201.8291,310.1387 201.6647,310.3693 201.5909,310.4174 201.6566,310.6472 201.5992,310.6949 201.4837,310.7029 201.3358,310.6078 201.2865,310.6555 201.2867,310.7273 201.4922,310.8624 201.5253,310.9493 201.4348,311.0926 201.1556,311.1641 201.0569,311.2437 201.1636,311.3468 201.2952,311.3627 201.0984,311.6407 201.0492,311.7999 201.1589,312.2648 200.9754,312.2375 200.9813,312.329 201.0892,312.4111 201.1074,312.5014 201.0245,312.5648 200.9015,312.522 200.8808,312.5498 200.9487,312.6554 200.9496,312.7199 200.8974,312.7614 200.611,312.7995 200.6138,312.8487 200.7818,312.9974 200.7174,313.1187 200.6491,313.187 200.6944,313.4049 200.6786,313.4783 200.5689,313.4934 200.4825,313.4445 200.3395,313.4436 200.3005,313.5246 200.3108,313.5952 200.4553,313.6246 200.5178,313.6966 200.4239,313.7932 200.4143,313.851 200.5078,313.8818 200.7548,313.8818 200.8067,313.943 200.6954,314.0807 200.6616,314.1219 200.7224,314.1997 200.7224,314.303 200.662,314.3459 200.4627,314.2946 200.4282,314.2514 200.3332,314.286 200.3504,314.381 200.4453,314.4669 200.3681,314.7862 200.5325,314.924 200.6361,315.32 200.749,315.424 200.7964,315.5794 200.7447,315.6572 200.6671,315.6741 200.5887,315.6226 200.4849,315.3206 200.3832,315.2321 200.2945,315.2174 200.3121,315.3897 200.2773,315.4416 200.1389,315.4503 199.9744,315.4071 199.9138,315.4333 199.8879,315.5366 200.0091,315.7088 199.9356,315.9418 200.0483,316.1142 199.9877,316.1833 199.8319,316.2866 199.5722,316.2607 199.4427,316.4333 199.3042,316.5456 199.0187,316.5027 198.9144,316.5285 198.8882,316.589 198.932,316.6667 199.0876,316.7095 199.1269,316.7873 199.1004,316.8567 198.8498,316.9168 198.8846,316.9858 199.1703,317.0803 199.2046,317.2355 199.1357,317.3045 198.9021,317.2702 198.8243,317.3479 199.0926,317.4682 199.1532,317.5203 199.1705,317.7187 199.322,317.7618 199.4085,317.8306 199.4084,317.951 199.0881,318.0117 198.9934,318.124 198.9761,318.2359 199.0713,318.4689 198.9243,318.7015 199.0021,318.8224 199.1233,318.9085 199.1494,319.0809 198.9636,319.1413 198.9722,319.2534 199.0498,319.3312 199.0413,319.4435 198.955,319.5726 198.9202,319.7107 198.946,319.9433 198.9204,320.0206 198.6521,320.3287 198.6353,320.8918 198.4749,320.9094 198.4234,320.8141 198.3107,320.7632 198.2155,320.7888 198.2155,320.9099 198.3975,321.1677 198.4101,321.306 198.354,321.4611 197.9995,321.7806 198.0169,321.8237 198.1294,321.8667 198.3026,321.8236 198.4539,321.8748 198.428,321.9873 198.3067,322.1081 198.2637,322.2981 198.1687,322.3669 198.0559,322.3929 198.0042,322.436 197.9868,322.5224 198.0044,322.6174 198.3068,322.798 198.2987,322.9447 198.2579,322.9694 198.1425,322.9532 198.0132,322.8412 197.8485,322.8326 197.7835,322.9363 197.8876,323.0826 197.8443,323.1774 197.7578,323.2638 197.6453,323.2988 197.6022,323.3677 197.6715,323.6001 197.5332,323.9019 197.533,324.1089 197.6803,324.3246 197.6631,324.4281 197.5855,324.4885 197.5894,324.5572 197.6329,324.618 197.7106,324.6522 197.7804,324.7556 197.5899,325.1439 197.3907,325.3595 197.3561,325.5579 197.2524,325.8252 197.1348,325.917 197.0103,325.9374 196.9656,325.9812 196.7979,326.0583 196.7114,326.2135 196.6078,326.2566 196.5471,326.3426 196.5475,326.4378 196.599,326.5585 196.8676,326.748 196.9021,326.8426 196.7206,326.9549 196.4868,326.9725 196.3829,327.0156 196.1324,327.007 195.9674,326.9554 195.7384,326.9725 195.7036,327.0588 195.7383,327.1884 195.8594,327.3433 196.0586,327.4296 196.0936,327.5244 195.9113,327.6108 195.8856,327.654 196.0935,328.0072 196.1715,328.2485 196.1717,328.4038 196.0898,328.5593 196.1588,328.7575 196.1069,328.8698 196.055,328.887 196.0028,329.1196 195.778,329.2666 195.7524,329.4477 195.761,329.6198 195.8562,329.758 196.0813,329.8614 196.1848,329.956 196.1767,330.051 196.077,330.1805 195.8951,330.2494 195.6962,330.2667 195.774,330.2925 195.8435,330.3703 195.7399,330.474 195.7829,330.5342 195.8953,330.5426 195.9561,330.5853 195.9211,330.6635 195.6968,330.8447 195.4458,330.7931 195.5323,331.0172 195.4327,331.1808 195.2336,331.2931 195.2675,331.4654 194.9737,331.4657 194.827,331.5432 194.9393,331.638 195.0087,331.7849 194.9135,331.8281 194.8704,331.897 194.8876,332.0518 194.8011,332.2419 194.5804,332.3452 194.6065,332.518 194.5113,332.6301 194.5285,332.7939 194.4765,332.8195 194.3381,332.8111 194.3296,332.9578 194.1294,333.0227 193.6823,333.1045 193.5264,333.1964 193.2948,333.1773 193.2028,333.2348 193.2554,333.4961 193.2137,333.5961 193.022,333.7458 193.0887,334.2456 192.9295,334.3122 192.6371,334.1711 192.5201,334.2126 192.4319,334.2794 192.4324,334.4128 192.5326,334.5293 192.5328,334.6288 192.4909,334.6707 192.2482,334.6627 192.19,334.7039 192.2563,334.8375 192.2568,334.9541 192.0648,334.9622 191.9891,334.8455 191.9225,334.8542 191.7969,334.9788 191.7806,335.2211 191.8641,335.5121 191.983,335.7651 191.9521,335.9455 191.9021,336.0452 191.6345,336.1203 191.4924,336.0699 191.4005,336.0871 191.3836,336.1536 191.4138,336.3605 191.3672,336.4533 191.1079,336.6785 190.9243,336.7786 190.8654,336.6617 190.6108,336.737 190.3264,336.9703 190.0004,337.3282 189.9421,337.4869 189.942,337.753 189.8078,337.8532 189.6576,337.8614 189.461,338.2448 189.3525,338.778 189.4031,338.8946 189.2614,339.1278 189.2579,339.183 189.2443,339.3944 189.8593,340.7018 189.8177,340.9264 189.709,341.1932 189.6922,341.5513 189.7257,341.7595 189.7094,341.951 189.617,342.1281 189.5549,342.9923 189.6053,343.1919 189.9313,343.8417 189.8897,344.1333 189.7974,344.3248 189.7726,344.5415 189.8356,344.6747 190.0364,344.8662 190.1111,345.0993 190.0867,345.4327 190.003,345.7659 189.8612,346.0406 189.602,346.3572 189.5851,346.5653 189.6144,346.8481 189.5143,347.1153 189.2719,347.4152 188.9296,348.3478 188.9631,348.8726 189.0592,349.3558 188.9006,350.2387 188.976,350.3969 189.0348,350.6466 189.2357,351.0963 189.2148,351.871 189.2397,352.1125 189.1564,352.4207 189.031,352.7038 188.5548,353.1956 188.4753,353.4794 188.4337,354.0534 187.8733,354.6118 187.7817,354.8449 187.7732,355.1448 187.9702,356.8771 187.9789,357.1852 187.9454,357.4682 187.7407,358.3848 187.5987,359.3092 187.5286,361.3168 187.0941,362.8415 187.0568,363.2393 187.157,363.8309 187.1572,364.5056 186.9904,365.1552 186.6013,365.87 186.5428,366.1534 186.8609,366.6701 187.6559,367.328 187.8065,367.4943 187.7604,367.6942 187.4511,368.1194 187.3345,368.9611 187.3763,369.386 187.8243,370.4608 187.9081,370.927 187.9079,371.3023 187.833,371.6857 187.6657,372.1353 187.5775,372.5604 187.5447,373.2103 187.7713,375.0265 187.7004,375.5163 187.6922,376.6415 187.5089,377.2834 187.4039,377.4751 187.4037,377.7917 187.4794,378.1165 187.371,379.3334 187.5344,380.1252 187.4508,381.042 187.3674,381.4003 187.376,381.6918 187.3004,381.8918 187.1879,383.1422 187.2119,383.6249 187.138,384.1338 187.1173,384.8338 187.2176,385.7003 187.1847,386.2755 186.8878,387.1752 186.6537,387.5505 186.017,388.8008 185.5616,389.5761 185.4364,389.9091 185.5456,391.1342 185.4033,391.7179 185.2193,392.1343 184.9012,392.3847 184.6332,392.4012 184.3484,392.5348 184.2736,392.7681 184.441,393.118 184.5248,393.3846 184.4914,393.6015 184.4464,393.676 184.5083,393.8679 184.4917,394.0681 184.4078,394.1348 184.4916,394.4513 184.4941,394.5888 184.5373,394.7178 184.6237,394.8292 184.7792,394.8898 184.8833,395.0186 184.8657,395.1474 184.5724,395.3365 184.5463,395.4745 184.6325,395.4916 184.6671,395.5431 184.6241,395.5948 184.3646,395.5861 184.0753,395.8337 183.9283,395.8338 183.574,395.9802 183.28,395.9721 183.2023,396.0059 183.0815,396.2298 183.1937,396.5568 183.2371,396.8406 183.2028,396.9865 183.0863,397.1848 183.0684,397.3308 183.1033,397.4687 183.3109,397.7521 183.2767,397.9509 183.4402,398.2077 183.4386,398.2149 183.3468,398.6426 183.3207,398.7642 182.9094,399.2928 182.9096,399.4128 182.8318,399.4818 182.7888,399.585 182.7884,399.7055 182.8577,399.8261 183.0217,399.8169 183.065,399.8515 183.0564,399.998 182.9183,400.1444 182.9703,400.4626 182.9314,400.5313 182.8105,400.5747 182.7326,400.6691 182.8105,400.9444 182.767,400.9874 182.7154,400.9784 182.6203,400.8328 182.5513,400.7982 182.4821,400.8239 182.4392,401.0563 182.387,401.0909 182.2312,401.0134 182.0761,401.1248 182.0155,401.478 181.9246,401.6414 181.7435,401.7534 181.562,402.0544 181.5619,402.1574 181.6137,402.2011 181.7775,402.2263 181.7347,402.3126 181.5964,402.381 181.5447,402.4935 181.5447,402.5963 181.441,402.6566 181.4063,402.5707 181.3111,402.5536 181.238,402.6828 181.2638,402.8806 181.117,402.9406 181.0738,402.9919 181.1171,403.0697 181.247,403.173 181.1947,403.2418 181.0911,403.2758 181.0482,403.4742 180.9531,403.5343 180.8492,403.5516 180.8493,403.7753 180.9272,403.9216 180.9875,403.9645 180.9876,404.0506 180.8103,404.0507 180.7411,404.1104 180.8017,404.2141 181.2253,404.3086 181.26,404.412 180.7151,404.8249 180.6118,405.0056 180.4648,405.4446 180.3728,405.5331 180.2883,405.6946 180.3569,406.2184 180.3054,406.3049 180.1497,406.3046 180.0201,406.3653 180.0031,406.4424 180.0893,406.537 180.0892,406.6233 180.0461,406.6917 179.7779,406.7349 179.5925,406.9412 179.4715,407.2427 179.5147,407.7416 179.4802,407.9048 179.3765,408.0599 179.2469,408.1375 179.1001,408.1461 178.9789,408.4474 179.0698,408.7224 178.9489,408.8775 178.8731,409.2287 178.7934,409.3246 178.5687,409.3591 178.4911,409.4106 178.2489,409.6775 178.0501,409.7809 177.8943,409.7379 177.6617,409.7532 177.605,409.8063 177.6051,409.9872 177.5358,410.0476 177.3717,410.0219 177.2506,410.2112 176.9482,410.495 176.5073,410.5987 176.3347,410.7964 176.0881,410.9683 175.7081,411.5106 175.3801,411.7252 175.2153,411.777 175.1547,411.9148 175.1722,412.4311 175.1159,412.56 174.9952,412.6545 174.8999,412.6118 174.8048,412.6204 174.7874,412.8872 174.5114,413.076 174.3988,413.2659 174.4163,413.4118 174.6406,413.6616 174.6668,413.799 174.412,414.1946 174.2735,414.2637 174.0834,414.2894 173.7983,414.5217 173.5214,414.952 173.4094,415.0467 173.366,415.2704 173.3071,415.3351 173.2277,415.2877 173.1713,415.1672 173.0851,415.141 172.99,415.1758 172.7047,415.1242 172.4972,415.1933 172.4365,415.1756 172.2118,414.9349 172.0049,414.9004 171.5982,414.7115 171.4039,414.7459 171.3345,414.8147 171.2226,415.0728 171.1359,415.6146 171.0667,415.7953 170.9199,415.8986 170.6431,415.8899 170.505,415.9158 170.4012,415.9761 170.3017,416.2343 170.4315,416.7762 170.7082,417.2666 170.8982,417.4731 170.9416,417.6449 170.9243,417.7912 170.8206,417.8861 170.5826,417.9288 170.5137,417.9718 170.2373,418.2902 169.7334,418.5609 169.4678,418.7037 169.3985,418.8928 169.5194,419.1335 169.4204,419.4517 169.2301,419.8475 169.144,420.3551 168.8846,420.8115 168.8499,421.095 168.8285,422.0063 168.5779,422.4031 168.0247,422.8242 167.847,423.6245 167.761,423.7879 167.095,424.2527 166.9137,424.5023 166.4686,425.4828 166.2699,425.7664 165.7943,426.2742 165.31,426.6701 165.0022,426.982 164.5799,427.7971 163.9659,428.2103 163.8795,428.2958 163.59,428.7432 163.2957,428.9412 162.4745,429.2595 162.1631,429.5006 161.26,430.4726 161.0698,430.8595 160.8708,431.0234 160.1663,431.4793 159.95,431.7371 159.4571,432.133 159.2323,432.4427 158.9961,432.6597 158.277,433.1223 158.156,433.3458 158.0952,433.5869 157.983,433.7848 157.7754,433.9654 157.5336,434.0516 157.2999,434.0688 157.0019,433.9656 156.7943,433.9568 156.7422,434.0427 156.7337,434.1718 156.6466,434.2357 156.5608,434.1893 156.4482,434.189 156.3704,434.3437 156.3532,434.5935 156.2484,434.6534 155.9983,434.6535 155.6484,434.705 155.2247,435.0148 155.1038,435.1354 154.9827,435.3589 154.8703,435.4705 154.4811,435.6771 154.2304,435.7542 153.9022,435.6598 153.6727,435.5051 153.5344,435.3415 153.3616,435.2642 153.206,435.2641 153.0761,435.3158 152.9724,435.2298 152.8601,435.2125 152.7561,435.2384 152.5486,435.4017 152.4798,435.4101 152.2722,435.3499 151.9819,435.3758 151.7922,435.4876 151.6713,435.6253 151.6194,435.7888 151.4811,435.9179 151.3857,436.1932 151.2383,436.305 150.9028,436.3393 150.8845,436.5545 150.4475,436.7349 150.1101,437.0278 149.8252,437.0875 149.7213,437.1389 149.5136,437.3199 149.1589,437.4143 149.0553,437.4917 148.636,437.5779 148.5151,437.6467 148.2474,438.0934 147.6416,438.4638 147.4859,438.7647 147.3776,439.5562 147.5593,439.8749 147.5242,440.0034 147.4208,440.1156 147.0232,440.1412 146.7809,440.3044 146.4392,440.3471 146.275,440.4337 146.076,440.6054 145.9981,440.9929 146.0154,441.1907 145.9896,441.2939 145.8771,441.3972 145.1682,441.612 144.9302,441.8183 144.7749,442.3421 144.636,442.5582 144.4026,442.7389 144.0651,442.9194 143.728,442.9967 143.0836,443.2977 142.6599,443.6849 142.2881,443.728 142.0856,443.7931 141.9652,443.7762 141.4668,444.1674 140.9803,444.346 140.8122,444.7203 140.2706,444.9236 139.9692,445.4014 139.818,445.8979 138.7373,446.7536 138.4881,447.0936 137.839,447.3009 137.619,447.5198 137.5027,448.3496 137.2406,448.6211 136.2233,448.9653 135.8858,449.5884 135.3239,449.9289 135.0102,450.286 134.165,450.7009 133.5076,451.7656 131.8812,452.2329 131.349,452.7628 131.0574,453.3157 130.7447,453.4084 130.855,453.6212 130.4959,453.7941 130.5766,454.1058 130.5068,454.3019 130.2975,454.5207 129.9155,454.5418 129.7012,454.7799 129.6766,455.1258 129.3771,455.2407 129.3766,455.3908 129.1796,455.3099 129.0403,455.402 129.0401,455.8863 129.2601,456.2553 128.7679,456.3876 128.0146,456.3412 127.4695,456.5833 127.4171,457.2561 127.2665,457.4532 126.8956,457.4533 126.71,457.5915 126.594,457.8911 126.316,457.9717 126.3216,458.2888 126.1246,458.2772 126.0549,458.5192 125.1509,459.4868 125.0181,459.5141 124.4492,459.6308 124.3222,459.7359 124.5986,460.0494 124.5756,460.3798 124.2551,460.6209 124.3075,460.7628 123.9095,461.2386 123.77,461.8151 123.4115,462.0102 123.179,461.8724 122.6398,462.2466 122.3499,462.5233 122.5237,462.9847 122.4309,463.0769 122.1472,462.935 121.7065,462.9093 121.647,463.5448 121.5905,463.7958 121.5048,463.9309 121.2771,464.1314 120.9704,464.0905 120.854,464.2865 120.7729,464.1249 120.6457,464.1365 120.6452,464.2392 120.1533,464.1379 119.7585,464.4766 119.7469,465.0287 119.9544,465.1331 119.2826,465.9631 119.427,466.1534 119.2186,466.4182 119.2091,466.5787 119.1841,467.0012 119.253,467.1334 119.1489,467.1803 118.9752,467.5821 119.0905,467.8132 118.737,467.8416 118.5859,468.6481 118.458,468.8673 118.2959,468.9823 117.9948,468.9366 117.7795,469.1725 117.4331,469.2569 117.4203,470.2331 117.1768,470.3945 117.1536,470.5223 117.4946,470.9421 117.5065,471.0805 117.1819,471.2646 117.0344,471.5442 116.5437,472.4745 115.9642,472.6938 115.8641,473.2351 115.1567,474.3705 114.8906,474.6813 114.2826,474.9062 114.189,475.5056 114.0032,475.5976 113.7711,476.0935 112.9307,476.4558 112.6288,476.7553 112.1183,477.5616 111.4286,477.6363 110.5359,478.3624 110.2684,478.7653 110.1215,479.3374 109.9353,479.6708 109.0332,480.1769 108.546,480.6493 106.6151,481.7373 106.4291,482.0717 106.243,482.89 105.854,483.8751 105.8538,484.2095 105.6092,484.9006 104.9431,485.8974 104.4318,486.9466 103.8981,487.4879 103.3463,488.5421 102.8019,489.0609 102.3948,489.7636 101.4513,490.5427 101.3103,490.8292 100.9623,491.0942 100.4414,491.2341 98.3722,493.2632 97.7776,494.0598 97.0179,494.5149 96.9475,494.7796 96.7157,495.0448 95.8227,495.5166 94.703,496.5136 94.235,497.1673 93.3566,497.5839 93.0955,497.9929 92.376,498.488 91.9817,498.6262 91.6489,499.0733 91.0367,498.9423 90.8857,498.9995 90.862,499.5413 90.3641,500.0 48.8835,485.2766 44.8875,483.8582 44.6554,483.2023 44.4331,483.0603 44.3181,482.83 44.2387,482.3172 44.0766,482.1304 43.6518,481.9621 43.12,480.4515 41.9027,479.3614 41.4675,478.8124 40.9966,478.4752 40.4278,478.2578 40.178,477.9099 39.9841,477.0537 39.7975,476.9475 39.7446,476.7788 40.0828,476.4434 40.27,475.9923 40.1388,474.7482 40.3351,474.0219 40.5851,473.527 40.5855,473.3144 40.1596,472.3226 40.241,471.5709 40.2531,471.5442 40.4819,471.0403 40.9363,470.7429 41.5158,469.8941 41.205,469.15 41.1085,468.6366 40.7448,468.22 39.9444,467.6728 39.7756,467.407 39.7764,467.0095 39.6608,466.7959 39.5184,466.7782 39.3051,466.5475 38.9144,465.9093 38.5328,465.7059 38.2482,465.0541 37.8484,464.5133 37.9731,464.0554 37.7341,463.8317 37.2271,463.601 36.941,463.2633 36.2555,462.7437 35.333,462.2567 35.289,461.8319 35.1561,461.5928 34.9069,461.4149 34.6146,460.6093 34.0724,460.046 33.8506,459.5855 34.1019,458.4439 34.0397,458.1511 33.4001,457.5838 33.5429,457.2322 33.2425,456.7531 33.2506,456.3371 33.6435,455.3552 34.2767,454.3469 34.3667,453.8288 34.6695,453.5363 35.0438,453.6513 35.5691,453.4665 35.6141,453.3248 35.8279,453.2721 36.1485,453.3432 36.4515,453.2195 37.4656,453.5578 37.9199,453.4743 38.5001,452.4301 39.0341,452.3778 39.1773,452.0251 39.1068,451.5985 40.1324,450.7886 41.3701,449.5613 41.8519,449.3043 42.0211,449.3797 42.2799,449.0614 42.4755,449.0616 42.5117,448.6982 42.6298,448.5111 43.9825,447.4342 43.9918,447.2486 43.6628,446.9067 43.7434,446.5708 44.0196,446.385 44.4649,446.2882 44.6522,446.0579 44.6708,445.4296 45.5777,444.8647 46.0881,444.0452 46.2061,442.6373 46.5716,442.2731 46.6178,440.8018 46.3517,440.0897 46.6823,439.1864 47.405,438.2484 48.1806,437.6854 48.6353,437.0569 48.8835,437.0617 50.0957,437.0854 51.013,436.7543 51.1649,436.5507 50.8369,435.9762 50.8275,435.762 51.5137,435.5236 51.6832,435.3643 51.8105,434.5468 52.3619,433.7213 52.645,432.4868 52.7209,432.3414 53.2718,431.8174 53.5138,430.7665 54.2188,429.9345 56.072,428.2922 57.063,427.0164 57.7507,425.8472 58.82,425.4789 59.2298,424.8694 59.4135,424.1963 59.6417,423.7603 60.1867,423.3784 60.5954,422.8448 61.1489,422.481 61.8712,421.7373 62.6963,421.4114 63.8496,421.1676 63.9164,421.0633 64.0366,420.8754 64.5468,419.0059 64.6635,418.1283 64.7881,417.9803 65.7266,417.8471 66.4202,417.5198 66.8835,416.8385 67.3204,416.4583 67.4277,416.1924 67.8816,415.7015 68.2217,415.5238 68.9711,415.5593 69.8972,415.0995 70.2445,414.1134 70.7262,413.7498 70.8424,413.3592 70.3725,411.9481 70.5412,411.437 71.6122,410.8175 71.6302,410.5958 71.4349,410.0193 71.4618,409.629 71.5245,409.292 72.0154,408.4758 71.963,407.5738 72.257,406.047 72.179,405.6046 72.3391,404.622 72.0208,403.5497 72.1027,401.7833 71.8883,401.6331 71.4696,401.7326 71.3006,401.5282 71.1673,401.0671 71.5869,400.6588 70.8832,399.8952 70.5996,398.6659 70.6264,398.4265 71.1262,397.9301 71.5899,397.6556 72.0541,396.769 71.9913,396.0222 71.3424,395.555 70.7461,394.587 71.0588,393.709 71.4069,393.1229 71.7288,391.884 71.6228,391.5376 71.2398,391.1112 71.1921,390.5471 71.2504,389.7004 71.8118,389.425 71.973,389.1347 72.1436,388.0962 71.627,387.5807 71.6011,386.772 71.3601,386.4509 70.8088,385.1937 71.4418,385.177 71.5046,385.044 71.3708,384.2606 71.0604,383.4448 71.0875,383.2364 71.4799,383.1302 71.6235,382.3491 72.1672,381.8163 72.3068,381.4778 71.4928,379.6874 72.036,379.4045 72.0918,378.4202 72.7967,377.957 72.4142,377.1746 72.3791,376.4488 72.6473,375.6505 72.8191,375.5772 73.4513,374.7802 74.5423,372.4738 74.1597,371.7629 74.2673,371.2567 73.7503,370.6959 73.6347,370.376 73.5378,368.9304 73.1646,367.5787 73.6705,366.7464 73.6766,366.6676 73.7011,366.3557 73.3734,365.9592 72.7661,365.5999 72.3011,364.9943 71.4114,364.3862 71.1874,363.8885 71.0716,363.0156 70.6614,362.8285 70.5187,362.5263 69.921,362.1436 68.9987,361.0958 68.9624,361.0824 80.5385,317.0672 86.2619,295.2487" stroke="black" /><polygon fill="none" points="167.314,111.8289 167.4588,112.6932 169.3769,124.1436 178.8289,180.3419 180.0034,187.3037 175.0966,186.3623 175.0118,186.346 148.7062,181.2897 146.9976,180.9613 142.5365,180.1038 133.5197,178.3706 131.5703,178.5052 131.3773,178.5185 124.1683,179.0162 119.9981,172.4577 116.5704,169.3828 116.5003,169.3198 115.7009,168.6026 105.2528,171.669 91.9315,196.6241 108.6331,206.4352 108.709,206.4799 108.7049,206.4919 108.3419,207.5535 108.1812,208.7522 107.9204,209.5817 107.937,211.4851 107.8536,212.3725 108.1602,213.2355 107.5095,213.7187 107.2076,214.4201 106.9346,214.7283 106.1991,215.0944 104.2516,215.5121 103.5174,215.8428 102.7716,216.3264 102.4632,216.7398 102.4673,216.9759 101.7654,218.4591 97.3828,222.5383 96.8334,223.0496 93.6891,226.5689 92.9197,227.0951 90.4855,229.4319 89.5395,230.0878 86.8323,231.119 85.5949,231.7203 84.4498,232.0708 83.8102,232.4124 82.7993,233.2341 81.4039,233.972 80.6158,234.2025 79.6318,233.9882 77.3608,232.7218 75.4543,231.151 73.9102,230.6123 73.8303,230.5844 73.1544,232.9239 73.1203,233.042 59.4376,280.4198 64.2772,296.6681 86.281,295.176 86.2619,295.2487 80.5385,317.0672 68.9624,361.0824 68.6281,360.8736 67.9417,360.082 66.8182,359.1117 66.2204,358.2779 66.1141,357.5046 65.6595,357.1301 65.4897,356.8635 65.4458,356.5344 65.0787,355.6141 65.0448,355.5291 65.3934,355.0073 64.4835,354.6246 64.2833,354.4387 63.3326,353.5559 63.0661,352.5638 63.1822,352.3242 63.1379,352.1196 62.9059,352.0039 62.0484,352.2872 62.0489,351.7715 61.489,351.0902 61.2646,350.5568 61.2207,349.6055 60.98,349.6673 60.62,349.4443 60.3975,349.4253 59.976,348.9631 59.8138,348.533 60.2919,348.3858 60.2871,348.0807 60.0926,347.9005 59.5362,347.6594 59.1517,346.9632 58.4703,346.6388 58.4244,346.3012 57.8034,345.8245 57.5995,345.4919 57.3626,345.3758 56.3447,345.4303 56.0407,345.3088 55.9501,345.0735 56.0715,344.8926 56.555,344.8213 55.8975,344.2337 55.6619,344.2372 55.221,344.7131 54.91,344.5609 54.7377,344.2348 54.7034,343.5062 54.5666,343.4226 54.4416,343.4224 53.9887,343.7537 53.7391,343.7593 52.9841,343.0947 52.4727,343.0201 51.972,343.6297 51.7759,343.6595 51.484,343.2858 50.2004,342.5342 50.0099,342.6702 49.2485,342.3552 48.8835,342.5216 48.8204,342.5504 48.5906,342.5213 48.2453,341.914 48.1265,341.8299 47.4234,341.7517 47.3695,341.4076 47.2184,341.3844 46.7215,341.6436 46.6144,341.4069 46.6568,340.9325 46.5432,340.814 45.759,340.9492 45.699,340.8427 45.8422,340.3301 45.6133,338.562 45.4822,338.3149 44.9357,337.7871 44.7453,337.7688 44.4412,338.1259 44.5182,338.3692 44.3748,338.8252 44.2674,338.8726 43.7748,337.9292 43.5847,337.8227 43.1442,337.9938 43.0616,337.4808 43.1692,337.1432 43.1398,336.8524 43.033,336.752 42.3662,336.8043 41.9252,337.189 41.7,336.8032 40.832,336.1473 40.7432,335.9098 40.5765,335.8508 39.8678,336.1223 39.6777,336.1103 39.5645,335.9499 39.8521,335.0139 39.537,334.6251 39.3107,334.5833 38.8813,335.4127 38.6668,335.2879 38.3875,335.4121 38.2619,335.619 38.0956,335.536 38.3824,334.7423 38.4244,334.357 38.3533,333.8859 38.1103,333.6481 37.5676,334.3648 36.9311,334.3934 36.5922,334.1914 36.884,333.7768 36.8847,333.4185 36.4567,332.9852 36.1896,333.0142 36.0341,333.2509 36.0037,333.7787 35.8667,333.8434 35.3439,333.523 34.8505,333.0656 33.8151,333.0434 33.316,332.5389 33.3938,332.3022 33.8639,331.9998 33.9147,331.9033 33.9399,331.7768 33.8472,331.4315 33.6211,331.3034 33.0918,331.3978 33.0912,331.7948 32.7754,332.1559 32.4776,332.1374 32.4056,332.5521 31.8647,332.3444 31.7572,332.1249 31.9484,331.9086 31.9073,331.5946 32.2056,331.174 32.2663,330.8321 32.1717,330.7261 31.8366,330.5918 31.3773,330.9141 31.2871,331.2815 30.7334,331.4534 30.515,331.3529 30.4041,331.0632 30.5724,330.5404 30.4888,330.172 29.768,329.7894 28.9079,329.5428 28.5453,329.0271 28.4004,329.0155 28.3654,329.3944 27.8621,329.5497 27.5267,329.3428 27.2355,329.3427 27.0576,329.1529 27.08,328.997 26.7223,328.9072 26.5308,329.252 26.5087,329.6092 26.1167,329.9759 25.5575,329.9417 24.953,330.2586 24.796,330.2358 24.6963,330.0464 24.372,329.9679 24.1027,330.5693 23.7112,330.5128 23.1969,329.8545 22.7169,329.7924 21.6432,329.9355 20.5252,329.5885 20.1221,329.9557 19.5408,329.8596 19.3297,328.968 19.2181,328.857 18.6921,328.8668 17.968,328.0877 17.4749,327.8786 17.3854,327.7003 17.6436,327.3666 17.9016,326.732 17.5657,326.5867 17.0741,326.6525 16.0222,327.0744 15.7208,326.9234 15.6761,326.734 16.2588,326.1447 16.2593,325.7991 16.5509,325.3092 16.5513,324.9084 16.2384,324.4953 15.7587,324.133 15.4011,324.0541 14.9651,323.7192 14.7199,323.2508 14.7881,322.9497 15.0004,322.7719 15.4143,322.8398 15.4597,322.5502 15.6275,322.4834 15.5486,322.3383 15.0237,322.0984 14.6773,322.1533 14.4986,322.0529 14.3198,322.0634 13.9163,322.4195 13.3909,322.3511 13.2681,322.1176 13.4477,321.8504 13.2464,321.6885 13.2022,321.5211 13.37,321.1985 13.6607,321.1878 13.5049,320.8533 13.5506,320.6528 13.2263,320.418 12.7789,320.3396 12.3776,319.7034 12.1988,319.6144 12.1207,319.631 12.0977,319.8202 11.5942,319.931 11.5389,319.7749 11.6738,319.418 11.6295,319.14 11.15,318.1811 11.2966,317.5238 11.1077,317.0725 11.2532,316.7053 10.9959,316.5262 10.8292,316.2582 10.4826,316.2581 10.3481,316.503 10.2361,316.4804 10.203,316.202 10.3149,316.2021 10.4385,315.8788 10.7738,315.7737 10.473,315.3054 10.4622,315.1495 10.6746,315.1271 10.63,315.0047 10.1153,314.7588 9.7031,314.3012 9.547,313.7777 9.2568,313.4761 8.6649,313.1968 8.0061,312.7217 7.3366,312.0189 6.8339,311.7283 6.4881,311.204 6.2764,310.6241 6.0981,310.5406 6.1321,310.1951 6.0538,310.0391 5.3167,309.7591 4.8024,309.747 4.7233,310.2146 4.4103,310.2256 4.3089,310.3815 4.0516,310.47 4.1626,310.7544 3.5493,310.7311 3.6273,310.4414 3.7832,310.4077 3.7837,310.2968 3.6721,310.2521 3.4037,310.285 3.2027,310.1738 3.0346,310.2175 3.0113,310.407 2.5314,310.3393 2.5541,310.1941 3.0803,309.7441 3.0027,309.5212 3.125,309.3988 2.6685,308.5624 2.5681,308.4511 2.4453,308.4732 2.389,308.6177 2.1989,308.6397 2.2544,308.8067 2.1873,308.8291 2.0204,308.4833 2.1776,308.0882 2.1216,308.0212 1.948,308.1959 1.5303,307.4404 0.7144,307.205 0.5703,306.726 0.4357,306.7592 0.3571,306.9262 0.1894,306.9089 0.2459,306.6975 0.0111,306.6969 0.0,306.5638 0.1905,306.3406 0.1464,306.0846 0.2695,306.029 0.3587,306.1181 0.5935,306.1075 0.3047,305.8858 0.3259,305.7952 0.5382,305.7953 0.5228,305.2006 0.8344,304.7822 1.1127,304.0775 1.2658,303.6261 1.2533,303.4842 1.1942,303.3471 1.0682,303.1635 0.8344,302.7121 0.6186,301.6683 0.556,301.114 0.5585,300.8916 0.6614,300.7528 0.7873,300.6335 0.9803,300.5141 1.2187,300.2337 1.3665,300.018 1.5688,299.8613 1.7795,299.7596 2.8189,299.6569 3.1081,299.5416 3.3955,299.3432 3.5579,299.1139 3.7506,298.7258 3.9582,298.2481 4.1179,297.955 4.22,297.6518 4.2626,297.2832 4.3628,296.3428 4.3442,295.9924 4.3728,295.6831 4.5759,294.9995 4.5898,294.8195 4.5571,294.679 4.4184,294.3429 4.1735,293.6927 4.1513,293.539 4.1629,293.4366 4.2086,293.3452 4.3276,293.1994 4.4973,293.004 5.33,291.8164 5.7394,291.0802 6.0769,290.6293 6.3176,290.3011 6.4464,289.9829 6.4111,289.1675 6.3441,288.8764 6.3,288.6633 6.3439,288.429 6.6642,287.8155 6.8545,287.2677 6.8027,286.7501 6.8226,286.3882 6.8971,286.1991 7.0239,285.994 7.2372,285.8106 7.4235,285.5434 7.8465,284.4421 8.0164,284.1445 8.245,283.9152 8.477,283.8107 8.7222,283.753 8.9757,283.5842 9.2111,283.3427 9.4604,282.6578 9.6051,281.5013 9.811,280.3856 10.0112,279.4537 10.0614,278.5605 10.2061,278.0208 10.2058,277.7694 10.1326,277.437 10.0537,276.9735 10.0179,276.1703 9.9246,275.4119 9.9445,274.9069 10.0866,274.3362 10.2573,273.974 10.4058,273.7669 10.6116,273.5707 10.8862,273.4191 11.2036,273.2995 11.5774,273.2765 12.039,273.2895 12.2875,273.1963 12.7995,272.8548 13.2025,272.6622 13.5764,272.5728 13.7524,272.4977 13.8674,272.4009 13.9503,272.2856 14.085,271.7115 14.2119,271.4788 14.4801,271.1034 15.2838,270.09 15.7156,269.5171 16.3434,268.4732 16.6092,268.2037 16.8,268.0488 17.051,267.9065 17.8549,267.3634 18.7125,266.8274 19.7833,266.3056 19.9721,266.1652 20.2006,265.9006 20.5461,265.2981 21.1552,264.6711 21.7799,264.3958 22.002,264.2332 22.1764,264.0678 22.3198,263.9285 22.5221,263.6982 22.5789,263.6216 22.6046,263.5166 22.5947,263.3933 22.5054,263.0657 22.4105,262.8699 22.2064,262.6454 22.0057,262.501 21.7493,262.2932 21.6268,262.1282 21.5256,261.916 21.3152,260.9456 21.2834,260.6975 21.3153,260.4662 21.524,259.9226 21.776,259.3922 21.9075,259.3157 22.0876,259.2757 22.456,259.2567 22.5973,259.1585 22.7289,258.9216 22.8435,258.6476 22.9971,258.4266 23.1725,258.269 23.3726,258.1173 23.607,257.961 24.0618,257.0452 24.1533,256.9151 24.2893,256.804 24.4828,256.7237 24.759,256.6608 24.9685,256.6299 25.2133,256.6221 25.8865,256.6487 26.1244,256.5219 26.354,256.3336 26.4461,256.2246 26.5139,256.0673 26.601,255.7686 26.6966,255.3714 26.8026,255.168 27.0305,254.9543 27.3579,254.5457 27.6041,254.174 27.8008,253.7998 28.3151,252.871 28.4567,252.6549 28.4993,252.4582 28.4942,252.2353 28.3729,251.4584 28.2417,250.9267 28.0813,250.5683 27.7718,249.6008 27.6726,249.3581 27.5738,248.8638 27.369,248.0892 27.3834,247.8335 27.4368,247.5604 27.494,247.2821 27.5137,246.9984 27.5002,246.7169 27.526,246.507 27.584,246.368 27.6688,246.2513 27.7953,246.087 28.3373,245.4448 28.7269,244.8608 29.4691,243.8649 29.9946,243.3644 30.0826,243.2488 30.1303,243.1547 30.1344,243.0444 30.0991,242.8972 29.8933,242.4541 29.5239,241.8133 29.054,241.3335 28.8206,241.1164 28.5556,240.9302 28.1787,240.5552 28.0034,240.3211 27.8788,239.9298 27.8174,239.4031 27.8361,239.1029 27.8699,238.8665 27.9408,238.7141 28.0621,238.604 28.2951,238.4939 28.6704,238.3687 28.9829,238.1282 29.1236,237.9139 29.2165,237.7105 29.1545,237.4659 29.1508,237.2026 29.2232,236.853 29.3724,236.5965 29.5559,236.4097 29.7551,236.2806 29.996,236.1399 30.1489,236.0254 30.3885,235.6985 30.5161,235.2546 30.6412,235.0392 31.0632,234.5325 31.5651,233.7534 31.7906,233.2183 31.8357,233.0489 31.8645,232.8386 31.8101,232.3495 31.8646,231.2849 31.8787,230.6479 31.81,230.0837 31.8656,228.8508 31.9489,228.6602 32.0829,228.5032 32.2611,228.3885 32.4045,228.3266 32.6511,228.2605 32.8112,228.2412 32.9298,228.2046 33.081,227.9322 33.1368,227.6525 33.1693,227.3044 33.1011,226.9649 32.6259,226.2916 32.0771,225.6313 31.7025,225.1171 31.4804,224.9247 30.8227,224.5403 30.4522,224.2438 30.1468,223.9755 29.9156,223.7143 29.8542,223.5204 29.8399,223.361 29.8984,223.2298 29.975,223.1418 30.0848,223.0688 30.8082,222.6997 31.6309,221.9147 31.9723,221.5348 32.1773,221.1127 32.5457,220.463 32.6944,220.3247 32.8274,220.2357 33.0043,220.1405 33.1711,220.0945 33.3375,220.0896 33.5475,220.1271 33.7511,220.2079 34.4756,220.6772 34.5665,220.7431 34.6734,220.7828 34.8121,220.7968 34.9322,220.7899 35.1379,220.76 35.3171,220.7193 35.4896,220.6142 35.7803,220.4224 35.8894,220.2148 35.9504,220.0105 36.0256,219.7075 36.0631,219.4466 36.0717,219.2967 36.0402,219.1574 35.9897,219.0442 35.8871,218.904 35.4474,218.4885 34.7161,217.9925 33.6555,217.3435 33.0554,217.011 32.7115,216.877 32.4569,216.6843 32.1773,216.3513 32.0612,216.1958 32.0141,216.0377 31.9637,215.7881 32.0142,215.5688 32.122,215.4093 32.2997,215.0617 32.4694,214.4128 32.6559,213.9705 32.7952,213.7125 32.9875,213.4934 33.4016,213.1218 33.9437,212.5463 34.052,212.3641 34.1327,212.1702 34.2252,211.788 34.527,210.9337 34.6944,210.6395 34.8967,210.3274 35.0243,210.2705 35.2457,210.2378 35.6281,210.1443 36.0172,209.9914 36.5848,209.6871 36.6993,209.6178 36.7321,209.4377 36.7517,209.22 36.83,208.9196 37.0113,208.524 37.1349,208.1922 37.1811,207.8568 37.1882,207.6389 37.1713,207.4889 37.1175,207.361 37.0856,207.2797 37.0219,207.2147 36.9617,207.1836 36.8557,207.163 36.7079,207.1599 36.4736,207.1992 35.7779,207.2082 35.665,207.2036 35.5637,207.1626 35.3921,207.079 35.1936,206.949 34.9995,206.809 34.8362,206.6502 34.7189,206.4711 34.6653,206.3595 34.6849,206.2476 34.7793,206.1732 34.8921,206.1175 35.2264,205.6847 35.4051,205.5212 35.5145,205.4685 35.773,205.4018 36.046,205.3617 36.2483,205.2163 36.496,204.99 36.6037,204.8649 36.68,204.7546 36.8186,204.3365 37.0218,203.8854 37.0668,203.5278 37.1059,203.2375 37.2087,202.9846 37.3738,202.6947 37.7068,201.9775 38.0501,200.9163 38.0898,200.6882 38.0512,200.4524 37.9531,200.2297 37.728,199.7242 37.5308,199.3981 37.4063,199.0046 37.3873,198.8602 37.3974,198.7034 37.5248,198.6244 37.6833,198.5496 38.0318,198.4608 38.3955,198.3364 38.5389,198.3112 38.6858,198.3474 38.8412,198.4017 39.0616,198.5554 39.1859,198.6911 39.3039,198.7942 39.599,199.0041 39.9237,199.1763 40.1541,199.2523 40.2779,199.2743 40.4186,199.2332 40.4911,199.1616 40.5546,199.0497 40.6173,198.908 40.7556,198.7268 40.9142,198.6 41.2122,198.1827 41.383,197.8082 41.8224,197.2668 41.983,196.9836 42.086,196.7593 42.1232,196.5825 42.1419,196.3803 42.1055,196.2119 42.0365,195.9663 41.9656,195.783 41.864,195.6673 41.672,195.561 41.4236,195.5057 41.0704,195.4291 40.8738,195.3823 40.6957,195.2814 40.3358,195.0212 39.5233,194.481 37.9984,193.7865 37.8636,193.7079 37.7604,193.6281 37.6724,193.5075 37.668,193.3642 37.7158,193.2386 37.8049,193.1306 37.965,192.8935 38.2853,192.5263 38.5994,192.2761 38.7186,192.2093 38.8495,192.1712 39.501,192.1217 39.8699,192.0437 40.5695,191.78 41.1861,191.5339 42.228,191.4987 42.4307,191.4554 42.5662,191.4008 42.6977,191.3179 42.7805,191.2293 42.813,191.119 42.8769,190.8516 42.8609,190.6725 42.8168,190.5309 42.7578,190.381 42.6899,190.253 42.6007,190.1688 42.3949,190.0049 42.2612,189.9276 42.0927,189.8921 41.6046,189.8175 41.3692,189.7691 41.1428,189.6731 40.6173,189.1006 40.2763,188.93 39.9562,188.7755 39.5684,188.4391 39.2751,188.0922 39.0061,187.624 38.7085,186.9425 38.2433,186.0689 38.2454,185.9421 38.2871,185.7959 38.3657,185.5948 38.5174,185.4883 38.8053,185.3932 39.0821,185.2634 39.4565,185.0435 40.102,184.6025 40.2831,184.5477 40.4491,184.5235 40.7186,184.4997 41.1469,184.4676 41.6355,184.4002 41.7192,184.3301 41.8202,184.2053 41.8821,184.0421 41.9196,183.9236 41.932,183.7497 41.8747,183.4974 41.8452,183.0709 41.8859,182.8539 41.8642,182.6532 41.727,182.3973 41.4043,181.6916 41.3715,181.4354 41.4114,181.1889 41.4151,180.9328 41.3497,180.5393 41.3349,180.4464 41.3686,180.3377 41.4243,180.24 41.5044,180.17 41.5676,180.1126 42.5173,179.6738 43.6036,179.2638 43.7145,179.1387 43.7761,179.004 43.8195,178.8579 43.9911,178.1478 44.198,177.7773 44.576,177.3006 44.9771,176.6967 45.1352,176.143 45.2201,175.5773 45.222,174.8442 45.2046,174.4529 45.26,174.1561 45.368,173.9585 45.3922,173.6872 45.3444,173.2012 45.0571,171.9465 45.0573,171.7676 45.1062,171.6616 45.1958,171.5659 45.3444,171.4478 45.6207,171.3667 46.0008,171.3343 47.3157,171.1499 47.4373,171.1044 47.5485,171.0491 47.6688,170.9639 47.764,170.8663 47.8577,170.73 47.8966,170.5498 47.9155,170.301 47.8753,170.0376 47.7985,169.8342 47.7218,169.6655 47.2883,168.9209 47.2254,168.7571 47.1674,168.4501 47.171,168.3641 47.2147,168.2728 47.3925,168.0589 47.5662,167.8751 47.644,167.8029 47.7251,167.7632 47.8176,167.7839 47.9044,167.8502 48.1169,168.0809 48.2749,168.2721 48.473,168.4639 48.5994,168.5545 48.728,168.6038 48.8636,168.6557 49.0164,168.6903 49.157,168.6867 49.259,168.6671 49.3428,168.6385 49.4563,168.6034 49.5863,168.5541 49.716,168.4731 49.8513,168.3171 49.9176,168.2209 49.969,168.0811 49.9918,167.8966 49.9774,167.7237 49.9503,167.624 49.9078,167.5331 49.8202,167.389 49.6978,167.2519 49.4403,167.0368 49.3379,166.9504 49.283,166.8905 49.2378,166.8054 49.2095,166.6848 49.2066,166.5406 49.2511,165.7024 49.2768,165.5389 49.3134,165.4772 49.3633,165.4333 49.4366,165.3808 49.559,165.2276 49.6908,165.016 50.1248,164.5031 50.8027,163.676 50.9829,163.3293 51.0524,163.1449 51.082,162.9923 51.0709,162.882 50.9928,162.8188 50.8539,162.7717 50.6313,162.7111 50.1861,162.4409 49.6518,161.8509 49.1565,161.2939 48.7391,160.8307 48.5652,160.6088 48.4219,160.3565 48.2883,159.7499 48.3112,159.5862 48.3415,159.4536 48.4219,159.3364 48.5127,159.2942 48.8337,159.2206 49.3513,159.1103 49.6304,159.0047 49.7621,158.9931 49.8501,159.0187 49.9285,159.0792 50.0191,159.2536 50.2194,159.6948 50.5044,160.1281 50.642,160.2693 50.7983,160.3376 50.9313,160.3943 51.0765,160.4227 51.263,160.3733 51.3937,160.2462 51.5106,160.0808 51.5996,159.8878 51.671,159.6673 51.6987,159.4268 51.6441,158.8125 51.5975,158.0483 51.5251,157.6413 51.358,157.2254 51.0352,156.8559 50.7426,156.4799 50.5311,155.6803 50.442,155.1012 50.4898,154.914 50.6146,154.7152 50.8928,153.9156 51.1433,153.1049 51.4326,152.3395 51.5552,152.1817 51.6998,152.0792 51.8662,151.9991 52.1505,151.9524 52.6458,151.8421 53.0224,151.7389 53.3304,151.7097 53.5478,151.7038 53.8001,151.7382 54.2653,151.7869 54.4808,151.7829 54.6215,151.7152 54.7367,151.6283 54.794,151.5057 54.8197,151.3852 54.7995,151.2299 54.6971,150.9178 54.5436,150.3365 54.5491,149.9339 54.509,149.4155 54.5491,148.9137 54.5658,148.489 54.3432,147.7941 54.2542,147.3695 54.2318,146.8731 54.26,146.5761 54.3432,146.272 54.4774,146.1301 54.627,146.0238 54.8073,145.9505 55.0166,145.919 55.3305,145.9298 55.6677,146.0018 56.2966,146.1231 56.6527,146.1176 57.5042,145.9742 58.5059,145.8915 58.645,145.8771 58.7464,145.823 59.0791,145.4502 59.1875,145.2376 59.2461,145.009 59.2786,144.8552 59.2738,144.7456 59.2513,144.5948 59.1868,144.5023 59.0914,144.4661 58.595,144.4575 58.2281,144.3885 57.9668,144.377 57.7633,144.368 57.6431,144.3388 57.4541,144.27 57.058,143.9571 56.5804,143.5365 56.4909,143.3507 56.4234,143.1396 56.4262,143.0375 56.4467,142.9297 56.5025,142.7754 56.5816,142.5904 56.7306,142.3783 57.168,141.9228 57.3463,141.8061 57.4617,141.7673 57.5877,141.744 57.7322,141.7946 57.9605,141.926 58.5393,142.1742 59.2071,142.5382 59.6579,142.6209 60.1643,142.8085 60.7153,143.189 61.1661,143.5793 61.357,143.6425 61.5278,143.6357 61.6559,143.6136 61.7625,143.5736 61.9686,143.4127 62.2513,143.0622 62.3261,142.8706 62.3681,142.6706 62.3294,142.5034 62.2457,142.3011 62.0899,142.0529 61.8227,141.5399 61.7713,141.4148 61.7804,141.2454 61.9229,140.9829 62.2501,140.5582 62.5026,140.2159 62.7354,140.0011 62.8967,139.8124 63.0538,139.7032 63.3216,139.6006 63.6393,139.5311 63.9898,139.4693 64.4161,139.411 65.035,139.4174 65.4588,139.4702 65.6684,139.4199 65.8512,139.3429 66.5587,138.9036 66.7437,138.7556 66.8703,138.6112 67.016,138.3956 67.0985,138.1534 67.0922,138.0219 67.054,137.8556 66.8369,137.5853 66.6706,137.3352 66.5475,137.0558 66.5921,136.6477 66.671,136.2275 66.7657,136.0508 66.8815,135.9449 66.9899,135.9002 67.1064,135.8614 67.2465,135.8321 67.4157,135.8259 67.9066,135.8644 68.252,135.8844 68.64,135.8645 69.3858,135.7707 69.7469,135.6894 70.078,135.5172 70.3092,135.3386 70.4877,135.1474 70.6057,134.9625 70.6936,134.7503 70.6936,134.2759 70.6824,133.7023 70.6824,133.2831 70.6824,132.7701 70.6157,132.2792 70.6501,131.678 70.7103,131.0436 70.8438,130.7899 70.9885,130.4534 71.0553,130.1114 71.033,129.8522 71.111,129.4771 71.3391,129.102 71.6786,128.8428 71.9409,128.7074 72.1628,128.6442 72.7582,128.6111 73.2758,128.5504 73.8991,128.5371 74.1217,128.5504 74.2691,128.5772 74.3971,128.6289 74.6337,128.7324 75.0177,129.0468 75.4573,129.4661 75.9081,129.8577 76.2031,129.9956 76.3732,130.035 76.5191,130.0166 76.6431,129.9825 76.7874,129.8853 77.1102,129.5985 77.5665,129.1572 77.906,128.749 78.3222,128.3508 78.802,127.9547 79.1637,127.5575 79.2425,127.3714 79.3808,127.21 79.5755,127.0445 79.9874,126.8073 80.5282,126.3407 81.2183,125.7704 81.8016,125.2241 82.4638,124.7111 82.7644,124.5291 83.293,124.3746 83.4565,124.2832 83.5657,124.154 83.6269,123.9002 83.6715,123.5361 83.7327,123.161 83.7494,122.7859 83.677,122.3336 83.7216,121.964 83.8162,121.6385 83.932,121.4821 84.1111,121.3351 84.4216,121.1906 84.7878,120.9667 85.1852,120.7062 85.6026,120.6235 86.2314,120.4745 86.7045,120.2704 87.4669,120.127 88.1124,120.1601 88.4074,120.0883 88.8359,120.0387 89.487,119.9449 89.8822,119.9803 90.3719,120.1237 90.7744,120.2675 90.9618,120.298 91.0969,120.3013 91.535,120.2814 92.3531,120.1932 92.8539,120.0939 93.3492,120.1545 93.7332,120.0552 94.2953,119.8677 94.824,119.5919 95.1913,119.476 95.4304,119.3921 95.5886,119.3083 95.7054,119.1854 95.8202,118.9905 95.9482,118.6595 96.1485,118.2899 96.2589,118.1995 96.4112,118.1467 96.6984,118.1554 97.1001,118.2623 97.5076,118.45 97.7165,118.444 97.896,118.4058 98.1464,118.3285 98.3465,118.2784 98.5148,118.2534 98.6502,118.2717 98.7954,118.3241 99.2316,118.5216 99.8271,118.7368 100.4837,119.0016 101.0403,119.1671 101.5022,119.2498 101.6572,119.2547 101.8071,119.2313 101.9472,119.1784 102.0597,119.0976 102.2868,118.8416 102.4928,118.5051 102.5929,118.2789 102.6375,117.9313 102.7655,117.5948 102.9714,117.3742 103.2496,117.2252 103.6114,117.0376 103.8896,116.7784 104.1066,116.5191 104.6497,116.216 105.0416,116.017 105.5146,115.8239 105.8566,115.6366 106.1491,115.4764 106.7557,115.0792 106.9059,114.9633 107.123,114.8861 107.3678,114.7426 107.7574,114.5165 108.2738,114.2551 108.4996,114.1944 108.7368,114.202 108.886,114.2848 109.0185,114.4405 109.2712,114.8166 109.7441,115.3771 110.0057,115.7633 110.3841,116.3811 110.6846,116.8666 110.7125,117.0873 110.6791,117.49 110.6457,117.981 110.6702,118.1713 110.7459,118.3727 110.8508,118.4868 111.013,118.5878 111.2056,118.6424 111.4304,118.654 111.6515,118.63 111.8978,118.5437 112.3931,118.2844 112.7637,117.9558 113.1778,117.3466 113.5062,116.7011 113.7844,116.1274 113.9681,115.8184 114.2018,115.6198 114.6136,115.2005 114.9865,114.7868 115.415,114.5109 116.0216,114.3896 116.2991,114.2889 116.5392,114.1699 116.8257,114.0773 117.0345,114.032 117.2617,114.0308 117.5353,114.0628 117.9109,114.0945 118.1252,114.0696 118.2617,114.0046 118.3924,113.8765 118.6929,113.6117 119.1715,113.231 119.7558,112.8834 120.1899,112.5745 120.4737,112.2104 120.6796,111.7911 120.8466,111.278 120.8967,111.0077 121.0469,110.627 121.1845,110.4675 121.3085,110.3622 121.3975,110.1911 121.5288,109.8965 121.6033,109.7692 121.7481,109.6284 122.2323,109.3194 122.8778,108.9829 123.2785,108.6298 123.5902,108.2546 124.1857,107.5208 124.4456,107.3002 124.6587,107.1732 125.1095,106.947 125.1818,106.7925 125.3154,106.5608 125.5102,106.3015 125.6725,106.1496 125.8107,106.0366 125.9928,105.9585 126.1847,105.9328 126.3742,105.9956 126.5731,106.1304 127.035,106.5498 127.3745,106.9911 127.5971,107.5594 127.7067,107.7324 127.8197,107.8408 127.9646,107.8999 128.1258,107.9236 128.3692,107.9136 128.6211,107.9236 129.1108,108.0394 129.3738,108.1004 129.6178,108.1198 129.8317,108.1242 130.068,108.078 130.4203,107.9215 130.817,107.6092 131.2494,107.1098 131.6657,106.8561 132.0987,106.5504 132.5556,106.2518 133.2969,106.0058 133.9797,105.7874 134.7333,105.608 135.5441,105.369 135.6966,105.3633 135.8168,105.3856 135.9482,105.4379 136.0377,105.5217 136.1557,105.7126 136.2922,105.8103 136.4067,105.827 136.4703,105.8331 136.5313,105.8101 136.57,105.7833 136.5903,105.7442 136.5959,105.6118 136.557,105.3746 136.6237,105.2256 136.71,105.0982 136.7895,105.0111 136.8639,104.9443 136.9829,104.8938 137.2192,104.8283 137.7312,104.7566 138.0651,104.5469 138.7574,104.2954 139.5566,104.0449 139.9461,103.9897 140.4525,104.0283 140.9868,103.9842 141.1661,103.907 141.3207,103.7966 141.9217,103.5428 142.2153,103.5081 142.3614,103.5152 142.6095,103.605 142.83,103.6741 143.185,103.7028 143.7471,103.6862 144.3927,103.7304 145.144,103.8848 145.3022,103.8859 145.6,103.8775 145.8522,103.9391 145.9359,103.9538 146.0034,103.9942 146.0515,104.0456 146.1791,104.249 146.3185,104.3751 146.4685,104.4719 146.5678,104.5087 146.8525,104.569 147.6984,104.6959 148.4218,104.8394 148.7502,104.9608 149.123,105.2477 149.7128,105.7722 150.0486,105.989 150.1203,106.0199 150.2049,106.0258 150.2999,106.0079 150.3807,105.9704 150.6701,105.8104 151.3775,105.3922 152.2684,104.8698 153.0127,104.4027 153.2802,104.2821 153.8907,103.9766 154.3894,103.7114 154.7165,103.5766 155.5563,103.1896 156.3521,102.7924 156.6867,102.5865 156.7473,102.5275 156.8047,102.4398 156.8471,102.3359 156.9587,102.1965 157.5987,102.0144 158.6895,101.8544 158.7489,101.8502 158.8157,101.8702 159.413,102.1192 160.0151,102.3862 160.1267,102.4171 160.2439,102.4246 160.3232,102.4129 160.4036,102.3975 160.6032,102.3013 160.7653,102.191 161.0602,101.8875 161.4926,101.4126 162.0954,100.8778 162.4544,100.5039 162.6797,100.1219 163.0804,99.5425 163.2673,99.3596 163.4366,99.2445 163.8539,99.0073 164.3771,98.7204 164.5132,98.6892 164.6392,98.6845 164.7611,98.6928 167.314,111.8289" stroke="black" /><polygon fill="none" points="333.5744,100.0652 328.4685,97.1322 322.9203,93.9425 322.9019,93.9319 312.1538,87.8764 308.9451,86.0469 308.7014,85.9079 308.339,84.8978 308.4943,83.2138 307.9163,81.8623 307.8758,79.4678 308.0325,78.6124 307.9989,77.9096 307.6683,75.7657 307.821,75.0575 307.7974,74.573 307.4985,73.1424 307.6716,72.7704 307.7072,72.2306 307.9805,71.646 307.9979,71.0512 308.2072,70.5996 308.1882,70.1835 308.3427,69.7054 308.204,68.2633 307.7723,66.7838 307.7814,66.1108 308.3361,65.0487 308.2708,64.0294 308.571,63.5245 308.9086,63.1256 309.3008,62.8595 309.9641,61.912 309.9303,61.7999 310.2927,60.6536 310.4021,60.4144 310.8674,60.0155 311.068,59.7045 311.2964,58.9226 311.959,57.5006 311.9647,57.1927 312.0824,57.0926 321.4273,49.144 328.5879,44.5289 330.6153,51.4747 333.8019,55.465 333.0869,56.3018 346.8429,83.5117 347.1827,84.301 347.2774,84.5208 347.3027,84.5796 358.5932,110.7873 361.1384,103.1368 379.2368,87.0821 379.6498,86.7156 380.9127,85.5955 410.0228,75.5073 410.1615,75.4592 427.336,69.5059 438.3269,72.463 459.2666,63.6859 459.5708,64.806 465.946,88.2606 448.2999,106.773 448.1822,107.2878 445.2999,119.9159 443.1482,118.7258 430.3614,111.6511 429.6968,110.6618 429.5856,110.2881 429.5436,110.0211 429.7207,109.2058 429.8302,108.9114 429.9536,108.6976 430.1323,108.5633 430.3249,108.3092 430.4203,107.935 430.3639,107.5478 430.5279,106.973 430.7613,106.5983 430.7879,106.1843 430.4967,105.5838 430.4404,105.183 430.4672,104.8895 430.3147,104.5692 430.2999,104.1949 430.2437,103.8483 430.1192,103.6349 430.2009,103.2474 429.8974,103.0073 429.7582,102.6875 429.496,102.5813 429.3979,102.301 429.398,102.0472 429.5067,101.553 429.4665,100.7086 428.9592,100.5913 428.8566,100.6576 428.8228,100.7405 428.9091,101.1374 428.8247,101.419 428.6362,101.4547 428.3997,102.0316 428.2454,102.0156 428.2114,101.9663 428.109,101.9662 427.9555,102.0492 427.9036,101.8676 427.8354,101.785 427.6478,101.8683 427.5617,101.7859 427.4428,101.7856 427.3066,101.886 427.2727,102.0183 427.1528,102.0186 427.0682,102.1676 426.9661,102.2342 426.7089,102.2522 426.2175,102.6981 425.8752,102.783 425.7901,103.0476 425.6432,103.3135 425.5003,103.2845 425.4285,103.3312 425.4293,103.5048 425.2856,103.575 425.1428,103.7257 425.0701,103.6915 425.0233,103.7784 425.0835,103.9346 425.0716,104.0448 424.779,104.3063 424.7501,104.4457 424.8579,104.5784 424.7981,104.6712 424.6726,104.6252 424.6305,104.5383 424.5286,104.481 424.4691,104.5328 424.4812,104.7243 424.4457,104.7997 424.344,104.7538 424.2899,104.6728 424.2187,104.7191 424.1948,104.87 424.0634,105.0499 424.1242,105.3507 423.9927,105.3685 423.7594,105.3061 423.634,105.3925 423.4728,105.5962 423.3536,105.6775 423.162,105.5972 423.0784,105.6435 422.989,105.8119 422.8036,105.8005 422.7014,105.7138 422.5822,105.7433 422.427,105.8422 422.3792,105.9234 422.4576,106.1957 422.4041,106.3174 422.2609,106.3815 422.0573,106.3533 421.8177,106.2437 421.6566,106.2904 421.5987,106.3745 415.0501,102.3936 414.5422,103.0405 414.3126,103.3059 414.0828,103.5247 413.8051,103.707 413.5559,103.8391 412.6352,104.3243 412.2559,104.5199 411.8446,104.7447 411.6077,104.9375 410.9298,105.5777 410.7685,105.7484 410.654,105.8916 410.2387,106.5542 409.8041,107.2738 409.3456,108.0118 409.262,108.1303 408.9435,108.471 408.5536,108.8412 408.4372,109.0232 408.3554,109.2036 408.2791,109.504 408.1964,109.8263 408.1201,110.0035 408.0203,110.176 407.7812,110.432 406.9566,111.3272 406.8509,111.4832 406.7252,111.7212 406.0361,113.1672 405.7958,113.7155 405.6366,113.9963 405.5154,114.1745 404.4451,115.5421 404.1205,115.9555 403.921,116.1436 403.5223,116.4546 403.11,116.7762 402.8137,116.9873 402.562,117.0889 401.9301,117.2224 401.7716,117.2844 401.6213,117.3791 401.4393,117.5566 401.1732,117.9285 401.055,118.0602 400.8965,118.1889 400.6035,118.3613 400.3229,118.5347 400.1842,118.682 400.0956,118.8296 400.0457,118.9652 399.9892,119.3344 399.8357,120.2412 399.7168,120.956 399.7079,121.0403 399.7213,121.3015 399.7478,121.5564 399.7389,121.6705 399.7033,121.8375 399.5762,122.194 399.4735,122.3753 399.3571,122.5022 399.1164,122.6618 398.8719,122.8129 398.52,123.052 398.3843,123.1846 398.2856,123.3028 398.2114,123.4083 397.8528,124.1226 397.6096,124.6212 397.4727,124.933 397.4055,125.1898 397.2814,125.7863 397.1857,126.2594 397.1859,126.4141 397.0069,126.3396 396.8467,126.2997 396.7019,126.3095 396.5875,126.3027 396.4342,126.2562 396.3158,126.1922 395.9682,125.849 395.3445,125.2387 395.1493,125.0982 394.9245,124.9829 394.6224,124.9007 393.6391,124.618 393.2189,124.5057 392.9471,124.3661 392.8129,124.2741 392.2828,124.301 392.092,124.3078 387.3311,124.477 389.9847,157.3402 390.3098,161.3675 394.8928,217.6281 366.6292,223.5784 366.0628,228.1107 366.0582,228.147 366.0513,228.2029 362.6262,255.6727 359.6613,279.4513 349.8292,280.3348 349.791,280.3382 349.7894,280.3383 306.5998,284.2086 317.1904,247.1612 328.6844,205.5822 329.2276,203.6171 329.6032,202.2585 341.887,161.1418 356.2148,113.2572 356.2754,113.0713 344.9581,106.5581 333.8779,100.2407 333.5744,100.0652" stroke="black" /><polygon fill="none" points="259.9583,42.4427 260.1141,41.8575 260.2647,41.5003 260.4257,41.2171 260.6876,40.9936 260.96,40.8417 261.1166,40.8067 261.8504,40.6429 262.3212,40.627 262.8187,40.665 263.5422,40.5987 263.954,40.5215 264.6552,40.4994 265.5123,40.665 266.0198,40.8045 266.3025,40.8683 266.6473,40.9256 266.986,40.9389 267.3113,40.9026 267.5491,40.8085 267.8083,40.7032 268.1056,40.5325 268.5508,40.2233 269.0832,39.9564 269.5816,39.6933 270.0325,39.298 270.3873,38.9314 270.7769,38.1364 271.1887,37.0874 271.4802,35.8704 271.7139,34.7906 272.068,33.7746 272.4798,33.2115 273.4593,32.2839 274.116,31.6655 274.4826,31.4552 274.9329,31.2632 275.6074,31.1354 276.5535,30.9698 277.1526,30.7537 277.5664,30.5722 277.7732,30.3975 278.0004,30.0974 278.6683,29.225 280.1263,27.9109 281.3618,27.0384 282.5082,26.5084 283.3652,25.9562 283.944,25.5918 284.3108,25.4527 284.6229,25.393 284.9627,25.3586 285.3353,25.404 285.9029,25.5145 286.1814,25.5421 286.3927,25.5365 286.7188,25.4798 286.9925,25.3898 287.312,25.2538 289.3978,24.4432 291.1119,23.6481 292.147,23.0075 292.9039,22.4001 293.3825,21.605 294.1505,20.7104 294.7515,20.2797 295.987,19.5287 297.2002,18.7225 298.9142,18.0267 300.2832,17.1984 301.2627,16.6682 302.2088,16.3811 302.9434,16.3038 303.8227,16.4584 304.7418,16.7874 305.1917,16.856 306.1594,16.859 306.4939,16.8008 306.759,16.7101 307.0058,16.5775 307.5736,16.2596 308.4751,15.5307 309.7106,15.2214 311.1353,15.0557 311.881,14.8238 312.5265,14.2937 312.8541,14.0723 313.2166,13.9071 313.471,13.8659 313.7509,13.9181 314.6302,14.2164 315.5874,14.7134 316.7449,15.5307 317.9247,16.1492 316.8951,16.8787 316.2492,17.8736 315.9267,18.5987 315.766,19.3443 315.918,21.8353 315.744,22.6726 315.1948,24.3965 314.8305,25.1195 314.2922,25.879 314.7795,27.1465 315.3057,27.5606 315.2799,27.9402 314.4359,28.9673 314.2303,29.7724 314.0555,29.982 314.0018,30.3352 314.1506,30.7276 314.1786,31.19 314.5841,31.778 314.584,32.0539 313.8707,33.1263 313.8853,33.6231 313.6836,34.1467 313.6173,35.1275 313.282,35.9909 313.3497,36.5524 312.9326,37.1685 311.2899,38.9889 311.0745,39.3946 310.1714,39.8013 309.2552,40.6265 309.0929,41.0084 309.0938,41.0092 309.0967,41.0111 321.4273,49.144 312.0824,57.0926 311.9647,57.1927 311.959,57.5006 311.2964,58.9226 311.068,59.7045 310.8674,60.0155 310.4021,60.4144 310.2927,60.6536 309.9303,61.7999 309.9641,61.912 309.3008,62.8595 308.9086,63.1256 308.571,63.5245 308.2708,64.0294 308.3361,65.0487 307.7814,66.1108 307.7723,66.7838 308.204,68.2633 308.3427,69.7054 308.1882,70.1835 308.2072,70.5996 307.9979,71.0512 307.9805,71.646 307.7072,72.2306 307.6716,72.7704 307.4985,73.1424 307.7974,74.573 307.821,75.0575 307.6683,75.7657 307.9989,77.9096 308.0325,78.6124 307.8758,79.4678 307.9163,81.8623 308.4943,83.2138 308.339,84.8978 308.7014,85.9079 308.9451,86.0469 312.1538,87.8764 322.9019,93.9319 322.9203,93.9425 328.4685,97.1322 333.5744,100.0652 333.8779,100.2407 344.9581,106.5581 356.2754,113.0713 356.2148,113.2572 341.887,161.1418 329.6032,202.2585 329.2276,203.6171 328.6844,205.5822 317.1904,247.1612 306.5998,284.2086 301.8425,300.3083 297.9846,315.1266 296.5246,320.7364 296.517,320.7656 296.1687,322.104 267.3669,309.0644 266.2737,308.5679 197.1075,277.1585 196.3169,276.7968 194.8473,268.7648 194.8318,268.6799 180.0034,187.3037 178.8289,180.3419 169.3769,124.1436 167.4588,112.6932 167.314,111.8289 164.7611,98.6928 165.5247,98.9503 165.6348,98.9742 165.7538,98.9737 166.244,98.9113 166.336,98.919 166.4198,98.9328 166.4825,98.9808 166.8202,99.1232 167.047,99.1677 167.252,99.1712 167.9944,99.1838 168.6956,99.1121 169.0457,99.0647 169.1184,99.054 169.1754,99.0382 169.2197,99.0213 169.2595,98.9934 169.3047,98.9485 169.3372,98.9076 169.4796,98.6542 169.8213,98.2384 170.7402,97.6756 171.0059,97.5243 171.1397,97.4547 171.2836,97.3887 171.385,97.3599 171.4902,97.3291 171.6613,97.307 171.8498,97.2968 172.2406,97.2968 173.254,97.2484 173.3788,97.2291 173.484,97.1946 173.6204,97.1559 173.766,97.0625 174.5707,96.69 175.583,96.1489 175.6622,96.1025 175.7429,96.0848 175.8104,96.0805 175.8758,96.0945 175.924,96.1134 176.4324,96.4393 176.5488,96.5012 176.6327,96.5412 176.7362,96.5649 177.1435,96.6236 177.3665,96.6614 177.5208,96.6724 177.6367,96.6639 177.7383,96.6347 177.873,96.5658 178.5448,96.3039 178.7008,96.1797 178.8564,96.0227 178.9159,95.9079 178.9564,95.7806 178.9748,95.6662 178.9915,95.5091 178.9409,94.7812 179.0356,94.306 179.1414,93.7708 179.2296,93.4386 179.3417,93.1859 179.8426,92.1154 180.1431,91.7291 180.2342,91.673 180.3322,91.635 180.605,91.5636 180.739,91.4952 180.8332,91.398 180.9462,90.9952 181.206,90.5593 181.3159,90.4499 181.4429,90.3513 181.6791,90.2116 182.1031,89.9579 182.1772,89.9001 182.2204,89.837 182.2872,89.725 182.4898,89.0412 182.6429,88.5842 182.7839,88.2773 182.9201,87.9601 183.2067,87.2561 183.3907,86.8985 183.5446,86.6715 184.0387,86.0894 184.0983,86.0267 184.1684,85.9699 184.2487,85.9297 184.3425,85.8995 184.4663,85.8799 184.9848,85.8355 185.5528,85.8315 186.0723,85.8718 186.5785,85.9745 187.1385,85.9707 187.5182,86.0112 187.5865,86.0315 187.6572,86.078 187.9304,86.3503 188.0765,86.4539 188.2018,86.511 188.2908,86.5333 188.3699,86.5239 188.4421,86.5075 188.5715,86.4509 189.5899,85.9763 190.1354,85.8153 190.7196,85.6838 190.9127,85.6037 191.0981,85.4906 191.4932,85.1595 191.6099,84.9858 191.6907,84.7925 191.8611,84.0542 191.9729,83.6309 192.6232,82.807 192.9195,82.6159 193.0776,82.5536 193.4299,82.5031 193.6052,82.4168 193.7176,82.3308 194.2907,81.7899 194.7895,81.2071 195.0284,80.9152 195.1022,80.7281 195.1222,80.4797 195.1022,80.3197 195.0442,80.2037 194.9018,80.0106 194.7195,79.6793 194.6931,79.5539 194.7015,79.3815 194.7754,79.2338 194.9015,79.1057 195.4695,78.5868 195.5474,78.4212 195.7365,77.9422 195.8968,77.408 196.0357,77.1786 196.2597,76.9973 196.5169,76.9168 196.8028,76.8788 197.1835,76.8869 197.708,76.9158 198.0962,76.8428 199.3762,76.4233 200.2845,76.0125 201.2016,75.5293 202.2832,74.686 202.3455,74.5631 202.3257,74.3703 202.437,73.3989 202.6485,72.869 202.9156,71.9087 202.9948,71.5782 203.0269,71.4672 203.114,71.3866 203.2181,71.331 203.3931,71.286 203.572,71.3055 203.8283,71.3789 204.5518,71.6769 205.3142,72.0597 205.9319,72.4165 206.7177,72.697 206.8951,72.684 207.0461,72.6917 207.3928,72.767 207.685,72.8713 208.4641,73.2554 208.8562,73.4732 209.3489,73.6086 210.1566,73.8482 210.2474,73.902 210.3345,73.9932 210.551,74.3261 211.0741,75.0546 211.2111,75.2023 211.2922,75.2875 211.3837,75.3277 211.4525,75.3453 211.5166,75.3331 211.5785,75.3102 211.7174,75.2368 212.0202,74.9884 212.4543,74.6683 213.2245,74.279 213.3253,74.2471 213.4452,74.248 214.1795,74.3923 214.3766,74.3884 214.491,74.3598 214.5848,74.3035 214.6789,74.2616 214.8028,74.2488 215.6932,73.8515 217.0378,72.8966 217.7733,72.2633 218.123,72.0282 219.2649,71.5092 219.42,71.4601 219.5781,71.4271 219.748,71.4295 219.8879,71.455 220.0529,71.4803 220.1913,71.5155 220.2805,71.5769 220.3668,71.6538 220.4209,71.7609 220.4476,71.8598 220.4903,72.284 220.723,72.9055 221.0888,73.6789 221.2583,74.1385 221.392,74.6296 221.4698,75.0767 221.469,75.4022 221.5112,75.689 221.6224,76.0547 221.7024,76.2144 221.8046,76.3787 222.1131,76.7897 222.4715,77.4168 222.8189,78.0238 222.9365,78.1363 223.1049,78.237 223.3067,78.2849 223.5178,78.2777 224.0854,78.5647 224.9246,79.1241 225.3014,79.3087 225.7438,79.4367 227.0851,79.7864 227.2263,79.8245 227.3682,79.8254 227.4923,79.7927 227.5971,79.725 227.9476,79.2932 228.5964,78.6145 228.7571,78.5129 228.8792,78.4995 228.9896,78.5619 229.0586,78.6371 229.1497,78.8296 229.3325,79.1684 229.4386,79.2199 229.5764,79.2658 229.7048,79.2859 230.3629,79.2049 231.0307,79.2711 231.6715,79.2911 231.9474,79.2749 232.1326,79.2049 232.3412,79.079 232.4999,78.9179 232.7024,78.4909 232.9562,77.9576 233.1788,77.5492 233.3123,77.207 233.3602,76.7909 233.3903,76.1253 233.5795,75.0546 233.6416,74.9307 233.7372,74.832 233.9557,74.6431 234.1175,74.4521 234.2086,74.2412 234.3586,73.719 234.3586,73.3879 234.2784,72.964 234.3377,72.6229 234.5256,72.1405 234.6146,71.2022 234.6677,70.9579 234.7759,70.7707 234.9234,70.5861 235.1712,70.3743 235.8167,69.9328 236.2772,69.5721 236.3918,69.4605 236.5847,69.0276 236.7064,68.4902 236.8235,67.7597 236.9965,67.2614 237.2525,66.6101 237.464,65.8926 237.6532,65.451 238.0094,64.9211 238.2431,64.601 238.5179,64.294 238.7996,64.0821 239.0538,63.958 239.3561,63.8724 239.9895,63.7574 240.5137,63.6847 241.3707,63.4308 242.0942,63.3204 242.4156,63.2365 242.6618,63.1217 242.8852,62.9503 243.0736,62.7353 243.1657,62.5395 243.2295,62.2827 243.2672,61.6103 243.3157,61.1627 243.3794,61.062 243.4803,60.9854 243.619,60.8917 243.8493,60.816 244.1155,60.768 244.4713,60.7368 244.7988,60.6378 245.0224,60.5162 245.244,60.3176 245.8117,59.7656 245.9459,59.664 246.0774,59.6096 246.2418,59.5909 246.4016,59.589 247.3388,59.6473 247.9877,59.7551 248.3605,59.6663 248.917,59.4345 249.2509,58.9929 249.7051,58.3459 250.1034,57.5643 250.2904,57.0277 250.4196,56.6524 250.5198,56.1776 250.9849,55.4823 251.4213,54.7976 251.7775,54.3008 252.1782,53.7488 252.6679,53.0311 253.102,52.6558 253.485,52.4018 253.6381,52.2587 253.6697,52.0265 253.6474,51.64 253.5695,51.0328 253.6474,50.4255 253.8811,49.9839 254.2484,49.6968 254.7382,49.3656 255.3281,48.8577 255.8735,48.5596 256.6971,48.2174 257.1534,47.842 257.5653,47.4666 257.9882,46.8814 258.5581,46.2608 258.9587,45.7135 259.0678,45.2252 259.168,44.7504 259.2014,44.3088 259.4194,43.759 259.68,43.315 259.8804,42.8623 259.9583,42.4427" stroke="black" /></svg>