<?xml version="1.0" encoding="utf-8" ?>
<svg baseProfile="tiny" height="500" version="1.2" width="489.7324" xmlns="http://www.w3.org/2000/svg" xmlns:ev="http://www.w3.org/2001/xml-events" xmlns:xlink="http://www.w3.org/1999/xlink"><defs /><polygon fill="none" points="282.2981,317.4802 281.9862,318.147 281.1259,318.5381 279.3332,315.8638 278.3275,312.6541 275.9956,301.9452 281.0801,304.1147 284.08,292.3454 286.7154,279.3824 286.7663,279.1324 288.4503,270.8543 288.6467,264.9045 284.4985,255.6856 284.6668,255.3593 285.9922,254.2979 286.0663,253.7211 285.8837,253.3354 285.8253,252.8616 285.91,252.6154 286.0992,252.4076 286.1733,251.8223 285.9862,251.4462 286.0531,250.8965 286.3868,250.6494 287.5011,250.1309 287.969,249.9553 288.6977,249.7908 289.4613,249.2922 289.6575,248.8975 284.0494,242.9614 283.8288,242.7279 284.5223,241.2434 286.0323,240.3789 286.927,239.0263 287.4866,238.8387 288.0475,237.6686 289.1825,236.656 289.8872,235.4488 298.4987,235.1339 298.7491,232.9044 298.9045,232.6819 299.6259,232.5528 299.5971,231.2543 299.7159,230.8739 299.8386,230.6168 300.7297,229.6537 300.9739,226.2361 301.1426,225.7939 301.8223,225.7708 302.8589,225.3365 303.691,224.752 304.2251,224.6629 304.8504,225.2131 305.0927,225.6399 305.1374,225.7188 305.4169,225.7557 305.7887,225.6343 306.2793,225.031 306.5318,224.7204 307.6329,224.1036 307.9562,224.0974 308.9095,224.8686 309.8081,224.5184 309.9505,224.0969 310.3148,223.7986 310.588,223.8357 310.7481,223.7909 311.4473,223.2484 312.0194,223.0154 313.4323,223.6052 314.3411,223.0789 315.0698,223.6624 315.1668,224.4881 315.5518,225.1382 316.4285,225.1757 319.425,226.4008 320.1357,226.1769 320.2371,225.8624 320.5437,225.623 320.9743,225.6928 321.1963,225.4561 321.456,224.7052 322.1707,224.5858 322.1892,224.1092 322.2522,224.0214 322.4512,223.9519 323.5216,224.4159 325.9089,223.3217 326.1403,223.2663 328.2537,223.5974 331.2696,222.5599 331.8266,222.5134 332.2186,222.8109 332.7036,223.5293 332.732,223.6615 332.4433,225.1147 332.7619,225.7423 332.8021,227.1253 333.2194,227.8828 333.5324,229.1253 333.621,229.261 333.9804,229.4778 334.6384,229.3036 335.5287,229.7281 336.074,230.14 336.4057,231.1795 336.9182,231.7625 337.7095,232.1457 338.343,232.056 341.9356,231.0045 342.0602,231.0516 345.2512,230.175 345.5579,231.4867 346.6376,233.5767 347.8157,233.686 349.6373,234.6993 349.8429,234.9572 349.8985,235.2041 349.3,236.0577 349.2317,236.4827 349.6437,237.2237 353.103,237.7822 355.0411,238.5335 355.0226,239.0251 355.3784,239.2062 356.2753,238.9732 356.5337,239.1004 356.5996,239.4121 357.3311,239.5157 357.5371,239.741 357.4091,240.0539 357.5496,240.2793 357.7647,240.2892 357.8857,240.7517 358.2271,240.9743 358.5167,241.6613 358.601,243.1752 358.9692,243.9796 359.2831,245.4061 359.5201,245.7278 360.1769,245.8639 360.3064,246.0244 359.9699,246.3007 360.1853,246.4934 361.2715,246.7139 361.8805,248.2387 361.7756,248.7121 361.8901,250.2397 363.6252,251.2998 363.929,251.9866 363.1392,253.303 362.8126,254.4805 362.8129,255.7332 362.8129,258.7782 363.5629,259.1885 364.7626,259.5358 365.6154,260.7989 366.0888,263.0705 366.7318,263.1414 367.7943,262.9571 371.9686,264.3985 375.645,265.1334 377.9183,266.6598 378.9065,266.9133 380.2879,268.1528 380.8709,268.3341 380.7077,269.7551 379.6609,273.6435 378.4021,276.5035 375.3171,280.6224 374.3888,282.8836 372.5946,287.8865 371.333,290.4358 370.5387,293.8288 370.6935,297.1165 371.0986,299.1104 370.5957,301.5058 371.0137,303.4106 371.6112,304.4013 368.3079,305.1343 366.5537,305.8332 365.7684,305.7498 364.8298,306.2901 364.6103,306.0954 363.5194,305.8073 363.1792,305.8383 362.9501,306.2447 362.5842,306.2635 361.7595,305.4361 360.7856,305.1875 359.7958,303.9726 359.5148,303.9973 359.0596,304.5204 356.2099,303.9311 354.1454,303.3197 352.1013,301.9759 351.5769,301.9242 350.9777,302.4722 349.4098,305.4724 348.7452,306.2962 347.5409,306.8049 345.8214,306.8009 344.8515,307.9153 339.1781,311.9231 333.6963,316.8249 334.2628,317.9942 334.7576,318.496 334.7129,318.9415 333.2427,320.0616 332.2649,321.2385 331.7084,322.6832 330.8453,323.1322 329.5104,323.3497 327.167,326.0591 325.0326,325.2212 323.8745,327.6505 321.0185,333.6636 318.2289,337.1474 314.457,342.3557 312.7366,343.2782 313.0365,332.3957 306.787,334.9421 303.5024,327.2908 303.0074,327.7345 302.6046,326.98 301.9309,326.8424 301.8555,326.6196 301.4813,326.2761 300.8075,326.6322 300.27,326.78 300.0475,326.7809 297.7065,325.2574 296.2417,323.8509 295.4761,323.3698 294.3676,323.3517 293.6747,322.583 293.2774,322.629 292.8349,322.3997 292.306,322.2822 291.6859,322.3597 291.182,322.1942 290.5958,322.1741 290.15,321.4346 289.076,320.8697 288.817,320.2516 288.7947,319.9664 288.4088,319.4987 288.213,318.9495 287.6708,318.9117 287.5219,318.9869 287.362,319.3453 287.0576,319.5944 286.4436,319.5264 286.158,319.1506 285.77,317.6627 285.2896,317.516 285.0181,318.5188 284.7894,318.6535 284.0099,317.6062 282.4255,317.4357 282.2981,317.4802" stroke="black" /><polygon fill="none" points="379.584,101.931 392.2813,89.6642 407.6413,83.5698 408.264,83.275 408.6745,82.9144 409.269,82.1198 409.7737,81.1671 409.9463,81.0128 411.0197,81.1509 411.0911,81.0252 411.0737,80.1427 411.3281,79.3298 411.9354,78.3264 412.049,77.9338 412.0732,76.9262 412.5908,75.7955 415.664,63.1891 418.4781,63.4334 418.7304,63.5173 419.2456,63.6887 420.2522,63.7414 420.9826,63.651 421.8726,63.3534 422.7783,62.8462 425.5751,60.8152 425.9129,60.6577 426.1979,60.6565 426.8402,60.7749 427.2327,60.9283 427.6081,61.239 427.8146,61.5238 428.086,62.5795 428.0719,63.307 428.1626,63.5832 428.4685,64.2051 429.2502,65.368 430.0661,66.4337 430.8262,67.1866 431.079,67.3086 431.4393,67.7566 431.7561,68.0005 432.2519,68.233 432.6318,68.5176 432.8438,68.8647 433.7723,69.4946 434.2784,69.6767 434.6363,69.7361 435.0357,69.7136 435.7591,69.1477 436.116,68.9413 437.3769,68.5875 437.8814,68.5038 438.7422,68.1926 440.414,67.9291 443.0667,68.2237 443.6878,68.2304 444.2969,68.1456 445.3494,68.1612 446.3385,68.279 447.2238,68.5406 447.8664,68.7938 448.4371,69.343 448.6087,69.9355 448.6313,70.4054 448.5511,71.1431 448.3447,71.9615 447.8146,73.4266 447.2821,74.5798 447.0473,75.3772 446.9657,76.009 447.292,77.3479 447.2758,77.8206 447.4116,78.6901 447.3384,79.0823 447.1895,79.4227 446.8136,79.8771 446.3076,80.3331 445.482,81.2811 445.302,81.6275 445.2597,81.9426 445.3102,82.2005 432.2996,77.6323 431.6449,83.8219 435.765,106.1182 432.9042,106.4089 432.1,109.4674 430.6421,111.3227 429.3382,112.9821 424.365,114.2146 424.3574,114.2934 424.1952,115.967 424.1651,116.2772 424.0738,117.2195 423.4914,123.2273 417.2879,126.435 410.4107,124.679 402.4908,122.656 403.9996,132.5537 404.2078,133.9194 404.228,134.0514 404.2634,134.2841 402.7716,134.4997 393.9696,135.7719 391.4807,135.8411 385.1131,136.0183 384.1953,136.0438 374.1064,136.324 368.401,138.4602 364.1407,140.0553 366.8823,114.2061 371.4174,109.8224 379.584,101.931" stroke="black" /><polygon fill="none" points="130.1323,361.7136 129.8719,361.4561 127.732,360.6178 126.4873,360.4105 125.635,359.336 124.9048,358.7318 124.056,358.8255 123.2357,358.3583 121.5985,358.5773 121.2635,358.2744 121.5056,357.9699 121.4125,357.4548 120.6838,357.2132 120.3476,356.7148 119.1362,356.9678 118.5457,356.6566 118.2261,356.7057 103.4761,358.9662 98.7052,339.6156 98.6118,339.5161 98.6381,339.433 98.7737,339.0018 99.0996,338.6255 100.7686,337.6677 102.0255,337.5026 102.4914,336.6309 104.0386,335.5266 104.6988,333.0551 104.1209,332.2666 104.1468,331.9984 104.9736,331.2855 105.4576,329.117 105.9106,328.1208 106.2483,324.8209 106.1669,324.5903 105.4972,324.258 105.3092,323.9906 105.3861,323.1066 106.1606,322.7555 106.7197,321.941 108.6293,320.4661 110.7515,318.1784 110.8989,317.5673 110.6554,316.7377 109.7425,315.7764 109.6731,315.0305 108.3524,312.3454 108.6416,310.9648 108.5683,309.113 108.7369,307.4183 109.5406,304.1983 109.2146,302.7645 108.6634,301.7983 108.5529,300.9668 108.2051,300.7536 108.352,300.6115 110.7893,298.2543 112.3298,294.9789 112.5531,294.1655 112.4261,291.7637 113.1458,291.0381 114.2134,289.5036 115.0904,288.7529 115.8139,288.2747 117.092,287.8928 118.3777,287.9119 119.5031,288.1447 123.2829,290.2521 124.0137,290.3753 125.1825,290.9147 127.3419,291.0371 128.9466,291.872 130.954,291.9462 133.7755,292.4338 134.046,289.4026 133.6094,284.4652 148.702,280.4438 149.3918,279.8418 149.5426,278.6419 150.8143,278.2702 151.4978,277.411 152.0178,277.1823 152.6883,277.4424 153.2791,277.2294 153.8701,276.8532 154.479,275.9728 154.9653,275.6408 156.7136,274.9195 156.6877,275.4189 157.0857,275.5519 157.5104,275.4647 158.7205,274.5111 159.113,274.5311 159.8394,275.0121 160.0103,270.677 159.0547,267.4831 158.8896,266.9308 156.8465,260.099 156.5134,258.0106 156.6039,255.8152 159.0306,237.6429 159.0008,237.0984 156.8654,232.4231 156.7053,231.7617 156.8883,231.0839 168.5713,211.4224 169.4046,210.0201 169.703,209.3891 170.5523,205.1866 170.7808,205.2342 175.3536,206.1883 181.8519,204.7595 187.1016,204.3225 191.8788,200.9516 193.157,199.5498 194.2719,197.9167 195.4445,197.2179 196.0868,196.588 197.1628,194.8063 198.5449,192.986 199.5589,192.5168 200.7073,192.2889 204.2087,192.4721 204.8966,192.3065 206.9011,193.5953 207.6496,194.1836 211.1287,197.1713 212.3239,198.441 214.7642,200.5168 216.7022,202.0152 217.9101,204.012 218.1516,204.8949 218.2835,205.8391 218.2048,208.7305 217.8197,211.0261 218.2198,211.0258 226.717,211.0204 229.3327,211.0188 228.9824,211.2027 227.8448,211.7345 223.4484,212.6808 222.8933,213.2056 222.1809,214.6227 221.982,215.4297 221.9526,217.1783 221.9007,217.5711 221.4804,219.4241 220.2303,222.1221 219.4267,222.6632 218.0712,223.1586 217.2042,223.7347 215.7857,225.1804 215.4984,226.6164 215.6203,227.2135 216.8868,229.1547 217.1063,229.6343 217.9543,232.5691 218.4076,233.3137 220.1026,234.7333 220.4616,235.5256 220.505,236.7515 222.4263,237.7502 223.8408,240.4714 224.4783,240.6759 224.9811,240.52 226.0176,241.2616 226.3384,241.9301 226.7203,244.8472 226.5396,246.1629 226.1195,247.2217 225.0793,248.7598 224.9616,249.7871 225.2049,250.3921 226.0753,250.9654 232.4806,251.4018 237.5273,265.7095 242.3889,269.2402 237.263,280.635 237.2175,280.8522 225.2856,292.2174 212.989,302.9057 204.7371,309.2141 203.508,314.5873 202.7982,316.3227 207.2067,320.8571 207.2124,321.1023 207.3557,327.4309 207.3726,328.181 211.5128,336.2523 207.2054,339.7698 207.9243,340.2127 208.7236,339.9412 210.263,340.0751 212.2473,341.3005 212.5588,341.691 212.8291,342.6316 212.7882,342.6683 195.843,357.9591 196.0958,365.6965 196.1531,367.45 191.8926,379.644 186.9183,393.8875 186.8157,393.9394 184.434,395.7913 183.5794,396.4559 180.2137,399.0729 174.6142,403.427 174.0289,402.8655 172.5892,402.598 171.9241,401.6668 171.8533,401.0429 171.5396,400.4217 171.2268,400.1505 169.9059,400.3116 168.6192,399.4215 167.8796,399.1718 167.219,399.2126 165.115,398.209 164.333,397.1427 164.9893,395.9721 164.6763,395.4674 163.0408,394.8511 163.0331,393.0411 162.5647,392.5371 161.2929,391.9818 159.5761,390.6576 158.0207,390.43 156.6187,389.8712 156.0348,389.7954 155.4908,389.9536 155.2932,389.0197 156.0616,386.6233 154.2321,386.2416 152.8282,385.0209 150.7663,384.6784 149.4407,383.8082 149.4592,383.567 148.3424,384.2201 148.063,383.248 147.6058,382.8152 147.2462,381.8101 147.4038,380.8583 147.2709,380.0789 146.7338,379.6747 146.1655,379.6202 145.9862,379.3616 146.0011,378.9871 146.3398,378.4011 145.816,377.2173 146.2519,376.7541 146.3645,376.339 145.9556,375.5282 146.3087,374.5852 145.7843,373.3785 145.3119,372.8026 144.7112,372.6264 143.5805,374.0448 143.0942,374.3711 141.8477,374.6758 141.3751,374.6134 140.5606,373.8856 140.2551,372.9176 139.1802,372.6916 137.8446,371.6006 137.1366,371.7316 136.5543,371.0571 135.9508,370.672 135.448,368.2235 133.3765,365.5694 133.0966,364.9857 132.5409,364.7769 131.4897,362.9943 130.4538,362.5262 130.1323,361.7136" stroke="black" /><polygon fill="none" points="356.4236,351.1074 356.4169,351.1033 356.0495,350.8806 355.5118,350.8068 355.4391,350.2927 353.2416,350.4962 348.5736,345.3954 339.0052,345.5078 337.2424,346.2653 334.3851,348.2604 333.3441,348.5032 332.5602,348.3074 331.6216,347.7383 329.5758,348.3493 328.9664,348.2472 328.4497,347.9333 328.0264,347.3842 325.3718,345.4832 325.2872,345.4985 323.6866,345.7876 312.7366,343.2782 314.457,342.3557 318.2289,337.1474 321.0185,333.6636 323.8745,327.6505 325.0326,325.2212 327.167,326.0591 329.5104,323.3497 330.8453,323.1322 331.7084,322.6832 332.2649,321.2385 333.2427,320.0616 334.7129,318.9415 334.7576,318.496 334.2628,317.9942 333.6963,316.8249 339.1781,311.9231 344.8515,307.9153 345.8214,306.8009 347.5409,306.8049 348.7452,306.2962 349.4098,305.4724 350.9777,302.4722 351.5769,301.9242 352.1013,301.9759 354.1454,303.3197 356.2099,303.9311 359.0596,304.5204 359.5148,303.9973 359.7958,303.9726 360.7856,305.1875 361.7595,305.4361 362.5842,306.2635 362.9501,306.2447 363.1792,305.8383 363.5194,305.8073 364.6103,306.0954 364.8298,306.2901 365.7684,305.7498 366.5537,305.8332 368.3079,305.1343 371.6112,304.4013 372.2172,306.4144 372.0125,309.146 371.9616,309.8245 372.5297,312.901 373.7565,313.2714 375.0837,313.4406 376.1712,313.5793 378.2082,314.8092 382.4031,317.6977 383.9136,318.2933 387.0045,318.8342 389.3199,320.0406 389.7485,320.4647 389.9703,321.4178 389.8638,325.1837 390.0523,326.1767 390.6264,327.9397 391.0746,328.7649 392.0429,329.9073 393.6271,331.2351 394.5416,331.5244 397.0631,331.9731 397.2359,332.0038 400.249,332.5399 402.3186,333.3963 403.5612,334.2851 404.1769,335.1079 404.5641,336.0239 405.0152,337.589 405.4057,341.1058 405.6103,346.2444 405.4657,347.8214 405.3211,349.3984 405.4367,351.3086 406.1809,356.2378 407.4917,361.3554 407.3281,362.2671 406.5732,362.6785 404.7101,361.9592 404.2192,361.5133 402.2504,360.7025 400.768,361.4187 400.4457,361.6348 398.7783,364.4995 398.4436,364.6919 397.911,364.6638 396.9687,363.9083 395.6239,362.3545 394.7073,360.7408 393.5631,357.733 392.8748,356.8986 391.4555,356.1892 389.1242,355.7292 388.4011,355.4979 386.7322,354.3564 384.9908,352.6804 383.1765,352.451 381.7856,351.8779 380.3693,350.1505 379.479,349.5339 378.0425,349.1309 377.2059,349.123 375.2797,349.6256 374.0588,350.1699 373.0364,351.1667 373.0608,351.7267 373.6305,352.3964 374.3205,354.014 374.5127,355.4202 372.0656,354.72 371.5586,354.3785 369.9625,354.0443 368.977,354.3035 368.0872,354.0799 366.4857,354.2284 364.7195,354.0436 363.136,354.4186 362.7086,354.2461 362.3298,353.2772 361.0654,353.0087 360.3443,351.3979 358.7866,350.8724 358.3638,350.4647 357.8258,350.5674 357.3604,351.0259 356.7187,351.2863 356.4236,351.1074" stroke="black" /><polygon fill="none" points="443.4243,156.2468 441.9666,156.3802 439.6139,156.5956 416.8777,158.6752 416.8487,157.9495 416.7728,157.6561 416.0139,156.6852 415.8046,155.9014 415.6856,155.0959 415.3282,154.5661 414.3743,153.9253 413.8339,153.4432 413.6678,153.2147 411.031,154.1544 411.0281,154.1554 410.4407,152.4313 410.4404,152.4304 410.4396,152.4282 409.7869,150.5107 404.3446,134.5225 404.315,134.4355 404.3084,134.4163 404.2634,134.2841 404.228,134.0514 404.2078,133.9194 403.9996,132.5537 402.4908,122.656 410.4107,124.679 417.2879,126.435 423.4914,123.2273 424.0738,117.2195 424.1651,116.2772 424.1952,115.967 424.3574,114.2934 424.365,114.2146 429.3382,112.9821 430.6421,111.3227 432.1,109.4674 432.9042,106.4089 435.765,106.1182 431.6449,83.8219 432.2996,77.6323 445.3102,82.2005 445.2597,81.9426 445.302,81.6275 445.482,81.2811 446.3076,80.3331 446.8136,79.8771 447.1895,79.4227 447.3384,79.0823 447.4116,78.6901 447.2758,77.8206 447.292,77.3479 446.9657,76.009 447.0473,75.3772 447.7097,77.0473 452.2439,65.9649 466.1989,63.5242 469.5638,58.1841 471.0042,57.8565 472.1385,57.2805 473.5095,55.1176 474.409,53.3946 476.1412,52.4978 477.2876,52.2849 478.1607,52.5494 478.4606,53.0852 478.5494,53.7454 477.3721,56.5109 476.5538,58.8503 476.1376,60.5044 475.8554,62.0138 475.8381,63.6485 476.1655,64.9915 476.6095,65.6799 489.7324,79.322 488.6281,82.4776 486.4137,88.8055 478.5765,111.2012 477.835,112.8169 477.7738,112.9503 467.5179,135.3027 459.4135,163.0155 461.9453,165.6553 458.5084,165.1007 452.1222,161.8845 449.0352,159.5569 446.3363,157.8499 443.4243,156.2468" stroke="black" /><polygon fill="none" points="284.0494,242.9614 289.6575,248.8975 289.4613,249.2922 288.6977,249.7908 287.969,249.9553 287.5011,250.1309 286.3868,250.6494 286.0531,250.8965 285.9862,251.4462 286.1733,251.8223 286.0992,252.4076 285.91,252.6154 285.8253,252.8616 285.8837,253.3354 286.0663,253.7211 285.9922,254.2979 284.6668,255.3593 284.4985,255.6856 288.6467,264.9045 288.4503,270.8543 286.7663,279.1324 286.7154,279.3824 284.08,292.3454 281.0801,304.1147 275.9956,301.9452 276.5269,299.5362 276.3128,299.4244 274.8211,299.2961 274.1624,299.1119 273.2535,298.9587 272.6272,299.0873 271.7718,299.5207 270.6733,299.9261 270.0149,299.9918 268.7599,299.4959 267.6917,298.9676 267.019,298.9544 266.8298,298.8609 265.4166,298.5453 264.8043,298.299 264.2408,297.2339 263.9243,296.9453 263.3269,296.5717 263.0697,295.0047 262.41,294.5068 261.5804,294.7446 261.2561,294.7352 260.9598,294.4197 260.835,294.2273 260.7818,293.768 260.6352,293.369 259.9725,292.4002 260.0185,292.2079 259.9634,291.7827 260.2184,291.364 259.2583,290.3179 258.5971,289.3799 258.1547,288.661 257.9651,288.0654 257.5249,287.7855 257.241,287.7459 256.8225,288.3368 256.0252,288.7326 255.0553,288.9872 254.0193,288.4586 253.2658,288.1797 252.5444,288.1518 251.0215,288.613 250.6519,288.6138 249.8085,288.5238 249.3968,288.1497 249.0521,288.1816 248.2891,289.2356 248.0114,290.2719 247.3558,290.6195 246.761,290.685 247.0057,289.4293 247.3632,288.66 247.4204,287.4362 248.1711,287.3078 248.2947,286.868 247.695,285.773 247.7066,285.3648 247.7088,285.287 246.7939,284.9003 237.2175,280.8522 237.263,280.635 242.3889,269.2402 237.5273,265.7095 232.4806,251.4018 226.0753,250.9654 225.2049,250.3921 224.9616,249.7871 225.0793,248.7598 226.1195,247.2217 226.5396,246.1629 226.7203,244.8472 226.3384,241.9301 226.0176,241.2616 224.9811,240.52 224.4783,240.6759 223.8408,240.4714 222.4263,237.7502 220.505,236.7515 220.4616,235.5256 220.1026,234.7333 218.4076,233.3137 217.9543,232.5691 217.1063,229.6343 216.8868,229.1547 215.6203,227.2135 215.4984,226.6164 215.7857,225.1804 217.2042,223.7347 218.0712,223.1586 219.4267,222.6632 220.2303,222.1221 221.4804,219.4241 221.9007,217.5711 221.9526,217.1783 221.982,215.4297 222.1809,214.6227 222.8933,213.2056 223.4484,212.6808 227.8448,211.7345 228.9824,211.2027 229.2384,211.4024 229.7412,211.4174 229.8267,211.652 230.0954,211.7682 230.5149,211.8006 230.8766,212.0933 231.0626,212.4449 231.0475,212.7076 231.1145,212.9987 231.3331,212.9309 231.6857,213.0967 231.6208,213.5174 231.7897,213.7682 232.4861,213.9754 233.0752,214.4266 233.3715,214.4423 233.6121,214.5256 234.268,214.8751 234.5298,215.2014 234.6482,215.4869 234.8998,215.6372 235.3027,215.6351 235.6541,215.4828 236.242,215.699 236.5105,215.7145 236.754,215.9237 236.7396,216.3775 237.0415,216.3923 237.5434,216.0545 238.1297,215.8336 238.861,216.2423 239.2147,216.6277 239.2666,217.0134 239.1192,217.8876 239.4056,218.2893 239.8008,218.4974 240.204,218.5797 240.6244,218.9142 241.0933,218.7444 241.4112,218.441 241.7302,218.5236 241.8569,218.8154 241.9672,219.3794 242.3327,220.3264 242.6867,220.7114 243.2916,220.9603 243.7616,221.0766 244.096,220.7726 244.4313,220.7039 244.9938,220.895 245.3474,221.246 245.5529,222.303 245.6887,222.6218 245.9242,222.856 246.2529,222.9975 246.4865,222.8623 246.4683,222.5933 247.0865,221.9026 246.9518,221.7181 246.8496,221.2821 247.1247,221.0204 247.6114,220.9847 247.9504,221.8402 248.2033,222.1745 248.5728,222.308 249.0991,221.7265 250.1073,222.2495 250.5442,222.4761 251.3771,223.0183 251.7145,223.504 251.7168,223.9572 251.0835,225.253 251.2958,225.7653 251.7495,225.8971 252.1377,226.5841 252.272,228.5261 252.6105,229.1962 253.3155,229.4452 253.885,229.2581 254.3745,228.5883 255.1879,228.7891 255.8022,229.7533 256.1609,230.5647 256.6943,230.5893 257.4057,230.4334 257.7637,230.8901 257.6635,231.399 257.571,231.5193 257.5547,231.5405 257.4463,231.6814 257.4458,231.6821 257.4435,231.6852 257.3102,231.8583 257.4563,232.0031 257.6933,232.2379 258.3036,232.4898 258.6103,232.9973 258.6634,233.4553 259.4759,233.3499 259.5569,234.3416 259.8638,235.0021 260.0197,235.7647 259.7163,236.1726 260.1746,236.3234 260.4287,236.1808 266.9854,235.3429 276.5558,234.12 283.8288,242.7279 284.0494,242.9614" stroke="black" /><polygon fill="none" points="443.3882,235.6131 443.1848,235.7313 443.183,235.7328 439.1892,238.0575 437.9053,238.6268 435.9518,238.6235 423.5362,232.4057 415.4335,247.5906 410.3566,257.925 409.6488,258.9336 408.7562,259.2612 404.0246,258.9026 402.4692,258.8155 396.7286,258.4927 396.728,258.4923 387.5981,257.9792 382.6304,257.3446 382.4943,261.8144 382.4857,262.0942 381.1574,265.8391 380.8709,268.3341 380.2879,268.1528 378.9065,266.9133 377.9183,266.6598 375.645,265.1334 371.9686,264.3985 367.7943,262.9571 366.7318,263.1414 366.0888,263.0705 365.6154,260.7989 364.7626,259.5358 363.5629,259.1885 362.8129,258.7782 362.8129,255.7332 362.8126,254.4805 363.1392,253.303 363.929,251.9866 363.6252,251.2998 361.8901,250.2397 361.7756,248.7121 361.8805,248.2387 361.2715,246.7139 360.1853,246.4934 359.9699,246.3007 360.3064,246.0244 360.1769,245.8639 359.5201,245.7278 359.2831,245.4061 358.9692,243.9796 358.601,243.1752 358.5167,241.6613 358.2271,240.9743 357.8857,240.7517 357.7647,240.2892 357.5496,240.2793 357.4091,240.0539 357.5371,239.741 357.3311,239.5157 356.5996,239.4121 356.5337,239.1004 356.2753,238.9732 355.3784,239.2062 355.0226,239.0251 355.0411,238.5335 353.103,237.7822 349.6437,237.2237 349.2317,236.4827 349.3,236.0577 349.8985,235.2041 349.8429,234.9572 349.6373,234.6993 347.8157,233.686 346.6376,233.5767 345.5579,231.4867 345.2512,230.175 342.0602,231.0516 341.9356,231.0045 341.0696,230.6355 340.6491,229.7219 341.0836,226.3241 341.8157,224.9053 345.1094,220.0827 346.9657,214.4406 346.8751,213.4927 346.4656,213.2368 345.3252,213.2419 344.7102,212.7807 344.2768,212.051 344.1009,210.8554 344.2334,209.2635 343.9256,208.3107 342.9816,208.0047 341.3197,207.8487 341.06,207.4412 341.133,206.8907 341.5614,206.5236 343.342,206.0931 344.0377,202.1389 343.7791,201.577 342.4125,200.9784 342.1084,200.5968 340.6843,197.3101 338.4411,195.1525 337.4862,194.689 336.8518,194.1126 336.3901,192.9302 337.6353,186.0449 337.2254,184.5391 336.6427,183.5759 333.8537,180.509 333.292,179.7205 332.8635,178.5446 333.1054,177.0423 334.8347,172.9147 335.0533,169.3844 339.7072,169.3193 340.414,167.8828 341.402,166.5488 341.8223,166.369 342.6911,167.021 343.1422,166.7109 343.8871,166.8058 344.5787,167.5882 345.9272,167.827 346.6139,168.7567 346.7508,170.246 346.5772,171.4619 347.1388,172.4182 347.1891,172.5038 348.1268,172.4189 348.106,171.3172 348.9622,170.1282 350.1269,169.2102 350.8134,168.9882 351.4612,169.3092 351.5608,169.6492 351.3485,171.1031 350.9004,171.9962 350.953,172.9677 351.2438,173.0958 352.1424,173.1327 352.352,172.986 353.6715,171.4247 353.1904,170.6083 354.4147,169.4862 354.7961,169.9777 355.2803,169.5873 356.2995,169.6634 357.665,169.2765 358.1364,169.8247 359.1011,170.3471 359.8585,169.7358 360.4575,169.7417 361.5621,169.21 361.9183,169.2248 362.0834,169.8873 362.0612,170.7005 362.2918,171.2719 363.0358,171.2682 363.1983,171.4946 363.1508,171.7222 362.6194,172.1934 362.6463,172.7849 362.8743,173.0587 363.8227,173.1686 363.9302,174.0583 364.2207,174.0408 364.3375,173.7738 364.2548,172.5755 364.8173,171.7462 365.0274,171.7803 365.3642,172.9831 366.1385,172.4775 367.0755,172.1643 367.4616,171.7592 367.5807,171.2482 367.092,170.4594 368.1658,170.0873 368.6791,169.1615 369.5302,168.9051 370.8043,168.8523 371.3741,167.5156 371.9027,167.0567 372.0302,166.2625 373.724,163.5907 373.6908,163.363 373.3992,163.3485 372.3004,163.8221 371.8887,163.5904 372.3517,162.4062 374.3964,162.1612 374.5851,161.7865 373.6639,161.0475 373.9755,160.2443 374.2819,160.1131 375.3834,160.4972 375.9898,161.0491 376.8624,160.3034 376.4053,159.4146 376.418,158.7349 375.4378,157.9222 376.293,157.852 376.4652,157.6444 376.2753,157.1736 376.4673,156.9933 377.5786,157.725 378.3746,158.4988 378.7134,158.4648 378.9559,158.3014 378.5405,157.6636 378.6622,157.4049 380.1132,156.774 380.0178,157.3251 380.3268,157.4691 380.6337,157.3218 381.0499,156.4617 381.534,156.4252 381.5889,156.4823 381.677,156.5746 381.755,156.8392 381.2078,157.4568 381.4356,157.78 380.7811,157.8876 380.4914,158.1489 380.7512,158.472 380.414,158.7966 380.6151,158.9197 380.5937,159.2663 381.1527,159.4011 381.3659,160.1446 381.7038,159.7717 381.2957,158.8979 381.2372,158.5668 381.4302,158.2259 381.8182,158.2562 383.2255,158.9225 384.5271,158.3816 384.7556,158.6392 384.2891,159.2244 384.6244,159.9764 384.8504,159.8784 385.089,159.1478 385.2832,159.0336 385.4616,159.2108 385.4763,160.6772 385.7695,161.0318 386.2849,160.8189 386.4458,160.381 386.7351,160.201 387.5532,161.6535 386.9621,161.6826 386.7353,161.8939 386.2728,161.5153 385.7389,161.5017 385.6285,162.053 385.7615,162.8466 384.205,163.2336 384.778,161.8057 384.7202,161.5878 384.4936,161.4921 384.2356,161.622 383.7852,162.3687 383.3808,162.1122 383.2843,162.3235 383.5718,163.2208 382.474,163.6312 381.3736,163.6036 381.1442,164.682 380.5952,164.8466 380.109,164.7351 379.0569,165.5748 379.0076,165.9472 379.7513,167.4316 381.29,171.584 381.8536,171.6134 383.0264,170.7091 384.6877,170.6706 385.6629,171.2639 388.7968,169.0062 389.5332,168.9943 390.9192,168.0488 391.1408,166.9624 392.8737,166.1412 394.0511,165.2403 394.722,165.1804 395.2087,165.502 398.15,162.9881 398.9255,163.3064 399.2162,163.2399 399.6836,162.8328 399.819,162.4517 400.0454,162.5313 402.4434,161.7832 403.3024,162.2651 402.8536,162.9951 402.919,163.1741 404.0856,163.6541 407.2271,162.9512 407.3063,162.6435 407.4608,162.8922 407.4595,162.5934 407.6886,162.8055 407.7665,162.4696 408.0909,162.76 408.2834,162.3222 409.0038,162.5247 410.1651,161.9686 410.3564,164.751 410.1105,165.7171 410.2255,166.0885 410.9228,166.6356 410.0219,167.0788 409.2401,168.5465 410.8544,169.2287 410.9204,169.4878 410.712,169.8285 408.5213,171.2957 408.2017,172.1063 408.5018,172.9545 408.935,173.4144 410.1301,173.2792 410.6914,172.8865 411.3654,171.1206 412.1668,169.7889 412.0179,169.0609 416.2117,168.5262 416.4536,168.4407 417.0944,168.0647 418.0153,166.9853 418.6508,166.033 419.2031,165.7914 419.5708,164.9573 420.655,164.3482 421.6481,164.2946 421.8576,164.1313 421.9773,163.8401 421.9095,163.0687 421.7095,162.7604 420.5841,162.2033 419.5771,162.1348 419.293,161.8452 419.224,161.2544 418.4883,160.9027 418.3288,160.4306 417.2039,159.9483 416.8777,158.6752 439.6139,156.5956 441.9666,156.3802 443.4243,156.2468 446.3363,157.8499 449.0352,159.5569 452.1222,161.8845 458.5084,165.1007 461.9453,165.6553 477.0397,179.5832 476.7216,195.4252 476.2237,196.2748 474.5837,202.5921 474.1718,203.7242 473.3763,205.0777 473.0495,206.4931 473.0868,207.277 473.4836,207.8917 473.8843,208.5122 475.0256,210.2798 475.9002,211.2794 476.4936,212.6892 476.3311,213.6943 475.4336,214.7354 473.6322,215.7175 472.4637,217.4428 472.288,217.7022 471.3219,218.3658 470.0865,218.8747 468.5714,220.0439 468.3763,221.1126 467.4507,223.2826 467.3394,224.4445 466.5066,224.9201 464.5349,225.3378 463.7346,225.8126 463.353,226.4743 463.5596,227.3522 463.428,227.9809 462.6943,228.3288 462.8316,229.0818 462.0633,229.2435 462.2253,231.6799 461.2842,230.5355 458.9057,228.1549 458.3787,227.8289 457.3255,227.5582 454.9755,228.2801 448.8166,232.4532 443.3882,235.6131" stroke="black" /><polygon fill="none" points="299.7912,435.2859 300.6261,435.258 301.2946,436.607 302.8716,438.3563 303.9179,440.8836 304.5077,441.4139 305.9353,441.9739 306.8103,442.0386 307.7043,441.8835 308.9923,439.9858 312.0681,437.6028 312.6924,436.4924 314.1154,435.7031 314.786,435.8422 315.1821,435.7404 315.6701,436.2688 315.9966,437.7011 316.1791,438.5013 316.4159,438.6475 320.3236,439.3908 320.9056,439.3509 321.5401,438.5456 321.4328,437.9272 321.7041,436.9929 322.0593,436.5368 322.6533,436.1264 323.6271,435.7647 324.2395,435.9373 325.9651,435.3333 326.9152,435.2603 327.6619,435.3758 329.4187,436.0786 329.7132,436.016 330.4021,435.8696 333.8311,431.1162 335.4501,430.6632 337.1151,429.1839 339.2603,428.9156 340.3721,429.9517 340.7126,430.1039 343.2166,431.2228 348.2243,431.1606 348.8237,431.504 349.2789,431.4964 349.439,431.4937 353.4787,431.426 353.4519,432.2837 353.8319,432.8474 354.1879,434.844 355.5823,436.8898 355.6005,437.3775 355.3673,437.9055 354.4276,438.6344 354.4292,438.996 355.6465,440.2883 356.1747,442.783 358.4565,443.7957 358.8025,444.6 359.2,444.8457 356.8233,446.2358 355.4551,447.6566 354.7557,448.832 353.7906,451.3278 353.8354,452.0839 354.3521,452.7778 356.6211,454.8766 356.7884,455.5924 356.5429,456.4735 355.6682,457.3301 356.1759,458.0643 355.8531,458.4869 354.1634,459.6898 353.6888,462.2373 352.7676,463.9087 351.8197,464.6116 347.6368,471.2343 347.0013,471.9016 346.4456,472.2205 344.7604,474.2779 344.3382,475.7781 342.3182,479.6892 341.7988,480.4127 339.9148,482.168 339.2658,482.4862 338.0906,481.9593 337.2975,481.0719 334.6379,481.1573 329.1715,480.9907 327.4208,480.19 324.9428,479.3602 322.8334,478.9185 322.3986,478.8274 320.094,478.3447 316.1463,477.9575 315.2531,477.8699 309.8343,477.9431 309.0405,478.3296 308.3277,479.0675 307.9935,479.5082 306.9387,481.2562 304.9841,486.6375 301.2663,496.8739 300.0357,498.9449 299.4304,499.5171 298.7023,499.9315 297.6599,500.0 295.4017,499.0862 292.7963,497.4562 290.3474,496.1435 287.7299,494.1874 283.6741,489.6141 282.815,488.4437 282.5891,487.9755 279.626,483.4984 279.015,481.7913 279.0324,481.1999 279.5105,479.9641 280.741,478.2967 281.5581,473.5052 282.5644,467.6091 283.0864,466.4284 283.4273,465.9285 284.801,464.5878 285.3571,463.775 287.3895,459.897 288.2272,457.7932 289.4839,453.6241 293.136,443.1451 294.7589,435.4549 299.7912,435.2859" stroke="black" /><polygon fill="none" points="257.5547,231.5405 257.571,231.5193 257.6635,231.399 257.7637,230.8901 257.4057,230.4334 256.6943,230.5893 256.1609,230.5647 255.8022,229.7533 255.1879,228.7891 254.3745,228.5883 253.885,229.2581 253.3155,229.4452 252.6105,229.1962 252.272,228.5261 252.1377,226.5841 251.7495,225.8971 251.2958,225.7653 251.0835,225.253 251.7168,223.9572 251.7145,223.504 251.3771,223.0183 250.5442,222.4761 250.1073,222.2495 249.0991,221.7265 248.5728,222.308 248.2033,222.1745 247.9504,221.8402 247.6114,220.9847 247.1247,221.0204 246.8496,221.2821 246.9518,221.7181 247.0865,221.9026 246.4683,222.5933 246.4865,222.8623 246.2529,222.9975 245.9242,222.856 245.6887,222.6218 245.5529,222.303 245.3474,221.246 244.9938,220.895 244.4313,220.7039 244.096,220.7726 243.7616,221.0766 243.2916,220.9603 242.6867,220.7114 242.3327,220.3264 241.9672,219.3794 241.8569,218.8154 241.7302,218.5236 241.4112,218.441 241.0933,218.7444 240.6244,218.9142 240.204,218.5797 239.8008,218.4974 239.4056,218.2893 239.1192,217.8876 239.2666,217.0134 239.2147,216.6277 238.861,216.2423 238.1297,215.8336 237.5434,216.0545 237.0415,216.3923 236.7396,216.3775 236.754,215.9237 236.5105,215.7145 236.242,215.699 235.6541,215.4828 235.3027,215.6351 234.8998,215.6372 234.6482,215.4869 234.5298,215.2014 234.268,214.8751 233.6121,214.5256 233.3715,214.4423 233.0752,214.4266 232.4861,213.9754 231.7897,213.7682 231.6208,213.5174 231.6857,213.0967 231.3331,212.9309 231.1145,212.9987 231.0475,212.7076 231.0626,212.4449 230.8766,212.0933 230.5149,211.8006 230.0954,211.7682 229.8267,211.652 229.7412,211.4174 229.2384,211.4024 228.9824,211.2027 229.3327,211.0188 226.717,211.0204 218.2198,211.0258 217.8197,211.0261 218.2048,208.7305 218.2835,205.8391 218.1516,204.8949 217.9101,204.012 216.7022,202.0152 214.7642,200.5168 212.3239,198.441 211.1287,197.1713 207.6496,194.1836 206.9011,193.5953 204.8966,192.3065 208.2805,190.2269 209.2763,189.8061 211.729,189.7973 213.7309,191.3705 215.8448,189.7808 217.2546,188.9426 218.7429,188.6915 220.1217,188.7652 221.537,189.2592 222.7062,190.5864 225.4883,189.9931 226.4397,188.7403 226.9379,188.4049 228.3492,188.0665 230.2147,186.8102 229.8311,180.9347 229.4201,174.6403 227.7587,173.1349 226.9681,170.8982 226.4423,170.362 222.3982,170.1729 217.6606,169.4737 214.3142,154.4496 213.9366,152.7529 213.9835,152.7243 214.0404,152.6895 214.9853,152.1123 217.2304,150.7408 218.9425,150.0686 222.5762,150.0029 227.4184,151.5737 227.6598,151.5162 230.209,148.8332 232.8723,145.8292 236.843,142.7915 238.92,141.8749 238.2708,139.03 238.7793,138.0573 239.6802,137.0272 243.2034,135.986 244.496,135.3954 246.9367,134.2796 249.0152,133.9089 252.4544,134.3185 251.8931,137.3411 251.9882,138.5491 252.9556,139.0888 254.2822,138.842 254.5547,139.2641 257.8836,139.1289 261.157,138.8746 265.5023,137.6569 266.3474,136.9985 267.7298,134.7101 268.5951,133.7767 269.4421,133.498 270.0081,133.454 270.6603,133.4934 271.3135,133.7024 271.8377,134.2072 272.3626,135.1349 272.5108,135.4594 272.8699,136.8444 272.961,137.6473 279.0056,140.0125 283.3793,139.8265 283.4263,140.0135 283.5299,140.1611 283.4945,140.3294 283.9328,140.6907 284.4295,141.4326 284.7438,141.6615 284.7984,141.8909 285.6365,142.543 285.8259,142.5767 286.8431,142.4016 287.1345,142.0644 287.1272,141.7968 287.5809,141.3862 287.6499,141.1217 287.8245,140.8799 287.8753,140.6704 288.0885,140.5314 288.3301,140.4814 288.502,139.8746 288.262,139.7216 288.2519,139.6187 290.6267,139.544 292.8772,140.1809 293.686,141.2801 294.9064,142.9386 297.1441,146.1446 296.2131,148.3959 294.479,150.3789 294.2742,150.7931 294.185,151.3907 294.2341,152.125 294.5128,152.9972 295.9064,154.4419 297.1415,155.2003 296.6162,155.6815 296.168,156.4448 295.7465,156.8996 295.2438,157.0845 294.8949,157.3767 294.5285,158.5007 294.3113,158.5377 294.0305,158.4256 293.5909,158.3947 293.1875,158.4309 293.0074,158.5713 292.803,159.1026 292.4342,159.5568 291.7225,159.9987 290.9125,160.3437 289.987,161.0387 289.7628,161.2703 289.5956,161.6188 289.6497,161.7785 289.8652,161.8089 290.506,161.7297 291.8314,161.0624 292.1736,161.0042 292.3568,161.1273 292.619,162.0606 292.703,162.8799 292.6941,163.4801 292.4356,164.8918 292.4772,165.2998 293.1563,167.0374 293.6437,167.9714 293.7298,168.565 293.9127,169.0931 293.9214,169.5676 294.0645,170.1753 294.4526,170.6637 294.7524,171.2332 293.9388,174.1442 293.8641,174.4117 293.3145,176.3782 289.5623,180.0141 287.1689,181.8634 286.4957,182.0974 285.7315,182.258 285.4835,182.2253 284.9755,181.8075 284.6865,181.6611 284.1238,181.544 283.8323,181.6374 283.4957,182.1614 283.1949,183.6042 282.6558,184.8587 281.9669,185.5299 281.7163,186.2406 280.9942,187.7567 280.4758,188.4318 278.4581,188.8876 277.4987,189.396 276.5688,190.0031 275.5436,190.2973 275.1142,190.576 274.5831,191.0906 273.7942,191.4276 273.4608,191.3707 272.8927,191.7567 272.7485,192.1464 272.489,192.8477 271.9835,193.5059 271.5681,193.8041 271.1613,193.9916 271.6742,194.6064 272.6686,194.7447 274.1253,194.7392 274.7819,194.8251 275.7451,195.6387 276.7779,196.3466 277.6671,196.6271 278.6442,196.6051 280.0656,196.9194 286.5918,198.7587 288.2429,199.7523 288.7638,200.0658 289.3718,200.8813 290.0649,201.1455 293.1198,201.0965 294.2037,201.2523 299.9472,202.888 301.9667,203.7596 303.4295,203.9619 302.6734,206.8627 301.7862,208.9603 300.7539,211.9566 299.5704,214.5546 297.9779,217.7772 296.5447,219.9773 295.6621,220.4803 294.497,221.4573 294.0252,221.7584 293.2971,223.2325 292.7295,224.1577 292.2379,225.7795 291.6683,226.5306 291.2961,226.8558 291.149,227.3555 291.3423,228.7758 291.0451,229.2009 290.8234,229.8001 291.1748,230.5461 291.5001,230.7944 291.6013,231.0933 291.5651,231.3927 290.655,232.606 290.2734,233.4801 289.8404,234.229 289.6052,234.4921 289.6076,235.0782 289.7468,235.4408 289.409,236.0864 288.7378,236.8554 288.0217,237.4885 288.0475,237.6686 287.4866,238.8387 286.927,239.0263 286.0323,240.3789 284.5223,241.2434 283.8288,242.7279 276.5558,234.12 266.9854,235.3429 260.4287,236.1808 260.1746,236.3234 259.7163,236.1726 260.0197,235.7647 259.8638,235.0021 259.5569,234.3416 259.4759,233.3499 258.6634,233.4553 258.6103,232.9973 258.3036,232.4898 257.6933,232.2379 257.4563,232.0031 257.3102,231.8583 257.4435,231.6852 257.4458,231.6821 257.4463,231.6814 257.5547,231.5405" stroke="black" /><polygon fill="none" points="111.7929,439.0566 105.2114,438.6472 104.0087,438.5724 101.5821,438.8688 97.168,438.5761 96.6661,438.1727 90.3919,434.0875 89.1861,433.3022 88.6991,430.604 89.1484,428.7731 89.0799,428.4098 88.3755,426.2159 87.0693,424.0935 88.2741,422.7684 88.4383,422.3809 88.338,421.3881 88.1163,421.0275 85.3286,418.6255 83.0132,417.5301 82.5166,417.131 81.8799,416.1021 82.7713,415.3375 83.6617,414.2353 83.6892,413.651 84.0814,412.7 84.1906,411.7105 84.5845,410.5961 84.1822,409.5764 84.4675,408.6493 84.2006,407.2323 85.2512,405.8848 85.3771,405.298 85.6608,404.9173 85.5959,403.5749 85.7761,402.6515 87.7884,405.3535 95.5426,406.5277 108.9274,414.1376 108.9292,414.137 116.388,411.8537 120.3973,410.266 127.0463,405.5511 129.698,404.4316 138.3423,402.1511 139.6456,402.2953 141.2318,402.166 142.1588,401.7036 143.5958,401.4249 144.7949,400.8126 147.2336,400.0472 151.1807,399.6739 151.8164,399.3391 152.7303,400.5636 154.3235,401.8 154.4557,402.3624 156.0209,403.9732 156.0224,404.2903 155.6638,404.9134 155.7533,405.5189 156.1311,406.124 157.8266,407.8359 158.606,407.9198 158.7222,408.1211 158.4223,408.8892 158.9771,409.7046 159.0128,411.1849 149.7969,413.6866 141.6682,416.2969 139.7148,415.9817 138.7166,415.6226 138.2199,415.7861 137.7326,416.143 136.6085,417.9276 135.8692,420.1867 135.0854,421.4382 134.6708,421.7621 132.9704,422.1716 132.4869,422.4981 130.2634,425.7826 129.1708,428.3689 128.5956,428.9227 123.6909,431.7527 122.235,433.1301 121.1739,434.9336 118.0662,435.6739 117.2554,436.1193 114.2345,438.8596 113.4631,439.1604 111.7929,439.0566" stroke="black" /><polygon fill="none" points="40.1675,287.8951 40.0969,287.5751 40.0888,287.5382 40.0249,287.2487 39.595,286.6542 38.9861,286.3297 38.6749,285.8812 38.5128,284.6998 38.1152,283.7142 37.1558,282.8164 34.549,281.416 33.8707,280.6298 33.8415,280.2777 33.8124,279.9255 34.6628,277.4445 34.01,275.5653 34.413,274.0427 35.3927,272.4344 37.2465,270.0935 37.3938,269.5241 37.4862,268.6339 37.3561,265.7245 39.7261,263.2694 39.7272,263.2681 39.8999,263.1244 39.9157,263.1114 41.6328,261.6832 42.1084,256.4148 41.5274,254.5131 41.514,254.3428 41.4086,253.0093 41.7152,251.9938 43.8005,248.9455 44.3309,247.3949 45.8013,245.3906 45.9116,244.6858 47.145,243.3582 50.4006,241.4872 51.9034,240.3292 55.0368,239.446 58.2376,238.1736 58.5655,237.9868 59.9384,237.2049 60.8056,235.9914 63.425,228.0688 64.0122,227.1935 64.562,226.8421 64.639,226.7929 65.1635,226.4577 65.8943,226.2583 67.9606,226.1118 69.2497,226.2245 70.1269,226.3012 71.3664,226.8318 76.868,227.8565 80.0471,227.9303 81.5779,227.5303 82.1948,226.9654 82.3015,224.9932 82.0553,223.0227 82.2437,220.4306 83.1996,215.9868 85.4251,212.8248 87.5123,210.5756 90.5911,206.1744 93.1007,203.8853 94.7857,203.2317 97.2953,201.0538 97.3444,201.0439 97.555,201.0015 105.684,199.3646 109.996,198.111 110.7365,197.4819 111.4773,196.8525 112.8488,195.2139 113.1276,194.2836 113.1265,189.777 113.3517,189.3212 115.0754,188.3835 118.0281,188.483 120.6259,188.1649 123.9429,184.385 124.8093,182.7508 125.211,180.3013 125.6307,179.3939 127.3465,177.4359 127.9647,177.2783 129.4345,177.3865 131.7376,176.7025 132.5958,176.7985 133.7713,177.3847 136.6552,178.094 137.7027,178.8049 139.098,179.141 138.5087,179.6077 137.9307,180.8632 135.7453,183.1895 135.081,184.1778 134.998,184.5301 135.2102,184.8677 136.5776,186.0174 136.5648,186.3561 134.2432,187.757 133.6417,188.4944 132.0959,189.5352 130.6415,189.7614 129.7785,190.0619 128.3938,191.7058 128.2173,192.2271 128.3895,192.9192 128.3177,193.1313 128.0199,193.5097 126.9851,194.5189 126.563,195.285 124.9843,196.4176 124.2796,196.501 122.7193,196.3025 121.4304,196.6057 120.7664,196.7617 120.568,197.0435 120.287,198.3985 118.7075,199.2828 117.8809,199.5999 117.1784,199.6648 115.284,199.5924 113.5949,200.4757 113.3116,200.6627 110.7269,203.1937 108.8283,204.7499 107.8599,205.5436 107.2517,205.8834 104.2833,206.4837 102.8746,207.801 102.2885,209.1464 104.1533,213.5578 103.8809,224.9684 103.4674,242.292 103.3612,246.7783 103.0812,258.675 103.0218,261.1995 86.95,275.2779 76.1057,284.7597 64.5793,294.838 40.4671,288.0926 40.1931,288.0107 40.1675,287.8951" stroke="black" /><polygon fill="none" points="308.4868,358.0388 306.9691,358.5332 305.7343,358.9356 296.217,369.4501 287.6078,371.5351 287.4607,371.649 286.5303,372.37 285.8261,373.1722 285.6527,373.5417 285.8409,373.749 285.7888,374.2472 285.6056,374.3519 284.5513,374.6391 283.9073,375.549 280.6136,377.0811 280.1564,377.4499 279.6875,378.1865 271.3693,377.7264 271.3869,378.6766 270.698,379.3547 269.059,380.0833 268.3232,380.152 260.8125,382.9608 260.5512,383.2822 259.7638,383.2089 259.6242,382.8151 259.5331,382.2199 258.7688,381.1047 257.7327,381.1638 256.9067,380.8283 256.6643,380.1586 255.6226,379.0715 254.9667,378.9109 254.1727,378.2317 253.1279,376.3793 252.0042,375.2109 251.2927,374.7228 249.0797,373.9399 248.6917,372.2034 245.6485,370.4343 243.4426,370.2524 241.3407,371.939 240.2126,372.9659 240.1515,372.8916 239.4202,372.0024 239.028,371.1998 238.859,370.2179 239.3131,367.8956 239.035,366.6416 239.4096,364.947 238.6111,363.1754 237.406,362.1984 233.69,360.076 232.7578,360.0893 230.6303,360.6957 230.1414,360.3725 230.109,360.3204 229.7851,359.7999 230.051,358.2171 229.8615,356.8281 229.8535,356.7705 228.9795,356.6104 227.7254,356.8345 226.1701,356.7039 225.4104,354.7357 225.138,354.5383 224.5929,354.732 223.2823,354.2725 223.1261,353.2222 221.5425,352.5471 220.7884,351.6899 220.0555,351.6116 219.9962,351.4748 220.3751,350.9264 219.6767,349.8522 219.5905,349.0332 219.9147,348.1581 219.8846,347.613 219.5814,347.0977 218.6849,346.4578 217.3014,346.5176 216.9742,346.3004 216.698,345.3362 215.7441,343.5278 215.1309,342.5958 212.969,342.7923 212.8291,342.6316 212.5588,341.691 212.2473,341.3005 210.263,340.0751 208.7236,339.9412 207.9243,340.2127 207.2054,339.7698 211.5128,336.2523 207.3726,328.181 207.3557,327.4309 207.2124,321.1023 207.539,321.0419 208.1765,320.5371 209.9333,318.9038 210.5182,318.2085 211.9163,317.6319 212.5393,317.7676 213.0934,318.0076 213.8545,318.1432 215.6053,319.0878 216.8191,320.1207 217.2542,320.7247 217.6027,321.346 218.2605,321.7242 218.9185,321.9291 220.1436,321.8722 220.9061,321.696 222.5968,320.8927 224.2342,319.692 225.0964,319.1695 226.2715,319.0614 227.5003,319.2464 227.9369,319.4284 228.158,319.5206 228.7464,319.5526 232.3505,321.6487 233.1835,322.3029 234.6404,323.2996 235.4714,323.5735 237.7378,323.9965 239.273,324.0764 240.2111,324.2454 240.6954,324.4164 241.2838,324.5174 242.0121,324.9988 242.5139,325.1871 243.1028,325.3231 243.8296,325.3892 243.8656,325.8044 244.4887,325.9749 245.9923,326.1927 246.9281,326.3967 248.6406,326.5794 250.9248,327.0891 251.9982,327.4656 252.3609,327.3766 253.0176,327.3394 253.6813,327.1632 254.2221,327.1287 255.6964,327.0341 256.1098,326.8244 256.9386,326.6136 257.6991,326.6106 258.891,326.2412 259.8585,326.0982 261.3106,326.0928 262.1226,325.9337 262.7428,325.5504 263.2941,324.9933 263.8094,324.2655 264.2403,323.8655 265.068,323.5155 266.0112,323.2909 266.7272,323.3008 267.1927,323.0739 267.8492,322.9327 268.297,322.515 268.7436,321.8904 268.8443,321.4057 269.0679,320.8682 269.481,320.5899 270.6234,320.9647 271.2824,321.4122 271.7161,321.8428 272.5834,322.4963 273.277,322.7697 273.6599,322.6263 275.1198,321.2914 276.1867,320.2483 277.2701,318.7734 277.8552,318.3204 278.6501,318.1783 279.7053,318.3299 280.1557,318.6055 281.1682,318.601 281.1259,318.5381 281.9862,318.147 282.2981,317.4802 282.4255,317.4357 284.0099,317.6062 284.7894,318.6535 285.0181,318.5188 285.2896,317.516 285.77,317.6627 286.158,319.1506 286.4436,319.5264 287.0576,319.5944 287.362,319.3453 287.5219,318.9869 287.6708,318.9117 288.213,318.9495 288.4088,319.4987 288.7947,319.9664 288.817,320.2516 289.076,320.8697 290.15,321.4346 290.5958,322.1741 291.182,322.1942 291.6859,322.3597 292.306,322.2822 292.8349,322.3997 293.2774,322.629 293.6747,322.583 294.3676,323.3517 295.4761,323.3698 296.2417,323.8509 297.7065,325.2574 300.0475,326.7809 300.27,326.78 300.8075,326.6322 301.4813,326.2761 301.8555,326.6196 301.9309,326.8424 302.6046,326.98 303.0074,327.7345 303.5024,327.2908 306.787,334.9421 313.0365,332.3957 312.7366,343.2782 316.875,355.3053 308.4868,358.0388" stroke="black" /><polygon fill="none" points="223.0559,107.769 224.007,107.953 224.5358,108.6575 225.348,108.7737 225.8348,108.7238 226.1612,108.2496 226.6368,108.1035 229.6018,108.4618 230.0152,109.234 230.1747,109.3151 231.5826,109.1092 231.6077,108.158 231.8898,107.9575 232.9454,108.4594 233.8749,108.1483 234.2424,108.1784 234.3709,109.0765 234.9675,109.5319 236.0988,108.8665 237.6126,109.0313 237.9547,108.7943 238.6446,107.7641 239.0179,107.581 239.4127,107.9142 239.4915,109.8185 239.6355,110.2894 240.2635,110.519 240.3421,111.3283 240.6893,111.3691 241.2258,110.999 242.0738,111.0252 242.3767,111.9549 243.0353,112.0301 243.2063,112.1936 243.1899,113.2026 243.8118,114.0922 243.4867,114.5508 244.151,115.4378 244.1079,115.7688 243.7091,115.9446 243.7697,116.1387 244.6189,116.3966 244.8394,116.7261 244.965,117.889 245.395,118.4982 245.5781,119.3111 246.4093,120.5799 246.9961,122.2057 246.9579,122.7095 246.4835,123.7205 246.2383,124.7585 244.7851,128.0097 244.8381,128.8809 245.3668,129.9189 247.4148,131.655 247.3428,132.2598 247.0202,132.8904 244.496,135.3954 243.2034,135.986 239.6802,137.0272 238.7793,138.0573 238.2708,139.03 238.92,141.8749 236.843,142.7915 232.8723,145.8292 230.209,148.8332 227.6598,151.5162 227.4184,151.5737 222.5762,150.0029 218.9425,150.0686 217.2304,150.7408 214.9853,152.1123 214.0404,152.6895 213.9835,152.7243 213.9366,152.7529 214.3142,154.4496 217.6606,169.4737 222.3982,170.1729 226.4423,170.362 226.9681,170.8982 227.7587,173.1349 229.4201,174.6403 229.8311,180.9347 230.2147,186.8102 228.3492,188.0665 226.9379,188.4049 226.4397,188.7403 225.4883,189.9931 222.7062,190.5864 221.537,189.2592 220.1217,188.7652 218.7429,188.6915 217.2546,188.9426 215.8448,189.7808 213.7309,191.3705 211.729,189.7973 209.2763,189.8061 208.2805,190.2269 204.8966,192.3065 204.2087,192.4721 200.7073,192.2889 199.5589,192.5168 198.5449,192.986 197.1628,194.8063 196.0868,196.588 195.4445,197.2179 194.2719,197.9167 193.157,199.5498 191.8788,200.9516 187.1016,204.3225 181.8519,204.7595 175.3536,206.1883 170.7808,205.2342 170.5523,205.1866 163.8591,202.9728 161.0864,210.4549 160.4312,210.0894 159.5761,210.8501 158.9019,210.7075 157.5304,210.9158 156.8787,211.6881 156.6004,211.6859 156.2101,210.8095 155.3734,210.2131 155.1261,209.4697 154.6435,209.3404 153.3348,209.6097 151.9783,208.257 151.1628,208.5051 150.811,208.3713 150.5919,208.0115 150.5662,206.387 150.4335,206.0926 149.76,205.362 148.5772,204.9074 147.9067,204.0206 147.755,203.6684 147.7204,203.4397 147.9969,202.6395 147.8387,202.016 147.1526,201.6589 145.2841,202.0477 144.7409,201.9676 144.3686,201.8921 143.839,201.3814 143.3898,201.2967 143.1974,201.1166 143.0254,200.359 143.1966,198.8204 143.0243,198.3 142.3085,198.7808 141.1858,198.8 140.4135,198.2228 139.981,198.4011 139.7512,199.0625 139.2249,199.4765 138.8454,199.2573 137.6255,199.5005 137.1631,199.3013 137.0498,199.1686 136.9943,198.8681 137.1432,198.0086 136.2969,197.1108 136.1764,196.6714 136.7082,196.0261 136.768,195.6317 136.5725,195.0553 136.9898,193.9727 137.9951,193.2766 138.1192,193.0005 137.4726,192.4626 136.7687,191.2502 136.6852,191.1064 135.2724,189.8086 135.1092,189.3391 134.6265,189.1839 133.991,189.4384 133.6876,189.3193 133.6417,188.4944 134.2432,187.757 136.5648,186.3561 136.5776,186.0174 135.2102,184.8677 134.998,184.5301 135.081,184.1778 135.7453,183.1895 137.9307,180.8632 138.5087,179.6077 139.098,179.141 137.7027,178.8049 136.6552,178.094 133.7713,177.3847 132.5958,176.7985 131.7376,176.7025 129.4345,177.3865 127.9647,177.2783 127.3465,177.4359 127.0107,177.5212 125.7989,177.3421 124.1921,178.0135 123.6719,177.9878 122.6819,176.7943 122.0374,176.5758 121.7627,176.2046 121.5656,175.0617 120.8866,174.6457 120.8405,174.1873 120.2859,173.4321 120.3296,171.9096 121.5899,168.9392 121.8883,164.8384 122.1717,163.9004 122.8922,162.4006 123.4357,161.0796 123.441,161.0667 123.5144,160.4022 123.1723,159.3155 121.6554,157.5485 121.2356,156.5886 121.2411,156.4836 121.309,155.196 122.0522,151.6748 122.0481,150.46 121.7535,148.0564 120.6953,143.1449 120.1007,139.5365 120.1111,138.7577 120.7385,136.8467 125.1346,126.8095 125.2425,126.4171 126.3722,122.2962 126.536,121.6988 128.2236,115.5443 128.2555,115.4282 128.26,115.4121 128.2913,115.298 130.8349,114.6421 132.6449,110.1128 137.3519,105.7955 137.0719,103.9576 138.3136,101.2536 140.8513,100.6585 162.3131,112.2095 162.3277,112.1658 164.1292,106.7867 167.7864,95.876 174.4921,75.8703 174.5338,75.7438 176.3789,74.8629 178.0124,73.4318 180.6383,70.3286 182.3471,68.0135 182.6844,65.8175 183.7553,63.1774 184.5614,54.912 185.8988,52.722 187.4942,51.0192 192.1838,47.1711 194.0883,46.4633 197.0939,45.7806 201.2135,56.4115 201.5108,58.4764 203.6555,59.8694 203.9659,61.0431 204.2869,61.4094 205.1325,61.4353 205.7906,62.0746 205.9651,62.2443 206.4181,62.2984 206.9256,62.0591 207.5613,61.9716 207.5936,61.9862 208.6138,62.4488 209.8648,63.016 210.8381,63.1607 211.4999,64.3697 212.5456,65.2922 212.8663,66.0836 212.8022,67.0755 212.3967,67.9582 211.2676,68.8441 210.1576,69.223 207.5584,71.1057 205.7299,73.2504 205.1924,75.0153 204.6821,77.9477 204.0509,79.0519 203.4629,79.4503 200.1338,80.2785 199.0949,81.2079 198.5789,82.9067 198.7658,84.3156 200.1107,86.5372 202.0007,88.9319 204.2172,90.3227 207.2002,90.8737 207.5413,91.1589 207.6114,91.6217 207.3427,92.5703 207.4237,92.9776 208.7637,93.7224 209.2556,94.8329 209.824,97.4176 209.9684,97.6955 210.4892,97.7373 210.8192,97.9453 211.718,99.4298 211.9155,100.035 211.8157,100.5526 211.1835,101.525 211.1178,101.9882 211.7292,103.6936 212.9463,105.897 213.5367,106.1374 214.35,105.716 214.7597,105.8459 215.6134,106.7792 216.4142,107.2118 216.8229,107.2327 217.1081,107.1161 217.9224,105.9663 219.8058,104.8629 220.1899,104.7407 221.4041,104.8349 221.7105,104.9772 221.8366,105.3084 221.4278,106.5148 221.577,106.9442 222.3319,107.4983 222.8367,107.7266 223.0559,107.769" stroke="black" /><polygon fill="none" points="410.4404,152.4304 410.4407,152.4313 411.0281,154.1554 411.031,154.1544 413.6678,153.2147 413.8339,153.4432 414.3743,153.9253 415.3282,154.5661 415.6856,155.0959 415.8046,155.9014 416.0139,156.6852 416.7728,157.6561 416.8487,157.9495 416.8777,158.6752 417.2039,159.9483 418.3288,160.4306 418.4883,160.9027 419.224,161.2544 419.293,161.8452 419.5771,162.1348 420.5841,162.2033 421.7095,162.7604 421.9095,163.0687 421.9773,163.8401 421.8576,164.1313 421.6481,164.2946 420.655,164.3482 419.5708,164.9573 419.2031,165.7914 418.6508,166.033 418.0153,166.9853 417.0944,168.0647 416.4536,168.4407 416.2117,168.5262 412.0179,169.0609 412.1668,169.7889 411.3654,171.1206 410.6914,172.8865 410.1301,173.2792 408.935,173.4144 408.5018,172.9545 408.2017,172.1063 408.5213,171.2957 410.712,169.8285 410.9204,169.4878 410.8544,169.2287 409.2401,168.5465 410.0219,167.0788 410.9228,166.6356 410.2255,166.0885 410.1105,165.7171 410.3564,164.751 410.1651,161.9686 409.0038,162.5247 408.2834,162.3222 408.0909,162.76 407.7665,162.4696 407.6886,162.8055 407.4595,162.5934 407.4608,162.8922 407.3063,162.6435 407.2271,162.9512 404.0856,163.6541 402.919,163.1741 402.8536,162.9951 403.3024,162.2651 402.4434,161.7832 400.0454,162.5313 399.819,162.4517 399.6836,162.8328 399.2162,163.2399 398.9255,163.3064 398.15,162.9881 395.2087,165.502 394.722,165.1804 394.0511,165.2403 392.8737,166.1412 391.1408,166.9624 390.9192,168.0488 389.5332,168.9943 388.7968,169.0062 385.6629,171.2639 384.6877,170.6706 383.0264,170.7091 381.8536,171.6134 381.29,171.584 379.7513,167.4316 379.0076,165.9472 379.0569,165.5748 380.109,164.7351 380.5952,164.8466 381.1442,164.682 381.3736,163.6036 382.474,163.6312 383.5718,163.2208 383.2843,162.3235 383.3808,162.1122 383.7852,162.3687 384.2356,161.622 384.4936,161.4921 384.7202,161.5878 384.778,161.8057 384.205,163.2336 385.7615,162.8466 385.6285,162.053 385.7389,161.5017 386.2728,161.5153 386.7353,161.8939 386.9621,161.6826 387.5532,161.6535 386.7351,160.201 386.4458,160.381 386.2849,160.8189 385.7695,161.0318 385.4763,160.6772 385.4616,159.2108 385.2832,159.0336 385.089,159.1478 384.8504,159.8784 384.6244,159.9764 384.2891,159.2244 384.7556,158.6392 384.5271,158.3816 383.2255,158.9225 381.8182,158.2562 381.4302,158.2259 381.2372,158.5668 381.2957,158.8979 381.7038,159.7717 381.3659,160.1446 381.1527,159.4011 380.5937,159.2663 380.6151,158.9197 380.414,158.7966 380.7512,158.472 380.4914,158.1489 380.7811,157.8876 381.4356,157.78 381.2078,157.4568 381.755,156.8392 381.677,156.5746 381.5889,156.4823 381.534,156.4252 381.0499,156.4617 380.6337,157.3218 380.3268,157.4691 380.0178,157.3251 380.1132,156.774 378.6622,157.4049 378.5405,157.6636 378.9559,158.3014 378.7134,158.4648 378.3746,158.4988 377.5786,157.725 376.4673,156.9933 376.2753,157.1736 376.4652,157.6444 376.293,157.852 375.4378,157.9222 376.418,158.7349 376.4053,159.4146 376.8624,160.3034 375.9898,161.0491 375.3834,160.4972 374.2819,160.1131 373.9755,160.2443 373.6639,161.0475 374.5851,161.7865 374.3964,162.1612 372.3517,162.4062 371.8887,163.5904 372.3004,163.8221 373.3992,163.3485 373.6908,163.363 373.724,163.5907 372.0302,166.2625 371.9027,167.0567 371.3741,167.5156 370.8043,168.8523 369.5302,168.9051 368.6791,169.1615 368.1658,170.0873 367.092,170.4594 367.5807,171.2482 367.4616,171.7592 367.0755,172.1643 366.1385,172.4775 365.3642,172.9831 365.0274,171.7803 364.8173,171.7462 364.2548,172.5755 364.3375,173.7738 364.2207,174.0408 363.9302,174.0583 363.8227,173.1686 362.8743,173.0587 362.6463,172.7849 362.6194,172.1934 363.1508,171.7222 363.1983,171.4946 363.0358,171.2682 362.2918,171.2719 362.0612,170.7005 362.0834,169.8873 361.9183,169.2248 361.5621,169.21 360.4575,169.7417 359.8585,169.7358 359.1011,170.3471 358.1364,169.8247 357.665,169.2765 356.2995,169.6634 355.2803,169.5873 354.7961,169.9777 354.4147,169.4862 353.1904,170.6083 353.6715,171.4247 352.352,172.986 352.1424,173.1327 351.2438,173.0958 350.953,172.9677 350.9004,171.9962 351.3485,171.1031 351.5608,169.6492 351.4612,169.3092 350.8134,168.9882 350.1269,169.2102 348.9622,170.1282 348.106,171.3172 348.1268,172.4189 347.1891,172.5038 347.1388,172.4182 346.5772,171.4619 346.7508,170.246 346.6139,168.7567 345.9272,167.827 344.5787,167.5882 343.8871,166.8058 343.1422,166.7109 342.6911,167.021 341.8223,166.369 341.402,166.5488 340.414,167.8828 339.7072,169.3193 335.0533,169.3844 335.1138,166.0899 334.7698,164.5248 334.4362,163.0062 333.6485,161.727 333.121,160.3518 332.5963,159.7371 330.6502,158.3548 330.3373,158.1325 329.6668,156.7105 328.6784,152.7728 338.1856,149.363 338.1927,149.3605 339.0576,149.0502 339.1461,149.0183 348.5552,145.6439 349.496,145.3066 353.8685,143.7387 361.3045,141.0722 364.1407,140.0553 368.401,138.4602 374.1064,136.324 384.1953,136.0438 385.1131,136.0183 391.4807,135.8411 393.9696,135.7719 402.7716,134.4997 404.2634,134.2841 404.3084,134.4163 404.315,134.4355 404.3446,134.5225 409.7869,150.5107 410.4396,152.4282 410.4404,152.4304" stroke="black" /><polygon fill="none" points="191.8926,379.644 196.1531,367.45 196.0958,365.6965 195.843,357.9591 212.7882,342.6683 212.8291,342.6316 212.969,342.7923 215.1309,342.5958 215.7441,343.5278 216.698,345.3362 216.9742,346.3004 217.3014,346.5176 218.6849,346.4578 219.5814,347.0977 219.8846,347.613 219.9147,348.1581 219.5905,349.0332 219.6767,349.8522 220.3751,350.9264 219.9962,351.4748 220.0555,351.6116 220.7884,351.6899 221.5425,352.5471 223.1261,353.2222 223.2823,354.2725 224.5929,354.732 225.138,354.5383 225.4104,354.7357 226.1701,356.7039 227.7254,356.8345 228.9795,356.6104 229.8535,356.7705 229.8615,356.8281 230.051,358.2171 229.7851,359.7999 230.109,360.3204 230.1414,360.3725 230.6303,360.6957 232.7578,360.0893 233.69,360.076 237.406,362.1984 238.6111,363.1754 239.4096,364.947 239.035,366.6416 239.3131,367.8956 238.859,370.2179 239.028,371.1998 239.4202,372.0024 240.1515,372.8916 240.2126,372.9659 241.3407,371.939 243.4426,370.2524 245.6485,370.4343 248.6917,372.2034 249.0797,373.9399 251.2927,374.7228 252.0042,375.2109 253.1279,376.3793 254.1727,378.2317 254.9667,378.9109 255.6226,379.0715 256.6643,380.1586 256.9067,380.8283 257.7327,381.1638 258.7688,381.1047 259.5331,382.2199 259.4382,383.1104 249.4482,380.2939 246.2942,386.1167 246.7908,386.4942 246.9106,386.9614 248.5482,388.0614 248.8194,388.5632 249.9501,389.6447 250.0873,390.215 249.9562,391.1236 251.139,392.5978 250.5184,392.7522 250.2174,393.0554 249.958,395.2422 250.315,396.1991 249.9833,397.0748 250.8949,398.1797 251.0886,400.2129 252.4072,402.2245 237.137,406.9304 234.6178,407.8336 225.8332,410.9832 223.196,412.2711 219.4467,414.1022 214.9183,416.7954 212.6678,418.363 204.9671,425.3052 204.2048,422.5177 205.6651,420.9897 206.7048,419.3512 206.0777,419.5315 204.5751,419.5558 202.4214,418.5488 200.2677,417.5419 199.6939,416.6883 199.236,415.594 198.8673,414.713 198.6744,412.7644 199.2775,407.5868 199.2705,405.9444 198.5236,403.3291 197.0079,398.6441 195.9983,397.5233 194.7651,396.5863 193.6895,394.8086 192.6663,394.3543 192.2216,393.7079 190.8258,393.0814 188.3782,393.1496 186.9183,393.8875 191.8926,379.644" stroke="black" /><polygon fill="none" points="329.7132,436.016 329.4187,436.0786 327.6619,435.3758 326.9152,435.2603 325.9651,435.3333 324.2395,435.9373 323.6271,435.7647 322.6533,436.1264 322.0593,436.5368 321.7041,436.9929 321.4328,437.9272 321.5401,438.5456 320.9056,439.3509 320.3236,439.3908 316.4159,438.6475 316.1791,438.5013 315.9966,437.7011 315.6701,436.2688 315.1821,435.7404 314.786,435.8422 314.1154,435.7031 312.6924,436.4924 312.0681,437.6028 308.9923,439.9858 307.7043,441.8835 306.8103,442.0386 305.9353,441.9739 304.5077,441.4139 303.9179,440.8836 302.8716,438.3563 301.2946,436.607 300.6261,435.258 299.7912,435.2859 294.7589,435.4549 294.855,434.9992 294.2781,434.2628 293.3074,432.3622 292.6311,429.9669 292.7229,425.9509 294.0596,423.2295 295.7352,421.8754 299.2099,414.3229 300.1719,410.8112 301.547,408.7365 302.9065,407.3817 302.9049,407.0492 302.4945,406.1826 301.3449,405.2082 300.4894,403.8492 300.5121,403.7404 300.8255,402.2512 301.8888,397.1974 302.9259,395.9749 304.0209,393.3954 304.2389,392.4659 303.7054,392.6184 303.1937,392.4799 302.4895,392.5888 302.1555,392.8906 302.1407,393.3142 301.8602,393.7037 300.7496,393.7005 298.9493,393.108 298.5233,392.5994 298.0429,391.5696 299.5213,391.0341 300.109,390.5441 300.1402,389.978 300.4141,389.6678 301.9015,388.3723 301.728,387.9611 301.3146,387.6535 300.3857,387.3145 301.1134,384.9926 302.2852,382.3592 301.5259,381.401 300.9708,380.2358 299.6396,378.1982 298.5017,377.1043 297.5731,376.7994 295.5999,376.8571 294.9183,376.4303 293.9846,376.3455 293.0036,375.9047 291.5771,375.0436 294.0561,374.0865 296.0504,371.0842 296.1998,369.6175 296.217,369.4501 305.7343,358.9356 306.9691,358.5332 308.4868,358.0388 316.875,355.3053 312.7366,343.2782 323.6866,345.7876 325.2872,345.4985 325.3718,345.4832 328.0264,347.3842 328.4497,347.9333 328.9664,348.2472 329.5758,348.3493 331.6216,347.7383 332.5602,348.3074 333.3441,348.5032 334.3851,348.2604 337.2424,346.2653 339.0052,345.5078 348.5736,345.3954 353.2416,350.4962 355.4391,350.2927 355.5118,350.8068 356.0495,350.8806 356.4169,351.1033 356.4236,351.1074 356.7187,351.2863 357.3604,351.0259 357.8258,350.5674 358.3638,350.4647 358.7866,350.8724 360.3443,351.3979 361.0654,353.0087 362.3298,353.2772 362.7086,354.2461 363.136,354.4186 364.7195,354.0436 366.4857,354.2284 368.0872,354.0799 368.977,354.3035 369.9625,354.0443 371.5586,354.3785 372.0656,354.72 374.5127,355.4202 374.4071,356.4141 373.633,358.6836 372.0915,361.866 370.4088,364.8551 369.3754,367.656 366.3526,376.968 365.8739,379.1947 365.8284,380.232 365.7561,381.8789 365.0358,384.7076 364.9844,385.7942 364.367,387.6249 364.15,388.2686 363.3601,389.3993 361.6774,391.324 360.2923,392.5233 359.7685,393.1259 359.6956,393.6914 360.0601,395.0481 361.2735,396.771 362.5022,397.6828 363.449,398.7195 365.3975,402.276 366.146,402.7307 367.2919,402.9379 369.5493,403.1629 371.7841,403.7296 372.7755,404.4185 373.2721,405.0383 374.5815,407.901 377.4781,409.764 380.7249,411.1093 381.5767,412.5411 381.758,413.3869 381.7821,414.178 381.3041,416.0057 381.5747,417.913 381.9636,418.9985 382.0647,420.2899 381.4557,422.2408 381.4795,422.8045 381.5324,424.0568 381.3777,426.4262 380.6445,430.2583 380.438,432.4329 379.8762,434.0574 378.7011,435.978 377.9175,436.6083 376.3882,437.4616 371.2401,438.8721 370.407,439.525 369.594,440.8274 368.2122,442.279 367.5651,443.1412 366.646,444.8245 365.6059,445.3606 365.3423,445.6947 365.0316,445.7384 364.2712,444.7533 363.0661,445.9249 362.5768,445.8859 361.4535,445.3739 360.2145,445.4739 359.2,444.8457 358.8025,444.6 358.4565,443.7957 356.1747,442.783 355.6465,440.2883 354.4292,438.996 354.4276,438.6344 355.3673,437.9055 355.6005,437.3775 355.5823,436.8898 354.1879,434.844 353.8319,432.8474 353.4519,432.2837 353.4787,431.426 349.439,431.4937 349.2789,431.4964 348.8237,431.504 348.2243,431.1606 343.2166,431.2228 340.7126,430.1039 340.3721,429.9517 339.2603,428.9156 337.1151,429.1839 335.4501,430.6632 333.8311,431.1162 330.4021,435.8696 329.7132,436.016" stroke="black" /><polygon fill="none" points="372.7865,27.0087 374.0122,26.4594 376.3064,25.1389 379.0086,23.3714 408.5831,33.0977 425.6116,38.6925 438.3788,59.5419 466.1989,63.5242 452.2439,65.9649 447.7097,77.0473 447.0473,75.3772 447.2821,74.5798 447.8146,73.4266 448.3447,71.9615 448.5511,71.1431 448.6313,70.4054 448.6087,69.9355 448.4371,69.343 447.8664,68.7938 447.2238,68.5406 446.3385,68.279 445.3494,68.1612 444.2969,68.1456 443.6878,68.2304 443.0667,68.2237 440.414,67.9291 438.7422,68.1926 437.8814,68.5038 437.3769,68.5875 436.116,68.9413 435.7591,69.1477 435.0357,69.7136 434.6363,69.7361 434.2784,69.6767 433.7723,69.4946 432.8438,68.8647 432.6318,68.5176 432.2519,68.233 431.7561,68.0005 431.4393,67.7566 431.079,67.3086 430.8262,67.1866 430.0661,66.4337 429.2502,65.368 428.4685,64.2051 428.1626,63.5832 428.0719,63.307 428.086,62.5795 427.8146,61.5238 427.6081,61.239 427.2327,60.9283 426.8402,60.7749 426.1979,60.6565 425.9129,60.6577 425.5751,60.8152 422.7783,62.8462 421.8726,63.3534 420.9826,63.651 420.2522,63.7414 419.2456,63.6887 418.7304,63.5173 418.4781,63.4334 415.664,63.1891 412.5908,75.7955 412.0732,76.9262 412.049,77.9338 411.9354,78.3264 411.3281,79.3298 411.0737,80.1427 411.0911,81.0252 411.0197,81.1509 409.9463,81.0128 409.7737,81.1671 409.269,82.1198 408.6745,82.9144 408.264,83.275 407.6413,83.5698 392.2813,89.6642 379.584,101.931 371.4174,109.8224 366.8823,114.2061 364.1407,140.0553 361.3045,141.0722 353.8685,143.7387 349.496,145.3066 348.5552,145.6439 339.1461,149.0183 339.0576,149.0502 338.1927,149.3605 338.1856,149.363 328.6784,152.7728 323.0236,161.6414 317.0109,161.8371 313.2516,160.5208 313.2501,160.5203 309.6665,159.2655 307.4274,158.4816 307.3328,158.5978 306.6339,159.1472 304.1876,158.7853 300.9203,157.763 299.0766,156.9749 297.1415,155.2003 295.9064,154.4419 294.5128,152.9972 294.2341,152.125 294.185,151.3907 294.2742,150.7931 294.479,150.3789 296.2131,148.3959 297.1441,146.1446 294.9064,142.9386 293.686,141.2801 292.8772,140.1809 290.6267,139.544 288.2519,139.6187 288.262,139.7216 288.502,139.8746 288.3301,140.4814 288.0885,140.5314 287.8753,140.6704 287.8245,140.8799 287.6499,141.1217 287.5809,141.3862 287.1272,141.7968 287.1345,142.0644 286.8431,142.4016 285.8259,142.5767 285.6365,142.543 284.7984,141.8909 284.7438,141.6615 284.4295,141.4326 283.9328,140.6907 283.4945,140.3294 283.5299,140.1611 283.4263,140.0135 283.3793,139.8265 279.0056,140.0125 272.961,137.6473 272.8699,136.8444 272.5108,135.4594 272.3626,135.1349 271.8377,134.2072 271.3135,133.7024 270.6603,133.4934 270.0081,133.454 269.4421,133.498 268.5951,133.7767 267.7298,134.7101 266.3474,136.9985 265.5023,137.6569 261.157,138.8746 257.8836,139.1289 254.5547,139.2641 254.2822,138.842 252.9556,139.0888 251.9882,138.5491 251.8931,137.3411 252.4544,134.3185 249.0152,133.9089 246.9367,134.2796 244.496,135.3954 247.0202,132.8904 247.3428,132.2598 247.4148,131.655 245.3668,129.9189 244.8381,128.8809 244.7851,128.0097 246.2383,124.7585 246.4835,123.7205 246.9579,122.7095 246.9961,122.2057 246.4093,120.5799 245.5781,119.3111 245.395,118.4982 244.965,117.889 244.8394,116.7261 244.6189,116.3966 243.7697,116.1387 243.7091,115.9446 244.1079,115.7688 244.151,115.4378 243.4867,114.5508 243.8118,114.0922 243.1899,113.2026 243.2063,112.1936 243.0353,112.0301 242.3767,111.9549 242.0738,111.0252 241.2258,110.999 240.6893,111.3691 240.3421,111.3283 240.2635,110.519 239.6355,110.2894 239.4915,109.8185 239.4127,107.9142 239.0179,107.581 238.6446,107.7641 237.9547,108.7943 237.6126,109.0313 236.0988,108.8665 234.9675,109.5319 234.3709,109.0765 234.2424,108.1784 233.8749,108.1483 232.9454,108.4594 231.8898,107.9575 231.6077,108.158 231.5826,109.1092 230.1747,109.3151 230.0152,109.234 229.6018,108.4618 235.5366,102.8984 236.4712,104.1551 252.1715,90.4164 258.9974,84.4448 265.8554,76.4175 276.2889,64.2051 276.5804,63.2897 276.6567,62.7917 276.652,61.7088 276.5394,60.3768 276.6518,59.009 276.6468,57.649 276.5667,57.3237 276.3581,56.9505 276.3183,56.7024 276.7833,54.8046 276.7228,54.3637 276.6035,54.077 276.1185,53.6095 275.8409,53.0173 275.7386,52.2319 275.5791,51.6772 275.381,51.3719 274.8299,51.0106 274.7676,50.7044 274.7959,50.3309 275.0282,49.3335 275.2037,48.8538 275.7511,48.334 275.7915,48.1239 275.5731,47.684 275.5332,47.4541 275.6704,47.2049 275.9739,46.9444 276.0914,46.6955 276.0889,46.4261 275.7844,45.725 275.7463,44.2835 275.5963,43.4511 275.5131,42.3601 275.0581,41.7286 275.0955,41.4416 275.4294,41.2105 276.2577,41.3798 276.7395,41.2336 277.0538,41.0035 277.3911,40.2507 278.1944,37.7791 275.1587,32.3306 270.0018,23.0707 270.654,22.8376 271.1801,22.9637 271.6902,23.2645 273.8579,25.6747 274.3517,26.0395 275.321,26.3551 276.5939,26.47 277.2339,26.4679 277.8744,26.3683 278.6611,26.1263 279.1036,25.9013 280.2858,23.9093 280.712,23.6205 281.0729,23.5227 281.4994,23.6169 282.7024,24.6341 282.9647,24.6971 283.3175,24.5635 283.5464,24.3867 284.5523,22.3468 287.5068,17.0207 288.653,15.6505 290.2189,14.4903 293.359,11.7153 294.1813,10.6203 295.0671,9.2161 296.1676,7.7877 296.8073,7.1284 298.77,5.5188 299.3795,5.1103 301.6299,3.156 303.0744,2.7903 303.8273,2.1937 305.1842,0.0 305.6965,0.2136 306.7782,0.8367 308.4868,2.4326 309.3529,2.9009 311.825,3.1199 313.9344,3.7157 314.6924,4.0004 315.3239,4.7564 318.0496,9.068 318.6841,9.6793 319.3699,10.1371 319.8471,11.2094 319.8836,13.5361 320.1498,14.4562 320.5746,15.5794 320.7137,17.0366 321.3487,18.159 322.4031,18.8198 324.5904,19.9102 325.4333,20.2135 325.9615,20.621 326.1748,21.3361 325.6845,23.6138 325.8968,24.175 326.6347,24.5303 327.7381,24.2185 328.4707,23.6543 329.2327,23.1643 329.8639,23.1617 330.4956,23.3641 332.0265,24.4314 332.8929,24.351 333.9438,23.989 335.6252,23.5216 336.0989,23.5199 337.3356,23.8464 356.1807,24.0127 357.3755,23.8639 362.9953,28.5902 372.7865,27.0087" stroke="black" /><polygon fill="none" points="260.5512,383.2822 260.8125,382.9608 268.3232,380.152 269.059,380.0833 270.698,379.3547 271.3869,378.6766 271.3693,377.7264 279.6875,378.1865 280.1564,377.4499 280.6136,377.0811 283.9073,375.549 284.5513,374.6391 285.6056,374.3519 285.7888,374.2472 285.8409,373.749 285.6527,373.5417 285.8261,373.1722 286.5303,372.37 287.4607,371.649 287.6078,371.5351 296.217,369.4501 296.1998,369.6175 296.0504,371.0842 294.0561,374.0865 291.5771,375.0436 293.0036,375.9047 293.9846,376.3455 294.9183,376.4303 295.5999,376.8571 297.5731,376.7994 298.5017,377.1043 299.6396,378.1982 300.9708,380.2358 301.5259,381.401 302.2852,382.3592 301.1134,384.9926 300.3857,387.3145 301.3146,387.6535 301.728,387.9611 301.9015,388.3723 300.4141,389.6678 300.1402,389.978 300.109,390.5441 299.5213,391.0341 298.0429,391.5696 298.5233,392.5994 298.9493,393.108 300.7496,393.7005 301.8602,393.7037 302.1407,393.3142 302.1555,392.8906 302.4895,392.5888 303.1937,392.4799 303.7054,392.6184 304.2389,392.4659 304.0209,393.3954 302.9259,395.9749 301.8888,397.1974 300.8255,402.2512 300.5121,403.7404 300.4894,403.8492 301.3449,405.2082 302.4945,406.1826 302.9049,407.0492 302.9065,407.3817 301.547,408.7365 300.1719,410.8112 299.2099,414.3229 295.7352,421.8754 294.0596,423.2295 292.7229,425.9509 292.6311,429.9669 293.3074,432.3622 294.2781,434.2628 294.855,434.9992 294.7589,435.4549 293.136,443.1451 293.0118,442.7736 292.7362,442.5599 291.6667,442.5221 284.9513,443.4259 281.269,443.7555 277.8801,444.0588 276.6121,423.9792 270.2413,418.3058 254.0396,403.8775 252.4072,402.2245 251.0886,400.2129 250.8949,398.1797 249.9833,397.0748 250.315,396.1991 249.958,395.2422 250.2174,393.0554 250.5184,392.7522 251.139,392.5978 249.9562,391.1236 250.0873,390.215 249.9501,389.6447 248.8194,388.5632 248.5482,388.0614 246.9106,386.9614 246.7908,386.4942 246.2942,386.1167 249.4482,380.2939 259.4382,383.1104 259.5331,382.2199 259.6242,382.8151 259.7638,383.2089 260.5512,383.2822" stroke="black" /><polygon fill="none" points="103.4674,242.292 103.8809,224.9684 104.1533,213.5578 102.2885,209.1464 102.8746,207.801 104.2833,206.4837 107.2517,205.8834 107.8599,205.5436 108.8283,204.7499 110.7269,203.1937 113.3116,200.6627 113.5949,200.4757 115.284,199.5924 117.1784,199.6648 117.8809,199.5999 118.7075,199.2828 120.287,198.3985 120.568,197.0435 120.7664,196.7617 121.4304,196.6057 122.7193,196.3025 124.2796,196.501 124.9843,196.4176 126.563,195.285 126.9851,194.5189 128.0199,193.5097 128.3177,193.1313 128.3895,192.9192 128.2173,192.2271 128.3938,191.7058 129.7785,190.0619 130.6415,189.7614 132.0959,189.5352 133.6417,188.4944 133.6876,189.3193 133.991,189.4384 134.6265,189.1839 135.1092,189.3391 135.2724,189.8086 136.6852,191.1064 136.7687,191.2502 137.4726,192.4626 138.1192,193.0005 137.9951,193.2766 136.9898,193.9727 136.5725,195.0553 136.768,195.6317 136.7082,196.0261 136.1764,196.6714 136.2969,197.1108 137.1432,198.0086 136.9943,198.8681 137.0498,199.1686 137.1631,199.3013 137.6255,199.5005 138.8454,199.2573 139.2249,199.4765 139.7512,199.0625 139.981,198.4011 140.4135,198.2228 141.1858,198.8 142.3085,198.7808 143.0243,198.3 143.1966,198.8204 143.0254,200.359 143.1974,201.1166 143.3898,201.2967 143.839,201.3814 144.3686,201.8921 144.7409,201.9676 145.2841,202.0477 147.1526,201.6589 147.8387,202.016 147.9969,202.6395 147.7204,203.4397 147.755,203.6684 147.9067,204.0206 148.5772,204.9074 149.76,205.362 150.4335,206.0926 150.5662,206.387 150.5919,208.0115 150.811,208.3713 151.1628,208.5051 151.9783,208.257 153.3348,209.6097 154.6435,209.3404 155.1261,209.4697 155.3734,210.2131 156.2101,210.8095 156.6004,211.6859 156.8787,211.6881 157.5304,210.9158 158.9019,210.7075 159.5761,210.8501 160.4312,210.0894 161.0864,210.4549 163.8591,202.9728 170.5523,205.1866 169.703,209.3891 169.4046,210.0201 168.5713,211.4224 156.8883,231.0839 156.7053,231.7617 156.8654,232.4231 159.0008,237.0984 159.0306,237.6429 156.6039,255.8152 156.5134,258.0106 156.8465,260.099 158.8896,266.9308 159.0547,267.4831 160.0103,270.677 159.8394,275.0121 159.113,274.5311 158.7205,274.5111 157.5104,275.4647 157.0857,275.5519 156.6877,275.4189 156.7136,274.9195 154.9653,275.6408 154.479,275.9728 153.8701,276.8532 153.2791,277.2294 152.6883,277.4424 152.0178,277.1823 151.4978,277.411 150.8143,278.2702 149.5426,278.6419 149.3918,279.8418 148.702,280.4438 133.6094,284.4652 134.046,289.4026 133.7755,292.4338 130.954,291.9462 128.9466,291.872 127.3419,291.0371 125.1825,290.9147 124.0137,290.3753 123.2829,290.2521 119.5031,288.1447 118.3777,287.9119 117.092,287.8928 115.8139,288.2747 115.0904,288.7529 114.4668,288.1753 113.9635,287.8099 113.326,287.5155 112.7604,287.3851 111.866,287.8296 111.455,287.8456 111.1759,287.7586 110.095,286.9995 109.4361,286.6461 107.9085,286.164 107.2328,286.1566 106.1667,286.5536 105.7342,286.6161 105.4715,286.5577 102.6504,285.3789 101.9584,284.9604 99.6014,283.2113 96.7335,280.889 96.1251,280.4978 93.805,279.5177 92.3863,278.8423 91.1077,278.0178 89.2817,276.6602 88.2941,276.014 86.95,275.2779 103.0218,261.1995 103.0812,258.675 103.3612,246.7783 103.4674,242.292" stroke="black" /><polygon fill="none" points="72.2216,386.8416 66.2034,385.8694 67.2762,377.0618 71.1014,371.5934 90.6283,369.5156 103.4761,358.9662 118.2261,356.7057 118.5457,356.6566 119.1362,356.9678 120.3476,356.7148 120.6838,357.2132 121.4125,357.4548 121.5056,357.9699 121.2635,358.2744 121.5985,358.5773 123.2357,358.3583 124.056,358.8255 124.9048,358.7318 125.635,359.336 126.4873,360.4105 127.732,360.6178 129.8719,361.4561 130.1323,361.7136 130.4538,362.5262 131.4897,362.9943 132.5409,364.7769 133.0966,364.9857 133.3765,365.5694 135.448,368.2235 135.9508,370.672 136.5543,371.0571 137.1366,371.7316 137.8446,371.6006 139.1802,372.6916 140.2551,372.9176 140.5606,373.8856 141.3751,374.6134 141.8477,374.6758 143.0942,374.3711 143.5805,374.0448 144.7112,372.6264 145.3119,372.8026 145.7843,373.3785 146.3087,374.5852 145.9556,375.5282 146.3645,376.339 146.2519,376.7541 145.816,377.2173 146.3398,378.4011 146.0011,378.9871 145.9862,379.3616 146.1655,379.6202 146.7338,379.6747 147.2709,380.0789 147.4038,380.8583 147.2462,381.8101 147.6058,382.8152 148.063,383.248 148.3424,384.2201 149.4592,383.567 149.4407,383.8082 150.7663,384.6784 152.8282,385.0209 154.2321,386.2416 156.0616,386.6233 155.2932,389.0197 155.4908,389.9536 156.0348,389.7954 156.6187,389.8712 158.0207,390.43 159.5761,390.6576 161.2929,391.9818 162.5647,392.5371 163.0331,393.0411 163.0408,394.8511 164.6763,395.4674 164.9893,395.9721 164.333,397.1427 165.115,398.209 167.219,399.2126 167.8796,399.1718 168.6192,399.4215 169.9059,400.3116 171.2268,400.1505 171.5396,400.4217 171.8533,401.0429 171.9241,401.6668 172.5892,402.598 174.0289,402.8655 174.6142,403.427 172.2723,405.7179 168.6239,407.4086 165.2267,409.3554 163.8588,409.9656 160.7507,410.8632 159.0128,411.1849 158.9771,409.7046 158.4223,408.8892 158.7222,408.1211 158.606,407.9198 157.8266,407.8359 156.1311,406.124 155.7533,405.5189 155.6638,404.9134 156.0224,404.2903 156.0209,403.9732 154.4557,402.3624 154.3235,401.8 152.7303,400.5636 151.8164,399.3391 151.1807,399.6739 147.2336,400.0472 144.7949,400.8126 143.5958,401.4249 142.1588,401.7036 141.2318,402.166 139.6456,402.2953 138.3423,402.1511 129.698,404.4316 127.0463,405.5511 120.3973,410.266 116.388,411.8537 108.9292,414.137 108.9274,414.1376 95.5426,406.5277 87.7884,405.3535 85.7761,402.6515 82.7122,401.2668 79.561,399.5682 77.3395,396.4967 75.5789,395.2208 76.0852,392.6824 76.5395,392.674 78.0853,387.7888 72.4322,386.8756 72.2216,386.8416" stroke="black" /><polygon fill="none" points="227.9369,319.4284 227.5003,319.2464 226.2715,319.0614 225.0964,319.1695 224.2342,319.692 222.5968,320.8927 220.9061,321.696 220.1436,321.8722 218.9185,321.9291 218.2605,321.7242 217.6027,321.346 217.2542,320.7247 216.8191,320.1207 215.6053,319.0878 213.8545,318.1432 213.0934,318.0076 212.5393,317.7676 211.9163,317.6319 210.5182,318.2085 209.9333,318.9038 208.1765,320.5371 207.539,321.0419 207.2124,321.1023 207.2067,320.8571 202.7982,316.3227 203.508,314.5873 204.7371,309.2141 212.989,302.9057 225.2856,292.2174 237.2175,280.8522 246.7939,284.9003 247.7088,285.287 247.7066,285.3648 247.695,285.773 248.2947,286.868 248.1711,287.3078 247.4204,287.4362 247.3632,288.66 247.0057,289.4293 246.761,290.685 247.3558,290.6195 248.0114,290.2719 248.2891,289.2356 249.0521,288.1816 249.3968,288.1497 249.8085,288.5238 250.6519,288.6138 251.0215,288.613 252.5444,288.1518 253.2658,288.1797 254.0193,288.4586 255.0553,288.9872 256.0252,288.7326 256.8225,288.3368 257.241,287.7459 257.5249,287.7855 257.9651,288.0654 258.1547,288.661 258.5971,289.3799 259.2583,290.3179 260.2184,291.364 259.9634,291.7827 260.0185,292.2079 259.9725,292.4002 260.6352,293.369 260.7818,293.768 260.835,294.2273 260.9598,294.4197 261.2561,294.7352 261.5804,294.7446 262.41,294.5068 263.0697,295.0047 263.3269,296.5717 263.9243,296.9453 264.2408,297.2339 264.8043,298.299 265.4166,298.5453 266.8298,298.8609 267.019,298.9544 267.6917,298.9676 268.7599,299.4959 270.0149,299.9918 270.6733,299.9261 271.7718,299.5207 272.6272,299.0873 273.2535,298.9587 274.1624,299.1119 274.8211,299.2961 276.3128,299.4244 276.5269,299.5362 275.9956,301.9452 278.3275,312.6541 279.3332,315.8638 281.1259,318.5381 281.1682,318.601 280.1557,318.6055 279.7053,318.3299 278.6501,318.1783 277.8552,318.3204 277.2701,318.7734 276.1867,320.2483 275.1198,321.2914 273.6599,322.6263 273.277,322.7697 272.5834,322.4963 271.7161,321.8428 271.2824,321.4122 270.6234,320.9647 269.481,320.5899 269.0679,320.8682 268.8443,321.4057 268.7436,321.8904 268.297,322.515 267.8492,322.9327 267.1927,323.0739 266.7272,323.3008 266.0112,323.2909 265.068,323.5155 264.2403,323.8655 263.8094,324.2655 263.2941,324.9933 262.7428,325.5504 262.1226,325.9337 261.3106,326.0928 259.8585,326.0982 258.891,326.2412 257.6991,326.6106 256.9386,326.6136 256.1098,326.8244 255.6964,327.0341 254.2221,327.1287 253.6813,327.1632 253.0176,327.3394 252.3609,327.3766 251.9982,327.4656 250.9248,327.0891 248.6406,326.5794 246.9281,326.3967 245.9923,326.1927 244.4887,325.9749 243.8656,325.8044 243.8296,325.3892 243.1028,325.3231 242.5139,325.1871 242.0121,324.9988 241.2838,324.5174 240.6954,324.4164 240.2111,324.2454 239.273,324.0764 237.7378,323.9965 235.4714,323.5735 234.6404,323.2996 233.1835,322.3029 232.3505,321.6487 228.7464,319.5526 228.158,319.5206 227.9369,319.4284" stroke="black" /><polygon fill="none" points="336.6427,183.5759 337.2254,184.5391 337.6353,186.0449 336.3901,192.9302 336.8518,194.1126 337.4862,194.689 338.4411,195.1525 340.6843,197.3101 342.1084,200.5968 342.4125,200.9784 343.7791,201.577 344.0377,202.1389 343.342,206.0931 341.5614,206.5236 341.133,206.8907 341.06,207.4412 341.3197,207.8487 342.9816,208.0047 343.9256,208.3107 344.2334,209.2635 344.1009,210.8554 344.2768,212.051 344.7102,212.7807 345.3252,213.2419 346.4656,213.2368 346.8751,213.4927 346.9657,214.4406 345.1094,220.0827 341.8157,224.9053 341.0836,226.3241 340.6491,229.7219 341.0696,230.6355 341.9356,231.0045 338.343,232.056 337.7095,232.1457 336.9182,231.7625 336.4057,231.1795 336.074,230.14 335.5287,229.7281 334.6384,229.3036 333.9804,229.4778 333.621,229.261 333.5324,229.1253 333.2194,227.8828 332.8021,227.1253 332.7619,225.7423 332.4433,225.1147 332.732,223.6615 332.7036,223.5293 332.2186,222.8109 331.8266,222.5134 331.2696,222.5599 328.2537,223.5974 326.1403,223.2663 325.9089,223.3217 323.5216,224.4159 322.4512,223.9519 322.2522,224.0214 322.1892,224.1092 322.1707,224.5858 321.456,224.7052 321.1963,225.4561 320.9743,225.6928 320.5437,225.623 320.2371,225.8624 320.1357,226.1769 319.425,226.4008 316.4285,225.1757 315.5518,225.1382 315.1668,224.4881 315.0698,223.6624 314.3411,223.0789 313.4323,223.6052 312.0194,223.0154 311.4473,223.2484 310.7481,223.7909 310.588,223.8357 310.3148,223.7986 309.9505,224.0969 309.8081,224.5184 308.9095,224.8686 307.9562,224.0974 307.6329,224.1036 306.5318,224.7204 306.2793,225.031 305.7887,225.6343 305.4169,225.7557 305.1374,225.7188 305.0927,225.6399 304.8504,225.2131 304.2251,224.6629 303.691,224.752 302.8589,225.3365 301.8223,225.7708 301.1426,225.7939 300.9739,226.2361 300.7297,229.6537 299.8386,230.6168 299.7159,230.8739 299.5971,231.2543 299.6259,232.5528 298.9045,232.6819 298.7491,232.9044 298.4987,235.1339 289.8872,235.4488 289.1825,236.656 288.0475,237.6686 288.0217,237.4885 288.7378,236.8554 289.409,236.0864 289.7468,235.4408 289.6076,235.0782 289.6052,234.4921 289.8404,234.229 290.2734,233.4801 290.655,232.606 291.5651,231.3927 291.6013,231.0933 291.5001,230.7944 291.1748,230.5461 290.8234,229.8001 291.0451,229.2009 291.3423,228.7758 291.149,227.3555 291.2961,226.8558 291.6683,226.5306 292.2379,225.7795 292.7295,224.1577 293.2971,223.2325 294.0252,221.7584 294.497,221.4573 295.6621,220.4803 296.5447,219.9773 297.9779,217.7772 299.5704,214.5546 300.7539,211.9566 301.7862,208.9603 302.6734,206.8627 303.4295,203.9619 303.7154,204.0021 303.8548,203.6877 303.8036,203.6176 299.6169,197.9315 298.7405,195.4919 298.6377,194.4479 299.0269,193.4216 299.8499,192.7092 300.0829,192.6116 301.323,192.092 302.0679,191.3794 302.6868,189.2804 302.7817,188.2041 302.6635,183.5744 304.8837,181.8131 304.8814,181.7941 304.423,178.14 304.3511,176.6789 304.7499,175.7432 304.6392,174.6558 311.4117,167.9517 311.5426,167.8222 323.058,161.7368 323.0236,161.6414 328.6784,152.7728 329.6668,156.7105 330.3373,158.1325 330.6502,158.3548 332.5963,159.7371 333.121,160.3518 333.6485,161.727 334.4362,163.0062 334.7698,164.5248 335.1138,166.0899 335.0533,169.3844 334.8347,172.9147 333.1054,177.0423 332.8635,178.5446 333.292,179.7205 333.8537,180.509 336.6427,183.5759" stroke="black" /><polygon fill="none" points="40.4671,288.0926 64.5793,294.838 71.511,303.0366 71.5463,303.0784 87.2098,321.59 86.865,322.0016 86.6576,323.0603 87.7156,325.0282 87.8878,325.7679 88.5344,326.1331 88.5033,326.5596 88.0626,326.9416 88.377,327.5419 89.475,328.6519 89.6201,329.1537 89.5823,329.9356 98.6381,339.433 98.6118,339.5161 98.7052,339.6156 103.4761,358.9662 90.6283,369.5156 71.1014,371.5934 67.2762,377.0618 66.2034,385.8694 59.333,389.4292 56.836,390.3883 55.1641,390.6372 53.0803,390.6405 50.9965,390.6437 47.4884,390.3953 45.5234,390.6215 41.3163,390.3009 40.2526,390.3218 39.1888,390.3427 37.4448,390.086 34.5779,390.2984 34.5251,390.2906 32.9187,390.0477 30.0577,389.0633 22.4253,390.3306 14.9168,391.5766 11.1995,392.1936 0.0,394.0527 1.0307,391.9439 2.5759,388.2768 3.3837,385.8969 5.3296,382.5135 5.375,382.1984 4.8692,381.4869 3.7854,380.2462 3.6901,379.594 5.3857,378.2257 6.4294,376.8014 6.8229,376.0076 7.1909,374.5966 4.3031,370.4716 3.2388,368.7055 2.9075,367.5844 2.8326,365.8492 3.9499,358.2613 3.3798,354.4538 2.3075,354.1308 1.8177,353.7016 1.6766,353.3286 1.9254,351.2605 1.9262,351.2544 1.7798,349.0292 1.8829,348.4379 2.3952,345.4992 2.3661,342.8414 3.8403,337.49 3.7461,337.1172 3.3724,336.7919 2.324,336.4223 1.5994,335.6908 1.0848,334.6905 0.6834,333.1533 0.6104,332.0352 0.91,330.9862 4.2863,327.0563 6.435,325.6339 7.7606,325.1401 15.4645,325.2982 15.6001,325.3009 18.7013,325.3648 18.7439,325.365 18.8481,325.3654 24.6756,325.3866 25.4118,325.3373 26.8037,324.8357 28.3614,323.9229 32.9123,320.0217 34.1149,317.9696 34.3777,317.3117 34.5445,316.3711 34.9736,309.143 35.2312,304.8017 35.4184,301.6493 36.1142,297.8633 36.4223,294.1283 37.5687,292.4931 37.7415,291.1357 38.4103,289.7321 40.1943,288.0157 40.1931,288.0107 40.4671,288.0926" stroke="black" /><polygon fill="none" points="304.3511,176.6789 304.423,178.14 304.8814,181.7941 304.8837,181.8131 302.6635,183.5744 302.7817,188.2041 302.6868,189.2804 302.0679,191.3794 301.323,192.092 300.0829,192.6116 299.8499,192.7092 299.0269,193.4216 298.6377,194.4479 298.7405,195.4919 299.6169,197.9315 303.8036,203.6176 303.8548,203.6877 303.7154,204.0021 303.4295,203.9619 301.9667,203.7596 299.9472,202.888 294.2037,201.2523 293.1198,201.0965 290.0649,201.1455 289.3718,200.8813 288.7638,200.0658 288.2429,199.7523 286.5918,198.7587 280.0656,196.9194 278.6442,196.6051 277.6671,196.6271 276.7779,196.3466 275.7451,195.6387 274.7819,194.8251 274.1253,194.7392 272.6686,194.7447 271.6742,194.6064 271.1613,193.9916 271.5681,193.8041 271.9835,193.5059 272.489,192.8477 272.7485,192.1464 272.8927,191.7567 273.4608,191.3707 273.7942,191.4276 274.5831,191.0906 275.1142,190.576 275.5436,190.2973 276.5688,190.0031 277.4987,189.396 278.4581,188.8876 280.4758,188.4318 280.9942,187.7567 281.7163,186.2406 281.9669,185.5299 282.6558,184.8587 283.1949,183.6042 283.4957,182.1614 283.8323,181.6374 284.1238,181.544 284.6865,181.6611 284.9755,181.8075 285.4835,182.2253 285.7315,182.258 286.4957,182.0974 287.1689,181.8634 289.5623,180.0141 293.3145,176.3782 293.8641,174.4117 293.9388,174.1442 294.7524,171.2332 294.4526,170.6637 294.0645,170.1753 293.9214,169.5676 293.9127,169.0931 293.7298,168.565 293.6437,167.9714 293.1563,167.0374 292.4772,165.2998 292.4356,164.8918 292.6941,163.4801 292.703,162.8799 292.619,162.0606 292.3568,161.1273 292.1736,161.0042 291.8314,161.0624 290.506,161.7297 289.8652,161.8089 289.6497,161.7785 289.5956,161.6188 289.7628,161.2703 289.987,161.0387 290.9125,160.3437 291.7225,159.9987 292.4342,159.5568 292.803,159.1026 293.0074,158.5713 293.1875,158.4309 293.5909,158.3947 294.0305,158.4256 294.3113,158.5377 294.5285,158.5007 294.8949,157.3767 295.2438,157.0845 295.7465,156.8996 296.168,156.4448 296.6162,155.6815 297.1415,155.2003 299.0766,156.9749 300.9203,157.763 304.1876,158.7853 306.6339,159.1472 307.3328,158.5978 307.4274,158.4816 309.6665,159.2655 313.2501,160.5203 313.2516,160.5208 317.0109,161.8371 323.0236,161.6414 323.058,161.7368 311.5426,167.8222 311.4117,167.9517 304.6392,174.6558 304.7499,175.7432 304.3511,176.6789" stroke="black" /><polygon fill="none" points="76.1057,284.7597 86.95,275.2779 88.2941,276.014 89.2817,276.6602 91.1077,278.0178 92.3863,278.8423 93.805,279.5177 96.1251,280.4978 96.7335,280.889 99.6014,283.2113 101.9584,284.9604 102.6504,285.3789 105.4715,286.5577 105.7342,286.6161 106.1667,286.5536 107.2328,286.1566 107.9085,286.164 109.4361,286.6461 110.095,286.9995 111.1759,287.7586 111.455,287.8456 111.866,287.8296 112.7604,287.3851 113.326,287.5155 113.9635,287.8099 114.4668,288.1753 115.0904,288.7529 114.2134,289.5036 113.1458,291.0381 112.4261,291.7637 112.5531,294.1655 112.3298,294.9789 110.7893,298.2543 108.352,300.6115 108.2051,300.7536 108.5529,300.9668 108.6634,301.7983 109.2146,302.7645 109.5406,304.1983 108.7369,307.4183 108.5683,309.113 108.6416,310.9648 108.3524,312.3454 109.6731,315.0305 109.7425,315.7764 110.6554,316.7377 110.8989,317.5673 110.7515,318.1784 108.6293,320.4661 106.7197,321.941 106.1606,322.7555 105.3861,323.1066 105.3092,323.9906 105.4972,324.258 106.1669,324.5903 106.2483,324.8209 105.9106,328.1208 105.4576,329.117 104.9736,331.2855 104.1468,331.9984 104.1209,332.2666 104.6988,333.0551 104.0386,335.5266 102.4914,336.6309 102.0255,337.5026 100.7686,337.6677 99.0996,338.6255 98.7737,339.0018 98.6381,339.433 89.5823,329.9356 89.6201,329.1537 89.475,328.6519 88.377,327.5419 88.0626,326.9416 88.5033,326.5596 88.5344,326.1331 87.8878,325.7679 87.7156,325.0282 86.6576,323.0603 86.865,322.0016 87.2098,321.59 71.5463,303.0784 71.511,303.0366 64.5793,294.838 76.1057,284.7597" stroke="black" /></svg>