<?xml version="1.0" encoding="utf-8" ?>
<svg baseProfile="tiny" height="319.6038" version="1.2" width="500" xmlns="http://www.w3.org/2000/svg" xmlns:ev="http://www.w3.org/2001/xml-events" xmlns:xlink="http://www.w3.org/1999/xlink"><defs /><polygon fill="none" points="117.9287,35.3316 118.6933,34.5843 119.1233,33.9956 119.2839,33.5867 119.2425,32.2318 119.0183,30.8384 119.0025,30.7404 118.4677,27.4163 118.5275,26.582 119.26,25.0478 119.718,23.2973 119.6252,16.5534 119.4689,15.4628 118.5447,11.4115 116.3533,5.4528 116.223,4.7061 115.9787,1.3479 115.653,0.0 117.1508,0.6926 118.6078,1.199 121.6635,2.0211 124.7671,2.683 126.681,3.2752 128.8283,3.6657 130.2732,3.8095 131.5273,3.7616 133.5178,3.4828 134.5495,3.0863 136.063,3.0361 136.6136,3.2564 136.9333,3.5031 137.6755,4.2008 139.2555,6.0559 139.9983,6.6628 142.0284,7.922 143.0957,8.7341 144.922,9.7931 145.8146,10.1532 147.3012,10.9519 150.0392,12.7339 152.5876,13.6692 154.5274,14.1657 156.4538,14.3383 158.9754,14.273 161.055,13.9848 161.7704,13.9899 165.3257,14.4315 165.574,14.4623 166.6991,14.6022 166.9366,14.6957 167.0497,14.7402 167.1887,14.7949 167.8408,15.0517 169.0623,15.931 169.5024,16.1548 171.151,16.5945 172.8186,16.6571 174.4122,16.8385 175.2113,17.0495 176.2373,17.4453 178.1455,18.1816 179.1334,18.8906 183.2376,23.6203 184.4326,24.5362 184.4641,24.5603 184.5162,24.585 184.8143,24.7262 184.8225,24.7301 184.9096,24.7713 185.6273,25.1113 186.9758,26.1442 187.9405,26.3008 188.7,26.1054 189.5998,25.6125 191.7676,24.7247 193.2611,24.2911 194.7837,24.1438 195.6295,24.2503 196.1222,24.4135 199.7695,26.0443 201.1941,27.1216 201.9364,27.9743 203.0623,30.2665 203.5246,31.0354 203.7426,31.2448 205.1094,31.9642 208.6321,33.2791 210.7526,34.6378 213.6571,37.2291 216.2485,40.1413 217.0564,40.7954 217.986,41.2307 219.0865,41.5198 221.0929,41.6668 221.7077,41.841 223.435,42.5742 224.2863,42.7334 225.0331,42.4962 227.9479,39.5887 229.0011,39.1341 229.0298,39.1217 234.747,36.6521 235.2704,36.5004 237.0535,36.2692 240.0657,36.4528 240.9461,36.3691 241.6946,36.0877 243.1562,35.2535 244.7766,34.6687 246.3104,34.5096 250.0608,33.3091 250.9563,32.8294 253.8938,30.6527 254.9907,30.1585 257.0777,29.558 260.4405,28.9319 261.0284,28.7469 263.1652,28.0743 266.0472,27.3736 266.6498,27.1521 272.7377,25.8405 274.5349,25.602 275.4413,25.5952 278.9243,25.932 280.3905,26.308 277.9051,27.8332 276.2454,29.1906 276.0406,29.4793 275.8163,30.3912 275.5177,31.0115 274.0446,32.389 273.653,33.1776 273.0888,33.7523 272.8465,34.1701 272.1413,34.642 272.091,35.1722 271.6834,36.7177 271.1386,37.897 270.6924,39.2878 269.7543,41.0788 269.3388,42.2609 269.0942,43.417 269.3342,46.4007 269.5229,47.1888 270.1734,49.0086 270.2004,49.4476 269.5438,50.5659 268.628,52.5402 267.0575,55.2905 266.517,55.6927 266.1921,56.5558 266.5244,56.9768 266.5398,57.154 266.1686,57.8842 266.194,58.0664 266.686,58.3309 266.7358,58.4968 266.6523,58.6017 266.2872,58.6302 266.2299,58.7323 266.2842,58.8486 266.6415,59.0414 266.5172,59.6294 266.9103,60.1817 265.4177,60.193 263.681,60.3895 262.8323,60.4855 261.3424,60.5343 259.4788,61.582 257.9998,62.5438 257.1021,62.9374 257.5317,63.2386 258.0687,64.2152 258.1334,64.5494 257.9612,66.2424 257.678,66.7005 257.2212,67.128 256.7317,67.379 254.9109,67.7243 253.8945,68.1182 253.4603,68.3885 253.1212,68.7968 252.7423,69.61 252.552,70.3211 252.0405,71.1478 251.7866,71.8912 250.9131,73.5987 250.37,74.5157 249.9234,75.0739 249.5778,75.8525 249.1325,76.4178 249.0278,76.9898 248.5014,78.4351 248.1091,79.1312 247.8537,79.4013 247.1648,79.6937 246.5082,79.7063 245.7909,79.4287 244.8295,79.3496 244.0387,79.5052 243.3717,80.0294 243.0881,80.1165 217.2983,82.9625 216.7362,82.858 216.0581,82.8902 214.3449,83.3772 213.1921,84.1134 212.5799,84.8112 211.6091,85.2686 209.0305,87.1554 208.1742,87.4258 207.3907,87.5315 206.2736,87.8988 205.4994,87.9745 203.9784,87.9271 203.7194,88.0024 203.263,88.339 202.9944,88.2727 202.5633,87.7972 202.1652,87.5449 200.6258,86.9485 198.726,86.6453 196.5616,86.7652 194.0578,86.3752 191.1314,85.4625 190.0965,84.8643 189.6542,84.9066 188.2307,85.6985 187.9099,85.7817 187.1552,85.7577 186.4565,85.6227 185.0582,84.9656 184.033,84.896 183.4619,85.2745 183.4095,85.3092 183.4053,85.312 183.2718,85.4004 183.23,85.4282 183.1895,85.4692 183.1796,85.4792 183.1539,85.5053 183.1282,85.5313 183.0033,85.6579 182.9475,85.7145 182.8302,85.8334 182.5473,86.1189 182.3271,86.5384 182.16,87.2746 182.2001,87.6467 182.4181,87.9567 183.2955,88.415 184.506,91.0452 187.2639,98.3481 187.3571,99.159 187.1551,99.593 184.666,101.2882 183.9629,101.8585 181.8744,103.8193 179.9211,106.0692 178.8555,107.0712 178.0172,107.7018 176.2567,108.7752 175.7387,109.0065 175.2207,109.2378 173.2466,109.788 172.8112,109.8125 172.3757,109.837 171.8798,109.6915 170.8865,109.4 170.1097,109.0148 167.6951,107.4973 166.7846,106.925 165.761,106.5454 165.2071,106.4305 165.181,106.3833 164.9752,106.0114 164.843,105.9305 164.1554,105.9082 163.3723,105.5547 163.1941,105.6113 162.8285,105.9999 162.4545,105.9873 162.0919,105.7846 161.1785,105.9412 160.5752,105.5444 157.6852,104.133 156.3561,103.3389 155.917,103.3065 155.4566,103.6055 154.6208,103.7777 154.2174,103.5552 153.8986,103.0471 153.76,102.9746 153.4862,102.9426 152.7845,103.237 152.5026,103.2385 152.3486,103.1091 152.6337,102.7445 152.6112,102.4346 152.2051,102.4008 151.7065,102.0374 151.1657,102.6694 150.7331,102.7723 150.4944,102.702 150.3385,102.5427 150.2469,102.4492 150.1496,102.3497 150.058,102.2562 149.4623,102.1609 148.7584,101.7528 147.966,101.7356 147.6532,101.8839 147.0839,101.9789 146.7606,102.2543 146.1556,103.0514 145.3496,103.6483 144.8458,104.24 143.964,104.5723 141.3419,105.1358 139.7875,105.8645 138.9545,106.3627 138.6227,106.7292 138.073,107.6453 137.5728,108.0492 135.3369,108.8629 134.6068,109.3201 133.8989,109.5653 133.6345,109.8563 133.4369,110.4069 133.0889,110.6545 132.6424,111.2691 131.546,112.0394 131.2504,112.6559 130.1176,113.275 129.6833,113.8998 129.3525,114.0794 127.9258,114.5109 125.9798,114.5285 125.1721,114.3528 124.3205,114.0503 124.0053,113.8834 123.3082,113.2279 123.0974,113.1502 122.7536,113.3662 120.8627,116.339 120.0853,117.1529 118.7089,117.8868 118.1963,118.0495 116.3351,118.2792 115.5446,118.2411 114.4919,117.8614 112.9029,116.4818 111.5327,115.1222 110.6992,114.1326 109.4544,113.1218 108.395,111.711 108.0025,110.6667 107.6596,110.1389 106.1839,108.0881 105.6658,107.6175 100.2209,105.7311 98.881,105.4015 96.3514,105.0847 94.7201,105.2357 93.3128,105.128 92.6653,104.2008 90.8571,102.2243 90.5596,101.7287 90.0979,100.6988 89.4489,98.6001 89.4383,96.9493 89.5328,96.269 89.8425,95.2252 90.6037,94.0024 91.9724,92.4245 93.7153,90.0581 94.3679,87.9727 94.3343,87.2383 94.0179,86.464 92.8835,85.1872 92.2849,83.4549 92.1759,82.1305 92.6888,79.4309 92.6414,78.3592 92.2442,76.5074 90.101,72.3764 89.5652,70.8616 89.4009,68.9978 89.6556,65.7065 90.0969,63.4069 90.6852,61.9395 91.6292,60.8864 94.8164,57.9194 95.1045,57.6378 95.2285,57.5166 100.8747,51.9986 117.9287,35.3316" stroke="black" /><polygon fill="none" points="424.9784,56.7259 426.2138,59.5043 427.5711,61.9883 429.0203,63.0451 431.1099,63.2684 432.1566,63.2816 433.9097,62.6562 436.1728,60.805 438.6627,57.723 440.8458,54.2957 441.9931,54.6935 442.6749,54.6215 443.1822,54.4411 443.5601,54.18 444.5198,52.9469 445.5602,52.2241 446.4571,51.2154 446.8951,51.6584 448.5667,52.966 450.6067,54.9171 452.5994,56.2092 456.064,56.461 460.3142,56.2638 462.3313,55.9869 464.8057,54.3483 466.2989,52.8007 466.87,51.9485 468.0165,48.2956 469.0444,46.8153 470.2255,46.072 471.318,45.8344 472.4298,46.0242 474.4907,47.1614 474.6492,47.2487 475.3453,47.6324 477.514,49.3917 479.2093,50.6413 479.7834,50.9644 480.5076,51.217 480.839,51.3326 482.2279,51.2492 482.8556,51.1076 484.7068,52.8507 486.8984,55.6118 487.9174,56.5121 488.8623,56.9028 490.0335,56.9939 491.3284,56.5841 493.558,56.6902 494.9513,56.2267 496.1148,55.5603 497.2675,57.6005 497.8394,58.9687 498.7843,60.6057 499.7636,63.3572 500.0,64.1974 499.5645,66.1257 498.9497,66.9951 496.9056,69.2856 496.2253,70.1676 494.4736,72.7852 492.0518,76.1208 491.7275,76.7344 491.1173,78.4565 490.9404,80.4466 490.5934,81.0325 489.595,81.9128 488.667,83.5622 487.8354,86.8121 486.8322,89.2163 486.4312,89.8718 485.534,90.7164 484.7643,91.2322 483.5273,91.8542 483.2059,92.1373 482.9132,92.5664 482.6367,93.5542 482.3854,93.9537 481.3333,94.7563 480.7281,95.4699 479.797,96.0644 479.3453,96.5623 478.7999,97.4627 478.3235,97.9535 478.2331,98.4791 478.2687,98.9597 477.2429,99.0411 476.478,99.3431 474.4513,100.4341 471.221,102.4877 470.3455,102.9129 467.3346,103.8886 465.3756,104.7387 464.043,105.1841 461.7811,106.1055 458.0232,107.7261 456.2108,107.988 455.7715,107.8953 455.4031,107.8203 454.74,107.8834 454.3689,107.4601 452.722,106.8063 451.801,106.6685 450.4122,106.8226 448.1184,107.2423 446.7499,106.9052 445.2116,106.7917 444.2297,106.8774 441.9587,107.6561 441.1528,107.7405 440.364,107.3869 439.0981,106.1187 438.7468,105.9765 437.4106,105.7798 434.6027,104.066 433.8351,103.7662 432.4627,103.5244 431.0805,102.9292 429.9863,102.7698 427.9208,102.181 425.3218,102.2082 423.1584,102.3922 421.544,102.0958 420.9788,101.8952 420.5905,101.653 418.4335,100.0172 416.6082,99.4657 415.6744,98.7526 414.6432,98.3902 414.1481,98.3474 413.7188,98.4176 412.1101,99.0817 411.3978,99.0525 410.9936,99.1369 410.4341,99.3473 409.5253,99.9271 408.602,100.2534 407.7478,100.2651 404.3401,99.9059 403.5515,99.6113 402.2015,98.7765 401.1784,98.3607 400.0663,97.6775 399.4674,97.4431 397.1206,97.101 396.2682,97.1082 394.2667,96.9059 393.2945,96.9306 392.723,97.1738 392.2605,97.8335 392.1508,98.509 392.304,98.9731 393.2762,99.866 393.9132,100.4509 394.0587,100.7986 394.0893,101.0847 394.1033,101.2149 394.1036,101.2178 394.03,101.6179 393.7266,102.0536 393.4239,102.2951 393.357,102.3484 392.3274,102.61 391.425,102.4728 390.1367,102.1202 389.2056,102.3677 387.7121,103.1031 387.2368,103.2263 386.579,103.2585 385.3634,103.0402 383.6513,103.0879 382.1815,102.9808 380.6119,103.3951 380.1407,104.1163 379.6806,104.511 379.1963,105.3018 378.5862,105.8079 378.1392,106.0341 377.4349,106.1077 376.9387,106.3809 374.3707,106.6252 372.2361,107.021 370.6467,107.4693 368.2855,108.3209 366.7004,108.4215 365.4564,108.2787 364.9469,108.0423 363.8379,108.0152 362.2384,107.6044 361.8308,107.2847 361.4597,107.1745 360.8004,107.1357 360.3067,106.684 359.6584,106.5127 358.9887,106.0647 358.0333,106.0158 357.6063,105.9143 356.6308,106.1311 356.4357,106.0782 355.4657,104.6801 355.4056,103.8887 354.8421,103.1849 354.6069,102.9881 353.8834,102.8693 353.601,102.7428 351.5523,101.3764 349.6988,101.2563 349.1869,101.3684 348.193,101.8841 346.4816,101.7868 345.9801,101.8913 346.0304,101.6269 346.5405,100.6626 346.5933,100.2913 346.4173,99.2569 346.4282,98.3862 346.0941,97.8182 345.9526,95.1811 346.0531,94.5527 346.3395,93.7477 346.4428,93.1157 346.4263,92.4994 345.7629,90.8019 345.0605,89.8397 344.5829,88.5224 343.8073,87.8929 342.5817,86.4497 341.3116,85.3298 340.4798,84.2042 340.0985,83.4433 339.4586,82.4848 339.1551,82.1831 338.059,81.4205 336.9824,80.9364 335.2716,80.3872 335.2914,74.9493 336.9832,71.6214 337.9074,70.1576 338.2005,69.7867 338.5539,69.3395 338.6978,68.8611 338.8081,67.116 338.6127,65.5211 338.6462,62.8766 338.4064,61.7469 338.2239,61.3944 337.4075,60.6399 334.3473,59.3843 333.6178,58.8974 332.6447,58.0389 331.409,58.4155 330.5192,58.3906 329.6665,58.1863 330.8367,56.9431 332.9056,54.3935 334.7343,53.5773 335.0179,53.3338 335.229,52.5383 335.754,52.0198 337.5619,51.2377 338.5061,51.0043 341.8225,50.7395 343.4179,50.0057 344.2755,49.8909 345.0321,49.5972 345.502,49.1474 346.4591,47.825 347.4106,46.2667 348.2815,45.4679 349.4017,43.3251 350.5009,41.8468 350.7634,41.6481 352.4635,41.0518 354.0967,40.2392 354.7972,39.7151 355.4606,38.9887 356.366,37.6927 357.2713,36.3967 357.561,35.3617 357.7014,33.8193 357.4781,32.4492 357.5045,30.7409 357.6669,29.3071 358.4056,28.0746 358.7619,27.8272 359.181,27.2538 359.3806,26.7228 359.5108,26.2054 359.6997,23.8222 360.0646,21.8591 360.626,20.0413 360.9482,19.8277 361.382,19.5401 361.5575,19.2139 361.6319,18.7456 362.3514,18.1166 362.5583,17.4362 362.6884,17.3149 363.6042,17.0423 364.0858,16.7141 364.5191,16.0351 365.2003,15.5567 365.1879,15.0229 365.2916,14.8991 365.9565,14.6226 366.5172,14.2642 367.3384,13.409 368.5492,13.1285 369.388,13.0297 370.1772,12.6941 371.0371,12.5109 372.5476,12.5178 374.7524,13.0102 376.1651,13.639 379.5204,14.8214 380.8859,15.0623 382.8889,14.9237 385.1573,15.3235 386.1186,15.2275 387.0313,14.9127 390.4298,14.6733 392.765,14.2754 393.6194,14.0204 396.4446,15.9431 399.263,17.707 400.6726,19.0227 400.8112,19.1882 401.2229,19.6802 403.5217,23.1676 404.3988,24.7399 406.0848,27.1484 408.1828,31.173 409.6659,33.4814 412.61,36.6603 413.8519,37.682 414.589,38.4385 415.5058,40.0405 417.1771,42.5356 419.7006,45.1995 421.0608,48.181 421.7445,50.1977 422.8161,51.9988 423.6235,54.0004 423.6666,54.1074 423.8406,54.539 424.3263,55.2593 424.9784,56.7259" stroke="black" /><polygon fill="none" points="89.408,176.0204 89.2201,177.0644 89.1886,177.2394 88.9138,177.709 88.771,177.953 88.6556,178.1503 88.1226,179.0612 88.0648,180.0841 87.7479,181.697 87.7277,182.3984 87.6841,183.9115 88.5217,185.599 88.6635,186.3147 88.6406,187.1854 88.6249,187.7852 88.9776,189.548 88.7534,190.2183 87.9426,191.3659 87.1516,192.9126 86.7182,193.9965 86.3366,194.55 86.1663,194.9818 86.0527,197.1498 85.9496,197.5232 86.0556,199.4586 86.6258,201.3744 87.8422,203.8669 89.6638,206.2146 89.8332,207.1835 91.2985,209.3811 91.4831,209.9316 91.6004,211.1352 92.1103,212.0597 92.4366,213.0348 92.8265,213.3146 93.0331,213.7124 92.8416,214.2933 92.9273,214.5414 93.1003,214.6602 93.7658,214.6962 93.9877,215.1697 94.8651,215.9023 94.8928,216.2417 94.7203,216.7509 94.7996,217.0882 94.5551,217.6182 94.5767,217.7872 95.0536,217.767 94.9829,218.2685 95.0421,218.47 95.7537,218.9471 95.9672,219.4694 96.0224,220.0394 95.9849,220.8082 95.667,220.9387 95.298,220.8737 95.1254,221.0945 95.1954,221.3378 95.4102,221.5798 95.2902,221.9853 95.5661,222.5914 95.503,223.1689 95.2643,223.555 95.0653,223.7095 94.4137,223.8014 94.309,223.9125 94.2951,224.1736 94.5873,224.4268 94.6211,224.6052 94.5583,226.0955 94.3234,226.4167 93.454,226.4509 93.0012,226.7963 92.9185,226.982 93.1016,227.5603 92.9001,228.2171 92.2726,228.7168 91.7619,228.4751 91.5241,228.6321 91.0815,228.6167 90.6728,228.3727 90.5533,228.418 90.4457,228.7565 90.1823,228.9486 89.8067,228.7248 89.4809,228.7506 89.2516,229.0036 88.814,229.4864 88.5412,229.7885 87.7612,230.1711 87.0288,230.5305 87.0553,230.9472 87.1764,230.9971 87.5141,230.8101 87.6347,230.8708 87.8227,232.0267 87.3857,232.8906 87.0937,233.0551 86.3265,233.0295 86.2268,233.1027 86.1991,233.3401 86.3793,233.6716 86.3475,233.9055 86.2182,233.9907 85.909,233.9161 85.7252,234.0825 85.8952,234.4062 85.7537,234.81 85.7693,235.0366 86.04,235.2233 86.0639,235.3787 85.9547,235.623 86.2552,235.7196 86.236,235.9728 85.7741,236.1244 85.7646,236.3773 86.0779,236.7851 86.1732,237.4622 86.5141,237.5095 86.7984,237.3058 86.9469,237.2971 87.1329,237.4217 87.1934,237.7543 87.9162,238.3846 88.3768,239.2114 88.9354,239.8662 89.2797,240.0257 90.1183,240.1391 90.3699,240.2727 90.4271,240.5561 90.0036,240.7394 90.1344,241.0558 90.7052,241.1252 90.8323,241.5702 90.5185,241.9935 90.4736,242.2163 90.7783,242.9371 90.6551,243.7057 90.9783,244.1589 90.9439,244.3571 90.5437,244.7245 90.35,245.1977 90.2306,246.109 90.2554,246.8178 90.1772,246.9737 89.9815,247.0157 89.5845,246.8745 88.9335,247.2476 88.5681,247.1582 88.2063,246.7748 87.916,246.7479 87.6472,247.1577 87.4555,248.4124 87.2998,248.6397 86.9635,248.629 86.6947,248.1736 86.3383,247.8224 86.1882,247.7754 85.9425,247.8716 85.8534,248.0657 85.8657,248.4075 86.1265,248.8578 86.1356,249.029 85.8214,249.0956 85.8527,249.3046 86.0041,249.3973 85.9533,249.6195 85.7124,249.6508 85.4265,249.5132 85.2948,249.735 85.5773,250.3148 85.2211,250.7074 85.2406,250.8306 85.3673,250.8964 85.8368,250.7984 86.0196,250.8575 86.0981,251.1993 85.6966,251.601 85.283,251.7264 84.9279,251.9968 84.7653,251.9566 84.496,251.5731 84.2483,251.5625 84.0991,251.661 83.8671,252.249 83.3136,252.6478 82.973,252.5079 82.7784,252.5499 82.4643,252.8438 82.2442,252.9048 81.4934,252.8372 80.8798,253.0147 80.29,253.6144 79.6128,254.6282 79.3171,254.88 78.8239,254.97 78.5243,255.4268 78.3107,255.377 78.3315,254.9934 78.0969,254.9948 77.9474,255.1069 77.5407,254.8834 77.2898,254.9313 76.8299,256.7116 76.1563,257.2473 75.9094,257.6059 75.8925,257.824 76.2721,258.4214 77.5609,259.4062 77.8862,260.2537 78.2317,260.8292 78.201,261.2284 78.0031,261.7997 78.0729,262.4518 77.9946,263.3696 77.8831,263.5628 77.596,263.6687 76.4276,263.7671 75.1759,263.6496 74.626,263.714 73.886,263.9999 73.3817,264.5126 72.5534,266.6995 72.2459,267.9374 71.8969,268.6073 71.8497,269.1537 71.4807,269.7714 71.4703,270.8895 71.0862,271.7226 70.9825,272.1445 71.0047,272.5967 71.0102,272.7094 70.021,273.4079 67.917,275.6517 66.2936,276.6937 65.4692,277.1322 62.5449,277.9032 62.1146,278.2143 59.8115,280.2575 59.5588,280.4817 58.5779,281.7136 57.1709,283.4807 55.1007,285.7258 53.2164,287.0397 50.6447,288.6041 49.1029,289.8312 47.3216,291.249 47.0186,291.577 46.5874,292.0438 46.5795,292.0524 46.163,293.3378 46.0939,293.6503 45.7665,295.1309 44.9679,297.3382 44.3472,298.1143 44.0739,298.2232 43.8005,298.3321 43.0108,298.2911 42.3817,298.0001 42.0838,297.6302 41.5802,295.3738 40.9747,291.4286 40.759,290.8191 40.4798,290.4108 40.1664,290.1646 39.3859,289.8429 35.4726,288.7448 33.4776,287.6299 32.7252,286.6205 32.5588,285.8159 32.5899,285.3524 32.6572,284.3493 32.6779,284.0411 32.8723,283.7703 33.1463,283.3888 34.0391,282.1453 34.3969,281.647 34.915,280.9255 36.1422,279.2163 36.1932,279.1453 37.1451,277.4844 37.3446,276.9368 37.4805,276.5635 37.667,275.4976 37.6803,274.6831 37.5426,274.0336 37.1589,273.4515 36.6834,273.0079 33.6213,270.8908 32.49,269.9173 32.7905,269.8631 33.2005,269.7891 33.4637,269.6509 34.0057,269.126 34.3982,269.0474 34.9273,269.1394 35.7625,269.8004 36.3224,269.8229 36.6135,269.6593 36.878,269.2511 37.8852,267.6964 37.9074,267.6804 38.5924,267.1882 38.807,266.8011 38.9101,266.6151 39.0405,266.3799 39.1416,266.1976 39.1709,266.1705 39.5885,265.7843 39.613,265.7165 39.6996,265.4771 39.5903,264.8301 39.8442,264.3338 40.1404,263.755 40.4459,263.6053 41.4106,263.6887 41.9717,263.8405 43.1348,264.7453 43.6079,265.3858 43.9029,265.6138 44.3446,265.6913 44.9726,265.9823 47.283,268.2821 47.9677,268.7434 49.5487,269.1423 49.7491,269.1929 51.4742,269.234 52.6808,269.491 55.782,269.2925 56.4057,269.1201 57.294,268.6136 57.8944,268.0305 58.2513,267.5462 58.9969,266.5343 59.0952,266.1413 59.9882,264.4136 60.6834,262.0631 60.7364,260.8139 60.4676,259.0584 60.5916,258.0327 60.1444,255.9609 59.6414,254.585 59.3206,253.9744 58.0072,252.0704 57.4812,251.0925 57.0042,249.7387 56.6474,248.7262 56.3387,248.1035 54.9755,245.8609 54.367,244.4532 54.1014,244.0848 53.6689,243.7266 53.4684,243.1471 53.4372,242.3595 52.7653,239.356 52.9365,238.2997 52.8851,237.8076 52.5955,237.0717 51.8844,236.2324 51.6495,235.7908 51.4751,234.6487 51.3313,234.2412 51.1244,233.9404 50.3928,233.3265 49.6277,232.4758 48.3878,230.1572 47.8039,229.9516 47.1968,229.9562 46.3161,230.1254 46.0141,229.9937 45.4361,229.3961 45.2591,229.0672 45.0467,228.2356 45.1702,227.3825 45.2659,227.2574 45.6772,226.7196 45.8059,226.5512 45.9294,226.3898 45.9505,226.3194 46.043,226.0115 45.8954,224.1549 45.755,223.5487 45.7056,221.2533 45.4852,218.5092 45.4326,218.0738 45.3012,217.8041 45.5058,214.5767 45.7055,213.4554 45.84,212.6999 47.3995,209.6643 47.7223,208.5184 47.8576,207.0287 47.5875,206.0009 47.3373,205.4819 46.8297,204.4293 45.6666,203.0151 44.718,202.0441 43.3015,200.8259 41.6701,199.82 39.105,198.2384 38.6299,197.9452 38.565,197.9051 38.4241,197.7339 38.1079,197.3493 38.0143,195.9335 37.8282,195.3273 37.6228,195.0138 37.3961,194.9106 37.1096,194.9212 36.6047,195.1938 35.9108,195.1695 35.2703,195.4539 35.0122,195.4498 34.0235,194.9701 33.779,194.235 33.8247,193.2605 33.8522,192.6831 33.3717,191.9273 33.1475,191.5747 33.1886,191.4058 33.1989,191.3637 33.4266,190.4288 33.4117,189.5713 33.8182,188.8381 33.7096,188.244 33.8201,187.9224 33.8366,187.0503 34.3463,186.4647 34.8559,185.8792 34.9515,185.5708 34.8789,185.2889 34.4382,184.7258 34.4112,184.6912 34.3236,184.359 34.0575,183.3496 34.1481,182.87 34.2228,182.475 34.3998,178.5245 34.3907,178.4902 34.2582,177.9938 34.2779,176.2311 34.5812,175.3519 35.3753,174.047 35.3761,173.9993 35.3821,173.6717 35.384,173.5687 35.6768,173.2767 35.684,173.1172 35.6954,172.868 35.7046,172.6646 35.9158,172.4998 35.921,172.2452 35.9231,172.1395 35.9261,171.9936 36.2082,171.5771 36.1007,171.1687 35.9669,170.6604 35.9324,170.0265 35.6793,169.1714 35.6232,169.0445 34.1845,165.79 32.7598,163.7616 30.8058,161.6868 30.104,161.1982 28.8875,160.7293 27.5771,160.4977 26.0119,159.9771 25.3726,159.7644 25.3479,159.7537 24.8037,159.5167 23.8624,158.8579 23.1577,158.5356 22.0705,158.419 21.514,158.2283 20.0392,157.226 19.2296,156.26 19.1414,156.1549 19.0849,156.0876 17.9875,154.7803 16.7524,153.6372 15.6173,152.8881 14.2097,152.1759 10.9192,149.6716 8.0463,148.2809 5.5557,146.4706 4.1155,145.1595 3.5849,144.4779 3.2501,143.8245 2.2169,140.931 2.0236,140.0159 1.9079,138.0698 1.692,137.4629 1.7093,137.2782 1.785,136.4751 2.0111,134.0745 2.0902,133.6929 2.3281,132.5443 2.3602,131.6023 2.2904,131.0665 2.2815,130.998 2.0522,130.3332 0.5192,130.0132 0.4453,129.8022 0.4572,129.309 0.4666,128.9217 0.0154,123.4359 0.0,123.249 0.0674,123.2473 4.3641,123.1342 6.479,123.2128 7.4945,122.9029 8.498,122.0642 8.9614,121.0898 9.2761,119.3261 9.2558,116.7122 8.7472,114.912 8.6796,113.6451 8.859,112.7754 9.1759,112.124 9.8687,111.5475 12.2652,110.7846 14.1982,110.4895 18.4627,108.7232 20.086,107.894 21.4528,107.1963 24.4955,105.235 26.503,103.4309 27.748,102.1845 28.7963,101.4141 29.9821,100.8214 31.5164,100.7145 33.106,101.0446 34.1336,101.5005 34.9133,102.5602 35.1748,102.7268 38.1066,102.4373 39.3451,102.1606 39.9167,101.8862 40.4976,101.4362 41.0872,100.7361 41.6419,99.6421 42.2761,99.084 43.9646,98.5539 45.8298,98.5396 47.199,98.812 48.3187,99.1787 49.9379,100.079 51.6054,101.4705 52.704,102.9027 53.9822,104.8893 54.833,106.5929 55.2175,108.5127 54.7816,111.0638 54.9499,112.1891 55.7834,113.5628 56.3133,114.2037 56.8462,114.6612 58.4051,115.473 59.5178,115.893 60.6402,116.1867 63.2663,116.5092 66.7329,116.7934 70.7865,116.8833 71.9412,116.7255 73.0339,116.263 73.5167,115.5069 73.6123,114.0422 73.442,110.3916 73.1972,108.5309 73.3404,108.2268 74.4319,107.6754 75.3967,106.9764 78.8562,105.4791 80.304,105.0202 80.6572,105.0043 83.3912,105.8881 84.8231,105.2771 86.4532,105.0373 88.0355,104.6907 88.8595,104.6162 92.0693,104.6767 93.3128,105.128 94.7201,105.2357 96.3514,105.0847 98.881,105.4015 100.2209,105.7311 105.6658,107.6175 101.1183,111.0117 98.9658,112.4667 98.1187,113.2285 96.497,115.2164 96.4133,115.6699 95.7844,117.2449 95.716,118.4354 96.0435,119.6691 96.9387,120.9816 97.7449,122.4863 97.9571,124.0382 98.1457,124.5526 99.1122,125.2917 99.1623,125.5803 99.2124,125.8689 98.9771,126.8612 98.1258,127.9071 97.4471,129.1671 97.0724,130.4822 96.072,132.6768 95.0313,135.5254 94.934,136.1636 95.0565,137.5242 95.9854,139.4633 97.0806,140.9688 99.0855,142.6048 99.9726,143.2024 102.7111,144.6534 103.1808,145.0531 103.6505,145.4527 104.3274,146.3777 104.4633,146.7019 104.5499,146.9087 104.287,148.6118 102.9012,150.0801 102.617,150.4632 102.026,151.2599 101.0448,152.8148 100.8056,153.1939 99.5495,155.1843 98.9037,156.2076 98.1006,156.8743 96.2689,158.0918 94.192,159.8008 93.6177,160.4744 93.176,161.1986 92.9071,161.6395 92.8248,161.8303 92.4835,162.6206 92.4824,162.6241 92.0367,164.0365 91.82,165.1548 91.8492,165.4429 92.0998,167.8882 92.0612,169.1313 91.5744,170.4447 90.6739,171.8528 89.816,173.7534 89.408,176.0204" stroke="black" /><polygon fill="none" points="345.0227,173.4163 345.4342,174.02 345.7337,174.2338 347.1901,174.7664 348.6807,175.462 349.1353,175.7824 349.9858,176.7158 350.9307,177.9873 351.3517,178.7546 352.309,179.6036 353.6854,180.4861 354.2298,181.0901 354.8568,182.3265 355.2679,184.0183 355.2454,184.7084 355.2283,185.2315 354.7369,186.8749 353.3808,189.0575 351.3769,191.3375 351.1746,191.5677 350.9053,191.8107 349.5205,192.5208 349.4566,192.6456 349.2276,193.0952 348.8489,193.3029 348.7523,193.3559 348.4155,193.5406 347.6014,193.8648 346.5976,194.5472 344.4103,195.8199 343.8584,196.1933 343.2814,196.7698 342.214,197.5043 340.8376,198.2705 338.5063,200.1194 335.0589,201.5966 333.6346,202.1214 332.8543,202.5609 331.6566,203.4588 328.7978,206.1075 328.0032,207.1493 326.5433,209.6676 326.3113,211.786 325.9626,212.9906 325.4089,213.7466 324.8053,214.2595 324.6991,214.4948 324.6003,215.6566 323.8449,216.8638 323.5776,217.5674 322.4925,219.5347 321.7142,220.575 321.0271,221.1111 320.012,221.6484 318.0465,222.4149 317.5063,222.812 316.4869,223.8767 315.6332,225.1868 315.3012,226.3781 315.2571,227.5035 315.3733,228.3276 315.777,229.4944 316.6239,231.3433 316.8695,232.2446 316.7718,232.952 315.7743,234.4657 314.7275,235.2719 313.7635,236.4178 312.4728,237.4327 311.051,238.1747 310.5335,238.5403 309.8673,239.5857 309.5523,239.7129 307.7746,239.8257 307.1332,240.2252 306.6426,240.9229 306.5196,241.4714 305.6257,242.062 305.3177,242.5724 304.8893,243.0483 303.8864,243.5204 303.6175,243.9726 303.5228,244.7032 303.0324,245.1655 302.4317,246.1776 302.3204,246.7679 302.4099,247.1845 302.6946,247.751 303.9168,249.4522 304.0135,249.7976 303.9819,250.1662 303.6497,250.5986 302.9975,250.977 302.7579,251.3131 302.5937,252.0169 302.3832,253.98 302.5839,255.1177 302.6875,255.485 302.8389,256.0213 303.0939,256.925 303.8695,258.3898 304.6451,259.8546 304.794,260.7492 304.7386,261.3461 304.5049,262.1408 303.7994,263.5588 302.6576,265.0157 301.7266,265.6258 297.7891,267.5316 297.3713,267.9065 297.2182,268.459 297.4565,269.1891 297.769,269.6261 298.4783,270.2737 299.2166,270.6766 299.5291,270.7561 299.8416,270.8356 300.7086,270.8847 302.1282,270.8245 302.3361,270.8563 302.5441,270.888 302.7699,271.0456 302.8933,271.2982 302.8853,271.7324 302.3575,273.5588 302.2761,273.6226 302.1947,273.6865 301.8369,273.703 300.9864,273.6161 300.3447,273.5621 300.1799,273.6016 299.7561,273.703 298.6217,274.3057 297.8711,274.5556 296.8597,274.9803 296.0881,275.0443 294.9188,274.8114 293.6315,274.4646 292.4382,274.2687 290.7961,274.0149 289.7277,273.4572 289.0131,273.0424 287.7848,272.026 286.8613,271.0665 286.1048,270.206 285.7635,269.9552 285.4222,269.7043 284.6066,269.4994 283.0315,269.0817 281.5563,268.9487 279.3296,268.5959 277.5796,268.5559 276.3173,268.6049 274.5993,268.5649 272.9712,268.467 272.3855,268.3621 271.881,268.2717 271.7999,268.2571 271.7665,268.2579 271.6596,268.2603 271.604,268.2616 271.4081,268.2661 269.853,268.5789 269.0254,269.0956 267.6462,270.4019 266.8507,271.3594 266.19,272.4747 265.1196,274.0169 264.8342,274.3686 264.0612,275.3211 262.8339,276.1826 260.7251,276.9642 259.9865,277.386 259.5648,278.1545 259.5168,279.07 259.5718,280.1144 259.7907,281.4287 259.5418,282.3422 259.3649,282.8539 259.3079,283.3596 259.6647,284.1401 260.0525,284.9207 260.4063,285.6038 260.7601,286.2869 261.1999,286.9046 261.6396,287.5222 261.8425,288.3148 261.4667,289.1853 260.7581,290.2027 260.2924,291.1951 259.8816,291.6959 258.7802,292.2306 258.6437,292.2622 258.3485,292.3305 257.8519,292.4448 257.1449,292.6074 256.8933,292.6653 254.7775,293.3349 253.7261,293.7967 252.7536,294.2594 251.8302,294.7232 250.6779,294.6859 248.525,294.5113 248.3173,294.4478 247.2947,294.1355 246.846,293.8047 246.44,293.5061 246.034,293.2076 245.4298,292.7633 244.8251,292.3195 244.2406,291.7655 243.4829,291.0472 242.0267,290.2277 240.4616,289.2063 238.4827,287.5452 237.0995,286.206 236.114,285.4334 235.1866,284.397 234.8642,283.7554 234.5419,283.1137 234.0862,281.5786 233.5005,279.6777 233.0138,278.5603 232.702,278.224 232.3901,277.8877 231.2678,276.8203 230.0365,275.565 228.3774,273.9759 226.9462,272.7946 225.507,271.7601 224.1108,270.7057 222.4817,269.5084 221.8301,268.477 221.4533,267.4945 221.0336,265.7076 220.9876,264.6791 220.8587,262.8212 220.7437,262.0596 220.339,261.7478 219.702,261.706 219.5073,261.6932 219.4565,261.6898 218.7386,261.7461 218.411,261.7718 217.1008,262.3035 216.2952,262.5074 215.1639,262.8782 214.1505,262.9981 213.106,263.0191 212.0926,263.087 211.479,263.3159 210.2537,264.0425 209.0393,264.6282 207.4642,265.5736 206.5897,266.0304 205.6553,266.635 204.4489,267.2427 202.9418,267.9883 201.8764,268.7628 200.5771,270.0621 200.2614,270.3818 199.3632,271.2913 199.2209,271.4353 198.5463,272.3568 197.9606,273.2343 197.4555,274.0689 197.357,274.2317 197.0028,275.018 196.6939,275.7037 196.4736,276.1738 194.9283,279.4718 194.798,280.0018 194.5774,280.4686 194.4119,280.8189 194.0683,281.5455 194.0329,281.6205 191.6691,285.1221 191.1626,285.6925 190.9589,285.922 190.7702,286.0793 189.8308,286.8622 188.9078,287.4743 188.2683,287.8983 187.2771,288.4282 186.6293,288.7745 185.4032,289.43 184.4413,289.9443 183.8655,290.2521 182.2273,291.042 182.0755,291.1152 182.0589,291.1216 182.0213,291.1359 181.5599,291.3125 181.2864,291.4172 180.9611,291.5417 180.8898,291.569 180.8863,291.5704 180.8794,291.573 180.3306,291.6432 179.2407,291.5565 178.8184,291.5229 176.8562,291.5198 176.0803,291.6235 175.1551,291.9255 174.4818,292.2801 173.5628,293.0141 173.3828,293.1579 173.3528,293.1984 172.8597,293.8639 172.2584,295.0887 172.2412,295.1084 171.9409,295.4529 170.6517,296.1229 169.9012,296.2114 169.758,296.2283 169.7118,296.2338 169.5082,296.2578 168.9393,296.1997 168.896,296.1953 168.8868,296.1943 168.1717,295.9038 165.2018,293.5057 164.937,293.292 164.0162,292.7265 163.6919,292.5273 163.4342,292.4495 162.9844,292.3137 162.5841,292.2796 161.9236,292.2233 160.1911,292.3624 159.8228,292.2985 159.0649,292.1669 158.2017,291.8321 157.9936,291.8082 157.9037,291.7979 157.899,291.7974 157.7855,291.7844 157.708,291.7977 154.4503,292.3588 154.4419,292.3602 154.4298,292.3623 154.3944,292.3684 154.3608,292.3742 153.9138,292.4512 153.8534,292.4617 153.7931,292.4723 151.064,293.1497 149.6656,293.9606 148.671,294.4189 146.5428,294.6362 146.5397,294.6371 144.8643,295.1448 144.8536,295.1499 142.6454,296.2101 141.1123,297.3432 141.1047,297.3488 141.0964,297.3549 140.9458,297.4462 140.9077,297.4693 140.5666,297.676 139.5103,298.3162 139.0269,298.7339 138.8257,299.026 138.4961,299.8538 138.4771,299.9015 138.4232,301.4626 138.3911,301.7107 138.2256,302.9915 138.1165,303.2808 138.0424,303.4769 137.4142,304.3327 136.8594,305.0883 136.1566,305.8384 135.25,306.806 133.0296,308.475 132.1443,309.002 132.1252,309.0133 132.0847,309.0375 129.3698,310.6536 128.9759,310.7687 128.7129,310.8456 128.1602,310.8592 127.495,310.8755 126.776,310.4531 126.6112,310.3563 124.9512,308.753 124.2921,308.2809 123.6373,307.812 123.2798,307.6459 122.6541,307.6373 122.3784,307.9126 122.3372,307.9538 122.1215,308.4352 121.8529,311.8437 121.4903,313.2456 121.357,313.5296 121.3271,313.5931 121.2973,313.6566 121.2964,313.6586 121.2626,313.7306 121.2594,313.7373 121.2231,313.8147 121.1927,313.8794 121.1867,313.8921 121.0748,314.1303 120.7859,314.5319 120.7799,314.5403 120.4846,314.9505 119.8753,315.524 118.2582,316.4518 117.6808,316.783 117.1506,316.9173 117.1175,316.9257 116.6204,317.0516 116.063,317.0447 116.0456,317.038 115.9543,317.0031 115.6259,316.8776 115.5363,316.8433 115.2013,316.5784 113.6745,314.6668 112.6097,313.5152 111.7375,313.0359 111.7053,313.0319 111.7006,313.0313 111.5884,313.0174 111.2674,312.9777 111.1458,313.0132 110.8303,313.1051 110.5317,313.4191 110.2929,314.2733 110.4526,316.9898 110.3482,317.3911 110.2197,317.8851 109.973,318.268 109.6611,318.7523 109.3246,319.0163 109.1072,319.1869 109.0959,319.1957 108.4801,319.4542 108.3944,319.4902 108.3923,319.4911 107.3867,319.6038 106.8258,319.5866 105.9763,319.5605 105.8273,319.4864 105.6729,319.4097 104.153,318.6543 103.6501,318.4043 103.4862,318.3229 103.4846,318.3224 103.3408,318.274 101.9062,317.7916 101.5926,317.6861 101.4966,317.6538 101.449,317.6378 101.4421,317.6355 101.1457,317.5358 99.9648,317.0132 99.954,317.0063 99.0763,316.4402 99.0688,316.4353 98.5823,316.1215 98.4595,316.0257 97.6406,315.3871 97.5405,315.2584 97.3419,315.003 96.2342,312.2521 95.8348,311.7194 95.6353,311.4534 94.7558,309.9043 94.2369,308.9903 93.8763,308.3552 92.2374,305.4693 92.1787,305.3739 91.0598,303.555 90.8059,302.966 90.5903,301.9946 90.5495,301.3413 91.4282,295.7311 91.4714,294.5488 91.3258,293.8189 91.0538,293.1561 90.8301,292.8327 89.9882,292.0214 88.3547,290.9627 85.6866,288.8049 83.7451,286.8539 82.1599,285.0259 81.2735,283.6826 80.6513,282.4679 79.7442,281.0168 79.3806,280.1223 79.2812,279.1335 79.3322,278.711 79.4676,278.3727 79.603,278.0343 80.214,277.1202 80.6379,276.122 80.8866,274.1363 80.8419,273.3987 80.5407,272.2807 80.1766,271.768 79.6441,271.5002 78.3733,271.2075 76.5071,271.0645 73.9729,271.457 72.8252,271.7674 71.5972,272.2958 71.0102,272.7094 71.0047,272.5967 70.9825,272.1445 71.0862,271.7226 71.4703,270.8895 71.4807,269.7714 71.8497,269.1537 71.8969,268.6073 72.2459,267.9374 72.5534,266.6995 73.3817,264.5126 73.886,263.9999 74.626,263.714 75.1759,263.6496 76.4276,263.7671 77.596,263.6687 77.8831,263.5628 77.9946,263.3696 78.0729,262.4518 78.0031,261.7997 78.201,261.2284 78.2317,260.8292 77.8862,260.2537 77.5609,259.4062 76.2721,258.4214 75.8925,257.824 75.9094,257.6059 76.1563,257.2473 76.8299,256.7116 77.2898,254.9313 77.5407,254.8834 77.9474,255.1069 78.0969,254.9948 78.3315,254.9934 78.3107,255.377 78.5243,255.4268 78.8239,254.97 79.3171,254.88 79.6128,254.6282 80.29,253.6144 80.8798,253.0147 81.4934,252.8372 82.2442,252.9048 82.4643,252.8438 82.7784,252.5499 82.973,252.5079 83.3136,252.6478 83.8671,252.249 84.0991,251.661 84.2483,251.5625 84.496,251.5731 84.7653,251.9566 84.9279,251.9968 85.283,251.7264 85.6966,251.601 86.0981,251.1993 86.0196,250.8575 85.8368,250.7984 85.3673,250.8964 85.2406,250.8306 85.2211,250.7074 85.5773,250.3148 85.2948,249.735 85.4265,249.5132 85.7124,249.6508 85.9533,249.6195 86.0041,249.3973 85.8527,249.3046 85.8214,249.0956 86.1356,249.029 86.1265,248.8578 85.8657,248.4075 85.8534,248.0657 85.9425,247.8716 86.1882,247.7754 86.3383,247.8224 86.6947,248.1736 86.9635,248.629 87.2998,248.6397 87.4555,248.4124 87.6472,247.1577 87.916,246.7479 88.2063,246.7748 88.5681,247.1582 88.9335,247.2476 89.5845,246.8745 89.9815,247.0157 90.1772,246.9737 90.2554,246.8178 90.2306,246.109 90.35,245.1977 90.5437,244.7245 90.9439,244.3571 90.9783,244.1589 90.6551,243.7057 90.7783,242.9371 90.4736,242.2163 90.5185,241.9935 90.8323,241.5702 90.7052,241.1252 90.1344,241.0558 90.0036,240.7394 90.4271,240.5561 90.3699,240.2727 90.1183,240.1391 89.2797,240.0257 88.9354,239.8662 88.3768,239.2114 87.9162,238.3846 87.1934,237.7543 87.1329,237.4217 86.9469,237.2971 86.7984,237.3058 86.5141,237.5095 86.1732,237.4622 86.0779,236.7851 85.7646,236.3773 85.7741,236.1244 86.236,235.9728 86.2552,235.7196 85.9547,235.623 86.0639,235.3787 86.04,235.2233 85.7693,235.0366 85.7537,234.81 85.8952,234.4062 85.7252,234.0825 85.909,233.9161 86.2182,233.9907 86.3475,233.9055 86.3793,233.6716 86.1991,233.3401 86.2268,233.1027 86.3265,233.0295 87.0937,233.0551 87.3857,232.8906 87.8227,232.0267 87.6347,230.8708 87.5141,230.8101 87.1764,230.9971 87.0553,230.9472 87.0288,230.5305 87.7612,230.1711 88.5412,229.7885 88.814,229.4864 89.2516,229.0036 89.4809,228.7506 89.8067,228.7248 90.1823,228.9486 90.4457,228.7565 90.5533,228.418 90.6728,228.3727 91.0815,228.6167 91.5241,228.6321 91.7619,228.4751 92.2726,228.7168 92.9001,228.2171 93.1016,227.5603 92.9185,226.982 93.0012,226.7963 93.454,226.4509 94.3234,226.4167 94.5583,226.0955 94.6211,224.6052 94.5873,224.4268 94.2951,224.1736 94.309,223.9125 94.4137,223.8014 95.0653,223.7095 95.2643,223.555 95.503,223.1689 95.5661,222.5914 95.2902,221.9853 95.4102,221.5798 95.1954,221.3378 95.1254,221.0945 95.298,220.8737 95.667,220.9387 95.9849,220.8082 96.0224,220.0394 95.9672,219.4694 95.7537,218.9471 95.0421,218.47 94.9829,218.2685 95.0536,217.767 94.5767,217.7872 94.5551,217.6182 94.7996,217.0882 94.7203,216.7509 94.8928,216.2417 94.8651,215.9023 93.9877,215.1697 93.7658,214.6962 93.1003,214.6602 92.9273,214.5414 92.8416,214.2933 93.0331,213.7124 92.8265,213.3146 92.4366,213.0348 92.1103,212.0597 91.6004,211.1352 91.4831,209.9316 91.2985,209.3811 89.8332,207.1835 89.6638,206.2146 87.8422,203.8669 86.6258,201.3744 86.0556,199.4586 85.9496,197.5232 86.0527,197.1498 86.1663,194.9818 86.3366,194.55 86.7182,193.9965 87.1516,192.9126 87.9426,191.3659 88.7534,190.2183 88.9776,189.548 88.6249,187.7852 88.6406,187.1854 88.6635,186.3147 88.5217,185.599 87.6841,183.9115 87.7277,182.3984 87.7479,181.697 88.0648,180.0841 88.1226,179.0612 88.6556,178.1503 88.771,177.953 88.9138,177.709 89.1886,177.2394 89.2201,177.0644 89.408,176.0204 89.816,173.7534 90.6739,171.8528 91.5744,170.4447 92.0612,169.1313 92.0998,167.8882 91.8492,165.4429 91.82,165.1548 92.0367,164.0365 92.4824,162.6241 92.4835,162.6206 92.8248,161.8303 92.9071,161.6395 93.176,161.1986 93.6177,160.4744 94.192,159.8008 96.2689,158.0918 98.1006,156.8743 98.9037,156.2076 99.5495,155.1843 100.8056,153.1939 101.0448,152.8148 102.026,151.2599 102.617,150.4632 102.9012,150.0801 104.287,148.6118 104.5499,146.9087 104.4633,146.7019 104.3274,146.3777 103.6505,145.4527 103.1808,145.0531 102.7111,144.6534 99.9726,143.2024 99.0855,142.6048 97.0806,140.9688 95.9854,139.4633 95.0565,137.5242 94.934,136.1636 95.0313,135.5254 96.072,132.6768 97.0724,130.4822 97.4471,129.1671 98.1258,127.9071 98.9771,126.8612 99.2124,125.8689 99.1623,125.5803 99.1122,125.2917 98.1457,124.5526 97.9571,124.0382 97.7449,122.4863 96.9387,120.9816 96.0435,119.6691 95.716,118.4354 95.7844,117.2449 96.4133,115.6699 96.497,115.2164 98.1187,113.2285 98.9658,112.4667 101.1183,111.0117 105.6658,107.6175 106.1839,108.0881 107.6596,110.1389 108.0025,110.6667 108.395,111.711 109.4544,113.1218 110.6992,114.1326 111.5327,115.1222 112.9029,116.4818 114.4919,117.8614 115.5446,118.2411 116.3351,118.2792 118.1963,118.0495 118.7089,117.8868 120.0853,117.1529 120.8627,116.339 122.7536,113.3662 123.0974,113.1502 123.3082,113.2279 124.0053,113.8834 124.3205,114.0503 125.1721,114.3528 125.9798,114.5285 127.9258,114.5109 129.3525,114.0794 129.6833,113.8998 130.1176,113.275 131.2504,112.6559 131.546,112.0394 132.6424,111.2691 133.0889,110.6545 133.4369,110.4069 133.6345,109.8563 133.8989,109.5653 134.6068,109.3201 135.3369,108.8629 137.5728,108.0492 138.073,107.6453 138.6227,106.7292 138.9545,106.3627 139.7875,105.8645 141.3419,105.1358 143.964,104.5723 144.8458,104.24 145.3496,103.6483 146.1556,103.0514 146.7606,102.2543 147.0839,101.9789 147.6532,101.8839 147.966,101.7356 148.7584,101.7528 149.4623,102.1609 150.058,102.2562 150.1496,102.3497 150.2469,102.4492 150.3385,102.5427 150.4944,102.702 150.7331,102.7723 151.1657,102.6694 151.7065,102.0374 152.2051,102.4008 152.6112,102.4346 152.6337,102.7445 152.3486,103.1091 152.5026,103.2385 152.7845,103.237 153.4862,102.9426 153.76,102.9746 153.8986,103.0471 154.2174,103.5552 154.6208,103.7777 155.4566,103.6055 155.917,103.3065 156.3561,103.3389 157.6852,104.133 160.5752,105.5444 161.1785,105.9412 162.0919,105.7846 162.4545,105.9873 162.8285,105.9999 163.1941,105.6113 163.3723,105.5547 164.1554,105.9082 164.843,105.9305 164.9752,106.0114 165.181,106.3833 165.2071,106.4305 165.761,106.5454 166.7846,106.925 167.6951,107.4973 170.1097,109.0148 170.8865,109.4 171.8798,109.6915 172.3757,109.837 172.8112,109.8125 173.2466,109.788 175.2207,109.2378 175.7387,109.0065 176.2567,108.7752 178.0172,107.7018 178.8555,107.0712 179.9211,106.0692 181.8744,103.8193 183.9629,101.8585 184.666,101.2882 187.1551,99.593 187.3571,99.159 187.2639,98.3481 184.506,91.0452 183.2955,88.415 182.4181,87.9567 182.2001,87.6467 182.16,87.2746 182.3271,86.5384 182.5473,86.1189 182.8302,85.8334 182.9475,85.7145 183.0033,85.6579 183.1282,85.5313 183.1539,85.5053 183.1796,85.4792 183.1895,85.4692 183.23,85.4282 183.2718,85.4004 183.4053,85.312 183.4095,85.3092 183.4619,85.2745 184.033,84.896 185.0582,84.9656 186.4565,85.6227 187.1552,85.7577 187.9099,85.7817 188.2307,85.6985 189.6542,84.9066 190.0965,84.8643 191.1314,85.4625 194.0578,86.3752 196.5616,86.7652 198.726,86.6453 200.6258,86.9485 202.1652,87.5449 202.5633,87.7972 202.9944,88.2727 203.263,88.339 203.7194,88.0024 203.9784,87.9271 205.4994,87.9745 206.2736,87.8988 207.3907,87.5315 208.1742,87.4258 209.0305,87.1554 211.6091,85.2686 212.5799,84.8112 213.1921,84.1134 214.3449,83.3772 216.0581,82.8902 216.7362,82.858 217.2983,82.9625 243.0881,80.1165 243.3717,80.0294 244.0387,79.5052 244.8295,79.3496 245.7909,79.4287 246.5082,79.7063 247.1648,79.6937 247.8537,79.4013 248.1091,79.1312 248.5014,78.4351 249.0278,76.9898 249.1325,76.4178 249.5778,75.8525 249.9234,75.0739 250.37,74.5157 250.9131,73.5987 251.7866,71.8912 252.0405,71.1478 252.552,70.3211 252.7423,69.61 253.1212,68.7968 253.4603,68.3885 253.8945,68.1182 254.9109,67.7243 256.7317,67.379 257.2212,67.128 257.678,66.7005 257.9612,66.2424 258.1334,64.5494 258.0687,64.2152 257.5317,63.2386 257.1021,62.9374 257.9998,62.5438 259.4788,61.582 261.3424,60.5343 262.8323,60.4855 263.681,60.3895 265.4177,60.193 266.9103,60.1817 266.5172,59.6294 266.6415,59.0414 266.2842,58.8486 266.2299,58.7323 266.2872,58.6302 266.6523,58.6017 266.7358,58.4968 266.686,58.3309 266.194,58.0664 266.1686,57.8842 266.5398,57.154 266.5244,56.9768 266.1921,56.5558 266.517,55.6927 267.0575,55.2905 268.628,52.5402 269.5438,50.5659 270.2004,49.4476 270.1734,49.0086 269.5229,47.1888 269.3342,46.4007 269.0942,43.417 269.3388,42.2609 269.7543,41.0788 270.6924,39.2878 271.1386,37.897 271.6834,36.7177 272.091,35.1722 272.1413,34.642 272.8465,34.1701 273.0888,33.7523 273.653,33.1776 274.0446,32.389 275.5177,31.0115 275.8163,30.3912 276.0406,29.4793 276.2454,29.1906 277.9051,27.8332 280.3905,26.308 281.1724,26.7006 281.7686,27.152 282.8219,28.1548 283.2119,28.8662 283.2224,29.4263 282.5212,31.6719 282.3623,32.5281 282.3197,33.499 282.6346,35.3299 282.837,36.0391 283.5082,37.5006 284.9223,39.8537 286.1144,42.3363 286.7096,43.0078 287.5693,43.4788 289.1852,44.0111 290.0339,44.1538 291.2544,44.2066 293.2408,44.1792 293.8361,44.0073 295.1284,43.3745 296.7216,42.7724 297.8887,42.4259 299.2186,42.29 300.5521,42.3883 301.9023,42.6297 303.2051,43.0975 304.7135,43.476 306.6704,43.2188 307.3676,43.2241 308.0846,43.2976 308.9063,43.5465 310.1627,44.159 311.0251,44.9045 311.8121,45.259 313.5097,45.4867 314.6053,45.99 315.6467,46.6796 316.3103,47.314 316.6564,47.9956 317.0295,50.053 317.2677,50.3557 317.9904,50.7442 318.6358,50.9033 319.8132,50.8885 323.2471,50.1395 324.2175,50.0651 325.0436,50.1609 325.5417,50.3899 326.0924,50.9005 326.5841,51.6362 326.6853,52.0173 326.6777,52.622 327.0762,53.8799 327.738,55.1735 328.1276,56.5089 328.6608,57.4171 328.9638,57.7296 329.6665,58.1863 330.5192,58.3906 331.409,58.4155 332.6447,58.0389 333.6178,58.8974 334.3473,59.3843 337.4075,60.6399 338.2239,61.3944 338.4064,61.7469 338.6462,62.8766 338.6127,65.5211 338.8081,67.116 338.6978,68.8611 338.5539,69.3395 338.2005,69.7867 337.9074,70.1576 336.9832,71.6214 335.2914,74.9493 335.2716,80.3872 336.9824,80.9364 338.059,81.4205 339.1551,82.1831 339.4586,82.4848 340.0985,83.4433 340.4798,84.2042 341.3116,85.3298 342.5817,86.4497 343.8073,87.8929 344.5829,88.5224 345.0605,89.8397 345.7629,90.8019 346.4263,92.4994 346.4428,93.1157 346.3395,93.7477 346.0531,94.5527 345.9526,95.1811 346.0941,97.8182 346.4282,98.3862 346.4173,99.2569 346.5933,100.2913 346.5405,100.6626 346.0304,101.6269 345.9801,101.8913 346.1044,102.2848 346.6335,102.8231 346.8986,103.2539 346.9113,104.0104 346.9981,104.2933 348.2053,106.1117 349.5782,107.7167 351.3186,108.8805 352.2285,109.252 353.0562,110.0077 354.32,110.8537 355.6226,111.198 356.76,111.8455 357.7458,112.2739 358.3832,112.4412 360.6519,112.7745 362.6651,113.4302 364.2368,114.3046 366.4612,115.3411 368.0984,116.2792 369.4317,117.2695 370.2882,118.2528 370.58,118.748 370.7412,119.2585 370.573,120.0513 369.6612,120.8323 369.0123,121.6013 368.6786,122.4307 367.5771,123.9865 366.9902,125.4633 366.5222,127.7568 366.4018,128.9886 366.5503,129.7744 366.952,130.8649 367.0289,131.6858 367.0304,131.702 367.042,131.8256 366.8443,132.573 366.0745,133.9515 365.6542,134.9184 365.6334,135.049 365.1116,138.3277 364.1148,142.3919 363.6646,142.9505 363.0716,144.265 362.336,145.5693 361.7169,146.5508 361.1006,147.2718 360.5617,147.6293 359.4027,148.0955 358.8746,148.3961 357.2281,149.5922 355.5897,151.2325 354.859,152.083 353.2068,155.2273 352.5118,157.974 351.8276,159.5536 351.7939,159.7273 351.7733,159.8338 351.4495,161.5048 351.2835,161.888 350.952,162.2297 349.6554,163.2073 349.1197,163.3932 348.9143,163.3977 347.9011,163.42 345.1935,163.1211 342.8139,162.7457 341.8492,162.8121 341.2829,163.0899 340.3271,163.2386 339.9593,163.3968 339.4738,163.7943 339.0823,164.539 339.2261,166.0651 339.4724,166.8433 339.9185,167.5881 340.4134,168.0981 341.7134,168.9948 342.6732,170.652 343.831,172.0 344.4854,172.6282 345.0227,173.4163" stroke="black" /></svg>