<?xml version="1.0" encoding="utf-8" ?>
<svg baseProfile="tiny" height="500" version="1.2" width="462.0783" xmlns="http://www.w3.org/2000/svg" xmlns:ev="http://www.w3.org/2001/xml-events" xmlns:xlink="http://www.w3.org/1999/xlink"><defs /><polygon fill="none" points="146.1303,325.3955 144.0645,333.9353 143.2225,337.4163 143.1437,338.7176 142.4561,340.1835 142.0102,340.5922 140.5852,342.5894 138.2222,345.9011 137.2996,358.2937 136.3598,370.9179 134.8091,391.8256 133.4313,410.0043 133.3857,410.0639 133.3412,410.1224 119.2311,414.0848 115.5726,415.1122 106.4022,416.422 105.6583,416.5283 72.8455,421.2125 72.6385,420.9752 71.9092,419.8143 71.8474,419.2159 71.3113,418.4284 71.1064,417.5226 71.1531,417.3284 72.1539,416.5484 72.1382,416.0653 71.479,415.8156 70.7281,415.7995 69.8661,414.7187 68.7794,413.8639 68.2215,412.2953 67.3085,411.934 66.673,410.8817 66.4168,410.7611 66.5155,409.529 66.2502,406.9438 81.5585,397.6301 79.3165,361.0298 79.0775,357.1281 78.7096,351.0903 87.6094,348.4928 87.5115,348.2968 87.1299,347.5343 87.1122,347.4989 86.7484,346.7718 78.1984,329.6847 78.1633,329.615 77.7915,329.7364 57.1326,336.483 56.6384,336.6444 51.9445,338.1779 51.7559,338.2396 43.331,340.9913 37.2989,342.9615 36.7746,343.1329 11.8079,351.2896 11.8091,351.2676 11.8117,351.2217 11.8159,351.1452 11.8164,351.136 11.8863,349.883 12.2032,348.7861 13.0843,347.5926 14.6122,346.4115 15.1538,345.665 16.1905,343.0887 16.1441,342.0858 14.8149,341.35 14.8032,341.3435 12.2225,341.891 12.2157,341.8924 10.6232,340.2111 10.6198,340.2075 10.0015,340.0624 8.1549,340.2839 6.3243,339.581 5.5818,339.5428 3.7361,340.3085 1.9814,341.7282 1.1121,342.1828 0.7119,342.0015 0.4438,341.272 0.014,338.4241 0.0,338.3317 0.1663,336.3153 2.7311,330.1604 2.0994,324.8668 2.2534,322.2946 2.7212,320.4827 2.7317,320.4422 2.7729,320.3306 3.0517,319.5746 4.0687,318.0778 5.3483,316.9307 8.4367,315.3048 9.6886,314.4094 13.7577,310.5841 15.3309,309.8028 16.418,309.5165 19.8206,308.1818 20.009,308.1079 20.3603,307.7679 20.9123,307.2335 21.7899,305.5749 23.2337,302.0571 24.7333,298.4033 28.513,291.2299 29.9356,290.1055 33.9514,288.2844 34.366,287.8309 34.0911,286.3936 34.2339,285.1011 34.2337,285.1003 33.9287,284.1153 33.8634,283.9043 34.5284,281.3827 34.5711,281.3258 35.3508,280.2911 36.2914,278.0891 37.4691,276.7814 38.5137,276.2916 39.2785,276.245 42.8411,274.9008 44.2618,274.1667 45.2429,273.1074 47.1235,272.1273 48.6487,270.9463 52.223,269.5976 53.183,268.8635 54.0595,267.6011 54.5167,266.0955 55.5807,264.711 56.8913,260.7232 58.1827,257.8735 58.9557,257.0587 59.5824,256.7323 60.9627,256.7301 61.9665,256.9311 61.9744,256.9361 63.5369,257.9053 63.5409,257.9053 64.6243,257.9021 67.1957,257.3688 67.4461,257.1245 69.1244,256.4288 69.2525,256.3757 69.3806,256.3226 70.3306,256.1432 70.5808,255.8178 70.4275,254.9646 70.5967,254.201 70.6147,254.1197 70.9177,252.7528 71.0139,252.3188 71.7633,250.6098 72.348,250.0386 73.9142,249.0191 74.0813,248.6936 75.0861,238.0364 75.3345,236.938 76.2301,234.8702 77.2456,233.229 78.1923,232.0155 78.1979,232.0084 78.3587,231.675 79.786,228.7163 82.0407,226.0651 84.5671,223.0945 84.927,222.5461 85.9634,220.9668 85.8917,219.1729 86.3998,216.8676 85.1265,211.6212 84.5434,210.3613 84.7452,208.7663 86.6526,206.1851 86.719,205.4775 87.0205,202.2653 90.8337,196.0141 95.2348,194.2786 100.0403,189.6196 103.8104,187.235 167.6667,224.1388 162.8729,230.7569 149.3665,249.291 141.6819,259.8361 139.766,262.4515 121.9126,286.8237 131.8165,292.7134 135.0642,291.6668 142.0234,296.7808 145.628,299.4287 145.779,299.5397 149.3012,302.127 155.4831,305.5418 155.1172,306.0814 154.8478,306.4789 154.8867,307.5164 154.3899,308.5897 154.2141,310.2009 153.8098,310.8949 153.526,311.9004 152.9165,312.2863 151.9826,312.1475 151.4956,312.23 151.0067,311.8142 149.9111,312.4687 149.1826,313.2447 149.3055,313.9779 149.1848,314.4265 148.6986,315.0798 149.1883,315.9339 149.1128,318.6648 148.3743,320.6109 148.1842,321.1118 148.1171,321.2099 148.05,321.308 147.8738,321.5658 147.0454,322.7775 146.7875,323.2555 146.1303,325.3955" stroke="black" /><polygon fill="none" points="351.2562,98.0405 350.8541,97.3694 350.8699,96.7331 350.977,96.041 351.1831,95.349 351.9272,94.5652 352.0141,94.4736 352.2123,94.0919 352.4639,93.2728 352.6309,91.6169 352.3947,91.3449 351.7593,90.8927 351.2688,90.1474 351.1397,89.5845 350.8938,89.1072 350.8552,89.0323 350.8029,88.9311 350.6899,87.6034 350.7424,86.8575 351.0847,86.3471 351.8349,85.5271 352.4129,85.143 352.4676,85.1066 353.0827,84.832 354.4042,84.6644 354.8023,84.2819 354.9825,83.9717 355.17,82.9937 355.307,82.9827 355.4058,82.9748 355.9123,82.8097 355.9429,82.7936 356.3279,82.5904 356.9247,81.9712 357.563,81.1991 357.725,80.903 358.1392,80.5945 358.7349,80.1509 358.8386,79.8826 358.8704,79.3586 358.8973,78.9139 359.0519,78.3886 359.0519,78.1964 359.0067,78.0697 358.7547,77.9665 358.6434,77.8554 358.8965,76.9569 358.8808,76.7194 358.4752,76.0275 358.3924,75.5878 358.5534,73.1341 358.1121,72.1983 356.9032,70.6304 357.5251,70.1019 358.5265,68.8825 358.7761,68.2091 358.9984,66.7116 358.9458,65.9058 358.6084,65.2335 358.0038,64.6467 356.8879,63.9137 355.1098,63.0954 353.6528,62.1909 353.0624,61.358 352.8692,60.4896 352.9006,59.446 353.2088,58.193 353.9492,56.3823 354.3938,55.6691 355.2278,54.3312 356.1806,52.8034 356.2946,52.6207 356.6543,51.3328 356.6537,51.0797 356.6519,50.3586 356.6354,50.3049 356.515,49.9127 356.4069,49.56 356.1894,49.2559 356.6206,48.9976 356.2309,48.3538 355.8609,47.9759 355.6119,47.7183 355.3021,47.5015 354.9184,47.2492 354.6969,47.1005 354.5517,47.0217 354.3672,46.9746 354.156,46.9378 353.861,46.8949 353.8023,46.8378 353.7746,46.7761 353.7607,46.5859 353.7624,46.3951 353.7656,46.0732 353.8099,45.9067 353.8441,45.7659 353.877,45.6366 353.8896,45.4806 353.8872,45.3769 353.8654,45.2184 353.9874,45.0585 354.1959,44.8965 354.2231,44.884 354.6604,44.6829 355.0234,44.6531 355.3935,44.6871 356.5751,44.741 357.8143,44.8233 358.9355,44.9152 359.2164,44.9198 359.4489,44.933 359.895,44.912 360.4088,44.8579 360.9291,44.6535 360.9308,44.6528 361.4478,44.4596 361.8599,44.2611 362.355,44.0052 362.812,43.6884 363.0904,43.521 363.3185,43.3397 363.437,43.1548 363.4689,43.105 363.6038,42.899 363.7181,42.7816 363.8898,42.6496 363.9902,42.5681 364.0283,42.5372 364.1868,42.394 364.2292,42.3487 364.2548,42.2817 364.2548,42.2353 364.2548,42.2285 364.2427,42.1701 364.227,42.103 364.2611,41.9733 364.3841,41.6866 364.4007,41.596 364.4979,41.4157 364.7132,41.2125 364.9287,41.0802 365.0843,41.0183 365.3061,40.9665 365.4966,40.9082 365.6149,40.8795 365.8002,40.8312 365.9,40.8255 365.9883,40.8306 366.0259,40.8113 366.0633,40.7873 366.1839,40.7202 366.3581,40.6574 366.4978,40.6367 366.5539,40.6256 366.651,40.6065 366.7949,40.5568 366.9234,40.4902 367.004,40.4408 367.0872,40.3609 367.1803,40.2356 367.237,40.1222 367.3298,39.9983 367.4328,39.9085 367.565,39.8271 367.7131,39.7713 367.8077,39.7472 367.9541,39.7017 368.0543,39.6692 368.1664,39.6624 368.2826,39.6554 368.5012,39.6463 368.654,39.6371 368.8002,39.6528 368.94,39.6607 369.0364,39.6712 369.1639,39.6839 369.2981,39.7104 369.4532,39.7417 369.5529,39.7823 369.7861,39.8611 369.9467,39.8977 370.1036,39.9427 370.3706,40.0011 370.5958,40.0675 370.7121,40.0991 370.9241,40.1635 371.0348,40.2037 371.1206,40.2392 371.1902,40.2528 371.2351,40.2632 371.296,40.2769 371.3803,40.3129 371.4365,40.3408 371.501,40.3895 371.584,40.4425 371.6331,40.479 371.7416,40.5297 371.8037,40.5377 371.8889,40.5458 371.9666,40.5502 372.073,40.5315 372.1935,40.519 372.2899,40.5331 372.5005,40.6001 372.6534,40.6748 372.8856,40.8068 372.987,40.867 373.1346,40.962 373.2516,41.0611 373.3425,41.1683 373.4357,41.2423 373.6036,41.3444 373.7643,41.3968 373.9438,41.4593 374.1586,41.526 374.3884,41.604 374.674,41.7039 374.8387,41.7847 375.1608,41.9377 375.4895,42.0528 375.7723,42.1419 375.9531,42.1951 376.2727,42.2687 376.6226,42.3214 376.8192,42.3446 376.9049,42.3347 376.9516,42.303 376.9856,42.2436 376.9855,42.2039 377.0067,42.1519 377.0365,42.1324 377.1027,42.1327 377.1762,42.1457 377.3081,42.1836 377.7836,42.4393 378.0866,42.6538 378.483,42.9026 378.9035,43.1743 379.1618,43.359 379.783,43.7826 380.2126,44.0781 380.6708,44.4362 381.2553,44.8372 382.03,45.3374 382.7846,45.8268 383.8188,46.5212 384.8277,47.1481 385.0419,47.2723 386.0934,47.8825 387.0324,48.3808 387.8495,48.7472 388.5185,48.9987 389.193,49.2395 390.3338,49.6232 391.2495,49.8694 392.0628,50.0315 392.8697,50.0933 393.4488,50.067 394.1075,49.9753 394.8949,49.7879 395.5764,49.5505 396.1038,49.2688 396.8794,48.8373 397.5646,48.3722 398.0839,47.9619 398.3954,47.7226 398.6927,47.4941 399.1156,47.1829 399.4056,47.0379 399.825,46.861 400.2094,46.7358 400.8938,46.4904 401.0983,46.4169 401.2663,46.3398 401.5006,46.2003 401.6109,46.0887 401.81,45.8988 402.0931,45.6743 402.4044,45.501 402.6808,45.426 403.1207,45.347 403.4084,45.315 403.6265,45.2931 403.8881,45.2161 404.2709,45.0495 404.5585,44.9185 404.7761,44.7917 405.0169,44.6139 405.1573,44.4684 405.6929,43.9685 406.087,43.4725 406.3782,42.8704 406.6433,42.4667 406.812,42.3049 406.9761,42.2134 407.118,42.1407 407.3515,42.0362 407.62,41.9763 407.8503,41.9623 408.4105,42.0483 409.7195,42.3569 410.7911,42.5928 412.0834,42.9141 412.8295,43.0805 413.4381,43.1779 413.992,43.2406 414.4296,43.2667 414.9053,43.2467 415.3921,43.2085 415.9352,43.1436 416.3103,43.0568 416.7269,42.9297 417.3468,42.676 417.704,42.4882 418.3437,42.0874 418.7913,41.798 419.2007,41.5051 419.5895,41.2355 419.8823,40.9992 420.0221,40.845 420.2058,40.6415 420.4051,40.3583 420.8508,39.7317 421.2286,39.1609 421.3117,39.0338 421.4847,38.7691 421.5096,38.7311 421.5648,38.6256 421.6185,38.5466 421.6652,38.4832 421.7216,38.4187 421.7596,38.3984 421.8181,38.3699 421.8356,38.3686 421.8789,38.3654 421.9672,38.3604 422.0187,38.3723 422.0534,38.3871 422.1087,38.4047 422.1495,38.4093 422.203,38.414 422.2791,38.4044 422.3665,38.3672 422.4651,38.3381 422.5288,38.3061 422.582,38.2758 422.6172,38.2465 422.6933,38.2107 422.7464,38.2075 422.8257,38.2057 422.8983,38.2243 423.0366,38.2831 423.142,38.3492 423.2218,38.3983 423.2897,38.4471 423.3781,38.5129 423.4692,38.5882 423.5888,38.6846 423.6658,38.7486 423.7224,38.7856 424.1876,39.1014 424.6819,39.467 425.3488,39.9344 427.4134,41.4697 429.6333,43.2287 432.7993,45.4677 436.005,47.4792 437.4779,48.2819 438.4352,48.7206 440.0348,49.3381 441.7001,49.9513 442.7689,50.2225 443.0967,50.3057 444.5443,50.5896 445.1478,50.6632 445.3751,50.6252 445.5477,50.5814 445.7367,50.5545 445.8911,50.5503 446.0799,50.562 446.2927,50.6287 446.5221,50.7149 446.901,50.8024 447.1333,50.8499 447.4841,50.898 447.8795,50.9177 448.7662,50.9564 449.2601,50.942 449.5452,50.9273 449.779,50.9157 449.919,50.8892 450.0697,50.8262 450.5498,50.5815 450.8278,50.4081 450.988,50.288 451.2166,50.1073 451.3694,49.9928 451.4594,49.9283 451.6909,49.8373 451.7785,49.8371 451.9404,49.8735 452.0254,49.9146 452.1613,49.9885 452.3624,50.0713 452.5361,50.1301 452.8044,50.178 453.0281,50.2133 453.1857,50.2191 453.2068,50.22 453.3406,50.2251 453.3732,50.2285 453.5273,50.2446 453.6638,50.2852 453.7474,50.3468 453.8213,50.4168 453.8547,50.4995 453.9023,50.6044 453.9296,50.7132 453.9812,50.7999 454.1894,51.0627 454.4193,51.326 454.6286,51.5469 454.9054,51.8177 454.951,51.851 455.3207,52.1211 455.781,52.4303 456.2111,52.5406 456.4032,52.6057 456.6068,52.7893 456.7012,52.8646 456.7906,52.9273 456.9724,52.9632 457.1239,52.9923 457.3427,53.0047 457.345,53.0048 457.5099,53.0116 457.6553,53.0113 457.7823,53.059 457.9887,53.2499 458.1994,53.4799 458.3954,53.8174 458.429,53.9363 458.4545,54.0265 458.5945,54.3465 458.79,54.6073 459.2758,55.1005 459.5709,55.3809 459.6993,55.5222 459.9603,55.8046 460.122,56.0718 460.2798,56.2753 460.496,56.4539 460.6772,56.6779 460.8433,56.8766 461.0172,56.9939 461.131,57.1063 461.2461,57.2399 461.3196,57.3931 461.4645,57.6013 461.6061,57.8145 462.0783,58.378 461.2871,58.8258 460.1183,58.6338 459.3283,59.2003 458.1064,58.856 456.8804,58.3092 455.3802,58.1705 454.0937,58.7079 452.9732,59.3744 452.6436,59.3897 452.2814,59.6366 451.7737,59.7416 451.4361,59.9328 451.0993,59.9416 450.7943,59.7516 450.473,59.7407 449.4081,59.9502 446.8767,60.0629 445.7888,60.2401 444.9746,60.8704 442.9956,62.7101 442.549,64.4654 442.4705,64.6914 442.392,64.9174 440.9104,64.8173 440.5787,64.7948 420.7973,63.4577 420.8563,76.9244 403.7765,76.9539 403.8156,84.6121 397.342,84.632 397.4093,91.0802 390.3023,91.1076 390.1649,91.1081 388.9859,91.1127 389.0372,104.8928 366.2302,104.9661 366.3045,111.3129 366.3523,115.3975 363.8666,114.355 362.668,113.4487 361.0598,111.9078 359.1895,110.3487 357.9265,109.1339 356.6192,108.1737 356.5455,107.8831 355.2916,106.6131 355.1365,106.0692 354.5544,105.2522 354.4077,104.7067 354.2965,103.8335 353.8845,102.4706 353.6302,102.1806 352.8656,100.7648 352.5369,99.8379 351.8006,98.9492 351.2562,98.0405" stroke="black" /><polygon fill="none" points="391.5363,0.8168 391.2039,0.9188 390.9268,0.1199 391.2726,-0.0 391.5363,0.8168" stroke="black" /><polygon fill="none" points="267.3423,438.6201 267.6085,428.2976 258.0304,429.0302 255.8958,430.7001 252.3638,434.1937 250.6991,434.7097 248.0776,436.6387 247.7954,436.7535 246.5364,436.6544 245.3155,437.1615 244.6463,437.5795 240.6183,407.2075 240.559,406.7606 240.5428,406.6382 237.9464,387.0908 235.6482,369.7513 235.6348,369.6504 233.0792,350.3273 242.5591,346.7201 243.7829,347.3213 245.2243,347.7152 248.5372,346.4192 249.8975,345.6974 251.363,345.5901 251.9136,345.5497 252.7457,345.4888 254.9925,344.6237 257.4333,343.3999 259.2112,342.2392 260.8152,341.6658 262.4389,341.381 264.7077,341.7333 265.93,341.6251 267.4819,340.0372 268.2855,339.4354 268.905,339.0874 270.083,339.0926 270.1884,339.0325 270.6754,338.7544 272.218,338.5162 277.725,338.4782 279.1672,338.0717 279.4468,337.9929 279.7271,337.9139 280.1877,338.1799 280.6626,338.0298 280.9304,338.2229 281.4795,338.2511 282.8741,337.6742 283.2004,337.8815 283.6021,337.8251 284.3721,337.3124 284.9212,337.4154 286.1642,336.5405 286.9227,336.5681 287.5001,336.0452 288.0054,336.1776 289.1633,335.9868 290.1823,335.3314 290.5684,334.6289 290.8503,334.4791 292.5428,334.6899 293.7733,334.2547 294.6501,334.535 296.7585,334.6708 297.3424,335.3631 297.5487,335.4544 297.8891,335.6051 298.2489,336.0733 300.7106,336.4672 301.097,336.3319 301.5873,336.4128 302.2192,335.8718 302.388,336.3047 302.8639,336.3937 302.776,336.9156 302.9849,337.1976 304.113,337.2762 305.9896,336.0079 306.305,335.453 306.5271,335.3929 306.8839,335.6818 307.2872,336.3949 307.5545,336.4839 308.354,335.9607 308.6366,335.9599 309.1428,336.4051 309.9896,336.7228 310.5556,337.301 312.6785,337.5781 313.3012,337.3528 314.0897,337.3113 316.7636,333.7541 317.0441,333.9077 317.9233,334.3907 325.4872,337.3074 326.06,340.4693 323.681,364.3849 340.8679,375.3241 335.0771,377.0758 322.735,393.0578 322.5859,393.251 322.4771,393.3919 310.5617,408.8286 320.6173,420.3785 347.2874,450.9765 347.1833,451.3546 342.948,461.0248 341.8891,461.5875 340.9034,461.7587 335.3256,461.0313 334.5615,460.7351 334.1961,460.2335 333.6894,458.9106 333.0912,458.1298 332.382,457.5909 331.544,457.3326 329.9523,457.4502 328.1874,458.4998 327.0438,458.9516 325.8157,459.011 324.698,458.8284 324.2128,458.4199 323.8195,457.7495 322.8336,455.1294 322.0106,453.8819 321.2644,453.381 316.9731,453.1334 314.2448,452.751 313.054,452.9969 312.0511,453.7088 311.4682,454.904 311.3219,455.8 310.0416,456.9602 309.764,457.4464 309.7225,458.9383 309.3916,460.4034 308.187,462.1788 306.9903,463.3395 306.0609,463.902 304.2197,464.5045 302.3967,464.846 300.6561,464.7581 297.4164,461.803 296.5039,461.6007 295.5364,461.8648 292.3153,464.6722 288.3803,465.5237 286.3351,466.4442 284.9697,467.2715 284.5919,467.4212 282.3661,468.3028 281.1776,469.3881 279.7453,471.3868 278.0947,473.1593 275.3834,475.4247 274.4658,475.3865 268.9713,474.0371 268.4607,474.1078 266.2694,474.9181 267.9982,469.2384 266.004,468.3377 264.8274,468.1003 267.0939,459.4264 273.6542,445.3349 267.3423,438.6201" stroke="black" /><polygon fill="none" points="152.3244,162.0425 119.3491,152.5991 113.0336,150.7875 112.3583,149.0288 112.3348,147.6968 113.3128,145.074 113.9744,144.2829 117.47,138.7808 121.7194,121.0017 121.72,120.9992 125.2083,116.9482 126.5507,114.6592 127.9575,112.743 130.9522,110.0698 131.0514,109.9812 133.523,106.4108 133.5233,106.4104 134.1952,100.3786 134.6625,98.9214 135.7051,96.6738 136.2597,96.0077 136.6425,95.1747 137.054,94.8301 138.8826,93.2991 140.5478,92.2141 142.1066,91.6283 147.597,90.4951 153.9838,89.4002 154.4107,88.9841 154.6196,88.3078 154.6506,88.2077 160.8675,68.0839 160.9067,67.9568 160.9075,67.9541 160.9077,67.9535 160.9529,67.791 160.9608,67.7626 164.2852,55.8338 164.5793,54.7785 168.3659,41.1913 168.3934,41.1852 186.7708,37.0241 198.9798,34.2668 198.9805,34.2667 205.995,32.5422 206.1657,32.5003 212.6687,30.9016 215.0762,30.3382 224.9712,28.0227 233.2182,26.0393 233.6297,27.032 233.3385,28.0268 232.7684,29.09 232.6419,29.773 232.7096,30.3302 232.4906,31.0561 232.1984,31.1944 231.314,31.1458 231.0581,31.2221 230.6268,31.5899 229.9861,33.2751 229.0222,34.5811 228.2032,35.3541 227.5065,36.2777 225.96,37.2787 224.6164,38.3984 224.3889,38.6779 223.8777,39.9424 223.7516,40.4952 223.9019,42.9995 223.8745,46.2809 224.0656,47.4753 223.8618,48.3433 223.2439,49.8884 222.8971,53.9126 222.2449,55.5164 222.1501,57.2601 222.5978,60.7303 222.3681,62.7949 221.4851,67.4329 221.6407,68.9943 222.3958,71.8973 222.2431,72.35 221.8788,72.719 221.9223,72.8724 222.8153,73.5768 223.3449,73.6767 223.6925,73.852 224.4065,74.6088 225.1712,75.0636 223.1803,80.5528 223.0388,80.9425 211.6757,112.2936 211.298,113.3355 211.1802,113.6607 209.5542,118.1528 197.6991,150.905 197.6025,151.1718 189.7926,172.7727 168.0341,166.5415 152.3244,162.0425" stroke="black" /><polygon fill="none" points="240.108,303.5499 233.0792,350.3273 235.6348,369.6504 235.6482,369.7513 237.9464,387.0908 240.5428,406.6382 240.0518,406.5615 239.7685,406.1983 239.8883,405.6916 239.6656,405.4304 239.1407,405.553 238.7174,405.5543 238.192,405.3941 237.4059,405.699 236.9419,405.7409 236.5985,405.661 235.7513,405.8454 234.9948,405.8475 234.4287,405.6266 233.8734,405.6688 233.3685,405.3243 233.0546,405.2337 232.5308,405.4581 232.3385,405.4278 232.1768,405.3374 231.9538,404.9536 231.7721,404.9747 231.4701,405.1976 230.8957,405.3918 229.6433,405.4659 229.2495,405.2138 228.6711,404.3757 228.419,404.2151 228.1164,404.1854 227.572,404.5205 226.652,404.0053 225.9447,403.8651 225.5096,403.4015 225.1962,403.3723 224.8233,403.4538 224.2775,403.3643 223.4795,403.3558 223.0958,403.438 222.9256,403.5904 222.7144,403.9961 222.6342,404.319 222.1105,404.7664 221.3358,405.862 221.2965,406.104 221.3372,406.4964 221.2269,406.7294 220.9452,406.8724 220.5405,406.9643 220.3605,407.4302 220.0986,407.7251 219.8139,407.916 219.1489,408.1223 217.5614,408.4543 217.3114,409.429 217.5835,409.6251 217.6492,409.7842 217.538,409.8638 217.1923,409.673 216.838,409.6093 216.7622,410.0297 216.9312,410.4509 216.8943,410.6939 216.819,410.7325 216.638,410.5715 216.2121,409.8909 216.1001,409.5877 215.958,409.6106 215.8644,409.7323 215.8187,410.1542 215.8859,410.7627 215.1274,410.0532 215.0886,409.7343 215.0043,409.5757 214.8268,409.4448 214.4244,409.4553 214.2752,409.3529 214.0133,409.3161 213.9112,409.4293 213.9303,409.644 214.2124,410.5141 214.1471,410.5335 213.9033,410.3372 213.6592,410.0482 213.1843,410.3584 213.1764,410.4984 213.5684,410.7777 213.0837,411.0985 213.1026,411.2196 213.2713,411.407 213.2901,411.5567 213.0864,412.1187 213.0019,412.1754 212.569,411.5971 212.1905,411.7618 211.9078,412.0655 211.2552,412.1898 210.6432,412.8268 210.6404,413.0246 210.8092,413.2585 210.7908,413.3989 210.4355,413.2591 210.221,413.3443 210.0909,413.6817 210.1758,413.972 210.0826,414.0189 209.7743,414.0017 209.4024,414.6953 209.0093,414.7241 208.8696,414.6584 208.8597,414.5091 209.0556,414.2563 208.8402,414.1252 208.8677,413.9849 209.2857,413.6484 209.567,413.3369 209.8096,413.2513 209.9214,413.1014 210.0235,412.6328 210.3302,412.2106 210.4326,411.8646 210.376,411.8255 209.7798,412.6608 209.5849,413.045 208.1485,414.265 207.8135,414.7813 207.0314,416.2627 202.2637,424.2138 200.4569,427.6843 199.2431,428.7721 198.3831,429.337 196.4188,430.1825 195.1268,430.0169 194.3965,430.169 193.6679,430.509 192.9006,431.2428 189.7654,435.3037 188.6955,435.8849 186.0489,436.2842 165.2823,421.0842 133.3857,410.0639 133.4313,410.0043 134.8091,391.8256 136.3598,370.9179 137.2996,358.2937 138.2222,345.9011 140.5852,342.5894 142.0102,340.5922 142.4561,340.1835 143.1437,338.7176 143.2225,337.4163 144.0645,333.9353 146.1303,325.3955 146.7875,323.2555 147.0454,322.7775 147.8738,321.5658 148.05,321.308 148.1171,321.2099 148.1842,321.1118 148.3743,320.6109 149.1128,318.6648 149.1883,315.9339 148.6986,315.0798 149.1848,314.4265 149.3055,313.9779 149.1826,313.2447 149.9111,312.4687 151.0067,311.8142 151.4956,312.23 151.9826,312.1475 152.9165,312.2863 153.526,311.9004 153.8098,310.8949 154.2141,310.2009 154.3899,308.5897 154.8867,307.5164 154.8478,306.4789 155.1172,306.0814 155.4831,305.5418 155.7268,305.3863 161.4476,301.7383 189.0611,284.1347 189.6095,283.7856 191.2997,282.7085 191.3459,282.7059 191.4488,282.7002 223.4281,280.9163 242.5614,288.4358 241.6771,297.8147 241.3317,301.4203 241.1166,303.6658 240.108,303.5499" stroke="black" /><polygon fill="none" points="142.0234,296.7808 135.0642,291.6668 131.8165,292.7134 121.9126,286.8237 139.766,262.4515 141.6819,259.8361 149.3665,249.291 162.8729,230.7569 162.8856,230.764 163.0989,230.8827 163.3249,231.0085 164.0848,231.4315 165.8201,232.3976 166.6579,235.4265 167.3173,236.7825 175.8142,242.1173 181.9571,245.9741 182.5365,246.1664 183.6828,246.1802 184.8757,245.7981 196.8059,252.906 195.4587,260.2537 194.0358,268.0214 191.3459,282.7059 191.2997,282.7085 189.6095,283.7856 189.0611,284.1347 161.4476,301.7383 155.7268,305.3863 155.4831,305.5418 149.3012,302.127 145.779,299.5397 145.628,299.4287 142.0234,296.7808" stroke="black" /><polygon fill="none" points="194.0358,268.0214 195.4587,260.2537 196.8059,252.906 184.8757,245.7981 183.6828,246.1802 182.5365,246.1664 181.9571,245.9741 175.8142,242.1173 167.3173,236.7825 166.6579,235.4265 165.8201,232.3976 164.0848,231.4315 163.3249,231.0085 163.0989,230.8827 162.8856,230.764 162.8729,230.7569 167.6667,224.1388 103.8104,187.235 104.7807,186.6211 106.9982,185.8191 113.5103,179.9796 113.5173,179.9733 114.9246,179.0923 115.2133,177.8237 115.1134,176.0684 114.6258,175.1909 113.4081,173.9256 112.7257,172.951 112.4313,171.586 111.6497,169.3437 111.7891,166.1239 112.174,164.1725 113.4838,161.4355 113.9523,160.5113 114.2925,158.6525 114.9791,155.6787 114.8061,154.4734 114.0392,153.3291 113.9703,153.2263 113.5038,152.0118 113.0336,150.7875 119.3491,152.5991 152.3244,162.0425 168.0341,166.5415 189.7926,172.7727 202.7287,175.5161 234.3991,182.2231 248.6026,185.2311 249.558,185.8201 252.0706,187.3691 261.6398,193.2667 269.1251,197.8751 269.1557,197.894 270.6126,198.7909 297.3366,215.244 297.2121,215.6237 296.872,215.6749 296.9266,216.2975 296.6801,216.8533 295.9546,217.2353 295.4437,217.1006 294.7439,217.3864 294.4057,217.6143 294.412,218.0075 294.8289,218.4253 296.1273,218.5805 296.3072,218.7186 296.3502,219.1187 296.9081,219.601 296.7235,221.3587 297.955,223.5117 298.2723,224.9134 298.2634,226.2964 297.7613,229.5328 297.1603,230.0139 296.402,231.0001 295.8151,233.135 295.2069,233.9932 295.0119,234.7208 295.2362,235.4558 295.8425,236.1251 296.1591,236.7784 296.3277,237.8388 296.0973,238.4102 295.4447,238.8567 295.5211,239.8571 295.1422,240.911 295.3765,241.4602 294.9771,242.1261 295.3195,242.6507 295.8407,242.8814 296.2534,243.3018 296.3254,244.6424 297.4805,246.1608 297.6998,246.7425 297.7537,247.6227 296.6823,247.6264 264.9331,247.7322 264.7323,248.0974 258.2429,259.9029 247.5727,279.3141 242.5614,288.4358 223.4281,280.9163 191.4488,282.7002 191.3459,282.7059 194.0358,268.0214" stroke="black" /><polygon fill="none" points="329.378,29.3263 329.5766,29.5729 329.7821,29.7657 329.9678,29.9452 330.3988,30.3284 330.7254,30.6738 331.0031,30.9858 331.3971,31.3502 331.7951,31.7879 332.4593,32.3489 332.7611,32.6135 333.0069,32.8289 333.2959,33.0357 333.4508,33.1465 333.6067,33.2793 334.042,33.6502 334.3609,33.9254 334.9144,34.3493 335.5568,34.8002 336.1586,35.2139 336.7634,35.6017 337.1631,35.8379 337.2159,35.8692 337.2422,35.8888 337.6447,36.1901 338.1612,36.5173 338.415,36.683 339.0125,37.0103 339.3433,37.1696 339.5013,37.2433 340.055,37.5017 340.567,37.7451 340.8558,37.9948 341.1934,38.2749 341.5429,38.6528 341.9136,39.0717 342.6437,39.8366 343.1726,40.4441 343.3376,40.6438 343.5986,40.9597 344.2997,41.8727 344.5022,42.1772 344.6989,42.4106 344.9,42.6239 345.0074,42.7295 345.0944,42.8102 345.186,42.9766 345.2366,43.0828 345.3089,43.1728 345.3747,43.2361 345.4521,43.2773 345.5106,43.3083 345.5942,43.4016 345.7189,43.5407 345.9308,43.7773 346.0269,43.9517 346.1153,44.0594 346.5705,44.5758 346.938,45.0459 347.2321,45.4522 347.4824,45.8437 347.7956,46.328 347.9729,46.6807 348.0383,46.9038 348.1547,47.213 348.3887,47.5644 348.6588,47.9105 349.0474,48.2909 349.4907,48.6244 350.0018,48.9423 350.3586,49.1295 350.7299,49.3146 351.1003,49.4833 351.8676,49.7445 352.5241,49.8859 353.1718,49.9892 353.727,50.0022 354.2133,50.0125 354.8597,49.9532 355.0372,49.946 356.1894,49.2559 356.4069,49.56 356.515,49.9127 356.6354,50.3049 356.6519,50.3586 356.6537,51.0797 356.6543,51.3328 356.2946,52.6207 356.1806,52.8034 355.2278,54.3312 354.3938,55.6691 353.9492,56.3823 353.2088,58.193 352.9006,59.446 352.8692,60.4896 353.0624,61.358 353.6528,62.1909 355.1098,63.0954 356.8879,63.9137 358.0038,64.6467 358.6084,65.2335 358.9458,65.9058 358.9984,66.7116 358.7761,68.2091 358.5265,68.8825 357.5251,70.1019 356.9032,70.6304 355.6238,71.7171 353.8831,72.3268 351.9671,72.3949 350.5811,72.5904 349.868,72.7557 348.3037,73.3335 347.431,73.7737 347.146,73.8113 346.7363,74.0369 346.3176,74.5339 345.6568,74.369 345.9282,69.9016 341.9258,57.5848 329.9076,65.6223 325.6626,63.65 325.3791,63.5181 293.2062,48.5564 292.8214,48.3773 292.9506,47.6005 294.0131,47.4371 298.7443,46.7095 299.3996,46.6316 300.5339,46.6282 301.1327,46.7287 306.8571,48.3521 306.8643,48.2806 306.9997,46.9305 307.3326,45.5558 307.3628,44.6214 307.2677,43.8757 306.678,42.8683 306.6554,41.9267 306.7352,41.7332 307.1865,41.3108 307.4515,40.6929 307.4677,40.1696 307.0623,38.5264 307.0618,38.2065 307.3138,37.3586 307.2981,36.6919 307.2118,36.2384 307.2487,35.8588 307.3768,35.669 308.2167,35.1912 308.3795,35.0119 309.7268,32.8488 309.8507,32.7579 320.3985,28.6857 320.3594,28.0032 320.7162,26.9861 321.5194,26.357 324.0214,25.0375 325.0918,24.4729 325.3311,24.3467 325.5793,24.6971 325.921,25.1103 326.3128,25.6256 326.6959,26.0802 326.9553,26.4456 327.3797,26.9152 327.654,27.24 327.9866,27.6822 328.2464,27.9776 328.5145,28.3006 328.9589,28.8083 329.2282,29.1207 329.3579,29.3013 329.378,29.3263" stroke="black" /><polygon fill="none" points="267.3423,438.6201 273.6542,445.3349 266.9952,452.181 248.7532,470.9355 246.5419,472.0727 244.2539,473.6947 242.7311,474.0767 237.1806,479.231 230.5538,475.7538 225.2152,472.5772 219.7161,469.5806 215.3527,467.2028 199.4143,449.0342 199.3776,448.9992 186.1081,436.3407 186.0489,436.2842 188.6955,435.8849 189.7654,435.3037 192.9006,431.2428 193.6679,430.509 194.3965,430.169 195.1268,430.0169 196.4188,430.1825 198.3831,429.337 199.2431,428.7721 200.4569,427.6843 202.2637,424.2138 207.0314,416.2627 207.8135,414.7813 208.1485,414.265 209.5849,413.045 209.7798,412.6608 210.376,411.8255 210.4326,411.8646 210.3302,412.2106 210.0235,412.6328 209.9214,413.1014 209.8096,413.2513 209.567,413.3369 209.2857,413.6484 208.8677,413.9849 208.8402,414.1252 209.0556,414.2563 208.8597,414.5091 208.8696,414.6584 209.0093,414.7241 209.4024,414.6953 209.7743,414.0017 210.0826,414.0189 210.1758,413.972 210.0909,413.6817 210.221,413.3443 210.4355,413.2591 210.7908,413.3989 210.8092,413.2585 210.6404,413.0246 210.6432,412.8268 211.2552,412.1898 211.9078,412.0655 212.1905,411.7618 212.569,411.5971 213.0019,412.1754 213.0864,412.1187 213.2901,411.5567 213.2713,411.407 213.1026,411.2196 213.0837,411.0985 213.5684,410.7777 213.1764,410.4984 213.1843,410.3584 213.6592,410.0482 213.9033,410.3372 214.1471,410.5335 214.2124,410.5141 213.9303,409.644 213.9112,409.4293 214.0133,409.3161 214.2752,409.3529 214.4244,409.4553 214.8268,409.4448 215.0043,409.5757 215.0886,409.7343 215.1274,410.0532 215.8859,410.7627 215.8187,410.1542 215.8644,409.7323 215.958,409.6106 216.1001,409.5877 216.2121,409.8909 216.638,410.5715 216.819,410.7325 216.8943,410.6939 216.9312,410.4509 216.7622,410.0297 216.838,409.6093 217.1923,409.673 217.538,409.8638 217.6492,409.7842 217.5835,409.6251 217.3114,409.429 217.5614,408.4543 219.1489,408.1223 219.8139,407.916 220.0986,407.7251 220.3605,407.4302 220.5405,406.9643 220.9452,406.8724 221.2269,406.7294 221.3372,406.4964 221.2965,406.104 221.3358,405.862 222.1105,404.7664 222.6342,404.319 222.7144,403.9961 222.9256,403.5904 223.0958,403.438 223.4795,403.3558 224.2775,403.3643 224.8233,403.4538 225.1962,403.3723 225.5096,403.4015 225.9447,403.8651 226.652,404.0053 227.572,404.5205 228.1164,404.1854 228.419,404.2151 228.6711,404.3757 229.2495,405.2138 229.6433,405.4659 230.8957,405.3918 231.4701,405.1976 231.7721,404.9747 231.9538,404.9536 232.1768,405.3374 232.3385,405.4278 232.5308,405.4581 233.0546,405.2337 233.3685,405.3243 233.8734,405.6688 234.4287,405.6266 234.9948,405.8475 235.7513,405.8454 236.5985,405.661 236.9419,405.7409 237.4059,405.699 238.192,405.3941 238.7174,405.5543 239.1407,405.553 239.6656,405.4304 239.8883,405.6916 239.7685,406.1983 240.0518,406.5615 240.5428,406.6382 240.559,406.7606 240.6183,407.2075 244.6463,437.5795 245.3155,437.1615 246.5364,436.6544 247.7954,436.7535 248.0776,436.6387 250.6991,434.7097 252.3638,434.1937 255.8958,430.7001 258.0304,429.0302 267.6085,428.2976 267.3423,438.6201" stroke="black" /><polygon fill="none" points="248.7532,470.9355 266.9952,452.181 273.6542,445.3349 267.0939,459.4264 264.8274,468.1003 266.004,468.3377 267.9982,469.2384 266.2694,474.9181 264.9384,475.0757 264.0357,475.6826 263.7655,476.1057 263.6234,476.4791 263.5011,478.5226 262.0651,482.1461 261.2533,483.5425 260.7112,483.9971 258.7829,484.7576 255.7387,485.2172 255.4043,485.2677 254.0506,484.7731 248.6126,483.8509 246.1396,484.2511 245.476,484.2229 245.3861,484.4951 242.6726,485.0468 241.2241,485.0503 238.1474,487.997 237.8451,489.9909 237.9091,491.9159 237.7659,492.9076 236.3667,492.9114 236.2628,497.3281 230.5925,498.7266 228.2522,499.304 227.2629,499.828 224.8756,497.1168 219.625,497.1014 219.8142,500.0 212.7075,499.8692 200.2408,473.4092 191.9322,455.7746 199.4143,449.0342 215.3527,467.2028 219.7161,469.5806 225.2152,472.5772 230.5538,475.7538 237.1806,479.231 242.7311,474.0767 244.2539,473.6947 246.5419,472.0727 248.7532,470.9355" stroke="black" /><polygon fill="none" points="261.6398,193.2667 252.0706,187.3691 249.558,185.8201 248.6026,185.2311 234.3991,182.2231 202.7287,175.5161 189.7926,172.7727 197.6025,151.1718 197.6991,150.905 209.5542,118.1528 211.1802,113.6607 211.298,113.3355 211.6757,112.2936 223.0388,80.9425 223.1803,80.5528 225.1712,75.0636 224.4065,74.6088 223.6925,73.852 223.3449,73.6767 222.8153,73.5768 221.9223,72.8724 221.8788,72.719 222.2431,72.35 222.3958,71.8973 221.6407,68.9943 221.4851,67.4329 222.3681,62.7949 222.5978,60.7303 222.1501,57.2601 222.2449,55.5164 222.8971,53.9126 223.2439,49.8884 223.8618,48.3433 224.0656,47.4753 223.8745,46.2809 223.9019,42.9995 223.7516,40.4952 223.8777,39.9424 224.3889,38.6779 224.6164,38.3984 225.96,37.2787 227.5065,36.2777 228.2032,35.3541 229.0222,34.5811 229.9861,33.2751 230.6268,31.5899 231.0581,31.2221 231.314,31.1458 232.1984,31.1944 232.4906,31.0561 232.7096,30.3302 232.6419,29.773 232.7684,29.09 233.3385,28.0268 233.6297,27.032 233.2182,26.0393 233.6997,25.9232 240.9423,24.1814 248.1239,35.6102 249.1702,35.0275 249.735,34.8409 250.3107,33.9292 252.2772,34.2283 252.5552,33.9428 253.9872,33.494 257.1504,34.8234 257.1727,34.9571 257.1846,35.0286 257.8869,35.2248 258.6024,35.2305 258.8435,35.2696 259.0832,35.4033 260.4554,35.7315 260.8598,35.7326 261.337,35.6195 267.2529,35.0105 267.9711,35.11 269.5841,34.3017 270.1332,34.386 270.5709,34.0256 271.4014,34.0929 271.6433,35.081 271.902,35.7084 272.2252,36.8638 272.681,37.6486 273.6906,38.8431 274.6993,39.8882 276.5189,42.1161 276.8629,42.3678 277.5078,43.0316 278.0907,43.7609 278.816,44.4127 281.147,44.8573 281.4175,44.8598 282.1437,45.174 282.8602,45.852 283.2152,45.9867 283.6421,46.0472 284.0378,46.2326 284.5779,46.7426 285.055,47.3103 285.4615,47.4948 286.4603,47.5941 287.042,47.3952 289.6055,47.3895 289.7126,47.3892 290.5494,47.32 291.2303,47.6369 292.6234,48.2851 292.8214,48.3773 293.2062,48.5564 325.3791,63.5181 325.6626,63.65 329.9076,65.6223 341.9258,57.5848 345.9282,69.9016 345.6568,74.369 346.3176,74.5339 346.7363,74.0369 347.146,73.8113 347.431,73.7737 348.3037,73.3335 349.868,72.7557 350.5811,72.5904 351.9671,72.3949 353.8831,72.3268 355.6238,71.7171 356.9032,70.6304 358.1121,72.1983 358.5534,73.1341 358.3924,75.5878 358.4752,76.0275 358.8808,76.7194 358.8965,76.9569 358.6434,77.8554 358.7547,77.9665 359.0067,78.0697 359.0519,78.1964 359.0519,78.3886 358.8973,78.9139 358.8704,79.3586 358.8386,79.8826 358.7349,80.1509 358.1392,80.5945 357.725,80.903 357.563,81.1991 356.9247,81.9712 356.3279,82.5904 355.9429,82.7936 355.9123,82.8097 355.4058,82.9748 355.307,82.9827 355.17,82.9937 354.9825,83.9717 354.8023,84.2819 354.4042,84.6644 353.0827,84.832 352.4676,85.1066 352.4129,85.143 351.8349,85.5271 351.0847,86.3471 350.7424,86.8575 350.6899,87.6034 350.8029,88.9311 350.8552,89.0323 350.8938,89.1072 351.1397,89.5845 351.2688,90.1474 351.7593,90.8927 352.3947,91.3449 352.6309,91.6169 352.4639,93.2728 352.2123,94.0919 352.0141,94.4736 351.9272,94.5652 351.1831,95.349 350.977,96.041 350.8699,96.7331 350.8541,97.3694 351.2562,98.0405 351.8006,98.9492 352.5369,99.8379 352.8656,100.7648 353.6302,102.1806 353.8845,102.4706 354.2965,103.8335 354.4077,104.7067 354.5544,105.2522 355.1365,106.0692 355.2916,106.6131 356.5455,107.8831 356.6192,108.1737 357.9265,109.1339 359.1895,110.3487 361.0598,111.9078 362.668,113.4487 363.8666,114.355 366.3523,115.3975 366.4079,118.4142 368.5964,118.4067 368.5694,124.8825 366.473,124.8881 366.4699,131.0825 349.4772,131.123 349.5489,145.1767 349.6062,156.4145 349.6179,158.7038 349.7201,178.7465 349.7331,178.7463 360.8386,178.5716 355.9511,194.3474 354.5448,208.6961 344.9274,246.304 344.9116,246.3661 343.3866,252.3366 297.7537,247.6227 297.6998,246.7425 297.4805,246.1608 296.3254,244.6424 296.2534,243.3018 295.8407,242.8814 295.3195,242.6507 294.9771,242.1261 295.3765,241.4602 295.1422,240.911 295.5211,239.8571 295.4447,238.8567 296.0973,238.4102 296.3277,237.8388 296.1591,236.7784 295.8425,236.1251 295.2362,235.4558 295.0119,234.7208 295.2069,233.9932 295.8151,233.135 296.402,231.0001 297.1603,230.0139 297.7613,229.5328 298.2634,226.2964 298.2723,224.9134 297.955,223.5117 296.7235,221.3587 296.9081,219.601 296.3502,219.1187 296.3072,218.7186 296.1273,218.5805 294.8289,218.4253 294.412,218.0075 294.4057,217.6143 294.7439,217.3864 295.4437,217.1006 295.9546,217.2353 296.6801,216.8533 296.9266,216.2975 296.872,215.6749 297.2121,215.6237 297.3366,215.244 270.6126,198.7909 269.1557,197.894 269.1251,197.8751 261.6398,193.2667" stroke="black" /><polygon fill="none" points="319.5916,15.8248 319.6325,15.8914 319.9263,16.316 320.2429,16.8314 320.7973,17.7022 321.1459,18.3031 321.3619,18.6052 321.6638,19.0397 321.704,19.0976 322.001,19.4999 322.2838,19.886 322.6467,20.439 323.0306,21.0424 323.3481,21.5006 323.6023,21.9148 323.9565,22.4296 324.2304,22.8249 324.4963,23.2075 324.6941,23.4979 325.0183,23.9121 325.1957,24.1555 325.3311,24.3467 325.0918,24.4729 324.0214,25.0375 321.5194,26.357 320.7162,26.9861 320.3594,28.0032 320.3985,28.6857 309.8507,32.7579 309.7268,32.8488 308.3795,35.0119 308.2167,35.1912 307.3768,35.669 307.2487,35.8588 307.2118,36.2384 307.2981,36.6919 307.3138,37.3586 307.0618,38.2065 307.0623,38.5264 307.4677,40.1696 307.4515,40.6929 307.1865,41.3108 306.7352,41.7332 306.6554,41.9267 306.678,42.8683 307.2677,43.8757 307.3628,44.6214 307.3326,45.5558 306.9997,46.9305 306.8643,48.2806 306.8571,48.3521 301.1327,46.7287 300.5339,46.6282 299.3996,46.6316 298.7443,46.7095 294.0131,47.4371 292.9506,47.6005 292.8214,48.3773 292.6234,48.2851 291.2303,47.6369 290.5494,47.32 289.7126,47.3892 289.6055,47.3895 287.042,47.3952 286.4603,47.5941 285.4615,47.4948 285.055,47.3103 284.5779,46.7426 284.0378,46.2326 283.6421,46.0472 283.2152,45.9867 282.8602,45.852 282.1437,45.174 281.4175,44.8598 281.147,44.8573 278.816,44.4127 278.0907,43.7609 277.5078,43.0316 276.8629,42.3678 276.5189,42.1161 274.6993,39.8882 273.6906,38.8431 272.681,37.6486 272.2252,36.8638 271.902,35.7084 271.6433,35.081 271.4014,34.0929 270.5709,34.0256 270.1332,34.386 269.5841,34.3017 267.9711,35.11 267.2529,35.0105 261.337,35.6195 260.8598,35.7326 260.4554,35.7315 259.0832,35.4033 258.8435,35.2696 258.6024,35.2305 257.8869,35.2248 257.1846,35.0286 257.1727,34.9571 257.1504,34.8234 253.9872,33.494 252.5552,33.9428 252.2772,34.2283 250.3107,33.9292 249.735,34.8409 249.1702,35.0275 248.1239,35.6102 240.9423,24.1814 240.9555,24.1781 240.9909,24.169 274.4612,15.6078 274.4942,15.5994 274.5006,15.5977 303.036,8.2989 303.8357,8.0943 305.1596,7.7557 305.1833,7.7496 306.1325,7.5068 307.0129,7.2816 309.3071,6.6948 310.9372,6.2769 311.2155,6.2062 311.5214,6.1284 312.831,5.7955 312.8319,5.7932 313.2426,5.6882 313.4793,5.6263 313.492,5.623 313.5855,5.693 313.8222,5.946 313.8947,6.0718 313.9346,6.1409 314.0,6.2508 314.0599,6.346 314.1462,6.4994 314.2195,6.642 314.3926,6.9584 314.6131,7.3159 314.8349,7.7888 315.252,8.5817 315.4585,8.8894 315.5913,9.1413 315.7373,9.356 315.812,9.4658 316.0104,9.7691 316.161,10.0054 316.415,10.4238 316.5498,10.6374 316.6095,10.7319 316.8074,11.0223 317.0898,11.5465 317.1307,11.6225 317.4537,12.168 317.7331,12.6419 317.8365,12.8134 318.0228,13.1222 318.3724,13.8109 318.6333,14.268 318.9693,14.8067 319.2134,15.2082 319.5916,15.8248" stroke="black" /><polygon fill="none" points="366.3045,111.3129 366.2302,104.9661 389.0372,104.8928 388.9859,91.1127 390.1649,91.1081 390.3023,91.1076 397.4093,91.0802 397.342,84.632 403.8156,84.6121 403.7765,76.9539 420.8563,76.9244 420.7973,63.4577 440.5787,64.7948 440.9104,64.8173 442.392,64.9174 442.3537,74.7034 442.2328,99.0387 425.8029,99.1284 421.2228,103.7469 417.3651,107.637 417.3651,111.149 417.3651,117.662 434.2181,117.7786 434.239,119.4448 434.561,145.0468 434.5612,145.0611 434.7288,158.3868 434.9843,178.7034 388.8762,178.8181 360.8386,178.5716 349.7331,178.7463 349.7201,178.7465 349.6179,158.7038 349.6062,156.4145 349.5489,145.1767 349.4772,131.123 366.4699,131.0825 366.473,124.8881 368.5694,124.8825 368.5964,118.4067 366.4079,118.4142 366.3523,115.3975 366.3045,111.3129" stroke="black" /><polygon fill="none" points="368.8696,314.4364 368.1897,316.8077 365.9664,317.619 363.8378,318.152 363.1804,318.4391 361.8306,319.2974 360.9712,320.1407 359.2834,323.0141 358.0989,323.927 357.1209,324.4361 355.7284,325.3343 354.6628,326.1121 353.7456,327.023 351.8843,329.8433 346.8275,335.7392 346.5017,335.9351 345.5696,335.7544 344.9265,335.5228 344.5112,335.554 344.3043,335.9117 344.0697,336.6566 343.3601,337.6571 342.6813,338.7609 341.8825,339.6269 341.2291,339.5985 340.9306,339.0935 340.3024,337.5031 338.6386,337.002 337.5699,337.035 334.8699,337.5345 334.1293,337.954 331.8799,340.1646 325.4872,337.3074 317.9233,334.3907 317.0441,333.9077 316.7636,333.7541 314.0897,337.3113 313.3012,337.3528 312.6785,337.5781 310.5556,337.301 309.9896,336.7228 309.1428,336.4051 308.6366,335.9599 308.354,335.9607 307.5545,336.4839 307.2872,336.3949 306.8839,335.6818 306.5271,335.3929 306.305,335.453 305.9896,336.0079 304.113,337.2762 302.9849,337.1976 302.776,336.9156 302.8639,336.3937 302.388,336.3047 302.2192,335.8718 301.5873,336.4128 301.097,336.3319 300.7106,336.4672 298.2489,336.0733 297.8891,335.6051 297.5487,335.4544 297.3424,335.3631 296.7585,334.6708 294.6501,334.535 293.7733,334.2547 292.5428,334.6899 290.8503,334.4791 290.5684,334.6289 290.1823,335.3314 289.1633,335.9868 288.0054,336.1776 287.5001,336.0452 286.9227,336.5681 286.1642,336.5405 284.9212,337.4154 284.3721,337.3124 283.6021,337.8251 283.2004,337.8815 282.8741,337.6742 281.4795,338.2511 280.9304,338.2229 280.6626,338.0298 280.1877,338.1799 279.7271,337.9139 279.4468,337.9929 279.1672,338.0717 277.725,338.4782 272.218,338.5162 270.6754,338.7544 270.1884,339.0325 270.083,339.0926 268.905,339.0874 268.2855,339.4354 267.4819,340.0372 265.93,341.6251 264.7077,341.7333 262.4389,341.381 260.8152,341.6658 259.2112,342.2392 257.4333,343.3999 254.9925,344.6237 252.7457,345.4888 251.9136,345.5497 251.363,345.5901 249.8975,345.6974 248.5372,346.4192 245.2243,347.7152 243.7829,347.3213 242.5591,346.7201 233.0792,350.3273 240.108,303.5499 241.1166,303.6658 241.3317,301.4203 241.6771,297.8147 242.5614,288.4358 247.5727,279.3141 258.2429,259.9029 264.7323,248.0974 264.9331,247.7322 296.6823,247.6264 297.7537,247.6227 343.3866,252.3366 350.8407,270.4738 350.8423,270.4777 350.8798,270.5689 357.0693,285.6289 368.9018,314.3712 368.8696,314.4364" stroke="black" /></svg>