<?xml version="1.0" encoding="utf-8" ?>
<svg baseProfile="tiny" height="500" version="1.2" width="251.7965" xmlns="http://www.w3.org/2000/svg" xmlns:ev="http://www.w3.org/2001/xml-events" xmlns:xlink="http://www.w3.org/1999/xlink"><defs /><polygon fill="none" points="129.1032,284.7866 128.958,285.0788 128.5034,286.107 127.6071,287.3741 125.6873,292.1382 130.9143,294.7357 132.1232,296.9844 132.9935,297.9478 132.5937,300.1843 131.4978,300.9971 131.5782,302.1337 130.9895,303.0614 132.1464,304.5019 133.754,307.1621 133.8807,307.8585 134.6437,308.7618 136.2183,312.2882 135.5704,315.249 134.432,318.0925 133.9152,321.7747 126.0856,331.4867 117.8113,341.7503 118.0307,365.1677 117.993,365.188 117.9878,365.1865 71.6435,353.5125 71.0859,353.3719 70.8838,353.321 49.1222,347.8344 49.107,366.506 49.1063,367.4338 49.106,367.7341 49.0688,413.5045 49.0578,427.0421 49.0479,439.2621 49.0477,439.5483 50.4221,441.2956 50.4386,442.1291 50.1578,441.2619 48.6219,439.1379 46.6332,437.7367 43.8297,437.2823 42.9709,436.4685 42.7824,436.3485 42.0243,435.8657 40.8011,435.6089 37.4065,435.6427 36.6406,435.6503 33.0685,434.6081 31.26,434.3354 28.8635,433.8818 27.0319,433.7082 23.0523,433.7497 21.7863,433.7033 21.1532,433.4316 20.7017,432.9346 20.5661,432.6185 19.261,426.2948 19.0377,423.1331 17.973,421.9688 15.8305,419.6257 15.7347,419.5159 14.4099,417.9955 12.3649,415.6501 12.2171,415.4806 12.1988,415.4785 8.7126,415.0723 4.8081,414.6174 6.2958,414.7724 5.9399,346.7207 5.7116,303.0507 5.5719,276.3482 32.0251,259.5582 34.8328,259.7413 39.0881,259.0356 39.1049,259.0034 39.0998,259.0347 42.2161,258.7747 46.9632,258.3787 47.4337,252.3737 47.5053,252.4462 47.5397,252.4793 47.5435,252.4829 47.6075,252.4937 47.6604,252.4937 47.6671,252.49 47.6774,252.4863 47.7168,252.4491 47.7198,252.4416 47.7442,252.3474 47.7474,252.3333 47.7709,252.2656 47.8378,252.2159 47.9055,252.2019 47.9703,252.2446 47.989,252.312 47.9891,252.3191 47.9904,252.4078 47.9908,252.4153 48.065,252.4864 48.0948,252.5269 48.1923,252.5218 48.1957,252.518 48.3066,252.4504 48.3949,252.4314 48.5939,252.4216 48.6901,252.4424 48.8301,252.4287 48.9367,252.3769 49.0394,252.3143 49.1144,252.2093 49.156,252.11 49.1759,251.9736 49.265,251.8774 49.487,252.107 50.3575,252.4185 50.4043,252.3178 50.5915,251.9156 51.2653,250.9166 51.4106,250.7571 51.7681,250.446 52.638,249.5676 53.0815,249.0696 53.3031,248.9046 53.3854,248.6264 53.8477,248.1966 54.3755,247.3907 54.696,246.8188 55.7861,244.4956 56.0952,243.7903 55.8474,243.5661 55.6101,243.3198 55.4805,242.9997 55.4244,242.7365 55.2189,242.2204 54.9757,241.3817 54.94,240.9117 55.0608,240.223 55.2106,239.9415 55.8252,239.1769 56.5378,238.6315 57.367,238.0252 57.9357,238.3762 59.4465,237.3089 60.4592,236.6909 60.4287,236.3017 62.1521,235.778 62.7053,235.6099 63.8269,235.198 63.8684,235.4104 63.8877,235.4613 63.927,235.4859 63.9823,235.4819 64.3506,235.4018 65.5697,235.1404 65.7324,235.1062 66.528,234.9387 66.6965,234.9056 67.5158,234.7449 68.2502,234.6169 69.2562,234.4283 70.0645,234.2655 70.3085,234.2149 70.3468,234.2069 70.981,234.0753 71.6523,233.9386 71.7383,233.9194 72.4633,233.7817 73.4735,233.5825 74.0856,233.4598 74.8901,233.3001 75.2333,233.2358 75.565,233.165 75.629,233.1601 75.6558,233.7815 76.4752,233.7756 76.8676,233.7579 77.7168,233.7307 78.1766,233.6917 78.2484,233.6183 78.5746,233.5686 78.82,233.5353 79.0482,233.5058 79.1504,233.4987 79.3987,233.5222 79.5933,233.5482 79.7335,233.5599 79.8362,233.571 79.8809,233.5686 79.8992,233.5507 79.9018,233.5094 79.8567,233.405 79.4788,232.5432 79.4201,232.3937 79.407,232.3641 79.4011,232.3381 79.3988,232.3276 79.4534,232.3297 80.2115,232.4028 80.4575,232.428 80.5009,232.4324 80.7633,232.4304 81.0499,232.4239 81.2679,232.4228 81.3181,232.4217 81.4249,232.4197 81.8302,232.4163 82.0261,232.4155 82.2138,232.4144 82.4822,232.413 82.7275,232.4098 84.6774,232.4118 84.7188,232.4325 84.7425,232.456 84.8453,232.6414 84.9269,232.7901 84.9696,232.8909 85.0691,232.8891 85.1941,232.8853 85.3912,232.8754 85.5611,232.862 85.8082,232.8492 86.0437,232.8392 86.292,232.8286 86.4112,232.8205 86.434,232.819 86.7352,232.8009 86.779,232.7983 86.93,232.7953 87.0132,232.7972 87.0161,232.7972 87.0762,232.805 87.1275,232.8116 87.3155,232.8448 87.3476,232.8518 87.3763,232.8581 87.4028,232.8639 87.4375,232.8715 87.4645,232.8774 87.4987,232.8849 87.7171,232.9385 87.7991,232.9586 87.8412,232.9689 87.9159,232.9872 88.0366,233.016 88.1741,233.041 88.2155,233.0441 88.2461,233.0154 88.2768,232.9988 88.3045,233.0019 88.3327,233.0233 88.3386,233.0387 88.4147,233.0353 88.5456,233.0296 88.6707,233.0242 88.7637,233.0202 89.433,233.0368 90.0626,233.035 90.2438,233.0345 91.1456,232.994 91.522,232.9772 91.6402,232.9629 91.8747,233.078 92.1616,233.2429 92.8837,233.6336 93.1449,233.7613 93.3442,233.8267 94.0792,233.9213 94.3202,233.9316 94.8239,233.9178 95.0406,233.9079 95.6826,233.9675 95.9419,234.0007 96.4867,234.0336 97.0046,234.0897 97.0469,234.0943 97.2576,234.1095 97.7357,234.1005 97.873,234.1119 97.9045,234.1146 97.9198,234.1158 98.5905,234.1551 98.6027,234.1559 99.3094,234.2226 99.4532,234.2251 99.9339,234.0714 100.6112,233.8719 101.3162,233.6786 101.9837,233.4972 102.2902,233.4311 102.4137,233.3867 102.4829,233.3613 102.5723,233.305 102.6646,233.247 103.3167,232.9675 103.4734,232.9095 103.9029,232.8481 103.9852,232.8078 104.1921,232.6598 104.3211,232.5519 104.5197,232.4351 104.8123,232.3035 105.0445,232.1532 105.2166,232.0294 105.5944,231.7517 105.6844,231.6939 105.7131,231.6397 105.6946,231.5607 105.6266,231.4152 105.5354,231.1209 105.5161,231.0419 105.536,230.9859 105.5672,230.9783 105.6448,231.0093 105.8466,231.054 106.7103,231.1933 107.0086,231.2229 107.2144,231.2227 107.3819,231.2204 107.5022,231.2397 108.1439,231.3584 108.1951,231.3669 108.2882,231.3665 108.4194,231.368 108.5019,231.3892 108.8569,231.446 108.968,231.4809 109.412,231.5977 110.0215,231.6019 111.3038,231.5756 111.356,231.582 111.4365,231.6244 111.5343,231.6873 112.1075,232.1011 113.5338,233.0182 113.6515,233.0892 114.6323,233.7 115.5325,234.2606 115.5777,234.2606 115.6165,234.2396 115.6934,234.1168 115.8602,233.7965 117.7872,235.0004 119.5975,236.1039 121.3341,237.1436 121.9699,237.5445 123.5935,238.765 124.428,239.3996 125.2729,239.8423 126.1458,240.2902 126.5927,240.5883 127.1555,241.036 128.0124,241.7358 128.2347,241.9171 128.2718,241.9383 129.3319,243.6766 129.6931,244.2689 131.2711,245.4172 133.5161,247.0508 137.7089,250.1019 138.0725,250.39 138.5972,250.7999 139.1581,251.2451 139.7991,251.7382 140.4725,252.2618 141.022,252.6815 141.6762,253.193 141.7368,253.2364 142.0693,253.4921 142.548,253.8596 143.3366,254.4784 144.2055,255.1473 144.8919,255.6829 145.6235,256.2514 145.7152,256.3205 145.7163,256.3483 145.7204,256.4503 145.6835,256.6433 145.655,256.767 145.4743,257.9084 145.3458,258.5345 145.2656,258.8302 145.1558,259.164 144.9662,259.6874 144.9499,259.7323 144.8639,259.9496 144.8278,260.0927 144.7655,260.2703 144.6858,260.4811 144.6257,260.6059 144.573,260.7914 144.4831,260.984 144.483,260.986 144.4231,261.1154 144.3798,261.2161 144.2928,261.7056 144.2679,261.938 144.2418,262.0752 144.2314,262.1468 145.2981,263.1166 142.889,267.4633 141.6416,267.3457 141.1828,267.7613 140.5145,268.4312 140.1601,268.7715 139.9799,269.0076 139.6079,269.4276 139.3466,269.6628 138.9622,269.9962 138.6289,270.22 138.2729,270.3271 137.7226,270.4989 137.4449,270.7361 137.317,270.9246 137.1503,271.1476 136.9759,271.1713 136.9585,271.1772 136.6538,271.2099 136.1371,271.4253 135.3418,271.9132 135.3312,271.9131 134.9261,272.1859 134.7493,272.4676 134.6089,272.7101 134.3604,273.2358 133.9284,274.1572 133.6359,274.721 133.3194,275.3353 132.562,276.8958 132.3717,277.3318 132.1501,277.7713 131.5696,279.1069 130.9623,280.6342 130.3688,282.2382 129.8923,283.4003 129.4321,284.1244 129.1032,284.7866" stroke="black" /><polygon fill="none" points="97.9794,142.1091 97.1982,142.7281 95.376,144.4164 94.2407,144.4771 73.7604,143.6663 67.6518,143.4244 69.2182,139.9152 69.2205,139.9102 69.4343,139.4342 69.599,138.7454 69.5091,138.1215 67.761,137.2673 65.9433,136.3183 65.0079,135.579 64.7456,135.0211 65.1688,134.6535 65.5896,134.1708 65.7114,133.8098 65.0919,133.052 64.0249,132.6739 63.1874,132.8209 62.5635,132.7877 62.1908,128.3027 60.7039,127.5644 57.9165,125.0987 56.43,123.5702 56.1417,122.4554 56.2667,121.0933 56.8047,120.0617 57.3424,119.2778 57.6,118.5292 57.0206,118.5854 56.3141,118.4636 56.3459,117.9638 55.9788,117.8714 55.4625,118.1216 55.2341,118.5539 54.8498,118.6862 54.3669,118.4339 53.9495,118.6413 53.6532,118.3905 53.0824,118.1083 53.8592,117.4814 54.1797,117.0205 54.5009,116.4147 55.2704,116.1036 55.7323,115.7836 55.8539,115.2364 54.9205,115.4032 54.9636,115.0277 55.6052,114.7039 56.0943,114.0753 55.5545,113.8752 55.1357,113.6103 54.7766,113.6529 54.332,113.9769 53.8193,113.6903 53.7572,113.6832 53.3326,113.6346 52.6656,113.8219 52.1326,114.3485 51.9808,115.0976 52.369,115.7192 51.8555,116.5705 51.4324,117.1081 50.68,117.5598 49.9424,117.568 49.8165,117.0941 50.1334,116.8425 51.7633,116.1009 51.4205,115.5897 51.2925,115.1695 50.9979,114.6272 50.9365,114.1834 50.5116,114.1533 50.0668,114.3064 48.8197,113.7932 48.0505,113.6135 47.1276,113.6384 46.1444,113.8681 45.6143,113.8846 45.2132,113.3977 44.911,113.2864 44.1872,113.7768 43.2127,114.0702 42.0845,114.1978 41.6225,114.3937 41.1006,114.8372 41.2413,115.5204 41.0956,115.9513 40.63,115.9554 40.1262,115.1264 39.5514,114.4003 39.2031,115.0917 39.288,115.7789 39.4929,116.2359 39.5992,116.7183 39.1125,116.3853 38.4501,116.3433 38.5187,115.8594 38.5705,115.3812 38.4299,115.0012 37.9983,114.9458 37.5538,115.0819 37.0067,115.1153 36.4769,114.9955 36.055,115.2769 36.6499,115.9718 36.7579,116.285 36.6551,116.6605 36.2317,116.8139 35.5895,116.6767 35.3467,117.1203 35.3462,117.7012 35.4013,118.2947 34.9953,118.6489 34.2688,118.5369 34.0725,118.225 34.235,117.7686 34.5607,117.1196 34.5524,116.6416 34.6637,116.2832 35.2609,115.0968 34.3572,115.1816 33.7275,115.2094 33.0121,115.8918 32.5109,115.4104 31.7758,115.3929 31.3345,115.2987 30.9807,115.8743 30.5281,115.2921 29.964,115.3231 29.5711,115.1772 28.9472,114.9236 28.8056,115.339 28.5146,116.0493 27.9467,115.7866 27.3709,115.8642 26.9632,116.3306 26.399,116.5409 26.0316,116.3186 25.6939,116.3479 25.5694,117.001 25.4365,117.6159 25.0419,117.5272 25.0566,116.8722 25.1107,116.2856 24.5788,116.3596 23.9665,116.5898 23.8525,115.8981 23.6679,115.4256 23.1353,115.3853 22.6477,115.7491 21.9012,115.7299 21.6983,116.1353 21.3251,116.4652 20.8563,116.2542 20.7632,115.2207 20.3795,114.6101 19.5891,114.3723 19.9046,115.0406 19.9299,115.4845 19.7074,115.8092 19.015,115.9835 18.3652,116.4781 17.6557,116.5841 16.8523,116.4725 16.459,116.2756 15.9979,115.9707 15.6983,116.4413 15.9585,117.1545 16.6059,117.8013 16.3891,118.2843 15.7566,118.1109 15.3551,118.1018 14.7826,117.7598 14.5699,116.9995 14.2882,116.6238 13.9293,116.4272 13.5405,116.4991 13.0908,117.0323 12.6166,117.3054 11.7364,117.1723 11.3986,117.0989 10.7669,116.7145 9.7928,116.5001 9.1945,116.2863 8.5967,116.2 7.7632,115.9944 8.0324,116.3534 8.2816,116.9637 8.1853,117.1473 7.8883,117.7134 7.4111,117.8042 6.9625,117.5815 6.1431,116.7911 5.57,116.7863 5.3106,117.1958 5.5005,118.0497 5.3208,118.4808 4.538,118.3904 3.9275,118.4922 3.5861,118.0651 3.2274,117.9623 3.0471,118.4741 2.7564,118.9267 2.2379,118.8491 1.9356,119.3185 1.5878,119.4691 0.9926,119.016 0.4102,119.0527 0.0,118.6642 0.2285,116.3988 0.5742,112.9712 2.0014,86.0392 2.0389,85.3305 11.8198,58.4842 19.3864,57.7748 21.3086,55.013 21.3449,54.9608 33.1797,37.9558 35.5935,34.4876 37.0857,34.4389 37.7954,34.4158 38.5428,34.5093 39.1342,34.6101 39.784,34.5179 40.8607,34.5343 42.2864,34.2775 43.406,33.718 44.3966,33.1505 44.863,32.3873 45.5334,31.6764 46.8054,30.9413 47.4733,30.6448 48.3257,30.5682 49.4511,30.5304 50.5221,30.6384 51.5254,31.1248 52.7161,31.2517 54.0051,30.9867 54.888,30.6374 55.6726,30.512 57.1439,30.0511 58.2508,29.702 58.9097,29.0725 59.2883,28.5828 59.961,28.2333 60.4655,28.0657 60.7336,27.918 61.2947,27.609 62.3012,27.311 63.5062,26.9059 65.7347,25.4656 66.7997,24.9204 68.4528,24.8041 69.0917,25.1811 69.2196,25.6296 69.7518,25.7223 70.1915,26.081 70.1099,26.5458 69.9605,26.869 69.5337,27.1648 69.0418,27.4333 68.7221,27.8383 68.5705,28.2372 68.3138,28.7452 68.0865,29.2448 68.1644,30.0373 68.0604,30.4082 68.0097,30.8407 67.9673,31.3405 68.3096,32.5685 68.3444,32.9283 68.3737,33.7995 68.6389,34.4278 68.8761,34.8284 68.9885,35.3366 69.0858,35.7702 68.9528,36.2648 68.8209,36.5885 68.7001,37.0756 68.6886,37.5395 68.5781,38.1593 68.3815,38.564 67.9599,38.9357 67.6248,39.396 67.5205,39.6778 67.2437,40.1442 66.9072,40.6004 66.6219,41.0883 66.1959,41.3073 65.7165,41.698 65.1998,41.9963 64.6467,42.2199 64.1711,42.478 63.8684,42.6169 63.6299,42.8034 64.0956,42.9702 64.5944,42.958 64.9486,43.1829 64.9061,43.857 64.7502,44.4308 64.3884,44.9107 64.1255,45.2318 63.7492,45.3765 63.136,45.6802 63.3326,46.1482 63.6454,46.5586 64.0725,46.955 64.1125,47.4143 64.4613,47.766 65.1809,47.9917 65.8025,48.1204 66.1026,47.9247 66.1062,47.4809 66.6016,47.2846 66.9017,47.2696 67.4156,47.713 67.5509,48.3956 67.5081,49.187 67.7969,49.6951 68.0714,50.089 67.9703,50.7743 68.2758,51.6611 68.4918,52.1507 68.8466,52.41 69.3646,52.8968 69.5498,53.5401 69.6848,54.1535 69.6994,54.9503 69.7479,55.6882 69.4376,56.2712 69.2463,56.6822 69.1045,57.1077 69.3929,57.4383 69.788,57.4218 70.1243,57.4332 70.6956,57.7451 71.3606,58.003 71.7689,58.5571 72.4679,59.2335 72.9126,59.2197 73.2386,59.7926 73.4217,60.1836 73.6874,60.4589 74.069,60.8623 73.7556,61.3094 73.6973,61.8627 73.627,62.6144 73.5522,63.0081 73.5034,63.5456 73.5515,63.9846 73.6712,64.5858 73.6936,64.8683 73.7901,65.2302 73.3791,65.6115 73.0523,65.9875 72.5729,66.6804 72.6468,67.1779 72.6939,67.7529 72.8493,68.1548 72.9036,68.6294 73.1023,68.9039 73.5546,69.3445 73.9046,69.7277 74.1482,69.9861 74.2977,70.5595 74.5089,71.1476 74.8816,71.6655 75.2469,71.4656 75.4965,71.3289 75.8351,70.9041 76.143,70.5762 76.4753,70.2152 77.2518,60.7197 78.8751,40.8672 91.916,44.0127 92.4825,44.1389 93.1558,44.1136 94.0171,44.1395 95.0723,43.9042 95.62,43.8012 96.8069,43.5781 97.9928,43.6483 99.3181,43.3626 99.9088,43.3251 100.8544,43.4267 101.5126,43.461 102.6036,43.2821 103.0659,42.8714 103.4328,42.6142 104.0094,42.5312 104.6048,42.6016 105.4532,42.7588 105.8392,41.9365 106.4176,41.3909 107.3517,41.6957 107.6324,42.3341 108.1812,42.5029 108.6653,42.4417 108.8878,41.7049 109.2114,41.9469 109.3445,42.1232 109.6415,42.5167 110.2741,42.7909 110.859,42.7746 111.6838,42.9605 112.5531,42.8345 112.9836,42.8601 113.4016,42.9278 113.7968,42.6579 113.6167,42.2028 113.1531,41.6623 112.9043,41.1899 112.7231,40.8187 111.8735,40.3993 112.1665,40.0596 112.6733,39.9249 113.2637,39.9083 113.8547,39.8071 114.2936,39.8553 114.5241,40.3025 115.9636,41.9506 116.3605,42.2546 116.909,42.4519 117.7362,42.1712 118.4285,41.8594 119.1883,41.9021 119.8124,42.0961 120.3191,42.2064 120.9691,42.2277 121.6864,42.0722 121.7489,42.0715 122.4377,42.0639 122.8647,41.6238 123.7297,41.078 124.2578,40.9359 124.9618,40.7998 125.3263,40.373 125.8281,40.1615 126.4057,40.1597 126.8447,39.9658 127.1852,39.6174 127.4737,39.4142 128.2433,39.3138 128.6238,38.9915 128.755,38.3793 128.8154,37.9377 136.4833,38.7723 151.3601,40.3914 169.1849,42.3311 181.334,44.0174 197.6226,46.2782 198.7774,46.4385 204.0261,58.5301 203.1413,58.3395 202.0068,58.0952 198.8868,59.8924 194.9926,64.1329 192.3929,66.7672 191.3932,68.1125 190.5998,68.4885 188.2221,68.4878 187.0094,68.6362 185.1252,68.8621 183.4515,69.8473 182.5078,69.9783 179.454,70.1075 179.2725,72.1133 178.5245,73.0835 177.3724,73.9482 176.2358,74.3526 175.8055,75.288 175.7378,76.6605 174.1867,77.9891 172.1392,79.584 171.6156,83.4453 174.4478,86.4806 175.6075,87.7235 174.8425,96.9452 174.6277,99.5351 177.5658,105.3094 182.6177,115.2381 183.8201,117.6013 184.1948,118.1474 184.701,118.7715 185.1472,119.9444 185.1733,120.5766 185.1647,121.2318 185.6313,121.5931 186.2868,121.8023 186.6506,122.7553 187.087,124.1642 187.6033,124.8787 188.3578,125.7719 189.283,126.0109 190.1852,125.9113 191.6353,125.6736 192.39,126.031 192.9667,126.3532 194.118,126.4681 194.8727,126.8254 195.4538,127.2332 196.5909,127.5753 197.9711,127.7589 199.3615,128.0569 200.0367,128.5928 200.8112,129.3272 201.4666,129.8631 201.7172,130.4337 201.7792,131.0539 202.0373,131.5301 202.1337,132.2082 200.8201,132.9554 199.7523,133.7321 199.478,134.4577 199.1757,135.9346 199.0763,136.5366 199.0761,137.198 199.0759,137.8594 198.8174,139.05 197.506,140.6966 197.0486,142.2046 196.7304,143.6928 195.24,145.9545 194.0871,148.8315 193.1379,150.972 192.7552,152.3831 191.6796,153.2283 191.1076,153.8161 190.5694,154.5454 189.8541,155.1009 188.9997,155.815 188.4328,156.0609 187.1628,156.3759 186.6076,155.6972 186.2846,155.9445 185.8715,156.2561 185.2753,156.3735 185.1593,156.926 184.5509,157.3962 183.8249,157.1608 183.029,156.791 182.3394,156.7292 181.5489,156.8726 181.2236,157.2664 181.0011,157.7022 181.1149,158.2986 180.889,158.6248 180.4553,158.1201 180.2199,157.8765 179.5641,157.1987 179.284,156.801 179.1384,156.2848 178.7852,156.2184 178.2077,156.3359 177.7266,156.5395 177.3807,156.5372 177.0861,156.1068 176.4357,157.5 175.0565,157.6256 174.2261,157.6883 173.4692,157.7545 172.4146,157.4427 171.5001,157.4703 170.3177,158.0739 169.39,158.9115 168.7975,159.4346 167.6883,161.1562 164.8068,163.4177 163.8406,164.4935 162.2362,165.4501 160.6138,166.2744 159.8218,166.3905 158.9434,166.7049 158.3596,166.7444 157.7763,166.8611 157.1711,167.3873 156.211,167.7785 155.1689,167.9738 154.4182,168.2079 153.4944,168.0103 153.5512,167.3501 153.5599,166.8294 153.5341,166.1298 153.7645,165.4975 153.8214,164.7379 153.973,164.3096 153.5695,163.9147 152.8632,163.4843 152.5011,163.0376 152.054,162.2755 151.2535,161.955 150.9835,161.4369 150.5208,161.2415 149.9431,161.2573 149.0239,161.626 148.6265,161.836 147.8832,161.7667 147.3199,161.4787 146.6419,161.1715 146.2813,160.8317 146.0438,160.3384 144.9526,159.1359 144.1557,157.7184 144.1388,157.7201 144.0156,156.8086 144.2123,156.437 144.5969,155.8536 144.6692,154.8105 144.5078,153.7392 143.9863,153.1309 142.9528,153.8388 142.2799,154.1744 141.6659,154.3926 141.0015,154.4846 140.0811,154.2494 139.3565,154.5167 138.461,155.1665 137.7657,155.4742 137.0369,155.5354 135.8764,155.5125 133.8577,154.727 133.8361,154.7186 133.012,154.8029 132.0158,155.1229 131.8936,155.673 131.7756,156.1769 131.3634,156.5799 130.968,156.8149 130.4718,156.9407 130.0848,157.2177 129.4036,157.4609 128.6472,157.9322 127.993,158.1418 127.3889,158.2011 126.8063,158.194 126.2433,158.1508 125.6988,157.9538 125.26,157.66 124.6587,156.6265 124.6823,156.246 125.2168,155.663 126.4347,155.1712 127.6327,154.4332 128.0684,153.6006 127.7575,153.1846 128.2122,152.0089 127.2493,151.4469 126.4141,150.7282 125.3763,149.9811 123.8688,149.1127 123.4665,148.6777 123.4469,148.6407 122.8161,147.4537 122.6146,146.7425 121.5255,144.6974 121.2166,143.8501 120.9889,142.7151 120.861,142.2191 120.4234,141.4944 119.6779,140.9666 118.9123,140.5552 118.2573,139.9072 117.6984,139.3543 115.9979,138.4794 115.0876,138.117 114.4299,137.7965 113.5534,137.4505 112.4405,137.1552 111.9685,136.6919 111.7834,136.2537 111.6491,135.8155 111.4131,135.3778 111.1309,135.1134 110.8064,134.9055 110.1491,134.8337 108.8334,135.0901 107.3064,134.5585 106.8106,134.6084 106.0432,134.7451 105.4952,134.9701 104.3826,134.5737 103.5735,134.1938 102.9133,134.0859 102.1826,134.1058 101.804,134.3996 101.3659,134.8444 100.9469,135.3049 100.94,136.4357 100.9505,137.6509 100.8624,138.6968 100.3151,139.8305 99.7385,141.0606 99.333,141.6918 98.7861,142.0974 97.9794,142.1091" stroke="black" /><polygon fill="none" points="114.9972,10.6992 127.5767,10.7164 128.8341,10.514 129.7481,10.4654 130.3995,10.3678 131.0662,10.3799 131.6672,10.5585 132.2307,10.5588 132.9258,10.3479 133.6219,10.1052 134.2879,9.7431 134.6804,9.502 134.7764,9.443 135.246,9.4432 135.7579,9.3355 136.3452,8.7867 136.8524,8.5804 137.4066,8.2803 137.8951,8.0834 138.3554,7.849 138.7969,7.699 139.5483,7.4835 140.2809,7.5964 140.8537,7.7093 141.8585,8.1228 142.4595,8.2544 143.1734,7.8793 143.953,7.7764 144.5155,7.8522 145.0048,7.9458 145.5588,8.1431 145.991,7.8336 146.5369,6.8462 147.0204,6.2584 147.7734,6.0487 148.3491,5.8634 148.7721,5.6032 149.7019,5.0192 150.2938,4.4469 150.7356,3.5553 151.2993,2.7953 152.0697,2.0822 152.4174,1.5754 153.366,1.3975 153.9015,0.9284 154.296,0.6469 155.2729,0.3657 156.1089,-0.0 157.938,0.1698 159.7019,4.028 159.7732,4.1839 169.2169,24.8396 169.2112,27.9683 169.192,38.4352 169.1849,42.3311 151.3601,40.3914 136.4833,38.7723 128.8154,37.9377 128.755,38.3793 128.6238,38.9915 128.2433,39.3138 127.4737,39.4142 127.1852,39.6174 126.8447,39.9658 126.4057,40.1597 125.8281,40.1615 125.3263,40.373 124.9618,40.7998 124.2578,40.9359 123.7297,41.078 122.8647,41.6238 122.4377,42.0639 121.7489,42.0715 121.6864,42.0722 120.9691,42.2277 120.3191,42.2064 119.8124,42.0961 119.1883,41.9021 118.4285,41.8594 117.7362,42.1712 116.909,42.4519 116.3605,42.2546 115.9636,41.9506 114.5241,40.3025 114.2936,39.8553 113.8547,39.8071 113.2637,39.9083 112.6733,39.9249 112.1665,40.0596 111.8735,40.3993 112.7231,40.8187 112.9043,41.1899 113.1531,41.6623 113.6167,42.2028 113.7968,42.6579 113.4016,42.9278 112.9836,42.8601 112.5531,42.8345 111.6838,42.9605 110.859,42.7746 110.2741,42.7909 109.6415,42.5167 109.3445,42.1232 109.2114,41.9469 108.8878,41.7049 108.6653,42.4417 108.1812,42.5029 107.6324,42.3341 107.3517,41.6957 106.4176,41.3909 105.8392,41.9365 105.4532,42.7588 104.6048,42.6016 104.0094,42.5312 103.4328,42.6142 103.0659,42.8714 102.6036,43.2821 101.5126,43.461 100.8544,43.4267 99.9088,43.3251 99.3181,43.3626 97.9928,43.6483 96.8069,43.5781 95.62,43.8012 95.0723,43.9042 94.0171,44.1395 93.1558,44.1136 92.4825,44.1389 91.916,44.0127 78.8751,40.8672 77.2518,60.7197 76.4753,70.2152 76.143,70.5762 75.8351,70.9041 75.4965,71.3289 75.2469,71.4656 74.8816,71.6655 74.5089,71.1476 74.2977,70.5595 74.1482,69.9861 73.9046,69.7277 73.5546,69.3445 73.1023,68.9039 72.9036,68.6294 72.8493,68.1548 72.6939,67.7529 72.6468,67.1779 72.5729,66.6804 73.0523,65.9875 73.3791,65.6115 73.7901,65.2302 73.6936,64.8683 73.6712,64.5858 73.5515,63.9846 73.5034,63.5456 73.5522,63.0081 73.627,62.6144 73.6973,61.8627 73.7556,61.3094 74.069,60.8623 73.6874,60.4589 73.4217,60.1836 73.2386,59.7926 72.9126,59.2197 72.4679,59.2335 71.7689,58.5571 71.3606,58.003 70.6956,57.7451 70.1243,57.4332 69.788,57.4218 69.3929,57.4383 69.1045,57.1077 69.2463,56.6822 69.4376,56.2712 69.7479,55.6882 69.6994,54.9503 69.6848,54.1535 69.5498,53.5401 69.3646,52.8968 68.8466,52.41 68.4918,52.1507 68.2758,51.6611 67.9703,50.7743 68.0714,50.089 67.7969,49.6951 67.5081,49.187 67.5509,48.3956 67.4156,47.713 66.9017,47.2696 66.6016,47.2846 66.1062,47.4809 66.1026,47.9247 65.8025,48.1204 65.1809,47.9917 64.4613,47.766 64.1125,47.4143 64.0725,46.955 63.6454,46.5586 63.3326,46.1482 63.136,45.6802 63.7492,45.3765 64.1255,45.2318 64.3884,44.9107 64.7502,44.4308 64.9061,43.857 64.9486,43.1829 64.5944,42.958 64.0956,42.9702 63.6299,42.8034 63.8684,42.6169 64.1711,42.478 64.6467,42.2199 65.1998,41.9963 65.7165,41.698 66.1959,41.3073 66.6219,41.0883 66.9072,40.6004 67.2437,40.1442 67.5205,39.6778 67.6248,39.396 67.9599,38.9357 68.3815,38.564 68.5781,38.1593 68.6886,37.5395 68.7001,37.0756 68.8209,36.5885 68.9528,36.2648 69.0858,35.7702 68.9885,35.3366 68.8761,34.8284 68.6389,34.4278 68.3737,33.7995 68.3444,32.9283 68.3096,32.5685 67.9673,31.3405 68.0097,30.8407 68.0604,30.4082 68.1644,30.0373 68.0865,29.2448 68.3138,28.7452 68.5705,28.2372 68.7221,27.8383 69.0418,27.4333 69.5337,27.1648 69.9605,26.869 70.1099,26.5458 70.1915,26.081 69.7518,25.7223 69.2196,25.6296 69.0917,25.1811 68.4528,24.8041 73.9883,22.9632 78.002,21.6284 110.8825,10.6936 114.9972,10.6992" stroke="black" /><polygon fill="none" points="108.5027,465.8862 107.5828,465.9906 107.2859,466.0243 100.647,468.4078 99.9744,468.4993 97.6677,468.8129 97.3205,468.7367 93.5328,467.9062 92.483,467.676 90.9014,468.0188 89.8128,468.2548 87.887,469.4158 87.1106,468.9212 86.1194,466.6552 85.7266,465.219 85.7063,465.1447 85.4995,464.3883 84.4815,463.16 82.4918,462.8423 78.602,462.5687 77.0652,461.0786 76.4927,460.8279 72.4299,459.0488 72.4102,459.0402 72.375,459.0248 72.2372,458.9645 71.061,458.4496 70.8715,458.3666 68.6563,456.9658 66.8505,452.4523 66.0822,451.6845 61.797,449.1114 59.0899,448.4734 58.7219,448.3865 56.4621,446.5331 54.2177,445.784 51.3078,444.8129 50.4606,442.197 50.4386,442.1291 50.4221,441.2956 49.0477,439.5483 49.0479,439.2621 49.0578,427.0421 49.0688,413.5045 49.106,367.7341 49.1063,367.4338 49.107,366.506 49.1222,347.8344 70.8838,353.321 71.0859,353.3719 71.6435,353.5125 117.9878,365.1865 117.993,365.188 149.6608,373.6722 152.6184,374.4637 157.8175,387.268 166.0284,407.4895 166.6849,409.1065 172.0359,412.5538 188.7266,423.3064 196.8908,428.5661 196.9257,428.5886 196.9746,428.6201 197.03,428.6558 197.0856,428.6916 197.1671,428.7441 197.1918,428.76 197.2177,428.7767 197.2311,428.7853 197.2933,428.8254 197.7198,429.1002 197.9766,429.2656 198.4693,429.583 200.185,430.6883 201.2741,431.3899 203.1873,432.6225 203.7342,432.9748 205.4527,434.0819 209.6492,436.7855 224.1819,446.1479 204.35,440.0835 198.3526,475.7718 197.6976,479.6695 197.4482,480.2487 197.4304,480.8308 197.4182,481.2322 197.1353,481.7732 196.7068,481.962 196.6362,482.027 195.7411,482.852 195.2074,483.3675 194.5994,485.0427 194.0664,485.7358 192.9615,486.2614 192.038,486.459 191.8933,487.0927 191.4989,487.3249 191.0719,487.525 190.7409,487.8147 190.6238,488.2001 190.8543,488.8031 190.8414,489.412 191.0041,490.0089 190.9309,490.665 190.521,491.2856 190.3158,491.9779 190.1248,492.4426 189.8037,492.7923 189.2321,492.9743 188.9165,493.2285 188.6459,493.6363 188.4262,494.0352 188.0719,494.2697 187.671,494.483 187.3117,494.5864 186.5819,494.8942 186.1522,495.4652 186.0695,495.5313 185.7704,495.7703 185.3802,496.0081 184.9704,496.12 184.451,496.3928 184.1281,496.8104 183.4711,497.4298 183.4289,497.4848 182.96,498.096 182.522,498.4655 182.0391,498.9413 181.1126,499.6297 180.9197,499.9884 180.898,500.0 177.9588,499.2965 176.446,499.5568 176.3813,499.5209 175.3738,498.9623 173.9563,499.3591 173.8767,499.3814 171.3445,499.1745 169.6381,498.4844 168.7146,497.4607 167.9503,498.3316 166.5975,498.2576 164.5858,496.8001 162.6669,494.9384 161.3999,495.0874 160.7931,494.9206 160.6708,494.887 159.3532,492.5951 156.9144,490.8479 156.6435,490.4772 155.8634,489.4097 155.4851,488.892 155.3537,488.7122 154.7641,488.1955 154.3013,487.7899 152.0098,487.6355 149.1815,486.7162 146.9904,484.7544 146.972,484.7415 144.7599,483.19 140.8935,485.3125 137.6435,486.4195 136.3328,487.4736 135.5489,487.3247 132.8881,486.8195 132.8864,486.8195 132.8854,486.8196 132.8841,486.8196 131.9763,486.8448 131.9075,486.8804 130.7729,487.4685 129.3915,487.4718 129.3162,487.472 129.2049,487.5308 127.3768,488.4964 126.2509,490.2874 126.1368,490.469 124.6448,492.143 123.8667,492.4421 123.7979,492.4685 118.889,492.2274 120.1623,488.4325 120.2392,488.3647 121.312,487.4183 120.319,485.2093 120.4429,485.1028 121.8689,483.8769 121.8727,483.8733 120.456,482.4377 120.3527,482.333 120.3633,482.1862 120.5411,479.718 119.7862,478.1823 119.1975,476.9844 118.7421,476.0577 112.0949,472.0999 111.4176,471.6966 110.7989,468.7336 108.5027,465.8862" stroke="black" /><polygon fill="none" points="94.2407,144.4771 95.376,144.4164 97.1982,142.7281 97.9794,142.1091 98.7861,142.0974 99.333,141.6918 99.7385,141.0606 100.3151,139.8305 100.8624,138.6968 100.9505,137.6509 100.94,136.4357 100.9469,135.3049 101.3659,134.8444 101.804,134.3996 102.1826,134.1058 102.9133,134.0859 103.5735,134.1938 104.3826,134.5737 105.4952,134.9701 106.0432,134.7451 106.8106,134.6084 107.3064,134.5585 108.8334,135.0901 110.1491,134.8337 110.8064,134.9055 111.1309,135.1134 111.4131,135.3778 111.6491,135.8155 111.7834,136.2537 111.9685,136.6919 112.4405,137.1552 113.5534,137.4505 114.4299,137.7965 115.0876,138.117 115.9979,138.4794 117.6984,139.3543 118.2573,139.9072 118.9123,140.5552 119.6779,140.9666 120.4234,141.4944 120.861,142.2191 120.9889,142.7151 121.2166,143.8501 121.5255,144.6974 122.6146,146.7425 122.8161,147.4537 123.4469,148.6407 123.4665,148.6777 123.8688,149.1127 125.3763,149.9811 126.4141,150.7282 127.2493,151.4469 128.2122,152.0089 127.7575,153.1846 128.0684,153.6006 127.6327,154.4332 126.4347,155.1712 125.2168,155.663 124.6823,156.246 124.6587,156.6265 125.26,157.66 125.6988,157.9538 126.2433,158.1508 126.8063,158.194 127.3889,158.2011 127.993,158.1418 128.6472,157.9322 129.4036,157.4609 130.0848,157.2177 130.4718,156.9407 130.968,156.8149 131.3634,156.5799 131.7756,156.1769 131.8936,155.673 132.0158,155.1229 133.012,154.8029 133.8361,154.7186 133.8577,154.727 135.8764,155.5125 137.0369,155.5354 137.7657,155.4742 138.461,155.1665 139.3565,154.5167 140.0811,154.2494 141.0015,154.4846 141.6659,154.3926 142.2799,154.1744 142.9528,153.8388 143.9863,153.1309 144.5078,153.7392 144.6692,154.8105 144.5969,155.8536 144.2123,156.437 144.0156,156.8086 144.1388,157.7201 144.1557,157.7184 144.9526,159.1359 146.0438,160.3384 146.2813,160.8317 146.6419,161.1715 147.3199,161.4787 147.8832,161.7667 148.6265,161.836 149.0239,161.626 149.9431,161.2573 150.5208,161.2415 150.9835,161.4369 151.2535,161.955 152.054,162.2755 152.5011,163.0376 152.8632,163.4843 153.5695,163.9147 153.973,164.3096 153.8214,164.7379 153.7645,165.4975 153.5341,166.1298 153.5599,166.8294 153.5512,167.3501 153.4944,168.0103 153.3663,168.9025 152.8558,169.5407 152.2403,170.0306 152.282,170.7726 152.1556,171.3465 151.4758,171.4512 150.8239,171.626 150.4678,171.9005 150.2144,172.3427 148.8132,174.1835 148.2631,174.7053 147.6892,175.439 147.2407,176.1907 147.1375,176.7219 147.2844,177.5226 147.9728,178.3429 148.1484,178.8293 148.4013,179.6512 148.4604,180.5252 148.6936,181.6397 148.9166,182.3901 149.4181,183.0035 149.8645,183.3598 150.4761,184.0341 150.9777,184.537 151.5317,185.105 151.3929,185.6821 150.9266,186.9444 150.6594,187.5276 150.1756,188.1195 149.6119,188.5855 149.1912,188.8499 148.6107,189.2276 147.8597,189.3775 147.4242,189.6105 145.6328,190.1675 144.817,190.9424 144.2486,191.7279 142.4784,194.8072 141.8889,195.9785 141.8201,196.6662 141.7773,197.4904 141.8336,198.2021 141.3528,200.7665 141.2402,201.6029 140.8798,203.3981 140.7625,203.9826 140.7336,204.1963 140.6297,204.9643 140.5341,205.6712 140.3645,206.9254 140.3266,207.9439 140.38,209.4042 139.9105,209.5279 139.408,209.6602 139.1125,209.7264 139.0497,209.7404 138.386,209.8891 129.9482,211.779 129.1952,213.436 128.9554,214.0346 128.8066,214.3564 128.7388,214.5028 128.6281,214.7422 128.4259,215.1793 128.2553,215.5481 128.0112,216.0757 127.9488,216.2104 127.8239,216.4806 129.2966,224.6421 128.5514,224.5574 127.4852,224.3728 126.6241,224.2333 125.664,224.0672 124.7587,223.9088 123.8177,223.7361 122.84,223.5575 121.861,223.4052 121.1668,223.2881 120.7029,223.743 119.9354,224.5261 119.2023,225.2695 119.0355,225.4355 118.8941,225.5762 118.8245,225.651 118.7414,225.8099 118.5089,226.3172 118.3073,226.7651 118.2734,226.9108 118.2748,227.1795 118.3015,227.4592 118.306,227.5356 118.273,227.6393 118.1335,228.1151 117.86,228.8958 117.8404,228.9434 117.6166,229.507 117.4088,230.1365 117.2712,230.4853 116.7408,231.8296 116.4836,232.4463 116.3608,232.7407 115.8602,233.7965 115.6934,234.1168 115.6165,234.2396 115.5777,234.2606 115.5325,234.2606 114.6323,233.7 113.6515,233.0892 113.5338,233.0182 112.1075,232.1011 111.5343,231.6873 111.4365,231.6244 111.356,231.582 111.3038,231.5756 110.0215,231.6019 109.412,231.5977 108.968,231.4809 108.8569,231.446 108.5019,231.3892 108.4194,231.368 108.2882,231.3665 108.1951,231.3669 108.1439,231.3584 107.5022,231.2397 107.3819,231.2204 107.2144,231.2227 107.0086,231.2229 106.7103,231.1933 105.8466,231.054 105.6448,231.0093 105.5672,230.9783 105.536,230.9859 105.5161,231.0419 105.5354,231.1209 105.6266,231.4152 105.6946,231.5607 105.7131,231.6397 105.6844,231.6939 105.5944,231.7517 105.2166,232.0294 105.0445,232.1532 104.8123,232.3035 104.5197,232.4351 104.3211,232.5519 104.1921,232.6598 103.9852,232.8078 103.9029,232.8481 103.4734,232.9095 103.3167,232.9675 102.6646,233.247 102.5723,233.305 102.4829,233.3613 102.4137,233.3867 102.2902,233.4311 101.9837,233.4972 101.3162,233.6786 100.6112,233.8719 99.9339,234.0714 99.4532,234.2251 99.3094,234.2226 98.6027,234.1559 98.5905,234.1551 97.9198,234.1158 97.9045,234.1146 97.873,234.1119 97.7357,234.1005 97.2576,234.1095 97.0469,234.0943 97.0046,234.0897 96.4867,234.0336 95.9419,234.0007 95.6826,233.9675 95.0406,233.9079 94.8239,233.9178 94.3202,233.9316 94.0792,233.9213 93.3442,233.8267 93.1449,233.7613 92.8837,233.6336 92.1616,233.2429 91.8747,233.078 91.6402,232.9629 91.522,232.9772 91.1456,232.994 90.2438,233.0345 90.0626,233.035 89.433,233.0368 88.7637,233.0202 88.6707,233.0242 88.5456,233.0296 88.4147,233.0353 88.3386,233.0387 88.3327,233.0233 88.3045,233.0019 88.2768,232.9988 88.2461,233.0154 88.2155,233.0441 88.1741,233.041 88.0366,233.016 87.9159,232.9872 87.8412,232.9689 87.7991,232.9586 87.7171,232.9385 87.4987,232.8849 87.4645,232.8774 87.4375,232.8715 87.4028,232.8639 87.3763,232.8581 87.3476,232.8518 87.3155,232.8448 87.1275,232.8116 87.0762,232.805 87.0161,232.7972 87.0132,232.7972 86.93,232.7953 86.779,232.7983 86.7352,232.8009 86.434,232.819 86.4112,232.8205 86.292,232.8286 86.0437,232.8392 85.8082,232.8492 85.5611,232.862 85.3912,232.8754 85.1941,232.8853 85.0691,232.8891 84.9696,232.8909 84.9269,232.7901 84.8453,232.6414 84.7425,232.456 84.7188,232.4325 84.6774,232.4118 82.7275,232.4098 82.4822,232.413 82.2138,232.4144 82.0261,232.4155 81.8302,232.4163 81.4249,232.4197 81.3181,232.4217 81.2679,232.4228 81.0499,232.4239 80.7633,232.4304 80.5009,232.4324 80.4575,232.428 80.2115,232.4028 79.4534,232.3297 79.3988,232.3276 79.4011,232.3381 79.407,232.3641 79.4201,232.3937 79.4788,232.5432 79.8567,233.405 79.9018,233.5094 79.8992,233.5507 79.8809,233.5686 79.8362,233.571 79.7335,233.5599 79.5933,233.5482 79.3987,233.5222 79.1504,233.4987 79.0482,233.5058 78.82,233.5353 78.5746,233.5686 78.2484,233.6183 78.1766,233.6917 77.7168,233.7307 76.8676,233.7579 76.4752,233.7756 75.6558,233.7815 75.629,233.1601 75.565,233.165 75.2333,233.2358 74.8901,233.3001 74.0856,233.4598 73.4735,233.5825 72.4633,233.7817 71.7383,233.9194 71.6523,233.9386 70.981,234.0753 70.3468,234.2069 70.3085,234.2149 70.0645,234.2655 69.2562,234.4283 68.2502,234.6169 67.5158,234.7449 66.6965,234.9056 66.528,234.9387 65.7324,235.1062 65.5697,235.1404 64.3506,235.4018 63.9823,235.4819 63.927,235.4859 63.8877,235.4613 63.8684,235.4104 63.8269,235.198 63.6212,234.2136 63.2976,232.6801 62.3499,228.9402 61.8145,229.0391 61.5404,229.0998 61.4164,229.1411 60.1229,222.7838 59.9411,221.8901 59.3882,219.1726 58.8076,215.8361 58.3502,213.2073 57.7772,212.8874 57.3158,211.921 57.0711,211.4112 53.7184,204.426 53.6307,202.8525 53.3062,197.0345 52.664,185.5193 52.2382,177.8841 52.1265,175.8854 52.2448,175.4801 52.3795,175.189 52.5354,174.9614 52.6993,174.6567 52.848,174.3862 52.9765,174.1559 53.0559,174.0067 53.1279,173.9052 53.2556,173.8131 53.3097,173.7912 53.376,173.7643 53.4491,173.7346 53.4851,173.72 53.5512,173.6974 53.6125,173.6764 53.706,173.6444 53.8094,173.609 53.8876,173.5823 53.9123,173.5738 54.2859,173.4111 54.3724,173.3837 54.683,173.3649 54.8663,173.368 55.0378,173.3505 55.1974,173.3162 55.4746,173.1674 55.6667,173.0464 56.1019,172.3056 56.2569,172.1148 56.4198,171.9807 56.917,171.7438 57.789,171.2147 58.3781,170.6875 59.0184,170.1731 59.5172,169.5204 59.8741,169.0865 60.0203,168.8376 60.1544,168.557 60.3205,168.2502 60.5937,167.7568 60.8736,167.2849 61.1321,166.7999 61.313,166.4781 61.3695,166.3534 61.4167,166.1389 61.4536,165.8974 61.5148,165.7013 61.6494,165.4515 61.7471,165.3316 61.9125,165.1734 62.0769,164.9485 62.2254,164.6997 62.353,164.5646 62.4408,164.4757 62.6107,164.3678 62.7533,164.3033 62.877,164.2796 63.0064,164.2638 63.1485,164.2426 63.3617,164.1087 63.8154,163.8075 64.0525,163.6743 64.1607,163.6165 64.2678,163.4747 64.3502,163.3245 64.3959,163.2394 64.4439,163.1676 64.585,163.1107 64.7463,163.0942 64.7899,163.0941 64.9359,163.0789 65.1599,162.9972 65.496,162.8371 65.6208,162.7705 65.7485,162.6277 65.8409,162.4692 65.9144,162.4054 65.861,162.2039 65.7621,161.7257 65.6435,160.8972 65.418,159.0841 65.3751,158.4265 65.4252,157.9127 65.4602,157.5888 65.5029,157.4365 66.0062,156.5842 66.1466,156.3672 66.2895,156.0808 66.3087,155.9959 66.2795,155.727 66.2735,155.554 66.3903,155.2592 66.7999,154.5775 67.1884,154.0325 67.5093,153.347 67.8855,151.9299 68.1289,150.0004 68.2097,149.3628 68.2272,149.3195 68.2446,148.9107 68.1809,148.5236 67.9982,148.0976 67.8484,147.2724 67.7312,146.4743 67.7126,146.1356 67.6716,145.8727 67.581,145.2926 67.6066,144.6967 67.6075,144.2035 67.6518,143.4244 73.7604,143.6663 94.2407,144.4771" stroke="black" /><polygon fill="none" points="150.2144,172.3427 150.4678,171.9005 150.8239,171.626 151.4758,171.4512 152.1556,171.3465 152.282,170.7726 152.2403,170.0306 152.8558,169.5407 153.3663,168.9025 153.4944,168.0103 154.4182,168.2079 155.1689,167.9738 156.211,167.7785 157.1711,167.3873 157.7763,166.8611 158.3596,166.7444 158.9434,166.7049 159.8218,166.3905 160.6138,166.2744 162.2362,165.4501 163.8406,164.4935 164.8068,163.4177 167.6883,161.1562 168.7975,159.4346 169.39,158.9115 170.3177,158.0739 171.5001,157.4703 172.4146,157.4427 173.4692,157.7545 174.2261,157.6883 175.0565,157.6256 176.4357,157.5 177.0861,156.1068 177.3807,156.5372 177.7266,156.5395 178.2077,156.3359 178.7852,156.2184 179.1384,156.2848 179.284,156.801 179.5641,157.1987 180.2199,157.8765 180.4553,158.1201 180.889,158.6248 181.1149,158.2986 181.0011,157.7022 181.2236,157.2664 181.5489,156.8726 182.3394,156.7292 183.029,156.791 183.8249,157.1608 184.5509,157.3962 185.1593,156.926 185.2753,156.3735 185.8715,156.2561 186.2846,155.9445 186.6076,155.6972 187.1628,156.3759 187.4319,156.853 187.3443,157.3743 187.4623,158.1158 187.6309,158.8043 187.6589,159.2662 186.871,159.5725 187.1126,160.0967 187.7229,160.2025 188.2962,160.6051 188.6038,160.749 188.9878,160.886 189.249,161.105 189.4564,161.4826 188.9371,162.0116 188.6211,162.5435 188.4967,162.9018 188.4088,163.2322 188.7965,163.2491 189.7244,163.2046 190.1869,163.4903 190.568,163.8824 191.0015,164.1233 191.4257,163.9834 192.1995,163.7456 192.5795,163.5154 193.0461,163.4687 193.3713,163.6704 193.9417,163.7223 194.743,163.4075 195.0289,163.2744 195.315,163.4008 195.1919,163.975 195.2808,164.6351 195.7115,164.343 196.1478,164.5009 196.4318,164.71 196.8495,164.7605 196.9195,165.2066 197.1485,165.7051 197.7678,165.4756 197.8369,166.017 198.089,166.5117 198.2926,167.0045 198.4046,167.4201 198.6433,167.9756 198.3603,168.5837 198.9944,168.6567 199.4666,169.2308 199.5085,169.7124 199.3346,170.0707 199.228,170.3983 199.3008,170.7119 199.7773,171.0816 200.1809,171.4401 200.506,171.9441 200.633,172.2204 201.021,172.5679 201.2342,172.1562 201.4264,171.5221 201.8159,171.0649 202.2253,171.5485 202.7159,171.7726 203.0299,171.4833 203.0349,171.0097 203.3678,170.9276 203.9845,171.0747 204.697,171.0632 205.1058,171.096 205.5333,171.4005 205.6313,171.9248 205.6265,172.419 206.2323,172.4246 206.7367,172.5295 206.9328,171.8903 207.2223,171.3078 206.6564,171.0246 206.4632,170.4231 206.979,170.1584 207.5658,170.6695 207.9428,171.1707 208.7642,170.9603 209.0913,170.5765 209.3915,170.3234 209.8208,170.026 210.4337,169.8876 210.6514,170.2549 211.1629,170.4747 211.0611,171.183 210.9576,171.7027 210.9948,172.2429 211.2657,172.6676 211.9314,173.1711 212.431,173.834 212.7372,174.3128 212.9473,174.727 213.2042,175.1412 213.5639,175.3326 213.9873,175.2179 214.1142,174.624 213.8235,174.1427 213.7745,173.6212 213.791,173.1394 213.5084,172.6517 213.2842,172.2282 213.1526,171.6479 213.3405,171.2762 213.754,171.2605 213.9361,171.7208 214.0879,171.9798 214.6369,171.9239 215.1415,171.791 215.8961,171.7492 216.5011,171.6548 217.0057,171.5919 217.5524,171.3948 218.2681,171.4846 218.7367,171.6622 219.247,171.5188 219.767,171.3544 220.2331,171.379 220.8498,171.2986 221.2966,171.0239 221.3877,170.5373 221.0918,170.1262 220.7372,169.8433 220.5756,169.3316 220.6558,168.6911 220.5402,168.0979 220.8119,167.6202 221.1833,167.4103 221.7616,166.9624 222.2907,166.7315 222.5081,166.1335 222.368,165.5123 222.7815,165.3946 223.2405,165.5364 223.7154,165.4332 223.6611,165.0412 223.5087,164.6842 223.4545,164.1417 223.6052,163.7498 223.742,163.3718 224.152,163.0452 224.4699,163.4122 224.8293,163.6636 225.113,164.0562 225.0243,164.422 225.1854,164.814 225.3742,165.2743 224.7461,165.5699 224.3873,165.9258 225.1222,165.8639 225.6057,165.913 226.1681,165.9848 226.4262,165.9415 226.741,165.8887 227.0774,165.9342 227.5673,165.6746 227.873,165.2915 228.3814,164.8453 228.8217,164.661 229.1507,164.0376 229.5208,163.4777 230.1376,162.7778 230.7544,162.0555 231.4608,161.8876 232.4251,161.5629 233.7259,161.2943 235.049,161.0592 235.5648,160.7905 235.9909,160.5554 236.602,160.4154 237.314,160.7683 237.5943,161.3731 237.8633,162.1123 238.3773,162.9887 239.2726,163.098 239.8388,162.8959 240.237,162.9525 241.319,163.1402 241.7383,163.1834 242.1637,163.0311 242.5323,163.5335 242.6252,164.0181 242.6028,164.3191 242.6602,164.6775 242.7684,165.1035 242.6447,165.4979 242.4338,165.978 242.7331,166.4768 243.1295,166.6829 243.5567,166.8559 243.9733,167.2311 244.3495,167.3549 244.9222,167.1679 245.3048,167.1627 245.7604,167.2789 246.4906,167.2047 246.7492,166.8572 247.3562,166.9936 247.9818,167.0888 247.932,167.6307 247.9476,167.9734 247.9896,168.672 248.4452,168.7876 248.8377,168.4527 249.3113,168.6154 249.7493,168.3867 250.352,168.2018 250.7683,167.947 251.2659,167.6376 251.7319,167.6968 251.7965,193.5976 223.708,212.2268 222.8782,212.7772 221.7845,213.5025 221.1259,213.6972 220.6843,213.9368 220.252,214.0733 219.7597,214.212 219.4337,214.7075 219.0341,215.2352 218.5518,215.1374 218.0899,214.9905 217.6336,215.4052 217.4606,215.893 217.5408,216.451 217.1189,216.6327 216.3871,216.6229 216.1739,217.0849 216.3357,217.4188 216.7489,217.8735 216.8485,218.4066 217.3246,218.2611 217.5851,218.6853 217.4345,219.0667 217.9198,219.6199 217.5259,219.8565 217.1595,220.231 216.8081,220.2147 216.4075,220.549 216.0124,220.7518 215.5386,220.6099 215.4469,221.1379 215.985,221.2925 215.4552,221.993 215.0682,222.2113 214.778,222.3673 214.4171,222.2435 214.2613,222.9265 214.3196,223.5384 214.5912,223.88 214.6402,224.4082 214.9789,224.9151 215.0171,225.336 215.1105,225.6365 215.5171,225.8541 215.2385,226.1172 215.1565,226.5063 215.2916,226.8256 214.815,226.8759 214.5215,226.8777 214.2526,226.711 213.7074,227.0353 213.4106,227.4737 213.3016,227.947 212.8016,227.6131 212.338,227.9095 212.3304,228.2697 212.4088,228.7345 212.6385,229.8994 212.919,231.8062 212.9922,232.3878 213.2921,232.9029 213.3709,233.2949 213.5659,233.6158 213.9128,233.9705 213.9505,234.3027 213.9665,234.4435 214.1093,235.1262 214.8227,235.2814 215.3199,235.403 215.6066,235.5983 216.0601,235.6859 216.3829,235.7909 216.7421,236.1515 217.1591,236.3791 217.5166,236.5121 218.0914,236.7467 218.6696,237.1388 218.7128,237.6136 218.1963,238.2109 217.9718,238.7241 217.9157,239.2304 217.4371,239.725 217.413,240.4973 217.7163,240.8114 217.8522,241.356 217.7487,241.762 217.2842,242.1679 217.228,242.6415 217.2115,243.4442 216.798,243.6012 216.6109,243.9929 216.2826,243.8856 215.8926,243.6587 215.4683,243.7215 215.168,244.1006 214.7637,244.0888 214.2029,243.9767 213.8699,244.1762 213.5661,244.3441 213.6455,244.7151 213.7996,245.1071 213.8521,245.5096 214.1517,245.9069 214.7948,246.3638 215.2047,247.1758 215.4553,247.5521 216.001,247.9758 216.4123,248.5035 216.4663,249.0182 216.9958,249.4588 217.8071,249.907 218.2922,250.2178 218.555,250.5083 218.665,251.1614 218.6383,251.3192 218.5475,251.857 218.0833,252.3072 218.2613,252.8053 218.3022,253.2627 218.4137,253.7347 218.8117,253.9389 218.7176,254.5353 219.0125,255.1847 219.1114,255.6462 219.1534,256.0779 218.9512,256.5293 218.8107,257.1166 218.7071,257.6997 218.5224,258.2954 218.2206,258.6329 217.8968,259.1377 217.451,259.431 217.1559,259.7641 216.8322,260.0878 216.8571,260.6241 216.6848,260.9341 216.3903,261.3365 215.9486,261.5779 215.1352,262.0607 215.0981,262.0773 214.35,262.4106 213.7996,262.673 213.3614,262.9774 212.6041,263.5897 212.4358,263.9151 212.3094,264.6536 212.2742,265.2241 211.7927,265.572 210.5327,266.2141 210.2856,266.3401 209.781,266.6994 208.9945,267.5386 208.6165,267.9653 208.3358,268.4323 207.9301,269.7503 207.5971,271.1721 207.3527,271.7757 207.1513,272.8345 207.1624,273.3833 207.1791,274.1449 207.2013,275.0689 207.2963,276.5192 207.3018,277.2136 206.9116,278.9998 207.1039,279.8197 207.32,280.7411 207.3963,281.0663 207.5644,281.8111 207.7605,282.6007 208.0519,283.7095 208.7583,285.3336 209.891,289.4818 211.0461,291.1284 211.5641,292.423 211.3383,293.8378 211.2091,295.3169 211.1928,296.3245 211.6382,297.3214 212.1103,298.6774 212.0406,299.296 211.8486,299.6797 211.0148,300.3974 210.7087,300.7993 210.5636,301.2656 210.6119,301.6889 211.358,302.2411 214.2888,303.7807 214.6938,304.5855 215.0882,307.1334 214.6934,308.4708 215.8691,310.171 216.1672,310.6231 217.1996,312.4855 217.2919,313.0188 216.4807,314.3491 216.3186,315.172 216.3637,315.7656 216.4777,316.2956 216.8813,317.125 217.415,317.8377 217.7525,318.2884 218.2446,319.3581 218.4447,319.971 218.5974,320.4271 218.6618,320.9059 218.6056,321.4155 218.7079,322.0077 219.2085,322.5495 219.458,323.1067 219.3962,323.7871 219.5307,324.2799 219.8239,324.6503 220.2614,325.0928 220.6458,325.4861 220.9593,325.8168 220.8794,326.7542 220.9143,327.3493 221.5693,329.4101 221.6196,329.9577 221.957,331.1954 222.127,332.0357 221.8899,333.1145 221.8155,333.905 221.8578,335.0605 221.5551,336.1558 221.1555,336.8859 220.8905,340.1186 220.7018,340.8512 220.2658,341.6143 219.3048,343.342 219.744,345.4783 219.7656,346.4016 219.4903,347.3479 218.9585,347.8026 217.7002,347.9664 216.2301,348.1111 214.774,349.8177 214.3891,350.0045 213.8617,350.346 213.2613,350.6091 212.3215,350.9337 211.7006,351.2443 211.334,351.3282 210.8909,351.3835 210.3522,351.2552 209.8679,351.0274 209.4546,350.9751 208.9917,350.9666 208.3662,350.8404 207.4068,350.7506 206.023,350.6271 205.2413,350.4421 204.7027,350.246 204.2764,350.0779 203.9005,349.9966 203.4657,349.9209 202.964,349.631 202.2896,349.481 201.617,349.26 201.1258,349.2345 200.6209,349.2327 199.9248,349.3278 199.4418,349.4636 198.7014,349.8767 198.0644,349.8136 197.9637,349.8037 197.139,349.5907 196.3097,349.4179 195.9775,349.2925 195.5359,349.1866 195.01,349.0424 194.4613,348.463 194.0112,347.9928 193.5517,347.598 193.0131,347.3037 192.5164,347.1219 191.8617,346.9634 191.1019,346.7794 190.5009,346.6339 189.9619,346.5034 189.9016,346.4859 189.4332,346.3502 188.9349,346.0904 188.3614,345.6409 187.4791,345.6896 186.9784,345.6797 186.4103,345.865 185.7833,346.0538 185.2433,346.1005 184.8576,345.9674 184.3002,345.8244 183.7048,345.7738 183.2167,345.7569 182.6255,345.722 182.0491,345.4961 181.5905,345.3595 180.9657,345.3194 180.3752,345.357 176.8362,343.6461 171.9911,346.9527 157.0948,357.1186 152.6184,374.4637 149.6608,373.6722 117.993,365.188 118.0307,365.1677 117.8113,341.7503 126.0856,331.4867 133.9152,321.7747 134.432,318.0925 135.5704,315.249 136.2183,312.2882 134.6437,308.7618 133.8807,307.8585 133.754,307.1621 132.1464,304.5019 130.9895,303.0614 131.5782,302.1337 131.4978,300.9971 132.5937,300.1843 132.9935,297.9478 132.1232,296.9844 130.9143,294.7357 125.6873,292.1382 127.6071,287.3741 128.5034,286.107 128.958,285.0788 129.1032,284.7866 129.4321,284.1244 129.8923,283.4003 130.3688,282.2382 130.9623,280.6342 131.5696,279.1069 132.1501,277.7713 132.3717,277.3318 132.562,276.8958 133.3194,275.3353 133.6359,274.721 133.9284,274.1572 134.3604,273.2358 134.6089,272.7101 134.7493,272.4676 134.9261,272.1859 135.3312,271.9131 135.3418,271.9132 136.1371,271.4253 136.6538,271.2099 136.9585,271.1772 136.9759,271.1713 137.1503,271.1476 137.317,270.9246 137.4449,270.7361 137.7226,270.4989 138.2729,270.3271 138.6289,270.22 138.9622,269.9962 139.3466,269.6628 139.6079,269.4276 139.9799,269.0076 140.1601,268.7715 140.5145,268.4312 141.1828,267.7613 141.6416,267.3457 142.889,267.4633 145.2981,263.1166 144.2314,262.1468 144.2418,262.0752 144.2679,261.938 144.2928,261.7056 144.3798,261.2161 144.4231,261.1154 144.483,260.986 144.4831,260.984 144.573,260.7914 144.6257,260.6059 144.6858,260.4811 144.7655,260.2703 144.8278,260.0927 144.8639,259.9496 144.9499,259.7323 144.9662,259.6874 145.1558,259.164 145.2656,258.8302 145.3458,258.5345 145.4743,257.9084 145.655,256.767 145.6835,256.6433 145.7204,256.4503 145.7163,256.3483 145.7152,256.3205 145.6235,256.2514 144.8919,255.6829 144.2055,255.1473 143.3366,254.4784 142.548,253.8596 142.0693,253.4921 141.7368,253.2364 141.6762,253.193 141.022,252.6815 140.4725,252.2618 139.7991,251.7382 139.1581,251.2451 138.5972,250.7999 138.0725,250.39 137.7089,250.1019 133.5161,247.0508 131.2711,245.4172 129.6931,244.2689 129.3319,243.6766 128.2718,241.9383 128.2347,241.9171 128.0124,241.7358 127.1555,241.036 126.5927,240.5883 126.1458,240.2902 125.2729,239.8423 124.428,239.3996 123.5935,238.765 121.9699,237.5445 121.3341,237.1436 119.5975,236.1039 117.7872,235.0004 115.8602,233.7965 116.3608,232.7407 116.4836,232.4463 116.7408,231.8296 117.2712,230.4853 117.4088,230.1365 117.6166,229.507 117.8404,228.9434 117.86,228.8958 118.1335,228.1151 118.273,227.6393 118.306,227.5356 118.3015,227.4592 118.2748,227.1795 118.2734,226.9108 118.3073,226.7651 118.5089,226.3172 118.7414,225.8099 118.8245,225.651 118.8941,225.5762 119.0355,225.4355 119.2023,225.2695 119.9354,224.5261 120.7029,223.743 121.1668,223.2881 121.861,223.4052 122.84,223.5575 123.8177,223.7361 124.7587,223.9088 125.664,224.0672 126.6241,224.2333 127.4852,224.3728 128.5514,224.5574 129.2966,224.6421 127.8239,216.4806 127.9488,216.2104 128.0112,216.0757 128.2553,215.5481 128.4259,215.1793 128.6281,214.7422 128.7388,214.5028 128.8066,214.3564 128.9554,214.0346 129.1952,213.436 129.9482,211.779 138.386,209.8891 139.0497,209.7404 139.1125,209.7264 139.408,209.6602 139.9105,209.5279 140.38,209.4042 140.3266,207.9439 140.3645,206.9254 140.5341,205.6712 140.6297,204.9643 140.7336,204.1963 140.7625,203.9826 140.8798,203.3981 141.2402,201.6029 141.3528,200.7665 141.8336,198.2021 141.7773,197.4904 141.8201,196.6662 141.8889,195.9785 142.4784,194.8072 144.2486,191.7279 144.817,190.9424 145.6328,190.1675 147.4242,189.6105 147.8597,189.3775 148.6107,189.2276 149.1912,188.8499 149.6119,188.5855 150.1756,188.1195 150.6594,187.5276 150.9266,186.9444 151.3929,185.6821 151.5317,185.105 150.9777,184.537 150.4761,184.0341 149.8645,183.3598 149.4181,183.0035 148.9166,182.3901 148.6936,181.6397 148.4604,180.5252 148.4013,179.6512 148.1484,178.8293 147.9728,178.3429 147.2844,177.5226 147.1375,176.7219 147.2407,176.1907 147.6892,175.439 148.2631,174.7053 148.8132,174.1835 150.2144,172.3427" stroke="black" /></svg>