<?xml version="1.0" encoding="utf-8" ?>
<svg baseProfile="tiny" height="500" version="1.2" width="475.6099" xmlns="http://www.w3.org/2000/svg" xmlns:ev="http://www.w3.org/2001/xml-events" xmlns:xlink="http://www.w3.org/1999/xlink"><defs /><polygon fill="none" points="184.1711,199.0055 185.6431,199.9684 192.4931,204.4495 201.0765,205.8269 200.8235,206.2529 200.3699,207.606 199.8259,208.3951 199.3465,208.8442 197.5326,209.6384 196.7903,210.0674 195.8949,210.7518 195.6117,211.2637 195.5518,212.605 195.4221,213.1593 191.7841,218.6548 190.6543,220.1643 190.6121,220.7389 190.77,221.8652 190.7749,223.2259 190.607,224.2112 190.3057,225.3821 189.8049,226.3811 189.1441,227.363 188.3474,227.9632 187.4015,228.4032 186.7301,228.861 186.5316,229.2497 185.4883,230.4179 184.17,231.466 184.0218,231.7824 183.9999,232.194 184.2276,233.4794 184.1182,234.2825 184.1626,234.5949 183.8896,235.6871 184.1799,236.0551 185.2244,236.6327 185.4745,237.1091 186.2803,241.2679 186.1902,242.2726 185.5031,243.7765 185.2111,244.231 184.5239,245.0012 184.0021,245.2165 183.518,245.1246 183.2035,245.1955 182.8112,245.4452 182.1901,246.1179 180.7429,247.299 180.1156,247.7016 178.8979,248.1015 178.3808,248.4792 177.7467,249.7342 177.4429,250.8155 177.3267,252.7719 177.1623,253.1346 176.725,253.6208 175.4939,254.4251 174.6498,255.1103 172.4562,257.4961 172.2459,257.9521 172.1194,258.2268 172.0002,258.8396 171.9828,260.3931 171.8395,261.0045 171.5506,261.6649 171.2165,262.866 170.2806,264.6351 169.9445,265.7665 169.8992,266.5895 170.0739,268.1187 170.416,269.0828 170.9269,269.8342 171.4856,270.4684 171.7782,271.1256 171.829,271.737 171.6618,272.4676 171.7132,273.0555 171.8834,273.6435 171.9107,274.232 171.7461,275.7149 172.1621,277.0789 172.7226,278.0175 173.3052,278.6749 174.3481,279.4016 175.6573,280.1725 176.3865,280.9231 176.8985,282.0983 177.3068,282.8071 177.3849,282.9431 179.3749,284.5133 180.0319,285.3823 180.1783,285.9927 180.0845,286.5821 179.6757,287.5014 178.4977,289.5059 177.8717,290.801 176.9316,291.4892 175.7638,292.6513 175.3886,293.0245 175.0035,293.755 174.8624,294.5195 174.6966,295.4189 174.4087,296.3224 173.3771,298.3239 172.8004,299.9294 172.7784,300.6584 172.9203,300.9879 173.7858,302.5047 173.9674,303.1075 174.0949,305.1481 174.217,305.8475 174.3788,306.3518 174.6606,306.8371 175.2626,307.5152 175.4967,309.4491 175.9686,310.4197 175.8296,312.0633 175.333,313.6747 175.4421,314.0241 176.884,316.0433 177.3938,316.6406 178.7265,317.3005 179.2681,317.6831 179.6294,318.2069 179.6664,318.6615 179.3492,320.3422 179.3144,321.0414 179.3898,321.6001 179.6076,322.2287 180.3671,323.3116 180.4766,323.7307 180.4426,324.5702 180.2103,326.0644 179.7099,332.3119 179.5788,333.9484 179.3796,338.5662 179.0242,339.8271 178.3815,341.0888 177.9523,341.6503 177.6664,342.4202 177.7419,343.26 177.9603,344.0304 177.9008,347.2449 177.5447,348.5076 176.6142,349.6302 174.8072,352.1377 158.9897,361.8363 150.651,366.9492 142.4257,371.9938 141.1918,380.1413 140.7204,382.0148 139.7684,382.7836 133.9829,386.5083 133.5701,386.9252 133.5732,387.6278 134.8634,401.1107 131.1775,401.948 128.8418,402.816 123.0908,407.5351 121.1342,409.6234 119.494,412.3092 118.5055,422.4454 117.1923,425.6832 116.7786,428.3762 114.683,431.2153 111.4626,435.0211 109.4594,436.7761 107.1966,437.8564 107.1455,438.0116 107.0439,437.9827 126.9079,381.1407 113.9169,373.2247 100.1558,369.3673 98.0997,368.7909 95.2272,363.6523 94.4577,362.2757 94.4513,362.2643 74.3044,326.1937 74.2607,326.116 59.1992,289.5302 51.3207,270.3605 51.273,270.2443 51.2709,270.2393 41.7827,247.1527 43.7238,239.5529 43.7439,239.4738 55.9857,191.603 57.7759,173.3387 63.9971,153.2577 99.6859,153.5714 110.0725,168.6335 158.1849,181.9965 160.2806,183.369 184.0485,198.9255 184.1347,198.9819 184.1711,199.0055" stroke="black" /><polygon fill="none" points="263.2714,204.5866 262.861,204.5585 250.4822,203.7116 250.4806,203.7115 250.4786,203.7114 215.3243,201.2984 213.8734,201.1988 213.7675,201.1915 212.7284,201.1202 201.2882,200.3349 201.0303,197.8698 200.462,197.0324 199.2572,194.8053 199.1545,193.6297 199.3651,191.8801 199.9562,190.7235 202.0597,189.1165 203.2202,188.6006 203.8726,188.4659 204.2577,188.4439 205.1023,188.6069 206.2436,188.947 207.1678,189.1128 209.5775,188.9972 210.6612,189.5006 211.3372,189.6193 212.6357,189.3282 213.3878,188.862 213.797,188.0058 213.7964,187.8189 213.3246,186.2409 212.9254,184.9057 212.9278,184.5414 213.5566,179.0123 213.6932,178.5404 214.173,177.5949 215.7597,175.1343 217.4436,172.9253 217.7231,172.6848 219.1609,171.4476 219.0967,170.9168 219.2219,170.4255 220.1853,170.0545 221.4854,169.3548 222.9519,168.0828 224.2921,166.77 224.5206,166.1147 224.5176,165.3794 224.6007,164.8884 224.8935,164.5683 227.5331,162.5157 228.747,161.0402 230.0168,157.8058 229.7164,156.214 229.7143,155.4779 230.0662,154.0057 230.6501,152.7359 231.1515,151.9976 232.7266,151.062 234.1131,150.1034 234.8792,149.4784 235.2009,149.1482 235.2733,149.0739 235.6642,148.6728 236.0103,148.4442 237.3566,147.704 238.1992,146.9274 238.7599,146.3232 241.0375,143.3719 262.0354,166.5363 262.1234,166.6333 284.0135,190.7818 335.9228,201.61 344.5147,210.1334 309.4915,207.7464 263.2714,204.5866" stroke="black" /><polygon fill="none" points="292.8033,264.1973 293.324,264.2029 320.4544,265.2599 320.6538,265.2677 324.0307,265.3993 324.3946,284.8219 324.6626,286.732 324.7136,289.2869 324.7547,289.5796 324.9371,289.9728 325.7149,290.99 327.6749,292.6238 365.7526,297.2339 376.6636,298.5533 444.2135,320.3494 449.0942,321.9243 454.3043,323.2761 455.1548,323.6686 456.9284,325.0399 457.9868,325.653 458.3452,326.0524 459.1955,327.3407 459.698,327.8062 460.2165,328.1462 462.178,328.8395 462.6939,329.0697 463.1084,329.3612 463.3218,329.7438 463.8488,331.3965 464.1442,331.991 464.4682,332.3729 464.903,332.5725 467.3872,332.9002 467.9805,333.5695 468.263,334.1505 468.5935,334.5325 470.0502,335.655 471.3203,336.9591 472.0983,337.4781 472.3313,337.5519 475.6099,337.3901 472.8637,344.5314 472.7469,344.8353 470.2219,351.4014 469.7225,351.842 469.4219,352.2297 468.9905,353.0916 468.6346,353.4025 467.6803,353.7215 467.3528,353.6793 465.7241,352.9656 464.2873,352.1665 463.736,351.4466 462.5955,350.2067 461.9792,349.8105 461.3631,349.7734 460.6801,349.9902 458.6966,349.8921 457.3437,350.2063 454.6516,350.5224 454.2969,350.8044 454.0389,351.1778 453.9448,351.5773 453.9906,352.4948 453.8425,352.9806 453.2864,353.8076 452.7053,355.5662 452.3922,355.9264 451.3419,356.5166 450.6181,356.7198 450.1262,356.7486 448.976,356.478 448.5194,356.4646 448.2108,356.505 446.8042,357.0966 445.3829,357.196 444.2317,356.9755 443.4574,356.6724 442.1757,355.9347 441.1786,356.0183 440.0671,355.9234 438.5317,355.2314 438.0898,355.1518 436.2045,355.1388 435.4983,355.2336 434.2007,355.6125 433.1201,355.6681 431.5162,355.4765 430.6698,355.2194 430.2717,354.8627 429.6477,353.8553 428.8617,351.7643 428.5066,351.1486 428.1341,350.7554 427.3554,350.4501 426.9152,350.4515 425.7607,350.9154 423.8797,351.2722 422.2035,350.8344 421.7964,350.6129 420.2407,350.122 418.2629,349.8905 417.2024,349.6379 416.5314,349.6073 414.4678,349.9426 413.585,349.9635 412.9147,349.9143 412.4018,349.7811 411.6924,349.4573 410.3875,349.2752 408.778,349.6026 407.5114,349.7503 404.2105,349.6458 398.9325,349.6179 398.0492,349.4164 392.9573,347.5852 388.9081,346.2982 388.0424,346.3432 382.33,347.4085 380.7577,347.5897 379.4847,347.6132 376.2745,347.8499 373.4921,348.6347 372.8911,348.7375 372.2341,348.7261 371.2507,348.3803 370.6778,348.1149 370.4378,347.8982 370.1967,347.5358 369.4112,345.8238 369.232,345.6935 368.3736,345.6402 367.5569,345.6718 365.1516,346.1177 361.8514,346.3651 357.0037,346.6508 352.6852,346.6859 350.9687,346.7975 351.2109,342.7204 346.8476,342.6705 346.0764,344.1194 345.7748,344.686 345.4026,345.2829 344.5117,345.9675 344.1248,346.2648 343.7437,347.8228 344.0001,348.0225 329.9608,374.4155 306.8501,374.2116 305.3334,373.8111 304.7525,373.8132 302.6905,374.3864 301.4016,374.8304 300.3391,374.9289 298.4618,373.6201 297.6871,373.3719 296.913,373.375 295.9785,373.976 295.08,374.6679 293.7269,375.0502 292.8219,374.6145 292.5616,373.9263 293.1629,371.133 292.9014,370.256 292.2536,369.7563 291.2199,369.3844 288.5375,368.0472 287.2444,367.2367 286.4656,365.8602 286.295,364.0732 285.7741,362.6958 285.4476,361.5675 285.4029,358.714 284.8176,357.399 283.9766,356.8376 283.1985,356.0879 279.8558,350.8004 279.0814,349.8733 278.1518,349.5241 275.5649,348.7934 272.5332,348.5248 271.4711,347.9506 269.3757,345.9935 268.0491,345.2292 267.4209,344.9673 265.7568,347.6576 265.3234,347.6561 264.858,347.5227 263.7041,347.0116 263.0817,346.9239 262.4343,346.9041 261.5115,347.0659 260.3567,347.0702 260.0106,346.9816 259.8246,346.7131 259.7306,346.3315 259.7734,345.9324 260.0488,344.9835 260.0483,344.7139 259.8153,344.4006 259.3524,344.11 258.9593,343.9773 256.8824,343.9849 255.7478,343.2497 255.0536,342.9372 254.8222,342.7583 253.6155,341.2592 251.8989,339.4907 251.622,339.0895 251.4108,338.2811 251.5438,336.9053 251.3615,334.5678 251.186,334.1052 250.5322,333.1173 250.5096,332.8437 250.6581,332.0419 250.5266,331.7269 250.0491,331.3912 248.7274,331.523 248.4025,331.4398 248.0981,331.2093 247.9663,330.6407 248.0702,330.3792 248.5471,329.6963 248.6882,329.3133 248.6709,328.9892 248.1786,328.169 248.1438,327.8743 248.2419,327.354 248.5256,326.5141 248.5049,326.245 248.3891,325.991 248.2371,325.8604 247.9686,325.8293 246.9236,325.8491 246.4855,325.7362 245.693,325.3295 244.6321,325.2359 244.328,325.139 244.0864,324.9516 243.9558,324.7471 243.8962,324.2597 243.9186,323.8631 242.8026,322.5409 242.6669,322.2136 242.7418,321.6502 242.8414,320.9071 243.341,319.6227 243.4227,318.9981 243.3937,318.6405 243.0547,317.9053 241.871,316.4633 241.5308,315.6741 241.5275,314.8007 241.6364,313.9818 241.5781,313.409 241.3232,312.8644 240.844,312.1571 240.359,310.0572 239.9641,309.759 239.4029,309.5435 238.8137,309.4368 237.3851,309.5461 236.7655,309.444 236.1191,309.228 235.4803,308.5205 234.9088,308.0331 233.2791,307.4118 232.9977,307.1397 232.8262,306.2948 232.8533,305.967 233.048,305.4757 233.8286,304.2724 233.9645,303.3711 233.8764,303.0754 233.1303,302.4052 233.1034,302.1568 234.2027,301.1166 234.6105,300.4176 234.9821,300.0268 235.5065,299.7126 236.0575,299.6357 239.0351,299.8492 239.6636,299.7457 240.3546,299.4199 240.8151,299.0687 241.1476,298.5677 241.5529,297.2428 241.8838,296.544 242.2662,296.0424 243.0861,295.4408 243.7003,295.1637 244.7784,295.2344 245.6097,295.5492 245.8262,295.5381 246.1415,295.3359 246.5212,294.2888 247.133,292.9368 247.436,292.5134 248.5657,291.8103 249.4284,291.5122 250.3044,291.3301 254.9608,286.8225 260.4442,278.7985 267.4885,264.1413 283.5777,264.0984 292.8033,264.1973" stroke="black" /><polygon fill="none" points="185.6431,199.9684 184.1711,199.0055 184.1347,198.9819 184.0485,198.9255 160.2806,183.369 158.1849,181.9965 110.0725,168.6335 99.6859,153.5714 158.3767,153.4255 158.0514,127.5646 157.8381,110.6024 157.8379,110.5842 157.428,77.9956 157.4013,75.8748 157.7458,76.1098 170.4781,84.7956 175.6244,86.1393 176.7783,86.4525 206.3481,94.479 206.5008,94.5205 207.078,94.6066 220.7995,96.6543 226.8031,93.8523 235.0387,90.0087 236.7857,89.1934 243.8278,85.9067 243.8899,85.8761 247.935,89.7927 248.5255,90.3644 248.533,90.3655 248.5482,90.3662 248.5633,90.3654 249.175,91.2415 249.5481,91.7759 250.5329,93.1864 250.5304,93.1936 250.5272,93.2004 250.524,93.2073 250.5162,93.2204 250.5072,93.2327 250.497,93.244 253.1611,96.8473 253.5312,98.0746 253.6295,99.6083 253.8952,100.7463 254.5013,102.3076 255.5939,103.3254 256.2158,104.163 256.5183,104.8923 256.2949,105.4045 255.5836,105.9183 255.1734,106.5768 255.3125,108.6206 255.9929,110.0059 257.3662,111.0962 259.0611,112.6597 259.5924,114.4099 259.7284,115.6519 258.9804,116.6763 257.3341,117.7413 255.283,121.1622 254.8001,122.7887 254.6181,125.9027 254.5439,127.1705 254.6517,128.3205 255.2385,129.7605 256.6134,131.1977 256.8125,131.836 256.8353,133.0336 256.5868,134.1216 256.485,134.5676 255.7865,136.3587 255.3227,137.5481 254.9359,138.1031 254.8019,138.2952 254.8001,138.2979 253.5172,138.4869 253.0193,138.5603 252.5225,138.9644 251.1552,139.5713 248.1548,140.3123 247.6371,140.1133 247.226,140.2792 246.6842,140.9748 246.3467,141.067 245.5577,140.8867 244.5536,140.8222 242.9412,141.2299 241.7886,142.3285 241.0375,143.3719 238.7599,146.3232 238.1992,146.9274 237.3566,147.704 236.0103,148.4442 235.6642,148.6728 235.2733,149.0739 235.2009,149.1482 234.8792,149.4784 234.1131,150.1034 232.7266,151.062 231.1515,151.9976 230.6501,152.7359 230.0662,154.0057 229.7143,155.4779 229.7164,156.214 230.0168,157.8058 228.747,161.0402 227.5331,162.5157 224.8935,164.5683 224.6007,164.8884 224.5176,165.3794 224.5206,166.1147 224.2921,166.77 222.9519,168.0828 221.4854,169.3548 220.1853,170.0545 219.2219,170.4255 219.0967,170.9168 219.1609,171.4476 217.7231,172.6848 217.4436,172.9253 215.7597,175.1343 214.173,177.5949 213.6932,178.5404 213.5566,179.0123 212.9278,184.5414 212.9254,184.9057 213.3246,186.2409 213.7964,187.8189 213.797,188.0058 213.3878,188.862 212.6357,189.3282 211.3372,189.6193 210.6612,189.5006 209.5775,188.9972 207.1678,189.1128 206.2436,188.947 205.1023,188.6069 204.2577,188.4439 203.8726,188.4659 203.2202,188.6006 202.0597,189.1165 199.9562,190.7235 199.3651,191.8801 199.1545,193.6297 199.2572,194.8053 200.462,197.0324 201.0303,197.8698 201.2882,200.3349 201.7174,201.2866 202.0389,203.0012 201.9176,204.4113 201.0765,205.8269 192.4931,204.4495 185.6431,199.9684" stroke="black" /><polygon fill="none" points="344.0001,348.0225 343.7437,347.8228 344.1248,346.2648 344.5117,345.9675 345.4026,345.2829 345.7748,344.686 346.0764,344.1194 346.8476,342.6705 351.2109,342.7204 350.9687,346.7975 352.6852,346.6859 357.0037,346.6508 361.8514,346.3651 365.1516,346.1177 367.5569,345.6718 368.3736,345.6402 369.232,345.6935 369.4112,345.8238 370.1967,347.5358 370.4378,347.8982 370.6778,348.1149 371.2507,348.3803 372.2341,348.7261 372.8911,348.7375 373.4921,348.6347 376.2745,347.8499 379.4847,347.6132 380.7577,347.5897 382.33,347.4085 388.0424,346.3432 388.9081,346.2982 392.9573,347.5852 398.0492,349.4164 398.9325,349.6179 404.2105,349.6458 407.5114,349.7503 408.778,349.6026 410.3875,349.2752 411.6924,349.4573 412.4018,349.7811 412.9147,349.9143 413.585,349.9635 414.4678,349.9426 416.5314,349.6073 417.2024,349.6379 418.2629,349.8905 420.2407,350.122 421.7964,350.6129 422.2035,350.8344 423.8797,351.2722 425.7607,350.9154 426.9152,350.4515 427.3554,350.4501 428.1341,350.7554 428.5066,351.1486 428.8617,351.7643 429.6477,353.8553 430.2717,354.8627 430.6698,355.2194 431.5162,355.4765 433.1201,355.6681 434.2007,355.6125 435.4983,355.2336 436.2045,355.1388 438.0898,355.1518 438.5317,355.2314 440.0671,355.9234 441.1786,356.0183 442.1757,355.9347 443.4574,356.6724 444.2317,356.9755 445.3829,357.196 446.8042,357.0966 448.2108,356.505 448.5194,356.4646 448.976,356.478 450.1262,356.7486 450.6181,356.7198 451.3419,356.5166 452.3922,355.9264 452.7053,355.5662 453.2864,353.8076 453.8425,352.9806 453.9906,352.4948 453.9448,351.5773 454.0389,351.1778 454.2969,350.8044 454.6516,350.5224 457.3437,350.2063 458.6966,349.8921 460.6801,349.9902 461.3631,349.7734 461.9792,349.8105 462.5955,350.2067 463.736,351.4466 464.2873,352.1665 465.7241,352.9656 467.3528,353.6793 467.6803,353.7215 468.6346,353.4025 468.9905,353.0916 469.4219,352.2297 469.7225,351.842 470.2219,351.4014 464.8827,422.8708 430.7652,417.987 415.108,392.4181 394.225,385.557 357.9561,373.6291 354.6422,375.7966 351.8287,377.4161 350.3255,378.0896 338.318,380.0291 331.4261,374.233 329.9608,374.4155 344.0001,348.0225" stroke="black" /><polygon fill="none" points="177.3068,282.8071 176.8985,282.0983 176.3865,280.9231 175.6573,280.1725 174.3481,279.4016 173.3052,278.6749 172.7226,278.0175 172.1621,277.0789 171.7461,275.7149 171.9107,274.232 171.8834,273.6435 171.7132,273.0555 171.6618,272.4676 171.829,271.737 171.7782,271.1256 171.4856,270.4684 170.9269,269.8342 170.416,269.0828 170.0739,268.1187 169.8992,266.5895 169.9445,265.7665 170.2806,264.6351 171.2165,262.866 171.5506,261.6649 171.8395,261.0045 171.9828,260.3931 172.0002,258.8396 172.1194,258.2268 172.2459,257.9521 172.4562,257.4961 174.6498,255.1103 175.4939,254.4251 176.725,253.6208 177.1623,253.1346 177.3267,252.7719 177.4429,250.8155 177.7467,249.7342 178.3808,248.4792 178.8979,248.1015 180.1156,247.7016 180.7429,247.299 182.1901,246.1179 182.8112,245.4452 183.2035,245.1955 183.518,245.1246 184.0021,245.2165 184.5239,245.0012 185.2111,244.231 185.5031,243.7765 186.1902,242.2726 186.2803,241.2679 185.4745,237.1091 185.2244,236.6327 184.1799,236.0551 183.8896,235.6871 184.1626,234.5949 184.1182,234.2825 184.2276,233.4794 183.9999,232.194 184.0218,231.7824 184.17,231.466 185.4883,230.4179 186.5316,229.2497 186.7301,228.861 187.4015,228.4032 188.3474,227.9632 189.1441,227.363 189.8049,226.3811 190.3057,225.3821 190.607,224.2112 194.6504,224.7523 194.6549,224.7529 194.7497,224.7656 239.1833,230.7023 240.4237,230.868 240.9225,230.9347 267.1649,234.4409 267.3928,255.3991 267.4634,261.8913 267.4885,264.1413 260.4442,278.7985 254.9608,286.8225 250.3044,291.3301 249.4284,291.5122 248.5657,291.8103 247.436,292.5134 247.133,292.9368 246.5212,294.2888 246.1415,295.3359 245.8262,295.5381 245.6097,295.5492 244.7784,295.2344 243.7003,295.1637 243.0861,295.4408 242.2662,296.0424 241.8838,296.544 241.5529,297.2428 241.1476,298.5677 240.8151,299.0687 240.3546,299.4199 239.6636,299.7457 239.0351,299.8492 236.0575,299.6357 235.5065,299.7126 234.9821,300.0268 234.6105,300.4176 234.2027,301.1166 233.1034,302.1568 233.1303,302.4052 233.8764,303.0754 233.9645,303.3711 233.8286,304.2724 233.048,305.4757 232.8533,305.967 232.8262,306.2948 232.9977,307.1397 233.2791,307.4118 234.9088,308.0331 235.4803,308.5205 236.1191,309.228 236.7655,309.444 237.3851,309.5461 238.8137,309.4368 239.4029,309.5435 239.9641,309.759 240.359,310.0572 240.844,312.1571 241.3232,312.8644 241.5781,313.409 241.6364,313.9818 241.5275,314.8007 241.5308,315.6741 241.871,316.4633 243.0547,317.9053 243.3937,318.6405 243.4227,318.9981 243.341,319.6227 242.8414,320.9071 242.7418,321.6502 211.8151,319.6381 190.6261,309.4779 172.9203,300.9879 172.7784,300.6584 172.8004,299.9294 173.3771,298.3239 174.4087,296.3224 174.6966,295.4189 174.8624,294.5195 175.0035,293.755 175.3886,293.0245 175.7638,292.6513 176.9316,291.4892 177.8717,290.801 178.4977,289.5059 179.6757,287.5014 180.0845,286.5821 180.1783,285.9927 180.0319,285.3823 179.3749,284.5133 177.3849,282.9431 177.3068,282.8071" stroke="black" /><polygon fill="none" points="179.7099,332.3119 180.2103,326.0644 180.4426,324.5702 180.4766,323.7307 180.3671,323.3116 179.6076,322.2287 179.3898,321.6001 179.3144,321.0414 179.3492,320.3422 179.6664,318.6615 179.6294,318.2069 179.2681,317.6831 178.7265,317.3005 177.3938,316.6406 176.884,316.0433 175.4421,314.0241 175.333,313.6747 175.8296,312.0633 175.9686,310.4197 175.4967,309.4491 175.2626,307.5152 174.6606,306.8371 174.3788,306.3518 174.217,305.8475 174.0949,305.1481 173.9674,303.1075 173.7858,302.5047 172.9203,300.9879 190.6261,309.4779 211.8151,319.6381 242.7418,321.6502 242.6669,322.2136 242.8026,322.5409 243.9186,323.8631 243.8962,324.2597 243.9558,324.7471 244.0864,324.9516 244.328,325.139 244.6321,325.2359 245.693,325.3295 246.4855,325.7362 246.9236,325.8491 247.9686,325.8293 248.2371,325.8604 248.3891,325.991 248.5049,326.245 248.5256,326.5141 248.2419,327.354 248.1438,327.8743 248.1786,328.169 248.6709,328.9892 248.6882,329.3133 248.5471,329.6963 248.0702,330.3792 247.9663,330.6407 248.0981,331.2093 248.4025,331.4398 248.7274,331.523 250.0491,331.3912 250.5266,331.7269 250.6581,332.0419 250.5096,332.8437 250.5322,333.1173 251.186,334.1052 251.3615,334.5678 251.5438,336.9053 251.4108,338.2811 251.622,339.0895 251.8989,339.4907 253.6155,341.2592 254.8222,342.7583 255.0536,342.9372 255.7478,343.2497 256.8824,343.9849 258.9593,343.9773 259.3524,344.11 259.8153,344.4006 260.0483,344.7139 260.0488,344.9835 259.7734,345.9324 259.7306,346.3315 259.8246,346.7131 260.0106,346.9816 260.3567,347.0702 261.5115,347.0659 262.4343,346.9041 263.0817,346.9239 263.7041,347.0116 264.858,347.5227 265.3234,347.6561 265.7568,347.6576 264.8336,348.3892 263.062,348.8376 260.3023,351.2343 259.5548,351.7354 257.1478,353.7093 256.3633,354.5178 255.0137,356.2696 253.9274,357.9916 252.9189,359.3345 249.0681,362.7376 247.1477,364.1605 245.7421,365.8408 242.1188,372.3725 240.8852,374.8741 240.6044,375.091 240.1718,375.2548 239.8501,375.1775 238.3748,373.9301 237.8518,373.8145 237.4092,373.9346 236.8865,374.2887 235.4368,376.7315 234.894,377.0075 233.9293,377.3044 233.1438,377.4265 232.3589,377.429 230.7979,377.2882 229.6092,376.901 229.0036,376.4537 226.3452,373.4979 225.7197,373.1291 225.0745,372.9745 224.2747,373.2603 222.0296,374.0 221.4989,373.97 221.0688,373.7138 220.2239,373.6689 219.5299,373.7999 218.9347,374.1888 217.9415,374.1931 217.7602,374.1088 217.5756,374.023 216.9805,373.746 216.7754,373.5672 215.8676,372.7757 214.0017,371.5399 213.6687,371.1122 213.258,369.6459 212.6828,368.6628 211.9823,368.1648 211.1706,367.9522 209.4411,368.0672 208.1331,367.9109 206.9896,367.3778 206.2875,366.7007 205.843,365.9498 205.1024,365.058 204.2545,364.7024 202.3583,364.728 201.3985,364.3735 200.9928,363.9449 199.955,362.3028 199.0503,361.4998 198.312,361.0011 197.3553,359.9768 196.6139,358.9418 195.9494,358.4788 194.8993,358.393 194.0169,358.5395 192.6926,359.0103 191.1481,359.4453 190.0049,359.1995 189.3586,358.6106 188.2858,357.4338 187.3628,356.7203 186.3673,356.2227 184.4312,355.5323 183.031,355.2141 181.4817,354.6476 179.4354,353.7423 178.698,353.5653 177.5937,353.7483 176.7099,353.6806 174.8072,352.1377 176.6142,349.6302 177.5447,348.5076 177.9008,347.2449 177.9603,344.0304 177.7419,343.26 177.6664,342.4202 177.9523,341.6503 178.3815,341.0888 179.0242,339.8271 179.3796,338.5662 179.5788,333.9484 179.7099,332.3119" stroke="black" /><polygon fill="none" points="75.8779,429.1118 75.7668,429.1147 61.8566,429.4661 53.2314,426.2302 31.2055,405.9322 38.5765,403.7025 16.6995,389.7781 19.7277,359.3361 18.9985,355.3114 27.1358,358.9482 29.999,356.1345 30.9418,355.6005 34.3786,354.9646 35.7389,354.9227 37.8567,355.5604 38.6564,357.5849 39.0364,358.2277 39.868,358.2638 40.8848,357.1615 41.7489,355.7565 42.6521,354.483 42.9507,353.5348 43.2141,353.0795 43.7427,353.0398 44.5614,353.3346 45.7478,353.5645 46.1625,353.3153 52.5993,345.8103 54.9685,342.2204 56.136,341.0609 57.4924,340.0709 59.265,338.9275 60.5098,338.2795 62.0176,337.1176 64.1659,333.46 65.2599,332.3866 66.978,331.2941 67.8148,330.9286 70.5242,330.2501 73.3543,329.2175 74.2198,326.199 74.2607,326.116 74.3044,326.1937 94.4513,362.2643 94.4577,362.2757 95.2272,363.6523 98.0997,368.7909 100.1558,369.3673 113.9169,373.2247 126.9079,381.1407 107.0439,437.9827 75.8779,429.1118" stroke="black" /><polygon fill="none" points="254.9359,138.1031 255.3227,137.5481 255.7865,136.3587 256.485,134.5676 256.5868,134.1216 256.8353,133.0336 256.8125,131.836 256.6134,131.1977 255.2385,129.7605 254.6517,128.3205 254.5439,127.1705 254.6181,125.9027 254.8001,122.7887 255.283,121.1622 257.3341,117.7413 258.9804,116.6763 259.7284,115.6519 259.5924,114.4099 259.0611,112.6597 257.3662,111.0962 255.9929,110.0059 255.3125,108.6206 255.1734,106.5768 255.5836,105.9183 256.2949,105.4045 256.5183,104.8923 256.2158,104.163 255.5939,103.3254 254.5013,102.3076 253.8952,100.7463 253.6295,99.6083 253.5312,98.0746 253.1611,96.8473 324.504,116.2869 325.1291,116.3128 325.5316,116.0594 325.8468,115.6519 326.1206,115.4827 326.3772,115.4961 326.5371,115.751 326.4838,116.6291 326.5501,117.1329 326.8237,117.4536 327.3864,117.6612 327.9198,118.0187 328.3794,117.8071 328.6798,117.4703 329.0242,117.2449 329.8725,117.1845 331.1099,117.3508 331.321,117.3792 331.693,117.4291 332.0128,117.522 333.0301,117.8172 333.6946,118.0101 334.9054,118.663 335.1008,118.9713 334.8585,119.6711 333.9582,121.0879 333.9311,121.452 334.1266,121.9127 334.3872,122.2481 334.9789,122.5809 335.4409,123.0548 335.7325,123.6167 336.1066,124.13 336.8482,124.5477 337.7555,124.8371 338.7199,124.7636 339.3187,125.7809 339.7685,126.7608 340.68,128.1577 341.0607,128.6596 342.0737,129.3206 341.9444,130.3295 341.7377,130.6481 341.5408,131.8348 341.6187,132.5561 341.3678,133.1947 340.6237,134.656 340.8625,134.8861 341.5169,135.2158 341.7115,135.4611 342.0745,136.9344 342.4097,137.5112 343.4247,138.4323 344.1531,138.7472 345.4395,139.1325 345.5759,139.5367 345.3998,140.1877 344.8555,141.5341 344.8089,142.7826 344.6166,143.1968 344.1305,143.8179 344.0416,144.2833 343.5668,144.3714 343.1518,144.5906 343.0124,145.0672 343.3112,145.6305 343.7445,146.1491 343.9694,146.611 343.9726,147.3042 343.5866,148.7534 343.3663,150.0133 343.311,151.1513 342.5825,152.8166 342.1566,154.1628 341.7803,154.7706 341.6187,155.2314 341.575,155.5523 341.8127,155.6229 342.2656,157.1106 355.2859,157.29 354.8804,205.1031 349.5655,207.6823 347.8685,208.5058 344.5147,210.1334 335.9228,201.61 284.0135,190.7818 262.1234,166.6333 262.0354,166.5363 241.0375,143.3719 241.7886,142.3285 242.9412,141.2299 244.5536,140.8222 245.5577,140.8867 246.3467,141.067 246.6842,140.9748 247.226,140.2792 247.6371,140.1133 248.1548,140.3123 251.1552,139.5713 252.5225,138.9644 253.0193,138.5603 253.5172,138.4869 254.8001,138.2979 254.8019,138.2952 254.9359,138.1031" stroke="black" /><polygon fill="none" points="226.8031,93.8523 220.7995,96.6543 207.078,94.6066 206.5008,94.5205 206.3481,94.479 176.7783,86.4525 175.6244,86.1393 170.4781,84.7956 157.7458,76.1098 157.4013,75.8748 135.9493,75.7263 135.9493,67.4359 135.9493,62.9656 140.8597,58.0139 146.6897,52.135 167.6032,52.0208 167.7571,21.0446 167.8058,8.5881 167.9057,8.3004 168.0057,8.0127 168.5742,5.7785 171.0933,3.4367 172.1296,2.6344 173.5144,2.4088 176.7366,2.2653 178.0921,1.9987 178.5011,2.0126 178.8893,2.2545 179.318,2.2432 179.7478,1.9999 180.3941,1.8662 180.8551,1.552 181.2745,1.5325 182.7008,0.6841 184.3385,0.0 186.248,0.1766 187.8086,0.8725 189.3639,1.3109 190.3695,0.5898 191.8573,0.8342 192.8644,0.2641 192.9471,0.3628 193.231,0.649 193.4731,0.8626 193.6426,1.053 193.7237,1.2267 193.7298,1.2372 193.854,1.4849 193.9693,1.6785 194.4473,2.429 194.761,2.9307 195.0869,3.4532 195.7164,4.384 196.2606,5.1886 196.3163,5.2642 197.571,6.9677 198.5506,8.2099 199.0452,8.761 199.3915,9.0817 199.4772,9.1542 199.6785,9.3246 200.04,9.6281 200.1954,9.7651 200.309,9.9317 200.3922,10.046 200.4989,10.2782 200.6739,10.5043 200.9286,10.8413 201.3625,11.4387 201.8353,12.05 202.767,13.1961 203.035,13.5258 203.9409,14.6793 204.5861,15.6163 205.0167,16.1494 205.1983,16.4475 205.3382,16.6885 205.7937,17.0976 206.2431,17.4813 207.0116,18.1463 207.2505,18.3776 207.6962,18.8566 208.0488,19.3601 208.5931,19.9981 209.0015,20.4857 209.5232,21.1655 209.7865,21.5518 210.2363,22.1426 210.4869,22.4823 210.7985,22.8722 210.9847,23.0704 211.1857,23.2845 211.524,23.6568 211.8877,24.0842 212.1903,24.3896 212.6662,24.8369 213.2606,25.4552 213.5912,25.8668 213.919,26.1558 214.1629,26.3409 214.4087,26.5577 214.6661,26.8162 214.8932,26.9984 215.2045,27.291 215.5354,27.5344 215.8013,27.7688 216.1825,28.0451 216.5044,28.308 216.8895,28.6414 217.0877,28.8314 217.2071,28.988 217.5244,29.283 217.7175,29.4572 217.8734,29.615 218.0387,29.7209 218.1963,29.8205 218.4811,30.0085 218.6433,30.1755 218.8974,30.3834 219.0555,30.4894 219.1493,30.5993 219.2385,30.6965 219.3382,30.7902 219.4651,30.8596 219.6062,31.0053 219.7846,31.1807 219.9624,31.3196 220.3605,31.6037 220.7951,31.9253 221.2513,32.2156 221.6401,32.51 221.9098,32.7039 222.212,32.9211 223.074,33.4553 223.7881,33.8778 224.4462,34.2703 225.0081,34.5085 225.7606,34.7848 226.4944,34.9904 227.0529,35.1169 227.5169,35.1596 227.554,35.1536 227.7997,35.114 228.2944,35.0252 228.8125,34.9542 229.4125,34.9244 229.8217,35.0181 230.0953,35.1662 230.4105,35.6091 230.6199,36.255 230.8821,36.8887 230.9795,37.3209 231.0048,37.4331 231.2117,37.892 231.5782,38.3324 231.8999,38.6246 232.9041,37.954 233.3076,37.6845 233.2241,37.5832 233.1341,37.4437 233.1418,37.3794 233.1995,37.2232 233.4019,37.1065 233.7299,36.9473 233.9349,36.871 234.2474,36.8404 234.6001,36.8943 235.0864,37.0388 235.6013,37.2684 236.0131,37.5276 236.5303,37.8905 236.9576,38.2125 237.4649,38.6978 237.769,38.942 238.0124,39.1128 238.3692,39.3288 238.7944,39.5553 239.2263,39.761 239.7714,40.1048 240.2393,40.4243 240.4862,40.5768 240.9232,40.8467 241.6996,41.2577 242.2325,41.5907 243.0296,41.9526 243.5687,42.1982 244.2319,42.4767 244.5833,42.6004 244.8791,42.6752 245.7727,42.9826 246.79,43.3203 247.2882,43.4844 247.8304,43.6464 248.1995,43.8006 248.6345,44.0254 249.021,44.2329 249.3795,44.4279 249.5957,44.5637 249.9977,44.8179 250.4157,45.1146 250.6397,45.2912 250.7546,45.4258 250.8026,45.5556 250.7575,45.7421 250.6883,45.8997 250.6026,45.996 250.5471,46.1113 250.5405,46.2113 250.5689,46.334 250.6452,46.4131 250.7651,46.4935 250.8812,46.6191 250.9457,46.75 251.006,46.8499 251.1343,46.9905 251.2909,47.1196 251.4942,47.2075 251.6675,47.2655 251.8352,47.3159 251.9359,47.3771 252.0368,47.4809 252.2053,47.7128 252.3404,47.9389 252.5406,48.2734 252.7152,48.6103 252.8893,49.0029 252.9967,49.2272 253.1007,49.5828 253.1094,49.7385 253.1205,49.9309 253.1444,50.0886 253.1674,50.2279 259.6054,51.9977 258.9502,52.8704 256.4785,54.042 248.6242,55.1929 245.9474,56.099 243.6295,57.7686 242.5081,59.102 242.4949,60.2322 243.0108,61.3274 244.1736,61.6884 245.901,62.4798 247.9904,64.2668 249.9888,64.6252 253.2847,64.3804 255.3338,64.4402 257.214,65.0312 258.1377,65.5599 258.7735,66.5883 259.1885,68.1818 258.9551,69.611 257.7451,70.346 256.5165,70.5171 255.5912,69.8227 254.3919,68.5974 253.6228,68.5339 252.943,69.1011 252.5352,69.9003 252.2527,72.2937 252.0577,74.9528 252.4742,76.8461 253.1425,77.2745 253.6891,77.4055 254.8831,77.1358 256.1473,77.1316 256.816,77.9595 256.7526,79.4548 255.7896,82.3164 254.5918,85.9464 254.5281,86.1396 253.866,86.7716 253.1611,96.8473 250.497,93.244 250.5072,93.2327 250.5162,93.2204 250.524,93.2073 250.5272,93.2004 250.5304,93.1936 250.5329,93.1864 249.5481,91.7759 249.175,91.2415 248.5633,90.3654 248.5482,90.3662 248.533,90.3655 248.5255,90.3644 247.935,89.7927 243.8899,85.8761 243.8278,85.9067 236.7857,89.1934 235.0387,90.0087 226.8031,93.8523" stroke="black" /><polygon fill="none" points="217.7602,374.1088 217.9415,374.1931 218.9347,374.1888 219.5299,373.7999 220.2239,373.6689 221.0688,373.7138 221.4989,373.97 222.0296,374.0 224.2747,373.2603 230.5988,384.6162 234.3217,391.2981 233.3366,394.3291 232.923,395.2523 232.5375,395.5345 231.9466,395.7138 230.9308,395.5062 230.5213,395.7896 230.4755,396.1415 231.0334,396.916 231.1356,398.2539 231.3194,399.2748 231.3662,401.0426 231.7396,401.9024 231.7427,402.2327 231.5986,402.538 231.2264,402.8574 231.0582,403.163 231.1071,403.445 231.3749,403.9845 231.3253,404.2421 230.6541,404.8796 230.4388,405.4679 230.1539,406.691 230.1192,407.1491 230.1956,407.5247 230.8715,407.9677 231.1144,408.3421 231.3101,409.0223 231.4355,409.9855 231.776,410.7118 232.3708,411.2851 232.517,411.6367 232.5912,412.1774 232.021,414.5048 232.0697,414.809 232.3256,415.2668 232.4238,415.6656 232.4299,417.3335 232.2921,419.011 232.4301,420.6445 232.4359,421.9725 232.3424,422.5832 231.9848,423.7058 219.1897,438.6825 210.7794,448.5269 202.4083,455.8502 183.1542,472.6988 182.008,471.1577 174.7298,477.9804 171.0936,477.541 170.5104,477.7202 170.11,478.3017 169.5131,478.3628 168.517,478.2204 167.8686,477.3564 166.7021,477.1308 166.4333,477.0788 165.8143,476.7988 164.8885,476.1192 164.7055,475.5926 165.2068,474.1132 165.0522,473.707 164.6764,473.5325 163.1874,473.417 162.7164,473.5668 160.4066,474.92 159.408,476.3301 159.0582,476.473 158.5571,476.4475 157.5749,475.9169 156.528,474.7723 156.0256,474.613 155.0282,475.1298 154.3041,474.8351 152.8115,472.1328 152.0618,470.0414 152.1423,469.4734 152.9177,468.2809 153.04,467.6461 152.7978,466.904 151.6955,465.0834 151.2909,464.8283 150.6521,464.777 150.4751,464.4363 149.778,461.2665 149.1748,459.9046 147.5314,458.9912 147.4321,458.4917 147.7617,457.3284 147.6757,456.7608 147.2574,456.4111 143.5992,455.7353 140.8809,454.0297 138.5631,451.093 136.9137,448.3685 136.6846,446.6407 137.3173,444.5573 138.5914,443.4175 142.674,442.4018 143.3952,441.9133 144.1693,440.5592 144.7951,436.963 145.4542,434.7985 147.6967,432.1684 150.8842,429.8595 152.2454,429.3949 153.6302,428.3084 154.1274,427.2259 154.206,426.0095 153.8128,425.0389 152.5304,423.9077 151.7187,422.425 150.5252,422.2476 148.9909,421.5519 147.7398,420.9846 147.7002,420.9667 146.9206,421.074 146.2983,421.3675 145.7426,421.3011 145.5287,421.0931 144.7217,420.309 143.6846,420.2773 143.291,419.828 142.9104,418.3887 140.2801,416.6804 139.9155,414.1481 134.8634,401.1107 133.5732,387.6278 133.5701,386.9252 133.9829,386.5083 139.7684,382.7836 140.7204,382.0148 141.1918,380.1413 142.4257,371.9938 150.651,366.9492 158.9897,361.8363 174.8072,352.1377 176.7099,353.6806 177.5937,353.7483 178.698,353.5653 179.4354,353.7423 181.4817,354.6476 183.031,355.2141 184.4312,355.5323 186.3673,356.2227 187.3628,356.7203 188.2858,357.4338 189.3586,358.6106 190.0049,359.1995 191.1481,359.4453 192.6926,359.0103 194.0169,358.5395 194.8993,358.393 195.9494,358.4788 196.6139,358.9418 197.3553,359.9768 198.312,361.0011 199.0503,361.4998 199.955,362.3028 200.9928,363.9449 201.3985,364.3735 202.3583,364.728 204.2545,364.7024 205.1024,365.058 205.843,365.9498 206.2875,366.7007 206.9896,367.3778 208.1331,367.9109 209.4411,368.0672 211.1706,367.9522 211.9823,368.1648 212.6828,368.6628 213.258,369.6459 213.6687,371.1122 214.0017,371.5399 215.8676,372.7757 216.7754,373.5672 216.9805,373.746 217.5756,374.023 217.7602,374.1088" stroke="black" /><polygon fill="none" points="12.7997,461.052 0.0,446.3502 15.167,426.7009 15.3056,426.5215 15.4954,426.2757 31.2055,405.9322 53.2314,426.2302 61.8566,429.4661 75.7668,429.1147 75.8779,429.1118 107.0439,437.9827 107.1455,438.0116 98.9219,462.5456 94.4369,475.9261 92.2276,482.5228 92.2096,482.5764 65.8899,468.4108 62.7777,469.1405 61.255,472.4566 61.5984,474.7105 55.8258,480.0051 53.6062,485.5596 50.4868,486.364 50.4483,486.504 50.4429,486.5237 50.4038,486.666 48.3341,494.2137 48.1332,494.9464 46.7479,500.0 12.7997,461.052" stroke="black" /></svg>