<?xml version="1.0" encoding="utf-8" ?>
<svg baseProfile="tiny" height="426.4892" version="1.2" width="500" xmlns="http://www.w3.org/2000/svg" xmlns:ev="http://www.w3.org/2001/xml-events" xmlns:xlink="http://www.w3.org/1999/xlink"><defs /><polygon fill="none" points="147.4073,173.3758 147.3366,173.4177 147.2502,173.4702 147.2238,173.4863 147.1319,173.5273 147.0214,173.5767 146.8794,173.6672 146.8569,173.7142 146.8229,173.7852 146.8582,173.8759 146.968,174.012 147.057,174.1651 147.1992,174.7741 147.2346,175.5037 147.2429,175.6622 147.1825,175.9373 147.0599,176.0437 146.935,176.0629 146.8241,176.1032 146.5715,176.1948 146.4462,176.289 146.2985,176.5002 146.2091,176.654 146.1125,176.79 145.7889,176.8673 145.5937,176.8949 145.5485,176.8912 145.5259,176.8894 145.5032,176.8876 145.4005,176.7674 145.3764,176.6092 145.3567,176.3287 145.2927,176.1221 145.1065,175.8539 145.0435,175.7983 144.7798,175.5656 144.6103,175.4416 144.4279,175.2317 144.174,175.0487 144.1024,174.8833 144.0737,174.5753 144.0019,174.3968 143.8086,174.2173 143.5158,173.9644 143.4714,173.9758 143.3428,174.0088 142.9613,174.4702 142.6369,174.7813 142.5266,174.8872 141.9787,175.2531 141.5351,175.2798 141.4429,175.2931 141.513,175.393 141.5244,175.4092 141.5839,175.494 141.9329,175.9912 142.2756,176.9689 142.5661,178.5103 142.5195,180.17 143.0184,181.4979 143.2607,183.4839 142.695,183.7937 142.0354,183.8761 141.4698,184.1952 142.1489,186.4919 142.4528,189.0264 143.7642,190.0108 143.9139,190.8604 144.8771,191.4274 144.9425,192.8845 143.9207,194.7792 142.3349,196.5544 142.2773,198.1491 142.6667,199.5664 143.8092,201.4767 145.3759,202.1917 146.77,204.4642 148.9484,207.0249 149.3097,207.9794 149.4399,209.1166 148.1865,211.1438 119.8584,211.4835 98.7263,211.7316 82.5443,211.6978 81.7167,211.1053 81.6618,210.3004 81.135,210.3716 80.4521,210.4643 79.2081,208.8334 77.6675,207.8394 76.5627,206.2716 75.1117,206.2735 74.0429,205.1898 71.8233,204.5652 71.8604,202.8721 71.4518,202.2257 71.2093,202.7739 70.2739,203.4597 68.5456,204.3993 65.7919,202.458 66.574,200.644 66.9279,199.0308 65.9518,197.9411 65.1637,197.6828 64.5866,198.0495 64.765,198.4824 65.3671,198.6633 65.2139,198.9181 64.9032,199.257 63.8161,199.0763 62.5526,196.7886 62.1482,196.8186 61.7442,197.1439 61.6088,198.5939 61.4222,199.3543 61.1321,199.9018 60.7254,199.8996 60.5044,199.8159 60.2782,198.1208 58.7545,197.3037 58.4945,196.49 58.9193,195.205 56.5045,194.324 55.9205,193.3123 55.2685,192.1831 53.791,192.376 52.9379,192.8425 51.3957,192.0462 48.9916,192.2412 47.8449,191.8655 47.1879,191.024 46.2191,190.8886 44.2343,189.3185 43.2124,190.0366 42.3008,189.6811 42.1317,189.6149 41.2785,188.863 40.7319,187.8904 39.1052,187.6966 37.5639,187.312 37.7313,186.1053 36.3926,185.273 36.9026,184.4579 36.0856,182.7185 35.6123,182.6671 34.7104,183.6628 33.841,184.1086 33.189,183.5833 33.3451,181.1058 32.8621,179.6956 31.2378,179.8811 29.8818,179.1167 29.9175,177.0396 28.4494,177.3461 27.9941,176.3922 26.4055,175.7244 26.2847,173.7665 26.4906,172.0588 26.3875,169.8888 27.4744,168.829 27.0746,165.8474 24.876,163.7526 26.5196,162.6033 26.2216,160.9403 26.6572,159.5639 22.9426,160.5312 22.1141,158.8483 21.9744,156.1197 21.2887,155.0276 22.5606,151.9556 22.3459,151.6202 19.8723,151.6903 19.3176,150.8091 20.4719,149.6519 21.0744,148.3548 21.0567,147.5086 20.2933,146.3971 20.2481,145.2225 19.6826,143.7226 19.077,142.76 18.2479,142.7215 14.695,143.125 13.307,142.5844 10.3527,141.7575 6.9256,141.6403 3.4965,141.2595 1.6681,140.4632 0.4615,139.9377 0.1026,138.3375 0.0,137.6969 1.1959,138.5428 2.3847,138.2383 2.8981,138.5093 2.9487,139.2271 3.7486,139.1192 3.8305,138.693 4.2676,139.0852 4.6875,138.2808 5.3639,137.9961 5.4217,137.3409 5.9084,137.2406 5.8018,135.8823 6.2842,135.7268 6.7725,135.3586 7.8353,135.5036 8.8401,134.8618 8.8173,134.3836 8.7757,133.5051 9.1068,133.2791 9.5637,133.2829 9.6638,131.9516 10.7718,131.5483 13.6056,131.1757 13.8907,130.7125 13.6239,129.8271 14.4224,129.0922 14.9424,127.2142 14.8398,126.7049 15.3418,125.6028 15.4819,123.7055 15.6917,123.7091 17.1365,123.7336 17.3659,122.7227 17.7662,122.1011 18.3991,120.4598 16.9049,118.5062 18.0654,116.8389 17.8915,116.174 50.8478,116.1866 56.7061,116.1877 68.7963,116.1888 74.7637,116.1889 80.9132,116.1885 98.5203,116.1854 98.5428,105.3755 98.5769,87.7847 98.6337,55.8301 98.6549,42.8849 112.9447,42.8185 123.4087,42.7686 123.4078,42.6951 122.6672,0.4814 123.233,0.4876 123.3783,0.4893 139.5543,0.6669 141.7143,0.6906 231.6266,1.6781 238.7441,1.7563 238.8516,1.7574 265.9358,2.0549 265.9389,2.0549 265.9305,22.7219 265.9305,22.9407 265.8856,89.2525 265.8716,104.0998 265.7927,137.8738 265.1264,139.3289 263.9836,140.5509 263.7047,141.1715 263.0988,141.8624 262.4229,142.3124 260.1448,143.3263 259.9618,144.4094 258.156,145.0279 255.8802,145.201 254.6747,144.7643 253.5863,143.5198 251.1049,144.9314 250.4559,145.7983 249.5175,145.416 249.1412,145.8684 249.0208,146.013 248.5696,146.5555 247.2422,146.6943 246.4148,148.2717 246.9817,149.6248 246.3398,151.6419 246.1814,152.7252 244.9293,153.8717 243.7294,154.2999 243.1546,153.613 242.3661,153.2669 240.6536,153.2324 240.5015,152.9238 239.3276,151.2216 238.4174,151.2082 238.0531,151.5573 237.3872,152.7379 236.095,154.4645 234.6166,155.4733 233.4175,155.955 232.0441,156.2068 231.3855,157.785 230.2698,157.8874 229.3527,159.4049 228.7837,162.9967 226.915,163.7653 226.7774,164.2368 227.3534,165.4932 227.2874,166.143 226.489,167.6747 225.7547,167.6101 225.4301,167.7163 223.5924,169.6889 222.7455,169.7281 222.1864,169.3903 221.8077,169.4292 220.675,170.1221 219.9309,169.8281 219.3922,169.8967 217.5251,171.2431 215.4618,171.8232 214.6422,171.2426 213.9651,172.0314 213.7954,172.2295 212.6456,173.3364 212.1542,174.0787 210.5299,173.9358 209.1932,175.2517 208.4376,175.5295 207.2127,175.3197 205.7836,175.3514 204.2685,174.6269 203.1775,175.0579 202.5589,175.3021 202.2665,176.4156 201.4616,177.5538 201.4362,178.7981 200.6608,179.2479 200.4026,179.7548 197.9149,180.1742 197.4122,181.1132 196.3153,181.5541 195.3319,181.5974 195.0621,181.3921 195.2277,180.5549 194.9782,179.9876 194.1527,179.427 193.4732,179.3746 193.3167,178.6624 192.479,177.8582 192.1177,178.0774 191.121,179.6449 190.908,179.9143 190.5104,180.267 189.8972,180.8107 188.42,180.6662 187.7242,181.3813 186.9804,181.1979 185.7426,181.3897 185.3261,180.6318 184.7148,180.5062 183.8475,180.3281 183.5346,179.987 182.6313,180.4958 182.641,179.5477 182.1128,179.2319 181.472,179.9156 181.481,178.0543 181.6252,177.5065 179.8143,176.5707 179.1274,176.6282 177.696,176.7479 177.197,175.8838 177.3176,175.1186 176.5543,174.9884 176.0826,174.5184 174.4646,174.3454 173.9183,173.8757 173.3152,173.6267 172.9223,173.8564 172.1722,174.2948 171.7553,172.8681 170.1382,173.5155 169.1993,173.4078 169.1058,172.8717 169.6263,172.914 169.95,172.0038 168.9112,171.753 167.9826,171.2615 167.7032,171.5096 166.9966,171.5644 166.4112,172.0029 165.8367,172.7661 165.2144,173.1017 164.4779,172.7596 163.4483,171.5842 163.1795,172.0033 162.6232,172.4338 162.307,173.003 161.7755,173.7846 160.7936,173.8003 160.6795,174.5341 160.0122,174.7341 158.7767,174.6877 158.0142,174.0836 157.371,174.394 156.7141,173.8318 155.9604,174.6453 155.4204,176.3049 154.3254,175.738 153.1197,174.3337 151.0467,174.6926 150.5291,173.3729 149.958,173.7445 149.1514,173.736 148.5614,173.5478 148.4919,173.5374 147.7825,173.4317 147.4073,173.3758" stroke="black" /><polygon fill="none" points="241.9132,217.1827 241.099,216.5609 237.4377,213.7646 234.4486,211.4817 229.2522,207.5127 222.1517,202.0878 213.3716,195.3798 213.0062,195.1006 206.4211,190.0696 204.0293,188.2422 200.755,185.7407 195.3319,181.5974 196.3153,181.5541 197.4122,181.1132 197.9149,180.1742 200.4026,179.7548 200.6608,179.2479 201.4362,178.7981 201.4616,177.5538 202.2665,176.4156 202.5589,175.3021 203.1775,175.0579 204.2685,174.6269 205.7836,175.3514 207.2127,175.3197 208.4376,175.5295 209.1932,175.2517 210.5299,173.9358 212.1542,174.0787 212.6456,173.3364 213.7954,172.2295 213.9651,172.0314 214.6422,171.2426 215.4618,171.8232 217.5251,171.2431 219.3922,169.8967 219.9309,169.8281 220.675,170.1221 221.8077,169.4292 222.1864,169.3903 222.7455,169.7281 223.5924,169.6889 225.4301,167.7163 225.7547,167.6101 226.489,167.6747 227.2874,166.143 227.3534,165.4932 226.7774,164.2368 226.915,163.7653 228.7837,162.9967 229.3527,159.4049 230.2698,157.8874 231.3855,157.785 232.0441,156.2068 233.4175,155.955 234.6166,155.4733 236.095,154.4645 237.3872,152.7379 238.0531,151.5573 238.4174,151.2082 239.3276,151.2216 240.5015,152.9238 240.6536,153.2324 242.3661,153.2669 243.1546,153.613 243.7294,154.2999 244.9293,153.8717 246.1814,152.7252 246.3398,151.6419 246.9817,149.6248 246.4148,148.2717 247.2422,146.6943 248.5696,146.5555 249.0208,146.013 249.1412,145.8684 249.5175,145.416 250.4559,145.7983 251.1049,144.9314 253.5863,143.5198 254.6747,144.7643 255.8802,145.201 258.156,145.0279 259.9618,144.4094 260.1448,143.3263 262.4229,142.3124 263.0988,141.8624 263.7047,141.1715 263.9836,140.5509 265.1264,139.3289 265.7927,137.8738 265.8716,104.0998 265.8856,89.2525 265.9305,22.9407 265.9305,22.7219 265.9389,2.0549 265.9394,0.7546 281.2621,0.8163 283.2884,0.8245 283.4378,0.8251 283.633,0.8258 283.6335,0.8251 307.367,0.9144 307.3678,0.9144 307.3705,0.9144 322.869,0.9723 323.2824,0.9739 323.326,0.974 329.127,0.9945 330.0555,0.9978 330.0523,0.9939 330.0529,0.9939 330.7561,0.996 330.8877,0.9964 330.894,1.0007 334.6138,1.0118 436.2876,1.313 436.2898,1.313 446.7126,1.258 445.0404,2.3019 444.039,3.1911 443.6734,4.6263 444.4171,6.0279 444.2325,7.3134 444.7329,8.3482 444.7704,10.021 445.2347,10.8853 445.0583,12.3717 444.222,13.2496 443.1076,15.4912 442.8467,17.3169 442.5671,18.2129 441.63,20.0531 440.3854,20.9646 439.1613,21.4859 438.4893,22.2406 436.9009,23.4784 435.1004,23.7913 432.9548,26.1073 431.2059,26.8339 429.0627,26.8388 428.5048,29.3693 428.7161,30.1645 429.6567,31.2668 429.7946,32.4869 429.1269,33.3261 428.5873,35.301 428.8665,35.8236 431.0125,37.4811 430.7341,38.7103 429.7948,38.9666 429.4702,39.2418 428.1881,41.5409 427.3629,41.8567 426.441,42.0082 425.3749,42.8688 424.2509,43.1511 424.0274,43.6842 424.576,44.4984 425.1693,45.0792 425.5315,46.0036 426.3758,46.74 426.9247,47.7862 426.6095,48.1912 423.4303,50.2706 422.1028,49.6587 421.4181,50.164 421.8626,51.0845 422.4297,51.7426 422.6969,52.5153 424.7603,52.5388 425.632,52.3287 426.4506,52.5453 427.1763,53.2317 427.2039,54.2174 427.046,54.8391 426.5249,55.5191 426.0228,56.6051 425.9032,57.5852 425.9307,58.5565 426.1634,59.4874 426.704,60.3337 426.7004,61.1101 426.135,61.741 425.7084,62.5733 426.0331,63.2532 425.8836,63.8005 425.2991,64.8574 424.6401,65.5733 423.5884,65.4751 422.6046,65.7786 422.2623,66.5616 422.5591,67.9389 422.5101,71.6895 421.6034,73.1351 421.6847,74.4081 420.8499,75.5526 420.7952,76.8887 421.8724,77.6397 422.661,78.5169 422.4652,79.456 423.1165,80.8492 422.7533,81.7257 422.838,82.1807 423.5154,82.0693 423.7299,85.8461 424.9843,86.1736 423.9715,89.7671 424.6671,90.4521 425.5491,92.2237 427.0437,93.6925 428.4386,93.8281 428.8298,94.8584 429.3207,95.0587 430.1857,96.3521 429.8515,97.4898 431.4203,97.9988 433.14,99.4491 434.5045,99.9407 435.9558,99.9816 436.5203,100.3579 436.9318,101.5392 438.7704,102.601 438.1289,103.7499 436.9108,105.1843 436.5869,105.8234 435.7326,106.8955 436.2893,108.3057 436.7987,108.6384 437.0771,109.2125 436.1105,110.075 435.5369,111.1865 435.639,112.8873 435.2597,113.9814 435.8786,114.9206 435.9813,115.3893 435.899,115.9125 436.3795,116.113 436.381,116.4286 435.8324,117.2434 435.0067,117.5589 434.4308,119.8451 434.8024,120.7699 436.5865,120.8663 438.37,121.6774 438.4617,122.8909 437.6265,123.639 437.6081,125.3937 437.9809,126.6735 438.6766,127.8852 439.344,127.4709 440.0699,127.3681 441.4444,127.8549 444.3316,126.0879 444.4631,125.1624 446.4529,124.4363 446.97,125.6796 446.221,127.3584 445.9216,128.4257 446.053,129.5401 446.9913,131.1054 446.9621,132.0001 447.1382,133.1704 447.5567,133.7593 448.5036,134.1719 449.256,136.0028 450.5852,137.4026 451.061,138.1945 450.0104,138.8388 450.7528,139.9884 452.2655,140.2168 452.5194,140.8087 452.2394,142.0467 451.6156,143.3168 452.315,143.5935 453.2349,143.2917 453.4016,143.647 452.908,143.9251 452.7972,144.3341 452.973,144.9932 452.6389,146.0743 453.1965,146.4892 454.2828,146.5724 453.3618,149.5974 454.2548,149.542 455.0721,150.4171 454.0782,154.0948 452.3113,154.5226 451.3581,155.0815 449.8329,155.2742 448.8852,156.2362 448.0308,156.0726 447.6777,156.6212 446.2296,157.3558 445.5131,158.93 445.6144,160.1203 442.0946,159.7471 440.7209,160.694 440.1988,161.7918 439.699,162.3338 438.6934,162.8673 438.0801,163.8368 437.9488,164.5606 437.3289,165.4546 436.2711,166.123 433.1119,164.833 431.6769,164.4673 431.2248,164.3524 429.4699,164.8466 427.1934,167.4278 427.0848,168.2786 426.6551,168.5543 426.5326,169.3155 425.8457,170.0242 425.7523,171.8889 424.6874,175.8673 423.5878,177.3529 422.2796,178.7571 422.512,179.4472 421.9916,180.2136 422.15,181.6993 422.6707,181.8459 422.4085,182.7181 421.4334,183.3872 420.2269,185.8858 419.4078,187.1404 419.0382,188.6557 418.1264,189.0683 416.5472,190.3999 411.9488,192.1633 411.5392,192.8903 411.1875,194.2917 410.4915,195.5928 409.6827,195.6852 408.9859,197.0704 407.5358,200.1442 404.5243,200.8847 402.3947,201.6451 401.8256,204.4721 401.4794,205.29 402.0279,206.4836 402.4416,208.9438 403.077,211.0303 403.076,212.2443 392.7377,218.7522 391.0758,219.636 390.1183,220.4347 389.0681,220.9809 388.2328,220.887 387.4063,221.3128 386.5677,221.9909 386.2073,223.0829 386.8561,223.48 386.3382,225.4652 385.2595,225.5279 384.3977,225.3997 383.8475,225.9576 383.7366,226.604 383.1978,226.9555 382.6779,226.6143 382.3692,228.0899 381.9265,228.3089 380.9304,228.3551 380.865,228.9086 381.3774,229.6781 381.3387,230.1543 380.2032,232.8409 379.3648,232.5542 378.841,232.3745 378.2665,232.9191 378.2363,233.0363 378.1781,233.2626 378.1074,233.5386 378.0421,233.7928 377.3172,233.9416 376.2492,235.3524 375.9772,236.1787 375.9614,237.113 375.4027,237.1145 374.2401,237.6227 373.3688,238.3833 372.7363,237.8883 370.9547,238.1114 370.1355,237.8401 369.2829,238.091 367.8781,237.8024 366.0132,237.7985 365.3891,238.7126 365.1672,237.854 364.4048,236.7692 363.2232,236.7934 362.518,236.3924 362.2013,236.9378 362.1095,238.1969 361.2633,238.1447 360.4931,237.526 359.741,237.1333 359.259,237.4342 358.4872,237.503 357.2969,237.4816 356.1272,236.9884 355.1807,237.0865 353.2306,238.7839 351.7052,238.4235 350.33,239.088 349.2711,239.8569 347.6377,240.4137 347.3487,241.1639 346.0284,241.7004 345.6018,241.2275 344.897,241.4125 343.7723,241.23 343.55,241.9129 343.0388,241.961 342.6855,240.8737 341.4477,240.8116 340.8268,240.0884 339.7596,239.9492 339.7125,239.2305 338.8935,238.9941 338.6543,238.7124 335.6351,238.7315 333.4418,239.5419 332.8012,238.8993 331.7252,238.871 330.8232,237.6182 329.7144,238.0126 328.3969,238.8222 327.6541,238.3184 327.0868,238.5777 326.3622,238.4591 325.693,238.0975 324.2832,238.6649 323.4187,239.9873 323.2978,240.4137 322.3951,240.6719 322.1354,240.9883 321.4661,242.0222 321.576,242.5039 321.0313,242.727 320.971,243.493 320.5372,244.5931 319.8333,244.4049 319.1352,245.202 318.4924,245.3585 318.5417,245.9964 319.0977,246.4568 319.0689,247.1379 317.8239,247.099 317.6841,247.7898 316.5623,248.2289 315.447,247.3044 314.9931,248.543 313.712,248.1064 313.9883,246.4792 313.6164,246.158 310.9435,246.3829 309.4096,245.8568 308.9736,246.4976 308.6469,245.8119 308.1924,245.6927 307.7283,245.9936 307.3075,246.6143 306.8355,246.5883 306.8071,246.1251 306.3799,245.7725 305.7278,245.5855 304.8576,245.6554 304.6245,246.0339 305.4515,246.9577 305.1804,247.471 304.747,247.6589 304.9865,248.01 303.8437,248.6617 303.2767,248.5214 302.9727,249.1331 302.5543,248.9552 302.5629,248.3632 302.9344,247.3582 302.8695,246.7728 302.4302,246.1527 301.4667,245.9038 301.2703,246.6535 300.3051,246.9526 300.3781,246.4879 298.5627,247.3796 298.1036,246.7674 297.6572,246.5657 295.7265,246.2053 294.8998,246.6599 294.6202,247.1277 294.1172,247.1403 293.3659,247.4853 293.2522,248.227 293.0495,248.541 292.7916,249.1078 293.3846,250.0107 293.0325,250.519 292.5857,250.7128 292.3145,251.2258 291.869,251.2457 291.4698,253.3619 292.8366,253.6825 292.5148,255.2066 291.1485,254.5941 241.9132,217.1827" stroke="black" /><polygon fill="none" points="193.6875,325.1879 193.2298,324.8188 192.6553,324.5016 192.4314,323.9041 192.5246,322.4809 192.6634,321.6501 192.9354,321.1258 193.1019,320.5358 192.1624,318.5634 191.8851,317.7766 191.604,316.7058 191.5767,316.1055 191.2525,315.3502 191.16,314.7989 191.0924,313.7468 191.4576,312.2465 191.0837,311.4173 191.0754,311.0035 191.0651,310.5012 191.1404,309.9779 190.5548,309.7136 190.2872,309.7164 190.1741,309.3741 190.5465,308.2788 189.6991,307.9388 189.1345,307.8047 188.5117,307.7708 187.6748,307.6115 186.9978,307.2158 186.3208,306.6797 185.6123,306.2895 185.2717,305.4852 185.1577,303.6489 185.028,302.6282 184.88,301.9699 184.4046,300.8978 184.7961,300.0411 185.4546,299.1692 185.6513,298.4813 185.7072,297.6451 185.5187,296.881 185.2687,296.2237 185.1856,295.537 185.3076,294.6668 185.214,293.9022 184.9912,293.3857 184.9616,293.1155 185.0739,292.4551 185.5396,290.7683 185.5698,290.4758 185.6221,289.9718 185.9036,288.9883 186.0949,288.0027 186.2164,286.8927 186.4116,286.012 187.0456,284.6776 187.5347,283.9334 188.5679,283.0685 189.3766,282.564 190.2216,281.8291 190.8519,281.0917 191.4012,280.0549 192.219,278.2625 192.5231,277.0517 192.6089,276.0454 192.4784,275.1832 192.4777,274.1478 192.636,273.1496 192.9237,272.0248 193.8268,270.1541 194.4771,268.6158 194.9593,267.6825 196.0004,266.1973 196.4999,265.6804 197.1903,265.1245 198.0043,264.7064 199.9953,263.8286 200.5145,263.4608 201.0635,262.6522 201.489,261.1588 201.7298,260.6918 202.184,259.1917 202.2794,258.1001 202.2462,256.9581 201.7597,255.9597 201.5641,255.0595 201.5617,254.7041 201.4816,254.3617 201.2901,254.3599 199.297,254.341 175.9412,254.5323 176.0665,253.0728 176.4227,252.5059 176.5268,251.7331 176.7585,250.8494 176.7841,250.5623 176.9639,250.3556 177.0899,249.7304 177.7083,248.7496 124.0632,248.7631 124.1802,249.2863 124.4331,249.6048 125.017,249.9423 125.2589,250.1453 125.7778,250.9333 126.0945,251.1509 126.3353,251.2027 126.5881,251.4006 126.735,251.6326 126.8258,252.4432 127.1681,253.2155 127.4046,253.4631 98.7185,253.5319 87.3574,253.1876 87.8306,252.6934 87.6997,252.2065 87.1063,252.233 86.7445,251.9488 86.4541,251.5048 86.6141,250.5909 86.8925,250.2953 87.0848,249.1519 87.1779,248.5988 86.7344,248.4412 85.8061,248.2697 85.4568,248.3521 85.0536,248.2275 84.7563,248.3759 84.2178,248.5749 83.9883,248.3579 83.9028,248.2715 83.8385,248.1274 83.8202,247.9943 83.8276,247.9242 83.9092,247.8592 84.0148,247.7465 84.058,247.5919 84.0622,247.4811 84.0131,247.3708 84.0385,247.2839 83.9996,247.1994 83.8685,247.1871 83.7211,247.2216 83.6298,247.1844 83.4817,247.1296 83.3174,247.0375 83.1701,246.9614 83.1507,246.8598 83.2983,246.8116 83.5203,246.8066 83.6195,246.6626 83.6576,246.5465 83.6157,246.3511 83.5875,246.2442 83.5448,246.2151 83.4705,246.2328 83.4169,246.3501 83.3312,246.5137 83.2599,246.573 83.2094,246.5265 83.077,246.3056 82.9883,246.1257 83.1343,245.8568 83.0115,245.6713 82.8411,245.5989 82.6494,245.5031 82.6352,245.3078 82.8047,245.3085 83.018,245.3361 83.1968,245.1792 83.3106,245.1089 83.4705,245.1376 83.5281,245.1254 83.3364,244.6962 83.2127,244.5661 83.1264,244.4899 83.1245,244.4035 83.1712,244.3668 83.2879,244.4483 83.5061,244.538 83.6953,244.555 83.7401,244.6163 83.8202,244.6073 83.8408,244.5202 83.7898,244.3703 83.8556,244.2746 83.9315,244.1915 84.0033,244.083 83.92,243.9518 83.9643,243.5337 83.4724,243.491 83.1131,243.5349 83.0913,243.1723 83.1705,242.9418 83.0543,242.5558 82.7943,242.0089 82.8695,241.2969 82.9632,240.895 83.0581,240.7553 83.2077,240.6612 83.3599,240.7869 83.4476,240.844 83.5276,240.8306 83.7676,240.5051 84.066,240.4013 84.1743,240.2797 84.1391,240.0882 84.096,239.9424 84.2583,239.8472 84.3476,239.7888 84.3857,239.6429 84.3526,239.5464 84.2679,239.3964 84.0587,239.3328 83.8988,239.1033 83.7975,238.8281 83.7147,238.5361 83.41,238.5074 83.1735,238.4946 83.0746,238.4773 83.0089,238.5396 82.9543,238.5905 82.5875,238.2845 82.2008,238.2415 80.9074,238.7475 79.8496,239.2747 79.6066,238.3863 78.651,238.2203 77.9181,237.6616 77.4532,236.798 77.8814,236.1728 76.9048,235.4158 76.9049,234.762 76.7025,234.3069 77.0613,233.2789 76.0775,231.4591 76.0714,230.448 74.5737,230.01 74.2388,229.0031 73.57,228.5262 74.08,227.0643 75.0111,226.4615 76.1995,225.8598 77.3045,225.1568 78.1962,224.7605 79.118,224.2474 78.8371,223.2828 79.3963,222.4759 79.564,221.3976 79.9056,220.555 80.3969,219.9521 79.4387,217.7087 79.3207,216.6733 80.3877,215.4327 81.4491,213.9845 82.2191,212.7391 82.5443,211.6978 98.7263,211.7316 119.8584,211.4835 148.1865,211.1438 149.4399,209.1166 149.3097,207.9794 148.9484,207.0249 146.77,204.4642 145.3759,202.1917 143.8092,201.4767 142.6667,199.5664 142.2773,198.1491 142.3349,196.5544 143.9207,194.7792 144.9425,192.8845 144.8771,191.4274 143.9139,190.8604 143.7642,190.0108 142.4528,189.0264 142.1489,186.4919 141.4698,184.1952 142.0354,183.8761 142.695,183.7937 143.2607,183.4839 143.0184,181.4979 142.5195,180.17 142.5661,178.5103 142.2756,176.9689 141.9329,175.9912 141.5839,175.494 141.5244,175.4092 141.513,175.393 141.4429,175.2931 141.5351,175.2798 141.9787,175.2531 142.5266,174.8872 142.6369,174.7813 142.9613,174.4702 143.3428,174.0088 143.4714,173.9758 143.5158,173.9644 143.8086,174.2173 144.0019,174.3968 144.0737,174.5753 144.1024,174.8833 144.174,175.0487 144.4279,175.2317 144.6103,175.4416 144.7798,175.5656 145.0435,175.7983 145.1065,175.8539 145.2927,176.1221 145.3567,176.3287 145.3764,176.6092 145.4005,176.7674 145.5032,176.8876 145.5259,176.8894 145.5485,176.8912 145.5937,176.8949 145.7889,176.8673 146.1125,176.79 146.2091,176.654 146.2985,176.5002 146.4462,176.289 146.5715,176.1948 146.8241,176.1032 146.935,176.0629 147.0599,176.0437 147.1825,175.9373 147.2429,175.6622 147.2346,175.5037 147.1992,174.7741 147.057,174.1651 146.968,174.012 146.8582,173.8759 146.8229,173.7852 146.8569,173.7142 146.8794,173.6672 147.0214,173.5767 147.1319,173.5273 147.2238,173.4863 147.2502,173.4702 147.3366,173.4177 147.4073,173.3758 147.7825,173.4317 148.4919,173.5374 148.5614,173.5478 149.1514,173.736 149.958,173.7445 150.5291,173.3729 151.0467,174.6926 153.1197,174.3337 154.3254,175.738 155.4204,176.3049 155.9604,174.6453 156.7141,173.8318 157.371,174.394 158.0142,174.0836 158.7767,174.6877 160.0122,174.7341 160.6795,174.5341 160.7936,173.8003 161.7755,173.7846 162.307,173.003 162.6232,172.4338 163.1795,172.0033 163.4483,171.5842 164.4779,172.7596 165.2144,173.1017 165.8367,172.7661 166.4112,172.0029 166.9966,171.5644 167.7032,171.5096 167.9826,171.2615 168.9112,171.753 169.95,172.0038 169.6263,172.914 169.1058,172.8717 169.1993,173.4078 170.1382,173.5155 171.7553,172.8681 172.1722,174.2948 172.9223,173.8564 173.3152,173.6267 173.9183,173.8757 174.4646,174.3454 176.0826,174.5184 176.5543,174.9884 177.3176,175.1186 177.197,175.8838 177.696,176.7479 179.1274,176.6282 179.8143,176.5707 181.6252,177.5065 181.481,178.0543 181.472,179.9156 182.1128,179.2319 182.641,179.5477 182.6313,180.4958 183.5346,179.987 183.8475,180.3281 184.7148,180.5062 185.3261,180.6318 185.7426,181.3897 186.9804,181.1979 187.7242,181.3813 188.42,180.6662 189.8972,180.8107 190.5104,180.267 190.908,179.9143 191.121,179.6449 192.1177,178.0774 192.479,177.8582 193.3167,178.6624 193.4732,179.3746 194.1527,179.427 194.9782,179.9876 195.2277,180.5549 195.0621,181.3921 195.3319,181.5974 200.755,185.7407 204.0293,188.2422 206.4211,190.0696 213.0062,195.1006 213.3716,195.3798 222.1517,202.0878 229.2522,207.5127 234.4486,211.4817 237.4377,213.7646 241.099,216.5609 241.9132,217.1827 291.1485,254.5941 292.5148,255.2066 292.8366,253.6825 291.4698,253.3619 291.869,251.2457 292.3145,251.2258 292.5857,250.7128 293.0325,250.519 293.3846,250.0107 292.7916,249.1078 293.0495,248.541 293.2522,248.227 293.3659,247.4853 294.1172,247.1403 294.6202,247.1277 294.8998,246.6599 295.7265,246.2053 297.6572,246.5657 298.1036,246.7674 298.5627,247.3796 300.3781,246.4879 300.3051,246.9526 301.2703,246.6535 301.4667,245.9038 302.4302,246.1527 302.8695,246.7728 302.9344,247.3582 302.5629,248.3632 302.5543,248.9552 302.9727,249.1331 303.2767,248.5214 303.8437,248.6617 304.9865,248.01 304.747,247.6589 305.1804,247.471 305.4515,246.9577 304.6245,246.0339 304.8576,245.6554 305.7278,245.5855 306.3799,245.7725 306.8071,246.1251 306.8355,246.5883 307.3075,246.6143 307.7283,245.9936 308.1924,245.6927 308.6469,245.8119 308.9736,246.4976 309.4096,245.8568 310.9435,246.3829 313.6164,246.158 313.9883,246.4792 313.712,248.1064 314.9931,248.543 315.447,247.3044 316.5623,248.2289 317.6841,247.7898 317.8239,247.099 319.0689,247.1379 319.0977,246.4568 318.5417,245.9964 318.4924,245.3585 319.1352,245.202 319.8333,244.4049 320.5372,244.5931 320.971,243.493 321.0313,242.727 321.576,242.5039 321.4661,242.0222 322.1354,240.9883 322.3951,240.6719 323.2978,240.4137 323.4187,239.9873 324.2832,238.6649 325.693,238.0975 326.3622,238.4591 327.0868,238.5777 327.6541,238.3184 328.3969,238.8222 329.7144,238.0126 330.8232,237.6182 331.7252,238.871 332.8012,238.8993 333.4418,239.5419 335.6351,238.7315 338.6543,238.7124 338.8935,238.9941 339.7125,239.2305 339.7596,239.9492 340.8268,240.0884 341.4477,240.8116 342.6855,240.8737 343.0388,241.961 343.55,241.9129 343.7723,241.23 344.897,241.4125 345.6018,241.2275 346.0284,241.7004 347.3487,241.1639 347.6377,240.4137 349.2711,239.8569 350.33,239.088 351.7052,238.4235 353.2306,238.7839 355.1807,237.0865 356.1272,236.9884 357.2969,237.4816 358.4872,237.503 359.259,237.4342 359.741,237.1333 360.4931,237.526 361.2633,238.1447 362.1095,238.1969 362.2013,236.9378 362.518,236.3924 363.2232,236.7934 364.4048,236.7692 365.1672,237.854 365.3891,238.7126 366.0132,237.7985 367.8781,237.8024 369.2829,238.091 370.1355,237.8401 370.9547,238.1114 372.7363,237.8883 373.3688,238.3833 374.2401,237.6227 375.4027,237.1145 375.9614,237.113 375.9772,236.1787 376.2492,235.3524 377.3172,233.9416 378.0421,233.7928 378.1074,233.5386 378.1781,233.2626 378.2363,233.0363 378.2665,232.9191 378.841,232.3745 379.3648,232.5542 380.2032,232.8409 381.3387,230.1543 381.3774,229.6781 380.865,228.9086 380.9304,228.3551 381.9265,228.3089 382.3692,228.0899 382.6779,226.6143 383.1978,226.9555 383.7366,226.604 383.8475,225.9576 384.3977,225.3997 385.2595,225.5279 386.3382,225.4652 386.8561,223.48 386.2073,223.0829 386.5677,221.9909 387.4063,221.3128 388.2328,220.887 389.0681,220.9809 390.1183,220.4347 391.0758,219.636 392.7377,218.7522 403.076,212.2443 403.077,211.0303 402.4416,208.9438 402.0279,206.4836 401.4794,205.29 401.8256,204.4721 402.3947,201.6451 404.5243,200.8847 407.5358,200.1442 408.9859,197.0704 409.6827,195.6852 410.4915,195.5928 411.1875,194.2917 411.5392,192.8903 411.9488,192.1633 416.5472,190.3999 418.1264,189.0683 419.0382,188.6557 419.4078,187.1404 420.2269,185.8858 421.4334,183.3872 422.4085,182.7181 422.6707,181.8459 422.15,181.6993 421.9916,180.2136 422.512,179.4472 422.2796,178.7571 423.5878,177.3529 424.6874,175.8673 425.7523,171.8889 425.8457,170.0242 426.5326,169.3155 426.6551,168.5543 427.0848,168.2786 427.1934,167.4278 429.4699,164.8466 431.2248,164.3524 431.6769,164.4673 433.1119,164.833 436.2711,166.123 437.3289,165.4546 437.9488,164.5606 438.0801,163.8368 438.6934,162.8673 439.699,162.3338 440.1988,161.7918 440.7209,160.694 442.0946,159.7471 445.6144,160.1203 445.6623,160.6822 444.6937,163.5045 443.5428,164.1196 443.4678,164.8813 443.7205,165.693 442.5966,166.2125 442.8159,166.4873 443.5802,167.4448 445.6608,167.7368 446.0736,168.4026 448.1944,169.0727 448.2312,169.6386 448.2532,169.9759 449.7769,169.8442 450.0455,170.4217 450.5767,170.3874 451.1515,171.0376 452.8058,170.5209 453.2509,170.6482 453.7445,170.5151 453.9287,171.9952 454.0142,172.6821 453.26,174.4148 452.8709,174.9382 452.2549,174.9364 451.3576,175.6777 451.4157,175.9356 451.4854,176.2453 452.1469,176.1612 452.5652,176.251 452.5738,176.6543 452.0913,176.8504 452.2227,177.3781 452.4602,177.6106 452.667,178.3455 453.1957,178.4347 451.5612,182.1007 452.0815,182.64 452.8319,182.3951 452.6932,182.8422 452.8034,183.1957 453.2088,184.4962 453.021,185.1572 452.3453,187.5354 451.1328,189.6682 450.5011,191.9106 449.5445,192.8606 450.4175,193.2829 451.1313,192.7667 452.0987,194.1914 452.9831,194.1956 454.1246,193.5665 454.7737,193.7603 454.6916,194.6782 454.1804,195.5596 453.8643,195.5683 453.4287,196.3579 452.8225,196.5792 453.3072,197.5097 453.3337,199.5724 453.7336,199.9206 453.9378,200.7797 454.5715,201.4967 454.7855,202.4747 454.813,203.1341 454.4048,205.1477 453.6677,205.5882 453.4931,206.3748 454.1151,206.7917 454.3386,208.9667 453.5137,209.4774 451.9593,209.9906 451.6356,210.4313 452.2404,210.7026 452.0348,211.6114 451.497,211.6509 451.1691,212.8071 450.349,212.9491 449.498,213.3624 448.626,214.449 448.4856,214.8426 448.6246,215.5548 449.2378,216.245 448.3933,217.0804 448.412,217.8616 449.2472,218.6106 448.8114,219.4244 449.0343,220.28 448.3272,222.0411 448.6716,222.5475 448.523,223.3974 447.9566,223.0966 447.9,222.4822 447.5003,222.521 447.5097,223.3325 447.2586,224.2114 446.9913,224.4783 446.3118,224.6916 446.1341,225.9896 446.4238,226.4737 448.0477,227.0933 450.5305,227.7198 450.8263,227.9161 451.3286,229.1716 451.2819,229.8465 450.9181,230.6226 450.2777,231.9888 450.8004,232.641 450.7341,233.4895 450.2609,234.432 450.2613,235.2038 450.0568,235.8341 447.4434,237.5159 446.8969,238.466 446.9902,239.3211 447.6675,239.6158 448.2817,240.2517 449.0629,240.1757 449.6475,239.7106 449.945,238.7918 450.3074,238.3821 451.0852,238.0388 451.6646,237.9706 452.0805,238.5303 452.2453,239.2457 453.5937,239.9614 452.4144,241.7385 452.7966,242.4567 454.6083,242.5302 455.9284,242.2381 457.0126,242.7372 458.3308,243.7423 457.9618,244.517 456.894,245.0432 453.261,244.6404 452.6179,246.1677 452.6003,247.2139 452.9559,247.874 454.2163,247.7643 455.2572,247.8684 456.0674,248.274 456.2898,248.7241 454.9703,250.4403 454.4681,250.5256 453.9462,249.7444 452.0724,249.0205 451.609,249.4312 451.4325,250.7218 449.7658,253.1322 449.1396,254.425 448.413,254.3666 447.7693,254.0729 447.529,254.5063 447.528,255.059 447.736,255.5509 447.2714,257.2004 448.1327,257.5468 448.3169,258.464 448.2325,259.5631 448.4315,260.2526 448.2798,260.7556 447.2214,261.8634 446.7496,261.8407 446.1555,262.1913 446.0252,262.7228 446.4506,264.9054 446.2089,265.3703 446.1353,265.512 445.6966,265.619 445.6781,266.1596 446.1993,266.4482 446.6825,267.0449 447.5388,267.4378 448.5429,267.5503 449.3399,267.9887 449.9532,268.6911 449.8141,269.373 450.0637,269.9743 450.333,270.2689 451.1542,270.2529 451.635,271.4251 451.7754,272.519 452.4068,272.6745 452.6482,272.1963 453.0642,272.142 453.1483,272.4691 452.8521,272.796 453.4205,272.7728 453.6968,273.69 454.1419,273.4142 454.4668,273.8246 454.4572,274.2473 454.0784,274.3025 453.8924,274.6439 454.2088,274.8945 454.5151,274.9231 454.8318,274.5301 455.3518,274.7159 455.0923,275.1792 455.7123,275.7038 456.0735,275.6038 456.1604,274.9207 456.4372,274.6474 456.8178,274.6229 457.0524,274.8566 456.8727,275.1769 456.8463,276.0426 457.6362,275.7501 458.0165,275.9994 455.445,279.2365 455.4814,280.0569 456.2172,280.6849 458.0261,281.5155 458.5377,280.8778 458.7513,280.2751 459.5873,280.5479 460.1896,281.5041 460.5076,281.2047 460.5619,282.1617 461.2331,282.2219 461.0457,282.5841 461.4726,282.9788 462.1592,283.1445 462.3909,283.4476 462.8118,283.9978 463.1079,284.0826 463.2002,284.5746 463.7386,284.5356 464.1037,285.4759 464.5302,285.0794 465.3453,285.2751 465.6362,285.9643 465.3107,286.3594 466.2022,286.5842 466.7966,287.1449 466.4892,287.5561 465.7729,287.1937 465.4575,287.5804 465.5245,288.2312 465.7821,288.6488 468.1444,289.5074 468.5901,290.0077 468.9796,291.0394 467.9006,291.414 468.198,292.073 468.7378,292.503 469.1814,292.4254 469.7979,291.2585 470.3896,290.505 470.8655,290.2391 474.0692,292.8925 474.376,293.3238 473.8105,293.3623 473.8563,294.0306 473.446,293.5615 472.8905,294.1085 472.1854,294.3238 471.8225,294.1025 471.7925,294.5976 472.202,294.7991 471.8676,295.2092 471.6071,295.0443 471.3745,295.5381 471.6266,295.9168 471.655,296.3954 471.1517,296.5314 471.4675,296.9409 471.3118,297.2988 471.959,297.1534 472.8893,298.863 473.6993,299.1647 473.2241,299.4483 473.4541,300.1313 473.3265,300.5601 473.6325,300.9851 474.2917,300.8911 474.0875,301.3648 474.5805,301.6741 475.1664,302.3543 475.3778,303.0291 475.2583,303.9252 474.7934,303.9779 474.656,304.7597 474.7933,305.9649 475.3225,306.1845 475.8721,305.6587 476.234,306.2046 476.6685,306.3358 476.1398,307.3424 476.2427,308.0629 476.0665,308.5192 475.5545,308.5891 475.7671,309.0971 475.4991,309.5285 475.3716,310.2501 474.5348,310.7119 474.9143,311.6971 475.4919,311.4101 475.5728,312.1745 475.3418,312.4414 475.3132,312.7444 475.8527,313.4263 476.4953,313.1584 475.2846,315.665 475.2585,316.6507 475.7892,317.4833 477.7028,317.8357 478.287,318.3187 478.4835,319.3816 479.179,319.4477 479.2632,320.1831 479.9787,320.575 480.4873,320.2464 481.4188,321.254 482.4942,321.35 482.2648,323.1485 482.4856,323.9504 483.4882,324.2976 484.176,323.7783 484.4649,323.8236 484.6224,323.8482 484.4468,324.2651 483.3687,325.1911 482.021,326.0831 480.473,326.7 479.7273,327.3698 479.3937,327.4488 478.946,327.2737 478.8623,328.7842 478.5765,329.4205 477.564,329.6745 477.3574,330.584 477.7014,330.8349 477.3953,331.4413 474.9721,331.8645 474.2556,332.2908 473.4281,333.6217 472.2132,334.3668 471.7188,334.3616 471.2639,334.727 471.07,335.2637 471.4116,336.3284 471.7093,336.8326 472.1642,337.0678 471.997,337.5146 472.6016,339.8646 472.4512,340.2492 472.7914,340.7758 473.7174,341.199 474.3019,342.007 474.3749,343.3392 474.2912,343.7719 474.0224,343.982 473.7186,344.6172 473.6867,345.9547 474.9277,347.023 475.1581,347.3844 474.9804,347.6236 474.4027,347.9051 474.3307,348.2747 475.0528,349.0702 474.9237,349.3718 475.1551,349.5779 475.0185,350.5466 475.5635,350.8957 475.695,352.8709 475.4434,353.5052 475.454,353.8752 475.7129,354.0584 475.9156,354.6862 475.7885,355.2779 475.4175,355.6239 475.2868,355.9639 476.0939,357.093 476.7964,357.1258 477.8048,357.9811 478.0531,358.5759 478.3971,358.5116 478.9181,358.9596 479.5329,359.2171 479.4288,359.5658 480.05,360.4361 479.7698,360.5815 479.4657,361.1611 479.7164,361.707 479.056,361.6604 478.5101,362.9395 479.1236,364.0594 479.393,364.2041 479.6707,364.0246 480.2368,364.5395 480.4232,365.2042 480.7396,365.2583 481.1651,365.7411 481.8738,365.7067 482.8477,366.0237 483.2377,366.5012 483.4247,367.1698 483.7383,367.4193 483.8148,368.0833 484.1323,368.0947 484.651,368.5859 484.6802,368.9092 484.9573,369.1466 485.3358,370.0959 485.6258,370.2437 485.9129,370.0699 486.1816,370.2594 486.2534,370.6124 486.5083,370.8413 487.0928,370.8245 487.4097,371.352 488.0037,371.5339 488.4973,372.011 488.8495,372.5932 488.9466,373.5421 489.2561,374.4104 489.7028,375.038 489.6844,375.7113 489.8338,376.0367 490.1308,376.1829 490.1424,377.15 489.9904,377.4448 490.1689,377.7191 490.465,377.8013 490.3339,378.408 490.5685,378.6207 490.8909,378.6193 491.7218,380.0274 491.8014,380.4137 491.6181,381.9277 491.9141,382.1476 492.3776,383.2987 491.8671,383.7432 491.8875,384.3738 493.0958,385.0554 493.556,385.4783 493.875,386.0468 494.1435,386.2363 494.0875,386.9235 494.5269,387.1767 494.5345,387.5172 494.8537,387.4565 495.2311,388.2747 495.5932,388.2206 495.9188,388.3723 496.4177,389.3436 496.5051,389.949 496.1677,389.932 496.0131,390.2174 495.705,390.3938 496.0495,390.9007 495.7958,391.0903 495.399,391.1264 495.283,391.7193 495.604,391.9218 495.4734,392.2555 495.6476,392.9338 495.5633,393.2373 495.8164,393.4875 495.4814,394.5015 495.0553,394.9851 495.4584,396.0552 495.371,396.9678 495.6002,397.9675 496.459,399.0582 496.5496,399.3693 496.4589,400.7436 496.0938,401.608 496.7733,401.6271 496.9704,402.897 496.8395,403.6056 497.0349,403.9077 498.1395,404.7813 498.2485,405.0874 498.0378,405.7112 498.351,406.5965 498.2679,407.5203 498.4834,407.7778 498.4253,408.087 497.9079,408.4655 497.8487,408.8228 497.3951,409.3193 497.3875,409.6384 497.6498,409.8173 497.3226,410.3128 497.3952,410.622 497.7197,410.6772 497.5452,411.2953 497.7947,412.1665 497.5921,412.4237 497.6186,412.7337 497.461,413.0136 497.4787,413.7019 497.2216,413.9281 497.3034,414.2234 497.9061,414.346 497.8774,414.6493 497.6749,414.8756 497.6859,415.2161 498.297,415.2298 498.159,415.5134 498.7149,415.8986 499.1045,416.4375 499.2876,418.2672 499.177,418.5855 498.2229,418.8719 498.0082,419.0982 497.9903,419.7174 497.7482,419.9437 497.5453,420.6037 498.1004,422.0276 499.5139,422.6305 500.0,423.1452 499.9113,423.8497 499.5155,424.809 499.4878,425.5047 438.0625,425.8448 418.7035,425.992 411.473,426.097 411.2722,426.0971 384.6225,426.4822 383.1928,426.4892 382.9857,426.2138 382.2407,426.0675 382.0366,425.7832 381.3768,425.8445 380.8644,425.7877 379.5198,425.3977 378.0139,424.683 377.5021,424.5318 375.5875,423.7405 375.0669,423.0459 374.0171,421.1986 373.5072,420.1447 372.3466,418.1956 371.9837,417.5184 371.8534,417.0523 371.8348,416.9857 371.5003,416.3521 371.3235,415.7317 371.2152,415.5366 371.0647,415.2654 370.4404,414.1409 369.7368,412.6502 368.9363,411.3546 368.423,410.3881 368.1321,409.2475 367.2634,407.4801 366.7067,406.003 365.8337,404.6726 365.4734,403.978 364.8211,403.0406 363.7407,401.1476 363.6895,400.8505 363.4297,400.3061 362.3964,395.7776 362.2853,395.1019 362.3221,394.6188 362.141,394.6193 222.5705,394.9506 205.7154,394.9765 205.3637,394.4782 204.9468,394.095 204.7027,393.6742 204.9461,393.2185 205.0471,392.7709 205.2884,392.3602 205.6896,391.9563 206.2095,391.8404 206.6651,391.4592 206.5137,391.0222 206.059,390.81 205.7078,390.4945 205.7355,390.0273 205.5946,389.5644 205.8163,388.6267 205.494,388.2889 205.2604,387.8206 205.7545,387.6349 206.2353,387.5723 208.2355,387.7726 209.177,387.9625 209.7486,387.9205 210.1106,387.5942 210.3163,387.1553 210.6671,386.7855 210.2612,386.5776 210.5706,386.1905 211.04,385.9492 211.297,385.867 211.9855,385.6467 212.5049,385.7401 212.8313,385.3976 212.5243,385.0515 211.9954,384.9352 212.3447,384.5741 213.1492,383.9743 213.5944,383.7603 214.2372,383.0804 214.5044,382.616 214.5977,382.1174 214.5888,381.0606 214.6737,380.3144 214.8743,379.8009 215.2583,379.4868 215.6099,379.0603 215.3305,378.6239 214.9856,378.2936 214.8568,377.825 214.906,377.2845 215.4841,376.5246 215.7295,376.0044 216.092,375.5478 216.3075,375.0736 216.6384,374.6195 217.0868,374.193 217.5377,373.8683 217.8402,373.4828 218.1261,373.0066 218.3043,372.4318 218.2994,371.8448 218.2126,371.4032 217.9419,370.9403 217.7752,370.5089 217.685,369.9615 217.114,368.109 217.0787,367.4747 217.3574,366.4696 217.5959,365.891 217.8242,365.4655 218.4442,364.6528 218.5839,364.1475 218.6196,363.1549 218.4799,362.629 218.2272,362.2312 217.8216,361.3176 217.6202,361.012 217.2829,360.5006 216.4927,359.5977 216.826,356.8864 216.6775,355.7597 216.4682,354.7926 216.3818,353.928 216.1599,352.9585 216.0744,351.8778 216.1024,351.4109 216.2312,350.8198 216.0549,350.2988 215.5717,350.1214 215.0149,350.1129 213.474,349.945 212.4608,349.9312 211.9506,349.8455 211.5768,349.4404 211.3,347.9506 211.05,347.5066 210.6781,347.1901 210.137,346.9872 209.7299,346.5479 208.809,344.4654 208.5506,344.0146 208.2521,343.5834 207.8138,343.3057 207.4525,342.9144 207.2483,342.4923 206.9143,340.5115 206.6534,340.028 206.338,339.6682 205.7918,339.5195 205.2709,339.2481 202.5402,339.249 202.0272,338.8803 200.9304,338.759 200.1894,338.7614 199.798,338.5206 199.3512,337.7285 198.8422,337.0042 198.2562,336.6414 197.1052,336.8374 196.3334,336.7633 195.7299,336.5615 195.6922,336.1434 195.9816,335.881 196.4742,335.7342 196.7147,335.2514 196.3061,334.6644 196.102,334.1514 196.5382,333.3348 196.6026,332.8799 196.3623,332.5496 196.0474,331.1337 195.9723,329.8265 196.0649,329.3237 196.1,328.4548 195.1162,327.1182 194.7444,326.4208 194.3748,325.8805 193.6875,325.1879" stroke="black" /><polygon fill="none" points="94.2179,0.1454 104.3316,0.2658 104.337,0.2659 122.6672,0.4814 123.4078,42.6951 123.4087,42.7686 112.9447,42.8185 98.6549,42.8849 98.6337,55.8301 98.5769,87.7847 98.5428,105.3755 98.5203,116.1854 80.9132,116.1885 74.7637,116.1889 68.7963,116.1888 56.7061,116.1877 50.8478,116.1866 17.8915,116.174 17.6458,115.2326 17.8233,113.8941 17.2022,112.8377 18.1655,111.4268 18.0213,111.1178 18.9643,110.5571 19.6972,110.5398 20.7319,109.116 21.3338,108.6033 21.3342,107.0081 21.753,106.2275 23.0058,105.3368 23.7806,105.7544 24.2221,106.1903 25.2841,107.2395 25.9057,106.689 26.4998,106.5874 27.1959,105.4085 27.6514,104.1944 28.7286,104.5999 29.6375,103.3795 29.4367,102.0815 29.8617,100.9742 29.4815,99.8398 29.4244,98.8732 29.6499,97.6645 29.9556,96.9022 31.0981,96.3313 30.83,95.1648 31.6753,94.2421 33.6239,93.0839 34.6661,93.078 36.0036,92.3409 38.2142,92.3738 38.7526,92.1097 39.8675,90.9377 40.1361,89.7813 40.631,89.6716 41.5008,90.2363 41.9303,90.1006 42.8024,91.0848 43.3375,91.2166 43.4029,85.0267 43.2986,74.1568 43.0895,49.9515 43.0511,44.2519 46.0132,44.2304 54.6592,44.1674 54.7429,37.3121 54.7658,35.413 54.7869,26.5208 54.7838,14.083 54.7477,12.5138 54.8149,7.6198 54.7785,0.0668 82.1158,0.0 82.2362,0.0014 94.2179,0.1454" stroke="black" /><polygon fill="none" points="191.0754,311.0035 191.0837,311.4173 191.4576,312.2465 191.0924,313.7468 191.16,314.7989 191.2525,315.3502 191.5767,316.1055 191.604,316.7058 191.8851,317.7766 192.1624,318.5634 193.1019,320.5358 192.9354,321.1258 192.6634,321.6501 192.5246,322.4809 192.4314,323.9041 192.6553,324.5016 193.2298,324.8188 193.6875,325.1879 194.3748,325.8805 194.7444,326.4208 195.1162,327.1182 196.1,328.4548 196.0649,329.3237 195.9723,329.8265 196.0474,331.1337 196.3623,332.5496 196.6026,332.8799 196.5382,333.3348 196.102,334.1514 196.3061,334.6644 196.7147,335.2514 196.4742,335.7342 195.9816,335.881 195.6922,336.1434 195.7299,336.5615 196.3334,336.7633 197.1052,336.8374 198.2562,336.6414 198.8422,337.0042 199.3512,337.7285 199.798,338.5206 200.1894,338.7614 200.9304,338.759 202.0272,338.8803 202.5402,339.249 202.6135,339.3481 159.0158,339.2766 155.3106,339.2698 154.8836,339.2689 154.803,339.6803 154.4004,339.9912 153.971,340.1907 153.8242,340.5868 153.739,341.1535 153.2752,341.1624 152.988,340.7649 152.4947,340.8424 152.2532,341.2291 151.8377,341.6174 151.596,342.0099 151.1935,342.2487 150.2105,342.0188 149.198,342.197 149.1502,342.7116 149.5607,344.2198 149.1616,344.5454 148.9011,345.0994 148.8637,345.5548 148.7602,345.9611 148.5478,346.4494 147.8968,347.1228 147.4436,347.168 147.0702,347.4556 146.5122,347.5241 146.0569,347.4228 145.5178,347.6904 145.1474,348.1008 144.9049,348.5421 144.5167,349.9295 144.471,350.487 144.1324,350.9372 143.726,351.2173 143.1024,351.3126 141.0673,351.355 140.6804,351.6143 140.373,352.0241 140.0203,352.3383 139.5661,352.5433 139.1633,352.8772 138.7092,352.7453 138.2354,353.0029 138.1898,353.533 137.9459,354.0129 137.1755,354.8868 137.0103,355.9019 136.6556,356.2529 135.6615,356.3471 134.4572,356.328 133.4661,356.5257 132.9699,356.5337 132.6702,356.1511 132.607,355.6664 132.1399,355.5335 131.9745,355.9737 131.8827,357.7438 131.4068,358.6559 130.3447,359.987 130.0698,360.541 129.7072,361.0313 129.4855,361.5697 128.8533,362.531 128.6121,363.0292 128.3143,364.4665 128.3142,365.0365 127.9328,365.3721 127.8401,365.8436 127.8231,366.7936 127.5654,367.2542 126.8917,367.912 126.6318,367.9558 126.716,339.7623 126.5216,339.2358 126.5472,320.2723 126.5478,319.5523 126.9189,318.8987 127.1434,318.6979 127.3306,318.3451 127.4299,317.97 128.0638,317.4766 128.7422,316.6 129.0027,316.1598 129.1148,315.7757 129.1232,315.4579 129.2793,315.2523 129.3475,314.9028 129.8274,314.7503 129.9028,314.4616 130.1818,314.4688 130.8604,314.2579 131.3784,313.8457 132.3781,313.2256 132.9051,313.3815 133.3316,313.6447 133.9355,313.7777 134.5111,314.0801 135.2144,314.2908 135.9494,314.2559 136.8903,314.7796 137.8929,314.9542 138.3848,314.709 139.0057,313.2103 139.2939,312.6859 139.5651,311.5057 139.5442,310.5688 139.2119,310.0384 138.8217,309.5932 138.8227,309.2056 139.3681,308.47 139.6904,307.8993 139.7086,307.7252 139.8148,306.7202 140.0305,306.3507 140.8282,305.3483 141.6263,305.0213 141.9965,304.7401 142.4058,303.9278 142.7132,303.0959 142.9449,302.9423 144.052,302.5305 144.3289,302.2977 144.5148,302.0084 135.2532,301.9157 135.2332,295.8007 135.2132,289.7242 135.1932,283.7834 135.1521,271.6814 135.131,265.6982 135.0882,253.4915 127.4046,253.4631 127.1681,253.2155 126.8258,252.4432 126.735,251.6326 126.5881,251.4006 126.3353,251.2027 126.0945,251.1509 125.7778,250.9333 125.2589,250.1453 125.017,249.9423 124.4331,249.6048 124.1802,249.2863 124.0632,248.7631 177.7083,248.7496 177.0899,249.7304 176.9639,250.3556 176.7841,250.5623 176.7585,250.8494 176.5268,251.7331 176.4227,252.5059 176.0665,253.0728 175.9412,254.5323 199.297,254.341 201.2901,254.3599 201.4816,254.3617 201.5617,254.7041 201.5641,255.0595 201.7597,255.9597 202.2462,256.9581 202.2794,258.1001 202.184,259.1917 201.7298,260.6918 201.489,261.1588 201.0635,262.6522 200.5145,263.4608 199.9953,263.8286 198.0043,264.7064 197.1903,265.1245 196.4999,265.6804 196.0004,266.1973 194.9593,267.6825 194.4771,268.6158 193.8268,270.1541 192.9237,272.0248 192.636,273.1496 192.4777,274.1478 192.4784,275.1832 192.6089,276.0454 192.5231,277.0517 192.219,278.2625 191.4012,280.0549 190.8519,281.0917 190.2216,281.8291 189.3766,282.564 188.5679,283.0685 187.5347,283.9334 187.0456,284.6776 186.4116,286.012 186.2164,286.8927 186.0949,288.0027 185.9036,288.9883 185.6221,289.9718 185.5698,290.4758 185.5396,290.7683 185.0739,292.4551 184.9616,293.1155 184.9912,293.3857 185.214,293.9022 185.3076,294.6668 185.1856,295.537 185.2687,296.2237 185.5187,296.881 185.7072,297.6451 185.6513,298.4813 185.4546,299.1692 184.7961,300.0411 184.4046,300.8978 184.88,301.9699 185.028,302.6282 185.1577,303.6489 185.2717,305.4852 185.6123,306.2895 186.3208,306.6797 186.9978,307.2158 187.6748,307.6115 188.5117,307.7708 189.1345,307.8047 189.6991,307.9388 190.5465,308.2788 190.1741,309.3741 190.2872,309.7164 190.5548,309.7136 191.1404,309.9779 191.0651,310.5012 191.0754,311.0035" stroke="black" /><polygon fill="none" points="88.5513,334.2568 88.5017,323.4552 88.9212,315.1513 88.8302,307.7309 88.8293,307.6631 88.7398,300.4078 88.6752,299.0018 88.6606,290.9782 88.1554,290.9811 77.4205,291.0436 78.2137,288.5193 79.1439,289.1914 79.7082,289.2127 80.9631,287.5687 81.0888,286.0167 81.1408,285.381 81.9037,283.1347 83.5648,281.2039 84.347,280.7692 85.1084,279.5419 85.3873,278.2344 85.5259,277.8697 86.1752,277.3679 86.2608,275.7173 85.6557,275.1585 86.3709,273.6 86.8261,274.1275 86.7601,272.6079 87.9788,270.9513 87.7367,270.0302 86.4571,269.0305 86.1574,268.2941 87.5115,268.27 88.4434,267.7659 88.7043,268.1144 89.2421,267.7095 90.4578,267.7501 90.4,266.8446 90.3655,266.3017 89.7723,265.3983 89.308,264.9003 89.7712,263.2178 89.4179,262.4434 90.1233,261.2412 90.8664,261.209 91.6114,260.1287 91.5078,259.3254 91.7702,258.5848 91.6116,258.2205 90.9133,258.2688 90.3666,257.2914 88.8906,256.5866 85.9897,256.7029 85.3754,256.057 85.6751,254.8646 85.6599,254.8135 85.2388,254.8018 85.3457,254.472 85.548,254.4362 85.5261,254.3631 85.9709,254.0361 86.3051,254.2839 86.7411,253.9267 87.18,254.1541 87.3574,253.1876 98.7185,253.5319 127.4046,253.4631 135.0882,253.4915 135.131,265.6982 135.1521,271.6814 135.1932,283.7834 135.2132,289.7242 135.2332,295.8007 135.2532,301.9157 144.5148,302.0084 144.3289,302.2977 144.052,302.5305 142.9449,302.9423 142.7132,303.0959 142.4058,303.9278 141.9965,304.7401 141.6263,305.0213 140.8282,305.3483 140.0305,306.3507 139.8148,306.7202 139.7086,307.7252 139.6904,307.8993 139.3681,308.47 138.8227,309.2056 138.8217,309.5932 139.2119,310.0384 139.5442,310.5688 139.5651,311.5057 139.2939,312.6859 139.0057,313.2103 138.3848,314.709 137.8929,314.9542 136.8903,314.7796 135.9494,314.2559 135.2144,314.2908 134.5111,314.0801 133.9355,313.7777 133.3316,313.6447 132.9051,313.3815 132.3781,313.2256 131.3784,313.8457 130.8604,314.2579 130.1818,314.4688 129.9028,314.4616 129.8274,314.7503 129.3475,314.9028 129.2793,315.2523 129.1232,315.4579 129.1148,315.7757 129.0027,316.1598 128.7422,316.6 128.0638,317.4766 127.4299,317.97 127.3306,318.3451 127.1434,318.6979 126.9189,318.8987 126.5478,319.5523 126.5472,320.2723 126.5216,339.2358 126.716,339.7623 126.6318,367.9558 126.382,367.9981 125.4349,367.898 124.9814,367.7633 124.3772,367.708 123.8937,367.7555 123.6793,368.1635 123.8096,368.6506 123.5861,369.1627 123.1046,369.2853 122.5351,369.1982 122.1086,368.8536 121.5738,368.7323 120.6295,368.733 120.1015,368.6443 119.9449,368.2115 120.1857,367.6959 120.1583,367.2419 119.8965,366.8329 120.2376,366.446 120.4435,366.0467 120.147,365.6549 119.7932,365.3518 119.628,364.7927 119.6469,364.3121 119.3372,363.8647 118.9869,363.6226 118.5234,363.7153 118.2623,364.1556 118.2153,364.74 118.1139,365.193 117.7603,365.5346 117.26,365.7346 116.8785,365.4182 116.3942,365.6927 115.5784,365.1733 114.973,365.0979 114.5464,365.2866 114.1833,365.7572 113.7194,365.7302 113.4415,365.3601 112.892,366.1885 112.56,366.5594 112.0931,366.6619 111.6847,366.42 110.7029,366.3876 110.1793,366.1847 109.7332,366.1269 109.1202,366.2581 108.1736,366.6025 107.8582,367.0143 108.0529,367.5142 108.138,368.0114 108.0544,368.4651 98.6066,368.4977 96.1242,368.5842 88.7201,368.8414 88.4343,348.2459 88.5737,339.1908 88.5513,334.2568" stroke="black" /></svg>