<?xml version="1.0" encoding="utf-8" ?>
<svg baseProfile="tiny" height="500" version="1.2" width="480.0452" xmlns="http://www.w3.org/2000/svg" xmlns:ev="http://www.w3.org/2001/xml-events" xmlns:xlink="http://www.w3.org/1999/xlink"><defs /><polygon fill="none" points="223.0973,368.0597 223.0976,368.9628 223.2065,372.0017 223.2232,372.5113 223.2654,373.7996 223.2978,375.5706 223.2489,375.5951 219.5143,377.4646 219.4708,377.4901 219.4319,377.5129 216.6865,378.1435 213.9141,379.7447 213.9159,380.7415 213.8728,380.7667 213.8221,380.7964 211.1934,382.3367 211.1402,382.3679 211.1002,382.3914 211.0474,379.2867 211.0145,377.8918 210.9325,374.4063 210.8469,371.1864 210.8324,370.6387 210.8133,369.924 210.8004,369.4374 210.757,369.5166 210.5677,369.8613 210.412,369.9461 210.2858,370.0792 210.1665,370.2478 209.9742,370.4893 209.8066,370.5436 209.7465,370.6885 209.7455,370.7014 209.7406,370.7669 209.7347,370.8452 209.711,371.1351 209.6686,371.2672 209.4714,371.3461 209.3748,371.4309 209.2378,371.5748 209.082,371.5876 208.9144,371.6596 208.7222,371.8351 207.5867,372.8199 206.9643,371.8914 206.6279,371.981 206.6308,373.1949 206.362,373.1887 205.6354,373.2518 203.8824,373.2538 203.9505,375.3764 203.0543,375.3764 203.1056,378.4553 202.2695,378.897 201.3842,379.3929 199.7533,380.3572 199.3718,380.5975 198.5942,380.9841 198.573,380.9947 197.3233,381.7772 196.7121,373.9932 195.9339,374.928 194.5507,376.5893 194.1345,377.0893 193.0506,378.375 192.6211,378.835 191.9928,379.299 191.7404,379.4772 191.641,379.3821 191.6258,379.2794 191.6168,379.2186 191.6162,378.8903 191.6143,377.8678 191.613,377.1877 191.6401,374.8498 191.6634,371.3911 191.269,371.2593 191.7748,369.744 191.4485,369.6158 190.6704,369.3845 191.4073,366.3724 191.8694,364.8727 191.9069,364.2812 191.695,364.2359 191.2986,364.158 191.2118,364.0683 191.2424,363.7291 190.1431,363.3594 190.0041,363.2864 189.4432,362.7807 188.9897,362.4662 188.1221,362.1734 187.7963,362.0145 187.4142,361.6518 186.3273,359.9785 186.6787,359.4178 187.2588,358.3642 187.4349,358.1638 187.7238,357.7596 188.1319,356.9254 188.3439,356.5233 188.4307,356.3586 188.6318,356.1122 188.6682,356.0717 189.3568,355.3061 190.8431,353.9274 191.0442,353.7165 191.0787,353.5814 191.404,353.0919 191.7097,352.632 193.4637,354.8382 194.1705,354.0526 194.1888,354.029 194.8015,353.2412 195.4584,352.3967 196.4998,350.893 196.9478,350.246 197.0885,350.0692 197.1905,349.9397 197.3369,349.7541 197.5048,349.5935 197.6309,349.5156 197.8142,349.4762 197.8513,349.4675 197.8883,349.4588 198.2471,349.3697 198.5803,349.2958 198.9639,349.2395 199.2311,349.2006 199.387,349.0532 199.392,348.902 199.5538,348.1022 199.789,347.0347 200.139,344.9539 199.8056,344.6933 199.1029,344.1445 199.074,344.1045 198.8584,343.8063 198.8257,343.7519 198.7931,343.6974 198.6237,343.4149 198.4591,343.0748 196.7146,340.2849 196.3532,339.707 196.2576,339.5315 196.2506,339.5169 196.1937,339.398 196.1927,339.3959 196.1602,339.3278 196.109,339.2209 196.0253,339.0459 195.9739,338.941 195.8335,338.6542 195.7225,338.4277 195.6654,338.3109 195.4927,337.9607 195.3277,337.626 195.2547,337.478 195.2359,337.4399 194.4091,336.0178 193.729,334.7742 193.5598,334.4647 192.4533,332.4994 192.1091,331.8698 190.8086,329.4045 190.0887,327.9963 189.7497,327.333 189.4565,326.7594 189.4353,326.718 189.2983,326.4407 189.1849,326.2112 189.084,326.0494 188.2162,324.657 188.0174,324.3379 187.895,324.1432 187.8623,324.0912 187.7075,323.8663 187.4705,323.5219 187.2243,323.1642 186.9124,322.7164 186.7873,322.5369 186.7677,322.5099 186.3467,321.9306 185.9555,321.4654 185.79,321.2787 185.3493,320.7816 185.2232,320.6638 185.1479,320.5934 184.9464,320.4051 184.8332,320.3116 184.6127,320.1293 184.4576,320.0168 184.2496,319.9393 184.0047,319.9393 183.7597,319.9393 181.7401,320.0697 181.7621,320.0272 181.7701,320.0117 181.7938,319.9659 182.2788,319.0276 182.4909,318.6175 183.1147,318.2968 185.1625,317.9725 186.1282,318.3285 186.7725,318.0101 187.3547,317.7223 187.3935,317.4826 187.5662,317.3522 187.7409,317.1881 187.9225,317.0832 188.0146,316.9125 187.9795,316.7402 187.8925,316.5639 187.8594,316.4436 187.9181,316.3085 188.0709,316.222 188.2828,316.0386 188.5567,315.6933 188.6825,315.4679 188.701,315.1844 188.7857,314.9652 188.8846,314.8763 188.9658,314.7236 188.9107,314.4786 189.0477,314.209 189.3309,313.9165 189.5383,313.7687 189.4889,313.4854 189.3852,313.2205 189.241,312.9186 189.0285,312.6823 188.9066,312.6387 188.7496,312.5824 188.561,312.6052 188.3521,312.707 188.124,312.7072 187.964,312.6421 188.0263,312.4277 188.1509,312.1793 188.1934,312.0439 188.2359,311.9085 188.3767,311.6594 188.4919,311.4052 188.5203,311.3085 188.8024,311.0279 189.0858,310.7881 189.4107,310.594 189.5267,310.5184 189.714,310.4482 189.8426,310.2187 189.8707,309.9459 190.035,309.6875 190.3085,309.7361 190.4167,310.0237 190.5761,310.1345 190.8621,310.0079 191.1356,309.5514 191.4114,309.1527 191.4711,308.8596 191.7033,308.0932 191.5537,307.6915 191.5127,307.3984 191.3533,306.9426 191.4769,306.571 191.5972,306.393 191.7174,306.2149 192.0025,306.0138 192.4428,305.8616 192.8323,305.4269 192.9551,305.2898 193.323,304.7287 193.8866,304.2025 193.9817,304.1779 194.7778,303.9718 194.8513,303.8949 195.2438,303.4843 195.2749,303.3485 195.4568,302.5547 195.3777,302.3127 195.045,301.2957 194.9018,300.8245 194.8814,300.7574 194.7799,300.4235 194.7515,300.3299 194.5161,299.5556 194.5532,299.2039 194.6456,298.2459 195.1493,297.1233 195.3364,296.3029 195.3364,295.4394 195.3877,295.3341 195.6099,294.8781 195.5107,293.4508 195.5461,293.3106 195.6469,292.9113 196.3031,292.18 196.4608,292.1129 198.2612,291.3475 198.924,290.7217 199.3469,289.4501 198.9787,287.3923 198.5457,286.0535 197.9819,284.6075 197.5863,283.5928 197.424,282.7788 197.4924,282.0834 197.5609,281.388 197.4782,280.074 197.1054,278.9035 196.7671,278.5848 196.4935,277.9294 195.5948,275.6527 195.1424,272.0335 194.6102,268.7868 194.1183,267.704 193.2934,265.9446 192.7189,262.4682 193.2401,261.388 194.3592,259.0668 196.3019,256.2034 196.4649,255.9938 198.2038,253.7566 199.3464,252.2865 200.6113,250.3355 200.8657,248.9779 201.0066,248.2257 200.8094,245.5579 199.8378,243.4377 199.6234,242.9699 197.2514,240.7014 195.4719,238.9889 194.0492,236.6405 194.0492,234.4104 195.3141,231.7032 198.5951,229.3144 200.7104,228.7973 202.8256,228.2802 207.4109,225.6518 210.969,220.9344 213.8152,216.1173 213.7518,205.5136 215.3282,204.0364 215.9444,203.4583 222.6555,202.5427 226.6516,202.151 230.0114,203.3321 233.1986,206.7328 234.8972,209.888 239.6872,216.7173 242.3134,219.4828 246.4796,220.7685 250.2568,218.6655 252.3052,212.9248 253.517,209.9543 255.239,207.4316 257.6258,205.4834 260.0326,203.757 263.1045,202.409 267.534,198.7538 268.0862,203.9707 269.6959,207.3913 271.6154,210.2362 275.3647,211.2841 283.4705,215.1973 285.6613,217.2954 286.5184,220.8434 286.1032,225.1199 284.5425,227.6617 280.1633,230.3435 272.5716,236.1431 268.6014,238.2732 267.1807,241.222 270.1682,241.8357 276.9537,241.7508 279.7556,242.5343 280.3855,243.5863 281.2306,244.9977 280.2706,247.9552 278.6291,250.3987 276.2944,252.2041 272.3521,252.0983 269.4213,253.1508 268.5239,255.9575 270.7108,258.6588 272.7079,260.8184 274.8208,262.8988 278.0251,265.3866 278.6439,266.9646 279.2626,268.5425 276.4664,269.9506 273.5891,270.3385 270.7137,272.4025 274.5176,277.5499 274.1599,280.4352 271.8608,282.2583 268.5772,283.6153 267.4234,286.5982 267.6703,289.633 269.0132,292.3432 270.705,293.0815 271.8065,293.5622 274.601,295.3321 276.4309,297.9383 277.6623,301.4729 280.4702,305.2507 281.0935,307.0283 281.5762,308.3582 281.8226,309.7365 281.7408,310.7248 281.338,311.6921 280.4941,312.4736 280.1501,312.5371 279.1551,312.7207 277.7514,313.3641 276.9446,314.1047 276.4168,314.6391 276.3376,314.8797 276.2584,315.1203 276.2997,315.9942 276.7101,317.6485 277.1909,318.4477 277.6341,319.0233 277.6454,319.4869 277.6568,319.9505 277.2905,320.7531 276.7204,321.056 276.2378,321.3782 276.2168,321.9284 276.233,322.6354 276.2342,322.7702 276.2287,323.0623 276.2238,323.2579 275.9521,323.642 275.5406,323.7058 275.2122,323.609 274.9762,323.3317 274.8657,322.9714 274.7317,322.5136 274.5457,322.2449 274.2678,322.1374 273.9852,322.1485 273.7554,322.3538 273.638,322.6431 273.7733,323.139 273.9112,323.4379 274.0405,323.7669 273.887,324.2661 273.7166,324.3421 273.3738,324.3323 273.036,324.2072 272.9516,324.1605 272.7855,324.0687 272.5345,323.9011 272.143,323.9154 271.8968,324.1694 271.8515,324.5925 271.8436,324.8428 271.8357,325.0931 271.758,325.4497 271.5551,325.5552 271.2099,325.5379 270.9532,325.5174 270.7725,325.701 270.7762,326.0846 270.5972,326.3067 270.2307,326.2413 270.2104,326.2399 269.8556,326.2154 269.6872,326.4472 269.7098,326.8104 269.7232,326.8442 269.8249,327.1011 269.8714,327.2184 270.1267,327.4962 270.1365,327.7825 270.0448,327.9723 269.7409,327.991 269.3653,327.9451 268.9729,327.703 268.8423,327.6175 268.7308,327.5445 268.3989,327.3799 268.3245,327.3528 268.0938,327.2687 268.0312,327.2709 267.7593,327.2805 267.4876,327.3673 267.3914,327.5596 267.4623,327.8661 267.647,327.9975 267.8266,327.9828 267.8631,327.972 268.0897,327.9051 268.3116,327.8805 268.4032,328.0489 268.3062,328.4641 268.0823,328.9526 268.0147,329.0396 267.8358,329.2699 267.5835,329.3986 267.2622,329.273 267.1016,329.2102 266.9411,329.1474 266.5607,329.2891 266.3324,329.3827 266.1723,329.2085 266.0212,329.0681 265.7313,329.1634 265.6886,329.4137 265.5976,329.5113 265.4097,329.5351 265.2089,329.6709 265.2376,329.9785 265.5267,330.1571 265.6138,330.4633 265.5492,330.5771 265.4845,330.691 265.2652,330.7841 265.078,330.6907 264.8552,330.6047 264.6118,330.6054 264.4908,330.7348 264.5438,330.906 264.6292,331.0884 264.6463,331.3334 264.4234,331.7328 264.1577,332.0092 264.0513,332.1152 263.945,332.2212 263.82,332.5131 263.6775,332.7354 263.5749,333.0204 263.5635,333.3623 263.5065,334.24 263.5179,334.6503 263.4324,334.8897 263.2216,335.0094 262.9936,335.1347 262.8424,335.2612 262.6911,335.3877 262.6871,335.3925 262.5151,335.5978 262.3335,335.6829 262.2029,335.8873 262.0439,335.9384 261.8793,336.1541 261.6637,336.3176 261.3172,336.4153 261.1639,336.4494 261.0504,336.5345 260.9766,336.6594 260.8218,336.8094 260.6273,336.9194 260.4651,336.8782 260.3772,336.8254 260.2628,336.8367 260.21,336.8694 260.1924,336.8857 260.1898,336.9588 260.2122,337.0336 260.1973,337.1409 260.1839,337.1888 260.1698,337.2383 260.0625,337.2485 259.9449,337.2348 259.8125,337.2709 259.7933,337.5346 259.7269,337.6166 259.6044,337.6238 259.4671,337.5244 259.364,337.4874 259.2833,337.5629 259.1887,337.5059 259.0764,337.5546 259.0476,337.4653 258.9101,337.4091 258.7772,337.3918 258.7486,337.3143 258.7042,337.2214 258.579,337.204 258.5037,337.1311 258.4327,337.0855 258.3314,337.0949 258.2781,337.1738 258.218,337.3113 258.1933,337.4678 258.1823,337.5939 258.1296,337.6872 258.0295,337.912 257.9056,338.1914 257.818,338.322 257.66,338.5363 257.5332,338.6819 257.4283,338.8523 257.3469,339.1086 257.2787,339.2826 257.2345,339.4107 257.2203,339.6049 257.1557,339.7246 256.8386,340.1611 256.8238,340.2374 256.869,340.3022 256.8749,340.5025 256.7708,340.64 256.647,340.5968 256.4427,340.5929 256.2561,340.6243 256.1716,340.6714 256.0734,340.6773 255.8589,340.512 255.7744,340.5198 255.6958,340.5886 255.6094,340.6553 255.5524,340.781 255.5328,340.9558 255.4758,340.9951 255.3285,341.0305 255.2735,341.0972 255.2047,341.2053 255.1451,341.3332 255.1097,341.5512 254.6261,342.7764 254.6187,343.2354 254.1163,344.1543 253.9585,344.3129 253.8938,344.3365 253.8779,344.4344 253.8544,344.5299 253.8011,344.636 253.7576,344.7318 253.6939,344.818 253.6933,344.9307 253.6559,344.9978 253.5536,345.1036 253.4957,345.2149 253.533,345.4007 253.5193,345.4922 253.4265,345.6306 253.4286,345.7599 253.5216,345.861 253.5921,345.9854 253.5488,346.1268 253.5014,346.2493 253.4882,346.3751 253.5467,346.4578 253.7121,346.5832 253.7952,346.6341 253.8597,346.6495 253.8984,346.6247 253.9247,346.6343 253.9796,346.6736 254.0382,346.6907 254.0886,346.702 254.1165,346.6874 254.1547,346.6828 254.1992,346.7042 254.1957,346.7344 254.1968,346.7967 254.2715,346.8766 254.3532,346.9109 254.4789,346.9583 254.5589,347.0333 254.6144,347.1117 254.6863,347.1819 254.8349,347.1705 255.0145,347.2782 255.2382,347.4169 255.4292,347.5296 255.4324,347.5304 255.756,348.6328 256.3348,349.6801 256.3761,351.0305 256.8519,353.1182 256.9549,353.9793 257.0282,355.5018 257.2871,356.9234 257.4269,357.8169 257.1823,358.7288 256.9571,359.5757 256.9586,360.1356 256.9501,361.5338 256.9501,361.5361 256.9483,361.8405 256.9277,363.8534 256.9163,364.9805 257.2377,367.434 257.2405,367.4555 256.9301,370.8345 256.9276,371.4468 256.6975,371.5095 257.3676,373.7423 256.8897,373.8703 256.8912,373.9157 256.972,376.4657 256.9751,376.563 257.0113,377.7063 257.148,382.0166 257.3515,381.9371 258.7765,381.3808 260.5612,380.8342 263.5729,381.7266 266.1049,381.7823 267.2427,381.3027 268.492,381.3696 270.1331,381.9922 271.591,382.5525 274.0423,382.5812 275.7832,382.9602 276.3724,383.374 277.4927,383.5807 279.5546,383.3707 281.6432,384.3159 282.5031,385.2658 283.8908,386.1612 285.2171,389.8596 284.867,391.5941 285.3087,392.1866 286.0752,392.6328 287.2247,394.2589 287.9056,396.2837 287.6887,397.0934 287.6899,398.2743 287.8779,399.4308 288.5157,401.2108 288.8392,403.09 288.7564,403.659 287.3478,405.8122 284.1929,408.9955 284.0306,409.6205 283.483,409.9697 282.0874,409.8249 281.3029,410.0274 280.3119,411.2117 280.2143,411.5287 280.7969,413.197 280.5422,413.7105 278.5596,413.4004 277.0105,412.816 276.1344,412.8723 275.2435,413.3687 274.497,413.4975 272.237,413.5004 271.7087,413.7031 271.381,414.1236 271.0917,414.9885 271.2044,417.5693 271.7149,419.0915 271.7025,419.3935 271.7575,419.4144 272.041,419.6867 272.2576,420.1804 272.3388,420.3059 272.4865,420.4684 272.6859,420.5828 272.9628,420.7157 273.1918,420.8375 273.3579,421.4355 273.5097,421.6187 273.7715,421.7961 273.9401,421.9868 274.1309,422.3461 274.3128,422.7497 274.4723,423.1795 274.5951,423.5435 274.8818,423.8937 275.1912,424.1803 275.8009,424.5215 275.9602,424.6489 275.9739,424.6761 275.9784,424.8126 275.004,425.7404 274.5539,426.4353 273.7615,428.3955 273.0842,429.2853 272.1252,429.8423 270.2206,431.3057 263.6726,434.4525 257.8929,436.6142 251.5981,438.2733 243.1559,438.5776 235.8492,439.8222 231.7143,440.0446 227.6663,439.9749 224.6527,439.387 221.2234,439.0948 220.9815,438.3563 221.9359,434.2091 221.9732,433.7275 222.2222,430.5072 222.2638,429.9686 222.0727,429.0001 220.8135,427.4442 220.7575,426.6279 220.9248,425.8467 222.0736,424.6832 223.9397,423.7637 225.4717,423.8478 227.5295,424.4815 228.6406,424.5329 230.5922,423.7898 232.3778,421.8075 233.8077,419.9546 233.8261,419.9308 234.7816,419.4138 235.5521,419.3152 236.4009,418.9928 236.7535,418.637 237.1912,416.1514 237.3824,413.56 239.0006,410.1487 239.4114,407.8362 239.7637,406.6606 240.9671,405.3275 242.1162,405.0035 242.2036,404.4966 242.0681,403.0604 242.5882,402.7308 243.0764,402.7447 243.7035,402.3288 244.1739,402.3445 244.3975,402.84 244.8305,402.76 245.1657,402.5196 245.3772,402.0736 245.8729,401.887 245.9258,401.4263 245.4127,400.9901 245.7681,400.771 246.261,400.4672 246.6664,399.9773 247.2421,399.9156 247.8725,400.4713 248.4747,400.3899 248.7224,399.8747 248.8081,399.0679 249.4081,398.4276 249.4865,397.8684 249.1564,396.5383 249.2429,395.6774 249.5962,394.9046 249.628,393.743 249.2957,392.2709 247.105,390.4999 246.281,387.1479 246.3663,385.4263 246.5215,384.6997 246.5523,384.5553 246.6712,383.9988 246.9152,381.5723 246.9549,378.8152 246.9639,378.1905 246.4295,378.5295 245.0866,379.3248 243.5966,380.2736 241.705,381.478 238.3004,383.6426 237.4607,384.1764 236.7677,382.0203 230.4974,383.7781 230.2935,383.1822 230.2697,383.1126 230.2579,383.0781 230.2461,383.0436 229.99,382.295 229.9671,382.2281 229.8475,381.8785 229.6877,381.4447 229.5009,380.8945 229.4723,380.8105 229.2919,380.2793 229.2646,380.1988 229.109,379.7407 228.8604,379.0088 228.6381,378.378 228.6251,378.341 228.4133,377.74 228.4035,377.7122 227.9129,376.32 227.8504,376.1449 227.7068,375.7428 227.6966,375.7144 227.6565,375.602 227.6275,375.5365 227.3439,374.8969 227.3324,374.8709 227.1333,374.4404 227.013,374.1801 226.9832,374.1158 227.0443,373.2123 227.0007,372.2215 226.9291,370.3971 226.9051,368.9256 226.8001,366.4529 225.2949,367.1061 223.0973,368.0597" stroke="black" /><polygon fill="none" points="99.8669,357.4571 97.2218,353.3157 87.2534,340.6796 78.0785,330.2193 77.6559,329.0043 75.6712,323.3008 73.3438,309.6287 70.4396,295.96 69.238,290.3047 62.867,277.1709 62.7956,277.0237 55.3875,269.362 50.9156,264.7374 35.6603,243.2682 28.9966,232.4459 23.6087,223.6951 12.3502,202.5548 2.7147,181.4449 0.0,170.302 16.6508,150.5272 26.4737,140.7673 37.2488,130.0606 49.1621,118.2239 75.3387,90.5881 89.3047,73.8126 98.5153,63.5883 108.9543,46.6605 109.3261,46.0581 119.7906,32.8406 122.2813,29.2605 125.7577,25.5447 127.4598,21.7699 129.4821,18.7311 134.9308,14.2213 136.9286,11.9015 148.0827,4.3468 152.738,0.0 258.0114,29.0657 296.3566,39.6528 296.4011,39.6651 296.485,39.912 297.3629,42.4971 298.565,45.3952 300.6216,51.5664 301.7166,54.9731 302.7246,58.7676 304.1488,62.021 305.4649,64.7689 309.5435,71.0781 311.4344,73.7361 313.5138,77.2464 315.6281,80.454 318.0386,85.698 320.3176,90.6592 321.1811,93.7866 321.7897,97.0246 323.4854,103.5687 323.6506,106.5236 322.6658,109.8081 321.4582,112.8189 320.7729,116.1365 320.5216,119.4205 320.6969,122.5173 320.6428,122.9584 319.9297,128.7381 319.0161,132.5717 317.6215,135.0941 312.4751,139.1509 309.8755,141.4984 308.0107,144.0848 306.4219,146.9005 303.9323,150.6504 301.3526,154.044 298.7823,158.1579 297.6791,159.7235 297.2727,160.2997 296.8664,160.8758 294.3199,163.58 292.5447,166.209 287.7742,172.5182 286.0812,175.4833 284.218,178.746 281.5802,181.0139 278.2705,181.7395 275.5638,183.2534 275.4279,186.4753 272.2996,189.7195 269.1487,191.8475 268.5461,195.5842 267.534,198.7538 263.1045,202.409 260.0326,203.757 257.6258,205.4834 255.239,207.4316 253.517,209.9543 252.3052,212.9248 250.2568,218.6655 246.4796,220.7685 242.3134,219.4828 239.6872,216.7173 234.8972,209.888 233.1986,206.7328 230.0114,203.3321 226.6516,202.151 222.6555,202.5427 215.9444,203.4583 215.3282,204.0364 213.7518,205.5136 213.8152,216.1173 210.969,220.9344 207.4109,225.6518 202.8256,228.2802 200.7104,228.7973 198.5951,229.3144 195.3141,231.7032 194.0492,234.4104 194.0492,236.6405 195.4719,238.9889 197.2514,240.7014 199.6234,242.9699 199.8378,243.4377 200.8094,245.5579 201.0066,248.2257 200.8657,248.9779 200.6113,250.3355 199.3464,252.2865 198.2038,253.7566 196.4649,255.9938 196.3019,256.2034 194.3592,259.0668 193.2401,261.388 192.7189,262.4682 193.2934,265.9446 194.1183,267.704 194.6102,268.7868 195.1424,272.0335 195.5948,275.6527 196.4935,277.9294 196.7671,278.5848 197.1054,278.9035 197.4782,280.074 197.5609,281.388 197.4924,282.0834 197.424,282.7788 197.5863,283.5928 197.9819,284.6075 198.5457,286.0535 198.9787,287.3923 199.3469,289.4501 198.924,290.7217 198.2612,291.3475 196.4608,292.1129 196.3031,292.18 195.6469,292.9113 195.5461,293.3106 195.5107,293.4508 195.6099,294.8781 195.3877,295.3341 195.3364,295.4394 195.3364,296.3029 195.1493,297.1233 194.6456,298.2459 194.5532,299.2039 194.5161,299.5556 194.7515,300.3299 194.7799,300.4235 194.8814,300.7574 194.9018,300.8245 195.045,301.2957 195.3777,302.3127 195.4568,302.5547 195.2749,303.3485 195.2438,303.4843 194.8513,303.8949 194.7778,303.9718 193.9817,304.1779 193.8866,304.2025 193.323,304.7287 192.9551,305.2898 192.8323,305.4269 192.4428,305.8616 192.0025,306.0138 191.7174,306.2149 191.5972,306.393 191.4769,306.571 191.3533,306.9426 191.5127,307.3984 191.5537,307.6915 191.7033,308.0932 191.4711,308.8596 191.4114,309.1527 191.1356,309.5514 190.8621,310.0079 190.5761,310.1345 190.4167,310.0237 190.3085,309.7361 190.035,309.6875 189.8707,309.9459 189.8426,310.2187 189.714,310.4482 189.5267,310.5184 189.4107,310.594 189.0858,310.7881 188.8024,311.0279 188.5203,311.3085 188.4919,311.4052 188.3767,311.6594 188.2359,311.9085 188.1934,312.0439 188.1509,312.1793 188.0263,312.4277 187.964,312.6421 188.124,312.7072 188.3521,312.707 188.561,312.6052 188.7496,312.5824 188.9066,312.6387 189.0285,312.6823 189.241,312.9186 189.3852,313.2205 189.4889,313.4854 189.5383,313.7687 189.3309,313.9165 189.0477,314.209 188.9107,314.4786 188.9658,314.7236 188.8846,314.8763 188.7857,314.9652 188.701,315.1844 188.6825,315.4679 188.5567,315.6933 188.2828,316.0386 188.0709,316.222 187.9181,316.3085 187.8594,316.4436 187.8925,316.5639 187.9795,316.7402 188.0146,316.9125 187.9225,317.0832 187.7409,317.1881 187.5662,317.3522 187.3935,317.4826 187.3547,317.7223 186.7725,318.0101 186.1282,318.3285 185.1625,317.9725 183.1147,318.2968 182.4909,318.6175 182.2788,319.0276 181.7938,319.9659 181.7701,320.0117 181.7621,320.0272 181.7401,320.0697 183.7597,319.9393 184.0047,319.9393 184.2496,319.9393 184.4576,320.0168 184.6127,320.1293 184.8332,320.3116 184.9464,320.4051 185.1479,320.5934 185.2232,320.6638 185.3493,320.7816 185.79,321.2787 185.9555,321.4654 186.3467,321.9306 186.7677,322.5099 186.7873,322.5369 186.9124,322.7164 187.2243,323.1642 187.4705,323.5219 187.7075,323.8663 187.8623,324.0912 187.895,324.1432 188.0174,324.3379 188.2162,324.657 189.084,326.0494 189.1849,326.2112 189.2983,326.4407 189.4353,326.718 189.4565,326.7594 189.7497,327.333 190.0887,327.9963 190.8086,329.4045 192.1091,331.8698 192.4533,332.4994 193.5598,334.4647 193.729,334.7742 194.4091,336.0178 195.2359,337.4399 195.2547,337.478 195.3277,337.626 195.4927,337.9607 195.6654,338.3109 195.7225,338.4277 195.8335,338.6542 195.9739,338.941 196.0253,339.0459 196.109,339.2209 196.1602,339.3278 196.1927,339.3959 196.1937,339.398 196.2506,339.5169 196.2576,339.5315 196.3532,339.707 196.7146,340.2849 198.4591,343.0748 198.6237,343.4149 198.7931,343.6974 198.8257,343.7519 198.8584,343.8063 199.074,344.1045 199.1029,344.1445 199.8056,344.6933 200.139,344.9539 199.789,347.0347 199.5538,348.1022 199.392,348.902 199.387,349.0532 199.2311,349.2006 198.9639,349.2395 198.5803,349.2958 198.2471,349.3697 197.8883,349.4588 197.8513,349.4675 197.8142,349.4762 197.6309,349.5156 197.5048,349.5935 197.3369,349.7541 197.1905,349.9397 197.0885,350.0692 196.9478,350.246 196.4998,350.893 195.4584,352.3967 194.8015,353.2412 194.1888,354.029 194.1705,354.0526 193.4637,354.8382 191.7097,352.632 191.404,353.0919 191.0787,353.5814 191.0442,353.7165 190.8431,353.9274 189.3568,355.3061 188.6682,356.0717 188.6318,356.1122 188.4307,356.3586 188.3439,356.5233 188.1319,356.9254 187.7238,357.7596 187.4349,358.1638 187.2588,358.3642 186.6787,359.4178 186.3273,359.9785 187.4142,361.6518 187.7963,362.0145 188.1221,362.1734 188.9897,362.4662 189.4432,362.7807 190.0041,363.2864 190.1431,363.3594 191.2424,363.7291 191.2118,364.0683 191.2986,364.158 191.695,364.2359 191.9069,364.2812 191.8694,364.8727 191.4073,366.3724 190.6704,369.3845 191.4485,369.6158 191.7748,369.744 191.269,371.2593 191.6634,371.3911 191.6401,374.8498 191.613,377.1877 191.6143,377.8678 191.6162,378.8903 191.6168,379.2186 191.6258,379.2794 191.641,379.3821 191.7404,379.4772 191.9928,379.299 192.6211,378.835 193.0506,378.375 194.1345,377.0893 194.5507,376.5893 195.9339,374.928 196.7121,373.9932 197.3233,381.7772 198.573,380.9947 198.5942,380.9841 199.3718,380.5975 199.7533,380.3572 201.3842,379.3929 202.2695,378.897 203.1056,378.4553 203.0543,375.3764 203.9505,375.3764 203.8824,373.2538 205.6354,373.2518 206.362,373.1887 206.6308,373.1949 206.6279,371.981 206.9643,371.8914 207.5867,372.8199 208.7222,371.8351 208.9144,371.6596 209.082,371.5876 209.2378,371.5748 209.3748,371.4309 209.4714,371.3461 209.6686,371.2672 209.711,371.1351 209.7347,370.8452 209.7406,370.7669 209.7455,370.7014 209.7465,370.6885 209.8066,370.5436 209.9742,370.4893 210.1665,370.2478 210.2858,370.0792 210.412,369.9461 210.5677,369.8613 210.757,369.5166 210.8004,369.4374 210.8133,369.924 210.8324,370.6387 210.8469,371.1864 210.9325,374.4063 211.0145,377.8918 211.0474,379.2867 211.1002,382.3914 211.1402,382.3679 211.1934,382.3367 213.8221,380.7964 213.8728,380.7667 213.9159,380.7415 213.9141,379.7447 216.6865,378.1435 219.4319,377.5129 219.4708,377.4901 219.5143,377.4646 223.2489,375.5951 223.2978,375.5706 223.2654,373.7996 223.2232,372.5113 223.2065,372.0017 223.0976,368.9628 223.0973,368.0597 225.2949,367.1061 226.8001,366.4529 226.9051,368.9256 226.9291,370.3971 227.0007,372.2215 227.0443,373.2123 226.9832,374.1158 227.013,374.1801 227.1333,374.4404 227.3324,374.8709 227.3439,374.8969 227.6275,375.5365 227.6565,375.602 227.6966,375.7144 227.7068,375.7428 227.8504,376.1449 227.9129,376.32 228.4035,377.7122 228.4133,377.74 228.6251,378.341 228.6381,378.378 228.8604,379.0088 229.109,379.7407 229.2646,380.1988 229.2919,380.2793 229.4723,380.8105 229.5009,380.8945 229.6877,381.4447 229.8475,381.8785 229.9671,382.2281 229.99,382.295 230.2461,383.0436 230.2579,383.0781 230.2697,383.1126 230.2935,383.1822 230.4974,383.7781 236.7677,382.0203 237.4607,384.1764 238.3004,383.6426 241.705,381.478 243.5966,380.2736 245.0866,379.3248 246.4295,378.5295 246.9639,378.1905 246.9549,378.8152 246.9152,381.5723 246.6712,383.9988 246.5523,384.5553 246.5215,384.6997 246.3663,385.4263 246.281,387.1479 247.105,390.4999 249.2957,392.2709 249.628,393.743 249.5962,394.9046 249.2429,395.6774 249.1564,396.5383 249.4865,397.8684 249.4081,398.4276 248.8081,399.0679 248.7224,399.8747 248.4747,400.3899 247.8725,400.4713 247.2421,399.9156 246.6664,399.9773 246.261,400.4672 245.7681,400.771 245.4127,400.9901 245.9258,401.4263 245.8729,401.887 245.3772,402.0736 245.1657,402.5196 244.8305,402.76 244.3975,402.84 244.1739,402.3445 243.7035,402.3288 243.0764,402.7447 242.5882,402.7308 242.0681,403.0604 242.2036,404.4966 242.1162,405.0035 240.9671,405.3275 239.7637,406.6606 239.4114,407.8362 239.0006,410.1487 237.3824,413.56 237.1912,416.1514 236.7535,418.637 236.4009,418.9928 235.5521,419.3152 234.7816,419.4138 233.8261,419.9308 233.8077,419.9546 232.3778,421.8075 230.5922,423.7898 228.6406,424.5329 227.5295,424.4815 225.4717,423.8478 223.9397,423.7637 222.0736,424.6832 220.9248,425.8467 220.7575,426.6279 220.8135,427.4442 222.0727,429.0001 222.2638,429.9686 222.2222,430.5072 221.9732,433.7275 221.9359,434.2091 220.9815,438.3563 221.2234,439.0948 224.6527,439.387 227.6663,439.9749 231.7143,440.0446 235.8492,439.8222 243.1559,438.5776 251.5981,438.2733 257.8929,436.6142 263.6726,434.4525 270.2206,431.3057 272.1252,429.8423 273.0842,429.2853 273.7615,428.3955 274.5539,426.4353 275.004,425.7404 274.8204,427.0575 274.9995,428.1866 276.0619,429.6683 276.6976,430.2363 286.3106,436.1682 288.3198,437.202 289.2099,439.2032 289.1402,440.0267 288.5266,441.203 288.6451,442.8565 288.4322,443.4648 287.779,444.3883 286.8324,444.9363 285.8373,445.2086 282.7115,445.1038 275.7531,443.599 272.4131,443.5879 269.428,443.7818 267.522,444.3323 265.6159,444.8828 262.8244,446.3184 260.2246,447.8529 258.1654,449.7923 257.627,450.2995 255.7104,452.6468 250.9744,459.7181 249.0503,462.3981 247.9799,463.889 245.4633,465.3994 243.9174,465.658 240.293,466.2644 236.2109,466.9474 232.8653,467.8966 230.1064,469.6073 225.4119,474.1447 221.8585,476.9667 220.7247,477.6445 217.9397,479.3096 213.7711,481.6567 211.6628,482.7593 211.0124,483.0995 209.5627,483.3792 206.7708,483.9179 203.8922,483.8455 202.7222,483.6799 200.4563,483.3593 194.036,482.451 190.4746,482.823 186.3672,483.8186 183.3839,485.1809 182.0054,485.8104 179.3508,487.4323 176.5901,488.7882 173.4133,490.589 168.3451,493.8322 164.6189,495.2785 161.4141,495.8299 157.6661,496.025 154.1839,495.4997 149.9113,494.6241 146.9841,493.2046 143.8616,491.3303 140.4628,488.7485 138.3288,486.4287 130.0874,478.5769 126.008,476.9799 122.8845,478.5143 122.6365,486.9763 122.3065,491.7136 119.4069,497.33 116.4765,499.9961 116.4723,500.0 113.2463,499.5467 111.738,492.068 111.9573,483.8412 112.3697,478.7095 113.5734,467.5851 111.3789,461.5369 109.439,456.995 107.4938,452.4407 104.723,442.8357 104.2599,430.5607 106.2352,419.4344 106.7707,417.3705 109.6859,406.1232 111.5208,395.3879 110.6684,383.6731 107.6324,369.6131 99.8669,357.4571" stroke="black" /><polygon fill="none" points="338.5361,358.1688 338.5319,358.1592 337.0187,354.6895 336.5356,353.9943 335.0723,351.8889 334.8488,351.5675 333.7555,350.407 332.5227,349.4261 331.2931,347.9759 329.6665,346.059 324.1897,341.1278 323.7102,340.5619 323.6655,340.5092 323.579,340.4071 322.9682,339.6864 322.6894,338.6774 323.1563,337.5345 324.1459,336.0834 325.1572,333.6244 326.0903,330.7389 326.1661,329.4425 326.348,328.4307 326.1355,327.7357 325.2397,326.5153 324.5402,326.2676 324.2543,326.0185 323.6436,325.4863 323.3233,324.5227 322.8123,324.201 322.109,322.7237 321.3416,322.2739 320.6381,321.4363 320.6359,318.9947 319.8687,318.2238 319.5477,316.5513 319.2921,315.9734 319.29,315.0721 318.9058,314.0438 318.713,313.016 317.9459,311.9221 314.8154,310.0609 313.9841,309.9325 312.3256,310.2566 311.4947,309.8708 311.1754,308.586 310.791,308.2 310.4058,307.1079 309.959,306.5926 309.9587,306.0798 308.9352,304.4071 308.3598,303.8291 306.4424,303.2675 304.528,303.2683 302.8683,302.6919 300.2364,300.3619 299.417,299.6363 298.1579,299.9 297.1912,299.8055 295.9335,299.906 295.2799,300.3857 293.2464,302.9198 292.8261,303.2125 291.9922,303.7931 290.5419,304.5142 286.7342,305.5867 284.3692,305.6898 280.4702,305.2507 277.6623,301.4729 276.4309,297.9383 274.601,295.3321 271.8065,293.5622 270.705,293.0815 269.0132,292.3432 267.6703,289.633 267.4234,286.5982 268.5772,283.6153 271.8608,282.2583 274.1599,280.4352 274.5176,277.5499 270.7137,272.4025 273.5891,270.3385 276.4664,269.9506 279.2626,268.5425 278.6439,266.9646 278.0251,265.3866 274.8208,262.8988 272.7079,260.8184 270.7108,258.6588 268.5239,255.9575 269.4213,253.1508 272.3521,252.0983 276.2944,252.2041 278.6291,250.3987 280.2706,247.9552 281.2306,244.9977 280.3855,243.5863 279.7556,242.5343 276.9537,241.7508 270.1682,241.8357 267.1807,241.222 268.6014,238.2732 272.5716,236.1431 280.1633,230.3435 284.5425,227.6617 286.1838,229.2463 286.6552,230.1174 287.1917,231.6006 287.6958,232.4291 287.7786,233.0233 288.621,233.828 289.225,234.1736 289.8808,234.3053 290.4937,234.2401 291.84,233.7332 292.102,233.6341 293.1099,232.7287 293.4119,232.2827 294.2388,231.6811 296.3747,229.6838 298.1496,228.68 300.4805,228.8072 302.6962,229.2903 303.6609,229.7079 304.8673,229.6485 305.9561,229.2478 307.6828,228.9326 310.1458,229.0781 310.8269,229.4226 311.3096,229.8217 312.2327,231.0485 312.6432,232.4289 312.4179,235.1877 312.5798,236.3044 312.9359,237.0968 313.9841,238.4031 314.5599,238.4116 315.083,238.2064 315.4522,237.8351 317.1858,236.092 318.5039,235.2632 319.5027,235.0481 321.123,235.08 321.5424,235.2663 322.0569,235.9829 322.1653,236.5416 322.1398,237.4634 321.762,238.4676 321.4626,238.8675 321.3755,239.9847 321.7851,240.9517 322.2298,241.3411 323.1853,241.5697 326.1706,241.1461 330.0302,240.3046 331.9971,240.4759 334.2741,241.0307 334.9862,241.3485 336.568,242.4141 337.6389,243.5685 338.1354,243.799 340.3592,243.9005 342.1943,243.3216 343.5858,243.6645 345.5581,245.0228 347.0947,245.2776 348.8476,245.1601 349.2829,245.318 350.0508,246.0668 352.5404,247.8054 353.9126,248.2264 355.4445,247.9657 355.8252,248.2399 356.0219,248.6484 356.4564,248.8506 357.0869,249.5509 358.0176,249.7963 358.3736,250.1424 358.8686,250.0792 359.358,250.2281 360.0778,251.2697 360.6169,251.4858 360.8933,251.8924 360.7785,252.8517 360.9478,253.3028 360.7553,253.9606 360.155,254.9192 359.9672,256.48 361.031,258.0408 361.4997,258.0663 362.148,258.7657 363.0873,258.9055 363.8772,259.5886 364.294,259.7642 364.4801,260.2153 365.5463,261.2243 366.9471,261.7339 367.6307,262.3905 368.1011,263.1968 368.2091,263.1838 368.317,263.1709 368.962,263.0937 370.6703,262.8893 371.14,262.9761 371.5216,263.2423 371.9841,264.068 373.3738,269.1036 373.8498,269.9976 374.9943,271.1749 375.4049,271.3709 376.173,271.4028 376.6419,271.109 377.3789,271.8791 377.8752,271.9933 378.4243,271.9202 378.9107,271.5483 379.4058,271.5011 379.709,272.0158 380.1171,272.2632 381.681,272.021 384.2987,272.0231 387.1066,272.2562 388.2214,272.0665 388.5769,271.7738 390.7747,268.6383 390.9578,268.1127 390.9654,266.3829 391.4064,265.5215 392.554,264.1262 393.2689,262.9527 394.3589,259.9874 395.4817,254.2739 395.4574,251.336 395.179,250.0318 393.7554,246.8158 393.4638,242.3624 393.8132,240.953 394.8294,239.7966 395.5087,238.5169 397.3454,235.8613 398.4162,234.9799 399.8633,232.7936 400.4917,232.5536 402.8475,232.2929 404.1678,232.4754 406.9871,233.4813 407.8644,233.6479 408.9019,234.0971 410.0801,234.0945 411.1127,234.3947 400.8724,284.421 393.8793,318.5937 392.9699,323.0375 392.9368,323.1915 391.9262,327.8893 391.9025,327.9992 389.9019,337.2994 389.3066,340.0664 389.1655,340.7224 389.1326,340.8756 388.7589,342.6125 388.7509,342.6499 388.7426,342.6924 388.1967,345.4908 387.183,350.4212 388.12,353.231 388.112,356.5452 382.7249,360.5812 381.776,362.0567 380.6685,363.7789 379.2408,366.826 377.0756,368.9967 375.0197,372.3984 373.6126,374.4289 373.3513,374.8057 374.9371,376.2197 375.9526,377.1252 377.7125,379.4726 379.9504,381.6742 382.5802,384.7299 385.5437,386.5659 387.676,389.0276 387.3196,392.143 387.4609,395.1765 386.3887,398.6388 385.1019,401.3033 384.1694,404.2942 381.5727,407.0969 378.5062,409.7659 375.4621,411.4945 373.2961,413.6707 371.6297,416.4897 367.3878,417.1391 364.2914,418.8502 364.0087,420.2349 363.6342,422.0713 363.3594,425.1884 362.6772,428.303 361.5509,431.6805 360.3668,437.7621 358.9798,440.9993 357.062,443.1776 353.1727,443.1699 349.9131,443.3992 343.6422,442.946 336.5729,443.1167 329.6197,444.3747 326.7139,444.7459 326.6322,443.6203 326.3643,442.7675 326.1153,442.4221 326.527,440.5669 327.9518,436.4814 331.6679,426.8612 332.6831,423.2975 333.7008,418.6249 334.6047,411.2787 334.6006,409.9737 334.2498,408.226 332.876,404.3897 332.3011,400.8292 332.5541,399.2707 333.5611,398.0607 334.5515,397.3388 335.0734,396.6641 335.3998,395.7327 335.0196,392.7962 333.9198,389.4082 330.8847,386.5235 330.6342,385.8596 330.7722,384.3334 331.4316,382.6266 332.1912,381.3313 334.1028,379.4671 335.1525,377.9341 338.7231,374.0991 340.13,372.3116 341.2368,370.61 341.4247,370.3881 342.2173,369.4525 342.3262,366.8698 341.9765,365.1345 341.1729,362.8644 339.1816,359.6488 338.5361,358.1688" stroke="black" /><polygon fill="none" points="256.9751,376.563 256.972,376.4657 256.8912,373.9157 256.8897,373.8703 257.3676,373.7423 256.6975,371.5095 256.9276,371.4468 256.9301,370.8345 257.2405,367.4555 257.2377,367.434 256.9163,364.9805 256.9277,363.8534 256.9483,361.8405 256.9501,361.5361 256.9501,361.5338 256.9586,360.1356 256.9571,359.5757 257.1823,358.7288 257.4269,357.8169 257.2871,356.9234 257.0282,355.5018 256.9549,353.9793 256.8519,353.1182 256.3761,351.0305 256.3348,349.6801 255.756,348.6328 255.4324,347.5304 255.4292,347.5296 255.2382,347.4169 255.0145,347.2782 254.8349,347.1705 254.6863,347.1819 254.6144,347.1117 254.5589,347.0333 254.4789,346.9583 254.3532,346.9109 254.2715,346.8766 254.1968,346.7967 254.1957,346.7344 254.1992,346.7042 254.1547,346.6828 254.1165,346.6874 254.0886,346.702 254.0382,346.6907 253.9796,346.6736 253.9247,346.6343 253.8984,346.6247 253.8597,346.6495 253.7952,346.6341 253.7121,346.5832 253.5467,346.4578 253.4882,346.3751 253.5014,346.2493 253.5488,346.1268 253.5921,345.9854 253.5216,345.861 253.4286,345.7599 253.4265,345.6306 253.5193,345.4922 253.533,345.4007 253.4957,345.2149 253.5536,345.1036 253.6559,344.9978 253.6933,344.9307 253.6939,344.818 253.7576,344.7318 253.8011,344.636 253.8544,344.5299 253.8779,344.4344 253.8938,344.3365 253.9585,344.3129 254.1163,344.1543 254.6187,343.2354 254.6261,342.7764 255.1097,341.5512 255.1451,341.3332 255.2047,341.2053 255.2735,341.0972 255.3285,341.0305 255.4758,340.9951 255.5328,340.9558 255.5524,340.781 255.6094,340.6553 255.6958,340.5886 255.7744,340.5198 255.8589,340.512 256.0734,340.6773 256.1716,340.6714 256.2561,340.6243 256.4427,340.5929 256.647,340.5968 256.7708,340.64 256.8749,340.5025 256.869,340.3022 256.8238,340.2374 256.8386,340.1611 257.1557,339.7246 257.2203,339.6049 257.2345,339.4107 257.2787,339.2826 257.3469,339.1086 257.4283,338.8523 257.5332,338.6819 257.66,338.5363 257.818,338.322 257.9056,338.1914 258.0295,337.912 258.1296,337.6872 258.1823,337.5939 258.1933,337.4678 258.218,337.3113 258.2781,337.1738 258.3314,337.0949 258.4327,337.0855 258.5037,337.1311 258.579,337.204 258.7042,337.2214 258.7486,337.3143 258.7772,337.3918 258.9101,337.4091 259.0476,337.4653 259.0764,337.5546 259.1887,337.5059 259.2833,337.5629 259.364,337.4874 259.4671,337.5244 259.6044,337.6238 259.7269,337.6166 259.7933,337.5346 259.8125,337.2709 259.9449,337.2348 260.0625,337.2485 260.1698,337.2383 260.1839,337.1888 260.1973,337.1409 260.2122,337.0336 260.1898,336.9588 260.1924,336.8857 260.21,336.8694 260.2628,336.8367 260.3772,336.8254 260.4651,336.8782 260.6273,336.9194 260.8218,336.8094 260.9766,336.6594 261.0504,336.5345 261.1639,336.4494 261.3172,336.4153 261.6637,336.3176 261.8793,336.1541 262.0439,335.9384 262.2029,335.8873 262.3335,335.6829 262.5151,335.5978 262.6871,335.3925 262.6911,335.3877 262.8424,335.2612 262.9936,335.1347 263.2216,335.0094 263.4324,334.8897 263.5179,334.6503 263.5065,334.24 263.5635,333.3623 263.5749,333.0204 263.6775,332.7354 263.82,332.5131 263.945,332.2212 264.0513,332.1152 264.1577,332.0092 264.4234,331.7328 264.6463,331.3334 264.6292,331.0884 264.5438,330.906 264.4908,330.7348 264.6118,330.6054 264.8552,330.6047 265.078,330.6907 265.2652,330.7841 265.4845,330.691 265.5492,330.5771 265.6138,330.4633 265.5267,330.1571 265.2376,329.9785 265.2089,329.6709 265.4097,329.5351 265.5976,329.5113 265.6886,329.4137 265.7313,329.1634 266.0212,329.0681 266.1723,329.2085 266.3324,329.3827 266.5607,329.2891 266.9411,329.1474 267.1016,329.2102 267.2622,329.273 267.5835,329.3986 267.8358,329.2699 268.0147,329.0396 268.0823,328.9526 268.3062,328.4641 268.4032,328.0489 268.3116,327.8805 268.0897,327.9051 267.8631,327.972 267.8266,327.9828 267.647,327.9975 267.4623,327.8661 267.3914,327.5596 267.4876,327.3673 267.7593,327.2805 268.0312,327.2709 268.0938,327.2687 268.3245,327.3528 268.3989,327.3799 268.7308,327.5445 268.8423,327.6175 268.9729,327.703 269.3653,327.9451 269.7409,327.991 270.0448,327.9723 270.1365,327.7825 270.1267,327.4962 269.8714,327.2184 269.8249,327.1011 269.7232,326.8442 269.7098,326.8104 269.6872,326.4472 269.8556,326.2154 270.2104,326.2399 270.2307,326.2413 270.5972,326.3067 270.7762,326.0846 270.7725,325.701 270.9532,325.5174 271.2099,325.5379 271.5551,325.5552 271.758,325.4497 271.8357,325.0931 271.8436,324.8428 271.8515,324.5925 271.8968,324.1694 272.143,323.9154 272.5345,323.9011 272.7855,324.0687 272.9516,324.1605 273.036,324.2072 273.3738,324.3323 273.7166,324.3421 273.887,324.2661 274.0405,323.7669 273.9112,323.4379 273.7733,323.139 273.638,322.6431 273.7554,322.3538 273.9852,322.1485 274.2678,322.1374 274.5457,322.2449 274.7317,322.5136 274.8657,322.9714 274.9762,323.3317 275.2122,323.609 275.5406,323.7058 275.9521,323.642 276.2238,323.2579 276.2287,323.0623 276.2342,322.7702 276.233,322.6354 276.2168,321.9284 276.2378,321.3782 276.7204,321.056 277.2905,320.7531 277.6568,319.9505 277.6454,319.4869 277.6341,319.0233 277.1909,318.4477 276.7101,317.6485 276.2997,315.9942 276.2584,315.1203 276.3376,314.8797 276.4168,314.6391 276.9446,314.1047 277.7514,313.3641 279.1551,312.7207 280.1501,312.5371 280.4941,312.4736 281.338,311.6921 281.7408,310.7248 281.8226,309.7365 281.5762,308.3582 281.0935,307.0283 280.4702,305.2507 284.3692,305.6898 286.7342,305.5867 290.5419,304.5142 291.9922,303.7931 292.8261,303.2125 293.2464,302.9198 295.2799,300.3857 295.9335,299.906 297.1912,299.8055 298.1579,299.9 299.417,299.6363 300.2364,300.3619 302.8683,302.6919 304.528,303.2683 306.4424,303.2675 308.3598,303.8291 308.9352,304.4071 309.9587,306.0798 309.959,306.5926 310.4058,307.1079 310.791,308.2 311.1754,308.586 311.4947,309.8708 312.3256,310.2566 313.9841,309.9325 314.8154,310.0609 317.9459,311.9221 318.713,313.016 318.9058,314.0438 319.29,315.0721 319.2921,315.9734 319.5477,316.5513 319.8687,318.2238 320.6359,318.9947 320.6381,321.4363 321.3416,322.2739 322.109,322.7237 322.8123,324.201 323.3233,324.5227 323.6436,325.4863 324.2543,326.0185 324.5402,326.2676 325.2397,326.5153 326.1355,327.7357 326.348,328.4307 326.1661,329.4425 326.0903,330.7389 325.1572,333.6244 324.1459,336.0834 323.1563,337.5345 322.6894,338.6774 322.9682,339.6864 323.579,340.4071 323.6655,340.5092 323.7102,340.5619 324.1897,341.1278 329.6665,346.059 331.2931,347.9759 332.5227,349.4261 333.7555,350.407 334.8488,351.5675 335.0723,351.8889 336.5356,353.9943 337.0187,354.6895 338.5319,358.1592 338.5361,358.1688 339.1816,359.6488 341.1729,362.8644 341.9765,365.1345 342.3262,366.8698 342.2173,369.4525 341.4247,370.3881 341.2368,370.61 340.13,372.3116 338.7231,374.0991 335.1525,377.9341 334.1028,379.4671 332.1912,381.3313 331.4316,382.6266 330.7722,384.3334 330.6342,385.8596 330.8847,386.5235 333.9198,389.4082 335.0196,392.7962 335.3998,395.7327 335.0734,396.6641 334.5515,397.3388 333.5611,398.0607 332.5541,399.2707 332.3011,400.8292 332.876,404.3897 334.2498,408.226 334.6006,409.9737 334.6047,411.2787 333.7008,418.6249 332.6831,423.2975 331.6679,426.8612 327.9518,436.4814 326.527,440.5669 326.1153,442.4221 326.3643,442.7675 326.6322,443.6203 326.7139,444.7459 322.8002,445.2172 316.4469,445.119 312.9667,445.3577 310.2278,444.4864 306.9986,443.0999 303.0541,441.8883 296.4597,441.0214 288.5266,441.203 289.1402,440.0267 289.2099,439.2032 288.3198,437.202 286.3106,436.1682 276.6976,430.2363 276.0619,429.6683 274.9995,428.1866 274.8204,427.0575 275.004,425.7404 275.9784,424.8126 275.9739,424.6761 275.9602,424.6489 275.8009,424.5215 275.1912,424.1803 274.8818,423.8937 274.5951,423.5435 274.4723,423.1795 274.3128,422.7497 274.1309,422.3461 273.9401,421.9868 273.7715,421.7961 273.5097,421.6187 273.3579,421.4355 273.1918,420.8375 272.9628,420.7157 272.6859,420.5828 272.4865,420.4684 272.3388,420.3059 272.2576,420.1804 272.041,419.6867 271.7575,419.4144 271.7025,419.3935 271.7149,419.0915 271.2044,417.5693 271.0917,414.9885 271.381,414.1236 271.7087,413.7031 272.237,413.5004 274.497,413.4975 275.2435,413.3687 276.1344,412.8723 277.0105,412.816 278.5596,413.4004 280.5422,413.7105 280.7969,413.197 280.2143,411.5287 280.3119,411.2117 281.3029,410.0274 282.0874,409.8249 283.483,409.9697 284.0306,409.6205 284.1929,408.9955 287.3478,405.8122 288.7564,403.659 288.8392,403.09 288.5157,401.2108 287.8779,399.4308 287.6899,398.2743 287.6887,397.0934 287.9056,396.2837 287.2247,394.2589 286.0752,392.6328 285.3087,392.1866 284.867,391.5941 285.2171,389.8596 283.8908,386.1612 282.5031,385.2658 281.6432,384.3159 279.5546,383.3707 277.4927,383.5807 276.3724,383.374 275.7832,382.9602 274.0423,382.5812 271.591,382.5525 270.1331,381.9922 268.492,381.3696 267.2427,381.3027 266.1049,381.7823 263.5729,381.7266 260.5612,380.8342 258.7765,381.3808 257.3515,381.9371 257.148,382.0166 257.0113,377.7063 256.9751,376.563" stroke="black" /><polygon fill="none" points="368.2091,263.1838 368.1011,263.1968 367.6307,262.3905 366.9471,261.7339 365.5463,261.2243 364.4801,260.2153 364.294,259.7642 363.8772,259.5886 363.0873,258.9055 362.148,258.7657 361.4997,258.0663 361.031,258.0408 359.9672,256.48 360.155,254.9192 360.7553,253.9606 360.9478,253.3028 360.7785,252.8517 360.8933,251.8924 360.6169,251.4858 360.0778,251.2697 359.358,250.2281 358.8686,250.0792 358.3736,250.1424 358.0176,249.7963 357.0869,249.5509 356.4564,248.8506 356.0219,248.6484 355.8252,248.2399 355.4445,247.9657 353.9126,248.2264 352.5404,247.8054 350.0508,246.0668 349.2829,245.318 348.8476,245.1601 347.0947,245.2776 345.5581,245.0228 343.5858,243.6645 342.1943,243.3216 340.3592,243.9005 338.1354,243.799 337.6389,243.5685 336.568,242.4141 334.9862,241.3485 334.2741,241.0307 331.9971,240.4759 330.0302,240.3046 326.1706,241.1461 323.1853,241.5697 322.2298,241.3411 321.7851,240.9517 321.3755,239.9847 321.4626,238.8675 321.762,238.4676 322.1398,237.4634 322.1653,236.5416 322.0569,235.9829 321.5424,235.2663 321.123,235.08 319.5027,235.0481 318.5039,235.2632 317.1858,236.092 315.4522,237.8351 315.083,238.2064 314.5599,238.4116 313.9841,238.4031 312.9359,237.0968 312.5798,236.3044 312.4179,235.1877 312.6432,232.4289 312.2327,231.0485 311.3096,229.8217 310.8269,229.4226 310.1458,229.0781 307.6828,228.9326 305.9561,229.2478 304.8673,229.6485 303.6609,229.7079 302.6962,229.2903 300.4805,228.8072 298.1496,228.68 296.3747,229.6838 294.2388,231.6811 293.4119,232.2827 293.1099,232.7287 292.102,233.6341 291.84,233.7332 290.4937,234.2401 289.8808,234.3053 289.225,234.1736 288.621,233.828 287.7786,233.0233 287.6958,232.4291 287.1917,231.6006 286.6552,230.1174 286.1838,229.2463 284.5425,227.6617 286.1032,225.1199 286.5184,220.8434 285.6613,217.2954 283.4705,215.1973 275.3647,211.2841 271.6154,210.2362 269.6959,207.3913 268.0862,203.9707 267.534,198.7538 268.5461,195.5842 269.1487,191.8475 272.2996,189.7195 275.4279,186.4753 275.5638,183.2534 278.2705,181.7395 281.5802,181.0139 284.218,178.746 286.0812,175.4833 287.7742,172.5182 292.5447,166.209 294.3199,163.58 296.8664,160.8758 297.2727,160.2997 297.6791,159.7235 298.7823,158.1579 301.3526,154.044 303.9323,150.6504 306.4219,146.9005 308.0107,144.0848 309.8755,141.4984 312.4751,139.1509 317.6215,135.0941 319.0161,132.5717 319.9297,128.7381 320.6428,122.9584 320.6969,122.5173 320.5216,119.4205 320.7729,116.1365 321.4582,112.8189 322.6658,109.8081 323.6506,106.5236 323.4854,103.5687 321.7897,97.0246 321.1811,93.7866 320.3176,90.6592 318.0386,85.698 323.2364,84.6704 326.5223,84.4875 330.2438,85.0748 333.0974,85.7329 335.8373,87.1648 339.8077,88.1871 342.7665,88.2976 345.6971,87.1298 351.562,82.94 354.2127,80.8404 357.9648,78.909 361.441,77.7388 361.9669,77.5617 365.7397,76.6851 366.1933,76.5058 368.6951,75.5173 371.8701,72.849 374.6631,70.13 377.3,68.6594 381.8459,69.0952 384.6397,70.9704 385.5361,73.2556 385.7355,73.7635 385.5192,76.9211 384.6926,80.0816 385.133,83.363 390.8249,85.943 393.3699,87.3556 394.8003,90.0149 394.219,91.7157 393.8147,92.8998 391.1809,95.9131 390.4176,99.2056 392.6092,101.5432 395.5111,104.2333 398.0318,106.3058 396.7692,109.2711 393.3714,110.6972 391.9779,113.3248 394.249,115.4581 397.4018,115.576 398.7509,115.5195 400.4931,115.4465 401.3412,118.31 400.0542,121.0181 402.0501,123.3125 405.8318,122.471 409.5863,121.8247 412.8501,123.8229 416.2988,125.2085 419.9911,124.4559 423.0046,124.8854 426.3478,127.105 427.9668,130.4617 430.6186,132.037 434.1769,130.7338 437.279,131.5594 441.1062,131.7831 443.627,133.8269 446.5045,133.6081 449.3715,132.5467 451.2126,135.7538 453.9544,137.9665 455.4506,138.4406 457.1002,138.9632 458.7016,140.3388 459.5414,141.0602 462.7677,141.9849 462.0826,144.8237 465.289,145.1017 465.288,148.4358 467.0389,151.2544 467.9475,154.5343 468.3605,157.5256 468.3613,157.5313 470.687,159.4245 470.792,163.043 472.3572,165.9409 471.0442,168.7713 472.7678,171.5987 475.5001,173.4289 480.0452,177.9514 435.5237,202.761 415.2794,214.0421 415.0989,214.926 411.1127,234.3947 410.0801,234.0945 408.9019,234.0971 407.8644,233.6479 406.9871,233.4813 404.1678,232.4754 402.8475,232.2929 400.4917,232.5536 399.8633,232.7936 398.4162,234.9799 397.3454,235.8613 395.5087,238.5169 394.8294,239.7966 393.8132,240.953 393.4638,242.3624 393.7554,246.8158 395.179,250.0318 395.4574,251.336 395.4817,254.2739 394.3589,259.9874 393.2689,262.9527 392.554,264.1262 391.4064,265.5215 390.9654,266.3829 390.9578,268.1127 390.7747,268.6383 388.5769,271.7738 388.2214,272.0665 387.1066,272.2562 384.2987,272.0231 381.681,272.021 380.1171,272.2632 379.709,272.0158 379.4058,271.5011 378.9107,271.5483 378.4243,271.9202 377.8752,271.9933 377.3789,271.8791 376.6419,271.109 376.173,271.4028 375.4049,271.3709 374.9943,271.1749 373.8498,269.9976 373.3738,269.1036 371.9841,264.068 371.5216,263.2423 371.14,262.9761 370.6703,262.8893 368.962,263.0937 368.317,263.1709 368.2091,263.1838" stroke="black" /></svg>