<?xml version="1.0" encoding="utf-8" ?>
<svg baseProfile="tiny" height="500" version="1.2" width="405.666" xmlns="http://www.w3.org/2000/svg" xmlns:ev="http://www.w3.org/2001/xml-events" xmlns:xlink="http://www.w3.org/1999/xlink"><defs /><polygon fill="none" points="41.138,149.7854 41.058,149.7429 37.7688,139.8323 37.1714,138.0322 35.9754,134.4284 35.5194,133.0547 35.2422,132.2193 34.9633,131.379 28.7874,130.6151 20.4986,129.5897 16.9418,129.1498 15.1459,128.9276 14.5652,128.7126 14.1419,128.5559 13.6828,128.3859 11.8474,127.7063 9.0586,126.6737 1.1373,123.7406 0.0,123.3195 9.9334,113.1725 11.0441,112.0378 11.1031,111.9776 12.7185,102.5877 13.2612,99.4331 14.8843,96.7439 16.4422,94.163 16.9727,93.516 17.9795,92.2886 26.0141,82.4923 26.0425,82.4638 33.5933,74.8857 34.6148,73.8605 38.0102,70.4529 52.7685,55.6008 53.896,54.4661 55.2905,52.5421 62.3907,42.7463 72.3541,29.0005 72.3782,28.9672 78.754,20.1708 78.9506,19.9369 82.0202,16.2843 87.2196,10.0971 94.2839,1.7004 95.073,0.9985 95.2065,0.8797 95.3184,0.6558 95.5326,0.2663 95.9416,0.1299 96.6395,0.0514 97.586,0.1955 98.0387,0.3806 98.2033,0.5967 98.5119,0.7407 99.016,0.751 99.5715,0.7819 99.8596,0.9671 99.9728,1.1008 100.1065,1.1934 100.7135,1.2448 101.0324,1.2448 101.8143,0.9568 101.8966,0.8127 102.1846,0.2366 102.4521,0.0 102.7813,0.0 103.1826,0.3395 103.4295,0.3806 103.6352,0.4527 103.8821,0.5761 104.1908,0.6173 104.4891,0.8642 105.0652,1.3991 105.2281,1.4908 105.3944,1.5843 105.4767,1.7386 105.6105,1.9547 105.7854,2.0576 105.9397,2.1296 106.0323,2.2427 105.9808,2.5308 106.0529,2.8291 106.1763,2.9835 106.3615,3.0555 106.5878,3.0349 106.8142,3.1686 106.9988,3.39 107.1315,3.4784 107.3305,3.5374 107.36,3.6627 107.2176,3.7751 107.1042,3.7889 106.9927,3.8383 106.9823,3.9696 107.0504,4.1123 107.1315,4.2229 107.1094,4.3408 107.0431,4.4514 107.0209,4.6283 107.0725,4.82 107.161,4.9232 107.1905,5.2106 107.2421,5.3433 107.1684,5.4539 107.0578,5.4686 106.9694,5.5128 106.9546,5.6455 107.0799,5.7782 107.301,6.2647 107.3305,6.6111 107.419,6.9428 107.5885,7.2303 107.6548,7.5546 107.8023,7.7757 107.8318,7.9747 107.7359,8.2769 107.7309,8.5309 107.7064,8.874 107.7949,9.132 108.134,9.272 108.5025,9.7216 108.7752,10.4292 108.7906,10.6086 108.7973,10.6872 108.9448,10.96 109.2027,11.159 109.2765,11.2916 109.2101,11.5496 109.0553,11.8002 108.9736,11.9255 109.0111,12.1319 109.1585,12.1983 109.4165,12.213 109.6376,12.4784 109.7335,12.7953 109.6892,13.3113 109.7026,13.7181 109.6539,13.8263 109.5849,13.9796 109.5685,14.1002 109.5962,14.2264 109.6765,14.3654 109.6405,14.5068 109.5452,14.5795 109.3887,14.6466 109.3871,14.6505 109.343,14.7578 109.3445,14.7722 109.353,14.8511 109.3626,14.9409 109.2318,15.2351 109.0945,15.4771 108.9898,15.6602 108.9898,15.8498 109.0537,15.9413 109.1111,16.0111 109.1877,16.0924 109.2367,16.1456 109.306,16.1714 109.4208,16.1312 109.5111,16.0094 109.6559,15.9209 109.8735,15.7774 110.0485,15.6584 110.1039,15.6047 110.3381,15.3776 110.9165,15.2174 110.9786,15.1791 111.2702,14.9989 111.9984,14.7513 112.4499,14.8532 112.9597,14.7513 113.2655,14.3872 113.6879,14.0231 114.2559,13.6589 114.5618,13.6152 114.8514,13.8081 115.092,13.8094 115.0994,13.8095 115.3079,13.9727 115.6343,14.426 116.1148,15.0334 116.6135,15.6772 116.9217,15.8766 117.3025,15.8041 117.783,15.6681 118.1229,15.7214 118.35,15.921 123.4287,19.0105 123.67,19.158 124.6017,19.2856 124.8442,19.2856 125.7121,19.5919 127.1926,20.179 127.7541,20.4853 128.2902,20.6385 130.077,20.8682 130.3678,20.8176 130.6906,20.9497 131.0575,20.9497 131.3803,20.891 131.6885,20.9204 131.9379,20.803 132.2901,20.8763 132.6717,21.2726 133.1266,21.4046 133.8897,21.434 134.7261,21.5074 135.3131,21.6541 135.8854,21.9623 136.942,22.4025 137.3235,22.4759 137.7784,22.3878 138.2187,22.2998 138.7029,22.3878 139.0404,22.74 139.422,23.0335 140.2437,23.371 141.0362,23.5911 142.3862,23.8846 143.0319,23.8846 143.3841,23.8553 144.0298,24.0607 145.0277,24.4129 145.7614,24.3836 146.7006,24.2955 147.2582,24.1194 147.8158,24.3249 148.5495,24.2368 149.2246,23.8259 149.8409,23.8259 151.2203,24.0314 152.2182,23.9433 153.0106,23.7379 153.5095,23.7672 154.5661,24.4129 155.0026,24.7206 155.1634,25.0421 155.4581,25.2832 156.1814,25.2564 156.6904,25.3368 156.9851,25.6851 157.3232,25.9452 157.6816,26.2208 158.2174,26.5423 158.5975,26.7171 159.0586,26.8752 159.467,27.0992 159.8451,27.469 159.8603,27.4839 160.6133,28.2191 160.7187,28.5748 160.882,28.9471 161.1271,29.4707 161.3906,29.9055 161.5487,30.3139 161.6541,30.4852 161.8122,30.6696 162.023,30.6565 162.6027,30.4193 163.0902,30.4852 163.9729,30.7487 164.2685,30.827 164.7752,31.1778 165.2625,31.5871 165.3989,32.1718 165.3794,32.9514 164.9896,33.7895 164.8337,34.3548 164.8727,34.7056 165.165,34.8615 165.4208,35.318 165.5927,36.1963 165.421,36.2085 165.3229,36.2722 165.299,36.3624 165.3861,36.4457 165.3282,36.5613 165.238,36.5826 165.1809,36.6679 165.1902,36.8452 165.3603,37.0911 165.6812,37.8071 165.6319,38.4243 165.6072,39.2391 165.459,39.8069 165.5084,40.1526 165.8294,40.5476 166.2985,41.5105 166.6194,42.0784 166.6194,42.5722 166.2985,43.5598 166.0516,44.2758 165.901,44.4899 165.5904,44.6625 164.8867,44.5514 164.6067,44.5072 164.4286,44.5188 163.8128,44.559 163.5539,44.9387 163.623,45.2666 163.5885,45.5599 163.3641,45.8361 163.3613,45.8379 162.2251,46.5782 161.0515,47.9243 160.7409,48.4938 160.6915,49.0152 160.4184,49.7233 159.9529,50.4901 159.8544,50.6523 159.6553,51.4154 159.7106,52.3333 160.0668,53.246 159.6774,54.3903 159.5337,55.2971 159.4231,55.7285 158.9033,55.9939 157.3771,55.9165 156.7357,56.2261 156.5809,56.7791 156.5919,57.1551 156.6472,57.3873 156.5145,57.5643 156.1606,57.6196 155.7846,57.9624 155.1284,59.2888 154.2584,61.5677 151.6286,63.7561 151.2803,64.8502 151.4536,65.2724 151.7258,65.9357 151.7591,66.8525 151.1885,69.3808 151.1849,69.3998 151.146,69.6064 151.146,69.6079 150.9957,70.5369 151.269,71.2414 151.5546,71.5532 151.4414,71.8837 150.9718,72.4396 150.5609,72.7404 150.453,72.8194 149.9169,73.4525 149.3593,74.3248 148.9999,75.0774 148.9183,75.3489 148.9214,75.5251 149.0,75.8391 148.8065,76.1477 148.7151,76.4096 148.5051,76.5789 148.4641,76.9261 148.4672,76.9856 148.4849,77.3268 148.486,77.3471 148.3884,77.4421 148.2695,77.66 148.112,77.803 147.9847,78.022 147.9146,78.1276 147.8253,78.262 147.6931,78.545 147.5764,78.8591 147.4896,79.0378 147.461,79.3499 147.3281,79.6406 147.5525,79.9074 147.7059,80.0161 147.892,79.9775 147.9762,80.0274 148.1009,80.1012 148.2794,80.3458 148.3304,80.5361 148.2863,80.6318 148.2671,80.7501 148.1913,80.8758 148.142,80.9575 148.0455,81.1123 147.9316,81.4164 147.9707,81.5695 148.0697,81.6037 148.1338,81.638 148.1148,81.8138 148.0743,81.9267 148.1119,82.304 148.1143,82.5145 148.1689,82.7358 148.2097,82.8426 148.2685,83.1731 148.3215,83.5394 148.2988,83.8532 148.2855,84.1067 148.3018,84.2312 148.1897,84.3271 148.1598,84.4043 148.2583,84.4909 148.2627,84.6354 148.287,84.7466 148.1631,84.9349 148.1332,85.0222 148.1714,85.1368 148.1295,85.2695 148.1177,85.383 148.0458,85.488 148.0592,85.6478 148.0841,85.705 148.0784,85.9571 148.0127,86.1815 147.9324,86.3034 147.9116,86.5404 147.9548,86.8602 148.0308,87.0469 148.0264,87.2125 147.9367,87.3244 147.9276,87.577 147.7924,87.7226 147.769,87.8862 147.7503,88.0927 147.8245,88.4117 147.7961,88.5222 147.7747,88.6073 147.7986,88.7437 147.7465,89.0281 147.7871,89.1061 147.7962,89.2848 147.8635,89.4993 147.8163,89.7159 147.8971,89.8372 147.9274,89.8635 147.9896,89.9174 148.1693,90.1715 148.1953,90.3704 148.2705,90.5261 148.3169,90.6305 148.6035,90.8409 148.9029,91.1641 149.1921,91.3638 149.3625,91.5437 149.457,91.8438 149.5372,92.0315 149.5092,92.2237 149.6798,92.4917 149.664,92.6638 149.6384,93.0276 149.5334,93.196 149.4787,93.2482 149.3794,93.2464 149.3756,93.4089 149.3499,93.7597 149.2151,93.8407 149.2117,93.8428 149.1814,94.0888 149.1492,94.3405 148.9254,94.5947 148.8569,94.6792 148.8082,94.8122 148.7311,94.905 148.7313,94.9773 148.8269,95.0133 149.044,95.0943 149.0923,95.2001 149.0573,95.284 148.9817,95.3311 148.8825,95.4015 148.9122,95.5201 148.9862,95.6764 149.1561,95.8057 149.3065,96.0091 149.4192,96.2915 149.4709,96.6379 149.5934,96.7786 149.7918,96.7983 150.0015,96.9407 150.1114,97.0898 150.2164,97.2324 150.4658,97.3109 150.6684,97.3142 150.8671,97.2202 150.9875,97.2511 150.9692,97.3227 151.0647,97.4237 151.1592,97.5064 151.3193,97.4676 151.4314,97.4749 151.5632,97.6023 151.8153,97.7297 152.0472,97.7665 152.199,97.8931 152.1924,98.1582 152.2051,98.2721 152.2666,98.4028 152.0868,98.5436 151.87,98.8209 151.8161,98.9651 151.6781,99.2508 151.7194,99.405 151.6657,99.6208 151.5854,99.6711 151.5482,99.7935 151.4827,100.0453 151.4098,100.1567 151.4424,100.4057 151.3882,100.6147 151.274,101.2781 151.0714,101.7817 150.6647,102.5519 150.375,103.2644 150.3008,103.4642 150.0214,104.2158 149.5479,104.8512 149.4494,105.8593 149.294,106.4823 149.2103,106.8178 148.9947,107.3794 148.7444,108.0316 148.6123,108.7553 148.5006,109.4155 148.4623,109.642 148.7456,110.2189 148.9028,110.5392 149.0078,110.7304 149.1241,110.9419 149.187,110.9912 149.5308,111.2604 149.9958,111.6287 149.9977,111.6339 150.1987,112.1663 150.3638,112.6582 150.37,112.6765 150.3895,112.7347 150.3854,112.7499 150.3821,112.7619 150.3782,112.7762 150.3516,112.8744 150.2597,113.2126 149.4283,114.3514 149.3084,114.5308 149.2381,114.6359 146.3839,118.9064 143.7714,121.2756 143.5832,123.1493 142.7014,125.5141 142.2356,125.9056 142.0862,126.0311 141.861,126.2205 139.6837,128.0505 138.2271,130.3479 137.9619,130.6079 137.423,131.1362 133.2882,132.9501 132.388,133.6974 130.3086,134.0285 129.9543,134.5917 129.651,136.708 128.7342,137.0094 126.4899,137.0135 125.7204,137.9665 124.921,140.175 124.2312,140.1317 123.3594,140.2846 122.9916,140.9292 122.7635,141.7564 122.5327,142.0326 121.7929,142.4492 120.9098,141.9481 119.8428,141.7688 119.3784,141.7777 119.1027,142.093 118.9669,142.8288 118.0897,143.7048 117.0255,144.1678 116.7913,144.6367 116.5763,145.0671 116.7563,146.1609 117.1793,147.6285 116.8154,149.1906 115.8448,149.8835 114.6874,150.2558 113.1094,149.8491 112.0442,150.0829 111.4439,150.6364 111.5433,152.2429 111.2681,152.887 107.7491,153.82 106.5949,155.018 105.3453,155.5741 103.867,155.9783 101.7907,156.1256 100.7291,157.3809 98.9793,158.9802 97.3259,159.6256 95.3334,159.8004 93.6553,161.0844 93.7971,162.0165 93.2634,163.0838 92.2813,164.2417 92.196,165.3068 91.5736,166.6407 89.2502,169.0463 87.0114,170.0319 86.2009,169.2363 84.2243,168.712 80.9076,169.6132 79.9265,170.9479 77.2474,174.1538 76.7096,174.2448 71.5154,176.8393 69.2725,177.0263 68.0199,177.8298 66.1454,180.3225 64.2721,183.0813 62.8384,183.6192 60.8634,183.4494 60.1481,184.0736 58.9862,185.2478 54.3881,185.5371 54.1893,185.438 53.7765,185.3233 53.3736,185.2959 52.9498,185.4949 52.672,185.8309 52.554,186.0709 52.422,186.256 52.2067,186.3726 51.6787,186.4276 51.1715,186.366 50.713,186.229 50.3308,185.9342 49.9486,185.5915 49.7262,185.1528 49.6351,184.8183 49.5795,184.6194 49.5864,184.3315 49.4543,184.1258 49.2459,183.9544 48.8846,183.8585 48.2732,183.6735 47.6687,183.3926 47.0851,183.1047 46.4529,182.8306 45.8067,182.4399 45.3481,182.0698 44.8826,181.7065 44.4517,181.307 44.0208,180.546 43.6108,179.689 42.9436,178.4756 42.4989,177.6187 42.325,176.8028 42.2545,175.9235 42.3073,175.3625 42.5716,175.0232 42.9549,174.6448 43.3515,174.3185 43.6686,173.901 43.8139,173.2617 43.9196,172.6745 44.1146,172.1329 44.1168,172.1269 44.1199,172.1265 44.3279,171.506 44.387,171.0681 44.3573,170.815 44.1897,170.6399 43.9431,170.3674 43.5584,169.696 43.3709,169.151 43.3709,168.898 43.43,168.5184 43.6468,168.129 43.7355,167.8371 43.627,167.4867 43.41,167.0488 43.0549,166.5281 42.6209,166.0415 42.2265,165.7691 41.9503,165.5648 41.8517,165.2631 41.891,164.8349 42.029,164.3969 42.029,164.0952 41.8218,163.8617 41.3255,163.5182 40.9212,163.2166 40.6845,163.1096 40.2901,163.1096 39.6886,163.0027 39.235,162.7984 38.7814,162.5551 38.3179,162.4871 37.9432,162.4872 37.5883,162.5067 37.322,162.497 37.1248,162.4581 37.0163,162.3316 37.0163,162.1856 37.0261,161.9618 37.1543,161.7476 37.2824,161.5822 37.45,161.3583 37.5091,160.9593 37.5879,159.9763 37.6272,159.6454 37.5878,159.4215 37.4497,159.2172 37.2623,158.9739 37.0059,158.7695 36.9959,158.3997 37.0057,158.0104 37.1658,157.5097 37.2644,157.1594 37.3446,157.0801 37.4517,156.9744 37.6587,156.8965 37.7548,156.8931 37.9348,156.8867 38.1813,156.7991 38.7137,156.5557 38.9602,156.4486 39.1673,156.3513 39.463,156.069 39.7883,155.7964 40.0841,155.4655 40.3798,155.1151 40.7285,154.828 40.9338,154.645 41.0342,154.5555 41.1426,154.3122 41.4088,154.0883 41.4658,154.0792 41.7144,154.0396 41.9511,154.0687 42.2271,154.0589 42.5328,153.9518 42.8286,153.8447 42.9666,153.6014 42.8777,153.0856 42.8283,152.6184 42.7987,152.0832 42.9071,151.6841 42.9366,151.3143 42.7886,150.8861 42.4533,150.5163 42.0983,150.312 41.9494,150.2228 41.5461,149.9812 41.2503,149.845 41.138,149.7854" stroke="black" /><polygon fill="none" points="174.4097,310.2409 175.3088,312.9779 175.9935,315.062 176.1883,315.6548 178.5627,322.8825 178.5479,322.8745 172.6744,319.1927 171.3532,318.3641 169.5019,317.2042 169.3207,317.0907 142.7761,300.4488 142.6921,300.3961 135.9481,296.1683 136.3371,294.922 136.5381,294.282 136.6437,293.9458 141.0221,279.9547 141.0223,279.954 141.3962,278.7593 141.9341,278.6556 142.8156,278.4942 144.2199,278.2343 144.8758,278.1192 145.8902,277.9302 146.4968,277.8182 146.6514,277.7953 146.7328,277.8032 146.8994,277.801 147.0593,277.792 147.185,277.7501 147.3483,277.7143 147.889,277.5635 148.2388,277.4365 148.5152,277.3394 148.6914,277.293 148.8046,277.2538 149.4668,276.9987 149.8866,276.8284 150.3587,276.6432 150.7591,276.4938 150.9892,276.4041 151.1356,276.3384 151.3164,276.2443 151.5898,276.1203 151.8565,275.997 151.9289,275.9694 151.9775,275.9283 152.0261,275.8956 152.0821,275.8088 152.1269,275.746 152.4077,275.5159 152.7155,275.2649 153.5805,274.5702 153.7792,274.4179 153.9147,274.3018 154.1617,274.1235 154.5905,273.7889 154.6786,273.7306 154.7593,273.6873 154.8549,273.6574 154.9266,273.6425 155.0842,273.6391 155.9694,273.6395 156.6848,273.5941 157.1099,273.5061 157.7443,273.4049 158.7703,273.2313 159.316,273.148 159.9255,273.0464 160.4096,272.9836 161.2163,272.8641 164.2297,272.3815 164.4344,272.3606 164.8796,272.2844 165.5406,272.1733 167.4672,271.5793 168.1962,271.3298 168.6235,271.1893 169.2346,270.9623 169.5005,270.8801 169.7933,270.783 170.0503,270.6933 170.2296,270.6261 170.3954,270.5783 170.9243,270.4304 171.8386,270.1271 172.0866,270.0106 172.2987,269.909 172.4015,269.843 172.6379,269.7402 172.8709,269.6401 173.1115,269.5206 173.2526,269.4305 173.5208,269.2576 174.0034,268.9678 174.3291,268.778 174.4173,268.7173 174.5756,268.6555 174.9566,268.4957 175.3734,268.3672 175.5063,268.3597 176.8183,268.2524 177.1184,268.2223 177.4037,268.1775 177.9348,268.0475 178.0215,268.0243 178.3023,267.9354 178.4966,267.8548 178.938,267.7614 179.4221,267.6807 179.6611,267.6568 179.7268,267.6631 179.9554,267.724 180.1556,267.7584 180.3741,267.7479 180.4843,267.724 180.5426,267.7046 180.6412,267.6538 180.7458,267.5896 180.946,267.4043 181.1342,267.2235 181.4524,266.9218 181.6954,266.7027 181.9828,266.481 182.0537,266.4251 182.062,266.4308 182.0776,266.4381 182.1071,266.4302 182.1776,266.3857 182.2185,266.3599 182.5648,266.1797 183.1239,265.9296 183.5279,265.756 183.8037,265.6444 184.0131,265.5781 184.2306,265.5463 184.4467,265.529 184.8588,265.5368 185.1502,265.5446 185.4285,265.5501 185.5278,265.5461 185.6822,265.5209 186.0245,265.4731 186.1291,265.4544 186.1973,265.4461 186.204,265.4508 186.2503,265.4409 187.1465,265.2507 187.4261,265.1899 187.5844,265.1615 188.3867,265.0958 188.5809,265.0988 188.6513,265.1073 189.301,265.3961 189.4446,265.454 189.4827,265.4632 189.5741,265.4632 190.0467,265.33 190.3752,265.2601 190.8055,265.1137 190.9885,265.0532 191.1476,265.0002 191.4923,264.9259 191.8423,264.8799 192.2098,264.8351 192.6476,264.8067 192.912,264.7566 193.0689,264.7238 193.5156,264.6102 193.6022,264.5856 193.6509,264.5716 193.6866,264.5437 194.034,264.2584 194.312,264.0127 194.5203,263.8199 194.6279,263.7265 194.6861,263.6825 195.1104,263.4374 195.4645,263.2821 196.0083,263.049 196.5715,262.8025 197.1141,262.5604 197.2352,262.4978 197.3066,262.4638 197.5884,262.3159 197.6424,262.2853 197.6612,262.2745 197.6646,262.2722 197.7023,262.2497 197.8375,262.1743 197.902,262.1398 197.9006,262.139 197.9418,262.116 197.9745,262.085 198.0575,262.0089 198.0993,261.9711 198.1317,261.9322 198.2041,261.848 198.2858,261.7584 198.3914,261.6408 198.4478,261.5822 198.495,261.5173 198.5986,261.3949 198.6623,261.3191 198.8747,261.1055 198.9913,260.985 199.24,260.7414 199.5048,260.5336 199.5769,260.4791 199.7198,260.4233 200.1702,260.2355 200.4222,260.1349 200.6075,260.0582 200.8725,259.9497 201.1772,259.8132 201.2419,259.7793 201.2776,259.7709 201.3544,259.8047 205.0966,261.7289 205.0979,261.7295 207.9998,263.2216 208.0689,263.2571 209.4518,263.9704 209.7784,264.1369 210.8309,264.6776 218.5535,268.644 219.2055,268.9789 219.5596,269.1652 219.5627,269.1669 219.6664,269.2195 219.6965,269.235 219.7127,269.2433 222.9271,270.8967 234.3443,276.7671 239.5456,279.4414 239.6556,279.498 239.6662,279.5034 239.7189,279.5305 238.5957,282.2284 238.0153,283.6263 237.8698,283.9769 237.8014,284.1705 237.3838,285.1846 236.5115,287.3029 236.3333,287.7193 236.156,288.1535 236.1311,288.1197 233.7633,284.8757 232.8533,283.6299 232.7236,283.4523 225.1394,286.763 223.8895,287.3086 213.4002,291.8874 198.3595,298.9668 198.3591,298.9669 174.4097,310.2409" stroke="black" /><polygon fill="none" points="374.0921,253.403 371.6408,260.5808 370.9211,261.0207 370.9917,261.1515 355.8036,271.1591 351.8733,273.7488 350.01,274.9766 349.7508,275.1474 333.5531,285.8202 333.467,285.8165 326.3311,285.5064 326.0293,285.495 325.962,272.618 307.9912,271.6205 308.6647,268.7872 308.9705,268.0619 309.6421,265.2839 309.9101,264.4441 310.0586,263.5201 309.3367,261.5889 309.3515,261.0419 310.4755,259.9479 311.4554,259.342 311.5263,259.2981 312.5427,258.6697 313.7937,257.5908 314.7062,256.4644 315.557,255.2837 316.4706,253.7783 317.7372,251.9456 321.6826,247.1841 323.2854,245.5621 324.0067,244.4215 324.4594,243.9717 324.4772,243.954 324.905,243.5289 326.2547,242.6447 328.0332,241.7008 329.1699,241.1881 330.5969,239.7242 331.3958,238.3351 332.3427,236.4321 333.1299,234.597 333.9176,232.1357 334.622,228.74 335.9507,227.1058 337.9415,225.8834 339.9114,224.3342 341.5637,222.5655 342.3363,220.9418 342.3655,217.9386 342.158,215.0419 342.6883,212.5725 343.9055,210.387 345.9728,207.8521 347.9909,205.801 349.3891,204.6144 351.2969,203.6161 353.6502,203.0333 355.9451,202.9582 357.2448,203.1795 358.4966,203.6028 359.5234,203.8376 360.6757,203.2624 360.6759,203.2602 360.6768,203.2624 360.8671,200.609 361.9722,197.4369 362.4836,197.2556 362.4845,197.2554 363.2864,197.9422 364.5644,199.8472 366.4831,201.7335 367.635,202.3052 368.8584,202.5667 368.8594,202.5668 370.9462,202.496 370.9472,202.4959 375.2801,201.2713 375.2811,201.2711 377.4566,201.2288 377.4577,201.2288 379.8944,202.2089 382.0257,204.5984 383.3067,206.9491 384.2509,210.3826 386.5034,215.8397 389.9738,220.1634 391.9724,223.5067 398.9549,225.7463 398.9559,225.7466 401.1286,226.195 404.0547,226.7989 404.0556,226.7992 405.666,227.3824 397.2855,236.0266 393.5774,235.4494 380.7652,233.3089 379.9662,234.1622 379.5303,234.7978 379.4173,235.4948 379.371,236.884 379.1297,238.3688 378.683,239.4412 378.2347,240.353 377.9598,241.5884 377.7644,242.8347 376.4722,246.4358 375.4198,249.5162 374.174,253.1631 374.0921,253.403" stroke="black" /><polygon fill="none" points="230.368,162.7904 223.5418,165.3847 222.986,165.596 222.9808,165.598 200.2914,174.2212 195.7132,175.5087 195.6531,175.5256 195.1988,175.6534 174.9969,181.3346 174.9429,181.3498 174.8146,181.3859 154.6456,187.0579 155.6042,189.747 160.6406,203.8739 161.7441,206.9692 161.874,207.3335 163.5008,211.8965 158.1302,210.6672 157.6753,210.5631 147.7845,208.2991 147.2598,208.179 121.7461,202.3391 89.2092,194.8916 54.3881,185.5371 58.9862,185.2478 60.1481,184.0736 60.8634,183.4494 62.8384,183.6192 64.2721,183.0813 66.1454,180.3225 68.0199,177.8298 69.2725,177.0263 71.5154,176.8393 76.7096,174.2448 77.2474,174.1538 79.9265,170.9479 80.9076,169.6132 84.2243,168.712 86.2009,169.2363 87.0114,170.0319 89.2502,169.0463 91.5736,166.6407 92.196,165.3068 92.2813,164.2417 93.2634,163.0838 93.7971,162.0165 93.6553,161.0844 95.3334,159.8004 97.3259,159.6256 98.9793,158.9802 100.7291,157.3809 101.7907,156.1256 103.867,155.9783 105.3453,155.5741 106.5949,155.018 107.7491,153.82 111.2681,152.887 111.5433,152.2429 111.4439,150.6364 112.0442,150.0829 113.1094,149.8491 114.6874,150.2558 115.8448,149.8835 116.8154,149.1906 117.1793,147.6285 116.7563,146.1609 116.5763,145.0671 116.7913,144.6367 117.0255,144.1678 118.0897,143.7048 118.9669,142.8288 119.1027,142.093 119.3784,141.7777 119.8428,141.7688 120.9098,141.9481 121.7929,142.4492 122.5327,142.0326 122.7635,141.7564 122.9916,140.9292 123.3594,140.2846 124.2312,140.1317 124.921,140.175 125.7204,137.9665 126.4899,137.0135 128.7342,137.0094 129.651,136.708 129.9543,134.5917 130.3086,134.0285 132.388,133.6974 133.2882,132.9501 137.423,131.1362 137.9619,130.6079 138.2271,130.3479 139.6837,128.0505 141.861,126.2205 142.0862,126.0311 142.3086,126.0563 189.8591,131.4413 191.084,131.58 194.7408,131.9372 197.1597,132.1735 212.9691,133.7177 215.9076,129.977 217.2407,128.2801 217.4969,127.954 218.1232,127.1568 233.0661,108.1354 233.1714,108.0014 233.5638,108.4748 234.4256,108.5964 234.4265,108.5967 237.5078,109.9196 239.1096,111.3158 239.8051,111.6574 240.057,111.7812 242.3653,111.6848 242.5552,111.9166 242.4573,112.3406 242.3329,112.8797 242.6833,114.4728 243.8177,115.2312 243.8805,115.2734 243.9352,115.3101 243.9362,115.3106 246.5836,118.2512 247.8867,120.0937 250.047,121.8081 250.428,122.8391 251.2992,123.3077 252.3728,125.987 253.5214,127.3594 252.4029,128.242 251.4702,129.867 252.723,131.5169 253.654,133.3392 255.0296,134.5381 254.8879,135.2916 255.8651,137.3338 257.2628,137.5366 258.3814,138.0341 259.1066,139.2196 259.1042,141.6814 259.65,142.2933 259.4076,145.5345 259.7988,148.2997 260.9277,149.0408 261.8606,150.1577 261.6054,150.9182 261.4782,150.9668 230.368,162.7904" stroke="black" /><polygon fill="none" points="239.7369,349.3195 246.5203,355.5186 248.3765,356.0577 252.9493,360.4268 252.7215,361.1325 252.635,361.6913 252.7288,362.5414 252.7293,362.6353 252.6443,363.4916 252.6526,363.5098 252.8304,363.9029 252.8483,363.9143 253.7007,364.4629 253.082,365.2704 252.913,365.6375 252.2734,367.0262 252.8007,366.9188 253.3246,366.893 253.3613,366.901 253.7669,366.9893 257.6385,369.4307 256.5027,371.3197 252.9602,377.2108 252.9494,377.2289 252.8609,377.376 248.3219,384.9246 248.1238,385.2541 247.5084,384.9045 246.1446,384.8708 244.9951,384.9194 243.4198,385.7406 241.1635,386.3071 239.3009,386.5394 237.8091,386.5036 236.0188,386.7078 233.77,387.1135 232.6171,387.4175 230.2251,387.4988 228.9634,387.4322 227.8395,386.5515 226.3156,386.0912 225.239,386.1559 223.5243,386.491 221.3894,386.6701 218.99,387.0932 215.3614,387.2825 213.4581,388.1586 211.1974,388.2235 208.2465,389.1137 204.0285,389.4246 195.7937,391.351 191.2321,392.4181 188.3061,391.7658 187.0594,391.4879 186.9992,391.4746 188.4357,388.5736 188.1014,388.0428 188.3048,387.6419 189.2272,385.7796 190.1809,383.8678 191.0175,382.1801 192.0804,380.0742 192.7803,378.6931 194.3351,375.6104 195.1614,373.9582 196.4238,371.4554 198.1292,368.1482 198.8673,366.6729 200.1369,364.2167 201.2491,362.0159 201.2683,361.978 202.6165,359.3549 203.3935,357.805 204.312,356.0171 205.7013,353.3033 206.7983,351.1399 207.8468,349.1091 207.9645,348.8823 208.5079,347.8347 209.3922,346.0971 211.2484,342.4902 211.6721,341.6687 212.9115,339.2657 212.9163,339.2562 213.3518,338.3873 213.864,337.4079 214.5161,336.074 215.4509,334.2866 216.5845,332.0978 216.8563,331.5569 217.2854,330.7031 217.865,329.5495 217.9409,329.4013 222.2254,333.3166 222.2843,333.3704 231.7824,342.0503 239.7369,349.3195" stroke="black" /><polygon fill="none" points="231.7824,342.0503 222.2843,333.3704 222.2254,333.3166 217.9409,329.4013 217.865,329.5495 217.2854,330.7031 216.8563,331.5569 216.5845,332.0978 215.4509,334.2866 214.5161,336.074 213.864,337.4079 213.3518,338.3873 212.9163,339.2562 212.8769,339.2373 194.6853,330.5687 194.4688,330.4655 193.0705,329.7995 192.9586,329.7462 178.9382,323.0615 178.5627,322.8825 176.1883,315.6548 175.9935,315.062 175.3088,312.9779 174.4097,310.2409 198.3591,298.9669 213.4002,291.8874 223.8895,287.3086 225.1394,286.763 232.7236,283.4523 232.8533,283.6299 233.7633,284.8757 236.1311,288.1197 236.156,288.1535 236.3333,287.7193 236.5115,287.3029 237.3838,285.1846 237.8014,284.1705 237.8698,283.9769 237.9664,283.9559 238.5615,283.8256 249.784,301.7212 249.9312,301.9336 249.9418,301.9488 262.2109,319.6479 262.271,319.7346 262.361,319.8274 285.7753,343.9567 290.7621,342.2813 294.1342,341.1485 301.3167,338.7355 314.1229,334.4331 315.1299,334.0948 315.8618,333.8489 324.1827,331.0535 324.7207,330.5937 311.3687,362.6291 309.0888,368.0995 309.0868,368.1042 306.4747,374.3714 305.6212,376.4192 305.6158,376.4218 305.6006,376.4251 305.5809,376.4258 305.5658,376.4232 305.2742,376.271 305.0471,375.9985 305.0716,375.5905 305.6347,374.5736 305.7118,374.3073 305.5392,374.0499 305.2792,373.8659 305.1209,373.7766 304.9205,373.7655 304.6565,373.9347 304.4723,374.0733 304.337,374.1751 304.11,374.2715 303.8001,374.1455 303.5446,373.9215 303.2073,373.6816 302.9801,373.2046 302.912,372.7958 302.6167,372.5687 302.2079,372.4097 301.7587,372.4778 301.163,372.4551 300.7314,372.7277 300.527,373.1138 300.2317,373.5454 299.9247,373.6355 299.3005,373.3864 298.6872,373.0229 298.4373,372.7049 298.3389,372.0785 298.3991,371.4956 298.6323,370.9128 298.8566,370.7134 299.2318,370.3799 299.573,369.7294 300.0727,368.8663 300.6406,368.4347 301.4197,368.1173 301.3583,368.0986 281.0516,361.9297 278.274,361.0858 278.2046,361.0648 278.1351,361.0437 277.8867,360.9682 244.8827,350.944 244.2486,350.321 244.0135,350.6144 244.1911,351.4171 245.0396,352.8584 245.9834,354.4139 247.3644,355.0906 248.3765,356.0577 246.5203,355.5186 239.7369,349.3195 231.7824,342.0503" stroke="black" /><polygon fill="none" points="262.2109,319.6479 249.9418,301.9488 249.9312,301.9336 249.784,301.7212 238.5615,283.8256 237.9664,283.9559 237.8698,283.9769 238.0153,283.6263 238.5957,282.2284 239.7189,279.5305 239.7564,279.4345 240.0761,279.4265 240.6164,279.4128 242.1255,278.8623 242.9716,278.7334 244.656,278.1102 246.6443,277.7781 248.409,278.0183 249.5946,278.3802 251.7936,278.1683 251.8792,278.16 253.7475,277.9795 255.9003,277.3595 257.5808,277.2926 258.9599,277.63 261.3477,277.5959 263.8975,277.2339 265.5475,276.6714 267.0562,275.9956 268.7692,275.7371 269.4136,276.3137 270.3889,277.0061 271.9042,276.2643 272.7175,275.1395 273.4381,273.8676 273.599,273.0941 273.406,271.8491 274.0289,270.8328 275.1389,270.7218 276.8369,270.3728 277.197,270.1335 277.7842,269.7433 278.7261,269.6054 279.5754,269.4808 281.2615,269.6441 282.3502,269.8349 286.926,270.154 287.3167,270.1812 301.0208,271.1358 301.3649,271.1597 304.2542,271.3605 304.2602,271.3609 307.9912,271.6205 325.962,272.618 326.0293,285.495 326.3311,285.5064 333.467,285.8165 333.5531,285.8202 333.4991,285.844 333.4288,285.9059 333.414,285.9285 333.3903,285.9647 333.3547,286.0359 333.3327,286.1003 333.2842,286.2422 333.2286,286.5023 333.1834,286.7178 333.1417,286.9231 333.1035,287.101 333.0653,287.2321 333.041,287.3638 333.0288,287.4853 333.0149,287.6051 333.007,287.6492 332.994,287.7214 332.9853,287.812 332.9298,287.9694 332.9055,288.084 332.8812,288.1856 332.8811,288.1942 332.8447,288.3652 332.8377,288.5124 332.8272,288.6749 332.8081,288.8323 332.8427,288.9726 332.8999,289.1026 332.9467,289.1779 332.9975,289.268 333.0478,289.3775 333.0703,289.5161 333.0806,289.6667 333.1257,289.7796 333.176,289.9083 333.2604,290.0451 333.2678,290.0571 333.3649,290.2111 333.4568,290.3224 333.5053,290.4216 333.5365,290.5345 333.5451,290.6423 333.5382,290.7415 333.5416,290.8715 333.5415,291.0204 333.5658,291.1693 333.5675,291.2788 333.5778,291.4122 333.5778,291.5405 333.5708,291.6517 333.5673,291.7646 333.5655,291.8707 333.6019,291.9699 333.6175,292.0863 333.6383,292.2231 333.659,292.3942 333.6503,292.5909 333.6103,292.8578 333.5912,293.1059 333.5913,293.1204 333.5928,293.2528 333.6066,293.5265 333.6351,293.6716 333.6499,293.7472 333.6811,293.9611 333.6914,294.151 333.6833,294.2787 333.6827,294.2879 333.6324,294.4095 333.549,294.56 333.5143,294.678 333.5073,294.8217 333.5524,294.9911 333.639,295.1485 333.6997,295.2563 333.7222,295.4305 333.7638,295.6255 333.7953,295.6893 333.8296,295.759 333.8747,295.877 334.0567,296.127 334.1937,296.3939 334.2336,296.5086 334.2664,296.6027 334.3253,296.8542 334.3669,297.08 334.403,297.2575 334.3978,297.4115 334.3665,297.5141 334.3179,297.5979 334.2485,297.6903 334.1529,297.7713 334.1375,297.7844 334.0299,297.9109 333.9847,298.0495 333.9777,298.2333 334.0089,298.3924 334.0349,298.5139 334.0886,298.6593 334.0972,298.8167 334.085,299.0169 334.0642,299.1965 334.0762,299.3436 334.0866,299.513 334.1143,299.6978 334.1316,299.8364 334.1714,299.992 334.1905,300.1244 334.2459,300.3331 334.2684,300.4751 334.2735,300.6531 334.2666,300.8258 334.2509,301.0243 334.2127,301.231 334.1415,301.3421 334.0686,301.4841 333.9992,301.5867 333.9506,301.715 333.9401,301.9083 333.9559,302.1494 333.9869,302.2897 334.0164,302.441 334.0199,302.463 334.0445,302.6159 334.0472,302.8088 334.0246,302.9754 333.9669,303.178 333.9274,303.3418 333.8837,303.5015 333.8401,303.5903 333.764,303.6666 333.6613,303.8012 333.5557,303.8956 333.4149,303.9816 333.1593,304.0696 332.9834,304.1445 332.7722,304.2374 332.6441,304.2748 332.4757,304.3164 332.293,304.3593 332.072,304.3676 331.8877,304.3161 331.7048,304.2453 331.5584,304.1619 331.405,304.0772 331.2671,304.055 331.1531,304.0785 331.0395,304.1243 330.934,304.1909 330.8284,304.2422 330.6693,304.2949 330.5638,304.3435 330.4821,304.3851 330.3892,304.4378 330.2864,304.521 330.1949,304.5835 330.0922,304.657 329.9753,304.7153 329.8937,304.7666 329.7055,304.8885 329.5647,304.9815 329.4071,305.0939 329.2846,305.2007 329.179,305.2867 329.0664,305.4005 329.0237,305.4715 328.9501,305.5937 328.8445,305.6908 328.7389,305.8296 328.6164,305.96 328.4084,306.2266 328.3,306.3904 328.1606,306.5763 327.9792,306.8013 327.8455,307.0248 327.7441,307.1872 327.6694,307.3232 327.6061,307.4328 327.5934,307.5341 327.5852,307.6628 327.5697,307.7961 327.5666,307.8191 327.5542,307.9127 327.5387,308.0445 327.5471,308.1764 327.5667,308.2861 327.599,308.3888 327.6532,308.5453 327.7151,308.7202 327.7587,308.8702 327.8065,309.0256 327.8529,309.1728 327.9232,309.2797 328.1549,309.4887 328.335,309.672 328.5278,309.8525 328.7543,310.0617 328.9358,310.2297 329.1257,310.4047 329.2847,310.538 329.4659,310.6321 329.7867,310.7863 330.0048,310.8933 330.1624,311.0085 330.2961,311.1765 330.4297,311.3556 330.5352,311.4528 330.7365,311.5778 330.7495,311.5874 330.8537,311.6633 331.085,311.8897 331.1841,312.0892 331.3357,312.2887 331.4465,312.4364 331.5281,312.6167 331.5903,312.797 331.598,312.9504 331.5629,313.2065 331.5628,313.3561 331.5706,313.5077 331.5335,313.7359 331.5062,313.9238 331.4323,314.1137 331.4323,314.1194 331.3272,314.2881 331.2552,314.432 331.1579,314.5969 331.0431,314.8174 330.9575,314.9308 330.798,315.0995 330.6482,315.2164 330.6159,315.2832 330.5295,315.4619 330.442,315.6517 330.3875,315.8166 330.3971,315.9432 330.4107,316.1559 330.4028,316.3688 330.3639,316.574 330.3619,316.9049 330.3579,317.0756 330.3112,317.2578 330.2197,317.4054 330.1264,317.5013 330.0019,317.6758 329.8929,317.8253 329.7897,318.0861 329.6737,318.1521 329.4928,318.409 329.3819,318.5509 329.2613,318.7254 329.2554,318.7273 329.1484,318.8999 329.1426,318.9057 329.0628,319.0514 329.0122,319.1684 328.9249,319.4412 328.8548,319.6445 328.7809,319.8036 328.6874,320.0261 328.6855,320.0261 328.5882,320.2854 328.6134,320.4715 328.6347,320.6383 328.6483,320.7918 328.6482,320.9912 328.6229,321.114 328.5562,321.3884 328.4938,321.7144 328.4431,322.0193 328.4392,322.2265 328.4624,322.4279 328.4974,322.5832 328.5044,322.7 328.509,322.7771 328.4136,323.0188 328.291,323.1779 328.1801,323.3332 328.0721,323.4473 328.044,323.477 327.9156,323.6131 327.7696,323.801 327.5348,324.054 327.4025,324.2362 327.1788,324.4567 327.0387,324.6637 326.8122,325.0358 326.6682,325.3234 326.5436,325.6264 326.489,325.8815 326.4248,326.2004 326.3877,326.4248 326.3682,326.676 326.3642,326.8927 326.3538,327.0551 326.3525,327.0749 326.3174,327.2851 326.2376,327.5383 326.1422,327.753 326.0352,327.9064 325.9359,328.1442 325.7956,328.4624 325.6749,328.7251 325.5971,328.9207 325.5076,329.1105 325.3811,329.3099 325.3052,329.4652 325.2951,329.4805 325.1091,329.7615 324.9559,330.0293 324.7207,330.5937 324.1827,331.0535 315.8618,333.8489 315.1299,334.0948 314.1229,334.4331 301.3167,338.7355 294.1342,341.1485 290.7621,342.2813 285.7753,343.9567 262.361,319.8274 262.271,319.7346 262.2109,319.6479" stroke="black" /><polygon fill="none" points="194.7408,131.9372 191.084,131.58 189.8591,131.4413 142.3086,126.0563 142.0862,126.0311 142.2356,125.9056 142.7014,125.5141 143.5832,123.1493 143.7714,121.2756 146.3839,118.9064 149.2381,114.6359 149.3084,114.5308 149.4283,114.3514 150.2597,113.2126 150.3516,112.8744 150.3782,112.7762 150.3821,112.7619 150.3854,112.7499 150.3895,112.7347 150.37,112.6765 150.3638,112.6582 150.1987,112.1663 149.9977,111.6339 149.9958,111.6287 149.5308,111.2604 149.187,110.9912 149.1241,110.9419 149.0078,110.7304 148.9028,110.5392 148.7456,110.2189 148.4623,109.642 148.5006,109.4155 148.6123,108.7553 148.7444,108.0316 148.9947,107.3794 149.2103,106.8178 149.294,106.4823 149.4494,105.8593 149.5479,104.8512 150.0214,104.2158 150.3008,103.4642 150.375,103.2644 150.6647,102.5519 151.0714,101.7817 151.274,101.2781 151.3882,100.6147 151.4424,100.4057 151.4098,100.1567 151.4827,100.0453 151.5482,99.7935 151.5854,99.6711 151.6657,99.6208 151.7194,99.405 151.6781,99.2508 151.8161,98.9651 151.87,98.8209 152.0868,98.5436 152.2666,98.4028 152.2051,98.2721 152.1924,98.1582 152.199,97.8931 152.0472,97.7665 151.8153,97.7297 151.5632,97.6023 151.4314,97.4749 151.3193,97.4676 151.1592,97.5064 151.0647,97.4237 150.9692,97.3227 150.9875,97.2511 150.8671,97.2202 150.6684,97.3142 150.4658,97.3109 150.2164,97.2324 150.1114,97.0898 150.0015,96.9407 149.7918,96.7983 149.5934,96.7786 149.4709,96.6379 149.4192,96.2915 149.3065,96.0091 149.1561,95.8057 148.9862,95.6764 148.9122,95.5201 148.8825,95.4015 148.9817,95.3311 149.0573,95.284 149.0923,95.2001 149.044,95.0943 148.8269,95.0133 148.7313,94.9773 148.7311,94.905 148.8082,94.8122 148.8569,94.6792 148.9254,94.5947 149.1492,94.3405 149.1814,94.0888 149.2117,93.8428 149.2151,93.8407 149.3499,93.7597 149.3756,93.4089 149.3794,93.2464 149.4787,93.2482 149.5334,93.196 149.6384,93.0276 149.664,92.6638 149.6798,92.4917 149.5092,92.2237 149.5372,92.0315 149.457,91.8438 149.3625,91.5437 149.1921,91.3638 148.9029,91.1641 148.6035,90.8409 148.3169,90.6305 148.2705,90.5261 148.1953,90.3704 148.1693,90.1715 147.9896,89.9174 147.9274,89.8635 147.8971,89.8372 147.8163,89.7159 147.8635,89.4993 147.7962,89.2848 147.7871,89.1061 147.7465,89.0281 147.7986,88.7437 147.7747,88.6073 147.7961,88.5222 147.8245,88.4117 147.7503,88.0927 147.769,87.8862 147.7924,87.7226 147.9276,87.577 147.9367,87.3244 148.0264,87.2125 148.0308,87.0469 147.9548,86.8602 147.9116,86.5404 147.9324,86.3034 148.0127,86.1815 148.0784,85.9571 148.0841,85.705 148.0592,85.6478 148.0458,85.488 148.1177,85.383 148.1295,85.2695 148.1714,85.1368 148.1332,85.0222 148.1631,84.9349 148.287,84.7466 148.2627,84.6354 148.2583,84.4909 148.1598,84.4043 148.1897,84.3271 148.3018,84.2312 148.2855,84.1067 148.2988,83.8532 148.3215,83.5394 148.2685,83.1731 148.2097,82.8426 148.1689,82.7358 148.1143,82.5145 148.1119,82.304 148.0743,81.9267 148.1148,81.8138 148.1338,81.638 148.0697,81.6037 147.9707,81.5695 147.9316,81.4164 148.0455,81.1123 148.142,80.9575 148.1913,80.8758 148.2671,80.7501 148.2863,80.6318 148.3304,80.5361 148.2794,80.3458 148.1009,80.1012 147.9762,80.0274 147.892,79.9775 147.7059,80.0161 147.5525,79.9074 147.3281,79.6406 147.461,79.3499 147.4896,79.0378 147.5764,78.8591 147.6931,78.545 147.8253,78.262 147.9146,78.1276 147.9847,78.022 148.112,77.803 148.2695,77.66 148.3884,77.4421 148.486,77.3471 148.4849,77.3268 148.4672,76.9856 148.4641,76.9261 148.5051,76.5789 148.7151,76.4096 148.8065,76.1477 149.0,75.8391 148.9214,75.5251 148.9183,75.3489 148.9999,75.0774 149.3593,74.3248 149.9169,73.4525 150.453,72.8194 150.5609,72.7404 150.9718,72.4396 151.4414,71.8837 151.5546,71.5532 151.269,71.2414 150.9957,70.5369 151.146,69.6079 151.146,69.6064 151.1849,69.3998 151.1885,69.3808 151.7591,66.8525 151.7258,65.9357 151.4536,65.2724 151.2803,64.8502 151.6286,63.7561 154.2584,61.5677 155.1284,59.2888 155.7846,57.9624 156.1606,57.6196 156.5145,57.5643 156.6472,57.3873 156.5919,57.1551 156.5809,56.7791 156.7357,56.2261 157.3771,55.9165 158.9033,55.9939 159.4231,55.7285 159.5337,55.2971 159.6774,54.3903 160.0668,53.246 159.7106,52.3333 159.6553,51.4154 159.8544,50.6523 159.9529,50.4901 160.4184,49.7233 160.6915,49.0152 160.7409,48.4938 161.0515,47.9243 162.2251,46.5782 163.3613,45.8379 163.3641,45.8361 163.5885,45.5599 163.623,45.2666 163.5539,44.9387 163.8128,44.559 164.4286,44.5188 164.6067,44.5072 164.8867,44.5514 165.5904,44.6625 165.901,44.4899 166.0516,44.2758 166.2985,43.5598 166.6194,42.5722 166.6194,42.0784 166.2985,41.5105 165.8294,40.5476 165.5084,40.1526 165.459,39.8069 165.6072,39.2391 165.6319,38.4243 165.6812,37.8071 165.3603,37.0911 165.1902,36.8452 165.1809,36.6679 165.238,36.5826 165.3282,36.5613 165.3861,36.4457 165.299,36.3624 165.3229,36.2722 165.421,36.2085 165.5927,36.1963 166.5733,35.5531 167.4111,35.4242 167.9911,35.5531 186.9082,51.0832 198.2659,64.2138 198.4646,64.4435 199.5323,65.6778 199.8531,66.0487 199.9094,66.1138 199.9288,66.1363 200.8744,67.2294 201.0443,67.8318 201.1264,68.8072 201.4433,70.1986 202.071,71.4211 202.9252,72.3338 204.7643,73.7882 206.978,74.2583 207.9886,73.8227 210.6808,73.3127 210.8425,73.4691 211.797,74.3921 212.2097,74.7923 212.4477,75.8586 213.0016,76.3996 214.5789,77.9401 214.5921,79.1748 214.1437,80.5737 214.3719,82.0532 218.6462,87.5001 222.4787,89.6312 222.5158,89.6518 222.6003,89.6979 222.7332,89.7718 227.7226,98.6792 230.9793,105.8898 231.7813,106.7173 232.9187,107.2141 232.9544,107.739 233.1704,107.9997 233.1714,108.0014 233.0661,108.1354 218.1232,127.1568 217.4969,127.954 217.2407,128.2801 215.9076,129.977 212.9691,133.7177 197.1597,132.1735 194.7408,131.9372" stroke="black" /><polygon fill="none" points="210.6306,426.7409 210.4411,426.6628 210.1577,426.5219 206.3677,424.6371 195.166,419.0667 192.1713,417.5774 192.5834,417.3311 192.9483,417.0326 193.3629,416.6677 193.6945,416.3858 193.9765,416.1702 194.2916,415.8551 194.5735,415.54 194.9217,415.1088 195.0378,414.8767 195.2037,414.6445 195.3198,414.4289 195.4027,414.2133 195.5188,413.8982 195.6846,413.5665 195.8007,413.3841 195.9168,413.2349 196.2153,412.9198 196.6796,412.5549 197.144,412.1403 197.4757,411.7755 197.7908,411.1784 198.2054,410.3161 198.5702,409.4537 199.018,408.3758 199.1074,408.1716 199.2273,407.8974 199.5167,407.4806 200.2262,407.5116 200.232,407.508 200.2704,407.484 200.888,407.098 202.2604,406.2404 202.2866,406.224 202.3683,406.1729 202.9294,405.8229 204.4996,404.8435 209.4179,401.7756 210.4595,401.1164 211.5936,399.4924 212.2595,397.6489 216.0822,392.6867 218.99,387.0932 227.4509,416.2551 238.9568,428.1291 247.8697,437.3271 252.793,442.4078 255.1199,444.8079 252.0959,443.8446 210.6306,426.7409" stroke="black" /><polygon fill="none" points="134.1015,453.9167 132.8256,453.6061 131.1188,453.157 130.1837,452.9099 127.327,452.4255 124.9652,451.7387 124.7132,451.6669 124.4711,451.5951 122.7222,451.2208 120.8464,450.7793 116.7183,450.5715 114.8118,450.9292 111.9674,450.98 110.4141,450.5973 108.4093,450.3453 106.4029,450.7027 104.2299,450.8291 102.2408,450.8901 100.0351,450.6375 98.0295,450.5336 96.4415,450.4966 95.3515,450.1645 93.8154,449.5676 92.3562,449.1493 91.611,448.9361 89.4063,448.4363 88.7523,448.3734 87.652,448.2671 85.9481,447.9497 83.0227,448.2057 81.218,448.0856 79.3305,447.603 77.6091,447.5161 75.1685,447.4931 74.3896,447.3614 73.8905,447.2757 73.1557,447.0432 72.0364,446.8591 69.2613,447.1153 63.5145,446.3093 61.7277,445.7609 60.4757,445.2634 58.1417,443.7576 58.09,443.7249 55.0596,440.889 53.4679,439.4973 52.101,438.2303 50.9931,437.395 49.2788,436.2955 47.9414,435.6323 46.982,435.1326 46.8018,435.0348 46.2362,434.7414 45.7007,434.4241 44.6773,433.8307 44.3676,433.6491 42.6987,432.8867 41.1805,431.993 38.9526,430.9835 38.0209,430.1798 35.1042,428.6616 32.6735,426.599 31.5671,426.1379 29.9652,425.2437 28.2394,424.0935 27.3315,422.8972 26.0365,420.0438 25.5538,419.4165 24.6694,419.0022 23.2993,418.9159 22.3635,418.9461 21.8067,418.807 21.228,418.6628 19.8594,418.1317 18.5578,417.535 16.3964,416.1296 15.7304,415.304 15.0997,414.0516 15.0494,413.9514 14.2179,412.6147 13.3185,411.6567 13.1846,411.4572 13.5935,411.1364 13.6104,410.2105 13.7648,409.6391 14.0367,409.0781 14.2917,408.5606 14.6399,407.8452 14.844,407.4805 14.9717,407.3864 15.1625,407.0025 15.2481,406.5873 15.3304,406.0704 15.3194,405.5113 15.3125,405.4212 15.288,405.0971 15.0614,404.1101 14.8166,402.9473 14.6133,402.2429 14.1408,400.9333 13.7631,400.0893 13.4809,399.7332 13.2947,399.3833 13.2321,398.9644 13.2237,398.9084 13.2494,398.7102 13.2667,398.5769 13.3577,398.2271 13.4675,397.9143 13.5751,397.5878 13.7444,397.1018 13.9399,396.7037 13.9781,396.5661 14.0811,396.1955 14.2325,395.7894 14.3993,395.4973 14.8997,394.8939 15.3265,394.479 15.4629,394.3347 15.6428,394.1445 15.7799,393.9523 15.8894,393.7283 16.0629,393.2974 16.3557,392.5301 16.444,392.1874 16.4966,391.9361 16.5015,391.9128 16.7214,391.3723 16.7423,391.3386 16.9277,391.0396 17.1691,390.6427 17.5729,389.9743 17.8124,389.5318 17.968,389.2105 18.1992,388.6937 18.3866,388.217 18.4902,387.9766 18.6288,387.7337 18.8028,387.3719 19.0573,386.8051 19.1972,386.59 19.4958,386.0413 19.5766,385.8001 19.7308,385.3039 19.852,384.9673 19.9243,384.7654 20.1097,384.3849 20.336,383.9856 20.5541,383.6046 20.6653,383.4093 20.7207,383.1883 20.8179,382.8834 20.8986,382.5517 20.9559,381.9361 20.976,381.6869 20.9825,381.6066 21.1219,381.2109 21.3282,380.8662 21.6226,380.403 21.919,380.0295 22.171,379.6461 22.3836,379.2985 22.575,379.0017 22.6242,378.9254 22.7934,378.6626 22.9066,378.4533 23.0649,378.1107 23.1971,377.7079 23.2351,377.2871 23.2679,377.0187 23.333,376.7852 23.4166,376.5114 23.522,376.296 23.6479,375.9155 23.7491,375.6376 23.9154,375.2403 24.03,374.9306 24.2059,374.508 24.3767,374.1556 24.624,373.4799 24.7702,372.9891 24.8621,372.7405 24.9145,372.5049 24.9785,372.2853 25.0879,372.0569 25.2374,371.7959 25.4098,371.4306 25.6061,371.0272 25.8446,370.5761 25.9466,370.1521 25.9804,369.5054 26.0071,368.9092 26.0493,368.5658 26.0648,368.0769 26.1893,367.7379 26.2514,367.2661 26.1616,366.9059 26.1405,366.7675 25.6875,365.9653 25.2212,365.2325 24.3669,363.9197 23.6586,362.8184 22.959,361.7389 22.5233,361.0838 22.0822,360.264 21.8688,359.8979 21.6979,359.6282 21.5602,359.0515 21.5311,358.6955 21.471,358.3413 21.2805,357.8641 21.159,357.541 21.0193,357.2655 20.7449,356.7739 20.5515,356.2981 20.3682,356.0832 20.2964,355.9392 20.2267,355.6972 20.06,355.3266 19.8109,354.8523 19.6849,354.6021 19.3045,354.2042 19.2918,354.1976 19.097,354.0961 19.028,354.0676 18.9607,353.8597 18.977,353.3404 18.9777,353.3178 18.8559,352.8506 18.6506,352.4758 18.3819,352.193 18.0334,351.9178 18.0167,351.9046 17.8557,351.7471 17.6466,351.3631 17.6154,351.3306 17.3308,351.0336 16.8966,350.6458 16.8187,350.616 16.6752,350.5611 16.2401,350.4339 16.0525,350.3112 15.9144,350.0851 15.8289,349.8011 15.8096,349.7109 15.7453,349.4103 15.7215,348.9768 15.7728,348.516 15.7843,348.2196 15.7356,347.9616 15.5906,347.632 15.3994,347.3215 15.2051,347.1351 14.5572,346.4817 14.2598,346.2311 14.1681,346.1539 13.603,345.6466 13.2552,345.2242 12.8888,344.7147 12.4506,343.9424 12.0182,343.2357 11.4507,342.4922 11.0401,341.9279 10.9856,341.85 10.8273,341.6239 10.804,341.585 10.4751,341.0349 10.2437,340.3764 10.1136,339.8202 10.1866,339.1722 10.2036,339.1047 10.345,338.5449 10.327,337.8149 10.1255,337.1221 9.8272,336.6214 9.5951,336.2784 9.3883,335.9866 9.2541,335.6971 9.0308,335.1354 8.8374,334.7967 8.8367,334.7952 8.5746,334.178 8.4135,333.56 8.5407,333.1059 8.6007,332.7232 8.8216,332.3707 9.0964,331.6263 9.0369,331.2413 8.8187,330.926 8.6104,330.69 8.2262,330.3507 7.7632,329.8134 7.3877,329.7247 7.0926,329.5198 6.8714,329.3447 6.4419,329.214 6.144,329.1832 5.9289,329.1434 6.8659,327.9177 9.1575,325.8825 9.7515,324.8227 9.9617,324.5675 11.312,321.8704 13.5561,319.9932 17.627,320.2443 22.1541,320.1034 22.81,320.2746 22.9147,320.302 23.1617,320.0241 24.401,318.63 26.544,316.2191 29.9205,314.3057 35.2589,308.8547 37.7504,306.5961 38.7041,307.753 38.9061,307.9979 40.3118,307.9466 42.2911,308.0863 45.5743,309.1109 46.8783,310.0423 48.2289,310.7409 49.463,311.3696 50.8601,311.8818 51.6052,312.3475 52.1641,312.8365 52.6298,313.442 53.3284,314.6295 54.0036,315.0719 54.6323,315.1884 55.1679,315.3746 55.6569,315.6774 56.5883,316.3293 58.1251,316.7019 59.2661,316.5389 60.2441,315.8869 61.5248,315.0486 62.2001,314.4898 62.8288,313.442 63.3643,312.3243 63.5146,312.1139 63.7136,311.8353 64.1252,311.6326 64.4352,312.5921 64.5856,313.2136 64.6901,314.474 64.8737,314.8771 65.2557,315.716 65.7195,316.2545 66.2492,316.8085 67.5207,317.5897 67.9016,317.9089 68.531,318.6593 68.7989,319.6566 68.787,320.7203 68.5436,321.6699 68.1139,322.6678 68.0838,322.7378 67.9767,322.9863 67.6056,323.6601 67.4216,324.1017 67.6424,324.5801 68.268,325.2056 68.268,325.6472 68.1576,326.8984 68.1944,327.8552 68.5256,328.996 68.7464,330.0631 68.7832,330.7991 68.4888,331.5719 68.1576,332.1975 67.9,332.6023 67.8264,333.2279 67.348,334.0006 66.1336,335.2518 65.599,335.7435 65.2271,336.0856 66.1715,336.5647 68.2338,337.4855 70.4719,338.7146 76.2618,342.7169 77.5899,343.772 77.6977,343.8577 79.2717,345.1083 81.2894,345.6531 82.1161,346.1809 83.5299,348.4796 83.9002,349.709 84.1241,351.7988 84.432,353.702 85.1729,354.7383 87.3883,356.3911 88.4461,357.8417 89.6606,358.9797 90.7188,359.7564 91.0473,359.9977 91.771,360.5292 93.6182,362.1841 95.3591,363.3718 98.2041,364.6585 100.1736,365.9229 101.7628,367.7194 102.6792,368.6168 105.0415,370.4199 105.9949,370.7151 106.978,371.1956 107.702,371.7383 108.5139,372.7338 109.1993,374.3717 109.485,375.2648 109.9932,375.9564 110.5655,376.4939 113.1208,378.5493 114.2201,379.5425 115.3743,380.231 116.4142,380.4763 117.2072,380.3841 117.3274,381.5795 117.3337,382.8322 117.6828,383.6561 118.2619,384.3082 119.5049,385.2138 120.5998,386.3984 120.6135,386.4242 121.2448,387.6106 122.0715,390.8388 122.1177,391.0193 122.2547,391.5581 122.3888,392.0811 123.1331,393.2436 123.4946,394.3007 123.5325,394.7944 123.4626,395.1119 123.5911,395.0929 123.8383,395.0564 126.0641,394.727 130.3589,394.0915 130.8842,394.0138 130.8884,394.0132 156.7911,390.1802 157.0109,390.1476 157.1857,390.1218 157.1872,390.1215 157.3482,390.0977 157.3659,390.0952 157.3925,390.0912 157.6219,390.0572 157.6648,390.0509 157.8746,390.0198 160.0033,389.7048 186.2547,385.8202 186.8147,385.7852 186.9,385.7798 186.9044,385.7796 187.5515,387.1695 188.0675,387.9889 188.1014,388.0428 188.4357,388.5736 186.9992,391.4746 187.0594,391.4879 188.3061,391.7658 191.2321,392.4181 195.7937,391.351 204.0285,389.4246 208.2465,389.1137 211.1974,388.2235 213.4581,388.1586 215.3614,387.2825 218.99,387.0932 216.0822,392.6867 212.2595,397.6489 211.5936,399.4924 210.4595,401.1164 209.4179,401.7756 204.4996,404.8435 202.9294,405.8229 202.3683,406.1729 202.2866,406.224 202.2604,406.2404 200.888,407.098 200.2704,407.484 200.232,407.508 200.2262,407.5116 199.5167,407.4806 199.2273,407.8974 199.1074,408.1716 199.018,408.3758 198.5702,409.4537 198.2054,410.3161 197.7908,411.1784 197.4757,411.7755 197.144,412.1403 196.6796,412.5549 196.2153,412.9198 195.9168,413.2349 195.8007,413.3841 195.6846,413.5665 195.5188,413.8982 195.4027,414.2133 195.3198,414.4289 195.2037,414.6445 195.0378,414.8767 194.9217,415.1088 194.5735,415.54 194.2916,415.8551 193.9765,416.1702 193.6945,416.3858 193.3629,416.6677 192.9483,417.0326 192.5834,417.3311 192.1713,417.5774 195.166,419.0667 206.3677,424.6371 210.1577,426.5219 210.4411,426.6628 210.6306,426.7409 252.0959,443.8446 255.1199,444.8079 254.6893,444.9143 254.5517,444.9823 254.4972,445.0092 254.1824,445.1021 253.9349,445.1339 253.7492,445.2055 253.5554,445.2612 253.1979,445.2665 252.8347,445.2878 252.5387,445.37 252.5387,445.3621 252.275,445.4496 251.9978,445.5424 251.8606,445.5875 251.7261,445.6299 251.4801,445.6353 251.1733,445.5981 250.9554,445.5106 250.7132,445.4496 250.4684,445.4284 250.2424,445.3993 249.968,445.4496 249.7743,445.5849 249.6423,445.7288 249.5723,445.933 249.5131,446.1133 249.4728,446.5996 249.5086,446.9326 249.5105,446.9497 249.462,447.2663 249.3948,447.5421 249.3087,447.7489 249.2522,447.9929 249.2064,448.2793 249.1284,448.6904 249.0934,448.9795 249.088,449.1916 249.0638,449.4807 249.0315,449.6626 249.01,449.8271 248.8862,449.9676 248.7947,450.0897 248.7597,450.2196 248.7113,450.4159 248.7382,450.7209 248.8055,450.9738 248.8082,451.3 248.8244,451.5599 248.8244,451.9312 248.8325,452.0921 248.8325,452.2778 248.7787,452.5085 248.5308,452.7759 248.3289,452.9827 248.1379,453.1631 247.8442,453.4053 247.4835,453.6706 247.2521,453.8483 246.8397,454.1252 246.2583,454.2684 245.8304,454.3188 245.4778,454.4249 245.2264,454.4223 244.9465,454.4541 244.7527,454.5151 244.4755,454.7432 244.2656,454.9342 244.0959,455.1249 243.9183,455.3424 243.8779,455.4724 243.8295,455.6183 243.8806,455.735 243.9964,455.8331 244.1172,455.9107 244.4415,456.1544 244.6631,456.3721 244.6235,456.4245 244.7317,456.6284 244.6367,456.8399 244.3666,457.1067 243.5529,457.5643 242.4568,458.0712 241.6639,458.5239 241.3194,458.8849 241.0132,459.2191 240.532,459.5586 240.182,459.8442 239.9663,460.1307 239.3895,460.436 239.3825,460.436 238.663,460.6791 237.6631,460.9241 237.1798,461.1799 236.9054,461.4266 236.4446,461.5483 236.036,461.6691 235.8829,461.7466 235.6313,461.8739 235.3749,462.0959 235.1435,462.6624 234.8264,463.3637 234.6606,463.8788 234.6386,464.4932 234.4866,465.5714 234.1865,466.0426 234.1722,466.0563 233.8231,466.4861 233.2302,466.6829 232.912,466.708 232.5433,466.737 232.1208,466.6759 232.0308,466.6284 231.733,466.3631 231.6982,466.3427 231.6774,466.3154 231.4547,465.8981 231.4267,465.8706 231.3988,465.8362 231.2999,465.6853 230.8642,465.0204 230.8501,465.0134 230.5751,464.8671 230.3008,464.8601 229.7107,465.0542 229.697,465.0488 229.6271,465.0817 229.4239,465.1485 228.8183,465.3643 228.1373,465.4545 228.1302,465.4545 227.4782,465.5377 227.2553,465.7108 227.2925,465.9732 227.7144,466.4196 227.6954,466.7745 227.8158,467.2626 228.3903,467.8745 228.4593,468.3187 228.2993,468.729 227.883,468.9398 226.4843,469.3729 225.9317,469.6529 225.2661,470.1583 224.6818,470.7071 224.2884,471.0068 223.679,471.2474 223.0592,471.4513 222.6254,471.6528 222.266,471.7872 221.9809,472.0436 221.5088,472.4501 221.1989,472.8776 220.9511,473.3601 220.7837,473.7326 220.6102,474.0074 220.5978,474.0502 220.3922,474.1932 220.3429,474.4896 219.6772,474.8866 219.2496,475.0881 218.8468,475.54 218.6855,475.6869 218.5979,475.8863 218.7182,476.1451 219.1007,476.4623 219.5903,476.8715 219.6957,477.2013 219.5221,477.4639 219.2866,477.9769 218.8486,478.6144 218.8425,478.6144 218.6194,478.6815 218.2661,478.7304 217.8694,479.0174 217.355,479.6159 216.977,480.019 216.5307,480.4678 216.3695,480.8159 216.3571,481.0602 216.3261,481.3717 216.247,481.732 216.1609,481.9073 216.0157,482.142 216.0089,482.1498 215.6416,482.2423 215.4088,482.3084 215.1541,482.4397 215.0065,482.6022 214.9198,482.9346 214.9532,483.2286 214.9869,483.4985 214.9294,483.6616 214.9224,483.6796 214.8756,483.8762 214.9069,484.0701 215.0636,484.2325 215.2444,484.2726 215.5254,484.3348 215.5387,484.3815 215.5417,484.437 215.5346,484.6361 215.4859,484.9061 215.5519,485.0794 216.4453,486.2562 221.6949,491.7688 222.0493,493.0337 221.7285,494.9743 222.7625,499.3898 222.6293,499.4547 221.5827,500.0 220.4611,499.9549 219.547,499.5776 218.6231,498.6745 217.8063,498.0782 217.205,497.83 216.0521,497.5642 214.9999,497.068 213.9478,496.4152 213.8311,496.341 213.1307,495.4996 212.3625,495.0698 209.9062,494.439 207.6082,493.1293 205.7838,491.5055 204.8818,490.2737 203.7812,488.9867 202.7309,487.5845 201.6971,486.3305 200.8631,485.4228 200.0653,485.1443 198.6644,483.5931 198.2378,482.9436 197.5813,481.9438 196.7996,480.0645 195.483,478.2005 193.8482,476.6489 192.4123,475.8553 190.3409,475.2415 189.2714,475.0581 188.1482,475.0195 187.4208,474.9191 186.2098,474.752 184.3886,474.4352 184.289,474.4029 182.2172,473.7224 180.5208,473.2616 180.2627,473.1912 178.4755,472.545 176.0407,471.5185 173.636,470.4757 171.4977,469.9934 170.1943,469.8259 168.4728,469.8222 166.7179,469.7525 165.6645,468.981 165.4997,468.8604 164.9058,468.2627 163.7988,467.0942 163.4825,466.5123 163.3326,466.2366 162.6156,465.4443 161.0634,464.3536 160.1374,463.2656 159.4683,462.3779 158.4043,461.0217 157.3198,460.1792 155.7836,459.5498 153.6783,459.2651 152.2075,459.2617 151.3572,459.5598 148.6496,459.5537 147.6476,459.2055 146.2288,458.4281 145.3282,457.6355 143.859,456.9568 142.4902,456.2454 140.3356,455.598 138.7657,455.0673 137.0618,454.6185 134.1015,453.9167" stroke="black" /><polygon fill="none" points="288.1704,178.7846 287.7245,179.1831 286.4036,180.6151 286.2303,180.803 285.1054,181.1375 282.2065,184.648 278.3877,187.8558 276.8215,188.297 275.1586,190.5938 275.0697,190.7165 271.8808,195.1212 270.4399,198.1046 270.2458,199.0915 270.1562,199.1794 269.4314,199.8899 268.3132,200.3942 266.282,201.3103 260.5421,203.8993 260.4711,203.9313 242.1733,212.1843 242.1523,212.1938 240.1972,213.0756 238.8232,213.6953 238.4858,213.8475 231.9628,216.7896 231.5243,216.9872 231.4257,217.0319 231.1254,217.1674 230.974,217.2356 230.8683,217.2833 230.7741,217.3258 230.7546,217.3346 230.7308,217.3454 230.6932,217.3623 230.2901,217.5441 229.7917,217.6929 229.3688,217.8191 229.3127,217.8358 229.0972,217.9001 228.139,218.1861 227.9556,218.2408 216.4834,221.6641 215.5436,222.012 215.3299,222.0641 212.9003,222.656 208.4199,223.3283 203.2085,223.3729 202.5444,223.2888 201.5465,223.1624 199.2898,222.2389 199.1865,222.2582 197.3425,222.6046 193.0935,224.4612 185.9313,225.8139 185.7214,225.8535 183.2782,226.3143 181.464,226.0252 178.4854,226.184 176.34,225.6619 170.7433,223.406 168.8635,223.2598 167.1671,224.0691 166.3184,225.015 164.8444,227.4603 163.4663,228.3151 161.1888,228.9795 155.9443,229.0899 150.0205,227.9769 149.6552,227.9082 146.8228,227.6781 138.8741,226.0831 136.912,226.1596 137.3095,226.3942 135.5737,226.4379 135.3729,226.4429 132.3272,225.5676 129.9517,225.0482 127.6171,224.2779 123.1092,222.6874 114.4562,219.1069 110.2999,214.7545 110.2047,214.6548 107.3405,211.6551 104.4371,208.6144 102.6562,208.0155 101.8926,207.539 100.8848,206.7214 97.507,202.4889 94.8298,199.9998 94.4135,199.0534 93.233,199.0817 91.6723,198.5742 90.7019,198.4757 88.9015,198.5517 87.6329,198.2772 85.6379,198.0806 83.738,198.0329 81.1217,197.4481 79.457,196.9104 73.0586,196.4312 72.8542,196.4159 71.4611,196.0674 70.5638,196.1028 70.4354,196.1079 69.9794,195.9532 67.8814,195.2413 62.4196,192.776 60.3293,191.4086 54.6674,190.7535 55.0202,189.7833 55.4259,189.0953 55.6199,188.5132 55.5847,188.0369 55.4965,187.3489 55.2671,186.8374 54.9672,186.2729 54.3881,185.5371 89.2092,194.8916 121.7461,202.3391 147.2598,208.179 147.7845,208.2991 157.6753,210.5631 158.1302,210.6672 163.5008,211.8965 161.874,207.3335 161.7441,206.9692 160.6406,203.8739 155.6042,189.747 154.6456,187.0579 174.8146,181.3859 174.9429,181.3498 174.9969,181.3346 195.1988,175.6534 195.6531,175.5256 195.7132,175.5087 200.2914,174.2212 222.9808,165.598 222.986,165.596 223.5418,165.3847 230.368,162.7904 261.4782,150.9668 261.6054,150.9182 261.5998,150.9348 260.9284,152.9365 260.5777,153.2982 258.9125,153.9746 258.6061,155.1216 258.8448,156.6903 258.6527,158.6075 260.8999,157.1186 265.3076,153.2271 266.7536,151.598 269.1431,150.578 271.4498,147.6069 273.326,147.0659 274.1258,145.9896 274.1898,145.9475 274.7068,145.6068 277.1412,145.7272 278.1023,145.4691 279.4471,144.3548 288.7225,149.8467 289.2945,150.1853 301.6411,157.4954 302.1706,157.9878 302.3778,158.5799 301.1292,160.7974 299.156,162.494 296.7819,165.3322 295.9513,168.8747 296.5917,171.7836 296.3324,173.2178 296.3215,173.2779 296.3187,173.3411 296.3086,173.3462 289.694,177.423 288.1704,178.7846" stroke="black" /><polygon fill="none" points="324.4594,243.9717 324.0067,244.4215 323.2854,245.5621 321.6826,247.1841 317.7372,251.9456 316.4706,253.7783 315.557,255.2837 314.7062,256.4644 313.7937,257.5908 312.5427,258.6697 311.5263,259.2981 311.4554,259.342 310.4755,259.9479 309.3515,261.0419 309.3367,261.5889 310.0586,263.5201 309.9101,264.4441 309.6421,265.2839 308.9705,268.0619 308.6647,268.7872 307.9912,271.6205 304.2602,271.3609 304.2542,271.3605 301.3649,271.1597 301.0208,271.1358 287.3167,270.1812 286.926,270.154 282.3502,269.8349 281.2615,269.6441 279.5754,269.4808 278.7261,269.6054 277.7842,269.7433 277.197,270.1335 276.8369,270.3728 275.1389,270.7218 274.0289,270.8328 273.406,271.8491 273.599,273.0941 273.4381,273.8676 272.7175,275.1395 271.9042,276.2643 270.3889,277.0061 269.4136,276.3137 268.7692,275.7371 267.0562,275.9956 265.5475,276.6714 263.8975,277.2339 261.3477,277.5959 258.9599,277.63 257.5808,277.2926 255.9003,277.3595 253.7475,277.9795 251.8792,278.16 251.7936,278.1683 249.5946,278.3802 248.409,278.0183 246.6443,277.7781 244.656,278.1102 242.9716,278.7334 242.1255,278.8623 240.6164,279.4128 240.0761,279.4265 239.7564,279.4345 239.7189,279.5305 239.6662,279.5034 239.6556,279.498 239.5456,279.4414 234.3443,276.7671 222.9271,270.8967 219.7127,269.2433 219.6965,269.235 219.6664,269.2195 219.5627,269.1669 219.5596,269.1652 219.2055,268.9789 218.5535,268.644 210.8309,264.6776 209.7784,264.1369 209.4518,263.9704 208.0689,263.2571 207.9998,263.2216 205.0979,261.7295 205.0966,261.7289 201.3544,259.8047 201.2776,259.7709 201.2419,259.7793 201.1772,259.8132 200.8725,259.9497 200.6075,260.0582 200.4222,260.1349 200.1702,260.2355 199.7198,260.4233 199.5769,260.4791 199.5048,260.5336 199.24,260.7414 198.9913,260.985 198.8747,261.1055 198.6623,261.3191 198.5986,261.3949 198.495,261.5173 198.4478,261.5822 198.3914,261.6408 198.2858,261.7584 198.2041,261.848 198.1317,261.9322 198.0993,261.9711 198.0575,262.0089 197.9745,262.085 197.9418,262.116 197.9006,262.139 197.7453,262.0474 197.4869,261.895 197.0964,261.6647 182.093,252.8157 182.0666,252.8002 150.9319,234.4371 150.738,234.3226 137.3095,226.3942 136.912,226.1596 138.8741,226.0831 146.8228,227.6781 149.6552,227.9082 150.0205,227.9769 155.9443,229.0899 161.1888,228.9795 163.4663,228.3151 164.8444,227.4603 166.3184,225.015 167.1671,224.0691 168.8635,223.2598 170.7433,223.406 176.34,225.6619 178.4854,226.184 181.464,226.0252 183.2782,226.3143 185.7214,225.8535 185.9313,225.8139 193.0935,224.4612 197.3425,222.6046 199.1865,222.2582 199.2898,222.2389 201.5465,223.1624 202.5444,223.2888 203.2085,223.3729 208.4199,223.3283 212.9003,222.656 215.3299,222.0641 215.5436,222.012 216.4834,221.6641 227.9556,218.2408 228.139,218.1861 229.0972,217.9001 229.3127,217.8358 229.3688,217.8191 229.7917,217.6929 230.2901,217.5441 230.6932,217.3623 230.7308,217.3454 230.7546,217.3346 230.7741,217.3258 230.8683,217.2833 230.974,217.2356 231.1254,217.1674 231.4257,217.0319 231.5243,216.9872 231.9628,216.7896 238.4858,213.8475 238.8232,213.6953 240.1972,213.0756 242.1523,212.1938 242.1733,212.1843 260.4711,203.9313 260.5421,203.8993 266.282,201.3103 268.3132,200.3942 269.4314,199.8899 270.1562,199.1794 270.2458,199.0915 270.4399,198.1046 271.8808,195.1212 275.0697,190.7165 275.1586,190.5938 276.8215,188.297 278.3877,187.8558 282.2065,184.648 285.1054,181.1375 286.2303,180.803 286.4036,180.6151 287.7245,179.1831 288.1704,178.7846 289.694,177.423 296.3086,173.3462 296.1438,177.2272 299.06,179.1154 299.061,179.1153 303.5655,177.7938 303.5665,177.7937 305.8442,176.2117 306.7654,175.977 311.338,174.812 311.3561,174.8075 311.7238,174.7137 311.7248,174.7136 318.9246,170.0868 318.9254,170.0854 319.2094,169.5332 321.0361,165.9824 323.196,163.3293 326.6849,159.0434 331.4758,157.7651 331.4767,157.7649 332.5749,158.3813 336.9978,160.8634 341.5783,162.1785 347.2163,166.588 347.6018,166.9005 347.7178,166.9949 347.7187,166.9955 348.8275,167.8943 352.0345,171.5161 355.0671,174.2293 357.404,178.2063 360.8989,182.6265 360.2452,188.1429 358.1711,191.6195 358.3179,195.5405 358.3948,195.8715 358.4057,195.9184 358.8272,197.7317 359.6472,200.7291 360.6759,203.2602 360.6757,203.2624 359.5234,203.8376 358.4966,203.6028 357.2448,203.1795 355.9451,202.9582 353.6502,203.0333 351.2969,203.6161 349.3891,204.6144 347.9909,205.801 345.9728,207.8521 343.9055,210.387 342.6883,212.5725 342.158,215.0419 342.3655,217.9386 342.3363,220.9418 341.5637,222.5655 339.9114,224.3342 337.9415,225.8834 335.9507,227.1058 334.622,228.74 333.9176,232.1357 333.1299,234.597 332.3427,236.4321 331.3958,238.3351 330.5969,239.7242 329.1699,241.1881 328.0332,241.7008 326.2547,242.6447 324.905,243.5289 324.4772,243.954 324.4594,243.9717" stroke="black" /><polygon fill="none" points="169.5019,317.2042 171.3532,318.3641 172.6744,319.1927 178.5479,322.8745 178.5627,322.8825 178.9382,323.0615 192.9586,329.7462 193.0705,329.7995 194.4688,330.4655 194.6853,330.5687 212.8769,339.2373 212.9163,339.2562 212.9115,339.2657 211.6721,341.6687 211.2484,342.4902 209.3922,346.0971 208.5079,347.8347 207.9645,348.8823 207.8468,349.1091 206.7983,351.1399 205.7013,353.3033 204.312,356.0171 203.3935,357.805 202.6165,359.3549 201.2683,361.978 201.2491,362.0159 200.1369,364.2167 198.8673,366.6729 198.1292,368.1482 196.4238,371.4554 195.1614,373.9582 194.3351,375.6104 192.7803,378.6931 192.0804,380.0742 191.0175,382.1801 190.1809,383.8678 189.2272,385.7796 188.3048,387.6419 188.1014,388.0428 188.0675,387.9889 187.5515,387.1695 186.9044,385.7796 186.9,385.7798 186.8147,385.7852 186.2547,385.8202 160.0033,389.7048 157.8746,390.0198 157.6648,390.0509 157.6219,390.0572 157.3925,390.0912 157.3659,390.0952 157.3482,390.0977 157.1872,390.1215 157.1857,390.1218 157.0109,390.1476 156.7911,390.1802 130.8884,394.0132 130.8842,394.0138 130.3589,394.0915 126.0641,394.727 123.8383,395.0564 123.5911,395.0929 123.4626,395.1119 123.5325,394.7944 123.4946,394.3007 123.1331,393.2436 122.3888,392.0811 122.2547,391.5581 122.1177,391.0193 122.0715,390.8388 121.2448,387.6106 120.6135,386.4242 120.5998,386.3984 119.5049,385.2138 118.2619,384.3082 117.6828,383.6561 117.3337,382.8322 117.3274,381.5795 117.2072,380.3841 116.4142,380.4763 115.3743,380.231 114.2201,379.5425 113.1208,378.5493 110.5655,376.4939 109.9932,375.9564 109.485,375.2648 109.1993,374.3717 108.5139,372.7338 107.702,371.7383 106.978,371.1956 105.9949,370.7151 105.0415,370.4199 102.6792,368.6168 101.7628,367.7194 100.1736,365.9229 98.2041,364.6585 95.3591,363.3718 93.6182,362.1841 91.771,360.5292 91.0473,359.9977 90.7188,359.7564 89.6606,358.9797 88.4461,357.8417 87.3883,356.3911 85.1729,354.7383 84.432,353.702 84.1241,351.7988 83.9002,349.709 83.5299,348.4796 82.1161,346.1809 81.2894,345.6531 79.2717,345.1083 77.6977,343.8577 77.5899,343.772 76.2618,342.7169 70.4719,338.7146 68.2338,337.4855 66.1715,336.5647 65.2271,336.0856 65.599,335.7435 66.1336,335.2518 67.348,334.0006 67.8264,333.2279 67.9,332.6023 68.1576,332.1975 68.4888,331.5719 68.7832,330.7991 68.7464,330.0631 68.5256,328.996 68.1944,327.8552 68.1576,326.8984 68.268,325.6472 68.268,325.2056 67.6424,324.5801 67.4216,324.1017 67.6056,323.6601 67.9767,322.9863 68.0838,322.7378 68.1139,322.6678 68.5436,321.6699 68.787,320.7203 68.7989,319.6566 68.531,318.6593 67.9016,317.9089 67.5207,317.5897 66.2492,316.8085 65.7195,316.2545 65.2557,315.716 64.8737,314.8771 64.6901,314.474 64.5856,313.2136 64.4352,312.5921 64.1252,311.6326 63.7136,311.8353 63.5146,312.1139 63.3643,312.3243 62.8288,313.442 62.2001,314.4898 61.5248,315.0486 60.2441,315.8869 59.2661,316.5389 58.1251,316.7019 56.5883,316.3293 55.6569,315.6774 55.1679,315.3746 54.6323,315.1884 54.0036,315.0719 53.3284,314.6295 52.6298,313.442 52.1641,312.8365 51.6052,312.3475 50.8601,311.8818 49.463,311.3696 48.2289,310.7409 46.8783,310.0423 45.5743,309.1109 42.2911,308.0863 40.3118,307.9466 38.9061,307.9979 38.7041,307.753 37.7504,306.5961 35.2589,308.8547 29.9205,314.3057 26.544,316.2191 24.401,318.63 23.1617,320.0241 22.9147,320.302 22.81,320.2746 22.1541,320.1034 17.627,320.2443 13.5561,319.9932 11.312,321.8704 9.9617,324.5675 9.7515,324.8227 9.1575,325.8825 6.8659,327.9177 5.9289,329.1434 5.8611,329.1309 5.8598,329.1302 5.7298,329.0716 5.6256,328.984 5.6356,328.9168 5.725,328.7282 5.7096,328.601 5.6924,328.4027 5.7104,328.3483 5.7042,328.2415 5.7036,328.2311 5.7193,328.0444 5.6686,327.8587 5.6894,327.7506 5.7601,327.4985 5.9049,327.3054 5.979,327.1694 5.9668,327.0871 5.9237,326.9894 5.8926,326.9912 5.8525,326.983 5.8391,326.9479 5.8426,326.9143 5.853,326.8838 5.8588,326.8674 5.8126,326.8079 5.6682,326.6354 5.5475,326.5178 5.4336,326.4121 5.3755,326.3631 5.2823,326.2848 5.1266,326.1143 5.0374,325.7979 4.984,325.2488 4.947,325.0873 4.8654,325.0022 4.8517,324.9899 4.69,324.8442 4.6147,324.5418 4.5433,324.3778 4.4613,324.1855 4.2463,323.8836 4.1099,323.4003 3.8976,322.9865 3.6896,322.566 3.6724,322.496 3.6146,322.2617 3.5949,322.1818 3.5681,321.9131 3.5763,321.6516 3.6217,321.4839 3.6258,321.4689 3.7306,321.3033 3.884,320.9088 3.9473,320.6497 4.0065,320.4716 4.0327,320.3894 4.0838,320.2292 4.2558,319.9666 4.4016,319.7942 4.5021,319.6753 4.6769,319.5229 4.8008,319.36 4.8527,319.2703 4.8786,319.161 4.905,319.103 4.9742,319.0666 5.0441,318.9811 5.0682,318.8875 5.1498,318.7819 5.2902,318.6428 5.536,318.4227 5.6507,318.2399 5.7435,318.0568 5.7641,317.9102 5.7761,317.7742 5.7963,317.5492 5.8758,317.3823 5.9742,317.2613 6.0141,317.1817 6.0055,316.9433 5.9468,316.6786 5.987,316.3111 6.0548,315.9331 6.1318,315.5156 6.1924,314.8911 6.3968,314.4316 6.8511,313.8802 7.0855,313.5167 7.1931,313.209 7.2326,312.8964 7.2466,312.5864 7.1455,312.3391 7.099,312.1799 7.1046,312.005 7.1593,311.8575 7.2296,311.79 7.2271,311.7095 7.1597,311.6074 7.0389,311.4024 6.9662,311.291 6.6816,310.9532 6.442,310.4677 6.2649,310.1206 6.1441,309.808 5.9287,309.4844 5.8262,309.3231 5.6039,309.0164 5.4765,308.8195 5.2634,308.66 5.1854,308.5825 5.1603,308.5242 5.1782,308.4336 5.2134,308.3727 5.278,308.3118 5.4016,308.2138 5.6179,308.0828 5.8776,307.9029 6.1615,307.7472 6.2993,307.6723 6.7971,307.4054 6.9497,307.3029 7.121,307.1591 7.3168,306.9395 7.4572,306.8331 7.6924,306.616 7.9459,306.4148 8.1526,306.2358 8.4755,305.9228 8.7689,305.6675 8.9571,305.4856 9.1726,305.2636 9.4163,305.1125 9.5217,304.9997 9.6543,304.8985 9.7983,304.7324 9.9495,304.635 10.0271,304.596 10.1684,304.4485 10.2528,304.3629 10.407,304.2891 10.5739,304.1714 10.6489,304.0533 10.7446,303.8874 10.8355,303.7538 10.9316,303.5398 11.0189,303.4029 11.0702,303.311 11.1725,303.1244 11.2289,302.9166 11.3231,302.6694 11.3676,302.5669 11.6853,302.1753 11.882,301.958 12.0099,301.8561 12.1395,301.7378 12.1998,301.6405 12.2361,301.5625 12.2528,301.5125 12.3789,301.1733 12.5082,301.0508 12.5341,300.9804 12.5903,300.9281 12.6507,300.8794 12.7158,300.8464 12.8303,300.8158 12.9757,300.7358 13.0479,300.6582 13.1936,300.2747 13.1591,300.2259 13.0993,300.1719 13.036,300.1316 13.0332,300.0634 13.0396,299.9156 12.9084,299.6292 12.8449,299.525 12.8237,299.4271 12.7656,299.3066 12.7469,299.2403 12.7036,299.1869 12.5968,299.1356 12.52,299.0995 12.4396,298.9174 12.3772,298.8295 12.2784,298.7206 12.1971,298.5866 12.1182,298.4742 12.0059,298.3646 11.9619,298.3084 11.8896,298.216 11.6512,297.8805 11.5044,297.6709 11.4479,297.5903 11.3003,297.3382 11.2041,297.1621 11.138,297.033 11.0322,296.8265 11.0147,296.7924 10.801,296.4506 10.7245,296.3282 10.622,296.1488 10.3209,295.8235 10.0927,295.557 9.8692,295.4413 9.6402,295.1692 9.4924,294.9826 9.4196,294.8017 9.3567,294.6454 9.2184,294.3534 9.167,294.089 9.1255,293.707 9.234,293.3182 9.2724,293.1591 9.29,292.9288 9.2908,292.6172 9.2677,292.3705 9.255,292.2344 9.2037,292.0788 9.1488,291.9484 9.1706,291.6704 9.2721,291.3122 9.3784,290.6572 9.4233,290.4238 9.4934,290.1111 9.5347,289.9806 9.6263,289.3547 9.62,289.2404 9.5834,289.1298 9.4795,288.9835 9.0007,288.084 8.8195,287.873 8.3999,287.424 8.1648,287.1783 7.9656,287.0606 7.7859,286.9595 7.7192,286.7866 7.6922,286.6221 7.7288,286.1617 7.7911,285.9116 7.8903,285.6562 7.8958,285.5548 8.0038,285.2389 8.0515,285.1468 8.1795,284.8964 8.459,284.5287 8.9032,284.1322 9.0331,283.8741 9.2169,283.4731 9.2816,283.2141 9.2925,282.9827 9.176,282.6034 9.101,282.2686 9.0911,281.9045 9.1733,281.242 9.3293,280.7285 9.6263,280.0962 10.1332,279.294 10.5545,278.8052 11.0691,278.052 11.2528,277.8733 11.6588,277.7084 11.8077,277.3388 11.8156,276.9014 11.6115,276.2498 11.4105,275.4847 11.1742,274.8523 11.038,274.4491 10.963,274.1216 10.9856,273.8232 11.1497,273.318 11.2395,272.7068 11.3932,272.3192 11.5336,272.0559 11.6135,271.6866 11.6529,271.4063 11.6861,271.0566 11.7689,270.7976 11.7954,270.5604 11.7452,270.4944 11.7105,270.397 11.7717,270.1977 11.9197,270.0533 12.089,269.6861 12.2899,269.1531 12.5736,268.5467 12.8718,267.9775 13.1117,267.3015 13.4165,266.5552 13.9998,265.2431 14.2849,264.3661 14.448,263.8949 14.5977,263.4196 14.6936,263.1034 14.7337,262.731 14.7447,262.227 14.7011,261.467 14.7057,261.1988 14.7434,260.8944 14.8189,260.4872 14.9306,260.0156 14.9836,259.6257 15.1023,259.0507 15.2089,258.536 15.2674,258.1696 15.3601,257.7078 15.3988,257.4657 15.4696,257.2962 15.6274,257.0353 16.0587,256.3111 16.2061,256.0788 16.2141,256.074 36.8217,262.8186 38.2495,263.2859 54.8114,268.7027 56.527,269.2636 63.5101,271.5467 64.0569,271.7254 71.3937,274.1227 82.8285,277.8591 83.9605,278.2288 93.7336,281.4202 97.8604,282.7678 105.0073,285.101 127.6635,292.2039 127.9568,292.2958 128.2457,292.3863 128.268,292.3933 128.2824,292.3978 129.5506,292.7952 129.5735,292.8024 129.6299,292.8201 130.3821,293.0558 132.405,293.6898 136.3371,294.922 135.9481,296.1683 142.6921,300.3961 142.7761,300.4488 169.3207,317.0907 169.5019,317.2042" stroke="black" /><polygon fill="none" points="128.268,292.3933 128.2457,292.3863 127.9568,292.2958 127.6635,292.2039 105.0073,285.101 97.8604,282.7678 93.7336,281.4202 83.9605,278.2288 82.8285,277.8591 71.3937,274.1227 64.0569,271.7254 63.5101,271.5467 56.527,269.2636 54.8114,268.7027 38.2495,263.2859 36.8217,262.8186 16.2141,256.074 16.335,255.9363 16.7764,255.4397 17.1292,254.9458 17.482,254.5048 17.5173,254.2402 17.5173,253.9756 17.4644,253.3405 17.3409,252.8113 17.5925,252.4259 17.9583,252.1057 18.3993,251.894 18.8227,251.6824 19.2813,251.5589 19.8105,251.4354 20.2515,251.259 20.6396,251.0826 20.7455,250.7474 20.7984,250.3064 20.816,249.3539 20.9042,248.5777 20.7278,247.8897 20.6925,247.0783 20.9219,246.5314 21.7862,245.1732 22.9152,243.8854 23.8678,242.4919 25.1379,241.063 26.5138,239.3696 26.7784,238.5052 26.8842,237.8878 27.0959,237.094 27.9628,236.0214 28.0437,235.9634 29.0509,235.2406 31.0473,234.0246 31.453,233.4425 31.9892,232.7444 32.5467,232.226 32.9539,231.8472 33.9579,230.867 34.5577,230.3026 35.0339,229.8968 35.228,229.4382 35.3162,228.909 35.3867,228.4504 35.3902,227.8795 35.546,227.5328 35.811,227.28 36.2687,226.898 37.5918,226.016 37.9975,225.3281 38.0328,224.7107 38.1033,224.0932 38.2092,223.37 38.5972,222.3645 39.2323,221.0415 39.9732,219.8596 40.6611,218.9247 41.2118,217.3576 41.5964,216.0402 41.7019,215.6789 42.09,214.109 42.5305,212.9342 43.6583,211.6978 44.3197,211.2315 45.9957,208.66 46.5529,207.0176 47.382,205.6946 47.9994,205.0772 48.5815,204.6009 49.1813,204.1599 49.7347,203.8425 50.8231,202.7933 51.5627,201.1258 52.3565,199.9087 52.727,198.9561 52.9916,197.7742 53.2032,196.9804 54.0575,195.6029 54.6144,194.0522 54.7732,191.8648 54.6674,191.5296 54.6321,191.1592 54.6674,190.7535 60.3293,191.4086 62.4196,192.776 67.8814,195.2413 69.9794,195.9532 70.4354,196.1079 70.5638,196.1028 71.4611,196.0674 72.8542,196.4159 73.0586,196.4312 79.457,196.9104 81.1217,197.4481 83.738,198.0329 85.6379,198.0806 87.6329,198.2772 88.9015,198.5517 90.7019,198.4757 91.6723,198.5742 93.233,199.0817 94.4135,199.0534 94.8298,199.9998 97.507,202.4889 100.8848,206.7214 101.8926,207.539 102.6562,208.0155 104.4371,208.6144 107.3405,211.6551 110.2047,214.6548 110.2999,214.7545 114.4562,219.1069 123.1092,222.6874 127.6171,224.2779 129.9517,225.0482 132.3272,225.5676 135.3729,226.4429 135.5737,226.4379 137.3095,226.3942 150.738,234.3226 150.9319,234.4371 182.0666,252.8002 182.093,252.8157 197.0964,261.6647 197.4869,261.895 197.7453,262.0474 197.9006,262.139 197.902,262.1398 197.8375,262.1743 197.7023,262.2497 197.6646,262.2722 197.6612,262.2745 197.6424,262.2853 197.5884,262.3159 197.3066,262.4638 197.2352,262.4978 197.1141,262.5604 196.5715,262.8025 196.0083,263.049 195.4645,263.2821 195.1104,263.4374 194.6861,263.6825 194.6279,263.7265 194.5203,263.8199 194.312,264.0127 194.034,264.2584 193.6866,264.5437 193.6509,264.5716 193.6022,264.5856 193.5156,264.6102 193.0689,264.7238 192.912,264.7566 192.6476,264.8067 192.2098,264.8351 191.8423,264.8799 191.4923,264.9259 191.1476,265.0002 190.9885,265.0532 190.8055,265.1137 190.3752,265.2601 190.0467,265.33 189.5741,265.4632 189.4827,265.4632 189.4446,265.454 189.301,265.3961 188.6513,265.1073 188.5809,265.0988 188.3867,265.0958 187.5844,265.1615 187.4261,265.1899 187.1465,265.2507 186.2503,265.4409 186.204,265.4508 186.1973,265.4461 186.1291,265.4544 186.0245,265.4731 185.6822,265.5209 185.5278,265.5461 185.4285,265.5501 185.1502,265.5446 184.8588,265.5368 184.4467,265.529 184.2306,265.5463 184.0131,265.5781 183.8037,265.6444 183.5279,265.756 183.1239,265.9296 182.5648,266.1797 182.2185,266.3599 182.1776,266.3857 182.1071,266.4302 182.0776,266.4381 182.062,266.4308 182.0537,266.4251 181.9828,266.481 181.6954,266.7027 181.4524,266.9218 181.1342,267.2235 180.946,267.4043 180.7458,267.5896 180.6412,267.6538 180.5426,267.7046 180.4843,267.724 180.3741,267.7479 180.1556,267.7584 179.9554,267.724 179.7268,267.6631 179.6611,267.6568 179.4221,267.6807 178.938,267.7614 178.4966,267.8548 178.3023,267.9354 178.0215,268.0243 177.9348,268.0475 177.4037,268.1775 177.1184,268.2223 176.8183,268.2524 175.5063,268.3597 175.3734,268.3672 174.9566,268.4957 174.5756,268.6555 174.4173,268.7173 174.3291,268.778 174.0034,268.9678 173.5208,269.2576 173.2526,269.4305 173.1115,269.5206 172.8709,269.6401 172.6379,269.7402 172.4015,269.843 172.2987,269.909 172.0866,270.0106 171.8386,270.1271 170.9243,270.4304 170.3954,270.5783 170.2296,270.6261 170.0503,270.6933 169.7933,270.783 169.5005,270.8801 169.2346,270.9623 168.6235,271.1893 168.1962,271.3298 167.4672,271.5793 165.5406,272.1733 164.8796,272.2844 164.4344,272.3606 164.2297,272.3815 161.2163,272.8641 160.4096,272.9836 159.9255,273.0464 159.316,273.148 158.7703,273.2313 157.7443,273.4049 157.1099,273.5061 156.6848,273.5941 155.9694,273.6395 155.0842,273.6391 154.9266,273.6425 154.8549,273.6574 154.7593,273.6873 154.6786,273.7306 154.5905,273.7889 154.1617,274.1235 153.9147,274.3018 153.7792,274.4179 153.5805,274.5702 152.7155,275.2649 152.4077,275.5159 152.1269,275.746 152.0821,275.8088 152.0261,275.8956 151.9775,275.9283 151.9289,275.9694 151.8565,275.997 151.5898,276.1203 151.3164,276.2443 151.1356,276.3384 150.9892,276.4041 150.7591,276.4938 150.3587,276.6432 149.8866,276.8284 149.4668,276.9987 148.8046,277.2538 148.6914,277.293 148.5152,277.3394 148.2388,277.4365 147.889,277.5635 147.3483,277.7143 147.185,277.7501 147.0593,277.792 146.8994,277.801 146.7328,277.8032 146.6514,277.7953 146.4968,277.8182 145.8902,277.9302 144.8758,278.1192 144.2199,278.2343 142.8156,278.4942 141.9341,278.6556 141.3962,278.7593 141.0223,279.954 141.0221,279.9547 136.6437,293.9458 136.5381,294.282 136.3371,294.922 132.405,293.6898 130.3821,293.0558 129.6299,292.8201 129.5735,292.8024 129.5506,292.7952 128.2824,292.3978 128.268,292.3933" stroke="black" /></svg>