<?xml version="1.0" encoding="utf-8" ?>
<svg baseProfile="tiny" height="369.1264" version="1.2" width="500" xmlns="http://www.w3.org/2000/svg" xmlns:ev="http://www.w3.org/2001/xml-events" xmlns:xlink="http://www.w3.org/1999/xlink"><defs /><polygon fill="none" points="146.1801,223.8356 145.8033,223.4071 145.0467,222.86 144.3386,222.4741 143.9785,222.2563 143.6622,221.6576 142.8208,220.3679 141.9366,219.6034 141.0141,218.8058 137.8423,217.246 134.6223,215.9308 132.1346,215.2503 130.4272,214.6662 129.9387,214.129 129.2535,212.5648 128.4685,209.6801 127.2892,204.2524 126.8475,202.5411 125.5758,200.1463 123.8191,199.171 121.4771,198.0988 119.3809,198.2002 118.6501,198.4949 117.1365,197.1767 115.3313,196.3971 113.0832,194.5548 111.4308,193.7495 110.474,192.2822 109.77,189.6655 100.929,205.2015 86.9099,200.9711 57.655,192.1432 57.4971,192.147 54.322,192.2242 52.3823,191.678 48.6005,191.4346 45.6546,191.7801 41.8276,191.423 39.5683,191.1602 37.7751,190.7677 35.4431,190.247 33.2792,189.9576 31.2491,189.5917 30.3835,189.7412 30.0061,190.024 29.594,190.7455 26.5213,190.4306 17.4133,189.4978 8.2187,190.7502 6.6112,190.9203 5.1844,191.5805 0.8057,190.0509 0.1762,184.8648 0.1714,184.8252 0.1709,184.4897 0.1561,184.2642 0.0,181.883 0.0628,180.8247 1.4881,179.1062 10.5002,170.5263 12.9256,166.8645 12.9681,166.6059 14.1303,159.5462 5.3922,138.0786 5.4661,137.7337 5.6379,137.5353 6.3381,137.2019 6.7649,137.1565 6.7258,136.5237 6.5917,136.3194 6.3795,134.9069 6.1943,134.6195 5.7416,134.3069 5.6329,133.9874 5.6974,133.0924 5.6968,132.6833 5.4161,132.3683 5.1952,132.3004 5.085,132.4796 5.1836,132.7948 5.0091,132.8973 4.618,132.6166 4.1932,132.5234 4.0316,132.3617 4.1073,131.7905 3.75,131.4416 3.6683,130.931 3.6298,130.5212 3.3066,130.2319 3.2292,129.499 3.5428,129.0127 3.032,128.1866 2.173,127.4037 1.637,126.7822 1.3898,126.1178 0.9562,125.7859 1.2016,125.1208 1.6088,124.8219 1.5572,124.4637 1.2131,124.4067 0.9707,124.1769 1.0593,123.7485 1.32,123.4157 1.3132,123.1995 2.9396,122.8511 3.9075,122.577 4.6189,123.0623 5.2033,123.0796 5.8552,123.0085 6.2042,122.8445 6.6463,122.6102 6.9952,122.3527 6.9249,122.0023 7.0201,121.728 7.1214,121.2932 7.4076,121.0115 7.4571,119.9119 7.4376,119.6307 7.6664,119.3235 7.998,119.5212 8.1254,119.5338 8.099,118.869 8.1111,118.4471 7.9257,117.9743 7.8676,117.431 7.7845,117.1754 7.5137,116.9622 7.5672,116.7027 7.484,116.4151 7.3179,116.0702 7.018,115.751 7.196,115.4311 7.4512,115.433 7.7758,115.5262 7.8775,115.347 7.7752,115.1362 7.9878,114.9113 8.1322,114.7175 8.2767,114.6011 8.4112,114.2138 8.517,114.0394 8.7765,113.3325 8.7665,113.1292 7.454,112.5503 7.5884,112.1146 7.9641,111.8043 8.0697,111.4654 8.4166,111.2036 8.9651,110.2736 9.3248,109.5515 9.5234,109.5081 9.8867,109.5302 10.0152,109.4332 10.0852,108.9556 10.368,108.8326 10.9015,108.6964 11.1392,108.5412 11.126,108.2895 11.248,108.1603 11.5823,108.1792 11.9738,107.6366 12.455,106.8874 12.6347,106.6226 12.7113,106.2289 12.8268,106.0932 13.0775,105.996 13.4312,106.073 13.5731,106.2102 13.8622,106.2014 14.0294,106.2463 14.0427,106.4864 14.4213,106.6319 14.7275,106.5002 14.8236,106.2581 14.7944,106.0936 14.7649,105.6678 14.9094,105.5805 15.1121,105.6963 15.2847,105.8292 15.4454,105.8088 15.4613,105.6636 15.4409,105.4539 15.5292,105.361 15.6659,105.4092 15.6742,105.5826 15.7968,105.6373 15.9318,105.6113 16.0215,105.3982 16.1758,105.3915 16.337,105.6559 16.7834,105.6496 16.8576,105.5261 16.8252,105.3648 16.7542,105.1261 16.9404,104.9323 17.2104,104.9319 17.3707,104.609 17.6083,104.3828 17.8139,104.2535 18.0839,104.2467 18.2126,104.3433 18.592,104.3685 19.55,104.2639 20.0604,104.1289 20.727,103.765 20.9678,103.5146 20.9304,102.155 61.0587,107.4385 63.772,107.7957 75.0615,109.2821 75.7612,109.3743 85.4035,110.6438 87.6958,110.2641 92.141,108.7527 92.1658,108.7442 92.7441,108.5255 94.0453,108.0153 96.6473,106.7288 97.2011,106.1956 97.6587,105.9045 98.0924,105.686 98.5333,105.2671 98.5859,105.1754 98.8624,104.6927 98.9097,104.1603 98.8089,103.7802 98.3042,103.466 97.9277,103.1859 97.3967,102.8577 96.793,102.5598 95.9779,102.1824 95.7748,101.8537 95.7046,101.4065 95.7932,100.4837 96.08,100.1361 96.4417,99.9536 96.8528,99.6884 97.2447,99.4942 97.521,99.243 97.7314,99.0186 97.7583,98.99 97.9503,98.5308 98.1305,97.3265 98.685,96.4891 98.8997,96.3249 99.6965,95.7254 102.1857,94.6502 104.1291,93.8624 104.8299,93.3669 105.3389,93.0025 106.1762,92.592 106.7985,92.3297 107.2286,92.204 107.953,91.9755 108.1744,91.7318 108.6199,91.2415 109.0274,90.9018 109.1734,90.1516 108.8935,88.7145 109.0681,88.0494 109.418,87.3215 109.7345,86.9801 110.2778,86.8315 110.8243,86.5739 111.2852,86.447 111.8716,86.1936 112.2485,85.9406 112.5992,85.2667 113.1735,85.0248 113.7525,84.845 114.8237,84.5007 115.7941,84.4191 116.9151,84.4514 118.0247,84.4155 119.0418,84.565 119.5445,84.5673 120.0065,84.5486 120.6978,84.8771 121.4907,85.0576 121.9779,85.2273 122.6237,85.4649 123.1225,85.7822 123.553,85.9633 124.074,86.0193 124.6392,86.0517 126.0362,85.9242 126.9608,85.6222 127.8778,85.6792 129.113,86.1417 130.2231,86.7884 131.0399,86.9346 131.2574,86.9735 132.2923,87.2741 133.5403,87.5403 134.4762,87.6282 135.5009,87.5371 136.6141,87.1328 136.9996,86.694 138.6685,86.5554 139.8109,81.3472 140.2018,77.8697 140.2451,77.337 142.0132,76.8459 143.0606,76.3744 144.8653,74.9627 145.8108,73.8343 146.6864,72.8644 147.3512,71.7364 147.5071,70.5565 147.4,69.4298 147.1347,68.1625 146.6936,66.6314 145.9411,65.468 146.9051,65.3012 147.3877,65.5585 147.7578,65.8079 148.032,66.372 147.9365,66.9529 147.9934,67.3077 148.2334,67.6066 148.6369,67.6857 149.2243,68.1606 149.4335,68.2812 149.771,68.2726 149.9875,68.0141 150.035,67.5785 150.0184,67.2559 150.0449,66.739 150.1696,66.3443 150.6026,65.7628 150.9229,65.1009 150.9464,64.7137 150.9218,64.4315 150.7843,63.9075 150.7758,63.6171 150.6463,63.077 150.4846,62.5046 150.3201,62.1316 149.8325,61.7959 149.1471,61.6045 148.3132,61.5026 147.7857,61.2712 147.2513,60.8082 146.9857,60.5667 146.8194,60.1372 146.6642,59.5955 146.7274,58.9114 146.8553,58.524 147.1247,58.1236 147.491,57.8338 148.0254,57.5727 148.4271,57.4833 149.0699,57.4419 149.7528,57.3682 149.9856,57.1823 150.0978,57.0369 150.1456,56.7465 150.29,56.6091 150.6111,56.4069 150.9965,56.2208 151.4461,55.9378 151.534,55.6392 151.5254,55.3408 151.3642,55.0507 151.1712,54.93 150.8899,54.9144 150.4557,54.778 150.3506,54.3991 150.334,54.0846 150.3414,53.7297 150.4536,53.5037 150.7144,53.35 150.9353,53.2609 151.2806,53.0748 151.5213,52.8566 151.5932,52.5984 151.6166,52.1871 151.7445,51.7594 151.9527,51.3396 152.0245,51.0088 151.9839,50.775 151.8308,50.5172 151.6136,50.3482 151.3566,50.2872 151.131,50.1312 150.9782,50.0347 150.9619,49.8734 151.0259,49.7281 151.1381,49.5182 151.0126,49.2465 150.885,48.9869 150.789,48.6847 150.5315,48.4915 150.2825,48.5484 150.0497,48.6859 149.588,48.6378 149.5513,49.4671 149.6127,50.1525 149.4933,50.8786 149.2734,51.5444 148.933,52.2305 148.5921,52.5738 147.9824,52.9712 147.3875,53.0598 147.0755,52.9646 146.7888,52.8281 146.2417,52.6584 145.7794,52.5584 145.2055,52.461 145.1907,51.7764 145.1559,51.3519 144.9574,50.9209 144.6512,50.6245 143.9074,50.3233 143.2794,49.7996 143.2835,49.4105 143.554,47.9791 143.7571,47.0407 143.9604,46.1982 144.0008,45.8764 144.0001,45.4245 143.8564,45.1988 143.2555,44.8601 142.15,44.5393 140.936,43.3112 143.473,40.6847 146.4811,37.8303 149.3725,34.4527 151.6296,32.0851 152.3292,32.6667 153.0084,32.2229 153.4129,32.2914 153.8173,32.3599 154.7001,32.4533 155.4562,32.7951 156.3094,33.0311 156.5088,33.2789 156.5882,33.2952 156.7531,33.3291 157.0135,33.6983 157.5377,34.2343 158.0118,34.9378 158.6491,35.3849 158.9638,35.824 159.4918,36.2667 159.833,36.6096 160.1748,36.9903 160.6058,37.4021 161.2469,38.2803 161.3631,38.5622 161.49,38.6986 161.899,39.2973 161.9059,39.4625 161.9127,39.6277 162.395,40.5606 162.905,41.8593 163.5679,43.4554 163.6376,43.6234 165.3252,48.9626 165.3664,49.0678 165.754,50.0572 165.9423,50.5211 166.7545,52.5222 167.3522,54.3117 168.1852,56.4872 168.4015,57.0521 171.2247,63.2092 174.1115,69.0112 176.6113,73.9428 178.7716,77.7458 179.7869,79.3249 180.8022,80.9039 182.333,83.1433 184.4646,85.9289 187.1532,89.397 187.3752,89.6834 189.7742,92.002 192.1554,93.8509 193.2921,94.7335 194.0856,95.2578 194.5234,95.5975 194.7796,95.8159 195.5347,96.3209 195.7644,96.5454 195.9104,96.6879 196.254,96.9529 196.4463,97.1597 196.6792,97.3373 196.7443,97.3822 197.0169,97.5701 197.244,97.704 197.5496,97.896 197.6929,98.069 198.0146,98.1974 198.1924,98.2704 198.433,98.4709 198.8513,98.7282 199.3341,99.0661 199.6759,99.3958 199.8331,99.4685 200.3968,100.0965 202.0737,101.6764 202.4211,102.0038 202.7744,102.1784 202.908,102.2373 203.0408,102.3693 203.4402,102.7665 204.1769,103.3517 204.4939,103.3803 205.0313,103.1206 205.7296,103.4024 205.9485,103.6997 206.3183,103.7635 206.7369,104.1499 207.1834,104.6556 207.27,104.7536 207.3509,104.8735 207.3919,104.9497 207.4404,104.9911 207.489,105.0326 207.6137,105.1088 207.6974,105.1566 207.8287,105.3501 207.8772,105.4128 207.9177,105.4455 208.0646,105.5644 208.177,105.6551 208.3472,105.7922 208.6515,106.1973 208.9402,106.4639 209.072,106.6297 209.1845,106.7714 209.2042,106.8374 209.3173,106.9501 209.4554,107.0754 209.5191,107.1429 209.6711,107.3039 209.8889,107.5489 210.0992,107.7683 210.4089,108.1919 210.7347,108.5443 210.9347,108.7526 210.9985,108.843 211.0073,108.8555 211.1982,109.126 212.632,110.9461 214.662,113.5232 215.4857,114.5025 215.5357,114.5771 215.6402,114.7328 215.7567,114.8522 216.121,115.2863 216.4502,115.6417 216.6016,115.7056 216.6221,115.7844 216.7649,115.9709 216.8522,116.1336 217.1799,116.4481 217.2555,116.6154 217.796,117.2905 218.086,117.5559 218.2958,117.7804 218.645,118.2426 218.9293,118.5428 219.0252,118.644 219.2858,118.9406 219.7038,119.4175 219.8846,119.5741 219.9356,119.6379 220.0092,119.7298 220.1074,119.7805 220.2231,119.9235 220.332,120.0641 220.3651,120.0935 220.3705,120.1048 220.45,120.1689 220.5107,120.2837 220.5582,120.3164 220.6696,120.4065 220.709,120.4721 220.7664,120.5491 220.868,120.6556 220.981,120.7752 221.0417,120.8703 221.1024,120.9654 221.2712,121.1227 221.3549,121.2883 221.468,121.4063 221.6843,121.6242 221.7981,121.6803 221.8136,121.6879 221.9301,121.8913 221.9794,122.0093 222.0532,122.0831 222.1268,122.1108 222.1645,122.1666 222.3184,122.2418 222.909,122.9602 224.324,124.4156 225.1475,125.2626 226.4819,126.6893 227.1385,127.3914 227.402,127.6833 228.5006,128.9006 229.8182,130.2703 230.573,131.0569 230.9431,131.4243 233.2122,133.6773 233.3297,133.794 235.2292,135.6959 236.0971,136.5448 239.1086,139.4904 239.2845,139.6625 241.4794,141.6719 241.8798,142.0384 244.8744,144.5812 248.8302,147.9644 255.419,153.6272 256.934,154.9293 260.8304,158.2283 263.777,160.771 269.025,164.6639 270.9502,165.9504 272.9011,167.1823 274.352,167.8631 275.0722,168.1081 275.7193,168.3282 275.8298,168.3346 276.5231,168.3749 277.2468,168.5348 277.2887,168.5363 277.9865,168.5618 278.0827,168.5654 279.0965,169.0956 279.8159,169.5236 284.395,172.2475 288.7368,174.8666 290.4426,175.7825 291.641,176.3482 293.7247,177.1952 297.0021,178.1325 298.8711,178.4105 301.6206,178.7758 302.9154,179.0031 304.3095,179.2478 304.949,179.2367 305.2543,179.1877 306.0384,179.2359 305.9776,180.0191 306.0175,180.3108 306.392,180.6776 306.3747,181.3935 306.3771,182.5872 306.3778,182.8818 306.2095,183.2213 305.8349,183.6742 305.3024,183.9402 304.7109,184.3796 304.3014,184.5417 304.085,184.8809 303.9236,185.5433 304.3382,186.3148 304.7708,186.653 305.3349,187.0475 305.4857,187.3486 305.6742,187.725 305.5812,188.1397 306.0302,188.8043 306.2035,189.4383 306.1692,189.7798 306.0863,190.1155 305.9067,190.3481 305.8462,190.4921 294.7093,231.6921 294.8445,231.8484 294.9427,231.951 295.0374,232.0537 295.1453,232.1722 295.2336,232.2696 295.2934,232.3355 295.354,232.4025 295.4158,232.4709 295.4793,232.5415 295.5437,232.6125 295.6086,232.683 295.6733,232.7534 295.7378,232.8237 295.802,232.8938 295.8657,232.9642 295.9292,233.0347 295.9925,233.1053 296.0559,233.1758 296.1194,233.2464 296.1819,233.3167 296.2453,233.3873 296.3091,233.4577 296.3711,233.528 296.4361,233.5989 296.5011,233.6705 296.5664,233.7426 296.6319,233.8153 296.6981,233.8885 296.7649,233.9621 296.8319,234.0359 296.8975,234.11 296.9621,234.1813 297.0251,234.2502 297.0824,234.3205 297.1427,234.3864 297.204,234.4516 297.2818,234.5369 297.381,234.6485 297.4824,234.7583 297.5754,234.8588 297.6805,234.9726 297.7664,235.0668 297.8269,235.1339 297.8888,235.2031 297.9509,235.2728 298.0124,235.3418 298.0736,235.4099 298.1348,235.4779 298.1966,235.5457 298.259,235.6137 298.3213,235.6821 298.3835,235.7509 298.4461,235.8205 298.5093,235.8912 298.5723,235.962 298.6351,236.0321 298.6982,236.1021 298.7623,236.172 298.827,236.2422 298.8921,236.3132 298.9571,236.3852 299.0222,236.4576 299.0874,236.5302 299.153,236.6032 299.2187,236.6764 299.284,236.7496 299.349,236.8215 299.4137,236.8928 299.4783,236.9636 299.5423,237.0344 299.6055,237.1054 299.6688,237.1759 299.7321,237.2463 299.7957,237.3164 299.8594,237.3865 299.9229,237.4566 299.9861,237.5257 300.0488,237.5942 300.1108,237.6625 300.1721,237.7304 300.2331,237.7977 300.2933,237.8644 300.3528,237.9303 300.4118,237.9955 300.4704,238.0606 300.5284,238.1256 300.5862,238.1901 300.6731,238.2855 300.7603,238.3808 300.8183,238.4445 300.9041,238.5394 301.0145,238.6621 301.1236,238.7834 301.2082,238.8776 301.2678,238.9434 301.3292,239.0107 301.392,239.08 301.4555,239.1495 301.5187,239.219 301.5812,239.2886 301.6429,239.3576 301.7057,239.4271 301.7686,239.4959 301.8313,239.5645 301.8937,239.6322 301.9561,239.7005 302.0163,239.7691 302.0758,239.8413 302.1391,239.909 302.2014,239.976 302.2628,240.0431 302.3237,240.1105 302.3847,240.1778 302.4458,240.2449 302.5092,240.3101 302.5698,240.3768 302.6302,240.4431 302.6895,240.5103 302.7459,240.5755 302.8078,240.6417 302.87,240.7083 302.9321,240.7757 302.9939,240.8438 303.0558,240.9122 303.1177,240.9809 303.1799,241.0498 303.2425,241.1188 303.3055,241.1878 303.3689,241.2567 303.4317,241.326 303.4944,241.3955 303.5571,241.4648 303.62,241.534 303.6828,241.6034 303.7456,241.6728 303.8083,241.7423 303.8713,241.8117 303.9343,241.881 303.9972,241.9501 304.0599,242.0194 304.1226,242.0887 304.1854,242.1579 304.2482,242.2272 304.3112,242.297 304.3744,242.367 304.438,242.4371 304.5016,242.5073 304.5654,242.5777 304.6298,242.6482 304.6941,242.719 304.7585,242.7903 304.823,242.8623 304.8879,242.9346 304.9532,243.0071 305.0186,243.0798 305.0834,243.1521 305.1483,243.2235 305.2129,243.2942 305.2773,243.3643 305.3412,243.4342 305.4045,243.5039 305.4677,243.5732 305.5307,243.6424 305.5937,243.7114 305.6563,243.7804 305.7183,243.8492 305.7799,243.9181 305.8414,243.9867 305.9028,244.0556 305.9644,244.1243 306.0261,244.1927 306.0879,244.2604 306.1496,244.3276 306.2116,244.3949 306.2737,244.4623 306.3351,244.5301 306.3974,244.5983 306.4596,244.6667 306.5218,244.7353 306.584,244.8043 306.6463,244.8735 306.7087,244.9426 306.7713,245.0115 306.8341,245.0803 306.8971,245.1491 306.9602,245.2181 306.964,245.2222 307.0234,245.2873 307.0865,245.357 307.1495,245.4272 307.213,245.4975 307.2768,245.5676 307.3406,245.638 307.4049,245.7085 307.4694,245.7792 307.5341,245.8502 307.5987,245.9214 307.6635,245.9926 307.728,246.0638 307.7919,246.1343 307.8551,246.2043 307.9178,246.274 307.9802,246.3434 308.0425,246.4126 308.1052,246.481 308.1681,246.5493 308.2309,246.6174 308.2933,246.686 308.3557,246.7547 308.4178,246.8238 308.4799,246.8931 308.5417,246.9626 308.6019,247.0299 308.6881,247.1256 308.7754,247.2216 308.8355,247.287 308.8966,247.3537 308.9585,247.421 309.0204,247.4886 309.0819,247.5566 309.1435,247.6249 309.2053,247.6932 309.2675,247.7616 309.3297,247.8298 309.392,247.8979 309.4542,247.966 309.5165,248.034 309.5788,248.1019 309.6413,248.1698 309.704,248.2379 309.7667,248.3061 309.828,248.3731 309.8871,248.4383 309.9716,248.532 310.0782,248.6514 310.1844,248.7701 310.2966,248.8933 310.3843,248.9887 310.4439,249.0541 310.5043,249.1205 310.5656,249.1877 310.6273,249.256 310.6891,249.3244 310.7508,249.3925 310.8124,249.4604 310.8738,249.5281 310.9351,249.5956 310.9965,249.6628 311.0578,249.7299 311.1191,249.7971 311.1803,249.8641 311.2413,249.9314 311.3021,249.9989 311.3631,250.0661 311.4241,250.1333 311.4851,250.2006 311.5462,250.2678 311.6075,250.335 311.6687,250.4024 311.7298,250.4699 311.7912,250.5376 311.853,250.6055 311.9153,250.6737 311.9777,250.7421 312.0402,250.8109 312.1027,250.8803 312.1652,250.9498 312.2279,251.0193 312.2905,251.0891 312.3537,251.1589 312.4171,251.2287 312.4807,251.2987 312.5444,251.3688 312.6084,251.4387 312.6723,251.5086 312.7365,251.5782 312.8004,251.6478 312.864,251.7174 312.9275,251.7868 312.9906,251.8563 313.0537,251.9255 313.1165,251.9946 313.1793,252.0638 313.2423,252.1329 313.3053,252.2022 313.3681,252.2716 313.431,252.3413 313.4941,252.4109 313.5573,252.4805 313.6204,252.5504 313.6838,252.6203 313.7474,252.6901 313.8109,252.7599 313.8743,252.8298 313.9381,252.8994 314.0017,252.9693 314.0653,253.0392 314.1287,253.1095 314.192,253.1798 314.2552,253.2503 314.3184,253.3212 314.3814,253.3925 314.4441,253.4644 314.5054,253.5374 314.5654,253.6116 314.6241,253.6866 314.6812,253.7619 314.7367,253.8371 314.7905,253.9123 314.8424,253.9877 314.8927,254.063 314.942,254.1383 314.9904,254.2135 315.0386,254.2882 315.0866,254.3628 315.1344,254.4372 315.1822,254.5113 315.2297,254.5855 315.277,254.6594 315.3234,254.7327 315.3926,254.8408 315.4621,254.949 315.5087,255.0217 315.5555,255.0949 315.6026,255.1684 315.6502,255.2425 315.6982,255.3176 315.7467,255.3935 315.7956,255.4701 315.845,255.5474 315.8951,255.6252 315.9459,255.7033 315.9968,255.782 316.0479,255.8616 316.0993,255.9418 316.151,256.0225 316.2028,256.1037 316.2548,256.1854 316.3067,256.2667 316.3584,256.3472 316.4096,256.4275 316.4606,256.5073 316.5113,256.5873 316.5624,256.6671 316.6137,256.747 316.6653,256.8268 316.7171,256.9067 316.7691,256.9865 316.8215,257.0663 316.8736,257.1467 316.9256,257.2277 316.9775,257.3089 317.0291,257.3905 317.0809,257.4724 317.1328,257.5546 317.1856,257.6363 317.2389,257.7179 317.2921,257.7999 317.3449,257.8823 317.3975,257.9652 317.4505,258.0479 317.5037,258.1305 317.5567,258.2133 317.6093,258.2953 317.6619,258.3769 317.7144,258.4582 317.7666,258.5394 317.8188,258.6206 317.8707,258.7017 317.9222,258.7832 317.9741,258.8647 318.0263,258.9463 318.0787,259.0282 318.1316,259.1104 318.1847,259.1926 318.2378,259.2752 318.2909,259.358 318.3443,259.4411 318.3981,259.5244 318.4519,259.608 318.5059,259.6919 318.5603,259.776 318.6152,259.8602 318.6703,259.9447 318.7251,260.0286 318.7791,260.1112 318.8323,260.1933 318.8853,260.2754 318.938,260.3574 318.9905,260.4397 319.043,260.5217 319.0954,260.6032 319.1477,260.6846 319.1997,260.7661 319.2517,260.8475 319.3036,260.9289 319.3553,261.0104 319.4072,261.0916 319.4592,261.1725 319.5114,261.2532 319.5637,261.3337 319.6156,261.4143 319.6676,261.4947 319.7193,261.5752 319.7706,261.6556 319.8217,261.7353 319.8726,261.8142 319.9234,261.8924 319.974,261.9702 320.0243,262.0476 320.0745,262.1248 320.1243,262.202 320.1737,262.2791 320.223,262.3565 320.2723,262.4341 320.3218,262.512 320.3715,262.59 320.4215,262.6681 320.4716,262.7467 320.5221,262.8255 320.5726,262.9046 320.6232,262.9839 320.6741,263.0632 320.7251,263.1424 320.7763,263.2216 320.8274,263.301 320.8783,263.3805 320.9293,263.4599 320.9806,263.5395 321.032,263.6191 321.0837,263.6987 321.1356,263.7785 321.1872,263.8583 321.2374,263.9368 321.2869,264.0138 321.3357,264.0899 321.3849,264.166 321.4352,264.2418 321.4851,264.3189 321.5324,264.3972 321.5827,264.4764 321.6347,264.5545 321.686,264.6347 321.7372,264.7157 321.7893,264.7963 321.8418,264.8774 321.8941,264.9588 321.9464,265.0401 321.9978,265.1207 322.0486,265.2003 322.099,265.2794 322.1494,265.3581 322.2001,265.4368 322.2513,265.5157 322.3028,265.595 322.3544,265.6748 322.406,265.7551 322.4574,265.8361 322.5093,265.9173 322.5621,265.9987 322.6149,266.0804 322.6677,266.1622 322.7205,266.244 322.7708,266.3254 322.8235,266.4062 322.8763,266.4864 322.9281,266.5665 322.9796,266.6465 323.0308,266.7263 323.0816,266.806 323.1322,266.8859 323.1828,266.9659 323.2336,267.0457 323.2847,267.1244 323.3353,267.2026 323.3855,267.2805 323.4356,267.3586 323.4855,267.4368 323.5354,267.5146 323.5865,267.5919 323.6376,267.6698 323.6874,267.7493 323.7374,267.8291 323.7882,267.9092 323.8399,267.9894 323.8921,268.0698 323.9445,268.1503 323.9963,268.2313 324.0478,268.3122 324.0995,268.3928 324.1515,268.4733 324.2042,268.5538 324.2572,268.6342 324.3095,268.7153 324.361,268.7969 324.413,268.8784 324.4648,268.9602 324.5168,269.0422 324.5688,269.1242 324.6212,269.206 324.6739,269.2878 324.7267,269.3697 324.7793,269.4516 324.8322,269.5336 324.8857,269.6158 324.9394,269.6982 324.9927,269.7811 325.0458,269.8638 325.0989,269.946 325.1519,270.0279 325.2042,270.1095 325.2564,270.1905 325.3079,270.2709 325.3592,270.3503 325.4102,270.4289 325.4611,270.5068 325.5115,270.5845 325.5616,270.6625 325.6116,270.7409 325.6617,270.8195 325.7122,270.8982 325.7633,270.9773 325.815,271.0574 325.8673,271.1383 325.9205,271.2201 325.9741,271.3028 326.0281,271.3865 326.0818,271.4709 326.135,271.5548 326.1881,271.6371 326.2413,271.718 326.2934,271.7982 326.3445,271.8779 326.3954,271.9568 326.4462,272.0356 326.4971,272.1142 326.5476,272.1928 326.5977,272.2714 326.6478,272.35 326.698,272.4285 326.7482,272.5072 326.7988,272.5857 326.8496,272.6642 326.9004,272.7428 326.951,272.8215 327.0019,272.9005 327.0531,272.9798 327.104,273.0602 327.1558,273.1403 327.2077,273.2206 327.2567,273.3039 327.3095,273.382 327.3617,273.4622 327.4138,273.5423 327.4657,273.622 327.5175,273.7014 327.5689,273.7808 327.6198,273.86 327.6704,273.9392 327.7207,274.0181 327.771,274.0969 327.8212,274.1754 327.8714,274.2536 327.922,274.3316 327.9723,274.4095 328.0224,274.4875 328.0721,274.5656 328.1218,274.6437 328.1717,274.7219 328.2219,274.8002 328.2726,274.8784 328.3238,274.9564 328.3754,275.0344 328.427,275.1125 328.4781,275.1912 328.5289,275.2702 328.5799,275.3494 328.6309,275.4288 328.6819,275.5082 328.7329,275.5877 328.7839,275.667 328.8346,275.7464 328.8854,275.8256 328.9364,275.9048 328.9872,275.9841 329.038,276.0633 329.0887,276.1425 329.1393,276.2213 329.1902,276.3 329.2392,276.3786 329.2909,276.4572 329.343,276.5359 329.3951,276.6149 329.4471,276.6944 329.4989,276.7744 329.5508,276.8549 329.6027,276.9357 329.6548,277.017 329.7071,277.0985 329.7598,277.18 329.8123,277.2611 329.8642,277.3421 329.9158,277.4228 329.9672,277.5032 330.0186,277.583 330.0699,277.6622 330.121,277.7412 330.1715,277.8203 330.2221,277.8993 330.2727,277.9781 330.3232,278.0569 330.374,278.1353 330.4247,278.2135 330.4755,278.2916 330.5264,278.3696 330.5775,278.4478 353.5826,272.8064 354.6794,272.2241 355.834,271.6418 357.0467,271.2332 358.4913,271.114 360.2257,271.342 361.7288,271.5706 362.8276,271.858 363.8114,272.4355 364.3319,272.6083 365.8927,272.7787 366.6439,272.719 367.568,272.4271 368.3182,271.9615 368.7797,271.5546 369.2985,270.9737 369.934,270.8563 370.5119,270.855 371.2639,271.1432 372.7096,271.5457 373.4612,271.66 374.5593,271.6575 375.4843,271.7713 376.351,271.7113 377.6801,271.6503 378.6263,271.202 379.5766,270.7112 380.1985,270.2667 380.8321,269.9925 381.8844,269.547 382.7341,269.6814 383.5834,269.5886 384.0357,269.258 384.4882,269.0638 384.9523,268.9491 385.3708,268.7096 385.7218,268.652 386.0052,268.7649 386.1305,269.0601 386.2446,269.4234 386.4722,269.9001 386.5535,270.8088 386.6565,271.2403 386.8272,271.6149 387.2463,271.6139 387.6432,271.8516 387.9035,271.7828 388.1758,271.9754 388.6513,271.9061 389.4105,272.0293 390.1799,271.7094 391.4926,271.2292 392.0697,271.0347 392.8202,270.8618 393.1348,270.5735 393.4546,270.2805 394.025,269.269 394.5685,269.1883 394.8174,269.0741 395.36,268.6297 395.8124,268.3559 396.23,267.7301 397.0893,267.6051 397.3954,267.2274 397.7112,266.6586 397.9144,266.3627 398.8989,266.0082 398.5695,265.5772 398.7615,265.3609 399.222,265.1651 399.5687,265.1643 399.6845,265.222 399.9162,265.4534 400.1336,266.0962 400.3822,267.0757 401.2572,267.6792 402.1033,267.859 402.7535,267.8238 403.4715,267.4519 404.0154,267.5516 405.0631,267.8723 405.8288,268.1129 406.5691,268.3947 407.494,268.5085 408.2454,268.5647 409.0576,268.683 410.3208,268.9709 412.2745,269.2491 414.7738,270.3945 416.1452,271.3406 417.8188,272.387 418.907,272.7681 421.6461,273.105 423.9431,273.8267 424.0911,273.9192 426.1007,275.1748 426.4807,276.7945 427.0523,277.3944 428.8851,277.6324 428.7675,278.9455 430.5309,280.0312 430.4905,282.2186 430.4736,283.1333 429.7364,323.0558 369.4634,338.4727 369.3995,338.489 369.3758,338.4951 356.3333,341.6316 355.4663,341.8407 340.6153,345.4125 322.7963,349.5822 318.461,350.5967 306.7503,353.4756 306.4429,353.5512 293.8113,356.6565 293.8101,356.6568 271.8242,361.6221 238.7302,369.1153 238.6808,369.1264 271.2828,294.5643 273.4947,289.5046 258.1105,262.4995 256.2045,247.2315 254.9029,228.6587 250.3968,228.3615 236.4712,227.443 235.6678,227.39 234.9806,227.1781 234.4789,227.121 234.0065,227.2671 231.0158,227.0793 230.5527,227.0318 230.1571,227.0036 229.6944,227.169 229.328,227.2665 229.0195,227.3542 228.788,227.3449 228.5179,227.3455 228.199,227.0364 227.9846,226.8698 227.618,226.7589 227.208,226.6015 226.8397,226.7688 226.5569,226.8468 226.0194,227.2729 225.1799,227.367 224.968,227.2942 224.6304,227.3239 224.1289,227.3636 223.8587,227.3061 223.2993,227.3846 222.422,227.6088 221.8011,227.6227 221.3133,227.9594 220.937,227.8924 220.628,227.7284 220.2804,227.5743 219.8561,227.6417 218.9476,227.6435 217.5597,227.7938 216.6451,227.8928 215.7807,228.1748 214.7438,228.7873 213.527,228.9333 212.6669,228.4321 211.7357,228.1466 210.6967,227.6817 209.9776,227.3229 209.3397,226.6563 208.7895,226.4832 208.3752,226.7162 207.757,226.3012 207.1493,226.283 206.2044,226.5365 205.3176,226.8962 204.8936,227.1293 203.8518,227.1603 203.003,227.1812 202.0958,226.97 201.323,226.3521 200.175,226.3155 198.7239,226.635 197.7171,227.3944 196.4759,228.22 195.3654,228.444 193.7144,228.9346 191.3018,228.888 190.3613,228.6624 189.3079,228.6644 188.0256,229.1061 186.8779,229.2437 185.73,229.3187 184.676,229.4092 184.4366,229.4298 183.2952,229.5278 182.1806,229.5911 181.6789,229.5049 181.1575,229.2639 180.5204,229.0328 179.3918,229.1394 179.0014,228.8879 178.2652,228.9234 177.4617,228.6513 176.4871,228.4789 175.0366,228.5884 174.4034,229.1918 173.9734,229.3744 173.6788,229.3408 173.2519,229.2022 172.0177,229.3843 171.0962,229.3501 170.5851,229.4187 169.6623,229.6714 168.4633,229.73 167.4888,229.5889 166.5813,229.5355 165.8102,229.5435 164.7501,229.051 163.4149,227.8831 161.4444,226.4446 159.6386,225.4123 156.3004,224.8789 154.5798,224.5006 150.6043,224.3564 148.9767,224.5005 147.7743,224.5394 146.8774,224.4592 146.3431,224.021 146.1801,223.8356" stroke="black" /><polygon fill="none" points="143.7413,15.2788 143.7869,15.2569 143.8025,15.2494 143.8637,15.22 144.095,15.1496 144.299,15.1002 144.3819,15.0801 144.3843,15.0797 144.4028,15.075 144.4268,15.0692 144.4517,15.0752 144.7587,15.1496 145.0503,15.2753 145.342,15.401 145.6685,15.5243 146.0937,15.6847 146.4079,15.8033 146.9302,15.9304 147.0277,15.9541 147.3092,16.0346 147.455,16.0145 147.5279,16.0044 147.6009,15.9944 147.7785,15.8793 147.9822,15.7927 148.0943,15.7519 148.2064,15.7112 148.405,15.7265 148.6394,15.7061 148.8737,15.645 149.1081,15.645 149.263,15.6403 150.9158,15.0386 151.2173,15.1548 151.4177,15.4788 151.7223,16.5879 151.9785,17.3345 152.2347,18.0812 152.4221,18.904 152.5477,19.8583 152.3037,20.1102 152.2725,20.1424 152.3579,21.7332 152.504,22.6114 153.113,24.1114 153.3837,25.3007 153.5782,26.248 153.4275,26.7982 153.2768,27.3484 152.9542,28.1374 152.783,28.7949 152.6114,29.2102 152.502,29.523 152.4879,29.5631 152.4333,29.8538 152.1699,30.3061 151.8519,30.787 151.547,31.0456 151.6296,32.0851 149.3725,34.4527 146.4811,37.8303 143.473,40.6847 140.936,43.3112 142.15,44.5393 143.2555,44.8601 143.8564,45.1988 144.0001,45.4245 144.0008,45.8764 143.9604,46.1982 143.7571,47.0407 143.554,47.9791 143.2835,49.4105 143.2794,49.7996 143.9074,50.3233 144.6512,50.6245 144.9574,50.9209 145.1559,51.3519 145.1907,51.7764 145.2055,52.461 145.7794,52.5584 146.2417,52.6584 146.7888,52.8281 147.0755,52.9646 147.3875,53.0598 147.9824,52.9712 148.5921,52.5738 148.933,52.2305 149.2734,51.5444 149.4933,50.8786 149.6127,50.1525 149.5513,49.4671 149.588,48.6378 150.0497,48.6859 150.2825,48.5484 150.5315,48.4915 150.789,48.6847 150.885,48.9869 151.0126,49.2465 151.1381,49.5182 151.0259,49.7281 150.9619,49.8734 150.9782,50.0347 151.131,50.1312 151.3566,50.2872 151.6136,50.3482 151.8308,50.5172 151.9839,50.775 152.0245,51.0088 151.9527,51.3396 151.7445,51.7594 151.6166,52.1871 151.5932,52.5984 151.5213,52.8566 151.2806,53.0748 150.9353,53.2609 150.7144,53.35 150.4536,53.5037 150.3414,53.7297 150.334,54.0846 150.3506,54.3991 150.4557,54.778 150.8899,54.9144 151.1712,54.93 151.3642,55.0507 151.5254,55.3408 151.534,55.6392 151.4461,55.9378 150.9965,56.2208 150.6111,56.4069 150.29,56.6091 150.1456,56.7465 150.0978,57.0369 149.9856,57.1823 149.7528,57.3682 149.0699,57.4419 148.4271,57.4833 148.0254,57.5727 147.491,57.8338 147.1247,58.1236 146.8553,58.524 146.7274,58.9114 146.6642,59.5955 146.8194,60.1372 146.9857,60.5667 147.2513,60.8082 147.7857,61.2712 148.3132,61.5026 149.1471,61.6045 149.8325,61.7959 150.3201,62.1316 150.4846,62.5046 150.6463,63.077 150.7758,63.6171 150.7843,63.9075 150.9218,64.4315 150.9464,64.7137 150.9229,65.1009 150.6026,65.7628 150.1696,66.3443 150.0449,66.739 150.0184,67.2559 150.035,67.5785 149.9875,68.0141 149.771,68.2726 149.4335,68.2812 149.2243,68.1606 148.6369,67.6857 148.2334,67.6066 147.9934,67.3077 147.9365,66.9529 148.032,66.372 147.7578,65.8079 147.3877,65.5585 146.9051,65.3012 145.9411,65.468 146.6936,66.6314 147.1347,68.1625 147.4,69.4298 147.5071,70.5565 147.3512,71.7364 146.6864,72.8644 145.8108,73.8343 144.8653,74.9627 143.0606,76.3744 142.0132,76.8459 140.2451,77.337 140.2018,77.8697 139.8109,81.3472 138.6685,86.5554 136.9996,86.694 136.6141,87.1328 135.5009,87.5371 134.4762,87.6282 133.5403,87.5403 132.2923,87.2741 131.2574,86.9735 131.0399,86.9346 130.2231,86.7884 129.113,86.1417 127.8778,85.6792 126.9608,85.6222 126.0362,85.9242 124.6392,86.0517 124.074,86.0193 123.553,85.9633 123.1225,85.7822 122.6237,85.4649 121.9779,85.2273 121.4907,85.0576 120.6978,84.8771 120.0065,84.5486 119.5445,84.5673 119.0418,84.565 118.0247,84.4155 116.9151,84.4514 115.7941,84.4191 114.8237,84.5007 113.7525,84.845 113.1735,85.0248 112.5992,85.2667 112.2485,85.9406 111.8716,86.1936 111.2852,86.447 110.8243,86.5739 110.2778,86.8315 109.7345,86.9801 109.418,87.3215 109.0681,88.0494 108.8935,88.7145 109.1734,90.1516 109.0274,90.9018 108.6199,91.2415 108.1744,91.7318 107.953,91.9755 107.2286,92.204 106.7985,92.3297 106.1762,92.592 105.3389,93.0025 104.8299,93.3669 104.1291,93.8624 102.1857,94.6502 99.6965,95.7254 98.8997,96.3249 98.685,96.4891 98.1305,97.3265 97.9503,98.5308 97.7583,98.99 97.7314,99.0186 97.521,99.243 97.2447,99.4942 96.8528,99.6884 96.4417,99.9536 96.08,100.1361 95.7932,100.4837 95.7046,101.4065 95.7748,101.8537 95.9779,102.1824 96.793,102.5598 97.3967,102.8577 97.9277,103.1859 98.3042,103.466 98.8089,103.7802 98.9097,104.1603 98.8624,104.6927 98.5859,105.1754 98.5333,105.2671 98.0924,105.686 97.6587,105.9045 97.2011,106.1956 96.6473,106.7288 94.0453,108.0153 92.7441,108.5255 92.1658,108.7442 92.141,108.7527 87.6958,110.2641 85.4035,110.6438 75.7612,109.3743 75.0615,109.2821 63.772,107.7957 61.0587,107.4385 20.9304,102.155 20.9675,101.9083 21.0073,101.6435 21.0197,101.4491 21.024,101.3797 21.0346,101.211 21.142,100.8251 21.1865,100.2227 21.1632,99.8136 21.2988,99.5748 21.6301,99.4854 21.7346,99.4123 21.7175,99.2419 21.4881,99.1678 21.1443,99.1592 20.6495,98.9417 20.3366,98.7459 20.2468,98.55 20.3676,98.3691 20.3989,98.1456 20.5213,97.9034 20.5648,97.069 20.4613,96.8314 20.1922,96.8045 20.0304,96.9363 19.8232,97.0083 19.3094,96.6946 19.3604,96.3691 19.4458,96.1638 19.4382,96.0372 19.2631,96.015 19.0814,95.9317 18.9523,96.0404 18.8712,96.3895 18.6061,96.4567 18.3158,96.6113 17.9548,96.425 17.9134,96.1967 18.0167,95.95 17.8225,95.7536 17.7335,95.2665 17.4712,94.7585 17.2709,94.6145 17.1735,94.3544 17.204,94.1341 17.3816,94.0579 17.4377,93.8158 17.2444,93.1262 17.1303,92.6783 17.5199,92.2878 17.6285,91.3996 17.8141,90.5044 18.1609,89.4641 18.6692,88.5599 19.891,87.7654 21.1047,87.1671 21.3761,86.928 21.4862,86.6722 21.3917,85.9649 20.8482,85.9486 20.9006,85.7765 21.0612,85.7198 21.2056,85.5139 21.1813,85.3849 20.9323,85.3859 21.0044,85.1541 21.0676,84.951 20.9005,84.5564 20.7072,84.2325 20.5039,83.7488 20.3977,83.6086 20.2528,83.4975 19.7911,83.2167 19.8415,82.799 20.3528,81.8779 20.4502,80.8547 20.5431,80.4796 21.0013,80.1295 21.213,79.7456 21.493,79.5577 21.7134,79.2761 22.2569,79.2327 22.8847,78.746 23.0963,78.2428 23.2999,78.0721 23.5804,78.2421 23.9116,78.2246 24.1065,77.9004 24.0888,77.4146 23.8973,76.8245 23.334,76.7546 23.0799,76.2887 22.9695,75.534 23.1456,75.0659 23.2735,74.5979 23.4289,74.1684 24.6393,73.7992 25.5637,73.3917 25.8203,72.9396 26.6219,71.4705 27.0864,70.3245 27.326,69.2594 27.453,68.1461 27.4194,67.146 26.9756,65.9949 26.689,64.1958 26.4735,62.4145 26.3513,61.6431 26.1771,61.1906 25.7256,60.9127 25.3093,60.9133 24.7891,61.1578 23.819,62.2039 23.4724,62.5178 22.9869,62.6927 22.3623,62.6935 21.9107,62.3459 21.5282,61.7544 21.1091,60.1772 20.7615,59.4222 19.2427,58.4159 18.5495,57.8646 19.0245,55.9666 19.2153,54.5306 19.4384,53.1107 19.5178,52.4169 19.5488,51.578 17.8106,50.1187 16.4862,48.7007 16.054,47.5284 15.3724,45.2885 14.6138,43.5382 13.6507,41.0585 12.9202,38.5785 12.1899,36.1569 15.6063,32.0668 18.0726,30.292 22.7832,29.1603 25.0122,28.4001 27.5353,26.9812 29.6966,24.7728 31.3002,22.4006 30.3478,19.916 29.7101,17.0791 29.6799,16.8818 30.441,16.4258 32.2138,15.2714 32.9312,14.7961 34.4681,13.7777 36.0887,14.0216 37.0043,13.8128 40.735,12.9944 42.6726,12.5658 45.4611,13.7426 47.5645,14.5526 49.8875,13.9104 52.1056,14.0233 54.0921,14.0495 54.9793,14.1159 56.4924,14.8435 57.799,15.9063 59.2197,16.8789 59.2704,16.9514 59.2319,17.0361 58.6505,17.9376 57.8408,19.048 58.0252,19.3046 58.4814,20.9436 58.3288,21.126 58.2384,21.3802 58.473,21.7634 58.8843,22.0888 59.8972,22.2695 60.1556,22.6 60.1951,23.4869 60.3435,23.6976 60.8642,23.7016 61.4994,23.6911 61.9292,23.6089 62.559,23.1238 63.0311,22.6293 63.6744,22.3456 63.8282,22.163 63.9569,22.0286 64.0188,21.8847 64.2611,21.0166 63.9591,20.2355 63.7768,19.718 63.7236,19.2962 63.8904,19.0418 64.1579,19.0079 64.5786,19.3045 64.8881,19.5269 65.214,19.3563 65.5144,18.9723 65.9343,18.708 66.2878,18.7458 66.4981,18.8078 66.6706,19.1815 66.1033,19.9447 65.8702,20.5827 66.2168,21.087 66.4109,21.429 67.0983,21.8382 67.8702,22.1758 68.4454,22.3318 68.8348,22.368 68.9613,22.2978 68.9448,22.114 69.076,20.4023 69.2037,19.5391 69.332,19.0883 69.7462,19.1726 70.2765,19.1234 71.1949,19.0759 71.517,19.4824 71.9275,20.1574 72.0653,20.3388 72.2707,20.42 72.4623,20.3901 72.7152,20.0277 72.8343,19.7926 72.934,19.3849 73.1528,18.8045 73.5345,18.4827 74.031,18.3525 74.3843,18.2465 74.6136,18.2126 74.9195,18.3943 75.0069,18.757 75.1147,19.1229 75.0552,19.6646 74.9983,19.9859 74.8363,20.2354 73.6945,21.0959 73.0959,21.4933 72.7442,21.7049 72.5026,22.0249 72.7133,22.3762 72.9983,22.7043 73.4089,23.2765 73.6448,23.4871 73.8676,23.4228 74.0966,23.2371 74.4147,22.9937 74.8217,22.5648 74.9982,22.2446 75.2345,21.8163 75.6481,21.5408 76.075,21.6616 76.4797,22.2553 76.7213,22.6098 76.9948,22.803 77.3756,22.644 77.7127,22.3495 78.1068,21.8119 78.0883,21.2541 78.0801,21.0065 78.3909,20.1367 78.7981,19.8804 79.2629,19.8413 79.6135,20.0326 79.9707,20.3836 80.126,20.9108 80.2394,21.5398 80.5842,21.8018 80.941,21.9035 81.2071,21.8522 81.3421,21.8262 81.61,21.6175 81.8765,21.4099 82.6974,20.9676 83.3011,20.508 83.7233,19.9954 83.6447,19.7364 83.4818,19.5123 83.3204,19.1801 82.9632,18.8057 82.5129,18.6273 81.8163,18.475 81.1962,18.3396 80.8055,18.2293 80.4996,18.1275 80.2685,17.9262 80.1931,17.574 80.3541,17.3351 80.9397,17.1382 81.6019,17.0349 82.0009,16.9917 82.332,16.94 82.5527,16.88 82.7562,16.7007 82.8662,16.4278 82.8875,16.2088 82.7465,15.8655 82.296,15.5764 81.7097,15.3386 81.4208,15.1856 81.1659,15.1008 80.8854,14.9308 80.7238,14.7691 80.7914,14.5133 81.0628,14.2827 81.3768,14.1885 81.7249,14.1454 82.2684,14.2042 82.7611,14.3398 83.2456,14.6118 83.6706,14.901 83.9853,15.267 84.2494,15.8035 84.5899,16.4167 84.8875,16.6634 85.0915,16.7909 85.4142,16.7905 85.6774,16.7901 85.9066,16.7471 86.1951,16.6018 86.5739,16.2659 87.1733,15.8105 87.6598,15.6052 88.3956,15.5245 88.5036,15.5344 89.2449,15.6027 90.4111,15.6464 90.895,15.4949 91.3615,15.1874 91.8706,14.8883 92.2951,14.8535 92.6437,15.1428 92.7885,15.475 92.8656,15.9266 93.0188,16.1565 93.4267,16.3689 94.0043,16.4703 94.4119,16.4867 95.1648,15.9109 95.9344,15.7663 96.8219,15.6543 97.4033,15.5366 98.0156,15.4127 98.7318,15.2438 99.9304,15.0693 100.5609,15.0588 101.0148,15.1492 101.34,15.3884 101.4264,15.6759 101.3294,15.9867 101.1501,16.1797 100.6824,16.4393 100.2054,16.838 99.8004,17.505 99.5387,18.1478 99.3678,18.7857 99.5311,19.1673 99.8563,19.4305 100.0712,19.4302 100.6824,19.2854 101.9001,19.1498 102.9413,19.3076 103.2565,19.2591 103.8044,18.3474 103.824,17.8964 104.0485,17.458 104.4757,16.9368 105.3407,16.3768 106.2583,15.5485 107.2771,15.4414 108.5277,15.7455 109.9324,16.2736 111.5639,16.9983 112.1231,17.4217 112.5765,17.7543 112.9599,18.3822 113.3392,18.7075 113.5919,18.8519 113.8987,18.9419 114.2415,18.9957 114.4939,18.9591 114.8905,18.8317 115.1607,18.5893 115.3225,18.2698 115.3935,17.5456 115.3556,16.387 115.3908,15.8439 115.4623,15.4274 115.6063,15.2099 115.8584,14.9742 116.2189,14.8107 116.7305,14.8099 117.0126,14.8818 117.3097,15.0743 117.937,15.6734 118.1497,15.7597 118.3425,15.8103 118.5454,15.8202 118.8295,15.8198 119.0526,15.7583 119.4559,15.5542 119.6397,15.3522 119.7417,15.2277 119.782,15.1054 119.8425,14.8711 119.9834,14.4849 119.8013,13.8943 118.8941,12.9714 117.8819,12.4579 116.8721,11.9881 114.627,11.0805 113.8147,10.6835 113.3995,10.3945 112.949,9.8072 112.6122,9.3825 112.4869,8.6935 111.8968,7.8308 110.3245,6.318 108.4523,6.0937 106.6563,6.3086 105.7192,5.5676 104.7672,4.9024 103.6495,4.5102 102.1544,4.058 101.066,3.1051 100.6626,1.9515 100.6452,1.9335 100.9381,1.3241 100.9316,1.1439 100.9124,0.6138 101.0033,0.2039 101.2918,0.0 101.3709,0.0141 102.012,0.1279 102.8995,0.4363 104.1859,0.886 104.7895,1.1508 105.3932,1.4156 105.8717,1.9157 106.5228,2.5425 107.6611,3.25 108.4118,3.8445 110.0028,4.8848 110.6388,5.4458 113.1415,6.9827 115.152,8.3057 115.5573,8.4508 115.8464,8.5848 116.1064,8.81 117.5877,9.8171 118.3908,10.2905 119.7253,11.1635 121.1646,11.8966 121.6883,12.1565 122.9023,12.7852 124.3259,13.3782 125.5008,13.5981 126.4793,13.3575 126.8849,13.2578 127.7266,13.6122 128.1922,13.8082 129.5261,13.9907 130.4178,13.9975 130.8836,13.8032 131.333,13.4476 131.654,13.1729 132.0228,12.7045 132.7935,12.2516 132.7831,11.7579 132.7761,11.4289 133.0326,10.993 133.4035,10.7613 133.9502,10.8849 134.3313,11.2702 135.1149,11.6269 135.433,11.7937 135.9451,12.0185 136.4415,12.1811 136.9923,12.3903 137.372,12.5642 137.6609,12.6639 137.9723,12.8793 138.4698,13.0886 138.7143,13.2254 138.9851,13.5313 139.6452,13.8029 139.556,13.7744 140.3061,14.1901 140.3956,14.2426 140.4572,14.2563 140.5189,14.27 140.5771,14.3214 140.673,14.3728 140.7963,14.4515 141.2483,14.7358 141.6353,14.9755 142.0086,15.1981 142.4675,15.4173 142.9572,15.5782 143.2072,15.6125 143.3065,15.609 143.3236,15.5508 143.5188,15.52 143.5976,15.3351 143.6276,15.327 143.6576,15.319 143.7413,15.2788" stroke="black" /><polygon fill="none" points="430.5309,280.0312 428.7675,278.9455 428.8851,277.6324 427.0523,277.3944 426.4807,276.7945 426.1007,275.1748 424.0911,273.9192 423.9431,273.8267 421.6461,273.105 418.907,272.7681 417.8188,272.387 416.1452,271.3406 414.7738,270.3945 412.2745,269.2491 410.3208,268.9709 409.0576,268.683 408.2454,268.5647 407.494,268.5085 406.5691,268.3947 405.8288,268.1129 405.0631,267.8723 404.0154,267.5516 403.4715,267.4519 402.7535,267.8238 402.1033,267.859 401.2572,267.6792 400.3822,267.0757 400.1336,266.0962 399.9162,265.4534 399.6845,265.222 399.5687,265.1643 399.222,265.1651 398.7615,265.3609 398.5695,265.5772 398.8989,266.0082 397.9144,266.3627 397.7112,266.6586 397.3954,267.2274 397.0893,267.6051 396.23,267.7301 395.8124,268.3559 395.36,268.6297 394.8174,269.0741 394.5685,269.1883 394.025,269.269 393.4546,270.2805 393.1348,270.5735 392.8202,270.8618 392.0697,271.0347 391.4926,271.2292 390.1799,271.7094 389.4105,272.0293 388.6513,271.9061 388.1758,271.9754 387.9035,271.7828 387.6432,271.8516 387.2463,271.6139 386.8272,271.6149 386.6565,271.2403 386.5535,270.8088 386.4722,269.9001 386.2446,269.4234 386.1305,269.0601 386.0052,268.7649 385.7218,268.652 385.3708,268.7096 384.9523,268.9491 384.4882,269.0638 384.0357,269.258 383.5834,269.5886 382.7341,269.6814 381.8844,269.547 380.8321,269.9925 380.1985,270.2667 379.5766,270.7112 378.6263,271.202 377.6801,271.6503 376.351,271.7113 375.4843,271.7713 374.5593,271.6575 373.4612,271.66 372.7096,271.5457 371.2639,271.1432 370.5119,270.855 369.934,270.8563 369.2985,270.9737 368.7797,271.5546 368.3182,271.9615 367.568,272.4271 366.6439,272.719 365.8927,272.7787 364.3319,272.6083 363.8114,272.4355 362.8276,271.858 361.7288,271.5706 360.2257,271.342 358.4913,271.114 357.0467,271.2332 355.834,271.6418 354.6794,272.2241 353.5826,272.8064 330.5775,278.4478 330.5264,278.3696 330.4755,278.2916 330.4247,278.2135 330.374,278.1353 330.3232,278.0569 330.2727,277.9781 330.2221,277.8993 330.1715,277.8203 330.121,277.7412 330.0699,277.6622 330.0186,277.583 329.9672,277.5032 329.9158,277.4228 329.8642,277.3421 329.8123,277.2611 329.7598,277.18 329.7071,277.0985 329.6548,277.017 329.6027,276.9357 329.5508,276.8549 329.4989,276.7744 329.4471,276.6944 329.3951,276.6149 329.343,276.5359 329.2909,276.4572 329.2392,276.3786 329.1902,276.3 329.1393,276.2213 329.0887,276.1425 329.038,276.0633 328.9872,275.9841 328.9364,275.9048 328.8854,275.8256 328.8346,275.7464 328.7839,275.667 328.7329,275.5877 328.6819,275.5082 328.6309,275.4288 328.5799,275.3494 328.5289,275.2702 328.4781,275.1912 328.427,275.1125 328.3754,275.0344 328.3238,274.9564 328.2726,274.8784 328.2219,274.8002 328.1717,274.7219 328.1218,274.6437 328.0721,274.5656 328.0224,274.4875 327.9723,274.4095 327.922,274.3316 327.8714,274.2536 327.8212,274.1754 327.771,274.0969 327.7207,274.0181 327.6704,273.9392 327.6198,273.86 327.5689,273.7808 327.5175,273.7014 327.4657,273.622 327.4138,273.5423 327.3617,273.4622 327.3095,273.382 327.2567,273.3039 327.2077,273.2206 327.1558,273.1403 327.104,273.0602 327.0531,272.9798 327.0019,272.9005 326.951,272.8215 326.9004,272.7428 326.8496,272.6642 326.7988,272.5857 326.7482,272.5072 326.698,272.4285 326.6478,272.35 326.5977,272.2714 326.5476,272.1928 326.4971,272.1142 326.4462,272.0356 326.3954,271.9568 326.3445,271.8779 326.2934,271.7982 326.2413,271.718 326.1881,271.6371 326.135,271.5548 326.0818,271.4709 326.0281,271.3865 325.9741,271.3028 325.9205,271.2201 325.8673,271.1383 325.815,271.0574 325.7633,270.9773 325.7122,270.8982 325.6617,270.8195 325.6116,270.7409 325.5616,270.6625 325.5115,270.5845 325.4611,270.5068 325.4102,270.4289 325.3592,270.3503 325.3079,270.2709 325.2564,270.1905 325.2042,270.1095 325.1519,270.0279 325.0989,269.946 325.0458,269.8638 324.9927,269.7811 324.9394,269.6982 324.8857,269.6158 324.8322,269.5336 324.7793,269.4516 324.7267,269.3697 324.6739,269.2878 324.6212,269.206 324.5688,269.1242 324.5168,269.0422 324.4648,268.9602 324.413,268.8784 324.361,268.7969 324.3095,268.7153 324.2572,268.6342 324.2042,268.5538 324.1515,268.4733 324.0995,268.3928 324.0478,268.3122 323.9963,268.2313 323.9445,268.1503 323.8921,268.0698 323.8399,267.9894 323.7882,267.9092 323.7374,267.8291 323.6874,267.7493 323.6376,267.6698 323.5865,267.5919 323.5354,267.5146 323.4855,267.4368 323.4356,267.3586 323.3855,267.2805 323.3353,267.2026 323.2847,267.1244 323.2336,267.0457 323.1828,266.9659 323.1322,266.8859 323.0816,266.806 323.0308,266.7263 322.9796,266.6465 322.9281,266.5665 322.8763,266.4864 322.8235,266.4062 322.7708,266.3254 322.7205,266.244 322.6677,266.1622 322.6149,266.0804 322.5621,265.9987 322.5093,265.9173 322.4574,265.8361 322.406,265.7551 322.3544,265.6748 322.3028,265.595 322.2513,265.5157 322.2001,265.4368 322.1494,265.3581 322.099,265.2794 322.0486,265.2003 321.9978,265.1207 321.9464,265.0401 321.8941,264.9588 321.8418,264.8774 321.7893,264.7963 321.7372,264.7157 321.686,264.6347 321.6347,264.5545 321.5827,264.4764 321.5324,264.3972 321.4851,264.3189 321.4352,264.2418 321.3849,264.166 321.3357,264.0899 321.2869,264.0138 321.2374,263.9368 321.1872,263.8583 321.1356,263.7785 321.0837,263.6987 321.032,263.6191 320.9806,263.5395 320.9293,263.4599 320.8783,263.3805 320.8274,263.301 320.7763,263.2216 320.7251,263.1424 320.6741,263.0632 320.6232,262.9839 320.5726,262.9046 320.5221,262.8255 320.4716,262.7467 320.4215,262.6681 320.3715,262.59 320.3218,262.512 320.2723,262.4341 320.223,262.3565 320.1737,262.2791 320.1243,262.202 320.0745,262.1248 320.0243,262.0476 319.974,261.9702 319.9234,261.8924 319.8726,261.8142 319.8217,261.7353 319.7706,261.6556 319.7193,261.5752 319.6676,261.4947 319.6156,261.4143 319.5637,261.3337 319.5114,261.2532 319.4592,261.1725 319.4072,261.0916 319.3553,261.0104 319.3036,260.9289 319.2517,260.8475 319.1997,260.7661 319.1477,260.6846 319.0954,260.6032 319.043,260.5217 318.9905,260.4397 318.938,260.3574 318.8853,260.2754 318.8323,260.1933 318.7791,260.1112 318.7251,260.0286 318.6703,259.9447 318.6152,259.8602 318.5603,259.776 318.5059,259.6919 318.4519,259.608 318.3981,259.5244 318.3443,259.4411 318.2909,259.358 318.2378,259.2752 318.1847,259.1926 318.1316,259.1104 318.0787,259.0282 318.0263,258.9463 317.9741,258.8647 317.9222,258.7832 317.8707,258.7017 317.8188,258.6206 317.7666,258.5394 317.7144,258.4582 317.6619,258.3769 317.6093,258.2953 317.5567,258.2133 317.5037,258.1305 317.4505,258.0479 317.3975,257.9652 317.3449,257.8823 317.2921,257.7999 317.2389,257.7179 317.1856,257.6363 317.1328,257.5546 317.0809,257.4724 317.0291,257.3905 316.9775,257.3089 316.9256,257.2277 316.8736,257.1467 316.8215,257.0663 316.7691,256.9865 316.7171,256.9067 316.6653,256.8268 316.6137,256.747 316.5624,256.6671 316.5113,256.5873 316.4606,256.5073 316.4096,256.4275 316.3584,256.3472 316.3067,256.2667 316.2548,256.1854 316.2028,256.1037 316.151,256.0225 316.0993,255.9418 316.0479,255.8616 315.9968,255.782 315.9459,255.7033 315.8951,255.6252 315.845,255.5474 315.7956,255.4701 315.7467,255.3935 315.6982,255.3176 315.6502,255.2425 315.6026,255.1684 315.5555,255.0949 315.5087,255.0217 315.4621,254.949 315.3926,254.8408 315.3234,254.7327 315.277,254.6594 315.2297,254.5855 315.1822,254.5113 315.1344,254.4372 315.0866,254.3628 315.0386,254.2882 314.9904,254.2135 314.942,254.1383 314.8927,254.063 314.8424,253.9877 314.7905,253.9123 314.7367,253.8371 314.6812,253.7619 314.6241,253.6866 314.5654,253.6116 314.5054,253.5374 314.4441,253.4644 314.3814,253.3925 314.3184,253.3212 314.2552,253.2503 314.192,253.1798 314.1287,253.1095 314.0653,253.0392 314.0017,252.9693 313.9381,252.8994 313.8743,252.8298 313.8109,252.7599 313.7474,252.6901 313.6838,252.6203 313.6204,252.5504 313.5573,252.4805 313.4941,252.4109 313.431,252.3413 313.3681,252.2716 313.3053,252.2022 313.2423,252.1329 313.1793,252.0638 313.1165,251.9946 313.0537,251.9255 312.9906,251.8563 312.9275,251.7868 312.864,251.7174 312.8004,251.6478 312.7365,251.5782 312.6723,251.5086 312.6084,251.4387 312.5444,251.3688 312.4807,251.2987 312.4171,251.2287 312.3537,251.1589 312.2905,251.0891 312.2279,251.0193 312.1652,250.9498 312.1027,250.8803 312.0402,250.8109 311.9777,250.7421 311.9153,250.6737 311.853,250.6055 311.7912,250.5376 311.7298,250.4699 311.6687,250.4024 311.6075,250.335 311.5462,250.2678 311.4851,250.2006 311.4241,250.1333 311.3631,250.0661 311.3021,249.9989 311.2413,249.9314 311.1803,249.8641 311.1191,249.7971 311.0578,249.7299 310.9965,249.6628 310.9351,249.5956 310.8738,249.5281 310.8124,249.4604 310.7508,249.3925 310.6891,249.3244 310.6273,249.256 310.5656,249.1877 310.5043,249.1205 310.4439,249.0541 310.3843,248.9887 310.2966,248.8933 310.1844,248.7701 310.0782,248.6514 309.9716,248.532 309.8871,248.4383 309.828,248.3731 309.7667,248.3061 309.704,248.2379 309.6413,248.1698 309.5788,248.1019 309.5165,248.034 309.4542,247.966 309.392,247.8979 309.3297,247.8298 309.2675,247.7616 309.2053,247.6932 309.1435,247.6249 309.0819,247.5566 309.0204,247.4886 308.9585,247.421 308.8966,247.3537 308.8355,247.287 308.7754,247.2216 308.6881,247.1256 308.6019,247.0299 308.5417,246.9626 308.4799,246.8931 308.4178,246.8238 308.3557,246.7547 308.2933,246.686 308.2309,246.6174 308.1681,246.5493 308.1052,246.481 308.0425,246.4126 307.9802,246.3434 307.9178,246.274 307.8551,246.2043 307.7919,246.1343 307.728,246.0638 307.6635,245.9926 307.5987,245.9214 307.5341,245.8502 307.4694,245.7792 307.4049,245.7085 307.3406,245.638 307.2768,245.5676 307.213,245.4975 307.1495,245.4272 307.0865,245.357 307.0234,245.2873 306.964,245.2222 306.9602,245.2181 306.8971,245.1491 306.8341,245.0803 306.7713,245.0115 306.7087,244.9426 306.6463,244.8735 306.584,244.8043 306.5218,244.7353 306.4596,244.6667 306.3974,244.5983 306.3351,244.5301 306.2737,244.4623 306.2116,244.3949 306.1496,244.3276 306.0879,244.2604 306.0261,244.1927 305.9644,244.1243 305.9028,244.0556 305.8414,243.9867 305.7799,243.9181 305.7183,243.8492 305.6563,243.7804 305.5937,243.7114 305.5307,243.6424 305.4677,243.5732 305.4045,243.5039 305.3412,243.4342 305.2773,243.3643 305.2129,243.2942 305.1483,243.2235 305.0834,243.1521 305.0186,243.0798 304.9532,243.0071 304.8879,242.9346 304.823,242.8623 304.7585,242.7903 304.6941,242.719 304.6298,242.6482 304.5654,242.5777 304.5016,242.5073 304.438,242.4371 304.3744,242.367 304.3112,242.297 304.2482,242.2272 304.1854,242.1579 304.1226,242.0887 304.0599,242.0194 303.9972,241.9501 303.9343,241.881 303.8713,241.8117 303.8083,241.7423 303.7456,241.6728 303.6828,241.6034 303.62,241.534 303.5571,241.4648 303.4944,241.3955 303.4317,241.326 303.3689,241.2567 303.3055,241.1878 303.2425,241.1188 303.1799,241.0498 303.1177,240.9809 303.0558,240.9122 302.9939,240.8438 302.9321,240.7757 302.87,240.7083 302.8078,240.6417 302.7459,240.5755 302.6895,240.5103 302.6302,240.4431 302.5698,240.3768 302.5092,240.3101 302.4458,240.2449 302.3847,240.1778 302.3237,240.1105 302.2628,240.0431 302.2014,239.976 302.1391,239.909 302.0758,239.8413 302.0163,239.7691 301.9561,239.7005 301.8937,239.6322 301.8313,239.5645 301.7686,239.4959 301.7057,239.4271 301.6429,239.3576 301.5812,239.2886 301.5187,239.219 301.4555,239.1495 301.392,239.08 301.3292,239.0107 301.2678,238.9434 301.2082,238.8776 301.1236,238.7834 301.0145,238.6621 300.9041,238.5394 300.8183,238.4445 300.7603,238.3808 300.6731,238.2855 300.5862,238.1901 300.5284,238.1256 300.4704,238.0606 300.4118,237.9955 300.3528,237.9303 300.2933,237.8644 300.2331,237.7977 300.1721,237.7304 300.1108,237.6625 300.0488,237.5942 299.9861,237.5257 299.9229,237.4566 299.8594,237.3865 299.7957,237.3164 299.7321,237.2463 299.6688,237.1759 299.6055,237.1054 299.5423,237.0344 299.4783,236.9636 299.4137,236.8928 299.349,236.8215 299.284,236.7496 299.2187,236.6764 299.153,236.6032 299.0874,236.5302 299.0222,236.4576 298.9571,236.3852 298.8921,236.3132 298.827,236.2422 298.7623,236.172 298.6982,236.1021 298.6351,236.0321 298.5723,235.962 298.5093,235.8912 298.4461,235.8205 298.3835,235.7509 298.3213,235.6821 298.259,235.6137 298.1966,235.5457 298.1348,235.4779 298.0736,235.4099 298.0124,235.3418 297.9509,235.2728 297.8888,235.2031 297.8269,235.1339 297.7664,235.0668 297.6805,234.9726 297.5754,234.8588 297.4824,234.7583 297.381,234.6485 297.2818,234.5369 297.204,234.4516 297.1427,234.3864 297.0824,234.3205 297.0251,234.2502 296.9621,234.1813 296.8975,234.11 296.8319,234.0359 296.7649,233.9621 296.6981,233.8885 296.6319,233.8153 296.5664,233.7426 296.5011,233.6705 296.4361,233.5989 296.3711,233.528 296.3091,233.4577 296.2453,233.3873 296.1819,233.3167 296.1194,233.2464 296.0559,233.1758 295.9925,233.1053 295.9292,233.0347 295.8657,232.9642 295.802,232.8938 295.7378,232.8237 295.6733,232.7534 295.6086,232.683 295.5437,232.6125 295.4793,232.5415 295.4158,232.4709 295.354,232.4025 295.2934,232.3355 295.2336,232.2696 295.1453,232.1722 295.0374,232.0537 294.9427,231.951 294.8445,231.8484 294.7093,231.6921 305.8462,190.4921 305.9067,190.3481 306.0863,190.1155 306.1692,189.7798 306.2035,189.4383 306.0302,188.8043 305.5812,188.1397 305.6742,187.725 305.4857,187.3486 305.3349,187.0475 304.7708,186.653 304.3382,186.3148 303.9236,185.5433 304.085,184.8809 304.3014,184.5417 304.7109,184.3796 305.3024,183.9402 305.8349,183.6742 306.2095,183.2213 306.3778,182.8818 306.3771,182.5872 306.3747,181.3935 306.392,180.6776 306.0175,180.3108 305.9776,180.0191 306.0384,179.2359 306.4896,179.2381 307.6719,179.0878 308.4204,178.8424 308.7846,178.5999 308.9881,178.4645 309.1427,178.3409 309.2227,178.1794 309.2089,178.0237 309.0566,177.9369 309.1658,177.6708 308.9006,177.7775 308.8913,177.7092 308.8678,177.535 308.8839,177.2574 309.2197,177.1426 309.654,177.1988 310.1057,177.3086 310.4267,177.3866 311.5436,177.5969 312.1995,177.7016 312.5889,177.7364 313.0312,177.8048 313.6139,177.8397 313.7074,177.8365 315.1443,177.8364 316.5449,177.6468 317.8523,177.3795 319.2988,176.8681 319.8929,176.5604 319.9554,175.7215 320.0835,175.4471 321.2499,174.3709 323.1603,173.205 323.6787,172.8589 323.694,172.4718 323.8698,171.9875 325.0416,171.2109 325.853,170.3826 326.1375,169.9737 326.5808,169.3366 327.4677,168.7764 328.7177,168.2654 330.0239,167.9767 330.211,167.9354 332.426,167.4021 333.8229,167.1393 334.7516,167.2837 336.3354,168.2192 336.8663,168.4278 338.3112,169.7886 338.7805,170.2306 340.3309,172.5332 341.7171,174.3206 343.3121,176.0429 346.9416,179.5561 347.7289,180.3456 348.2371,180.7098 349.0841,181.3112 349.6939,181.7601 350.1174,182.0481 350.4393,182.2429 350.5579,182.3445 351.0153,182.6241 351.8284,183.0476 352.6076,183.3779 352.9723,183.4895 352.9765,183.4908 353.1318,183.5383 353.2285,183.5615 354.7419,183.9858 356.0924,184.1119 357.5557,184.3668 357.7289,184.3374 358.1342,184.2688 358.6,184.1226 358.9107,183.9229 359.3879,184.2338 360.3534,184.6833 361.2384,185.1329 361.7417,185.447 361.8823,185.5347 363.36,186.1731 363.9954,186.52 365.6147,187.404 366.3559,187.785 366.3583,187.7842 366.5007,187.8632 366.8776,187.8332 366.9616,187.5828 367.2786,187.4769 367.8314,187.8463 368.0281,188.005 369.2246,188.8539 370.7345,189.7898 372.5867,190.46 374.3197,190.9748 374.3487,190.9829 376.668,191.6309 377.8216,191.9706 377.9991,191.8637 379.5308,192.3664 380.3033,192.7679 380.7864,192.9941 382.9423,194.0039 383.795,194.4234 384.117,194.5818 385.7746,195.4813 387.1102,196.1561 387.1931,196.1882 387.6616,196.3722 388.2146,196.5893 388.7031,196.7811 388.8846,196.8782 390.0091,197.4798 390.2642,197.6162 391.3905,198.0975 392.8227,198.7878 393.7135,199.1004 393.9498,199.1834 395.5937,199.7602 395.9581,199.837 398.2987,200.3298 401.0619,200.7881 401.807,200.9116 401.9085,200.9285 402.6584,201.0512 406.796,201.8354 408.5496,202.3293 411.353,202.9297 412.2217,202.9906 412.4687,203.0445 414.2235,203.5144 414.2689,203.4752 414.3042,203.4449 414.435,203.3323 415.1488,203.4811 415.3868,203.57 415.5561,203.6333 415.6869,203.6821 417.1349,203.8914 418.4749,204.3396 419.3283,204.5347 420.0834,204.6678 422.0813,205.7368 422.1249,205.7675 422.5215,206.047 423.7324,206.5888 424.6069,206.9135 426.6372,207.8257 429.0057,208.8898 429.7656,209.4106 430.4643,209.7474 430.7163,209.739 430.8667,209.4002 431.7049,209.7172 432.0675,210.58 432.828,210.6004 433.2934,210.774 433.5506,210.7895 433.9517,210.4822 434.1923,210.2558 434.3373,210.4006 434.2258,210.8363 434.211,211.3524 434.5812,211.5774 435.0793,211.4955 435.5604,210.9944 435.6885,210.5913 436.3804,210.0756 436.861,210.1442 438.0468,210.0348 439.7465,210.5212 441.413,211.316 443.3841,211.9078 445.1957,212.8475 445.8044,213.2326 447.862,214.5343 449.0705,215.442 450.6244,216.6969 451.3248,217.3827 451.336,217.3937 453.747,219.6493 457.7829,223.6383 460.8299,226.9628 461.9929,228.1623 463.1559,229.3619 466.3156,232.2368 467.5858,233.3915 468.8415,234.5332 469.8776,235.376 470.5555,236.027 471.4366,236.8731 472.4838,238.3286 475.1883,242.4519 476.4971,244.1919 477.1591,245.1946 477.4684,245.6655 477.7417,246.1459 478.15,246.8634 478.4765,247.4373 478.7201,247.9081 479.9014,250.1916 480.5059,251.3603 481.2755,253.2406 482.2731,256.3363 484.1846,263.141 484.2003,263.1973 486.3948,270.6788 487.4542,274.2909 488.427,276.8901 489.1105,278.7166 489.5669,280.0879 489.5806,280.1291 490.0488,280.902 490.5986,282.1747 490.7849,282.7548 490.9712,283.3349 491.7978,285.9615 493.4358,290.9534 493.5637,291.3434 493.9844,292.4067 495.5704,296.5311 497.0319,299.5663 498.3202,302.2418 498.7651,303.1658 499.5221,304.4879 499.745,304.913 500.0,305.0812 499.5737,305.1925 498.8341,305.3817 498.8325,305.3858 496.4742,305.9853 495.9233,306.1254 495.4222,306.2528 492.4868,307.0053 488.3554,308.062 486.77,308.4675 485.0607,308.9047 485.0179,308.9157 482.6339,309.5255 481.1937,309.8938 429.8075,323.0376 429.7958,323.0406 429.7364,323.0558 430.4736,283.1333 430.4905,282.2186 430.5309,280.0312" stroke="black" /><polygon fill="none" points="118.6501,198.4949 119.3809,198.2002 121.4771,198.0988 123.8191,199.171 125.5758,200.1463 126.8475,202.5411 127.2892,204.2524 128.4685,209.6801 129.2535,212.5648 129.9387,214.129 130.4272,214.6662 132.1346,215.2503 134.6223,215.9308 137.8423,217.246 141.0141,218.8058 141.9366,219.6034 142.8208,220.3679 143.6622,221.6576 143.9785,222.2563 144.3386,222.4741 145.0467,222.86 145.8033,223.4071 146.1801,223.8356 146.3431,224.021 146.8774,224.4592 147.7743,224.5394 148.9767,224.5005 150.6043,224.3564 154.5798,224.5006 156.3004,224.8789 159.6386,225.4123 161.4444,226.4446 163.4149,227.8831 164.7501,229.051 165.8102,229.5435 166.5813,229.5355 167.4888,229.5889 168.4633,229.73 169.6623,229.6714 170.5851,229.4187 171.0962,229.3501 172.0177,229.3843 173.2519,229.2022 173.6788,229.3408 173.9734,229.3744 174.4034,229.1918 175.0366,228.5884 176.4871,228.4789 177.4617,228.6513 178.2652,228.9234 179.0014,228.8879 179.3918,229.1394 180.5204,229.0328 181.1575,229.2639 181.6789,229.5049 182.1806,229.5911 183.2952,229.5278 184.4366,229.4298 184.676,229.4092 185.73,229.3187 186.8779,229.2437 188.0256,229.1061 189.3079,228.6644 190.3613,228.6624 191.3018,228.888 193.7144,228.9346 195.3654,228.444 196.4759,228.22 197.7171,227.3944 198.7239,226.635 200.175,226.3155 201.323,226.3521 202.0958,226.97 203.003,227.1812 203.8518,227.1603 204.8936,227.1293 205.3176,226.8962 206.2044,226.5365 207.1493,226.283 207.757,226.3012 208.3752,226.7162 208.7895,226.4832 209.3397,226.6563 209.9776,227.3229 210.6967,227.6817 211.7357,228.1466 212.6669,228.4321 213.527,228.9333 214.7438,228.7873 215.7807,228.1748 216.6451,227.8928 217.5597,227.7938 218.9476,227.6435 219.8561,227.6417 220.2804,227.5743 220.628,227.7284 220.937,227.8924 221.3133,227.9594 221.8011,227.6227 222.422,227.6088 223.2993,227.3846 223.8587,227.3061 224.1289,227.3636 224.6304,227.3239 224.968,227.2942 225.1799,227.367 226.0194,227.2729 226.5569,226.8468 226.8397,226.7688 227.208,226.6015 227.618,226.7589 227.9846,226.8698 228.199,227.0364 228.5179,227.3455 228.788,227.3449 229.0195,227.3542 229.328,227.2665 229.6944,227.169 230.1571,227.0036 230.5527,227.0318 231.0158,227.0793 234.0065,227.2671 234.4789,227.121 234.9806,227.1781 235.6678,227.39 236.4712,227.443 250.3968,228.3615 254.9029,228.6587 249.0482,229.9725 190.419,243.1284 143.9896,253.5467 143.0345,253.761 138.6559,254.7435 138.1975,253.2965 137.4142,251.488 136.4357,249.582 136.1413,248.5552 135.6014,246.5017 135.7424,243.4197 135.836,242.4974 136.1926,241.4097 136.6894,240.5055 137.1242,239.9131 137.6193,238.9876 137.7555,238.2606 138.1794,237.4703 138.762,236.4612 126.4261,240.6518 114.1071,244.8362 113.9878,245.0419 113.9818,245.3 113.941,245.4543 113.8592,245.6093 113.7823,245.7788 113.6485,245.9708 113.2613,248.0852 113.1106,249.432 113.4121,250.602 113.6151,251.3318 113.6416,251.9624 113.5066,252.4655 113.143,253.4719 112.6013,254.7086 112.1362,255.9367 112.004,256.1291 111.6616,256.6279 111.2888,257.2251 111.0014,258.0694 110.841,258.7004 110.7788,259.1216 109.7253,259.1258 93.0684,259.1925 40.8925,259.4016 39.9125,257.87 38.8768,256.2511 33.2302,247.4256 30.7401,243.5336 30.5577,243.2485 29.6131,241.7721 26.196,236.4312 29.594,190.7455 30.0061,190.024 30.3835,189.7412 31.2491,189.5917 33.2792,189.9576 35.4431,190.247 37.7751,190.7677 39.5683,191.1602 41.8276,191.423 45.6546,191.7801 48.6005,191.4346 52.3823,191.678 54.322,192.2242 57.4971,192.147 57.655,192.1432 86.9099,200.9711 100.929,205.2015 109.77,189.6655 110.474,192.2822 111.4308,193.7495 113.0832,194.5548 115.3313,196.3971 117.1365,197.1767 118.6501,198.4949" stroke="black" /></svg>