<?xml version="1.0" encoding="utf-8" ?>
<svg baseProfile="tiny" height="500" version="1.2" width="399.3445" xmlns="http://www.w3.org/2000/svg" xmlns:ev="http://www.w3.org/2001/xml-events" xmlns:xlink="http://www.w3.org/1999/xlink"><defs /><polygon fill="none" points="226.7515,194.0062 181.1833,164.4313 189.7713,156.538 189.9288,156.3932 211.2787,136.7754 212.3746,135.7689 212.5674,135.5917 212.5886,135.5723 212.906,135.2807 213.3271,134.8937 229.87,119.6987 231.3014,118.3842 231.4103,118.2844 231.2571,119.3867 231.3376,119.6118 231.9812,119.8518 232.4798,120.8088 232.5664,121.3815 232.8595,121.4549 232.98,121.6213 233.2319,121.5585 233.8364,121.823 234.0488,122.5384 235.0522,123.2029 235.6282,123.7839 235.9464,125.1147 236.3181,125.8453 236.4613,126.7228 237.3456,127.7754 237.2351,128.6578 237.2834,129.8621 237.8695,130.7961 237.9358,130.9953 238.1902,131.5065 238.8935,131.6778 239.2785,131.4159 239.5894,131.4671 240.3332,131.2254 241.0096,131.4013 241.2129,131.2438 241.449,131.2642 242.1013,131.666 242.1508,131.7547 242.2469,132.276 242.2503,132.2948 242.6575,132.6826 242.9223,133.3085 243.3936,133.3915 243.5346,133.5475 243.4354,134.2544 243.8633,134.7583 243.5529,134.8641 243.436,135.3964 243.982,137.1869 243.9985,137.2406 243.9604,137.4727 243.9473,137.5526 243.761,138.0453 244.1017,138.6077 244.5601,140.3847 244.8485,140.6382 244.8336,140.8683 244.5893,141.4837 244.52,141.7556 244.3812,142.4901 243.9749,143.019 243.9945,143.6182 243.5726,144.5662 243.8742,145.511 244.3103,145.8405 244.3805,146.3177 244.5605,146.5858 244.381,147.425 244.3929,148.6283 243.9253,149.4667 243.6235,149.5914 243.6508,149.8623 243.2349,150.0107 243.4216,150.3613 243.3472,150.4802 242.6093,150.8044 241.5351,152.3027 241.2349,152.9505 240.9518,156.2965 241.0263,156.7191 240.9141,157.2423 240.5197,157.8872 240.7367,158.3112 241.1612,158.5597 241.2057,158.7438 240.6248,160.0152 240.948,162.403 241.1622,162.9832 241.9504,163.8967 241.9852,164.3012 242.188,164.465 242.2278,164.7292 242.4892,164.7481 242.7237,165.0507 242.565,165.8793 242.8695,166.1042 242.7721,167.1232 242.3421,167.2461 242.3327,167.3813 242.83,167.9307 243.0037,168.8255 242.4068,169.5052 242.3734,169.6017 242.327,169.7357 242.6396,170.4595 242.5721,171.0517 242.1969,171.6347 242.3554,171.8603 242.2183,172.3625 242.4367,172.9664 242.3167,173.5142 242.5704,174.4958 242.3341,175.4433 242.5562,175.7932 242.4647,176.6318 242.6056,176.9965 242.499,177.6879 242.1495,177.9999 241.978,178.4848 242.0961,179.177 242.5797,179.6323 241.8601,180.1919 241.8392,180.4627 241.2789,181.0078 241.28,181.384 241.6403,182.7422 241.982,183.4297 241.9249,183.7508 242.1691,184.4985 243.0183,185.8124 243.1875,186.4627 243.7994,186.8693 244.1989,187.9434 244.6098,188.3591 244.6821,188.8332 244.9284,189.1791 245.7486,189.6439 245.7636,189.7758 245.437,190.0935 245.4689,191.4196 245.8896,191.6408 245.9173,191.8665 246.0734,191.9232 245.9584,192.5534 246.1073,192.764 245.8361,193.0157 246.079,193.5258 245.9252,194.3316 246.1537,194.7888 246.1623,195.3128 246.9791,196.33 247.1795,197.0316 246.9782,197.2537 247.284,197.5025 246.8415,198.9171 246.9899,199.4463 246.8292,199.7645 246.9423,199.9627 246.8117,200.3114 247.1313,200.7228 247.357,201.4112 247.1854,201.6644 247.3725,202.4711 247.1424,202.7295 247.1886,203.0499 246.9916,203.4286 247.1085,203.7533 247.6296,204.251 247.6385,204.872 247.8638,205.2154 247.8267,205.8843 248.2626,206.2491 248.2388,206.9133 248.3977,207.064 248.3726,207.3422 248.6354,207.4955 248.6769,208.2188 247.4489,207.4232 226.7515,194.0062" stroke="black" /><polygon fill="none" points="200.9595,294.8391 200.4501,294.2153 193.5905,292.3424 193.4588,292.1587 193.318,291.9634 193.2089,291.8114 192.8871,291.3631 191.9123,291.2242 189.2891,289.9386 187.8427,290.834 185.3834,290.2758 183.6542,289.7181 181.6152,292.349 179.1484,292.3088 176.6815,292.2686 176.0101,293.0671 175.9831,293.0993 175.8276,293.0946 174.448,293.0527 174.1117,294.5653 172.6049,295.0704 170.6533,293.6975 168.2547,294.2598 167.2783,295.5213 165.9932,295.2972 165.2995,296.2198 165.4105,296.9504 164.7188,297.7339 164.1613,300.0296 162.3695,302.5214 161.9251,304.2011 161.0602,304.3129 161.0096,305.0119 159.8623,304.8459 159.4327,306.0697 157.8394,305.8908 157.0081,306.3739 156.6164,306.3498 155.9383,306.0103 155.4677,305.7746 154.1239,305.4801 153.4814,304.9287 152.53,304.6303 149.6624,305.3025 148.5461,305.3146 146.7222,304.4938 144.8816,304.4841 144.0674,304.1595 142.8184,304.1998 141.3867,303.6554 139.3133,302.3335 137.3686,300.7297 135.3807,299.8974 134.6549,299.7242 133.7283,299.2574 133.3858,298.6726 132.9171,298.509 132.5728,298.1769 132.428,297.6194 132.3696,297.0332 132.2234,296.6976 132.112,296.1398 131.6584,295.5566 131.3148,295.2516 131.0058,295.0312 130.8086,294.9491 130.6113,294.8671 130.133,294.2867 129.9365,293.9518 129.6517,293.6728 129.2345,293.4273 128.2685,292.7308 126.9368,292.1899 126.3473,292.1682 125.7315,292.0647 125.2849,291.9287 124.9778,291.6503 124.5815,291.3488 124.2149,290.9865 123.6222,289.7906 123.2561,289.2914 123.0738,288.6493 122.8196,288.1478 122.7594,287.6439 122.647,287.1978 122.4405,286.5566 122.3817,285.8252 122.3854,285.76 122.4089,285.3556 122.3981,284.8232 122.2524,284.348 121.7997,283.7945 121.1818,283.1833 120.3867,281.99 119.4849,280.9634 119.118,280.744 118.1327,279.5207 117.7906,278.5453 117.3362,277.8796 116.6349,277.2421 116.4036,276.7957 116.3161,276.4312 115.9146,275.4851 115.6058,275.0974 115.2988,274.7948 114.7941,274.4889 114.202,273.9376 113.8324,273.6874 113.5245,273.3851 112.4536,272.722 111.6136,271.9761 110.8886,271.5373 110.1612,271.1799 109.5929,270.4853 109.2176,269.5384 108.9868,268.8149 108.9007,268.4503 108.1134,267.5614 107.7188,267.3725 106.9397,267.0712 106.5712,266.9914 105.8169,266.692 105.2864,266.3038 104.8919,265.9444 104.1557,265.1675 103.8722,264.584 103.6154,263.9428 103.4365,263.0782 103.0681,262.0181 102.5028,261.5461 101.3461,260.72 100.8151,260.5027 100.6195,260.3715 100.1978,260.0888 99.7274,259.8404 99.3841,259.7322 98.853,259.317 98.4596,258.8173 98.1432,258.2617 97.9469,257.7049 97.6387,257.3717 97.1314,257.0687 96.7379,256.7366 96.5077,256.4325 96.3362,256.04 96.0002,255.5123 95.6343,255.319 95.1864,255.1282 94.8808,254.9374 94.536,254.547 94.0663,254.3283 93.8099,254.0797 93.6111,253.7729 92.8001,252.9988 92.4804,252.6385 92.2584,252.2489 91.325,251.1095 90.8971,250.1088 90.6138,249.8808 89.3282,248.431 87.3772,247.206 86.1679,244.0259 84.7117,242.2124 83.1527,241.7975 81.6457,241.5496 81.4953,241.3266 81.3651,241.133 82.0936,240.1242 83.318,240.1208 83.7521,239.8101 84.149,240.9272 85.0979,241.0653 85.7662,239.7497 86.3144,239.412 87.1361,241.534 88.3281,240.7493 90.195,240.9094 90.6655,240.4034 91.1382,240.2075 91.4455,239.956 92.1385,240.2327 92.2595,240.9305 92.0958,241.9375 91.6163,242.4134 92.6798,243.9194 93.7663,243.6101 95.4701,243.968 97.2524,243.4877 96.5568,245.7534 96.8924,246.6738 97.903,247.0906 98.9034,247.4131 98.9308,247.4221 119.8572,235.1573 119.9325,235.1132 120.2486,234.9279 120.5237,234.7666 120.5838,234.7314 127.6868,230.5691 141.3712,222.5512 145.0232,220.4114 145.0894,220.3726 154.1688,215.0537 159.1332,212.1457 181.7259,199.1431 181.787,199.1077 181.9026,199.0412 184.5552,197.515 184.7442,197.4062 199.8529,188.7131 200.0138,188.6204 181.1833,164.4313 226.7515,194.0062 247.4489,207.4232 248.6769,208.2188 248.7808,208.2828 249.7869,208.9029 249.7,208.7728 256.463,213.073 256.5158,213.1066 256.5292,213.1151 256.5298,213.1155 274.1891,224.3359 288.038,233.1353 288.0427,233.1382 287.521,234.8817 286.2363,236.8396 285.5516,237.6543 285.2435,238.8034 283.3855,240.5547 282.852,241.7395 282.2857,242.518 281.2948,243.234 280.6014,244.2299 280.0606,246.336 279.6934,246.8621 279.5636,247.4863 279.2547,248.0688 278.9645,248.2998 278.5352,248.7992 278.1532,249.3387 277.7857,250.1247 275.9243,252.7302 276.2346,253.7392 275.7609,257.5742 274.9576,261.3788 273.5088,262.0249 272.5933,265.0771 272.1722,269.0223 270.1413,271.2637 264.765,276.7538 264.2586,277.7889 253.6369,287.2612 252.0516,288.2689 250.6055,289.6446 250.1364,290.7575 249.6673,291.8704 249.6341,291.9489 249.5442,292.1619 250.3587,293.8389 249.8014,295.3526 249.5786,296.9479 249.2809,298.2081 248.3376,303.3867 248.312,303.5272 248.19,304.1962 246.9073,304.48 245.4839,306.1043 242.8108,306.955 241.5536,308.2061 239.5737,309.775 239.3594,310.1879 239.2257,310.4455 238.1784,312.4633 236.8433,315.4604 235.3432,316.7479 235.2884,316.7002 234.2224,315.7713 232.6023,315.2963 231.8491,314.3442 231.2325,312.6369 229.7264,312.3034 228.4993,310.7362 226.7456,309.6467 225.9035,309.5057 224.1486,309.8172 221.6039,309.1753 220.7402,306.5437 219.2934,305.4529 217.1162,305.6794 213.4003,304.1435 212.1146,303.1069 209.9982,302.689 208.3272,301.177 207.6796,300.591 207.0631,298.4919 203.9376,297.5979 203.602,296.0872 201.8212,295.8941 200.9595,294.8391" stroke="black" /><polygon fill="none" points="327.5971,113.8065 327.5958,113.8062 313.3363,111.1782 304.43,109.8461 294.9447,108.4272 294.6937,108.3896 290.9589,107.8307 272.6702,105.5901 272.4075,105.5579 257.8782,103.7765 249.1496,101.2487 249.1801,101.2195 249.4984,94.3791 250.0454,82.6266 250.0516,82.4918 250.0536,82.4485 251.6081,49.2357 252.0037,40.8194 252.557,29.0764 252.5766,28.6644 263.5564,14.9379 275.5083,0.0 283.6044,3.6953 285.6794,4.6424 292.1066,7.576 308.1863,14.9152 308.2989,14.9666 317.4719,19.4618 317.7729,19.6092 317.8197,19.6322 347.4809,34.1576 347.5059,34.1698 356.0036,38.3281 359.1584,39.8719 359.7281,40.1506 360.9006,40.7241 362.0108,41.2671 370.5299,45.4338 373.9443,47.1038 378.8611,49.5073 394.332,57.0696 397.6029,58.6678 399.3445,59.9211 399.3186,60.0506 399.0439,61.4208 398.9916,62.3345 398.9381,63.2689 398.8631,64.5774 398.6438,66.0657 398.3207,67.0425 396.8207,69.7676 396.332,70.5298 393.9214,73.1452 390.1247,75.7605 386.5087,77.5342 383.4955,79.4581 380.9643,81.5623 380.3601,82.3724 379.4728,83.39 379.0358,84.1476 378.3729,86.372 378.0867,89.1347 378.0113,89.6787 377.8407,91.3724 377.7401,91.7227 377.4725,92.4008 377.017,93.1656 376.715,93.5024 376.3505,93.7604 375.9142,93.9145 375.4593,94.0404 374.7839,94.0027 374.091,93.7879 372.2352,93.1136 371.9107,93.0481 371.5269,93.0634 370.8762,93.1372 370.0864,93.4662 368.3689,95.4501 366.7116,98.5462 364.3311,101.522 362.4026,104.7082 361.348,107.1128 360.6549,110.3891 360.1427,113.9058 359.0579,116.9716 357.943,120.0674 356.6717,119.1596 327.796,113.8431 327.5971,113.8065" stroke="black" /><polygon fill="none" points="301.4865,381.517 301.4204,383.8017 300.855,403.3346 300.8511,403.4692 300.8499,403.5142 300.206,425.9469 300.1698,427.2107 299.5521,427.8484 298.6205,427.9937 298.0134,428.2432 297.4787,428.8828 296.5742,428.6016 295.8252,428.6472 295.4733,428.9308 294.0185,428.9002 292.8172,428.2522 292.397,428.1744 291.9769,428.0966 291.8257,428.0688 291.6745,428.0409 291.3751,427.9199 290.9435,427.8525 290.4533,427.7798 290.2203,427.6722 289.9872,427.5646 289.8382,427.5511 289.6268,427.496 289.4466,427.4307 289.2491,427.3515 289.0059,427.2479 288.9026,427.252 288.8606,427.2276 288.8156,427.2138 288.7673,427.2001 288.7394,427.1828 288.6284,427.1658 288.542,427.1382 288.3512,427.1426 287.963,427.137 287.7449,427.1376 287.5648,427.1504 287.5116,427.1506 287.301,427.1453 287.2633,427.1355 287.2255,427.1257 287.0858,427.0581 286.9678,427.0281 286.9125,427.0154 286.8573,427.0026 286.6749,426.844 286.5197,426.6815 286.3677,426.5308 286.2472,426.3412 286.1073,426.1938 285.7619,425.8457 285.5057,425.6176 285.3423,425.4809 285.1651,425.3733 285.0774,425.3111 284.9897,425.2489 284.7954,425.1629 284.5291,425.0647 284.2628,424.9665 284.1796,424.9477 284.12,424.95 283.9991,425.0162 283.8556,425.1657 283.5548,425.5204 283.3921,425.6255 283.1779,425.6612 283.065,425.6641 282.8951,425.6726 282.7252,425.6811 282.1679,425.7503 281.972,425.7509 281.7309,425.709 281.4947,425.6248 281.2188,425.5935 280.8921,425.5518 280.7786,425.5551 280.4738,425.643 280.0455,425.7882 279.8484,425.8158 279.7314,425.8261 279.6145,425.8363 279.4472,425.8807 279.2869,425.9547 279.1935,426.0824 279.0737,426.3378 278.9832,426.6002 278.7683,426.8656 278.6607,426.9368 278.4117,427.0195 278.2743,427.0722 278.0997,427.2142 277.9778,427.3973 277.7215,427.5919 277.6287,427.7154 277.4948,427.9248 277.4192,427.9879 277.3436,428.0511 277.1278,428.1893 276.9207,428.2837 276.845,428.3014 276.7692,428.3192 276.6056,428.3053 276.4128,428.3232 276.0776,428.4001 275.656,428.4406 275.5819,428.4767 275.4338,428.5726 275.2032,428.6589 275.0222,428.7739 274.793,428.9097 274.4624,429.2872 274.3771,429.3818 274.2917,429.4765 274.1651,429.5473 273.9839,429.6205 273.7959,429.735 273.585,429.842 273.428,429.937 273.2255,430.0668 273.0174,430.2764 272.9581,430.356 272.8531,430.4597 272.7596,430.574 272.733,430.6028 272.7026,430.6311 272.7154,435.0373 272.7168,435.5353 272.7181,435.998 272.7195,436.4607 272.7209,436.9659 272.1091,437.4721 269.8468,439.344 269.5736,439.57 269.1865,439.5188 267.9022,440.0907 260.7345,443.282 257.9474,444.5229 252.1691,447.0956 251.7294,447.2914 251.2599,447.5004 251.0125,447.6106 250.6334,447.7794 250.2542,447.9482 250.1421,447.9981 250.0301,448.048 249.1803,448.0504 247.2009,448.0559 243.8302,448.0653 242.8986,448.0679 242.9134,453.4052 242.9159,454.3101 242.9195,455.5922 242.9213,456.2503 242.9218,456.4107 242.9239,457.1787 242.9265,458.1071 242.9276,458.4877 242.9321,460.1256 242.559,460.3598 242.0453,460.6956 241.8793,460.8035 241.8348,460.8281 241.7473,460.8816 241.7057,460.9107 241.6639,460.9394 241.6195,460.9694 241.4138,461.1011 241.216,461.2281 241.0473,461.3417 240.856,461.4566 240.7526,461.5288 240.6801,461.5858 240.5448,461.6801 240.3949,461.7794 240.2953,461.8436 240.2042,461.9035 240.0731,461.9907 240.028,462.0202 239.7853,462.1632 239.6368,462.2602 239.588,462.2942 239.5405,462.3266 239.4995,462.3548 239.463,462.3796 239.324,462.4639 239.1851,462.5481 239.1061,462.5956 238.9203,462.7156 238.9264,462.7171 238.8599,462.763 238.624,462.9151 238.4597,463.023 238.4254,463.0482 238.1839,463.2085 238.0089,463.3247 237.8701,463.4201 237.4005,463.7179 237.0522,463.9315 236.8534,464.0552 236.7026,464.152 236.5917,464.2217 236.4853,464.2906 236.3769,464.3625 236.3006,464.4122 236.1816,464.4904 236.009,464.6052 235.4485,464.9658 234.9816,465.2709 234.1621,465.8008 233.959,465.935 233.719,466.0925 233.68,466.1185 233.5254,466.2184 233.4513,466.2697 233.301,466.3732 233.2207,466.4261 233.0127,466.5616 232.8875,466.6458 232.7601,466.7268 232.6031,466.8276 232.5251,466.8754 232.3718,466.9701 232.2294,467.0663 231.921,467.2501 231.559,467.4459 231.101,467.5195 230.6988,467.4572 230.6202,467.4408 230.5879,467.4351 230.5622,467.4306 230.5219,467.4253 230.5115,467.4153 230.3106,467.3863 230.1584,467.3579 230.0061,467.3295 229.7887,467.2947 229.6362,467.2616 229.4851,467.2335 229.3273,467.2051 229.3207,467.2039 229.1288,467.1699 229.1268,467.1696 228.9883,467.1451 228.6459,467.083 228.1101,466.9884 227.8042,466.9363 227.2431,466.835 226.9489,466.7796 226.8894,466.7684 226.6496,466.7263 226.3465,466.6698 225.8529,466.5818 225.5988,466.5385 225.3387,466.4916 225.0082,466.4336 224.244,466.2958 223.5924,466.184 223.2472,466.1239 222.8394,466.0516 222.5725,466.0036 222.3709,465.9697 221.7495,465.8583 221.6095,465.833 221.3655,465.7891 221.1215,465.7451 220.4537,465.6249 219.8065,465.5111 219.7543,465.502 219.5908,465.4736 219.4687,465.4525 219.4556,465.4502 219.38,465.4367 219.3007,465.4222 219.2781,465.4181 219.0775,465.3815 219.0221,465.3717 218.8497,465.3412 218.5229,465.2831 218.4825,465.2759 218.4109,465.2627 218.0902,465.2045 217.7694,465.1463 217.3202,465.0654 216.9165,464.9976 216.5647,464.9369 216.3313,464.8936 216.1558,464.8612 215.9881,464.8312 215.8768,464.8117 215.5299,464.7498 215.4096,464.7294 214.8596,464.6274 214.4901,464.5595 214.2345,464.5155 213.5648,464.3995 213.0193,464.3093 212.5116,464.2248 212.3831,464.2022 212.2134,464.1726 212.1193,464.1562 211.7843,464.0966 211.3346,464.0189 211.0864,463.976 210.739,463.9149 210.7329,463.9139 210.6744,463.9039 210.4208,463.8606 210.3593,463.8504 209.9433,463.7782 209.4799,463.6813 209.2504,463.6343 209.0528,463.6002 208.7806,463.5511 208.3412,463.4779 207.7696,463.3712 207.1441,463.2578 206.7913,463.1972 206.4384,463.1367 205.8545,463.0381 205.8153,463.0347 205.4115,462.9751 204.9761,462.9773 204.5811,463.0485 204.2676,463.1436 204.2224,463.1629 204.1801,463.1823 204.1372,463.2007 204.0928,463.2176 203.9584,463.2661 203.7112,463.3464 203.559,463.3946 203.4106,463.4522 203.0381,463.5742 202.4419,463.7751 202.3244,463.8136 202.0901,463.8934 201.8072,463.9853 201.5243,464.0773 201.3792,464.1262 201.1857,464.191 200.98,464.2602 200.8766,464.2945 200.7189,464.3444 200.6252,464.3742 200.5774,464.389 200.2665,464.4875 200.2141,464.5163 199.9513,464.5969 199.728,464.6713 199.5256,464.7399 199.2797,464.8234 198.9339,464.936 198.8274,464.9686 198.0548,465.2256 197.9584,465.2589 197.7171,465.3391 197.6174,465.3714 196.9704,465.5793 196.8949,465.6085 196.4398,465.7684 196.3386,465.8024 196.1284,465.8732 195.9142,465.9509 195.7468,466.01 195.6922,466.028 195.4761,466.1003 195.4188,466.1171 195.0268,466.2463 194.6945,466.3604 194.2337,466.5083 193.8831,466.6164 193.4303,466.7712 193.2096,466.8479 192.8217,466.9804 192.5294,467.0773 192.3291,467.1403 192.2277,467.1741 191.9645,467.2629 191.7414,467.3397 191.5922,467.3908 191.5275,467.4114 191.4956,467.4252 191.3634,467.4696 191.0033,467.6058 190.6343,467.7036 190.3945,467.7905 190.1816,467.8624 189.921,467.9507 189.6573,468.0376 189.5173,468.0831 189.3715,468.1284 189.2703,468.16 189.0596,468.229 188.7845,468.3244 188.5669,468.396 188.4009,468.453 188.1877,468.5241 187.9816,468.5909 187.339,468.7993 187.2604,468.8228 186.9489,468.9339 186.4535,469.0966 186.0217,469.2479 185.7456,469.3416 185.5275,469.4136 185.2036,469.526 185.0416,469.5724 184.7437,469.681 184.4176,469.7886 184.2115,469.8603 183.9886,469.9371 183.6881,470.0363 183.3176,470.1635 183.0102,470.268 182.8026,470.3485 182.6936,470.3827 182.5238,470.4395 182.3482,470.4968 182.1087,470.5771 182.0496,470.5965 181.8155,470.6773 181.5864,470.7527 181.367,470.8157 181.288,470.8387 181.2762,470.8427 181.2704,470.844 181.1536,470.8793 180.7788,471.007 180.7325,471.0232 180.2163,471.1956 180.0961,471.2439 179.7347,471.3555 179.694,471.3681 179.5326,471.4277 179.0456,471.5969 178.9872,471.6168 178.6132,471.7441 178.2968,471.8477 178.2342,471.8684 177.9811,471.9536 177.7879,472.0181 177.4193,472.143 177.0903,472.2415 176.9926,472.2757 176.6136,472.4006 176.3085,472.4955 176.1099,472.5573 175.9498,472.6016 175.8649,472.6262 175.78,472.6509 175.548,472.7314 175.4765,472.7574 175.4341,472.7728 175.2684,472.8228 175.0916,472.8778 174.9653,472.9194 174.9568,472.9245 174.9368,472.9223 174.805,472.9076 174.6034,472.8851 174.5675,472.8811 174.497,472.8732 174.4656,472.8697 174.4781,472.8986 174.5032,472.9568 174.5492,473.0634 174.9919,474.0882 174.9923,474.1872 174.9933,474.4646 174.6276,475.0807 174.5906,475.1431 174.5662,475.952 174.7076,476.3175 175.0674,477.2473 175.1844,477.429 175.6396,478.1362 175.7968,478.3804 175.9488,478.7697 175.987,478.8675 176.0975,479.7569 176.2387,480.1465 176.5578,481.0274 176.8943,481.3743 177.1119,481.5987 177.0867,481.7707 176.9481,482.7146 176.9276,482.8546 176.907,482.9946 177.0139,483.5414 177.1207,484.0882 177.5407,484.9513 178.5334,486.9916 178.6798,487.2924 178.919,488.2997 178.7459,488.7147 178.6865,488.8572 177.2328,489.7586 176.862,489.9884 176.2285,490.5604 175.7908,490.9557 175.7328,491.3173 175.7053,491.4888 175.7976,492.3621 175.8086,492.4663 175.5881,492.8141 175.5781,492.83 175.3933,492.7612 175.0954,492.6503 174.7975,492.5395 174.2886,492.1846 172.8951,491.2131 172.3735,490.8494 172.1948,490.7248 170.7248,490.2371 170.5508,490.1794 170.1389,489.9427 170.0535,489.8937 169.8099,489.4014 169.795,489.3711 169.6464,489.071 169.5663,488.909 169.5103,488.7515 169.3904,488.5328 168.9177,488.1166 168.2862,487.5528 167.6546,486.9889 165.29,485.1338 160.9124,481.6993 159.2369,480.3848 158.7653,480.0227 152.2631,475.03 151.769,474.7198 151.2749,474.4095 150.555,473.9547 150.1147,473.9969 149.6743,474.039 149.0146,474.1022 148.3548,474.1654 147.2435,474.2719 147.099,474.2857 146.4901,474.329 144.0626,474.5016 142.6559,474.6016 141.9536,474.6516 139.7524,474.8081 138.7006,474.8828 137.8751,475.3072 137.8955,475.3083 137.8838,475.3279 137.8279,475.36 137.178,475.7345 136.5281,476.109 135.2284,476.8581 135.1141,476.914 134.4077,477.2542 133.9656,477.4691 133.4915,477.7104 132.9872,477.9625 132.5573,478.1706 132.1065,478.4035 131.7645,478.5731 131.3176,478.7897 131.0072,478.9426 130.4187,479.2323 129.6533,479.6093 129.0793,479.8961 128.5086,480.1801 127.6952,480.5852 127.5613,480.6483 127.2882,480.7858 127.015,480.9233 126.8896,480.9861 126.6,481.1294 126.0203,481.4257 125.4202,481.7163 125.3725,481.7386 124.8808,481.9798 124.3916,482.219 124.3484,482.2403 123.9448,482.4517 123.5819,482.6292 123.3112,482.7649 122.786,483.0237 122.6512,483.0885 122.6068,483.1103 122.4244,483.1961 122.2472,483.2836 121.9704,483.4207 121.5774,483.6137 121.2325,483.7851 121.0211,483.8899 120.6938,484.0498 120.3813,484.2045 120.2398,484.2753 120.0572,484.3668 119.9157,484.4375 119.3161,484.7342 119.0912,484.8447 118.8423,484.967 118.5935,485.0892 118.3252,485.2217 118.3164,485.2274 118.3186,485.2334 118.3182,485.2336 118.3165,485.2345 118.1859,485.3042 118.1412,485.3378 118.0597,485.3594 117.8988,485.435 117.9081,485.4339 117.8342,485.4737 117.7249,485.5318 117.5439,485.628 117.1726,485.8252 112.9615,487.9783 102.2295,493.4653 99.8689,494.6722 97.4143,495.9272 97.4092,495.9325 96.7218,496.6546 95.7321,497.6942 93.7757,499.7491 93.624,499.9085 93.6235,499.909 93.6053,499.9281 93.5381,499.9987 93.5369,500.0 93.1653,499.9596 89.1642,499.5246 88.1486,499.4142 86.0988,499.1914 85.6693,499.1447 85.4553,499.1215 85.2412,499.0982 85.2928,498.9743 85.1368,498.9342 84.6002,498.7961 84.0238,498.6478 83.1627,498.4262 82.3016,498.2046 76.8698,496.8068 74.9333,496.3085 74.3061,496.1471 70.526,495.1744 69.6901,494.9593 66.5554,494.1527 64.8126,493.7042 63.7831,493.4393 63.6506,493.4052 63.2092,493.2916 62.5119,492.2298 62.227,491.7959 62.114,491.6373 63.3779,491.5525 63.7537,491.8753 64.3104,491.9401 64.7057,491.5889 65.1768,491.8001 66.0759,491.8297 66.4267,491.6777 66.1026,491.0708 67.3255,490.0249 67.7111,489.9272 68.4564,489.4576 69.3412,489.3017 70.82,489.0413 71.6901,488.3564 71.763,488.2989 72.8249,487.4901 74.3323,483.5914 74.6248,480.559 75.5056,475.4054 76.0069,474.2909 76.4744,474.299 77.194,471.3625 77.3624,470.6755 77.323,468.9787 78.8034,466.1928 80.9101,465.4397 82.9308,464.9526 83.5671,464.9117 85.3241,465.4177 86.7533,465.8293 88.5442,465.121 89.6949,463.845 90.1526,462.837 90.0523,460.3954 90.8198,460.0077 92.0499,459.8135 92.7208,459.098 93.4125,459.0578 93.9509,459.3267 94.4504,459.1334 95.0255,458.3602 95.4109,456.6171 95.6238,456.4751 100.186,454.148 101.1528,454.4034 103.3078,454.0624 104.3585,453.3536 105.5868,451.7432 108.113,450.7665 108.6331,449.2487 109.9543,447.05 110.4593,446.6383 111.8637,444.5426 113.0535,443.2619 113.671,442.2388 116.4375,438.8591 117.6623,438.7383 118.5972,438.9493 119.8986,439.4326 120.5455,439.9976 122.0131,440.8994 123.9369,440.4794 127.3992,438.907 129.0031,438.0367 129.4322,438.0389 130.5011,438.4997 130.5077,438.4455 130.688,436.9827 130.5953,436.061 129.3462,434.2581 128.797,433.085 125.9872,431.3296 125.5158,430.573 125.1562,429.3888 125.3094,427.7762 125.8076,426.6613 126.0293,426.3239 126.4994,426.0174 127.8723,423.5732 128.7566,422.3842 129.6483,421.4447 131.3827,418.7159 133.3207,416.2303 134.763,413.9595 135.8443,412.2567 136.1655,411.9458 137.0267,408.8269 138.2796,408.0405 138.7222,407.6163 139.3156,406.6291 139.682,405.494 140.5582,405.0797 141.8258,403.9577 141.1807,403.8904 141.3086,403.6119 142.808,402.1379 143.8122,400.5167 144.2043,400.256 144.5995,399.5492 144.5809,399.0588 143.6135,398.0348 143.7603,397.3723 144.2737,396.9772 144.6827,396.4154 144.9156,394.0723 144.2549,392.919 143.774,390.4048 143.2926,389.3126 143.2798,389.2835 143.2208,389.1494 143.3478,388.0071 143.0814,387.4646 143.0063,386.9531 143.3228,386.591 143.2548,385.7862 143.503,384.43 143.4613,384.06 143.9301,382.2682 143.7106,381.5545 143.0831,381.068 143.1343,380.8223 142.9022,380.0169 141.968,378.5531 141.8667,377.9441 141.3664,377.4078 141.044,376.2138 141.1289,375.9851 140.7366,374.8544 140.7519,373.9031 140.5131,372.8051 140.3507,372.6219 140.1796,371.0895 139.4517,370.0769 139.5542,369.5163 139.3742,367.9826 139.2101,367.7654 139.3233,366.504 138.2624,366.8985 137.3903,367.0054 136.76,366.3618 136.4109,366.1889 133.2374,366.3322 132.7145,366.5481 132.4543,366.8744 131.6687,367.2022 131.3697,367.4797 129.9251,367.8847 129.448,367.7787 128.5117,367.3164 127.6462,367.3474 126.3666,366.8355 124.7124,365.7806 123.6757,365.7107 122.8204,365.4535 122.5873,364.91 121.3876,363.9172 120.2316,362.1576 119.1013,362.301 117.9366,361.8629 117.0009,360.6069 116.5601,360.4224 115.7192,360.3366 115.3519,360.4206 114.8439,360.777 113.8426,360.1666 113.2211,359.5254 110.5999,358.8304 109.5766,358.0201 108.839,357.6174 107.7868,357.3817 106.8801,357.5015 105.3733,358.9288 104.1693,358.8627 103.6825,358.9661 103.162,359.3625 102.9379,359.3601 102.8085,359.3804 102.1331,359.4866 101.1483,359.3006 100.2844,359.3835 98.5121,360.2334 98.3296,360.4961 97.7412,360.6306 97.3286,361.1725 96.5862,361.5286 95.7317,361.7517 93.6864,361.898 92.2336,361.0654 90.5984,359.7054 88.4592,359.0382 86.8558,357.7667 86.0185,357.5509 85.502,357.1933 84.8463,356.3786 84.0959,356.0053 83.8601,355.9687 82.8107,356.0632 82.1615,356.588 81.5028,357.5297 80.7046,358.1644 80.429,359.2351 80.1225,358.4591 79.0704,358.5591 76.5079,358.0552 76.2773,357.4624 76.0666,355.3254 74.4763,354.4551 73.9043,354.3675 71.6451,354.4101 71.2482,354.3043 69.8918,353.7128 68.2854,352.3293 68.0967,350.7866 68.248,350.4198 68.7436,349.979 69.3957,349.8607 70.1024,350.4338 71.0083,350.8176 72.6306,349.9445 70.2674,349.5639 67.5323,348.2574 66.14,348.324 65.2098,346.0637 64.8781,345.9881 64.7479,345.4962 64.8844,345.1472 64.8328,344.4482 64.1913,343.4582 61.3075,341.6758 59.7634,341.324 59.2989,341.0692 58.5134,339.2888 58.6741,338.8384 58.1275,338.05 55.9935,335.757 55.2232,333.6652 55.0191,332.631 54.0423,330.9598 54.3686,330.3763 55.1662,329.767 55.963,328.7997 83.859,324.3842 84.4733,324.1631 86.0416,324.2033 87.3171,323.6025 91.001,323.4825 92.1554,322.6867 93.4906,322.14 95.9859,321.5313 97.5545,321.1485 99.6562,322.3828 101.6974,322.4481 104.6354,323.3437 105.3455,324.7051 106.1065,325.8165 106.9565,326.7031 107.8803,327.1706 109.6705,327.5716 110.0639,328.1832 110.6305,328.3757 110.9347,328.2072 111.0614,328.1369 111.4026,327.9481 112.1305,328.2732 113.5171,327.5039 113.997,327.4447 114.2706,327.1882 115.4335,327.0895 115.8301,326.753 116.3161,325.9905 116.1979,324.9875 116.6701,324.6178 117.9435,324.2695 118.5861,323.6769 118.3984,321.9959 118.1695,321.3551 119.1864,319.6664 119.2029,318.7462 119.649,318.6552 119.6751,318.2065 119.5029,317.7876 120.4977,317.3855 121.2992,316.6555 121.8859,316.5615 121.8765,315.5836 122.3226,315.2678 122.535,314.8458 122.8618,313.6118 123.1859,313.0222 123.0748,312.4345 123.6686,310.6411 124.4358,309.6241 124.6521,308.8077 125.198,307.9912 125.1399,307.4324 125.4369,307.0936 126.3898,306.635 126.6471,305.0669 126.8441,304.6723 127.5886,304.2746 128.1959,303.6243 129.8936,303.1839 130.8087,302.5039 131.246,302.0234 131.3842,301.6047 131.391,300.0074 131.9493,299.6098 132.8659,299.3492 133.3858,298.6726 133.7283,299.2574 134.6549,299.7242 135.3807,299.8974 137.3686,300.7297 139.3133,302.3335 141.3867,303.6554 142.8184,304.1998 144.0674,304.1595 144.8816,304.4841 146.7222,304.4938 148.5461,305.3146 149.6624,305.3025 152.53,304.6303 153.4814,304.9287 154.1239,305.4801 155.4677,305.7746 155.9383,306.0103 156.6164,306.3498 157.0081,306.3739 157.8394,305.8908 159.4327,306.0697 159.8623,304.8459 161.0096,305.0119 161.0602,304.3129 161.9251,304.2011 162.3695,302.5214 164.1613,300.0296 164.7188,297.7339 165.4105,296.9504 165.2995,296.2198 165.9932,295.2972 167.2783,295.5213 168.2547,294.2598 170.6533,293.6975 172.6049,295.0704 174.1117,294.5653 174.448,293.0527 175.8276,293.0946 175.9831,293.0993 176.0101,293.0671 176.6815,292.2686 179.1484,292.3088 181.6152,292.349 183.6542,289.7181 185.3834,290.2758 187.8427,290.834 189.2891,289.9386 191.9123,291.2242 192.8871,291.3631 193.2089,291.8114 193.318,291.9634 193.4588,292.1587 193.5905,292.3424 200.4501,294.2153 200.9595,294.8391 201.8212,295.8941 203.602,296.0872 203.9376,297.5979 207.0631,298.4919 207.6796,300.591 208.3272,301.177 209.9982,302.689 212.1146,303.1069 213.4003,304.1435 217.1162,305.6794 219.2934,305.4529 220.7402,306.5437 221.6039,309.1753 224.1486,309.8172 225.9035,309.5057 226.7456,309.6467 228.4993,310.7362 229.7264,312.3034 231.2325,312.6369 231.8491,314.3442 232.6023,315.2963 234.2224,315.7713 235.2884,316.7002 235.3432,316.7479 236.8433,315.4604 238.1784,312.4633 239.2257,310.4455 239.3594,310.1879 239.5737,309.775 241.5536,308.2061 242.8108,306.955 245.4839,306.1043 246.9073,304.48 248.19,304.1962 248.312,303.5272 248.3376,303.3867 249.2809,298.2081 249.5786,296.9479 249.8014,295.3526 250.3587,293.8389 249.5442,292.1619 249.6341,291.9489 249.6673,291.8704 250.1364,290.7575 250.6055,289.6446 252.0516,288.2689 253.6369,287.2612 264.2586,277.7889 264.765,276.7538 270.1413,271.2637 272.1722,269.0223 272.5933,265.0771 273.5088,262.0249 274.9576,261.3788 275.7609,257.5742 276.2346,253.7392 275.9243,252.7302 277.7857,250.1247 278.1532,249.3387 278.5352,248.7992 278.9645,248.2998 279.2547,248.0688 279.5636,247.4863 279.6934,246.8621 280.0606,246.336 280.6014,244.2299 281.2948,243.234 282.2857,242.518 282.852,241.7395 283.3855,240.5547 285.2435,238.8034 285.5516,237.6543 286.2363,236.8396 287.521,234.8817 288.0427,233.1382 329.3772,214.4258 331.0044,214.1254 332.3905,213.5846 333.1497,213.4098 333.867,213.4944 335.9763,214.3357 338.5376,215.9881 342.5452,217.8509 345.4078,219.5934 348.1499,221.6664 350.5304,223.7995 352.278,226.0828 353.1339,227.5849 353.282,228.1634 353.2423,228.6664 352.6999,230.1686 351.8261,232.0312 351.2535,234.3744 351.0426,236.6576 351.1501,237.2848 351.4032,237.6811 351.9046,238.3158 354.551,239.826 358.1824,241.5609 358.6741,241.8229 358.9829,242.3016 359.6605,244.9489 359.8413,247.5023 359.7507,249.1363 359.4496,250.3561 359.1143,251.5813 358.4251,252.6391 357.039,254.1711 355.0201,256.364 352.7602,259.1876 352.2541,260.2089 352.048,260.9997 352.1215,261.6987 353.6943,265.3154 354.4777,267.8085 354.6887,270.1814 353.7545,272.6144 352.6999,274.9272 351.133,277.6004 348.3307,281.3549 346.3118,284.5086 345.3174,286.7312 344.082,289.3142 342.5151,291.6869 339.3813,296.4322 336.9707,298.5045 334.3793,300.1563 330.6067,302.6802 329.3994,303.6725 328.654,304.3909 328.217,305.1833 328.0514,306.1328 327.9971,307.5081 328.4002,309.2694 329.2083,311.2562 329.8601,312.3378 330.7332,313.3704 332.3604,314.5716 335.223,316.1032 336.0791,316.658 336.7597,317.3044 337.2513,317.9672 337.4829,318.5957 337.9349,321.2984 337.9952,323.1903 337.6336,324.5116 336.2776,327.0341 333.8369,328.5055 331.4564,329.4664 330.4859,330.198 329.769,330.9378 329.2599,331.8879 329.0156,332.7095 328.8398,334.5979 328.9793,336.3189 329.5882,338.7151 331.4564,343.1291 332.4508,345.0808 335.012,347.7532 338.3568,350.0952 341.37,351.9568 343.3287,353.338 344.3243,354.2697 345.1667,355.3797 345.7646,357.1772 346.0406,358.4422 346.4323,361.5948 346.2214,364.9575 345.9374,367.0386 345.9502,367.8697 346.1724,368.5182 346.6131,369.3709 347.4989,371.4431 341.4723,372.7455 331.6405,374.9023 312.6602,379.0659 312.5401,379.0923 301.4865,381.517" stroke="black" /><polygon fill="none" points="288.038,233.1353 274.1891,224.3359 256.5298,213.1155 256.5292,213.1151 256.5158,213.1066 256.463,213.073 249.7,208.7728 249.7869,208.9029 248.7808,208.2828 248.6769,208.2188 248.6354,207.4955 248.3726,207.3422 248.3977,207.064 248.2388,206.9133 248.2626,206.2491 247.8267,205.8843 247.8638,205.2154 247.6385,204.872 247.6296,204.251 247.1085,203.7533 246.9916,203.4286 247.1886,203.0499 247.1424,202.7295 247.3725,202.4711 247.1854,201.6644 247.357,201.4112 247.1313,200.7228 246.8117,200.3114 246.9423,199.9627 246.8292,199.7645 246.9899,199.4463 246.8415,198.9171 247.284,197.5025 246.9782,197.2537 247.1795,197.0316 246.9791,196.33 246.1623,195.3128 246.1537,194.7888 245.9252,194.3316 246.079,193.5258 245.8361,193.0157 246.1073,192.764 245.9584,192.5534 246.0734,191.9232 245.9173,191.8665 245.8896,191.6408 245.4689,191.4196 245.437,190.0935 245.7636,189.7758 245.7486,189.6439 244.9284,189.1791 244.6821,188.8332 244.6098,188.3591 244.1989,187.9434 243.7994,186.8693 243.1875,186.4627 243.0183,185.8124 242.1691,184.4985 241.9249,183.7508 241.982,183.4297 241.6403,182.7422 241.28,181.384 241.2789,181.0078 241.8392,180.4627 241.8601,180.1919 242.5797,179.6323 242.0961,179.177 241.978,178.4848 242.1495,177.9999 242.499,177.6879 242.6056,176.9965 242.4647,176.6318 242.5562,175.7932 242.3341,175.4433 242.5704,174.4958 242.3167,173.5142 242.4367,172.9664 242.2183,172.3625 242.3554,171.8603 242.1969,171.6347 242.5721,171.0517 242.6396,170.4595 242.327,169.7357 242.3734,169.6017 242.4068,169.5052 243.0037,168.8255 242.83,167.9307 242.3327,167.3813 242.3421,167.2461 242.7721,167.1232 242.8695,166.1042 242.565,165.8793 242.7237,165.0507 242.4892,164.7481 242.2278,164.7292 242.188,164.465 241.9852,164.3012 241.9504,163.8967 241.1622,162.9832 240.948,162.403 240.6248,160.0152 241.2057,158.7438 241.1612,158.5597 240.7367,158.3112 240.5197,157.8872 240.9141,157.2423 241.0263,156.7191 240.9518,156.2965 241.2349,152.9505 241.5351,152.3027 242.6093,150.8044 243.3472,150.4802 243.4216,150.3613 243.2349,150.0107 243.6508,149.8623 243.6235,149.5914 243.9253,149.4667 244.3929,148.6283 244.381,147.425 244.5605,146.5858 244.3805,146.3177 244.3103,145.8405 243.8742,145.511 243.5726,144.5662 243.9945,143.6182 243.9749,143.019 244.3812,142.4901 244.52,141.7556 244.5893,141.4837 244.8336,140.8683 244.8485,140.6382 244.5601,140.3847 244.1017,138.6077 243.761,138.0453 243.9473,137.5526 243.9604,137.4727 243.9985,137.2406 243.982,137.1869 243.436,135.3964 243.5529,134.8641 243.8633,134.7583 243.4354,134.2544 243.5346,133.5475 243.3936,133.3915 242.9223,133.3085 242.6575,132.6826 242.2503,132.2948 242.2469,132.276 242.1508,131.7547 242.1013,131.666 241.449,131.2642 241.2129,131.2438 241.0096,131.4013 240.3332,131.2254 239.5894,131.4671 239.2785,131.4159 238.8935,131.6778 238.1902,131.5065 237.9358,130.9953 237.8695,130.7961 237.2834,129.8621 237.2351,128.6578 237.3456,127.7754 236.4613,126.7228 236.3181,125.8453 235.9464,125.1147 235.6282,123.7839 235.0522,123.2029 234.0488,122.5384 233.8364,121.823 233.2319,121.5585 232.98,121.6213 232.8595,121.4549 232.5664,121.3815 232.4798,120.8088 231.9812,119.8518 231.3376,119.6118 231.2571,119.3867 231.4103,118.2844 231.3014,118.3842 231.1702,118.0188 249.1496,101.2487 257.8782,103.7765 258.3472,104.796 258.8104,105.19 259.4103,105.3848 259.9176,105.7283 260.8324,107.2924 261.0203,107.8461 261.492,108.2124 261.4055,109.4387 261.8698,109.895 262.0579,110.4402 262.1159,111.4506 263.0592,113.6109 263.4865,114.2432 264.3843,115.1858 267.2303,117.1449 268.0781,118.0429 269.6201,118.874 270.469,119.8355 270.741,120.8454 270.6915,121.5112 270.9123,122.4757 270.9212,122.5143 270.8946,123.1751 271.4091,124.6334 271.8489,125.1319 271.965,125.7272 271.7609,127.6343 273.5698,130.773 274.2791,131.2376 275.4273,131.7076 275.966,131.7223 276.3348,131.2785 276.7689,131.8116 276.783,131.8288 277.1229,132.2463 277.7658,132.3445 278.8002,131.8507 283.282,129.164 284.8829,129.0493 285.5842,128.3278 286.9113,127.7372 287.3674,127.3592 287.478,126.7141 287.8109,126.101 287.9566,124.9458 288.6346,122.5813 289.1554,122.4621 292.1708,123.0545 292.6845,122.8507 292.9599,122.2963 292.9765,121.7015 293.2847,121.2726 293.8422,121.2022 294.7248,121.5661 294.8685,121.8205 295.2968,122.5772 295.8123,122.9043 296.5226,123.8722 295.8885,126.6305 295.7937,127.6119 295.2131,129.4141 295.1269,129.9903 295.1928,130.4497 295.3049,131.2313 295.1347,131.9997 295.0827,132.2344 295.6228,133.9387 296.822,136.9045 298.6539,142.4313 298.9711,143.6864 299.4274,146.6652 300.2305,148.4755 301.2552,149.4341 303.6191,151.0814 305.0912,151.6395 306.6993,151.4541 313.4492,149.52 316.6995,149.0804 331.1839,147.1465 330.2511,148.3788 328.8951,150.8732 327.5693,152.8266 325.0683,155.2609 322.3262,157.4847 320.0964,159.6183 319.3396,160.4604 318.7705,161.2411 318.154,162.3492 317.7159,163.5551 317.4146,165.9892 317.3844,169.1144 317.8666,171.9992 317.8666,174.6135 317.957,179.0909 318.2282,182.9972 318.7404,185.5814 319.2527,188.1054 319.8316,189.5101 320.5182,190.7796 322.754,193.1744 323.8443,194.3861 324.2245,194.8961 324.7798,196.4619 324.8573,196.9093 324.9779,199.4332 324.7067,202.2275 324.5259,206.7944 324.556,209.6487 324.9779,211.5415 325.5186,212.4603 326.153,213.224 327.0367,214.0369 327.9007,214.3357 329.3772,214.4258 288.0427,233.1382 288.038,233.1353" stroke="black" /><polygon fill="none" points="334.319,143.961 333.3155,144.6364 332.5713,145.3134 331.553,146.6587 331.1839,147.1465 316.6995,149.0804 313.4492,149.52 306.6993,151.4541 305.0912,151.6395 303.6191,151.0814 301.2552,149.4341 300.2305,148.4755 299.4274,146.6652 298.9711,143.6864 298.6539,142.4313 296.822,136.9045 295.6228,133.9387 295.0827,132.2344 295.1347,131.9997 295.3049,131.2313 295.1928,130.4497 295.1269,129.9903 295.2131,129.4141 295.7937,127.6119 295.8885,126.6305 296.5226,123.8722 295.8123,122.9043 295.2968,122.5772 294.8685,121.8205 294.7248,121.5661 293.8422,121.2022 293.2847,121.2726 292.9765,121.7015 292.9599,122.2963 292.6845,122.8507 292.1708,123.0545 289.1554,122.4621 288.6346,122.5813 287.9566,124.9458 287.8109,126.101 287.478,126.7141 287.3674,127.3592 286.9113,127.7372 285.5842,128.3278 284.8829,129.0493 283.282,129.164 278.8002,131.8507 277.7658,132.3445 277.1229,132.2463 276.783,131.8288 276.7689,131.8116 276.3348,131.2785 275.966,131.7223 275.4273,131.7076 274.2791,131.2376 273.5698,130.773 271.7609,127.6343 271.965,125.7272 271.8489,125.1319 271.4091,124.6334 270.8946,123.1751 270.9212,122.5143 270.9123,122.4757 270.6915,121.5112 270.741,120.8454 270.469,119.8355 269.6201,118.874 268.0781,118.0429 267.2303,117.1449 264.3843,115.1858 263.4865,114.2432 263.0592,113.6109 262.1159,111.4506 262.0579,110.4402 261.8698,109.895 261.4055,109.4387 261.492,108.2124 261.0203,107.8461 260.8324,107.2924 259.9176,105.7283 259.4103,105.3848 258.8104,105.19 258.3472,104.796 257.8782,103.7765 272.4075,105.5579 272.6702,105.5901 290.9589,107.8307 294.6937,108.3896 294.9447,108.4272 304.43,109.8461 313.3363,111.1782 327.5958,113.8062 327.5971,113.8065 327.796,113.8431 356.6717,119.1596 357.943,120.0674 357.1897,122.0511 355.1708,125.3873 353.6943,127.6716 352.2397,128.8722 351.2837,129.4749 348.4813,130.5569 345.5103,131.3143 344.9351,131.3608 344.6502,131.4673 344.4158,131.6375 344.2222,131.7639 344.0293,132.0107 343.8958,132.2494 343.8324,132.5014 343.8129,132.7408 343.7928,133.0529 343.8316,133.5413 345.1366,136.5077 346.8542,138.9721 348.0564,140.4899 348.2815,140.9924 348.3764,141.445 348.3909,142.0376 348.1948,142.5012 347.9153,142.9161 347.4179,143.39 346.8926,143.5225 346.1945,143.6477 345.3751,143.6335 342.3041,143.2698 340.2404,142.9074 339.5319,142.8491 338.2909,142.7214 337.7459,142.6754 337.0912,142.7589 334.319,143.961" stroke="black" /><polygon fill="none" points="113.671,442.2388 113.0535,443.2619 111.8637,444.5426 110.4593,446.6383 109.9543,447.05 108.6331,449.2487 108.113,450.7665 105.5868,451.7432 104.3585,453.3536 103.3078,454.0624 101.1528,454.4034 100.186,454.148 95.6238,456.4751 95.4109,456.6171 95.0255,458.3602 94.4504,459.1334 93.9509,459.3267 93.4125,459.0578 92.7208,459.098 92.0499,459.8135 90.8198,460.0077 90.0523,460.3954 90.1526,462.837 89.6949,463.845 88.5442,465.121 86.7533,465.8293 85.3241,465.4177 83.5671,464.9117 82.9308,464.9526 80.9101,465.4397 78.8034,466.1928 77.323,468.9787 77.3624,470.6755 77.194,471.3625 76.4744,474.299 76.0069,474.2909 75.5056,475.4054 74.6248,480.559 74.3323,483.5914 72.8249,487.4901 71.763,488.2989 46.7588,476.8153 45.7054,476.3315 44.8439,475.9353 44.1854,475.6324 43.2447,475.1998 0.0,455.3121 4.3885,454.5584 6.1744,449.7852 6.2827,449.4958 17.504,419.5166 17.5634,419.4777 17.9674,419.2178 18.3151,418.6866 19.2429,418.3225 20.3515,418.0626 21.9113,417.5593 22.5703,416.9654 23.3332,415.6855 24.2245,415.0123 25.0049,414.6753 25.1629,414.0352 25.6728,413.8107 26.4059,413.5856 26.8503,412.7849 27.1205,412.3848 28.0083,411.9248 28.0485,411.9039 30.9138,411.955 32.6803,410.8914 33.5035,411.3985 34.5171,412.2219 35.4655,411.9661 36.2855,410.5683 36.5053,409.6807 36.5372,409.552 36.7897,409.0146 38.3066,408.5648 41.5299,406.5908 43.9928,404.3015 45.0047,404.1096 46.1404,401.8537 46.6462,399.7585 48.7184,397.935 49.6108,397.1496 49.9213,393.8162 50.8001,389.8781 51.9961,386.7655 53.2585,385.0171 54.1436,384.5711 55.9783,384.8221 57.3032,382.8518 57.1741,381.3281 56.3477,378.9487 56.8471,375.3928 57.2217,372.4719 56.7131,370.9486 55.5094,369.7762 54.3711,369.8421 52.8509,368.7652 51.0799,368.3237 50.5767,367.5531 50.6302,364.5918 51.135,363.5937 53.5972,361.2405 53.7825,358.6375 53.5613,357.667 53.0814,356.633 52.9358,356.1607 52.7155,355.7434 52.6459,355.1849 52.7576,354.8485 52.8348,354.4545 52.8865,353.8662 52.775,353.4203 53.0138,352.6615 53.3059,351.1747 53.6649,350.5003 53.6865,350.3871 53.7938,349.8277 53.9577,349.4354 54.2902,349.1777 54.5641,348.6987 54.6767,348.2525 54.6178,347.8303 54.2736,347.3305 54.1273,346.8574 54.0689,346.4657 54.1463,345.5141 54.5807,344.8383 55.0276,344.6094 55.5839,344.2413 55.8322,343.9305 56.0194,343.6205 56.1594,342.9477 56.2263,342.1921 56.3634,341.7154 56.7761,341.488 57.1741,341.7595 57.4176,341.1997 57.4929,340.4711 57.7434,340.1047 58.2395,339.6505 58.5134,339.2888 59.2989,341.0692 59.7634,341.324 61.3075,341.6758 64.1913,343.4582 64.8328,344.4482 64.8844,345.1472 64.7479,345.4962 64.8781,345.9881 65.2098,346.0637 66.14,348.324 67.5323,348.2574 70.2674,349.5639 72.6306,349.9445 71.0083,350.8176 70.1024,350.4338 69.3957,349.8607 68.7436,349.979 68.248,350.4198 68.0967,350.7866 68.2854,352.3293 69.8918,353.7128 71.2482,354.3043 71.6451,354.4101 73.9043,354.3675 74.4763,354.4551 76.0666,355.3254 76.2773,357.4624 76.5079,358.0552 79.0704,358.5591 80.1225,358.4591 80.429,359.2351 80.7046,358.1644 81.5028,357.5297 82.1615,356.588 82.8107,356.0632 83.8601,355.9687 84.0959,356.0053 84.8463,356.3786 85.502,357.1933 86.0185,357.5509 86.8558,357.7667 88.4592,359.0382 90.5984,359.7054 92.2336,361.0654 93.6864,361.898 95.7317,361.7517 96.5862,361.5286 97.3286,361.1725 97.7412,360.6306 98.3296,360.4961 98.5121,360.2334 100.2844,359.3835 101.1483,359.3006 102.1331,359.4866 102.8085,359.3804 102.9379,359.3601 103.162,359.3625 103.6825,358.9661 104.1693,358.8627 105.3733,358.9288 106.8801,357.5015 107.7868,357.3817 108.839,357.6174 109.5766,358.0201 110.5999,358.8304 113.2211,359.5254 113.8426,360.1666 114.8439,360.777 115.3519,360.4206 115.7192,360.3366 116.5601,360.4224 117.0009,360.6069 117.9366,361.8629 119.1013,362.301 120.2316,362.1576 121.3876,363.9172 122.5873,364.91 122.8204,365.4535 123.6757,365.7107 124.7124,365.7806 126.3666,366.8355 127.6462,367.3474 128.5117,367.3164 129.448,367.7787 129.9251,367.8847 131.3697,367.4797 131.6687,367.2022 132.4543,366.8744 132.7145,366.5481 133.2374,366.3322 136.4109,366.1889 136.76,366.3618 137.3903,367.0054 138.2624,366.8985 139.3233,366.504 139.2101,367.7654 139.3742,367.9826 139.5542,369.5163 139.4517,370.0769 140.1796,371.0895 140.3507,372.6219 140.5131,372.8051 140.7519,373.9031 140.7366,374.8544 141.1289,375.9851 141.044,376.2138 141.3664,377.4078 141.8667,377.9441 141.968,378.5531 142.9022,380.0169 143.1343,380.8223 143.0831,381.068 143.7106,381.5545 143.9301,382.2682 143.4613,384.06 143.503,384.43 143.2548,385.7862 143.3228,386.591 143.0063,386.9531 143.0814,387.4646 143.3478,388.0071 143.2208,389.1494 143.2798,389.2835 143.2926,389.3126 143.774,390.4048 144.2549,392.919 144.9156,394.0723 144.6827,396.4154 144.2737,396.9772 143.7603,397.3723 143.6135,398.0348 144.5809,399.0588 144.5995,399.5492 144.2043,400.256 143.8122,400.5167 142.808,402.1379 141.3086,403.6119 141.1807,403.8904 141.8258,403.9577 140.5582,405.0797 139.682,405.494 139.3156,406.6291 138.7222,407.6163 138.2796,408.0405 137.0267,408.8269 136.1655,411.9458 135.8443,412.2567 134.763,413.9595 133.3207,416.2303 131.3827,418.7159 129.6483,421.4447 128.7566,422.3842 127.8723,423.5732 126.4994,426.0174 126.0293,426.3239 125.8076,426.6613 125.3094,427.7762 125.1562,429.3888 125.5158,430.573 125.9872,431.3296 128.797,433.085 129.3462,434.2581 130.5953,436.061 130.688,436.9827 130.5077,438.4455 130.5011,438.4997 129.4322,438.0389 129.0031,438.0367 127.3992,438.907 123.9369,440.4794 122.0131,440.8994 120.5455,439.9976 119.8986,439.4326 118.5972,438.9493 117.6623,438.7383 116.4375,438.8591 113.671,442.2388" stroke="black" /></svg>