<?xml version="1.0" encoding="utf-8" ?>
<svg baseProfile="tiny" height="352.6038" version="1.2" width="500" xmlns="http://www.w3.org/2000/svg" xmlns:ev="http://www.w3.org/2001/xml-events" xmlns:xlink="http://www.w3.org/1999/xlink"><defs /><polygon fill="none" points="408.4181,133.7602 408.8812,134.0913 409.1235,134.2645 409.1473,134.2815 409.2027,134.3211 409.2055,134.3231 409.2078,134.3248 409.2108,134.3268 409.2149,134.3296 409.2159,134.3304 409.2165,134.3309 409.2376,134.3484 409.2895,134.3914 410.1159,135.077 410.224,135.1668 412.2985,136.8867 419.6865,143.0116 409.9362,150.7582 397.5939,160.5956 396.8992,160.7921 396.0258,160.7388 394.2955,159.6952 393.4484,159.5925 392.2386,160.087 391.5166,160.5833 390.6361,161.0002 388.9869,160.1335 386.5251,158.5786 385.9102,158.5761 385.1129,158.7731 383.5486,159.5862 383.09,159.8241 380.6246,159.639 380.3928,159.9128 380.0575,160.0618 378.427,159.8678 377.3447,160.3623 377.0386,160.1115 376.71,158.837 376.2225,158.5114 375.7351,158.5341 375.2448,158.9064 374.8438,159.5159 374.194,161.435 373.8562,162.0575 373.3419,162.305 373.0328,162.253 372.3668,161.9266 371.9035,161.8991 371.4423,162.0228 371.2365,161.9212 371.1103,161.5969 371.085,161.1722 370.6486,161.0707 370.3787,161.1821 370.1456,161.5301 369.9887,162.3539 369.8062,162.9261 369.6509,163.1005 368.8545,163.0721 367.981,163.1685 367.5677,163.4165 367.2438,164.1815 366.3655,165.1998 365.3311,166.9664 364.5791,168.5848 363.9342,169.0301 363.2352,169.235 363.0569,169.3554 362.9497,169.4278 360.5893,171.0218 359.9403,171.1998 359.2481,171.2605 358.9684,171.285 358.3181,171.5959 357.8299,172.2463 355.6035,173.496 354.9516,174.3018 353.5164,174.5656 353.0148,174.5637 351.8278,174.266 321.0048,153.3811 316.6645,137.9656 316.4564,137.2267 316.435,137.1505 316.2382,136.4516 314.0121,128.5453 318.8812,129.6997 335.6383,133.6719 340.7166,131.7097 340.7805,131.699 341.1065,131.644 348.1964,130.4489 350.8632,131.4016 353.0716,131.7298 355.3721,132.3817 356.8958,133.4304 357.9114,133.8898 358.4834,134.3553 359.1498,134.7381 359.8795,135.0519 360.7422,135.2765 361.4276,135.5904 361.7149,135.902 362.3559,135.6722 365.2243,133.9482 366.891,132.7206 370.4575,130.3492 371.5956,129.8043 372.6464,129.6474 374.7781,130.3993 376.3266,130.7283 379.0633,130.7389 383.1789,130.5951 383.7303,130.3707 387.1826,128.1861 389.4278,126.386 391.8281,124.6176 393.6606,122.6222 393.8093,122.1265 393.5969,121.1278 399.5734,123.7415 399.5962,125.0347 399.6823,129.9722 404.6647,132.8303 405.7473,131.8233 408.4181,133.7602" stroke="black" /><polygon fill="none" points="497.4464,294.7733 497.4954,295.0941 497.5892,295.6987 497.6571,296.314 497.6625,296.9468 497.5622,297.3983 497.5175,297.6524 497.487,297.8254 497.4664,298.266 497.4949,298.4719 497.5308,298.732 497.6016,299.1283 497.6167,299.1805 497.7697,299.7102 497.8259,299.9346 497.9548,300.4498 497.9739,300.485 498.0343,300.5962 498.1044,300.7252 498.3051,300.8827 498.3069,300.8841 498.6082,300.9179 498.8543,300.9843 498.9133,301.0441 499.0667,301.1996 499.1298,301.515 499.2889,301.9203 499.3563,302.1961 499.39,302.3339 499.5034,302.7868 499.5582,303.039 499.5215,303.3249 499.4611,303.6435 499.3912,303.9586 499.3146,304.7409 499.2911,305.6877 499.2656,306.3106 499.3066,307.4939 499.3088,307.5571 499.316,308.1913 499.3161,308.1993 499.438,308.9975 499.4836,309.3766 499.6684,309.8909 499.7123,310.3083 499.7539,310.686 499.7823,311.039 499.8009,311.423 499.8418,311.8639 499.9276,312.0974 499.9432,312.1397 499.9597,312.18 499.9684,312.2069 499.9914,312.2399 499.9936,312.2742 499.9963,312.3153 499.9982,312.3427 500.0,312.3702 499.9957,312.4052 499.9978,312.4327 499.9526,312.4671 498.6061,313.7306 498.5921,313.167 498.8822,312.7601 499.0942,312.4625 498.5482,311.4154 498.2395,311.3266 495.9829,311.846 495.4443,312.4354 494.4098,312.4688 493.9506,313.0907 493.841,314.0395 493.6585,314.0877 493.4446,314.1442 492.3395,315.2848 491.5804,315.4401 491.2932,316.1547 490.5194,316.5772 486.6759,320.4986 486.0323,320.6612 485.1444,320.219 483.5925,321.056 482.7706,320.6317 482.0616,320.6085 481.579,320.7739 480.9944,321.6124 480.2759,322.0394 478.1576,322.3879 475.9273,323.1103 472.802,322.6382 472.5611,321.9317 471.5912,321.3828 470.8208,321.6692 469.7937,322.6161 466.0955,322.7715 465.2316,323.6331 464.5278,324.5714 463.3848,326.8022 461.3432,329.3184 457.9362,330.6495 456.3696,332.1484 452.9781,333.2199 451.394,334.6333 449.6241,335.3367 446.6135,334.628 444.3122,333.57 441.8457,331.136 439.6457,327.7814 432.0142,322.4675 430.2576,319.7116 428.8509,318.5851 428.53,318.5118 428.2897,318.3449 426.8554,318.3899 425.364,319.2411 424.8382,319.7407 424.5169,321.8864 423.6967,322.954 421.6627,323.3124 418.693,322.5429 418.2122,320.4624 418.0286,318.3665 420.0587,289.2511 407.8054,267.593 407.8876,267.5926 408.45,267.5914 408.985,267.89 408.9829,268.7839 409.5172,269.0099 410.356,269.98 411.2782,269.3888 412.1201,269.6893 412.7729,269.3952 413.2364,268.5792 413.8463,269.1019 413.9209,269.7727 414.6109,269.6255 415.2284,268.5125 415.8794,268.6647 416.2594,269.4095 417.2549,269.5617 417.1062,268.5942 417.4155,267.7768 418.6447,266.9642 418.5342,266.2201 417.3133,264.6521 417.3162,264.0576 419.3085,264.0646 419.8126,262.6534 420.9591,263.3269 421.6492,263.1808 421.5777,262.2145 422.573,262.2175 423.6425,263.041 424.0589,264.0843 424.9042,263.7903 425.2154,262.6756 424.0719,261.1824 423.9987,260.4381 425.1869,260.1457 425.88,259.5539 425.1165,258.6568 425.1198,257.7635 425.8863,257.8424 427.0327,258.5159 427.8374,258.2965 427.1592,255.615 428.9202,256.1435 429.3832,255.6242 429.1939,254.8054 428.2008,253.9081 429.3559,252.6483 429.3609,251.3839 434.8515,248.7271 436.6892,249.1804 438.834,249.189 440.1781,248.3761 441.1821,246.5947 444.2537,244.7468 446.9074,242.5252 446.7566,241.7798 442.5199,237.5971 442.2988,235.438 443.9943,232.9893 447.4928,230.1764 452.3376,225.5821 454.6142,221.7224 458.656,216.7525 461.2258,214.9802 464.2145,212.9195 464.1189,214.1421 464.0792,214.6343 463.9031,215.376 463.7437,215.6071 463.6707,215.8774 463.6317,216.5744 463.6953,217.6236 463.7824,218.4879 463.8541,219.0938 463.9872,220.0404 464.0841,221.0091 464.1793,221.471 464.3691,222.586 464.5789,223.8634 464.7215,224.6718 464.9046,225.6284 465.2852,226.8341 465.4333,227.6917 465.6758,228.3104 465.6444,228.8942 465.7251,230.1337 466.002,231.6379 466.2141,232.4298 466.4545,233.7037 466.6944,234.8082 466.851,235.5756 467.1419,236.5862 467.4152,237.4225 467.6915,238.111 467.9436,238.6667 468.0678,238.9406 468.1722,239.2998 468.4348,239.7995 468.8048,240.5463 469.4511,241.5582 469.9558,242.3886 470.4912,243.0353 471.1213,243.8829 472.1858,244.7933 472.7366,245.2442 473.1484,245.5733 473.6534,245.9638 474.2167,246.1732 474.7234,246.2979 475.2784,246.3718 475.4978,246.3846 475.7368,246.3618 476.0505,246.3087 476.3833,246.187 476.5457,246.0752 476.684,245.9242 476.7805,245.6287 476.836,245.4643 476.8131,245.1293 476.7761,244.9111 476.7748,244.8975 476.7555,244.6957 476.7551,244.6916 476.7182,244.4753 476.7283,244.3353 476.7805,244.2356 476.8734,244.1261 477.0008,244.0252 477.003,244.0235 477.041,244.0 477.0863,243.972 477.1195,243.9515 477.3194,243.8831 477.598,243.7879 477.8274,243.7733 478.1771,243.8229 478.5108,243.8947 478.7365,243.9596 478.8558,244.034 478.9946,244.0951 479.1209,244.1108 479.2703,244.0981 479.2848,244.0969 479.4568,244.0129 479.6389,243.9187 479.736,243.8868 479.7746,243.8741 479.7946,243.8676 479.7973,243.8667 480.0291,243.8671 480.299,243.9408 480.5146,244.033 480.7402,244.295 480.9319,244.5785 481.4508,245.2003 481.9499,245.7615 482.507,246.2611 483.1358,246.721 483.5823,246.9917 483.875,247.1054 484.1128,247.1978 484.3774,247.2454 484.6399,247.2128 484.7955,247.1035 484.9203,247.0136 485.1078,246.9615 485.51,246.9418 485.8829,246.9395 486.2026,246.922 486.446,246.8658 486.559,246.8248 486.6451,246.8128 486.7643,246.856 486.9115,246.9125 487.1713,247.028 487.2798,247.1372 487.3714,247.2803 487.4067,247.3587 487.422,247.4345 487.4125,247.489 487.3053,247.5295 487.2506,247.5739 487.2216,247.6528 487.217,247.7204 487.2382,247.8245 487.2679,247.9623 487.3147,248.1389 487.3389,248.2313 487.4421,248.3717 487.5278,248.4595 487.6063,248.5018 487.6981,248.5412 487.7276,248.6522 487.7146,248.7376 487.7116,248.8279 487.6766,248.9033 487.5708,248.9609 487.5033,249.0137 487.4165,249.1177 487.3733,249.2428 487.3342,249.4224 487.3773,249.74 487.3915,250.0175 487.4497,250.2536 487.4895,250.4276 487.5576,250.6533 487.6046,250.8331 487.6685,250.9763 487.7418,251.1808 487.7819,251.3386 487.8408,251.5002 487.9069,251.7958 487.968,252.0737 488.0038,252.278 488.0515,252.4732 488.098,252.7016 488.1329,252.9199 488.2115,253.2238 488.3477,253.5605 488.4939,253.8401 488.6956,254.0629 488.8445,254.1973 489.0483,254.3402 489.1828,254.4504 489.3181,254.6635 489.4108,254.9066 489.4803,255.1102 489.5069,255.2986 489.4931,255.4618 489.4758,255.6744 489.4683,255.9519 489.483,256.2453 489.6069,256.6352 489.7804,256.8203 489.9965,257.0218 490.2113,257.1734 490.2922,257.3418 490.3392,257.5514 490.338,257.6494 490.3565,257.7767 490.4864,257.9751 490.6026,258.0953 490.7184,258.2111 490.7967,258.4182 490.8046,258.6436 490.8296,258.9739 490.859,259.3081 490.8976,259.6629 490.9549,259.9341 491.0322,260.194 491.1432,260.4198 491.3249,260.5152 491.5454,260.6053 491.6471,260.7581 491.7359,260.9782 491.8001,261.2002 491.851,261.3998 491.936,261.6232 492.0998,261.9075 492.2567,262.0526 492.3553,262.1015 492.4421,262.1072 492.5697,262.0354 492.7767,262.0195 492.8699,262.1366 492.9413,262.3091 492.9603,262.5561 492.9879,262.855 493.064,263.1154 493.1496,263.424 493.338,263.6845 493.4303,263.8503 493.4683,264.0025 493.4331,264.1866 493.4594,264.4812 493.5247,264.7022 493.619,264.8484 493.698,265.1314 493.7092,265.2816 493.6796,265.4835 493.6126,265.7235 493.5845,266.0627 493.5935,266.4337 493.6526,267.1705 493.7412,268.6091 493.8246,269.2983 493.9505,269.7357 494.0891,270.0962 494.224,270.2366 494.3476,270.3513 494.6517,270.5506 494.8066,270.6754 494.9338,270.7638 495.0282,270.9475 495.0675,271.1175 495.1248,271.2905 495.2127,271.5144 495.3252,271.7051 495.4106,271.8362 495.6373,272.0879 495.7172,272.2019 495.7467,272.4171 495.7474,272.6655 495.728,272.8133 495.726,273.0216 495.7451,273.1573 495.7858,273.2871 495.8732,273.3917 496.0726,273.5589 496.2349,273.7639 496.3095,273.9885 496.3906,274.301 496.3739,274.7457 496.3338,275.1082 496.3299,275.8358 496.2732,276.5844 496.2656,277.0824 496.257,277.7442 496.2313,278.291 496.264,278.8043 496.3194,279.1986 496.3942,279.6633 496.5208,280.2163 496.6553,280.8369 496.6954,281.1394 496.8013,281.6635 496.8775,282.0918 496.9551,282.3623 496.9795,282.4474 497.0766,282.859 497.2431,283.2994 497.2655,283.3235 497.4898,283.5645 497.6713,283.6088 497.8465,283.6191 497.9458,283.5093 498.0136,283.3978 498.1333,283.2647 498.2697,283.2992 498.3527,283.4574 498.4393,283.7262 498.5229,283.9552 498.6643,284.304 498.7301,284.658 498.6847,284.8296 498.6204,284.8653 498.5095,284.8114 498.2344,284.7695 498.1092,284.8272 497.9666,285.072 497.8002,285.2829 497.6387,285.5743 497.5153,286.1375 497.4131,286.7484 497.2892,287.4163 497.1388,288.7517 497.0113,289.6234 496.9005,291.0166 496.8866,291.3447 496.8759,291.5982 496.9064,292.419 496.9695,292.8074 497.0561,293.2302 497.168,293.6694 497.3902,294.5342 497.4388,294.7235 497.4464,294.7733" stroke="black" /><polygon fill="none" points="287.5581,152.6999 287.5355,152.9407 287.4883,153.431 287.426,153.6945 287.4257,153.6953 287.3778,153.8476 287.179,154.479 287.4591,155.3368 287.2974,157.0609 286.5301,159.3544 286.4167,159.8403 286.0082,160.629 285.8936,161.4156 285.63,162.2605 285.0136,163.4311 284.7486,164.4163 280.1225,178.4851 259.39,176.3644 255.8568,176.0027 255.7293,175.9896 255.7168,176.0249 255.5628,176.459 255.5563,177.7327 255.8574,179.1022 255.8809,179.9679 255.6534,180.9322 255.3998,181.4899 254.2472,183.3571 253.9916,184.2778 254.0444,184.9397 253.5919,186.223 253.1714,186.5278 251.8299,187.1086 251.438,187.4007 250.9328,187.8166 250.4007,188.5967 249.7557,189.0972 247.9947,189.746 246.7073,190.7457 244.6822,191.6992 244.0144,191.1073 243.6613,190.7943 243.6547,190.7884 242.9942,189.9092 235.9436,180.5242 243.2681,171.0736 254.7927,156.2037 254.8337,156.1054 254.8354,156.1013 266.9978,126.9385 283.3659,140.2025 283.5244,140.2449 283.7636,140.309 290.7067,142.1657 289.3682,144.9092 287.9056,146.6928 287.3713,147.5993 287.2901,147.7371 287.0836,148.7498 287.1208,149.479 287.4714,151.9629 287.4599,152.3979 287.4589,152.4383 287.5786,152.4826 287.5783,152.4858 287.5581,152.6999" stroke="black" /><polygon fill="none" points="462.841,199.1134 463.3565,199.129 463.3751,199.2447 463.3913,199.7185 463.3715,200.1298 463.3574,200.4242 463.4214,200.5496 463.3505,200.7986 463.3091,201.2507 463.3173,201.558 463.3547,202.0744 463.4079,202.751 463.4645,203.0219 463.4707,203.2856 463.5395,203.7696 463.635,204.5935 463.6896,205.1151 463.8074,205.9348 463.8921,206.6929 463.9926,207.3319 464.1266,207.9266 464.3633,208.7142 464.5417,209.4606 464.6717,210.004 464.5741,210.3105 464.5262,210.4148 464.3894,210.7125 464.3441,211.2626 464.3424,211.2835 464.2145,212.9195 461.2258,214.9802 458.656,216.7525 454.6142,221.7224 452.3376,225.5821 447.4928,230.1764 443.9943,232.9893 442.2988,235.438 442.5199,237.5971 446.7566,241.7798 446.9074,242.5252 444.2537,244.7468 441.1821,246.5947 440.1781,248.3761 438.834,249.189 436.6892,249.1804 434.8515,248.7271 429.3609,251.3839 429.3559,252.6483 428.2008,253.9081 429.1939,254.8054 429.3832,255.6242 428.9202,256.1435 427.1592,255.615 427.8374,258.2965 427.0327,258.5159 425.8863,257.8424 425.1198,257.7635 425.1165,258.6568 425.88,259.5539 425.1869,260.1457 423.9987,260.4381 424.0719,261.1824 425.2154,262.6756 424.9042,263.7903 424.0589,264.0843 423.6425,263.041 422.573,262.2175 421.5777,262.2145 421.6492,263.1808 420.9591,263.3269 419.8126,262.6534 419.3085,264.0646 417.3162,264.0576 417.3133,264.6521 418.5342,266.2201 418.6447,266.9642 417.4155,267.7768 417.1062,268.5942 417.2549,269.5617 416.2594,269.4095 415.8794,268.6647 415.2284,268.5125 414.6109,269.6255 413.9209,269.7727 413.8463,269.1019 413.2364,268.5792 412.7729,269.3952 412.1201,269.6893 411.2782,269.3888 410.356,269.98 409.5172,269.0099 408.9829,268.7839 408.985,267.89 408.45,267.5914 407.8876,267.5926 407.8054,267.593 420.0587,289.2511 418.0286,318.3665 418.2122,320.4624 418.693,322.5429 418.8718,324.0848 418.8716,324.0857 418.2745,325.5127 415.8515,328.7906 415.4684,329.6816 415.2617,331.3825 413.4217,333.8948 413.2341,335.1514 412.5403,336.5045 411.4847,337.2861 408.9023,338.3203 407.3621,339.8343 406.2186,341.9535 405.4717,342.3369 403.4956,345.4531 401.3455,346.6187 401.0937,348.328 400.1323,349.3972 399.9272,349.4254 399.7214,338.1889 397.4832,330.8504 384.9234,289.6246 385.0309,287.793 385.4619,280.4532 384.757,281.871 383.6901,282.1903 382.0251,282.3769 380.9607,282.0498 380.3629,281.5933 380.4742,279.0085 380.0223,275.8386 378.7337,273.7243 378.3539,272.5885 378.3001,272.4276 377.8828,272.0685 377.7524,271.9563 376.1332,271.6429 374.2538,271.8945 373.6221,271.6994 371.5241,272.2285 371.2852,272.4961 369.7642,272.3359 364.8729,274.3876 363.8445,274.4991 360.2881,273.8688 358.6461,274.2836 356.8238,275.2355 353.8194,275.0697 352.892,274.72 352.0661,273.6412 352.0556,273.5726 351.4513,269.6079 351.6397,267.3057 351.4914,264.9634 350.8227,264.2319 349.1861,263.2654 348.2039,261.8017 346.192,260.6804 343.3679,260.2843 342.6601,259.4751 340.6057,259.1594 339.7599,258.1968 337.351,257.5326 335.8214,254.878 335.2904,254.2623 333.9895,253.4497 332.1457,250.1023 329.1666,247.5454 328.6007,246.4188 342.2857,238.5012 343.7113,237.6764 349.006,234.6131 349.6755,234.748 351.4726,236.183 352.8302,236.7973 354.1532,238.232 355.0489,238.6257 357.1135,239.2607 362.5615,239.5633 363.4834,239.4884 365.1838,239.3502 367.9234,240.004 370.0992,240.256 372.8903,239.5655 375.9529,239.702 377.0193,239.088 381.7294,239.1051 382.5082,238.9199 386.2932,238.02 387.7507,237.2733 388.268,236.173 388.4694,233.8495 390.1788,230.6711 390.3226,227.193 388.9205,222.2386 387.7198,219.2181 388.2776,218.1456 389.0465,217.324 394.1971,214.2245 394.7712,214.1708 396.5432,214.6414 397.5177,215.4408 399.164,216.654 400.1134,216.3355 399.2746,208.2324 399.7478,206.9139 400.2406,206.2551 401.0527,205.266 403.3984,203.9953 405.6105,201.7193 405.6895,201.638 408.1185,199.1388 409.6839,198.5213 412.5052,198.073 416.315,196.5077 415.6768,197.93 415.9163,200.6247 416.5215,202.6302 416.5614,204.5427 416.2667,206.0341 415.1056,207.9883 415.136,208.6458 415.1748,209.4813 415.9342,225.8779 434.5377,229.3369 435.5726,228.4715 437.9739,228.1418 440.7649,226.8587 442.2522,226.677 445.3644,223.915 447.2136,222.8137 447.9838,222.5076 449.8769,222.4233 450.8861,222.0247 442.8072,215.9939 448.6466,216.4858 448.0017,208.5149 446.4206,205.6038 446.7627,205.393 447.6424,205.7317 448.6001,205.661 449.4262,205.0616 450.3438,205.6232 451.0713,205.6999 451.8012,205.2564 452.6044,205.557 453.4858,205.4119 454.2544,204.708 455.73,204.7879 456.1185,203.487 455.6749,199.2441 457.2096,197.6883 458.8258,198.2797 460.4531,198.4252 460.7304,198.45 462.0475,199.0244 462.263,199.0146 462.4785,199.0048 462.4967,199.0134 462.841,199.1134" stroke="black" /><polygon fill="none" points="330.8024,213.7664 330.8904,214.3079 331.689,217.8452 331.7174,220.5087 328.6007,246.4188 329.1666,247.5454 328.2321,246.7423 318.5199,255.2861 317.7529,255.9609 317.6911,256.0144 307.4951,264.9856 290.977,252.5684 290.8171,251.8954 290.3655,250.9162 289.0692,249.4432 289.0075,248.9536 289.6364,247.5541 289.5248,246.8887 289.3702,243.5887 289.2457,242.9451 288.9334,242.8651 287.5759,242.1129 287.3786,241.8189 287.1569,240.5413 286.6646,239.7666 286.9505,239.2088 287.1518,238.518 286.9272,238.065 286.8453,237.3723 287.4472,236.9306 287.5288,236.8707 287.6932,236.5253 287.8577,236.1799 287.8917,234.8489 287.6962,234.4754 287.7532,234.1029 287.9834,233.5984 287.6591,232.9053 287.8041,232.4269 287.6941,231.7347 287.8667,231.2026 287.8682,230.6972 288.0128,230.1394 287.4765,229.6038 286.9845,228.6439 286.9514,228.4278 286.8457,227.7383 287.0657,226.3398 289.1058,215.4122 290.3161,215.258 291.9265,215.2012 293.5708,214.5996 293.8592,214.5607 294.2271,214.5865 294.5746,213.0885 299.7455,190.8005 299.7505,190.7788 299.8119,190.5143 299.8527,189.3801 299.6065,187.9715 299.6017,186.1653 299.7757,185.82 299.8837,185.3566 299.8985,185.0642 299.4507,184.2525 299.4517,183.9732 299.6793,183.2968 299.682,182.9383 299.6188,182.2606 299.3695,169.5572 299.1341,168.8666 298.2675,166.3244 299.0352,156.3523 298.948,155.8223 298.9761,155.544 299.1768,154.9336 299.0543,153.9819 299.2632,153.4977 299.8583,152.6651 300.1769,151.7777 301.2633,149.5015 301.3276,149.2511 301.0518,148.6115 301.0446,148.2165 301.1556,147.5529 301.3909,147.0237 301.5645,146.2702 301.9626,145.6886 302.0799,145.4199 302.2267,145.2763 321.0048,153.3811 329.0237,202.8247 330.1042,209.4703 330.8024,213.7664" stroke="black" /><polygon fill="none" points="331.7174,220.5087 331.689,217.8452 330.8904,214.3079 330.8024,213.7664 330.1042,209.4703 329.0237,202.8247 321.0048,153.3811 351.8278,174.266 353.0148,174.5637 353.5164,174.5656 354.9516,174.3018 355.6035,173.496 357.8299,172.2463 358.3181,171.5959 358.9684,171.285 359.2481,171.2605 359.9403,171.1998 360.5893,171.0218 362.9497,169.4278 363.0569,169.3554 363.2352,169.235 363.9342,169.0301 364.5791,168.5848 365.3311,166.9664 366.3655,165.1998 367.2438,164.1815 367.5677,163.4165 367.981,163.1685 368.8545,163.0721 369.6509,163.1005 369.8062,162.9261 369.9887,162.3539 370.1456,161.5301 370.3787,161.1821 370.6486,161.0707 371.085,161.1722 371.1103,161.5969 371.2365,161.9212 371.4423,162.0228 371.9035,161.8991 372.3668,161.9266 373.0328,162.253 373.3419,162.305 373.8562,162.0575 374.194,161.435 374.8438,159.5159 375.2448,158.9064 375.7351,158.5341 376.2225,158.5114 376.71,158.837 377.0386,160.1115 377.3447,160.3623 378.427,159.8678 380.0575,160.0618 380.3928,159.9128 380.6246,159.639 383.09,159.8241 383.5486,159.5862 385.1129,158.7731 385.9102,158.5761 386.5251,158.5786 388.9869,160.1335 390.6361,161.0002 391.5166,160.5833 392.2386,160.087 393.4484,159.5925 394.2955,159.6952 396.0258,160.7388 396.8992,160.7921 397.5939,160.5956 397.6907,162.0685 397.2442,162.7037 396.5787,163.6507 395.8387,165.6069 395.8576,167.3039 396.0309,168.7776 395.9807,169.3359 395.9664,169.4952 395.9641,169.52 395.9607,169.558 395.7936,171.4151 395.7903,171.4517 395.7771,171.5986 395.7948,173.2215 395.6851,173.4596 395.6213,173.5978 394.9646,175.022 394.6002,176.3691 394.1772,182.3525 394.7433,185.1093 394.7658,186.2074 394.7541,186.3103 394.5376,188.2249 394.4993,188.5638 394.7687,188.5086 394.9882,188.5956 396.5181,189.2033 396.5516,189.4604 396.8418,189.9505 398.2879,191.7746 398.5234,192.4525 399.0739,195.0538 399.185,198.7722 399.0423,200.3768 398.5292,202.4592 398.5258,203.1604 398.9571,204.3941 399.1811,205.3903 399.6159,206.0614 400.2406,206.2551 399.7478,206.9139 399.2746,208.2324 400.1134,216.3355 399.164,216.654 397.5177,215.4408 396.5432,214.6414 394.7712,214.1708 394.1971,214.2245 389.0465,217.324 388.2776,218.1456 387.7198,219.2181 388.9205,222.2386 390.3226,227.193 390.1788,230.6711 388.4694,233.8495 388.268,236.173 387.7507,237.2733 386.2932,238.02 382.5082,238.9199 381.7294,239.1051 377.0193,239.088 375.9529,239.702 372.8903,239.5655 370.0992,240.256 367.9234,240.004 365.1838,239.3502 363.4834,239.4884 362.5615,239.5633 357.1135,239.2607 355.0489,238.6257 354.1532,238.232 352.8302,236.7973 351.4726,236.183 349.6755,234.748 349.006,234.6131 343.7113,237.6764 342.2857,238.5012 328.6007,246.4188 331.7174,220.5087" stroke="black" /><polygon fill="none" points="280.4254,192.4601 280.4911,192.2577 282.9519,176.1665 284.7486,164.4163 285.0136,163.4311 285.63,162.2605 285.8936,161.4156 286.0082,160.629 286.4167,159.8403 286.5301,159.3544 287.2974,157.0609 287.4591,155.3368 287.179,154.479 287.3778,153.8476 287.4257,153.6953 287.426,153.6945 287.4883,153.431 287.5355,152.9407 287.5581,152.6999 287.5783,152.4858 287.5786,152.4826 287.4589,152.4383 287.4599,152.3979 287.4714,151.9629 287.1208,149.479 287.0836,148.7498 287.2901,147.7371 287.3713,147.5993 287.9056,146.6928 289.3682,144.9092 290.7067,142.1657 302.2267,145.2763 302.0799,145.4199 301.9626,145.6886 301.5645,146.2702 301.3909,147.0237 301.1556,147.5529 301.0446,148.2165 301.0518,148.6115 301.3276,149.2511 301.2633,149.5015 300.1769,151.7777 299.8583,152.6651 299.2632,153.4977 299.0543,153.9819 299.1768,154.9336 298.9761,155.544 298.948,155.8223 299.0352,156.3523 298.2675,166.3244 299.1341,168.8666 299.3695,169.5572 299.6188,182.2606 299.682,182.9383 299.6793,183.2968 299.4517,183.9732 299.4507,184.2525 299.8985,185.0642 299.8837,185.3566 299.7757,185.82 299.6017,186.1653 299.6065,187.9715 299.8527,189.3801 299.8119,190.5143 299.7505,190.7788 299.7455,190.8005 294.5746,213.0885 294.2271,214.5865 293.8592,214.5607 293.5708,214.5996 291.9265,215.2012 290.3161,215.258 289.1058,215.4122 287.245,215.3898 286.2564,215.0674 285.3141,214.9899 283.5202,213.9514 281.5908,212.4194 280.9461,212.193 279.8429,211.3813 279.2444,211.2449 278.6908,211.2866 276.6711,209.2167 275.2493,207.5542 274.86,206.7385 274.8949,206.082 275.1364,205.987 275.4726,206.1812 276.0508,206.1674 276.2602,206.008 276.2773,205.7668 275.6389,204.8805 275.6569,204.6073 275.7538,204.3988 275.5787,204.0769 275.5315,203.835 275.548,203.5788 275.9867,202.5522 275.7806,201.9572 275.7977,201.7165 276.6354,200.8684 276.8295,200.7891 277.0382,200.7898 277.329,200.47 277.5864,200.3104 277.6518,200.1181 277.6042,199.9087 277.4766,199.7961 277.3019,199.4737 277.3028,199.1521 277.5323,198.1092 277.4389,197.4018 277.4564,197.1291 277.5693,196.9527 277.8269,196.8251 277.799,196.0699 277.8196,196.0309 277.9598,195.7657 278.4118,195.3492 278.5088,195.1413 278.4948,194.6917 278.6719,194.5955 278.8185,194.1302 279.0134,193.8103 279.3354,193.5069 279.6892,193.3315 280.3343,192.7403 280.4254,192.4601" stroke="black" /><polygon fill="none" points="144.2393,279.1766 144.0485,279.1642 134.3106,278.5327 126.6334,276.8745 125.0688,276.5364 116.2382,274.628 116.0966,274.5974 103.2692,271.8246 103.0545,268.9688 102.7174,267.8974 99.566,263.3612 99.305,261.8731 97.8785,258.1867 98.2219,256.2957 100.0979,252.7418 100.3049,251.7927 99.2128,246.4946 98.9557,245.8308 96.8453,242.8596 96.7996,239.5908 97.2074,236.469 104.1872,234.2832 104.2385,224.7214 103.6578,222.0048 103.3477,215.0154 103.4441,213.8355 104.1123,212.6088 104.681,212.1389 105.6284,211.6709 106.1953,211.7685 106.4728,212.6211 107.5079,213.6683 108.0855,214.4675 108.7749,215.0288 109.6848,215.452 110.0704,215.5037 111.1223,215.4247 111.3714,215.6228 111.327,217.0375 111.5239,217.3733 111.8326,217.4995 112.1307,217.5002 112.7437,217.3523 113.2689,217.0889 114.038,217.0077 114.7988,217.1177 115.4033,217.4792 115.6511,217.7799 115.7228,218.2768 115.6436,219.046 115.8072,221.2076 116.3741,221.7807 116.8705,221.9325 117.6612,221.8982 119.001,221.6117 119.2548,221.337 121.743,223.5465 122.4951,224.3407 123.1742,226.3201 124.5508,227.3476 125.8907,228.9346 126.9726,229.7311 127.9937,229.8822 128.3528,229.9352 133.4946,234.1092 134.0837,234.6717 134.8712,234.9792 135.1942,235.6065 144.5645,253.7676 145.2327,255.0624 145.3242,255.2396 145.3586,255.2438 147.5405,255.5134 147.6087,255.5217 154.5304,256.3753 169.0159,258.1616 175.1066,273.0359 170.8664,276.4921 170.3171,276.6546 168.0893,275.5744 167.2267,275.802 167.0254,275.8551 166.9605,280.6483 151.7904,279.6657 144.2393,279.1766" stroke="black" /><polygon fill="none" points="216.7484,167.4522 199.2892,163.0544 192.4275,161.3252 185.2977,159.5284 185.1316,159.4865 183.0647,158.9653 161.8589,153.6177 165.8947,151.2487 166.4328,149.3729 168.9259,149.92 171.622,150.3225 174.6776,150.8375 184.2501,151.1761 184.8148,151.1183 189.7103,146.5973 191.3516,145.7949 193.1342,145.4145 194.0032,144.8819 195.1384,143.9924 195.311,143.8061 195.8264,143.2498 196.4257,142.2684 197.3243,141.1412 198.2024,140.62 198.6364,140.4605 199.4432,139.6305 200.1908,139.1267 201.0837,138.8327 203.6041,137.6776 204.4839,137.4476 208.0553,137.1062 208.86,136.8422 211.0291,135.7076 212.1261,135.0327 213.9996,133.3527 215.8165,132.0139 217.3676,131.4695 217.6849,131.4488 217.8065,131.4409 218.0023,131.4282 219.0942,130.8961 220.3483,130.0074 223.9642,126.8035 225.3956,126.0657 227.3924,125.418 228.3648,125.2801 230.8282,124.4854 231.8767,121.7219 231.7713,120.9597 231.2186,120.353 229.9417,119.3262 230.2527,118.5832 230.5317,118.3683 230.8363,117.6445 231.8157,116.8334 233.0629,116.0082 234.7772,116.203 236.2724,116.6467 236.8659,116.2438 237.7795,114.4365 238.2182,113.9378 238.6849,113.837 238.7477,113.8233 242.173,113.084 242.8713,112.5856 243.3385,112.3999 244.6783,112.7502 246.8298,112.7908 248.1734,112.5782 248.6227,112.363 248.8734,112.2431 266.9978,126.9385 254.8354,156.1013 254.8337,156.1054 254.7927,156.2037 243.2681,171.0736 235.9436,180.5242 217.8452,167.7281 216.7484,167.4522" stroke="black" /><polygon fill="none" points="212.0335,104.2086 212.1367,104.352 212.2838,104.7445 212.2799,104.9251 212.6776,104.9485 212.7923,104.9637 212.9173,105.024 213.0868,105.1918 213.088,105.193 213.2583,105.3694 213.4293,105.436 213.5895,105.4983 213.7356,105.5525 213.7833,105.5703 214.1327,105.7 214.3941,105.797 214.8277,105.958 214.8302,105.959 214.8952,105.9826 214.9993,105.9335 215.7632,106.0915 216.1889,106.0975 217.1138,106.1106 219.4842,106.1441 219.5127,106.1445 219.5074,106.1642 227.1085,112.7532 228.1307,113.6393 231.8157,116.8334 230.8363,117.6445 230.5317,118.3683 230.2527,118.5832 229.9417,119.3262 231.2186,120.353 231.7713,120.9597 231.8767,121.7219 230.8282,124.4854 228.3648,125.2801 227.3924,125.418 225.3956,126.0657 223.9642,126.8035 220.3483,130.0074 219.0942,130.8961 218.0023,131.4282 217.8065,131.4409 217.6849,131.4488 217.3676,131.4695 215.8165,132.0139 213.9996,133.3527 212.1261,135.0327 211.0291,135.7076 208.86,136.8422 208.0553,137.1062 204.4839,137.4476 203.6041,137.6776 201.0837,138.8327 200.1908,139.1267 199.4432,139.6305 198.6364,140.4605 198.2024,140.62 197.3243,141.1412 196.4257,142.2684 195.8264,143.2498 195.311,143.8061 195.1384,143.9924 194.0032,144.8819 193.1342,145.4145 191.3516,145.7949 189.7103,146.5973 184.8148,151.1183 184.2501,151.1761 174.6776,150.8375 171.622,150.3225 179.8646,118.5057 179.9844,118.044 180.0113,117.9406 180.0366,117.8426 180.0817,117.6684 179.7835,117.6175 179.6526,117.4509 179.4743,116.4835 179.4141,115.3106 179.7708,113.4955 180.5044,111.5204 180.6777,110.4555 180.1588,108.3011 179.7989,107.4308 179.4375,106.865 178.2649,106.1475 177.8531,105.7847 177.5242,105.228 177.6761,104.2754 176.9289,100.9424 176.6776,95.4552 176.6205,94.2101 176.6205,94.209 176.618,94.1551 176.5331,92.302 178.2915,91.0539 179.4811,90.3976 182.1723,89.2357 182.5112,89.4286 185.106,88.614 185.1268,88.6322 185.8609,89.2772 187.1715,90.1374 187.7549,90.7101 187.9656,91.1736 188.2836,91.5676 189.5957,92.0364 190.0916,92.4299 191.1341,93.6089 191.9835,94.2185 192.4056,95.1464 192.6881,95.5036 194.0549,95.6881 194.7277,95.9762 195.4361,96.4773 196.8319,98.1222 199.9463,100.8064 202.8051,100.9623 205.786,101.5815 208.2601,104.5124 209.0673,102.6999 209.532,102.0975 212.9572,103.0034 212.9437,103.3153 211.9857,103.7574 211.5991,103.9359 211.8555,103.9965 212.0264,104.1989 212.0326,104.2074 212.0335,104.2086" stroke="black" /><polygon fill="none" points="327.5918,309.5169 334.9261,315.3781 355.5639,331.8618 355.0527,333.3926 353.8892,335.2321 352.5456,336.7687 351.0956,337.5855 349.1457,338.1232 339.3239,338.8459 330.1152,343.5656 328.034,344.1869 327.2744,344.4137 322.2313,344.3158 316.5403,344.7527 311.3906,344.5691 307.864,344.4435 305.1607,344.7747 295.5588,344.6753 293.752,344.0838 292.1773,343.3692 289.6392,341.4452 289.6999,341.2482 296.0902,320.315 297.0926,317.0314 302.2341,299.8546 302.3896,299.3353 304.7704,291.3825 304.8194,291.2198 305.398,290.9577 308.4002,290.8197 308.9169,290.6087 309.557,289.8537 310.423,289.6742 311.3902,290.1036 312.6047,289.9876 313.8445,290.8744 316.3132,291.6748 316.9794,291.6482 319.4833,290.74 320.7027,290.2975 324.6739,290.6187 325.2634,291.048 325.6242,291.7176 325.4585,294.663 325.6504,296.6733 326.7289,307.9611 326.8185,308.8989 327.5918,309.5169" stroke="black" /><polygon fill="none" points="309.9764,85.8726 306.4288,93.2373 304.8989,96.4132 304.2097,97.8438 300.4668,99.1784 300.1653,99.2859 299.6349,106.4358 299.6102,106.769 298.2014,116.9908 295.7332,118.4623 288.8936,130.1838 290.1137,130.5541 283.3659,140.2025 266.9978,126.9385 248.8734,112.2431 248.6227,112.363 248.1734,112.5782 246.8298,112.7908 244.6783,112.7502 243.3385,112.3999 242.8713,112.5856 242.173,113.084 238.7477,113.8233 238.6849,113.837 238.2182,113.9378 237.7795,114.4365 236.8659,116.2438 236.2724,116.6467 234.7772,116.203 233.0629,116.0082 231.8157,116.8334 228.1307,113.6393 227.1085,112.7532 219.5074,106.1642 219.5127,106.1445 219.4842,106.1441 217.1138,106.1106 216.1889,106.0975 215.7632,106.0915 214.9993,105.9335 214.8952,105.9826 214.8302,105.959 214.8277,105.958 214.3941,105.797 214.1327,105.7 213.7833,105.5703 213.7356,105.5525 213.5895,105.4983 213.4293,105.436 213.2583,105.3694 213.088,105.193 213.0868,105.1918 212.9173,105.024 212.7923,104.9637 212.6776,104.9485 212.2799,104.9251 212.2838,104.7445 212.1367,104.352 212.0335,104.2086 212.0326,104.2074 212.0264,104.1989 211.8555,103.9965 211.5991,103.9359 211.9857,103.7574 212.9437,103.3153 212.9572,103.0034 209.532,102.0975 209.0673,102.6999 208.2601,104.5124 205.786,101.5815 202.8051,100.9623 199.9463,100.8064 196.8319,98.1222 195.4361,96.4773 194.7277,95.9762 194.0549,95.6881 192.6881,95.5036 192.4056,95.1464 191.9835,94.2185 191.1341,93.6089 190.0916,92.4299 189.5957,92.0364 188.2836,91.5676 187.9656,91.1736 187.7549,90.7101 187.1715,90.1374 185.8609,89.2772 185.1268,88.6322 185.106,88.614 182.5112,89.4286 182.1723,89.2357 180.7758,88.4414 180.4095,88.1218 179.7501,87.2418 179.5216,86.621 179.5426,85.9606 179.7428,84.9274 179.7267,84.4289 178.6661,83.1075 179.2999,80.8301 179.3921,80.0465 179.1631,79.5272 178.633,78.8134 177.0146,75.0138 176.1237,71.5232 175.8857,70.9919 175.5963,70.346 174.8283,69.3808 174.7219,69.2471 174.7207,69.2456 174.4608,68.9189 174.4598,68.9177 175.4885,68.5093 175.5579,68.4818 175.576,68.4745 175.723,68.4162 176.6563,68.0457 176.6571,68.0454 176.6579,68.0451 177.0288,68.0546 177.5006,68.0668 177.5045,68.0661 177.7544,68.0169 177.7592,68.0139 178.0903,67.8051 178.0937,67.803 178.4746,67.4454 178.7442,67.3587 178.747,67.3578 179.0079,67.2739 179.9406,67.4456 180.6942,67.4844 182.6758,67.4761 185.5226,67.5771 186.8014,67.7585 187.9934,67.8345 189.3965,67.7356 190.6247,67.4779 191.2923,67.2175 192.2598,66.6076 192.9795,66.3644 194.1809,66.3003 195.1452,66.501 195.1739,67.6218 195.8233,67.625 197.0655,68.0696 197.9065,68.2312 198.9401,68.3414 199.361,68.4311 199.7109,68.6076 199.9383,68.6623 200.0952,68.8033 200.1458,69.3123 200.2495,69.5938 200.8411,70.5623 200.9983,70.7382 202.0479,71.3045 202.6764,71.8864 203.4464,72.1007 203.9551,72.0502 204.2545,71.8764 204.5703,71.8075 204.9207,71.8092 205.507,72.1629 205.9246,72.7967 206.625,73.0458 204.7922,76.8224 204.226,79.58 204.565,79.3865 204.7391,79.3566 205.0882,79.2967 206.144,79.3424 207.0365,79.1105 207.9105,78.6734 209.223,78.3308 212.2871,78.5295 213.5703,78.1248 214.6953,78.7147 216.4063,78.8254 221.9564,81.1752 221.9583,81.1756 221.9604,81.1761 221.9627,81.1767 221.965,81.1772 222.0115,81.1882 222.0818,81.2047 222.1535,81.2216 222.2279,81.2392 222.2368,81.2413 222.2414,81.2424 222.2472,81.2437 222.2576,81.2462 222.2692,81.2489 222.2754,81.2504 222.2824,81.252 222.2851,81.2527 222.2973,81.2555 222.3096,81.2584 222.3207,81.261 222.3331,81.264 222.3392,81.2654 222.3455,81.2669 222.3525,81.2685 222.3652,81.2715 222.3778,81.2745 222.3844,81.276 222.391,81.2776 222.3975,81.2791 222.4079,81.2816 222.4131,81.2828 222.4183,81.2841 222.4198,81.2844 222.4226,81.285 222.4832,81.2993 222.4857,81.2999 222.7686,81.3666 223.0672,81.4367 223.0782,81.4393 223.0825,81.4403 223.0881,81.4416 223.0888,81.4417 223.0938,81.4429 223.0948,81.4431 223.0977,81.4438 223.1012,81.4447 223.1108,81.4469 223.1132,81.4475 223.116,81.4481 223.1188,81.4488 223.1622,81.459 223.2026,81.4684 223.247,81.4789 223.2837,81.4875 223.3281,81.4979 223.3734,81.5085 223.3924,81.513 223.4154,81.5184 223.4381,81.5237 223.4608,81.529 223.4837,81.5344 223.5094,81.5405 223.5546,81.551 223.6008,81.5619 223.6473,81.5728 223.6912,81.5831 223.7371,81.5939 223.7832,81.6047 223.8308,81.6159 224.5487,81.7843 224.5812,81.7919 224.5841,81.7926 227.5585,81.2007 228.775,79.8373 231.4704,77.2424 232.1339,75.7447 232.4383,72.4554 235.3778,73.4946 235.9834,73.7087 238.3233,74.4639 239.1803,69.8729 239.5902,67.7094 239.8245,66.4722 239.912,66.0102 239.9302,65.9822 240.0154,65.8505 240.1283,65.6655 240.3918,65.2295 240.7901,64.5803 241.377,63.6048 241.4064,63.608 242.6139,63.7386 243.9324,64.3187 245.0766,64.544 248.1057,67.0734 249.9527,67.8759 252.6416,67.4468 254.7134,67.2799 256.9653,66.363 259.7845,66.375 261.413,66.7789 262.7286,68.2416 263.7313,70.6299 266.415,71.4804 268.0879,71.8846 270.6008,71.4097 272.9816,71.1113 274.6145,70.5449 275.4945,70.7256 276.1684,68.8616 276.4025,68.9757 278.7439,69.6889 282.7796,65.6988 299.7985,64.7512 301.9351,65.2116 301.9089,68.4602 307.2071,72.4493 313.8109,74.9925 313.6796,78.1841 309.9764,85.8726" stroke="black" /><polygon fill="none" points="36.8097,307.4084 36.4094,307.1965 8.9596,292.8998 4.7911,292.8045 3.6509,292.3778 2.8618,290.1555 2.6056,286.1984 4.1215,285.7264 4.1235,285.3062 3.6936,284.7046 0.0,282.7064 3.6733,270.7629 3.8166,270.297 5.5208,264.7568 4.9848,263.6773 4.0311,262.9392 3.8641,259.7606 4.4066,256.5256 5.4061,254.3729 6.2809,250.6877 35.6481,263.2232 45.7749,267.5429 50.7237,273.7324 50.6236,274.7444 50.5593,275.395 49.7956,283.1145 49.7303,283.775 49.7097,287.525 49.7076,287.8929 46.0371,291.9115 44.2075,291.9995 44.4842,292.8034 44.2144,294.688 45.0741,296.0587 45.2584,297.8811 45.1081,301.57 44.4481,303.5385 44.4442,304.2323 45.0211,305.6267 45.846,309.9749 42.1206,310.2186 36.8097,307.4084" stroke="black" /><polygon fill="none" points="352.8478,106.5784 352.2831,105.2512 351.0437,103.502 350.4829,102.8876 350.418,102.8166 350.3831,102.7546 349.8469,95.2227 349.8538,94.797 350.3102,94.8789 350.8215,94.843 350.9916,95.1883 351.6897,95.3959 352.8693,96.1115 353.6178,96.9547 353.9373,97.6662 354.3669,97.7979 354.6442,97.6937 353.5382,84.938 353.4914,84.398 353.2943,82.1258 353.3648,79.7977 353.5085,78.9705 352.7976,78.5892 352.1387,78.4023 351.4822,78.216 351.2591,78.1527 351.2045,78.1372 351.1852,78.0353 351.0259,77.8783 350.4683,77.7122 350.3726,77.6466 349.5859,77.1074 349.5717,77.0977 349.4025,76.9272 349.2812,76.8496 348.7628,76.5968 348.4517,76.445 348.4011,76.4046 348.2359,76.1213 348.1634,76.0382 348.1449,75.2312 348.1669,75.1278 348.2882,74.5575 348.5939,71.415 348.8662,68.6162 348.9142,68.1232 348.9748,67.8041 349.2306,65.138 349.753,63.1119 349.8941,62.565 350.014,62.0047 350.621,59.1688 350.8383,58.1537 350.9979,56.8025 351.245,54.71 351.3338,54.4176 351.8214,52.8115 352.004,51.8495 352.5852,48.7879 352.5627,48.616 351.8127,46.5392 350.8219,42.0187 350.6389,40.3236 351.1583,37.9147 350.9486,36.3169 350.9584,36.2576 350.8811,36.076 351.0774,35.7017 351.8145,34.296 352.9015,32.6614 352.8428,29.7613 352.4479,27.4629 352.2411,22.7458 350.4783,12.465 349.3831,10.2632 348.1723,10.0803 347.1516,10.1874 344.1167,11.7254 343.2571,11.6633 344.2938,10.3746 345.1043,9.946 345.9565,9.9332 346.6454,8.7724 347.0204,8.5757 348.2828,8.2393 348.312,8.2197 348.6316,8.0051 348.765,7.8343 348.8108,7.7757 349.1054,7.3986 349.9977,7.2821 350.8428,7.0429 351.2679,6.8349 352.6773,5.5871 354.8433,4.5116 355.4066,4.3462 357.6148,2.8885 359.024,2.3744 359.8712,2.2246 360.9735,1.8003 361.9599,0.9937 362.5527,0.7096 363.2542,0.5464 364.1367,0.3411 365.9906,0.1815 367.0632,0.0 375.6111,1.717 379.1009,2.418 379.8061,3.1381 379.8732,3.2066 383.1003,7.6517 383.5183,7.9385 388.5958,10.3762 390.195,11.144 390.7203,11.3961 391.6442,11.8397 391.6626,11.8486 392.3022,12.7239 392.394,12.8495 394.8446,15.5709 394.9299,15.6656 396.7194,17.458 399.8502,19.9032 401.9792,21.5661 403.5309,22.9718 407.1043,25.828 408.6082,27.1264 408.9668,27.4377 409.7863,27.4799 410.3994,28.3 410.5402,28.4883 411.0594,28.6388 411.6341,28.8053 412.3691,28.8918 412.4973,28.9051 412.9665,28.8697 413.2628,28.3486 413.4302,28.0541 413.4436,28.0306 413.4533,28.0144 413.5203,27.9034 413.9368,27.2125 414.0943,27.7013 414.184,27.7248 414.3174,27.7598 414.483,27.8465 414.4928,27.8517 414.5441,27.904 414.5895,27.9502 414.6306,28.0626 414.8316,28.3126 415.1386,28.6851 415.5634,29.2064 416.0108,29.5134 416.3048,29.5996 416.6244,29.6014 416.8775,29.5253 417.0125,29.4847 417.2674,29.445 417.6801,29.6019 418.0785,30.0135 418.2872,30.3575 418.3379,30.4907 418.4208,30.7083 418.5043,30.9273 418.5114,31.0236 418.5193,31.13 418.4817,31.2991 418.477,31.4615 418.5306,31.6196 418.6291,31.7618 418.6507,31.8126 418.7597,32.0693 418.8124,32.3316 418.7397,32.6412 418.7163,32.7274 418.6443,32.9927 418.5042,33.3694 418.4951,33.9852 418.6396,35.0136 418.7109,35.3646 418.8262,35.6338 419.0261,35.9021 419.1092,36.1781 419.233,36.6322 419.2753,36.8437 419.3096,37.0152 419.4646,37.3555 419.4964,37.4253 419.6596,37.6535 419.8171,37.8738 419.9481,38.0433 420.2775,38.4695 420.6024,39.0434 420.9173,39.8851 421.1163,40.362 421.216,40.6009 421.6275,40.9507 422.0004,41.157 422.2084,41.2205 422.2589,41.4295 422.2778,41.6913 422.2659,41.9804 422.2351,42.1675 422.1426,42.4021 422.0904,42.7319 422.1017,43.0728 422.1302,43.2242 422.3307,43.4843 422.3077,43.5772 422.3255,43.7406 422.3274,43.7665 422.3466,44.0331 422.3574,44.2685 422.3242,44.4655 422.2253,44.6585 422.1939,44.7168 422.1935,44.7208 422.1815,44.8325 422.1386,44.9327 422.0596,45.0649 421.9276,45.1628 421.7566,45.3722 421.6411,45.466 421.4448,46.1727 421.4369,46.2011 421.3279,46.5938 421.2917,46.7241 421.0567,47.9607 420.7056,49.8614 420.6978,49.9036 420.5305,51.2255 420.472,51.6872 420.3254,52.9218 420.2834,53.498 420.2483,54.2853 420.1803,55.5139 420.1355,56.5766 420.1079,57.2307 420.1108,58.528 420.1539,59.5697 420.1661,59.8642 420.1727,60.0235 420.2677,61.8042 420.4265,62.8553 420.4858,63.2478 420.7965,64.4058 421.2085,65.6824 421.4657,66.3188 421.7631,66.9638 421.8534,67.1598 422.2154,67.6941 422.396,68.027 422.7136,68.2646 422.8769,68.3647 423.0666,68.4319 423.3038,68.6508 423.7051,69.0316 424.3712,69.3858 424.8228,69.5194 424.8781,69.5358 425.3314,69.4946 425.5045,69.3975 425.7921,69.0694 425.8761,68.9064 426.0311,68.7745 426.2043,68.7249 426.3255,68.6718 426.385,68.6 426.4428,68.5087 426.582,68.494 426.6563,68.5452 426.7603,68.6175 426.903,68.6667 427.0759,68.6841 427.2437,68.6871 427.2979,68.7226 427.4223,68.8041 427.4558,68.8932 427.4618,68.909 427.4825,69.0668 427.5437,69.2355 427.7026,69.5369 427.8477,69.8259 427.8605,69.8515 427.878,70.1865 427.8659,70.2892 427.8409,70.5031 427.7926,70.7388 427.7483,71.0681 427.7178,71.5808 427.6958,71.9 427.6285,72.1349 427.4667,72.3846 427.2306,72.6972 427.1198,72.8248 427.0255,72.9336 426.942,73.0765 426.8968,73.154 426.8538,73.2276 426.7797,73.4766 426.743,73.5996 426.6656,73.8894 426.6412,73.981 426.5945,74.391 426.5802,74.6757 426.6042,74.8768 426.6308,74.9298 426.7141,75.0957 426.8519,75.2981 427.0989,75.5447 427.1378,75.5787 427.2122,75.6434 427.2216,75.6733 427.237,75.7226 427.2294,75.7442 427.1665,75.9241 427.0898,76.1171 427.072,76.1619 427.0681,76.1716 427.0606,76.239 427.0488,76.3442 427.1041,76.5364 427.1368,76.7463 427.1535,76.9928 427.1266,77.1162 427.0663,77.1944 426.8633,77.2281 426.8481,77.2306 426.6377,77.3089 426.3582,77.5297 426.2402,77.6277 426.2054,77.6566 426.066,77.7724 425.8388,78.1821 425.6064,78.692 425.4733,79.1443 425.473,79.1858 425.4707,79.4956 425.5104,79.9663 425.532,80.2979 425.6151,80.6915 425.71,80.9838 425.7152,80.9996 425.8587,81.1827 426.0534,81.347 426.1384,81.4125 426.1343,81.5463 426.0267,81.7047 425.9899,81.7409 425.8939,81.8354 425.7892,81.9939 425.6996,82.1568 425.6459,82.3964 425.6815,82.6598 425.7873,82.9646 425.9116,83.21 425.9673,83.2787 426.1653,83.5229 426.3309,83.6289 426.5006,83.8733 426.53,84.1542 426.484,84.4229 426.4011,84.7466 426.3571,84.9862 426.3595,85.2404 426.335,85.7551 426.2932,86.1251 426.2026,86.4195 426.2444,86.6359 426.2291,86.8038 426.1648,87.1441 426.1782,87.3827 426.205,87.6838 426.1736,88.0159 426.1594,88.4249 426.1211,88.7147 426.0921,88.9306 426.1005,89.0803 426.1188,89.5094 426.1305,89.8566 426.0475,90.6367 426.0013,91.167 425.9341,91.8926 425.8967,92.4521 425.8573,93.0187 425.8561,93.0478 425.8297,93.6958 425.8017,94.1671 425.7902,94.6713 425.7616,95.4392 425.755,95.9241 425.6702,96.2666 425.6703,96.7186 425.674,97.0106 425.6561,97.5975 425.6308,98.1223 425.6163,98.4227 425.6038,99.096 425.6061,99.5466 425.6083,99.9722 425.6455,100.2504 425.6999,100.3229 425.7252,100.3567 425.7052,100.49 425.6832,100.637 425.7268,100.7508 425.7462,100.8016 425.7885,100.9123 425.8254,101.4026 425.896,101.6714 426.1079,102.1693 426.111,102.1765 426.2266,103.0152 426.392,103.4508 426.594,103.6957 426.6056,103.713 426.7221,103.8863 426.7849,104.3767 426.7517,105.41 426.7134,106.0802 426.6628,106.5069 426.5558,106.9242 426.649,107.5797 426.716,108.1375 426.747,108.3959 426.7693,110.8504 426.809,112.6601 426.9027,114.1313 426.9629,114.7217 426.9981,115.0668 427.0077,116.3836 426.659,116.1511 426.6328,116.1336 426.374,115.9611 425.5282,115.6543 425.523,115.6525 421.5053,114.1917 419.5668,113.4972 419.4793,113.4658 410.2192,119.9042 410.6008,118.928 410.5109,118.5478 410.1044,117.8077 409.9358,117.0334 409.6257,116.4461 409.3484,116.2848 408.7507,116.1213 408.3729,115.7323 408.1345,114.988 407.8957,114.6642 407.5513,114.6616 407.2393,115.1134 406.6882,115.4021 406.1884,115.336 405.7754,115.592 405.3608,115.7217 405.4264,116.7222 405.1489,117.1413 404.4921,117.7214 404.0965,117.784 403.6416,117.4112 403.6218,117.3874 403.629,117.3829 402.4007,115.9109 401.6452,115.1975 400.1569,114.2913 399.3978,114.1124 398.8604,113.9814 396.0211,113.7109 392.8191,113.7636 391.6478,113.9849 390.6126,114.3038 390.1464,114.8509 390.3151,115.7566 390.8968,116.632 391.5143,117.184 392.1337,117.4128 392.7526,117.8434 393.1298,118.3297 393.5969,121.1278 393.8093,122.1265 393.6606,122.6222 391.8281,124.6176 389.4278,126.386 387.1826,128.1861 383.7303,130.3707 383.1789,130.5951 379.0633,130.7389 376.3266,130.7283 374.7781,130.3993 372.6464,129.6474 371.5956,129.8043 370.4575,130.3492 366.891,132.7206 365.2243,133.9482 362.3559,135.6722 361.7149,135.902 361.4276,135.5904 360.7422,135.2765 359.8795,135.0519 359.1498,134.7381 358.4834,134.3553 357.9114,133.8898 357.396,133.2696 354.5908,129.4377 354.4308,129.1447 354.2211,126.655 352.8351,106.9056 352.8478,106.5784" stroke="black" /><polygon fill="none" points="236.5667,313.3228 234.1192,312.6581 234.0152,312.6651 233.0112,312.7317 232.7418,312.0899 232.7536,311.6835 233.0445,310.0775 232.9509,309.7634 232.9168,309.6511 232.4318,308.0312 232.4318,308.0227 232.43,308.0166 232.0418,308.1728 231.4251,309.1822 230.6844,311.9461 230.1474,312.2315 227.385,311.1726 225.1586,307.5462 224.0596,306.7787 222.6154,306.5523 222.1966,306.6483 221.4281,307.4229 220.2578,309.9003 218.9618,310.1582 216.4979,309.9047 216.4965,309.9046 216.1384,309.8678 215.2413,310.1522 212.9703,312.2366 211.7399,312.2029 209.5462,311.9818 208.9401,311.7611 208.6461,311.5194 207.9324,310.0019 206.2114,308.8741 204.5949,308.4181 204.2692,308.5386 203.171,310.1436 202.4446,310.2095 201.6042,308.9533 200.2423,307.622 199.2754,307.1302 197.4071,307.5372 195.5345,307.6375 193.0998,306.5733 192.1972,307.3316 192.024,307.477 191.4595,307.951 190.0557,308.0312 189.3142,307.8447 185.7973,306.1683 185.4626,306.2405 185.0958,307.6301 184.7854,307.9563 184.7816,307.9604 182.3552,308.3361 181.0908,310.0811 180.2506,309.8291 179.0825,308.4276 178.6531,308.3167 177.9444,308.3655 177.4449,308.6828 177.0704,310.0455 176.2158,309.9484 175.2616,309.1987 173.7234,309.4233 173.1106,309.762 173.0548,309.8295 171.9625,311.1526 171.0064,314.1227 170.6732,314.4776 169.4079,315.0929 167.0543,315.6386 165.2743,315.505 164.8671,315.3924 163.5096,315.0169 163.5811,314.6716 164.0117,314.3 164.5222,313.8595 164.3774,313.0839 164.1143,312.8342 163.8512,312.5845 161.4556,312.4955 160.197,312.9076 159.4704,312.8885 157.8873,312.2605 156.7635,312.2391 156.1044,311.9259 154.63,312.3828 154.2857,311.8518 154.1491,311.6414 154.1503,310.6599 154.2135,302.6566 157.3559,297.2305 157.4229,297.1149 157.4713,297.0307 157.5479,296.8984 157.5741,296.8532 157.5868,296.8314 157.7425,296.5625 157.8535,296.371 166.9605,280.6483 167.0254,275.8551 167.2267,275.802 168.0893,275.5744 170.3171,276.6546 170.8664,276.4921 175.1066,273.0359 181.1594,270.5171 190.1321,266.7828 191.6999,266.701 206.8788,265.9094 210.5896,266.7941 210.8628,266.8593 228.423,271.0458 229.4175,271.2824 229.642,271.3361 229.763,271.3651 229.893,266.4769 236.6594,262.154 240.4985,259.7012 251.3009,252.7998 264.2593,257.8625 271.7645,266.3339 279.3593,267.4416 281.3472,267.7316 281.5382,267.7594 282.2716,267.8664 284.5862,268.2036 285.3647,267.3944 286.797,266.4884 288.2869,266.1246 289.0768,266.2147 289.81,265.4764 292.0634,261.025 299.2593,261.6213 299.4839,261.6399 307.4951,264.9856 308.2964,265.9733 307.5579,267.9375 306.2768,269.1573 307.0101,269.7613 309.9305,270.8696 310.7182,271.414 312.7424,273.8745 311.0686,274.9625 310.0536,277.0493 308.5995,278.9274 305.7541,283.7465 304.6951,286.7011 304.3633,289.2348 304.5758,290.9892 304.8194,291.2198 304.7704,291.3825 302.3896,299.3353 302.2341,299.8546 297.0926,317.0314 296.0902,320.315 289.6999,341.2482 289.6392,341.4452 276.5209,326.4493 267.8833,321.3068 265.2021,319.7105 262.0889,317.692 259.4561,316.2887 256.0741,314.9173 252.1191,313.7777 249.5034,313.0238 246.9992,312.787 244.9176,313.2074 243.718,313.2358 243.5683,313.2394 243.5349,313.2401 243.117,313.25 242.9709,313.2535 241.8418,313.2803 241.3366,313.2923 241.321,313.2927 240.973,313.3009 239.4162,313.3378 238.7965,313.3525 238.019,313.371 237.8651,313.3746 237.7638,313.377 237.7476,313.3774 237.7331,313.3778 237.7024,313.3785 236.8467,313.3988 236.5667,313.3228" stroke="black" /><polygon fill="none" points="126.6743,294.1843 126.1725,294.1761 123.903,294.1386 122.9818,293.9409 122.8806,293.9192 121.4221,293.2133 119.0185,292.5564 117.6535,291.7837 114.5914,291.4392 113.8471,290.8876 113.2159,289.89 112.2365,289.8647 111.5218,289.1347 111.3339,289.0624 110.1731,289.089 109.6971,288.7784 107.7564,289.6537 106.4065,288.4231 105.3002,286.3538 104.9697,284.2692 103.9821,281.1168 104.0071,280.3988 104.016,280.1435 104.4285,278.9343 106.5644,276.8078 105.5197,275.8586 104.0017,272.6538 103.2692,271.8246 116.0966,274.5974 116.2382,274.628 125.0688,276.5364 126.6334,276.8745 134.3106,278.5327 144.0485,279.1642 144.2393,279.1766 151.7904,279.6657 166.9605,280.6483 157.8535,296.371 157.7425,296.5625 157.5868,296.8314 157.5741,296.8532 157.5479,296.8984 157.4713,297.0307 157.4229,297.1149 157.3559,297.2305 154.2135,302.6566 154.1503,310.6599 153.3756,309.9436 151.8805,309.9457 151.2632,309.5586 150.3603,307.8201 148.8914,307.2555 148.3218,306.7667 148.0861,306.4431 148.0666,303.6474 146.2735,301.1556 144.56,299.6425 143.9023,297.7094 143.5391,297.4295 141.3361,296.6383 140.8418,296.6738 139.3984,297.4286 137.4477,297.6244 136.3692,298.239 134.1239,298.5707 133.5055,298.2228 133.5367,297.8742 133.5404,297.832 134.1439,296.852 134.2017,296.7582 134.0398,296.3869 132.5557,295.5184 132.1464,295.5752 130.559,296.3272 128.3708,294.7693 127.1064,294.1915 126.6743,294.1843" stroke="black" /><polygon fill="none" points="253.5919,186.223 254.0444,184.9397 253.9916,184.2778 254.2472,183.3571 255.3998,181.4899 255.6534,180.9322 255.8809,179.9679 255.8574,179.1022 255.5563,177.7327 255.5628,176.459 255.7168,176.0249 255.7293,175.9896 255.8568,176.0027 259.39,176.3644 280.1225,178.4851 273.6514,194.0503 262.9969,219.6943 262.0889,219.4681 260.0882,219.2261 254.7789,218.3486 249.2197,217.9194 242.1902,217.7291 242.0796,195.8443 243.7292,193.0175 243.7311,193.0142 244.0514,192.7778 244.6358,192.3465 244.9975,191.9787 244.6822,191.6992 246.7073,190.7457 247.9947,189.746 249.7557,189.0972 250.4007,188.5967 250.9328,187.8166 251.438,187.4007 251.8299,187.1086 253.1714,186.5278 253.5919,186.223" stroke="black" /><polygon fill="none" points="334.9261,315.3781 327.5918,309.5169 326.8185,308.8989 326.7289,307.9611 325.6504,296.6733 325.4585,294.663 325.6242,291.7176 325.2634,291.048 324.6739,290.6187 320.7027,290.2975 319.4833,290.74 316.9794,291.6482 316.3132,291.6748 313.8445,290.8744 312.6047,289.9876 311.3902,290.1036 310.423,289.6742 309.557,289.8537 308.9169,290.6087 308.4002,290.8197 305.398,290.9577 304.8194,291.2198 304.5758,290.9892 304.3633,289.2348 304.6951,286.7011 305.7541,283.7465 308.5995,278.9274 310.0536,277.0493 311.0686,274.9625 312.7424,273.8745 310.7182,271.414 309.9305,270.8696 307.0101,269.7613 306.2768,269.1573 307.5579,267.9375 308.2964,265.9733 307.4951,264.9856 317.6911,256.0144 317.7529,255.9609 318.5199,255.2861 328.2321,246.7423 329.1666,247.5454 332.1457,250.1023 333.9895,253.4497 335.2904,254.2623 335.8214,254.878 337.351,257.5326 339.7599,258.1968 340.6057,259.1594 342.6601,259.4751 343.3679,260.2843 346.192,260.6804 348.2039,261.8017 349.1861,263.2654 350.8227,264.2319 351.4914,264.9634 351.6397,267.3057 351.4513,269.6079 352.0556,273.5726 352.0661,273.6412 352.892,274.72 353.8194,275.0697 356.8238,275.2355 358.6461,274.2836 360.2881,273.8688 363.8445,274.4991 364.8729,274.3876 369.7642,272.3359 371.2852,272.4961 371.5241,272.2285 373.6221,271.6994 374.2538,271.8945 376.1332,271.6429 377.7524,271.9563 377.8828,272.0685 378.3001,272.4276 378.3539,272.5885 378.7337,273.7243 380.0223,275.8386 380.4742,279.0085 380.3629,281.5933 380.9607,282.0498 382.0251,282.3769 383.6901,282.1903 384.757,281.871 385.4619,280.4532 385.0309,287.793 384.9234,289.6246 397.4832,330.8504 399.7214,338.1889 399.9272,349.4254 396.603,349.8854 395.7494,349.7966 393.3379,348.8321 389.9877,351.2894 388.749,351.5497 386.923,352.5297 386.1075,352.6038 384.2189,352.3411 378.3615,350.446 375.4535,348.0508 374.4017,347.7465 373.0803,347.9851 372.7301,348.0484 371.8029,348.216 370.9295,348.1821 369.6449,347.8366 367.6238,346.6575 365.2237,344.3238 363.9856,342.4615 363.6348,341.4575 363.8204,339.0091 363.6405,338.3717 361.4058,335.8696 360.4237,333.9423 359.0594,330.1532 358.4164,329.5356 356.4378,328.7592 356.1107,328.8144 355.8149,329.3401 355.5639,331.8618 334.9261,315.3781" stroke="black" /><polygon fill="none" points="240.4985,259.7012 236.6594,262.154 229.893,266.4769 229.763,271.3651 229.642,271.3361 229.4175,271.2824 228.423,271.0458 210.8628,266.8593 210.5896,266.7941 206.8788,265.9094 191.6999,266.701 190.1321,266.7828 181.1594,270.5171 175.1066,273.0359 169.0159,258.1616 154.5304,256.3753 147.6087,255.5217 147.5405,255.5134 145.3586,255.2438 145.3242,255.2396 145.2327,255.0624 144.5645,253.7676 135.1942,235.6065 134.8712,234.9792 134.0837,234.6717 133.4946,234.1092 128.3528,229.9352 127.9937,229.8822 126.9726,229.7311 125.8907,228.9346 124.5508,227.3476 123.1742,226.3201 122.4951,224.3407 121.743,223.5465 119.2548,221.337 119.482,221.0034 119.5896,220.5685 119.4778,219.1543 119.8008,218.0073 120.1476,217.2053 121.0914,215.9262 121.5682,215.4536 122.0839,215.0992 122.9953,214.9054 123.9729,214.5671 124.4251,213.8689 124.5334,213.144 125.0528,212.2877 125.5824,211.8945 127.353,211.1634 128.4761,210.9979 131.038,210.3772 131.3675,210.4696 132.5887,211.4544 134.0907,211.9373 134.1552,212.0697 134.0979,213.0876 134.2021,213.2852 134.3988,213.3918 134.979,213.4466 136.1615,214.4307 137.2009,214.9776 137.6868,215.4421 138.2921,215.683 139.3911,214.9229 139.6296,214.6075 139.7238,214.2109 139.5557,213.6027 139.6099,213.3124 140.4688,212.8406 140.8809,212.513 141.146,212.1846 141.2662,211.8148 142.5788,210.4226 142.7659,210.0399 142.7583,208.8508 143.0809,207.691 145.6423,206.9902 147.2659,206.9182 149.5707,207.6159 150.9526,208.4154 151.4922,208.5901 151.8613,208.5126 152.9736,207.6862 153.9867,208.1402 154.2771,208.1678 154.8856,207.8536 156.7553,205.829 157.192,205.4482 157.7739,205.148 160.6653,204.5678 163.937,204.6497 164.3329,204.5067 164.7567,204.139 164.6458,202.5662 164.9382,202.1189 165.733,201.3173 165.9622,200.3269 166.216,199.8139 167.0781,198.8139 167.5019,198.4588 168.164,198.1458 169.1926,198.0453 169.9436,198.1546 170.7185,198.9899 171.1759,199.8514 171.3195,200.0102 171.5837,200.077 171.7945,200.0646 172.0061,199.908 172.6047,198.9727 172.7766,198.8023 173.0677,198.6989 173.5822,198.6753 175.0978,198.9725 175.7433,199.0149 177.4194,198.9174 178.1055,198.8273 179.6515,198.2807 181.4739,197.8404 184.0418,197.4881 184.8392,197.5133 185.6166,197.7022 189.2372,199.0136 190.0924,199.5596 190.3533,200.2746 190.8254,200.7524 191.4977,200.9002 193.3977,200.6455 194.3722,201.0472 194.6741,201.3646 195.6295,202.8751 196.3302,203.4233 197.4584,203.9673 197.7468,204.2061 197.9173,204.4455 198.3086,205.5026 205.3081,201.0945 205.4862,200.9822 205.7689,200.7692 205.7837,200.7581 217.5312,191.9079 217.7348,176.2311 217.8452,167.7281 235.9436,180.5242 242.9942,189.9092 243.6547,190.7884 243.6613,190.7943 244.0144,191.1073 244.6822,191.6992 244.9975,191.9787 244.6358,192.3465 244.0514,192.7778 243.7311,193.0142 243.7292,193.0175 242.0796,195.8443 242.1902,217.7291 249.2197,217.9194 254.7789,218.3486 260.0882,219.2261 262.0889,219.4681 262.9969,219.6943 260.4173,223.6484 256.1237,230.2304 253.906,240.6044 251.3009,252.7998 240.4985,259.7012" stroke="black" /><polygon fill="none" points="307.2071,72.4493 301.9089,68.4602 301.9351,65.2116 299.7985,64.7512 282.7796,65.6988 278.7439,69.6889 276.4025,68.9757 276.1684,68.8616 275.185,68.1841 273.9393,67.7451 273.803,66.3615 273.5285,65.6368 273.3154,65.3458 273.3105,65.3391 272.9575,64.0364 272.8511,63.686 272.7979,63.5108 272.7838,63.4651 272.7274,63.2825 272.7177,63.2513 272.4802,62.4816 272.4069,61.3681 272.3626,61.3019 271.8128,60.6781 271.8013,60.6651 271.7803,60.6411 272.364,60.4306 272.9987,59.9981 273.7717,59.5927 273.92,59.5119 272.9839,57.9402 272.7019,57.7128 272.4674,56.669 272.3769,56.4572 272.2032,56.2644 271.8894,55.9592 271.1174,55.2081 270.622,54.7278 270.2634,54.3787 270.1014,54.2099 269.7256,53.8157 269.6702,53.7575 269.6675,53.7546 269.6526,53.7391 269.5442,53.6255 269.2731,52.9438 268.8235,52.1108 268.6295,51.7513 267.6853,50.8455 267.2204,50.7512 266.5845,49.811 266.522,47.635 271.0439,44.8608 273.2642,40.4975 272.6348,30.7558 271.6323,30.4727 271.4835,30.4034 272.5471,29.6425 273.1286,29.4157 275.5684,28.8127 276.6012,28.1053 277.4084,27.3057 277.6468,27.2024 277.8776,27.1024 278.9876,26.9686 279.2849,26.8533 279.7532,26.3348 280.4531,25.8908 281.9336,25.3416 283.4125,24.9976 285.5206,24.2997 287.5477,22.8484 288.2036,22.563 289.4363,22.3055 290.9623,22.4905 291.5469,22.6705 292.1455,22.6977 292.847,22.5175 293.4551,22.6279 293.8911,22.9329 294.6322,23.26 295.21,23.2317 295.3785,23.2238 296.1227,22.9831 300.8246,20.7125 302.798,20.1455 303.1169,19.9606 303.4358,19.7757 304.2563,19.2999 305.5338,17.646 305.6167,17.5387 306.09,17.0881 306.9022,16.4742 307.9052,15.9231 309.9794,14.3048 310.6946,14.0059 311.8417,13.8861 313.9438,14.0069 315.1316,13.9622 315.2272,13.9578 315.667,13.9376 317.4379,13.8564 318.8128,13.6617 319.9755,13.5647 320.4083,13.5286 322.0037,13.3955 323.5195,13.494 324.8648,13.6706 325.1046,13.7976 327.5805,15.1086 329.4672,15.675 331.2973,15.7855 331.3227,15.7871 332.2042,15.8404 332.2254,15.8417 332.2325,15.8421 332.2467,15.843 332.2749,15.8447 332.3027,15.8464 332.3289,15.8479 332.3598,15.8498 332.4743,15.8567 332.5892,15.8637 332.6024,15.8645 332.6977,15.8702 332.7877,15.8757 335.236,16.0238 336.8913,15.9844 340.2168,16.1173 340.5793,16.1318 340.774,16.1396 340.977,15.9464 341.2019,15.7322 341.3662,15.0561 341.6476,14.5303 342.5474,13.6967 343.2571,11.6633 344.1167,11.7254 347.1516,10.1874 348.1723,10.0803 349.3831,10.2632 350.4783,12.465 352.2411,22.7458 352.4479,27.4629 352.8428,29.7613 352.9015,32.6614 351.8145,34.296 351.0774,35.7017 350.8811,36.076 350.9584,36.2576 350.9486,36.3169 351.1583,37.9147 350.6389,40.3236 350.8219,42.0187 351.8127,46.5392 352.5627,48.616 352.5852,48.7879 352.004,51.8495 351.8214,52.8115 351.3338,54.4176 351.245,54.71 350.9979,56.8025 350.8383,58.1537 350.621,59.1688 350.014,62.0047 349.8941,62.565 349.753,63.1119 349.2306,65.138 348.9748,67.8041 348.9142,68.1232 348.8662,68.6162 348.5939,71.415 348.2882,74.5575 348.1669,75.1278 348.1449,75.2312 348.1634,76.0382 348.2359,76.1213 348.4011,76.4046 348.4517,76.445 348.7628,76.5968 349.2812,76.8496 349.4025,76.9272 349.5717,77.0977 349.5859,77.1074 350.3726,77.6466 350.4683,77.7122 351.0259,77.8783 351.1852,78.0353 351.2045,78.1372 351.2591,78.1527 351.4822,78.216 352.1387,78.4023 352.7976,78.5892 353.5085,78.9705 353.3648,79.7977 353.2943,82.1258 353.4914,84.398 353.5382,84.938 354.6442,97.6937 354.3669,97.7979 353.9373,97.6662 353.6178,96.9547 352.8693,96.1115 351.6897,95.3959 350.9916,95.1883 350.8215,94.843 350.3102,94.8789 349.8538,94.797 349.8469,95.2227 350.3831,102.7546 350.418,102.8166 350.4829,102.8876 351.0437,103.502 352.2831,105.2512 352.8478,106.5784 352.8351,106.9056 354.2211,126.655 354.4308,129.1447 354.5908,129.4377 357.396,133.2696 357.9114,133.8898 356.8958,133.4304 355.3721,132.3817 353.0716,131.7298 350.8632,131.4016 348.1964,130.4489 341.1065,131.644 340.7805,131.699 340.7166,131.7097 335.6383,133.6719 318.8812,129.6997 314.0121,128.5453 316.2382,136.4516 316.435,137.1505 316.4564,137.2267 316.6645,137.9656 321.0048,153.3811 302.2267,145.2763 290.7067,142.1657 283.7636,140.309 283.5244,140.2449 283.3659,140.2025 290.1137,130.5541 288.8936,130.1838 295.7332,118.4623 298.2014,116.9908 299.6102,106.769 299.6349,106.4358 300.1653,99.2859 300.4668,99.1784 304.2097,97.8438 304.8989,96.4132 306.4288,93.2373 309.9764,85.8726 313.6796,78.1841 313.8109,74.9925 307.2071,72.4493" stroke="black" /><polygon fill="none" points="399.5734,123.7415 393.5969,121.1278 393.1298,118.3297 392.7526,117.8434 392.1337,117.4128 391.5143,117.184 390.8968,116.632 390.3151,115.7566 390.1464,114.8509 390.6126,114.3038 391.6478,113.9849 392.8191,113.7636 396.0211,113.7109 398.8604,113.9814 399.3978,114.1124 400.1569,114.2913 401.6452,115.1975 402.4007,115.9109 403.629,117.3829 403.6218,117.3874 403.6416,117.4112 404.0965,117.784 404.4921,117.7214 405.1489,117.1413 405.4264,116.7222 405.3608,115.7217 405.7754,115.592 406.1884,115.336 406.6882,115.4021 407.2393,115.1134 407.5513,114.6616 407.8957,114.6642 408.1345,114.988 408.3729,115.7323 408.7507,116.1213 409.3484,116.2848 409.6257,116.4461 409.9358,117.0334 410.1044,117.8077 410.5109,118.5478 410.6008,118.928 410.2192,119.9042 419.4793,113.4658 419.5668,113.4972 421.5053,114.1917 425.523,115.6525 425.5282,115.6543 426.374,115.9611 426.6328,116.1336 426.659,116.1511 427.0077,116.3836 427.0098,116.6767 427.0059,117.8235 426.996,118.9127 427.0663,120.3653 427.0963,120.6728 427.1256,121.0691 427.2067,121.8595 427.3211,122.3099 427.2739,122.9866 427.1541,124.3753 427.0632,126.0649 427.0326,126.4546 427.0564,126.9906 427.0786,127.5051 427.168,128.1703 427.2852,129.0459 427.4105,129.8666 427.4196,130.009 427.4302,130.2806 427.4988,130.6692 427.6187,131.1315 427.7147,131.6044 427.8815,132.1397 428.0761,132.501 428.1357,132.6622 428.0956,132.8584 428.0079,133.1191 427.9014,133.3529 427.8592,133.5273 427.8874,133.696 427.9356,133.9384 427.9316,134.1443 427.9479,134.4595 427.9908,134.956 428.0146,135.4834 428.0143,135.5607 428.0138,135.6946 428.3206,138.3844 428.7118,139.7093 428.7264,139.7589 428.7234,139.7785 428.6159,140.4738 429.2236,141.039 429.1374,141.1627 427.0337,143.3025 426.9512,143.3864 425.9366,143.89 424.4416,144.061 423.026,143.954 421.7611,143.6953 419.6865,143.0116 412.2985,136.8867 410.224,135.1668 410.1159,135.077 409.2895,134.3914 409.2376,134.3484 409.2165,134.3309 409.2159,134.3304 409.2149,134.3296 409.2108,134.3268 409.2078,134.3248 409.2055,134.3231 409.2027,134.3211 409.1473,134.2815 409.1235,134.2645 408.8812,134.0913 408.4181,133.7602 405.7473,131.8233 404.6647,132.8303 399.6823,129.9722 399.5962,125.0347 399.5734,123.7415" stroke="black" /><polygon fill="none" points="104.0071,280.3988 103.9821,281.1168 104.9697,284.2692 105.3002,286.3538 106.4065,288.4231 107.7564,289.6537 107.5062,291.0391 106.8831,291.7291 106.8797,291.7329 104.6867,291.5903 103.3867,292.4151 102.8327,292.1503 102.0476,292.3385 100.5701,291.2861 99.0291,290.9686 97.3914,290.2735 96.7898,290.691 95.9547,292.0236 94.8811,293.1181 92.8948,294.2798 91.3103,295.7461 89.5625,296.9259 88.8808,298.3054 88.494,298.6243 88.2458,298.7164 85.8809,299.5943 83.1757,302.466 80.868,303.3449 78.7395,303.4693 77.6711,304.1411 76.7228,304.1566 75.0599,303.7138 74.8874,303.6679 74.4693,303.5564 73.466,303.2889 72.4407,302.5085 71.6954,303.4705 70.1169,304.342 67.346,304.4621 63.9974,306.2846 63.3243,306.07 62.972,305.1742 62.6399,304.9197 61.9657,305.1289 59.9979,306.9013 58.8785,307.519 57.5844,307.3922 54.6291,307.8248 51.4703,309.607 45.846,309.9749 45.0211,305.6267 44.4442,304.2323 44.4481,303.5385 45.1081,301.57 45.2584,297.8811 45.0741,296.0587 44.2144,294.688 44.4842,292.8034 44.2075,291.9995 46.0371,291.9115 49.7076,287.8929 49.7097,287.525 49.7303,283.775 49.7956,283.1145 50.5593,275.395 50.6236,274.7444 50.7237,273.7324 60.9763,265.5309 69.101,259.8598 73.9396,256.4824 96.7996,239.5908 96.8453,242.8596 98.9557,245.8308 99.2128,246.4946 100.3049,251.7927 100.0979,252.7418 98.2219,256.2957 97.8785,258.1867 99.305,261.8731 99.566,263.3612 102.7174,267.8974 103.0545,268.9688 103.2692,271.8246 104.0017,272.6538 105.5197,275.8586 106.5644,276.8078 104.4285,278.9343 104.016,280.1435 104.0071,280.3988" stroke="black" /><polygon fill="none" points="199.2892,163.0544 216.7484,167.4522 217.8452,167.7281 217.7348,176.2311 217.5312,191.9079 205.7837,200.7581 205.7689,200.7692 205.4862,200.9822 205.3081,201.0945 198.3086,205.5026 197.9173,204.4455 197.7468,204.2061 197.4584,203.9673 196.3302,203.4233 195.6295,202.8751 194.6741,201.3646 194.3722,201.0472 193.3977,200.6455 191.4977,200.9002 190.8254,200.7524 190.3533,200.2746 190.0924,199.5596 189.2372,199.0136 185.6166,197.7022 184.8392,197.5133 184.0418,197.4881 181.4739,197.8404 179.6515,198.2807 178.1055,198.8273 177.4194,198.9174 175.7433,199.0149 175.0978,198.9725 173.5822,198.6753 173.0677,198.6989 172.7766,198.8023 172.6047,198.9727 172.0061,199.908 171.7945,200.0646 171.5837,200.077 171.3195,200.0102 171.1759,199.8514 170.7185,198.9899 169.9436,198.1546 169.1926,198.0453 168.164,198.1458 167.5019,198.4588 167.0781,198.8139 166.216,199.8139 165.9622,200.3269 165.733,201.3173 164.9382,202.1189 164.6458,202.5662 164.7567,204.139 164.3329,204.5067 163.937,204.6497 160.6653,204.5678 157.7739,205.148 157.192,205.4482 156.7553,205.829 154.8856,207.8536 154.2771,208.1678 153.9867,208.1402 152.9736,207.6862 151.8613,208.5126 151.4922,208.5901 150.9526,208.4154 149.5707,207.6159 147.2659,206.9182 145.6423,206.9902 143.0809,207.691 142.7583,208.8508 142.7659,210.0399 142.5788,210.4226 141.2662,211.8148 141.146,212.1846 140.8809,212.513 140.4688,212.8406 139.6099,213.3124 139.5557,213.6027 139.7238,214.2109 139.6296,214.6075 139.3911,214.9229 138.2921,215.683 137.6868,215.4421 137.2009,214.9776 136.1615,214.4307 134.979,213.4466 134.3988,213.3918 134.2021,213.2852 134.0979,213.0876 134.1552,212.0697 134.0907,211.9373 132.5887,211.4544 131.3675,210.4696 131.038,210.3772 128.4761,210.9979 127.353,211.1634 125.5824,211.8945 125.0528,212.2877 124.5334,213.144 124.4251,213.8689 123.9729,214.5671 122.9953,214.9054 122.0839,215.0992 121.5682,215.4536 121.0914,215.9262 120.1476,217.2053 119.8008,218.0073 119.4778,219.1543 119.5896,220.5685 119.482,221.0034 119.2548,221.337 108.9932,188.6224 107.6042,176.4489 107.4232,176.1105 106.8824,175.6154 106.5226,175.0167 106.4211,174.3939 106.5289,173.6159 106.1717,172.3953 107.5354,169.4975 107.7439,168.8533 108.3296,166.0809 109.797,162.9127 110.5261,162.091 110.831,162.0566 112.47,162.7909 112.7736,162.7934 113.0166,162.6819 113.4066,161.9938 113.6503,161.8323 115.1311,161.6974 115.821,161.559 116.5323,161.2785 117.2044,160.7841 117.8768,160.1178 118.5253,159.2176 118.7958,158.842 119.9958,158.0466 120.6893,157.4408 120.9544,156.9949 121.4439,156.4726 122.6202,156.3123 123.1889,156.0813 124.3904,155.3164 125.077,155.7255 125.3212,155.7068 126.8052,154.7092 127.561,153.8192 128.3752,152.3367 128.8473,151.988 129.7,151.667 129.9229,151.7495 129.983,151.8917 129.8796,152.7067 130.0388,153.0196 130.8077,153.4493 131.0825,153.4451 131.3398,153.3229 132.213,152.177 133.3172,150.162 133.642,150.0002 133.8483,149.4941 134.1933,149.4551 134.6006,148.9904 134.8649,148.9909 135.3498,149.2984 135.9857,148.9345 136.4251,149.0672 136.8311,149.0509 136.9316,149.235 137.1959,149.236 137.2341,149.5208 137.0119,149.6826 137.0109,149.7841 137.0713,149.9468 137.4644,150.2801 137.5131,150.5732 137.7945,151.1225 138.0471,151.3375 138.2076,151.6319 138.6712,151.8982 139.1564,152.5402 139.6417,152.871 139.7935,152.906 139.8403,152.9169 140.1788,152.995 140.5222,153.2105 141.1641,154.7768 141.4359,155.0733 141.7301,155.1398 143.2319,154.894 144.1545,154.9999 144.6313,154.9521 145.1277,155.0391 145.5319,155.3972 145.8762,155.5106 147.1134,155.5387 147.5674,155.866 148.1994,156.9416 150.3737,156.6147 152.1614,156.1063 155.4004,155.4514 156.8404,155.4183 161.8589,153.6177 183.0647,158.9653 185.1316,159.4865 185.2977,159.5284 192.4275,161.3252 199.2892,163.0544" stroke="black" /><polygon fill="none" points="438.1217,156.7113 438.1358,156.7533 438.7753,157.9272 439.1978,158.6557 439.7159,159.5511 440.1675,160.3198 440.5543,160.9741 441.0098,161.5321 441.3694,162.0475 441.9744,162.6274 442.4549,162.9165 442.8683,163.0653 442.8806,163.0667 443.171,163.0998 443.4063,162.9943 443.6177,162.7784 443.8762,162.5286 444.2045,162.3847 444.3824,162.2819 444.4989,162.2145 444.7543,162.2033 444.881,162.2479 445.0262,162.3199 445.0761,162.4152 445.1955,162.6946 445.3889,163.0069 445.6556,163.407 446.0585,163.8821 446.4659,164.3201 447.0829,164.9299 447.6834,165.374 448.2612,165.7136 448.592,165.7984 448.7992,165.8515 449.0962,165.8576 449.2441,165.7984 449.3504,165.7558 449.5199,165.6133 449.7162,165.3609 449.7872,165.1873 449.8487,165.1107 449.8956,164.9405 450.0193,164.7779 450.0381,164.7532 450.3826,164.6375 450.6391,164.6354 450.858,164.729 451.0407,164.9341 451.1595,165.0826 451.3872,165.2258 451.5251,165.2689 451.7345,165.105 451.8578,165.0227 452.1147,164.9909 452.375,165.0159 452.6964,165.1341 453.2256,165.2082 453.5333,165.2296 453.8326,165.0831 454.1786,164.9301 454.4896,164.8156 454.9031,164.78 455.2242,164.8486 455.621,164.9456 456.3681,164.9439 456.8667,164.9137 457.6244,165.0936 458.1404,165.2261 458.4073,165.3619 458.5666,165.6187 458.7426,166.4481 458.7515,166.516 458.8101,166.963 458.9292,167.7342 459.0494,168.1308 459.0895,168.2635 459.0907,168.2663 459.2405,168.628 459.5689,168.8618 459.9724,168.9947 460.2616,169.2187 460.7235,169.4119 460.9189,169.4338 461.1995,169.5468 461.5561,169.9062 461.8984,170.3516 461.9591,170.5486 461.9868,170.8242 461.8921,171.3964 461.8018,172.1033 461.7061,173.1008 461.6646,173.7196 461.6571,173.8317 461.6138,174.1952 461.5333,174.4769 461.5131,175.4353 461.4237,176.0095 461.3427,176.5295 461.3889,177.5131 461.4483,178.5259 461.3617,179.6354 461.3486,179.8036 461.318,180.6548 461.1405,181.654 461.1295,182.4125 461.0757,183.0354 461.0564,183.6794 461.0407,184.2038 461.056,185.0146 460.9763,185.8346 460.9021,186.4306 460.9465,187.0789 460.9448,187.781 460.9462,187.8458 460.9573,188.3744 461.0665,189.0012 461.2243,189.7924 461.5055,190.4476 461.7014,190.7001 461.7509,190.764 461.9238,190.9601 462.0863,191.0876 462.3365,191.3183 462.763,191.6106 463.2524,192.0778 463.4617,192.423 463.5271,192.7296 463.5514,193.0636 463.4214,193.3842 463.2644,193.6701 463.1573,194.0498 463.1596,194.1915 463.1625,194.3724 463.227,194.7514 463.2598,195.1995 463.3321,195.4848 463.3041,195.5699 463.2259,195.6932 463.0924,195.8681 462.9306,196.0393 462.8417,196.2834 462.7483,196.6935 462.7569,196.962 462.8199,197.1308 462.9858,197.2078 463.1015,197.2888 463.181,197.5199 463.1818,197.8897 463.254,198.3354 463.2957,198.7489 463.3565,199.129 462.841,199.1134 462.4967,199.0134 462.4785,199.0048 462.263,199.0146 462.0475,199.0244 460.7304,198.45 460.4531,198.4252 458.8258,198.2797 457.2096,197.6883 456.7345,197.5526 455.4442,196.8629 453.6503,196.1454 452.2461,195.8474 448.4906,195.4655 447.3997,195.0032 446.2875,193.9847 445.8351,193.3494 444.6641,192.4089 442.4546,191.3521 442.4363,191.3434 442.0457,190.873 441.2425,189.0685 440.755,188.5312 440.0441,187.8848 439.5387,187.5781 438.9311,187.5243 438.3741,187.5981 437.6292,187.9016 435.9902,188.1979 434.585,188.2804 432.8608,188.7559 432.4041,189.0839 431.3507,189.2953 430.5916,189.3687 429.1485,189.3372 428.491,189.2328 427.6385,189.3443 426.3994,189.3392 423.5742,190.0515 422.3792,191.0359 421.9714,191.7439 421.599,193.125 420.991,193.528 420.153,193.7287 419.6212,193.7255 419.0889,193.9017 418.6058,194.204 417.7798,194.8499 417.0662,196.139 416.315,196.5077 412.5052,198.073 409.6839,198.5213 408.1185,199.1388 405.6895,201.638 405.6105,201.7193 403.3984,203.9953 401.0527,205.266 400.2406,206.2551 399.6159,206.0614 399.1811,205.3903 398.9571,204.3941 398.5258,203.1604 398.5292,202.4592 399.0423,200.3768 399.185,198.7722 399.0739,195.0538 398.5234,192.4525 398.2879,191.7746 396.8418,189.9505 396.5516,189.4604 396.5181,189.2033 394.9882,188.5956 394.7687,188.5086 394.4993,188.5638 394.5376,188.2249 394.7541,186.3103 394.7658,186.2074 394.7433,185.1093 394.1772,182.3525 394.6002,176.3691 394.9646,175.022 395.6213,173.5978 395.6851,173.4596 395.7948,173.2215 395.7771,171.5986 395.7903,171.4517 395.7936,171.4151 395.9607,169.558 395.9641,169.52 395.9664,169.4952 395.9807,169.3359 396.0309,168.7776 395.8576,167.3039 395.8387,165.6069 396.5787,163.6507 397.2442,162.7037 397.6907,162.0685 397.5939,160.5956 409.9362,150.7582 419.6865,143.0116 421.7611,143.6953 423.026,143.954 424.4416,144.061 425.9366,143.89 426.9512,143.3864 427.0337,143.3025 429.1374,141.1627 429.2236,141.039 429.7824,141.5588 430.7316,141.0329 430.8936,140.6143 430.8815,140.212 431.0828,139.2832 431.1206,139.1092 431.1996,139.2009 431.3849,139.3648 431.4479,139.6373 431.5244,139.7988 431.634,139.9195 431.8355,140.0813 431.9525,140.2367 432.0638,140.485 432.3893,141.2307 432.5296,141.5332 432.7553,141.9148 432.9487,142.0571 433.1586,142.1705 433.5088,142.495 433.8697,142.8606 433.9855,142.9608 434.0931,143.0314 434.2211,143.0984 434.3091,143.1297 434.388,143.1448 434.397,143.1418 434.4501,143.1367 434.4581,143.135 434.4875,143.1264 434.506,143.121 434.554,143.0895 434.5779,143.0631 434.6227,143.0317 434.6861,143.0164 434.7333,143.0458 434.7558,143.0801 434.7618,143.1133 434.7563,143.1358 434.7478,143.1643 434.7379,143.1894 434.7342,143.2199 434.7422,143.2506 434.8741,143.4013 435.1653,143.6734 435.3966,143.829 435.553,144.064 435.579,144.651 435.8756,147.1907 435.9703,148.2976 436.4434,150.6553 437.0474,153.2119 437.4723,154.756 437.8117,155.7897 438.1217,156.7113" stroke="black" /><polygon fill="none" points="281.5382,267.7594 281.3472,267.7316 279.3593,267.4416 271.7645,266.3339 264.2593,257.8625 251.3009,252.7998 253.906,240.6044 256.1237,230.2304 260.4173,223.6484 262.9969,219.6943 273.6514,194.0503 280.1225,178.4851 284.7486,164.4163 282.9519,176.1665 280.4911,192.2577 280.4254,192.4601 280.3343,192.7403 279.6892,193.3315 279.3354,193.5069 279.0134,193.8103 278.8185,194.1302 278.6719,194.5955 278.4948,194.6917 278.5088,195.1413 278.4118,195.3492 277.9598,195.7657 277.8196,196.0309 277.799,196.0699 277.8269,196.8251 277.5693,196.9527 277.4564,197.1291 277.4389,197.4018 277.5323,198.1092 277.3028,199.1521 277.3019,199.4737 277.4766,199.7961 277.6042,199.9087 277.6518,200.1181 277.5864,200.3104 277.329,200.47 277.0382,200.7898 276.8295,200.7891 276.6354,200.8684 275.7977,201.7165 275.7806,201.9572 275.9867,202.5522 275.548,203.5788 275.5315,203.835 275.5787,204.0769 275.7538,204.3988 275.6569,204.6073 275.6389,204.8805 276.2773,205.7668 276.2602,206.008 276.0508,206.1674 275.4726,206.1812 275.1364,205.987 274.8949,206.082 274.86,206.7385 275.2493,207.5542 276.6711,209.2167 278.6908,211.2866 279.2444,211.2449 279.8429,211.3813 280.9461,212.193 281.5908,212.4194 283.5202,213.9514 285.3141,214.9899 286.2564,215.0674 287.245,215.3898 289.1058,215.4122 287.0657,226.3398 286.8457,227.7383 286.9514,228.4278 286.9845,228.6439 287.4765,229.6038 288.0128,230.1394 287.8682,230.6972 287.8667,231.2026 287.6941,231.7347 287.8041,232.4269 287.6591,232.9053 287.9834,233.5984 287.7532,234.1029 287.6962,234.4754 287.8917,234.8489 287.8577,236.1799 287.6932,236.5253 287.5288,236.8707 287.4472,236.9306 286.8453,237.3723 286.9272,238.065 287.1518,238.518 286.9505,239.2088 286.6646,239.7666 287.1569,240.5413 287.3786,241.8189 287.5759,242.1129 288.9334,242.8651 289.2457,242.9451 289.3702,243.5887 289.5248,246.8887 289.6364,247.5541 289.0075,248.9536 289.0692,249.4432 290.3655,250.9162 290.8171,251.8954 290.977,252.5684 307.4951,264.9856 299.4839,261.6399 299.2593,261.6213 292.0634,261.025 289.81,265.4764 289.0768,266.2147 288.2869,266.1246 286.797,266.4884 285.3647,267.3944 284.5862,268.2036 282.2716,267.8664 281.5382,267.7594" stroke="black" /><polygon fill="none" points="241.377,63.6048 240.7901,64.5803 240.3918,65.2295 240.1283,65.6655 240.0154,65.8505 239.9302,65.9822 239.912,66.0102 239.8245,66.4722 239.5902,67.7094 239.1803,69.8729 238.3233,74.4639 235.9834,73.7087 235.3778,73.4946 232.4383,72.4554 232.1339,75.7447 231.4704,77.2424 228.775,79.8373 227.5585,81.2007 224.5841,81.7926 224.5812,81.7919 224.5487,81.7843 223.8308,81.6159 223.7832,81.6047 223.7371,81.5939 223.6912,81.5831 223.6473,81.5728 223.6008,81.5619 223.5546,81.551 223.5094,81.5405 223.4837,81.5344 223.4608,81.529 223.4381,81.5237 223.4154,81.5184 223.3924,81.513 223.3734,81.5085 223.3281,81.4979 223.2837,81.4875 223.247,81.4789 223.2026,81.4684 223.1622,81.459 223.1188,81.4488 223.116,81.4481 223.1132,81.4475 223.1108,81.4469 223.1012,81.4447 223.0977,81.4438 223.0948,81.4431 223.0938,81.4429 223.0888,81.4417 223.0881,81.4416 223.0825,81.4403 223.0782,81.4393 223.0672,81.4367 222.7686,81.3666 222.4857,81.2999 222.4832,81.2993 222.4226,81.285 222.4198,81.2844 222.4183,81.2841 222.4131,81.2828 222.4079,81.2816 222.3975,81.2791 222.391,81.2776 222.3844,81.276 222.3778,81.2745 222.3652,81.2715 222.3525,81.2685 222.3455,81.2669 222.3392,81.2654 222.3331,81.264 222.3207,81.261 222.3096,81.2584 222.2973,81.2555 222.2851,81.2527 222.2824,81.252 222.2754,81.2504 222.2692,81.2489 222.2576,81.2462 222.2472,81.2437 222.2414,81.2424 222.2368,81.2413 222.2279,81.2392 222.1535,81.2216 222.0818,81.2047 222.0115,81.1882 221.965,81.1772 221.9627,81.1767 221.9604,81.1761 221.9583,81.1756 221.9564,81.1752 216.4063,78.8254 214.6953,78.7147 213.5703,78.1248 212.2871,78.5295 209.223,78.3308 207.9105,78.6734 207.0365,79.1105 206.144,79.3424 205.0882,79.2967 204.7391,79.3566 204.565,79.3865 204.226,79.58 204.7922,76.8224 206.625,73.0458 205.9246,72.7967 205.507,72.1629 204.9207,71.8092 204.5703,71.8075 204.2545,71.8764 203.9551,72.0502 203.4464,72.1007 202.6764,71.8864 202.0479,71.3045 200.9983,70.7382 200.8411,70.5623 200.2495,69.5938 200.1458,69.3123 200.0952,68.8033 199.9383,68.6623 199.7109,68.6076 199.361,68.4311 198.9401,68.3414 197.9065,68.2312 197.0655,68.0696 195.8233,67.625 195.1739,67.6218 195.1452,66.501 194.1809,66.3003 192.9795,66.3644 192.2598,66.6076 191.2923,67.2175 190.6247,67.4779 189.3965,67.7356 187.9934,67.8345 186.8014,67.7585 185.5226,67.5771 182.6758,67.4761 180.6942,67.4844 179.9406,67.4456 179.0079,67.2739 178.747,67.3578 178.7442,67.3587 178.4746,67.4454 178.0937,67.803 178.0903,67.8051 177.7592,68.0139 177.7544,68.0169 177.5045,68.0661 177.5006,68.0668 177.0288,68.0546 176.6579,68.0451 176.6571,68.0454 176.6563,68.0457 175.723,68.4162 175.576,68.4745 175.5579,68.4818 175.4885,68.5093 174.4598,68.9177 174.1413,68.5646 174.1397,68.5625 174.1382,68.5604 173.7005,67.9708 176.3115,66.9755 177.3405,66.5833 178.1745,66.2653 226.7972,47.733 243.8823,41.2211 244.0639,41.1518 244.0648,41.1515 244.2681,41.074 245.54,40.5884 252.8011,37.8165 271.4835,30.4034 271.6323,30.4727 272.6348,30.7558 273.2642,40.4975 271.0439,44.8608 266.522,47.635 266.5845,49.811 267.2204,50.7512 267.6853,50.8455 268.6295,51.7513 268.8235,52.1108 269.2731,52.9438 269.5442,53.6255 269.6526,53.7391 269.6675,53.7546 269.6702,53.7575 269.7256,53.8157 270.1014,54.2099 270.2634,54.3787 270.622,54.7278 271.1174,55.2081 271.8894,55.9592 272.2032,56.2644 272.3769,56.4572 272.4674,56.669 272.7019,57.7128 272.9839,57.9402 273.92,59.5119 273.7717,59.5927 272.9987,59.9981 272.364,60.4306 271.7803,60.6411 271.8013,60.6651 271.8128,60.6781 272.3626,61.3019 272.4069,61.3681 272.4802,62.4816 272.7177,63.2513 272.7274,63.2825 272.7838,63.4651 272.7979,63.5108 272.8511,63.686 272.9575,64.0364 273.3105,65.3391 273.3154,65.3458 273.5285,65.6368 273.803,66.3615 273.9393,67.7451 275.185,68.1841 276.1684,68.8616 275.4945,70.7256 274.6145,70.5449 272.9816,71.1113 270.6008,71.4097 268.0879,71.8846 266.415,71.4804 263.7313,70.6299 262.7286,68.2416 261.413,66.7789 259.7845,66.375 256.9653,66.363 254.7134,67.2799 252.6416,67.4468 249.9527,67.8759 248.1057,67.0734 245.0766,64.544 243.9324,64.3187 242.6139,63.7386 241.4064,63.608 241.377,63.6048" stroke="black" /><polygon fill="none" points="440.755,188.5312 441.2425,189.0685 442.0457,190.873 442.4363,191.3434 442.4546,191.3521 444.6641,192.4089 445.8351,193.3494 446.2875,193.9847 447.3997,195.0032 448.4906,195.4655 452.2461,195.8474 453.6503,196.1454 455.4442,196.8629 456.7345,197.5526 457.2096,197.6883 455.6749,199.2441 456.1185,203.487 455.73,204.7879 454.2544,204.708 453.4858,205.4119 452.6044,205.557 451.8012,205.2564 451.0713,205.6999 450.3438,205.6232 449.4262,205.0616 448.6001,205.661 447.6424,205.7317 446.7627,205.393 446.4206,205.6038 448.0017,208.5149 448.6466,216.4858 442.8072,215.9939 450.8861,222.0247 449.8769,222.4233 447.9838,222.5076 447.2136,222.8137 445.3644,223.915 442.2522,226.677 440.7649,226.8587 437.9739,228.1418 435.5726,228.4715 434.5377,229.3369 415.9342,225.8779 415.1748,209.4813 415.136,208.6458 415.1056,207.9883 416.2667,206.0341 416.5614,204.5427 416.5215,202.6302 415.9163,200.6247 415.6768,197.93 416.315,196.5077 417.0662,196.139 417.7798,194.8499 418.6058,194.204 419.0889,193.9017 419.6212,193.7255 420.153,193.7287 420.991,193.528 421.599,193.125 421.9714,191.7439 422.3792,191.0359 423.5742,190.0515 426.3994,189.3392 427.6385,189.3443 428.491,189.2328 429.1485,189.3372 430.5916,189.3687 431.3507,189.2953 432.4041,189.0839 432.8608,188.7559 434.585,188.2804 435.9902,188.1979 437.6292,187.9016 438.3741,187.5981 438.9311,187.5243 439.5387,187.5781 440.0441,187.8848 440.755,188.5312" stroke="black" /></svg>