<?xml version="1.0" encoding="utf-8" ?>
<svg baseProfile="tiny" height="500" version="1.2" width="480.6767" xmlns="http://www.w3.org/2000/svg" xmlns:ev="http://www.w3.org/2001/xml-events" xmlns:xlink="http://www.w3.org/1999/xlink"><defs /><polygon fill="none" points="290.3813,438.7127 288.4064,439.1333 287.306,439.3396 287.0063,439.3564 286.0099,439.287 282.0054,438.848 275.8873,438.2824 272.5454,437.954 260.6793,436.8866 259.4599,436.9645 251.8603,437.4484 250.6871,437.5095 249.3289,437.6052 247.0978,437.7409 244.9918,437.8882 244.2489,437.9576 242.0885,438.0844 241.8326,438.0982 240.7984,438.1676 238.7231,438.317 237.2816,438.4096 235.3389,438.6032 232.6896,438.9277 230.4339,439.2108 229.8717,439.2799 229.1996,439.3626 227.256,439.6172 226.9267,439.6361 226.7615,439.6292 226.6475,439.6166 226.3859,439.5576 226.2044,439.4945 225.8438,439.2987 224.952,438.7517 223.7086,437.9958 221.513,436.6934 221.3695,436.6324 221.103,436.5629 219.9561,436.5589 215.5811,436.7667 215.5466,436.7691 214.3685,436.8134 213.9562,436.7975 213.7325,436.7343 213.4414,436.6058 206.6535,433.4709 205.7984,433.1425 205.4586,433.073 204.7889,433.0414 202.9941,433.0076 200.5655,432.9442 200.0229,432.9295 199.852,432.9 199.5856,432.8259 198.9265,432.4754 192.3421,428.7061 191.8498,428.4637 191.3099,428.3451 190.1127,428.1803 189.0496,428.025 188.2273,427.917 187.0354,427.749 186.5928,427.7153 183.8274,427.5256 182.7057,427.4613 179.6717,427.2596 179.6249,427.2565 179.5798,427.254 178.4765,427.1932 176.9106,427.0457 175.3371,426.8822 169.6111,426.2408 169.1954,426.2134 169.0133,426.2302 168.3618,426.3332 162.2226,427.4013 159.4123,427.9061 159.0611,427.9449 158.6793,427.9439 158.086,427.8049 155.6423,426.8973 155.2667,426.691 144.4032,420.3092 122.2295,407.2833 118.3115,404.9816 117.5714,404.1373 117.8999,403.0913 118.5405,402.5241 119.1218,402.2382 120.9293,402.1806 121.4539,401.6115 121.8942,401.0897 122.1427,400.7898 122.8718,400.1401 123.5637,399.3097 123.7761,398.9276 123.6346,398.4367 123.625,398.179 123.8316,397.9818 123.9796,397.8552 124.1764,397.772 124.4596,397.6976 124.9989,397.4349 125.3406,397.1478 125.5579,396.8883 126.4481,396.2323 126.7863,395.6979 126.9059,395.1302 126.9481,394.967 127.0746,394.7969 127.3236,394.5656 127.7109,394.2469 127.9863,393.8573 128.2589,393.1327 128.4449,392.6756 128.6079,392.3566 128.6957,392.2087 128.8283,392.0796 129.0727,391.8047 129.1556,391.7339 129.5409,391.5048 129.7522,391.2882 129.8971,391.0217 129.926,390.8386 129.8761,390.6138 129.7641,390.3725 129.6893,390.1436 129.4653,389.7066 129.3781,389.4819 129.3697,389.3487 129.2867,389.0782 129.2327,388.6674 129.137,388.3582 129.0886,388.2169 129.4325,388.0389 129.6326,387.6642 129.7775,387.3381 129.8118,386.8802 129.7425,386.4848 129.6179,386.0131 129.362,385.597 128.968,385.1325 128.5361,384.7752 128.2972,384.0159 128.3385,383.6482 129.0912,383.1899 129.907,382.9529 130.5278,382.7104 131.1708,382.2376 131.6741,381.8287 131.7358,380.9962 131.991,380.3856 132.8061,380.2533 133.3458,380.4264 133.9115,380.544 134.7541,380.1342 135.6172,379.4816 136.211,378.954 137.3227,378.0237 137.9029,377.8985 138.2964,377.9273 138.8656,373.1692 139.0416,371.6595 139.2176,370.3275 139.3897,368.4048 139.5052,367.489 139.5875,366.5732 139.6452,366.0487 139.7195,365.391 139.901,363.8924 140.0247,362.9267 140.2803,360.5207 140.5854,357.7567 140.6431,357.2155 140.7668,356.0666 140.8493,355.4838 141.1379,352.8281 141.1399,352.5513 141.1686,348.5574 141.2165,345.4939 141.3513,343.9299 142.1634,340.2012 142.8827,336.9958 143.3208,335.0142 143.5518,333.0994 143.5425,331.2762 143.4255,329.7279 143.1956,327.3872 143.1753,327.1807 143.0586,325.9736 142.8191,323.5787 142.6167,321.5534 142.3004,318.4063 142.217,317.5489 142.1685,316.9278 142.1586,316.7997 141.9419,314.7852 141.991,313.7695 142.1342,313.005 142.4735,311.9059 142.8626,311.0815 143.3512,310.3153 143.9807,309.5574 144.3534,309.0577 144.6764,308.558 144.8916,307.9419 144.999,307.3757 145.2458,304.1455 145.6576,299.6749 145.8969,297.8266 146.1535,297.1855 146.5426,296.3111 147.8343,294.0294 148.7203,292.4638 149.0513,291.4563 149.1586,290.7403 149.2491,289.4666 149.3063,288.1179 149.3967,286.7443 149.5119,285.3789 149.6387,283.6986 149.8387,283.7846 150.0864,283.8795 150.317,283.953 150.6974,284.0317 151.1572,283.9599 151.3572,283.9442 151.397,284.1517 151.6101,284.3798 151.9487,284.6152 152.3654,284.8443 152.6644,284.929 153.2949,285.0601 153.6201,284.9577 153.9871,284.779 154.3737,284.7189 154.8245,284.7075 155.6311,284.6387 155.8824,284.5566 156.1016,284.3969 156.2273,284.2837 156.3728,284.3465 156.3827,284.5754 156.6424,284.7886 156.9765,284.8945 157.1377,284.906 157.2429,284.7906 157.4187,284.8025 157.6786,285.0083 157.9982,285.1138 158.263,285.0837 158.4718,284.9194 159.1332,284.8271 159.4755,284.6495 160.2897,284.1332 161.0013,283.5227 161.9525,282.9278 162.8439,282.3775 163.4368,282.0831 164.4271,282.0397 164.8169,282.0599 165.4884,281.5494 166.03,281.2944 166.7372,281.0941 167.4184,280.7565 168.1954,280.0499 168.7944,279.4438 169.1895,279.1613 169.6092,278.7393 169.8521,278.3839 170.073,278.073 170.6471,277.0515 171.2432,276.0299 171.8615,274.9418 172.6358,273.5936 173.3894,271.7049 173.8537,270.9076 175.2283,270.0687 176.3109,269.4926 177.0089,269.3903 178.5681,269.6058 179.3189,269.7815 179.9992,269.9406 181.1523,270.6825 181.1962,271.201 181.3868,271.7528 181.5768,271.9282 181.9627,272.2847 182.5637,272.6164 182.8687,272.7747 183.1939,272.922 183.3818,273.0746 183.4655,273.2046 183.5658,273.3603 183.9849,273.6964 184.1198,273.6407 184.1818,273.5535 184.4029,273.5887 184.8244,273.851 184.9434,274.2554 185.5432,274.351 185.8176,274.385 186.1122,274.4556 186.4779,274.25 186.7967,274.0983 187.1076,274.1063 187.3172,274.0377 187.4244,273.9222 187.6636,273.8544 187.841,273.8737 188.0758,273.9537 188.2213,274.0462 188.4001,274.0212 188.4371,273.8913 188.609,273.5999 188.8172,273.5073 189.1807,273.6205 189.3451,273.7814 189.5032,273.9482 189.7966,274.0592 189.9507,273.8709 190.1048,273.7736 190.3307,273.6611 190.5277,273.5329 190.6777,273.4776 190.8771,273.749 190.9616,273.8991 191.1369,273.9923 191.3136,274.0412 191.5998,274.0966 191.7224,274.1442 191.9378,274.1116 192.0711,274.1224 192.1723,274.2138 192.361,274.1458 192.5664,273.9883 192.7046,273.8438 192.7892,273.7498 192.8974,273.6119 192.9588,273.5703 193.1824,273.5464 193.2929,273.565 193.3894,273.5813 193.4882,273.5098 193.73,273.3988 193.9252,273.3372 193.9715,273.2791 193.9233,273.1521 193.8588,273.0765 193.8318,272.987 193.8486,272.9208 193.9245,272.8709 194.1201,272.7944 194.1539,272.6783 194.1376,272.4781 194.0933,272.2253 194.0965,272.1218 194.1372,272.0044 194.2299,271.8427 194.2501,271.7112 194.2553,271.5411 194.5143,271.3329 194.6346,271.3006 194.7779,271.2301 194.8549,271.1432 195.0421,270.8518 195.3968,270.6847 195.5253,270.6139 195.6243,270.5349 195.6726,270.4176 195.656,270.2247 195.7046,270.0927 195.8049,269.9787 195.9336,269.9005 196.1391,269.7426 196.2854,269.5759 196.4452,269.4561 196.6193,269.6009 196.7889,269.6495 196.9701,269.5577 197.0605,269.4738 197.2018,269.262 197.3108,269.1229 197.545,269.0109 197.67,268.9007 197.7093,268.7517 197.6878,268.5681 197.5758,268.3508 197.3754,268.1589 197.362,267.7832 197.8658,267.1771 198.1738,266.7797 198.3289,266.2699 198.3944,266.0725 198.4586,265.8789 198.6469,265.7394 198.813,265.1259 199.0183,264.7495 199.1665,264.4804 199.2745,264.1817 199.3183,263.882 199.2981,263.7353 199.3198,263.5207 199.3919,263.4592 199.7136,263.4446 199.8195,263.338 200.0694,262.7027 200.2557,262.2354 200.3569,261.9458 200.5158,261.4917 200.6492,261.2106 200.8659,260.8214 201.055,260.5234 200.9933,260.1708 200.8965,259.5624 201.1434,259.0016 201.2751,258.775 201.4094,258.5256 201.5759,258.1114 201.8304,258.015 201.9352,257.9106 201.9199,257.6115 202.0169,257.4314 202.1148,257.2678 202.6379,257.6006 204.3657,258.7001 206.5918,260.1166 208.5449,261.3581 210.482,262.5919 213.7526,264.673 214.4534,265.119 214.4712,265.1303 215.3483,265.6884 216.1298,266.1857 217.5516,267.0904 217.5806,267.1088 219.464,268.3073 219.1894,267.0505 219.2185,266.8744 219.298,266.3927 219.3628,266.0131 219.5738,265.7319 219.9391,265.4947 220.1816,265.1558 220.1952,264.837 220.2152,264.3696 220.3806,263.3989 220.7174,262.3106 220.8542,260.8202 220.8795,258.0811 220.7985,257.1598 220.908,256.2566 221.5852,254.5836 221.9265,253.9114 222.0633,253.6419 223.1705,251.96 224.733,248.4317 225.2292,247.6476 225.2721,246.5369 225.2679,246.5117 225.1611,245.8599 225.1829,245.4492 225.2821,245.0163 225.326,244.5168 225.3247,244.0059 225.5788,243.5753 226.0803,243.4156 226.3518,243.3416 227.4667,242.9228 228.6026,242.497 229.5486,241.9905 230.0684,241.524 230.7846,240.9007 230.9271,240.6056 231.1989,240.0964 231.4994,239.631 231.8147,239.1105 232.001,238.7554 232.1332,238.4992 232.3432,238.1438 232.7221,237.6193 232.9216,237.3298 232.984,236.9872 233.0673,236.5132 233.5671,235.9758 234.0206,235.7481 234.8184,235.5446 235.0964,235.4985 235.6325,235.4547 235.9777,235.1502 236.4184,234.6098 236.6334,234.1143 236.8196,233.6853 237.0248,233.2976 237.0703,233.1824 237.1312,233.0285 237.5189,231.8865 237.7217,230.7877 237.6742,230.2557 238.0771,229.2877 237.8158,227.9192 237.683,227.1253 237.7746,226.6664 238.0505,225.5796 238.1304,225.2394 238.2009,225.0735 238.4611,224.7941 239.0766,224.5641 239.4149,224.4676 239.7351,224.3885 240.2317,224.1817 240.5908,224.033 240.8376,223.9276 241.0218,223.847 241.5436,223.6079 241.9735,223.5157 242.3578,223.5186 242.7047,223.5848 242.9449,223.5878 243.4492,223.6015 243.6287,223.5653 243.9973,223.4908 244.4438,223.4274 244.7236,223.3968 245.0843,223.4107 245.6559,223.5293 245.7887,223.5444 246.3889,223.6058 246.5361,223.5863 246.7047,223.5238 246.9786,223.3898 247.2296,223.1746 247.3713,223.0389 247.482,222.8276 247.5453,222.7764 247.6197,222.7889 247.6705,222.9655 247.7645,223.1111 248.0035,223.0976 248.1034,223.1207 248.2351,223.1206 248.3932,223.0941 248.4853,223.0015 248.5115,222.79 248.6015,222.6124 248.6639,222.4474 248.829,222.3409 249.1208,222.228 249.5448,221.913 249.9759,221.7908 250.3595,221.5809 250.7097,221.4226 251.1168,221.1929 251.2952,221.0867 251.4137,220.9072 251.4928,220.6448 251.6343,220.4697 251.8439,220.3633 251.9675,220.3005 252.5415,220.1482 253.1204,219.9982 253.4141,219.932 253.4663,219.9231 253.6973,219.8837 253.7786,219.8522 253.858,219.8215 254.1214,219.6847 254.3824,219.5745 254.5539,219.4521 255.6804,218.902 255.8496,218.7354 256.1046,218.5079 256.3815,218.3265 256.8449,218.1092 257.1477,217.8533 257.4675,217.7281 257.8735,217.3935 258.4269,216.8342 258.613,216.582 258.7233,216.3886 258.9088,216.0139 258.9864,215.8976 259.1479,215.6556 259.4519,214.5096 259.5126,213.9756 259.6778,213.5728 259.7049,213.3121 259.8373,213.1088 259.9189,212.981 260.0547,212.6088 260.0546,212.4312 260.0964,212.0968 260.1337,211.97 260.1463,211.7812 260.188,211.5845 260.267,211.4539 260.4464,210.9483 260.4616,210.3528 260.5114,210.2338 260.51,210.1081 260.4556,210.0163 260.4401,209.9426 260.4388,209.8206 260.474,209.7259 260.6152,209.3763 260.6147,209.0768 260.6635,208.8701 260.7322,208.7088 261.1069,208.1808 261.2326,207.9958 261.2452,207.8176 261.2197,207.6076 261.1164,207.326 261.0483,206.9693 261.0689,206.4552 261.1365,206.1373 261.0697,205.6888 260.9824,205.4527 260.7728,205.186 260.6955,205.002 260.7059,204.6436 260.7761,204.3096 260.9083,203.8464 260.9349,203.5626 260.9746,203.2324 260.9381,202.9344 260.8996,202.7628 260.7864,202.5999 260.5678,201.9857 260.3789,201.6854 260.0999,201.3632 259.9422,201.0774 259.8571,200.7003 259.8671,200.3837 259.7696,199.7501 259.7225,199.509 259.6753,199.2674 259.5757,198.9622 259.6085,198.5182 259.7796,198.2794 259.9673,198.0018 260.1052,197.7076 260.2045,197.3745 260.3148,197.0858 260.4804,196.9081 260.7842,196.7803 261.0797,196.7102 261.3807,196.4413 261.4579,196.1416 261.3527,195.8753 261.0545,195.6284 260.7226,195.5816 260.3523,195.4098 260.3447,194.902 260.2972,194.604 260.3053,194.4053 260.3653,194.194 260.2412,193.9128 259.8711,193.7022 259.2133,193.3906 259.0467,193.2063 258.9373,192.9395 258.9491,192.696 259.4334,192.0615 259.5643,191.9049 259.768,191.5431 259.8687,191.4448 260.0764,191.4219 260.5792,191.418 260.7429,191.3741 260.7854,191.2773 260.667,191.111 260.1153,191.0378 259.3939,191.0281 259.3243,190.9782 259.237,190.7989 259.311,190.6995 259.4335,190.6202 259.4706,190.4955 259.7333,190.2133 260.2892,189.7735 260.3748,189.6312 260.3586,189.5063 260.2121,189.4218 260.0041,189.4004 259.8691,189.3993 259.7536,189.4687 259.6074,189.7771 259.5493,189.786 259.4136,189.7479 259.2941,189.4639 259.156,189.2196 259.0531,189.1193 258.9171,189.0591 258.5153,189.0453 258.3846,189.0562 258.1129,188.9872 257.9032,188.8553 257.7265,188.6392 257.6189,188.5413 257.2021,188.5205 256.8762,188.3991 256.6946,188.178 256.6913,187.8614 256.8041,187.556 257.052,187.2006 257.1652,187.0764 257.3296,186.8961 257.9588,186.3975 258.1135,186.1312 258.1903,185.8569 257.9691,185.4616 257.622,184.9027 257.1905,184.1371 256.8252,183.2217 256.7085,182.3393 256.5916,181.0158 256.417,180.1668 256.2175,179.3012 255.9352,178.6021 255.5204,177.9863 254.9566,177.6204 254.3597,177.4127 253.8128,177.4964 253.4483,177.8296 253.2332,178.3292 252.985,179.0037 252.7201,179.4534 252.1401,179.7368 251.5433,179.5541 251.1036,178.9467 250.7134,177.948 250.3484,177.4488 249.9917,176.9412 249.8089,176.2337 250.3303,175.1179 251.3154,173.5189 251.7704,172.1783 251.7116,171.0212 251.3216,170.3222 250.9483,169.7896 250.3258,168.3998 250.1813,167.4679 250.3909,166.6766 250.4985,166.4184 250.8739,165.9797 251.4567,165.3126 251.5143,165.2467 251.7582,164.9106 251.7711,164.8928 252.1105,164.425 252.4637,163.8475 252.8166,162.8483 252.9487,162.0047 253.2135,161.4495 253.6769,160.3614 253.9857,159.4511 254.4494,158.8736 255.1562,158.2737 255.1756,157.6229 254.9203,156.859 254.0786,155.9931 253.4691,155.7804 252.8829,155.258 252.5899,154.7557 252.5778,154.138 252.74,153.7353 252.8821,153.3827 252.9022,153.3326 253.0421,153.0276 253.5828,151.9657 253.5887,151.9542 255.3591,149.9949 257.7264,149.4326 258.2006,149.5196 260.0509,150.6012 261.1708,150.774 261.7725,150.6012 262.2038,150.1248 262.311,149.7138 262.4182,149.3028 264.054,147.529 264.4838,147.4215 264.9143,147.3122 266.052,147.9127 267.6864,148.9522 268.444,149.6321 269.0022,150.152 269.1621,150.7524 269.1227,151.4728 269.0434,151.9931 268.8545,152.7912 268.9312,152.9845 269.6762,153.6456 270.6215,154.2586 271.7102,155.2836 272.3691,155.8588 273.1389,156.1771 273.7153,156.3183 274.234,155.9981 274.2681,155.416 274.1913,154.7641 273.8759,154.0671 273.5986,153.3457 273.6208,153.0495 273.7587,152.7222 274.5564,152.8944 275.4866,153.9566 276.7538,156.3512 279.5179,160.722 280.4323,162.5089 281.501,164.1165 282.7,165.9204 284.2668,168.9817 284.5198,169.3537 285.0322,170.1072 288.5484,175.4861 289.4532,176.8667 292.2969,180.8978 292.4779,181.1728 296.1688,186.7778 296.3225,187.0159 296.6065,187.456 301.4387,194.9435 302.7902,197.0377 304.1342,199.1202 307.288,203.6501 311.1645,209.218 321.759,223.4903 321.8059,223.5535 324.6629,226.552 325.3727,227.2969 325.5172,227.48 327.8892,230.486 328.1959,230.843 331.5116,234.701 333.5685,236.7427 333.9248,237.0964 335.7428,239.0339 337.8736,241.335 338.2073,241.6968 338.4486,241.9675 338.772,242.3303 339.2531,242.87 339.8066,243.4909 339.8109,243.4949 340.2197,243.8763 340.3555,244.0029 340.9955,244.5999 341.0013,244.6038 341.9353,245.2374 343.0683,246.6153 343.2351,246.818 346.2766,250.0067 348.6822,252.5299 351.5579,255.5245 355.1245,258.796 356.2458,259.8342 358.1495,261.5969 360.9028,263.8416 361.041,263.956 361.1413,264.0623 362.3911,265.0728 365.2797,267.4626 366.7828,268.6289 367.1508,268.9144 367.3208,269.0463 367.9433,269.5293 368.0081,269.5797 368.0237,269.593 368.0643,269.6277 368.9267,270.3653 369.1543,270.5599 370.2309,271.4808 370.2578,271.4988 373.8626,273.9258 374.9309,274.6451 377.4781,276.327 378.6605,277.1078 378.7272,277.1518 381.1112,278.7259 382.0901,279.3723 383.9585,280.7214 385.5341,281.5803 386.3081,282.1069 386.9436,282.0786 386.9571,282.0833 386.9707,282.0881 387.4963,282.2724 387.5627,282.5382 387.6349,282.8272 388.6573,283.0483 390.1774,283.6575 393.3839,285.4862 394.5522,286.0698 394.837,286.2326 396.8697,287.2453 398.0702,287.8433 398.7472,288.2635 399.5336,288.5377 400.5894,288.9058 400.7966,288.9777 401.3716,289.1422 401.8138,289.3083 403.0772,289.5513 404.1238,289.8431 404.6069,289.984 405.9758,290.3286 406.4287,290.3588 408.2523,290.4682 409.1084,289.9957 409.6287,288.7462 410.3029,288.2732 410.8765,288.3135 411.6816,288.6355 412.4062,288.7261 412.9094,288.6858 413.9158,288.6959 414.1975,288.8871 414.7209,289.0481 415.2744,289.0984 415.5662,288.9072 416.17,288.8871 416.9349,289.0984 417.5185,289.4507 417.8808,289.8834 419.1387,291.319 419.4155,291.4576 419.581,291.5406 419.9769,291.4341 419.9953,291.4292 420.3821,291.3734 420.4448,291.3853 420.9623,291.4839 421.8239,291.9052 422.5268,292.2988 423.2017,292.9034 424.3967,294.6608 425.2731,296.1241 426.0068,297.0431 426.1642,297.2513 426.6202,297.9093 427.932,299.8022 429.3427,301.5768 430.0891,302.0756 430.9467,303.3513 434.7082,307.8153 437.5005,310.8547 438.3591,312.1963 442.3008,317.7516 442.3814,317.8514 442.3994,317.8425 442.6293,318.158 443.1449,318.796 448.0989,324.7122 450.1554,327.378 451.1467,328.5725 453.1577,330.996 454.9379,333.5637 457.0248,336.2437 458.0812,337.7868 458.6907,338.6771 459.6311,339.7584 460.4499,340.6589 460.7947,341.0381 463.1714,343.7508 464.5905,345.379 466.131,347.2998 466.7952,348.3813 467.4913,349.3508 469.4326,351.5617 470.1444,352.5513 470.3359,352.8176 471.2251,354.2236 471.9957,354.9527 473.0747,356.45 474.1413,357.6061 475.4537,359.4168 476.7256,360.5809 476.8643,360.9971 478.4043,362.8125 478.994,363.2981 479.3119,364.033 479.354,364.1302 480.3216,364.712 480.6767,365.3358 480.3115,365.2505 479.9108,365.4584 479.8018,365.9437 479.5675,366.2348 479.1675,366.1936 478.8224,365.9307 478.753,365.5152 478.5735,365.3215 478.2563,365.4187 478.1742,366.056 477.7883,366.4443 477.0713,366.7497 476.1408,366.6758 475.4611,366.768 475.536,367.0176 475.7854,367.8415 476.08,368.8009 476.4945,369.4654 476.854,370.3794 476.9925,370.9472 476.4683,371.1789 476.4724,371.536 476.8502,371.8695 477.2316,371.9357 477.3976,372.1353 477.3251,372.5815 476.8703,373.0529 476.2082,373.0951 475.7943,373.054 475.4336,372.7948 475.0771,372.6953 474.6768,372.8334 474.0911,373.1374 473.594,373.3543 473.2401,373.6298 472.689,374.3645 472.5408,374.6797 472.6671,374.9701 473.0098,375.1345 473.2447,375.4379 473.1404,375.877 472.9335,376.3495 472.8346,376.8096 472.7191,377.3758 472.4295,378.0004 471.9991,378.6001 472.0079,379.1662 472.2925,379.6098 472.2156,379.8025 472.0085,379.8488 471.2708,379.8828 470.9592,380.1927 470.8238,380.5658 470.4844,381.0073 470.2195,381.3905 470.7955,382.1738 471.293,383.1569 471.018,384.0715 470.2458,384.3908 469.045,384.2218 468.1166,383.9762 467.6351,383.4074 467.1208,382.975 466.1182,383.4088 465.4702,383.4458 464.7836,383.485 464.3194,383.5891 463.839,383.8355 462.9437,383.7697 462.6702,383.8865 462.339,384.4074 462.3187,384.7926 462.7033,385.03 462.7737,385.354 462.4836,385.7009 462.4948,386.0327 462.3469,386.3493 462.6196,386.7807 462.3993,387.2103 462.1099,387.4738 461.8614,387.6499 461.448,387.7238 461.1584,387.8903 460.8824,387.7797 460.5801,387.3083 460.296,386.9542 460.0368,387.0516 459.8895,387.2336 459.7235,387.573 459.4747,387.5796 459.1025,387.3242 458.5232,387.3386 457.9751,387.4812 457.6436,387.6092 457.3502,388.0764 457.0458,388.2704 456.3413,388.3793 455.6396,388.5742 455.2954,388.4456 454.841,388.8215 454.4793,389.3387 453.8246,389.4788 453.5536,389.5344 453.2104,389.9026 452.6892,390.0081 451.8619,389.9314 450.8868,389.9849 450.1666,389.9361 449.6107,389.8163 448.9334,389.7871 448.2562,389.991 447.8047,390.0218 447.4752,389.9305 446.7554,389.8879 445.9225,390.2996 445.622,390.1262 445.2114,390.0745 444.931,389.982 444.5817,389.8517 444.1882,389.7354 443.6778,389.6024 443.1065,389.4263 442.6681,389.3604 442.2144,389.3236 441.9087,389.2162 441.631,389.175 441.2786,389.2057 440.8809,389.3014 440.5738,389.4409 440.2344,389.5522 439.8105,389.494 439.2407,389.404 438.713,389.4026 438.4622,389.4788 438.2717,389.4756 437.9649,389.2309 437.854,388.9368 437.768,388.652 437.6555,388.4309 437.481,388.3623 437.3052,388.3594 437.1427,388.4152 436.9503,388.4997 436.661,388.5532 436.3921,388.5489 436.2029,388.4873 436.1161,388.4348 436.0298,388.3603 435.7967,388.2981 435.606,388.3022 435.2813,388.3991 435.0286,388.5483 434.6194,388.4904 434.2268,388.3525 433.7735,388.0837 433.5884,387.8545 433.4986,387.7157 433.0908,387.5995 432.7995,387.5218 432.4327,387.5304 432.0682,387.4516 431.717,387.424 431.6611,387.3137 431.3928,387.2668 430.8942,387.266 430.6203,387.3114 430.1906,387.4866 430.0113,387.6149 429.999,387.7519 429.9932,387.9779 429.8896,388.2446 429.6215,388.4079 429.3409,388.4835 429.1796,388.4808 428.8502,388.5548 428.6718,388.5527 428.3892,388.5462 428.1664,388.5528 427.8574,388.636 427.6529,388.7382 427.3731,388.8057 426.8241,388.8219 426.7758,388.7123 426.7137,388.6328 426.533,388.5567 426.2331,388.4694 425.9196,388.4121 425.489,388.4026 424.991,388.4192 424.7535,388.4114 424.3517,388.3642 423.7966,388.1663 423.332,388.0101 423.0707,387.9403 422.9585,387.9104 422.3414,387.7646 421.907,387.6077 421.6822,387.5185 421.3972,387.3941 421.1583,387.3275 420.8614,387.2921 420.6104,387.2997 420.5525,387.3384 420.4967,387.4434 420.4104,387.5198 420.3073,387.6114 420.1634,387.6527 420.0403,387.6474 419.9348,387.5842 419.798,387.4629 419.5123,387.3091 419.2587,387.2283 419.0025,387.0663 418.8165,386.7843 418.6862,386.4047 418.5295,386.1144 418.4459,385.8072 418.3169,385.4645 418.1457,385.1821 417.7998,384.9716 417.41,384.7698 417.0765,384.4779 416.859,384.2553 416.4241,384.0109 416.3645,383.9906 416.0815,383.889 415.6945,383.761 415.1898,383.6295 414.7295,383.504 414.5013,383.3779 414.2304,383.1802 414.092,382.9857 413.8812,382.8304 413.658,382.749 413.23,382.6963 412.9647,382.6752 412.3892,382.6051 412.1525,382.5537 411.8137,382.5276 411.5357,382.5659 411.2464,382.7149 411.0324,382.9204 410.6707,383.101 410.2343,383.2399 409.9004,383.3681 409.5813,383.4958 409.0305,383.7264 408.6509,383.7898 408.2708,383.8385 407.96,383.8182 407.532,383.7288 407.1016,383.5585 406.922,383.4392 406.6665,383.2341 406.4712,383.0786 406.2747,382.9374 406.0526,382.8636 405.8902,382.8246 405.5667,382.7834 405.3159,382.7252 405.154,382.701 404.8625,382.747 404.6018,382.8434 404.4722,382.9136 404.3131,383.021 404.1842,383.1131 404.1257,383.115 404.0224,383.0889 403.9331,383.0403 403.772,383.0381 403.6989,383.0404 403.6252,383.0207 403.492,382.9735 403.3595,382.9483 403.1828,382.9099 402.9897,382.8495 402.6959,382.8074 402.5052,382.7914 402.3445,382.7965 402.2715,382.7988 402.1674,382.7434 402.035,382.7183 401.9328,382.7215 401.7878,382.7628 401.5854,382.8352 401.4984,382.86 401.4101,382.8408 401.3501,382.7913 401.1977,382.5907 401.1083,382.5349 400.8283,382.4774 400.5493,382.4349 400.3582,382.397 400.2104,382.343 400.1221,382.3238 399.9746,382.2771 399.8266,382.2158 399.8215,382.0546 399.8621,381.9506 399.9759,381.8516 400.0287,381.681 400.1089,381.4437 400.1326,381.2669 400.1095,381.1012 399.9744,380.8904 399.8556,380.8282 399.7364,380.7513 399.6901,380.6721 399.6704,380.5113 399.5931,380.3744 399.278,380.1132 399.0958,379.8916 399.0178,379.7327 399.0109,379.5128 398.9638,379.4119 398.7874,379.3736 398.6237,379.2762 398.5133,379.0156 398.3908,378.8366 398.2001,378.8061 398.0522,378.7449 398.0034,378.585 397.8515,378.3992 397.5973,378.2026 397.244,378.104 397.0543,378.1028 396.8194,378.0591 396.6003,378.0375 396.2795,378.0406 396.1455,377.9569 395.9239,377.8688 395.6281,377.739 395.4795,377.6346 395.1429,377.5942 394.8619,377.4713 394.6073,377.2384 394.1048,377.0274 393.7647,376.8487 393.4508,376.6096 393.171,376.4877 392.9904,376.3103 392.9409,376.1358 392.9767,375.8645 392.8557,375.6936 392.575,375.5354 392.4241,375.379 392.2161,375.2537 391.9209,375.0961 391.7575,374.9987 391.5941,374.9014 391.427,374.8372 391.3512,374.8081 391.1995,374.813 391.0672,374.7734 390.992,374.7025 390.8461,374.6926 390.7152,374.6968 390.5555,374.6595 390.3653,374.6291 390.2219,374.6924 390.0926,374.7406 389.9468,374.7307 389.7861,374.714 389.6403,374.7041 389.5245,374.7225 389.435,374.6594 389.3185,374.5987 389.1997,374.5268 389.0513,374.4462 388.8594,374.3645 388.7437,374.3258 388.6565,374.3287 388.4822,374.3343 388.3076,374.3327 388.2039,374.2774 388.1432,374.2061 388.0991,374.1929 388.042,374.2241 387.9436,374.3226 387.844,374.3845 387.6547,374.376 387.4939,374.2875 387.458,374.2709 387.3757,374.2327 387.357,374.1161 387.4369,373.9082 387.4053,373.7716 387.0972,373.6937 386.5414,373.4588 386.3519,373.3715 386.0136,373.2579 385.7793,373.1355 385.2495,372.9476 384.8098,372.7659 384.3284,372.6296 383.8154,372.4212 383.6079,372.3106 383.5192,372.2696 383.3897,372.3031 383.303,372.3132 383.2037,372.2892 383.0824,372.1539 382.96,371.9893 382.8444,371.9146 382.5685,371.9162 382.4123,372.0092 382.327,372.056 382.1814,372.046 382.0771,371.9761 381.8883,371.8818 381.594,371.9218 381.357,371.9379 381.1822,371.9216 381.02,371.7605 380.8796,371.5086 380.7126,371.2232 380.5816,371.2128 380.4807,371.2307 380.3119,371.3681 380.1983,371.4304 379.9252,371.4978 379.3816,371.5485 378.9945,371.499 378.9429,371.2925 378.8656,371.0383 378.7046,370.8228 378.348,370.6067 377.8798,370.5603 377.6837,370.5117 377.4662,370.435 377.3944,370.2163 377.1787,370.0583 377.0968,369.8434 376.8943,369.6515 376.6848,369.6253 376.4866,369.6827 376.2871,369.8022 375.2453,372.4559 375.4224,372.7387 375.773,373.2721 375.9942,373.6279 376.3273,374.1661 376.4657,374.3802 376.2548,374.8034 375.9587,375.3208 375.729,375.7326 375.3375,376.5308 375.0641,377.2285 374.9053,377.8065 374.5208,378.1466 373.9058,378.2433 373.3493,378.2818 372.9329,378.4096 372.5091,378.7865 372.1811,379.2561 371.9311,379.8375 371.6812,380.1422 371.4637,380.4537 371.0895,380.9185 370.3026,379.6806 370.2206,379.5516 369.8615,379.0459 369.687,379.1819 369.5916,379.159 369.48,379.0996 369.4028,379.0475 369.2686,378.9753 369.1319,378.9031 368.9875,378.8271 368.8193,378.7511 368.5743,378.6204 368.3668,378.5276 368.1819,378.4372 368.0671,378.3888 367.983,378.3517 367.8809,378.3122 367.8128,378.3082 367.6784,378.3163 367.5132,378.3324 367.4073,378.3647 367.37,378.3803 367.4032,379.0432 367.4197,379.8189 367.4352,380.258 367.4379,380.6726 367.4543,380.9592 367.4728,381.3998 367.5021,381.9301 367.4882,382.2013 367.4452,383.0369 367.46,383.8536 367.5069,385.5886 367.5658,387.9368 367.5963,388.6951 367.6229,389.842 367.6641,391.2662 367.7093,392.7466 367.6938,392.7498 367.0942,392.8754 366.7,392.9514 366.3613,393.0167 365.6514,393.149 365.1225,393.205 364.8822,393.2098 364.4565,393.2183 363.9507,393.1344 363.9351,393.0618 363.8233,392.9503 363.5887,392.9197 362.5264,392.9043 361.8572,392.9058 361.6728,392.6478 361.4102,392.2927 361.0931,391.8726 360.7766,391.4814 360.7173,391.3655 360.6944,391.254 360.9092,389.4619 360.8817,389.3101 361.0098,388.2208 361.0851,387.459 361.1579,386.845 361.0951,386.7626 360.9952,386.8029 360.2518,387.2475 359.9194,387.4577 359.403,387.8243 358.9485,388.138 358.5686,388.4101 358.2493,388.6274 357.8197,388.9186 357.2464,389.3003 356.8673,389.5698 356.2016,390.0427 355.8204,390.2969 355.2679,390.6835 354.7259,391.027 354.2058,391.3975 353.6636,391.7811 353.2055,392.034 352.8717,392.1535 352.6275,392.194 352.0388,392.2639 351.2664,392.4216 350.6063,392.5187 350.2023,392.5807 349.9665,392.6716 349.7415,392.849 349.4646,393.166 349.2429,393.5009 348.9618,394.0258 348.5375,394.7961 348.1855,395.408 347.8045,396.1248 347.5575,396.5508 347.1777,397.1828 346.8743,397.5914 346.6364,397.8377 346.3657,398.055 345.8714,398.4035 345.3867,398.6882 344.5313,399.3345 343.995,399.7637 343.6686,400.0884 343.3001,400.5234 343.0091,400.8547 342.691,401.2064 342.5788,401.3582 342.555,401.3983 342.4954,401.4733 342.4655,401.5172 342.5331,401.6324 342.6824,401.8014 342.8142,401.9528 342.9536,402.1181 343.0625,402.2853 343.1148,402.3768 343.1807,402.4655 343.2505,402.5562 343.3583,402.6983 343.5015,402.8748 340.5517,410.1518 334.1765,411.8202 332.8307,413.0171 332.2155,413.5642 310.2722,433.0791 307.6791,447.9981 305.4097,446.9356 304.5608,446.5158 304.0432,446.1942 300.9087,443.2065 299.7426,442.4526 298.6601,441.878 296.0427,440.5434 292.9801,438.9669 292.0553,438.5775 291.6438,438.527 291.272,438.5375 290.3813,438.7127" stroke="black" /><polygon fill="none" points="240.9174,134.7571 242.4539,135.5617 243.1182,135.9095 243.3674,136.0404 247.6515,138.2811 247.7772,138.3457 249.056,139.0159 257.7561,143.5674 264.08,146.8758 264.9143,147.3122 264.4838,147.4215 264.054,147.529 262.4182,149.3028 262.311,149.7138 262.2038,150.1248 261.7725,150.6012 261.1708,150.774 260.0509,150.6012 258.2006,149.5196 257.7264,149.4326 255.3591,149.9949 253.5887,151.9542 253.5828,151.9657 253.0421,153.0276 252.9022,153.3326 252.8821,153.3827 252.74,153.7353 252.5778,154.138 252.5899,154.7557 252.8829,155.258 253.4691,155.7804 254.0786,155.9931 254.9203,156.859 255.1756,157.6229 255.1562,158.2737 254.4494,158.8736 253.9857,159.4511 253.6769,160.3614 253.2135,161.4495 252.9487,162.0047 252.8166,162.8483 252.4637,163.8475 252.1105,164.425 251.7711,164.8928 251.7582,164.9106 251.5143,165.2467 251.4567,165.3126 250.8739,165.9797 250.4985,166.4184 250.3909,166.6766 250.1813,167.4679 250.3258,168.3998 250.9483,169.7896 251.3216,170.3222 251.7116,171.0212 251.7704,172.1783 251.3154,173.5189 250.3303,175.1179 249.8089,176.2337 249.9917,176.9412 250.3484,177.4488 250.7134,177.948 251.1036,178.9467 251.5433,179.5541 252.1401,179.7368 252.7201,179.4534 252.985,179.0037 253.2332,178.3292 253.4483,177.8296 253.8128,177.4964 254.3597,177.4127 254.9566,177.6204 255.5204,177.9863 255.9352,178.6021 256.2175,179.3012 256.417,180.1668 256.5916,181.0158 256.7085,182.3393 256.8252,183.2217 257.1905,184.1371 257.622,184.9027 257.9691,185.4616 258.1903,185.8569 258.1135,186.1312 257.9588,186.3975 257.3296,186.8961 257.1652,187.0764 257.052,187.2006 256.8041,187.556 256.6913,187.8614 256.6946,188.178 256.8762,188.3991 257.2021,188.5205 257.6189,188.5413 257.7265,188.6392 257.9032,188.8553 258.1129,188.9872 258.3846,189.0562 258.5153,189.0453 258.9171,189.0591 259.0531,189.1193 259.156,189.2196 259.2941,189.4639 259.4136,189.7479 259.5493,189.786 259.6074,189.7771 259.7536,189.4687 259.8691,189.3993 260.0041,189.4004 260.2121,189.4218 260.3586,189.5063 260.3748,189.6312 260.2892,189.7735 259.7333,190.2133 259.4706,190.4955 259.4335,190.6202 259.311,190.6995 259.237,190.7989 259.3243,190.9782 259.3939,191.0281 260.1153,191.0378 260.667,191.111 260.7854,191.2773 260.7429,191.3741 260.5792,191.418 260.0764,191.4219 259.8687,191.4448 259.768,191.5431 259.5643,191.9049 259.4334,192.0615 258.9491,192.696 258.9373,192.9395 259.0467,193.2063 259.2133,193.3906 259.8711,193.7022 260.2412,193.9128 260.3653,194.194 260.3053,194.4053 260.2972,194.604 260.3447,194.902 260.3523,195.4098 260.7226,195.5816 261.0545,195.6284 261.3527,195.8753 261.4579,196.1416 261.3807,196.4413 261.0797,196.7102 260.7842,196.7803 260.4804,196.9081 260.3148,197.0858 260.2045,197.3745 260.1052,197.7076 259.9673,198.0018 259.7796,198.2794 259.6085,198.5182 259.5757,198.9622 259.6753,199.2674 259.7225,199.509 259.7696,199.7501 259.8671,200.3837 259.8571,200.7003 259.9422,201.0774 260.0999,201.3632 260.3789,201.6854 260.5678,201.9857 260.7864,202.5999 260.8996,202.7628 260.9381,202.9344 260.9746,203.2324 260.9349,203.5626 260.9083,203.8464 260.7761,204.3096 260.7059,204.6436 260.6955,205.002 260.7728,205.186 260.9824,205.4527 261.0697,205.6888 261.1365,206.1373 261.0689,206.4552 261.0483,206.9693 261.1164,207.326 261.2197,207.6076 261.2452,207.8176 261.2326,207.9958 261.1069,208.1808 260.7322,208.7088 260.6635,208.8701 260.6147,209.0768 260.6152,209.3763 260.474,209.7259 260.4388,209.8206 260.4401,209.9426 260.4556,210.0163 260.51,210.1081 260.5114,210.2338 260.4616,210.3528 260.4464,210.9483 260.267,211.4539 260.188,211.5845 260.1463,211.7812 260.1337,211.97 260.0964,212.0968 260.0546,212.4312 260.0547,212.6088 259.9189,212.981 259.8373,213.1088 259.7049,213.3121 259.6778,213.5728 259.5126,213.9756 259.4519,214.5096 259.1479,215.6556 258.9864,215.8976 258.9088,216.0139 258.7233,216.3886 258.613,216.582 258.4269,216.8342 257.8735,217.3935 257.4675,217.7281 257.1477,217.8533 256.8449,218.1092 256.3815,218.3265 256.1046,218.5079 255.8496,218.7354 255.6804,218.902 254.5539,219.4521 254.3824,219.5745 254.1214,219.6847 253.858,219.8215 253.7786,219.8522 253.6973,219.8837 253.4663,219.9231 253.4141,219.932 253.1204,219.9982 252.5415,220.1482 251.9675,220.3005 251.8439,220.3633 251.6343,220.4697 251.4928,220.6448 251.4137,220.9072 251.2952,221.0867 251.1168,221.1929 250.7097,221.4226 250.3595,221.5809 249.9759,221.7908 249.5448,221.913 249.1208,222.228 248.829,222.3409 248.6639,222.4474 248.6015,222.6124 248.5115,222.79 248.4853,223.0015 248.3932,223.0941 248.2351,223.1206 248.1034,223.1207 248.0035,223.0976 247.7645,223.1111 247.6705,222.9655 247.6197,222.7889 247.5453,222.7764 247.482,222.8276 247.3713,223.0389 247.2296,223.1746 246.9786,223.3898 246.7047,223.5238 246.5361,223.5863 246.3889,223.6058 245.7887,223.5444 245.6559,223.5293 245.0843,223.4107 244.7236,223.3968 244.4438,223.4274 243.9973,223.4908 243.6287,223.5653 243.4492,223.6015 242.9449,223.5878 242.7047,223.5848 242.3578,223.5186 241.9735,223.5157 241.5436,223.6079 241.0218,223.847 240.8376,223.9276 240.5908,224.033 240.2317,224.1817 239.7351,224.3885 239.4149,224.4676 239.0766,224.5641 238.4611,224.7941 238.2009,225.0735 238.1304,225.2394 238.0505,225.5796 237.7746,226.6664 237.683,227.1253 237.8158,227.9192 238.0771,229.2877 237.6742,230.2557 237.7217,230.7877 237.5189,231.8865 237.1312,233.0285 237.0703,233.1824 237.0248,233.2976 236.8196,233.6853 236.6334,234.1143 236.4184,234.6098 235.9777,235.1502 235.6325,235.4547 235.0964,235.4985 234.8184,235.5446 234.0206,235.7481 233.5671,235.9758 233.0673,236.5132 232.984,236.9872 232.9216,237.3298 232.7221,237.6193 232.3432,238.1438 232.1332,238.4992 232.001,238.7554 231.8147,239.1105 231.4994,239.631 231.1989,240.0964 230.9271,240.6056 230.7846,240.9007 230.0684,241.524 229.5486,241.9905 228.6026,242.497 227.4667,242.9228 226.3518,243.3416 226.0803,243.4156 225.5788,243.5753 225.3247,244.0059 225.326,244.5168 225.2821,245.0163 225.1829,245.4492 225.1611,245.8599 225.2679,246.5117 225.2721,246.5369 225.2292,247.6476 224.733,248.4317 223.1705,251.96 222.0633,253.6419 221.9265,253.9114 221.5852,254.5836 220.908,256.2566 220.7985,257.1598 220.8795,258.0811 220.8542,260.8202 220.7174,262.3106 220.3806,263.3989 220.2152,264.3696 220.1952,264.837 220.1816,265.1558 219.9391,265.4947 219.5738,265.7319 219.3628,266.0131 219.298,266.3927 219.2185,266.8744 219.1894,267.0505 219.464,268.3073 217.5806,267.1088 217.5516,267.0904 216.1298,266.1857 215.3483,265.6884 214.4712,265.1303 214.4534,265.119 213.7526,264.673 210.482,262.5919 208.5449,261.3581 206.5918,260.1166 204.3657,258.7001 202.6379,257.6006 202.1148,257.2678 202.0169,257.4314 201.9199,257.6115 201.9352,257.9106 201.8304,258.015 201.5759,258.1114 201.4094,258.5256 201.2751,258.775 201.1434,259.0016 200.8965,259.5624 200.9933,260.1708 201.055,260.5234 200.8659,260.8214 200.6492,261.2106 200.5158,261.4917 200.3569,261.9458 200.2557,262.2354 200.0694,262.7027 199.8195,263.338 199.7136,263.4446 199.3919,263.4592 199.3198,263.5207 199.2981,263.7353 199.3183,263.882 199.2745,264.1817 199.1665,264.4804 199.0183,264.7495 198.813,265.1259 198.6469,265.7394 198.4586,265.8789 198.3944,266.0725 198.3289,266.2699 198.1738,266.7797 197.8658,267.1771 197.362,267.7832 197.3754,268.1589 197.5758,268.3508 197.6878,268.5681 197.7093,268.7517 197.67,268.9007 197.545,269.0109 197.3108,269.1229 197.2018,269.262 197.0605,269.4738 196.9701,269.5577 196.7889,269.6495 196.6193,269.6009 196.4452,269.4561 196.2854,269.5759 196.1391,269.7426 195.9336,269.9005 195.8049,269.9787 195.7046,270.0927 195.656,270.2247 195.6726,270.4176 195.6243,270.5349 195.5253,270.6139 195.3968,270.6847 195.0421,270.8518 194.8549,271.1432 194.7779,271.2301 194.6346,271.3006 194.5143,271.3329 194.2553,271.5411 194.2501,271.7112 194.2299,271.8427 194.1372,272.0044 194.0965,272.1218 194.0933,272.2253 194.1376,272.4781 194.1539,272.6783 194.1201,272.7944 193.9245,272.8709 193.8486,272.9208 193.8318,272.987 193.8588,273.0765 193.9233,273.1521 193.9715,273.2791 193.9252,273.3372 193.73,273.3988 193.4882,273.5098 193.3894,273.5813 193.2929,273.565 193.1824,273.5464 192.9588,273.5703 192.8974,273.6119 192.7892,273.7498 192.7046,273.8438 192.5664,273.9883 192.361,274.1458 192.1723,274.2138 192.0711,274.1224 191.9378,274.1116 191.7224,274.1442 191.5998,274.0966 191.3136,274.0412 191.1369,273.9923 190.9616,273.8991 190.8771,273.749 190.6777,273.4776 190.5277,273.5329 190.3307,273.6611 190.1048,273.7736 189.9507,273.8709 189.7966,274.0592 189.5032,273.9482 189.3451,273.7814 189.1807,273.6205 188.8172,273.5073 188.609,273.5999 188.4371,273.8913 188.4001,274.0212 188.2213,274.0462 188.0758,273.9537 187.841,273.8737 187.6636,273.8544 187.4244,273.9222 187.3172,274.0377 187.1076,274.1063 186.7967,274.0983 186.4779,274.25 186.1122,274.4556 185.8176,274.385 185.5432,274.351 184.9434,274.2554 184.8244,273.851 184.4029,273.5887 184.1818,273.5535 184.1198,273.6407 183.9849,273.6964 183.5658,273.3603 183.4655,273.2046 183.3818,273.0746 183.1939,272.922 182.8687,272.7747 182.5637,272.6164 181.9627,272.2847 181.5768,271.9282 181.3868,271.7528 181.1962,271.201 181.1523,270.6825 179.9992,269.9406 179.3189,269.7815 178.5681,269.6058 177.0089,269.3903 176.3109,269.4926 175.2283,270.0687 173.8537,270.9076 173.3894,271.7049 172.6358,273.5936 171.8615,274.9418 171.2432,276.0299 170.6471,277.0515 170.073,278.073 169.8521,278.3839 169.6092,278.7393 169.1895,279.1613 168.7944,279.4438 168.1954,280.0499 167.4184,280.7565 166.7372,281.0941 166.03,281.2944 165.4884,281.5494 164.8169,282.0599 164.4271,282.0397 163.4368,282.0831 162.8439,282.3775 161.9525,282.9278 161.0013,283.5227 160.2897,284.1332 159.4755,284.6495 159.1332,284.8271 158.4718,284.9194 158.263,285.0837 157.9982,285.1138 157.6786,285.0083 157.4187,284.8025 157.2429,284.7906 157.1377,284.906 156.9765,284.8945 156.6424,284.7886 156.3827,284.5754 156.3728,284.3465 156.2273,284.2837 156.1016,284.3969 155.8824,284.5566 155.6311,284.6387 154.8245,284.7075 154.3737,284.7189 153.9871,284.779 153.6201,284.9577 153.2949,285.0601 152.6644,284.929 152.3654,284.8443 151.9487,284.6152 151.6101,284.3798 151.397,284.1517 151.3572,283.9442 151.1572,283.9599 150.6974,284.0317 150.317,283.953 150.0864,283.8795 149.8387,283.7846 149.6387,283.6986 149.8744,281.3464 150.1055,279.623 150.1574,279.2763 150.1663,279.2174 150.3202,278.191 150.4097,276.9353 150.5422,275.0774 150.7372,272.0033 150.7945,271.0994 150.8913,269.5742 151.804,260.702 151.8289,260.4618 151.9921,259.0972 152.4672,255.1245 152.4888,254.9437 152.7212,253.4424 152.9407,252.0246 153.3601,250.0532 153.7342,248.2946 153.768,248.1246 154.2466,245.7137 155.1581,241.586 155.2997,240.9367 155.4376,240.2738 155.8337,238.3702 155.9017,238.0792 156.7018,234.6569 156.9477,233.5319 157.0787,232.9327 157.1895,232.4255 157.3876,231.0185 157.4114,230.7439 157.6747,227.7031 157.7001,227.4091 157.8254,227.4005 158.0867,227.1693 158.1947,227.1773 158.2781,227.2433 158.3357,227.3188 158.4937,227.4024 158.602,227.3686 158.6342,227.2527 158.7754,227.2273 158.9671,227.211 159.025,227.1565 159.0828,227.1021 159.1328,227.0186 159.6636,226.9189 159.9037,226.8202 160.2191,226.7855 160.6836,226.6523 160.9331,226.6602 161.2887,226.7183 161.4466,226.7184 161.8697,226.6186 162.2848,226.4438 162.4424,226.3682 162.7,226.2105 162.7917,226.0679 162.7915,225.793 162.8494,225.6425 162.949,225.6019 163.1231,225.5845 163.305,225.5265 163.4628,225.5091 163.6377,225.3758 163.8033,225.318 163.8746,225.3161 164.1189,225.3098 164.2513,225.21 164.3342,225.21 164.4171,225.21 164.4426,225.1172 164.4668,224.9096 164.4009,224.651 164.4171,224.3926 164.5584,224.2259 164.7737,224.1678 165.0814,224.1679 165.1474,224.0751 165.3131,223.9 165.4625,223.6832 165.6782,223.5673 165.7781,223.4663 165.8023,223.2914 165.8921,223.0068 165.9022,222.9749 166.0436,222.808 166.1848,222.7658 166.2427,222.8253 166.3594,222.8244 166.365,222.8075 166.4087,222.6745 166.5663,222.4913 166.7561,222.4751 166.8897,222.525 166.9479,222.5075 167.006,222.35 167.0895,222.0657 167.1138,221.8071 167.0315,221.7233 166.9143,221.6736 166.8817,221.507 166.9234,221.3818 166.9234,221.282 166.8901,221.1649 166.89,221.0572 166.9975,220.9484 167.1714,220.8903 167.2792,220.8824 167.3295,220.8149 167.3211,220.6814 167.3049,220.6072 167.3049,220.4484 167.321,220.3233 167.4547,219.9397 167.5448,219.6566 167.5703,219.5232 167.5127,219.4814 167.5031,219.4143 167.5127,219.3228 167.6783,219.0806 167.7685,218.8811 167.786,218.7141 167.8361,218.5728 168.0017,218.3979 168.0931,218.3387 168.1673,218.2645 168.2748,218.2229 168.4571,218.1311 168.5489,217.9305 168.6567,217.6139 168.6822,217.4712 168.549,217.3888 168.5248,217.2799 168.5248,217.1467 168.4909,216.9043 168.4989,216.6633 168.6242,216.5383 168.6489,216.3631 168.5824,216.204 168.5407,216.0882 168.5824,215.8377 168.5327,215.7622 168.4493,215.6708 168.3671,215.5039 168.3996,215.2036 168.4829,214.9626 168.5247,214.8037 168.5568,214.7285 168.6322,214.6787 168.6903,214.645 168.7321,214.5614 168.7726,214.4618 168.8803,214.4456 168.8805,214.3619 168.8065,214.2703 168.7806,214.1533 168.7647,214.0454 168.6822,213.9121 168.6904,213.6955 168.7725,213.6121 168.9218,213.5612 169.1052,213.5112 169.1458,213.3615 169.1554,213.2445 169.1427,213.1696 169.13,213.0947 169.1136,212.9616 169.1632,212.5281 169.2371,212.5189 169.2789,212.5522 169.3115,212.6022 169.3451,212.6278 169.4207,212.5779 169.5369,212.4363 169.5194,212.252 169.4788,212.0606 169.3953,211.9609 169.3118,211.8276 169.312,211.7524 169.2873,211.6352 169.2873,211.5021 169.4116,211.3108 169.5689,210.9606 169.6607,210.8275 169.802,210.693 169.8922,210.6187 170.0916,210.577 170.1753,210.5688 170.2413,210.4852 170.2814,210.3787 170.2914,210.3519 170.2919,210.3504 170.2935,210.3449 170.3736,210.0726 170.6227,209.756 170.9545,209.1893 171.2191,208.8201 171.5039,208.4226 171.9634,207.8565 172.0606,207.7367 172.5936,206.4505 172.7385,205.9648 172.7615,205.4547 172.8754,203.8974 173.0202,203.3155 173.3513,202.6413 173.9551,202.107 174.4821,201.8803 175.3841,201.4923 176.175,200.843 176.2991,200.5377 176.4371,200.2046 176.5982,200.0906 176.8099,199.9407 177.9286,199.6764 178.0839,199.237 178.1418,199.2011 178.2736,199.1767 178.7155,198.9267 179.2761,198.467 179.5285,198.3708 179.9876,198.3463 180.2899,198.3708 181.2141,198.6914 181.6733,199.0068 181.8912,199.0672 182.1084,198.9953 182.302,198.812 182.8388,197.9228 183.1284,197.5588 183.3942,197.3767 183.8532,197.328 184.4102,197.2985 184.8201,197.2858 185.4218,197.3305 185.4234,197.3306 185.496,197.242 185.6418,197.0638 186.0291,196.4806 186.1381,196.1408 186.0897,195.8984 185.9202,195.6306 185.7266,195.3639 185.5216,195.2908 185.3289,195.0 185.3289,194.781 185.3522,194.5144 185.4853,194.162 185.6418,193.8223 186.2585,193.2752 186.5969,193.1661 186.8383,193.033 187.1526,192.7535 187.4062,192.5713 187.6846,192.5714 188.1437,192.5471 188.3492,192.4867 188.3501,192.4843 188.4581,192.2072 188.4582,191.8918 188.4336,191.624 188.2517,191.3816 188.0592,191.0165 187.9144,190.6039 187.8056,190.1795 187.7696,189.8874 187.7925,189.5965 187.8772,189.2325 188.0591,188.9532 188.5898,188.4919 188.8924,188.3828 189.1094,188.334 189.3989,188.3828 189.9311,188.6981 190.1249,188.7342 190.2703,188.6673 190.2814,188.6622 190.5989,188.4979 190.6108,188.4917 190.6131,188.4859 190.6532,188.3828 190.6956,188.2738 191.2191,188.1415 191.3755,187.8992 191.5691,187.7775 192.2533,187.5933 192.7255,187.5575 192.9307,187.4542 193.1358,187.351 193.2566,187.0228 193.3296,186.6705 193.4256,186.319 193.3538,186.124 193.1359,185.9779 192.9665,185.8087 192.9665,184.8862 193.1116,184.6555 193.2806,184.5455 193.4143,184.412 193.4255,183.9506 193.7155,183.757 193.9091,183.5624 194.2117,183.4405 194.7066,183.356 195.0925,183.3559 195.2986,183.5865 195.4551,183.8171 195.6004,184.0121 195.7811,184.1815 195.9261,184.1698 196.1329,184.0967 196.3854,183.6957 197.1471,182.7972 197.3652,182.4331 197.4256,182.0933 197.4372,181.7292 197.6305,180.9026 197.6322,180.8797 197.6739,180.3082 197.7703,178.9869 197.7741,178.9339 197.7757,178.9121 197.8962,178.4623 197.8925,178.441 197.8194,178.0306 197.7699,177.7527 197.9622,177.0492 198.3494,176.7813 198.5903,176.3686 198.9046,175.6163 199.4365,175.3971 200.2576,175.2036 200.5243,174.9114 200.8857,174.2564 201.0794,174.0617 201.5871,173.9642 202.0219,174.0859 202.046,174.4253 202.0218,174.9598 201.8523,175.5431 202.0461,175.7369 202.336,175.7613 203.1569,175.5919 204.0751,175.2522 205.1962,174.8918 205.2111,174.8871 205.2469,174.889 205.3303,174.8938 206.0561,174.9357 207.0475,175.1305 207.6272,175.1061 208.4249,174.6448 209.5124,173.2605 210.9915,172.398 214.0199,171.9795 216.1289,171.2038 217.9699,169.0856 217.9725,169.0792 219.4487,165.3081 219.7653,164.4993 219.7764,164.4708 219.9433,164.0446 219.9538,164.0177 219.9564,164.0112 220.6722,162.1826 220.8785,161.6555 221.0311,161.1859 222.7788,155.8067 222.808,155.302 222.8955,153.7913 223.1054,150.1666 223.0905,149.1243 223.4177,147.513 224.8421,145.9618 225.9796,144.1707 226.4156,143.4843 226.8016,141.0971 226.8618,138.71 225.7629,135.9345 224.3552,134.3673 223.5395,133.3133 223.3321,132.9111 223.249,132.5782 223.0969,132.3563 222.9586,132.0234 222.4746,131.2051 222.7023,130.8194 222.7716,130.7812 223.1023,130.5987 223.2541,130.2401 223.5989,130.1711 223.9851,130.2953 224.2334,130.0746 224.2747,129.6056 224.3575,129.1091 224.7437,128.8332 225.0609,128.6401 225.392,128.3919 225.5989,128.0608 225.7368,127.6746 225.8333,127.316 226.0383,126.9741 226.4172,127.1723 226.8295,127.3879 227.1078,127.5336 227.2496,127.6078 227.5304,127.7547 227.6852,127.8356 227.9881,127.9941 228.3663,128.1919 228.5949,128.3116 228.8115,128.4248 229.0422,128.5455 229.2981,128.6794 229.446,128.7568 229.552,128.8123 229.6655,128.8716 233.76,131.0137 237.4331,132.9353 237.8732,133.1655 238.9577,133.7329 240.4042,134.4896 240.9174,134.7571" stroke="black" /><polygon fill="none" points="142.8893,234.1945 141.5642,232.9082 140.9871,232.3831 140.4375,231.8831 139.2091,230.8117 137.1872,229.0212 136.4559,228.3736 134.689,226.8026 129.5565,222.2393 125.2529,218.4951 123.7523,217.1895 124.2311,216.9907 124.6322,216.7362 124.9293,216.5619 125.1216,216.3232 125.3555,215.9756 125.5167,215.6092 125.7638,214.7455 126.0219,213.8463 126.2298,213.2327 126.4501,212.7849 126.668,212.3615 126.8509,211.948 127.1144,211.0663 127.3086,210.3355 127.3416,210.2115 127.5213,209.5101 127.7013,209.2034 128.0457,208.7213 128.553,207.9412 128.9468,207.4267 129.2075,207.1336 129.8041,206.5154 130.3413,206.0275 131.1309,205.4564 131.5498,205.1699 132.2803,204.7418 133.1197,204.3152 133.8767,203.9848 134.5427,203.7303 135.2282,203.4961 135.8227,203.3004 136.0898,203.1454 136.2688,202.9888 136.3904,202.8117 136.462,202.5971 136.7723,201.9279 137.196,200.894 137.5065,200.574 137.7372,200.3335 137.9007,200.0825 134.0363,199.3129 132.972,199.083 130.9762,198.6521 128.4791,198.0707 123.357,196.8456 121.7993,196.4962 117.9863,195.6207 114.4564,194.5959 113.6516,194.3986 110.8127,193.798 111.9263,187.0473 108.1211,185.6468 107.343,185.2171 101.1279,182.7042 100.8859,182.4087 97.915,181.2836 93.8567,179.6648 93.4798,179.4863 93.4542,179.5808 90.971,178.6515 90.8667,178.6322 89.3283,178.0831 88.9602,177.9661 86.7013,177.1417 86.4099,177.0283 83.8567,176.0347 83.9525,175.7626 83.851,175.7768 83.7409,175.7938 83.6393,175.8081 83.4488,175.8273 83.2047,175.8345 83.0411,175.8346 82.8209,175.8219 82.5048,175.8591 81.4408,175.4705 80.7345,175.2915 79.8345,175.0621 78.8205,174.8032 78.0991,174.6175 77.3933,174.4335 76.1174,174.1101 74.2042,173.622 73.8677,173.5361 72.5746,173.2079 71.6269,172.9614 70.8835,172.7679 70.3766,172.636 69.3391,172.3715 68.5212,172.1579 67.828,171.9769 66.9532,171.7497 65.3571,171.3443 63.7221,170.8972 63.2461,170.8472 63.2151,170.7628 63.2254,170.6178 63.2137,170.55 63.177,170.4485 63.1127,170.3726 63.0256,170.3062 62.917,170.2648 62.8216,170.2561 62.7203,170.2727 62.6096,170.3264 62.525,170.4064 62.2205,170.8423 60.8614,170.4955 58.931,170.0029 58.3181,170.2881 56.6246,169.1183 56.0004,168.6871 55.7574,168.3465 55.5062,168.0423 52.4803,165.9691 50.7506,164.784 50.3005,164.533 47.8416,163.8718 44.5354,162.1394 44.2007,161.9641 42.2453,160.9547 41.1047,160.3452 40.1442,159.8965 39.9988,159.8286 39.9141,159.7829 36.5468,157.9671 35.4315,157.3773 34.2803,156.7685 33.1397,156.1788 32.9838,156.1256 32.0195,155.6148 29.774,154.4254 28.6134,153.8598 28.6432,153.7633 28.174,153.5137 26.9052,152.9256 26.8559,152.83 26.8288,152.585 26.8574,152.4254 26.9121,152.2839 26.97,152.164 27.2086,152.0107 27.3213,151.9773 27.4125,151.8657 27.4936,151.7575 27.538,151.676 26.5611,151.2028 23.3279,149.5146 23.2352,149.4661 22.9179,149.7758 21.9124,148.7634 20.9887,147.8631 20.0601,146.9727 19.1265,146.0957 17.8557,144.8479 18.3605,143.9688 18.6017,143.5489 18.993,142.8675 15.8892,140.5291 14.3271,139.3522 12.8202,138.209 12.8014,138.1948 11.4032,137.2008 11.2437,137.1802 11.1885,137.1658 8.5511,136.4738 8.7307,135.7571 8.9841,134.7467 9.093,134.2615 9.4314,132.7553 6.739,132.0813 5.4189,131.7507 4.5103,131.5559 4.3312,131.5175 3.8908,131.423 3.4375,131.3258 3.0415,131.2409 1.8104,131.0083 1.4347,130.8952 1.3352,130.8154 1.0655,130.76 0.2051,130.6138 0.0,126.7949 0.1516,126.5594 0.2733,126.4938 0.4291,126.455 0.6342,126.3694 0.7545,126.2583 0.8401,126.2151 0.9067,126.1592 0.9273,126.1471 0.9596,126.1399 0.9928,126.1325 1.0236,126.1232 1.0629,126.1117 1.0913,126.1098 1.1408,126.0975 1.1739,126.086 1.2145,126.0724 1.2417,126.0668 1.2614,126.0477 1.281,126.0344 1.3005,126.014 1.3207,125.9931 1.3422,125.9621 1.3664,125.9272 1.384,125.9044 1.4104,125.875 1.451,125.8403 1.4806,125.8172 1.5136,125.7966 1.5446,125.7759 1.5723,125.7591 1.5981,125.7476 1.6338,125.7308 1.6626,125.7191 1.698,125.7057 1.7341,125.6902 1.7678,125.6693 1.801,125.6508 2.0675,125.5208 2.0977,125.5013 2.1211,125.4858 2.1561,125.4643 2.1817,125.4499 2.2096,125.4374 2.2327,125.4311 2.2657,125.4195 2.2965,125.408 2.3376,125.4024 2.3721,125.3937 2.4097,125.38 2.4436,125.3715 2.4903,125.3667 2.5199,125.3566 2.5532,125.3355 2.5726,125.3185 2.5931,125.2944 2.6166,125.2623 2.6491,125.2212 2.6634,125.201 2.6831,125.1751 2.6955,125.1563 2.7101,125.1368 2.7198,125.1171 2.7325,125.0931 2.7435,125.0609 2.756,125.0288 2.7676,125.0068 2.7792,124.9775 2.8109,124.9202 2.8201,124.8875 2.867,124.7514 2.8757,124.695 2.8798,124.6308 2.8792,124.5943 2.8798,124.5457 2.8839,124.4994 2.8966,124.4116 2.9192,124.3303 2.9415,124.2492 2.9636,124.1905 2.9993,124.1267 3.0309,124.0917 3.1007,124.0686 3.144,124.0629 3.1536,124.0976 3.203,124.0961 3.2421,124.1204 3.2675,124.1223 3.2911,124.1258 3.3177,124.12 3.3427,124.1191 3.3691,124.1045 3.3864,124.0845 3.4079,124.0453 3.4301,123.9785 3.4487,123.9488 3.4956,123.93 3.5329,123.9209 3.5783,123.864 3.5943,123.8247 3.6057,123.7792 3.6004,123.7065 3.5774,123.6418 3.5654,123.6121 3.5648,123.5567 3.5653,123.4996 3.5658,123.4496 3.5825,123.4106 3.6831,123.3738 3.7276,123.3578 3.7728,123.338 3.8132,123.3016 3.8241,123.2813 3.8296,123.2581 3.8358,123.2334 3.8508,123.1916 3.8605,123.1542 3.8666,123.1136 3.8688,123.0819 3.8719,123.0615 3.8819,123.0273 3.8974,122.9837 3.9156,122.9321 3.9704,122.832 4.0002,122.7421 4.0494,122.6395 4.0845,122.5725 4.103,122.5132 4.108,122.462 4.1112,122.4187 4.1157,122.3768 4.1158,122.2956 4.1062,122.2321 4.0884,122.1982 4.0788,122.1669 4.0434,122.0785 4.0354,122.0394 4.0261,122.0115 4.0146,121.9872 4.0001,121.9376 3.9838,121.9059 3.9574,121.8778 3.9408,121.8368 3.9219,121.8226 3.9006,121.8093 3.8805,121.7925 3.8519,121.775 3.8248,121.7626 3.7377,121.7255 3.6871,121.7112 3.6234,121.6801 3.5849,121.6664 3.5462,121.654 3.4847,121.6226 3.4273,121.5978 3.3693,121.5478 3.3283,121.4991 3.2842,121.4685 3.2235,121.4408 3.1697,121.3781 3.147,121.3472 3.1143,121.2945 3.1058,121.2751 3.0942,121.2485 3.0835,121.2234 3.069,121.1829 3.062,121.1574 3.0539,121.1351 3.0418,121.1129 3.0284,121.088 3.0209,121.0642 3.0166,121.0277 3.0129,120.9817 3.0119,120.9474 3.0109,120.9143 3.01,120.8814 3.0038,120.8474 2.9919,120.8196 2.9748,120.79 2.9584,120.7665 2.951,120.679 2.9456,120.6458 2.9569,120.5939 2.9957,120.5472 3.0596,120.499 3.1051,120.4728 3.1396,120.4371 3.1595,120.3932 3.1805,120.3425 3.2018,120.299 3.2211,120.2376 3.2207,120.1574 3.2116,120.116 3.1963,120.0691 3.186,120.0241 3.1711,119.9855 3.157,119.9585 3.1325,119.9295 3.1132,119.9133 3.0585,119.8676 3.0092,119.785 2.9474,119.6896 2.9238,119.6393 2.9069,119.5809 2.8876,119.5134 2.8777,119.4708 2.8608,119.4233 2.8388,119.3786 2.805,119.3292 2.7773,119.3139 2.7099,119.2862 2.6701,119.2612 2.6371,119.2316 2.5919,119.1409 2.5764,119.0817 2.574,119.0232 2.5612,118.9182 2.5587,118.8623 2.5388,118.8051 2.539,118.7256 2.5715,118.6472 2.6006,118.5843 2.6144,118.5553 2.6338,118.5254 2.6439,118.4954 2.6482,118.4591 2.6567,118.4268 2.6662,118.3998 2.6764,118.3724 2.6883,118.3457 2.6982,118.3174 2.7065,118.2789 2.7109,118.2541 2.7155,118.2276 2.7204,118.2023 2.7189,118.1706 2.7353,118.0763 2.7396,118.0428 2.7508,117.9968 2.7646,117.9484 2.7685,117.9059 2.7753,117.8691 2.8043,117.8262 2.8318,117.789 2.843,117.7739 2.9104,117.7391 2.9495,117.7294 3.0316,117.7098 3.0582,117.7115 3.0942,117.6911 3.1268,117.6949 3.1507,117.6859 3.182,117.6812 3.2162,117.6772 3.2562,117.6727 3.2964,117.6654 3.3264,117.6564 3.3549,117.6521 3.3843,117.6383 3.4131,117.6182 3.4292,117.6045 3.452,117.5907 3.4746,117.5766 3.4938,117.5464 3.5046,117.5209 3.5096,117.4944 3.5115,117.462 3.5108,117.4214 3.5055,117.3915 3.491,117.3597 3.4835,117.3324 3.4704,117.3135 3.4574,117.2878 3.4301,117.2527 3.3933,117.1703 3.39,117.112 3.4063,117.0663 3.4416,117.0286 3.4823,117.0043 3.5256,116.9847 3.5354,116.9357 3.5137,116.8721 3.4449,116.8018 3.4202,116.7692 3.3999,116.7439 3.3777,116.7242 3.3403,116.6989 3.3085,116.6796 3.2783,116.6687 3.2576,116.6593 3.2384,116.6456 3.2075,116.6294 3.1817,116.6057 3.1688,116.5708 3.1639,116.5403 3.1632,116.5044 3.1621,116.4657 3.1629,116.4413 3.1728,116.4041 3.18,116.3813 3.1871,116.3602 3.1938,116.3321 3.2006,116.2994 3.1754,116.179 3.1504,116.1517 3.1244,116.1317 3.1086,116.1123 3.0927,116.0916 3.0776,116.0654 3.0692,116.0417 3.0579,116.0111 3.0503,115.9807 3.0441,115.953 3.0426,115.9273 3.0408,115.9022 3.0441,115.8796 3.0484,115.8543 3.0553,115.8267 3.0705,115.7787 3.0823,115.748 3.0917,115.7272 3.1134,115.7009 3.1436,115.681 3.1711,115.6712 3.1983,115.6598 3.2193,115.6497 3.2448,115.6317 3.2725,115.6091 3.2911,115.5901 3.3098,115.5667 3.3769,115.433 3.3794,115.4042 3.3851,115.3795 3.3929,115.35 3.4021,115.324 3.4106,115.3026 3.4208,115.274 4.0851,115.0103 4.6927,114.4517 5.1864,114.2573 7.3717,106.2656 7.4723,106.296 7.5664,106.3293 7.7748,106.3745 7.8933,106.3834 8.0085,106.4058 8.0563,106.4244 8.1176,106.4775 8.8399,106.6898 9.7827,106.9501 11.4479,107.4136 11.6931,106.6323 11.9179,105.8275 11.9902,105.5417 12.1162,105.0394 13.2642,105.3513 13.789,105.4968 14.0241,104.6744 14.2259,103.9041 14.4397,103.1019 16.1842,103.5832 17.8381,104.063 18.2908,102.415 18.5055,101.6222 18.7484,100.8019 18.9766,99.9866 19.2058,99.168 19.3799,98.5537 19.0707,98.5459 19.5812,97.5483 19.6001,97.5126 20.0909,96.5815 20.4917,95.8363 20.7295,95.3719 20.9178,95.0042 21.283,94.2998 21.582,93.7361 21.6421,93.6183 21.7906,93.3274 22.0177,92.8905 22.2477,92.4552 22.4788,92.0229 22.6499,91.6771 22.702,91.5718 22.881,91.1708 23.1642,90.7451 23.4994,90.3209 23.7866,89.9216 24.0996,89.5286 24.4214,89.0941 24.4734,89.0397 24.4405,88.9865 24.2946,88.8459 24.5212,88.5008 24.6745,88.2092 24.8062,87.9153 24.9302,87.6387 25.2347,86.9383 25.6457,86.0146 25.7592,85.7398 25.8347,85.5569 26.1393,84.882 26.4872,84.0968 26.721,83.5536 27.0615,82.7629 27.5264,81.6732 27.689,81.2852 27.986,80.6289 28.322,79.8691 28.7068,78.9817 29.0708,78.1444 29.0967,78.0844 29.3689,77.4559 29.6041,76.9202 29.7163,76.6646 30.1037,75.834 30.2237,75.613 30.3004,75.4719 30.5392,75.0323 30.9407,74.3636 31.3155,73.829 31.9559,73.0538 32.5443,72.386 33.1117,71.8437 33.6091,71.4293 33.8977,71.1889 34.2235,70.9454 34.7761,70.5324 35.8147,69.8294 36.6049,69.3081 37.4814,68.7056 38.4342,68.0721 38.6959,67.8952 39.1359,67.5978 39.9274,67.0613 40.441,66.7259 40.8162,66.4809 41.3161,66.1356 41.5001,66.0085 41.7531,65.8676 42.1571,65.6426 42.3972,65.4319 42.5974,65.19 42.7384,65.0137 42.74,65.0108 42.959,64.6374 43.0193,64.5242 43.1979,64.1209 43.3589,63.6667 43.4092,63.5248 43.7345,62.5635 44.0713,61.5834 44.2274,61.1072 44.4323,60.482 44.6063,59.965 44.8737,59.1791 45.1811,58.2019 44.8829,57.8638 44.807,57.7776 44.718,57.7117 44.6576,57.6572 44.5973,57.5885 44.5658,57.5628 44.5055,57.5315 44.4021,57.4854 44.27,57.4481 44.1954,57.4225 44.1522,57.4079 44.1035,57.3838 44.0434,57.3683 43.9401,57.3626 43.8798,57.3597 43.8368,57.3598 43.7478,57.3797 43.699,57.3883 43.6502,57.4199 43.6244,57.4456 43.5813,57.4771 43.5383,57.5001 43.5167,57.5201 43.4837,57.5573 43.4522,57.5888 43.3979,57.6233 43.3667,57.6264 43.3237,57.6293 43.2893,57.6321 43.2577,57.6321 43.2348,57.635 43.0992,57.6283 43.062,57.6226 43.0331,57.614 42.9559,57.5825 42.8753,57.5253 42.8436,57.4937 42.8034,57.4565 42.7546,57.4193 42.7144,57.3706 42.6769,57.3161 42.6484,57.2646 42.6078,57.1813 42.5623,57.0842 42.5438,57.0038 42.5456,56.9738 42.5456,56.9429 42.5508,56.8974 42.5447,56.869 42.5049,56.6304 42.2876,56.1226 42.2504,56.0351 42.2332,55.9949 42.216,55.9634 42.1945,55.8974 42.1705,55.7943 42.1676,55.76 42.1362,55.6254 42.1305,55.5853 42.1076,55.5052 42.085,55.4338 42.082,55.365 42.0674,55.2903 42.0559,55.2331 42.0473,55.17 42.03,55.1042 42.0185,55.0354 41.9901,54.733 41.978,54.5861 41.9614,54.4795 41.9583,54.4135 41.9528,54.3535 41.9528,54.2676 41.9499,54.1903 41.9499,54.0757 41.9442,53.9726 41.9413,53.881 41.9442,53.8351 41.9528,53.7607 41.9701,53.6579 41.9729,53.5058 42.0217,53.3158 42.0331,53.2383 42.0274,53.0722 42.0245,52.9921 42.0188,52.9234 42.0188,52.8661 42.0102,52.7888 41.9958,52.7258 41.97,52.6484 41.9499,52.6112 41.9126,52.5597 41.8638,52.5052 41.8236,52.4709 41.7892,52.4451 41.7317,52.4048 41.6856,52.3845 41.6052,52.3587 41.5736,52.3501 41.5151,52.3117 41.3992,52.2498 41.3916,52.2458 41.3484,52.2228 41.3228,52.1972 41.2939,52.1569 41.2739,52.1169 41.2683,52.0653 41.2685,52.0108 41.2829,51.9764 41.3088,51.9219 41.3316,51.8818 41.3746,51.8446 41.437,51.7963 41.5157,51.7029 41.5419,51.6638 41.6033,51.5903 41.6606,51.5245 41.7362,51.4378 41.782,51.3777 41.8478,51.2891 41.888,51.2261 42.1426,50.8141 42.1713,50.7281 42.2172,50.605 42.2459,50.5162 42.2718,50.436 42.3062,50.3501 42.3349,50.2728 42.3693,50.1954 42.4067,50.1095 42.4411,49.9949 42.5846,49.6041 42.5961,49.564 42.6047,49.4609 42.6162,49.3864 42.619,49.3263 42.619,49.2575 42.6161,49.1831 42.576,49.1143 42.5042,49.0356 42.4238,48.9481 42.3549,48.8851 42.2946,48.8564 42.2257,48.8307 42.1539,48.802 42.0764,48.7676 42.0159,48.7445 41.9127,48.7074 41.8611,48.6789 41.798,48.6503 41.7264,48.6189 41.6661,48.596 41.6001,48.5473 41.557,48.5043 41.4939,48.4528 41.3992,48.3411 41.3533,48.2809 41.2676,48.1527 41.2332,48.1083 41.0811,47.938 41.0266,47.8807 40.9893,47.8321 40.9376,47.7833 40.8802,47.7346 40.7711,47.6658 40.656,47.5949 40.5673,47.5141 40.4957,47.4511 40.4462,47.3709 40.3808,47.2879 40.3234,47.2306 40.2517,47.1447 40.2231,47.1075 40.1827,47.0673 40.1339,47.0158 40.088,46.9557 39.9933,46.9155 39.9416,46.884 39.9043,46.8497 39.8699,46.8124 39.8326,46.7752 39.8067,46.7408 39.7694,46.6807 39.7163,46.6177 39.0092,45.3688 38.6285,44.6692 38.5565,44.3609 38.5852,44.1403 38.5536,43.9885 38.4272,43.4461 38.3353,43.1884 38.0541,42.8734 37.7703,42.4961 37.327,41.8119 37.2348,41.6696 37.1226,41.3861 37.0884,41.0796 37.0712,40.8333 36.988,40.6267 36.8674,40.5269 36.7585,40.4434 36.6377,40.4029 36.5842,40.4019 36.5069,40.391 36.2712,40.4019 36.1405,40.3674 36.0244,40.3058 35.925,40.2409 35.8674,40.1867 35.8141,40.1466 35.7724,40.1178 35.7277,40.0878 35.6763,40.0512 35.6299,40.0146 35.5818,39.988 35.5217,39.9395 35.4343,39.9013 35.3541,39.8429 35.271,39.8058 35.1753,39.7416 35.1127,39.6906 35.0407,39.6473 34.9696,39.6076 34.8925,39.5483 34.844,39.5255 34.7046,39.4245 34.661,39.3869 34.5651,39.3407 34.4867,39.3061 34.408,39.2615 34.3357,39.2136 34.2206,39.1526 34.1216,39.0878 34.0591,39.0249 34.0079,38.9823 33.8826,38.9005 33.8513,38.8636 33.8404,38.8122 33.8445,38.7657 33.8411,38.6682 33.8571,38.6032 33.8706,38.5415 33.8476,38.4767 33.8256,38.4547 33.8023,38.3347 33.757,38.2661 33.7197,38.2095 33.6737,38.1576 33.6307,38.1174 33.574,38.0482 33.5431,38.0226 33.4924,38.0114 33.4457,37.9792 33.4129,37.9457 33.3508,37.8839 33.2107,37.8224 33.1592,37.7908 33.1337,37.6947 33.1132,37.5935 33.1022,37.491 33.1003,37.3889 33.1011,37.2885 33.084,37.1912 33.0066,37.0934 32.8995,37.052 32.738,37.0408 32.6985,37.0621 32.6314,37.1101 32.5461,37.1443 32.5471,37.1794 32.5175,37.232 32.3907,37.2715 32.3128,37.3202 32.2161,37.3411 32.1339,37.3304 32.065,37.2819 32.0254,37.1876 32.0116,37.1217 32.0184,37.0536 32.0231,36.9404 32.0171,36.8556 32.0169,36.7816 31.9899,36.723 31.904,36.6273 31.8255,36.5445 31.7525,36.5104 31.665,36.5176 31.5341,36.5736 31.4672,36.5996 31.4368,36.6225 31.3638,36.5982 31.2505,36.6241 31.1113,36.6071 30.9483,36.5639 30.8189,36.5208 30.7448,36.4298 30.6674,36.3471 30.6126,36.2897 30.5164,36.1964 30.4469,36.1328 30.2977,36.0587 30.2112,36.0231 30.112,36.0086 30.0168,36.0062 29.8842,35.9907 29.7919,35.9747 29.6625,35.9385 29.5532,35.8773 29.5017,35.8561 29.3694,35.7996 29.3059,35.7461 29.187,35.6599 29.0753,35.5747 28.8551,35.5014 28.7824,35.4551 28.7268,35.3979 28.6761,35.3438 28.5614,35.2905 28.4694,35.266 28.3649,35.245 28.2871,35.2193 28.1794,35.2033 28.0747,35.1929 27.9621,35.1938 27.7601,35.2286 27.4647,35.3551 27.4201,35.4088 27.3409,35.4636 27.2218,35.5419 27.1815,35.5774 27.1151,35.606 26.9987,35.6389 26.8939,35.6539 26.8068,35.6458 26.7714,35.605 26.7194,35.5612 26.6675,35.5258 26.6158,35.4497 26.5619,35.3678 26.5126,35.2727 26.5018,35.1717 26.4956,35.0516 26.4999,34.8917 26.504,34.594 26.4924,34.5254 26.4399,34.4152 26.3984,34.3435 26.3501,34.2776 26.2982,34.2089 26.2468,34.1515 26.133,34.0944 26.036,34.058 25.974,34.0214 25.9253,33.9752 25.8895,33.9369 25.8297,33.8856 25.7138,33.8196 25.6658,33.7831 25.4863,33.6325 25.4424,33.564 25.3929,33.5008 25.3103,33.4403 25.244,33.3879 25.1639,33.3437 25.081,33.3133 24.9951,33.2938 24.8844,33.2827 24.7761,33.2797 24.6954,33.2795 24.626,33.285 24.5734,33.2988 24.3905,33.4407 24.2991,33.5126 24.2492,33.5621 24.1882,33.627 24.1327,33.7397 24.1271,33.7701 24.116,33.8172 24.0993,33.8753 24.0965,33.9667 24.1048,34.0998 24.1299,34.2078 24.1465,34.3048 24.1576,34.3629 24.1604,34.4154 24.1605,34.4817 24.1494,34.5341 24.1355,34.581 24.1189,34.6363 24.0801,34.7136 24.0275,34.7853 23.9805,34.8348 23.9141,34.8458 23.8365,34.8541 23.7756,34.8597 23.7062,34.8627 23.6394,34.8576 23.5725,34.7944 23.5131,34.7235 23.4765,34.6463 23.4342,34.5635 23.3888,34.4362 23.3508,34.32 23.2797,34.2172 23.2475,34.161 23.1848,34.0832 23.1333,33.9779 23.1064,33.906 23.0608,33.768 23.0397,33.6357 23.0161,33.3084 23.025,33.2338 23.026,33.1675 23.0517,33.0683 23.077,32.9996 23.0993,32.9172 23.1191,32.8595 23.1521,32.8047 23.2313,32.7251 23.302,32.6783 23.3998,32.6314 23.4705,32.5981 23.5168,32.5897 23.5937,32.5978 23.6683,32.6088 23.7539,32.6336 23.8201,32.6446 23.9444,32.6472 24.0357,32.625 24.1632,32.5778 24.2659,32.5305 24.3522,32.4802 24.394,32.4439 24.5543,32.1525 24.5439,31.9243 24.3565,31.601 24.2806,31.5156 24.216,31.4343 24.1457,31.3164 24.0952,31.2435 24.046,31.1861 24.0137,31.1454 23.9772,31.0993 23.9534,31.0714 23.9185,31.048 23.8976,31.0315 23.8613,31.0011 23.8293,30.9722 23.8002,30.9545 23.7405,30.9358 23.6935,30.9199 23.6317,30.8962 23.578,30.886 23.5187,30.8723 23.4654,30.8697 23.4103,30.866 23.3663,30.8609 23.3359,30.861 23.3042,30.8626 23.2615,30.8781 23.2257,30.8922 23.1735,30.9119 23.1307,30.93 23.0907,30.9481 23.0632,30.9676 23.0403,30.9852 23.0041,31.0121 22.9779,31.037 22.9408,31.0731 22.919,31.1023 22.8956,31.1575 22.8826,31.1951 22.8791,31.2298 22.7821,31.4399 22.7665,31.4702 22.7454,31.4977 22.7162,31.5362 22.6786,31.576 22.6469,31.6103 22.6247,31.6322 22.5846,31.6692 22.5555,31.6952 22.5307,31.7199 22.5128,31.7405 22.4863,31.7718 22.4615,31.7909 22.4367,31.8101 22.412,31.8251 22.3735,31.8443 22.3295,31.8593 22.2883,31.8715 22.2457,31.8838 22.2087,31.9002 22.173,31.9139 22.1236,31.9302 22.0413,31.9329 21.9769,31.9329 21.9042,31.9329 21.8603,31.933 21.8192,31.933 21.7643,31.9275 21.7204,31.9194 21.6875,31.9139 21.6573,31.9085 21.6271,31.8975 21.5859,31.8784 21.5185,31.8498 21.4787,31.8265 21.4428,31.7965 21.4029,31.7582 21.3765,31.7172 21.3545,31.6952 21.3239,31.661 21.3018,31.6213 21.2878,31.5884 21.274,31.5472 21.2515,31.5005 21.232,31.462 21.207,31.4098 21.186,31.3739 21.1651,31.3381 21.1356,31.294 21.1135,31.2581 21.0841,31.225 21.0549,31.1904 21.0368,31.1601 20.9979,31.1007 20.9534,31.0413 20.9283,31.0067 20.906,30.9763 20.6276,30.5492 20.5276,30.4275 20.4719,30.3306 20.4254,30.2118 20.3591,30.0599 20.3151,29.8751 20.1796,29.4266 20.1707,29.3646 20.1644,29.3284 20.1521,29.2419 20.1411,29.1633 20.1331,29.0982 20.129,29.0157 20.1253,28.9584 20.1191,28.921 20.1154,28.8775 20.108,28.7913 20.1069,28.7369 20.1096,28.7052 20.1152,28.6678 20.1878,28.2775 20.2066,28.2018 20.2506,28.1073 20.282,28.0315 20.3009,27.9936 20.3452,27.9178 20.358,27.8799 20.3771,27.8546 20.4026,27.8104 20.4281,27.7599 20.4472,27.7284 20.498,27.6591 20.5551,27.5835 20.6121,27.5144 20.6627,27.4641 20.7196,27.4139 20.7638,27.3701 20.8458,27.2824 20.9025,27.2197 20.9214,27.1946 20.9654,27.1571 21.0221,27.107 21.0693,27.0663 21.1354,27.0002 21.2048,26.9245 21.2553,26.855 21.2868,26.8045 21.3374,26.7224 21.3816,26.6278 21.4132,26.5457 21.4702,26.4194 21.5113,26.3059 21.7647,25.184 21.7699,25.007 21.7874,24.7563 21.8259,24.5146 21.8646,24.2715 21.9289,23.9893 21.9291,23.9578 21.9671,23.7066 21.9735,23.6312 21.9862,23.5307 22.0178,23.4238 22.0367,23.3609 22.0745,23.2854 22.0998,23.2413 22.1502,23.1847 22.2505,23.1162 22.3071,23.066 22.3826,23.0095 22.4455,22.9593 22.4958,22.9216 22.5524,22.884 22.6531,22.8149 22.736,22.7508 22.8102,22.7021 22.8597,22.6529 22.9214,22.5852 22.9522,22.5482 23.1244,22.1717 23.1918,21.9464 23.2221,21.6719 23.2406,21.4351 23.2534,21.198 23.1926,20.9409 23.1006,20.8077 23.0575,20.7693 23.0082,20.718 22.9526,20.6601 22.903,20.6212 22.853,20.5766 22.7898,20.5391 22.7204,20.5016 22.6699,20.4893 22.5564,20.4836 22.3862,20.4845 22.2918,20.485 22.2163,20.4854 22.1409,20.4858 22.034,20.504 21.8833,20.5237 21.7328,20.531 21.6326,20.5441 21.5324,20.5695 21.4257,20.6197 21.3192,20.6636 21.2628,20.6825 21.1815,20.7078 21.1186,20.7263 21.0373,20.7329 20.9624,20.7394 20.875,20.7523 20.8127,20.7588 20.713,20.7654 20.6446,20.7657 20.5513,20.7661 20.4208,20.7729 20.3214,20.7733 20.2654,20.7734 20.2031,20.7798 20.1284,20.78 20.0786,20.7801 20.0164,20.7802 19.9602,20.7553 19.9162,20.724 19.8848,20.6989 19.7971,20.6552 19.7531,20.6239 19.7091,20.5989 19.6521,20.5548 19.569,20.4728 19.5369,20.4349 19.4988,20.4096 19.4599,20.3527 19.4207,20.2831 19.4011,20.2451 19.3935,20.188 19.2342,19.3014 19.1026,18.9372 19.0714,18.8493 19.0652,18.8054 19.0464,18.7491 19.0277,18.6677 19.009,18.5551 19.0028,18.4613 18.9967,18.2927 18.9717,18.1055 18.9655,17.9869 18.9529,17.9245 18.9341,17.8495 18.9341,17.8059 18.9216,17.7621 18.9153,17.6997 18.8965,17.6434 18.8777,17.5872 18.8588,17.5496 18.84,17.4869 18.8021,17.4052 18.7706,17.3548 18.739,17.2918 18.7074,17.2225 18.6885,17.1723 18.6634,17.1284 18.6382,17.0719 18.6004,17.0029 18.5564,16.9276 18.5155,16.8585 18.484,16.7894 18.4241,16.6886 18.4119,16.6602 18.4051,16.6444 18.3735,16.5876 18.3356,16.5372 18.2977,16.4804 18.2787,16.4425 18.0222,15.6981 18.0156,15.6608 17.996,15.5986 17.9829,15.5488 17.9634,15.4991 17.9373,15.4181 17.8925,15.3054 17.8794,15.2113 17.8798,15.1294 17.862,14.9845 17.8443,14.8336 17.8385,14.7771 17.8329,14.6829 17.8336,14.5513 17.8341,14.4761 17.8285,14.3384 17.8287,14.2633 17.8289,14.1882 17.8261,14.1006 17.826,14.0966 17.8234,14.0158 17.8233,14.0131 17.8219,13.991 17.8174,13.9194 17.8053,13.8571 17.7871,13.7574 17.7757,13.6554 17.7745,13.6448 17.7743,13.5884 17.7741,13.5383 17.7739,13.4693 17.7798,13.3689 17.8042,13.2495 17.8348,13.1047 17.8594,13.0353 17.8655,13.0038 17.9336,12.8773 18.022,12.7462 18.1043,12.6532 18.1524,12.5967 18.1675,12.5789 18.584,12.3152 18.6156,12.2839 18.7099,12.2339 18.7976,12.1901 18.8727,12.1589 18.9477,12.1277 19.0478,12.0902 19.1292,12.0715 19.198,12.0465 19.2856,12.0277 19.3794,12.0152 19.4107,12.0152 19.5421,12.0027 19.6736,12.0026 19.7801,12.0026 19.8805,12.0025 19.9748,12.0024 20.0691,12.0024 20.1699,12.0086 20.2645,12.0211 20.334,12.0336 20.4287,12.0587 20.5299,12.0839 20.5615,12.0902 20.6438,12.1153 20.7008,12.1405 20.7389,12.1594 20.777,12.1783 20.8532,12.2099 20.9103,12.2288 20.961,12.2477 21.037,12.273 21.1575,12.3109 21.278,12.3361 21.4049,12.3678 21.4367,12.3741 21.5825,12.4057 21.6774,12.4183 21.8291,12.4373 21.9303,12.4562 24.2938,12.74 24.3443,12.7401 24.572,12.753 24.8694,12.772 25.2998,12.8037 25.7745,12.8416 26.2428,12.8984 26.6339,12.9232 26.836,12.9357 26.98,12.9478 27.0863,12.9474 29.5383,13.0332 30.3339,13.061 30.441,13.0421 30.5544,13.0359 30.6868,13.0295 30.775,13.0232 30.8443,13.0169 30.945,13.0043 31.0773,12.998 32.3696,12.9038 33.5538,12.7463 35.5741,12.2925 36.6836,11.9782 38.1901,12.0222 39.0733,12.1722 39.8837,12.4198 40.0416,12.468 40.7558,12.708 41.6518,12.938 42.3758,13.1239 43.2722,13.288 43.3291,13.288 44.0933,13.3321 45.0578,13.3267 47.0098,13.1567 48.0243,12.9352 49.0643,12.7454 50.6203,12.1501 51.5523,11.511 52.5796,10.8465 54.711,9.4997 55.5749,8.7177 56.1464,8.3156 56.1828,8.2791 57.1555,6.9727 57.6907,6.1327 58.1207,5.4382 58.3371,5.0779 58.4957,3.5901 58.7386,2.1413 58.8788,1.0898 59.1221,0.2319 59.4012,0.0 59.7408,0.269 60.2892,0.7095 61.2153,1.3344 61.7996,1.6649 62.3355,1.9222 62.8274,2.0915 63.6539,2.051 64.3409,2.0741 64.3451,2.0745 65.0585,2.1473 65.3564,2.1004 65.4619,2.0838 65.5004,2.0777 65.9696,1.2034 66.149,0.8564 66.1056,0.789 65.7205,0.1907 65.8172,0.1212 66.1792,0.6933 66.3183,0.9133 66.1492,1.3698 66.3566,1.7443 67.1165,2.4377 67.7107,3.1312 68.613,3.9082 69.0923,4.2405 69.6173,4.4623 70.0731,4.5175 70.2476,4.2994 70.2707,4.2704 70.577,3.8843 71.3861,2.8643 71.4694,3.0567 70.6731,4.0802 70.3624,4.4795 70.529,4.9474 70.8884,5.5161 71.5655,6.3067 71.6054,6.3502 72.367,7.1804 72.8782,7.6103 73.1268,7.7351 73.3617,7.8043 73.5688,7.6932 73.9001,7.4156 74.0547,7.3948 74.1073,7.3877 74.2316,7.457 74.3422,7.6096 74.3573,7.6265 74.4665,7.7483 74.8534,8.0672 75.1574,8.3862 75.2568,8.4713 76.0969,9.1905 76.7877,9.6341 77.5475,9.9945 78.0581,9.1063 78.0165,8.8149 78.2513,8.7454 78.4171,8.898 78.2238,9.1201 77.8237,10.0221 78.1139,10.2856 78.1914,10.3226 79.2467,10.8262 79.6802,10.963 80.009,11.1538 80.0373,11.1713 80.8215,11.6579 80.8308,11.6929 80.8769,11.866 81.8024,12.2957 82.5898,12.5867 83.2111,12.7287 83.3771,12.7666 84.4928,12.8716 84.5511,12.8771 86.7309,12.8837 87.0211,12.1558 87.4388,11.1061 87.9473,9.9339 87.7951,9.5316 86.4407,7.7008 85.4741,7.8817 85.3911,7.6736 86.5235,7.5204 88.1129,9.7951 86.6126,13.6619 87.6179,14.2492 88.7432,14.8092 88.856,14.8465 89.3196,14.9985 89.8958,15.1634 90.284,15.2746 90.6292,15.2328 90.7384,15.0626 90.7416,15.062 90.7511,15.0406 91.0156,14.5805 91.2764,13.8961 91.2912,13.8644 91.407,13.7346 91.5109,13.8123 91.3883,14.1224 91.1676,14.6775 91.2782,14.9133 91.6098,15.2184 91.9601,15.4059 92.0243,15.4402 92.5046,15.6475 92.7955,15.815 93.0864,15.9825 93.4135,16.1328 93.4749,16.1609 93.9169,16.3411 94.3313,16.66 94.5938,16.757 95.061,16.9494 95.1326,16.9787 95.3395,16.5901 95.6707,16.0627 95.8043,15.8516 96.485,14.8136 96.6508,14.9384 95.9063,16.0286 95.8641,16.0904 95.674,16.561 96.0717,17.006 96.209,17.1184 96.5719,17.4155 96.7902,17.5884 96.8311,17.6294 97.0113,17.8103 97.336,18.0668 97.6607,18.3233 98.4033,18.8825 98.9732,19.1413 98.9883,19.1399 99.1151,19.1288 99.2908,19.1134 99.553,18.7247 100.0223,18.0724 100.0322,18.0561 100.2845,17.6421 100.3812,17.6976 100.1044,18.1277 99.774,18.6414 99.5808,19.0993 99.65,19.4046 99.7907,19.5645 99.7949,19.573 99.8059,19.5818 99.8573,19.6403 100.5513,20.184 101.2737,20.6685 101.6558,20.86 102.0458,21.1392 102.7558,21.4906 103.1868,21.5672 103.4215,21.3174 103.7251,20.8732 104.2173,20.1709 104.7577,19.3805 104.8661,19.5311 104.3554,20.3948 104.3188,20.4567 103.8634,21.1784 103.8125,21.2806 103.7456,21.3943 103.7494,21.4076 103.7254,21.4559 103.7393,21.7057 104.2644,22.1633 104.8862,22.6347 105.342,22.8565 105.455,22.9294 105.5355,22.9812 105.867,23.1476 106.3505,23.3138 106.6404,23.1333 106.9165,22.7724 107.2477,22.3421 107.3167,22.2172 107.3996,22.3143 107.2892,22.4809 106.9442,22.925 106.8063,23.2997 107.3038,23.8683 107.9001,24.2567 108.409,24.617 108.9755,24.9497 109.4451,25.116 109.6426,25.0808 109.6799,25.0742 109.9836,24.7549 110.301,24.283 110.4667,24.2274 110.743,24.3799 110.9916,24.2965 111.2399,23.8108 111.6674,22.4647 111.7639,22.0207 111.9418,21.9612 111.9445,21.965 112.0549,22.121 111.9317,22.4173 111.7505,22.8532 111.4195,23.7413 111.3341,23.9876 111.0057,24.9348 110.8954,25.2817 110.7299,25.7674 111.0339,26.0447 111.2417,26.16 111.6832,26.4051 112.2774,26.9043 112.7886,27.2787 113.3827,27.7224 114.2393,28.2214 114.6951,28.3599 114.7778,28.0408 114.9317,27.886 114.9987,27.8186 115.1369,27.9712 115.1391,28.0047 115.1508,28.1793 117.1402,29.1772 117.4641,29.3266 117.6513,29.4128 117.9652,29.4781 117.9683,29.4782 118.4032,29.3797 118.6966,29.3507 118.8506,29.2951 118.9491,29.2105 119.0298,29.2105 119.2006,29.2965 120.1099,29.7862 120.9664,30.1881 121.5881,30.4791 122.2373,30.6314 122.8175,30.867 123.6049,31.1995 124.2266,31.4073 124.7373,30.8521 124.9444,30.6855 124.9442,30.3108 125.3586,30.3939 125.4553,30.5326 127.1129,30.9202 127.4444,31.031 127.5173,31.1155 127.3843,31.2445 127.3724,31.2513 127.0439,31.059 125.2758,30.6437 124.5691,31.3765 124.5609,31.5187 124.6859,31.6358 126.3401,32.0999 126.5024,32.1464 126.8235,32.2384 127.2819,31.8223 127.2896,31.8178 127.6203,31.7009 128.0577,31.7505 129.3904,32.0702 129.4859,32.0935 130.2052,32.367 130.2073,32.3673 130.213,32.3639 130.7459,32.1531 131.1877,31.8476 131.2843,31.57 131.1784,31.4992 130.8283,31.265 130.8973,31.1818 131.2749,31.4375 131.45,31.5561 131.6157,31.4727 131.7536,31.1119 132.0296,30.64 131.5184,30.3906 131.382,30.3987 131.2836,30.4046 131.2251,30.3263 131.1592,30.2381 131.173,30.0855 131.0907,30.0133 131.0624,29.9884 131.1729,29.8912 131.1783,29.8945 132.209,30.5012 132.3608,30.1404 132.2269,30.0917 131.5596,29.8494 131.5714,29.8063 131.6698,29.447 132.4849,29.8073 132.7056,29.3077 132.8714,29.3908 132.8547,29.4552 132.8232,29.5769 132.7887,29.71 133.6591,30.2645 133.9489,29.862 134.1145,29.515 133.9045,29.422 129.1412,27.3116 128.0229,27.9921 127.9261,27.895 129.1273,27.1451 129.1852,27.1706 134.0031,29.2872 134.048,29.3069 135.0952,29.7504 135.482,29.9444 135.8964,29.9997 136.214,29.8608 136.4624,29.5693 136.9309,27.5155 137.1105,27.5571 136.8845,28.444 136.5841,29.6229 136.573,29.6663 136.7803,29.9021 136.8015,29.9105 137.3052,30.1099 138.3363,30.2427 139.0951,30.3405 139.232,30.3712 139.7453,30.5023 139.9445,30.5001 140.2334,30.4968 140.5209,29.4022 140.8995,27.9603 141.0057,28.0418 140.6678,29.4329 140.3992,30.5383 140.7721,30.6075 141.1312,30.6489 141.6285,30.7042 142.1709,30.6854 143.1608,30.9599 143.286,30.9946 144.5153,31.1743 145.1507,31.2988 146.2003,31.1872 146.2829,30.6322 146.5864,27.9996 146.9564,24.7906 147.3232,24.831 146.9455,28.1424 146.6283,30.9234 146.6283,30.9854 146.6285,31.3119 146.7674,31.5035 146.8497,31.617 147.1688,31.8133 147.5426,32.0892 148.3214,32.6195 149.2078,33.0767 149.2813,33.1141 149.6688,33.2618 149.972,33.3774 150.4698,33.5844 150.5384,33.6129 150.8423,33.696 151.1004,33.7592 151.1742,33.7773 151.9889,34.07 152.0359,34.0817 152.0829,34.0935 152.0921,34.0958 152.1572,34.1121 152.8176,34.2776 152.9859,34.3323 153.9918,34.6654 154.5305,34.79 155.1593,32.9786 155.3675,33.0622 154.6393,35.0027 154.4067,35.6226 154.6002,35.8583 155.0285,36.0801 155.1168,36.1276 155.9817,36.5929 157.3078,36.9668 158.6653,37.2387 158.6891,37.2435 159.9737,37.4786 161.0706,37.7198 161.1064,37.7277 161.8661,37.7967 163.1369,38.0457 164.6229,38.259 164.6839,38.2668 165.3744,38.2109 165.5985,38.2026 166.134,38.1827 166.6174,38.1269 167.225,38.0295 167.9729,37.8344 168.3583,37.8057 168.5392,37.7922 168.581,37.784 169.3535,37.6323 169.6694,37.5702 170.6118,37.3881 170.8982,36.959 171.1754,36.5922 171.1802,36.5896 171.5168,36.2401 171.5331,36.2233 172.0026,35.9594 172.5272,35.6261 172.8999,35.3345 173.2175,35.0845 173.6317,34.8901 174.1152,35.0563 174.2028,35.0901 174.4744,35.1948 174.7087,35.3175 175.1099,35.5274 175.7729,35.749 176.3253,35.6377 176.812,35.3971 177.1792,35.2013 177.4714,35.1376 177.7491,35.0848 178.0376,35.0679 178.1113,35.087 178.4106,35.1648 178.8525,35.1922 179.564,35.2385 180.4051,35.0288 181.0296,34.7858 181.5624,34.5345 182.2618,34.1827 183.1111,33.7387 183.4691,33.5795 183.8096,33.4702 183.8605,33.4538 184.3434,33.236 184.308,33.0198 184.1929,32.3157 184.4178,32.2821 184.5789,32.8546 184.6014,32.9346 185.3674,32.6581 185.4676,32.9676 186.167,32.6241 186.7081,32.3143 187.449,31.6445 187.6478,30.8026 187.7165,30.317 187.5366,29.7205 187.0811,29.21 186.8471,29.4435 186.0447,29.5129 186.0418,29.5119 185.9235,29.2943 186.0066,28.9847 186.2228,28.4491 186.1974,27.6794 186.0971,27.1858 186.223,27.0018 185.9263,26.8316 180.0887,23.4813 179.7012,22.0247 179.369,20.7207 179.5209,20.6928 180.2682,23.3979 185.9605,26.6183 186.0952,26.6945 188.4187,23.7541 188.693,23.3513 188.8596,22.8419 189.3666,21.1348 189.2832,20.8922 189.7488,19.5783 189.957,19.6033 190.9797,16.6492 191.3131,16.4818 191.1471,16.1489 190.5667,15.511 189.6826,15.1369 189.3924,14.9151 189.2677,14.1937 188.8995,13.0253 188.4654,12.1407 187.5668,10.5041 185.1709,9.9082 183.6577,9.4935 181.4611,8.4681 180.7428,8.191 180.2594,8.219 180.2528,8.2141 180.0936,8.0943 180.1625,7.7751 180.5354,7.7888 180.54,7.7909 181.8063,8.3708 183.3536,9.0775 185.7433,9.7559 187.8291,10.3374 188.7822,10.5866 189.7629,10.8635 190.4951,11.1406 191.4072,12.1251 193.0525,15.2598 193.6609,16.411 193.778,16.6177 194.0618,17.1184 194.6283,17.4233 195.5539,17.9084 196.2584,18.2132 196.7695,18.2129 197.17,18.3097 197.2392,18.4346 197.2945,18.6288 197.3914,18.8923 197.6687,19.062 197.7233,19.137 197.7685,19.1231 197.9578,19.2389 198.2956,19.1147 198.7448,18.8638 205.6034,15.2785 205.7615,15.1027 205.897,15.1154 205.9842,15.2916 205.897,15.506 202.3044,17.3702 201.7963,17.641 201.5756,17.988 201.5482,18.4458 201.6176,18.9175 201.6868,19.2644 201.7423,19.6389 201.7462,19.7165 201.7563,19.9164 201.8532,20.2632 201.9502,20.8459 201.9674,21.0488 201.9898,21.3143 201.9926,21.3228 202.1359,21.7629 202.1772,23.0378 202.2092,24.0292 202.2469,24.1781 202.4192,24.8582 202.7268,25.8598 203.0844,26.9391 203.2821,27.3851 203.3511,27.5409 203.6537,28.2017 203.8818,28.9753 204.2416,30.2238 204.6539,31.5098 204.7398,31.7774 205.0717,32.6374 205.5144,33.8304 206.79,36.7339 207.6298,38.5758 208.0592,39.5174 208.6447,40.453 209.0771,41.3457 209.5107,42.3044 209.5107,42.8923 210.1446,43.7067 210.4872,44.3959 210.5561,44.5344 210.6642,45.3077 211.3528,46.2723 212.097,47.587 212.8103,49.007 212.8219,49.0311 213.4643,50.3669 214.0886,51.9176 215.0401,53.4825 215.2078,53.7582 215.5085,54.7857 216.1627,55.8289 217.3242,57.9371 217.3791,58.0669 218.0988,59.7681 218.9955,61.3098 219.0615,61.4425 220.2419,63.8156 220.7538,64.8445 220.8381,64.9911 222.1338,67.2424 222.377,67.6651 222.559,68.0117 224.4612,71.9728 224.9006,72.8879 225.2343,73.5827 226.3732,75.9542 228.2765,79.2138 228.5222,79.7712 228.9847,80.8206 229.9909,81.9598 230.6271,83.2636 231.3232,84.1153 231.7605,84.6504 232.9776,87.147 233.6143,89.2555 234.2784,91.0588 234.6776,91.4356 234.7483,91.5025 234.9967,91.1693 234.9406,89.8651 235.7701,91.0856 236.7377,92.2781 237.761,94.0534 240.3884,98.9078 240.8059,99.6533 241.5223,100.9327 242.4103,102.3734 242.5809,102.6456 243.541,104.178 244.6717,105.9826 247.1528,110.6085 248.6297,112.9988 251.5266,118.2297 254.1956,121.6203 254.8797,123.2063 255.7358,124.3776 255.9439,124.6623 257.3406,126.6732 258.115,127.9769 259.3038,129.3636 264.1344,136.4069 264.8731,137.2983 265.1246,137.5812 265.3761,137.8641 265.8201,139.1115 266.6177,140.2709 266.9084,140.7354 267.7713,142.1142 269.1915,144.4027 271.0286,146.6153 271.9133,147.6414 272.5492,148.2792 273.2405,149.3609 273.6278,150.1654 273.8491,150.526 273.8495,151.0532 273.7395,151.8025 273.7587,152.7222 273.6208,153.0495 273.5986,153.3457 273.8759,154.0671 274.1913,154.7641 274.2681,155.416 274.234,155.9981 273.7153,156.3183 273.1389,156.1771 272.3691,155.8588 271.7102,155.2836 270.6215,154.2586 269.6762,153.6456 268.9312,152.9845 268.8545,152.7912 269.0434,151.9931 269.1227,151.4728 269.1621,150.7524 269.0022,150.152 268.444,149.6321 267.6864,148.9522 266.052,147.9127 264.9143,147.3122 264.08,146.8758 257.7561,143.5674 249.056,139.0159 247.7772,138.3457 247.6515,138.2811 243.3674,136.0404 243.1182,135.9095 242.4539,135.5617 240.9174,134.7571 240.4042,134.4896 238.9577,133.7329 237.8732,133.1655 237.4331,132.9353 233.76,131.0137 229.6655,128.8716 229.552,128.8123 229.446,128.7568 229.2981,128.6794 229.0422,128.5455 228.8115,128.4248 228.5949,128.3116 228.3663,128.1919 227.9881,127.9941 227.6852,127.8356 227.5304,127.7547 227.2496,127.6078 227.1078,127.5336 226.8295,127.3879 226.4172,127.1723 226.0383,126.9741 225.8333,127.316 225.7368,127.6746 225.5989,128.0608 225.392,128.3919 225.0609,128.6401 224.7437,128.8332 224.3575,129.1091 224.2747,129.6056 224.2334,130.0746 223.9851,130.2953 223.5989,130.1711 223.2541,130.2401 223.1023,130.5987 222.7716,130.7812 222.7023,130.8194 222.4746,131.2051 222.9586,132.0234 223.0969,132.3563 223.249,132.5782 223.3321,132.9111 223.5395,133.3133 224.3552,134.3673 225.7629,135.9345 226.8618,138.71 226.8016,141.0971 226.4156,143.4843 225.9796,144.1707 224.8421,145.9618 223.4177,147.513 223.0905,149.1243 223.1054,150.1666 222.8955,153.7913 222.808,155.302 222.7788,155.8067 221.0311,161.1859 220.8785,161.6555 220.6722,162.1826 219.9564,164.0112 219.9538,164.0177 219.9433,164.0446 219.7764,164.4708 219.7653,164.4993 219.4487,165.3081 217.9725,169.0792 217.9699,169.0856 216.1289,171.2038 214.0199,171.9795 210.9915,172.398 209.5124,173.2605 208.4249,174.6448 207.6272,175.1061 207.0475,175.1305 206.0561,174.9357 205.3303,174.8938 205.2469,174.889 205.2111,174.8871 205.1962,174.8918 204.0751,175.2522 203.1569,175.5919 202.336,175.7613 202.0461,175.7369 201.8523,175.5431 202.0218,174.9598 202.046,174.4253 202.0219,174.0859 201.5871,173.9642 201.0794,174.0617 200.8857,174.2564 200.5243,174.9114 200.2576,175.2036 199.4365,175.3971 198.9046,175.6163 198.5903,176.3686 198.3494,176.7813 197.9622,177.0492 197.7699,177.7527 197.8194,178.0306 197.8925,178.441 197.8962,178.4623 197.7757,178.9121 197.7741,178.9339 197.7703,178.9869 197.6739,180.3082 197.6322,180.8797 197.6305,180.9026 197.4372,181.7292 197.4256,182.0933 197.3652,182.4331 197.1471,182.7972 196.3854,183.6957 196.1329,184.0967 195.9261,184.1698 195.7811,184.1815 195.6004,184.0121 195.4551,183.8171 195.2986,183.5865 195.0925,183.3559 194.7066,183.356 194.2117,183.4405 193.9091,183.5624 193.7155,183.757 193.4255,183.9506 193.4143,184.412 193.2806,184.5455 193.1116,184.6555 192.9665,184.8862 192.9665,185.8087 193.1359,185.9779 193.3538,186.124 193.4256,186.319 193.3296,186.6705 193.2566,187.0228 193.1358,187.351 192.9307,187.4542 192.7255,187.5575 192.2533,187.5933 191.5691,187.7775 191.3755,187.8992 191.2191,188.1415 190.6956,188.2738 190.6532,188.3828 190.6131,188.4859 190.6108,188.4917 190.5989,188.4979 190.2814,188.6622 190.2703,188.6673 190.1249,188.7342 189.9311,188.6981 189.3989,188.3828 189.1094,188.334 188.8924,188.3828 188.5898,188.4919 188.0591,188.9532 187.8772,189.2325 187.7925,189.5965 187.7696,189.8874 187.8056,190.1795 187.9144,190.6039 188.0592,191.0165 188.2517,191.3816 188.4336,191.624 188.4582,191.8918 188.4581,192.2072 188.3501,192.4843 188.3492,192.4867 188.1437,192.5471 187.6846,192.5714 187.4062,192.5713 187.1526,192.7535 186.8383,193.033 186.5969,193.1661 186.2585,193.2752 185.6418,193.8223 185.4853,194.162 185.3522,194.5144 185.3289,194.781 185.3289,195.0 185.5216,195.2908 185.7266,195.3639 185.9202,195.6306 186.0897,195.8984 186.1381,196.1408 186.0291,196.4806 185.6418,197.0638 185.496,197.242 185.4234,197.3306 185.4218,197.3305 184.8201,197.2858 184.4102,197.2985 183.8532,197.328 183.3942,197.3767 183.1284,197.5588 182.8388,197.9228 182.302,198.812 182.1084,198.9953 181.8912,199.0672 181.6733,199.0068 181.2141,198.6914 180.2899,198.3708 179.9876,198.3463 179.5285,198.3708 179.2761,198.467 178.7155,198.9267 178.2736,199.1767 178.1418,199.2011 178.0839,199.237 177.9286,199.6764 176.8099,199.9407 176.5982,200.0906 176.4371,200.2046 176.2991,200.5377 176.175,200.843 175.3841,201.4923 174.4821,201.8803 173.9551,202.107 173.3513,202.6413 173.0202,203.3155 172.8754,203.8974 172.7615,205.4547 172.7385,205.9648 172.5936,206.4505 172.0606,207.7367 171.9634,207.8565 171.5039,208.4226 171.2191,208.8201 170.9545,209.1893 170.6227,209.756 170.3736,210.0726 170.2935,210.3449 170.2919,210.3504 170.2914,210.3519 170.2814,210.3787 170.2413,210.4852 170.1753,210.5688 170.0916,210.577 169.8922,210.6187 169.802,210.693 169.6607,210.8275 169.5689,210.9606 169.4116,211.3108 169.2873,211.5021 169.2873,211.6352 169.312,211.7524 169.3118,211.8276 169.3953,211.9609 169.4788,212.0606 169.5194,212.252 169.5369,212.4363 169.4207,212.5779 169.3451,212.6278 169.3115,212.6022 169.2789,212.5522 169.2371,212.5189 169.1632,212.5281 169.1136,212.9616 169.13,213.0947 169.1427,213.1696 169.1554,213.2445 169.1458,213.3615 169.1052,213.5112 168.9218,213.5612 168.7725,213.6121 168.6904,213.6955 168.6822,213.9121 168.7647,214.0454 168.7806,214.1533 168.8065,214.2703 168.8805,214.3619 168.8803,214.4456 168.7726,214.4618 168.7321,214.5614 168.6903,214.645 168.6322,214.6787 168.5568,214.7285 168.5247,214.8037 168.4829,214.9626 168.3996,215.2036 168.3671,215.5039 168.4493,215.6708 168.5327,215.7622 168.5824,215.8377 168.5407,216.0882 168.5824,216.204 168.6489,216.3631 168.6242,216.5383 168.4989,216.6633 168.4909,216.9043 168.5248,217.1467 168.5248,217.2799 168.549,217.3888 168.6822,217.4712 168.6567,217.6139 168.5489,217.9305 168.4571,218.1311 168.2748,218.2229 168.1673,218.2645 168.0931,218.3387 168.0017,218.3979 167.8361,218.5728 167.786,218.7141 167.7685,218.8811 167.6783,219.0806 167.5127,219.3228 167.5031,219.4143 167.5127,219.4814 167.5703,219.5232 167.5448,219.6566 167.4547,219.9397 167.321,220.3233 167.3049,220.4484 167.3049,220.6072 167.3211,220.6814 167.3295,220.8149 167.2792,220.8824 167.1714,220.8903 166.9975,220.9484 166.89,221.0572 166.8901,221.1649 166.9234,221.282 166.9234,221.3818 166.8817,221.507 166.9143,221.6736 167.0315,221.7233 167.1138,221.8071 167.0895,222.0657 167.006,222.35 166.9479,222.5075 166.8897,222.525 166.7561,222.4751 166.5663,222.4913 166.4087,222.6745 166.365,222.8075 166.3594,222.8244 166.2427,222.8253 166.1848,222.7658 166.0436,222.808 165.9022,222.9749 165.8921,223.0068 165.8023,223.2914 165.7781,223.4663 165.6782,223.5673 165.4625,223.6832 165.3131,223.9 165.1474,224.0751 165.0814,224.1679 164.7737,224.1678 164.5584,224.2259 164.4171,224.3926 164.4009,224.651 164.4668,224.9096 164.4426,225.1172 164.4171,225.21 164.3342,225.21 164.2513,225.21 164.1189,225.3098 163.8746,225.3161 163.8033,225.318 163.6377,225.3758 163.4628,225.5091 163.305,225.5265 163.1231,225.5845 162.949,225.6019 162.8494,225.6425 162.7915,225.793 162.7917,226.0679 162.7,226.2105 162.4424,226.3682 162.2848,226.4438 161.8697,226.6186 161.4466,226.7184 161.2887,226.7183 160.9331,226.6602 160.6836,226.6523 160.2191,226.7855 159.9037,226.8202 159.6636,226.9189 159.1328,227.0186 159.0828,227.1021 159.025,227.1565 158.9671,227.211 158.7754,227.2273 158.6342,227.2527 158.602,227.3686 158.4937,227.4024 158.3357,227.3188 158.2781,227.2433 158.1947,227.1773 158.0867,227.1693 157.8254,227.4005 157.7001,227.4091 156.6056,227.481 155.2792,227.254 154.5942,227.4764 154.4849,227.9865 154.5858,228.4882 154.492,228.6611 153.8523,229.2709 153.5913,229.4161 153.5343,229.8804 153.2027,230.145 152.1332,229.541 151.0974,228.8737 150.5418,228.4028 150.5361,228.3985 150.2549,228.1849 150.0145,228.0652 149.436,228.0281 148.8552,228.2182 148.5561,228.1973 148.0483,228.1011 147.2889,228.0072 146.3877,228.4369 145.1989,229.824 145.097,230.3511 144.9494,230.8139 144.8724,231.0551 144.5282,232.0659 144.1641,233.1583 143.5693,234.8531 142.8893,234.1945" stroke="black" /><polygon fill="none" points="155.4376,240.2738 155.2997,240.9367 155.1581,241.586 154.2466,245.7137 153.768,248.1246 153.7342,248.2946 153.3601,250.0532 152.9407,252.0246 152.7212,253.4424 152.4888,254.9437 152.4672,255.1245 151.9921,259.0972 151.8289,260.4618 151.804,260.702 150.8913,269.5742 150.7945,271.0994 150.7372,272.0033 150.5422,275.0774 150.4097,276.9353 150.3202,278.191 150.1663,279.2174 150.1574,279.2763 150.1055,279.623 149.8744,281.3464 149.6387,283.6986 149.5119,285.3789 149.3967,286.7443 149.3063,288.1179 149.2491,289.4666 149.1586,290.7403 149.0513,291.4563 148.7203,292.4638 147.8343,294.0294 146.5426,296.3111 146.1535,297.1855 145.8969,297.8266 145.6576,299.6749 145.2458,304.1455 144.999,307.3757 144.8916,307.9419 144.6764,308.558 144.3534,309.0577 143.9807,309.5574 143.3512,310.3153 142.8626,311.0815 142.4735,311.9059 142.1342,313.005 141.991,313.7695 141.9419,314.7852 142.1586,316.7997 142.1685,316.9278 142.217,317.5489 142.3004,318.4063 142.6167,321.5534 142.8191,323.5787 143.0586,325.9736 143.1753,327.1807 143.1956,327.3872 143.4255,329.7279 143.5425,331.2762 143.5518,333.0994 143.3208,335.0142 142.8827,336.9958 142.1634,340.2012 141.3513,343.9299 141.2165,345.4939 141.1686,348.5574 141.1399,352.5513 141.1379,352.8281 140.8493,355.4838 140.7668,356.0666 140.6431,357.2155 140.5854,357.7567 140.2803,360.5207 140.0247,362.9267 139.901,363.8924 139.7195,365.391 139.6452,366.0487 139.5875,366.5732 139.5052,367.489 139.3897,368.4048 139.2176,370.3275 139.0416,371.6595 138.8656,373.1692 138.2964,377.9273 137.9029,377.8985 137.3227,378.0237 136.211,378.954 135.6172,379.4816 134.7541,380.1342 133.9115,380.544 133.3458,380.4264 132.8061,380.2533 131.991,380.3856 131.7358,380.9962 131.6741,381.8287 131.1708,382.2376 130.5278,382.7104 129.907,382.9529 129.0912,383.1899 128.3385,383.6482 128.2972,384.0159 128.5361,384.7752 128.968,385.1325 129.362,385.597 129.6179,386.0131 129.7425,386.4848 129.8118,386.8802 129.7775,387.3381 129.6326,387.6642 129.4325,388.0389 129.0886,388.2169 129.137,388.3582 129.2327,388.6674 129.2867,389.0782 129.3697,389.3487 129.3781,389.4819 129.4653,389.7066 129.6893,390.1436 129.7641,390.3725 129.8761,390.6138 129.926,390.8386 129.8971,391.0217 129.7522,391.2882 129.5409,391.5048 129.1556,391.7339 129.0727,391.8047 128.8283,392.0796 128.6957,392.2087 128.6079,392.3566 128.4449,392.6756 128.2589,393.1327 127.9863,393.8573 127.7109,394.2469 127.3236,394.5656 127.0746,394.7969 126.9481,394.967 126.9059,395.1302 126.7863,395.6979 126.4481,396.2323 125.5579,396.8883 125.3406,397.1478 124.9989,397.4349 124.4596,397.6976 124.1764,397.772 123.9796,397.8552 123.8316,397.9818 123.625,398.179 123.6346,398.4367 123.7761,398.9276 123.5637,399.3097 122.8718,400.1401 122.1427,400.7898 121.8942,401.0897 121.4539,401.6115 120.9293,402.1806 119.1218,402.2382 118.5405,402.5241 117.8999,403.0913 117.5714,404.1373 118.3115,404.9816 118.2726,405.6683 117.9396,407.1492 117.5416,408.863 116.8234,410.709 116.2106,411.3313 114.8831,413.2816 114.4032,414.5 114.8812,415.8401 116.21,417.1715 117.7336,417.7893 118.3783,418.3395 118.6546,419.1784 118.4285,419.7086 118.8603,421.0609 119.9754,422.1426 120.2895,423.5058 121.0096,424.4902 121.1886,425.2096 120.4627,426.4098 120.018,427.2613 120.0344,428.5654 120.9786,430.396 120.8744,430.8303 120.2226,431.5108 120.3574,432.7289 121.2101,434.3511 121.7499,434.896 121.5971,436.1798 120.4196,437.2597 119.6956,437.6081 118.4711,438.0956 118.0245,438.785 118.0138,440.2564 117.1745,441.0536 116.233,441.9796 116.2053,442.8306 116.2328,442.9227 117.0223,443.6597 118.1125,444.8323 118.2365,446.0561 118.1459,448.9141 116.8479,450.3578 115.3287,451.5797 113.5333,453.0514 110.0287,456.1764 109.124,457.0049 108.3417,457.6195 107.9372,458.2603 106.1958,459.8548 104.5241,461.8902 102.9658,463.2272 101.6558,464.6135 100.9245,467.3307 99.985,469.0435 98.6899,472.9531 98.3101,473.6728 97.7013,476.5951 97.5884,477.4552 97.2205,478.8964 96.6057,480.4517 95.5186,482.7258 95.0205,484.4015 94.3146,486.3925 93.0641,489.6279 92.975,490.9075 93.261,492.6253 93.225,493.5839 93.1622,495.1991 91.8647,496.7185 90.0655,497.5354 89.0548,498.267 87.8096,499.3819 86.4977,500.0 84.5997,499.893 82.8391,498.7959 82.527,496.4815 82.2146,495.3713 81.9917,494.5793 80.616,492.2987 78.0417,491.0919 76.2669,488.8484 75.1796,486.9496 74.2064,485.3392 74.1482,483.9286 72.4679,480.5786 72.204,480.3339 71.4323,479.6184 69.7589,479.377 65.9556,480.1954 62.5451,480.5429 60.4348,480.6359 59.329,479.9705 56.4768,479.528 54.0891,479.618 50.9501,480.4632 46.6843,479.9159 45.1982,478.4598 43.8162,478.1484 42.6072,478.1836 41.0528,478.3579 38.9792,476.5552 37.3549,475.1338 35.4743,475.085 34.902,475.2007 33.8733,475.4309 30.6519,477.3446 29.0477,477.66 29.8586,473.2183 34.3138,448.8147 34.9512,445.3221 38.6314,425.1628 73.2477,419.8256 73.316,415.2358 74.1036,362.3391 74.4016,352.5513 74.4071,352.3684 76.7028,342.2431 81.731,320.0656 83.2094,313.545 83.6189,311.2714 86.712,294.1011 94.9969,248.1093 95.7518,247.2552 96.755,245.0836 97.591,243.5044 98.621,241.9284 100.0226,240.495 100.9642,239.1878 101.1835,238.6859 101.7692,237.9482 102.3708,236.9655 102.7653,236.7142 102.8481,236.5601 102.8355,236.2979 102.8893,236.0689 102.8519,235.8858 102.8215,235.8183 102.7564,235.6736 102.8508,235.5671 103.0961,235.3737 103.1456,234.8658 103.1703,234.5745 103.311,234.3163 103.3441,234.1956 103.2446,234.0999 103.2487,233.9667 103.1159,233.6796 102.8712,233.3467 102.4732,233.0764 102.2659,232.8267 102.2009,232.5951 102.0923,232.3773 102.0555,232.0466 102.0692,231.7765 101.9654,231.5199 101.6475,231.2009 101.198,230.5268 100.3963,229.2846 99.9629,227.9326 99.5954,227.2885 98.7249,226.0203 100.2544,225.9626 101.2389,225.7987 102.3871,225.7172 102.9508,225.8279 103.5253,225.5279 105.4213,226.9005 105.4954,225.9431 105.5945,225.1272 105.6306,224.6044 105.7216,224.1049 105.87,222.7645 106.0184,221.2659 106.1339,220.192 106.2411,219.2678 106.3155,218.8266 106.3952,218.3751 106.6769,218.0753 106.7197,217.5424 106.529,217.3885 106.5862,215.9025 106.7804,214.9409 106.8852,213.9644 107.0221,212.6889 107.253,210.5493 107.3685,209.5586 107.5315,208.4651 107.5975,207.9101 107.6192,207.1442 107.6743,206.8556 108.083,206.5557 108.3481,206.2558 108.3811,205.9006 110.5596,195.0577 110.8127,193.798 113.6516,194.3986 114.4564,194.5959 117.9863,195.6207 121.7993,196.4962 123.357,196.8456 128.4791,198.0707 130.9762,198.6521 132.972,199.083 134.0363,199.3129 137.9007,200.0825 137.7372,200.3335 137.5065,200.574 137.196,200.894 136.7723,201.9279 136.462,202.5971 136.3904,202.8117 136.2688,202.9888 136.0898,203.1454 135.8227,203.3004 135.2282,203.4961 134.5427,203.7303 133.8767,203.9848 133.1197,204.3152 132.2803,204.7418 131.5498,205.1699 131.1309,205.4564 130.3413,206.0275 129.8041,206.5154 129.2075,207.1336 128.9468,207.4267 128.553,207.9412 128.0457,208.7213 127.7013,209.2034 127.5213,209.5101 127.3416,210.2115 127.3086,210.3355 127.1144,211.0663 126.8509,211.948 126.668,212.3615 126.4501,212.7849 126.2298,213.2327 126.0219,213.8463 125.7638,214.7455 125.5167,215.6092 125.3555,215.9756 125.1216,216.3232 124.9293,216.5619 124.6322,216.7362 124.2311,216.9907 123.7523,217.1895 125.2529,218.4951 129.5565,222.2393 134.689,226.8026 136.4559,228.3736 137.1872,229.0212 139.2091,230.8117 140.4375,231.8831 140.9871,232.3831 141.5642,232.9082 142.8893,234.1945 143.5693,234.8531 144.1641,233.1583 144.5282,232.0659 144.8724,231.0551 144.9494,230.8139 145.097,230.3511 145.1989,229.824 146.3877,228.4369 147.2889,228.0072 148.0483,228.1011 148.5561,228.1973 148.8552,228.2182 149.436,228.0281 150.0145,228.0652 150.2549,228.1849 150.5361,228.3985 150.5418,228.4028 151.0974,228.8737 152.1332,229.541 153.2027,230.145 153.5343,229.8804 153.5913,229.4161 153.8523,229.2709 154.492,228.6611 154.5858,228.4882 154.4849,227.9865 154.5942,227.4764 155.2792,227.254 156.6056,227.481 157.7001,227.4091 157.6747,227.7031 157.4114,230.7439 157.3876,231.0185 157.1895,232.4255 157.0787,232.9327 156.9477,233.5319 156.7018,234.6569 155.9017,238.0792 155.8337,238.3702 155.4376,240.2738" stroke="black" /></svg>