<svg version="1.2" xmlns="http://www.w3.org/2000/svg" viewBox="0 0 1997 748" width="1997" height="748"><defs><clipPath clipPathUnits="userSpaceOnUse" id="cp1"><path d="m0 0h1994.33v744.66h-1994.33z"/></clipPath></defs><style>.a{fill:#fff}</style><g clip-path="url(#cp1)"><path class="a" d="m844.2 132.9h122.9v477.5h-122.9zm173.7 477.5v-477.5h105.5l152.9 192.4 153.7-192.4h106.2v477.5h-117.6v-295.2l-141.6 174.4-140.2-174.4v295.2zm566.3 0v-477.5h319.3v88.2h-199.7v96.8h191v88.8h-191v114.2h205.7v89.5z"/><path fill-rule="evenodd" class="a" d="m362.5 0c86.5-1.1 171.1 29.5 239 86.6 42.1 35.4 77.4 83.3 99.2 133.9 11.3 26.7 17.4 45.9 23.6 75.4 4.9 22.1 5 26.5 5 70.8 0 44.7-0.1 48.6-5 71.4-21.7 102.7-79.6 186.3-166.4 240.9l-16.2 10.3-11.1-10.7c-6.1-5.8-16.4-18.6-22.9-28.4-11.4-17.6-17.4-24.5-17.4-20.6 0 1.1 1 2.6 1.9 3.2 1.1 0.7 4.8 6.8 8.1 13.7 3.5 6.7 11.3 19.3 17.6 27.6 6.2 8.4 10.9 15.2 10.3 15.2-5.9 0-24.7-25.4-27.7-37.4-0.7-2.8-4.6-8.9-8.9-13.9-4.2-5-10.1-12.1-12.9-15.6-6.5-7.8-4.6-3.5 3.3 7.6 3.4 4.6 10.7 17.8 16.7 29.5 5.9 11.7 13.3 23.9 16.2 27.4 3 3.4 5 6.7 4.4 7.3-1.8 2-14-16.7-23.4-35.8-5-10.4-10-19.3-11.1-20.1-2.2-1.3-2.4 1.3-0.4 3.8 1 1.1 4.8 9.2 8.7 18.5 3.9 9.1 10.5 22.2 15 29.1 4.4 7 7.4 12.6 6.6 12.6-2.7 0-14.2-19.8-22.7-39.5-5-11.1-9.8-21.3-11.1-22.8-1.5-1.8-1.5-2.6-0.2-2.6 3 0-11.6-26.5-15.7-28.7-1.8-1.1-4-2.8-4.8-3.7-0.9-1.1-1.1 1.5-0.5 5.4 0.5 4.4 5.2 13.5 12.2 24.2 6.1 9.3 14 24 17.5 32.3 3.5 8.5 9.4 20.4 12.9 26.3 7.1 12.1 7.6 13.7 4.5 11.7-1.1-0.7-8.3-14.1-15.7-29.8-14.2-29.9-15.2-31.2-51.9-71.4-7.4-8-13.5-15.4-13.5-16.5 0-0.9 2-6 4.6-10.8 4.4-9.1 4.4-9.1 11.5-7.6 7.7 1.9 10.5 0.8 5.5-2-1.7-1.1-3.1-3-3.1-4.5 0-1.8-1.7-2.2-6.3-1.4-5.7 0.9-6.7 0.3-10.9-6.2-2.6-4-6.8-9.6-9.6-12.8-4.3-4.8-4.8-6.6-3.9-13.9 0.4-4.6 0.4-6.6-0.2-4.8-0.7 2.8-1.3 3-2.6 0.9-1.1-1.6-1.3-0.3-0.5 3.4 1.6 8.5-0.6 7.6-4.8-1.7l-3.7-8 1.1 7.5 0.9 7.4-4.4-8.4c-3.5-6.5-4.3-9.2-3-13.7 1.1-3.5 1-6.3-0.3-8-1.1-1.3-1.7-2.4-1.1-2.4 3.3 0-5.6-17-12.6-24.1-10-10.2-13.9-19.1-13.9-31.7 0-8.1 0.8-10.2 5.8-14.8 3.1-3 6.4-5.4 7.4-5.4 0.9 0 1.6-1.1 1.6-2.6 0-1.3 1.7-2.9 3.7-3.5 3.3-0.9 3.7-0.4 2.4 3-1.8 5.2-1.8 19.6 0 24.6 0.9 2.8 0.6 3.9-1.5 3.9-1.8 0-2.5-1.3-1.8-3.9 0.5-2.2 0.4-2.8-0.2-1.3-0.9 2.1-1.5 2.1-2.8 0-1.3-2-1.6-2-1.6-0.2 0 3.2 5 12.6 10.7 20.8 7.2 9.6 8.3 10.8 6.8 5.7-0.9-2.9-0.7-3.8 0.8-3.1 1.3 0.9 1.4 0.2 0.7-1.9-0.7-2-1.5-2.4-2-1.1-0.8 2.6-4.1 1.1-4.1-1.6 0-1.1 0.9-1.3 2.2-0.6 1.3 0.7 1.5 0.6 0.8-0.9-0.8-1.1-2.1-1.7-3-1.1-1.5 0.9-7.4-6-7.4-8.6 0-2.4 6.3-0.5 7 2.1 0.6 1.5 0 1.8-1.4 0.9-1.7-0.9-2.1-0.7-1.2 0.7 0.8 1.2 2.1 1.7 3 1.2 2.6-1.7 10 12.2 12.2 23.1 1.8 9.3 2.2 9.7 3.5 5 1.8-7.2 0.4-11.6-9.4-26.8-12.2-19.1-13.7-36.2-3.5-40.8 4.4-2.1 4.6-2.1 3.5 5.9-1.5 10.8 2.8 19.3 14.9 29.9 13.2 11.1 17.2 21.3 14.1 34.6-2.6 11.3 0.3 17.1 3.7 7.4 2.2-6.3 4.2-7.4 6.6-3.3 3 4.8 19.6 22.4 17.4 18.2-1.3-2.4-5.2-7.6-8.7-11.5-3.5-3.7-6.3-7.6-6.3-8.4 0-1.3 11.8 11.5 17.9 19.3 1.9 2.4 2.1 1.9 0.4-3-2-6.3-15.5-19.8-18.1-18.1-1.8 0.9-3.9-5.2-3.9-11.3 0-2.3 1.3-4.7 3-5.2 2.2-1 2.8 0 2.6 4.1-0.6 7.6-0.2 10.3 1.3 8.9 0.7-0.6 5.7 3.1 11 8.5 8.7 8.7 9.6 10.4 8.7 15.6-1.3 6.8 1.9 10 4.6 4.6 4.1-7.4 2.3-11.9-9.9-23.7-6.7-6.5-12-12.3-12-12.8 0-2.3 22.1 18.3 23.1 21.5 0.5 1.8 2.2 4.4 3.8 5.5 2.2 1.9 3.5 1.5 7.2-2.6 2.6-2.7 4.6-4.2 4.6-3.5 0 0.9-0.9 2.6-2.2 3.9-1.6 1.7-1.4 2.2 1 2.2 2.2 0 3.1-1.6 3.3-5.2 0.3-9-0.4-11.6-6.3-20.2-5.4-7.6-5.9-9.4-5.4-20.4 0.2-6.4-0.3-13.3-1.2-15-1.2-2-1.5 0.2-1 6.3 0.6 8.9 0.6 8.9-0.7 1.5-1.7-9.1-4.3-13.3-15.7-25.8-10.2-10.9-11.5-8.7-2 3.6 8.1 10.7 11.8 19.4 11.8 28 0 6.4 2.4 8.7 4.4 4 0.6-1.1 0.9 2.1 0.6 7.5-0.2 5.1 0.2 9 0.7 8.7 0.7-0.4 2.8 2.4 4.4 6.1 2.4 4.8 2.8 8.1 1.7 11.3q-3.6 10-7.8 0.6c-1.2-3-5.5-7.7-9.6-10.2-9.4-6.3-13.6-12.8-12.3-19.1 1.3-7.1-1.5-13-10.6-22.8-6.1-6.5-8.5-11.2-10.1-18.4-2.8-12.8-2.6-14.3 1.5-18.2 1.8-1.8 4-5.9 4.9-8.9l1.5-5.5 0.8 7.2c0.3 3.9-0.4 9.5-1.5 12.4-1.3 2.8-1.7 7.6-0.9 11 1.4 6.3 9.6 17.2 12 15.7 0.9-0.5 2-0.2 2.7 0.9 0.8 1.2 1.9 1.5 2.8 1 3-1.9 5.7 4.6 8.3 19.6 1.5 8.7 4.1 16.7 5.7 18.4 2.8 2.6 2.8 2.4 1-1.3-1.1-2.2-2.1-9.5-2.1-16.1 0-6.9-0.7-12.3-1.8-12.3-0.9 0-1.9-1.1-1.9-2.4 0-3-8.1-11.1-9.6-9.6-0.3 0.5-2.4-1-4.4-3.2-1.8-2.2-2.4-3.3-0.9-2.4q2.5 1.4 1.6-1.1c-0.5-1.5-1.8-2.6-2.7-2.6-1.1 0-2.8-0.7-3.7-1.7-0.9-0.9-0.6-1.1 0.9-0.3 3 1.8 2.8-1.2-0.6-5.6-3.1-4.3-3.5-11.1-0.5-13 1.5-0.9 1.7-0.4 0.9 1.9-1.5 3.9 4.1 17.6 8.5 21.3 4.3 3.5 3.9 1.1-0.7-5.4-2.4-3-3.5-6.7-2.8-8.3 0.6-1.7 0.4-2.4-0.7-1.9-1.1 0.8-1.9-1.7-1.9-5.9v-7.1l3.7 4.7c2.8 3.5 2.2 0.7-2.6-13.4-3.3-9.8-5.3-17.6-4.6-17 0.7 0.3 2.4 3.7 3.5 7.2 1.1 3.5 2.8 6.1 3.7 5.6 1.5-1 4.1 4.6 3.5 7.6-1.3 7.6 6.9 19.8 20.2 30.4l9.9 7.8-1.3 14.2c-1.1 13.8-1.1 14.5 5.4 26.5 3.7 6.9 7.2 16 7.7 20.1 0.8 4 2.3 8.1 3.6 9.2 1.8 1.5 1.8 0.4 0.3-5.3-1.5-5.6-1.5-8 0.4-10.2 2-2.4 2.6-2.4 5.7 0.7 4.1 4.1 11.3 19.7 9.6 21.1-1.8 1.9-8.8 1.2-11.1-1.1-3.3-3.3-2.5 0.6 1 4.5 1.6 1.8 2.2 3.3 1.3 3.3-1 0-1.9 1.7-1.9 3.5 0 2.1 0.6 3.4 1.3 2.8 1.9-1.1 3.9 5.8 4.4 15 0.8 11 2.4 15.4 6.5 16.7 7.4 2.4 12.9 17.3 8.1 22.3-2.7 2.7-3.3 2.7-7.5-0.2-3.4-2.1-4.3-2.2-3.4-0.6 5.8 9.9 12 11.5 20.2 5.2 5.7-4.4 6.4-12.8 2-23.3-1.5-3.8-2.4-7.1-2-7.5 0.3-0.5 2.4 3.7 4.6 9.1l3.7 9.9v-7.1c0.2-3.9-0.8-8.7-1.7-10.7-1.3-2.3-1.3-4.7-0.4-6.5 1.3-2.4 2.3-1 3.9 5.5 1.3 5.4 3 8.2 4.1 7.4 1.8-1.1 1.6-5-1.1-17.4-0.6-2.6 0.2-1.8 1.6 1.9l2.6 6.5 0.4-6.5 0.4-6.5 2.4 7.4 2.4 7.4 0.1-7.8c0.2-6.1 0.8-7.6 2.8-6.8 1.5 0.5 3.7 3.3 4.6 5.9l2.1 5-0.8-5.2c-0.5-4.1-0.2-4.6 1.9-3 1.6 1.3 2.6 1.3 2.6 0.2 0-0.9-1.3-2.8-2.8-4-2.2-1.9-2.8-1.9-2.8 0.1 0 1.9-0.5 1.9-2.2 0.2-3.5-3.5-0.2-4.8 5.4-2.4l5.1 2.4-4.4-4.8c-5-5.4-3.3-6.7 2-1.7 1.9 1.7 3.4 2.1 3.4 1.1 0-1.1-1.3-2.9-2.8-4.2-1.5-1.3-2.8-3.2-2.8-4.1 0-1.1 1.3-0.9 2.8 0.4 1.6 1.5 2.8 1.6 2.8 0.3 0-1.1-1.9-3.3-4.1-5l-4.3-3.1 4.7 1.1 4.6 1.3-4.1-3.2c-5-3.5-5.5-7.2-0.9-5.3 2.4 0.9 2.6 0.5 0.9-1.1-1.1-1.2-1.6-3.2-1.1-4.5 0.4-1.3-1.7-5.9-4.8-10.4-6.3-8.5-6.8-11.8-3.7-25.4 1.3-5 1.7-11.1 1.1-13.7-1.8-7.4-12.2-19.1-16.2-18.5-5.4 0.9-4.8-8.6 0.7-10.6 5.7-2.2 9.4-6.9 7.9-10.4-1.2-3.7-7.5-5.9-17.9-6.7-7.5-0.7-8.1-0.3-8.6 4.5-0.4 2.8 0.1 5 1.1 5 1.1 0 2.2 3.9 2.5 8.5l0.6 8.6-5-5.8c-2.9-3.1-5.2-7.2-5.2-9.1 0-4.6 11.3-23.5 12.8-21.3 0.5 0.9 4 1.7 7.6 1.3 3.5-0.2 7.7 0.4 9.4 1.1 1.8 1.1 4.2 0.8 6.4-0.7 3.2-2.4 3-3-2.9-11.2-3.5-4.6-7.6-8.5-8.7-8.5-1.3 0-2.4-0.5-2.4-1.5 0-0.7-2.6-1.4-5.9-1.6-3.1-0.2-6.7-1.3-7.6-2.3-1.3-1.3-4.6 0-9.6 3.6l-7.9 5.3 5.3-14c2.8-7.8 6.5-15.4 8-16.9 2.2-2.2 2.6-1.3 2.4 6.8-0.2 11.2 0.9 12.6 6.3 8.9 2-1.6 5.1-2.4 6.4-1.8 1.5 0.5 2.6 0 2.6-1.3 0-1.1 1.5-1.9 3.3-1.5 2.1 0.4 4.8-0.6 6.7-2 2.6-2.3 2.9-2.3 1.8 0.5-0.9 2.4-0.3 3.2 2.2 2.6 2.4-0.4 3.6 0.6 3.4 2.4-0.2 2.1 1.1 3.2 3.7 3.2 2 0 5.9 0.3 8.5 1.1 2.5 0.5 5.9 0.2 7.3-0.8 2.3-1.4 2.4-2.5 0.2-8.7-3.7-10.5-26.2-58.2-30.4-64.3-2.8-4.1-4.1-10.2-5.2-24.1-1.3-18-3-27.4-6.3-35.2-0.9-2.4-0.7-3.2 0.7-2.2 2.4 1.4 1.9-16.7-0.5-19-0.8-0.7-0.8 0.8-0.2 3.4 1.1 3.9 0.9 4.1-0.7 1.5-1.5-2.4-1.5-4.3 0-7.3 1.6-2.7 1.4-4.4-0.2-6.5-1.9-2.2-1.7-2.4 1.3-1.3 3.1 1.2 3.1 1 0.9-1.8-1.3-1.7-1.9-3.2-0.9-3.2 0.7 0-0.6-2.2-3.2-5-3.3-3.7-3.7-4.6-1.1-3.7 3.9 1.5 4.1-1.1 0.4-4.2-1.5-1.3-2.2-3-1.7-3.9 0.6-1-0.3-2.3-2-2.8-2.4-1.1-2.6-1.7-0.6-2.8 1.9-1.3 1.3-2.6-2.2-5.4-2.9-2.2-3.7-3.7-2-3.7 1.8 0 1.1-1.6-2.2-5.2-2.8-2.7-5-6.1-5-7.4 0-1.3-0.7-2.2-1.9-2.2-0.9 0-4.6-2.6-7.9-5.6-5.3-4.6-7.9-5.5-16.4-5.5-12.4 0-27 4-39.7 11.3-10.9 5.9-13.2 6.7-9.8 2.8 1.8-2.5 0.9-2.6-6.7-2.1-10.9 0.9-12.7 0-22.9-12.2-10-11.9-5.9-10 5.2 2.4 5.2 5.6 9.6 8.9 12 8.7 3.9 0 3.9-0.2 0.4-1.7-2.1-0.7-5.8-3.9-8.3-6.6l-4.7-5.4 4.7 4.1c4.9 4.2 15.7 9 13.8 6.3-1.3-2.3 5.7-4.5 8.7-3 1.3 0.7-2.2-3.3-8.1-9.1-12.4-12.4-12-13.9 0.5-2 8.1 7.6 14.8 11.1 11.6 6.3-0.7-1.5 0-1.7 2.6-0.8 2.6 0.8 0.6-2.2-5.7-8.7-5.3-5.3-6.5-6.8-2.2-3.1 8.7 8.1 18.6 13.3 21.4 11.7 1.5-0.8 1.3-1.7-0.4-2.8-2-1.3-1.6-1.7 1.2-1.7 2.7-0.2 1.8-1.1-3.2-3.9-3.9-2-7-4.1-7-4.6 0-0.4 1.7 0 3.5 1.1 2 0.9 5.9 2.6 8.9 3.7l5.1 1.9-5.5-4.9c-3-2.6-9.2-7.2-13.7-10.2-4.6-2.9-7.4-5.3-6.2-5.3 1.1 0 7.2 3.9 13.4 8.5 9.6 7 24 12.8 24 9.6 0-1.6-21-15.5-27.1-18-4.2-1.8-10.7-2-22.3-1.1-17.6 1.3-21.7 0.2-34.2-9.1-4.3-3.1-8.3-3.8-24-4.2-12.6-0.4-17.6 0-15.2 1.1 3.2 1.5 2.8 1.8-2.7 2-6.7 0.4-6.3 0.8 2 2.6 2.6 0.6 7 3.2 9.6 5.6 2.8 2.6 5 3.9 5 2.8 0-1 3.3 0.7 7.2 4.1 7.6 5.9 14 5.9 8.7 0-1.7-1.9-2.6-3.8-1.9-4.3 0.6-0.6-2.8-2.6-7.6-4.3-4.6-1.8-7.9-3.7-7.5-4.2 0.5-0.4 4.4 0.5 8.8 2.2l8 3.1-4.6-3.7-4.7-3.7 6.5 0.6c6.3 0.5 14.8 3.9 14.8 5.9 0 0.4-2.6-0.5-5.7-2-3.2-1.7-6.1-2.6-6.7-2.3-1.5 1.5 15.2 10.6 19.4 10.6 2.2 0 4.1 0.8 4.1 1.7 0 1.1-2.3 1.1-5.6 0.2-3.3-1-5.5-1-5.5 0.2 0 2.5-2.6 2-6.7-1.3-2.9-2.5-2.9-2.8-0.2-1.9 4.5 1.3 3.9-0.2-0.7-2.8-2.8-1.5-3.5-1.5-2.8 0 0.8 1.1 0.2 2.1-1.1 2.1-1.3 0-0.3 1.6 2.1 3.5 3.3 2.6 3.7 3.7 1.8 4.4-1.5 0.4 0.7 0.6 4.8 0 4.1-0.3 9.4 0 12 1.1 4.6 1.9 4.6 1.9 0.4 1.9-2.4 0.2-3.9 0.9-3.3 1.7 0.3 0.7-2.1 1.1-5.8 0.7-6.1-0.7-6.2-0.5-4.4 3.2 1.3 2 1.7 3.9 0.9 3.9-0.7 0 0.2 1.6 2.1 3.7 1.8 2 2.9 4 2.4 4.6-0.4 0.4-4.5-3-9.1-7.8-7.6-8-7.2-9.3 1.1-2.6 3.7 3 3.7 3 0.4-0.9-2.6-3.2-2.8-4.3-0.9-5 1.3-0.6-0.8-0.8-4.8-0.4-8.5 0.9-14.4-1.7-13.7-6.1 0.4-2-0.6-3-2.4-2.6-1.7 0.2-3.5-0.7-4.1-2.2-3.3-8.4-25.1-11.7-39.1-6-5.9 2.6-6.7 2.6-3.9 0.4 1.8-1.5 8.1-3.7 13.8-5 5.8-1.1 11.1-2.6 12.1-3 3.1-2-3.7-4.2-12.8-4.2-9.4 0-21.2 5.2-21.2 9.2 0 1.2-0.8 1.5-1.9 1-1.1-0.8-1.3 0.2-0.5 2.2 0.5 1.8 0.5 2.8-0.4 2-0.7-0.7-4.2 1-7.4 3.9-5 4.5-8.9 5.8-22.5 7.6-21.8 3-25.7 5-40.3 19.3-6.8 6.7-17.2 14.8-22.9 18.2-15.9 8.9-22 14.1-25.8 21.5-4.1 8.1-8 21.1-5.8 19.8 0.8-0.5 2.1-3.7 2.6-7.4 1.3-6.1 9.1-17.6 12.2-17.6 0.9 0 0.6 2.4-0.5 5.6-1.5 3.8-1.5 10.3 0 24.2 1.8 15.6 1.6 20.2-0.8 28.2-1.5 5.4-3.3 13-4.1 17.1l-1.4 7.4-0.4-8.5c0-4.7 0.7-11.3 1.8-14.7 1.7-4.6 1.7-10.4-0.1-23.9-1.7-13.2-1.7-19.1-0.2-23 1.1-3 1.3-4.8 0.3-4.1-3.8 2.3-6 14.5-4.8 24.9 1.7 13 1.7 16.5 0 32.6-0.9 8.9-0.3 16.5 1.5 24.1 1.9 8.2 2.4 18.9 1.7 41-0.8 29.1-0.8 30.2 3.9 40.4 2.6 5.7 5.3 10.4 5.9 10.4 0.5 0-0.2-2.4-1.7-5.4-5.2-9.8-6.8-22.4-5.5-41.2 0.7-10.1 2-18.3 2.7-18.3 1 0 1.2 6.1 0.6 13.7-1.5 17.4-0.2 24.5 6.8 35.2 6.3 9.3 8 10 13.1 5.4 3.4-3 3.4-3 2.3 0.4-1 2.4-0.8 3 0.7 2 1.3-0.7-0.9 4.8-4.6 12.6-3.9 7.6-7.4 13.6-7.8 13-0.3-0.4 1.9-5.9 5-12.2 6.7-12.6 6.8-16.5 0.4-6.3-2.2 3.7-4.8 6.6-5.7 6.6-1 0-2.3 2.3-2.8 4.9-0.8 2.9-1.7 4-2.6 2.6-0.9-1.5-1.7-0.6-2.6 2.2-1.1 4.1-1.6 3.7-10.3-6-5.2-5.5-8.5-8.1-7.4-5.9 3.1 6.7 14.6 18.6 23.3 24.7 7.3 5 8.1 5.2 9.6 2.2 0.9-1.9 2.2-8.3 2.7-14.3 0.6-5.9 2.1-11.8 3.2-13 1.6-1.4 2-0.7 1.1 3.6-0.6 2.9-1.5 9.4-2.2 14.1-0.6 5.2-4.3 13.9-9.3 22-4.4 7.6-8.1 15.4-8.1 17.6 0.2 3.7 0.2 3.7 2.2 0 1.1-1.8 4.8-7.2 8.3-11.6 7.8-10.4 12-25.1 11.3-39.7-0.4-11 0.2-12.6 6.8-23.4 4.1-6.5 10.2-16.5 13.5-22 7.8-13.4 18.7-28.4 20.3-27.9 0.8 0.2 12-10.7 25.3-24.4l24-24.7 1.1 5.8c1.9 9.2 6.5 14.4 17.2 19.2 9.4 4.5 17.9 13.4 17.8 19-0.2 0.9-1.5-0.4-3-3.4-1.5-2.8-3.5-5-4.6-5-1.1 0-1.3 0.8-0.8 1.9 0.6 0.9 0.2 1.8-0.9 1.8-1.3 0-1.8 1.3-1.1 2.8 0.6 1.7 0 2.8-1.5 2.8-1.4 0-2 2-1.6 5.9l0.5 6.1-1.8-5.3c-4.6-14.7-19.4-27.5-30.1-26.4-2.8 0.4-5.6 0-6.1-0.9-2.4-4.1-26.1 16.1-24.2 21 0.4 1.3-0.9 4.4-3.2 7l-3.8 4.6 4.8-4.2c7-6.1 8.6-5 2.4 1.8-4.1 4.5-4.6 5.4-1.9 4.5 3.7-1.3 3.7-1.1 0.2 2.6-3.5 3.7-3.5 3.9 0.2 2.6 2.9-1.1 2.8-0.6-1.1 3.9-3.3 3.7-3.7 4.8-1.5 4 2.2-0.7 2.8-0.3 2 1.7-0.5 1.3-1.6 2.6-2.5 2.6-1 0-1.7 0.9-1.7 2 0 1.2 1.3 1.7 2.8 1.2 2-1 2.2-0.2 0.9 3.5-2.4 5.9-2.2 6.8 0 5.4 1.6-1.2 2.8 1.6 2 5.3-0.7 3.6 1.9 10.6 3.3 9.5 1-0.4 2.3 2.2 3 5.9 1.1 6.3 1.5 6.7 3.7 3.7 2-2.9 2.4-2.6 3.5 2.6 0.6 3.4 1.7 5.6 2.2 4.8 1.3-1.1 8.1 5.4 8.1 7.8 0 1 1.7 1.3 3.7 0.8 3.2-1 3.7 0 3.9 5.2 0.2 5.9 0.4 5.9 1.7 1.6 1.3-4.2 1.5-4.2 1.8 1.9 0.4 5.9 0.6 6.1 1.7 1.8 1.3-4 1.6-3.3 4.4 6 1.9 5.7 3.9 11.1 4.8 11.6 2.8 1.7 4.1-2 2.2-6.8-1.6-3.9-1.8-3.9-2-0.6l-0.2 3.7-1.6-3.7c-1-2-1.5-5.3-1.5-7.4 0-2.9 0.4-2.8 1.5 0.9 0.7 2.6 1.6 3.4 1.8 1.9 0.2-1.5 1.9 0.6 3.7 4.6 1.8 4.1 3.5 6.2 3.5 4.7 0.2-1.5 2 0.2 4.1 3.7 3.5 5.7 4 6.1 6.3 3.1 2-2.8 2.5-2.9 4.6-0.3 1.3 1.4 2.9 2.7 3.8 2.7 1 0 0-1.6-2-3.7-2-2-3.7-4.8-3.7-5.9 0-1.3 1.3-0.6 2.8 1.7 3.3 4.6 9.2 3.9 12.9-2.1 1.5-2.2 3.9-8.5 5.4-14.1 1.5-5.5 2.7-8.9 2.9-7.4 0.2 1.9 0.8 1.7 1.9-0.9 1.3-3.2 1.6-3 1.6 1.7 0.2 8.5-3.7 19.1-9.4 25.5-2.9 3.4-4.8 4.9-4 3.4 1.3-2.4 0.9-2.4-1.7-0.2-3.9 3.2-0.7 10.4 3.7 8.7 2.6-1.1 2.4-0.5-0.2 3.5-4.4 6.7-7.6 15.6-4.6 12.5 3.7-3.6 5.7-2.6 3.5 1.3-3 5.5-2 18.9 1.7 27 1.8 4.1 7.7 12.8 12.9 19.3 5.2 6.5 10 13.7 10.5 15.9 2.8 11.5-3.1 17.5-10.7 10.8-2.2-1.9-3.3-2.4-2.8-1.1 0.8 1.3 0.2 1.8-1.4 1.7-3.4-0.6-18-14.3-16.7-15.8 0.6-0.4 4.5 2.4 8.5 6.5 7.4 7 7.6 7 4.8 1.7-3.1-6.2-15.7-19.5-18.4-19.5-1 0-0.8 1.5 0.5 3.1 1.3 1.9-1.8-1.1-7-6.3-11.5-11.8-17.2-25.9-18.5-45-0.9-14.1-2.7-20.4-6.1-20.4-0.9 0-0.3 2.8 1.1 5.9 2.3 4.5 2.3 5.2 0.4 3-1.5-1.9-2.9-3.3-3.5-3.3-1.3 0-0.6 8.9 0.9 10.3 0.8 1 0.9 0 0.2-1.8-0.9-2.4-0.7-3.2 0.7-2.2 1.2 0.5 1.7 3.5 1.3 6.3-0.3 2.7-0.7 5.7-0.7 6.6-0.2 1-1.5 0.6-3-0.7-2.2-1.9-2.7-1.9-2.7 0 0 1.7-0.8 1.7-3.2-0.2-2.2-1.7-1.8-0.5 1 3.3 4.4 6.2 7.7 9.3 7.7 6.9 0-0.7-1.5-3.1-3.1-5.2-2.4-2.8-1.9-2.6 1.8 0.6 3.2 2.9 4.3 5 3 5.9-1.5 0.9-1.5 1.5 0 2.4 1.1 0.8 2 2.2 2 3.5 0 1.1-3.3-1.1-7.4-5.2-10.5-10.3-10.5-7.2 0 4.7 11.1 12.4 11.8 15.4 1.9 7.4-8.5-6.7-9.8-5.6-2.4 2.2 2.7 3 3.8 5.2 2.6 5.2-2.1 0-2.1 0.6-0.2 2.8 1.3 1.5 3.1 2.2 4.4 1.5 1.1-0.6 1.5-0.6 0.7 0.3-0.7 0.8-0.3 2.8 0.8 4.5 1.3 1.7-3-2-9.3-8.2-6.2-6.1-11.4-11.3-11.4-11.8 0-0.6 2.6 1.5 5.5 4.4 6.9 6.7 7.2 4.7 0.6-4.2-3.3-4.5-3.9-6-1.7-4.1 3.2 2.4 3.5 2.4 2.6 0-0.4-1.5-2.6-2.8-4.6-3-2.8-0.2-3.7 0.9-3.7 5.4 0 4.1 2.6 8.1 10 16.1 5.3 6 9.8 11.5 9.8 12.6 0 1.1 1.4 3 3.3 3.9 1.7 1.1 2.4 2.1 1.5 2.1-1 0-3.4-1.3-5.2-3.2-1.9-1.7-3.9-2.4-4.4-1.8-0.6 0.5 2.5 3.7 7.4 7 4.6 3.3 8.1 6.5 7.5 6.9-0.9 0.9-15.9-9.9-21.6-15.6-5.7-5.8-3.5-0.2 2.6 6.7 3.3 3.5 4.8 5.3 3.3 4.2-3.3-3.1-6.1-3.1-4.4-0.2 0.7 1.3-3.3-2-9.1-7.4-14.9-14.1-15.3-11.8-0.3 3.7 7.2 7.4 8.7 9.5 3.3 4.5-5.2-4.8-10.5-8.6-12-8-1.3 0.4-3.9-0.4-5.6-2-5.3-4.5-3.8-1.5 1.7 3.5 2.6 2.4 4.1 3.1 3.3 1.7-0.9-1.5 3.9 2.2 10.7 8.1 8.9 7.8 12.1 11.5 10.6 13-1.3 1.3-3.3 0.4-7-3.3-2.8-3-3.9-4.9-2.6-4.1 4.2 2.4 2.2-1.7-2.8-5.2-4.8-3.5-4.8-3.5-3.5 0 0.9 2.4-0.9 1.5-5.7-3-3.9-3.5-5.9-5.2-4.7-3.7 1.2 1.3 2.3 3.3 2.3 4.3 0 0.7-1.1 0.9-2.3 0.2-1.6-1-1.6-0.4 0.2 1.6 3 3.7 4.8 4.3 2.6 0.8-0.7-1.1 3.5 1.8 9.3 6.8 5.7 5 10.5 9.5 10.5 10 0 0.6-1.5-0.3-3.3-2-2.7-2.5-5.1-3.6-5.5-2.9l-4-4.5c-4.8-5.4-6.4-6.3-5.3-2.8 0.4 1.1 2.8 3.3 5.3 5l3.9 2.5q0 0.4 0.6 1.4c2.6 4.1-1.5 1.5-10.2-6.7-5.2-4.8-9.2-7.8-9.2-6.8 0 3.1 7.6 11.8 15.3 17.4 4.1 3 6.7 5.4 5.5 5.4-0.9 0-5.1-3-9.6-6.7-7.2-6.3-12.5-7.6-7.9-2 1.3 1.4 1.7 2.9 1.3 3.5-0.6 0.5 1.8 3.5 5.4 6.7 5.1 4.4 5.9 5.9 3.5 6.6-1.5 0.8-4.1 0.2-5.6-0.9-1.3-1.3-3.1-1.7-3.9-0.7-0.7 0.7 2.1 4.2 6.1 7.7 5.2 4.7 3.2 3.6-7-3.3-25.1-17.4-22.9-16.1-19.7-11.9 3.7 5.1 6.6 7.5 16.4 14.1 4.6 3 7.4 5.4 6.5 5.4-1.2 0-6.1-3-11.1-6.5-5-3.5-9.4-5.5-9.8-4.4-0.4 1.1-2.6 0.2-5-2.2-2.4-2.3-4.4-3.4-4.4-2.3 0 2.6 9.8 11.3 20.7 18.2 12 7.6 11.6 11.9-0.2 5.6-3-1.5-7.6-3-10.4-3.6-2.6-0.5-5.9-1.6-7.2-2.4-1.1-0.7 0 0.4 2.6 2.6 2.6 2.4 5.4 4.3 6.1 4.3 0.9 0 0.9 0.9 0.2 2.2-0.9 1.5-0.4 1.7 1.7 0.9 1.6-0.5 2.9-0.3 2.5 0.6-0.1 0.9 1.3 3 3.4 4.6 3.3 2.8 3.1 2.8-1.9 0-2.9-1.8-6.6-4.4-7.7-6.1-1.3-1.7-2.4-2.2-2.4-1.5 0 0.8-3.9-1.5-8.7-4.6-5.2-3.5-7.6-4.5-5.9-2.4 1.6 1.8 2.6 4.6 2.2 5.7-0.6 1.3 5 6.1 12.7 11.2 7.4 5 13.5 10.1 13.5 11.6 0 1.5 0.7 3.6 1.9 4.3 0.9 0.9-0.2 0.9-2.8 0.4-3.9-1.1-3.7-0.6 1.6 2.7 3.4 2.1 6.7 3.4 7.2 2.8 0.8-0.5 0-1.8-1.4-2.8-2.2-1.4-2.1-1.8 1.1-1.8 2 0 5.3 1.8 7.4 4.1l3.5 4.2-4.1-3.5c-3.7-3-4.2-3.1-4.2-0.5 0 1.4 3.3 5.7 7.5 9.2 4.1 3.5 6.5 6.9 5.4 7.3-2.2 0.7 34.9 25.5 38 25.5 0.8 0-3.7-3.9-9.9-8.5-13-9.6-15.5-13-3.5-4.8 4.2 3 14.5 8.9 23 13.2 8.4 4.2 15.9 9.2 16.9 10.9 0.9 1.7 2 8 2.4 14.1 0.9 10.4 0.7 10.9-4.7 14.3-5.1 2.9-6.1 3.1-11.2 0.3-6.1-2.9-13.1-9.6-13.1-12.2 0-0.7-1.3-2.2-2.8-3.3-2-1.3-1.3-1.5 2.8-1l5.5 1.1-5-2.2c-2.9-1.3-5.2-2.9-5.2-3.9 0-0.7-0.7-0.9-1.8-0.3-0.9 0.5-3.1 0.3-4.8-0.6-2-1.1-2.4-2-0.9-3 1.1-0.7 2-0.7 2 0.2 0 0.8 2 1.7 4.6 1.7 2.8 0.2 4.1-0.4 3.3-1.7-0.7-1.1 0-1.5 2.1-0.7 1.6 0.7 2.7 0.5 2.2-0.4-0.6-0.9-6.5-3.9-13.1-6.7-6.7-2.9-11.7-5.5-11.3-5.9 0.4-0.4 3.9 0.6 7.6 2.2 3.9 1.5 7.4 2.6 7.7 2.2 0.4-0.3-3.7-2.5-8.8-4.8-5.4-2.2-9.3-4.4-8.5-5 0.5-0.5 2.7 0 5 1.1 2.2 1.1 4.4 1.9 4.8 1.3 0.9-0.9-30.1-18-32.4-18-0.5 0.2 1.5 2.3 4.5 4.9l5.5 4.8-5.9-3c-6.5-3.3-9.4-6.7-5.7-6.7 1.3 0 0.4-1.6-2.2-3.7-6.9-5.3-3-4.4 5.5 1.2 9.8 6.4 11.5 4.6 2-2.1-4-2.8-8.6-7-10.3-9.6-3.1-4.7-28.1-17.1-34.9-17.5-2 0-2.8-0.5-1.5-1.1 3.7-1.4 0.6-4.2-4.8-4.4-2.8 0-3.9-0.6-2.6-1.1 3.2-1.3 0.9-4.3-3.5-4.3-1.8 0-3.5-1.3-3.5-2.8 0-1.5-1.3-2.8-2.8-2.8-1.4 0-2.2-1.1-1.6-2.7q1.1-2.5-3.9-3.9c-3.5-1-4.3-1.7-2.6-2.8 1.7-0.9 0.4-2.2-4.1-4.3-3.5-1.6-4.8-2.6-2.9-2 5.3 1.5 3.5-2.2-2.4-4.6-3.2-1.3-6.1-3.2-6.7-4.1-0.7-1.1 0.6-1 2.6 0.2 5.6 2.9 6.9 2.6 3.7-1.3-1.5-1.7-4-6.3-5.9-10.2-1.8-3.9-5.2-7.8-7.7-8.7-5.6-2.3-6-4.5-0.2-2.6 3.7 1.1 3.7 0.7-1.5-5.1-3-3.3-4.1-5-2.2-3.7 1.8 1.5 3.1 1.7 3.1 0.6 0-1.1-2.2-3.7-5-5.9-3.1-2.3-3.7-3.2-1.5-2.1 3.4 1.5 3.9 1.1 3.7-2.8 0-2.6-1.4-5.5-3.1-6.4-1.8-1.2-3.3-2.8-3.3-3.9 0-1.3 0.9-1.1 2.7 0.3 3.9 3.2 3.6 0.6-0.7-4.8-3.5-4.4-3.7-4.6-5.5-0.9-3.2 5.7-2.4 13.5 2.7 30.2 8 25 18.3 43.2 28.3 49 2.6 1.4 3.1 2.4 1.3 1.6-2.6-0.7-3-0.4-1.5 1.3 1.1 1.3 1.9 3.2 1.7 4.3-0.2 0.9 3.9 4.1 8.8 6.8 5.2 2.8 8.5 5.2 7.4 5.2-0.9 0 0.2 1.3 2.8 2.8 2.8 1.7 3.5 2.6 1.8 2.8-5.3 0-23-12.4-29.1-20.6-12.4-16.7-15.6-20.4-16.5-19.5-0.5 0.6 0.8 4.1 3 8 2.2 3.9 2.8 5.2 0.9 3-3.9-5.4-9-5.9-6.3-0.8 1.3 2.6 1.1 3.9-0.5 4.5-1.5 0.7-0.8 2.2 2.4 4.8 2.6 2.1 3.7 3.9 2.4 3.9-3.7 0-1 4.6 5.1 8.2 3.2 1.8 5.2 3.7 4.7 4.2-0.6 0.6-2.3 0-3.9-1.3-1.7-1.5-2.8-1.5-2.8-0.3 0 1.1 0.8 2.4 1.7 2.9 0.7 0.6 1.1 3 0.7 5.4-0.5 2.8 0.4 5.2 2.6 7 3 2.3 3.1 2.3 1.3-0.1-2.2-3.2-2.8-9.3-0.7-9.3 0.7 0 2.4 1.3 3.6 2.8 2.1 2.4 1.9 2.6-1.1 1.6-2.4-0.9-1.4 1 3 6 3.5 3.9 4.6 5.5 2.2 3.7-2.2-2.1-4.6-3-5.3-2.4-1.5 1.6 4.6 8.3 11.4 12.6 3.1 2 4.4 3.5 3.1 3.5-1.2 0-6.4-3.9-11.4-8.5-8.3-7.8-9.1-8.2-10.2-4.5-0.5 2.1-2 3.2-3.1 2.6-5.5-3.5 4.8 9.3 20.1 24.9 20 20.2 17.8 19.4-3.7-1.3-7.9-7.8-13.8-12.5-13.1-10.4 1.3 3.3 1.1 3.3-1.6 1.1-4.5-3.5-3.9 0.4 0.5 4.4 3.7 3.4 3.9 3.4 2.6 0-0.9-2.4-0.7-2.9 0.9-2 1.3 0.9 1.9 2.6 1.3 4.1-0.5 1.3 0 3 1.1 3.7q2 1.1-0.5 2.8c-2.1 1.5-1.9 2.2 0.9 4.4 2 1.5 2.8 2.8 1.7 2.8-2.8 0-6.7-5-5.4-7 0.4-0.9 0-2.1-0.9-3.1 0.2 0.4 0.2 1.2-0.2 1.7-0.3-0.8-0.7-2.6-1.1-2.9-3-2.4-3-2.4-0.4 0.9q1 1.3 1.5 2c-0.4 0.5-1.1 0.8-2 0.4-6.7-2.4 2.4 7.6 15.5 17.5 7.2 5.1 12.5 10 12 10.3-1.1 1.2-14.1-8.7-24.2-18.3l-7.4-6.9v6.9c0 3.7 0.7 8 1.7 9.4 1.1 1.9 0.9 2.3-0.4 1.3-1.3-0.7-2.2-0.5-2.2 0.6 0 0.9 0.7 2.2 1.6 2.8 1 0.5 2.1 2.6 2.6 4.6 0.8 3.2 0.2 3-5.9-1.1-3.7-2.4-6.6-5.2-6.6-5.7-0.2-2.3-6.9-14.1-9.8-17.7-2.2-2.6-2.4-3.1-0.2-3.1 2.2-0.2 2-0.6-0.2-2.4-3.3-2.6-4.1-8.7-1.1-8.7 1.1 0 0-1.7-2.6-3.7-2.8-2.3-3.3-3.4-1.3-2.6 1.7 0.5 3.2 0.3 3.2-0.8 0-1.1-1-2.2-2.3-2.6-1.1-0.3-2.4-2.4-2.5-4.4-0.2-1.9-1.3-9.9-2.3-17.5-1.8-15-8.6-33.3-12.3-33.3-1.3 0-4.5-1.7-7.2-3.9-2.6-2.1-4.8-2.8-4.8-1.7 0 1.1-1 1.5-2.3 0.8-5.7-3.6 4.1 7.9 10.2 12 3.9 2.4 6.5 4.8 5.9 5.4-0.7 0.9-2 0-14.8-9.1-2.9-2-0.7 0.7 5.2 6.5 5.9 5.7 9.6 10.4 8.3 10.4-1.5 0.2-0.9 1.1 1.1 2.8 5.7 4.4-0.3 3.3-6.8-1.3-3.3-2.1-8.7-6.5-12.2-9.7-4.6-4.3-5.7-4.8-4.2-1.8 2.9 5.5 14.7 15.5 22.1 18.7 3.5 1.5 5.9 3 5.4 3.5-0.6 0.6-5.2-1.1-10.6-3.7-5.5-2.8-8.6-3.5-7.3-1.9 3.5 4.1-0.2 3.2-5.6-1.6-2.6-2.2-2-1.3 1.5 2 7.2 7.2 7 9.7-0.2 3.9-2.8-2-5-3.1-5-2.2 0.2 2.2 14.8 12.8 22.2 15.9 4.6 2.1 5.3 3 2.8 3-2.1 0-5-0.7-6.5-1.7-1.9-1.1-4.1-0.9-6.7 1-4.9 3.1-8.6 2.5-13.8-2.1-4.1-3.5-4.1-3.5-2 0.4 2.9 5.5 7.7 9.4 7.7 6.1 0-1.3 3.2 0.7 7 4.5 8.9 8.7 12.4 9 4.1 0.3-3.5-3.5-5.7-6.5-5-6.5 0.7 0 1.7 0 2.2 0 0.6 0 0.8 0.4 0.6 0.8-1.1 1.6 8.3 10.2 13.5 12.4 2.9 1.1 5.1 2.6 4.6 3-0.4 0.5-2.6-0.2-4.8-1.3-6.7-3.6-6.5-0.6 0.2 3.9 3.5 2 4.6 3.3 2.7 2.7-3.7-1.3-3.7-1.3 0 2.8l3.5 4.1-4-2.2c-2.4-1.1-4.3-3-4.3-4.1 0-2.2-16.6-18.2-19-18.4-0.7 0-0.4 1.9 0.7 4.3 4.1 7.6-3.3-0.2-12.3-12.8-9.4-13.3-16.5-29.3-18.3-41.9-0.8-4.8-2-8.3-3-7.8-0.9 0.6-1.3 2.8-0.9 5 3 14.9 3 16.5 0 15.4-2.4-0.9-2.8-0.2-2.2 3.5q1.7 7.8-3.9 2.3c-2-1.9-2.2-1.5-0.5 1.6 1.1 2.1 3.3 4.9 4.8 6.3 1.6 1.3 2.9 3.2 2.9 4.3 0 1.1-2.6-0.4-5.9-3.5l-5.9-5.4 5.9 7.6c7.2 9.3 7.6 11.5 1.1 5-4.8-4.8-8.7-4.6-4.6 0.2 1.7 2 1.8 3.7 0.4 6.5-1.7 3-1.1 4.6 2.2 8.9 8.7 10.9 9.8 12.8 4.2 8-2.9-2.6-4.6-3.4-3.8-1.9 5.1 9.5 14 19.5 24.5 28.2 17.2 13.9 18.3 14.8 15.5 13.5-1.3-0.7-8.5-5.7-15.7-11.3-15.1-11.5-19.5-13-10.7-3.7 5.7 5.9 5.9 6.3 1.9 5.4-6.1-1.5-30.5-27.1-47.7-50.3-36-47.8-59.5-103.2-69.8-164.6-4.4-27.1-4.4-86.2 0.2-112.9 9.8-58.4 30.8-109.9 64.4-157.6 17.2-24.5 59.1-66.5 83.5-83.8 54.9-38.7 114-61 182-67.8 3.5-0.4 16.6-1 29.1-1zm-154.9 622q-0.1-0.1-0.2-0.3 0.1 0.2 0.2 0.3zm175.4-500c-2.6 0-2 1.3 1.3 2.6 1.5 0.6 2.2 0.4 1.7-0.7-0.6-1.1-1.9-1.9-3-1.9zm-175.6 499.7q0 0 0-0.1 0 0 0 0 0 0.1 0 0.1zm197.1-495.6c-3 0-4.1 0.4-2.3 0.9 1.7 0.4 4.3 0.4 5.6 0 1.1-0.5-0.2-0.9-3.3-0.9zm66.5 18.4c-2.1-0.2-20.9 8.7-19.3 8.9 0.8 0.1 5.8-1.9 11.1-4.3 5.6-2.6 9.3-4.6 8.2-4.6zm-276 72.1c-1.1 0-2 3.1-2 6.8-0.2 3.9-1.3 12.1-2.8 18.2-3.9 15.8-3.3 27.1 1.9 47.1 2.5 9.6 4.6 18.9 4.6 20.8 0 3.7-7.4 20.7-8.5 19.6-0.4-0.4 0.5-6.1 2.4-12.6l2.9-11.9-5.9-18.7c-5.5-17.2-5.9-19.5-4-29.5 2.2-12.2 2.7-37.4 0.7-35.4-1.3 1.1-2.2 8.9-5.4 40.4-1.1 10.8-0.5 13.9 3.7 24.5 5 13 6.1 23 2.8 29.1-2.8 5.2-5.3 2.6-5.3-5.4 0-6.4-8.9-36.5-10.4-35-0.4 0.4 0.2 3.5 1.3 7 0.9 3.6 2.6 13.4 3.7 22.1 2.4 21.7 3.7 27.8 5.5 27.8 1 0 1.7-1.7 1.7-3.9 0-2 0.9-3.1 1.8-2.6 1.2 0.6 1.9 3.2 1.9 5.6 0 6.8 6.8 23.4 12.2 29.7l4.8 5.5-3.9-5.7c-2-3.2-4.8-9.7-6.1-14.5-2-7.6-1.8-9.8 0.9-17.4 7.4-19.3 7.6-21.7 3.2-38.2-4.3-16-4.3-20.2-0.8-60.1 0.8-9.2 0.6-13.3-0.9-13.3zm-17.5 14.8c-2.1 0-10.6 22.4-11.3 30l-1.1 9.9 5.4-11.2c2.9-6.3 5.7-15.2 6.2-20 0.6-4.8 1-8.7 0.8-8.7zm92.7 74.3c-9.1 14-9.2 41.2-0.8 56.8 5.8 10.2 5.6 12-0.5 3.3-5.7-8.5-9.1-18.7-9.8-30-0.7-13.7-3.3-10-3.3 5 0 16.5 3.9 26.5 12.7 32.6 7.4 5 6.5 5.9-1.5 1.9-6-3.2-10.9-10.2-14.4-20.6l-2.4-7.4 1 8.3c0.5 4.7 1.4 11.7 2 15.8 2.6 19.6 0.2 36.9-6.1 42.1-2.4 1.8-2.4 1.3 0.4-3 4.6-7 5.9-32.3 2.2-43.8l-2.8-8.3 0.2 19.5c0.4 22.4-1.7 27.2-16.3 39.5-11 9.4-10.7 6.4 0.8-4.1 8.1-7.8 9.2-9.7 11.1-20.8 2.4-14.4 2.6-36.1 0.2-30.4-0.8 2-2.6 11.1-3.7 20-2.1 14.1-3.2 17.5-8.5 24.1-10.9 13.6-14.3 21.4-13.2 30.6 0.6 5.2 2.4 9.7 5 12.3l4.1 3.9-2-4.1c-3.2-6.1-2.4-15.8 1.6-21 3.9-5.2 6.9-4.1 3.9 1.5-3.7 7.1-2.4 18.2 2.8 24.3 5.3 6.5 19 11.3 31.4 11.3 8.1 0 13.6-3.5 5.9-3.9-3.7 0-3.7-0.4 1.3-2l5.5-2.1-6.4-2.6c-4.7-1.6-5.2-2.2-1.5-1.4 2.6 0.5 6.8 0.1 9-0.6 3.7-1.5 3.5-1.7-2.7-2.8-13.7-2.2-25.2-14.1-25.2-25.8 0-7.2 3-9.4 3.2-2.4 0.3 10.8 12.2 23.2 22.1 23.2 2.4 0 1.7-1.3-3.1-5.2-3.5-2.8-8.3-7-10.7-9.6-5-5.2-4.8-8.9 0.7-30.8l3.4-13.2 5.9 3.6c5.9 3.5 5.9 3.5 2.9 9.2-1.5 3.4-3.1 9.7-3.7 14.5-0.7 7.6-0.2 9.1 5.4 14.5 3.3 3.3 7.2 5.9 8.8 5.9 1.5 0 2.1 0.5 1.5 1.1-2 2-12.2-3.2-16-8.2-2.8-3.3-3.7-7.6-3.9-16.8l-0.2-12.3-3 8.9c-2.5 8-2.5 9.9-0.1 16.7 3.8 11.1 12 16.1 26.4 16 8.5-0.2 10.1-0.6 6.6-1.7l-4.6-1.5 5-0.2c7-0.2 8.5-3.9 1.6-3.9-17.5 0-26.2-12.4-20.3-29.3 2.4-7.2 5.4-5.9 5.4 2.3 0 7 5.7 15.4 12.4 17.9 7.3 2.8 8.1 0.2 1.8-6.3-3.3-3.3-4.4-4.6-2.4-2.9q9.1 7.2 16.6 7.2c6.7 0 6.1-3.1-0.9-4.6-7.8-1.7-17.5-11-20.1-18.8-1.3-3.7-1.9-7-1.3-7.6 0.5-0.5 2 2.5 3.1 6.5 1.1 4.9 3.9 9.1 7.4 11.5 6.3 4.5 20.3 9.9 20.3 7.6 0-0.7-3.1-2.2-6.8-3.1-3.9-0.9-6.8-2.8-6.7-4.1 0.4-1.1-1.4-5-3.8-8.5-2.4-3.6-4.8-9.9-5.6-13.7-0.9-6.4-2.4-8.2-9.2-12.3-10-5.7-16.6-13.5-19.6-22.6-3.1-9.5-0.9-34.7 3.7-44.1 4.8-9.9 3.7-10.2-2.2-1zm3.3 25.6l-2.4-17.4-0.4 12.4c-0.1 14.1 4.8 30.2 11.3 36 3.5 3.1 3.3 2.6-1.1-5-3.3-5.9-5.5-13.9-7.4-26zm97.9 65.7c-5.4 11.5-5.4 11.8-1.3 6.8 2-2.6 4.3-6.7 4.8-9.1 1.9-7 0.2-6.1-3.5 2.3zm-47.3-2.4c-0.9-1.5-1.8-2.1-1.8-1 0 1 0.9 3.2 1.8 4.7 0.9 1.4 1.9 1.8 1.9 0.9 0-1.1-1-3.2-1.9-4.6zm61.9 26.3c-1.1-1.1-2.8 8.1-2.6 14.4 0.2 5 0.6 4.1 1.7-3.7 0.9-5.5 1.3-10.4 0.9-10.7zm80.3 5.4c-5.7-4.1-5.5-3.6 1.9 3.5 9.2 9.1 14.9 11.7 10.5 5-1.5-2.2-3.3-4.1-4.2-4.1-1 0-4.7-2-8.2-4.4zm-261.1 10.3l-3-9.6 0.9 9.3c2.1 20.2 11.9 30.7 28.1 30.4h7l-8.6-2.8c-6-1.9-10.8-5-15-10.2-3.5-4.1-7.8-11.7-9.4-17.1zm114.1-6.8c-1.5 0-0.5 1.5 2.6 3.9 2.8 2.4 3 2.2 0.6-0.8-1.3-1.6-2.8-3.1-3.2-3.1zm58.9 8.3l-0.9-3.7c-0.5-2-1.1 0.4-1.3 5.6-0.2 10.4 4.4 22 12.2 31.3 2.6 3.2 6.5 9.1 8.3 13.2l3.5 7.4-0.9-7.2c-0.6-4.3-4.8-13-10.3-21.6-9.1-13.7-9.5-15-8.5-23.5 0.7-5.7 0.5-7.6-0.6-5.2zm77 3.7c-0.9-0.5-1.8-0.4-1.8 0.8 0 0.9 0.9 2.4 1.8 2.9 1.1 0.6 1.9 0.4 1.9-0.7 0-0.9-0.8-2.4-1.9-3zm-1.1 12.1c-0.3 0-0.7 0.7-0.7 1.8 0 1 0.9 1.9 2 1.9 0.9 0 1.3-0.9 0.8-1.9-0.6-1.1-1.5-1.8-2.1-1.8zm-146.6 11.6c-3-3.3-5.6-5.3-5.6-4.4 0 0.9 1 2.4 1.9 3 1.1 0.5 1.8 2 1.8 3.1 0 1.1-1.3 0.9-3.1-0.5-2.8-2.4-2.8-2.3-0.4 1.4 1.5 2.5 3 4.3 3.5 4.5 0.6 0 2.4 0.4 4.3 0.7 1.6 0.4 3.1 0.2 3.1-0.3 0-0.6-2.4-3.9-5.5-7.5zm4 10.6c-0.5 0 0.6 1.7 2.4 3.7 1.9 2.1 3.7 3.7 4.3 3.7 0.5 0-0.6-1.6-2.4-3.7-1.9-2-3.7-3.7-4.3-3.7zm91.5 9.7c-0.6-1.7-1-0.2-1 3.3 0 3.5 0.4 5 1 3.1 0.3-1.6 0.3-4.6 0-6.4zm-230 1.8c-2.9 3-2.8 5.2 0.6 5.2 1.4 0 2.7-1.7 2.7-3.7 0-4.3-0.3-4.5-3.3-1.5zm273.2-2.2c-0.6 0 1.8 3 5.3 6.5 3.5 3.5 6.7 6.5 7.2 6.5 0.6 0-1.8-3-5.3-6.5-3.5-3.5-6.7-6.5-7.2-6.5zm-279.1 10c0 1.7 1.3 3 3 3 1.6 0 2.5-1 2.2-2.3-1.1-3.3-5.2-3.9-5.2-0.7zm239.4-0.2c-0.6-0.7-1.1 0.4-1 2.4 0 2.1 0.6 2.6 1.2 1.1 0.5-1.3 0.3-2.9-0.2-3.5zm-238.8 5.2c-3.4-4.1-3.6-4.1-6.3-0.7-8 8.9-8.1 14.8-0.9 20.9 3.8 3 3.6 0.2-0.2-5.6-1.7-2.5-1.9-3.5-0.6-2.4 1.5 1.3 3.5 2.4 4.6 2.4 2.6 0 3.4-8.7 1-10.1-1.2-0.6-1.9-2.1-1.9-3.4 0-1.1 1.1-0.4 2.6 1.7 1.5 1.8 3.1 3 3.7 2.4 0.7-0.6-0.4-3-2-5.2zm295.3 1.3c-1.5-1.5-1.7-0.7-0.9 2.4 0.7 2.4 1.4 3.3 2 1.9 0.4-1.3-0.2-3.4-1.1-4.3zm-157 10q0-0.1 0.1-0.1l0.4 0.5zm125.3-9.3c0 0.7 3.3 6.5 7.3 12.8 4.1 6.3 7.4 10.4 7.4 8.9 0-1.5-1.6-5.2-3.5-8.2-5-7.6-11.2-15.2-11.2-13.5zm-116.8 5.2c-4-2.3-4-2.3-1.1 1.1 1.9 1.8 3.7 2.8 4.5 2.2 0.5-0.7-1-2.2-3.4-3.3zm133.6-1.9c-2.8 0-4.1 9.1-2.1 13 1.1 2 1.5 5.9 1 8.7-0.8 4.3-0.8 4.5 0.7 1.5 1.7-3.5 1.8-3.5 1.8 0.4 0.2 2.2-1.2 4.8-2.9 5.9-1.9 0.9-2.6 2.4-1.9 3.1 2.1 2.3 5.2-1.8 6.9-8.9l1.5-6.1 0.1 6c0.2 6.3-7.2 16.5-8.6 12-0.4-1.1-2.1-1.5-3.7-0.9-2.8 1.1-2.8 0.7 0.1-2.6 3.7-4.1 3.7-11.9 0.2-13-1.3-0.4-1.8 1.1-1.3 4.1 0.6 2.6 0 5.9-1.3 7.4-2.5 3.2-8.5 3.7-9.9 1.1-0.8-0.9 0.5-1.3 2.7-0.7 4.1 1.1 7.2-1.9 7.2-6.7 0-2-0.7-1.7-2.5 0.9-2.3 2.8-3.4 3.2-6.1 1.5-4.5-2.8-8 0.9-7.8 8l0.2 5.2 1.5-4.7c1.3-4.2 1.4-4.2 1.6-0.7 0.2 5.2 4.1 6.9 17.2 7.2 7.4 0.2 10.9-0.5 11.5-2.2 0.5-1.3 0.1-2.4-0.8-2.4-0.9 0-0.3-3 1.1-6.9 3.2-7.2 2.4-16.1-2.2-25-1.5-2.8-3.3-5.2-4.2-5.2zm-21.1 6.5l-4.6-5.6 0.4 5.6c0.3 5.4 4.6 15.2 4.8 10.8 0-1.2-0.8-2.8-1.9-3.4-0.9-0.5-1.8-2-1.8-3.1 0-2.6 7 3.7 9.8 8.7 1.6 3.3 1.6 3.5-1.1 1.1-2.8-2.2-3.2-2-3.2 1.5 0 2 1.1 3.9 2.6 3.9 3.9 0 5.2-5.6 2.2-10-1.5-2.3-4.8-6.3-7.2-9.5zm-269.1 9.5c-4.4-4.7-5-2.1-0.5 3.3 1.8 2.2 2 2.8 0.5 1.5-3.9-3.4-5.9-2.6-3.7 1.5 2.4 4.4 4.8 4.8 6.3 0.5 0.7-1.8-0.2-4.6-2.6-6.8zm130.4-0.4c1.1 2.8 8.7 8.5 11.3 8.5 0.5 0-1.1-2.6-4.1-5.5-5.7-6-8.9-7.3-7.2-3zm196.9-2.2c-4.4-0.8-5.6 2.7-1.5 4.4 1.9 0.8 2.4 3 1.9 6.9-1 5.9 5.5 19.6 7.9 17.2 0.7-0.5 2.8 0.2 4.6 2.1 5.9 5.3 6.1 0.7 0.2-6.5-3.1-3.9-6.5-10.8-7.4-15.4-1.3-6.5-2.4-8.4-5.7-8.7zm-8.5 6.5c-0.7 3.5-0.6 7.4 0.7 9.6 2.8 5.4 3.2 5 2.2-3.2-1.1-11.6-1.4-12.6-2.9-6.4zm23.6-2.8c-2-2.6-2.2-1.9-1.3 5.2 1.3 10.3 1.7 10.9 2.8 3.7 0.6-3.2-0.2-7.1-1.5-8.9zm-2.9 6.1c-0.8-4.1-3.3-1.5-3.3 3.5 0 2.6 0.5 3.2 2 1.7 1.1-1.1 1.6-3.5 1.3-5.2zm9-2.8c-1.6 0-3.3 9.7-2.2 13.2 1.5 4.6 4.6 4.4 4.6-0.4 0-2-0.7-3.3-1.4-2.8-1 0.6-1.2-1.5-0.8-4.6 0.4-3 0.4-5.4-0.2-5.4zm-389.7 12.4c-0.5-1.1-0.9-0.2-0.9 2.4 0 2.6 0.4 3.6 0.9 2.3 0.4-1.1 0.4-3.4 0-4.7zm365.9 6.7c-3.9-3.7-7-5.7-7-4.4 0 4.2 3.7 9 10 12.9 8.1 5.2 11.4 13.9 7.5 20.1-2.7 4-2.6 4.2 1.9 4.2 5.7 0 8.5-5.9 6.3-13.7-1.7-5.9-6.7-12.2-9.8-12.2-1 0-5-3.2-8.9-6.9zm-16.1-2.4c0 1.5 0.8 4.1 1.7 5.6 0.9 1.4 1.7 1.8 1.7 0.9-0.2-3.5-3.4-9.5-3.4-6.5zm0 8c-1.1-1.9-2-2.6-2-1.5 0 0.9-1.3 5.9-2.8 11.1-1.6 5.6-2 8.4-0.7 7.1 1.1-1.2 2.8-4.9 3.5-8.4l1.5-6.1 0.2 5.6c0.1 3.1-1.1 7.6-2.8 10-2.6 3.5-2.6 4.6-0.6 5.9 6.5 4.1 13 0.2 12.6-7.6-0.2-3.7-0.4-3.9-1.1-0.9-1.7 6.8-4.4 7.6-3.3 0.9l0.9-6.5-1.9 5.9c-1.1 3.4-2.9 6.5-4 7.3-1.5 0.9-1.7 0.3-0.6-2.3 0.8-1.8 1.9-6.4 2.4-10.3 0.4-3.7-0.2-8.4-1.3-10.2zm-318.4 6.8c-1.3 0 0.2 2.3 3 4.7 2.7 2.6 6.1 4.6 7.4 4.6 1.3 0-0.2-2.2-3-4.6-2.8-2.6-6.1-4.7-7.4-4.7zm108.8 2.1c0.6 1.1 2.4 1.5 3.9 0.9 1.5-0.6 2-0.2 1.5 0.7-1.1 1.9 15.1 13 19.2 13 2 0 1.6-0.7-1-3-1.8-1.4-2.4-2.4-1.1-1.6 1.1 0.5 2.3 0.7 2.3 0.4 0-0.6-3.9-3.4-8.7-6.2-8.9-5.3-18.3-7.8-16.1-4.2zm254 13.7c-1-5.4-1.7-6.5-2.6-4.1-1.1 3 1.6 13.9 3.1 12.2 0.4-0.3 0.2-4-0.5-8.1zm-76.7 6.5c-1.6 0-2.4 10.4-0.9 13 1.1 1.8 1.5 0.3 1.7-5.2 0-4.3-0.4-7.8-0.8-7.8zm-135 11.1c-3.5-3.5-6.5-5.4-6.5-4.4 0 2.4 10.7 12.7 12 11.6 0.4-0.5-2-3.9-5.5-7.2zm139.4-4.6c-1.2-0.8-1.4 0.5-0.7 4 1.7 7.1 2.6 7.8 2.6 1.9 0-2.6-0.9-5.4-1.9-5.9zm5.6 5.5c-2.4-1.5-2.4 4.7 0 8.4 1.5 2.2 1.8 1.6 1.8-2.3 0-2.7-0.7-5.5-1.8-6.1zm9 6.5c-2.2 0-0.5 10.2 2.4 14.8 1.3 2.1 1.5 1.5 0.8-1.8-0.6-2.6-1.1-6.5-1.1-8.9 0-2.2-1-4.1-2.1-4.1zm-143.8 8.4c0 0.3 3.3 2.6 7.3 4.6 9.1 4.6 9.8 3.5 1.2-1.7-6.1-3.9-8.5-4.6-8.5-2.9z"/><path class="a" d="m255.6 371.9c0.9 1.9 3.3 4.7 5 6.2 2 1.6 1.6 0.3-1.1-3.6-4.8-6.5-6.7-7.8-3.9-2.6z"/><path class="a" d="m279.8 375.6c0 1.9 9.2 6.5 10.5 5.2 0.6-0.3-1.6-2.2-4.8-3.9-3.1-1.4-5.7-2.2-5.7-1.3z"/><path class="a" d="m267.6 382.3c2 1.7 4.4 3 5.5 3 2.3 0 1.3-0.9-4.4-3.5-4.4-2.1-4.4-2.1-1.1 0.5z"/><path class="a" d="m259.9 389c0 3.5 0.3 5 0.9 3.1 0.3-1.6 0.3-4.6 0-6.4-0.6-1.7-0.9-0.2-0.9 3.3z"/><path class="a" d="m293.8 388.1c0.8 2.9 2.1 6.8 2.8 8.3 1.1 1.9 1.3 0.7 0.6-2.8-0.8-3.1-2.1-6.8-2.8-8.3-1.1-1.9-1.3-0.8-0.6 2.8z"/><path class="a" d="m279.4 388.4c1.3 0.6 3 0.4 3.5-0.2 0.8-0.5-0.3-1.1-2.4-0.9-2 0-2.6 0.6-1.1 1.1z"/><path class="a" d="m287.2 400.1c0.9 3.4 2.2 6.5 2.9 7.2 1.7 1.7-1.3-9.8-3.1-11.6-0.9-1-0.7 0.9 0.2 4.4z"/><path class="a" d="m258 400.1c0 2.6 0.4 3.5 0.9 2.2 0.4-1.1 0.4-3.3 0-4.6-0.5-1.1-0.9-0.2-0.9 2.4z"/><path class="a" d="m301 403.8c1.9 2.1 3.7 3.7 4.3 3.7 0.5 0-0.6-1.6-2.4-3.7-1.9-2-3.7-3.7-4.3-3.7-0.5 0 0.6 1.7 2.4 3.7z"/><path class="a" d="m236.4 420.5c-0.6 1.1 0.2 1.3 1.6 0.7 3.4-1.2 3.9-2.5 1.3-2.5-1.1 0-2.4 0.7-2.9 1.8z"/><path class="a" d="m246.7 431.3c-0.1 7 0.8 9 6.1 14.4 3.5 3.5 7.4 6.3 8.9 6.3 1.3 0-0.2-1.6-3.3-3.5-7.4-4.6-8.7-6.7-10.2-16.9l-1.1-8.3z"/><path class="a" d="m234 433.3c-3.1 8.7-2.8 10.2 2.4 16.5 5 5.9 21.4 12.4 26.4 10.6 2.2-0.8 1.5-2.1-3.5-4.9-9.4-5.7-14.4-12.7-14.6-20.2 0-5.2-0.5-5.7-1.8-3.3-3.6 5.9 2.9 17.1 13.8 24.1 5 3.3 5.2 3.5 0.9 2.4-11.4-3.1-18.4-11.5-20.3-23.9l-1.1-7.6z"/><path class="a" d="m474.8 434c0.6 1.9 1.7 2.8 2.2 2.3 0.6-0.6 0-2.1-1.3-3.4-1.8-1.6-2-1.5-0.9 1.1z"/><path class="a" d="m160.8 508.6c0.8 1.5 1.9 2.8 2.8 2.8 0.8 0 1.1-1.3 0.6-2.8-0.8-1.5-1.9-2.8-2.8-2.8-0.7 0-1.1 1.3-0.6 2.8z"/><path class="a" d="m446 512.5c0.2 2.9 5.4 11.1 5.4 8.1 0-1.5-1.1-4.4-2.6-6.3-1.5-2-2.8-2.9-2.8-1.8z"/><path class="a" d="m265 562.1c0 0.6 1.7 1.9 3.7 3 2 1.1 3.7 1.5 3.7 1.1 0-0.5-1.7-1.8-3.7-2.9-2-1.2-3.7-1.5-3.7-1.2z"/><path class="a" d="m322.6 116.5c0 2.6 0.4 3.5 1 2.2 0.3-1.1 0.3-3.4 0-4.7-0.6-1.1-1-0.1-1 2.5z"/><path class="a" d="m334.8 114c-1.8 0.4-3.3 1.5-3.3 2.5 0 1.4 10.5-1.2 12.8-3 1.1-0.9-5.4-0.6-9.5 0.5z"/><path class="a" d="m358.3 115.5c9.4 3.6 12.4 3.4 6.4 0-2.5-1.5-6.6-2.6-9.2-2.6-3.7 0-3.1 0.6 2.8 2.6z"/><path class="a" d="m316.2 115.9c-0.8 0.6-1.3 2-1.3 3.2 0 1.1 0.9 0.9 2.2-0.4 1.1-1.1 1.7-2.6 1.3-3.2-0.6-0.5-1.7-0.3-2.2 0.4z"/><path class="a" d="m337.2 118.5c-2.4 0.9-3.8 2.2-3.3 2.8 0.6 0.5 2.6 0.2 4.6-0.9 7.4-3.9 16.5-2.5 23.7 3.8 3.8 3.4 6.4 4.9 5.9 3.4-2.8-8.4-20-13.6-30.9-9.1z"/><path fill-rule="evenodd" class="a" d="m358.7 124.6c3.6 3.4 4.6 5.2 3.1 6.7-1.5 1.5-2.6 1.3-4.4-0.9-1.3-1.5-3.2-2.8-4.3-2.8-1.1 0 0 2 2.4 4.6 2.2 2.4 5 4.1 5.7 3.5 1-0.5 1.7 1 1.7 3.4-0.2 4.2-0.2 4.2-3.9-0.8-2-2.7-7-6.8-11.1-9.2-7.2-4.1-7.2-4.1-3.1-6.5 6.1-3.4 7.9-3 13.9 2zm-8.9-0.9c1.3 0.9 1.6 2 0.9 2.4-0.9 0.6-0.5 0.6 0.9 0.2 1.3-0.4 3.7 0.4 5 1.5 1.9 1.5 2.6 1.5 2.6 0.2 0-1.2-1.7-3-3.5-4.1-4.6-2.4-9.8-2.6-5.9-0.2z"/><path class="a" d="m421.1 122c0.5 0.9 2.4 1.9 3.9 1.9 1.4 0 7.2 4.1 12.5 9.2 10.7 10.2 16.1 12.6 7.4 3.6-8.3-8.9-27.5-20.8-23.8-14.7z"/><path class="a" d="m330 123.9c0.4 1.5 4.5 4.1 9.1 5.9 9 3.9 8.1 2.4-2.8-4.1-4.4-2.8-6.8-3.3-6.3-1.8z"/><path class="a" d="m442.7 124.4c1.6 1.3 4.8 4.5 7 7.1l3.9 4.4-3.2-5.2c-1.6-2.7-4.8-5.9-7-7-3.5-1.7-3.5-1.7-0.7 0.7z"/><path class="a" d="m307.1 124.8c-0.5 0.6-4.6 1.9-9 2.8l-8.2 1.7 8.9-0.8c9.1-0.9 18.5-4.4 12.2-4.6-1.7 0-3.3 0.3-3.9 0.9z"/><path fill-rule="evenodd" class="a" d="m330.2 128.3c3.3 2.4 8.9 5.8 12.4 7.6 3.5 1.9 8.3 5 10.7 7.1 2.2 2 4.1 3.1 4.1 2.2 0-0.9-1.9-3.9-4.1-6.5-2.4-2.6-0.7-1.3 3.7 3.2 4.4 4.4 8.7 7.6 9.6 7 0.7-0.4 3.3 1.9 5.7 5.4 2.2 3.3 7.4 8.1 11.1 10.5 10 6.2 7.6 6.5-4.8 0.6-7-3.5-12-7.4-15.1-12.2-2.6-3.9-4.8-7.1-5-7.1-0.4 0 0 8 0.5 12.4 0 1.2 2.8 4.5 5.9 7.5 6.9 6.3 9.3 10.5 11.1 19.1 1.5 6.4 1.5 6.4 1.1-1.3-0.2-4.3 0.2-7.3 1-6.9 0.9 0.6 1.6 3.1 1.6 5.9l0.2 5 1.5-5.5c1.1-4.3 1.5-4.7 1.6-1.5 0 2.2 1.2 4.6 2.4 5.4 1.5 0.9 1.7 0.3 1-1.7-0.6-1.9-0.4-3.2 0.5-3.2 1.1 0 1.9 0.8 1.9 1.9 0 0.9 2-0.4 4.6-3 2.6-2.6 4.6-5 4.6-5.3 0-0.6-3.3-1-7.4-1-4 0-10.1-1.1-13.5-2.6-6.4-2.7-15.5-11.5-13.8-13.3 0.7-0.6 2 0.7 3.1 2.8 3.2 5.7 12.2 9.6 25.9 11.3 9 1.3 13.1 0.9 17-1.1 7.7-3.9 7.9-6 0.9-10.2-3.7-2.3-6.7-4.7-6.7-5.6 0-0.7 3.9 1.1 8.5 4.1 9.6 6.7 13.2 6.1 4.5-0.4-3.2-2.4-11.1-9.1-17.4-14.8-6.5-5.8-13.5-11.1-15.7-11.9-2-0.5-3.9-2-3.9-2.9 0-3.2 15.2 6.3 20.2 12.7 6.8 8.6 27.1 19.5 33.8 18.2 2.7-0.5 5.5-0.2 6.1 0.9 1.4 2.3-33.8 18.9-36.4 17.3-1.1-0.8-1.5-0.4-0.9 0.5 0.7 1.1-4.7 5.6-12.2 10-18.1 11-40.7 27.1-53.6 38.6-5.9 5.2-11.5 9.5-12.4 9.5-0.9 0-1.1-4.5-0.5-9.9 0.7-7.6 0.2-11.8-2.8-18.5-2.2-4.8-3.5-8.7-3.1-8.7 1.6 0 6.8 11.7 8.3 19.1 1.6 7 1.6 6.8 1.1-3.7-0.6-9.3-2.2-14.3-8.3-25.1-4.1-7.4-7.6-12.2-7.8-10.7-0.5 5.4 0.6 10 3.3 14.6l2.8 4.9-3.9-4.5c-6.4-7.2-6.3-3.5 0.6 9.3 3.3 6.5 6.6 14.3 7.2 17.4 1.1 5.4 1.1 5.4-0.8 0.9-7.5-17.8-14.4-27.6-12-17.4 1 4.1 0.8 4.6-0.7 2.2-1.1-1.6-1.7-5.3-1.5-8.3 0.8-10.2-0.3-21-2-21-1.1 0-1.9 1.5-1.9 3.2 0 1.8-0.5 7.2-1.2 12-1 7.3-0.6 9.7 3.1 14.9 3.9 5.3 4.4 7.9 4.2 22.4-0.3 15 0 16.1 2.8 13.7 9.6-8.1 6.5-3.5-6.3 10l-14.7 15.4 15.3-14.3c8.5-7.7 16.2-14.2 17.2-14.2 0.7 0-6.5 7.9-16.5 18-9.8 9.8-19 17.6-20.3 17.4-1.5-0.2-3.7 0.5-5.2 1.8-3.5 2.8-3.3-0.1 0.2-12 1.5-5 2.8-11.7 2.6-14.8-0.2-3.6-1.1-1-2.8 7-1.3 6.9-4.2 15.9-6.2 20.2-2.4 4.5-3.2 7.8-2.1 8.5 0.9 0.6-3.3 8-9.6 16.5-10.3 13.9-11.6 15.1-12.7 11.2-2.4-8.8-1.3-18 3.3-30.4 4.1-10.8 4.6-14.7 3.7-24.5-1.5-16.1-4.1-20.4-5.7-9.3-0.8 4.8-1 9.8-0.4 11.1 0.6 1.3 1.1-0.9 1.3-5l0.4-7.4 1.4 6.3c1 3.5 1.1 9.5 0.6 13-1.1 6.7-5.4 16.9-7.2 16.9-0.4 0 0.4-2.4 2-5.6 1.5-3 2.8-7.2 2.6-9.6 0-3.6-0.5-3.2-2.8 2.2l-2.5 6.5 1.1-8.9c1.4-13-2.3-10.8-4.7 2.8l-1.8 11.6 0.9-11.1c0.8-8.9 0.4-10.6-1.5-8.7-1.2 1.3-2.7 7.2-3.3 13l-1.1 10.5-2.4-8.3c-1.3-4.6-2-12.4-1.5-17.4 0.8-7.6 1.9-10.2 7.1-14.5 3.5-2.9 8.4-7.2 11-9.4l4.8-4.1 2.1 12.6c2.7 15.7 2.7 24.1 0 33-2.4 8.1 0.7 23.2 4.2 20.9 1.3-0.7 1.3-1.8 0-3.1-3.3-3.3-2.4-10.8 2.6-21.3 3.1-7.1 4.6-13 4.4-19.5l-0.2-9.6-1.8 8.3c-3 13.9-4.2 11.9-4.6-7.4l-0.4-18.2 4.4 4.5c5.6 5.5 7.4 5.5 13.3-0.4 4.1-4.1 4.7-5.9 3.7-13.4-0.3-4.8-1.3-10.3-2-12.4-0.5-2 0-1.3 1.5 1.9 3.1 6.3 3.7 17.2 1.1 21.3-0.9 1.7-0.9 3.5 0.2 5 2.4 2.8 3.1 25.4 1.1 33-1.1 5-1.1 5.2 0.9 1.9 1.5-2.3 2.4-10 2.4-19.9 0-15.2 0.2-15.7 2.6-9.6 2.6 6.8 5.5 8.3 5.9 3 0.2-2.1 0.6-1.5 1.5 1.4 1.3 4.5 1.3 4.5 3.9-1.8 1.4-3.5 2.7-11.3 2.7-17.3 0-9-0.7-11.5-4-14.2-4.1-3.2-6.1-6.9-2.6-4.9 0.7 0.6 0.5-2.4-0.6-6.4l-2-7.6-1.5 5.9c-0.9 4.1-0.5 8.7 1.5 14.8 1.7 5 2.6 12.3 2.2 16.1-0.5 6.7-0.7 6.5-1.3-2.2l-0.5-9.2-1.3 9.2-1.3 9.3-0.4-10.2c-0.2-5.6-1.5-12.2-2.9-14.8-3-5.4-3.9-12.3-1.2-7.6 1.2 1.6 1.5-1.3 0.8-8.4-0.6-7.6 0-13.1 2-18.3 1.7-4.1 2.6-5.4 1.9-2.8-0.6 2.6-1.3 9.6-1.7 15.7-0.6 9.9-0.6 10.2 0.9 3.8 3.7-18.2 4.1-21.2 2.2-24.3-1.8-3.2-2.2-3-4.2 2.6-1.1 3.3-2.4 5.7-2.8 5.3-0.3-0.3 0.2-3.3 1.3-6.5 2.4-6.6-0.2-12.6-6.3-15.2-3.3-1.3-3.5-1.6-0.7-1.6 4.1-0.2 9.8 2.6 16.1 7.9 2.6 2.1 2 1.2-1.3-2.2-3.3-3.1-5-5.9-3.7-5.9 1.5 0 1.3-0.8-0.6-1.9-3.7-2.4-7.2-2.2-3.7 0.2 2.1 1.5 1.7 1.7-1.8 0.6-9.2-2.4-9.8-4.1-1.1-3.5 12.7 0.9 8.1-2.8-5.7-4.7l-10.8-1.3 10.6-0.3c15.1-0.4 24 3.8 31.9 14.8 6.1 8.5 12.6 13 18.1 12.6 1.3 0 0-1.1-2.6-2.2-6.8-3.2-10.3-6.3-16.2-15.4-6.3-9.3-3.3-13 3.7-4.8 4.2 4.8 4.2 4.8 0.3 1.4-2.4-2-4.2-2.9-4.2-2.2 0 0.6 1.8 4.1 4.2 7.6 3.9 6.3 13.2 12.3 18.3 11.9 1.3 0-0.2-1.3-3.1-2.6-3.2-1.3-7.2-4.5-9.2-6.7-2.8-3.3-3-3.9-0.4-1.8 1.6 1.4 3.7 2 4.4 1.3 0.8-0.6-3.3-5.6-8.8-11l-10-9.8-17.2-1.9c-13.5-1.3-18.1-1.1-21.8 0.8-2.6 1.5-5.2 2-5.7 1.5-1.7-1.7 14.6-8.6 19.7-8.4l4.7 0.2-4.7 1.7c-3.1 1.1 0 1.3 9.3 0.7 8.1-0.5 16.4-2.4 20.3-4.4 8.9-4.7 12.2-4.7 19 0.5zm-9.8-0.7c0 0.9 0.8 1.8 1.5 1.8 3.9 0 30.5 16 32.1 19.5 1.7 3 1 2.8-3.3-1.1-8.1-7.6-32.1-19.1-34.5-16.7-1.5 1.5-0.9 2 1.6 2 1.9 0.2 7.2 2.3 11.9 4.9 7.2 4 6.6 4.6-1.7 1.3-4.6-2.1 6.1 14.6 11.8 18.1 3.2 1.9 4.5 3.6 3 3.6-1.3 0-5.4-3-8.7-6.7-3.5-3.5-5.7-5-5-3.2 0.8 1.9-2.4-0.3-6.8-5-7.8-7.8-10.7-12.4-4.8-7.6 1.8 1.7 3.7 1.7 5.9 0.6 2.8-1.5 2.4-1.9-2.2-2.8-4.8-0.9-11.9-1.1-11.9-0.4 0 2.1 21.1 22.5 25.2 24.3 4.6 2.2 4.6 2.4 0.7 1.5-2.6-0.7-5.7-1.7-7.2-2.2-1.7-0.6-2.2-0.2-1.3 1.1 2 3.3 15.7 6.3 22.7 5 5.8-1.1 8.7-4.6 3.9-4.6-1.7 0-1.7-0.6 0.2-1.7 3.7-2.4 4.1-9.8 0.4-13.9-1.7-1.9-7.1-5.6-12.2-8-5-2.6-11.3-6.3-13.7-8.1-4.8-3.9-7.6-4.5-7.6-1.7zm4.8 15.2c-3.3-3-3.3-3-1.1 1.1 1.1 2.4 2.6 3.9 3.3 3.3 0.6-0.7-0.3-2.6-2.2-4.4zm-18.8 20.6c-3.5-3.7-6.3-6-6.3-5 0 1.1 1.7 3.5 3.7 5.3 2 1.9 3.7 4.5 3.7 5.6 0 1.3 3.1 3.7 7 5.2 3.7 1.7 5.4 3 3.7 3-3.7 0.1-4.6 3.8-0.9 3.8 2.6 0 9.4 9.7 12.2 17.3 1.1 3 2 8.9 2 13.5 0 4.5 0.9 8.2 1.9 8.2 1.1 0 1.8-0.9 1.8-2.1 0-0.9 0.7-1.4 1.5-0.9 3.3 2.1-1.3-21.7-5.2-27.1-2.2-2.9-3.7-5.9-3.1-6.3 2.4-2.6 9.4 11.9 10.3 21.4l1.1 10.3 1.1-10.2 1.1-10.1 0.4 10.1c0.4 10.1 0.4 10.2 3.1 5.6 2.1-3.3 2.6-3.7 1.9-0.9-1.1 3.7-1.1 3.7 1.7 0.2 1.4-2.1 2.5-7.1 2.5-11.2l-0.3-7.6-1.3 6.5c-1.1 5.4-1.3 4.9-0.8-2.7 0.4-6.5 0.2-8.4-1.1-6.5-1.1 1.6-1.8 1.8-1.8 0.5 0-1.1-2.2-4.6-4.8-7.8-3.3-3.9-3.9-5.7-2.2-5.7 4.4 0 11.1 8.7 13.6 18l2.6 8.9-0.5-9.3c-0.4-5.2-1.3-10.9-2.1-13-1.4-3.7-1.3-3.7 1.5-0.2 2 2.4 3 7.4 3 14.7 0 6.7 0.7 10.4 1.8 9.6 2.8-1.6 2.2-16.9-0.7-24.1-1.5-3.5-2.4-6.5-1.9-6.5 2.2 0 6.3 13.6 6.5 20.8 0 7 0.2 7.4 1.8 3.5 1.2-2.9 1-7.6-0.7-14.3-1.5-5.3-1.8-9.4-1.1-8.9 0.9 0.4 2 3.9 2.8 7.8 1.8 10.4 5 14.1 3.5 4.5-1.1-8.9-7.4-22.6-10.2-22.6-2.6 0-2.2 2.4 0.6 5.3 1.8 2.1 1.6 2.3-0.6 1-5-3-18.5-2.8-22.7 0.1-4.6 3.2-11.8 3.6-19 1-2.8-1.1-7.8-5-11.1-8.7zm114.5 5c-2.2 0.2-15.5 7.2-15.5 8.3 0 0.9 14.6-5.9 16.4-7.6 0.4-0.4 0-0.7-0.9-0.7zm-121.3 11.8c-0.4-0.5-1.3 1.9-2.1 5-1.4 7.8 0 9.3 1.7 1.7 0.7-3.1 0.9-6.3 0.4-6.7zm45.9 1.5c-3.1-2.9-3.3-2.9-0.9 0.9 1.3 2.3 2.8 3.8 3.4 3.2 0.5-0.4-0.6-2.2-2.5-4.1zm-25.3 5.2c-3.6-4.4-3.6-4.3 0.4 2.6 2.2 3.9 5.2 10.2 6.5 13.9 1.3 3.7 2.4 5.4 2.6 3.7 0-1.7-1.3-5.9-2.8-9.3-1.5-3.5-4.4-8.3-6.7-10.9zm-44.7 59.1c-2.5-6.3-2.5-6.1-2.4 7.8 0.2 12.1-0.5 15.1-4.6 21.4-6.2 9.6-7.4 13.1-6.1 18.5l1.1 4.4 3.7-4.6c1.9-2.6 3-5.4 2.4-6.5-0.7-1.1 0.6-5.5 2.6-9.8 2.1-4.3 4.3-11.5 4.8-16.3 0.8-5.6 0.4-10.6-1.5-14.9z"/><path class="a" d="m344.2 148.7c3.6 3.7 7.2 6.7 8.4 6.7 2.4 0-6.3-9.1-10.9-11.5-2.3-1.1-1.2 0.7 2.5 4.8z"/><path class="a" d="m334.3 148.3c1.3 3 10 7.8 11.6 6.3 0.6-0.5-0.7-1.6-2.6-2.2-1.8-0.7-5-2.6-6.8-4.1-3-2.6-3.1-2.6-2.2 0z"/><path class="a" d="m331.5 180.4c0 0.4 2 3.9 4.6 7.6 5.6 8.2 6.3 6.1 0.9-2.6-3.3-5.4-5.5-7.4-5.5-5z"/><path class="a" d="m372.5 131.3c-2.6 5.4-2.8 6.8-0.9 5.2 2.9-2.4 6.6-10.8 5.5-12.1-0.5-0.3-2.6 2.6-4.6 6.9z"/><path class="a" d="m420.7 132.8c-1.7 1.1 0 3.9 5.7 9.4 5.8 5.6 8.9 7.6 10.7 6.5 1.9-1.3 1.2-3.1-3.6-8.1l-6.3-6.5 5 6.8c2.7 3.9 4.2 7.1 3.1 7.1-2.8 0-13.5-13-12.4-15 1.3-2.1 0.8-2.1-2.2-0.2z"/><path class="a" d="m382.9 137.8c3.1 2.6 6 4.6 7 4.6 0.7 0-0.6-2-3-4.6-2.4-2.6-5.5-4.7-7-4.7-1.3 0 0 2.1 3 4.7z"/><path class="a" d="m411.1 133.7c0.4 0.2 2.8 2 5.4 4.1l4.6 3.7-3.5-4.3c-2.1-2.2-4.5-4.1-5.4-4.1q-1.6 0-1.1 0.6z"/><path class="a" d="m377.1 139.6c2.2 1.7 5.9 6.1 8.2 10.2 2.2 3.9 5.1 7.6 6.6 8.2 3.5 1.5 3 0-1.7-5-2.4-2.4-5.7-7.1-7.3-10.2-1.7-3.4-4.7-5.9-6.5-5.9-2.8 0-2.6 0.3 0.7 2.7z"/><path class="a" d="m259.1 143.9c-11.3 6.7-22.3 16.7-20.9 18.9 1.7 2.6 4.7 2.2 4.7-0.5 0-3.9 11.2-13.8 19.9-17.7 4.4-2 7.4-4 6.5-4.6-1-0.6-5.6 1.1-10.2 3.9z"/><path class="a" d="m285.3 140.6c5.8 0.7 12 2.2 14.3 3.3 4.8 2.6 10.7 0.9 8.1-2.2-1.1-1.3-8-2.3-17.2-2.4-14-0.2-14.4 0-5.2 1.3z"/><path class="a" d="m364.9 143.5c0 2.1 0.6 2.6 1.1 1.1 0.6-1.3 0.4-2.9-0.1-3.5-0.6-0.7-1.1 0.4-1 2.4z"/><path class="a" d="m377.1 151.9c9.4 12.4 22.6 20.5 27.2 16.7 1.3-1.2 3.1-1.3 3.9-0.6 0.9 0.7 0.9 0.2 0-1.3-1.2-1.9-0.4-2.2 2.9-1.3 3 0.9 2.2 0-2-2.4-7.8-4.5-11.5-5-6.3-1.1 3.3 2.6 3.1 2.8-2 1.6-7.8-1.4-13.9-6.3-20-15.2-3.1-4.6-6.6-7.7-8.8-7.7-3 0-2.1 1.8 5.1 11.3z"/><path class="a" d="m260.4 147.8c-5.2 2.2-15.7 12.2-15.7 15 0 1.3 3.3-1.1 7.4-5.4 4-4 8.7-7.6 10.1-7.6 1.5 0 2.8-0.9 2.8-1.8 0-1.1-0.2-1.9-0.4-1.7-0.3 0-2.2 0.7-4.2 1.5z"/><path class="a" d="m265.9 151.7c-3.8 1.5-18.1 16.3-21.2 22.2-2.2 4.1-2.4 8-0.4 6.9 0.8-0.6 1 3.1 0.8 8.1-0.4 5.1-0.2 10.6 0.5 12.5 0.8 1.6 1.5 6.1 1.9 9.6 0.3 3.5 0.7 7.2 0.9 8.4 1.5 6.4-0.6 14.4-5 19.8-5 5.9-5 5.9-0.7 3.1 7.4-4.6 11.2-14 11.2-27 0-8.7-0.7-11.7-2.6-11.7-3.1 0-4.8-4.1-4.6-10.8l0.2-5 1.5 4.7c1.5 4.6 1.5 4.6 1.7-1 0.3-5.7 5.3-18.5 5.5-14 0.2 2.7 17.4-15.6 17.9-19.1 0.6-4.3-3.7-8.2-7.6-6.7z"/><path fill-rule="evenodd" class="a" d="m498.3 150c0.7-0.2 1.8 1.3 2.4 3 4 13 11.8 28.5 17.2 34.8 4.9 5.6 5.1 6.3 1.3 2.8-6.9-6.1-15-18.3-17.6-26.5-1.3-3.5-3.5-7.6-4.8-8.7-2.4-2-2.6-0.6-1.8 9.4 0.3 6.5 0.3 9.9-0.2 7.3-1.7-8.4-4.6-16.7-6.1-16.7-0.8 0-1.5 6.9-1.7 15-0.2 8.4-1.1 16.3-1.8 17.8-1 1.5-1.3-2.2-0.8-8.2q0.6-10.8-2.2-17.7c-3.5-8.2-7.7-9.5-5.9-1.9 3.7 14.8 5 23.5 4.3 27.1-0.6 2.4-1 1.1-1.3-3.4-0.4-7.4-0.4-7.4-2.1-1.8-1.1 4.1-1.3 2.9-0.7-4.7 0.5-6.5 0.4-8.5-0.6-5.5-1.4 4.2-1.6 3.9-2.7-3.2-1.1-6.8-4.1-11.5-5.9-9.6-0.2 0.4 0.5 6.1 2 12.8 1.3 6.7 1.7 12.8 0.7 13.7-0.7 0.7-1.3 0.4-1.3-0.9 0.2-1.5-0.3-7.3-1.3-12.8-1.4-9.5-1.8-9.8-2.9-4.7l-1.5 5.6-0.2-5.2c0-2.8-1.3-5-2.6-5-1.8 0-2.2 4.5-2 18 0 10 0 13.2-0.4 7-0.9-15.9-2.5-23.3-4.6-22.2-0.9 0.7-1.8 3-1.8 5.2-0.2 3.3-0.4 3.5-1.1 0.7-1.3-5-5.4-2.6-4.7 2.6 0.8 4.5 0.6 4.5-2.4 0.8-2.9-3.6-2.9-3.6-1.8 1.8 3 15.6 3.1 30.2 0.2 40.2-3.7 12.8-3.7 13.8-0.4 10.8 1.5-1.1 2.4-3.2 1.9-4.5-0.4-1.1 1.6-4.6 4.8-7.6 5.9-5.7 7.5-4.6 2.4 1.7-3.4 3.9-3.4 3.9 1.3 0 7.7-6.7 10.5-7.2 4.8-1.1-3.2 3.3-4.8 5.9-4.1 5.9 0.9 0-0.6 2.8-3 6-7.3 9.8-11 17.9-9.7 22.4 0.9 3.2 0.7 3.5-0.8 1.3-1.6-2.4-2-2.4-2 0.2 0 1.5 1.1 4.4 2.6 6.3 2.4 3.3 2.6 3.3 4.6-0.8 1.3-2.4 2.8-3.7 3.5-3.1 0.5 0.7 3.1-0.7 5.7-3 2.6-2.4 1.5-0.5-2.2 3.9-3.7 4.7-6.8 9.1-6.8 10.2 0 1.1 2.9-1.5 6.6-5.9 3.7-4.3 7.8-7.8 9.3-7.8 3.3 0 3.3 3.5 0 4.8-1.5 0.6-4.1 3.4-6 5.9l-3.1 5.1 5.7-5.4c4.1-3.7 6.3-4.8 8.5-3.5 2.6 1.4 2.1 2.4-2.9 6.1-5 3.5-5.6 3.7-3.4 0.7 2.1-2.8 2.1-3 0-1.3-3.1 3-4 8-1.4 8 1.1 0 4.8-2 8.1-4.6 10.5-8 8.5-5.2-8.1 11.3-16.3 16.5-20.2 23-13.3 23 2.4 0 4.4 1.8 5.5 4.8 1.1 2.8 2.8 4.1 3.9 3.3 2.9-1.7 5.7 3.3 2.9 5.2-1.6 1.1-1.4 1.9 0.6 3.2 1.7 1.1 3.5 1.1 5-0.2 4.4-3.6 2.4 1.1-2.6 6.3-2.8 2.8-3.9 5.2-2.8 5.2 1.3 0 2.8-1.3 3.4-2.8 0.7-1.5 1.8-2.8 2.7-2.8 1.1 0 0.9 1.9-0.3 3.9-1.7 3.1-1.5 3.7 0.5 2.4 3.5-2.2 7.2-2.6 5.9-0.6-0.5 1-1.6 1.3-2.6 0.8-1.4-0.9-4.2 6.7-2.9 8 0.3 0.3 2.4-1.3 4.6-3.6 2.2-2.4 3.9-3.3 3.9-2 0 1.1-0.8 2.4-1.9 3.2-0.9 0.5-3.5 3.7-5.9 7-3.3 4.8-3.5 5.4-0.5 3.1 3.1-2.5 3.3-2.4 2.2 0.8-1.3 3.1-1.1 3.1 1.6 0.9 2.8-2.2 3-2 1.7 2.1-1.3 4.4-1.3 4.4 2.2 1.3 3.5-3 3.7-3 3.3 0.5-0.1 2.1-0.7 4.3-1.4 4.8-0.8 0.8 0.5 2.6 2.7 4.1l3.9 2.8-5.3 4.6c-3 2.4-3.9 4.1-2.1 3.4 1.7-0.6 3.2-0.2 3.2 0.9 0 1.1 1.1 1.1 3.5 0 1.8-1.1 3.9-1.3 4.6-0.6 0.7 0.6 0.7-0.3 0-2-0.9-2.4-1.9-2.8-3.1-1.5-1.2 1.1-2.8 2-3.6 2-0.9 0 1.3-2.5 5-5.7 3.5-3.1 6.5-6.7 6.5-7.8 0-1.1-1.9-0.2-4.3 2.1-3.3 3.1-4.4 3.5-4.4 1.4 0-1.4 0.6-2.4 1.3-2 0.6 0.4 1.3-1.1 1.3-3.2 0.4-3.5 0.2-3.5-2-0.5-2.1 2.8-2.6 2.8-3.4 0.5-0.5-1.4 0.6-4.6 2.6-7.2 2.1-2.4 3.2-3.3 2.4-2.2-2.4 4.6 1.5 6.7 3.9 2.2 1.5-2.8 2.6-3.3 2.6-1.7 0 2.3 0.7 2.1 2.8-0.7 1.4-2 2.7-3 2.7-1.8 0 2.9-3.5 7.2-5.7 7.2-1.3 0-2.6 1.3-2.9 2.8-0.8 2.4-0.6 2.4 1.1 0 1.4-2.1 2-2.3 2-0.4 0 1.3 0.7 2 1.5 1.5 0.7-0.4 1.5 0.7 1.5 2.6 0 2-0.4 3.1-1 2.8-0.3-0.6-1.8 0-3.1 1.1-1.9 1.4-2 2.9-0.8 5.3 1.3 2.5 0.8 4.7-2 8.2-6.6 8.5-2.6 7.2 4.5-1.3 6.4-8 13.6-11.1 11.4-5.2-0.6 1.7 0.7 0.9 2.8-1.7 2-2.6 3.7-3.7 3.7-2.4 0 1.1-4.1 7.4-9.3 13.8-5.1 6.4-9.2 13.5-9.2 15.9 0 4.6 1.8 5.4 5.2 2 1.6-1.6 2.2-1.6 2.2 0.2 0 2.1 0.5 2.1 2.8 0.2 2.4-2 2.4-1.5 0 4.3-1.5 3.7-3 11.1-3 16.5-0.2 5.7-0.7 7.6-1.1 4.6-0.7-4.4-1.5-5.2-5-4.3-3.1 0.8-5.7-0.5-10-5-3.3-3.5-5.3-7-4.6-7.9 0.9-1 0.8-1.1-0.2-0.2-2.2 1.6-8.7-8-7.2-10.4 0.6-1.1 0.2-1.3-0.7-0.7-1.1 0.7-3 0-4.3-1.5-1.4-1.9-1.6-2.8-0.3-2.8 4 0 0.2-4.8-6.7-8.4-3.7-1.8-8.7-5.1-10.9-7.2-2.4-2-4.2-3-4.2-2.2 0 0.9-1.3 0.5-2.8-0.8-2-1.6-2.8-1.6-2.8-0.1 0 1.3-0.7 1.6-1.8 1.1-0.9-0.6-1.9 0-1.9 1.3-0.1 1.3-1.8-1-4-5-4.5-8.7-12.6-17.8-14.6-16.7-0.8 0.5-4.1-2.2-7.2-5.9-8-9.5-3.5-0.6 5 10 3.3 4.2 7.7 11.3 9.8 15.7 2 4.5 3.7 6.5 3.7 4.7 0-1.9-1.3-6-3-8.9-1.5-3.2-2.4-6.2-1.8-6.7 0.5-0.8 2.4 2 4 5.9 2 5.2 2.4 8.7 1.1 13.7l-1.6 6.7-1.3-5.6c-2.2-9.4-6.3-17.2-12.8-24.4-10.3-11.5-12.4-17.1-10.9-29.5l1.3-10.9 1.3 8.3c0.8 4.6 0.9 0 0.4-10.8-0.8-19-0.2-22.2 2.9-14.8l1.7 4.3v-4.3c0.2-2.2-1.1-7.2-2.6-10.7-1.5-3.6-2.6-7.1-2.4-7.8 0.2-0.8-0.7-4.8-2.2-9.3-1.9-5.9-2-10.7-0.7-19.8 1.4-9.5 1.2-12.1-0.6-12.1-1.8 0-1.8-1.1-0.4-5.2 2.8-7.2 3.2-31.1 0.4-33.9-1.7-1.7-2.2 1.1-2.2 12.4 0.2 12.8-0.6 16.2-5.7 26.7-5 10.2-6.5 9.7-2.4-1.1 2-5.4-2.8-1.3-6.1 5.2-2.8 5.6-2.8 13.3 0 22.8 0.7 2 0 1.1-1.5-1.9-4.3-8.7-3.5-15.2 3.5-27.6 6.3-11.3 8.1-20.7 5.4-27.8-2.1-5.4-4.5-3.1-4.5 4.3 0 4.4-2.2 11.3-5.5 17.8-5.7 11.1-7.2 22.2-3.5 29.1 1.1 2 1.4 4.1 0.9 4.6-1.9 2.1-6.7-12.2-6.7-19.8 0-4.3 1.9-11.3 4.5-16.3 4.8-10 7.4-18.9 5.3-18.9-0.9 0-4.6 2-8.5 4.6-7 4.8-8.1 7.4-10.5 23.7-1.1 8.2-1.5 8.7-1.8 3.2-0.2-3.5-0.8-5.4-1.3-4.1-1.3 3.3 1.1 15.6 2.9 14.5 0.8-0.6 2.4 2 3.5 5.5 1.5 4.8 1.5 6.3-0.2 5.8-6.8-2.3-15.1-31.9-10.5-37.5 2.6-3 34.4-24.5 49.2-33 4.9-3 13.6-8 19.2-11.5 24.2-14.6 45.8-23.9 64.6-27.8 6.7-1.3 12.7-2.6 13.5-2.6zm-15.5 5.4c-0.8 0-0.6 2.6 0.5 5.7 2.2 6.7 4.1 6.2 2.2-0.9-0.5-2.6-1.8-4.8-2.7-4.8zm-51.2 23.7c-2.9-2.9-4.1 1.1-2.2 8 1.1 3.5 1.8 8.7 1.8 11.9 0 8.3-7.5 32.4-10.1 32.4-1.9 0-2-1.9-0.6-8 2.2-9.1 0.8-34.3-2-37-3.5-3.6-3.9-0.4-0.9 8.9 3.1 10.7 2.6 17.4-4.3 45.4-4.8 20.2-5 37.2-0.3 41.5 1.4 1.5 1.8 1.1 1.1-1.7-3.4-11.5-3.2-17.6 0.3-30.4 3.5-12.6 5.8-18 5.8-13.9 0 1-1.7 7.4-3.7 14.3-3 10.8-3.2 14.5-1.7 23.2 1.1 5.7 2.4 10.9 2.8 11.3 0.3 0.4 0.5-6.5 0.5-15.2-0.2-16.1 2.6-29.1 6.1-29.1 0.9 0 2.2 1.8 2.8 3.9 0.9 3.3 1.8 2.2 4.6-5.6 2-5.4 4.1-9.3 4.6-8.9 0.4 0.6-0.5 4.1-2.2 7.8-1.5 3.9-2.6 7.4-2 7.8 1.1 1.1 6.8-14.5 5.7-16.2-0.5-0.9 0.4-6.3 1.9-12.2 1.4-5.9 2.5-14.1 2.5-18.3-0.1-5.6-0.7-4.5-1.8 5.1-2 14.9-8.1 30.5-12 30.5-1.9 0-2.4-1.2-1.5-3 7.2-17.6 8.5-23.9 7.6-37.1-0.6-7.4-1.9-14.5-2.8-15.4zm-10 4.1c-0.9 0-1.3 1.5-0.7 3.2 0.6 1.8 1.8 7.7 3 13.3 1.1 5.6 2.2 10.6 2.7 10.9 1.7 1.9 0.9-10.9-1.1-19.2-1.1-4.5-2.9-8.2-3.9-8.2zm-14.4 15.8l-3.5-7.5 1.1 12.6c0.8 9.1 0 18.4-3.1 34.3-3.9 20.3-4.1 22.5-1.5 30.3 1.5 4.4 3.5 7.9 4.4 7.8 1-0.4 2.3-6.5 2.8-14 0.8-7.4 2.2-17.2 3.3-21.6 1.3-4.3 1.9-8.6 1.3-9.1-0.5-0.6-1.1 0.3-1.1 2 0 1.7-0.7 3.4-1.6 3.9-1 0.7-1-1.8 0-5.9 0.9-3.7 1.6-11.2 1.4-16.2 0-5.3-1.4-12.4-3.5-16.6zm28.8 12.6c-0.5-0.8-1.1 0.3-0.9 2.4 0 2 0.6 2.6 1.1 1.1 0.6-1.3 0.4-3-0.2-3.5zm-57.8 10c-0.5 1.8-1.4 4.1-2 5-0.6 0.9 0 1.1 0.9 0.5 1.1-0.7 2.4-2.9 3-5 1.1-4.6-0.2-5-1.9-0.5zm44.9-0.8c-0.5-0.7-1.1 0.4-0.9 2.4 0 2.1 0.5 2.6 1.1 1.2 0.6-1.3 0.4-3-0.2-3.6zm25.9 0.8c-1.7-0.8-3.4-0.4-3.9 0.5-0.7 1.1-0.6 1.9 0 1.9 0.5 0-0.9 3.5-3.5 7.8-2.4 4.4-5 10-5.7 12.6-0.6 2.6 1.4 0.2 4.6-5.4 2.9-5.6 6.8-11.5 8.5-13.3 2.4-2.8 2.4-3.2 0-4.1zm-90.5 1.1c-0.6-0.8-1.1 0.4-1 2.4 0 2 0.6 2.6 1.2 1.1 0.5-1.3 0.3-3-0.2-3.5zm55.6 0.7c-0.6-1.1-1-0.2-1 2.4 0 2.6 0.4 3.6 1 2.3 0.3-1.1 0.3-3.4 0-4.7zm84.2 146.3c-1.5-2.6-2.6-1.8-7.8 4.5-3.1 4-7 10.2-8.5 13.7-2.4 5.5-2.4 6.5 0.4 8.9 2.2 1.6 2.6 1.6 1.7 0.2-1.3-2.3 5-19.1 7.2-19.1 0.5 0 0 1.8-1.1 4-1.1 2.5-1.3 3.4-0.6 2.5 0.9-1.2 3.7-4.1 6.1-6.9 3-3.5 3.7-5.8 2.6-7.8zm-15.7 2.8c-3.7 1.1-5.6 2.6-7.2 5.7-1.9 3.6-1.9 3.6 2.8 0.6 2.5-1.9 4.8-3.9 4.8-4.8 0-1-0.2-1.7-0.4-1.5zm12.7 28.7c-0.7-2.4-3.1 3.7-2.9 7.8 0 2.1 0.7 1.7 1.8-1.3 0.9-2.4 1.5-5.4 1.1-6.5z"/><path class="a" d="m402.8 255.7c-0.7 4.3-0.9 8.1-0.4 8.5 0.4 0.4 1.3-2.6 2.1-6.8 0.7-4.3 0.9-8 0.3-8.6-0.3-0.5-1.3 2.6-2 6.9z"/><path class="a" d="m494 373.2c-1.3 1.7-2 3.2-1.6 3.7 0.5 0.4 1.8-0.9 3.1-2.7 2.6-4.5 1.9-4.9-1.5-1z"/><path class="a" d="m359.2 153.4c0 0.9 0.9 2.4 1.9 2.9 1.1 0.6 1.8 0.4 1.8-0.7 0-1-0.7-2.4-1.8-3-1-0.5-1.9-0.4-1.9 0.8z"/><path class="a" d="m510.7 155.8c1.8 2.4 4.8 5.9 6.4 7.9 3.7 4.7 1.7 0-3.1-7-2-2.8-4.4-5-5.4-5-0.9 0 0 1.8 2.1 4.1z"/><path class="a" d="m285.3 167.3c0 2.4-1.3 7.9-2.7 12.2-1.5 4.3-2.8 10-2.6 12.8 0.2 3.7 0.5 3.1 1.8-2.4 2.4-10.2 3.2-10.2 3.2-0.2 0 4.8 0.3 9.1 0.9 9.4 0.4 0.6 0.7-7.4 0.9-17.8 0-10.2-0.4-18.5-0.7-18.5-0.4 0-0.8 2-0.8 4.5z"/><path class="a" d="m512.9 164.7c0 1.4 1.1 5.7 2.4 9.2 1.3 3.6 2.4 5.2 2.4 3.7 0-1.4-1.1-5.7-2.4-9.2-1.3-3.6-2.4-5.2-2.4-3.7z"/><path class="a" d="m228.1 166.7c0 0.9 0.9 1.3 1.8 0.7 1.1-0.5 1.9-1.4 1.9-2 0-0.4-0.8-0.7-1.9-0.7-0.9 0-1.8 0.9-1.8 2z"/><path class="a" d="m231.8 173c-2.4 4.1-4.3 10.4-4.6 17.1l-0.8 10.7 1.5-9.8c0.9-5.4 2-10.2 2.6-10.8 0.4-0.3 1.3 8.4 2 19.7 1.1 18.2 0.9 21.3-2.6 28.9-4.2 9.8-3.7 12.2 1.9 7.2 7-6.3 8.3-15.5 4.8-34.6-2.6-13.7-2.8-18.4-1.1-22.8 1.6-4.3 2.4-4.9 3.7-2.8 1.4 2.4 1.8 2.2 1.8-0.6 0-1.6-1.3-3.1-2.9-3.1-2.6 0-2.6-0.6-0.8-2.8 1.5-1.7 1.5-2.8 0.4-2.8-1.1 0-3.7 3-5.9 6.5z"/><path class="a" d="m278.5 177.5c-2.4 5.9-4.3 12-4.3 13.3 0.2 1.5 2.3-2.8 4.8-9.3 2.4-6.6 4.3-12.6 4.1-13.3-0.4-0.8-2.4 3.3-4.6 9.3z"/><path class="a" d="m488.9 172.1c0 2.6 0.3 3.5 0.9 2.2 0.4-1.1 0.4-3.3 0-4.6-0.6-1.1-0.9-0.2-0.9 2.4z"/><path class="a" d="m520.8 172.1c3 9.4 11.8 32.4 11.8 30.4 0.2-2.2-10.7-32.8-12.2-34.1-0.5-0.6-0.3 1.1 0.4 3.7z"/><path class="a" d="m265.2 173.6c-1.1 2.2-2 5.3-2 7.2 0.1 2 1.3 0.7 2.9-3 3-6.8 2.2-10.2-0.9-4.2z"/><path class="a" d="m217.9 175.8c-5.3 5.9-6.6 16.3-4.2 33.7 1.6 12.1 1.6 17.8 0 23-1.3 4.3-1.3 6.1-0.2 5 3.5-3.5 4.8-14.4 3.1-27.4-2-16.1-0.5-26.5 4.3-32.5 2.9-3.5 3.5-3.7 2.2-0.9-0.8 2.1-1.5 15.4-1.5 29.7 0 25.9 0 25.9-6.1 36.3-7 12.2-7.4 18.2-2 36 3.1 11.1 3.5 16.1 2.8 35.2-1.2 21-1 22.8 3.3 30.4l4.2 8.4 3.3-5.1c3-4.8 3-5.1-1.6-14.6-3.5-7-4.8-12.2-4.6-19.8l0.2-10.4 2.4 12.2c2.4 12.1 7.7 25.2 9.4 23.4 0.5-0.4-1-4.3-3.2-8.6-2.7-5.5-3.5-9.2-2.7-13.7 1.8-7.9 3.1-37 1.4-30.2-1.3 5.2-1.4 4.8-5.5-6.5-5.7-16.9-6.8-27-3.3-36.5 1.5-4.5 4-9.1 5.3-10.6 2.6-2.4 5.9-19.3 4.3-20.9-0.6-0.4-1.5 3.3-2.4 8.3-1.5 8.7-1.5 8.6-2.4-6.8-0.9-14.5 0.2-28.8 2.6-36.7 1.4-4.7-5-4.9-9.1-0.4z"/><path class="a" d="m269.8 173.4c-1.6 1.6-1.3 13.1 0.4 14.2 2.6 1.5 5.3-10.9 2.9-13.3-1.3-1.1-2.7-1.5-3.3-0.9z"/><path class="a" d="m465 186.9c0 7.6 0.4 10.8 0.8 6.9 0.4-3.7 0.4-10 0-13.9-0.4-3.7-0.8-0.6-0.8 7z"/><path class="a" d="m452.1 190.6c0 8.7 0.4 12.3 0.7 7.8 0.4-4.3 0.4-11.3 0-15.8-0.3-4.2-0.7-0.7-0.7 8z"/><path class="a" d="m489.4 181.3c-0.7 2.3-0.9 4.5-0.4 5.1 0.6 0.3 1.5-1 2.3-3.2 0.7-2.2 0.9-4.4 0.3-5-0.5-0.4-1.4 0.9-2.2 3.1z"/><path class="a" d="m254.1 188.4c0 6.1 1.1 13.2 3.3 18.5 2.1 4.9 4.1 11.2 4.8 14.3 1.5 7.1 4.3 10.2 8.4 10.2 2.9 0 5.5-3.5 5.5-7.6 0-0.9-4.1-6.1-9.1-11.7-8.8-9.8-9.9-12.6-11.8-28-0.3-3.1-0.9-1.1-1.1 4.3z"/><path class="a" d="m446.4 183.2c0 2.6 0.3 3.5 0.9 2.2 0.4-1.1 0.4-3.3 0-4.6-0.6-1.1-0.9-0.2-0.9 2.4z"/><path class="a" d="m257.8 186.4c-0.2 4.8 1.7 8.1 9.1 16.3 5.1 5.5 9.2 9.6 9.2 8.7 0-0.9-2.6-3.9-5.7-7.1-6.5-6.3-9.3-10.5-11.1-18.3l-1.3-5.6z"/><path class="a" d="m238.8 196.2c2.4 21.7 1.5 34.5-2.4 39.3-3.5 3.9-3.5 4.1-0.2 1.5 8.1-6.5 10.7-22.8 5.9-37.5-1.5-4.4-3.1-9.6-3.7-11.7-0.5-2-0.3 1.7 0.4 8.4z"/><path class="a" d="m448.4 195.2c0 4.1 0.4 5.6 0.8 3.2 0.3-2.2 0.3-5.6 0-7.4-0.6-1.7-1 0.2-0.8 4.2z"/><path class="a" d="m473.4 193c-0.6 3.5-0.4 4.7 0.7 3.5 1.1-1.1 1.5-3.3 1.1-5.1-0.5-2.6-0.9-2.3-1.8 1.6z"/><path class="a" d="m268.7 193.6c0 2.4 3.3 7.2 4.4 6.3 0.4-0.6-0.3-2.6-1.8-4.5-1.5-2-2.6-2.9-2.6-1.8z"/><path class="a" d="m276.1 197.1c0 0.9 0.9 3.2 1.8 4.6 1 1.5 1.9 1.9 1.9 1 0-1.1-0.9-3.2-1.9-4.7-0.9-1.5-1.8-2-1.8-0.9z"/><path class="a" d="m294.7 204.7c0 2 0.6 2.6 1.2 1.1 0.5-1.3 0.3-2.9-0.2-3.5-0.6-0.7-1.1 0.4-1 2.4z"/><path class="a" d="m446.2 206.6c0 2 0.6 2.6 1.1 1.1 0.6-1.3 0.4-3-0.2-3.6-0.5-0.7-1.1 0.4-0.9 2.5z"/><path class="a" d="m364.6 229.7c-3.7 12.1-3.9 14.5-1.7 21.9 1.3 4.6 2.4 9.5 2.4 10.8 0.2 3.5 12.4 14.8 12.4 11.5 0-1.7-1.7-4.5-3.9-6.5-9.4-8.6-11.6-23.9-6.1-40.4 1.7-4.9 2.6-9.3 2-9.9-0.5-0.5-2.9 5.2-5.1 12.6z"/><path class="a" d="m461.3 221.4l-5.1 4.8 6.1-4.1c5.3-3.7 7.2-5.5 5.1-5.5-0.5 0-3.3 2.2-6.1 4.8z"/><path class="a" d="m258 222.1c0 2.6 0.4 3.6 0.9 2.3 0.4-1.2 0.4-3.4 0-4.7-0.5-1.1-0.9-0.2-0.9 2.4z"/><path class="a" d="m467.3 224c-0.6 0.9-0.4 1.8 0.7 1.8 0.9 0 2.4-0.9 2.9-1.8 0.6-1.1 0.4-1.9-0.7-1.9-0.9 0-2.4 0.8-2.9 1.9z"/><path class="a" d="m314.2 228.6c-0.6 1.7-1.2 4.8-1 7.1 0.2 2.9 0.8 2.2 1.9-2.3 1.8-6.3 1.1-10.2-0.9-4.8z"/><path fill-rule="evenodd" class="a" d="m344.4 232.3c1 2.1 2.3 7.1 2.8 11.2 0.9 5.9 3.9 10 14.4 20.9 14.8 15 17.8 18.4 10 11.5-3-2.6-8.7-6.3-12.9-8.3-10.6-5.2-18.1-15.2-19.1-25.3-0.5-6.4-0.3-7.2 1-3.5 1.4 4.3 1.6 3.9 2-2.8 0.2-5.9 0.6-6.6 1.8-3.7zm-0.7 12.6c-0.5-0.7-1.1 0.4-0.9 2.4 0 2.1 0.5 2.6 1.1 1.2 0.5-1.3 0.4-3-0.2-3.6z"/><path class="a" d="m449.5 232.7c-2.4 3-2.2 3.2 0.8 0.7 2.9-2.4 3.8-3.9 2.4-3.9-0.4 0-1.9 1.5-3.2 3.2z"/><path class="a" d="m451.2 238.3c-3.1 3.7-7.6 11.6-6.5 11.6 0.6 0 3-3.3 5.8-7.4 5.1-7.8 5.3-9.6 0.7-4.2z"/><path class="a" d="m331.5 239.7c-2.8 3.6-1.5 14.3 2.8 20.8 3.7 5.6 5.9 4.5 2.8-1.3-1.7-3.3-1.7-3.9 0-2.8 1.8 1.1 2-0.5 1.1-7.6-1.7-10.7-3.4-13.1-6.7-9.1z"/><path class="a" d="m388.9 244.6c-1.1 3.3-2 7.9-2 10.2 0 5.7-3.7 5.7-3.9 0.1-0.2-3.3-0.3-3.3-1.1-0.7-1.3 5.2 1.1 13.7 3.2 10.8q1.4-2.8 2.7 3.3c0.6 3.1 2.1 6.1 3 6.7 0.9 0.7 0.9-1-0.2-3.7-2.4-6.2-2.4-16.7 0-24.9 2.2-8.3 1.1-9.6-1.7-1.8z"/><path class="a" d="m451.6 246.2c-2.3 3-3.5 5.6-3 5.6 0.4 0 2.6-2.6 4.8-5.6 2.2-3.1 3.5-5.5 3-5.5-0.4 0-2.6 2.4-4.8 5.5z"/><path class="a" d="m229.2 249c-0.6 1.5-0.2 2.8 0.7 2.8 1.1 0 1.9-1.3 1.9-2.8 0-1.5-0.4-2.8-0.8-2.8-0.3 0-1.1 1.3-1.8 2.8z"/><path class="a" d="m491.3 253.5l-7.4 3.5 7.9-0.9q7.8-1.2 7.8 1.1c0 1.1-1.3 2-2.8 2-1.6 0-2.2 1.1-1.6 2.8 0.7 1.8-1 3.7-5.4 5.6-3.7 1.4-7.2 3.5-7.8 4.6-0.7 1.1-2 1.5-2.9 0.9-2-1.3-2.2 0.9-0.2 4.3 1.3 1.8 2.6 1.8 7-0.6 3-1.5 8.1-2.8 11.5-2.8 4.6 0 5.9 0.8 5.9 3.8 0 3.1 0.7 3.5 5.2 2.5 2.7-0.7 5.3-1.4 5.7-1.8 0.3-0.4 2.4 0.2 4.2 1.3 3 1.7 3.5 3.3 2.8 8.5-0.7 4.5-0.4 6.1 1.1 5.6 1.3-0.4 2.6-2.2 3-4.3 0.3-1.8 2.9-6.1 5.7-9.4 4.6-5.2 5-6.7 3.5-13-0.9-3.9-1.7-7.6-1.7-8.5 0-0.8-1.6-3-3.7-5-4.9-5.1-27.1-5.2-37.8-0.2z"/><path class="a" d="m222.9 258.3c0 4.1 1.1 10.7 2.6 14.8 1.7 5 2.2 5.6 1.5 1.9-0.8-3.2-1.9-9.9-2.6-14.9-1.3-8.9-1.5-9-1.5-1.8z"/><path class="a" d="m390.8 259.8c-0.2 4.8 6.1 19.8 8.1 19.8 0.6 0-0.2-2.4-1.8-5.6-1.5-2.9-3.5-8.5-4.5-12.4-1.4-6.1-1.6-6.3-1.8-1.8z"/><path class="a" d="m338.9 258.8c0 1.2 2.2 3.7 5.2 5.8 2.9 2.2 3.8 3.7 2.4 3.9-1.5 0 0.5 2.6 4.8 5.5 4 3.2 8.8 8.6 10.5 12.1 1.7 3.5 3.5 6.5 3.9 6.5 1.3 0-1.3-6.3-4.8-11.3-1.9-2.6-3-5.2-2.4-5.8 0.3-0.5-3.7-4.8-9.5-9.6-5.5-4.8-10.1-8-10.1-7.1z"/><path class="a" d="m204.3 266.1c-0.2 1.3 2 8.7 4.6 16.7 4.6 13.9 5.3 25.5 1.8 34.8-0.9 2.2-0.4 1.9 1.5-0.9 4.4-7.1 3.5-19.9-2.4-37.1-3-8.7-5.5-14.6-5.5-13.5z"/><path class="a" d="m386.9 276.3c0.4 2.9 7.2 20.2 7.2 18.1 0.2-4.4-3.5-16.5-5.3-17.6-1.1-0.7-1.9-0.9-1.9-0.5z"/><path class="a" d="m367.9 282.4c1.7 6.3 1.7 16.9 0 33.4l-1.1 11.1 2-9.3c3-13.3 3-35.4 0-38.4-2-2-2.2-1.4-0.9 3.2z"/><path class="a" d="m471.5 279.1c-1.8 0.3-3.3 1.4-3.3 2.2 0 0.9-3.3 3.9-7.4 6.6-9.6 6.7-7.4 10.2 6.3 10.2 7.5 0 11.6-1.3 20.5-6.6 10.5-6.3 14.6-10 12.9-11.5-0.4-0.4-3.5 1.5-7 4.4-3.5 2.8-7 4.8-7.8 4.7-0.7-0.4-2 0.5-2.9 1.8-0.8 1.3-5.2 2.4-9.8 2.6-8.5 0.4-11.3-1.3-5.6-3.5 1.5-0.6 2.3-1.9 1.7-3-0.6-0.9 0.2-1.8 1.7-1.8 1.4 0 3.7-1.7 4.8-3.7 2-3.7 1.6-3.9-4.1-2.4z"/><path class="a" d="m394.3 280.5c0 1 0.9 3.2 1.9 4.7 0.9 1.5 1.8 1.8 1.8 0.9 0-1.1-0.9-3.2-1.8-4.6-1-1.5-1.9-2.1-1.9-1z"/><path fill-rule="evenodd" class="a" d="m381 284.1c3.7 2.2 4.4 15.3 1.5 26.8-3.9 15.4-1.7 28 7.9 44 4.3 6.8 7.6 13.5 7.6 14.8 0 4.8-5.7 1.1-9.2-5.7-4.3-8.4-4.5-9.1-1.9-7.5 3 1.9 2.2-0.7-1.8-6.3-5.9-7.7-8.2-27.6-4.6-40 2.5-8.9 2.5-13-0.4-23.9-0.6-2.1-0.2-3 0.9-2.2zm9.4 74.3c-2.6-2.8-1.8 1.3 1.3 6.5l2.8 4.6-1.3-4.6c-0.6-2.6-1.8-5.4-2.8-6.5z"/><path class="a" d="m497 291.7c-7 4.6-13.9 8.3-15 8.3-1.1 0-3.1 2.2-4.2 4.8-1.3 2.6-1.5 4.3-0.4 3.5 0.9-0.5 1.9 0.2 1.9 1.9 0 1.8 0.9 2.4 2.2 1.7 1.3-1 1.6-0.4 0.9 1.6-0.7 2.3-0.4 2.6 2 1.9 5.4-2.1 6-5 1.2-8l-4.5-3.1 5-2.6c3-1.5 6.3-3.7 7.6-5 5.1-4.9 9-5.8 15.3-4.1 3.5 1.1 6.3 1.8 6.5 1.8 0 0 0.2-2.6 0.2-5.5 0-7.6-3.4-7.3-18.7 2.8z"/><path class="a" d="m307.1 287.2c-1.8 0.9-5.5 5.6-8.3 10.4-3.9 6.7-5 11.5-5.7 22.8-0.9 15 2.8 30.8 7.9 35.2 1.9 1.5 1.5-0.7-1.1-7.2-1.8-5.2-3.5-12.8-3.5-17.1 0-8.3 4.4-23.5 9.6-32.8 1.9-3.3 3-6.8 2.4-7.8-1.1-1.8 3.5-3.7 9.1-3.7 4.2 0 10.1 5.2 13.8 12.4 3.5 7.1 0.6 4.9-4.4-3.1-3.3-5.2-5.9-7.4-8.9-7.2h-4l3.8 1.6c5.2 2.1 7.4 5.6 2.8 4.3-4.1-1.1-7 6.7-3.3 9.1 1.5 0.9 0.9 1.5-1.5 1.5-3.5 0.1-3.5 0.3 0.2 1.8 2.2 0.9 4.8 4.1 5.9 7.4 1.8 5.2 1.7 6-2.6 7.4-2.6 1.2-5.9 1.9-7.2 1.9-7.7 0-11.8 24.1-5 30.2 3 2.8 3.2 2.4 3.4-5 0.1-9.8 5.9-18 17.7-25.2 9.6-5.9 10.3-8.3 7-20.8-3.1-11.1-10.2-18.1-18.1-18.1-3.9 0-8.3 0.9-10 2z"/><path class="a" d="m288.1 292.6c-0.6 0.9-0.4 1.8 0.7 1.8 1 0 2.4-0.9 3-1.8 0.5-1.1 0.4-1.9-0.7-1.9-1 0-2.4 0.8-3 1.9z"/><path class="a" d="m333.3 290.9c0 0.8 1.3 4.3 2.8 7.8 1.5 3.7 2.8 9.1 2.8 11.7 0 2.8 0.5 4.6 1.1 3.9 1.8-1.9-0.9-17.1-3.9-21-1.5-2-2.8-2.9-2.8-2.4z"/><path class="a" d="m374.7 300.4c-0.2 5.3-0.7 13.5-1.3 18.1l-1.1 8.4 1.9-7.4c2.7-11 4.2-28.8 2.4-28.8-1 0-1.7 4.5-1.9 9.7z"/><path class="a" d="m387.1 297.6c-0.2 4.4 0.7 8 1.7 8 2.2 0 2.2-4.5 0-11.2-1.3-3.9-1.5-3.5-1.7 3.2z"/><path fill-rule="evenodd" class="a" d="m528.8 292.2c0.3 1.3 1.4 1.7 2.5 1.1 1.2-0.7 1 0.4-0.1 2.8-2.6 4.6-4.8 5.2-3 0.6 0.7-2.3 0.6-2.6-0.9-1.1-1.1 1.1-1.5 3.3-0.8 5.1 1.1 2.8 1.5 2.8 3.9-0.5 2.1-3.2 3.2-3.4 5-1.5 1.5 1.1 2.2 2.8 1.7 3.7-0.4 0.8 0.5 1.9 2 2.4 2.6 0.9 2.6 1.5-0.2 4.1-1.6 1.9-3.3 2.8-3.5 2.2-0.2-0.5-2 0.6-4.2 2.6-3.7 3.4-3.7 3.4-3-0.5 0.9-5-0.7-9.9-3-8.4-0.9 0.6-1.1-0.5-0.3-2.2 0.7-2.2 0.5-2.8-0.9-1.9-3.2 1.9-2.8-1.1 0.9-6.3 1.8-2.6 3.3-3.5 3.9-2.2zm5.1 7.8c-0.5 0-1.8 1.7-2.9 3.7-1.1 2-1.5 3.7-1.1 3.7 0.5 0 1.8-1.7 2.9-3.7 1.1-2 1.5-3.7 1.1-3.7z"/><path class="a" d="m235.7 299.1c-4.3 9.6-4.8 22.6-1.2 30.6 1.9 4 4.1 7.4 4.9 7.4 2.4 0 4-8.7 2.2-11.5-0.8-1.3-1.9-9.1-2.4-17.3-1.1-14.2-1.1-14.6-3.5-9.2z"/><path class="a" d="m244 297.2c-0.6 1.7-1 5.8-1 8.9 0.2 5 0.6 4.5 1.7-2.4 1.5-8.9 1.1-11.3-0.7-6.5z"/><path class="a" d="m352.4 308.3c0 6.2 0.3 8.4 0.7 5 0.4-3.3 0.4-8.3 0-11.1-0.4-2.8-0.7 0-0.7 6.1z"/><path class="a" d="m394.7 301.9c0 2.5 0.3 3.5 0.9 2.2 0.4-1.1 0.4-3.4 0-4.7-0.6-1.1-0.9-0.1-0.9 2.5z"/><path class="a" d="m511.6 301.9c-0.6 0.9 0.2 1.8 1.8 1.8 1.7 0 2.4-0.9 1.9-1.8-0.6-1.2-1.5-1.9-1.9-1.9-0.3 0-1.3 0.7-1.8 1.9z"/><path fill-rule="evenodd" class="a" d="m348.7 304.6l0.7 7.5c0.4 4.2-0.9 11.6-2.9 17.4-2.6 7.4-3 11.5-1.9 15.7 0.9 3.2 1.1 7.5 0.6 9.5-0.8 2.6-0.6 3 0.7 1.3 1.3-1.9 2.4-1.3 4.8 2.4 5.2 8 5.4 4.1 0.2-5.6-4.6-8.9-6.3-16.8-2.8-14.8 1.1 0.6 1.9-0.7 1.9-3.3 0-2.6 1.3-5.6 2.7-6.9 2.4-2 2.8-1.1 2.8 6.7 0 6.1 1.7 12.4 5 19.3 2.8 5.5 5 10.9 5.2 12 0.2 0.9 1.3 5 2.6 8.9 2.7 8.4 0.1 26.7-3.7 24.5-1-0.8-1.7 0.4-1.7 2 0 1.9-0.6 2.8-1.1 2.3-0.6-0.6 0-4.5 1.1-8.4 2-6.5 1.8-8.3-1.7-15-2-4.1-4.6-8.2-5.7-8.7-1.1-0.8-1.5-1.9-0.9-2.8 0.5-0.9 0-2.2-1.1-3-1.5-0.7-1.7-0.5-0.9 0.8 0.7 1.3 0.9 2.2 0.3 2.2-3.1 0-12.2-16.1-12.2-21.7 0-8.3-3.1-7.8-4.2 0.7-0.8 5.8 0.2 8.6 4.6 14.9 4.3 6.1 4.6 7.6 2 6.7-2.9-1.2-2.9-1-0.7 1.8 1.5 1.9 1.7 3.2 0.6 3.2-1.2 0-2.6-1-3.2-1.9-0.5-1.1-2.6-1.9-4.4-1.9-1.9 0-4.8-1.6-6.7-3.7-2-2.2-4.6-3.3-6.6-2.7-5.7 1.8-7.2-4.3-3.9-17.3 3.1-11.5 6.1-14.3 10.9-9.4 1.3 1.3 2.2 0.5 3.1-3 1-3.9 1.9-4.5 3.9-2.8 2.1 1.7 2.2 1.3 1.5-2-0.7-2.8-0.6-3.7 0.9-2.8 1.5 0.9 2.2-0.2 2.2-2.8 0-3.1 0.6-3.5 2.6-1.8 3.2 2.6 4.6-0.6 5.2-10.6zm-14.2 40.4c-0.6-0.7-1.1 0.4-1 2.4 0 2.1 0.6 2.6 1.2 1.1 0.5-1.3 0.3-2.9-0.2-3.5zm-3 11.1c0 2.6 6.1 12.5 7.8 12.5 0.7 0 1.5-0.6 1.5-1.5 0-1.9-9.1-12.8-9.3-11zm17.7 3.6c-3.3-3-3.3-3-1.1 1.1 1.1 2.4 2.6 3.9 3.4 3.3 0.5-0.7-0.4-2.6-2.3-4.4z"/><path class="a" d="m357.5 311.3c-1.1 3.3-2 6.9-1.8 8 0 1.1 1.3-1.3 2.8-5.2 1.5-4.1 2.2-7.6 1.8-8-0.3-0.4-1.6 1.9-2.8 5.2z"/><path class="a" d="m538.9 311.5c-3.7 4.8-4.8 7.6-2.7 6.3 2.2-1.3 6.6-8.5 5.3-8.5-0.5 0-1.7 1.1-2.6 2.2z"/><path class="a" d="m394.3 313c0 0.9 0.9 1.8 1.9 1.8 1.1 0 1.8-0.9 1.8-1.8 0-1.1-0.7-1.9-1.8-1.9-1 0-1.9 0.8-1.9 1.9z"/><path class="a" d="m512.7 314.1c0 2 0.6 2.6 1.1 1.1 0.6-1.3 0.4-3-0.2-3.5-0.5-0.8-1.1 0.3-0.9 2.4z"/><path class="a" d="m245.1 318.5c0 3.6 0.3 5 0.9 3.2 0.4-1.7 0.4-4.6 0-6.5-0.6-1.7-0.9-0.2-0.9 3.3z"/><path class="a" d="m539.5 317.6c-3.7 5.6-3.7 6.3-0.2 5.8 3.5-0.6 4.6-1.7 5.5-6.5 1-5.2-1.6-5-5.3 0.7z"/><path class="a" d="m545.7 321.3c-1.2 1.7-1.8 3.4-1.2 3.9 0.5 0.6 1.8-0.7 3.1-2.8 2.4-4.6 1.5-5-1.9-1.1z"/><path class="a" d="m358.3 327.8c-1.5 7.1 0.2 15.4 5.7 26.3 2.4 4.9 4.5 10 4.5 11.7 0 1.5 0.9 2.8 1.8 2.8 2.6 0 2.2-3-0.9-9.3-1.7-3.1-2.4-5.5-1.9-5.5 0.4 0 2.4 3.1 4.5 6.8 2 3.9 3.7 6.1 3.8 5 0-1.1-3.3-8.5-7.5-16.5-5.6-10.7-7.4-16.3-6.9-20.7 1-7.6-1.4-8-3.1-0.6z"/><path class="a" d="m388 327.3c-1.8 7.7-0.5 11.1 10.2 29.8 6.1 10.9 9.2 18.5 10.1 25.6 1.3 11.7 4.5 11.5 4.5-0.4 0-6.3-2.3-12.6-10.2-27.8-5.7-10.9-10.9-22.8-11.8-26.5l-1.5-6.7z"/><path fill-rule="evenodd" class="a" d="m549.8 330.6c0.9 1.5 1.3 3.5 0.7 4.4-1.4 2.3 0.8 7.8 2.6 6.7 0.8-0.5 1.3 1.1 1.1 3.5 0 2.4-0.7 4.1-1.4 3.6-1-0.4-1.5 0.3-1.7 1.6 0 1.3-0.9 0.2-2-2.8-1-2.7-2.6-4.6-3.5-3.8-2.3 1.3-2.1-0.4 0.1-5.4 1.7-3.7 1.7-3.7-0.3-0.8-6.1 8.9-6.9 8.9-2.2-0.2 4-7.6 5.5-9.2 6.6-6.8zm-0.4 10.2c-0.9-1.5-1.8-2.1-1.8-0.9 0 0.9 0.9 3.1 1.8 4.6 1 1.5 1.9 1.8 1.9 0.9 0-1.1-0.9-3.1-1.9-4.6z"/><path class="a" d="m367.5 337.1c1.7 4.6 5.2 11.7 7.8 15.7 2.8 4.1 5.5 9.9 6.3 13l1.3 5.6 0.1-6.5c0.2-3.7-1.1-8.5-2.7-10.8-1.5-2.2-4.5-8.5-6.3-13.9-1.9-5.2-3.5-8.5-3.5-7-0.2 2-0.9 1.8-3-0.9-2.4-3-2.4-2.5 0 4.8z"/><path class="a" d="m376.6 338.2c0.7 7.4 6.1 18.5 8.1 16.7 0.5-0.6-0.2-2.4-1.5-3.9-1.3-1.7-3.5-6.9-5-11.7l-2.4-8.7z"/><path class="a" d="m476.5 337.3c-0.8 1.1-0.9 2.2-0.4 2.7 0.4 0.6 1.3-0.3 1.9-2 1.3-3.1 0.1-3.7-1.5-0.7z"/><path class="a" d="m482.2 338.6c-0.5 0.9 0.2 1.6 1.7 1.6 1.5 0 2.2-0.7 1.6-1.6-0.5-0.8-1.3-1.5-1.6-1.5-0.4 0-1.1 0.7-1.7 1.5z"/><path class="a" d="m534.8 353c0 2.1 0.6 2.6 1.2 1.1 0.5-1.3 0.3-2.9-0.2-3.5-0.6-0.7-1.1 0.4-1 2.4z"/><path class="a" d="m412.8 353.4c0 0.9 1.3 2.8 2.7 4.1 1.5 1.3 2.8 1.5 2.8 0.3 0-0.9-1.3-2.7-2.8-4-1.4-1.3-2.7-1.5-2.7-0.4z"/><path class="a" d="m386.4 377.3c0.9 10.6 0.1 14.7-3 21.9-2.2 4.8-4.4 8.5-5 7.8-0.5-0.6 0.4-3.5 1.9-6.7 1.6-3 2.9-7.4 2.7-9.8 0-2.8-0.9-1.5-2.6 3.7-1.2 4.4-4 9.8-5.9 12-3.1 3.7-3.1 3.7 0.2 2.4 3-0.9 3.2-0.7 1.1 1.7-1.3 1.5-1.4 2.8-0.5 2.8 2.4 0 8.8-9.3 11.2-16.5 2.6-7.2 3-26 0.6-29.7-0.9-1.3-1.1 3-0.7 10.4z"/><path class="a" d="m383.8 378.8c0 4.1 0.3 5.6 0.7 3.1 0.4-2.2 0.4-5.5 0-7.4-0.5-1.6-0.9 0.2-0.7 4.3z"/><path class="a" d="m402.8 383.4c1.5 10.4 2.6 11.9 2.6 3.6 0-3.6-0.9-7.7-1.9-9.1-1.3-1.9-1.4-0.2-0.7 5.5z"/><path class="a" d="m427.5 381.6c-0.1 1.5-0.1 4.2 0 6.1 0.2 1.7-2.2 9.6-5.1 17.6-3 7.8-6.1 17.4-6.7 21.1-1.3 7.3 1.5 15.4 4.5 13.6 0.9-0.6 2.2 0 2.9 1.1 0.9 1.5 0.6 1.7-1.1 0.7-1.5-0.9-2-0.5-1.5 1.1 0.6 1.7 3.5 2.6 8 2.6 5.7 0 7.9 1.3 13.1 7.3 3.5 4 6.3 6.3 6.3 5 0-1.3-4.8-7.3-10.9-13.2-16.3-15.9-18.5-28-8.7-45.4 5.2-9.1 7.2-17.1 4.8-18.6-0.9-0.5-1.9 0.8-2 3.2-0.2 4.3-0.2 4.3-1.7-0.4-0.7-2.6-1.7-3.3-1.9-1.8z"/><path class="a" d="m450.8 382.1c0.6 1.9 1.7 2.8 2.2 2.3 0.6-0.6 0-2.1-1.3-3.4-1.8-1.7-2-1.5-0.9 1.1z"/><path class="a" d="m415.7 389c-0.9 3.5-2.2 7.2-2.9 8.3-3.5 5-7.6 19.1-7.8 26.9 0 9.8 3.1 17.3 10.3 23.9 4.5 4.3 4.8 4.3 4.3 1-0.2-1.9-2-5.8-3.7-8.4-1.8-2.8-3.7-8.1-4.2-12-0.6-5.6-0.4-6.3 0.9-3.6 1.6 3.4 1.8 3.4 1.8-1.1 0.2-2.8 1.5-8.5 3-12.8 2.6-7.4 3.9-19.4 1.5-12.9-0.8 1.4-2.3 3.7-3.6 5-3.3 3.5-6.8 21.8-5.3 28.5 0.9 4.1 0.7 5.4-0.7 4.7-4.1-2.6-2.3-19.5 3.5-34.2 3.1-7.6 5.3-15.4 4.9-16.8-0.3-1.7-1.2 0-2 3.5z"/><path class="a" d="m514.9 387.5c-3.3 2.4-6.1 5-6.1 5.8 0 1.6 10.4-5.2 12-8 1.7-2.8 0.6-2.2-5.9 2.2z"/><path class="a" d="m522.3 391.4c-6.8 7.6-9.8 13.2-9.6 18 0.2 3.9 0.4 3.7 2-1.9 0.9-3.5 4.5-9.2 7.6-12.4 3.1-3.3 5.2-6.5 4.8-7-0.6-0.6-2.8 0.9-4.8 3.3z"/><path class="a" d="m394.9 393.6c-1.3 1.5-1.9 3.9-1.3 5.4 1.3 3.3-2.6 10.9-4.8 9.5-1.1-0.8-1.3 0.3-0.6 2.2 1.1 2.8 0.7 2.9-1.5 1.1-2.4-1.9-3.9-1.3-8.1 3.1-5.4 5.6-5.4 8.8 0.2 6.7 1.6-0.5 2.6-2.4 2-3.7-0.7-1.8 0-2.4 2.4-2 4.6 0.9 10.4-6.5 13.1-16.2 2.2-8.3 1.9-9.6-1.4-6.1z"/><path class="a" d="m456.3 395.5c2.3 10 6 17.2 10.4 20.2 6.1 3.9 19.9 8.7 19.9 6.7 0-1.9-13.6-13-15.8-13-1 0 0.9 2 3.8 4.6 3.2 2.4 4.8 4.5 3.7 4.7-3.9 0-12.2-8.8-17.5-18.6-4.3-7.6-5.4-8.7-4.5-4.6z"/><path class="a" d="m388.8 395.5c0 0.9 0.9 3.1 1.8 4.6 0.9 1.5 1.9 1.9 1.9 0.9 0-1.1-1-3.1-1.9-4.6-0.9-1.5-1.8-2-1.8-0.9z"/><path class="a" d="m405 402.3c-1.8 4.3-2.9 8.2-2.4 8.6 1.1 1.1 6.8-12.5 6.1-14.5-0.4-0.9-2 1.7-3.7 5.9z"/><path class="a" d="m342.6 399.4c0 2 1.1 5.2 2.4 7 2.4 3.4 2.6 3.4 3.7 0.4 0.7-1.9 0.3-4.6-0.6-6.3-1.6-2.6-1.8-2.2-1.1 1.5 0.9 4 0.8 3.9-1.6-1-2.1-4.4-2.6-4.8-2.8-1.6z"/><path class="a" d="m399.8 403.3c-4.2 10.7-4.2 11.3 0 3.7 2.3-3.9 3.7-8 3.4-8.9-0.4-1.1-1.9 1.3-3.4 5.2z"/><path class="a" d="m521 402.3c-4.4 10.4-3.7 23.2 1.7 32.1 5.5 8.9 6.1 7.2 0.9-2.8-4.5-8.7-4.8-18.5-0.8-26.1 1.5-3.2 2.4-6.7 2.1-7.8-0.6-1.3-2.2 0.9-3.9 4.6z"/><path class="a" d="m501.6 402.3c-3.7 6-2.9 35.1 1.1 42.9 1.7 3.3 7 9.8 11.8 14.8 5 5 9.1 9.8 9.1 10.7 0 1 0.9 1.7 2 1.7 1.1 0 0.4-2.8-1.6-6.1-2.1-3.2-3.4-6.9-2.8-8.2 0.7-2.2-1.9-5.9-11.5-15.3-5.3-5.6-5.5-6-5.5-25.1 0-10.7 0-19.4 0-19.4 0 0-1.3 1.8-2.6 4z"/><path class="a" d="m508.1 403.1c-1.9 4.8-0.9 16.1 1.8 23 2.4 5.9 2.6 5.9 1.3 0.9-0.5-3.2-1.1-10.4-1.1-16.3-0.2-5.8-0.4-10.6-0.5-10.6-0.2 0-1 1.3-1.5 3z"/><path class="a" d="m436.8 418.5c0 4.2 5 14.1 8.5 16.8 3.3 2.6 3.3 2.4-0.2-1.4-1.9-2.5-3.5-6.9-3.7-10.1 0-3.1-1.1-6.1-2.2-6.4-1.3-0.6-2.4 0-2.4 1.1z"/><path class="a" d="m537.4 426.1c-0.5 0.9-0.2 3.3 0.8 5 1.6 2.9 1.8 2.6 2-1.9 0-5.2-0.9-6.3-2.8-3.1z"/><path class="a" d="m488.5 437c0 4.1-0.7 8-1.8 8.5-3.4 2.1-1.9 13.9 2.4 21 2.4 3.7 5.1 9.3 5.9 12.4 1.4 4.8 1.6 5 2.2 1.5 0.4-2.2-0.9-7.4-3-11.5-2.2-4.1-3.8-8-3.8-8.7 0-2.6 7.7 8.9 9.2 13.7 1.5 4.6 1.5 4.8 1.6 0.7 0.2-2.4-1.2-6.6-3.1-9.2-6.3-9.1-6.5-10.6-0.9-5.6 6.1 5.8 9.8 6.9 5.9 1.9-1.3-1.7 0.5-0.4 4.1 2.9 3.5 3.4 7 5.4 7.7 4.9 0.8-0.8 1.5-0.2 1.7 1.3 0 1.4 0.3 3.3 0.5 4.4 0.4 0.9 0.6 3 0.8 4.1 0.3 4.2 3.8 2.6 3.8-1.9 0-5.5-4.8-12.4-15.1-21.5-6.1-5.4-9.4-10.4-11.6-16.9-3.7-11.1-6.5-12-6.5-2z"/><path class="a" d="m520.1 443.7c0 1.1 1.3 4.8 2.8 8.3l2.5 6.5-0.9-6.5c-0.9-5.5-4.8-13-4.4-8.3z"/><path class="a" d="m533.9 451.1c0.8 1.5 1.5 2.8 1.9 2.8 0.4 0 0.7-1.3 0.7-2.8 0-1.5-0.7-2.8-1.8-2.8-0.9 0-1.3 1.3-0.8 2.8z"/><path class="a" d="m429.4 452.8c0 1.8-1.3 2.2-4.1 1.6l-4.2-1.1 4.4 4.8c2.4 2.8 5 4.5 5.9 4.1 0.8-0.5 2 0 2.8 1.1 0.9 1.5 0.5 1.7-1.1 0.8-1.7-1.1-1.9-0.4-0.8 2.9 0.8 2.5 2.1 7.5 2.8 11l1.3 6.5 0.6-6.5c0.1-3.5 0.3-8.9 0-12.1-0.4-5.3-0.2-5.3 2.4-1.8 2.4 3.1 2.7 3.3 2.9 0.5 0-3.3-8.5-14.4-11.3-14.4-0.9 0-1.6 1.1-1.6 2.6z"/><path class="a" d="m543.4 458c1.4 8.1 2.4 8.9 2.4 1.8 0-3.1-0.8-6.3-1.9-6.8-1.1-0.8-1.3 1.1-0.5 5z"/><path class="a" d="m527.5 457c0 0.8 0.7 3.2 1.6 5.2 1.5 3.5 1.7 3.5 1.7-0.3 0.2-2.3-0.6-4.7-1.7-5.2-0.9-0.6-1.8-0.6-1.6 0.3z"/><path class="a" d="m535 461.7c-1.3 1.3-2.2 4.8-2.2 8.1 0 6.3 3.5 18.2 5 16.7 0.6-0.5 4.8 2.2 9.4 6.3 11.1 9.5 12.9 7.6 2.2-2-4.6-4.1-6.4-6.5-4.2-5.4 4.2 2 4.2 1.8-0.4-5-2.6-3.9-5.5-8.2-6.6-9.5-1.1-1.3-1.5-4.4-1-7 1.3-5 1-5.4-2.2-2.2z"/><path class="a" d="m505.1 465.2c0 0.5 1.7 4.3 3.7 8.3 2.2 4.1 3.3 5.2 2.6 2.6-1.1-4.2-6.3-13.1-6.3-10.9z"/><path class="a" d="m526.2 481.7c0.5 2.4 0 8.1-1.1 12.4-1.7 7.1-1.5 8.5 1.3 11.7 2.2 2.4 4.6 3.3 6.8 2.6 2.6-0.8 4 0.5 6.1 5.5 1.6 3.8 3.1 6.7 3.5 6.7 1.3 0-1.3-8.3-3.3-10.9-2.3-3-3-11.3-1-11.3 2.3 0 11.3 11.8 14.1 18.3 1.5 3.4 2.9 5.8 3.5 5.2 1.8-1.8-3.7-11.8-11.1-19.8-4.4-4.7-9-11.7-10.3-15.6-1.5-4.6-2.8-6.3-3.7-4.8-1.1 1.7-2.1 1.5-3.7-1.1-1.9-3.2-2.1-3.2-1.1 1.1z"/><path class="a" d="m332.8 481.9c1.3 1.3 2.8 1.8 3.3 1.3 0.6-0.6-0.3-1.7-2.2-2.3-2.6-1.1-2.8-0.9-1.1 1z"/><path class="a" d="m517.1 489.1c-0.7 3.2-0.9 6.3-0.3 6.7 0.3 0.5 1.2-1.9 2-5 1.5-7.8 0-9.3-1.7-1.7z"/><path class="a" d="m553.5 488.2c1.1 2.6 2.8 4.6 3.7 4.6 0.9 0 0.2-2-1.5-4.6-1.6-2.6-3.3-4.7-3.7-4.7-0.3 0 0.4 2.1 1.5 4.7z"/><path class="a" d="m510.8 488.4c0 2 0.6 2.6 1.2 1.1 0.5-1.3 0.3-3-0.2-3.5-0.6-0.8-1.1 0.3-1 2.4z"/><path class="a" d="m538.4 488.7c0 3.2 16.8 21.2 18.2 19.7 0.6-0.6-1.6-3.5-5.1-6.3-3.5-3-7.8-7.6-9.6-10.6-2.1-2.8-3.5-4.1-3.5-2.8z"/><path class="a" d="m324.9 498.2c1.3 2 8.5 6.5 8.5 5.2 0-0.6-2.3-2.2-4.8-4.1-2.8-1.7-4.3-2.2-3.7-1.1z"/><path class="a" d="m516.4 500.2c-0.2 1.5 1.3 5.2 3.1 8.4 3.4 5.5 3.4 5.5-0.3 7.4-3.9 1.8-3.9 1.8-0.6 8.3l3.5 6.5-0.9-5.5c-0.7-4.9-0.6-5 1.5-2.3 1.3 1.7 2.7 3.2 3.5 3.2 2.6 0 0.9-11-2.6-15.4-2-2.6-4.4-6.7-5.4-9.1-1.1-2.2-1.8-3-1.8-1.5z"/><path class="a" d="m327.8 504.9c0 1.3 11.3 8.7 12.2 7.7 0.6-0.3-2-2.5-5.7-4.6-3.5-2.2-6.5-3.7-6.5-3.1z"/><path class="a" d="m327.8 510.1c0 0.5 2.2 2.2 4.8 4 2.8 1.7 4.3 2.3 3.7 1.1-1.3-2-8.5-6.4-8.5-5.1z"/><path class="a" d="m466.5 512.5c0 2 0.6 2.6 1.1 1.1 0.6-1.3 0.4-3-0.2-3.5-0.5-0.8-1.1 0.3-0.9 2.4z"/><path class="a" d="m534.7 515.4c0 1.7 1.3 4.1 3.1 5.4 2.8 2.4 2.8 2.2 0.6-2-3.2-6.3-3.7-6.7-3.7-3.4z"/><path class="a" d="m296.2 519.5c2.4 3 9.5 7.6 9.5 6.1 0-0.3-2.8-2.6-6-5-3.8-2.8-5.1-3.1-3.5-1.1z"/><path class="a" d="m510.1 522.1c0.6 2.2 1.7 4.6 2.6 5.2 2.6 1.5 2-1.9-1.1-5.9-2.4-3.4-2.6-3.4-1.5 0.7z"/><path class="a" d="m543.2 527.7c-0.9 3.3-0.9 6.6-0.4 7.2 1.3 1.3 3.5-8 2.4-10.9-0.4-1.3-1.3 0.3-2 3.7z"/><path class="a" d="m548.9 526.4c0.7 2.4 1.5 3.3 2 1.8 0.4-1.3-0.2-3.3-1.1-4.2-1.5-1.5-1.6-0.8-0.9 2.4z"/><path class="a" d="m531.7 534.5c0 3.4 0.6 6 1.5 5.4 1.8-1.1 2-11.9 0.2-11.9-0.9 0-1.5 3-1.7 6.5z"/><path class="a" d="m525.4 533.4c0 2.1 1 4.3 1.9 4.8 1.1 0.8 1.8-0.9 1.8-3.5 0-2.6-0.7-4.8-1.8-4.8-0.9 0-1.9 1.7-1.9 3.5z"/><path class="a" d="m285.1 540.8c2.4 2.3 5.2 3.9 6.3 3.9 2.2 0 2.1 0-5.1-4.4l-5.6-3.2z"/><path class="a" d="m152.9 547.5c2.8 2.6 5.9 4.6 7 4.6 3.2 0 1.7-1.4-5.1-5.3l-7.1-4.1z"/><path class="a" d="m521.2 545.8l-5.4 3 4.3 4.5c4.4 4.6 10.9 5.9 10.9 2-0.2-1.1-1.1-4.5-2.4-7.2-2.2-4.9-2.4-4.9-7.4-2.3z"/><path class="a" d="m263 551.8c2.6 2 7 5 10.1 6.8l5.8 3.2-4.5-3.7c-2.6-2.1-7-5-10.1-6.9l-5.8-3.1z"/><path class="a" d="m213.3 562.2c0 0.5 2.8 2.7 6.1 5 4.2 3.1 5.2 3.3 3.3 1.1-2.6-3.4-9.4-7.8-9.4-6.1z"/><path class="a" d="m530.4 569.6c0.6 4.8 0.2 8.5-1.1 9.2-1.1 0.8-2 2.3-2 3.4 0 1.3 1.1 1.1 2.8-0.4 2.9-2.6 3.8-17.6 1.1-19.3-1-0.5-1.1 2.6-0.8 7.1z"/><path fill-rule="evenodd" class="a" d="m120 576.8c9.1 17.8 12.8 23 25.7 35.6 6.3 6.1 9.4 9.4 6.8 7.4-2.5-2-8.6-7.4-13.4-11.9-5-4.6-8.9-7.4-8.9-6.3 0 1.3 5.9 7.5 13.3 13.9 21.2 18.8 56.9 54 55.8 55.1-0.6 0.6-6.9-5.2-14.1-12.8-7.2-7.6-21.4-20.9-31.7-29.6-10.2-8.8-21.6-20.1-25.5-25.1-7.4-9.8-9.1-14.3-3.9-10 3.5 3 3.1 2.2-3.3-10.4-2.8-5.2-5.4-11.3-6.1-13.9-0.8-2.6 1.6 1.1 5.3 8zm8.3 18.9c-0.9-0.6-1.8-0.4-1.8 0.7 0 1 0.9 2.5 1.8 3 1.2 0.6 1.9 0.4 1.9-0.7 0-1-0.7-2.4-1.9-3z"/><path class="a" d="m150.5 577.4c0 1.3 12.2 6.3 15.1 6.3 1.3 0-1.3-1.7-5.7-3.8-8.7-4-9.4-4.2-9.4-2.5z"/><path class="a" d="m234.5 578.1c0.6 0.9 2.6 1.8 4.3 1.8 1.7 0.2 5.2 1.5 7.7 3l4.7 2.8-5.6-0.9c-4.2-0.8-3.3 0 3.7 3.3 7.6 3.7 8.5 4.6 4.6 4.8-3.8 0.2-3.5 0.6 2.4 2.8 8 2.8 10.6 4.6 6.7 4.6-1.5 0 1.1 2.1 5.5 4.7 4.3 2.6 8.5 4.6 9.1 4.6 2 0-13.5-13-17-14.1-2.4-0.7-2.8-1.5-1.3-2.6 1.5-0.7 0.2-2.4-3.9-4.2-3.3-1.7-4.8-3.2-3.3-3.2 1.5-0.2-0.9-2.2-5.6-4.6-8.6-4.7-13.8-6-12-2.8z"/><path class="a" d="m152.4 584.4c2.7 2.8 14.7 7.4 14.7 5.6 0-0.6-7.5-4.5-15.7-7.8-0.9-0.4-0.5 0.5 1 2.2z"/><path class="a" d="m104.3 589.8c0 0.3 2.8 2.9 6.1 6.1l5.9 5.4-5.3-6.2c-5.2-5.5-6.7-6.8-6.7-5.3z"/><path class="a" d="m420.2 591.8c0 0.4-1.2 3.5-2.6 7.1-2.4 5.7-2.4 7 0.9 14.2 2.9 6.9 25.3 30.8 27.1 29.1 0.2-0.3-1.3-3.9-3.7-7.7-2.2-3.9-5.1-11.7-6.4-17.5l-2.4-10.2 0.7 10.2 0.8 10.2-2.6-8.3c-1.5-4.7-2.2-10.8-1.5-13.7 0.9-3.9 0.6-5-1.1-3.9-1.7 0.9-2 4.6-1.1 11.8 0.7 8 0.5 9.7-0.9 6.9-2.6-4.3-3.2-15.4-1-21.5 1.3-3.9 1.1-4.3-0.9-2.2-1.7 1.4-2.6 6.1-2.4 11.8 0 6.1-0.4 8.4-1.3 6-2-5.2-2-15.2 0.2-16.5 1.1-0.6 1.8-2.5 1.8-3.9 0-1.5-0.7-2.6-1.8-2.6-0.9 0-1.8 0.3-1.8 0.7z"/><path class="a" d="m105.3 596.6c1.8 2.1 3.7 3.7 4.2 3.7 0.6 0-0.5-1.6-2.4-3.7-1.8-2-3.7-3.7-4.2-3.7-0.6 0 0.5 1.7 2.4 3.7z"/><path class="a" d="m209.4 595.1c1.3 1.7 1.9 3.9 1.3 4.9-0.5 1.1 0.2 2.8 1.7 4 1.5 1.3 2.8 1.7 2.8 1 0-1 1.6 0 3.6 1.8 5.2 4.7 4.7 8-0.3 3.6-2.4-1.9 0.3 1.2 5.9 7.2 5.5 5.7 10.5 10.6 10.9 10.6 0.5 0-2.2-3.2-6.1-7.3-5.6-5.7-6.3-7.4-4.1-8.1 1.7-0.8 4.5-0.8 6.3-0.4 1.7 0.5 0.9-0.2-2-1.5-2.8-1.3-8.9-6.1-13.7-10.7-4.8-4.5-7.6-6.7-6.3-5.1z"/><path class="a" d="m160.5 597.6c2 1.4 4.8 2.7 6.1 2.7 4 0 2.6-1.4-3.5-3.5-5.6-1.8-5.8-1.7-2.6 0.8z"/><path class="a" d="m122.8 603.5c0 0.9 2.8 5 6.1 9.1 3.7 4.4 5.9 8.9 5.7 11.8-0.3 3.8 5.9 11 31.4 36.4 17.4 17.2 35.3 33.7 39.9 36.5 12.6 7.4 41.8 18.2 45.5 16.7 2-0.8 2.7-0.4 2 0.7-0.8 1.3 1.5 1.3 7.6 0.2 4.8-0.9 11.6-1.1 15.1-0.7 4.8 0.7 5.5 0.5 2.8-0.8l-3.7-1.6 3.7-0.2c9-0.8-6.3-3.4-19.4-3.2l-13.9 0.2 14.8 1.1 14.8 1.1-14.8 0.4c-8.1 0.2-16.1-0.5-17.5-1.5-2.4-1.6-2.4-1.8 0-2 1.4 0-0.6-1.1-4.7-2.6-7.2-2.4-7.2-2.4-1.8-2.8 4.6-0.4 4.1-0.7-3.7-2.6l-9.2-2.4 6.4-2 6.5-2.1-8.3 0.8c-4.6 0.3-6.7 0.3-4.6-0.2 5.3-1.5 8.5-5.2 3.3-3.9-2.4 0.5-4.8 0.2-5.4-0.8-0.5-0.9-2.9-1.6-5.5-1.6-2.6 0-6.5-0.9-8.5-2.1-3.7-2-3.7-2.4-0.9-4.4 2.9-2 2.6-2.6-2.4-4.6-3.2-1.3-12.2-9.3-20.3-18-14.3-15-39.8-34.7-42.7-33-0.7 0.5-2 0-2.8-1.1-0.9-1.5-0.5-1.7 1.1-0.8 1.7 1.1-9.6-13.9-15.9-21.1-0.3-0.4-0.7 0-0.7 1.1z"/><path class="a" d="m164.2 604.8c2 1.7 4.4 3 5.5 3 2.2 0 1.3-1-4.4-3.6-4.5-2-4.5-2-1.1 0.6z"/><path class="a" d="m121 608.9c0 1.3 1.6 4 3.6 6.5 4.7 5.7 4.8 2.2 0-3.9-2-2.6-3.6-3.7-3.6-2.6z"/><path class="a" d="m152.4 612.8c0 2.4 5.3 7 6.4 5.7 0.6-0.5-0.7-2.4-2.7-4.3-2.1-1.8-3.7-2.4-3.7-1.4z"/><path class="a" d="m230.8 617.8c3.2 2.6 6.3 4.8 7.2 4.8 2.1 0 2.1 0-6.2-5.4l-6.5-4.3z"/><path class="a" d="m281.6 614.1c0 0.3 1.3 1.3 3 1.8 1.5 0.6 2.2 0.4 1.7-0.7-1.2-1.9-4.7-2.6-4.7-1.1z"/><path class="a" d="m439.5 618.9c1.5 8.5 10.8 27 12.8 25.9 0.7-0.5 3.5 2.8 5.9 7.5 5.5 10.1 5.2 8.7-3-11.9-3.5-8.9-6.6-15.4-7-14.5-0.3 1.1 0.8 5 2.4 8.9 1.5 3.7 2.4 7.3 2.1 7.8-1.3 1.1-10.4-17.6-10.4-21.3 0-1.9-0.9-4.6-2-6.1-1.3-2.1-1.7-1.1-0.8 3.7z"/><path class="a" d="m466.5 618.5c1.1 3.3 2.8 6.5 3.7 7.1 0.9 0.5 0.8-1.3-0.5-4.3-3.2-7.6-5.6-9.8-3.2-2.8z"/><path class="a" d="m309.3 619.8c4.6 2.4 9.3 4.5 10.2 4.5 1.1 0-1.9-2.1-6.5-4.5-4.6-2.4-9-4.4-10.1-4.4-1 0 1.8 2 6.4 4.4z"/><path class="a" d="m313 626.3c1.5 0.9 3.7 1.9 4.7 1.9 1.1 0 0.5-1-1-1.9-1.4-0.9-3.5-1.9-4.6-1.9-0.9 0-0.5 1 0.9 1.9z"/><path class="a" d="m162.5 628.2c0.6 0.9 3 2.7 5.2 3.8 4 2.3 4 2.3 0.5-1.8-3.5-3.9-7.9-5.6-5.7-2z"/><path class="a" d="m453.6 627.4c-0.2 1.1 2.8 7.8 6.3 14.8 3.5 7.1 6.2 11.9 6.2 11 0-2.8-12.3-28.2-12.5-25.8z"/><path fill-rule="evenodd" class="a" d="m211.8 637.6c10.2 8.7 13.5 12.8 6.3 8.2-2.6-1.9-4.8-2.6-4.8-1.9 0 3-10-7-10.2-10.2-0.1-2.8 1.5-2 8.7 3.9zm-3.3-0.2c-1.5 0-0.6 1.5 2.6 3.9 2.8 2.4 2.9 2.2 0.5-0.7-1.3-1.7-2.7-3.2-3.1-3.2z"/><path class="a" d="m321.7 633.9c1.3 1.3 2.8 1.9 3.3 1.3 0.6-0.6-0.3-1.7-2.2-2.2-2.6-1.1-2.7-1-1.1 0.9z"/><path class="a" d="m329.3 633.2c1.8 0.7 1.6 1.6-0.9 3.5-3 2.4-2.8 2.4 1.8 0.4 3.7-1.5 4.4-2.6 2.8-3.8-1.3-0.7-3.2-1.3-4.3-1.3-0.9 0-0.7 0.6 0.6 1.2z"/><path class="a" d="m285.9 645.8c2.9 7.4 4.4 9.2 5.3 6.8 0.8-1.6 1.3-2.2 1.3-1.1 0.2 0.9 1.5 3.5 3 5.6 1.8 2.4 1.7 0.9-0.7-4.8-1.9-4.7-3.9-9.7-4.7-11.2-0.5-1.5-0.7 0.2-0.1 3.7l0.9 6.5-3.7-7.9c-5.2-11.2-5.9-9.7-1.3 2.4z"/><path class="a" d="m131.1 644.8c1.9 2.1 3.7 3.7 4.3 3.7 0.5 0-0.6-1.6-2.4-3.7-1.9-2-3.7-3.7-4.3-3.7-0.5 0 0.6 1.7 2.4 3.7z"/><path class="a" d="m298.3 642.6c0 1.3 2.2 6.5 4.8 11.7 2.6 5.2 4.2 9.8 3.7 10.4-0.6 0.5-3.5-4.3-6.7-10.8-2.9-6.5-5-9.8-4.4-7.2 2.4 9.1 10.3 23 11.8 20.4 1.1-1.7 1.9-1.5 3.5 1.1 1.1 2 1.9 2.6 1.9 1.7 0-3-14.4-29.9-14.6-27.3z"/><path class="a" d="m312.9 661.1c5.3 10.6 10.3 18.4 11.8 18.4 2 0 1.5-2.8-2.6-12.8-4.6-11.3-10.9-22.6-10.9-19.6 0 0.5 2.6 6.1 5.5 12.2 3.2 6.3 5.6 12.4 5.4 13.7 0 1.3-3.7-4.8-8.3-13.9-4.5-8.9-8.5-16.1-9.1-16.1-0.5 0 3.2 8.1 8.2 18.1z"/><path class="a" d="m137.6 649.1c0 0.4 2.7 3 6.1 6.1l5.9 5.4-5.4-6.1c-5.2-5.6-6.6-6.9-6.6-5.4z"/><path class="a" d="m209.2 653.4c2.1 2.9 7.4 8.7 11.8 12.8l8 7.4-8-8.6c-4.2-4.6-7.3-8.9-6.8-9.4 0.6-0.6-1.1-2.4-3.9-4.3l-4.9-3.3z"/><path class="a" d="m185.6 652.1c0 1.8 14 15 16.1 15 0.5 0-0.4-1.7-2.2-3.7-1.9-2.1-2.6-3.7-1.9-3.7 0.9 0-0.4-2.1-2.8-4.7-4.2-4.6-9.2-6.1-9.2-2.9z"/><path class="a" d="m263.2 656c2.6 2 6.2 4.6 8.3 5.7 2.6 1.3 2.2 0.7-0.9-2-2.6-2.1-6.3-4.7-8.4-5.8-2.5-1.3-2.2-0.7 1 2.1z"/><path class="a" d="m470.6 655c0.7 1.9 2.2 7.1 3.5 11.5 1.1 4.7 3.1 8.7 4.2 9.3 1.3 0.4 3.5 3.5 4.7 6.7 6.1 15.4 11.8 27.2 13.3 27.2 0.7 0-0.2-3.5-2.4-7.9-2.4-4.3-6-13.4-8.2-20.4-2.2-6.9-4.6-11.9-5.1-11.2-0.8 0.6-1.3-0.5-1.3-2.6 0-2-1.3-4.8-2.8-6.1-1.5-1.3-2.8-3.3-2.8-4.8 0-1.3-0.9-3-2.2-3.7-1.5-0.9-1.7-0.4-0.9 2z"/><path class="a" d="m327.8 655.8c0 1.1 0.8 2.4 1.9 2.9 1.1 0.6 1.3-0.1 0.7-1.6-1.3-3.4-2.6-3.9-2.6-1.3z"/><path fill-rule="evenodd" class="a" d="m234.5 655.6l5.6 3.1c7.6 4.5 13.8 10.4 12.9 12.1q-0.2 0.3 0 0.9l-3.5-4.2c-2-2.3-4.4-4.1-5.4-4.1q-0.3 0-0.5 0l-4.4-3.9zm40.4 33c5.2 2.4 8.1 4.4 6.5 4.4-4.1 0-23.5-12-31.2-19.2-3.5-3.4-8.5-7.7-11.1-9.3l-4.6-3.4 4.6 1.3 4.1 1q-0.6 0.2-0.2 0.5c0.3 0.2 2.7 2.1 5.3 4.1l4.6 3.7c1.1 3.5 13 12.7 22 16.9zm-31.2-25l-0.2-0.2q-0.2 0-0.3 0zm9.2 8.2v-0.1q0 0.1 0 0.1z"/><path class="a" d="m336.1 663.4c1.7 2.9 3.3 5.5 3.9 5.5 0.4 0-0.4-2.6-2-5.5-1.7-3.2-3.4-5.6-3.9-5.6-0.4 0 0.4 2.4 2 5.6z"/><path class="a" d="m457.3 658.7c-0.4 4.1 7 20.4 9 19.9 1.5-0.4 1.7 2 1 7.4-0.8 5 0 10.9 1.6 16.3 2.6 7.6 2.4 2.6-0.2-6.5-1.8-6.8 1.9-1.1 5.8 8.7 2.4 6.3 5.1 10 7.4 10.4 3.1 0.8 3.3 0 2.2-5.4-3-15.3-4.5-20.7-4.7-17-0.3 8.5-3.8 5.5-7.9-6.9-3.1-10.2-4.4-12.4-5.5-9.8-1.1 2.2-1.3 1.1-0.8-3.2 0.6-3.5 0.4-5.1-0.2-3.7-0.7 1.9-2.2 0.4-4.4-4.6-1.8-4.1-3.3-6.7-3.3-5.6z"/><path class="a" d="m159.7 660.4c0 1.1 18.3 19.5 25.2 25.2 2.9 2.6 0-1.3-6.7-8.5-10.9-11.9-18.5-18.7-18.5-16.7z"/><path class="a" d="m322.3 660.4c0 2 11.4 23.6 12.2 22.8 0.3-0.4-2.3-5.9-5.8-12.6-3.5-6.5-6.4-11.1-6.4-10.2z"/><path class="a" d="m229.9 669.7c4.3 4.6 11.1 9.6 11.1 7.9 0-0.3-3.5-3.5-7.8-6.8-7-5.4-7.3-5.6-3.3-1.1z"/><path class="a" d="m329.9 666.2c0 0.9 1.1 3.8 2.5 6.4 1.5 2.6 2.6 3.8 2.6 2.8 0-1.1-1.1-3.9-2.6-6.5-1.4-2.6-2.5-3.9-2.5-2.7z"/><path class="a" d="m166.2 674.5c1.9 2 3.7 3.7 4.3 3.7 0.5 0-0.6-1.7-2.4-3.7-1.9-2-3.7-3.7-4.3-3.7-0.6 0 0.6 1.7 2.4 3.7z"/><path fill-rule="evenodd" class="a" d="m344.6 681.9c4.1 6.3 8 11.1 8.5 10.6 0.6-0.6-0.7-3.4-2.6-6.3-4.8-7.1-6.4-9.8-5.5-9.8 1.3 0 15.1 21.1 14.8 22.4-0.2 0.7 1.4 2.8 3.6 4.6l4.1 3.5-3.5-4.2c-3.7-4.3-1.8-5.8 2.6-1.9 1.5 1.3 0.7 0-1.9-2.9l-4.6-5.4 4.5 2.4c4.9 2.6 4.2 0.4-1.9-6.5-3.3-3.7-3.3-3.9 0.7-3.7 4.7 0 16.1 7.6 16.1 10.6 0 1.3-1.8 0.5-4-1.5-10-8.7-10.8-8-1.3 1.3 10.7 10.4 20.6 23.7 23.8 32 2 5.4-0.2 6.4-3.9 1.7-1.5-1.7-7.9-5.5-14.4-8.5-12.6-5.6-24.9-14.1-23.3-15.8 0.6-0.5 2.8 0.8 5.2 2.8 2.2 2.1 6.7 5.2 9.6 6.9 5.5 3.1 5.5 3.1 0.9-0.2-2.6-1.9-8.1-6.5-12.3-10.4-6.7-6.1-8-6.7-9.5-4.1-1.4 2.8-2.2 2.6-5.5-1.8-2.2-2.8-3.5-5.8-3-6.7 0.4-0.9-0.5-3.9-2.2-6.7-4-6.5-1.1-3.7 5.6 5.6 8.1 11.3 7.5 6.7-0.6-5.2-4.2-5.9-7.6-11.7-7.6-12.6 0-1.1 3.4 3.3 7.6 9.8zm-1.7 9.3c-0.5 0 0.6 1.6 2.4 3.7 1.9 2 3.7 3.7 4.3 3.7 0.6 0-0.6-1.7-2.4-3.7-1.9-2.1-3.7-3.7-4.3-3.7zm13.5 3.7c-1.6-1.5-2.7-1.5-2.7-0.4 0 2.2 3.5 4.8 4.8 3.5 0.3-0.3-0.4-1.8-2.1-3.1z"/><path class="a" d="m204.1 673.4c0 0.4 1.6 1.1 3.7 1.7 2 0.5 3.3 0.1 2.5-0.8-0.9-1.7-6.2-2.4-6.2-0.9z"/><path class="a" d="m262.4 676.7c1.3 2.3 11.9 7.4 13.5 6.7 0.8-0.4-2.2-2.2-6.4-4.4-4.5-2.1-7.6-3.2-7.1-2.3z"/><path class="a" d="m208.7 683.8c2 0.9 5.3 1.5 7.4 1.5 2.9 0 2.7-0.4-1-1.5-6.2-2.1-11-2.1-6.4 0z"/><path class="a" d="m243.2 684.9c1.9 1.8 3.7 2.9 4.1 2.4 0.5-0.6-0.9-2-3.2-3.3-3.8-2.5-3.8-2.3-0.9 0.9z"/><path class="a" d="m473.9 684.9c0 2 0.6 2.6 1.1 1.1 0.6-1.3 0.4-3-0.2-3.5-0.5-0.8-1.1 0.3-0.9 2.4z"/><path class="a" d="m329.7 686.4c0 0.3 1.4 1.8 3.3 3.1 2.7 2.4 2.9 2.2 0.5-0.7-2.4-3-3.8-3.9-3.8-2.4z"/><path class="a" d="m475.8 692.3c0 2 0.5 2.6 1.1 1.1 0.5-1.3 0.3-3-0.2-3.5-0.6-0.8-1.1 0.4-0.9 2.4z"/><path class="a" d="m235.1 698c2.2 0.4 5.5 0.4 7.4 0 1.6-0.5-0.2-0.9-4.3-0.7-4 0-5.5 0.4-3.1 0.7z"/><path class="a" d="m248 699.9c1.3 0.6 3 0.4 3.5-0.2 0.8-0.5-0.3-1.1-2.4-0.9-2 0-2.6 0.5-1.1 1.1z"/><path class="a" d="m274.4 699.3c1.9 1.7 12.8 6.7 12.8 6 0-1.1-10.2-6.7-12.2-6.7-0.8 0-0.9 0.4-0.6 0.7z"/><path class="a" d="m388 707.3c3.5 4.6 8.2 11.7 10.2 15.8 2 3.9 3.9 7 4.4 7 1.5 0-2.8-9.4-6.4-14.8-2.1-3-3.7-5.9-3.7-6.9 0-2-8-9.8-9.8-9.8-0.8 0 1.6 3.9 5.3 8.7z"/><path class="a" d="m245.2 703.6c1.7 0.4 4.3 0.4 5.6 0 1.1-0.6-0.2-0.9-3.3-0.9-3 0-4.1 0.3-2.3 0.9z"/><path class="a" d="m256.3 705.5c1.7 0.3 4.3 0.3 5.6 0 1.1-0.6-0.2-1-3.4-1-2.9 0-4 0.4-2.2 1z"/><path class="a" d="m395 708.2c1.5 2.5 5.6 8.8 8.9 13.9 3.3 5.4 6.8 9.9 7.6 9.9 0.9 0 0.2-2.3-1.7-5.2-1.6-2.8-5.7-8.9-8.9-13.7-3.1-4.9-6.4-8.9-7.3-8.9-1 0-0.2 1.8 1.4 4z"/><path class="a" d="m314.9 713.1c0 0.7 1.8 2.4 4.2 3.9 4.1 2.5 4.1 2.5 0.6-1.5-3.7-4.1-4.8-4.7-4.8-2.4z"/><path class="a" d="m471.9 713.2c0 1.2 0.7 2.5 1.8 3 1.1 0.6 1.3-0.2 0.8-1.7-1.3-3.3-2.6-3.8-2.6-1.3z"/><path class="a" d="m258.2 718.3c1.3 1.4 16 1.2 17.5 0 0.6-0.6-3.5-1.2-8.8-1.2-5.4 0-9.5 0.6-8.7 1.2z"/><path class="a" d="m325.8 719.5c1.5 1.7 2.9 2.8 3.5 2.3 0.5-0.6 2.2 0.2 3.9 1.5 2.6 2 2.6 1.8 0.3-1.2-1.4-1.6-2.9-2.7-3.5-2.2-0.5 0.6-2.2-0.2-3.8-1.5-2.6-2-2.6-1.8-0.4 1.1z"/><path class="a" d="m288.6 720.3c1.2 0.4 3.4 0.4 4.7 0 1.1-0.6 0.2-0.9-2.4-0.9-2.6 0-3.5 0.3-2.3 0.9z"/><path class="a" d="m282.6 724.6c7.2 1.6 16.6 3.5 21.2 4.2l8.3 0.9-7.4-2.4c-4-1.3-6.1-2.6-4.6-2.9 3.9-0.6-16.1-3.2-24-3.2-5 0-3.3 0.8 6.5 3.4z"/><path class="a" d="m338.9 724.2c1.3 2.4 2.6 3.9 3.1 3.3 0.8-0.5 2.4 0 3.9 1.3 2.4 2.1 2.6 1.7 0.2-2-1.5-2.2-3-3.2-3.1-2.2-0.4 1.1-1.9 0.5-3.6-1.3-2.4-3-2.4-3-0.5 0.9z"/></g></svg>