<svg xmlns="http://www.w3.org/2000/svg" width="287.147" height="74.978" viewBox="0 0 287.147 74.978"><g transform="translate(-91 -65.237)"><g transform="translate(183.281 70.686)"><path d="M370.578,3977.432v-12.974h2.3v12.974Z" transform="translate(-370.379 -3935.023)" fill="#fff"/><path d="M375.973,3977.432v-9.741h1.885l.159,1.31h.079a7.716,7.716,0,0,1,1.418-1.091,3.4,3.4,0,0,1,1.776-.456,2.607,2.607,0,0,1,2.281,1,4.886,4.886,0,0,1,.715,2.866v6.11H382v-5.812a3.029,3.029,0,0,0-.357-1.706,1.342,1.342,0,0,0-1.17-.5,2.049,2.049,0,0,0-1.121.307,7.144,7.144,0,0,0-1.1.9v6.8Z" transform="translate(-370.379 -3935.023)" fill="#fff"/><path d="M389.8,3977.67a5.371,5.371,0,0,1-1.993-.387,6.406,6.406,0,0,1-1.7-.962l1.071-1.468a6.178,6.178,0,0,0,1.3.8,3.388,3.388,0,0,0,1.4.287,1.754,1.754,0,0,0,1.17-.327,1.066,1.066,0,0,0,.377-.843.831.831,0,0,0-.178-.526,1.725,1.725,0,0,0-.477-.407,4.646,4.646,0,0,0-.674-.327c-.251-.1-.5-.2-.754-.307q-.475-.179-.972-.417a3.909,3.909,0,0,1-.883-.575,2.911,2.911,0,0,1-.635-.784,2.152,2.152,0,0,1-.248-1.061,2.638,2.638,0,0,1,.953-2.1,3.87,3.87,0,0,1,2.6-.813,4.5,4.5,0,0,1,1.826.357,6.812,6.812,0,0,1,1.408.813l-1.051,1.389a5.479,5.479,0,0,0-1.042-.6,2.738,2.738,0,0,0-1.1-.228,1.6,1.6,0,0,0-1.081.307.978.978,0,0,0-.347.764.782.782,0,0,0,.168.506,1.563,1.563,0,0,0,.447.367,4.424,4.424,0,0,0,.645.3c.244.093.5.186.763.278q.5.179.992.407a4.063,4.063,0,0,1,.9.565,2.578,2.578,0,0,1,.654.824,2.514,2.514,0,0,1,.248,1.16,2.805,2.805,0,0,1-.248,1.18,2.715,2.715,0,0,1-.724.953,3.527,3.527,0,0,1-1.19.644A5.12,5.12,0,0,1,389.8,3977.67Z" transform="translate(-370.379 -3935.023)" fill="#fff"/><path d="M398.668,3977.67a3.565,3.565,0,0,1-1.438-.258,2.433,2.433,0,0,1-.952-.724,2.982,2.982,0,0,1-.536-1.11,5.712,5.712,0,0,1-.168-1.439V3969.5h-1.389v-1.706l1.507-.1.278-2.657h1.9v2.657h2.48v1.806h-2.48v4.642q0,1.707,1.368,1.706a2.6,2.6,0,0,0,1.012-.218l.4,1.686a7.552,7.552,0,0,1-.9.248A5.1,5.1,0,0,1,398.668,3977.67Z" transform="translate(-370.379 -3935.023)" fill="#fff"/><path d="M403.548,3965.986a1.453,1.453,0,0,1-1.012-.358,1.193,1.193,0,0,1-.4-.932,1.228,1.228,0,0,1,.4-.942,1.579,1.579,0,0,1,2.024,0,1.229,1.229,0,0,1,.4.942,1.194,1.194,0,0,1-.4.932A1.453,1.453,0,0,1,403.548,3965.986Zm-1.15,11.446v-9.741h2.281v9.741Z" transform="translate(-370.379 -3935.023)" fill="#fff"/><path d="M411.027,3977.67a3.562,3.562,0,0,1-1.438-.258,2.434,2.434,0,0,1-.952-.724,2.982,2.982,0,0,1-.536-1.11,5.664,5.664,0,0,1-.169-1.439V3969.5h-1.388v-1.706l1.507-.1.278-2.657h1.9v2.657h2.48v1.806h-2.48v4.642q0,1.707,1.369,1.706a2.6,2.6,0,0,0,1.012-.218l.4,1.686a7.6,7.6,0,0,1-.9.248A5.105,5.105,0,0,1,411.027,3977.67Z" transform="translate(-370.379 -3935.023)" fill="#fff"/><path d="M417.653,3977.67a2.608,2.608,0,0,1-2.282-1,4.9,4.9,0,0,1-.714-2.867v-6.111h2.282v5.813a3.03,3.03,0,0,0,.357,1.706,1.319,1.319,0,0,0,1.15.5,2,2,0,0,0,1.121-.317,4.608,4.608,0,0,0,1.042-1.032v-6.666h2.281v9.741h-1.865l-.178-1.428h-.06a5.707,5.707,0,0,1-1.379,1.21A3.292,3.292,0,0,1,417.653,3977.67Z" transform="translate(-370.379 -3935.023)" fill="#fff"/><path d="M429.218,3977.67a3.565,3.565,0,0,1-1.438-.258,2.433,2.433,0,0,1-.952-.724,2.982,2.982,0,0,1-.536-1.11,5.712,5.712,0,0,1-.168-1.439V3969.5h-1.389v-1.706l1.508-.1.277-2.657h1.9v2.657h2.48v1.806h-2.48v4.642q0,1.707,1.369,1.706a2.6,2.6,0,0,0,1.012-.218l.4,1.686a7.584,7.584,0,0,1-.9.248A5.114,5.114,0,0,1,429.218,3977.67Z" transform="translate(-370.379 -3935.023)" fill="#fff"/><path d="M436.618,3977.67a4.6,4.6,0,0,1-1.746-.337,4.36,4.36,0,0,1-1.478-.992,4.749,4.749,0,0,1-1.022-1.607,6.4,6.4,0,0,1,0-4.324,4.748,4.748,0,0,1,1.022-1.607,4.491,4.491,0,0,1,3.224-1.349,4.564,4.564,0,0,1,1.756.347,4.332,4.332,0,0,1,1.477,1,4.939,4.939,0,0,1,1.022,1.607,6.232,6.232,0,0,1,0,4.324,4.94,4.94,0,0,1-1.022,1.607,4.224,4.224,0,0,1-1.477.992A4.685,4.685,0,0,1,436.618,3977.67Zm0-1.865a1.947,1.947,0,0,0,1.686-.882,4.84,4.84,0,0,0,0-4.722,1.948,1.948,0,0,0-1.686-.883,1.926,1.926,0,0,0-1.677.883,4.917,4.917,0,0,0,0,4.722A1.925,1.925,0,0,0,436.618,3975.8Z" transform="translate(-370.379 -3935.023)" fill="#fff"/><path d="M450.9,3977.67a3.56,3.56,0,0,1-2.926-1.339,5.835,5.835,0,0,1-1.081-3.759,6.236,6.236,0,0,1,.347-2.143,4.98,4.98,0,0,1,.923-1.606,4.106,4.106,0,0,1,1.319-1.012,3.512,3.512,0,0,1,1.537-.357,3.14,3.14,0,0,1,1.409.287,5.686,5.686,0,0,1,1.15.784l-.079-1.567v-3.531h2.281v14H453.9l-.158-1.051h-.079a5.152,5.152,0,0,1-1.25.912A3.193,3.193,0,0,1,450.9,3977.67Zm.556-1.885a2.72,2.72,0,0,0,2.043-1.091v-4.542a3.227,3.227,0,0,0-1-.635,2.826,2.826,0,0,0-.982-.179,1.976,1.976,0,0,0-1.607.834,3.777,3.777,0,0,0-.654,2.38,4.252,4.252,0,0,0,.565,2.41A1.862,1.862,0,0,0,451.457,3975.785Z" transform="translate(-370.379 -3935.023)" fill="#fff"/><path d="M462.844,3977.67a5.063,5.063,0,0,1-1.885-.347,4.467,4.467,0,0,1-1.528-1,4.555,4.555,0,0,1-1.021-1.6,5.889,5.889,0,0,1-.368-2.152,5.767,5.767,0,0,1,.378-2.143,4.918,4.918,0,0,1,1-1.606,4.43,4.43,0,0,1,1.439-1.012,4.1,4.1,0,0,1,1.666-.357,4.238,4.238,0,0,1,1.746.337,3.42,3.42,0,0,1,1.259.952,4.187,4.187,0,0,1,.764,1.468,6.425,6.425,0,0,1,.258,1.865,6.353,6.353,0,0,1-.03.635,4.166,4.166,0,0,1-.069.476h-6.189a3.138,3.138,0,0,0,.922,2.013,2.769,2.769,0,0,0,1.954.705,3.579,3.579,0,0,0,1.18-.189,5.218,5.218,0,0,0,1.082-.525l.773,1.428a7.045,7.045,0,0,1-1.547.754A5.392,5.392,0,0,1,462.844,3977.67Zm-2.6-6.031h4.324a2.889,2.889,0,0,0-.486-1.775,1.754,1.754,0,0,0-1.5-.645,2.167,2.167,0,0,0-1.528.615A2.914,2.914,0,0,0,460.245,3971.639Z" transform="translate(-370.379 -3935.023)" fill="#fff"/><path d="M472.9,3977.432v-12.974h7.816v1.944H475.2v3.313h4.662v1.944H475.2v3.829h5.714v1.944Z" transform="translate(-370.379 -3935.023)" fill="#fff"/><path d="M486.093,3977.67a5.371,5.371,0,0,1-1.993-.387,6.412,6.412,0,0,1-1.7-.962l1.072-1.468a6.178,6.178,0,0,0,1.3.8,3.383,3.383,0,0,0,1.4.287,1.758,1.758,0,0,0,1.171-.327,1.066,1.066,0,0,0,.377-.843.832.832,0,0,0-.179-.526,1.734,1.734,0,0,0-.476-.407,4.61,4.61,0,0,0-.675-.327q-.377-.148-.753-.307-.477-.179-.972-.417a3.909,3.909,0,0,1-.883-.575,2.911,2.911,0,0,1-.635-.784,2.152,2.152,0,0,1-.248-1.061,2.637,2.637,0,0,1,.952-2.1,3.873,3.873,0,0,1,2.6-.813,4.492,4.492,0,0,1,1.825.357,6.82,6.82,0,0,1,1.409.813l-1.051,1.389a5.51,5.51,0,0,0-1.042-.6,2.745,2.745,0,0,0-1.1-.228,1.6,1.6,0,0,0-1.081.307.979.979,0,0,0-.348.764.777.777,0,0,0,.169.506,1.549,1.549,0,0,0,.447.367,4.408,4.408,0,0,0,.644.3c.245.093.5.186.764.278q.5.179.992.407a4.078,4.078,0,0,1,.9.565,2.6,2.6,0,0,1,.655.824,2.526,2.526,0,0,1,.248,1.16,2.82,2.82,0,0,1-.248,1.18,2.739,2.739,0,0,1-.724.953,3.527,3.527,0,0,1-1.19.644A5.128,5.128,0,0,1,486.093,3977.67Z" transform="translate(-370.379 -3935.023)" fill="#fff"/><path d="M494.961,3977.67a3.562,3.562,0,0,1-1.438-.258,2.437,2.437,0,0,1-.953-.724,3.013,3.013,0,0,1-.536-1.11,5.712,5.712,0,0,1-.168-1.439V3969.5h-1.389v-1.706l1.508-.1.278-2.657h1.9v2.657h2.48v1.806h-2.48v4.642q0,1.707,1.369,1.706a2.4,2.4,0,0,0,.526-.06,2.43,2.43,0,0,0,.486-.158l.4,1.686a7.6,7.6,0,0,1-.9.248A5.105,5.105,0,0,1,494.961,3977.67Z" transform="translate(-370.379 -3935.023)" fill="#fff"/><path d="M501.586,3977.67a2.609,2.609,0,0,1-2.281-1,4.9,4.9,0,0,1-.714-2.867v-6.111h2.282v5.813a3.039,3.039,0,0,0,.356,1.706,1.32,1.32,0,0,0,1.151.5,2,2,0,0,0,1.121-.317,4.586,4.586,0,0,0,1.041-1.032v-6.666h2.282v9.741h-1.865L504.78,3976h-.059a5.726,5.726,0,0,1-1.379,1.21A3.293,3.293,0,0,1,501.586,3977.67Z" transform="translate(-370.379 -3935.023)" fill="#fff"/><path d="M513.133,3977.67a3.562,3.562,0,0,1-2.927-1.339,5.835,5.835,0,0,1-1.081-3.759,6.236,6.236,0,0,1,.347-2.143,4.981,4.981,0,0,1,.923-1.606,4.107,4.107,0,0,1,1.319-1.012,3.513,3.513,0,0,1,1.538-.357,3.139,3.139,0,0,1,1.408.287,5.685,5.685,0,0,1,1.15.784l-.079-1.567v-3.531h2.281v14h-1.884l-.159-1.051h-.079a5.152,5.152,0,0,1-1.25.912A3.189,3.189,0,0,1,513.133,3977.67Zm.555-1.885a2.718,2.718,0,0,0,2.043-1.091v-4.542a3.235,3.235,0,0,0-1-.635,2.835,2.835,0,0,0-.983-.179,1.975,1.975,0,0,0-1.606.834,3.771,3.771,0,0,0-.655,2.38,4.252,4.252,0,0,0,.565,2.41A1.863,1.863,0,0,0,513.688,3975.785Z" transform="translate(-370.379 -3935.023)" fill="#fff"/><path d="M524.9,3977.67a4.608,4.608,0,0,1-1.746-.337,4.346,4.346,0,0,1-1.477-.992,4.734,4.734,0,0,1-1.022-1.607,6.387,6.387,0,0,1,0-4.324,4.733,4.733,0,0,1,1.022-1.607,4.487,4.487,0,0,1,3.223-1.349,4.564,4.564,0,0,1,1.756.347,4.346,4.346,0,0,1,1.478,1,4.938,4.938,0,0,1,1.021,1.607,6.232,6.232,0,0,1,0,4.324,4.939,4.939,0,0,1-1.021,1.607,4.238,4.238,0,0,1-1.478.992A4.685,4.685,0,0,1,524.9,3977.67Zm0-1.865a1.947,1.947,0,0,0,1.686-.882,4.839,4.839,0,0,0,0-4.722,1.948,1.948,0,0,0-1.686-.883,1.923,1.923,0,0,0-1.676.883,4.91,4.91,0,0,0,0,4.722A1.922,1.922,0,0,0,524.9,3975.8Z" transform="translate(-370.379 -3935.023)" fill="#fff"/><path d="M534.439,3977.67a5.372,5.372,0,0,1-1.994-.387,6.412,6.412,0,0,1-1.7-.962l1.072-1.468a6.178,6.178,0,0,0,1.3.8,3.388,3.388,0,0,0,1.4.287,1.755,1.755,0,0,0,1.17-.327,1.066,1.066,0,0,0,.377-.843.832.832,0,0,0-.179-.526,1.719,1.719,0,0,0-.476-.407,4.646,4.646,0,0,0-.674-.327q-.378-.148-.754-.307c-.317-.119-.642-.258-.972-.417a3.909,3.909,0,0,1-.883-.575,2.912,2.912,0,0,1-.635-.784,2.152,2.152,0,0,1-.248-1.061,2.64,2.64,0,0,1,.952-2.1,3.873,3.873,0,0,1,2.6-.813,4.5,4.5,0,0,1,1.826.357,6.809,6.809,0,0,1,1.408.813l-1.051,1.389a5.51,5.51,0,0,0-1.042-.6,2.744,2.744,0,0,0-1.1-.228,1.6,1.6,0,0,0-1.081.307.977.977,0,0,0-.347.764.782.782,0,0,0,.168.506,1.563,1.563,0,0,0,.447.367,4.41,4.41,0,0,0,.644.3q.367.14.764.278.5.179.992.407a4.109,4.109,0,0,1,.9.565,2.594,2.594,0,0,1,.655.824,2.539,2.539,0,0,1,.247,1.16,2.835,2.835,0,0,1-.247,1.18,2.729,2.729,0,0,1-.725.953,3.527,3.527,0,0,1-1.19.644A5.118,5.118,0,0,1,534.439,3977.67Z" transform="translate(-370.379 -3935.023)" fill="#fff"/><path d="M370.379,4002.772v-13.589h1.885l.158,1.031h.08a7.03,7.03,0,0,1,1.369-.893,3.473,3.473,0,0,1,1.567-.376,3.621,3.621,0,0,1,1.617.347,3.349,3.349,0,0,1,1.2,1,4.68,4.68,0,0,1,.754,1.567,7.545,7.545,0,0,1,.258,2.043,6.657,6.657,0,0,1-.348,2.232,5.061,5.061,0,0,1-.922,1.647,4.035,4.035,0,0,1-1.329,1.021,3.621,3.621,0,0,1-1.567.357,3.144,3.144,0,0,1-1.27-.277,4.861,4.861,0,0,1-1.23-.794l.06,1.627v3.055Zm4.246-5.495a1.986,1.986,0,0,0,1.626-.843,4.045,4.045,0,0,0,.655-2.51,4.4,4.4,0,0,0-.5-2.281,1.738,1.738,0,0,0-1.607-.814,3.164,3.164,0,0,0-2.142,1.091v4.543a3.38,3.38,0,0,0,1.031.635A2.759,2.759,0,0,0,374.625,3997.277Z" transform="translate(-370.379 -3935.023)" fill="#fff"/><path d="M383.69,3999.161a2.839,2.839,0,0,1-2.083-.783,2.783,2.783,0,0,1-.793-2.073,2.853,2.853,0,0,1,.327-1.379,2.822,2.822,0,0,1,1.032-1.042,6.9,6.9,0,0,1,1.785-.734,16.4,16.4,0,0,1,2.589-.456,3.706,3.706,0,0,0-.109-.724,1.678,1.678,0,0,0-.3-.615,1.389,1.389,0,0,0-.545-.417,2.072,2.072,0,0,0-.833-.148,3.674,3.674,0,0,0-1.4.278,9.472,9.472,0,0,0-1.339.674l-.833-1.528a9.829,9.829,0,0,1,1.825-.893,6.228,6.228,0,0,1,2.182-.376,3.351,3.351,0,0,1,2.728,1.081,4.762,4.762,0,0,1,.9,3.124v5.773h-1.885l-.159-1.071h-.079a7.227,7.227,0,0,1-1.4.933A3.542,3.542,0,0,1,383.69,3999.161Zm.734-1.785a2.137,2.137,0,0,0,1.082-.278,5.766,5.766,0,0,0,1.041-.793v-2.182a10.4,10.4,0,0,0-1.666.317,4.8,4.8,0,0,0-1.091.446,1.6,1.6,0,0,0-.6.565,1.358,1.358,0,0,0-.178.675,1.111,1.111,0,0,0,.4.952A1.632,1.632,0,0,0,384.424,3997.376Z" transform="translate(-370.379 -3935.023)" fill="#fff"/><path d="M391.566,3998.923v-9.74h1.885l.158,1.726h.08a4.072,4.072,0,0,1,1.25-1.458,2.748,2.748,0,0,1,2.618-.308l-.4,1.984a4.207,4.207,0,0,0-.476-.119,2.985,2.985,0,0,0-.535-.04,2.121,2.121,0,0,0-1.21.447,3.435,3.435,0,0,0-1.092,1.557v5.951Z" transform="translate(-370.379 -3935.023)" fill="#fff"/><path d="M400.811,3999.161a2.835,2.835,0,0,1-2.083-.783,2.78,2.78,0,0,1-.794-2.073,2.666,2.666,0,0,1,1.359-2.421,6.9,6.9,0,0,1,1.785-.734,16.4,16.4,0,0,1,2.589-.456,3.634,3.634,0,0,0-.109-.724,1.678,1.678,0,0,0-.3-.615,1.389,1.389,0,0,0-.545-.417,2.072,2.072,0,0,0-.833-.148,3.674,3.674,0,0,0-1.4.278,9.47,9.47,0,0,0-1.339.674l-.833-1.528a9.86,9.86,0,0,1,1.825-.893,6.232,6.232,0,0,1,2.182-.376,3.351,3.351,0,0,1,2.728,1.081,4.756,4.756,0,0,1,.9,3.124v5.773h-1.885l-.159-1.071h-.079a7.227,7.227,0,0,1-1.4.933A3.541,3.541,0,0,1,400.811,3999.161Zm.734-1.785a2.136,2.136,0,0,0,1.081-.278,5.765,5.765,0,0,0,1.041-.793v-2.182a10.4,10.4,0,0,0-1.666.317,4.8,4.8,0,0,0-1.091.446,1.59,1.59,0,0,0-.6.565,1.349,1.349,0,0,0-.179.675,1.111,1.111,0,0,0,.4.952A1.633,1.633,0,0,0,401.545,3997.376Z" transform="translate(-370.379 -3935.023)" fill="#fff"/><path d="M412.852,3998.923v-12.974h4.087a9.5,9.5,0,0,1,1.993.2,4.3,4.3,0,0,1,1.6.674,3.253,3.253,0,0,1,1.052,1.24,4.263,4.263,0,0,1,.377,1.894,4.308,4.308,0,0,1-.377,1.865,3.663,3.663,0,0,1-1.042,1.32,4.352,4.352,0,0,1-1.567.773,7.326,7.326,0,0,1-1.954.248h-1.865v4.761Zm2.3-6.606h1.686q2.857,0,2.857-2.361a1.843,1.843,0,0,0-.744-1.7,4.182,4.182,0,0,0-2.192-.466h-1.607Z" transform="translate(-370.379 -3935.023)" fill="#fff"/><path d="M427.393,3999.161a4.6,4.6,0,0,1-1.746-.337,4.342,4.342,0,0,1-1.478-.992,4.749,4.749,0,0,1-1.022-1.607,6.4,6.4,0,0,1,0-4.324,4.751,4.751,0,0,1,1.022-1.607,4.491,4.491,0,0,1,3.224-1.349,4.583,4.583,0,0,1,1.756.347,4.332,4.332,0,0,1,1.478,1,4.956,4.956,0,0,1,1.021,1.607,6.233,6.233,0,0,1,0,4.324,4.954,4.954,0,0,1-1.021,1.607,4.221,4.221,0,0,1-1.478.992A4.685,4.685,0,0,1,427.393,3999.161Zm0-1.864a1.946,1.946,0,0,0,1.686-.883,4.84,4.84,0,0,0,0-4.722,1.947,1.947,0,0,0-1.686-.882,1.925,1.925,0,0,0-1.677.882,4.917,4.917,0,0,0,0,4.722A1.924,1.924,0,0,0,427.393,3997.3Z" transform="translate(-370.379 -3935.023)" fill="#fff"/><path d="M434.2,3998.923v-14.005h2.281v14.005Z" transform="translate(-370.379 -3935.023)" fill="#fff"/><path d="M440.505,3987.556l-1.13-1.131,2.916-3.451,1.587,1.507Zm-1.111,11.367v-9.74h2.282v9.74Z" transform="translate(-370.379 -3935.023)" fill="#fff"/><path d="M448.222,3999.161a3.583,3.583,0,0,1-1.438-.257,2.435,2.435,0,0,1-.952-.725,2.98,2.98,0,0,1-.536-1.111,5.7,5.7,0,0,1-.168-1.438v-4.642h-1.389v-1.706l1.508-.1.277-2.658h1.9v2.658h2.48v1.8h-2.48v4.642q0,1.707,1.369,1.706a2.468,2.468,0,0,0,.525-.059,2.4,2.4,0,0,0,.486-.159l.4,1.686a7.584,7.584,0,0,1-.9.248A5.114,5.114,0,0,1,448.222,3999.161Z" transform="translate(-370.379 -3935.023)" fill="#fff"/><path d="M453.321,3987.477a1.459,1.459,0,0,1-1.012-.357,1.2,1.2,0,0,1-.4-.933,1.225,1.225,0,0,1,.4-.942,1.577,1.577,0,0,1,2.023,0,1.225,1.225,0,0,1,.4.942,1.2,1.2,0,0,1-.4.933A1.461,1.461,0,0,1,453.321,3987.477Zm-1.151,11.446v-9.74h2.281v9.74Z" transform="translate(-370.379 -3935.023)" fill="#fff"/><path d="M461.335,3999.161a5.045,5.045,0,0,1-1.855-.337,4.17,4.17,0,0,1-1.5-.992,4.555,4.555,0,0,1-.992-1.607,6.1,6.1,0,0,1-.358-2.162,5.568,5.568,0,0,1,.4-2.162,4.755,4.755,0,0,1,1.072-1.607,4.635,4.635,0,0,1,1.557-1,5.027,5.027,0,0,1,1.855-.347,3.873,3.873,0,0,1,1.636.317,5.331,5.331,0,0,1,1.22.774l-1.111,1.488a3.8,3.8,0,0,0-.783-.526,1.909,1.909,0,0,0-.844-.188,2.382,2.382,0,0,0-1.924.882,4.193,4.193,0,0,0-.01,4.722,2.313,2.313,0,0,0,1.875.883,2.416,2.416,0,0,0,1.081-.249,4.772,4.772,0,0,0,.923-.585l.932,1.508a4.879,4.879,0,0,1-3.174,1.19Z" transform="translate(-370.379 -3935.023)" fill="#fff"/><path d="M468.6,3999.161a2.835,2.835,0,0,1-2.083-.783,2.783,2.783,0,0,1-.794-2.073,2.671,2.671,0,0,1,1.359-2.421,6.905,6.905,0,0,1,1.786-.734,16.365,16.365,0,0,1,2.588-.456,3.632,3.632,0,0,0-.109-.724,1.66,1.66,0,0,0-.3-.615,1.4,1.4,0,0,0-.546-.417,2.072,2.072,0,0,0-.833-.148,3.677,3.677,0,0,0-1.4.278,9.472,9.472,0,0,0-1.339.674l-.833-1.528a9.86,9.86,0,0,1,1.825-.893,6.232,6.232,0,0,1,2.182-.376,3.351,3.351,0,0,1,2.728,1.081,4.756,4.756,0,0,1,.9,3.124v5.773h-1.885l-.159-1.071h-.079a7.167,7.167,0,0,1-1.4.933A3.538,3.538,0,0,1,468.6,3999.161Zm.734-1.785a2.136,2.136,0,0,0,1.081-.278,5.766,5.766,0,0,0,1.041-.793v-2.182a10.4,10.4,0,0,0-1.666.317,4.8,4.8,0,0,0-1.091.446,1.6,1.6,0,0,0-.6.565,1.359,1.359,0,0,0-.179.675,1.111,1.111,0,0,0,.4.952A1.637,1.637,0,0,0,469.33,3997.376Z" transform="translate(-370.379 -3935.023)" fill="#fff"/><path d="M479.189,3999.161a5.4,5.4,0,0,1-1.994-.387,6.424,6.424,0,0,1-1.7-.961l1.071-1.469a6.184,6.184,0,0,0,1.3.8,3.388,3.388,0,0,0,1.4.287,1.757,1.757,0,0,0,1.17-.327,1.066,1.066,0,0,0,.377-.843.833.833,0,0,0-.179-.526,1.72,1.72,0,0,0-.476-.407,4.83,4.83,0,0,0-.674-.327q-.378-.148-.754-.307-.477-.178-.972-.417a3.876,3.876,0,0,1-.883-.575,2.9,2.9,0,0,1-.635-.784,2.143,2.143,0,0,1-.248-1.061,2.64,2.64,0,0,1,.952-2.1,3.873,3.873,0,0,1,2.6-.813,4.492,4.492,0,0,1,1.825.357,6.82,6.82,0,0,1,1.409.813l-1.052,1.389a5.473,5.473,0,0,0-1.041-.6,2.745,2.745,0,0,0-1.1-.228,1.6,1.6,0,0,0-1.082.307.981.981,0,0,0-.347.764.783.783,0,0,0,.169.506,1.558,1.558,0,0,0,.446.367,4.449,4.449,0,0,0,.645.3c.245.093.5.186.764.278q.495.179.992.407a4.071,4.071,0,0,1,.9.565,2.574,2.574,0,0,1,.655.823,2.531,2.531,0,0,1,.248,1.161,2.82,2.82,0,0,1-.248,1.18,2.715,2.715,0,0,1-.724.953,3.515,3.515,0,0,1-1.19.644A5.131,5.131,0,0,1,479.189,3999.161Z" transform="translate(-370.379 -3935.023)" fill="#fff"/><path d="M492.4,3999.161a3.561,3.561,0,0,1-2.926-1.339,5.835,5.835,0,0,1-1.081-3.759,6.212,6.212,0,0,1,.347-2.143,5.012,5.012,0,0,1,.922-1.607,4.132,4.132,0,0,1,1.32-1.011,3.512,3.512,0,0,1,1.537-.357,3.13,3.13,0,0,1,1.409.288,5.619,5.619,0,0,1,1.15.783l-.079-1.567v-3.531h2.281v14.005H495.4l-.158-1.051h-.08a5.175,5.175,0,0,1-1.249.913A3.2,3.2,0,0,1,492.4,3999.161Zm.556-1.884a2.723,2.723,0,0,0,2.043-1.091v-4.543a3.232,3.232,0,0,0-1-.635,2.829,2.829,0,0,0-.982-.179,1.975,1.975,0,0,0-1.607.834,3.777,3.777,0,0,0-.655,2.38,4.249,4.249,0,0,0,.566,2.41A1.86,1.86,0,0,0,492.957,3997.277Z" transform="translate(-370.379 -3935.023)" fill="#fff"/><path d="M504.343,3999.161a5.061,5.061,0,0,1-1.884-.347,4.469,4.469,0,0,1-1.528-1,4.589,4.589,0,0,1-1.022-1.6,5.915,5.915,0,0,1-.366-2.153,5.788,5.788,0,0,1,.376-2.143,4.952,4.952,0,0,1,1-1.607,4.448,4.448,0,0,1,1.438-1.011,4.111,4.111,0,0,1,1.667-.357,4.238,4.238,0,0,1,1.746.337,3.409,3.409,0,0,1,1.259.952,4.187,4.187,0,0,1,.764,1.468,6.425,6.425,0,0,1,.258,1.865,6.353,6.353,0,0,1-.03.635,4.406,4.406,0,0,1-.069.476h-6.189a3.138,3.138,0,0,0,.922,2.014,2.772,2.772,0,0,0,1.954.7,3.609,3.609,0,0,0,1.18-.188,5.324,5.324,0,0,0,1.082-.526l.773,1.428a7.056,7.056,0,0,1-1.547.754A5.394,5.394,0,0,1,504.343,3999.161Zm-2.6-6.03h4.324a2.891,2.891,0,0,0-.486-1.776,1.753,1.753,0,0,0-1.5-.644,2.163,2.163,0,0,0-1.528.614A2.915,2.915,0,0,0,501.745,3993.131Z" transform="translate(-370.379 -3935.023)" fill="#fff"/><path d="M518.19,3999.161a6.72,6.72,0,0,1-4.682-1.9l1.349-1.567a5.809,5.809,0,0,0,1.587,1.061,4.277,4.277,0,0,0,1.786.407,2.671,2.671,0,0,0,1.686-.456,1.47,1.47,0,0,0,.575-1.211,1.414,1.414,0,0,0-.148-.674,1.551,1.551,0,0,0-.417-.486,3.572,3.572,0,0,0-.635-.387q-.367-.179-.8-.357l-1.785-.774a6.082,6.082,0,0,1-.942-.5,4.091,4.091,0,0,1-.843-.714,3.238,3.238,0,0,1-.834-2.242,3.214,3.214,0,0,1,.328-1.438,3.643,3.643,0,0,1,.9-1.16,4.177,4.177,0,0,1,1.379-.774,5.347,5.347,0,0,1,1.756-.278,5.524,5.524,0,0,1,2.182.447,5.626,5.626,0,0,1,1.8,1.2l-1.17,1.469a5.829,5.829,0,0,0-1.309-.814,3.707,3.707,0,0,0-1.508-.3,2.465,2.465,0,0,0-1.488.407,1.312,1.312,0,0,0-.556,1.12,1.19,1.19,0,0,0,.169.645,1.724,1.724,0,0,0,.456.476,3.719,3.719,0,0,0,.665.377q.377.17.774.328l1.765.734a6.083,6.083,0,0,1,1.052.555,3.827,3.827,0,0,1,.823.734,3.179,3.179,0,0,1,.545.962,3.662,3.662,0,0,1,.2,1.26,3.517,3.517,0,0,1-1.24,2.707,4.529,4.529,0,0,1-1.468.834A5.8,5.8,0,0,1,518.19,3999.161Z" transform="translate(-370.379 -3935.023)" fill="#fff"/><path d="M527.375,3999.161a2.837,2.837,0,0,1-2.083-.783,2.783,2.783,0,0,1-.794-2.073,2.671,2.671,0,0,1,1.359-2.421,6.921,6.921,0,0,1,1.786-.734,16.358,16.358,0,0,1,2.589-.456,3.706,3.706,0,0,0-.11-.724,1.661,1.661,0,0,0-.3-.615,1.4,1.4,0,0,0-.546-.417,2.068,2.068,0,0,0-.833-.148,3.669,3.669,0,0,0-1.4.278,9.43,9.43,0,0,0-1.34.674l-.832-1.528a9.852,9.852,0,0,1,1.824-.893,6.234,6.234,0,0,1,2.183-.376,3.354,3.354,0,0,1,2.728,1.081,4.762,4.762,0,0,1,.9,3.124v5.773h-1.885l-.158-1.071h-.08a7.192,7.192,0,0,1-1.4.933A3.542,3.542,0,0,1,527.375,3999.161Zm.734-1.785a2.13,2.13,0,0,0,1.081-.278,5.8,5.8,0,0,0,1.042-.793v-2.182a10.411,10.411,0,0,0-1.667.317,4.82,4.82,0,0,0-1.091.446,1.6,1.6,0,0,0-.595.565,1.359,1.359,0,0,0-.179.675,1.111,1.111,0,0,0,.4.952A1.637,1.637,0,0,0,528.109,3997.376Z" transform="translate(-370.379 -3935.023)" fill="#fff"/><path d="M538.147,3999.161a2.611,2.611,0,0,1-2.282-1,4.9,4.9,0,0,1-.714-2.867v-6.11h2.281V3995a3.043,3.043,0,0,0,.357,1.707,1.324,1.324,0,0,0,1.151.5,2,2,0,0,0,1.121-.317,4.6,4.6,0,0,0,1.042-1.031v-6.666h2.281v9.74h-1.865l-.178-1.428h-.06a5.711,5.711,0,0,1-1.379,1.21A3.292,3.292,0,0,1,538.147,3999.161Zm1.15-11.6-1.13-1.131,2.916-3.451,1.587,1.507Z" transform="translate(-370.379 -3935.023)" fill="#fff"/><path d="M549.593,3999.161a3.561,3.561,0,0,1-2.926-1.339,5.835,5.835,0,0,1-1.081-3.759,6.212,6.212,0,0,1,.347-2.143,5.013,5.013,0,0,1,.922-1.607,4.132,4.132,0,0,1,1.32-1.011,3.512,3.512,0,0,1,1.537-.357,3.127,3.127,0,0,1,1.409.288,5.591,5.591,0,0,1,1.15.783l-.079-1.567v-3.531h2.282v14.005h-1.885l-.159-1.051h-.079a5.2,5.2,0,0,1-1.25.913A3.2,3.2,0,0,1,549.593,3999.161Zm.556-1.884a2.723,2.723,0,0,0,2.043-1.091v-4.543a3.232,3.232,0,0,0-1-.635,2.829,2.829,0,0,0-.982-.179,1.975,1.975,0,0,0-1.607.834,3.777,3.777,0,0,0-.655,2.38,4.249,4.249,0,0,0,.566,2.41A1.861,1.861,0,0,0,550.149,3997.277Z" transform="translate(-370.379 -3935.023)" fill="#fff"/><path d="M561.536,3999.161a5.063,5.063,0,0,1-1.885-.347,4.478,4.478,0,0,1-1.528-1,4.574,4.574,0,0,1-1.021-1.6,5.894,5.894,0,0,1-.367-2.153,5.787,5.787,0,0,1,.376-2.143,4.936,4.936,0,0,1,1-1.607,4.437,4.437,0,0,1,1.438-1.011,4.1,4.1,0,0,1,1.666-.357,4.238,4.238,0,0,1,1.746.337,3.421,3.421,0,0,1,1.26.952,4.185,4.185,0,0,1,.763,1.468,6.425,6.425,0,0,1,.258,1.865c0,.225-.01.436-.029.635a4.368,4.368,0,0,1-.07.476h-6.189a3.143,3.143,0,0,0,.922,2.014,2.772,2.772,0,0,0,1.954.7,3.614,3.614,0,0,0,1.181-.188,5.315,5.315,0,0,0,1.081-.526l.773,1.428a7.055,7.055,0,0,1-1.547.754A5.392,5.392,0,0,1,561.536,3999.161Zm-2.6-6.03h4.324a2.891,2.891,0,0,0-.486-1.776,1.754,1.754,0,0,0-1.5-.644,2.162,2.162,0,0,0-1.527.614A2.915,2.915,0,0,0,558.937,3993.131Z" transform="translate(-370.379 -3935.023)" fill="#fff"/><path d="M370.536,3954.781v-19.4h4.374v19.4Z" transform="translate(-370.379 -3935.023)" fill="#fff"/><path d="M379.493,3954.781v-19.4h12.141v3.69h-7.767v3.9h6.606v3.66h-6.606v4.464h8.064v3.689Z" transform="translate(-370.379 -3935.023)" fill="#fff"/><path d="M395.8,3954.781v-19.4h6.666a13.781,13.781,0,0,1,3.005.312,6.8,6.8,0,0,1,2.441,1.042,5.162,5.162,0,0,1,1.651,1.934,6.518,6.518,0,0,1,.61,2.961,6.659,6.659,0,0,1-.61,2.946,5.712,5.712,0,0,1-1.651,2.053,7.022,7.022,0,0,1-2.411,1.19,10.643,10.643,0,0,1-2.916.387h-2.41v6.576Zm4.375-10.058h2.142q3.571,0,3.571-3.094a2.368,2.368,0,0,0-.952-2.143,5,5,0,0,0-2.738-.624h-2.023Z" transform="translate(-370.379 -3935.023)" fill="#fff"/><path d="M419.158,3955.139a10.891,10.891,0,0,1-3.794-.7,9.893,9.893,0,0,1-3.377-2.1l2.5-3.005a9.432,9.432,0,0,0,2.306,1.458,6.055,6.055,0,0,0,2.484.565,3.367,3.367,0,0,0,2.039-.506,1.624,1.624,0,0,0,.669-1.368,1.493,1.493,0,0,0-.193-.774,1.858,1.858,0,0,0-.565-.58,5.4,5.4,0,0,0-.893-.476l-1.146-.491-2.529-1.071a7.589,7.589,0,0,1-1.443-.774,6.36,6.36,0,0,1-1.25-1.116,5.033,5.033,0,0,1-.878-1.488,5.3,5.3,0,0,1-.327-1.919,5.127,5.127,0,0,1,.506-2.247,5.577,5.577,0,0,1,1.428-1.845,6.841,6.841,0,0,1,2.187-1.235,8.328,8.328,0,0,1,2.782-.446,9.024,9.024,0,0,1,3.348.654,8.487,8.487,0,0,1,2.9,1.905l-2.232,2.768a8.4,8.4,0,0,0-1.9-1.146,5.38,5.38,0,0,0-2.113-.4,3.126,3.126,0,0,0-1.8.461,1.486,1.486,0,0,0-.67,1.3,1.268,1.268,0,0,0,.224.758,2.164,2.164,0,0,0,.625.566,6.276,6.276,0,0,0,.937.476q.535.224,1.16.491l2.5,1.012a6.818,6.818,0,0,1,2.812,1.964,5.042,5.042,0,0,1,1.027,3.3,5.5,5.5,0,0,1-1.92,4.21,7.1,7.1,0,0,1-2.306,1.309A9.1,9.1,0,0,1,419.158,3955.139Z" transform="translate(-370.379 -3935.023)" fill="#fff"/></g><g transform="translate(91 65.237)"><path d="M159.8,66.015l-4.823,11.643a12.382,12.382,0,0,0-2.886-1.2l4.823-11.642ZM171.288,77.5l-11.643,4.823a12.4,12.4,0,0,1,1.2,2.886l11.642-4.823Zm-45,0-1.2,2.887,11.642,4.822a12.375,12.375,0,0,1,1.2-2.885Zm0,22.021L137.935,94.7a12.439,12.439,0,0,1-1.2-2.886L125.1,96.638Zm20.936-23.5c0,.033,0,.066,0,.1a12.1,12.1,0,0,1,3.131,0c0-.033,0-.066,0-.1a29.623,29.623,0,0,1,10.8-22.9,34.887,34.887,0,0,0-3.541-1.041A32.838,32.838,0,0,0,148.79,66a32.832,32.832,0,0,0-8.822-13.929,34.869,34.869,0,0,0-3.54,1.041A29.623,29.623,0,0,1,147.228,76.02Zm9.686,36.188,2.887-1.2-4.823-11.643a12.376,12.376,0,0,1-2.885,1.2Zm-.394-33.634-.073.067a12.575,12.575,0,0,1,2.214,2.214c.024-.023.044-.049.068-.072a29.619,29.619,0,0,1,23.832-8.56,35.1,35.1,0,0,0-1.767-3.24A32.849,32.849,0,0,0,164.708,72.6,32.835,32.835,0,0,0,168.32,56.51a35.1,35.1,0,0,0-3.24-1.768A29.627,29.627,0,0,1,156.52,78.575Zm14.769,20.949,1.2-2.887-11.642-4.822a12.472,12.472,0,0,1-1.2,2.886Zm-12.559-3.28c-.024-.024-.044-.049-.068-.073a12.517,12.517,0,0,1-2.214,2.214c.024.023.049.044.073.068a29.625,29.625,0,0,1,8.56,23.832,34.9,34.9,0,0,0,3.24-1.768,32.837,32.837,0,0,0-3.612-16.087,32.84,32.84,0,0,0,16.087,3.612,35.09,35.09,0,0,0,1.767-3.24A29.624,29.624,0,0,1,158.73,96.244Zm-17.67,2.21c.023-.024.049-.045.072-.068a12.542,12.542,0,0,1-2.214-2.214c-.024.024-.045.049-.068.073a29.626,29.626,0,0,1-23.832,8.56,35.1,35.1,0,0,0,1.768,3.24,32.84,32.84,0,0,0,16.087-3.612,32.837,32.837,0,0,0-3.613,16.087,34.916,34.916,0,0,0,3.24,1.768A29.619,29.619,0,0,1,141.061,98.454Zm-.395-33.635-2.886,1.2L142.6,77.659a12.4,12.4,0,0,1,2.886-1.2ZM171.3,88.514a32.845,32.845,0,0,0,13.929-8.822,35.091,35.091,0,0,0-1.041-3.54,29.623,29.623,0,0,1-22.9,10.8l-.1,0a12.207,12.207,0,0,1,0,3.131l.1,0a29.623,29.623,0,0,1,22.9,10.8,35.091,35.091,0,0,0,1.041-3.54A32.835,32.835,0,0,0,171.3,88.514Zm-20.948,12.494c0-.033,0-.066,0-.1a12.206,12.206,0,0,1-3.131,0c0,.033,0,.066,0,.1a29.623,29.623,0,0,1-10.8,22.9,35.31,35.31,0,0,0,3.54,1.041,32.837,32.837,0,0,0,8.822-13.929,32.843,32.843,0,0,0,8.821,13.929,35.328,35.328,0,0,0,3.541-1.041A29.623,29.623,0,0,1,150.353,101.009Zm-9.686,11.2,4.823-11.642a12.4,12.4,0,0,1-2.886-1.2l-4.823,11.643ZM136.3,90.077l.1,0a12.1,12.1,0,0,1,0-3.131l-.1,0a29.622,29.622,0,0,1-22.9-10.8,34.87,34.87,0,0,0-1.041,3.54,32.84,32.84,0,0,0,13.929,8.822,32.83,32.83,0,0,0-13.929,8.821,34.87,34.87,0,0,0,1.041,3.54A29.622,29.622,0,0,1,136.3,90.077Zm2.554-9.292c.023.023.044.049.068.072a12.6,12.6,0,0,1,2.214-2.214c-.023-.023-.049-.044-.072-.067a29.622,29.622,0,0,1-8.56-23.832,35.119,35.119,0,0,0-3.24,1.768A32.835,32.835,0,0,0,132.873,72.6a32.849,32.849,0,0,0-16.087-3.612,35.117,35.117,0,0,0-1.768,3.24A29.621,29.621,0,0,1,138.851,80.785Zm9.94-29.76a2.812,2.812,0,1,0,2.812,2.812A2.812,2.812,0,0,0,148.79,51.025Zm-26.509,10.98a2.812,2.812,0,1,0,3.977,0A2.813,2.813,0,0,0,122.281,62.005ZM111.3,88.514a2.812,2.812,0,1,0,2.812-2.812A2.812,2.812,0,0,0,111.3,88.514Zm10.98,26.508a2.812,2.812,0,1,0,0-3.976A2.811,2.811,0,0,0,122.281,115.023ZM148.79,126a2.812,2.812,0,1,0-2.812-2.812A2.811,2.811,0,0,0,148.79,126Zm26.508-10.98a2.811,2.811,0,1,0-3.976,0A2.81,2.81,0,0,0,175.3,115.023Zm10.98-26.508a2.812,2.812,0,1,0-2.811,2.812A2.812,2.812,0,0,0,186.279,88.514ZM175.3,62.005a2.812,2.812,0,1,0,0,3.977A2.812,2.812,0,0,0,175.3,62.005Z" transform="translate(-111.301 -51.025)" fill="#ffc20e"/></g></g></svg>