<svg width="38" height="39" viewBox="0 0 38 39" fill="none" xmlns="http://www.w3.org/2000/svg">
<path d="M38 19.0304C38 18.2438 37.3249 17.5687 36.5383 17.5687C35.7517 17.5687 35.0765 18.2438 35.0765 19.0304C35.0765 19.817 35.7517 20.4921 36.5383 20.4921C37.4376 20.4921 38 19.817 38 19.0304ZM32.49 32.5204C32.6235 32.3879 32.7294 32.2304 32.8017 32.0568C32.874 31.8832 32.9112 31.697 32.9112 31.509C32.9112 31.3209 32.874 31.1347 32.8017 30.9611C32.7294 30.7876 32.6235 30.63 32.49 30.4975C32.3575 30.3641 32.2 30.2581 32.0264 30.1858C31.8528 30.1136 31.6666 30.0763 31.4786 30.0763C31.2905 30.0763 31.1043 30.1136 30.9308 30.1858C30.7572 30.2581 30.5996 30.3641 30.4671 30.4975C30.3335 30.63 30.2274 30.7877 30.155 30.9614C30.0826 31.1351 30.0453 31.3214 30.0453 31.5096C30.0453 31.6978 30.0826 31.8841 30.155 32.0578C30.2274 32.2315 30.3335 32.3892 30.4671 32.5217C30.5996 32.6553 30.7573 32.7614 30.931 32.8338C31.1047 32.9062 31.291 32.9435 31.4792 32.9435C31.6674 32.9435 31.8537 32.9062 32.0274 32.8338C32.2011 32.7614 32.3588 32.6553 32.4913 32.5217L32.49 32.5204ZM19 0.0303955C18.2134 0.0303955 17.5383 0.704262 17.5383 1.49213C17.5383 2.27746 18.2134 2.9526 19 2.9526C19.7866 2.9526 20.4617 2.27873 20.4617 1.49213C20.4617 0.704262 19.7853 0.0303955 19 0.0303955ZM5.62147 5.65186C5.05907 6.10153 5.05907 7.11233 5.62147 7.56326C5.75395 7.69692 5.9116 7.80301 6.0853 7.87542C6.25901 7.94782 6.44534 7.98509 6.63353 7.98509C6.82173 7.98509 7.00805 7.94782 7.18176 7.87542C7.35547 7.80301 7.51312 7.69692 7.6456 7.56326C7.77926 7.43078 7.88535 7.27313 7.95775 7.09942C8.03016 6.92572 8.06743 6.73939 8.06743 6.5512C8.06743 6.363 8.03016 6.17667 7.95775 6.00297C7.88535 5.82926 7.77926 5.67161 7.6456 5.53913C7.0832 5.08946 6.07113 5.08946 5.62147 5.65186ZM0 19.0304C0 19.817 0.675133 20.4921 1.46173 20.4921C2.24833 20.4921 2.92347 19.817 2.92347 19.0304C2.92347 18.2438 2.24833 17.5687 1.46173 17.5687C0.675133 17.5687 0 18.2438 0 19.0304ZM5.62147 32.5204C5.75395 32.6541 5.9116 32.7601 6.0853 32.8325C6.25901 32.905 6.44534 32.9422 6.63353 32.9422C6.82173 32.9422 7.00805 32.905 7.18176 32.8325C7.35547 32.7601 7.51312 32.6541 7.6456 32.5204C7.77907 32.3879 7.885 32.2304 7.95729 32.0568C8.02958 31.8832 8.06679 31.697 8.06679 31.509C8.06679 31.3209 8.02958 31.1347 7.95729 30.9611C7.885 30.7876 7.77907 30.63 7.6456 30.4975C7.51312 30.3639 7.35547 30.2578 7.18176 30.1854C7.00805 30.113 6.82173 30.0757 6.63353 30.0757C6.44534 30.0757 6.25901 30.113 6.0853 30.1854C5.9116 30.2578 5.75395 30.3639 5.62147 30.4975C5.48781 30.63 5.38172 30.7877 5.30931 30.9614C5.23691 31.1351 5.19963 31.3214 5.19963 31.5096C5.19963 31.6978 5.23691 31.8841 5.30931 32.0578C5.38172 32.2315 5.48781 32.3879 5.62147 32.5204ZM19 38.0304C19.7866 38.0304 20.4617 37.3553 20.4617 36.5687C20.4617 35.7821 19.7866 35.1069 19 35.1069C18.2134 35.1069 17.5383 35.7821 17.5383 36.5687C17.5383 37.468 18.2134 38.0304 19 38.0304ZM32.49 5.65186C32.3575 5.51839 32.2 5.41246 32.0264 5.34017C31.8528 5.26789 31.6666 5.23067 31.4786 5.23067C31.2905 5.23067 31.1043 5.26789 30.9308 5.34017C30.7572 5.41246 30.5996 5.51839 30.4671 5.65186C30.3337 5.78432 30.2277 5.94189 30.1554 6.11548C30.0832 6.28907 30.0459 6.47525 30.0459 6.6633C30.0459 6.85134 30.0832 7.03752 30.1554 7.21111C30.2277 7.3847 30.3337 7.54227 30.4671 7.67473C30.5996 7.80839 30.7573 7.91448 30.931 7.98688C31.1047 8.05928 31.291 8.09656 31.4792 8.09656C31.6674 8.09656 31.8537 8.05928 32.0274 7.98688C32.2011 7.91448 32.3588 7.80839 32.4913 7.67473C33.0537 7.11233 33.0524 6.10153 32.49 5.65186ZM24.6215 7.67473L22.1477 13.5217C21.698 13.2962 21.2483 13.072 20.6859 12.9593L23.1597 7.00086L24.6215 7.67473ZM30.4671 13.4089L24.5087 15.8815C24.7342 16.3324 24.9584 16.7808 25.0711 17.3432L31.0295 14.8707L30.4671 13.4089ZM7.6456 13.4089L7.0832 14.8707L13.0416 17.3432C13.1543 16.7821 13.3785 16.3324 13.604 15.8815L7.6456 13.4089ZM7.6456 24.6519L13.604 22.1781C13.3785 21.7284 13.1543 21.2787 13.0416 20.7163L7.0832 23.1901L7.6456 24.6519ZM23.1597 31.0599L24.6215 30.4975L22.1477 24.5391C21.698 24.7633 21.2483 24.9888 20.6859 25.1015L23.1597 31.0599ZM30.4671 24.6519L31.0295 23.1901L25.0711 20.7163C24.9584 21.2787 24.7342 21.7284 24.5087 22.1781L30.4671 24.6519ZM14.8403 7.00086L13.3785 7.562L15.8523 13.5217C16.302 13.2962 16.7517 13.072 17.3141 12.9593L14.8403 7.00086ZM14.8403 31.0599L17.3141 25.1015C16.7517 24.9875 16.302 24.7633 15.8523 24.5391L13.3785 30.4975L14.8403 31.0599Z" fill="#ffc20d"/>
<path d="M17.651 12.1423H19.2242C19.2242 7.42013 21.3611 3.2604 24.7342 0.561133C24.1718 0.336933 23.4967 0.2242 22.9355 0C20.8801 1.95766 19.3357 4.38923 18.4376 7.08193C17.5397 4.3894 15.9958 1.95787 13.9409 0C13.3265 0.135496 12.7248 0.323223 12.1423 0.561133C15.5141 3.25913 17.651 7.4214 17.651 12.1423ZM22.3731 13.3785L23.4967 14.5021C26.7571 11.2417 31.2537 9.77993 35.6389 10.1181C35.4135 9.55573 35.0765 8.99333 34.7396 8.43093C31.9276 8.31947 29.1181 8.99333 26.5316 10.2296C27.8819 7.64433 28.4443 4.8336 28.3303 2.02287C27.7691 1.68593 27.2067 1.349 26.6456 1.12353C27.094 5.6202 25.6323 10.1169 22.3731 13.3785ZM23.4967 22.3719L22.3731 23.4967C25.6323 26.7571 27.094 31.2537 26.7571 35.6389C27.3195 35.4135 27.8819 35.0765 28.443 34.7396C28.557 31.9276 27.8819 29.1181 26.6443 26.5316C29.2309 27.8806 32.0403 28.4443 34.8523 28.3303C35.1893 27.7691 35.5262 27.2067 35.7517 26.6443C31.255 27.094 26.7571 25.6323 23.4967 22.3719ZM14.5033 23.4967L13.3785 22.3719C10.1181 25.6323 5.62147 27.094 1.23627 26.7571C1.46173 27.3195 1.79867 27.8806 2.1356 28.443C4.9476 28.5557 7.75707 27.8806 10.3436 26.6443C8.9946 29.2296 8.43093 32.0403 8.54493 34.8523C9.10607 35.188 9.66847 35.5262 10.2296 35.7517C9.7812 31.2537 11.2429 26.7571 14.5033 23.4967ZM29.9047 18.4376C32.5978 17.54 35.0298 15.9961 36.9879 13.9409C36.8521 13.3264 36.664 12.7247 36.4255 12.1423C33.6148 15.5141 29.4551 17.6497 24.8457 17.6497V19.2242C29.5678 19.2242 33.7275 21.3598 36.4255 24.7342C36.651 24.1705 36.7637 23.4967 36.9879 22.9343C35.0297 20.8791 32.5977 19.3352 29.9047 18.4376ZM19.2242 24.8457C19.2242 24.7329 19.2242 24.7329 19.2242 24.8457H17.6523C17.6523 29.5678 15.5154 33.7275 12.1423 36.4255C12.7047 36.6497 13.3798 36.7625 13.9409 36.9879C15.996 35.0297 17.5399 32.5977 18.4376 29.9047C19.3352 32.5978 20.8791 35.0298 22.9343 36.9879C23.5487 36.852 24.1505 36.6638 24.7329 36.4255C21.3611 33.6148 19.2242 29.4551 19.2242 24.8457ZM12.1423 19.2242V17.6497C7.42013 17.6497 3.2604 15.5141 0.5624 12.141C0.336933 12.7034 0.2242 13.3785 0 13.9397C1.95769 15.9951 4.38925 17.5394 7.08193 18.4376C4.3894 19.3355 1.95787 20.8794 0 22.9343C0.112733 23.4967 0.336933 24.1705 0.5624 24.7329C3.2604 21.3598 7.42013 19.2242 12.1423 19.2242ZM13.3785 14.5021L14.5021 13.3785C12.9423 11.8159 11.7498 9.92567 11.011 7.84502C10.2723 5.76438 10.0058 3.54541 10.2309 1.349C9.66847 1.5732 9.10607 1.91013 8.54367 2.24833C8.4322 5.05907 9.10607 7.86853 10.3423 10.3423C7.8698 9.10607 5.05907 8.43093 2.2496 8.54493C1.91267 9.10733 1.57447 9.66973 1.35027 10.2309C3.54677 10.0059 5.7658 10.2726 7.84645 11.0116C9.92711 11.7506 11.8172 12.9433 13.3798 14.5033L13.3785 14.5021Z" fill="#ffc20d"/>
</svg>
