<svg width="20" height="20" viewBox="0 0 20 20" fill="none" xmlns="http://www.w3.org/2000/svg">
<path d="M14.6472 0.560177L12.5812 5.42066C12.2057 5.23323 11.8301 5.04686 11.3615 4.95314L13.4264 0L14.6472 0.560177ZM19.5293 5.32695L14.5541 7.38338C14.7424 7.75719 14.9297 8.13099 15.0238 8.5985L20 6.54207L19.5303 5.32695H19.5293ZM0.469692 5.32695L0 6.54207L4.9762 8.5985C5.07035 8.13099 5.25759 7.75613 5.44589 7.38338L0.469692 5.32695ZM0.469692 14.6731L5.44589 12.6166C5.25759 12.2428 5.07035 11.869 4.9762 11.4015L0 13.4579L0.469692 14.6731ZM13.4264 20L14.6472 19.5325L12.5812 14.5793C12.2057 14.7668 11.8301 14.9531 11.3615 15.0469L13.4264 20ZM19.5293 14.6731L19.9989 13.4579L15.0227 11.4015C14.9286 11.869 14.7414 12.2439 14.5531 12.6166L19.5293 14.6731ZM6.47837 0L5.25759 0.467516L7.3236 5.41961C7.69914 5.23218 8.07469 5.0458 8.54438 4.95209L6.47837 0ZM6.47837 20L8.54438 15.0469C8.07469 14.9531 7.69914 14.7668 7.3236 14.5793L5.25759 19.5325L6.47837 20Z" fill="white"/>
</svg>
