<?xml version="1.0" encoding="utf-8" ?>
<svg baseProfile="tiny" height="414.8927" version="1.2" width="500" xmlns="http://www.w3.org/2000/svg" xmlns:ev="http://www.w3.org/2001/xml-events" xmlns:xlink="http://www.w3.org/1999/xlink"><defs /><polygon fill="none" points="459.6535,277.2268 459.9006,278.2897 459.9933,278.3974 462.1445,279.5765 462.8153,280.3257 463.639,281.2456 464.6977,281.9112 466.738,282.298 469.0087,284.3527 472.4859,284.9627 473.0839,285.682 473.4196,287.6944 475.4607,289.2532 476.306,289.2881 479.5408,286.8712 480.7798,286.438 481.1644,286.6464 481.3596,286.958 483.5078,290.9881 485.9339,292.7995 487.0568,294.3617 487.7781,294.8409 490.8093,295.2325 492.3708,296.0277 494.2411,296.3515 497.3336,295.6884 498.3937,295.7607 499.755,297.0983 500.0,297.0757 499.5255,298.6967 499.5186,298.71 499.4721,298.7996 499.1726,299.3773 498.8311,299.8057 498.6034,300.0092 498.5486,300.0582 498.2631,300.3133 497.4436,300.8667 496.8592,301.4463 496.7248,301.5795 496.5376,301.7653 495.9278,302.2324 495.48,302.3998 494.2198,302.6857 493.6581,302.9908 492.8995,303.5801 492.429,304.0653 491.8645,304.8143 491.27,305.8027 490.8577,306.8867 490.5465,307.331 489.901,307.8865 488.3343,309.4811 487.2206,310.2442 486.4112,311.1513 485.6101,311.8494 485.0705,312.3922 484.8442,312.6199 483.8905,313.5792 483.1103,314.5251 482.4454,314.8771 481.6682,314.9267 481.3148,314.8122 480.9615,314.6978 480.3459,314.2668 480.1601,314.2193 479.4749,314.1901 479.0265,314.3467 478.5356,314.9825 478.2975,315.2909 478.067,315.9689 477.8189,317.3096 477.802,317.4011 477.7796,317.5219 477.7501,317.5765 477.445,318.1407 477.1545,318.4342 476.6383,318.6899 475.4464,318.9941 475.3449,319.0508 474.3954,319.5808 472.7511,320.9192 471.618,322.0237 471.5185,322.1207 470.4848,323.1282 470.3605,323.1941 470.2362,323.2599 469.8623,323.3278 467.9936,323.3069 467.7256,323.5858 467.4129,324.2975 467.1222,324.4713 466.4947,324.6058 464.6349,324.3723 464.2901,324.4187 463.9287,324.5641 463.0832,325.1451 461.9811,326.56 461.604,326.8473 461.3022,326.9133 460.8593,326.8394 460.4808,326.6013 459.8334,325.8627 458.7879,325.2065 458.4163,325.0255 458.0748,324.9871 457.8057,325.0408 456.189,325.9793 454.7711,327.0506 454.45,327.1387 454.1048,327.2333 452.6491,327.6325 452.1167,327.7155 452.0535,327.7254 451.443,327.6411 451.0023,327.4021 450.3269,326.9121 449.3184,325.8943 448.5343,325.4266 448.3485,325.3157 448.1348,325.3139 446.8329,325.625 446.1504,325.868 445.4556,326.3496 444.6355,326.6332 444.1006,326.6415 443.0804,326.4609 442.8742,326.5016 442.5006,326.5752 442.031,326.7977 441.5775,327.0126 440.9136,327.5422 440.8039,327.6297 438.8847,329.1608 438.5343,329.6174 438.4041,329.7869 438.3684,330.0072 438.4654,330.2846 438.7649,330.735 439.5405,331.6229 440.0335,332.4077 440.1309,332.5628 440.4613,333.7015 440.7746,334.3083 441.1877,334.8475 441.5739,335.1428 442.4378,335.6129 442.5279,335.7379 442.618,335.8629 442.6745,336.4318 442.619,337.6904 442.5784,337.8923 442.5378,338.0942 442.3133,338.3466 439.7034,339.9047 439.0356,340.1327 438.0666,340.6904 436.9834,341.6613 436.3843,341.9106 435.2441,342.1397 434.7346,342.3118 434.225,342.4839 433.6347,342.3563 432.8696,341.8595 432.2458,341.6258 431.7578,341.6686 430.7553,341.9008 430.1675,341.8803 429.5798,341.8598 429.0053,341.928 428.6754,342.0511 428.4876,342.2617 428.3912,342.7171 428.7638,343.2717 428.7244,343.5553 428.6166,343.634 428.2505,343.5859 427.92,343.2416 427.5166,342.9751 427.1971,342.9572 426.6049,343.2778 426.3567,344.0088 425.963,344.3836 425.1554,344.4665 424.9492,344.564 424.743,344.6615 424.6119,344.8416 424.5432,345.1609 424.3136,345.4494 423.998,345.6679 423.7463,346.0227 423.6049,347.0107 423.2708,347.8976 423.1421,348.809 423.1067,349.0594 422.9035,349.0513 422.3451,349.2349 421.0409,349.7889 420.8297,349.9691 420.4001,350.7248 420.2811,352.2868 420.1515,352.5393 419.685,353.2435 418.8184,353.7428 417.9255,354.4784 417.7657,354.6921 417.6369,354.9754 417.4553,355.9386 417.3082,357.4252 417.044,357.7655 416.2638,358.1347 416.1206,358.2788 415.8036,358.8845 415.7432,359.7448 415.9405,360.6444 415.926,361.0617 415.8648,361.4488 415.3276,362.8037 415.2966,363.0417 415.4463,363.6567 415.8935,364.4447 415.7824,364.991 416.1484,365.4772 416.6117,366.291 416.8926,367.2277 416.8546,368.2914 416.6945,368.7195 416.0557,369.4874 415.4404,369.8005 414.823,370.3997 414.2843,370.6935 413.095,371.0581 412.4377,371.1651 411.7569,371.167 410.7673,370.9848 410.3332,371.0065 409.5641,371.4547 408.1465,372.6083 407.748,372.8191 406.8286,373.4992 406.6219,373.8089 406.407,374.408 406.2879,375.2322 406.2625,376.1813 405.8398,377.1453 405.6972,377.9792 406.0367,379.2467 406.1036,380.2376 405.8534,380.5499 404.8307,381.0985 404.5034,381.3943 403.9063,382.6608 403.4911,383.973 403.2589,384.3907 402.9551,384.7034 402.4236,384.9431 401.4978,384.8985 401.0501,384.9813 400.7804,385.0311 400.2595,385.2211 398.8638,385.7302 397.9494,386.3161 397.7419,386.3319 397.2138,385.3947 396.9209,384.6571 396.6607,384.3209 396.2102,384.1038 395.4371,384.0954 394.5835,384.3144 393.6162,384.7076 392.8548,385.172 392.4602,385.3259 391.7602,385.4067 389.7052,385.1567 388.9028,384.9015 388.2081,384.4902 386.9893,383.9861 386.569,383.9002 384.9921,383.5778 384.5042,383.3451 382.8963,382.0459 382.6737,381.7439 382.6776,381.4469 383.0256,380.8204 384.0017,379.7936 384.003,379.6717 383.9087,379.6365 381.9239,379.8944 381.3214,379.8174 380.5379,379.534 379.8266,379.0868 379.4352,378.6776 378.8861,377.3045 378.2763,376.2432 377.8135,375.7304 376.969,375.1428 376.5004,374.9959 375.8581,374.9006 374.8332,374.9356 373.6049,375.1668 371.4212,375.3359 368.5822,375.3987 366.2642,375.8821 364.4779,376.1002 361.5163,376.2852 358.8911,376.7075 356.7374,377.5255 355.5256,378.4335 355.3259,378.6418 355.1494,379.1488 355.3052,379.7951 355.2008,379.9841 355.165,380.5651 354.3671,381.763 352.4364,383.6561 351.8225,384.062 351.1408,384.2551 350.1325,384.1178 348.9751,383.7032 348.9648,383.6995 348.733,383.6164 348.4792,383.4599 348.2246,383.1241 348.0767,383.0446 348.0135,383.0101 347.7128,382.8485 347.4381,382.5574 346.9377,382.2175 346.538,382.0789 346.0846,382.0445 345.4939,382.24 345.2231,382.4571 344.9813,382.9039 344.8213,384.0692 344.8451,384.616 344.6664,385.0363 343.1664,386.4261 341.7796,387.3798 340.7231,387.7343 339.4236,387.8422 338.9055,388.0287 338.5513,388.3012 338.3827,388.5876 338.2791,389.4499 338.3692,391.0624 338.301,391.5875 337.7388,392.7498 337.5693,394.0331 337.2567,394.9879 336.42,396.0427 335.5446,396.9126 335.4591,396.9975 335.1225,397.5202 334.724,398.4379 334.3673,398.978 333.1852,400.1922 332.6101,401.0188 331.1707,405.5978 330.1195,406.4763 329.2386,407.5366 328.5705,408.2196 327.3317,409.1538 326.7268,409.4667 326.0843,409.6408 325.6926,409.6273 325.3951,409.5279 324.3886,408.6653 324.1811,408.6229 322.8735,409.1929 321.7924,409.1992 320.2863,408.9991 318.2969,409.0155 317.9258,409.0699 316.1746,409.7663 315.9514,409.8827 314.8968,410.4325 314.3113,410.4455 312.9315,410.3136 310.8237,409.8596 309.676,409.977 306.9319,411.1067 305.9422,411.3763 304.6401,412.4157 304.4304,412.7197 304.1527,413.5116 303.8678,413.9114 303.7416,414.0046 303.0142,414.5415 302.2539,414.8297 301.8514,414.8927 300.6681,414.8029 299.8449,414.6105 299.2403,414.3761 298.6889,413.9658 297.9793,413.115 297.7508,412.6503 297.4164,412.287 296.2636,411.389 295.991,411.0626 295.903,410.7602 295.5759,410.5989 295.2608,410.4435 293.7942,411.0312 291.5839,412.0438 290.1386,412.5956 288.9774,412.8169 288.8392,412.2095 288.6909,411.3671 288.131,410.4457 288.4214,410.0313 288.4348,409.6879 288.5407,409.3906 289.4473,408.4298 289.8572,408.1765 290.9649,407.6924 291.4767,407.3363 292.2346,406.5534 292.621,406.0114 292.9251,405.2923 293.1431,402.9661 293.3695,401.9305 293.4191,400.9056 293.3869,400.4925 292.9841,399.0593 293.2148,398.3499 293.2773,397.7841 293.1734,395.8314 293.2935,395.1462 293.6354,394.5574 294.3551,392.5376 294.4644,391.8106 294.4874,388.8984 294.8157,385.7412 295.0551,384.9891 295.3665,384.5314 295.8134,384.184 296.0731,384.1259 296.47,384.0166 296.9101,383.7778 297.3611,383.39 297.6833,382.8572 297.8222,382.2953 297.7397,381.9626 297.5245,381.6629 296.5541,381.053 296.325,380.7999 295.9898,380.0882 295.4616,376.4494 295.4158,375.5162 295.4341,374.7422 295.7918,372.5161 296.1273,371.8315 296.7164,370.6293 296.7755,370.5373 297.8927,368.7989 298.1714,368.1913 298.4601,366.8877 298.4639,366.5547 298.3664,366.1868 297.4594,364.0758 297.3207,363.5103 297.1514,361.9751 297.2487,360.6383 297.4521,359.8956 298.3758,358.9563 299.8805,357.6658 301.5724,356.3613 302.8443,354.5798 303.0322,354.2021 303.1409,353.6731 302.7569,351.2896 302.5508,350.7737 302.2532,350.1865 301.9292,349.7353 300.8048,348.6323 300.3242,348.0216 300.0267,347.3462 300.0244,345.3259 300.1769,343.2494 300.08,342.3034 299.6752,341.429 298.6622,340.1038 295.2309,336.3689 294.8686,336.1531 292.108,335.0157 290.5157,333.5921 290.151,333.1574 290.1792,332.6483 290.465,331.4969 290.7577,330.9504 290.9902,330.7286 291.0072,330.7124 291.0243,330.6961 291.6168,330.1309 291.9502,329.5906 292.8999,327.6332 292.6554,326.8364 292.7049,326.2877 292.541,325.4429 292.1496,325.2478 291.9128,324.9189 291.6742,324.7494 291.6416,324.4625 291.2136,324.2819 291.2004,324.0853 291.1005,323.9405 290.9183,323.932 290.4184,324.1368 289.6007,324.1419 289.0485,323.3887 288.8593,322.3219 288.6438,321.982 288.4463,321.3732 288.5157,320.7584 288.286,319.7644 288.142,319.6531 287.5339,319.5334 287.273,319.4 286.5225,319.3519 286.1717,318.7074 285.7134,318.5403 294.5945,308.0231 295.6949,306.7197 296.8379,305.5937 297.7449,305.0468 298.4192,304.8372 300.2382,304.5507 300.8913,304.3069 301.2899,303.9925 301.8662,303.2829 302.1836,302.4786 302.1182,301.4782 300.6771,298.2826 299.4948,296.6592 298.6314,295.7568 297.541,294.29 296.8308,292.8445 296.6977,292.415 296.583,291.1348 296.5523,289.5992 296.911,288.5837 297.2821,288.127 298.3663,287.2676 298.5988,287.1656 298.6296,287.1521 300.3789,286.3846 302.0757,284.8127 303.5128,282.7974 303.9442,281.5506 303.8638,280.4095 303.3226,279.3518 302.8837,278.8647 302.475,278.6008 301.915,278.3572 301.3928,278.2287 300.5114,277.7432 300.3425,276.8727 300.3905,276.5673 300.9148,275.6177 301.0592,274.7084 301.2378,274.1799 301.4178,273.9511 302.0561,273.421 302.6188,273.0836 303.1534,272.4864 303.6755,271.6753 304.6272,270.7801 305.0988,269.9225 305.2381,268.7646 305.0861,267.5126 305.1051,266.748 304.8939,266.1139 305.1924,264.5632 305.0168,264.0595 304.5697,263.5033 304.4656,263.1693 304.384,262.1531 304.258,261.7706 304.0182,261.5308 303.5917,261.3294 302.8851,261.2055 302.2156,261.3668 301.0514,262.026 300.8254,262.0847 300.338,261.9225 300.0208,261.5046 299.4404,260.2076 299.1018,259.8122 298.2493,259.0549 297.2536,258.5614 296.8122,258.2659 295.8561,257.1065 295.677,256.7457 296.1919,257.1291 296.5973,257.1773 296.7847,257.0471 296.9472,256.6728 296.8773,256.0197 296.6654,255.5965 295.4438,254.7843 294.1287,254.0867 293.6495,253.6896 293.5007,253.2235 293.4801,252.3673 293.5684,251.6341 293.776,251.2169 294.0279,251.1327 294.5092,251.2544 294.9711,251.7089 295.3415,253.1357 295.5879,253.4139 296.147,253.5228 296.5844,253.4692 296.9608,253.2849 297.1671,253.0844 297.3766,252.551 297.3266,251.6208 297.0112,250.6019 296.4779,249.7969 295.9374,249.3838 295.1317,249.1142 294.0086,249.0709 292.9486,248.9437 292.7664,248.7961 292.7359,248.6088 294.3911,247.2361 294.675,247.0006 295.0747,246.149 295.4231,245.9788 296.7356,245.7041 297.6891,245.5404 298.3906,245.5505 298.7202,245.379 299.0091,244.7144 298.5496,243.5995 298.3,242.9941 298.3058,242.56 298.4072,241.9646 298.7252,241.4737 299.325,240.954 300.6065,240.6347 302.1233,240.361 304.4891,240.6768 304.7729,240.5654 304.9925,240.3356 305.4016,239.5037 305.3431,239.3155 305.1111,239.1808 304.7227,239.1462 304.2492,239.3283 303.472,239.3078 303.2576,238.9421 303.2017,238.5631 303.2988,238.2461 303.6295,238.0193 304.9583,237.7 305.1647,237.4852 305.1674,237.2964 304.9839,237.0025 304.2217,236.7907 303.8045,236.5257 303.6382,236.1593 303.7204,235.8997 304.0385,235.6534 304.7719,235.3028 305.0279,235.0879 305.0734,234.8564 304.8983,234.2401 304.9953,233.9225 305.4666,233.6666 306.3009,232.9229 306.6343,232.4457 306.7644,231.9702 306.7752,231.3028 306.998,230.9559 307.2311,230.9292 307.5119,231.0776 308.0918,231.8984 308.3557,231.9729 308.7776,231.8755 309.5959,231.3189 310.0023,231.2229 310.5536,231.2726 310.8218,231.1447 311.2795,230.685 311.4715,230.252 311.6608,230.0228 312.1325,229.8386 312.9127,229.7039 313.024,229.5449 313.3544,228.2223 313.3134,227.7715 312.2918,227.2527 312.1549,226.9904 312.0356,226.465 311.7618,225.9843 311.4974,225.8073 311.2033,225.7169 310.6753,225.697 309.9996,226.0515 309.6709,226.1348 309.3753,226.0007 309.1779,225.7082 309.1497,225.4613 309.2623,225.1143 309.5291,224.9433 311.7821,224.3504 313.5164,224.1768 315.4949,224.2714 316.3541,224.1211 316.7717,224.2419 317.2188,224.7264 317.5538,225.2668 317.903,226.0977 318.2401,226.4501 318.4582,226.5251 318.7705,226.4705 320.0139,225.1853 320.2714,224.6081 320.3719,224.101 320.3145,222.6498 320.0546,222.1377 319.4357,221.754 318.0244,221.2021 317.7005,220.8792 317.6739,220.5878 318.6487,218.9092 319.2136,218.3788 321.4395,217.5481 321.9445,217.0891 322.3583,216.4133 324.3983,215.8325 324.6635,215.6616 325.5016,214.8295 326.4758,214.2445 326.9142,214.0466 327.852,213.7824 328.5859,213.7616 329.13,213.9141 329.9633,214.5609 330.9848,215.1678 331.791,215.4228 333.4436,215.3981 333.6785,215.197 333.8572,214.7345 333.8613,214.3148 333.6223,213.8025 332.7283,212.8063 332.6092,212.5734 332.657,212.3856 334.0071,211.7625 334.3068,211.4037 334.4356,211.071 334.7811,209.0679 335.0663,208.5763 336.8348,206.8562 337.5179,205.8336 338.1322,205.3605 338.6471,205.3085 339.4404,205.404 339.7561,205.2639 340.0227,204.8513 340.1848,204.2002 339.5302,203.0902 339.3731,202.375 339.2787,201.9431 339.0968,201.6793 338.7235,201.5588 338.1758,201.7278 337.5548,202.7347 337.227,202.8029 336.9478,202.6847 336.7479,202.4941 336.6266,202.2026 336.6614,201.9285 336.827,201.7692 336.9926,201.6099 337.7787,201.1278 339.8636,200.3261 341.5736,199.4311 342.9193,198.9674 343.6523,198.9021 347.2277,199.7557 347.8565,199.8219 348.1688,199.7228 348.4234,199.3774 348.7258,198.7566 349.1537,198.2516 350.4929,197.1656 350.5999,197.1004 351.9066,196.3044 351.9886,196.044 351.7615,195.4309 350.7254,194.7953 350.5256,194.5618 350.4974,194.3601 350.6243,194.1422 350.9711,193.8716 352.6424,193.5835 353.7031,193.5231 354.4044,193.4003 354.8768,193.188 355.5465,192.1359 356.6815,190.7627 357.3925,190.0006 358.2592,189.4302 358.9276,188.8192 360.3632,187.2886 360.5608,186.7585 360.589,186.0266 359.9716,185.0069 359.9948,184.6889 360.14,184.4577 360.2852,184.2264 361.0387,184.1552 364.9323,184.2507 366.2099,183.0568 366.4747,182.8093 367.2558,182.2348 369.6076,180.9455 370.9164,180.088 373.0876,178.2954 374.5844,177.5788 374.9494,177.1818 375.0834,176.7414 375.4752,176.397 378.5794,175.2292 378.8524,175.2436 379.0372,175.3667 379.1913,175.6761 379.4073,176.7479 379.5903,177.0596 379.8744,177.3489 380.8865,178.0025 381.4217,178.8392 383.4309,180.5579 383.8174,180.7108 384.4065,180.7312 384.8815,180.6141 387.2941,179.5305 387.741,179.4411 388.0853,179.4983 388.3841,179.6356 389.5281,180.7049 390.7562,181.3337 391.2363,181.8395 392.0704,183.053 392.2179,184.0561 392.1049,184.885 392.1723,185.3158 392.3266,185.5836 392.9968,186.1791 393.2055,186.1949 394.0592,185.9805 394.1001,185.9702 394.4323,185.7934 394.4931,185.5132 394.4004,185.3581 394.0727,185.2479 393.9245,185.1125 393.9191,184.9034 394.4307,183.9521 394.8462,183.436 395.221,183.3785 395.5058,183.4547 395.7648,183.5859 396.2104,184.0982 396.5406,184.1086 396.7305,183.9252 396.6746,183.714 396.569,183.609 396.4874,183.2319 396.6191,183.0331 397.8602,182.6854 398.8297,182.2745 399.0308,182.2627 399.5815,182.4548 400.5355,182.5386 400.6749,182.4728 400.805,182.2742 401.1094,181.4274 401.3438,181.1761 401.6816,181.0327 402.8032,180.937 404.3071,180.4047 405.0836,180.3279 405.5052,180.3794 405.9995,180.6643 407.4769,181.9523 408.4585,182.3266 409.2349,182.8901 410.1971,183.4295 410.8719,183.9623 411.96,185.2496 412.352,185.5218 412.5891,185.5314 413.1512,185.3435 413.4022,185.3524 413.6096,185.4615 414.1603,186.2766 414.1998,186.5444 414.0018,187.0322 412.7841,188.3685 412.4414,188.8348 411.5683,190.292 411.5168,190.5245 411.5721,190.707 411.7422,190.8751 411.9703,190.9782 412.522,191.0095 413.3687,191.5935 414.5863,191.6554 415.7657,193.7861 415.9454,195.2845 417.2482,196.459 417.4044,197.4917 418.825,199.897 419.2692,199.9482 420.5751,198.772 421.5525,198.8109 421.9025,197.9922 422.7829,197.674 422.9946,196.8227 423.7686,196.9789 424.3909,196.5775 424.6045,197.1753 423.7257,199.6058 423.996,201.1424 424.5222,201.7987 425.9956,201.527 426.0848,201.5775 426.1086,201.5909 427.8942,202.6008 428.0864,202.7096 428.672,203.0408 429.605,203.3065 429.7687,203.3532 430.68,203.6128 431.2982,203.579 432.2036,203.5295 432.1825,203.7439 432.0698,204.8892 432.5599,206.5888 432.8481,206.8914 434.171,207.0057 434.3324,207.2003 434.7094,207.6549 434.7695,209.0102 434.1104,210.2815 434.0005,212.1707 434.6962,212.9641 436.3619,213.4731 436.9609,214.5067 436.9479,215.4301 435.1555,216.4166 435.0289,217.1694 436.1914,218.7686 434.9326,219.9994 435.0622,220.8741 438.305,220.728 438.5631,221.683 438.5018,223.1513 437.3873,224.7062 437.4774,225.1373 438.8957,224.949 440.5669,223.709 443.0522,225.8245 443.7599,227.9673 443.7581,228.48 442.8887,229.6175 443.5163,232.1253 444.2461,232.6166 446.9078,232.2777 447.2977,232.7098 449.4833,237.3594 449.8875,237.679 451.6329,239.0603 452.4012,241.6986 452.9273,241.7968 456.974,240.2495 457.4239,240.0774 460.9066,239.7593 463.3632,238.9131 463.7984,238.9961 464.3669,239.1045 464.252,241.9323 463.3216,244.9295 461.1511,249.5585 460.0671,251.0427 459.9979,251.8201 462.1266,252.8799 461.1093,255.6431 462.3732,259.4699 461.7606,261.6942 461.8087,265.7113 461.3327,266.6332 460.7329,267.7946 458.678,271.32 458.5377,272.4305 459.6535,277.2268" stroke="black" /><polygon fill="none" points="240.5516,264.0223 240.0817,264.347 239.4871,264.5199 239.3419,264.6097 238.7266,264.7618 238.6873,264.8842 238.6506,265.1559 238.54,265.3149 238.2643,266.0795 238.0588,265.9155 237.3527,265.6188 236.8079,265.4743 236.0851,265.1469 236.0123,265.0585 235.2089,264.7349 235.1573,264.7141 235.1687,264.6893 235.1805,264.6637 235.3737,264.2439 235.343,264.2315 235.3047,264.216 234.2651,263.7954 234.1222,263.736 234.1063,263.687 234.011,263.3925 233.9623,262.6817 233.9575,262.6357 233.5523,262.5752 233.2629,261.8933 233.1566,261.635 233.138,261.5773 233.0663,261.3548 233.0537,261.3163 232.9979,261.3377 232.5168,261.5219 232.5072,261.5193 230.6058,260.9939 230.0004,260.858 228.411,260.7016 227.3414,260.2444 227.066,259.9579 226.6722,259.1408 226.3948,257.1264 226.2708,256.6398 225.8826,255.9013 225.484,255.4185 224.9846,254.9689 224.472,254.6274 222.4609,253.434 221.3768,252.9365 220.6047,252.4039 219.6158,251.4991 219.2956,251.0151 218.8678,249.9082 218.6195,249.5251 218.3115,249.2515 217.4268,248.9497 217.4242,248.9497 213.6467,248.9578 212.1342,248.991 207.3362,248.967 205.3678,248.232 203.8752,247.5574 201.1536,245.4725 199.2428,243.7658 198.7982,243.2297 197.8972,241.8747 196.5595,239.2287 195.8067,237.9182 195.347,237.2953 195.3503,236.6647 194.7418,236.4593 193.7113,236.0263 193.2899,235.7491 192.6064,235.2214 192.5111,235.4836 192.4988,235.4719 192.487,235.4606 192.4824,235.4562 192.4758,235.4499 192.4207,235.3972 192.4104,235.3873 192.4025,235.3798 191.7279,234.735 191.3932,234.144 190.7913,232.801 190.5778,232.3247 190.4595,231.9166 190.4979,231.382 190.5125,231.3275 190.7703,230.3696 190.8439,230.096 190.8513,229.5311 190.717,229.0663 189.6137,227.7744 189.0501,227.0139 188.7305,226.4437 188.5045,225.7898 188.3302,224.9609 188.1978,223.3727 188.1057,223.185 188.07,223.1121 188.062,223.0959 187.9545,223.0109 187.7932,222.8834 187.5244,222.671 187.5231,222.6699 186.8579,222.3118 186.3291,222.2764 184.9077,222.5777 184.9053,222.5771 184.4593,222.4563 183.919,221.9573 183.6027,221.3303 183.4881,220.5906 183.4473,218.8162 183.2947,217.9225 183.0135,217.2344 182.6221,216.7806 182.1072,216.4921 181.6404,216.3915 180.7146,216.3451 180.5997,216.2052 180.6037,215.8513 180.7983,215.3968 181.2446,214.6854 182.0168,213.897 184.1407,212.2995 184.2862,212.0121 184.3909,211.3433 184.2389,210.479 184.0245,210.179 183.6389,209.994 183.2417,209.9027 182.6665,209.946 181.4872,210.2282 181.2233,210.1821 180.9845,209.9836 180.8484,209.6831 180.8255,209.0859 181.229,208.1554 182.0908,207.2325 182.401,206.7329 182.5151,206.4088 182.5358,206.032 182.4614,205.7691 182.1625,205.5487 181.8208,205.4658 180.8248,205.4109 180.4509,205.2885 178.5539,203.8482 178.2092,203.3795 177.9341,202.595 177.5862,200.5712 177.3763,199.9883 177.1013,199.6092 176.7469,199.3797 176.3501,199.2955 175.8364,199.3096 175.4461,199.4655 174.9972,199.9079 174.5585,200.5695 174.3864,201.1471 174.2635,202.1976 174.3476,202.6696 175.1038,204.3252 175.0837,204.6065 174.87,204.8789 174.4174,205.0611 172.555,204.8574 172.3216,204.9069 171.5923,205.2659 171.2737,205.334 171.0389,205.2946 170.8395,205.1539 170.6885,204.8196 170.5962,204.1664 170.6725,203.7363 171.172,202.5973 171.206,202.3003 171.102,202.0666 170.9411,201.9351 169.7871,201.4492 169.1339,200.8459 168.4294,200.0539 168.1505,200.0005 167.4791,200.1655 167.1522,200.1601 166.9754,200.007 166.7056,199.3743 166.6698,198.5164 167.1277,196.9925 167.6086,196.4763 168.2039,196.3246 168.6546,196.3233 169.8796,196.6935 170.1584,196.683 170.3089,196.5905 170.3548,196.1265 170.2188,195.8576 169.9654,195.6152 168.4133,195.0624 168.2439,194.8717 168.1519,194.146 168.3078,193.1035 168.2356,192.7752 167.9427,192.5036 167.5782,192.3972 167.1517,192.48 166.2941,193.0331 165.9048,193.0067 165.6357,192.8224 165.4926,192.4583 165.459,192.1104 165.6958,191.3965 165.9187,191.1223 166.9304,190.4988 167.1148,190.275 167.1339,190.0675 166.9517,189.8056 166.6572,189.6869 166.3686,189.7186 165.7171,190.08 164.6367,191.1161 164.2911,191.2492 163.5848,191.1028 162.504,190.5249 162.1163,190.4833 161.8661,190.5069 160.4242,190.9522 160.0973,190.9467 159.7411,190.8342 159.2554,190.5235 158.7968,190.0696 158.3648,189.7602 157.8996,189.5949 156.1991,189.3625 154.8175,189.491 153.8297,189.442 149.9822,188.0326 149.298,187.9713 147.0166,188.6818 144.4263,188.8092 143.5577,189.2392 143.0693,189.5735 141.7205,190.7851 140.7503,191.4971 139.9526,191.7914 138.6179,192.115 137.8162,192.2208 137.0587,192.2308 136.1497,192.1424 134.6312,191.7169 133.6719,191.2547 131.7872,190.1689 128.2813,187.5211 127.0762,186.4502 126.7038,186.2149 126.136,186.0746 125.6164,186.1103 125.0766,186.4589 123.3883,188.0571 122.528,188.3884 122.5094,188.3899 122.4596,188.3941 122.4209,188.3973 121.6411,188.4625 121.3002,188.3938 120.9593,188.325 119.6219,187.6828 118.3572,186.8173 117.5605,185.9686 117.1613,185.0808 116.3963,182.1566 115.8274,181.3958 115.743,181.3524 115.6586,181.309 114.9486,180.9437 113.9119,180.7171 111.0077,180.7229 110.4476,180.8646 109.8876,181.0062 109.2249,181.3815 108.8809,181.8459 108.6911,182.3704 108.6985,182.8824 108.9951,183.4703 110.1545,184.5642 110.2872,184.8786 110.2828,185.1206 110.0984,185.345 109.3637,185.3926 108.6034,185.1564 107.936,184.8201 107.4237,184.3912 107.0961,183.8196 107.0044,183.3205 106.9127,182.8215 106.8699,181.6847 106.591,180.8571 106.2304,180.482 105.8052,180.307 105.3179,180.2422 104.5685,180.3046 103.3678,180.5591 102.7799,180.8924 101.6357,181.8719 101.1172,181.8658 100.7546,181.7484 100.5771,181.263 100.4098,180.3215 100.2823,180.0952 100.0498,179.6903 99.2644,179.2262 98.534,179.0454 97.6211,178.9203 95.2303,179.458 94.6155,179.735 94.3813,179.9484 94.147,180.1619 93.6785,180.5888 93.336,181.0538 93.1915,181.5083 93.2286,182.0742 93.4945,182.7475 93.6618,182.9337 93.9663,183.2725 94.4382,183.7975 94.5714,184.1399 94.4913,184.4661 94.1799,184.7756 93.6744,184.9095 92.3688,184.8949 91.9741,184.9725 91.8348,184.9999 90.7666,185.8535 90.0108,186.3545 89.7109,186.4644 89.411,186.5742 88.2609,186.5427 87.961,186.5345 87.6972,186.5272 87.6751,186.5266 87.6593,186.5262 87.6003,186.5246 87.538,186.5229 87.5355,186.5228 87.5326,186.5227 87.3669,186.5183 87.328,186.5172 87.2901,186.5162 87.2807,186.5159 86.992,186.5082 86.9535,186.5071 86.9271,186.5064 86.896,186.5056 86.8288,186.5038 86.7982,186.5029 86.7786,186.5024 86.7664,186.5021 86.4513,186.4936 86.147,186.3887 86.1324,186.3837 86.1127,186.3769 86.077,186.3646 86.0323,186.3492 86.0024,186.3389 85.9554,186.3227 85.5477,186.1822 83.9573,184.8832 83.815,184.7671 82.9203,184.2723 80.3567,183.1719 79.8541,183.094 79.3514,183.0161 78.7402,183.064 78.0811,183.2144 77.1268,183.6548 76.9436,183.678 76.2101,183.7708 75.6399,183.7388 75.2925,183.6479 75.126,183.4468 74.7488,182.192 74.5539,182.061 74.1742,181.9277 73.8652,181.9385 73.0038,182.4231 72.6526,182.4909 71.9512,182.3948 71.1463,182.1308 70.9774,182.1917 70.8086,182.2526 70.671,182.4062 70.5716,182.7045 70.7183,183.2458 70.9251,183.6181 70.8868,184.2002 70.7898,184.469 70.5127,184.6069 70.2836,184.6036 70.0885,184.5164 69.7001,183.7284 68.8368,182.7156 68.4535,181.8434 68.3785,180.8973 68.2811,180.5541 68.1582,180.4915 68.0352,180.4288 67.2878,180.3884 66.2006,180.5875 65.6425,180.5801 65.1434,180.3843 64.8599,179.9793 64.7438,179.5738 64.7819,179.0979 65.0028,178.6022 65.5859,177.8832 66.1123,177.4005 66.2399,177.0752 66.1767,176.7191 65.9823,176.4718 65.5885,176.3656 65.0341,176.3935 64.4796,176.4214 64.0397,176.3401 63.6382,176.1409 63.2572,175.7099 62.9912,175.0602 62.6138,174.8127 62.2929,174.8024 61.2051,175.5755 60.8675,175.5875 60.5184,175.4608 60.2847,175.2654 60.1006,174.8297 59.9894,174.1885 59.9904,173.542 59.9084,173.3417 59.7274,173.3033 59.4027,173.3901 59.0356,173.6071 58.7487,173.8961 58.081,175.6152 57.8469,176.4142 57.4479,177.1556 56.7762,178.0792 56.739,178.4926 56.962,178.8492 57.4519,178.8911 58.6675,178.6515 58.858,178.6766 59.0242,178.8411 59.0657,179.0553 59.0071,179.1496 58.9485,179.2439 57.2385,180.0481 55.828,180.4257 54.7934,182.1637 54.3429,182.7401 53.4998,183.269 52.9858,183.4189 52.5499,183.435 51.3896,182.964 49.3791,181.664 47.8029,181.0413 47.321,180.8509 46.8515,180.5613 46.4811,180.0756 46.4181,179.9931 45.8935,178.204 45.5807,176.8315 45.6256,175.6665 45.8889,174.5592 46.3335,173.5088 46.3147,172.7404 46.0797,172.0248 45.3567,171.3869 44.3834,170.9755 44.0795,170.7715 44.025,170.4007 44.1235,170.0026 44.6799,169.6415 45.6548,169.9093 46.4648,170.9181 46.7707,170.8924 47.0216,170.6121 47.1874,169.732 46.8925,169.0433 45.9247,168.3159 44.7588,168.4722 44.0285,168.3204 43.7562,168.0017 43.7319,167.6605 43.9224,167.1775 44.4164,166.872 45.1838,166.7675 45.9482,166.8067 46.437,166.6987 46.6311,166.3025 46.4526,165.8557 45.6398,165.1879 44.6974,164.5492 44.1549,164.0006 43.6109,163.5957 43.2777,163.4754 43.0298,163.5295 42.5671,163.8064 42.0967,164.4847 41.8495,164.6816 41.3894,164.7897 40.9922,164.6133 40.479,164.2357 40.082,164.1741 39.8641,164.3984 39.828,164.7415 40.0334,165.3127 40.4821,165.9749 40.5982,166.4322 40.5885,167.0303 40.2754,167.481 39.4715,167.9845 38.0871,168.4505 37.7439,168.8738 37.4597,169.4102 37.6665,169.8988 38.1803,170.305 39.4633,170.4647 39.7374,170.5824 39.7615,170.9818 39.4235,171.2893 36.9776,171.2858 36.2686,171.6189 35.3705,172.2605 34.9072,172.5108 34.4797,172.4777 33.9068,172.1012 33.6811,170.9848 33.2001,170.1516 33.2094,169.753 33.7131,168.848 33.6567,168.5332 33.1988,168.5279 32.8574,168.7487 31.9745,170.3907 31.1652,171.2639 30.486,171.6531 29.9327,171.6467 29.3573,171.4109 28.7412,170.4628 28.3448,170.3982 27.4545,170.5293 26.7532,170.4637 25.7503,169.9371 24.9737,168.6707 24.6494,167.7083 24.3994,166.9673 22.8389,162.3423 22.3294,161.737 21.1522,160.6666 19.9289,158.6128 18.9263,158.1995 17.9367,157.9295 16.9472,157.6595 15.5494,156.9002 14.4935,155.9157 13.3749,153.9055 12.497,153.2947 10.3073,152.4368 9.7038,151.8878 9.4685,151.3034 9.3877,150.6753 9.5179,150.0793 9.4364,149.4505 9.1705,148.7633 8.6868,148.2365 8.4797,148.0119 7.8259,146.8055 7.8685,146.0653 8.4979,144.8836 8.4996,144.8803 8.5007,144.8784 8.5026,144.8748 8.5152,144.8511 8.5203,144.8416 8.5214,144.8395 8.5261,144.8307 8.5618,144.7636 8.5303,142.7787 8.6642,142.2106 8.9142,141.8156 9.3183,141.4781 9.8496,140.7737 10.1622,139.9943 10.4863,139.1859 11.2678,138.0571 11.9537,137.2967 12.9094,136.8539 13.5882,136.6349 14.8842,135.8543 15.9047,135.1001 17.2969,133.7924 19.016,131.4501 19.1448,131.0816 19.0288,130.7671 18.6686,130.2783 17.9987,130.0378 16.5003,129.9334 13.3675,128.9488 12.3603,128.7078 11.7525,128.3864 11.0727,127.629 11.0011,127.5492 10.4133,125.9734 8.9411,123.1461 8.5193,122.7122 7.9114,122.4209 7.0873,122.2942 6.2301,122.5098 5.395,123.0394 4.828,123.8874 3.1486,129.5367 2.8197,131.0142 2.5665,131.5528 2.2277,131.6335 1.651,131.3976 0.9276,130.5607 0.2073,127.8715 0.0,125.5623 0.2213,123.1686 0.5408,122.3158 1.289,121.4468 2.1318,120.2875 2.6398,119.2124 3.171,118.5066 4.1342,117.5784 5.9898,116.3615 6.7265,116.1724 7.6746,116.1562 8.5899,116.3415 9.5619,116.7239 10.05,116.8451 10.4479,116.8502 10.8802,116.5704 11.4765,115.6387 11.8585,114.703 12.2312,114.2807 13.8298,113.8464 14.3547,113.5405 14.5501,112.9153 14.6149,112.2425 14.6214,112.1747 14.544,111.5658 15.3157,112.3462 15.4698,112.5981 15.4907,112.7903 15.2732,113.4085 15.3952,113.6725 15.6022,113.7845 17.0621,113.5612 17.9006,113.2322 18.1556,112.9899 19.1155,111.4504 19.9112,110.6705 20.7979,110.0568 22.5741,109.2879 23.8677,108.9458 24.7909,108.4942 25.7301,108.2457 26.1474,108.283 27.7295,108.7763 29.1504,109.4636 30.2678,110.3034 30.4136,109.8079 30.4331,108.6074 30.5749,108.2377 30.5529,106.7734 30.7023,105.8545 30.9028,105.4472 31.3136,104.9178 33.406,99.8871 34.0955,99.1904 34.5319,98.3723 34.9705,96.8939 35.1112,96.1497 35.2418,94.3928 35.1668,93.3727 35.2139,92.9502 35.6578,92.1131 36.0373,90.9198 37.167,88.9083 37.8694,88.0434 37.9092,87.9944 37.9944,87.8895 39.1551,86.648 40.9112,85.4256 41.1702,85.1637 41.4292,84.9018 41.5168,84.6466 41.543,84.5704 41.5691,84.4942 41.5068,84.3759 41.4445,84.2576 41.463,83.7595 40.9583,84.0754 40.718,84.0911 40.6032,84.0249 40.672,83.4451 40.6213,83.247 40.448,83.1236 40.0481,83.0613 39.9504,82.9649 39.8828,82.7044 39.9016,82.1963 39.4015,82.1439 39.3575,82.0819 39.4206,81.7858 39.0274,81.6844 39.052,81.5841 39.0986,81.3938 38.8617,81.1898 39.1339,80.857 39.1518,80.7293 39.0426,80.6039 38.6639,80.4331 38.6162,80.3274 38.7143,79.6008 38.6564,79.2846 38.5077,79.1416 38.1651,79.0761 38.081,78.9878 38.2889,78.7043 38.1362,78.4789 38.2998,78.1112 38.1828,77.8886 38.2686,77.626 37.9387,77.1504 37.9991,76.6047 37.6289,76.1766 37.5654,75.6325 37.3029,75.413 37.2639,75.2798 37.3645,74.7948 37.2839,74.7307 36.8784,74.4075 36.8571,74.3194 36.9827,74.2065 36.983,74.1018 36.813,73.984 36.784,73.8811 36.9272,73.5724 36.6883,73.1819 36.7628,72.3192 36.4572,71.976 36.5258,71.5354 36.3298,71.2157 36.3586,70.6239 36.1282,70.3465 36.0447,70.0464 35.8934,69.8496 35.7264,69.5358 35.739,68.9957 35.6192,68.794 35.4995,68.5924 35.4358,68.2377 34.8287,67.3796 34.8498,66.7889 34.5539,66.5679 34.4662,66.4044 34.5936,65.8487 34.4399,65.2976 34.73,64.8845 34.7814,64.6972 34.3176,64.1761 34.4195,63.7507 34.2689,63.2798 34.4522,62.8697 34.5051,62.409 35.0138,61.887 35.061,61.5952 34.9471,61.3237 34.9719,61.1303 35.4083,61.0362 35.4992,60.6729 35.473,60.3856 35.2224,60.1061 35.183,59.9161 35.389,59.2869 35.2831,58.8436 35.9253,58.037 36.101,57.5841 36.1106,57.1553 35.9276,56.2064 35.9332,55.8726 36.0962,55.2193 35.8268,54.599 35.7704,54.2971 35.9173,53.839 35.9293,53.286 36.2396,52.7637 36.0566,52.0523 36.2364,51.5562 36.1968,51.1367 36.6051,50.606 36.6226,50.3907 36.302,49.8149 36.4182,49.6716 36.7855,49.5272 36.7259,49.1107 36.9404,48.7696 36.9292,48.6179 36.5691,48.076 36.5218,47.834 36.7938,47.3054 36.8304,46.5383 36.94,46.1283 37.3478,45.3946 37.3838,45.1764 37.1576,44.7122 37.1718,43.9941 36.8246,43.4617 36.8291,43.2822 37.2181,42.8807 37.1625,42.2093 37.2868,41.7664 38.0534,40.794 38.2052,39.9252 38.6333,39.2122 38.5565,38.5344 38.9974,37.8603 38.9989,37.6357 38.7817,37.3735 38.7401,37.1836 38.7789,36.9287 38.9684,36.5205 39.0125,36.0845 38.8945,35.9675 38.6287,35.9017 38.4984,35.6273 38.0943,35.456 38.0026,35.2245 37.8146,35.1504 37.6513,34.8637 37.2373,34.5695 37.0209,34.1286 36.6837,33.74 36.6558,33.3042 36.2291,33.0671 36.3148,32.6431 36.2133,32.4665 35.0598,31.2435 34.3714,30.703 34.3896,30.502 34.7822,30.3057 34.8856,30.1852 34.7826,29.7345 35.3471,29.4248 35.3807,28.9319 35.6396,28.5495 35.666,27.9715 35.8812,27.5666 35.6966,27.0468 35.8661,26.8511 35.8485,26.5016 35.9608,26.2753 35.8405,26.0765 35.9263,25.7034 35.8784,25.6257 36.269,25.6619 38.0007,25.4754 39.808,25.0892 41.0815,24.687 42.948,24.4058 43.3951,24.2165 44.525,23.2297 45.6704,21.9861 46.8182,21.1622 48.4316,20.6303 49.1615,20.6022 49.7318,20.7816 51.1935,21.4879 52.3746,21.7561 53.0743,22.3046 54.0635,22.7859 54.4397,22.9238 55.1784,22.9828 55.6594,22.9499 56.7686,22.5939 57.5568,22.6034 58.0622,22.3041 59.3006,21.2431 59.6915,21.0768 60.1203,21.0052 60.612,21.0321 61.1633,21.1728 62.5979,22.1635 63.2419,22.2975 63.4563,22.4055 63.9855,22.969 64.8536,23.6669 67.8099,27.3343 68.6538,27.8028 68.9088,28.3978 69.2513,28.7839 69.9714,29.1277 70.2746,29.3898 71.2592,30.7788 71.9534,31.6266 72.7392,32.4297 73.1836,32.7592 74.5753,33.4208 75.1694,34.0094 76.0272,34.1071 76.4521,34.3219 77.5323,34.327 77.8558,34.447 78.3237,34.7661 79.2688,35.0846 79.774,35.4524 80.4155,35.6918 81.7982,36.5955 82.1035,36.628 82.4119,36.4701 83.0082,35.6675 83.3106,35.3707 83.8178,34.2346 84.0366,33.9213 84.6703,33.3481 85.1718,32.6506 85.4002,31.7241 85.6018,29.8947 86.2817,26.8128 86.7733,25.3889 87.7784,22.9412 89.4305,17.1375 89.973,15.9483 90.3596,15.4392 90.9602,14.9033 92.2022,14.017 92.8156,13.4417 93.0783,13.2708 93.6849,13.0488 94.1194,13.0163 94.719,13.1771 96.4196,13.1375 97.0088,13.1939 97.437,13.1272 97.8774,12.6281 97.9815,12.2048 98.1281,12.0501 98.8574,11.8029 98.981,11.6971 99.0998,11.5955 99.1,11.5153 99.1011,11.1599 99.1402,10.9926 99.2532,10.8809 99.633,10.8227 100.4033,10.4153 101.3308,10.2645 101.5696,10.0292 101.8309,9.3511 102.1294,9.0868 102.4248,8.9653 102.9325,8.9247 103.8266,8.6132 104.582,7.9969 105.259,7.7282 105.5695,7.4554 106.2107,7.1495 106.3049,6.9698 106.3268,6.3059 106.4018,6.1292 107.1945,5.6433 107.3983,5.0084 107.5552,4.7479 108.4558,4.0286 108.5926,3.8492 108.6379,3.5539 108.5151,3.1953 108.5103,2.8267 108.7417,2.4102 108.9844,2.2573 109.7752,2.0513 110.447,1.6429 111.5538,1.4386 111.8488,0.8329 112.6646,0.6 112.9463,0.1979 112.9785,0.0 113.1951,0.4393 113.3503,0.5569 114.01,0.7746 114.5343,1.2197 115.2066,1.4096 115.4808,1.5846 115.651,1.7869 116.1032,2.8642 117.0824,3.7249 117.5682,4.4894 118.6591,5.3533 118.8243,5.7395 118.8456,6.2537 118.976,6.4656 120.0166,7.2835 120.1733,7.4771 120.3473,8.3766 120.6169,8.8517 120.6608,9.1956 120.4753,9.9818 120.4866,10.6392 120.5808,11.0621 121.7415,12.4647 121.8897,12.914 121.8904,13.5145 121.9791,13.6966 122.4848,14.0111 122.7119,14.5676 123.0145,14.7514 124.5418,15.1908 124.8958,15.4436 125.3332,16.5788 125.7269,16.8994 126.0114,17.0158 126.4917,17.0796 128.3227,17.0262 128.7114,17.4037 129.6149,17.7574 129.8575,17.9509 130.1944,18.6606 130.347,18.8335 130.5405,18.9416 130.8966,18.984 131.7853,18.9086 131.9883,18.9883 132.5249,19.348 133.2045,20.0174 134.4968,20.415 135.3693,20.8165 136.1941,21.7424 137.1476,22.2302 138.1873,22.9109 139.4241,23.3301 140.5276,23.3531 140.7189,23.4799 141.0658,24.2652 141.4776,24.7471 142.2697,25.071 142.9848,25.119 143.3496,25.2758 143.4233,25.4348 143.9908,25.8233 144.6668,26.4318 145.4605,26.6609 145.6022,26.769 145.9173,27.5527 146.3017,27.7775 147.7421,27.8615 148.4337,28.1078 148.6732,28.3782 149.1083,29.1123 149.5138,29.3563 149.7549,29.6905 150.1411,29.8406 150.2556,30.4025 150.4049,30.635 151.4978,31.4009 151.7933,31.5175 152.2983,32.1605 152.611,32.4392 153.2309,32.8183 153.752,33.4254 153.9345,33.5131 154.1153,33.725 154.4425,34.3905 154.9151,34.9408 154.9822,35.2644 154.9802,36.1045 155.4793,36.9571 156.1459,38.5825 156.4247,38.9746 156.6894,39.142 159.1823,40.03 159.7678,40.323 160.4926,40.5032 161.7887,40.6254 162.4646,40.5853 163.6674,40.3715 164.2204,40.1788 165.4712,39.965 166.0993,39.6299 167.958,38.3101 169.185,37.7731 170.4353,37.5027 171.3218,36.988 173.7697,37.2772 176.3062,37.3847 177.6015,37.6008 179.8602,38.2781 181.9032,39.2149 182.6335,39.6157 183.5335,40.251 183.8148,40.5475 184.9222,42.43 185.892,43.3004 186.6451,43.7999 188.4021,44.6211 189.1862,44.823 191.2076,44.9614 191.654,45.1654 192.042,45.6144 192.5014,46.1443 192.6144,46.2206 193.0185,46.4932 193.6181,46.7574 195.045,47.6233 197.0171,48.4667 198.2029,48.7375 199.1308,48.855 200.1945,48.8971 203.096,48.7804 204.361,48.4158 204.7508,48.4006 206.001,48.1112 206.8823,48.0075 208.0202,47.6885 209.8697,47.5779 210.3184,47.6878 210.9555,48.0486 211.9098,49.2401 213.4817,51.5672 213.7989,52.3341 214.3421,53.2835 214.9558,54.1997 215.5169,54.7603 216.488,55.4783 219.353,56.6678 220.6681,57.5244 221.9547,58.5289 223.0548,59.5806 223.8218,60.4741 225.1655,61.5577 225.5643,61.7852 226.3788,61.9869 228.9286,62.3316 229.8639,62.3575 231.0755,63.0334 232.6161,63.4041 234.6695,64.2182 235.8395,64.5552 236.7388,64.2447 237.6996,63.8605 238.6274,63.9458 239.664,63.8345 240.7957,63.6923 241.8149,63.7612 243.8593,63.7113 244.5028,63.0754 244.6256,62.9541 244.7741,62.8073 245.2936,61.7008 245.8475,61.9546 246.4592,61.2739 246.6133,61.1024 246.683,61.0249 247.0555,60.3349 248.1831,58.2466 248.235,58.1504 248.2418,58.1453 249.3614,57.2983 250.836,56.2031 252.3375,55.0834 253.2712,54.299 253.4114,54.1812 253.7507,53.8849 254.1097,53.5713 254.1924,53.3731 254.5127,52.6055 254.7836,52.2137 255.1083,51.9497 255.5065,51.6259 255.8493,51.3899 255.9181,51.3425 256.3774,51.1958 256.4778,51.1637 256.6112,51.1884 256.8321,51.2294 257.0631,51.2723 257.212,51.2999 257.5359,51.3388 258.3034,51.4307 258.7107,51.533 258.9079,51.5825 259.0857,51.6271 260.041,51.5972 260.773,51.5744 260.8115,51.5732 261.1381,51.4105 261.1907,51.3842 261.9901,50.986 262.0919,50.9353 262.1207,50.9209 262.1714,50.9331 262.5476,51.0237 262.9462,51.1196 263.4169,51.2328 263.691,51.2716 263.8121,51.2887 264.3705,51.3676 265.1397,51.4014 265.5131,51.417 265.962,51.4357 266.0667,51.417 266.3345,51.3691 266.9995,51.2501 267.4583,51.0609 267.7868,50.9255 268.1723,50.7451 268.5346,50.5757 268.7331,50.4931 269.402,50.2149 270.0967,49.8645 270.715,49.6225 271.2364,49.4185 271.6307,49.2642 272.8562,48.92 272.9144,48.9191 273.4281,48.9116 273.7985,48.9062 273.8942,48.9474 275.2439,49.5287 276.0787,49.7041 276.6578,49.9552 277.5397,50.5396 277.9905,50.7352 278.579,50.7277 278.8047,50.6548 279.3473,50.1508 279.5418,49.7824 279.8193,49.5479 279.8793,49.4973 280.6559,48.8412 281.5854,47.9102 282.441,46.915 282.9834,46.1313 283.8728,45.4057 285.2132,44.7265 285.8443,44.5343 288.1134,43.9275 289.6838,43.9067 290.247,43.7518 290.9746,43.2914 291.5378,42.4759 291.9013,41.2961 292.2664,40.379 292.8709,38.8158 293.2273,37.9545 293.53,37.1419 294.1725,36.7166 294.9865,37.3688 294.5449,38.4555 295.6342,39.725 296.2524,40.2289 296.6807,40.424 298.073,40.8212 298.6378,41.0821 299.8616,42.0688 300.1173,42.5275 300.257,43.0995 300.2708,43.6332 299.9962,44.974 299.8688,46.1012 299.4554,47.7486 299.4625,48.502 299.5242,48.9103 299.7204,49.307 299.8238,49.5162 300.7073,50.545 300.9688,50.9661 301.1809,51.6812 301.0291,52.9063 300.8578,53.3497 300.6615,53.6215 299.9175,54.3545 298.6999,55.3318 298.0421,55.701 297.8406,55.93 297.7476,56.1147 297.6226,57.4125 297.5332,57.6968 297.1579,58.1219 296.6319,58.4768 296.4258,58.8149 296.3246,59.1743 295.9932,59.3178 295.8322,59.4747 295.6509,59.8734 295.5128,59.9476 294.8339,59.8393 294.5486,59.8682 294.285,60.1264 294.1549,60.4045 293.5981,60.9795 293.4645,61.6329 293.3478,61.8539 293.004,62.1356 292.0031,62.6638 291.7048,62.8941 291.1568,63.9815 290.708,64.2713 290.132,64.5129 289.7868,64.8585 289.5126,64.955 289.4203,65.0293 289.3323,65.3128 289.2057,65.3226 288.9337,65.1838 288.7612,65.2982 288.7523,65.8587 288.6948,65.9322 288.3674,66.0016 288.2968,66.1072 288.363,66.2987 287.8014,66.61 287.7866,66.9154 287.9703,67.3765 287.9769,67.7678 287.8282,68.2899 287.5997,68.4934 287.0689,68.5868 286.9029,68.6915 286.3512,69.7066 286.319,70.342 286.4867,71.8042 286.8252,72.4436 286.8344,72.9933 287.1498,73.638 287.1466,73.8347 286.8363,74.5503 286.7663,75.1271 286.8068,75.514 287.4899,76.9446 287.3872,77.9337 286.8946,78.706 286.9646,78.9877 287.1726,79.2232 287.1617,79.3449 287.0808,79.4768 287.052,79.4959 286.5941,79.7992 286.4567,80.3014 286.113,80.5408 285.8323,80.7373 285.4715,81.359 285.1053,81.5829 284.6962,82.0446 284.5773,82.0691 284.2028,81.9591 283.955,82.332 283.7897,82.1291 283.608,82.2008 283.626,82.4489 283.5418,82.6074 283.454,82.6801 283.1139,82.6368 282.9703,82.7111 282.8196,82.9801 282.6944,83.0487 282.5135,82.9655 282.5685,82.6439 282.4448,82.5883 282.0693,82.7803 281.9649,82.5094 281.7282,82.6882 281.4683,82.5618 281.0553,82.901 280.6569,82.5791 280.2705,82.6023 280.0501,82.751 279.9361,82.7502 279.7176,82.5674 279.547,82.5655 279.4092,82.707 279.3921,83.0291 279.0224,83.1519 279.0035,83.2833 279.1818,83.5445 278.8859,83.9324 278.9562,84.25 278.2812,84.437 277.7669,84.706 277.0901,85.3636 276.8726,85.4477 276.6363,85.4335 276.0134,85.1944 275.5723,85.1167 275.002,85.32 274.8039,85.6033 274.5229,86.3018 274.3507,86.4678 273.7912,86.7473 273.4892,87.0925 273.385,87.8577 273.7695,88.8759 274.3828,89.662 274.9922,90.7446 275.5249,91.6039 275.8841,94.5134 275.9193,95.6239 276.1658,96.7593 276.2773,97.6925 276.2789,98.3989 276.4824,99.3583 276.612,101.5388 276.7359,102.44 276.6391,102.9634 276.2156,104.0791 276.1393,104.5637 276.0158,107.0482 276.0128,107.1074 275.7766,110.4089 275.2582,110.6128 274.6939,110.6617 273.1534,110.296 272.8417,110.2787 272.4727,110.418 271.9072,110.7961 271.2426,111.8912 269.9308,113.6685 269.2823,114.6739 269.3062,115.6764 269.6732,116.0269 269.3466,116.6165 267.9278,117.4652 266.7559,118.1492 266.4257,118.4109 264.9503,119.1211 264.3967,119.1357 263.9749,118.6447 263.8551,118.6095 263.7962,118.5922 263.3356,118.6839 263.2999,117.9151 262.8417,117.1166 262.5198,115.7011 261.8207,114.3543 261.354,113.6938 261.3783,112.9311 261.7031,111.532 261.7669,109.1079 262.0904,107.1136 261.9119,106.3561 261.4202,105.6924 261.0128,104.8379 260.0497,103.927 259.296,102.7389 258.1705,101.3896 256.7342,100.0552 255.4377,98.5864 254.9961,97.8682 254.9079,97.4101 254.6006,97.0647 253.5724,96.1043 252.9105,95.6458 251.6191,94.3826 250.1293,93.6306 249.3923,93.4042 249.0789,93.3998 248.1269,93.6295 246.9329,94.0726 245.9964,94.1331 245.4663,94.2434 244.1582,94.685 243.6138,94.6496 242.4722,94.7311 241.7405,94.6873 240.2711,94.3705 238.511,94.1608 238.1297,94.0402 236.9086,93.3863 236.6985,93.3408 236.2397,93.4653 235.2986,94.053 234.6017,94.362 233.2531,94.3985 232.9798,94.4692 232.7205,94.5362 230.3099,95.733 229.7104,96.1605 229.5132,96.9422 229.7236,97.352 230.4667,97.8243 230.9273,98.3532 231.4389,99.6345 231.2415,100.475 230.3645,101.5542 229.7007,101.8288 229.4704,102.0288 228.4761,103.1037 227.7514,103.7395 227.2038,104.4782 226.865,104.7703 226.2071,105.0238 224.3948,105.2925 223.2338,105.3001 220.5609,105.1029 219.2915,105.1445 218.1674,105.4072 217.5254,105.6385 216.2838,106.4219 215.7902,106.6268 215.284,106.7224 214.1964,106.7231 213.6308,106.6369 212.3555,106.3746 211.1759,106.0249 211.1448,106.0197 211.095,106.0113 209.2831,105.7065 208.6733,105.6831 207.7265,105.8808 206.5859,106.4511 208.5871,116.3979 208.6,116.4621 208.7819,117.3662 209.4752,120.1605 209.8279,122.1117 210.4795,125.7168 210.4837,125.7401 210.5103,125.8871 210.6169,126.4769 210.7868,129.7521 210.8798,131.5434 210.9569,133.3726 211.1014,136.7982 211.3382,142.41 211.5055,146.3769 211.4002,147.2005 211.5218,151.0049 213.0833,157.306 213.3266,158.1571 213.3366,158.192 213.4444,158.5691 213.6892,159.4254 214.2422,161.3591 214.3275,161.7607 214.3906,162.0578 214.4617,162.3926 214.5282,163.1623 214.4269,164.2298 214.366,164.8719 214.34,165.1458 213.6906,167.3063 213.8013,168.3373 214.2846,169.962 215.3894,173.6702 216.3037,176.739 217.3534,180.522 217.8994,182.6798 217.9442,182.6806 218.0431,182.6823 218.1058,182.6835 218.4416,182.6895 218.4973,182.6905 219.0036,182.6996 220.5474,182.727 220.5957,182.7279 220.6625,182.7291 221.9853,182.7526 228.0475,182.8613 236.4295,176.0888 236.4668,176.0587 244.9153,169.2323 253.4166,162.3635 254.1438,162.0659 254.2553,161.9384 254.3081,161.31 254.6397,160.9951 255.0164,160.7607 255.7414,160.0494 256.2905,159.8176 258.2758,159.6261 258.671,159.1894 259.034,158.3309 259.5805,158.1695 260.4989,158.218 261.4955,157.6483 261.9701,157.0941 262.5963,156.8697 262.7777,156.6825 263.203,155.7382 263.2783,155.3555 263.4275,155.1324 263.5714,155.0179 264.4745,154.7155 264.7565,154.4788 265.4881,153.4866 265.8311,152.832 266.2262,152.4541 266.5911,151.8953 267.0548,151.48 267.2179,150.8863 267.1903,150.1724 267.8348,148.5335 267.9971,147.5719 268.1563,147.2695 269.3072,146.2104 270.8213,145.5723 271.6364,144.6985 272.6455,143.9354 273.1342,143.4774 273.4501,143.0391 274.0927,142.8935 274.9263,143.0144 275.3337,143.1882 276.5325,143.9796 277.0606,144.1775 278.8314,144.1515 279.6737,144.442 280.6524,145.1145 281.3465,145.1596 282.039,145.0506 282.5609,145.1577 283.6972,146.0472 284.0227,146.0386 284.4531,146.6247 284.8132,146.5114 285.3154,146.202 285.5415,146.1798 285.7462,146.2688 285.8963,146.2118 286.0315,146.5348 286.446,146.5736 286.4005,146.9934 286.54,147.0992 286.661,147.1293 286.8886,146.9929 286.9541,147.0586 286.8992,147.1908 287.0181,147.2416 287.2488,147.1238 287.4846,147.1142 287.6191,147.2362 287.6533,147.4128 287.8873,147.5392 288.1351,147.6317 288.4132,147.6905 288.6721,147.6997 288.9691,147.5888 289.1454,147.5661 289.1614,147.3592 289.2379,147.3477 289.316,147.4266 289.4632,147.3874 289.6805,147.6569 289.8381,147.6606 290.1071,147.9048 290.312,147.9721 290.396,148.1462 290.3433,148.365 290.6101,148.2785 290.7764,148.3893 291.2215,148.4926 291.0712,148.8061 291.1812,149.0207 292.4003,149.5702 292.779,149.4718 293.1186,149.4016 293.2285,149.1247 293.5006,149.134 293.6027,148.9497 294.0843,149.1902 294.7602,150.7928 295.6769,150.9739 296.2201,151.1016 296.6745,151.5572 297.1288,151.7963 297.4188,152.1911 297.7397,152.4008 298.2243,152.9463 298.9902,153.166 299.2504,153.6466 299.4643,153.78 299.7917,153.7198 300.0099,153.5432 300.653,152.5384 301.1069,152.1313 301.5932,151.4761 301.7597,151.3038 301.9644,151.211 302.1302,151.2231 302.2827,151.2939 302.5904,151.6692 303.0487,152.6418 303.2162,152.8396 303.8085,153.1845 303.9521,153.3998 304.1012,154.2102 304.5669,154.4286 305.3352,154.4833 306.5252,154.3496 307.1129,154.4784 307.6461,154.5953 308.0531,154.6213 308.5172,154.4138 308.6823,154.4116 309.4525,154.7158 310.5804,155.2947 311.2602,155.4084 311.5519,155.2572 312.0566,154.4025 312.3446,154.2996 312.7994,154.3213 313.0634,154.5091 313.1715,154.9856 313.3207,155.1885 313.7696,155.199 314.2256,155.0614 314.4631,155.0955 314.6266,155.1823 314.9106,155.6403 315.2213,155.6941 315.4798,155.6075 315.6345,155.661 315.808,155.8226 316.0747,156.2908 316.507,156.6448 316.5856,157.106 316.9545,157.8587 317.5665,158.3741 317.7645,158.455 319.4242,158.3279 320.3979,158.5011 320.8127,158.6342 321.2176,158.8919 322.0834,159.0755 322.16,159.0872 322.3279,159.1129 323.8463,159.3454 325.978,159.4542 330.1721,160.0304 330.7413,159.9523 332.7662,159.3844 333.3327,159.389 334.226,159.7162 334.9786,160.3694 335.8665,161.9239 336.5124,162.6743 338.8903,163.9073 339.6295,164.7375 339.7289,164.9504 339.7349,165.3094 339.6302,165.583 339.237,166.1281 338.6046,166.7446 338.1199,167.3518 337.9219,167.7406 337.9192,167.9307 338.1429,168.1769 339.5252,167.8286 340.2148,167.7373 341.2994,167.7692 342.537,168.0468 343.6648,168.0596 345.2596,168.6915 345.7286,168.9878 346.3088,169.2118 346.621,169.2354 347.4372,169.1457 349.0631,169.2957 350.1203,169.0368 351.5618,168.9791 352.2225,168.8682 352.5623,168.8984 353.1134,169.2377 353.6726,169.416 354.2908,169.7918 355.1162,170.1376 355.4891,170.3736 356.2089,171.2002 356.536,171.7387 356.7554,172.2769 356.8065,172.773 356.4807,173.2241 356.4986,173.4363 356.8903,173.9482 356.9088,174.1403 356.6406,174.6125 356.6315,174.752 357.2251,175.1919 357.28,175.8658 357.5585,176.3174 357.7766,176.439 358.4477,176.5901 358.6158,176.7512 358.6194,176.9562 358.2159,178.0532 358.3695,178.2487 358.8791,178.3072 359.04,178.4342 359.1599,178.7122 359.0942,179.8474 359.3538,180.563 359.4133,180.934 359.6629,181.3261 359.6931,181.3735 359.8582,181.6329 359.9101,182.5055 360.1143,182.9517 360.2896,183.3349 360.2852,184.2264 360.14,184.4577 359.9948,184.6889 359.9716,185.0069 360.589,186.0266 360.5608,186.7585 360.3632,187.2886 358.9276,188.8192 358.2592,189.4302 357.3925,190.0006 356.6815,190.7627 355.5465,192.1359 354.8768,193.188 354.4044,193.4003 353.7031,193.5231 352.6424,193.5835 350.9711,193.8716 350.6243,194.1422 350.4974,194.3601 350.5256,194.5618 350.7254,194.7953 351.7615,195.4309 351.9886,196.044 351.9066,196.3044 350.5999,197.1004 350.4929,197.1656 349.1537,198.2516 348.7258,198.7566 348.4234,199.3774 348.1688,199.7228 347.8565,199.8219 347.2277,199.7557 343.6523,198.9021 342.9193,198.9674 341.5736,199.4311 339.8636,200.3261 337.7787,201.1278 336.9926,201.6099 336.827,201.7692 336.6614,201.9285 336.6266,202.2026 336.7479,202.4941 336.9478,202.6847 337.227,202.8029 337.5548,202.7347 338.1758,201.7278 338.7235,201.5588 339.0968,201.6793 339.2787,201.9431 339.3731,202.375 339.5302,203.0902 340.1848,204.2002 340.0227,204.8513 339.7561,205.2639 339.4404,205.404 338.6471,205.3085 338.1322,205.3605 337.5179,205.8336 336.8348,206.8562 335.0663,208.5763 334.7811,209.0679 334.4356,211.071 334.3068,211.4037 334.0071,211.7625 332.657,212.3856 332.6092,212.5734 332.7283,212.8063 333.6223,213.8025 333.8613,214.3148 333.8572,214.7345 333.6785,215.197 333.4436,215.3981 331.791,215.4228 330.9848,215.1678 329.9633,214.5609 329.13,213.9141 328.5859,213.7616 327.852,213.7824 326.9142,214.0466 326.4758,214.2445 325.5016,214.8295 324.6635,215.6616 324.3983,215.8325 322.3583,216.4133 321.9445,217.0891 321.4395,217.5481 319.2136,218.3788 318.6487,218.9092 317.6739,220.5878 317.7005,220.8792 318.0244,221.2021 319.4357,221.754 320.0546,222.1377 320.3145,222.6498 320.3719,224.101 320.2714,224.6081 320.0139,225.1853 318.7705,226.4705 318.4582,226.5251 318.2401,226.4501 317.903,226.0977 317.5538,225.2668 317.2188,224.7264 316.7717,224.2419 316.3541,224.1211 315.4949,224.2714 313.5164,224.1768 311.7821,224.3504 309.5291,224.9433 309.2623,225.1143 309.1497,225.4613 309.1779,225.7082 309.3753,226.0007 309.6709,226.1348 309.9996,226.0515 310.6753,225.697 311.2033,225.7169 311.4974,225.8073 311.7618,225.9843 312.0356,226.465 312.1549,226.9904 312.2918,227.2527 313.3134,227.7715 313.3544,228.2223 313.024,229.5449 312.9127,229.7039 312.1325,229.8386 311.6608,230.0228 311.4715,230.252 311.2795,230.685 310.8218,231.1447 310.5536,231.2726 310.0023,231.2229 309.5959,231.3189 308.7776,231.8755 308.3557,231.9729 308.0918,231.8984 307.5119,231.0776 307.2311,230.9292 306.998,230.9559 306.7752,231.3028 306.7644,231.9702 306.6343,232.4457 306.3009,232.9229 305.4666,233.6666 304.9953,233.9225 304.8983,234.2401 305.0734,234.8564 305.0279,235.0879 304.7719,235.3028 304.0385,235.6534 303.7204,235.8997 303.6382,236.1593 303.8045,236.5257 304.2217,236.7907 304.9839,237.0025 305.1674,237.2964 305.1647,237.4852 304.9583,237.7 303.6295,238.0193 303.2988,238.2461 303.2017,238.5631 303.2576,238.9421 303.472,239.3078 304.2492,239.3283 304.7227,239.1462 305.1111,239.1808 305.3431,239.3155 305.4016,239.5037 304.9925,240.3356 304.7729,240.5654 304.4891,240.6768 302.1233,240.361 300.6065,240.6347 299.325,240.954 298.7252,241.4737 298.4072,241.9646 298.3058,242.56 298.3,242.9941 298.5496,243.5995 299.0091,244.7144 298.7202,245.379 298.3906,245.5505 297.6891,245.5404 296.7356,245.7041 295.4231,245.9788 295.0747,246.149 294.675,247.0006 294.3911,247.2361 292.7359,248.6088 292.7664,248.7961 292.9486,248.9437 294.0086,249.0709 295.1317,249.1142 295.9374,249.3838 296.4779,249.7969 297.0112,250.6019 297.3266,251.6208 297.3766,252.551 297.1671,253.0844 296.9608,253.2849 296.5844,253.4692 296.147,253.5228 295.5879,253.4139 295.3415,253.1357 294.9711,251.7089 294.5092,251.2544 294.0279,251.1327 293.776,251.2169 293.5684,251.6341 293.4801,252.3673 293.5007,253.2235 293.6495,253.6896 294.1287,254.0867 295.4438,254.7843 296.6654,255.5965 296.8773,256.0197 296.9472,256.6728 296.7847,257.0471 296.5973,257.1773 296.1919,257.1291 295.677,256.7457 294.8103,256.3153 294.2195,256.149 291.1627,256.1286 290.6658,256.0048 290.4355,255.7688 290.4682,255.4813 291.0268,254.6091 291.0888,253.6812 290.925,252.9683 290.4987,252.2389 289.7429,251.577 288.6611,250.8096 287.3298,250.0817 285.8529,249.5439 284.6222,249.3402 282.9301,248.8576 281.1331,247.9937 280.7423,247.9727 280.4928,248.0582 279.6896,248.7015 278.8905,248.9393 278.2263,248.9899 277.2625,248.8763 276.8552,249.0174 276.6643,249.2617 275.6027,251.6734 275.2664,252.2633 274.9829,252.4902 274.7967,252.461 274.5354,252.2393 274.3518,251.8665 274.1641,251.6362 273.8624,251.266 273.4443,251.0289 272.8537,250.8337 272.1288,250.2586 271.7911,249.8631 271.5788,249.3523 271.5359,249.1046 271.6663,248.8314 272.7563,247.8429 272.9459,247.5413 272.9801,247.1769 273.153,246.8244 272.9195,246.4013 272.3885,246.3456 271.4376,245.8893 270.7775,245.5601 270.2761,245.2823 269.691,245.3001 269.1644,246.8763 268.7324,247.3658 267.9548,247.8511 267.0729,248.1869 265.3451,248.1665 264.5204,248.2062 263.8848,248.0256 263.227,247.5233 261.8224,249.1341 259.6309,251.6471 259.6051,251.6767 256.3054,255.4607 254.9333,256.2826 254.8864,256.3107 250.416,258.988 246.9359,261.0723 246.095,262.7523 245.0982,263.6946 244.5805,264.2177 241.8525,266.9372 241.8376,266.9521 241.7164,266.3465 241.1109,264.8758 240.8525,264.6792 240.7129,264.573 240.5516,264.0223" stroke="black" /><polygon fill="none" points="201.3873,382.2312 200.91,383.056 200.5499,383.2954 200.4508,383.4568 199.8456,383.9514 199.6041,384.5989 199.2843,384.929 199.1651,385.3818 198.8065,385.9741 198.7581,386.2925 198.2939,387.1146 198.3505,387.8166 198.2875,388.0618 198.0518,388.2269 197.9302,388.5708 197.7606,388.6915 197.3853,388.8002 196.9219,389.0879 196.8253,389.2219 196.8485,389.8163 196.7871,389.9854 196.4988,390.2934 196.2635,390.4349 196.1904,390.9717 195.8711,391.3564 195.7348,391.749 195.0585,391.9626 194.8876,392.272 194.8458,392.6583 194.5888,392.7548 194.4232,393.0912 194.2015,393.2723 193.9362,393.3186 193.8448,393.3343 192.7391,393.5264 192.7023,393.9038 192.6109,394.0326 192.2027,394.061 192.0012,394.4722 191.3746,394.8372 190.8992,395.4574 190.6852,395.6059 190.3324,395.7144 190.024,396.4228 189.5127,396.5655 189.0577,396.4984 188.7001,396.6508 187.8839,396.5735 187.6112,396.637 187.3009,396.8649 186.6613,397.7562 186.2666,397.8063 185.7071,397.611 185.6096,397.3576 185.5936,396.8426 185.4779,396.7529 184.9608,396.7953 184.1537,396.5605 183.6196,396.6818 182.1198,397.7947 181.5357,397.8486 180.4698,398.46 180.1783,398.4898 179.7072,398.3207 178.8755,398.3516 178.5639,398.2603 178.3332,398.0946 177.6809,397.2325 177.49,396.3325 177.1211,396.0916 176.399,396.0776 175.6479,396.2564 175.1731,396.2905 174.8449,396.4094 173.9013,396.9802 173.5771,397.2862 173.3068,397.6745 173.0824,398.6483 172.9755,400.0238 172.781,400.6814 172.5166,400.7258 172.194,400.4026 172.0305,400.4132 171.8911,400.5763 171.9437,401.2649 171.8777,401.4808 171.393,402.1186 171.3093,402.8626 171.2339,403.015 170.851,403.3759 170.7824,403.8645 170.9945,404.3546 170.9421,404.5169 170.7668,404.6163 170.4381,404.619 169.7608,404.4616 169.4257,404.4912 168.9559,404.8242 168.7705,405.6156 168.6445,405.7846 168.2643,405.8124 167.8916,405.2991 167.7269,405.1469 167.2414,404.9239 167.054,404.691 166.1276,404.7266 165.7139,404.6469 164.942,404.3387 164.7124,404.025 164.376,404.0137 163.9946,404.2188 163.8264,404.2289 163.6321,404.0443 163.5445,403.6643 163.2439,403.6535 162.1196,404.1876 161.241,404.3689 160.6851,404.753 160.1498,404.9425 159.8895,405.2995 159.7794,405.3516 159.5677,405.3305 159.2136,405.1542 158.381,405.2597 158.0384,405.1266 157.8372,404.4186 157.307,403.9414 157.0423,403.084 156.3913,402.2282 156.2006,402.1776 155.2091,402.2619 155.0189,402.1904 154.8497,402.0383 154.6989,401.9029 154.4792,401.7079 154.1662,401.6037 153.8907,401.599 153.0051,402.056 152.2967,402.1446 151.7286,402.3634 150.9076,402.9777 150.6194,403.1048 150.1023,403.0238 149.9691,402.8795 149.8416,402.5256 150.1823,402.1738 150.5892,401.4705 150.707,401.0938 150.7971,399.95 151.0295,399.3159 152.0924,397.9645 152.2775,397.5484 152.3581,397.3667 152.9561,396.0206 153.7508,394.9003 154.3223,394.395 155.464,393.7283 156.4506,393.4556 157.2352,393.0768 158.2356,392.1686 159.1187,390.9821 159.7532,390.3873 159.7287,387.417 159.5571,386.8497 159.0782,386.3072 158.7981,385.8543 158.625,384.9321 158.4087,384.4334 157.6579,383.6615 156.8879,382.7097 155.8657,382.1948 155.4773,381.9051 155.1045,381.4161 154.5735,380.9195 154.4702,380.7251 154.4456,380.6789 154.1975,379.9636 154.2268,379.3569 154.3733,378.9022 154.8031,378.1448 154.9934,377.1237 155.2776,376.5785 155.3157,376.1607 155.1125,374.8107 155.086,373.3419 155.0106,373.0015 154.2237,371.6163 153.9616,370.4841 153.8361,370.2441 153.121,369.655 152.324,369.2903 151.8674,368.8479 151.2689,368.4281 150.9951,367.9743 150.3759,367.2347 150.0812,366.6727 150.0495,366.1661 150.1905,365.1988 149.8719,364.4549 149.8404,363.845 149.9167,363.2585 150.2161,362.4436 150.3482,361.6854 151.0094,361.0027 151.2003,360.6122 151.1985,359.3855 150.5883,358.6376 148.8924,357.0036 148.326,356.7245 147.7769,356.3269 146.49,356.0463 145.5634,355.728 145.211,355.3629 144.5913,355.0293 144.2887,354.6807 143.9255,354.4889 143.7756,354.2873 143.6528,353.7136 143.3927,353.3768 143.3361,352.8211 142.6795,352.0766 142.5654,351.8304 142.5119,351.3836 142.3944,351.2544 141.5482,350.9585 140.9211,350.4774 140.4479,350.2272 140.2058,349.9858 140.1381,349.7505 140.0564,349.4692 140.2033,348.4937 140.0471,347.9343 139.7765,347.4961 139.2149,347.0789 138.7473,346.926 138.2145,346.5578 137.4215,346.251 136.9199,345.6841 136.5195,344.9946 135.6886,344.0243 135.4039,343.3657 135.1758,341.9887 135.2822,341.2897 135.7683,340.4927 136.1858,340.0946 136.497,339.6393 136.9708,338.3622 137.537,337.335 137.7794,336.3425 137.8857,334.599 137.7949,333.2032 137.2785,330.8628 136.765,329.7907 135.821,328.28 135.1355,327.4025 134.2107,326.6155 133.3567,326.1125 131.3377,325.1921 129.7367,324.6471 128.9735,324.5455 127.6522,324.6069 125.0856,325.2436 124.628,325.5056 123.6983,326.0381 122.585,326.4084 120.8035,326.3236 119.7688,326.6511 118.833,326.5783 118.078,326.2661 117.2638,325.5467 115.5126,323.3405 114.0335,321.9478 113.5319,322.061 112.4221,322.1275 112.1574,322.0352 111.5787,321.8334 111.12,321.5752 109.7654,320.5767 108.0325,319.171 107.4763,318.8644 107.3497,318.7947 105.703,317.886 104.8146,317.7343 103.9417,317.9242 102.998,318.5182 102.1767,319.701 101.2605,322.6197 100.8042,323.3006 99.6111,324.5372 97.634,325.8465 96.0223,326.0677 92.6262,326.2253 89.8579,326.0241 88.2657,324.9916 86.6357,323.4327 85.3,322.3879 84.95,322.0339 85.2433,321.9333 86.1657,321.816 87.3546,321.026 88.2825,320.7377 89.0586,320.6453 89.4659,320.4208 89.4865,320.4094 89.6098,320.3414 91.2629,318.4024 91.6297,317.6378 91.9994,317.1357 92.3173,316.5296 92.5716,315.5804 92.7668,315.2392 93.8003,314.1838 94.4265,313.264 94.6084,313.0783 95.7126,312.4002 96.0859,311.9546 96.4138,311.3782 97.0073,310.8788 97.4664,310.0041 97.7165,309.1268 97.9873,308.7293 98.258,308.3319 99.4082,306.0123 100.0013,303.6109 100.0435,302.5418 100.0455,302.4922 100.0472,302.4492 100.0484,302.4185 100.0503,302.3709 100.0748,301.7512 100.0755,301.7332 100.0784,301.659 100.0791,301.6424 100.0804,301.61 100.0829,301.546 100.1116,300.8193 100.1189,300.6362 100.1191,300.6291 100.1193,300.6248 100.1572,299.6671 100.1636,299.5047 100.1642,299.4895 100.1647,299.4763 100.1653,299.4616 100.1664,299.4345 100.3772,294.1016 100.5368,291.7918 100.8665,291.127 101.442,290.4225 101.8155,289.6239 102.5871,288.7568 102.7894,288.4354 103.4979,286.5787 104.0693,285.7761 104.3552,285.0594 105.3964,283.5545 105.5407,282.5167 105.5474,281.6182 105.4674,280.8195 105.1126,279.5043 105.0944,278.7927 105.5276,277.7878 105.9581,276.1388 105.9805,276.0532 105.9853,276.0345 105.99,276.0168 105.9996,275.98 106.0359,275.8406 106.3833,275.1895 106.7084,274.7216 107.0334,274.2537 107.9757,273.7301 109.087,272.9835 112.3541,272.6397 113.3555,272.6668 113.8348,272.5941 116.3162,271.9212 117.0953,270.9433 117.7981,270.6666 118.9862,269.7007 120.7891,268.2337 121.0452,267.9043 121.4748,266.8773 121.5517,266.7944 122.0349,266.2738 122.5049,266.03 122.9109,265.4819 122.9942,265.05 123.7555,263.2313 123.9493,262.0364 124.1092,261.5059 124.1784,260.5229 123.9559,258.591 123.1122,257.4984 122.979,257.0987 122.9464,256.2227 122.5029,255.6877 122.1083,254.9784 122.112,254.3168 122.344,253.4869 122.7083,252.6937 123.1158,251.4883 123.3398,249.9478 123.9195,248.3822 123.9873,247.9338 123.864,247.5136 123.8688,247.1719 124.6016,246.249 125.0014,245.5634 125.2457,244.6053 125.4949,244.2611 125.6347,243.6224 125.9065,242.9056 125.8904,242.4091 126.2904,241.773 126.3239,241.5097 126.1574,240.9385 126.2051,240.2729 126.1433,239.8257 126.2034,239.3783 127.3072,236.5959 128.1695,234.0146 128.1009,233.1179 128.6292,232.5028 128.7407,232.1839 128.6387,231.3789 128.6788,230.7481 128.491,229.9683 128.8775,229.2316 129.1474,228.446 128.9503,227.3044 129.0389,225.4762 129.2344,224.7247 129.0464,223.4535 129.0553,222.8663 128.9146,222.1097 128.9364,221.4544 128.9788,221.2916 129.0211,221.1287 129.2389,220.7478 130.1477,219.7931 130.9592,218.6617 131.9859,217.849 132.6092,217.118 133.8141,216.2203 133.7937,215.5583 133.6821,215.2796 133.5561,215.0095 133.1876,214.683 132.7821,213.8601 132.6074,212.592 131.9791,211.6724 131.7426,211.1286 131.7085,210.3933 131.799,209.9181 132.1447,209.1759 132.092,208.6918 131.7248,208.203 131.1411,207.9961 130.8635,207.812 130.7217,207.6128 130.502,206.9679 129.8434,206.5331 129.7016,206.334 129.147,205.1781 128.9783,203.6528 128.8216,203.4342 128.4206,203.1083 127.709,202.7317 126.3251,202.2832 125.9045,202.0463 125.3166,201.5196 125.1408,201.4166 124.9149,201.3989 124.4443,201.5781 123.6205,202.5241 122.3189,203.3154 120.8882,203.7874 120.7446,203.8348 120.8102,203.6408 126.7038,186.2149 127.0762,186.4502 128.2813,187.5211 131.7872,190.1689 133.6719,191.2547 134.6312,191.7169 136.1497,192.1424 137.0587,192.2308 137.8162,192.2208 138.6179,192.115 139.9526,191.7914 140.7503,191.4971 141.7205,190.7851 143.0693,189.5735 143.5577,189.2392 144.4263,188.8092 147.0166,188.6818 149.298,187.9713 149.9822,188.0326 153.8297,189.442 154.8175,189.491 156.1991,189.3625 157.8996,189.5949 158.3648,189.7602 158.7968,190.0696 159.2554,190.5235 159.7411,190.8342 160.0973,190.9467 160.4242,190.9522 161.8661,190.5069 162.1163,190.4833 162.504,190.5249 163.5848,191.1028 164.2911,191.2492 164.6367,191.1161 165.7171,190.08 166.3686,189.7186 166.6572,189.6869 166.9517,189.8056 167.1339,190.0675 167.1148,190.275 166.9304,190.4988 165.9187,191.1223 165.6958,191.3965 165.459,192.1104 165.4926,192.4583 165.6357,192.8224 165.9048,193.0067 166.2941,193.0331 167.1517,192.48 167.5782,192.3972 167.9427,192.5036 168.2356,192.7752 168.3078,193.1035 168.1519,194.146 168.2439,194.8717 168.4133,195.0624 169.9654,195.6152 170.2188,195.8576 170.3548,196.1265 170.3089,196.5905 170.1584,196.683 169.8796,196.6935 168.6546,196.3233 168.2039,196.3246 167.6086,196.4763 167.1277,196.9925 166.6698,198.5164 166.7056,199.3743 166.9754,200.007 167.1522,200.1601 167.4791,200.1655 168.1505,200.0005 168.4294,200.0539 169.1339,200.8459 169.7871,201.4492 170.9411,201.9351 171.102,202.0666 171.206,202.3003 171.172,202.5973 170.6725,203.7363 170.5962,204.1664 170.6885,204.8196 170.8395,205.1539 171.0389,205.2946 171.2737,205.334 171.5923,205.2659 172.3216,204.9069 172.555,204.8574 174.4174,205.0611 174.87,204.8789 175.0837,204.6065 175.1038,204.3252 174.3476,202.6696 174.2635,202.1976 174.3864,201.1471 174.5585,200.5695 174.9972,199.9079 175.4461,199.4655 175.8364,199.3096 176.3501,199.2955 176.7469,199.3797 177.1013,199.6092 177.3763,199.9883 177.5862,200.5712 177.9341,202.595 178.2092,203.3795 178.5539,203.8482 180.4509,205.2885 180.8248,205.4109 181.8208,205.4658 182.1625,205.5487 182.4614,205.7691 182.5358,206.032 182.5151,206.4088 182.401,206.7329 182.0908,207.2325 181.229,208.1554 180.8255,209.0859 180.8484,209.6831 180.9845,209.9836 181.2233,210.1821 181.4872,210.2282 182.6665,209.946 183.2417,209.9027 183.6389,209.994 184.0245,210.179 184.2389,210.479 184.3909,211.3433 184.2862,212.0121 184.1407,212.2995 182.0168,213.897 181.2446,214.6854 180.7983,215.3968 180.6037,215.8513 180.5997,216.2052 180.7146,216.3451 181.6404,216.3915 182.1072,216.4921 182.6221,216.7806 183.0135,217.2344 183.2947,217.9225 183.4473,218.8162 183.4881,220.5906 183.6027,221.3303 183.919,221.9573 184.4593,222.4563 184.9053,222.5771 184.9077,222.5777 186.3291,222.2764 186.8579,222.3118 187.5231,222.6699 187.5244,222.671 187.7932,222.8834 187.9545,223.0109 188.062,223.0959 188.07,223.1121 188.1057,223.185 188.1978,223.3727 188.3302,224.9609 188.5045,225.7898 188.7305,226.4437 189.0501,227.0139 189.6137,227.7744 190.717,229.0663 190.8513,229.5311 190.8439,230.096 190.7703,230.3696 190.5125,231.3275 190.4979,231.382 190.4595,231.9166 190.5778,232.3247 190.7913,232.801 191.3932,234.144 191.7279,234.735 192.4025,235.3798 192.4104,235.3873 192.4207,235.3972 192.4758,235.4499 192.4824,235.4562 192.487,235.4606 192.4988,235.4719 192.5111,235.4836 192.6064,235.2214 193.2899,235.7491 193.7113,236.0263 194.7418,236.4593 195.3503,236.6647 195.347,237.2953 195.8067,237.9182 196.5595,239.2287 197.8972,241.8747 198.7982,243.2297 199.2428,243.7658 201.1536,245.4725 203.8752,247.5574 205.3678,248.232 207.3362,248.967 212.1342,248.991 213.6467,248.9578 217.4242,248.9497 217.4268,248.9497 218.3115,249.2515 218.6195,249.5251 218.8678,249.9082 219.2956,251.0151 219.6158,251.4991 220.6047,252.4039 221.3768,252.9365 222.4609,253.434 224.472,254.6274 224.9846,254.9689 225.484,255.4185 225.8826,255.9013 226.2708,256.6398 226.3948,257.1264 226.6722,259.1408 227.066,259.9579 227.3414,260.2444 228.411,260.7016 230.0004,260.858 230.6058,260.9939 232.5072,261.5193 232.5168,261.5219 232.9979,261.3377 233.0537,261.3163 233.0663,261.3548 233.138,261.5773 233.1566,261.635 233.2629,261.8933 233.5523,262.5752 233.9575,262.6357 233.9623,262.6817 234.011,263.3925 234.1063,263.687 234.1222,263.736 234.2651,263.7954 235.3047,264.216 235.343,264.2315 235.3737,264.2439 235.1805,264.6637 235.1687,264.6893 235.1573,264.7141 235.2089,264.7349 236.0123,265.0585 236.0851,265.1469 236.8079,265.4743 237.3527,265.6188 238.0588,265.9155 238.2643,266.0795 238.54,265.3149 238.6506,265.1559 238.6873,264.8842 238.7266,264.7618 239.3419,264.6097 239.4871,264.5199 240.0817,264.347 240.5516,264.0223 240.7129,264.573 240.8525,264.6792 241.1109,264.8758 241.7164,266.3465 241.8376,266.9521 241.8525,266.9372 244.5805,264.2177 245.0982,263.6946 246.095,262.7523 246.9359,261.0723 250.416,258.988 254.8864,256.3107 254.9333,256.2826 256.3054,255.4607 259.6051,251.6767 259.6309,251.6471 261.8224,249.1341 263.227,247.5233 263.8848,248.0256 264.5204,248.2062 265.3451,248.1665 267.0729,248.1869 267.9548,247.8511 268.7324,247.3658 269.1644,246.8763 269.691,245.3001 270.2761,245.2823 270.7775,245.5601 271.4376,245.8893 272.3885,246.3456 272.9195,246.4013 273.153,246.8244 272.9801,247.1769 272.9459,247.5413 272.7563,247.8429 271.6663,248.8314 271.5359,249.1046 271.5788,249.3523 271.7911,249.8631 272.1288,250.2586 272.8537,250.8337 273.4443,251.0289 273.8624,251.266 274.1641,251.6362 274.3518,251.8665 274.5354,252.2393 274.7967,252.461 274.9829,252.4902 275.2664,252.2633 275.6027,251.6734 276.6643,249.2617 276.8552,249.0174 277.2625,248.8763 278.2263,248.9899 278.8905,248.9393 279.6896,248.7015 280.4928,248.0582 280.7423,247.9727 281.1331,247.9937 282.9301,248.8576 284.6222,249.3402 285.8529,249.5439 287.3298,250.0817 288.6611,250.8096 289.7429,251.577 290.4987,252.2389 290.925,252.9683 291.0888,253.6812 291.0268,254.6091 290.4682,255.4813 290.4355,255.7688 290.6658,256.0048 291.1627,256.1286 294.2195,256.149 294.8103,256.3153 295.677,256.7457 295.8561,257.1065 296.8122,258.2659 297.2536,258.5614 298.2493,259.0549 299.1018,259.8122 299.4404,260.2076 300.0208,261.5046 300.338,261.9225 300.8254,262.0847 301.0514,262.026 302.2156,261.3668 302.8851,261.2055 303.5917,261.3294 304.0182,261.5308 304.258,261.7706 304.384,262.1531 304.4656,263.1693 304.5697,263.5033 305.0168,264.0595 305.1924,264.5632 304.8939,266.1139 305.1051,266.748 305.0861,267.5126 305.2381,268.7646 305.0988,269.9225 304.6272,270.7801 303.6755,271.6753 303.1534,272.4864 302.6188,273.0836 302.0561,273.421 301.4178,273.9511 301.2378,274.1799 301.0592,274.7084 300.9148,275.6177 300.3905,276.5673 300.3425,276.8727 300.5114,277.7432 301.3928,278.2287 301.915,278.3572 302.475,278.6008 302.8837,278.8647 303.3226,279.3518 303.8638,280.4095 303.9442,281.5506 303.5128,282.7974 302.0757,284.8127 300.3789,286.3846 298.6296,287.1521 298.5988,287.1656 298.3663,287.2676 297.2821,288.127 296.911,288.5837 296.5523,289.5992 296.583,291.1348 296.6977,292.415 296.8308,292.8445 297.541,294.29 298.6314,295.7568 299.4948,296.6592 300.6771,298.2826 302.1182,301.4782 302.1836,302.4786 301.8662,303.2829 301.2899,303.9925 300.8913,304.3069 300.2382,304.5507 298.4192,304.8372 297.7449,305.0468 296.8379,305.5937 295.6949,306.7197 294.5945,308.0231 285.7134,318.5403 286.1717,318.7074 286.5225,319.3519 287.273,319.4 287.5339,319.5334 288.142,319.6531 288.286,319.7644 288.5157,320.7584 288.4463,321.3732 288.6438,321.982 288.8593,322.3219 289.0485,323.3887 289.6007,324.1419 290.4184,324.1368 290.9183,323.932 291.1005,323.9405 291.2004,324.0853 291.2136,324.2819 291.6416,324.4625 291.6742,324.7494 291.9128,324.9189 292.1496,325.2478 292.541,325.4429 292.7049,326.2877 292.6554,326.8364 292.8999,327.6332 291.9502,329.5906 291.6168,330.1309 291.0243,330.6961 291.0072,330.7124 290.9902,330.7286 290.7577,330.9504 290.465,331.4969 290.1792,332.6483 290.151,333.1574 290.5157,333.5921 292.108,335.0157 294.8686,336.1531 295.2309,336.3689 298.6622,340.1038 299.6752,341.429 300.08,342.3034 300.1769,343.2494 300.0244,345.3259 300.0267,347.3462 300.3242,348.0216 300.8048,348.6323 301.9292,349.7353 302.2532,350.1865 302.5508,350.7737 302.7569,351.2896 303.1409,353.6731 303.0322,354.2021 302.8443,354.5798 301.5724,356.3613 299.8805,357.6658 298.3758,358.9563 297.4521,359.8956 297.2487,360.6383 297.1514,361.9751 297.3207,363.5103 297.4594,364.0758 298.3664,366.1868 298.4639,366.5547 298.4601,366.8877 298.1714,368.1913 297.8927,368.7989 296.7755,370.5373 296.7164,370.6293 296.1273,371.8315 295.7918,372.5161 295.4341,374.7422 295.4158,375.5162 295.4616,376.4494 295.9898,380.0882 296.325,380.7999 296.5541,381.053 297.5245,381.6629 297.7397,381.9626 297.8222,382.2953 297.6833,382.8572 297.3611,383.39 296.9101,383.7778 296.47,384.0166 296.0731,384.1259 294.2106,383.8056 293.1545,383.7947 292.2564,383.6822 291.5507,383.5325 289.971,382.9214 289.0695,382.6527 287.327,382.3686 285.698,382.3692 284.7451,382.5194 283.8921,382.8151 283.3332,383.1144 282.8306,383.5431 282.3989,384.095 281.6136,385.6285 280.9195,387.2749 279.7269,389.6396 279.0985,390.6441 278.2452,391.8392 275.6525,395.0027 274.9799,395.6189 273.0337,397.0957 273.0168,397.1085 271.3351,398.3847 270.6221,398.8341 268.4813,399.9695 267.7513,400.4964 267.2029,401.095 266.4267,402.7657 265.9592,403.35 265.1971,403.9787 264.3065,404.2875 259.1008,406.6122 257.8431,406.8415 256.6467,406.7211 256.1253,406.4685 255.9259,406.0053 255.9309,405.6794 256.588,404.6838 256.9223,403.6851 257.0251,402.6269 256.9185,401.8383 256.6885,401.2803 255.6613,399.8198 254.9291,398.9409 254.0207,398.0224 253.1104,397.2489 251.0027,396.2099 249.7083,395.8276 248.293,395.6348 246.8323,395.6183 245.5451,395.846 242.4616,396.7288 239.9585,398.1105 239.1855,398.9698 238.9388,399.997 238.9265,400.8661 236.6905,403.0646 232.9155,403.5628 232.3272,403.9622 231.7422,403.8471 231.693,403.2489 231.8036,401.595 231.7595,400.6716 231.5666,399.9083 231.3938,399.5536 230.9142,399.2036 230.5575,398.0945 230.406,397.9447 230.299,397.6911 230.2801,397.0464 229.889,395.7501 229.3115,395.0364 228.572,393.6441 228.1449,393.0279 227.3239,392.3686 226.6867,392.0986 225.8922,391.5938 225.7554,391.4413 224.3018,388.6353 223.9452,388.1502 223.5782,387.4954 222.9982,387.0989 222.396,386.8566 221.2226,387.2823 220.1114,387.9131 219.9133,387.992 219.6505,387.9891 217.759,386.769 216.3755,386.2576 214.7827,385.8859 214.3061,385.5006 214.0571,385.0824 213.4229,384.2434 212.6679,383.5233 211.5708,382.9967 210.0282,382.4462 208.4871,382.2541 207.8049,382.0294 206.2229,381.5374 205.2334,381.3515 203.8979,381.286 203.1285,381.5001 202.5982,381.7713 202.2398,381.8148 201.3873,382.2312" stroke="black" /><polygon fill="none" points="221.9853,182.7526 220.6625,182.7291 220.5957,182.7279 220.5474,182.727 219.0036,182.6996 218.4973,182.6905 218.4416,182.6895 218.1058,182.6835 218.0431,182.6823 217.9442,182.6806 217.8994,182.6798 217.3534,180.522 216.3037,176.739 215.3894,173.6702 214.2846,169.962 213.8013,168.3373 213.6906,167.3063 214.34,165.1458 214.366,164.8719 214.4269,164.2298 214.5282,163.1623 214.4617,162.3926 214.3906,162.0578 214.3275,161.7607 214.2422,161.3591 213.6892,159.4254 213.4444,158.5691 213.3366,158.192 213.3266,158.1571 213.0833,157.306 211.5218,151.0049 211.4002,147.2005 211.5055,146.3769 211.3382,142.41 211.1014,136.7982 210.9569,133.3726 210.8798,131.5434 210.7868,129.7521 210.6169,126.4769 210.5103,125.8871 210.4837,125.7401 210.4795,125.7168 209.8279,122.1117 209.4752,120.1605 208.7819,117.3662 208.6,116.4621 208.5871,116.3979 206.5859,106.4511 207.7265,105.8808 208.6733,105.6831 209.2831,105.7065 211.095,106.0113 211.1448,106.0197 211.1759,106.0249 212.3555,106.3746 213.6308,106.6369 214.1964,106.7231 215.284,106.7224 215.7902,106.6268 216.2838,106.4219 217.5254,105.6385 218.1674,105.4072 219.2915,105.1445 220.5609,105.1029 223.2338,105.3001 224.3948,105.2925 226.2071,105.0238 226.865,104.7703 227.2038,104.4782 227.7514,103.7395 228.4761,103.1037 229.4704,102.0288 229.7007,101.8288 230.3645,101.5542 231.2415,100.475 231.4389,99.6345 230.9273,98.3532 230.4667,97.8243 229.7236,97.352 229.5132,96.9422 229.7104,96.1605 230.3099,95.733 232.7205,94.5362 232.9798,94.4692 233.2531,94.3985 234.6017,94.362 235.2986,94.053 236.2397,93.4653 236.6985,93.3408 236.9086,93.3863 238.1297,94.0402 238.511,94.1608 240.2711,94.3705 241.7405,94.6873 242.4722,94.7311 243.6138,94.6496 244.1582,94.685 245.4663,94.2434 245.9964,94.1331 246.9329,94.0726 248.1269,93.6295 249.0789,93.3998 249.3923,93.4042 250.1293,93.6306 251.6191,94.3826 252.9105,95.6458 253.5724,96.1043 254.6006,97.0647 254.9079,97.4101 254.9961,97.8682 255.4377,98.5864 256.7342,100.0552 258.1705,101.3896 259.296,102.7389 260.0497,103.927 261.0128,104.8379 261.4202,105.6924 261.9119,106.3561 262.0904,107.1136 261.7669,109.1079 261.7031,111.532 261.3783,112.9311 261.354,113.6938 261.8207,114.3543 262.5198,115.7011 262.8417,117.1166 263.2999,117.9151 263.3356,118.6839 263.7962,118.5922 263.8551,118.6095 263.9749,118.6447 264.3967,119.1357 264.9503,119.1211 266.4257,118.4109 266.7559,118.1492 267.9278,117.4652 269.3466,116.6165 269.6732,116.0269 269.3062,115.6764 269.2823,114.6739 269.9308,113.6685 271.2426,111.8912 271.9072,110.7961 272.4727,110.418 272.8417,110.2787 273.1534,110.296 274.6939,110.6617 275.2582,110.6128 275.7766,110.4089 273.4501,143.0391 273.1342,143.4774 272.6455,143.9354 271.6364,144.6985 270.8213,145.5723 269.3072,146.2104 268.1563,147.2695 267.9971,147.5719 267.8348,148.5335 267.1903,150.1724 267.2179,150.8863 267.0548,151.48 266.5911,151.8953 266.2262,152.4541 265.8311,152.832 265.4881,153.4866 264.7565,154.4788 264.4745,154.7155 263.5714,155.0179 263.4275,155.1324 263.2783,155.3555 263.203,155.7382 262.7777,156.6825 262.5963,156.8697 261.9701,157.0941 261.4955,157.6483 260.4989,158.218 259.5805,158.1695 259.034,158.3309 258.671,159.1894 258.2758,159.6261 256.2905,159.8176 255.7414,160.0494 255.0164,160.7607 254.6397,160.9951 254.3081,161.31 254.2553,161.9384 254.1438,162.0659 253.4166,162.3635 244.9153,169.2323 236.4668,176.0587 236.4295,176.0888 228.0475,182.8613 221.9853,182.7526" stroke="black" /></svg>