<?xml version="1.0" encoding="utf-8" ?>
<svg baseProfile="tiny" height="443.2458" version="1.2" width="500" xmlns="http://www.w3.org/2000/svg" xmlns:ev="http://www.w3.org/2001/xml-events" xmlns:xlink="http://www.w3.org/1999/xlink"><defs /><polygon fill="none" points="64.5099,47.0716 64.6552,44.444 64.5249,43.7914 64.0469,42.5729 63.8984,42.1944 63.7125,41.4147 63.7321,40.8203 63.7615,39.8767 64.0979,39.4112 64.2434,38.7649 65.2087,38.4585 65.7582,37.7641 66.5389,37.3694 67.7079,36.3128 68.5109,35.9683 68.97,35.0125 69.8407,34.1822 71.1062,32.4172 71.5844,31.9863 71.5748,31.3805 71.8333,30.69 72.8768,29.5086 73.0532,28.7742 72.9241,27.4326 73.2313,27.095 72.7984,26.3032 73.4666,24.2637 72.9767,23.2807 74.0279,20.9227 74.1949,19.0106 74.1777,17.5396 74.0232,16.7881 74.0232,16.781 73.992,13.688 74.2043,12.9058 74.429,12.4922 74.7952,12.0961 76.6308,10.697 78.3428,8.6698 78.5715,8.5831 79.7233,8.7256 80.5399,8.581 81.205,9.1143 82.3455,9.239 82.6351,9.5358 83.0132,11.0565 83.2532,11.6289 84.0183,12.6788 85.4175,14.1069 87.2536,15.3082 89.2401,16.2033 90.1081,16.4754 93.5499,16.9985 94.2715,16.9299 94.8641,16.6809 95.3306,16.2971 96.3951,15.0237 97.5258,14.2907 98.7472,13.2131 100.4848,11.1456 100.8993,10.2738 101.3423,9.6716 101.4597,8.9326 102.5395,7.7155 103.2543,5.9278 103.9973,4.5437 104.7772,3.4519 105.6964,3.4378 107.663,1.6443 108.0757,0.8894 108.2125,0.0 109.0252,0.555 109.9993,1.7544 111.0511,2.5603 111.2965,2.8063 111.9001,3.4119 114.4435,5.0909 115.6356,6.2275 116.2375,7.4103 116.5406,8.6091 116.6391,9.4289 116.9836,10.2098 118.305,12.3653 119.2653,13.5275 120.5475,16.2669 122.6337,21.1883 122.7256,22.2549 122.6556,22.7476 121.9988,24.9607 121.9428,25.4603 122.0405,26.0984 122.7437,27.4259 123.1211,27.8187 123.1642,27.8637 123.8018,28.5274 124.4118,28.9134 125.3187,28.72 127.1327,28.1286 127.9752,27.9683 131.1368,28.0754 133.6524,27.9894 136.5883,27.5482 137.2172,27.54 137.8732,27.8432 138.3653,27.8923 139.0596,28.1221 139.2907,28.3396 139.3242,28.3713 139.3593,28.4043 139.5999,28.6309 139.7271,29.1638 139.9115,31.1993 140.5369,32.5338 140.6953,33.1151 141.0983,35.8239 141.5021,36.9344 142.1132,37.8784 142.5819,38.4342 143.2286,38.9085 144.845,39.222 145.5834,39.4485 147.407,40.3399 148.6105,41.1588 149.1165,41.6111 149.5919,42.2443 151.1779,43.5871 151.4109,43.9368 151.5482,44.2877 151.5724,45.7683 152.3169,48.099 152.5275,50.2806 152.3076,51.243 151.7417,52.5098 150.7976,53.5805 149.1902,54.6871 146.7656,55.7642 144.1388,56.6158 143.493,57.127 141.8569,59.2505 141.7454,59.3953 141.5389,59.6633 135.4036,67.6282 132.1599,71.6981 129.7665,75.0465 128.4228,76.4916 127.4539,77.2406 126.7583,77.9159 126.0142,79.0048 125.7797,79.6553 125.4901,81.2566 125.3415,83.4178 125.4001,87.5956 125.3098,88.9749 125.1271,90.2878 124.7767,91.7541 124.4794,92.7226 123.611,94.7955 121.7868,97.9019 121.2907,99.0285 120.569,100.3276 120.0664,101.7293 119.7626,102.9739 119.0129,104.8439 118.6326,107.0427 118.0284,108.2102 117.4518,108.9329 116.9677,108.4796 115.7971,107.3838 114.6997,106.5055 113.5098,105.7225 112.7481,105.3486 110.7144,104.6482 109.0259,103.9103 104.4258,102.5009 101.6805,101.16 100.5314,100.8989 99.6842,100.8373 98.954,100.9209 97.1507,101.4269 94.5227,102.5155 92.1411,102.7915 91.2519,102.7851 90.7656,102.6042 90.0045,102.0046 89.4401,101.3475 88.1831,100.4093 87.6594,99.7144 87.2123,98.8637 85.8246,97.1888 84.3757,96.2758 83.3367,95.4374 82.0529,94.1639 80.7657,92.6648 79.8343,91.0411 78.4228,86.6129 77.7442,83.5178 77.0136,81.0875 76.1442,79.8738 75.6917,79.4625 75.1265,79.264 74.2768,79.3174 71.0148,80.5956 68.6308,81.2266 66.259,82.1421 64.8021,83.1812 64.1899,83.8163 62.1401,86.9422 60.4833,89.7843 58.9304,92.7666 57.7333,94.6835 56.6824,95.8019 54.9208,97.1639 54.0592,97.6196 52.4236,98.2751 51.3804,98.4187 46.4889,97.9722 43.2536,97.8415 41.9484,97.4601 42.4896,95.6032 42.5597,94.4788 43.1247,91.3475 43.6183,89.8685 43.9513,89.2241 44.253,88.9332 45.0734,88.2313 45.7121,87.5444 46.0843,87.0323 46.3833,85.5897 46.5523,85.3104 47.8941,83.9429 48.3507,83.3064 48.8337,79.5965 49.4277,78.3142 49.4861,77.4958 49.8692,76.6368 49.8715,75.8559 50.7184,74.8441 51.7179,73.3096 52.8385,72.5036 53.9812,71.237 55.4725,69.5529 56.2962,68.7389 56.7368,68.419 56.9618,67.6875 57.1107,66.3693 57.267,63.547 57.6145,60.5557 57.8432,59.3875 57.7722,58.4818 57.2192,57.7528 56.6279,56.8014 56.1846,55.8042 56.0072,55.0946 57.0277,51.4621 57.2332,51.0838 57.6423,50.8151 59.8667,50.4872 64.3629,47.8239 64.4785,47.6393 64.5099,47.0716" stroke="black" /><polygon fill="none" points="350.1878,272.419 350.0847,272.362 349.7318,272.167 349.169,271.8563 348.8046,271.4813 347.5697,269.4564 344.6983,265.5322 344.0415,264.7671 343.5386,264.3329 343.1741,264.1707 343.1148,264.1444 339.8401,263.5583 337.9704,263.5424 337.1784,263.6685 334.6662,264.4265 329.2519,266.4112 328.2157,266.6358 327.7459,266.6542 327.2374,266.558 326.803,266.3214 325.1922,264.9106 324.3894,264.321 323.84,264.0517 323.1552,263.881 322.0284,263.841 319.6684,263.9701 318.7108,263.7656 317.8916,263.4642 314.2418,261.629 313.5438,261.3966 312.4424,261.2745 311.3786,261.3145 308.4919,261.8692 306.1975,262.5866 304.8492,263.594 303.6268,264.1251 301.4765,264.6396 298.7074,265.1701 297.2731,265.1868 294.4016,264.9891 292.2379,264.7679 291.0048,264.4326 289.3948,264.3647 287.4112,264.1127 285.527,263.4073 283.4786,262.8945 282.8899,262.6227 282.5036,262.3351 280.3006,259.8767 278.7246,257.7674 278.1769,256.6925 277.686,256.3088 276.0279,255.5929 275.5979,255.1104 275.1201,254.7883 274.2804,254.6408 273.6486,254.3658 272.6687,254.2147 271.4106,253.8893 270.7912,253.8879 270.3627,254.165 269.8671,254.7148 269.0992,254.8297 268.3679,255.3899 267.5851,255.8094 267.1854,256.2254 266.5443,256.5571 265.597,257.2121 264.6774,258.0818 264.1334,258.0532 262.5673,257.6438 261.192,257.6363 259.617,257.0152 259.1239,257.0653 258.7427,257.3491 258.4994,257.3946 257.3348,256.9737 256.9086,257.0554 255.9264,257.6193 255.0849,257.8334 254.3152,257.7985 253.3322,257.567 253.6804,257.1128 254.0232,256.6657 254.0964,255.0825 254.5169,253.6896 255.8786,250.3433 257.3986,247.0905 259.7044,244.2217 260.3575,242.9947 260.624,241.9101 260.6165,241.43 260.413,240.6641 259.5129,238.7925 259.3617,238.2678 259.2627,237.4674 259.366,236.5206 259.872,235.7816 261.1054,234.6386 261.555,234.0922 262.0879,233.6747 263.2389,232.296 263.3468,231.5245 263.1799,231.0524 262.7177,230.6987 261.0826,230.0358 259.667,229.3209 259.0775,229.1778 258.6019,229.0629 257.4485,228.3119 256.7598,227.593 256.3298,226.925 255.4447,224.0474 255.3587,223.253 255.4702,222.1872 255.7265,221.1687 256.1622,219.9955 257.2656,218.0358 259.1167,215.8954 263.8222,210.9777 264.7083,209.6964 265.2181,209.2156 265.7959,208.4596 266.0306,207.7003 265.8438,205.8243 266.7799,206.0171 267.6329,205.9826 268.7867,206.6175 269.1763,206.9718 269.2488,207.899 269.4398,208.4151 269.9031,208.7989 270.8798,208.9501 271.5513,208.9353 272.614,208.7467 273.7083,208.7169 274.168,208.6196 274.5204,208.4326 275.2875,207.7342 277.3792,207.6056 279.1508,206.6055 279.8601,205.8853 280.8457,205.4719 281.5161,204.9127 282.7641,204.6769 283.3734,204.3663 284.5522,204.4222 285.5685,204.816 286.6857,205.5196 286.9508,205.5592 287.6209,205.4064 287.787,205.4456 288.5413,206.059 288.8082,206.1223 288.9867,206.1273 289.7065,205.8094 290.7316,206.0247 292.426,205.9832 294.0528,206.4579 294.4668,206.4725 294.8735,206.4243 296.3234,205.8822 296.693,205.8626 296.9005,205.9078 297.5353,206.3433 297.9629,206.8432 298.1899,206.9644 298.7196,206.9286 299.6849,206.6025 306.2133,205.9966 306.8385,205.7703 308.2192,205.035 310.2356,202.5782 311.4946,200.6314 311.8717,199.734 312.1785,198.1732 312.2934,193.4912 312.1393,190.3834 312.322,189.4486 312.908,188.7871 313.8273,188.3374 314.9877,188.1965 323.2819,188.4719 323.8143,188.5857 325.4966,189.8199 327.7244,191.9956 329.4392,193.1821 333.089,194.9597 334.5982,196.5548 335.1106,197.3221 335.4621,198.4654 336.7531,208.2769 339.0032,209.8974 340.3642,211.6325 340.954,211.9132 342.0792,212.229 342.7786,212.5562 343.2393,212.8914 346.5189,216.0287 347.5847,216.9126 348.5374,218.1426 350.8191,220.5252 352.6698,221.1279 353.5659,221.2339 357.7037,221.7233 360.5808,221.2733 361.0709,221.0761 361.8689,220.7553 363.8389,219.576 365.1491,218.5924 366.6011,216.8388 368.1601,215.7528 369.3541,215.057 370.491,214.4846 373.863,213.6352 374.664,213.3444 375.2804,212.9676 376.4156,211.8939 377.9506,209.6828 378.6385,209.0031 379.3494,208.5628 379.9507,208.3517 382.8839,208.22 383.5537,207.9317 384.5661,208.1177 385.7194,208.5253 386.3872,208.868 388.4239,210.3772 388.8978,210.5465 390.1531,210.5517 390.6995,210.6711 392.6986,211.5624 396.1867,209.9225 399.9944,209.6542 401.2918,209.3811 401.9451,209.0579 403.3125,208.3815 404.5456,207.2122 405.3562,205.8864 405.5573,205.1619 405.7563,202.6963 406.857,201.0703 407.8778,200.3875 409.0787,200.2291 410.6536,200.3192 412.2611,200.8674 413.5751,201.6273 413.8775,201.7184 414.4408,201.7167 420.1676,200.8963 421.1294,200.8883 422.4811,201.0808 424.3548,201.7449 425.6664,201.7643 432.1471,200.0259 437.2721,198.3745 439.575,198.0889 441.0112,197.7862 445.753,197.3354 447.0807,197.3149 448.5909,197.5291 449.1297,197.5272 449.8794,197.2068 498.4823,189.5496 498.4279,190.3312 498.598,193.4476 498.7564,193.8375 498.9125,193.9189 499.5939,193.9073 499.9472,194.0969 500.0,194.5407 499.9042,194.7685 499.0927,195.7788 498.6834,196.7259 497.8873,197.4069 497.6272,198.0394 497.2972,199.3325 496.5417,200.1491 496.4204,200.4006 496.2969,202.9803 496.5327,204.6822 496.5048,204.9452 496.2407,205.3523 496.2294,205.5116 496.3893,205.8393 496.3338,206.2466 496.5424,206.6895 496.3564,207.0894 496.4024,207.5114 496.2615,208.0604 496.1922,209.1583 495.4698,210.516 495.3488,211.4213 494.8949,212.3325 494.7353,213.0784 494.7403,214.7434 494.612,215.2664 494.16,215.7786 493.8502,216.5424 493.3902,217.0275 492.9215,217.343 491.778,217.6151 489.8184,217.4688 488.707,217.2138 488.2528,217.2002 486.9636,217.5047 486.2552,218.0274 482.2851,219.8983 481.9745,219.9737 480.9574,219.8981 480.7744,219.9537 480.5739,220.0884 479.8823,221.1629 479.5952,221.3855 478.2442,221.8645 477.2889,222.6368 475.9592,224.8014 475.2846,225.7338 474.9164,227.3332 474.7226,227.7105 473.6088,228.9136 473.4189,229.2424 473.379,230.3951 473.4967,231.3661 473.9989,232.4746 474.8086,234.817 474.9299,235.5076 474.8049,236.5883 475.0934,237.3444 475.1671,238.2941 474.6724,240.9834 473.9309,242.3335 472.8629,243.8062 472.2303,245.1125 470.8784,247.413 470.1001,248.9771 469.275,250.9436 468.717,251.7068 466.7474,253.6057 466.3997,253.8614 465.8076,254.0816 465.0947,254.1225 463.8007,253.8901 461.772,253.2693 460.1266,253.248 457.2062,253.902 454.4208,255.1741 453.8663,255.7034 453.2749,256.8402 452.1409,258.1864 450.7212,260.7922 449.8791,261.86 448.5251,263.0466 446.0011,263.4925 444.3357,263.6141 441.8757,264.1436 440.2848,264.1412 437.7499,263.6351 435.6956,263.4613 433.436,263.6533 431.6567,263.9942 428.646,264.2026 426.688,264.7367 426.2686,264.9409 424.8104,265.8488 422.9207,267.2543 421.7593,267.8334 420.8258,268.0733 416.8764,267.089 415.5938,267.0248 412.3329,267.0761 410.2623,267.4404 407.9609,268.3703 405.8237,269.5412 404.8909,270.3544 403.4719,271.2919 400.7126,273.6516 399.6839,274.2708 399.1684,274.4146 399.086,274.4375 399.0227,274.4552 398.8615,274.5001 398.7298,274.5369 398.1786,274.529 397.4452,274.2973 396.0362,273.6812 394.785,272.8899 390.1608,269.2981 389.7368,269.1061 386.2621,268.83 385.0217,268.6418 383.8762,268.3472 383.0953,268.0011 382.629,267.6032 382.1394,266.5058 382.0014,265.7544 381.9689,264.6899 382.0765,263.8773 382.5464,262.0699 382.5839,261.4204 382.234,260.488 381.9808,260.0747 381.7286,259.9152 380.729,260.0951 378.9282,261.047 375.0954,263.8635 371.4735,267.0892 369.7286,268.2218 368.3043,268.8012 362.7913,269.9255 361.1433,270.4731 359.9033,271.0034 359.2557,271.4415 358.6355,272.0303 357.8226,273.1625 356.923,274.0548 356.4562,274.2266 354.8746,274.3656 354.1917,274.2726 352.5002,273.6966 350.2978,272.4797 350.1878,272.419" stroke="black" /><polygon fill="none" points="459.391,367.5403 459.3754,367.5727 459.3144,367.6996 458.1771,370.0668 457.0958,371.6186 455.7809,372.921 451.8837,377.2828 449.917,380.1624 449.1818,380.9673 447.6597,382.3154 444.841,384.812 443.4685,385.9282 440.2389,388.1266 439.3923,388.7028 439.0504,388.9757 438.9386,389.0649 437.4664,390.2397 436.2472,391.4355 433.9752,393.3022 432.7152,394.3374 431.6744,395.6568 430.5673,398.2804 429.2303,399.7523 429.3587,400.6947 429.3148,401.3234 429.4663,402.0313 429.333,402.8038 429.6779,403.4649 429.7738,403.8825 429.5405,404.3351 429.2451,404.6319 429.0131,405.1667 428.6014,405.672 428.5633,406.1499 428.4185,406.4342 427.6148,407.3008 427.4894,407.6767 427.4439,408.6388 427.345,408.917 426.9582,409.31 425.9639,409.597 424.9307,409.6195 423.794,409.7807 422.232,409.804 419.6209,409.4723 417.2896,409.4679 415.1323,409.6958 414.3631,410.0206 412.7877,411.1253 412.5438,411.2135 412.2411,411.3229 411.2976,411.4318 410.2832,411.7084 409.2983,412.235 408.6245,412.9145 407.1646,414.8625 406.5328,415.987 406.3292,416.1206 406.1951,416.2085 405.2834,416.2533 404.3548,416.1179 403.5264,416.1105 402.5239,416.4149 401.8063,416.5316 400.9051,416.3696 399.7166,415.9362 399.0333,415.2756 398.3744,414.8625 396.4878,414.7158 393.7189,413.3865 391.5916,413.4068 391.1947,413.3436 390.1537,412.7444 389.808,412.6863 389.7959,412.6842 389.7582,412.6779 389.7232,412.672 389.7172,412.671 388.8925,412.5325 388.0216,412.1393 387.1936,411.0635 386.7095,410.2518 386.1802,409.0124 385.8034,408.5112 385.3945,408.4648 384.6283,408.787 384.4495,408.8621 383.4794,409.0174 383.1355,409.1797 383.1323,409.1829 382.3205,409.9899 381.6572,410.364 381.0257,411.0757 380.3784,411.231 379.9627,411.4448 379.8273,411.5145 379.7038,411.7707 379.3528,412.1137 378.6303,412.8197 378.2345,413.1166 378.1356,413.1908 377.4719,413.4543 376.8766,413.5613 375.5029,413.6088 374.5585,413.8206 372.6121,414.9796 371.2011,415.2539 370.6441,415.2371 369.226,414.7766 366.7436,415.3756 366.3479,415.3689 365.5751,415.0253 365.3294,415.04 364.7043,415.4656 364.1153,415.6828 362.5808,415.7329 362.1338,415.5681 361.5614,415.5583 361.0568,415.8264 360.3374,415.9969 360.082,416.116 358.7616,418.0088 358.0659,418.6879 357.1,419.1297 355.2811,419.1354 354.7784,419.2017 354.5121,419.3326 354.2595,419.4567 354.0706,419.7206 353.9979,420.0472 354.0994,421.0646 353.861,421.468 353.583,421.6126 353.3398,421.6162 352.5727,421.3673 352.1528,421.3933 351.4181,421.9551 348.2428,422.4549 348.0071,422.5496 347.147,423.2151 346.7599,423.3798 346.504,423.4085 345.4327,423.2355 345.0865,423.2655 344.5614,423.4848 344.4039,423.5506 344.1063,423.5688 341.4437,422.8468 340.6126,422.4913 339.8888,422.4765 339.6006,422.6076 338.72,423.4546 338.384,423.6713 337.4921,423.7726 336.8972,423.9917 336.7227,424.5272 336.3355,424.9923 335.9281,424.9868 335.6564,424.6344 335.3284,424.6272 334.5567,425.8284 334.1151,426.2048 334.003,426.2473 333.8085,426.3211 332.6847,426.3388 332.0025,426.7746 331.1135,427.3423 329.9771,427.4901 329.3879,427.73 328.9614,428.2457 328.7982,429.3744 328.6519,429.5738 328.5389,429.6224 328.4675,429.653 328.319,429.6434 327.8303,429.2882 326.7119,429.1158 325.3445,428.4441 324.7127,427.0052 324.4331,426.6274 323.8553,426.2761 323.3738,426.358 322.6002,427.1082 321.9241,427.0551 320.9358,426.5687 320.4708,426.1424 320.2563,426.0756 318.7967,426.2132 318.493,426.3266 318.1221,426.8331 317.8528,427.201 317.5393,427.3004 316.9125,427.4992 315.4675,428.4965 315.0755,428.508 315.0288,428.5094 314.9736,428.511 314.5972,428.5221 314.3748,428.6583 314.1969,428.9291 313.6824,429.1899 313.4703,429.2975 313.3796,429.3435 312.7736,429.6507 312.4442,429.8971 312.1203,430.1393 311.7406,430.7237 311.7018,431.4692 310.6045,432.1471 310.5832,432.4601 310.7829,432.9812 310.7104,433.0841 310.2419,433.2514 309.7323,433.6474 307.2879,434.3312 307.1707,434.3809 306.977,434.4631 306.9457,434.49 306.675,434.7225 306.6295,434.7344 306.1329,434.8639 305.4012,435.3788 304.6522,435.3711 304.0733,435.679 303.3298,436.2436 303.2861,436.2557 302.3326,436.519 302.0082,436.529 301.628,436.4148 300.4519,435.9437 300.076,435.9938 299.3636,436.602 298.7417,436.9151 298.4295,437.3666 298.2583,438.0426 298.0501,438.2423 297.2691,438.6492 296.7797,438.8006 296.6271,438.8479 296.0401,439.199 296.005,439.4586 296.1581,440.4004 296.072,440.5604 295.2602,440.9583 293.5826,441.1487 292.9513,441.6228 292.4278,442.7827 292.2825,442.9336 290.8017,443.1119 290.18,442.2067 289.8535,442.266 288.9103,442.7953 288.2227,443.0682 287.8877,443.2011 287.5352,443.2458 286.698,443.0911 285.9634,443.0764 286.0189,442.6298 285.6187,441.1063 285.2828,440.3614 284.7593,439.5588 281.9827,436.0015 281.088,435.3455 280.0287,434.3617 279.4237,433.5052 278.5348,431.5962 277.0597,430.7705 275.7011,430.6021 272.3756,430.6006 270.2442,430.4168 266.9341,430.6092 266.3829,430.5134 264.5215,429.6713 263.807,429.5115 263.3735,429.5186 262.4882,429.8193 259.8061,430.3715 256.4593,431.3493 255.3951,431.539 254.497,431.5579 253.6654,431.4422 253.0281,431.2231 252.4143,430.8253 251.7481,430.2885 251.3045,429.6722 251.0782,428.887 251.038,428.3605 250.9977,427.8339 250.7841,426.8922 250.2841,425.3134 249.6103,424.2672 248.2612,423.2946 247.1711,422.9335 246.0619,422.8452 244.9771,422.8811 243.9199,423.1491 242.4875,423.9746 239.9687,425.9768 239.7229,426.0653 238.6553,425.6787 238.142,425.1606 237.3121,424.652 235.8484,423.4757 235.1402,423.0416 234.369,421.963 234.0489,421.6978 230.5038,419.531 229.5676,418.7802 228.8286,418.1315 228.323,417.0158 228.0967,416.7648 227.5032,416.3287 226.8582,416.0368 225.2883,385.6751 225.1093,384.9915 224.6103,384.7394 225.0588,383.5319 225.2099,382.5525 225.1904,381.6536 224.6497,378.6768 223.9748,376.7118 223.7235,375.5465 223.1872,373.8199 222.3341,372.2516 220.9824,370.5426 220.438,369.377 220.2759,368.7248 220.2888,367.1243 220.0571,365.6195 219.3211,363.8739 218.5004,360.9063 218.4885,359.9441 218.7892,358.977 219.7125,356.9192 220.3598,356.0412 220.1434,355.2474 218.4616,352.8954 218.2935,352.5219 217.6501,348.2251 217.9665,344.8237 218.12,344.5794 218.989,343.9344 219.3602,343.1459 219.2359,342.5572 218.9598,342.1818 218.2304,341.7711 217.2544,341.4269 216.3296,341.3989 215.2257,341.5631 214.2837,341.8364 213.9231,341.941 212.9335,342.3837 212.829,342.4305 212.8016,342.4428 209.791,344.3335 209.7347,344.3579 205.8419,346.0441 204.2329,346.5179 203.9529,346.5432 203.0562,346.6241 199.9689,345.9171 198.1336,345.7481 197.185,345.9198 196.1627,346.4794 195.4926,346.7315 194.7961,346.8803 194.2929,346.8776 193.7173,346.8015 192.5932,346.378 190.2132,345.728 186.8408,343.9049 185.7811,343.4994 184.1817,342.5872 181.5074,341.9832 180.9816,341.7968 179.5274,340.9885 178.1301,340.572 177.8466,340.3867 177.3033,339.6035 176.8939,339.225 176.4596,339.0702 174.7457,338.8412 172.9878,338.2757 172.0526,338.2048 171.8619,338.263 170.6537,338.6313 165.7595,339.8329 164.6958,340.2392 164.2195,340.4211 163.0338,341.0461 160.6805,342.4881 158.6132,344.1601 157.2135,345.0661 154.6938,346.4669 153.5736,346.9189 153.2215,347.061 151.8475,347.3979 151.1004,347.4797 150.2604,347.4915 147.8831,347.1988 147.0979,347.2846 145.715,347.2263 144.8248,346.9712 143.5131,346.1403 143.497,346.1302 143.5556,345.8488 153.1468,299.7795 153.7045,297.1009 153.9397,295.9689 141.6598,282.7133 137.5691,282.9425 136.5234,283.265 135.5937,283.3836 133.8252,283.3266 133.2304,283.1723 132.4193,283.1072 131.2404,283.3271 129.8449,283.8371 128.6303,284.1229 128.3653,284.2986 127.5111,285.2386 127.0939,285.3535 126.5697,285.2526 125.9008,285.2696 125.2431,285.0589 124.8258,284.7499 124.6391,284.7103 123.5998,284.7575 122.7035,284.5088 121.7449,284.6146 120.7684,284.6105 120.46,284.488 119.6584,283.7813 119.3432,283.6334 119.0291,283.5687 118.0885,283.6054 117.4698,283.3358 116.2348,283.1253 115.1666,282.6839 114.7768,282.6115 113.1974,282.6578 111.9894,282.4866 110.8613,282.1466 109.3619,281.2541 107.9711,280.8869 107.5101,280.3756 106.7757,279.7845 105.7141,279.5986 103.7901,278.2739 103.2296,277.6814 102.9624,277.5381 101.6698,276.6797 101.0577,276.3275 100.3528,276.0797 99.9198,276.0858 99.7581,275.8303 99.0293,275.5681 98.6828,275.5671 98.1736,275.7276 97.9875,275.4209 97.9692,274.7802 98.484,274.6528 98.0109,274.4408 97.6143,274.4536 97.6418,274.0188 97.3207,274.1338 97.0469,273.7547 97.394,273.3096 97.2594,272.7793 97.5173,272.6577 97.8965,272.4128 97.9291,272.2337 97.8113,271.8575 97.9483,271.6005 97.7577,271.4609 97.8232,271.1285 98.2827,270.5731 98.6563,270.6272 99.1292,271.0546 99.463,271.002 99.3378,270.8086 99.168,270.7778 99.1566,270.4984 99.9551,270.03 98.7217,269.3045 98.9815,269.0943 99.3495,269.1104 99.3071,268.4406 99.4905,268.3062 99.4126,268.1481 99.8578,268.1676 100.3273,267.9804 100.3599,267.3243 100.9027,267.2698 100.71,267.0652 100.2991,266.8037 100.2032,266.6451 100.2595,266.4786 100.4206,266.4579 100.5403,266.6252 100.7526,266.5342 101.181,266.7343 101.7217,266.8114 101.6967,266.2408 101.4279,265.9352 101.3096,265.2003 102.0775,264.7215 102.2671,264.5236 102.611,264.3603 102.4293,264.083 102.7464,263.7322 102.8361,263.1932 102.7625,262.7891 103.0818,262.6364 102.9188,262.4888 102.7158,262.5761 102.4079,262.0261 102.2725,261.94 102.2491,261.6985 102.7091,261.6812 103.1067,261.1967 103.4116,261.0597 103.6637,261.0709 103.9627,261.0592 104.1007,260.9285 104.0606,260.6905 103.914,260.4853 103.9584,260.3079 103.6375,259.9441 103.9732,259.7699 103.8607,259.578 103.696,259.1845 103.9782,259.1069 103.7955,258.5275 103.9645,258.2673 104.6515,257.9039 105.181,257.7535 104.9438,257.5931 104.887,257.2752 104.9885,257.1587 105.3782,257.043 105.4085,256.8018 105.6585,256.5901 105.5816,256.2062 105.8547,255.7206 106.1394,255.6018 106.1373,255.147 106.5048,254.7753 107.2353,254.7318 107.1315,254.2318 107.2205,253.9604 107.7337,253.8471 108.4466,253.4853 108.7703,252.8858 109.4661,252.3556 109.9626,252.293 109.9905,252.1981 109.771,251.9877 109.8968,251.8384 110.3761,251.7865 110.5136,251.6094 111.0538,251.3235 111.1241,250.9724 111.409,250.7001 111.9655,250.59 112.2142,250.3728 112.6109,250.3409 113.4574,249.8835 113.9373,249.9283 114.2137,249.85 114.5364,250.0168 114.7334,249.9657 114.9836,249.3366 114.7456,248.6774 114.8539,248.2419 114.8024,247.9102 115.2848,247.2809 115.2375,246.9545 115.0688,246.6868 115.17,246.5091 115.5508,246.4987 115.7258,246.1953 116.2821,245.8413 116.7384,245.4092 117.2828,245.3167 117.4912,245.0707 117.8935,245.0048 118.0367,244.823 118.4086,244.7042 118.4932,244.5005 118.7811,244.2556 118.9584,243.8845 119.2187,243.8743 119.4994,244.2553 119.9593,244.4241 120.4192,244.4567 120.8088,244.6588 121.3222,244.6286 121.8357,244.8678 122.1856,244.8949 122.9807,244.588 123.8636,244.4554 124.7725,244.1229 126.0776,244.2233 126.4697,243.9101 126.8058,243.354 127.4207,243.0757 127.6165,242.7269 127.3043,242.3415 127.2874,242.0187 126.6705,241.5006 126.2893,241.8198 125.9378,241.8539 125.861,241.7367 125.8794,241.4411 125.5734,241.0902 126.0048,240.7776 125.97,240.4472 125.4569,240.1413 125.3494,239.6726 125.2491,239.6091 124.8302,239.7569 124.4157,239.7575 124.064,239.7067 123.5919,239.4744 122.9342,239.4691 122.3478,239.3254 121.7904,239.6201 120.7595,239.8067 119.8832,239.5344 119.727,239.2591 119.2839,239.0696 119.1852,238.7577 119.2179,238.2917 118.6728,237.49 117.9158,237.2915 117.4306,236.9408 116.5133,236.9658 116.3334,236.7386 116.3545,236.5672 117.1167,236.0046 117.659,235.1697 118.0725,234.9378 118.1323,234.9042 118.1568,234.9031 119.2944,234.8495 119.4639,234.7426 119.8175,234.3157 120.3493,234.0172 120.6652,233.2855 120.9137,233.0628 121.1516,233.1374 121.6451,233.6567 121.8854,233.7422 122.3068,234.0875 122.6619,233.993 122.9605,233.6153 122.9845,233.3113 122.7012,232.8317 122.6812,232.6351 122.8275,232.2988 122.9557,231.3694 123.4529,230.7177 124.1446,230.4497 125.9589,230.2296 127.2363,229.9008 127.5772,230.1099 128.088,230.8588 128.3872,230.9734 128.6271,230.9976 129.1713,230.8477 130.1064,230.8824 130.8118,230.4842 131.2833,230.6471 132.2476,230.5457 132.7477,230.8182 133.0954,230.6818 133.3378,230.6932 133.5753,230.9413 134.1808,231.1775 134.6054,231.3437 134.7523,231.6075 135.559,231.6399 136.0697,231.9879 136.6025,231.8757 136.8059,232.0764 136.9416,232.4849 137.4332,232.6617 137.4566,233.0291 137.7684,233.1405 137.8112,233.2359 137.6454,233.4687 137.7655,233.6694 137.6805,233.9398 138.0612,234.27 138.0496,234.6439 138.7535,235.0477 139.0962,235.0668 139.7822,234.8574 140.3806,235.06 140.9346,234.8869 141.2462,234.8868 141.5508,235.014 142.0117,235.0512 142.2214,235.2873 142.8149,235.4106 143.1206,235.7524 143.8919,235.7302 143.9469,235.5485 143.8335,235.3987 143.8932,235.2369 144.3145,235.3402 144.5288,235.2557 144.8437,235.3167 145.2138,235.0709 144.8149,234.5166 144.8475,234.3914 145.1135,234.191 145.3405,233.4182 145.5329,233.2704 145.7965,233.3222 145.9302,233.6768 146.1087,233.8126 146.8983,233.8876 147.3156,233.6457 147.4392,233.6764 147.4863,234.127 147.571,234.2156 148.2102,234.3557 149.1888,234.2427 149.6555,233.9335 150.519,233.8343 150.7455,233.3913 151.3435,233.2149 151.3374,232.7876 151.4363,232.7315 151.8744,232.8671 152.0717,233.0342 152.6246,233.0154 152.7606,233.0877 152.8776,233.4666 153.4047,233.5701 153.4599,233.7364 153.8921,233.9754 154.0481,234.2434 154.495,234.3504 154.6664,234.5084 155.2648,234.7365 155.4597,235.1814 155.8125,235.391 156.0064,235.782 156.9838,235.8225 157.1551,235.9466 157.1952,236.4979 157.6342,236.7348 157.6558,237.1844 157.9662,237.3881 158.0412,237.6112 158.416,237.7041 158.4603,237.9986 158.7432,238.1483 159.1259,238.0821 159.2202,238.1411 158.9928,238.7705 159.0731,239.0318 159.1801,239.1169 159.9585,239.2049 160.1158,239.5086 160.6268,239.5724 160.8327,239.7858 160.6319,240.2599 160.7524,240.5748 160.9208,240.573 161.1736,240.3337 161.3905,240.3184 161.5491,241.023 162.4256,241.3489 162.562,241.8797 162.8769,242.1517 162.7926,243.1244 163.1065,243.3955 163.233,243.9485 163.6498,244.3771 163.6232,244.9515 163.8199,245.389 163.8767,245.9671 164.3837,246.2393 164.6833,246.6789 165.3597,246.9465 165.3717,247.0849 165.1538,247.4162 165.1731,247.6174 165.5059,247.7902 165.5995,248.1187 165.9779,248.1493 166.1297,248.4604 166.452,248.5367 166.7611,248.365 166.9475,248.3708 167.7465,248.9294 168.4081,248.9856 168.6319,249.0989 169.2459,249.0606 169.6817,249.1579 170.0134,249.0384 170.4158,249.0555 171.5977,248.6874 171.9132,248.3985 172.4555,248.3563 172.9425,248.5633 173.6853,249.2963 174.0293,249.3253 174.5255,249.1484 174.9465,248.5629 175.777,248.1542 176.676,247.2737 177.2001,247.2165 178.4865,247.8103 179.0317,247.924 179.5791,247.6523 180.2581,247.0457 181.1249,247.1371 181.5762,247.3599 182.5596,247.4 183.0101,247.2072 183.8185,246.579 184.862,245.3714 185.7267,244.7012 186.6946,244.2477 189.3465,243.4653 190.4028,242.9413 191.6527,242.0649 195.2733,239.9676 196.54,238.8969 196.5871,238.8571 196.6354,238.8163 196.6767,238.7814 196.7179,238.7465 196.7664,238.7055 198.5302,237.2146 199.7953,236.5632 200.3888,236.3739 201.124,236.3024 202.5039,236.4354 203.4933,236.2195 205.5127,236.5271 206.5136,236.4921 206.7193,236.4849 209.6434,236.3792 211.4864,236.1664 212.4435,235.7423 213.4146,235.0384 214.1937,234.7298 218.4179,233.8407 220.2388,233.7171 221.5931,233.8234 224.608,234.4396 227.0804,234.5731 227.3776,234.6565 228.4035,235.3051 229.7033,235.0058 230.3228,234.3352 231.1753,233.1656 231.7583,232.6734 232.2493,232.4673 233.4525,232.3072 234.4362,231.9681 236.7247,231.7458 237.8642,231.7705 239.8705,232.1721 240.8873,232.6556 242.0096,233.6725 242.6211,234.8917 243.0666,234.804 243.6797,234.4578 244.4971,234.2564 246.4772,234.0917 249.3991,234.0612 251.0833,233.8477 252.7901,233.4563 254.8589,232.6091 255.4858,232.2343 255.8564,232.0127 257.4925,230.8419 257.9583,230.2832 258.6019,229.0629 259.0775,229.1778 259.667,229.3209 261.0826,230.0358 262.7177,230.6987 263.1799,231.0524 263.3468,231.5245 263.2389,232.296 262.0879,233.6747 261.555,234.0922 261.1054,234.6386 259.872,235.7816 259.366,236.5206 259.2627,237.4674 259.3617,238.2678 259.5129,238.7925 260.413,240.6641 260.6165,241.43 260.624,241.9101 260.3575,242.9947 259.7044,244.2217 257.3986,247.0905 255.8786,250.3433 254.5169,253.6896 254.0964,255.0825 254.0232,256.6657 253.6804,257.1128 253.3322,257.567 254.3152,257.7985 255.0849,257.8334 255.9264,257.6193 256.9086,257.0554 257.3348,256.9737 258.4994,257.3946 258.7427,257.3491 259.1239,257.0653 259.617,257.0152 261.192,257.6363 262.5673,257.6438 264.1334,258.0532 264.6774,258.0818 265.597,257.2121 266.5443,256.5571 267.1854,256.2254 267.5851,255.8094 268.3679,255.3899 269.0992,254.8297 269.8671,254.7148 270.3627,254.165 270.7912,253.8879 271.4106,253.8893 272.6687,254.2147 273.6486,254.3658 274.2804,254.6408 275.1201,254.7883 275.5979,255.1104 276.0279,255.5929 277.686,256.3088 278.1769,256.6925 278.7246,257.7674 280.3006,259.8767 282.5036,262.3351 282.8899,262.6227 283.4786,262.8945 285.527,263.4073 287.4112,264.1127 289.3948,264.3647 291.0048,264.4326 292.2379,264.7679 294.4016,264.9891 297.2731,265.1868 298.7074,265.1701 301.4765,264.6396 303.6268,264.1251 304.8492,263.594 306.1975,262.5866 308.4919,261.8692 311.3786,261.3145 312.4424,261.2745 313.5438,261.3966 314.2418,261.629 317.8916,263.4642 318.7108,263.7656 319.6684,263.9701 322.0284,263.841 323.1552,263.881 323.84,264.0517 324.3894,264.321 325.1922,264.9106 326.803,266.3214 327.2374,266.558 327.7459,266.6542 328.2157,266.6358 329.2519,266.4112 334.6662,264.4265 337.1784,263.6685 337.9704,263.5424 339.8401,263.5583 343.1148,264.1444 343.1741,264.1707 343.5386,264.3329 344.0415,264.7671 344.6983,265.5322 347.5697,269.4564 348.8046,271.4813 349.169,271.8563 349.7318,272.167 350.0847,272.362 350.1878,272.419 350.2978,272.4797 352.5002,273.6966 354.1917,274.2726 354.8746,274.3656 356.4562,274.2266 356.923,274.0548 357.8226,273.1625 358.6355,272.0303 359.2557,271.4415 359.9033,271.0034 361.1433,270.4731 362.7913,269.9255 368.3043,268.8012 369.7286,268.2218 371.4735,267.0892 375.0954,263.8635 378.9282,261.047 380.729,260.0951 381.7286,259.9152 381.9808,260.0747 382.234,260.488 382.5839,261.4204 382.5464,262.0699 382.0765,263.8773 381.9689,264.6899 382.0014,265.7544 382.1394,266.5058 382.629,267.6032 383.0953,268.0011 383.8762,268.3472 385.0217,268.6418 386.2621,268.83 389.7368,269.1061 390.1608,269.2981 394.785,272.8899 396.0362,273.6812 397.4452,274.2973 398.1786,274.529 398.7298,274.5369 398.8615,274.5001 399.0227,274.4552 399.086,274.4375 399.1684,274.4146 399.6839,274.2708 400.7126,273.6516 403.4719,271.2919 404.8909,270.3544 405.8237,269.5412 407.9609,268.3703 410.2623,267.4404 412.3329,267.0761 415.5938,267.0248 416.8764,267.089 420.8258,268.0733 421.7593,267.8334 422.9207,267.2543 424.8104,265.8488 426.2686,264.9409 426.688,264.7367 428.646,264.2026 431.6567,263.9942 433.436,263.6533 435.6956,263.4613 437.7499,263.6351 440.2848,264.1412 441.8757,264.1436 444.3357,263.6141 446.0011,263.4925 448.5251,263.0466 449.8791,261.86 450.7212,260.7922 452.1409,258.1864 453.2749,256.8402 453.8663,255.7034 454.4208,255.1741 457.2062,253.902 460.1266,253.248 461.772,253.2693 463.8007,253.8901 465.0947,254.1225 465.8076,254.0816 466.3997,253.8614 466.7474,253.6057 468.717,251.7068 469.275,250.9436 469.7192,251.993 470.1663,252.4962 470.7695,252.88 471.8087,253.3603 472.3277,253.8474 473.0752,255.0314 473.2549,256.0843 473.0548,257.248 473.0743,258.6359 472.89,260.4235 473.1693,264.2229 473.0554,266.1541 472.8907,267.3713 472.5994,268.4586 472.2444,269.1756 471.9141,269.5987 470.9245,270.5018 469.8981,271.7668 468.7003,274.4007 467.3369,276.9865 466.5327,278.0704 465.4174,279.2681 465.1152,279.9577 464.9874,280.645 464.4225,281.8321 463.9592,283.1088 462.7955,284.0243 462.3546,284.5543 461.7569,285.0075 461.3543,285.4623 460.1962,287.7653 460.004,289.5066 459.4269,290.6329 459.3851,291.3382 459.0001,292.2909 458.434,292.9247 454.579,295.2817 454.0845,295.9194 453.4591,296.9671 453.0881,298.0252 452.9079,299.9213 452.5007,301.3567 451.5209,303.7111 450.5269,305.583 449.8275,307.2403 449.6,308.5346 449.4711,311.0361 449.0551,312.2244 448.4239,313.2248 447.6622,314.0506 447.1524,314.3767 457.9352,332.7662 458.7533,334.1615 460.5355,337.7213 460.7048,338.2825 460.7198,341.1415 460.6227,342.0359 460.3627,343.0984 459.5048,345.6842 458.8092,349.0771 459.237,352.331 460.31,358.0086 460.6429,361.242 460.4918,363.4219 459.5872,367.1324 459.4102,367.5004 459.391,367.5403" stroke="black" /><polygon fill="none" points="319.4464,140.6141 319.5259,140.5501 319.9968,140.0331 321.5104,137.9711 323.0995,136.1687 324.6731,134.7055 326.0184,132.7267 326.7236,132.243 327.1672,132.115 328.3747,131.9881 328.5447,131.8509 328.6772,131.242 328.693,127.3012 328.8161,125.3722 328.8187,124.722 328.654,123.5376 329.2133,120.9549 329.5815,119.7765 329.6266,119.0327 329.4735,117.7676 329.0521,116.7086 327.403,114.1372 327.299,113.517 327.5636,113.3438 327.9374,113.2611 330.8715,113.3041 331.9806,113.4517 333.0718,113.7441 335.1168,114.4759 335.6617,114.54 336.6887,114.4875 341.1551,113.9141 343.0161,113.9041 343.7587,114.019 345.0312,114.6724 346.6697,116.1911 348.0439,116.9698 348.4717,117.0687 349.2175,117.0876 350.2571,116.9023 352.5281,116.7068 354.1509,116.3823 356.8665,116.4194 359.5953,116.2889 361.0214,115.6888 361.5991,115.2576 363.7824,112.8571 364.3582,111.9913 365.3968,110.0737 365.9997,109.4829 367.5071,108.3248 368.7859,107.5132 370.7673,106.7656 371.8102,106.5919 373.2532,106.6394 376.4464,106.9789 377.1946,106.9602 379.737,106.5946 380.5785,106.2514 382.5265,105.1734 387.0252,103.4673 395.8156,99.7497 395.7293,100.4556 395.7916,100.7512 396.3845,102.1593 396.7862,103.8651 396.9446,105.2285 396.9911,107.0659 396.7828,108.5658 395.9638,111.3161 395.5215,112.0076 394.9912,112.4737 394.9393,112.627 395.0412,113.2883 394.9366,114.0506 394.952,114.9321 394.9104,115.1472 394.6059,115.5802 394.618,116.197 394.4684,116.8357 394.6807,117.6668 394.509,118.6724 394.6713,119.906 394.6368,122.2327 394.8883,123.8231 395.5071,125.6978 395.7422,126.4094 395.7569,127.2179 395.5233,128.7004 394.9234,131.09 394.5928,134.0622 394.4951,141.4605 394.799,141.7735 395.1397,141.847 399.2328,140.9475 400.6659,140.8299 402.1913,140.8451 403.2961,141.0269 404.5304,141.3642 405.1453,141.7258 405.2941,141.8133 405.3559,141.8679 406.1023,142.5274 408.1364,144.6236 408.7246,145.0703 410.7475,146.3451 412.5392,147.2397 417.2865,148.7601 419.0927,149.5226 424.1319,150.9873 427.5618,151.5176 429.7851,151.4185 432.907,151.0816 438.1126,150.0048 439.1953,149.8667 440.2798,149.8737 441.0734,149.9317 441.9984,150.1933 446.1453,151.8027 449.8794,197.2068 449.1297,197.5272 448.5909,197.5291 447.0807,197.3149 445.753,197.3354 441.0112,197.7862 439.575,198.0889 437.2721,198.3745 432.1471,200.0259 425.6664,201.7643 424.3548,201.7449 422.4811,201.0808 421.1294,200.8883 420.1676,200.8963 414.4408,201.7167 413.8775,201.7184 413.5751,201.6273 412.2611,200.8674 410.6536,200.3192 409.0787,200.2291 407.8778,200.3875 406.857,201.0703 405.7563,202.6963 405.5573,205.1619 405.3562,205.8864 404.5456,207.2122 403.3125,208.3815 401.9451,209.0579 401.2918,209.3811 399.9944,209.6542 396.1867,209.9225 392.6986,211.5624 390.6995,210.6711 390.1531,210.5517 388.8978,210.5465 388.4239,210.3772 386.3872,208.868 385.7194,208.5253 384.5661,208.1177 383.5537,207.9317 382.8839,208.22 379.9507,208.3517 379.3494,208.5628 378.6385,209.0031 377.9506,209.6828 376.4156,211.8939 375.2804,212.9676 374.664,213.3444 373.863,213.6352 370.491,214.4846 369.3541,215.057 368.1601,215.7528 366.6011,216.8388 365.1491,218.5924 363.8389,219.576 361.8689,220.7553 361.0709,221.0761 360.5808,221.2733 357.7037,221.7233 353.5659,221.2339 352.6698,221.1279 350.8191,220.5252 348.5374,218.1426 347.5847,216.9126 346.5189,216.0287 343.2393,212.8914 342.7786,212.5562 342.0792,212.229 340.954,211.9132 340.3642,211.6325 339.0032,209.8974 336.7531,208.2769 335.4621,198.4654 335.1106,197.3221 334.5982,196.5548 333.089,194.9597 329.4392,193.1821 327.7244,191.9956 325.4966,189.8199 323.8143,188.5857 323.2819,188.4719 314.9877,188.1965 313.8273,188.3374 312.908,188.7871 312.322,189.4486 312.1393,190.3834 312.2934,193.4912 312.1785,198.1732 311.8717,199.734 311.4946,200.6314 310.2356,202.5782 308.2192,205.035 306.8385,205.7703 306.2133,205.9966 299.6849,206.6025 298.7196,206.9286 298.1899,206.9644 297.9629,206.8432 297.5353,206.3433 296.9005,205.9078 296.693,205.8626 296.3234,205.8822 294.8735,206.4243 294.4668,206.4725 294.0528,206.4579 292.426,205.9832 290.7316,206.0247 289.7065,205.8094 288.9867,206.1273 288.8082,206.1223 288.5413,206.059 287.787,205.4456 287.6209,205.4064 286.9508,205.5592 286.6857,205.5196 285.5685,204.816 284.5522,204.4222 283.3734,204.3663 282.7641,204.6769 281.5161,204.9127 280.8457,205.4719 279.8601,205.8853 279.1508,206.6055 277.3792,207.6056 275.2875,207.7342 274.5204,208.4326 274.168,208.6196 273.7083,208.7169 272.614,208.7467 271.5513,208.9353 270.8798,208.9501 269.9031,208.7989 269.4398,208.4151 269.2488,207.899 269.1763,206.9718 268.7867,206.6175 267.6329,205.9826 266.7799,206.0171 265.8438,205.8243 266.2056,205.3649 266.6222,204.5447 266.8757,203.5309 266.8893,203.115 267.3929,201.6436 267.5516,200.7397 267.6604,197.9271 267.5868,197.0199 267.2302,196.0637 267.1291,194.9995 267.1987,193.5561 267.3803,192.5054 267.7774,191.4302 268.9304,189.2342 269.6743,187.2819 270.1828,186.561 271.3355,185.9832 272.6971,184.6397 273.7236,184.0433 276.0977,182.048 280.0495,179.6791 283.8276,178.0036 285.2709,177.5513 286.3248,177.3959 288.2791,176.8308 289.1792,176.5206 289.6008,176.272 290.592,175.0091 292.1445,173.6171 293.3553,172.0246 293.7364,171.1791 294.7515,168.0488 295.2271,167.0596 296.1948,165.9765 297.1214,165.3084 299.5381,164.0594 300.3695,163.2565 301.0199,162.2816 301.2821,161.2721 301.3651,159.6977 301.2189,158.6095 301.0422,158.2136 302.544,156.321 302.9845,155.9027 303.0657,155.6699 303.148,155.4356 303.5128,154.3958 303.5112,153.7895 303.3956,153.2993 302.595,151.9515 302.4051,151.4638 302.4979,150.6872 303.2594,149.7242 304.0453,148.9904 307.4238,146.5141 310.7769,144.9701 311.9671,144.7224 313.5727,144.5284 314.7153,143.6494 316.2813,143.0331 316.8722,142.6847 319.4464,140.6141" stroke="black" /><polygon fill="none" points="303.148,155.4356 303.0657,155.6699 302.9845,155.9027 302.544,156.321 301.0422,158.2136 301.2189,158.6095 301.3651,159.6977 301.2821,161.2721 301.0199,162.2816 300.3695,163.2565 299.5381,164.0594 297.1214,165.3084 296.1948,165.9765 295.2271,167.0596 294.7515,168.0488 293.7364,171.1791 293.3553,172.0246 292.1445,173.6171 290.592,175.0091 289.6008,176.272 289.1792,176.5206 288.2791,176.8308 286.3248,177.3959 285.2709,177.5513 283.8276,178.0036 280.0495,179.6791 276.0977,182.048 273.7236,184.0433 272.6971,184.6397 271.3355,185.9832 270.1828,186.561 269.6743,187.2819 268.9304,189.2342 267.7774,191.4302 267.3803,192.5054 267.1987,193.5561 267.1291,194.9995 267.2302,196.0637 267.5868,197.0199 267.6604,197.9271 267.5516,200.7397 267.3929,201.6436 266.8893,203.115 266.8757,203.5309 266.6222,204.5447 266.2056,205.3649 265.8438,205.8243 266.0306,207.7003 265.7959,208.4596 265.2181,209.2156 264.7083,209.6964 263.8222,210.9777 259.1167,215.8954 257.2656,218.0358 256.1622,219.9955 255.7265,221.1687 255.4702,222.1872 255.3587,223.253 255.4447,224.0474 256.3298,226.925 256.7598,227.593 257.4485,228.3119 258.6019,229.0629 257.9583,230.2832 257.4925,230.8419 255.8564,232.0127 255.4858,232.2343 254.8589,232.6091 252.7901,233.4563 251.0833,233.8477 249.3991,234.0612 246.4772,234.0917 244.4971,234.2564 243.6797,234.4578 243.0666,234.804 242.6211,234.8917 242.0096,233.6725 240.8873,232.6556 239.8705,232.1721 237.8642,231.7705 236.7247,231.7458 234.4362,231.9681 233.4525,232.3072 232.2493,232.4673 231.7583,232.6734 231.1753,233.1656 230.3228,234.3352 229.7033,235.0058 228.4035,235.3051 227.3776,234.6565 227.0804,234.5731 224.608,234.4396 221.5931,233.8234 220.2388,233.7171 218.4179,233.8407 214.1937,234.7298 213.4146,235.0384 212.4435,235.7423 211.4864,236.1664 209.6434,236.3792 206.7193,236.4849 206.5136,236.4921 205.5127,236.5271 203.4933,236.2195 202.5039,236.4354 201.124,236.3024 200.3888,236.3739 199.7953,236.5632 198.5302,237.2146 196.7664,238.7055 196.7179,238.7465 196.6767,238.7814 196.6354,238.8163 196.5871,238.8571 196.54,238.8969 195.2733,239.9676 191.6527,242.0649 190.4028,242.9413 189.3465,243.4653 186.6946,244.2477 185.7267,244.7012 184.862,245.3714 183.8185,246.579 183.0101,247.2072 182.5596,247.4 181.5762,247.3599 181.1249,247.1371 180.2581,247.0457 179.5791,247.6523 179.0317,247.924 178.4865,247.8103 177.2001,247.2165 176.676,247.2737 175.777,248.1542 174.9465,248.5629 174.5255,249.1484 174.0293,249.3253 173.6853,249.2963 172.9425,248.5633 172.4555,248.3563 171.9132,248.3985 171.5977,248.6874 170.4158,249.0555 170.0134,249.0384 169.6817,249.1579 169.2459,249.0606 168.6319,249.0989 168.4081,248.9856 167.7465,248.9294 166.9475,248.3708 166.7611,248.365 166.452,248.5367 166.1297,248.4604 165.9779,248.1493 165.5995,248.1187 165.5059,247.7902 165.1731,247.6174 165.1538,247.4162 165.3717,247.0849 165.3597,246.9465 164.6833,246.6789 164.3837,246.2393 163.8767,245.9671 163.8199,245.389 163.6232,244.9515 163.6498,244.3771 163.233,243.9485 163.1065,243.3955 162.7926,243.1244 162.8769,242.1517 162.562,241.8797 162.4256,241.3489 161.5491,241.023 161.3905,240.3184 161.1736,240.3337 160.9208,240.573 160.7524,240.5748 160.6319,240.2599 160.8327,239.7858 160.6268,239.5724 160.1158,239.5086 159.9585,239.2049 159.1801,239.1169 159.0731,239.0318 158.9928,238.7705 159.2202,238.1411 159.1259,238.0821 158.7432,238.1483 158.4603,237.9986 158.416,237.7041 158.0412,237.6112 157.9662,237.3881 157.6558,237.1844 157.6342,236.7348 157.1952,236.4979 157.1551,235.9466 156.9838,235.8225 156.0064,235.782 155.8125,235.391 155.4597,235.1814 155.2648,234.7365 154.6664,234.5084 154.495,234.3504 154.0481,234.2434 153.8921,233.9754 153.4599,233.7364 153.4047,233.5701 152.8776,233.4666 152.7606,233.0877 152.6246,233.0154 152.0717,233.0342 151.8744,232.8671 151.4363,232.7315 151.3374,232.7876 151.3435,233.2149 150.7455,233.3913 150.519,233.8343 149.6555,233.9335 149.1888,234.2427 148.2102,234.3557 147.571,234.2156 147.4863,234.127 147.4392,233.6764 147.3156,233.6457 146.8983,233.8876 146.1087,233.8126 145.9302,233.6768 145.7965,233.3222 145.5329,233.2704 145.3405,233.4182 145.1135,234.191 144.8475,234.3914 144.8149,234.5166 145.2138,235.0709 144.8437,235.3167 144.5288,235.2557 144.3145,235.3402 143.8932,235.2369 143.8335,235.3987 143.9469,235.5485 143.8919,235.7302 143.1206,235.7524 142.8149,235.4106 142.2214,235.2873 142.0117,235.0512 141.5508,235.014 141.2462,234.8868 140.9346,234.8869 140.3806,235.06 139.7822,234.8574 139.0962,235.0668 138.7535,235.0477 138.0496,234.6439 138.0612,234.27 137.6805,233.9398 137.7655,233.6694 137.6454,233.4687 137.8112,233.2359 137.7684,233.1405 137.4566,233.0291 137.4332,232.6617 136.9416,232.4849 136.8059,232.0764 136.6025,231.8757 136.0697,231.9879 135.559,231.6399 134.7523,231.6075 134.6054,231.3437 134.1808,231.1775 133.5753,230.9413 133.3378,230.6932 133.0954,230.6818 132.7477,230.8182 132.2476,230.5457 131.2833,230.6471 130.8118,230.4842 130.1064,230.8824 129.1713,230.8477 128.6271,230.9976 128.3872,230.9734 128.088,230.8588 127.5772,230.1099 127.2363,229.9008 125.9589,230.2296 124.1446,230.4497 123.4529,230.7177 122.9557,231.3694 122.8275,232.2988 122.6812,232.6351 122.7012,232.8317 122.9845,233.3113 122.9605,233.6153 122.6619,233.993 122.3068,234.0875 121.8854,233.7422 121.6451,233.6567 121.1516,233.1374 120.9137,233.0628 120.6652,233.2855 120.3493,234.0172 119.8175,234.3157 119.4639,234.7426 119.2944,234.8495 118.1568,234.9031 118.1323,234.9042 118.0725,234.9378 117.659,235.1697 117.1167,236.0046 116.3545,236.5672 116.3334,236.7386 116.5133,236.9658 117.4306,236.9408 117.9158,237.2915 118.6728,237.49 119.2179,238.2917 119.1852,238.7577 119.2839,239.0696 119.727,239.2591 119.8832,239.5344 120.7595,239.8067 121.7904,239.6201 122.3478,239.3254 122.9342,239.4691 123.5919,239.4744 124.064,239.7067 124.4157,239.7575 124.8302,239.7569 125.2491,239.6091 125.3494,239.6726 125.4569,240.1413 125.97,240.4472 126.0048,240.7776 125.5734,241.0902 125.8794,241.4411 125.861,241.7367 125.9378,241.8539 126.2893,241.8198 126.6705,241.5006 127.2874,242.0187 127.3043,242.3415 127.6165,242.7269 127.4207,243.0757 126.8058,243.354 126.4697,243.9101 126.0776,244.2233 124.7725,244.1229 123.8636,244.4554 122.9807,244.588 122.1856,244.8949 121.8357,244.8678 121.3222,244.6286 120.8088,244.6588 120.4192,244.4567 119.9593,244.4241 119.4994,244.2553 119.2187,243.8743 118.9584,243.8845 118.7811,244.2556 118.4932,244.5005 118.4086,244.7042 118.0367,244.823 117.8935,245.0048 117.4912,245.0707 117.2828,245.3167 116.7384,245.4092 116.2821,245.8413 115.7258,246.1953 115.5508,246.4987 115.17,246.5091 115.0688,246.6868 115.2375,246.9545 115.2848,247.2809 114.8024,247.9102 114.8539,248.2419 114.7456,248.6774 114.9836,249.3366 114.7334,249.9657 114.5364,250.0168 114.2137,249.85 113.9373,249.9283 113.4574,249.8835 112.6109,250.3409 112.2142,250.3728 111.9655,250.59 111.409,250.7001 111.1241,250.9724 111.0538,251.3235 110.5136,251.6094 110.3761,251.7865 109.8968,251.8384 109.771,251.9877 109.9905,252.1981 109.9626,252.293 109.4661,252.3556 108.7703,252.8858 108.4466,253.4853 107.7337,253.8471 107.2205,253.9604 107.1315,254.2318 107.2353,254.7318 106.5048,254.7753 106.1373,255.147 106.1394,255.6018 105.8547,255.7206 105.5816,256.2062 105.6585,256.5901 105.4085,256.8018 105.3782,257.043 104.9885,257.1587 104.887,257.2752 104.9438,257.5931 105.181,257.7535 104.6515,257.9039 103.9645,258.2673 103.7955,258.5275 103.9782,259.1069 103.696,259.1845 103.8607,259.578 103.9732,259.7699 103.6375,259.9441 103.9584,260.3079 103.914,260.4853 104.0606,260.6905 104.1007,260.9285 103.9627,261.0592 103.6637,261.0709 103.4116,261.0597 103.1067,261.1967 102.7091,261.6812 102.2491,261.6985 102.2725,261.94 102.4079,262.0261 102.7158,262.5761 102.9188,262.4888 103.0818,262.6364 102.7625,262.7891 102.8361,263.1932 102.7464,263.7322 102.4293,264.083 102.611,264.3603 102.2671,264.5236 102.0775,264.7215 101.3096,265.2003 101.4279,265.9352 101.6967,266.2408 101.7217,266.8114 101.181,266.7343 100.7526,266.5342 100.5403,266.6252 100.4206,266.4579 100.2595,266.4786 100.2032,266.6451 100.2991,266.8037 100.71,267.0652 100.9027,267.2698 100.3599,267.3243 100.3273,267.9804 99.8578,268.1676 99.4126,268.1481 99.4905,268.3062 99.3071,268.4406 99.3495,269.1104 98.9815,269.0943 98.7217,269.3045 99.9551,270.03 99.1566,270.4984 99.168,270.7778 99.3378,270.8086 99.463,271.002 99.1292,271.0546 98.6563,270.6272 98.2827,270.5731 97.8232,271.1285 97.7577,271.4609 97.9483,271.6005 97.8113,271.8575 97.9291,272.2337 97.8965,272.4128 97.5173,272.6577 97.2594,272.7793 97.394,273.3096 97.0469,273.7547 97.3207,274.1338 97.6418,274.0188 97.6143,274.4536 98.0109,274.4408 98.484,274.6528 97.9692,274.7802 97.9875,275.4209 98.1736,275.7276 97.8758,275.8203 98.1986,276.2945 97.2511,277.111 97.0517,276.9591 96.635,276.9945 96.3931,277.6167 96.6722,277.8338 96.3522,278.0077 96.3177,278.3103 95.982,278.4918 95.8804,279.0237 96.3874,279.4297 95.8789,279.4141 95.8657,279.569 96.2719,280.2326 95.8364,280.6744 95.5595,280.5973 95.3954,280.6733 95.2421,280.4472 95.3134,280.2625 95.5894,280.0149 95.0978,279.8083 94.971,280.2447 94.7441,280.3364 94.362,280.084 93.3509,280.8041 93.2231,281.2346 93.2698,281.6907 92.9927,282.085 92.6736,282.8041 92.2102,283.3632 91.7203,283.7459 91.0739,283.2247 90.5757,283.0991 90.0894,283.2165 89.4581,283.6233 89.0695,281.136 88.9682,280.9127 87.774,279.5411 87.2524,278.6403 86.6906,277.9696 86.3527,277.3922 85.9447,276.4553 85.494,274.5707 85.2166,274.143 83.1167,271.9495 78.928,267.4698 78.4771,267.2786 78.1985,266.6697 77.2317,265.7567 76.647,263.7228 75.266,262.5562 72.1531,260.9278 71.5837,260.7738 70.9297,260.7461 68.3185,261.4237 67.4348,261.3109 66.7865,261.6441 66.339,261.7241 65.8626,261.4803 65.0215,261.542 64.8419,261.6641 64.323,261.6821 63.9754,261.6942 63.8466,261.958 63.1709,262.0485 62.0088,261.7627 61.8324,261.5663 61.3946,261.764 60.81,261.7296 60.4517,261.8877 60.188,261.6483 60.0265,260.9065 60.2116,260.6608 60.7647,260.2921 60.9052,259.7228 60.452,259.4493 60.256,259.01 60.4523,258.8154 60.4623,258.6167 60.7885,258.3322 60.7355,257.9719 61.1638,257.6713 61.1655,257.2882 60.754,257.1613 60.9605,256.7754 61.5026,256.2079 61.909,256.018 62.6205,255.2124 62.7605,254.6138 62.6245,254.4831 62.6365,254.2472 62.5592,253.8431 62.2294,253.4057 61.9195,253.2332 61.5969,252.7515 61.6003,252.4716 61.8717,252.2099 61.915,251.8827 62.5014,249.8216 62.7332,249.5433 62.8332,248.9084 63.878,247.4418 64.3915,246.8975 64.6813,246.3139 65.0056,246.2406 65.4329,245.719 65.563,245.3193 65.3134,244.483 65.4835,243.9601 65.3146,243.5744 65.3622,243.2693 65.163,242.6336 64.7274,242.3058 64.5902,241.9344 64.6689,241.7168 64.4025,240.3753 64.4161,239.9086 64.2267,239.5527 64.241,238.806 63.9836,238.6854 64.1441,238.326 64.0496,237.6693 64.3334,237.0416 64.3136,236.4574 64.419,236.1564 64.2595,235.3728 63.9468,234.8566 63.9942,234.4503 63.8925,234.0863 64.0004,233.6728 63.9681,233.2307 63.8344,232.898 63.9231,232.3119 63.7866,231.9637 63.7778,231.6079 64.0596,231.3959 64.1719,231.1006 64.3226,231.0097 64.4386,230.6214 64.5023,230.32 64.4239,230.0965 64.5312,229.7887 64.299,229.5002 64.2892,229.2757 64.2565,228.9845 64.0453,228.4477 63.9715,228.1249 63.5615,227.6348 63.405,227.5961 63.2958,227.3905 63.27,227.1458 63.3474,226.7987 63.3452,225.8007 63.4777,225.5129 63.6755,225.4022 63.7605,225.261 63.5843,224.9633 63.5754,224.7997 63.6769,224.7137 63.9782,224.8916 64.1301,224.3952 63.8273,224.1719 63.6359,223.7049 63.5877,223.2243 63.3263,222.8662 63.3958,222.7281 63.1027,222.3325 63.0246,221.1551 62.9157,220.9728 62.7912,220.7878 62.7986,220.6652 62.8647,220.5126 63.0116,220.3413 63.0775,219.7803 62.906,219.1905 62.9581,218.3583 62.6625,218.0037 62.4435,217.9542 62.3639,217.1868 62.8967,216.9488 63.1987,216.5824 63.1824,215.5618 63.539,214.7583 63.5931,214.5641 63.5509,214.3959 63.8704,214.0251 63.8678,213.313 64.0375,212.3722 63.7784,211.5691 63.6765,210.1463 64.3316,207.0243 64.1903,206.1875 63.5889,205.3069 62.6801,205.0481 62.2121,205.0538 61.7694,205.352 61.5611,205.6838 61.2465,206.6182 60.7857,207.2275 60.267,207.6715 59.6065,207.7729 58.9821,207.7087 58.6095,207.5671 55.7768,205.327 55.1307,205.2077 52.0933,205.2494 51.4057,204.9854 49.4685,202.7166 48.6967,202.0515 48.0493,201.6774 47.4237,201.5557 46.3911,201.5537 44.6401,201.759 42.9257,201.8399 41.9142,201.798 41.1035,201.9442 40.428,202.2817 38.1777,204.0822 36.3423,205.0922 34.5239,205.8449 33.1454,206.2466 32.1807,206.3867 28.8453,206.5324 26.6091,206.4634 25.1529,206.3167 20.6797,206.479 19.7524,206.3585 19.1146,206.1676 18.3923,205.5116 17.9911,204.5537 17.8836,204.4476 17.6801,204.5875 17.4595,204.6372 17.2623,204.5845 17.1347,204.3966 17.1211,204.189 17.3868,202.0614 17.5769,201.6122 17.2167,200.4775 17.4117,200.2328 17.641,199.7528 18.1589,199.3826 18.3583,198.9444 18.9135,198.4511 19.8128,197.4591 19.6594,197.2142 20.1565,196.3841 20.4469,195.7684 20.4947,195.5151 20.96,194.8995 20.7767,194.4245 20.5473,194.3783 20.1939,193.7163 19.6566,193.1063 19.4622,192.8004 19.4734,192.5173 19.3757,192.2532 19.6094,192.2441 19.7181,191.9776 19.6271,191.3792 19.2552,191.0619 19.069,190.4059 18.845,190.1455 18.6909,189.2914 18.6435,189.0698 18.4489,188.9984 18.2746,189.0996 18.1575,188.9283 18.1804,188.7057 18.2032,188.433 18.176,188.2846 17.8372,188.1433 17.6482,187.8568 17.3609,187.4821 17.0552,187.3664 16.7923,187.1112 16.6816,186.7834 16.2646,186.4897 16.0673,186.1751 15.8157,186.2339 15.5501,186.1851 15.2734,186.0342 15.2303,185.8685 15.1169,185.7884 14.9391,185.7792 14.8681,185.6255 14.1264,185.0318 13.9513,184.7921 13.8036,184.7153 13.6631,184.6997 13.4486,184.7347 13.2836,184.7487 13.1606,184.657 12.9201,184.6224 12.6645,184.4217 11.5282,183.7998 11.2871,183.7301 11.0565,183.9317 10.8436,183.8704 10.7161,183.6912 10.2313,182.9802 10.0587,182.7025 9.713,182.5205 9.6682,182.244 9.7487,182.0066 9.6038,181.5097 9.6466,180.0563 9.9523,179.5933 9.9766,179.0365 9.8137,178.785 9.9003,178.5416 9.8329,178.0145 9.8873,177.7045 10.2633,177.6352 10.4198,177.4785 10.3498,177.3831 10.1232,177.2433 10.383,176.9159 10.2095,176.8433 10.3804,176.5513 10.315,176.3538 10.5015,176.1237 10.7953,175.9767 10.9904,175.6969 10.9561,175.4961 10.8517,175.3983 10.6383,175.305 10.5643,175.1514 10.6496,175.0248 11.1961,174.7022 11.1625,174.5451 11.0249,174.512 10.7704,173.9787 10.718,173.6148 10.594,173.4618 10.5487,173.2391 10.4104,173.0763 10.3527,172.5724 10.0365,171.8795 9.6029,171.4536 9.4897,171.1868 9.2545,170.8954 9.3171,170.7136 9.1805,170.5463 9.2835,170.3553 9.0654,169.5618 8.9252,169.3595 8.6709,169.2434 8.5435,168.8629 8.5419,168.5653 8.2385,167.4872 8.091,167.4221 7.8572,166.6143 8.0616,166.3343 7.8136,165.62 8.0359,165.4828 7.8063,165.1475 7.3929,165.0131 7.0253,164.6214 7.1992,164.584 6.9665,164.0504 7.0245,163.367 6.8005,162.9908 6.7983,162.3956 6.7948,161.4213 6.9532,161.1916 6.8925,160.4923 7.0924,159.7193 6.9688,158.5891 6.8895,158.2984 6.597,157.9232 6.7871,157.7236 6.9618,157.3347 7.4618,155.8226 7.8589,155.3095 8.2014,155.1524 8.4096,155.057 8.6773,154.6391 8.972,154.355 8.8462,153.8782 8.9212,153.7024 9.1977,153.6401 9.4729,153.3037 9.5195,152.6905 9.2466,152.3791 9.3613,152.1383 9.0589,151.9266 9.199,151.6813 9.1713,151.1432 9.4256,150.6613 9.3085,150.3478 9.4751,149.8437 9.6262,149.1415 9.9157,148.5191 10.3629,148.4255 10.7186,148.0589 10.5518,147.7494 10.8319,147.328 10.4685,147.2046 10.6034,147.0627 11.0015,147.0164 11.3643,146.6858 11.3979,146.3025 11.2313,145.6849 10.8906,145.6303 10.3424,145.2745 9.5553,145.4744 9.4148,145.7204 9.4764,146.0035 9.2613,146.0271 9.1657,145.5303 8.8314,145.2344 8.5312,145.4402 7.8998,144.6955 7.5274,144.7829 7.2612,144.342 7.6851,144.1798 7.8188,144.0092 7.4867,143.8573 7.2493,143.8564 7.1115,143.4796 6.6256,142.7618 6.5149,142.4298 6.6332,142.1195 6.3646,141.8103 6.5832,141.4492 6.5345,141.1453 6.5699,140.8773 6.328,140.8723 6.1776,140.5286 5.9443,140.5071 5.8391,140.639 5.4785,140.5175 5.5102,140.2948 5.1035,140.1522 5.0253,139.9269 4.8723,139.6984 4.2713,139.7807 4.0888,139.351 3.5085,139.0707 3.2069,139.1819 3.0289,139.0402 3.0687,138.7721 2.9776,138.5675 2.7009,138.5878 2.4926,138.7594 2.3043,138.5273 2.3024,138.3997 2.4818,138.2361 2.447,138.1132 2.304,138.0946 2.0968,138.1745 1.8541,138.0956 1.4336,137.5105 1.4961,137.2939 1.4042,137.0331 1.1331,136.8878 1.049,136.7708 0.9944,136.4325 0.7481,136.4707 0.3962,136.0656 0.3242,135.671 0.0021,135.4185 0.0,135.2849 0.1735,135.149 0.2133,135.0611 1.1078,134.7253 1.5214,134.5039 2.9308,134.4642 4.8785,133.0455 5.2166,132.2086 5.5507,131.8136 5.3992,131.2454 5.8267,131.2191 5.2839,130.5329 5.1375,129.9389 5.5518,129.6803 5.3478,129.3453 5.2947,128.7552 5.4781,127.8485 6.1582,127.4796 6.8712,126.761 6.8398,126.15 7.5214,125.8839 7.5535,125.4725 8.129,124.7351 7.9019,124.2399 8.1431,123.168 8.8933,122.549 8.9078,122.1775 8.4904,122.0407 8.9133,121.7165 9.3186,120.9711 9.5288,120.3723 10.0178,120.0677 10.9384,120.0038 11.4986,119.5889 11.5135,119.3774 9.3557,117.0045 9.5191,116.2214 9.4948,115.3587 10.5905,113.8539 11.6223,113.1822 12.4632,112.2255 14.3028,111.2859 16.1269,110.7678 17.4421,110.6779 18.2425,110.0744 19.3795,109.6856 19.1771,109.3698 20.0791,108.8232 20.6321,108.4046 22.2675,108.211 22.9759,107.6807 23.4332,107.5382 23.901,107.5726 25.6151,108.0692 28.8605,108.794 29.1551,108.9066 29.5647,108.8077 32.6055,109.2385 33.2954,109.5324 34.3354,109.1038 34.9967,109.1647 35.6464,108.9678 37.0171,107.5699 37.3355,107.3412 37.74,107.3123 37.8544,107.0599 38.1637,106.9214 38.216,106.3706 38.6344,105.9522 39.069,105.8587 38.9848,105.2589 39.3494,105.0671 39.8654,104.6049 40.382,104.5744 40.7573,104.2775 40.9333,103.9775 40.947,103.6099 41.1974,103.3438 41.5572,103.2741 41.829,102.8868 41.6916,101.5872 42.249,101.001 41.7304,99.5192 41.8977,98.8855 41.7287,98.1247 41.9371,97.4941 41.9484,97.4601 43.2536,97.8415 46.4889,97.9722 51.3804,98.4187 52.4236,98.2751 54.0592,97.6196 54.9208,97.1639 56.6824,95.8019 57.7333,94.6835 58.9304,92.7666 60.4833,89.7843 62.1401,86.9422 64.1899,83.8163 64.8021,83.1812 66.259,82.1421 68.6308,81.2266 71.0148,80.5956 74.2768,79.3174 75.1265,79.264 75.6917,79.4625 76.1442,79.8738 77.0136,81.0875 77.7442,83.5178 78.4228,86.6129 79.8343,91.0411 80.7657,92.6648 82.0529,94.1639 83.3367,95.4374 84.3757,96.2758 85.8246,97.1888 87.2123,98.8637 87.6594,99.7144 88.1831,100.4093 89.4401,101.3475 90.0045,102.0046 90.7656,102.6042 91.2519,102.7851 92.1411,102.7915 94.5227,102.5155 97.1507,101.4269 98.954,100.9209 99.6842,100.8373 100.5314,100.8989 101.6805,101.16 104.4258,102.5009 109.0259,103.9103 110.7144,104.6482 112.7481,105.3486 113.5098,105.7225 114.6997,106.5055 115.7971,107.3838 116.9677,108.4796 117.4518,108.9329 118.0284,108.2102 118.6326,107.0427 119.0129,104.8439 119.7626,102.9739 120.0664,101.7293 120.569,100.3276 121.2907,99.0285 121.7868,97.9019 123.611,94.7955 124.4794,92.7226 124.7767,91.7541 125.1271,90.2878 125.3098,88.9749 125.4001,87.5956 125.3415,83.4178 125.4901,81.2566 125.7797,79.6553 126.0142,79.0048 126.7583,77.9159 127.4539,77.2406 128.4228,76.4916 129.7665,75.0465 132.1599,71.6981 135.4036,67.6282 141.5389,59.6633 141.7454,59.3953 141.8569,59.2505 143.493,57.127 144.1388,56.6158 146.7656,55.7642 149.1902,54.6871 150.7976,53.5805 153.2941,55.2483 153.881,55.5582 154.3182,55.5515 158.4519,53.5525 160.3771,53.1069 162.0113,52.0395 162.1363,51.9908 162.1962,51.9674 162.6625,51.7856 163.2765,51.69 164.2347,51.8236 165.9521,52.561 168.3178,52.6445 169.0693,52.8806 172.2763,54.2229 172.8023,54.289 173.601,54.2651 173.9627,54.0141 174.8825,52.8199 175.1819,52.7664 175.4077,52.8377 175.5816,53.0932 175.8031,53.7903 175.8941,54.4769 176.2251,55.511 176.822,56.8298 178.0952,58.808 178.5357,59.2568 179.9389,60.1211 180.6619,60.9846 181.1379,62.0752 182.1323,63.5244 182.4486,64.4522 183.1192,65.7502 183.5326,66.1012 184.4931,66.4802 185.9962,66.5759 186.7511,66.5578 187.1598,66.6506 187.53,66.8413 188.3015,67.5305 189.0029,67.864 190.9929,68.1557 193.4537,67.9235 201.4496,66.0338 202.1664,65.7786 204.9653,64.4027 210.2628,62.0743 211.9915,60.7413 213.4703,59.8229 213.6995,59.5122 213.9229,58.7588 214.0437,58.6361 214.7137,58.5221 215.1104,58.2663 216.2225,58.0912 217.7454,58.0627 218.705,58.2077 220.128,58.6747 221.1821,58.8851 223.4966,58.6955 224.7873,58.4014 225.7557,58.4913 226.3445,58.6374 226.7066,58.8457 227.4719,59.524 228.6409,59.6658 229.7514,60.362 232.3571,61.0231 233.6199,61.2093 234.8343,61.2053 235.05,61.1033 235.1088,61.0754 237.3858,59.9986 237.3864,59.4132 237.5126,59.0456 238.3718,57.1372 239.3459,55.4971 240.4668,54.3308 242.8653,52.4424 243.1225,52.1123 243.1438,52.085 243.168,52.054 243.2977,51.8876 243.6563,50.7233 243.9023,49.2203 244.3314,48.4483 244.6652,48.1881 246.355,47.3182 249.9538,46.0982 250.7664,45.741 251.0869,45.4922 251.2571,46.0391 252.2671,47.786 253.3676,48.9956 254.6207,50.8577 254.8677,51.5948 255.0958,51.8586 256.9341,52.0997 257.5608,52.3961 258.1414,52.5049 259.5946,53.1769 260.4745,53.8284 261.226,54.5289 262.3508,55.1577 264.2641,55.9607 265.1453,56.2039 265.7511,56.2297 266.4834,56.1052 267.8653,55.584 268.2388,55.7051 268.7023,56.0826 270.4123,56.9442 271.0268,57.0701 272.1654,57.1304 275.6494,57.7182 277.3112,58.8562 278.4316,60.1206 278.9471,60.5283 280.8519,59.8044 282.2532,58.9419 283.9578,58.4392 286.5627,57.4411 288.0209,56.7648 288.6609,56.6058 290.1005,56.5255 292.046,56.6997 293.0387,56.2926 293.4984,55.7687 294.5846,53.228 297.7908,50.0448 297.9092,49.1149 297.7978,47.1032 297.1548,45.551 297.2164,43.687 296.8012,42.2067 296.5187,39.912 296.9304,38.5853 297.1597,38.1513 299.2205,35.3291 299.8955,34.6749 300.852,33.964 301.8097,32.8667 302.4345,32.5958 303.5002,32.1835 304.0371,32.2507 304.8423,32.0917 305.7363,32.0805 307.3025,32.1712 308.1844,32.4069 311.6225,33.8347 312.2144,33.9621 313.7652,33.9784 315.0625,33.5337 315.3078,33.5228 315.8523,33.6902 316.2951,33.3678 316.5776,32.9704 317.2759,32.3674 319.8441,31.2176 320.7549,31.0039 321.3312,31.0022 322.3863,31.1636 324.7271,31.9883 326.7174,32.1378 329.6389,32.9733 330.6455,33.1161 332.6452,32.7165 333.1269,32.4923 333.4787,32.1701 334.2836,31.0248 334.4733,30.8953 334.666,30.7638 337.8679,30.4036 339.3478,30.4102 340.8898,30.789 342.0422,30.8566 342.6758,30.9972 343.5006,31.661 344.299,32.1458 345.5169,33.4166 346.1479,33.9225 346.4931,34.4297 346.7393,35.625 347.1926,36.3222 348.3052,37.0375 349.2587,37.2167 349.354,37.2346 351.5267,38.29 352.4782,38.4007 353.311,38.1694 355.2901,36.9995 356.0379,37.0019 357.2019,37.4745 357.8688,37.4075 358.6581,36.7566 359.3988,36.626 359.7812,36.364 360.3765,35.5004 360.6829,35.3249 361.5287,35.1022 362.3919,35.1547 364.0492,35.629 364.4074,35.6024 365.3284,35.1206 366.0352,34.9984 366.9627,34.6607 367.4835,34.7665 368.1109,35.2295 368.3493,35.2709 371.9535,35.1167 372.6959,34.776 373.1404,34.9081 373.6865,35.2405 374.0963,35.3126 374.4113,35.3076 375.0585,34.9609 375.696,34.9706 376.6022,34.8435 377.294,34.9683 377.9623,34.7122 378.3746,34.9231 379.0672,34.6871 379.7174,34.7238 380.773,35.5039 381.6017,35.9318 382.1726,36.35 383.5888,37.6266 384.1945,38.4409 385.5186,38.8221 386.1641,39.1164 386.3472,39.3239 386.4929,39.6509 386.6385,39.9779 386.6159,41.6305 386.6833,42.0857 386.9549,42.8098 389.2899,44.9457 389.9224,45.3847 390.3116,45.5041 390.4838,45.4508 390.4683,44.9208 390.5372,44.829 391.0048,44.723 391.1351,44.4967 391.1205,44.1429 391.266,44.0331 391.6988,44.1655 392.7753,44.1404 393.2976,44.2836 394.532,45.1297 395.1015,45.2037 394.6285,46.2121 394.5585,46.6819 394.6379,47.5494 395.2579,48.8078 396.1103,50.1023 396.9291,51.6663 397.3542,52.6673 397.4311,53.0619 397.506,54.8529 397.5424,55.7216 397.1242,58.5221 397.0414,59.0767 396.7992,59.9294 396.7811,60.4751 396.9572,61.2362 397.4418,62.1001 399.0937,63.2343 399.9927,63.9839 401.6328,65.6216 402.5684,66.3543 403.9116,67.12 405.2729,68.7606 406.0565,69.5359 408.4924,71.3978 409.0622,71.6279 409.7937,71.711 412.4906,71.7407 413.7824,71.9336 417.3504,73.3509 417.7275,73.5354 419.0688,74.5776 419.7731,74.8661 420.1901,74.8931 419.1057,75.9094 418.3041,76.2396 417.8222,76.7133 417.6457,77.0105 416.824,77.2026 416.249,77.9515 415.4297,78.4311 414.9381,79.1343 414.3741,79.3332 414.2715,79.4654 413.7865,81.275 413.0245,82.4292 412.293,83.2829 411.7456,83.6071 409.6286,84.861 408.5807,85.6085 407.104,86.4325 405.8251,88.2213 403.6796,89.9535 401.4575,92.4187 401.0707,92.9212 400.3106,94.2807 398.9183,96.4322 397.8106,97.8144 395.8229,99.7426 395.8156,99.7497 387.0252,103.4673 382.5265,105.1734 380.5785,106.2514 379.737,106.5946 377.1946,106.9602 376.4464,106.9789 373.2532,106.6394 371.8102,106.5919 370.7673,106.7656 368.7859,107.5132 367.5071,108.3248 365.9997,109.4829 365.3968,110.0737 364.3582,111.9913 363.7824,112.8571 361.5991,115.2576 361.0214,115.6888 359.5953,116.2889 356.8665,116.4194 354.1509,116.3823 352.5281,116.7068 350.2571,116.9023 349.2175,117.0876 348.4717,117.0687 348.0439,116.9698 346.6697,116.1911 345.0312,114.6724 343.7587,114.019 343.0161,113.9041 341.1551,113.9141 336.6887,114.4875 335.6617,114.54 335.1168,114.4759 333.0718,113.7441 331.9806,113.4517 330.8715,113.3041 327.9374,113.2611 327.5636,113.3438 327.299,113.517 327.403,114.1372 329.0521,116.7086 329.4735,117.7676 329.6266,119.0327 329.5815,119.7765 329.2133,120.9549 328.654,123.5376 328.8187,124.722 328.8161,125.3722 328.693,127.3012 328.6772,131.242 328.5447,131.8509 328.3747,131.9881 327.1672,132.115 326.7236,132.243 326.0184,132.7267 324.6731,134.7055 323.0995,136.1687 321.5104,137.9711 319.9968,140.0331 319.5259,140.5501 319.4464,140.6141 316.8722,142.6847 316.2813,143.0331 314.7153,143.6494 313.5727,144.5284 311.9671,144.7224 310.7769,144.9701 307.4238,146.5141 304.0453,148.9904 303.2594,149.7242 302.4979,150.6872 302.4051,151.4638 302.595,151.9515 303.3956,153.2993 303.5112,153.7895 303.5128,154.3958 303.148,155.4356" stroke="black" /></svg>