<?xml version="1.0" encoding="utf-8" ?>
<svg baseProfile="tiny" height="500" version="1.2" width="429.5441" xmlns="http://www.w3.org/2000/svg" xmlns:ev="http://www.w3.org/2001/xml-events" xmlns:xlink="http://www.w3.org/1999/xlink"><defs /><polygon fill="none" points="178.039,469.9598 177.8067,469.8498 177.7661,469.8306 177.7416,469.8118 176.8105,469.0982 173.6128,465.4131 172.843,464.8606 171.3563,464.287 170.5569,463.9785 169.9343,463.8142 168.6927,463.6728 167.3933,463.6241 166.1088,463.2815 165.7659,463.1071 164.8142,462.422 164.3061,462.2219 164.1979,462.1793 164.1097,462.1446 163.9247,462.0717 163.048,461.9628 162.8546,461.9388 160.0845,461.5947 159.5271,461.5907 157.9068,461.8153 155.9421,461.8661 154.4412,461.7316 152.9298,461.3449 150.9442,460.6161 148.8109,459.2276 147.6526,458.6053 146.9572,458.3248 145.5343,457.4997 144.7026,456.867 143.1209,455.8858 142.5422,455.413 141.3111,453.9676 140.7328,453.424 140.4838,453.2318 140.0547,453.0601 138.8755,453.0993 138.0717,453.4082 136.5208,453.6254 135.5437,453.6627 134.4179,453.5506 132.7448,453.2464 131.2536,452.785 128.8355,452.2693 126.4547,451.6288 125.3195,451.2342 124.1525,450.6946 124.0928,450.3346 123.7691,448.3819 123.7496,447.0962 123.9663,446.5051 124.3712,446.0674 125.5049,445.3828 126.8559,444.2323 127.3654,443.6532 128.0259,442.6628 128.2141,441.6544 128.3434,440.9617 128.3705,440.1683 128.1661,439.1539 127.706,438.1575 126.9088,437.4623 126.5498,437.0554 125.8469,435.4002 125.3368,434.7418 124.7368,434.2794 123.213,433.3895 122.5107,433.0866 120.8353,432.5967 120.2631,432.3383 119.969,432.0562 119.8392,431.8374 119.4627,430.5723 119.1188,430.1612 118.4621,429.6675 116.4698,427.5321 115.8615,426.3252 115.3754,425.6581 115.1203,425.0733 115.0447,424.9 114.3022,423.6705 113.0793,422.6073 111.8837,421.2685 111.3664,420.5165 111.0143,419.5898 110.9711,418.9413 111.3521,418.0266 111.6147,417.7018 111.9172,417.4691 112.3872,417.2592 113.003,416.8656 113.9241,416.2204 114.5529,415.5051 115.1125,414.0078 115.7787,412.6049 116.4,410.7132 118.2952,405.6878 118.5696,404.5981 118.71,403.5376 118.7391,401.2161 118.5746,399.3167 118.6991,397.8866 119.0468,397.004 119.2368,396.246 119.5629,395.6939 119.6493,395.5519 119.7199,395.4327 119.7212,395.4306 120.1388,394.7259 120.6451,393.6598 120.8915,392.8926 121.005,392.0999 120.9425,391.2492 120.7208,390.5546 120.6735,390.1414 120.9075,389.465 121.1653,389.2831 121.5843,389.1655 122.4219,388.7778 122.6828,388.4201 122.9379,387.8247 123.0478,387.196 123.0877,386.2053 122.979,383.477 122.6989,381.2246 122.7736,379.5046 122.9166,378.8738 123.4204,377.3354 123.7435,376.6393 124.0275,376.21 125.2227,375.0107 126.5625,373.2141 126.7778,372.8358 127.3911,370.759 127.8711,368.6007 128.0629,367.1364 128.039,366.0118 127.8952,365.4114 127.379,364.4984 126.8094,363.8353 126.4159,363.5403 125.9737,363.4509 125.4425,363.4624 124.8643,363.6193 124.3272,363.9425 124.0144,363.9984 123.7294,363.8901 123.469,363.5772 123.4332,363.1026 124.0295,361.9567 124.1942,361.4021 124.4886,359.737 124.813,358.9582 125.1761,358.4894 125.9174,357.8745 126.8896,356.7765 127.4804,355.9206 127.6704,355.0989 127.6386,354.4171 127.172,351.4225 126.014,349.2192 124.675,347.3844 123.1904,346.1055 122.6786,345.0235 122.5225,343.7853 122.5392,342.7956 122.8156,342.1391 123.453,341.2429 123.9841,340.0968 124.5038,336.9696 125.1905,333.7104 125.1384,332.7879 125.2466,329.2222 125.0675,328.024 124.901,327.4847 124.5427,326.4505 124.1776,325.8198 123.8374,325.0102 123.3328,323.4961 123.1271,322.5874 122.6458,319.4113 122.0623,318.2489 122.0933,316.5594 122.0123,315.7605 122.2396,316.2266 122.4728,316.4756 123.583,317.1956 124.8522,317.3821 125.7117,317.8818 126.5741,318.9287 127.1656,319.4524 127.4918,319.9937 127.6093,320.5035 127.8885,320.8479 128.158,321.0492 130.2367,321.9249 130.9759,322.3874 131.7558,323.0764 132.9007,323.6759 133.2873,323.9872 133.8461,324.8783 134.6064,325.5344 134.9763,326.2 135.4492,326.6269 136.6,326.9797 137.629,327.3969 137.989,327.6085 138.1121,327.7835 138.1802,328.5129 138.5809,329.0938 138.7616,329.7382 139.1224,330.4538 139.3162,330.6847 140.115,331.158 140.5883,331.1873 141.6831,330.9887 142.54,330.9584 143.7361,330.7438 144.2854,330.7344 146.309,330.7007 146.9771,330.8201 147.7463,331.0804 149.1008,331.3892 150.0906,331.5166 153.0955,331.605 154.7299,331.4483 156.1651,331.5739 157.1917,332.0344 158.2449,332.6744 159.3131,333.1017 160.2309,333.3202 160.8334,333.1538 161.0768,332.9753 161.1843,332.8002 161.3254,332.0526 161.5364,331.5213 161.732,331.3062 162.0806,331.1781 162.9154,331.2396 163.5389,331.1508 163.8079,331.1785 164.2748,331.3472 165.4265,331.9398 166.3157,332.2105 168.9207,332.2551 173.347,331.3541 174.2469,330.9216 174.8907,330.3791 175.476,329.7367 181.7177,324.2128 182.4028,323.2984 184.0946,322.052 184.2374,321.9469 184.9854,321.3959 185.7348,320.7385 186.2717,320.3857 186.9713,320.0536 187.5983,319.2234 188.2765,318.6605 188.7652,318.0886 189.5651,317.6202 190.3437,316.8153 190.7741,316.2099 190.8997,316.1475 191.3019,316.1445 192.1823,316.5357 192.3789,316.4718 192.5161,316.3346 192.6826,316.0661 192.9022,315.1754 193.2577,314.3275 193.9299,313.4149 194.4055,312.4396 195.3606,311.6891 195.6667,311.2533 195.8924,310.4463 196.0837,309.2439 196.319,308.7515 196.5926,308.4933 196.8898,308.3665 197.8615,308.3537 198.3944,308.1585 198.5001,307.9142 198.5323,307.5714 198.4178,306.7159 198.5688,306.7762 199.1794,307.7621 199.5571,308.0113 200.8875,308.5333 201.5408,308.982 202.0726,309.0829 203.0283,308.6186 203.3395,308.537 204.5779,308.2121 205.7291,308.2052 206.1899,308.3874 207.0141,309.1245 207.4275,309.6962 208.4765,310.8371 209.1798,312.4195 209.8708,313.2963 210.3147,313.505 210.7571,313.5549 211.9148,313.2678 212.7409,313.2139 213.2659,313.3781 214.0493,313.8417 215.1568,314.2515 215.6019,314.6134 216.3227,315.7822 216.72,316.2349 217.487,316.8615 217.8561,317.0397 218.3079,317.0472 218.6452,316.9536 218.8345,316.7843 219.1862,315.9567 219.351,314.8877 219.6247,314.5224 220.0964,314.2807 223.0395,313.2664 225.9203,312.7389 226.791,312.399 228.2913,311.589 230.7359,310.9546 231.4693,310.9393 232.4269,311.2173 233.0051,311.5303 233.6145,312.117 235.1616,314.1218 235.4893,314.3499 235.8195,314.456 236.3587,314.4746 236.9557,314.2445 237.6209,313.7792 238.2931,313.1114 239.4989,311.7269 240.1963,311.1134 241.0663,310.1855 241.7798,309.1018 242.292,308.1088 243.2636,306.5526 243.541,304.5209 243.8715,303.2681 244.0823,302.7416 244.5897,301.9973 246.0683,300.4217 246.2159,300.3471 246.4522,300.3717 246.5756,300.4528 247.0042,300.7375 247.667,300.9693 248.4207,301.9049 249.3483,302.7914 249.7785,302.9956 250.9696,303.3527 251.9364,303.4258 252.6524,303.3797 253.2184,303.2613 254.3699,302.5815 255.3065,302.483 257.1308,302.6559 258.5025,303.2463 259.049,303.4002 259.8486,303.4262 260.5268,303.348 263.0158,302.8575 263.9644,302.8207 264.4201,302.9419 265.3148,303.36 265.5588,303.5453 266.1023,304.1751 266.6037,304.4288 267.1298,304.4282 267.4019,304.3471 268.5355,303.6084 269.3263,303.1967 270.3519,302.89 273.3587,302.4928 275.6979,302.3182 276.4496,302.3226 277.2014,302.327 279.8134,302.0558 281.175,301.6757 282.6264,300.9456 283.5116,300.6285 283.8998,300.3362 284.1336,299.1118 284.4443,298.7022 284.9983,298.2882 285.1554,298.0648 285.3722,297.352 285.7171,296.976 287.9036,295.0574 288.5705,294.8865 288.9887,294.4963 289.63,294.3901 289.5975,294.0269 289.8871,293.8078 289.9203,293.6651 289.8518,293.4349 290.1322,292.9454 290.5721,292.6614 290.936,292.0677 291.701,291.7681 291.9577,291.6043 292.203,291.1701 292.3579,289.7216 292.1346,287.6218 291.8725,286.8545 291.6086,285.531 291.5787,284.3259 291.7085,283.991 291.4337,283.5272 291.5383,283.1226 291.7519,282.8955 291.7815,282.7571 291.5309,282.0082 291.5307,281.9287 291.5294,281.3785 291.1656,281.0136 292.3406,280.7671 292.7149,280.5802 293.6068,279.5561 294.522,278.1826 294.9495,277.8144 295.1824,277.7369 295.818,277.7177 296.3365,277.7803 298.3823,278.2592 298.8067,278.242 299.231,278.2248 299.5637,278.0229 299.7067,277.8372 300.1843,276.5439 300.4191,276.1459 300.7246,275.8807 301.2561,275.7419 301.483,275.7451 303.3233,276.4444 304.4472,276.6639 305.5041,276.6517 307.789,276.2711 308.808,276.2563 309.1477,276.3409 309.7363,276.6664 310.9244,278.2623 312.4028,279.4437 312.8333,279.7877 313.3092,280.4719 314.0611,281.2973 314.8092,282.5306 314.9507,282.9565 314.8972,283.6339 314.6002,283.903 313.7453,284.2953 313.5492,284.4608 313.2897,284.8186 313.2422,285.3685 313.3177,285.9622 313.3113,286.0283 313.2482,286.6844 313.0576,287.294 312.5458,287.5923 310.987,288.0157 310.6236,288.4275 310.251,289.34 309.6696,290.2485 309.2481,290.5213 308.86,290.5164 308.3841,290.3982 307.4363,290.0253 306.5438,289.8446 305.6192,289.8604 304.9009,290.0448 303.0915,291.2314 302.1522,292.1365 301.6343,292.8247 301.1389,293.8731 300.3171,295.0035 299.5875,295.8509 299.2759,296.6825 299.0602,299.0166 299.2623,301.2683 299.9647,303.8906 300.6701,304.7067 301.2324,304.9368 301.5628,304.858 301.8097,304.3328 302.1304,302.8921 303.768,297.3834 304.3209,296.5565 305.1352,296.0401 305.9711,295.8299 306.7747,295.9534 307.3675,296.2374 307.7787,296.6605 309.2143,299.4175 309.7874,300.9541 309.8573,301.0319 310.5201,301.7704 311.1129,302.0838 312.095,302.3188 315.1498,303.2789 316.611,303.3807 317.2642,303.6153 317.6154,304.0919 317.7285,304.3986 317.6029,304.7578 315.9266,307.0419 314.569,308.3171 313.574,309.0524 312.3102,309.8136 311.6483,310.0272 310.7164,310.459 310.0475,311.2004 309.2855,312.3011 308.9695,313.0894 308.6646,313.8494 308.1465,314.5363 307.7526,314.8654 307.5088,315.2506 307.3782,315.8045 307.4089,317.7401 307.374,317.8055 307.3695,317.814 307.3684,317.8161 307.3635,317.8254 307.3511,317.8485 307.3493,317.852 307.3483,317.8539 307.3466,317.857 306.7329,319.0094 306.6913,319.7311 307.3289,320.9075 307.5308,321.1266 308.0025,321.6402 308.2617,322.3103 308.3412,322.9234 308.2143,323.5046 308.293,324.1171 308.5224,324.6869 309.1109,325.2223 311.2461,326.0588 312.1022,326.6545 313.193,328.6146 314.2226,329.5746 315.5856,330.315 316.5505,330.5783 317.5154,330.8415 318.4931,331.2445 319.6859,333.2472 320.8339,334.2911 321.3306,334.8813 322.8523,339.3912 323.0961,340.1137 323.4124,341.0521 324.1696,342.2871 325.1476,342.8006 325.8314,342.8645 326.6995,342.7367 327.0861,342.7997 327.6869,343.7242 328.2479,343.9541 328.7875,343.9603 329.4498,343.5808 330.2389,342.7293 331.0998,341.1283 331.4328,340.9129 331.8793,340.9181 331.9343,341.2251 331.4431,342.1075 331.434,342.4962 331.9031,343.3086 332.1231,344.3973 332.6818,344.7644 333.0986,344.7967 333.5504,344.5526 334.4261,343.927 335.1175,343.6022 337.5025,343.6056 337.8321,343.3057 337.8086,342.9163 337.5413,342.8015 336.2903,342.6458 335.7893,342.2497 335.5876,341.7732 335.8647,341.2502 336.1994,340.8375 337.5493,340.3831 338.3332,339.8921 338.6386,339.4526 338.648,338.8693 338.5348,338.4235 338.0973,337.7777 337.897,337.2207 337.9322,336.8862 338.1447,336.6675 338.5318,336.7276 339.0322,337.0957 339.4195,337.2678 339.8682,337.1623 340.1092,336.9704 340.5679,336.3089 341.0191,336.0389 341.2609,335.9862 341.5857,336.1035 342.1162,336.4983 342.6452,337.0332 343.5642,337.656 344.3567,338.3072 344.5307,338.7429 344.3415,339.1293 343.8649,339.2345 343.1195,339.1964 342.3712,339.2983 341.8895,339.5961 341.7037,340.0671 341.7274,340.3998 341.9929,340.7106 342.705,340.8586 343.842,340.7062 344.7856,341.4155 345.0732,342.087 344.9116,342.9453 344.6669,343.2186 344.3686,343.2436 343.5788,342.26 342.6282,341.9988 342.0856,342.351 341.9895,342.7391 342.0427,343.1007 342.339,343.2996 343.2881,343.7008 343.9931,344.3228 344.2222,345.0206 344.2405,345.7699 343.8071,346.7941 343.5503,347.8739 343.5065,349.0099 343.8115,350.3482 344.3231,352.0928 344.2618,352.2111 344.2004,352.3293 343.7339,353.2285 343.3261,353.8072 342.8007,354.5528 342.09,355.259 341.3039,355.6619 339.4545,356.6096 339.1558,356.8177 339.1411,356.8279 339.1333,356.8334 339.1134,356.8472 339.1099,356.8497 339.1043,356.8536 339.0988,356.8574 338.5743,357.2228 337.6518,358.117 336.7406,358.684 335.7647,359.134 334.8671,359.9334 333.7781,361.9925 332.9368,362.9855 332.2846,364.9431 332.183,365.1355 331.0578,367.2675 330.8207,368.1625 330.7716,368.9112 329.847,371.4287 329.1114,372.0457 328.3683,372.9772 327.7251,373.612 326.0031,374.7942 325.2766,375.1337 324.5173,375.2171 325.4516,377.174 325.4629,377.1976 325.4698,377.2119 325.4732,377.2191 325.4787,377.2306 325.4883,377.2508 328.8666,384.326 330.07,386.8465 330.4423,387.6262 330.5322,387.8145 336.5472,400.4119 337.704,402.8346 338.1083,403.6813 338.8543,405.2436 338.8663,405.2689 338.8749,405.2868 340.7768,409.27 341.1047,409.956 341.4091,411.0263 341.4245,411.0804 341.4385,411.1298 341.483,411.2863 343.2555,417.5196 347.6288,432.8992 348.3226,434.2988 348.3687,435.1155 348.7279,436.0023 349.2229,436.7421 349.3514,437.048 349.4184,438.4907 350.5163,440.7472 350.9831,441.4217 351.4357,442.5921 351.6161,443.8754 351.5527,444.0971 351.0895,444.777 350.6406,446.2456 349.9987,447.7901 349.9173,448.7902 349.9056,448.9331 349.8795,449.2497 349.2136,450.691 349.1683,452.1755 348.9118,453.4429 348.5796,454.0963 347.278,454.9584 347.0588,455.1971 346.3127,456.3948 345.4463,456.9314 345.0303,457.7899 344.8483,458.0298 343.2705,459.2386 342.2587,459.7582 341.7144,460.1785 340.728,461.6185 340.0623,461.8171 338.2428,462.1271 335.5949,462.3137 334.8838,462.559 334.1348,462.6338 332.3674,462.3223 330.8068,462.4303 329.7428,462.2425 327.1286,461.3213 326.0279,460.8314 324.31,460.4477 323.1331,460.4423 322.4632,460.5851 321.8482,460.8466 321.1947,460.9236 320.2514,461.1421 319.6115,461.8084 319.1746,462.0876 318.6566,462.3031 318.5758,462.3995 318.5855,462.8155 318.0547,463.1882 317.7171,463.7173 317.3419,463.9729 316.6283,464.1854 316.5269,464.2799 316.3658,464.81 315.8051,465.3001 315.7472,465.665 315.6104,465.9191 315.2725,466.1432 315.0214,466.3096 314.584,467.7259 314.2997,469.2555 314.1525,471.1124 314.0511,471.5154 313.8956,471.9292 313.569,472.3759 313.2914,472.5687 312.7158,473.529 312.5893,474.6461 312.5687,475.9771 312.7428,477.0446 312.6333,478.2464 312.4076,479.0528 311.7022,480.0626 310.9968,481.0723 310.48,481.6383 309.9342,482.0466 308.6617,482.6798 307.337,483.1444 307.1325,483.2992 306.2761,484.451 305.4033,486.1206 304.7247,486.7429 303.9834,487.9571 303.2376,488.9874 302.8715,489.3378 302.2821,489.5667 301.6139,489.6562 300.3708,490.2279 297.7868,490.4342 297.0512,490.616 295.6426,491.2254 295.2335,491.6294 295.0691,492.2492 294.8481,492.439 293.4233,493.0749 291.8113,495.0614 290.8995,496.03 290.352,495.6742 290.116,495.4307 289.7005,494.7231 289.3969,493.6826 288.8814,492.6747 288.5709,491.6947 288.5767,491.2235 288.4979,490.9266 288.1148,490.3533 287.6857,489.9555 287.2976,489.7771 286.654,489.7024 285.8979,489.7604 283.2224,490.344 282.305,490.3555 281.8022,490.2315 281.2391,489.9288 281.0535,489.693 280.7628,488.09 280.4932,487.5589 279.9761,487.0647 279.1647,486.5273 278.3111,486.1352 276.9884,485.9578 276.3752,485.6816 275.7033,485.1007 274.7244,484.6235 274.0841,484.4296 273.5255,484.3723 272.9823,484.3682 271.4576,484.5686 270.2823,484.2737 269.2673,483.9092 268.2153,483.7211 267.1763,483.6445 266.1401,483.7504 265.2307,484.0204 263.9894,484.4895 262.9826,484.9825 262.5187,485.1165 260.971,485.1378 260.0201,485.0967 259.3588,484.9855 258.0998,484.5708 257.43,484.2038 256.9662,483.6806 256.0374,481.7463 254.9356,479.9129 254.4126,478.7742 254.255,478.2216 254.0097,476.795 254.0428,476.0386 254.1666,475.3715 254.713,473.6218 254.7048,473.1855 254.4009,472.6312 253.5802,471.8498 253.1157,471.4981 252.5065,471.1923 251.3641,470.8993 248.6504,470.6369 247.9441,470.6422 246.5439,470.828 241.8005,471.8499 241.331,472.0225 239.0856,472.5685 237.4207,473.0925 236.9626,473.2367 234.3425,473.7245 232.7164,474.1924 231.8618,474.5774 229.573,476.2734 228.8754,476.6471 225.9533,477.5825 224.7582,477.7064 223.4957,478.1621 222.3569,478.8121 221.7737,479.0313 221.0877,479.0965 218.7408,478.9535 217.3515,479.1336 216.9437,479.2518 212.4892,481.176 212.4668,481.1857 211.6462,481.5398 209.3752,483.8052 208.7933,483.99 208.13,483.866 206.7842,483.2947 206.3052,483.1589 204.7419,483.0444 203.8845,482.8192 203.1602,482.48 202.5307,481.9703 200.5116,479.7014 198.2486,477.6824 196.5965,476.6238 193.8518,475.5993 192.7868,475.0387 192.617,474.8756 192.2568,474.2765 191.3796,472.4905 190.8012,471.8261 189.6912,470.9868 186.8495,469.7162 186.4655,469.589 185.8066,469.506 184.6202,469.6208 183.4566,469.9587 181.7676,470.6504 181.0665,471.0344 180.4748,471.1866 179.7231,471.0646 178.6724,470.2598 178.1132,469.995 178.0454,469.9628 178.039,469.9598" stroke="black" /><polygon fill="none" points="338.8663,405.2689 338.8543,405.2436 338.1083,403.6813 337.704,402.8346 336.5472,400.4119 330.5322,387.8145 330.4423,387.6262 330.07,386.8465 328.8666,384.326 325.4883,377.2508 325.4787,377.2306 325.4732,377.2191 325.4698,377.2119 325.4629,377.1976 325.4516,377.174 324.5173,375.2171 325.2766,375.1337 326.0031,374.7942 327.7251,373.612 328.3683,372.9772 329.1114,372.0457 329.847,371.4287 330.7716,368.9112 330.8207,368.1625 331.0578,367.2675 332.183,365.1355 332.2846,364.9431 332.9368,362.9855 333.7781,361.9925 334.8671,359.9334 335.7647,359.134 336.7406,358.684 337.6518,358.117 338.5743,357.2228 339.0988,356.8574 339.1043,356.8536 339.1099,356.8497 339.1134,356.8472 339.1333,356.8334 339.1411,356.8279 339.1558,356.8177 339.4545,356.6096 341.3039,355.6619 342.09,355.259 342.8007,354.5528 343.3261,353.8072 343.7339,353.2285 344.2004,352.3293 344.2618,352.2111 344.3231,352.0928 344.3845,352.1733 344.7457,352.6468 345.2035,352.9292 345.6734,353.1149 347.2104,353.7221 349.1709,354.9898 350.3023,355.449 350.7274,355.4334 351.2286,355.2872 352.0506,354.7714 352.4899,354.2094 353.4988,352.5146 354.8742,352.1464 356.5416,351.3623 356.5988,351.2703 356.6559,351.1784 356.6155,350.9695 356.4533,350.809 356.2676,350.7846 355.0823,351.0182 354.6045,350.9774 354.3871,350.6296 354.4234,350.2265 355.0784,349.3259 355.4675,348.603 355.6957,347.8238 356.3468,346.1475 356.6265,345.8657 356.9846,345.6541 357.3011,345.5695 357.4777,345.6069 357.5576,345.8023 357.5566,346.4327 357.665,347.0579 357.8446,347.4827 358.0725,347.6733 358.4129,347.7969 358.7421,347.7852 359.8028,347.0313 360.1157,347.0413 360.4837,347.2827 360.7431,347.9162 361.1146,348.3365 361.5061,348.5307 361.9351,348.61 362.4757,348.5828 363.0164,348.5556 363.4004,348.6591 363.5899,348.9002 363.6515,349.2475 363.5271,349.5647 363.0138,350.0354 362.4452,350.7365 362.2298,351.2199 362.1927,351.6839 362.3059,352.0794 362.5824,352.4743 363.069,352.6652 363.6133,352.6724 364.6734,352.4783 365.4022,352.5177 365.5221,352.5788 365.6419,352.6399 365.737,352.9745 365.8101,353.8971 366.1838,354.7475 367.0256,355.7351 367.4044,356.5035 367.5947,356.5886 367.818,356.5918 368.0883,356.4573 368.1829,356.1952 368.2201,355.6276 368.0185,355.2646 367.8755,354.7368 367.9724,354.4458 368.1065,354.2961 368.2712,354.2367 368.4358,354.1773 369.2208,354.4347 369.9047,354.5285 370.2471,354.4623 371.0871,353.9898 371.3884,353.9792 371.7586,354.1092 371.9487,354.237 372.3165,355.4606 372.4789,355.6567 372.8176,355.7453 373.3736,355.7765 374.0889,355.686 374.2675,355.6634 375.1981,355.2339 375.8407,355.0873 376.4368,355.0405 376.9269,355.1165 377.4171,355.1924 379.9169,356.2655 380.7893,356.7479 380.928,356.8612 382.4789,358.1279 382.8764,358.2649 382.9222,358.2807 382.9514,358.2907 382.995,358.3057 383.0298,358.3177 383.049,358.3244 383.0632,358.3292 383.36,358.4315 383.6673,358.4398 383.6791,358.4401 383.6983,358.4406 383.7281,358.4414 383.7936,358.4432 383.8239,358.444 383.8497,358.4447 383.8872,358.4457 384.1687,358.4533 384.1779,358.4535 384.2149,358.4545 384.2528,358.4556 384.4144,358.4599 384.4172,358.46 384.4197,358.4601 384.4804,358.4617 384.5379,358.4633 384.5534,358.4637 384.5749,358.4643 384.8321,358.4714 385.1246,358.4794 386.2461,358.5101 386.5385,358.403 386.8309,358.2959 387.5679,357.8073 388.6095,356.975 388.7453,356.9483 389.1303,356.8726 390.4033,356.8868 390.8962,356.7562 391.1998,356.4545 391.278,356.1364 391.1481,355.8026 390.688,355.2906 390.3911,354.9602 390.2279,354.7786 389.9686,354.1221 389.9325,353.5702 390.0733,353.1271 390.4073,352.6736 390.8642,352.2574 391.0926,352.0492 391.321,351.8411 391.9205,351.571 394.2518,351.0467 395.142,351.1686 395.8542,351.345 396.62,351.7975 396.8467,352.1923 396.9711,352.4131 397.1342,353.3311 397.3073,353.8044 397.6609,353.9189 398.1665,353.9248 399.2822,352.9697 399.8554,352.6447 401.0263,352.3966 401.7571,352.3357 402.2322,352.3988 402.6468,352.5695 402.9984,352.9353 403.2704,353.7423 403.3122,354.8508 403.4016,355.3374 403.491,355.8241 403.8105,356.3814 404.31,356.7997 404.9608,357.1276 405.7022,357.3579 406.4185,357.3115 406.5984,357.0927 406.6026,356.8567 406.4733,356.5502 405.3427,355.4835 405.0535,354.9102 405.0463,354.411 405.2314,353.8994 405.5668,353.4466 406.213,353.0807 406.7591,352.9426 407.3053,352.8044 410.1372,352.7987 411.1481,353.0197 411.8404,353.3759 411.9227,353.4183 412.005,353.4606 412.5598,354.2025 413.3057,357.0539 413.6949,357.9196 414.4719,358.7472 415.7051,359.5911 417.0092,360.2173 417.3416,360.2844 417.674,360.3515 418.4345,360.2879 418.4721,360.2847 418.5207,360.2807 418.5389,360.2792 419.3778,359.9561 421.024,358.3977 421.5504,358.0578 422.057,358.023 422.6107,358.1597 416.8638,375.152 416.7999,375.3412 416.9398,375.295 418.3349,374.8347 419.6042,374.0631 420.4074,373.1406 420.8664,372.9658 421.0866,372.9831 421.2581,373.0836 421.8313,373.5972 422.2414,373.8282 423.5909,374.2655 424.2848,374.6327 424.6758,374.9505 424.8286,375.1637 424.9931,376.651 425.5339,377.7781 425.6722,377.9723 426.3144,378.3963 426.5287,379.0252 426.6669,379.2194 426.9376,379.3989 427.5068,379.6007 427.8648,380.0772 427.9162,380.5494 427.5791,381.273 427.4908,381.7364 427.5241,382.4534 427.7547,382.9837 428.3675,383.8804 428.5377,385.117 428.9332,385.9193 429.2925,386.2378 429.4153,386.5012 429.5241,386.7729 429.5441,387.4184 428.3692,388.2938 427.7614,389.0066 426.7602,389.7991 425.9689,390.9023 425.0828,391.8333 424.8704,392.2047 424.8291,392.3635 424.7878,392.5223 424.7665,393.1612 424.9037,393.899 424.895,394.4716 425.0784,395.7112 424.8877,396.444 424.8013,398.2267 424.9935,399.3399 424.7303,400.1059 424.3535,400.8243 424.5365,401.5846 424.4974,402.1998 424.5969,402.9847 424.4882,403.2957 423.9731,403.8954 424.0399,404.7699 423.1991,407.2869 422.1228,410.0001 422.0642,410.4363 422.1245,410.8724 422.078,411.5215 422.2403,412.0784 422.2076,412.3352 421.8176,412.9555 421.8333,413.4396 421.5683,414.1385 421.4319,414.7614 421.189,415.097 420.9507,416.0312 420.5608,416.6998 419.8463,417.5997 419.8416,417.9329 419.9619,418.3427 419.8958,418.7799 419.3304,420.3066 419.112,421.8088 418.7147,422.9841 418.3595,423.7576 418.1332,424.5668 418.1296,425.2119 418.5144,425.9036 418.9468,426.4253 418.9786,427.2795 419.1085,427.6692 419.9313,428.7347 420.1482,430.6185 420.0807,431.577 419.9248,432.0943 419.7358,433.2594 418.9935,435.0329 418.9122,435.454 418.5163,435.9885 418.058,436.2263 417.5869,436.7339 417.5119,436.8148 417.093,437.8162 416.8432,438.1374 415.0852,439.5679 413.9267,440.5097 413.2413,440.7795 412.4816,441.7331 410.062,442.3892 409.5946,442.4601 408.6182,442.4337 405.4323,442.769 404.3487,443.497 403.4299,444.0075 403.1129,444.4638 402.796,444.9201 402.4572,445.555 402.4217,445.6909 402.4124,445.7268 402.4079,445.744 402.4031,445.7622 402.3813,445.8457 401.9615,447.4537 401.5391,448.4336 401.5569,449.1275 401.9028,450.4099 401.9808,451.1888 401.9743,452.0649 401.8336,453.0769 400.8183,454.5444 400.5395,455.2432 399.9824,456.0259 399.2915,457.8363 399.0942,458.1497 398.3418,458.9953 397.9776,459.774 397.4165,460.461 397.095,461.1091 396.9393,463.3615 396.7337,468.5617 396.7327,468.5881 396.7321,468.6025 396.7316,468.6153 396.731,468.6302 396.7248,468.7885 396.6878,469.7224 396.6877,469.7265 396.6874,469.7334 396.6803,469.912 396.6523,470.6206 396.6499,470.683 396.6486,470.7147 396.648,470.7308 396.6451,470.8032 396.6444,470.8207 396.6205,471.425 396.6187,471.4714 396.6175,471.5014 396.6159,471.5433 396.6139,471.5917 396.5727,472.6342 395.9944,474.9758 394.8729,477.2376 394.6088,477.6252 394.3448,478.0128 394.101,478.8683 393.6533,479.7212 393.0745,480.2081 392.7548,480.7702 392.3908,481.2047 391.3141,481.866 391.1367,482.047 390.5261,482.9439 389.5183,483.9731 389.328,484.3057 389.08,485.2313 388.77,485.8224 388.4095,486.312 388.0518,487.0575 386.4398,488.9483 386.3196,489.0146 386.2995,489.0257 385.9024,489.2446 385.1456,489.3347 384.2408,489.6158 383.0815,490.3862 382.1821,490.5005 381.8961,490.5987 381.1972,491.3846 380.3867,491.9478 379.6389,492.9085 379.3445,493.112 378.9492,493.2526 378.418,493.3086 377.5241,492.9987 375.8232,495.6691 373.8831,498.0704 372.1199,499.5127 370.754,500.0 369.9384,499.9897 368.3103,499.8157 367.1812,498.9923 366.1236,497.0569 365.1611,494.8921 364.653,493.7495 364.2746,493.1883 364.1391,492.852 364.1055,492.7686 363.4764,491.209 362.6414,489.8058 362.1087,488.2344 361.049,485.9115 359.0828,483.8359 357.7806,481.8918 357.0663,480.6436 356.492,480.0542 355.5243,479.2582 353.2305,476.7813 352.075,474.9828 350.4403,471.8471 349.1267,469.9705 348.4433,468.7454 346.6522,466.0283 346.3314,465.645 346.2235,465.5159 345.1252,464.4909 342.9292,463.1165 340.728,461.6185 341.7144,460.1785 342.2587,459.7582 343.2705,459.2386 344.8483,458.0298 345.0303,457.7899 345.4463,456.9314 346.3127,456.3948 347.0588,455.1971 347.278,454.9584 348.5796,454.0963 348.9118,453.4429 349.1683,452.1755 349.2136,450.691 349.8795,449.2497 349.9056,448.9331 349.9173,448.7902 349.9987,447.7901 350.6406,446.2456 351.0895,444.777 351.5527,444.0971 351.6161,443.8754 351.4357,442.5921 350.9831,441.4217 350.5163,440.7472 349.4184,438.4907 349.3514,437.048 349.2229,436.7421 348.7279,436.0023 348.3687,435.1155 348.3226,434.2988 347.6288,432.8992 343.2555,417.5196 341.483,411.2863 341.4385,411.1298 341.4245,411.0804 341.4091,411.0263 341.1047,409.956 340.7768,409.27 338.8749,405.2868 338.8663,405.2689" stroke="black" /><polygon fill="none" points="291.1656,281.0136 291.5294,281.3785 291.5307,281.9287 291.5309,282.0082 291.7815,282.7571 291.7519,282.8955 291.5383,283.1226 291.4337,283.5272 291.7085,283.991 291.5787,284.3259 291.6086,285.531 291.8725,286.8545 292.1346,287.6218 292.3579,289.7216 292.203,291.1701 291.9577,291.6043 291.701,291.7681 290.936,292.0677 290.5721,292.6614 290.1322,292.9454 289.8518,293.4349 289.9203,293.6651 289.8871,293.8078 289.5975,294.0269 289.63,294.3901 288.9887,294.4963 288.5705,294.8865 287.9036,295.0574 285.7171,296.976 285.3722,297.352 285.1554,298.0648 284.9983,298.2882 284.4443,298.7022 284.1336,299.1118 283.8998,300.3362 283.5116,300.6285 282.6264,300.9456 281.175,301.6757 279.8134,302.0558 277.2014,302.327 276.4496,302.3226 275.6979,302.3182 273.3587,302.4928 270.3519,302.89 269.3263,303.1967 268.5355,303.6084 267.4019,304.3471 267.1298,304.4282 266.6037,304.4288 266.1023,304.1751 265.5588,303.5453 265.3148,303.36 264.4201,302.9419 263.9644,302.8207 263.0158,302.8575 260.5268,303.348 259.8486,303.4262 259.049,303.4002 258.5025,303.2463 257.1308,302.6559 255.3065,302.483 254.3699,302.5815 253.2184,303.2613 252.6524,303.3797 251.9364,303.4258 250.9696,303.3527 249.7785,302.9956 249.3483,302.7914 248.4207,301.9049 247.667,300.9693 247.0042,300.7375 246.5756,300.4528 246.4522,300.3717 246.2159,300.3471 246.0683,300.4217 244.5897,301.9973 244.0823,302.7416 243.8715,303.2681 243.541,304.5209 243.2636,306.5526 242.292,308.1088 241.7798,309.1018 241.0663,310.1855 240.1963,311.1134 239.4989,311.7269 238.2931,313.1114 237.6209,313.7792 236.9557,314.2445 236.3587,314.4746 235.8195,314.456 235.4893,314.3499 235.1616,314.1218 233.6145,312.117 233.0051,311.5303 232.4269,311.2173 231.4693,310.9393 230.7359,310.9546 228.2913,311.589 226.791,312.399 225.9203,312.7389 223.0395,313.2664 220.0964,314.2807 219.6247,314.5224 219.351,314.8877 219.1862,315.9567 218.8345,316.7843 218.6452,316.9536 218.3079,317.0472 217.8561,317.0397 217.487,316.8615 216.72,316.2349 216.3227,315.7822 215.6019,314.6134 215.1568,314.2515 214.0493,313.8417 213.2659,313.3781 212.7409,313.2139 211.9148,313.2678 210.7571,313.5549 210.3147,313.505 209.8708,313.2963 209.1798,312.4195 208.4765,310.8371 207.4275,309.6962 207.0141,309.1245 206.1899,308.3874 205.7291,308.2052 204.5779,308.2121 203.3395,308.537 203.0283,308.6186 202.0726,309.0829 201.5408,308.982 200.8875,308.5333 199.5571,308.0113 199.1794,307.7621 198.5688,306.7762 198.4178,306.7159 198.5323,307.5714 198.5001,307.9142 198.3944,308.1585 197.8615,308.3537 196.8898,308.3665 196.5926,308.4933 196.319,308.7515 196.0837,309.2439 195.8924,310.4463 195.6667,311.2533 195.3606,311.6891 194.4055,312.4396 193.9299,313.4149 193.2577,314.3275 192.9022,315.1754 192.6826,316.0661 192.5161,316.3346 192.3789,316.4718 192.1823,316.5357 191.3019,316.1445 190.8997,316.1475 190.7741,316.2099 190.3437,316.8153 189.5651,317.6202 188.7652,318.0886 188.2765,318.6605 187.5983,319.2234 186.9713,320.0536 186.2717,320.3857 185.7348,320.7385 184.9854,321.3959 184.2374,321.9469 184.0946,322.052 182.4028,323.2984 181.7177,324.2128 175.476,329.7367 174.8907,330.3791 174.2469,330.9216 173.347,331.3541 168.9207,332.2551 166.3157,332.2105 165.4265,331.9398 164.2748,331.3472 163.8079,331.1785 163.5389,331.1508 162.9154,331.2396 162.0806,331.1781 161.732,331.3062 161.5364,331.5213 161.3254,332.0526 161.1843,332.8002 161.0768,332.9753 160.8334,333.1538 160.2309,333.3202 159.3131,333.1017 158.2449,332.6744 157.1917,332.0344 156.1651,331.5739 154.7299,331.4483 153.0955,331.605 150.0906,331.5166 149.1008,331.3892 147.7463,331.0804 146.9771,330.8201 146.309,330.7007 144.2854,330.7344 143.7361,330.7438 142.54,330.9584 141.6831,330.9887 140.5883,331.1873 140.115,331.158 139.3162,330.6847 139.1224,330.4538 138.7616,329.7382 138.5809,329.0938 138.1802,328.5129 138.1121,327.7835 137.989,327.6085 137.629,327.3969 136.6,326.9797 135.4492,326.6269 134.9763,326.2 134.6064,325.5344 133.8461,324.8783 133.2873,323.9872 132.9007,323.6759 131.7558,323.0764 130.9759,322.3874 130.2367,321.9249 128.158,321.0492 127.8885,320.8479 127.6093,320.5035 127.4918,319.9937 127.1656,319.4524 126.5741,318.9287 125.7117,317.8818 124.8522,317.3821 123.583,317.1956 122.4728,316.4756 122.2396,316.2266 122.0123,315.7605 121.9671,315.0021 121.8217,314.7209 121.4714,314.3913 120.4751,313.8277 120.1697,313.4556 119.9301,313.0494 119.793,312.8169 119.4257,312.399 118.9547,312.0734 118.6451,311.9188 118.6133,311.903 118.3422,311.862 117.6117,311.9227 117.177,311.7783 116.8985,311.8056 116.1796,312.2143 115.9205,312.2205 115.4428,311.9631 115.2756,311.6505 115.3012,311.0636 115.4633,310.4671 115.9207,309.9946 116.5725,309.0054 116.8515,308.7458 117.5401,308.4152 117.7623,308.2195 117.8282,307.9935 117.5744,306.8445 117.7366,305.8938 117.6017,305.6269 117.0875,305.1204 117.0719,304.3454 116.8116,303.7209 116.9069,302.9577 117.0878,302.4423 117.009,302.1941 116.847,302.0095 116.1915,301.7501 116.1156,301.6621 116.0213,301.3229 116.0755,300.7986 115.9303,300.6343 115.6017,300.5263 115.3604,300.3119 115.4208,299.9021 115.8252,299.2189 115.8759,298.7311 115.7442,298.3843 115.2192,298.118 115.1224,298.0689 114.6035,297.6066 114.5076,297.3144 114.5339,296.9367 114.4805,296.829 114.4271,296.7212 113.9719,296.5714 113.7724,296.3448 113.5447,295.5601 113.2365,294.9313 112.662,294.264 112.3847,294.1203 112.1911,294.1008 111.4788,294.3916 111.2049,294.4193 110.825,294.1489 110.7324,293.8964 110.751,293.4169 110.6498,293.045 110.1661,292.3776 110.0596,292.1187 110.1447,291.5259 110.5498,290.7412 110.7076,290.1833 111.0803,289.5315 111.4892,288.2434 111.2179,286.7282 110.8197,285.818 110.7648,285.5143 110.8159,285.0363 111.0214,284.5599 111.1426,283.8642 111.0315,283.4409 110.6765,282.7943 110.2313,282.2562 108.9855,279.823 108.7108,278.9828 108.5084,278.7584 108.1011,278.4842 107.9183,277.8656 107.4646,277.4217 107.335,277.2015 107.3102,276.2736 106.6981,275.5091 106.7128,274.4543 106.5936,274.051 106.4373,273.6792 105.745,272.5693 105.5927,272.1518 105.594,271.6569 105.8562,271.1992 105.9115,270.7441 107.1599,269.8265 108.4018,268.5725 109.4362,267.8306 110.4946,267.3489 113.1991,266.7688 116.8777,266.2857 118.2878,266.2169 119.3058,266.282 120.5081,266.5554 121.5657,266.6756 123.8027,267.308 125.4164,267.4725 126.927,267.3401 127.8373,267.1666 129.447,266.6768 130.1582,266.2704 130.372,265.8783 130.3089,265.5287 130.3709,264.9439 130.2555,264.0883 130.2817,262.3745 130.5804,259.8574 130.8506,258.7281 130.9885,256.8335 131.2321,256.0405 131.5612,255.3505 132.0261,254.7517 132.6396,254.3751 133.1943,254.1962 136.2173,253.6169 137.315,253.3001 138.1437,252.9044 138.5173,252.5864 138.9036,251.8248 139.1225,250.9923 139.1734,250.3645 139.2953,250.0768 139.9874,249.2785 140.4672,248.4824 141.1116,248.0899 141.9008,247.8723 142.1599,247.8009 143.0302,247.8466 143.4517,247.7443 145.0239,246.4068 146.7207,245.7181 147.0789,245.4917 147.9127,245.3526 148.0735,245.2692 148.1312,245.2393 148.154,245.2274 150.4732,243.8698 151.0035,243.4769 152.1816,242.8306 152.8125,242.1495 153.596,241.0451 153.8683,240.7927 154.3321,240.4924 154.5504,240.351 155.6223,239.8412 156.5591,239.3039 157.805,238.7689 158.8976,238.4767 159.9672,237.8563 160.3486,237.3994 160.7269,237.1826 161.2355,236.505 161.8856,235.5404 162.4489,234.4007 162.882,233.7555 163.7983,232.426 164.3119,231.9694 165.1377,229.9772 166.2548,227.8998 166.6095,227.4069 167.3042,226.7344 168.4701,225.3311 168.6387,225.0681 168.8666,224.7126 169.5542,222.9935 169.6959,222.6391 169.7765,222.1326 169.7197,221.4665 169.9914,220.7724 169.9944,220.7647 169.8538,219.5665 170.2946,217.3568 170.1275,216.546 169.8015,215.8081 169.8723,215.0599 169.6737,214.4792 169.7344,213.9351 169.8334,213.6361 169.8829,213.4866 169.9324,213.3371 169.835,212.5285 170.0047,211.0351 170.129,208.8597 170.2615,208.4604 170.4474,208.1876 171.0638,207.6695 171.2012,207.1915 171.3387,206.7136 171.6727,205.9555 171.9388,205.5893 172.6305,204.9372 173.2931,203.2574 173.4849,202.2202 173.4853,201.5259 173.4858,200.8316 173.6384,199.7483 173.6135,199.1824 173.4925,198.6302 173.5231,198.0389 173.8537,197.0297 173.8771,196.3506 173.7875,195.9679 173.7627,195.8609 173.7496,195.8042 173.8355,195.6202 174.4286,195.3668 174.7908,195.0849 174.9323,194.7335 174.9286,193.7489 175.3857,193.0719 175.3706,192.295 175.5147,192.0974 176.0989,191.766 176.1538,191.5664 176.0729,191.112 176.6094,190.7937 177.5136,192.092 177.99,192.6055 178.6647,193.0137 179.5709,193.3503 182.4153,193.7238 193.4179,199.164 193.8776,199.2875 194.2125,199.2929 194.9384,199.1475 195.76,199.2886 196.4643,199.6024 197.2567,199.7335 197.7279,199.7145 198.7474,199.1457 199.1735,198.8101 199.8099,198.0789 200.3641,197.7515 200.7086,197.6095 201.7046,197.4265 202.895,197.3302 204.1934,197.4758 205.5539,197.7854 207.4979,197.5403 208.1544,197.3808 210.7139,197.2151 211.5095,197.3019 212.0964,197.4944 213.6259,198.4893 214.1177,198.652 215.2099,198.7478 216.5264,198.6987 217.5316,198.9372 217.9013,198.8803 218.1766,198.7439 218.6699,198.2151 219.7211,197.5378 220.432,196.6909 221.0189,196.2255 221.4372,195.7089 222.019,195.4572 223.2788,195.3445 223.587,195.169 223.9011,194.8609 224.4227,194.6305 224.6891,194.6589 224.8169,194.7412 225.3403,195.317 225.683,195.4892 226.9262,195.4738 227.8286,195.2286 228.8539,195.1563 229.3927,195.2415 230.5245,194.3851 230.99,194.2452 231.2763,194.3273 231.5732,194.5994 232.4212,194.8995 232.6342,195.0602 232.8506,195.388 232.9611,196.1918 233.6283,196.6938 233.9513,197.2629 234.2441,197.5785 234.4484,197.6185 234.8074,197.4143 235.1542,197.2166 235.2171,197.1807 235.8822,196.999 236.2403,197.0642 236.977,197.5004 237.3257,197.5429 237.6465,197.4739 238.6307,196.9006 238.9649,196.8583 240.1731,196.9163 240.4415,196.9865 241.2671,197.4176 242.0313,197.5251 242.4842,197.9986 242.8111,198.2345 243.115,198.3369 243.6959,198.3846 244.3212,198.7329 244.7455,199.2551 245.2147,200.2647 245.6532,200.7682 246.2878,200.7214 246.5774,200.8237 247.4715,201.3611 248.0608,201.603 249.1038,202.3177 249.5482,202.8811 249.777,203.0698 250.0467,203.182 250.9181,203.3186 251.3359,203.529 252.3919,204.4363 253.0385,204.7542 253.4961,204.8461 256.2208,204.8168 256.8974,204.9229 257.2226,205.058 258.0492,205.5869 258.2467,205.6534 258.6924,205.8034 258.8814,205.81 259.3885,205.8275 259.8007,205.7428 260.93,205.1215 261.494,204.7177 262.1794,204.3895 262.9155,203.7927 263.2458,203.7022 263.339,203.712 263.4322,203.7219 263.6186,203.7415 264.0004,203.9079 264.3261,204.2927 264.9016,204.6408 265.0675,204.8569 265.2334,205.073 265.4771,205.2576 265.7642,205.3389 266.8851,205.5275 267.4586,205.5467 267.579,205.4571 267.6722,205.1769 267.8602,204.9999 268.0429,204.9511 268.5561,205.0365 268.9198,204.6948 269.1336,204.6469 269.8105,204.9817 270.4695,205.1486 270.7157,204.797 270.9603,204.652 271.6167,204.5558 272.1318,204.3955 272.4856,204.3859 274.3186,205.236 275.3462,205.4948 275.9936,205.4326 276.2785,205.3229 276.6054,205.0975 276.6651,204.9947 276.7248,204.8918 276.7202,204.4476 276.3081,203.7256 276.1864,203.3275 275.9682,202.0916 276.1153,201.7077 276.3351,201.5965 277.4221,201.5009 277.8116,201.401 278.2752,200.9209 278.2744,200.3975 278.3357,200.2725 278.4779,200.2128 278.7255,200.2419 279.187,200.5099 279.4336,200.5333 280.02,200.2539 280.4422,200.4108 280.7143,200.3976 281.2324,200.2224 281.9236,199.7644 282.4118,198.9621 282.643,198.8204 283.1721,198.6853 283.5713,198.4233 284.6512,196.9607 285.2714,196.5203 285.9824,196.2539 286.5814,195.8921 286.6801,195.6487 286.2452,194.9878 286.2594,194.5562 286.1119,193.9808 286.181,193.8002 286.2751,193.7446 286.3691,193.6889 286.7365,193.6648 287.141,193.926 287.3411,193.924 287.5164,193.7825 287.7083,193.3261 287.7978,193.1111 288.055,193.3742 288.5375,194.1612 288.7505,194.6835 288.9152,195.8089 289.113,195.9324 289.436,196.1017 289.7908,196.1914 289.8795,196.1946 290.0199,196.1997 291.242,196.2438 292.3893,196.4727 293.5367,196.7017 294.7031,197.1016 295.1486,197.1924 295.527,197.1776 296.0538,197.0251 298.5449,195.5715 299.1065,195.3903 300.0925,195.3805 302.1513,195.5338 302.9614,195.3213 304.346,195.2132 304.7642,195.2695 304.9036,195.3264 305.043,195.3833 306.0733,196.5339 306.521,196.9563 306.9105,197.204 334.0457,201.5671 334.0924,201.6429 334.0087,202.0067 334.126,202.2005 334.0166,202.4212 334.0337,202.762 333.8684,202.9528 334.0484,203.4596 333.8386,203.8546 333.8128,204.4182 333.5604,204.791 333.5276,205.2717 332.9771,205.5736 333.0776,206.0131 332.9767,206.1306 332.5939,206.3221 332.5761,206.518 333.2474,207.0451 334.3723,208.2376 334.4712,208.4098 334.3876,208.8233 334.8037,209.0545 334.831,209.4794 335.1597,209.8583 335.3708,210.2883 335.7744,210.5752 335.9337,210.8548 336.117,210.927 336.2064,211.1528 336.6005,211.3197 336.7275,211.5874 336.9867,211.6515 337.1017,211.7657 337.0588,212.1907 336.874,212.5888 336.8361,212.8374 336.8768,213.0225 337.0885,213.2782 337.087,213.4973 336.6571,214.1546 336.732,214.8155 336.3146,215.5107 336.1665,216.3579 335.419,217.3061 335.2978,217.738 335.352,218.3927 334.9727,218.7842 334.9683,218.9593 335.3069,219.4784 335.2931,220.1786 335.5136,220.6313 335.4785,220.844 335.0809,221.5595 334.974,221.9592 334.9383,222.7073 334.673,223.2227 334.7192,223.4587 335.0703,223.9871 335.0812,224.135 334.8721,224.4676 334.9302,224.8738 334.5721,225.0146 334.4587,225.1543 334.7714,225.7158 334.7543,225.9257 334.3561,226.4432 334.3948,226.8523 334.2194,227.336 334.3979,228.0297 334.0953,228.539 334.0836,229.0783 333.9404,229.525 333.9954,229.8194 334.2581,230.4242 334.0991,231.0612 334.0937,231.3868 334.2721,232.3121 334.2628,232.7302 334.0914,233.1718 333.4652,233.9583 333.5684,234.3906 333.3676,235.0041 333.406,235.1894 333.6503,235.4619 333.6759,235.7421 333.5872,236.0963 333.1617,236.1881 333.1376,236.3766 333.2486,236.6414 333.2026,236.926 332.7066,237.4349 332.6549,237.8842 332.4763,238.2841 332.6231,238.7433 332.5237,239.1581 332.9759,239.6662 332.9258,239.8488 332.643,240.2517 332.7929,240.7891 332.6686,241.3309 332.7542,241.4904 333.0427,241.7058 333.0221,242.2818 333.6141,243.1186 333.6762,243.4645 333.793,243.6611 333.9098,243.8578 333.8974,244.3844 334.0603,244.6904 334.2079,244.8823 334.2892,245.1749 334.5139,245.4455 334.4858,246.0225 334.677,246.3343 334.6101,246.7639 334.9081,247.0986 334.8354,247.9398 335.0684,248.3205 334.9288,248.6216 334.9571,248.7219 335.1228,248.8367 335.1225,248.9389 335.0001,249.0489 335.0208,249.1348 335.4162,249.4501 335.4948,249.5126 335.3967,249.9854 335.4347,250.1154 335.6907,250.3294 335.7526,250.86 336.1136,251.2774 336.0547,251.8095 336.3764,252.2733 336.2928,252.5293 336.4068,252.7464 336.2473,253.105 336.3962,253.3248 336.1934,253.6012 336.2754,253.6873 336.6095,253.7511 336.7546,253.8906 336.811,254.1989 336.7153,254.9075 336.7618,255.0105 337.1311,255.1771 337.2376,255.2993 337.2202,255.4239 336.9547,255.7484 337.1858,255.9473 337.1403,256.1329 337.1163,256.2307 337.4998,256.3295 337.4381,256.6183 337.4811,256.6788 337.9688,256.7299 337.9504,257.2253 338.0164,257.4793 338.1116,257.5733 338.5015,257.6341 338.6706,257.7544 338.72,257.9476 338.6529,258.5129 338.7648,258.5775 338.9991,258.5622 339.4913,258.2542 339.4733,258.7398 339.534,258.8552 339.5948,258.9705 339.5693,259.0449 339.5437,259.1192 339.4583,259.368 339.2058,259.6234 338.9532,259.8788 337.2408,261.0708 336.109,262.2814 336.026,262.3836 335.9871,262.4314 335.3022,263.2748 334.2006,265.2363 333.8306,266.3998 333.3977,267.2161 333.3518,267.6281 333.4249,268.6228 333.2976,270.336 333.1604,271.0616 332.7327,272.5032 332.3072,273.3011 331.6348,273.9804 329.5945,278.8859 329.1939,279.4021 328.9984,279.7993 328.8527,280.6953 328.8742,282.1232 328.7359,282.4837 328.7169,283.6543 328.5747,284.1374 327.4851,283.3185 326.0995,282.6483 324.5569,282.1673 324.1499,282.131 323.2341,282.3733 322.3339,282.8136 321.0724,283.1472 319.3405,283.897 318.4758,284.4954 317.6999,285.2559 316.7639,286.7571 316.5153,286.9934 315.6976,287.3141 314.2741,287.5319 314.0723,287.4227 313.9533,287.1653 314.1653,286.5624 314.1449,286.375 313.9948,286.1294 313.2422,285.3685 313.2897,284.8186 313.5492,284.4608 313.7453,284.2953 314.6002,283.903 314.8972,283.6339 314.9507,282.9565 314.8092,282.5306 314.0611,281.2973 313.3092,280.4719 312.8333,279.7877 312.4028,279.4437 310.9244,278.2623 309.7363,276.6664 309.1477,276.3409 308.808,276.2563 307.789,276.2711 305.5041,276.6517 304.4472,276.6639 303.3233,276.4444 301.483,275.7451 301.2561,275.7419 300.7246,275.8807 300.4191,276.1459 300.1843,276.5439 299.7067,277.8372 299.5637,278.0229 299.231,278.2248 298.8067,278.242 298.3823,278.2592 296.3365,277.7803 295.818,277.7177 295.1824,277.7369 294.9495,277.8144 294.522,278.1826 293.6068,279.5561 292.7149,280.5802 292.3406,280.7671 291.1656,281.0136" stroke="black" /><polygon fill="none" points="157.8481,181.3662 144.1282,174.4685 143.6084,174.2072 143.3113,174.6726 142.7335,174.8322 142.5682,175.3553 142.0581,175.7389 141.947,175.9162 142.0636,176.4939 141.5296,176.8994 141.1591,177.4756 140.7686,177.8495 140.6671,178.2175 140.7778,178.6995 140.3299,178.8945 140.2814,178.9713 140.2725,179.4308 140.0636,179.8136 140.0526,180.4391 139.5294,180.8344 139.4655,181.1015 139.5074,181.3707 139.1219,181.5429 139.2368,181.8707 139.0285,182.1345 138.9975,182.4759 138.6236,182.5713 138.5872,182.6827 138.7241,183.0636 138.6749,183.1425 138.2905,183.1914 138.2169,183.3141 138.3778,183.6408 138.3395,183.8089 137.5006,183.7619 137.4383,183.884 137.4732,184.0177 137.742,184.392 137.7629,184.5822 137.5969,185.1726 137.6628,185.5192 137.6342,185.8325 137.2957,185.9272 137.1257,186.0712 136.7308,186.7582 136.2729,187.1782 136.0494,187.6021 135.4181,188.0619 135.2952,188.2278 135.2924,188.4624 135.2034,188.5618 133.8132,188.6641 133.4433,189.2066 133.2378,189.2701 131.8727,189.2607 131.2822,189.3297 130.7159,189.5112 130.4768,189.485 129.8836,189.1194 129.4496,188.9785 128.6353,188.9094 127.9372,189.0338 127.9163,189.0414 127.2614,189.2811 125.9763,189.4184 124.296,189.4712 121.5285,188.9736 120.5315,189.0699 119.64,189.2579 118.4349,189.6417 116.3098,190.5269 114.7532,191.2977 113.1852,191.8996 112.6083,191.9694 112.31,191.8874 111.8141,191.4668 111.2547,191.2097 110.9355,190.9711 110.0666,189.929 109.6042,189.5987 109.2943,189.4934 107.8475,189.2693 105.7834,189.1033 104.5601,189.0741 103.8049,189.2069 101.717,189.9027 100.8017,190.4135 99.6975,191.2349 99.3916,191.6103 99.2386,192.079 99.0169,192.4315 98.6996,192.7408 98.2896,192.8915 97.3791,192.833 96.7376,192.4321 96.4855,192.0248 96.0612,190.8607 94.7178,188.9399 94.3055,188.5299 93.3179,188.0908 92.5395,188.0782 91.7105,188.4798 90.7015,189.2028 90.3273,189.4094 90.1226,189.4413 88.8306,189.3635 87.7663,189.1129 86.8145,188.7291 86.667,188.5585 86.4433,187.6496 86.267,187.4123 85.8549,187.0709 84.0504,186.0255 83.4951,185.5917 83.2611,185.2643 83.2179,184.4547 82.8365,183.7109 82.5058,183.4152 82.0715,182.7715 81.1505,180.7666 80.6183,181.0494 78.7097,181.8358 76.9212,181.8628 76.2115,182.0994 75.888,182.3242 75.3769,182.821 74.7267,183.6817 71.7159,186.7739 69.7721,188.9406 68.8011,189.5409 67.6781,189.9372 65.8714,190.0663 65.6545,190.1301 64.2811,189.7718 63.7072,189.7411 63.4973,190.0742 63.398,190.9097 62.8715,191.6178 62.0098,192.1312 61.1584,192.474 59.8697,192.7998 57.4327,193.6318 57.0957,193.6948 56.2264,193.346 55.1268,192.0723 53.9256,190.9357 52.5379,190.1829 51.3746,189.6797 50.2384,189.3063 47.1803,188.6028 46.4026,188.5072 45.4368,188.5765 44.2778,188.7822 43.1878,189.2253 40.4674,190.8347 39.1117,191.9147 37.5466,193.6708 37.4396,193.9438 36.7045,192.557 15.3081,176.4129 15.1151,176.1945 14.7685,175.8023 14.3088,174.6343 13.9744,174.0508 13.6239,173.7816 13.3387,173.1164 13.0355,172.706 12.8179,171.8667 12.121,171.2482 11.6367,170.6216 11.3189,169.2848 11.3781,167.4343 11.2056,167.0741 10.9158,166.8593 10.4029,166.6369 9.5884,165.9888 8.3355,165.2113 7.7261,164.9738 6.7089,164.8537 6.0956,164.3958 5.6673,164.2759 5.2539,163.7451 4.7174,163.5027 4.3019,163.2115 4.1558,162.984 4.1087,162.542 3.6322,161.936 3.5278,161.2273 3.0611,160.5719 2.3971,159.8912 1.3038,158.952 0.8763,158.795 0.0,158.6504 0.9079,157.7856 1.2704,157.5699 2.323,157.1721 3.2862,157.0332 4.5826,157.2875 5.3571,157.3359 6.4568,157.1259 6.9609,157.189 7.1714,157.5722 7.1713,157.8704 7.0986,158.3192 6.7233,159.5071 7.0436,160.0814 8.2735,161.053 9.6278,162.0051 11.636,163.844 12.7192,164.6413 13.6551,165.1524 14.9841,165.5888 15.6999,165.7416 16.3243,165.7404 16.8226,165.7399 18.0764,165.5316 19.2813,165.2271 20.0272,164.8746 20.9889,163.7675 21.6691,162.5782 22.1689,161.3406 22.7062,160.6672 23.6775,159.7389 24.9666,158.9767 25.9225,158.6441 26.4264,158.3178 26.6792,158.0483 26.9832,157.4246 27.3519,155.9597 27.7015,155.4777 28.245,155.0407 30.9282,153.6893 32.4937,152.7651 33.283,151.8901 33.7408,151.1785 35.1222,150.0577 35.294,149.8494 35.7759,148.7049 36.0585,145.741 36.2098,144.7984 36.2406,143.3929 36.431,141.8461 36.6087,141.3008 36.9168,140.77 37.6702,140.0532 37.9886,139.8497 39.1297,139.3767 39.7945,138.9224 40.1226,138.4818 40.4665,137.1747 40.3661,135.8254 39.9647,134.6286 39.006,132.2235 38.5934,130.1289 37.6612,126.5732 37.042,125.4317 36.9865,125.1546 36.5529,124.2299 34.7847,122.4975 34.2939,121.5736 34.0877,120.7514 33.995,119.6181 34.1779,118.152 34.6897,117.2346 35.6365,116.2415 37.1883,115.2584 37.8861,115.0527 39.8553,114.2374 40.755,113.972 41.7484,113.9606 42.8812,113.8407 42.8933,113.8394 43.3189,113.7944 46.9268,113.9365 48.8337,114.2149 52.5541,113.4109 56.6545,111.8982 58.9003,111.3469 60.6776,110.7972 62.0348,110.1554 63.4645,109.6654 64.0441,109.3501 64.552,108.9186 65.5357,107.7797 65.8485,107.2235 66.121,106.5254 66.4225,105.4384 66.5116,103.4629 66.3241,101.5095 66.3818,100.6861 66.7466,99.4307 67.1578,98.415 67.4182,98.0345 68.803,96.7244 70.196,94.301 70.3541,93.3946 70.5288,91.1442 70.9106,90.1632 71.5343,89.3772 75.2407,85.8264 78.0001,82.1279 79.3421,80.9462 79.6026,80.7176 79.9728,80.4579 80.9925,79.7426 81.7823,79.3735 83.3961,79.0099 84.1533,78.9368 84.6553,78.726 86.0664,77.6556 87.133,75.9611 87.7657,75.2418 88.3401,74.9645 89.203,74.7787 89.6274,74.573 90.2882,74.4715 90.7008,74.1214 91.0115,73.5562 91.3955,73.4725 91.6979,73.1876 92.0491,73.1465 92.4103,72.6801 92.6027,72.6145 92.8283,72.7316 92.8853,72.8554 93.3258,73.0522 93.3832,73.1872 93.3713,73.7686 93.4775,73.9486 93.6807,74.019 93.8008,73.875 93.7954,73.5399 93.8833,73.3495 94.426,73.1245 94.6123,72.6923 94.3907,71.7546 94.7638,70.2399 94.9608,69.9766 95.1997,69.8896 95.8723,69.8652 95.9346,69.7102 95.82,69.4627 95.835,69.3284 96.0422,69.0746 95.9376,68.8491 96.2399,68.679 96.2666,68.568 96.0911,68.3097 96.0464,68.1063 96.2,67.5053 95.9347,66.997 95.9727,66.8534 96.3364,66.6242 96.2932,66.3558 96.4131,66.0395 96.3723,65.6233 96.7119,65.395 96.7395,65.2056 97.0077,64.9179 97.4423,64.7692 97.4673,64.6233 97.3266,64.4658 97.4387,64.2766 97.6186,64.2352 98.2394,64.3004 98.3123,64.2457 98.3741,64.1117 98.3574,63.8443 98.5722,63.7245 98.74,63.7487 98.7772,63.6381 98.6871,63.2496 98.8362,63.0947 99.2993,63.1583 99.4792,63.1184 99.8066,62.8864 100.286,62.8605 100.1234,62.5883 100.3204,62.2922 100.0023,61.9498 99.9702,61.7593 100.0115,60.9443 100.1213,60.6558 100.4471,60.5044 100.8512,60.5662 101.1611,60.7276 101.7597,60.7369 102.493,61.2506 103.378,61.3543 103.485,61.4334 103.5714,61.906 103.6766,62.0621 104.7055,62.8553 104.9804,63.4073 105.2492,63.4443 105.6693,63.3619 106.0973,63.7469 106.6524,63.613 107.0003,63.8954 107.1713,64.2533 107.4277,64.2852 107.9276,64.1473 108.6324,64.599 109.0145,64.6721 109.0342,64.6559 109.695,64.1119 109.9362,64.0261 110.4277,64.0004 110.8762,63.8295 110.9424,63.4622 110.8372,63.0253 111.0226,62.9543 111.269,62.9656 111.4416,62.6319 111.9803,62.5848 112.7116,62.2613 113.7659,61.974 114.0394,62.0339 114.5966,62.3892 115.1054,62.4301 115.2656,62.3866 115.7832,61.9945 116.574,61.6869 116.9254,61.3041 117.3985,60.9593 118.0739,60.7681 119.2196,60.2366 119.2381,60.228 119.6147,59.9528 120.5478,58.9801 120.8142,58.8499 122.8363,59.1088 123.0585,59.0671 123.4002,58.7379 150.5291,58.3542 151.4703,57.9725 152.9828,57.8438 155.0597,57.9131 156.3427,58.1232 156.9146,58.1082 157.8739,58.0049 160.1565,57.5635 161.2931,57.4126 162.4358,57.4735 162.8111,57.5971 163.1727,57.848 163.8779,58.6304 164.1736,58.8587 164.9341,59.2378 165.1164,59.4762 165.3122,60.2537 165.5046,60.5974 165.6481,60.6827 165.9485,60.6539 166.1348,60.5058 166.7561,59.5201 167.2039,59.2531 167.665,58.9786 167.7685,58.7036 168.2167,58.3141 168.2928,58.0528 168.8206,57.7532 169.186,57.3999 169.6182,57.3337 169.8402,57.2247 170.2535,57.2712 170.7243,57.1433 170.8371,57.1843 170.9916,57.5722 171.3481,57.7616 171.5666,58.4248 171.7559,58.5229 171.9742,58.3812 172.2764,57.8373 172.6032,57.6458 172.8356,57.386 172.8923,56.7839 173.0543,56.4863 174.2848,55.6106 174.7252,55.0521 174.883,54.7294 174.9661,54.2754 174.7447,52.4582 174.7716,51.9126 175.2861,51.1474 176.2926,50.273 176.5524,49.8406 176.5952,49.5415 176.618,49.3831 175.682,46.7105 175.4922,45.7683 175.2656,45.0614 174.3069,43.0525 174.1484,42.4786 174.1466,41.8516 174.2908,41.1382 174.5017,40.593 174.821,40.2395 175.2185,40.0444 178.6284,39.9134 179.3371,39.778 179.9644,39.4961 180.7157,38.993 181.0708,38.5176 181.4994,37.2827 181.5182,36.8565 181.3944,36.4639 180.9475,35.8847 180.0754,35.0461 179.4003,34.5558 178.8424,34.2666 176.9653,33.7445 176.4429,33.4574 175.5941,32.7962 174.6903,31.6641 173.563,30.5885 173.2391,30.0247 173.1977,29.7814 173.2022,29.341 173.4224,28.9984 174.3077,28.441 174.9395,27.9134 175.2839,27.3698 175.3505,26.9507 175.2084,26.1109 175.4392,25.1954 175.2255,23.7034 175.3321,23.0566 175.286,22.1885 175.686,21.232 175.9533,20.9127 176.6936,19.7144 176.8451,19.3535 177.4463,16.9577 177.5291,16.3658 178.1432,14.3145 178.3893,13.8798 178.866,13.3275 180.0797,12.4064 181.2375,11.9411 181.3468,11.8422 181.8868,11.7941 182.3203,11.6459 182.6462,11.4706 183.4932,10.8069 184.2454,10.5369 184.3919,10.4281 184.9751,9.5699 185.4963,9.1187 186.1113,8.1494 187.1175,7.6347 187.4242,7.5658 188.6077,7.7229 189.7918,7.6967 190.7917,7.2907 191.8991,6.9428 192.6896,6.3625 192.8887,6.3 193.3264,6.3063 193.5814,6.1638 193.883,6.1966 194.4191,6.4901 194.6525,6.4989 196.1518,5.6587 196.8733,5.4955 197.2452,5.4834 198.1517,5.6816 198.5524,5.7048 199.771,5.6274 200.1682,5.5429 200.5433,5.2746 220.6786,0.0 221.1328,0.072 221.6073,0.37 222.3395,1.0516 223.051,1.5325 224.0016,2.0157 224.9093,2.2088 226.1568,2.1355 227.8574,2.1603 229.2982,2.0463 230.3666,3.2588 232.1477,5.9479 233.982,8.012 234.3573,8.5098 234.3632,8.6831 235.0398,8.721 235.1092,8.8672 234.9475,9.9752 235.0457,10.205 235.4014,10.4272 235.5294,10.6817 234.8828,12.5951 234.8332,14.7154 235.3463,15.659 235.4797,16.2072 235.7911,16.5299 237.3497,17.7225 238.5709,19.0848 239.2643,19.6901 240.0466,20.4542 240.723,21.2457 241.1832,21.6662 242.8107,23.1531 244.3615,24.0478 245.3937,25.025 246.142,25.5602 247.0109,25.8687 247.7053,25.9785 248.3174,25.9881 249.0738,25.8924 252.1239,25.2065 252.7694,24.9978 254.6486,24.2052 255.4141,23.9986 257.7944,23.1514 259.8178,22.3005 261.7466,22.0069 263.7251,21.404 264.8059,21.2951 265.3659,21.4663 266.2334,22.2743 266.7294,22.8784 268.5955,25.7907 270.6797,28.7501 271.0228,29.3428 271.4083,30.3551 271.6078,32.109 271.5949,33.2627 270.9515,36.0809 270.9239,38.1386 270.6073,39.567 269.8896,41.2588 269.6191,42.5139 269.6241,42.907 269.7331,43.2678 270.1509,44.1472 270.1183,45.1058 270.3054,45.7476 270.2866,46.5972 270.1599,46.9669 269.3799,48.1343 268.0592,49.691 267.8927,49.9839 267.7916,50.3197 267.6532,53.3392 267.6667,54.4898 267.7664,54.6369 268.5296,55.1146 269.1959,56.2218 269.7958,56.6103 270.0965,56.9732 270.6081,57.1672 270.8322,57.4891 270.8548,58.416 270.4608,58.924 269.9076,60.0073 269.5737,60.3176 269.356,60.8526 269.0263,61.2201 268.637,61.956 268.0762,62.4945 268.0344,62.76 268.091,63.0159 268.8046,64.1681 269.3281,64.4708 269.6101,64.931 270.0669,65.1622 270.2552,65.3484 270.3778,65.5967 270.4774,66.3176 270.9299,66.9059 270.9279,68.2061 271.165,68.834 272.6908,69.7677 272.9639,70.04 273.4043,70.7393 273.5456,71.2227 273.4535,72.5329 273.5216,73.1914 273.7656,73.6789 274.3934,74.463 274.496,74.8129 274.3636,76.3871 274.159,77.1512 274.197,77.5093 274.5784,77.8682 274.7369,78.4453 274.9352,78.5709 275.146,78.591 276.1084,78.3125 276.4399,78.3179 276.9612,78.4758 277.1398,78.6638 277.4953,79.3686 277.9397,80.7563 278.2347,81.0445 279.3041,81.383 279.6012,81.6515 279.5574,82.3369 280.0763,83.2737 280.2523,84.2986 280.097,84.6828 279.2509,85.3653 278.9689,85.7036 278.345,86.8717 278.1992,87.3464 278.0174,88.689 277.8303,89.0556 277.3781,89.3546 276.5026,89.6855 276.0872,89.7738 275.2586,89.7894 275.067,89.8546 273.8534,90.6164 273.3043,90.7661 271.5671,90.5387 271.0672,90.5318 269.7912,90.6593 267.9229,91.1257 267.1824,91.1999 266.308,91.1711 264.6104,90.9379 263.5063,90.9337 262.8162,91.2942 261.9947,92.1008 261.0968,93.189 260.5537,94.0417 260.1835,95.1218 259.4488,95.6723 259.3382,95.8391 259.0921,96.9583 259.0536,97.887 258.9498,98.3104 258.732,98.7797 258.4123,99.2343 258.0838,99.5499 257.5388,99.8016 256.4535,100.1046 255.8863,100.4642 255.7162,100.681 255.5738,101.2781 255.248,101.7147 255.8012,102.0365 256.3561,102.5528 256.9866,103.5678 257.2296,104.1604 257.3386,104.9194 257.3503,106.3045 256.8411,107.8283 256.859,108.1936 257.0064,108.4542 258.1185,109.3733 259.0632,110.3944 259.3098,110.5803 259.9104,110.7693 261.3959,110.6781 261.9957,110.3843 262.0228,110.1607 261.9332,109.9397 261.4877,109.4246 260.6433,108.228 260.6333,107.7757 260.84,107.5497 261.7031,107.0177 262.1291,106.1936 262.3453,105.9441 263.0814,105.4061 263.5091,104.9066 264.008,104.1235 264.8407,103.187 266.0432,102.2507 267.8822,101.4328 268.933,101.0884 269.6615,100.965 270.2268,101.0623 270.8234,101.2948 271.8644,101.9074 272.7633,102.0842 274.6032,101.8287 276.2719,101.8629 276.7406,101.7689 277.6727,101.3558 279.82,100.7246 280.4595,100.5872 282.0561,100.5648 282.4208,100.6807 282.7608,100.9111 283.3559,102.0204 284.0779,102.7473 284.3957,103.2269 284.608,104.5359 284.9444,105.6627 285.1798,105.9645 285.4607,106.0461 285.8858,106.0343 286.3696,105.9236 286.6307,105.7653 287.3728,104.8792 288.1552,104.3329 288.3695,104.0779 288.6996,102.5711 288.9781,99.772 289.1523,99.3878 290.1149,98.4892 290.7891,98.018 292.0266,97.5853 292.5098,97.7986 293.2719,97.8759 293.414,97.9904 293.4054,98.4939 293.7813,98.6227 294.1381,98.6347 294.4295,98.8131 294.466,99.1671 294.2637,99.7862 294.2726,100.0048 294.4009,100.1178 294.7902,99.9396 295.0867,99.367 295.2996,99.24 296.113,99.0941 297.2726,99.1033 297.5112,99.2027 297.943,99.6014 298.1597,99.6205 298.7102,99.2936 298.9519,99.2508 299.1874,99.1082 299.5369,98.7147 299.6513,98.7226 299.7244,98.9757 299.3591,100.0073 299.4447,100.395 299.8327,100.4749 300.5064,99.9946 300.7861,99.909 301.1287,99.9251 301.9353,100.1432 302.1298,100.2976 302.4917,101.0847 302.7031,101.3398 302.9191,101.3757 303.6076,101.111 303.9717,101.2612 304.7592,101.3325 304.9486,101.5536 305.0725,101.9368 305.2263,102.1236 305.6427,102.3256 306.4716,102.505 307.4561,102.8145 307.6396,103.1036 307.6358,103.7839 307.7378,103.8182 308.5416,103.4865 309.0394,103.5115 309.3345,103.4316 309.6266,103.132 309.8389,103.0729 310.6329,103.3594 311.4575,103.4816 312.0314,103.9779 312.2829,103.983 312.5076,103.7884 312.6617,103.5378 313.0607,103.3584 313.5809,103.5225 313.8707,103.8059 314.1734,104.4099 314.1089,105.1787 314.1985,105.6963 314.3599,106.0738 314.5541,106.3002 314.9605,106.4983 315.5067,106.6047 316.6625,107.3073 317.2599,107.4569 318.1518,107.2328 318.6432,106.9019 319.1724,106.3827 319.4669,105.9899 320.0245,106.384 320.187,106.7048 320.3054,107.62 320.4313,109.9882 320.686,111.6864 320.8249,112.0354 321.3612,112.6914 322.206,113.3276 322.5099,113.6384 322.7845,114.2204 322.8684,116.1964 322.6876,119.3307 322.9723,121.5139 322.9559,121.7532 322.6034,122.4485 322.471,122.8688 322.1988,125.3066 322.1791,126.1582 322.249,126.7836 322.8241,127.9795 322.9692,128.7894 322.8913,129.0536 322.5141,129.659 322.5125,130.1768 322.9133,131.1391 323.6893,133.7737 324.3355,135.5096 324.4654,136.3928 324.6595,136.7263 325.3308,137.2353 326.035,137.5302 326.6769,137.7088 327.4025,138.2631 328.2018,138.6206 329.1264,139.4507 330.0289,139.8683 330.4268,140.2794 330.5387,140.5505 330.5375,140.8864 330.1077,142.2048 330.1143,143.366 330.3189,144.6582 330.2811,145.5547 330.1228,146.426 329.6717,147.6306 331.3761,147.8114 331.4903,148.193 331.4046,149.0662 330.7684,151.3223 330.2333,151.6747 328.9274,151.6019 328.138,151.7359 327.1608,152.3451 326.5733,152.5009 326.2794,152.45 325.7305,152.1676 325.3403,152.1067 324.8097,152.2678 324.2933,152.2059 324.0063,152.4262 323.8322,152.4789 323.4809,152.4591 322.8417,152.2454 322.4986,152.27 322.2695,152.3579 321.7374,152.8038 320.8815,153.0308 320.3602,153.5455 320.1315,153.6879 318.2017,154.3209 316.9216,155.2186 316.0225,155.8492 314.568,157.7227 311.3262,162.4692 311.0362,162.752 310.1533,163.348 309.6683,163.9914 309.1974,164.22 308.8765,164.5978 308.4691,164.9224 308.0378,165.551 307.3863,166.2341 306.8325,166.3387 306.4804,166.9515 306.2742,167.06 305.7861,167.0864 305.8621,167.3813 305.6357,168.3793 305.651,168.6208 305.7927,168.82 307.2013,169.8207 307.9221,170.2081 308.1408,170.4846 308.1012,170.636 307.8298,170.8675 307.3761,170.9184 307.1433,171.1806 307.2131,172.1349 306.7839,172.6514 306.7407,172.8862 306.8144,173.0049 307.0892,173.0972 307.4688,173.0305 307.669,172.8886 308.1352,172.1522 308.3161,172.0818 308.8633,173.2908 309.0671,173.3202 309.2932,173.0597 309.5257,172.0467 309.6112,171.9082 309.9155,171.7501 310.2205,171.8103 310.6086,172.3933 310.8865,172.6785 311.6586,173.0624 312.2938,173.1909 313.538,173.2481 313.8637,173.1892 314.0346,173.0674 314.169,172.4986 314.2491,172.405 314.4129,172.3094 314.6831,172.2913 314.8916,172.4506 314.8651,172.5903 314.5168,173.0748 314.3613,173.6445 314.114,174.141 314.1398,174.6815 314.5353,174.7708 314.849,174.7145 315.1704,174.5501 316.0552,173.709 316.2349,173.7401 316.3077,173.8253 316.3391,174.4649 316.4216,174.847 316.5035,174.9318 316.721,174.8851 317.4302,174.4143 317.6835,174.3724 318.102,174.9261 318.2739,175.7874 318.2398,176.3674 317.8021,177.1621 317.9847,177.7591 317.8865,177.8366 317.2618,177.8344 317.0159,178.2021 316.9297,178.7045 316.5232,179.0145 316.5263,179.127 317.1036,179.5111 317.4629,179.9805 317.4795,180.4689 317.3407,180.8818 317.5804,181.3457 317.2877,181.9196 317.0918,182.6532 316.9548,182.8989 316.6791,183.1971 316.1185,183.6184 316.1254,183.9994 316.7776,184.6372 316.7541,184.8558 316.4753,185.1213 316.5026,185.3126 316.6326,185.4255 316.9334,185.525 317.941,185.573 318.2632,185.7242 318.3735,185.8827 318.3958,186.1112 318.1912,186.9628 318.2155,187.2662 318.3565,187.464 318.755,187.789 319.0228,188.3034 319.2503,188.5732 319.621,188.7279 319.748,188.6975 319.9265,188.4355 320.0776,188.3432 320.3115,188.3853 320.3024,188.604 320.0364,189.1215 320.0507,189.4197 320.2108,189.4964 320.7529,189.5405 321.0658,189.8438 321.1871,190.153 321.2169,190.4729 321.1716,191.1661 321.8773,192.162 322.0595,192.717 322.1873,192.8929 322.3797,192.9508 322.8692,192.8102 323.9269,192.8484 324.254,193.1791 324.1757,193.514 324.3784,193.6617 324.3829,193.786 324.2712,193.9306 324.404,194.0217 324.6261,193.9747 324.7629,194.0558 324.6641,194.374 324.9162,194.4014 325.0504,194.3014 325.2796,194.3388 325.3176,194.5185 325.1883,194.7197 325.206,194.8037 325.2997,194.8831 325.6064,194.8697 325.707,195.0292 325.5546,195.5197 325.6542,195.6283 325.8698,195.6033 326.0698,195.1913 326.2575,195.1835 326.3394,195.3166 326.3996,196.0977 326.4882,196.1948 326.8653,196.3402 326.6912,196.616 326.7054,196.817 326.9607,196.989 327.2391,196.9202 327.3675,196.8092 327.7509,196.8822 328.1138,196.842 328.2,197.0001 328.1792,197.5271 328.2376,197.673 328.8958,197.9467 329.3889,198.3517 330.0128,199.4664 330.7766,200.1267 331.1409,200.3838 331.9896,200.721 332.3923,200.7379 333.1749,200.5502 333.4994,200.5759 333.5319,200.7341 333.378,200.9735 333.4156,201.0797 333.773,201.1292 333.8732,201.3105 333.8539,201.4114 334.0457,201.5671 306.9105,197.204 306.521,196.9563 306.0733,196.5339 305.043,195.3833 304.9036,195.3264 304.7642,195.2695 304.346,195.2132 302.9614,195.3213 302.1513,195.5338 300.0925,195.3805 299.1065,195.3903 298.5449,195.5715 296.0538,197.0251 295.527,197.1776 295.1486,197.1924 294.7031,197.1016 293.5367,196.7017 292.3893,196.4727 291.242,196.2438 290.0199,196.1997 289.8795,196.1946 289.7908,196.1914 289.436,196.1017 289.113,195.9324 288.9152,195.8089 288.7505,194.6835 288.5375,194.1612 288.055,193.3742 287.7978,193.1111 287.7083,193.3261 287.5164,193.7825 287.3411,193.924 287.141,193.926 286.7365,193.6648 286.3691,193.6889 286.2751,193.7446 286.181,193.8002 286.1119,193.9808 286.2594,194.5562 286.2452,194.9878 286.6801,195.6487 286.5814,195.8921 285.9824,196.2539 285.2714,196.5203 284.6512,196.9607 283.5713,198.4233 283.1721,198.6853 282.643,198.8204 282.4118,198.9621 281.9236,199.7644 281.2324,200.2224 280.7143,200.3976 280.4422,200.4108 280.02,200.2539 279.4336,200.5333 279.187,200.5099 278.7255,200.2419 278.4779,200.2128 278.3357,200.2725 278.2744,200.3975 278.2752,200.9209 277.8116,201.401 277.4221,201.5009 276.3351,201.5965 276.1153,201.7077 275.9682,202.0916 276.1864,203.3275 276.3081,203.7256 276.7202,204.4476 276.7248,204.8918 276.6651,204.9947 276.6054,205.0975 276.2785,205.3229 275.9936,205.4326 275.3462,205.4948 274.3186,205.236 272.4856,204.3859 272.1318,204.3955 271.6167,204.5558 270.9603,204.652 270.7157,204.797 270.4695,205.1486 269.8105,204.9817 269.1336,204.6469 268.9198,204.6948 268.5561,205.0365 268.0429,204.9511 267.8602,204.9999 267.6722,205.1769 267.579,205.4571 267.4586,205.5467 266.8851,205.5275 265.7642,205.3389 265.4771,205.2576 265.2334,205.073 265.0675,204.8569 264.9016,204.6408 264.3261,204.2927 264.0004,203.9079 263.6186,203.7415 263.4322,203.7219 263.339,203.712 263.2458,203.7022 262.9155,203.7927 262.1794,204.3895 261.494,204.7177 260.93,205.1215 259.8007,205.7428 259.3885,205.8275 258.8814,205.81 258.6924,205.8034 258.2467,205.6534 258.0492,205.5869 257.2226,205.058 256.8974,204.9229 256.2208,204.8168 253.4961,204.8461 253.0385,204.7542 252.3919,204.4363 251.3359,203.529 250.9181,203.3186 250.0467,203.182 249.777,203.0698 249.5482,202.8811 249.1038,202.3177 248.0608,201.603 247.4715,201.3611 246.5774,200.8237 246.2878,200.7214 245.6532,200.7682 245.2147,200.2647 244.7455,199.2551 244.3212,198.7329 243.6959,198.3846 243.115,198.3369 242.8111,198.2345 242.4842,197.9986 242.0313,197.5251 241.2671,197.4176 240.4415,196.9865 240.1731,196.9163 238.9649,196.8583 238.6307,196.9006 237.6465,197.4739 237.3257,197.5429 236.977,197.5004 236.2403,197.0642 235.8822,196.999 235.2171,197.1807 235.1542,197.2166 234.8074,197.4143 234.4484,197.6185 234.2441,197.5785 233.9513,197.2629 233.6283,196.6938 232.9611,196.1918 232.8506,195.388 232.6342,195.0602 232.4212,194.8995 231.5732,194.5994 231.2763,194.3273 230.99,194.2452 230.5245,194.3851 229.3927,195.2415 228.8539,195.1563 227.8286,195.2286 226.9262,195.4738 225.683,195.4892 225.3403,195.317 224.8169,194.7412 224.6891,194.6589 224.4227,194.6305 223.9011,194.8609 223.587,195.169 223.2788,195.3445 222.019,195.4572 221.4372,195.7089 221.0189,196.2255 220.432,196.6909 219.7211,197.5378 218.6699,198.2151 218.1766,198.7439 217.9013,198.8803 217.5316,198.9372 216.5264,198.6987 215.2099,198.7478 214.1177,198.652 213.6259,198.4893 212.0964,197.4944 211.5095,197.3019 210.7139,197.2151 208.1544,197.3808 207.4979,197.5403 205.5539,197.7854 204.1934,197.4758 202.895,197.3302 201.7046,197.4265 200.7086,197.6095 200.3641,197.7515 199.8099,198.0789 199.1735,198.8101 198.7474,199.1457 197.7279,199.7145 197.2567,199.7335 196.4643,199.6024 195.76,199.2886 194.9384,199.1475 194.2125,199.2929 193.8776,199.2875 193.4179,199.164 182.4153,193.7238 179.5709,193.3503 178.6647,193.0137 177.99,192.6055 177.5136,192.092 176.6094,190.7937 159.8934,182.394 159.4476,182.17 158.6079,181.7481 158.5775,181.7328 158.5587,181.7233 158.0882,181.4869 157.943,181.4139 157.8481,181.3662" stroke="black" /><polygon fill="none" points="127.9163,189.0414 127.9372,189.0338 128.6353,188.9094 129.4496,188.9785 129.8836,189.1194 130.4768,189.485 130.7159,189.5112 131.2822,189.3297 131.8727,189.2607 133.2378,189.2701 133.4433,189.2066 133.8132,188.6641 135.2034,188.5618 135.2924,188.4624 135.2952,188.2278 135.4181,188.0619 136.0494,187.6021 136.2729,187.1782 136.7308,186.7582 137.1257,186.0712 137.2957,185.9272 137.6342,185.8325 137.6628,185.5192 137.5969,185.1726 137.7629,184.5822 137.742,184.392 137.4732,184.0177 137.4383,183.884 137.5006,183.7619 138.3395,183.8089 138.3778,183.6408 138.2169,183.3141 138.2905,183.1914 138.6749,183.1425 138.7241,183.0636 138.5872,182.6827 138.6236,182.5713 138.9975,182.4759 139.0285,182.1345 139.2368,181.8707 139.1219,181.5429 139.5074,181.3707 139.4655,181.1015 139.5294,180.8344 140.0526,180.4391 140.0636,179.8136 140.2725,179.4308 140.2814,178.9713 140.3299,178.8945 140.7778,178.6995 140.6671,178.2175 140.7686,177.8495 141.1591,177.4756 141.5296,176.8994 142.0636,176.4939 141.947,175.9162 142.0581,175.7389 142.5682,175.3553 142.7335,174.8322 143.3113,174.6726 143.6084,174.2072 144.1282,174.4685 157.8481,181.3662 157.943,181.4139 158.0882,181.4869 158.5587,181.7233 158.5775,181.7328 158.6079,181.7481 159.4476,182.17 159.8934,182.394 176.6094,190.7937 176.0729,191.112 176.1538,191.5664 176.0989,191.766 175.5147,192.0974 175.3706,192.295 175.3857,193.0719 174.9286,193.7489 174.9323,194.7335 174.7908,195.0849 174.4286,195.3668 173.8355,195.6202 173.7496,195.8042 173.7627,195.8609 173.7875,195.9679 173.8771,196.3506 173.8537,197.0297 173.5231,198.0389 173.4925,198.6302 173.6135,199.1824 173.6384,199.7483 173.4858,200.8316 173.4853,201.5259 173.4849,202.2202 173.2931,203.2574 172.6305,204.9372 171.9388,205.5893 171.6727,205.9555 171.3387,206.7136 171.2012,207.1915 171.0638,207.6695 170.4474,208.1876 170.2615,208.4604 170.129,208.8597 170.0047,211.0351 169.835,212.5285 169.9324,213.3371 169.8829,213.4866 169.8334,213.6361 169.7344,213.9351 169.6737,214.4792 169.8723,215.0599 169.8015,215.8081 170.1275,216.546 170.2946,217.3568 169.8538,219.5665 169.9944,220.7647 169.9914,220.7724 169.7197,221.4665 169.7765,222.1326 169.6959,222.6391 169.5542,222.9935 168.8666,224.7126 168.6387,225.0681 168.4701,225.3311 167.3042,226.7344 166.6095,227.4069 166.2548,227.8998 165.1377,229.9772 164.3119,231.9694 163.7983,232.426 162.882,233.7555 162.4489,234.4007 161.8856,235.5404 161.2355,236.505 160.7269,237.1826 160.3486,237.3994 159.9672,237.8563 158.8976,238.4767 157.805,238.7689 156.5591,239.3039 155.6223,239.8412 154.5504,240.351 154.3321,240.4924 153.8683,240.7927 153.596,241.0451 152.8125,242.1495 152.1816,242.8306 151.0035,243.4769 150.4732,243.8698 148.154,245.2274 148.1312,245.2393 148.0735,245.2692 147.9127,245.3526 147.0789,245.4917 146.7207,245.7181 145.0239,246.4068 143.4517,247.7443 143.0302,247.8466 142.1599,247.8009 141.9008,247.8723 141.1116,248.0899 140.4672,248.4824 139.9874,249.2785 139.2953,250.0768 139.1734,250.3645 139.1225,250.9923 138.9036,251.8248 138.5173,252.5864 138.1437,252.9044 137.315,253.3001 136.2173,253.6169 133.1943,254.1962 132.6396,254.3751 132.0261,254.7517 131.5612,255.3505 131.2321,256.0405 130.9885,256.8335 130.8506,258.7281 130.5804,259.8574 130.2817,262.3745 130.2555,264.0883 130.3709,264.9439 130.3089,265.5287 130.372,265.8783 130.1582,266.2704 129.447,266.6768 127.8373,267.1666 126.927,267.3401 125.4164,267.4725 123.8027,267.308 121.5657,266.6756 120.5081,266.5554 119.3058,266.282 118.2878,266.2169 116.8777,266.2857 113.1991,266.7688 110.4946,267.3489 109.4362,267.8306 108.4018,268.5725 107.1599,269.8265 105.9115,270.7441 105.8428,270.6153 105.1578,270.2183 104.7389,269.5938 104.7209,269.2207 105.1246,268.5194 105.3252,267.628 105.2108,267.2469 104.8551,266.6807 104.7471,266.3231 104.7531,266.059 104.8627,265.7649 105.3564,265.361 105.5521,264.8702 105.7326,264.7531 106.1012,264.6832 105.9327,264.4379 105.9279,264.3184 106.1362,263.9867 105.97,263.7427 105.5366,263.4394 105.3698,263.2325 105.3245,262.5623 105.0538,262.2168 105.001,261.9893 105.0551,261.7554 104.7837,261.4099 104.8753,261.2978 105.3073,261.2435 105.4487,261.065 105.4872,260.7541 105.4083,260.5186 105.1161,260.1802 105.0854,259.9903 105.178,259.7871 105.3198,259.6674 105.5305,259.631 105.7771,259.4385 105.8216,258.734 105.5433,258.4189 105.5211,258.2671 105.7907,257.7713 105.7933,257.6494 105.4319,257.4328 105.2827,257.0972 105.5762,256.5983 105.6141,255.2913 105.9542,254.9173 106.2101,254.7469 106.2954,254.4831 106.0575,254.0775 106.1863,253.6937 105.8616,253.3706 105.9167,252.9288 105.7724,252.8148 105.2098,252.9044 105.0678,252.2352 104.8867,251.8981 105.2899,251.1394 105.3269,250.8915 105.2595,250.5778 104.8939,250.1226 105.1291,249.3923 104.9684,249.5779 104.6963,249.7399 103.9365,249.9933 103.5313,250.0556 101.8763,249.758 100.9361,249.4762 100.4888,249.4771 99.661,249.9271 99.0401,250.0463 98.2845,250.0643 97.0359,250.6816 96.1253,251.0243 95.5719,250.9699 94.6771,251.0173 92.9839,251.2181 92.0374,251.4383 89.1282,251.7033 88.4424,251.8732 88.064,252.0422 87.6282,252.3913 87.0396,252.5728 86.6911,252.9814 86.2495,253.3516 85.7836,253.9343 84.8561,254.4204 83.9788,255.3077 83.1705,255.675 82.9153,255.8769 82.7561,256.1618 82.4084,256.4898 82.1313,256.9859 81.2244,257.313 81.1255,257.7586 80.6169,258.0545 79.8542,258.8218 79.6559,259.1768 78.8454,259.6127 78.6732,260.1411 78.497,260.4021 77.7996,260.8308 77.6131,261.2302 77.3545,261.4406 77.0238,261.4964 76.8258,261.4475 75.7203,260.808 74.6709,260.7157 74.4649,260.6069 74.0016,260.0463 73.4589,259.5357 72.8236,259.2444 72.4593,259.1783 71.3367,259.1526 70.8473,259.2741 70.3091,259.2891 70.182,259.2038 68.7641,258.9839 68.2812,258.8196 67.3149,258.8738 66.6682,258.5976 65.7358,258.4691 64.9453,258.1552 64.6466,257.9366 64.1981,257.4188 63.6768,257.0242 63.4822,256.5209 63.4894,256.1342 63.8286,254.8957 64.2723,253.7113 64.371,252.7813 64.5208,252.5556 64.6211,251.9741 64.6875,251.0327 64.6613,249.752 64.495,248.6112 64.0974,248.0977 63.8956,246.6622 63.8161,246.4938 63.4726,246.1706 63.2401,245.6967 62.5972,245.2383 62.1441,244.7808 61.4653,243.6357 60.953,243.1407 59.8295,242.3826 59.2805,242.1249 59.6233,240.8983 59.6344,240.3322 59.5641,240.0662 58.4106,237.9253 58.0242,236.9927 57.3681,234.9037 56.3245,232.734 55.6757,230.8694 54.9505,227.8128 54.5372,227.0835 52.3079,224.2553 52.0754,223.8444 51.869,222.6324 51.8944,221.2691 51.1454,220.3506 50.3031,218.5776 50.2044,218.153 50.2413,217.7042 50.4609,216.8541 50.5521,216.2019 50.7053,215.1056 50.6104,214.5164 50.4431,214.0536 50.1739,213.3085 49.8136,212.7374 49.4533,212.1663 48.4191,211.0874 47.4535,209.5726 46.9931,209.0166 45.5383,206.6766 44.4472,205.2422 43.4508,203.081 42.0358,200.6659 41.73,200.2865 41.223,199.8835 39.763,198.9844 39.0369,198.3295 38.493,197.5296 38.096,195.9574 37.5635,194.5102 37.4396,193.9438 37.5466,193.6708 39.1117,191.9147 40.4674,190.8347 43.1878,189.2253 44.2778,188.7822 45.4368,188.5765 46.4026,188.5072 47.1803,188.6028 50.2384,189.3063 51.3746,189.6797 52.5379,190.1829 53.9256,190.9357 55.1268,192.0723 56.2264,193.346 57.0957,193.6948 57.4327,193.6318 59.8697,192.7998 61.1584,192.474 62.0098,192.1312 62.8715,191.6178 63.398,190.9097 63.4973,190.0742 63.7072,189.7411 64.2811,189.7718 65.6545,190.1301 65.8714,190.0663 67.6781,189.9372 68.8011,189.5409 69.7721,188.9406 71.7159,186.7739 74.7267,183.6817 75.3769,182.821 75.888,182.3242 76.2115,182.0994 76.9212,181.8628 78.7097,181.8358 80.6183,181.0494 81.1505,180.7666 82.0715,182.7715 82.5058,183.4152 82.8365,183.7109 83.2179,184.4547 83.2611,185.2643 83.4951,185.5917 84.0504,186.0255 85.8549,187.0709 86.267,187.4123 86.4433,187.6496 86.667,188.5585 86.8145,188.7291 87.7663,189.1129 88.8306,189.3635 90.1226,189.4413 90.3273,189.4094 90.7015,189.2028 91.7105,188.4798 92.5395,188.0782 93.3179,188.0908 94.3055,188.5299 94.7178,188.9399 96.0612,190.8607 96.4855,192.0248 96.7376,192.4321 97.3791,192.833 98.2896,192.8915 98.6996,192.7408 99.0169,192.4315 99.2386,192.079 99.3916,191.6103 99.6975,191.2349 100.8017,190.4135 101.717,189.9027 103.8049,189.2069 104.5601,189.0741 105.7834,189.1033 107.8475,189.2693 109.2943,189.4934 109.6042,189.5987 110.0666,189.929 110.9355,190.9711 111.2547,191.2097 111.8141,191.4668 112.31,191.8874 112.6083,191.9694 113.1852,191.8996 114.7532,191.2977 116.3098,190.5269 118.4349,189.6417 119.64,189.2579 120.5315,189.0699 121.5285,188.9736 124.296,189.4712 125.9763,189.4184 127.2614,189.2811 127.9163,189.0414" stroke="black" /></svg>