<?xml version="1.0" encoding="utf-8" ?>
<svg baseProfile="tiny" height="320.5846" version="1.2" width="500" xmlns="http://www.w3.org/2000/svg" xmlns:ev="http://www.w3.org/2001/xml-events" xmlns:xlink="http://www.w3.org/1999/xlink"><defs /><polygon fill="none" points="410.6211,180.7731 410.7097,180.736 415.3425,177.3003 432.6543,164.4617 436.8746,161.6245 436.9608,161.5666 438.5189,164.1885 447.3244,161.2981 479.4709,151.4711 479.9566,151.3226 485.7422,149.5537 485.7477,149.5521 499.9468,145.2116 500.0,145.2512 499.9143,145.942 498.8087,193.5638 498.7237,197.2239 498.7237,197.2249 498.4776,207.8257 496.4661,208.5795 497.1127,220.6632 497.0422,221.0796 496.9886,221.3988 496.9585,221.5785 496.2499,223.0202 495.8708,223.169 495.6593,223.3382 495.571,223.6674 495.7153,224.1681 495.7098,224.4418 495.3965,225.1641 495.2129,225.4149 494.9934,226.1884 494.8989,226.9358 494.8056,227.0514 494.2786,227.3576 493.9877,227.8642 493.9181,229.9187 492.8627,229.8901 492.5022,229.7771 492.3045,229.8742 492.0232,230.3649 492.2818,231.258 492.3497,232.0173 492.3037,232.5218 491.7477,233.6343 491.627,233.8759 491.1242,234.6906 490.7207,235.0365 478.9647,253.3242 477.7613,255.4347 477.7533,255.4487 476.9921,256.3129 475.8238,257.6392 465.7615,269.0628 463.5967,271.5205 463.5315,271.5945 448.4743,288.6821 448.3727,288.7974 448.4899,288.9478 448.5983,289.0868 448.6166,289.1103 448.6913,289.2061 448.7057,289.2996 448.6291,289.9427 448.5268,290.8772 447.6835,292.4247 447.019,293.4177 446.1534,294.7282 445.028,296.4672 444.7645,296.8744 444.7536,296.878 444.7338,296.8776 444.7187,296.879 444.7079,296.8772 444.6304,296.8399 444.5514,296.83 444.1307,296.5868 443.7956,296.561 443.7453,296.4934 443.5539,296.3952 443.4556,296.2622 443.4185,296.1037 443.2478,296.0395 443.0689,295.9492 442.7565,295.8752 442.6687,295.8235 442.636,295.9169 442.4949,295.8462 442.4778,295.8193 442.3987,295.6949 442.4095,295.6382 442.299,295.4824 442.324,295.2882 442.3446,295.2018 442.4377,294.8114 442.3911,294.7673 442.3107,294.7252 442.2545,294.6848 442.2047,294.6626 442.179,294.6368 442.0964,294.5814 442.0946,294.5619 442.0711,294.5386 442.0181,294.529 441.9357,294.4903 441.8552,294.4149 441.8513,294.3898 441.8221,294.3647 441.7831,294.3512 441.7097,294.3198 441.6074,294.2991 441.5389,294.2667 441.4648,294.1827 441.4027,294.1377 441.3374,294.1214 441.3062,294.0928 441.2796,294.0317 441.218,293.9897 441.1653,293.9758 441.1398,293.9214 441.0872,293.8715 441.0133,293.8216 440.9676,293.7548 440.942,293.6722 440.8892,293.614 440.8303,293.567 440.7671,293.544 440.6858,293.5534 440.5986,293.5383 440.5524,293.5071 440.5366,293.4683 440.5458,293.3441 440.5268,293.2587 440.4842,293.1926 440.4181,293.1445 440.3511,293.1278 440.3071,293.0814 440.3062,293.0429 440.3363,293.0126 440.3195,292.9597 440.1531,292.7683 440.0841,292.7056 440.0167,292.6585 439.9435,292.6386 439.8443,292.6163 439.7355,292.6169 439.5677,292.6533 439.5267,292.6535 439.4132,292.6541 439.1714,292.6279 439.0915,292.6086 439.002,292.6213 438.9401,292.6802 438.916,292.7484 438.9085,292.7916 438.9273,292.8624 438.8619,292.9464 438.7725,292.9855 438.6057,292.9414 438.4863,292.8691 438.4036,292.692 438.2606,292.3408 438.1524,291.7931 438.1385,291.7228 438.1231,291.6802 438.0815,291.6186 438.0183,291.5753 437.9632,291.5314 437.8869,291.5054 437.6839,291.4871 437.643,291.4613 437.6057,291.4106 437.5774,291.2625 437.5416,291.1994 437.4875,291.161 437.4127,291.1394 437.3419,291.0595 437.3328,290.993 437.2845,290.8865 437.1918,290.752 437.1451,290.7189 437.017,290.6221 436.8948,290.5584 436.8591,290.516 436.8668,290.4477 436.8504,290.3858 436.8032,290.3497 436.7294,290.3536 436.6587,290.312 436.6391,290.2543 436.6521,290.2028 436.6569,290.1436 436.628,290.0981 436.5831,290.0914 436.536,290.1067 436.4597,290.1514 431.7203,291.6505 419.3799,295.554 411.2642,299.387 396.8801,306.1808 396.4315,306.0409 395.7,305.7868 395.189,305.5301 395.048,305.4354 394.82,305.2823 394.5999,305.0363 394.2655,304.8991 393.9257,304.8465 393.537,304.8913 393.1447,305.0159 392.7902,305.187 392.3322,305.3513 391.5254,305.6406 390.4,305.8579 390.2282,305.891 389.3644,306.0307 389.3185,306.0381 388.2011,306.7863 387.503,307.2394 387.2359,307.415 386.8797,307.4381 386.8592,307.4394 386.054,307.3631 385.5498,307.2852 385.1265,307.251 384.8213,307.2668 384.2788,307.4421 384.1495,307.4886 383.2053,307.828 382.9381,307.9214 382.5699,307.9639 382.1223,307.9456 381.8501,307.917 381.717,307.903 381.7067,307.898 381.4243,307.8375 380.9545,307.6716 380.753,307.5914 379.5512,307.1126 379.2356,306.9868 378.8831,306.8208 378.5869,306.6698 378.2445,306.4732 377.9582,306.2479 377.7403,306.0954 377.6901,306.0603 377.2714,305.8142 376.2816,305.432 375.8278,305.3109 375.4932,305.247 373.9911,305.0875 371.9469,304.9218 371.5747,304.8978 371.2034,304.9435 370.8361,304.9812 370.7022,304.9949 369.1847,305.2437 368.6929,305.2737 368.1542,305.25 367.6883,305.1696 366.5021,304.8006 365.6331,304.513 365.1599,304.3876 364.8163,304.3517 364.2994,304.3356 363.6041,304.2746 363.1864,304.2841 362.5721,304.3782 362.0198,304.5275 361.6047,304.6404 361.136,304.7932 359.4339,305.8605 359.1594,305.9625 358.9682,306.0195 357.7059,306.3017 357.1753,306.4309 356.7947,306.5775 356.6681,306.6639 356.6498,306.6832 356.5707,306.7664 356.5002,306.8872 356.1608,308.1249 355.7392,309.0636 355.4695,309.572 354.9595,310.533 354.8993,310.6282 354.8098,310.7698 354.4773,311.1508 354.1417,311.4754 353.9882,311.6239 353.6725,311.9092 353.429,312.1398 353.2352,312.4033 353.1855,312.4708 352.9548,312.7812 352.6975,313.0102 352.3133,313.3895 352.1076,313.6296 351.8528,313.8581 351.6801,313.9931 351.4658,314.2111 350.9668,314.7221 350.5318,315.2598 349.9885,315.9388 349.6334,316.3186 349.4367,316.5184 348.8694,316.6858 348.4357,316.7361 347.9461,316.6848 347.6147,316.6789 346.9683,316.5945 346.5232,316.5486 346.0489,316.4948 345.4543,316.4542 344.9517,316.3577 344.2884,316.2251 344.0299,316.1492 343.9108,316.1142 343.5076,316.0102 342.7618,315.8319 342.2826,315.749 341.9455,315.7068 341.5779,315.707 341.2481,315.7672 341.1585,315.8021 340.9706,315.8754 340.6478,316.0383 340.4077,316.1975 340.106,316.3738 339.7659,316.5358 339.5914,316.6167 339.2762,316.763 338.9397,316.9091 338.6616,317.0281 338.343,317.1939 338.0817,317.3263 337.6559,317.5675 337.4175,317.7301 337.2787,317.8707 337.1681,318.0705 337.0208,318.5225 336.842,319.0713 336.7826,319.2321 336.6993,319.3855 336.556,319.6145 336.3269,319.9971 336.2243,320.1836 336.1023,320.3589 336.0295,320.4447 335.9383,320.5104 335.8268,320.5684 335.6921,320.5846 335.481,320.5488 335.3133,320.5008 335.1606,320.4571 334.6855,320.2768 334.1063,320.0954 333.734,319.9881 333.3493,319.8528 333.0152,319.7369 332.7988,319.6461 332.5915,319.5566 332.3509,319.4914 332.1637,319.4504 331.9616,319.4366 331.822,319.4409 331.5133,319.4725 331.2138,319.4845 330.9016,319.4603 330.6888,319.448 330.4349,319.4009 330.248,319.3424 330.0533,319.2608 329.8074,319.1321 329.5834,319.031 329.3076,318.8904 328.9648,318.7262 328.5758,318.5491 328.2181,318.3741 327.9788,318.2805 327.7905,318.202 327.5613,318.1323 327.2482,318.0706 327.0127,318.0336 326.9786,318.0282 326.6841,317.964 326.2773,317.8421 326.0989,317.7468 325.9248,317.6172 325.6503,317.3448 325.2965,316.9633 325.2286,316.89 324.6091,316.3608 324.4764,316.2393 324.2261,316.0233 323.9754,315.8197 323.7798,315.6598 323.5835,315.494 323.3737,315.4073 323.2799,315.3861 322.9996,315.4458 322.787,315.5028 322.4953,315.6445 322.1799,315.8547 322.1069,315.9015 321.7318,316.1419 321.6765,316.1659 321.5406,316.2248 321.3856,316.2921 321.2668,316.3407 321.1148,316.3432 320.8191,316.262 320.6425,316.1728 320.5127,316.1073 320.2319,315.941 319.9631,315.8086 319.7301,315.7335 319.443,315.7149 319.2,315.7516 318.9041,315.9296 311.1974,307.2393 311.0339,307.0145 306.0383,300.1423 295.2974,285.367 294.9908,284.9452 291.9016,280.6956 286.014,246.2465 285.9433,245.8328 285.9245,245.723 288.1157,234.4786 290.1559,224.0092 292.9483,216.8597 293.003,216.6601 299.4219,203.3059 336.9665,215.8287 337.1391,215.7736 337.1568,215.7679 337.7119,215.29 337.8061,215.2404 338.1075,215.2468 338.3272,215.3166 338.4247,215.337 338.5168,215.3075 338.652,215.1051 338.8091,214.8642 338.9445,214.3715 339.1685,214.0308 339.3551,213.6675 339.6363,213.3298 339.8754,213.0085 340.0857,212.8549 340.4724,212.4414 340.6903,212.2735 340.9371,212.0655 340.9868,211.8548 340.9788,211.5907 341.0331,211.4494 341.1442,211.3386 341.2288,211.2141 341.4386,211.0319 341.5432,210.9645 341.8841,210.8228 342.292,210.5887 342.4016,210.427 342.5188,210.1809 342.7181,209.9088 342.9551,209.6612 343.0884,209.5559 343.1602,209.5101 343.4029,209.4241 343.6325,209.3354 343.7977,209.2432 343.852,209.1954 343.9039,209.1743 343.9755,209.1648 344.05,209.1773 344.1147,209.2077 344.1501,209.2263 344.2215,209.2359 344.3149,209.2097 344.4677,209.106 344.5649,209.0075 344.6156,208.9234 344.642,208.8074 344.6569,208.6795 344.7152,208.5873 344.8132,208.4617 344.9011,208.337 344.9838,208.1606 345.0589,207.8779 345.1009,207.8064 345.1904,207.7294 345.2909,207.6913 345.5403,207.6294 345.7112,207.5593 345.8012,207.4866 345.9236,207.3437 346.0286,207.1989 346.0976,207.1469 346.164,207.1231 346.269,207.1065 346.5409,206.958 346.733,206.8827 346.8185,206.8765 346.9416,206.8539 347.1145,206.8109 347.2421,206.8193 347.5608,206.8204 347.9085,206.8105 347.9708,206.8358 348.0048,206.8971 348.0358,206.9865 348.1517,207.1543 348.2272,207.2156 348.3698,207.2819 348.4893,207.3745 348.5921,207.4734 348.7205,207.5153 348.843,207.5057 349.0917,207.3796 349.2597,207.3167 349.3734,207.2207 349.5461,207.0266 349.6873,206.8381 349.7728,206.6507 349.8492,206.3685 350.0063,206.1654 350.2712,205.8987 350.4926,205.747 350.7368,205.5185 351.1408,205.1857 351.464,204.7837 351.6702,204.4566 351.7893,204.3454 352.0656,204.2223 352.3358,204.0452 352.4446,203.9185 352.5912,203.6983 352.841,203.2683 352.9007,203.0566 352.9045,202.7202 352.9008,202.5923 352.9862,202.4935 353.2241,202.395 353.4295,202.3444 353.5655,202.3261 353.666,202.3696 353.8204,202.5076 354.1802,202.7441 354.2404,202.7518 354.4296,202.8131 354.5949,202.8496 354.7365,202.8622 354.8441,202.8636 354.9532,202.9102 355.0164,202.9849 355.052,203.1001 355.0498,203.2742 355.0292,203.3954 355.0783,203.4749 355.1527,203.5655 355.2547,203.6252 355.3216,203.6349 355.4357,203.604 355.5901,203.5569 355.7086,203.5266 355.8216,203.541 356.0156,203.5746 356.189,203.689 356.418,203.867 356.8763,204.2172 357.1165,204.3538 357.3531,204.519 357.7249,204.8558 357.9933,205.0283 358.4629,205.3803 358.6892,205.3864 358.7966,205.3924 358.9001,205.4589 358.9957,205.525 359.1016,205.589 359.232,205.6225 359.3719,205.5662 359.4591,205.491 359.5314,205.4395 359.7304,205.3699 360.3468,205.2064 360.6161,205.0093 360.8797,204.8566 361.3689,204.5524 361.6309,204.4692 362.3777,204.3913 362.7487,204.3379 362.9483,204.2649 364.6298,203.8704 365.7787,203.8139 366.2648,203.8278 366.7509,203.7821 366.9931,203.7745 367.069,203.7692 367.1797,203.7141 367.2101,203.6989 367.2853,203.5345 367.2907,203.5022 367.2783,203.4791 367.1978,203.3285 367.1106,203.2414 367.0083,203.1145 366.8572,202.9113 366.7388,202.8298 366.5604,202.6411 366.5423,202.5931 366.5368,202.559 366.5339,202.5408 366.5124,202.5185 366.4932,202.4886 366.5129,202.4209 366.5231,202.2116 366.5187,202.0992 366.5091,202.0627 366.488,202.0348 366.4442,201.977 366.4278,201.9401 366.4554,201.9091 366.5054,201.9055 367.5895,201.8962 368.0396,201.8931 368.3643,201.8654 369.2032,201.839 369.582,201.7824 370.8796,201.0861 371.9445,200.5638 372.0466,200.5158 372.1432,200.4932 372.2214,200.5122 372.38,200.5753 372.5226,200.5953 372.7581,200.5578 372.9889,200.5016 373.5485,200.4441 373.8206,200.4008 374.0216,200.3628 374.2452,200.346 374.2887,200.3474 374.2869,200.3968 374.226,200.4588 374.1697,200.5943 374.1484,200.8269 374.1518,201.328 374.1731,201.4388 374.2234,201.5932 374.3441,201.7739 374.5204,201.8904 374.7961,201.9586 375.1413,202.0361 375.3747,202.1556 375.4601,202.1993 375.5276,202.2055 375.6032,202.1177 375.5764,202.0226 375.6034,201.9193 376.7786,201.0525 395.93,186.9256 410.6211,180.7731" stroke="black" /><polygon fill="none" points="352.5031,165.9698 351.9712,167.3063 351.9287,167.4132 351.8626,167.5793 351.8329,167.6539 351.7614,167.8336 351.7054,167.9743 351.6965,167.9968 334.1901,211.9905 336.9665,215.8287 299.4219,203.3059 299.9715,202.1617 297.2151,201.5538 300.6023,196.2981 305.7113,182.2139 305.9722,181.4945 308.4086,174.7781 308.6544,174.1004 315.0489,156.4724 318.4783,147.3508 322.6343,136.2965 322.6431,136.273 322.7541,135.9779 337.9705,95.5046 344.6293,100.5344 362.5,114.0329 360.5621,144.2561 360.5615,144.265 360.4707,145.6811 360.4604,145.8425 360.4504,145.998 352.5031,165.9698" stroke="black" /><polygon fill="none" points="415.1585,111.7676 416.7035,115.5058 418.5377,119.9439 422.5782,121.915 441.2658,111.0615 448.1939,107.0378 452.206,108.7686 447.2084,114.2796 446.4018,115.169 448.5224,119.4848 447.3834,121.8884 445.9111,124.9954 446.547,132.8985 442.1319,134.2582 438.2076,135.4667 439.2859,136.4178 442.9796,139.6758 451.6146,151.7151 436.9608,161.5666 436.8746,161.6245 432.6543,164.4617 415.3425,177.3003 410.7097,180.736 410.6211,180.7731 395.93,186.9256 376.7786,201.0525 375.6034,201.9193 375.5764,202.0226 375.6032,202.1177 375.5276,202.2055 375.4601,202.1993 375.3747,202.1556 375.1413,202.0361 374.7961,201.9586 374.5204,201.8904 374.3441,201.7739 374.2234,201.5932 374.1731,201.4388 374.1518,201.328 374.1484,200.8269 374.1697,200.5943 374.226,200.4588 374.2869,200.3968 374.2887,200.3474 374.2452,200.346 374.0216,200.3628 373.8206,200.4008 373.5485,200.4441 372.9889,200.5016 372.7581,200.5578 372.5226,200.5953 372.38,200.5753 372.2214,200.5122 372.1432,200.4932 372.0466,200.5158 371.9445,200.5638 370.8796,201.0861 369.582,201.7824 369.2032,201.839 368.3643,201.8654 368.0396,201.8931 367.5895,201.8962 366.5054,201.9055 366.4554,201.9091 366.4278,201.9401 366.4442,201.977 366.488,202.0348 366.5091,202.0627 366.5187,202.0992 366.5231,202.2116 366.5129,202.4209 366.4932,202.4886 366.5124,202.5185 366.5339,202.5408 366.5368,202.559 366.5423,202.5931 366.5604,202.6411 366.7388,202.8298 366.8572,202.9113 367.0083,203.1145 367.1106,203.2414 367.1978,203.3285 367.2783,203.4791 367.2907,203.5022 367.2853,203.5345 367.2101,203.6989 367.1797,203.7141 367.069,203.7692 366.9931,203.7745 366.7509,203.7821 366.2648,203.8278 365.7787,203.8139 364.6298,203.8704 362.9483,204.2649 362.7487,204.3379 362.3777,204.3913 361.6309,204.4692 361.3689,204.5524 360.8797,204.8566 360.6161,205.0093 360.3468,205.2064 359.7304,205.3699 359.5314,205.4395 359.4591,205.491 359.3719,205.5662 359.232,205.6225 359.1016,205.589 358.9957,205.525 358.9001,205.4589 358.7966,205.3924 358.6892,205.3864 358.4629,205.3803 357.9933,205.0283 357.7249,204.8558 357.3531,204.519 357.1165,204.3538 356.8763,204.2172 356.418,203.867 356.189,203.689 356.0156,203.5746 355.8216,203.541 355.7086,203.5266 355.5901,203.5569 355.4357,203.604 355.3216,203.6349 355.2547,203.6252 355.1527,203.5655 355.0783,203.4749 355.0292,203.3954 355.0498,203.2742 355.052,203.1001 355.0164,202.9849 354.9532,202.9102 354.8441,202.8636 354.7365,202.8622 354.5949,202.8496 354.4296,202.8131 354.2404,202.7518 354.1802,202.7441 353.8204,202.5076 353.666,202.3696 353.5655,202.3261 353.4295,202.3444 353.2241,202.395 352.9862,202.4935 352.9008,202.5923 352.9045,202.7202 352.9007,203.0566 352.841,203.2683 352.5912,203.6983 352.4446,203.9185 352.3358,204.0452 352.0656,204.2223 351.7893,204.3454 351.6702,204.4566 351.464,204.7837 351.1408,205.1857 350.7368,205.5185 350.4926,205.747 350.2712,205.8987 350.0063,206.1654 349.8492,206.3685 349.7728,206.6507 349.6873,206.8381 349.5461,207.0266 349.3734,207.2207 349.2597,207.3167 349.0917,207.3796 348.843,207.5057 348.7205,207.5153 348.5921,207.4734 348.4893,207.3745 348.3698,207.2819 348.2272,207.2156 348.1517,207.1543 348.0358,206.9865 348.0048,206.8971 347.9708,206.8358 347.9085,206.8105 347.5608,206.8204 347.2421,206.8193 347.1145,206.8109 346.9416,206.8539 346.8185,206.8765 346.733,206.8827 346.5409,206.958 346.269,207.1065 346.164,207.1231 346.0976,207.1469 346.0286,207.1989 345.9236,207.3437 345.8012,207.4866 345.7112,207.5593 345.5403,207.6294 345.2909,207.6913 345.1904,207.7294 345.1009,207.8064 345.0589,207.8779 344.9838,208.1606 344.9011,208.337 344.8132,208.4617 344.7152,208.5873 344.6569,208.6795 344.642,208.8074 344.6156,208.9234 344.5649,209.0075 344.4677,209.106 344.3149,209.2097 344.2215,209.2359 344.1501,209.2263 344.1147,209.2077 344.05,209.1773 343.9755,209.1648 343.9039,209.1743 343.852,209.1954 343.7977,209.2432 343.6325,209.3354 343.4029,209.4241 343.1602,209.5101 343.0884,209.5559 342.9551,209.6612 342.7181,209.9088 342.5188,210.1809 342.4016,210.427 342.292,210.5887 341.8841,210.8228 341.5432,210.9645 341.4386,211.0319 341.2288,211.2141 341.1442,211.3386 341.0331,211.4494 340.9788,211.5907 340.9868,211.8548 340.9371,212.0655 340.6903,212.2735 340.4724,212.4414 340.0857,212.8549 339.8754,213.0085 339.6363,213.3298 339.3551,213.6675 339.1685,214.0308 338.9445,214.3715 338.8091,214.8642 338.652,215.1051 338.5168,215.3075 338.4247,215.337 338.3272,215.3166 338.1075,215.2468 337.8061,215.2404 337.7119,215.29 337.1568,215.7679 337.1391,215.7736 336.9665,215.8287 334.1901,211.9905 351.6965,167.9968 351.7054,167.9743 351.7614,167.8336 351.8329,167.6539 351.8626,167.5793 351.9287,167.4132 351.9712,167.3063 352.5031,165.9698 360.4504,145.998 360.4604,145.8425 360.4707,145.6811 360.5615,144.265 360.5621,144.2561 362.5,114.0329 344.6293,100.5344 337.9705,95.5046 337.657,94.9204 320.8448,63.583 320.278,62.5265 320.2201,62.4186 317.8192,57.9433 316.1145,54.766 312.868,48.7145 308.2255,40.061 308.0572,39.7473 304.6098,33.3215 309.1713,35.142 310.9487,35.8513 311.4912,36.0678 315.2895,37.5836 318.0553,38.6874 318.1068,38.7079 321.876,40.2121 335.349,45.5889 339.4951,47.106 339.5096,47.1113 344.2907,48.8607 358.4502,55.4605 359.5352,55.9662 373.1049,61.9516 377.8169,63.6438 378.8384,65.5311 381.6873,66.4488 390.3596,67.183 394.9202,64.0827 399.5527,63.6677 402.1063,72.3481 405.5596,72.8907 404.5641,74.1954 404.9988,74.3132 406.2391,74.6492 416.5841,75.2448 418.214,78.0339 407.4462,82.5291 404.27,79.8602 403.7913,79.458 402.1778,78.1022 404.1993,83.9897 404.5206,84.9278 407.8085,85.2446 414.9164,92.4718 417.591,95.181 419.6948,97.59 424.6633,95.8035 427.8306,98.0608 425.145,100.2566 418.0241,100.0823 413.3929,104.1263 410.1328,106.973 414.9569,111.2799 415.1585,111.7676" stroke="black" /><polygon fill="none" points="268.1559,19.0628 304.6098,33.3215 294.1743,54.4438 279.0293,85.0984 278.7923,85.4275 262.9754,90.7584 262.5113,90.9148 249.3909,95.337 248.7384,95.557 248.7111,95.5662 235.5957,99.9873 234.7945,100.2574 233.8672,100.57 233.2469,100.2088 232.9485,99.8205 232.9777,99.5508 233.1895,99.2432 234.1631,99.097 234.4255,98.7057 234.0793,97.8613 233.8233,97.7094 233.2474,97.8361 232.5492,98.1177 232.0885,97.9315 232.4255,97.1354 232.8881,96.3495 233.1251,94.9892 232.8881,94.3061 232.9902,93.6373 232.6689,93.2606 231.3738,93.1252 230.515,92.8597 228.5364,92.823 227.6618,93.2502 226.4657,93.282 225.6235,93.1971 224.4915,93.4564 223.6691,93.5015 223.0899,92.7954 223.0138,92.1096 222.8494,91.5894 222.2292,90.256 221.5577,89.6381 219.171,90.3654 217.7904,90.3997 217.1296,90.2018 215.7914,89.6254 214.79,88.741 214.6936,87.397 215.0295,86.0462 215.8888,85.1987 216.7688,84.6216 217.4267,84.0563 216.2059,83.6096 214.275,82.3294 214.054,81.6124 214.2907,80.6322 214.5825,80.1302 215.2556,79.3494 215.2287,78.8917 215.2017,78.4071 215.3633,78.0571 215.9017,77.6263 215.8479,77.2225 215.3633,76.7917 214.9594,76.3878 214.7979,76.0109 215.0671,75.3109 215.5248,74.8263 215.444,74.4224 215.3902,73.6955 214.8786,72.8878 214.4209,72.6455 213.9363,72.9686 213.4248,73.2378 213.2902,73.6955 213.0748,73.857 212.8055,73.7224 212.5901,73.4532 212.1055,73.2647 211.8363,73.4263 211.567,73.507 211.2978,73.507 211.0286,73.7493 210.7863,73.6686 210.3286,73.2916 209.8978,73.2109 209.4132,72.9416 209.1439,72.4839 208.7401,72.0532 208.2555,71.8108 207.9054,72.0532 207.3939,72.5647 207.0977,72.3762 206.8016,71.8916 206.8285,71.5147 207.2593,71.407 207.5016,71.1378 207.3939,70.5454 206.9631,69.7647 207.1247,68.58 207.017,68.2569 206.7747,68.0954 206.667,67.4492 205.3384,57.4925 205.2539,56.8595 205.2451,56.7934 204.9456,54.5491 204.9456,53.9764 204.6911,53.637 204.2668,53.4461 203.885,52.6188 203.9911,51.7066 204.2668,49.9248 204.2456,48.8853 203.6941,47.9732 203.2274,47.9096 202.3799,47.7631 202.3081,47.6985 201.9398,47.3673 200.8185,46.6836 199.8613,46.1914 199.6699,45.8085 199.8066,44.5505 198.9862,43.8121 198.1658,42.472 197.7555,41.0226 196.8257,40.0928 196.771,37.7135 194.8019,35.4162 193.2125,33.0541 193.2145,33.054 194.0799,34.0068 194.885,34.3003 194.8861,34.3008 195.4375,33.8612 195.86,32.0826 197.2184,31.9799 197.2204,31.9797 198.0747,31.5266 198.2719,30.4333 198.027,29.1787 196.6228,26.3043 194.2985,23.5921 194.0066,22.221 194.6606,20.7065 196.4585,20.8289 196.4604,20.829 198.4842,22.2736 201.4592,23.3295 203.6053,24.8609 205.4524,24.8849 205.4544,24.8848 208.0863,23.3048 210.5089,22.567 212.2114,21.6475 213.5295,20.4005 214.4566,18.2787 215.4602,14.4788 217.1054,13.6148 216.9487,12.4072 217.9281,9.3495 219.6211,8.4082 220.4765,7.3263 221.7704,7.0127 221.7723,7.0125 224.5327,5.4262 224.8475,4.25 224.9167,1.5214 226.3513,0.0 227.0257,0.1316 227.2342,3.39 227.7654,4.3862 229.0341,4.5411 229.0349,4.5402 229.036,4.5404 230.5075,3.0189 232.0307,2.9798 232.0326,2.9797 232.2352,2.8705 232.2891,2.8415 233.0101,2.4545 233.3814,2.2551 234.9199,3.2601 234.9218,3.2599 235.3918,3.1742 235.3938,3.174 236.2728,1.9777 236.9923,0.0575 238.0523,0.1591 238.0542,0.1591 239.0355,1.1416 239.4839,1.2394 239.1062,2.6043 239.106,2.6086 239.1084,2.6109 239.2033,2.6484 239.3136,2.7203 239.3825,2.7826 239.4278,2.8662 239.4731,2.942 239.5047,3.0062 239.5559,3.0743 239.6642,3.1735 239.7528,3.2513 239.8494,3.3485 239.936,3.4185 239.9853,3.4224 240.0582,3.4516 240.1369,3.5002 240.1724,3.5546 240.1468,3.5974 240.1133,3.6266 240.07,3.6538 240.0345,3.6817 239.9912,3.7206 239.9596,3.7653 239.9281,3.8237 239.9104,3.882 239.8946,3.9365 239.8867,3.9987 239.8789,4.059 239.871,4.1134 239.8513,4.1601 239.8394,4.2243 239.8414,4.2807 239.8552,4.3332 239.8729,4.3857 239.8867,4.444 239.9044,4.481 239.9222,4.5237 239.9537,4.5743 239.9773,4.6054 240.0285,4.6482 240.0935,4.6929 240.1369,4.7202 240.2023,4.7615 240.2377,4.8004 240.2889,4.8743 240.3283,4.9404 240.3815,5.026 240.4406,5.1271 240.4878,5.1971 240.541,5.2885 240.5883,5.3663 240.6277,5.4305 240.6671,5.4966 240.7045,5.5628 240.74,5.6211 240.7774,5.6892 240.8168,5.7358 240.8522,5.7845 240.8759,5.8389 240.8916,5.8914 240.9153,5.9375 240.9449,6.0017 240.9862,6.06 241.0197,6.1145 241.0493,6.1612 241.0768,6.2176 241.1044,6.2817 241.132,6.3517 241.1438,6.4334 241.1655,6.5365 241.1674,6.5929 241.1674,6.6726 241.1674,6.7212 241.1576,6.7601 241.1528,6.7884 241.1542,6.7943 241.16,6.7986 241.2152,6.8215 241.2779,6.8412 241.3466,6.8694 241.381,6.909 241.3925,6.9741 241.401,7.0674 241.4211,7.1889 241.4239,7.2936 241.4268,7.3614 241.444,7.4491 241.4612,7.5395 241.4783,7.6074 241.5098,7.7148 241.5327,7.794 241.5757,7.893 241.6043,7.9891 241.653,8.0739 241.7046,8.1446 241.7504,8.2238 241.8019,8.2803 241.8592,8.3284 241.9308,8.3539 242.0139,8.3426 242.1113,8.3284 242.2172,8.3058 242.3089,8.2889 242.3891,8.2634 242.4779,8.2408 242.5523,8.2154 242.5982,8.2041 242.6497,8.1503 242.6984,8.0938 242.7528,8.0486 242.8273,7.9864 242.8903,7.9496 242.9677,7.9327 243.0564,7.944 243.151,7.9722 243.234,7.9977 243.3257,8.0175 243.4077,8.0233 243.4351,8.0256 243.5108,8.0318 243.5995,8.0403 243.6368,8.0233 243.7065,7.9863 243.7514,7.9413 243.8201,7.8763 243.8917,7.8254 243.9375,7.7774 244.0005,7.7236 244.0578,7.6812 244.0611,7.681 244.1266,7.6756 244.2182,7.6784 244.3528,7.6926 244.4731,7.6954 244.6049,7.6869 244.6793,7.6643 244.7366,7.6219 244.7968,7.5682 244.8627,7.5484 244.9247,7.5201 244.9913,7.4763 245.0089,7.4678 245.0273,7.4659 245.0371,7.4673 245.0439,7.4682 245.0575,7.4731 245.1337,7.5315 245.2128,7.598 245.3607,7.7278 245.4173,7.7944 245.465,7.8327 245.5118,7.8753 245.5905,7.9717 245.6827,8.0601 245.8011,8.1207 245.9377,8.1886 246.1045,8.2291 246.2958,8.2342 246.4283,8.2347 246.5111,8.2341 246.5511,8.2306 246.5756,8.2288 246.599,8.2298 251.1761,11.1907 251.533,11.4216 253.7613,12.8631 255.9873,14.3031 257.3594,14.8397 268.1559,19.0628" stroke="black" /><polygon fill="none" points="162.8401,241.6551 146.9529,240.5831 142.5233,240.2842 124.9523,239.0971 118.353,230.708 112.4267,224.9105 113.1172,223.3892 113.1917,222.174 113.7869,221.3343 114.1869,220.4566 115.8901,218.8899 116.2295,218.694 116.8633,218.6413 117.2758,218.5016 117.4768,218.2265 117.5782,217.324 117.7264,217.1019 118.3815,216.5309 118.6156,216.1362 118.6923,215.8751 118.7607,215.6425 118.6904,215.4914 118.4699,215.0174 118.8419,214.818 119.0393,214.6221 119.1116,214.2643 118.9961,213.7974 119.0809,213.4397 120.1019,211.9014 120.523,211.5655 120.8932,211.1686 120.9282,210.8853 120.1981,209.736 120.2083,209.4036 120.8356,208.4263 120.883,208.0809 122.4666,206.8315 123.1228,206.4328 123.4938,206.1136 124.1946,204.9257 124.3658,204.4687 124.2261,204.1373 123.7393,203.8945 123.3033,203.8731 122.929,203.7405 122.5899,203.2905 122.141,203.1833 121.4694,203.1881 120.3256,203.3801 119.4544,203.3378 118.5939,203.0855 116.182,202.1682 117.9198,201.463 140.0966,192.466 140.806,192.1782 166.0792,181.9251 166.2013,181.8755 166.2032,181.8748 168.3136,181.0186 169.2026,181.7175 205.0753,209.8686 193.578,213.2909 194.7899,222.1596 202.4759,230.4859 204.6852,243.3683 204.6,243.2977 204.4817,243.1005 204.3568,242.877 204.1348,242.7763 199.4549,241.2241 196.466,240.2327 194.9162,240.0901 174.048,238.1698 174.0147,238.2291 174.0172,238.317 174.0494,238.4639 174.1274,238.6856 174.1095,238.7525 174.0576,238.7919 173.7542,238.8825 173.4506,239.0703 172.8118,239.6339 172.277,239.9132 171.8827,239.9931 171.6023,240.0515 171.473,240.1638 171.3986,240.3215 171.386,240.5455 171.3918,240.6135 171.4228,240.6852 171.4616,240.7446 171.5412,240.847 171.613,240.936 171.6906,241.0302 171.7324,241.0723 171.744,241.1087 171.7411,241.1613 171.7091,241.2044 171.6596,241.2312 171.6043,241.2694 171.5548,241.3288 171.5295,241.3766 171.4985,241.412 171.4732,241.4609 171.4616,241.5432 171.4539,241.6078 171.4413,241.6346 171.4238,241.6442 171.3879,241.6432 171.35,241.6662 171.3065,241.7297 171.2888,241.7913 171.2299,241.8901 171.1639,241.9993 171.0661,242.1945 171.0533,242.2091 163.7161,241.7142 162.8401,241.6551" stroke="black" /><polygon fill="none" points="181.2734,147.203 181.061,146.9656 180.9151,146.8025 180.2637,145.5187 180.2544,145.5004 180.1047,145.2057 179.9897,145.591 179.9168,145.8353 179.914,145.8449 170.8163,176.3125 169.6653,180.1678 169.2026,181.7175 168.3136,181.0186 166.2032,181.8748 166.2013,181.8755 166.0792,181.9251 140.806,192.1782 140.0966,192.466 117.9198,201.463 102.2214,172.5722 100.0771,168.6244 99.3131,167.9044 100.1763,168.0104 100.2307,167.9706 100.2348,167.9676 140.7136,138.3287 140.9008,138.6387 141.7643,139.1536 144.0221,139.1774 145.4085,139.5973 146.7552,139.8032 148.0336,140.0494 147.9305,139.76 147.89,139.7045 147.8317,139.6247 147.4728,139.4167 147.4533,139.3106 147.4034,139.0381 147.4356,139.0383 147.4612,139.0384 148.1982,139.0413 148.5826,138.8997 149.1936,138.8151 149.8515,138.6694 149.7634,137.8764 149.5511,137.8964 149.4376,137.92 149.1575,137.9892 148.9812,138.0503 148.8118,138.1086 148.6527,138.1693 148.463,138.2292 148.3137,138.2709 148.2037,138.2942 148.1682,138.2993 148.1215,138.3061 148.035,138.3187 148.0041,138.3232 147.8845,138.3405 147.74,138.3435 147.6614,138.3452 147.6001,138.3464 147.5379,138.3467 147.4944,138.3482 147.4496,138.3523 146.6407,138.4263 146.4453,138.4442 145.1754,138.3364 143.7856,138.0129 142.5396,137.953 141.9848,137.4504 142.5937,136.1856 143.565,134.9707 144.6144,134.0354 146.5647,132.7808 148.4353,132.0052 149.8838,131.4805 150.5682,130.3856 150.5579,129.2789 150.5787,129.2733 152.7622,128.6857 154.126,127.8561 155.1612,125.8122 155.4239,124.8179 159.0739,122.3212 159.1205,118.6305 159.1261,118.1802 172.3346,100.1988 172.464,100.0226 168.2067,86.5554 204.733,82.1263 197.3816,103.1231 197.259,103.4732 186.1099,135.3168 186.2604,135.7184 185.9172,135.7901 185.9672,136.3357 185.9442,136.6101 185.9252,136.8372 186.2928,136.9713 186.3411,137.2443 186.9819,137.3306 186.9377,137.5123 186.2991,137.7452 186.2587,138.6561 186.035,139.1116 186.129,139.5215 186.4515,139.7932 186.2707,140.0684 186.2725,140.3423 186.0333,140.6016 185.9321,140.8214 185.9842,141.5949 186.17,141.9576 186.0809,142.2321 186.2207,142.5038 185.809,142.6433 185.6295,143.1452 185.7692,143.4635 185.591,144.1026 186.0979,144.5084 185.7332,144.7843 185.5526,145.1501 185.6013,145.4684 186.3638,146.3958 186.2314,147.034 186.4619,147.2609 186.4219,147.3852 185.6883,147.7675 185.965,148.2657 185.9694,148.6762 186.3353,148.9017 186.1586,149.4941 186.2979,149.7664 186.3496,150.3573 186.9013,150.7181 187.2212,150.7619 187.426,150.5092 187.9303,150.551 187.9807,151.2781 188.1331,151.261 188.7539,151.1915 188.2612,151.9127 187.4434,152.0225 186.1112,152.3401 185.5593,152.0247 184.6503,149.9611 183.6329,148.8297 182.666,148.0631 181.5616,147.5254 181.2734,147.203" stroke="black" /><polygon fill="none" points="288.3557,199.5986 290.6614,200.1074 297.2151,201.5538 299.9715,202.1617 299.4219,203.3059 293.003,216.6601 292.9483,216.8597 290.1559,224.0092 288.3178,226.4088 280.6496,236.4189 280.1576,237.0612 275.7857,242.7684 275.6482,242.9479 265.294,248.8192 264.1049,248.843 238.6027,249.3519 236.1688,249.0527 228.8251,251.3669 228.8001,251.3491 228.7905,251.3223 228.7589,251.3107 228.7287,251.3237 228.7228,251.3433 228.7162,251.3753 228.7006,251.396 228.6754,251.4012 228.6396,251.3909 228.6112,251.3753 228.526,251.3307 228.4966,251.2903 228.465,251.2561 228.4313,251.253 228.3966,251.2727 228.3367,251.3038 228.301,251.3463 228.281,251.3608 228.2557,251.3494 228.2484,251.3194 228.2368,251.2841 228.2557,251.2426 228.2473,251.2188 228.2203,251.2026 228.1556,251.1873 228.1224,251.1585 228.1184,251.114 228.1436,251.0643 228.1436,251.0369 228.1197,251.0107 228.0852,251.0107 228.0454,250.9976 228.0136,250.9466 227.9605,250.91 227.8875,250.842 227.8544,250.8289 227.8265,250.8407 227.8053,250.8603 227.7801,250.8538 227.7403,250.8302 227.6978,250.8119 227.609,250.774 227.5718,250.7413 227.5654,250.7061 227.5585,250.6406 227.528,250.6144 227.4803,250.6131 227.4511,250.6367 227.398,250.6982 227.3489,250.7137 227.2671,250.7216 227.2043,250.7147 227.1783,250.6941 227.1783,250.6616 227.2092,250.639 227.2272,250.6154 227.2142,250.5898 227.1925,250.5797 227.1039,250.5544 226.9925,250.4896 226.874,250.4474 226.7897,250.4291 226.674,250.4277 226.659,250.4296 226.5711,250.4404 226.3983,250.3813 226.2728,250.3056 226.229,250.2749 226.1932,250.2533 226.1794,250.226 226.1886,250.1987 226.2116,250.1634 226.2186,250.1287 226.213,250.105 226.1947,250.0787 226.1665,250.0259 226.1482,249.9731 226.1566,249.9218 226.1834,249.887 226.2397,249.8454 226.2876,249.7787 226.341,249.7273 226.3776,249.6995 226.4171,249.7065 226.4481,249.7342 226.4875,249.7299 226.5198,249.6938 226.541,249.648 226.5423,249.5869 226.5635,249.5522 226.624,249.4897 226.6817,249.4674 226.6972,249.4202 226.6817,249.3716 226.6422,249.3494 226.6042,249.3508 226.5747,249.3217 226.569,249.2703 226.5986,249.1981 226.5732,249.1412 226.5253,249.0856 226.4296,248.9649 226.4085,248.9204 226.4125,248.9115 226.4254,248.8829 226.5098,248.8636 226.5295,248.8316 226.5253,248.7914 226.4929,248.7455 226.4943,248.6858 226.5267,248.647 226.5323,248.6025 226.521,248.572 226.4689,248.5178 226.3999,248.4512 226.3436,248.4193 226.2929,248.4012 226.2422,248.3804 226.2084,248.3568 226.1718,248.3416 226.0972,248.3263 226.0564,248.3444 226.0409,248.3874 226.0423,248.4332 226.0564,248.4679 226.0423,248.4985 226.017,248.5193 225.9494,248.5554 225.8847,248.5624 225.8354,248.5402 225.8059,248.5013 225.7341,248.4763 225.6735,248.4916 225.6242,248.5138 225.5961,248.5847 225.558,248.643 225.4778,248.7082 225.3919,248.736 225.3207,248.7781 225.2793,248.8026 225.1976,248.8429 225.1512,248.8346 225.1118,248.7971 225.0442,248.7305 225.0338,248.5668 225.024,248.4114 224.9358,248.1997 224.7806,248.0269 224.629,247.981 224.5443,248.0128 224.3926,248.0198 224.3239,248.0334 224.2954,248.0364 224.2721,248.0274 224.2415,248.0133 224.2059,247.9832 224.1693,247.9572 224.1357,247.9541 224.0981,247.9612 224.0665,247.9732 224.0197,247.9893 223.9679,247.9883 223.9221,247.9662 223.8875,247.9672 223.8651,247.9853 223.8458,248.0054 223.8173,248.0074 223.7888,247.9923 223.7634,247.9853 223.7379,247.9913 223.682,248.0184 223.6088,248.0516 223.3344,248.1631 222.8895,248.2092 222.7791,248.1252 222.7958,247.9528 222.7718,247.9169 222.7383,247.9028 222.701,247.9094 222.6684,247.9198 222.6206,247.9179 221.9934,247.8264 221.9006,247.8302 221.8384,247.8624 221.7761,247.9039 221.7015,247.9577 221.6651,248.0125 221.6551,248.0683 221.6494,248.1023 221.635,248.1372 221.5862,248.1599 221.5518,248.1533 221.5259,248.1174 221.4972,248.0929 221.4656,248.0778 221.4427,248.09 221.4187,248.107 221.3948,248.1429 221.3814,248.1854 221.39,248.2156 221.412,248.2373 221.5049,248.2694 221.5767,248.3288 221.5949,248.3553 221.593,248.3921 221.5509,248.4695 221.5451,248.5195 221.5231,248.5808 221.503,248.6018 221.4741,248.6108 221.4369,248.6108 221.4029,248.6059 221.3748,248.6149 221.3442,248.6288 221.3136,248.6312 221.3101,248.6313 221.2863,248.632 221.2664,248.6386 221.2424,248.6549 221.216,248.6492 221.1787,248.6288 221.1382,248.6068 221.1052,248.6022 221.0613,248.5945 221.0191,248.5986 220.9876,248.6101 220.967,248.6076 220.9521,248.5946 220.9339,248.588 220.914,248.5913 220.8958,248.5791 220.8883,248.5554 220.8825,248.5331 220.8817,248.5301 220.8569,248.5048 220.8079,248.468 220.7648,248.4598 220.7235,248.4713 220.6804,248.4835 220.6685,248.484 220.6176,248.486 220.5646,248.4648 220.5536,248.4576 220.5232,248.4379 220.4827,248.4126 220.4413,248.3889 220.4198,248.3677 220.4091,248.3326 220.4066,248.3065 220.3932,248.2835 220.3702,248.2608 220.3288,248.2486 220.2825,248.2396 220.261,248.2347 220.2114,248.225 220.1312,248.2209 220.0625,248.2242 220.0178,248.2038 219.9516,248.1752 219.8771,248.1171 219.8531,248.0837 219.8225,248.0462 219.7788,248.0202 219.6864,247.9361 219.5975,247.8814 219.557,247.8716 219.5048,247.8716 219.4701,247.8855 219.4263,247.892 219.3741,247.9018 219.2972,247.9002 219.2625,247.9157 219.2219,247.9483 219.174,248.0033 219.1669,248.0088 219.0823,248.0746 218.9859,248.1165 218.9147,248.132 218.8783,248.1393 218.8237,248.1353 218.76,248.1279 218.717,248.1133 218.6237,248.0074 218.59,247.9777 218.5544,247.9565 218.5238,247.9532 218.4841,247.9524 218.4311,247.9508 218.393,247.9451 218.3492,247.9157 218.3243,247.901 218.3103,247.8725 218.3103,247.8398 218.3061,247.8113 218.2863,247.7868 218.2639,247.7558 218.2272,247.7063 218.2206,247.6802 218.2264,247.6606 218.2471,247.6361 218.2595,247.6018 218.2636,247.5455 218.2454,247.5153 218.2197,247.5006 218.1874,247.4908 218.1535,247.4925 218.0767,247.4835 218.0444,247.4607 218.0055,247.4093 217.9735,247.3931 217.9288,247.3744 217.8849,247.363 217.8328,247.3548 217.7956,247.336 217.7501,247.3042 217.6582,247.2161 217.5821,247.168 217.5407,247.128 217.5151,247.0888 217.5043,247.0619 217.4927,247.0325 217.4709,247.0114 217.3855,246.9536 217.306,246.8967 217.2489,246.8488 217.2324,246.8227 217.2338,246.7967 217.2453,246.7614 217.2688,246.741 217.3667,246.6423 217.376,246.6127 217.376,246.5655 217.3903,246.5126 217.4021,246.4827 217.4046,246.4766 217.4038,246.4548 217.4003,246.4428 217.3802,246.4245 217.3545,246.4097 217.3452,246.3794 217.3517,246.3582 217.3595,246.3272 217.3581,246.3075 217.3366,246.2744 217.3009,246.2412 217.2544,246.2074 217.223,246.1849 217.1794,246.1405 217.066,246.0058 217.0038,245.9664 216.9345,245.9438 216.8859,245.9361 216.8552,245.9149 216.8187,245.867 216.8044,245.8198 216.7707,245.7545 216.765,245.7157 216.7621,245.6523 216.7471,245.6149 216.7135,245.5959 216.6664,245.5741 216.6221,245.5642 216.4891,245.5149 216.4448,245.5022 216.3962,245.5071 216.3655,245.5205 216.3198,245.5544 216.1274,245.6735 216.0974,245.7116 216.0758,245.7271 216.0434,245.7505 216.0074,245.7902 215.9483,245.824 215.9046,245.8341 215.8163,245.8265 215.7272,245.7927 215.6364,245.7235 215.5841,245.6601 215.5635,245.6221 215.5618,245.5832 215.5575,245.546 215.5523,245.5223 215.5361,245.4987 215.5051,245.4643 215.4494,245.4162 215.38,245.3477 215.3475,245.2945 215.3451,245.2822 215.3415,245.264 215.344,245.2286 215.3577,245.1956 215.3903,245.1474 215.398,245.1229 215.3971,245.0815 215.3903,245.0376 215.3782,244.9776 215.3699,244.9538 215.3412,244.9264 215.3073,244.9143 215.2683,244.9011 215.2159,244.893 215.1614,244.8941 215.0669,244.889 214.9796,244.9012 214.9057,244.9133 214.8379,244.9144 214.7414,244.8901 214.7259,244.884 214.6818,244.8668 214.6089,244.8283 214.572,244.7999 214.5494,244.7645 214.5062,244.6967 214.469,244.6509 214.4647,244.6457 214.4267,244.5981 214.4093,244.5606 214.4072,244.513 214.4,244.4684 214.3774,244.433 214.3323,244.3955 214.2891,244.3641 214.2356,244.3398 214.1435,244.2478 214.1095,244.188 214.0719,244.1118 213.9826,244.0085 213.8748,243.9326 213.7753,243.8692 213.4628,243.7045 213.3909,243.6336 213.357,243.5891 213.3355,243.5395 213.3303,243.4919 213.3354,243.4413 213.3324,243.3603 213.3072,243.3078 213.2631,243.2723 213.2056,243.2369 213.1574,243.2298 213.1102,243.2329 213.0732,243.2228 213.026,243.2015 212.9654,243.1782 212.9151,243.1418 212.8853,243.1246 212.8422,243.0902 212.7838,242.9864 212.6972,242.8347 212.6063,242.7134 212.5755,242.6698 212.5334,242.6283 212.4769,242.606 212.4184,242.6091 212.3681,242.6162 212.3198,242.6304 212.2788,242.6547 212.248,242.6861 212.2244,242.7195 212.17,242.7863 212.1145,242.8096 212.0651,242.8163 212.0004,242.8291 211.9578,242.8547 211.869,242.9131 211.6748,243.028 211.5434,243.0883 211.438,243.1904 211.3807,243.3254 211.3511,243.4531 211.3603,243.5785 211.3159,243.6806 211.0349,243.9086 210.9554,243.9579 210.8704,244.0035 210.7798,244.0199 210.5548,244.2836 210.075,244.6319 209.5821,244.6976 209.2995,244.6911 209.092,244.757 208.683,244.9026 208.3727,245.0131 208.0441,244.9868 207.6694,244.9803 207.3539,244.8948 207.0713,244.7305 206.7098,244.5333 206.5126,244.323 206.2366,243.9944 205.9604,243.8644 205.9014,243.8366 205.3361,243.738 204.8695,243.5211 204.6852,243.3683 202.4759,230.4859 194.7899,222.1596 193.578,213.2909 205.0753,209.8686 198.9115,201.2148 198.8606,201.1434 196.98,198.5026 197.3738,198.2712 197.8174,198.2269 198.4569,198.3465 198.7893,198.3157 199.2688,197.4856 199.6561,197.3036 200.4045,197.2155 201.0408,196.9625 201.6378,196.9717 201.999,197.0656 202.5464,196.9902 204.2899,196.3983 204.762,196.4359 205.0804,196.351 205.356,196.1004 205.7857,196.0419 206.2696,195.805 207.0424,195.7567 207.4593,195.8776 208.1385,195.804 208.3731,195.6089 208.6881,195.1241 209.0197,194.9286 209.3518,194.8574 209.8045,194.0889 210.0806,193.9352 210.4022,194.2223 210.7478,194.0958 210.9828,194.1291 211.0256,194.1352 211.4859,194.4349 211.7399,194.9563 211.9908,195.1201 212.2807,194.9658 212.3902,194.7449 212.548,194.6572 212.791,194.5213 213.2078,194.628 213.6684,194.9699 214.1539,194.9242 214.8038,194.6439 215.4137,194.6251 215.7178,194.4434 215.7297,194.0714 215.6295,193.8103 215.7531,193.6441 216.0857,193.5312 216.1668,193.2689 216.6202,193.0999 216.6179,192.7689 216.7977,192.7261 217.048,192.7793 217.2829,192.627 217.2781,192.0749 217.415,191.8391 217.9405,191.5462 218.1052,191.3656 217.9922,191.0355 217.4045,190.4196 216.8714,190.206 216.3129,189.7831 216.1279,189.1782 216.2357,188.75 216.4422,188.5556 216.8703,188.5394 216.9671,188.4012 216.9384,188.2907 217.1873,188.1924 217.2688,187.9742 217.0872,187.7966 217.1124,187.6034 217.4041,187.559 217.7795,187.6118 217.9589,187.5006 217.7724,186.73 217.9021,186.5442 218.5619,186.1529 219.0766,186.1151 219.7668,186.8026 219.9392,186.8688 220.0877,186.7434 220.1068,186.7273 220.3593,186.5139 220.5544,186.6374 220.7626,186.9989 221.0833,187.0077 221.2536,186.8592 221.5889,186.8455 221.596,186.8452 221.858,186.673 221.967,185.9571 222.1816,185.717 222.9827,185.8468 223.3484,185.7647 223.4776,185.1597 223.6741,184.8738 224.2242,184.7381 224.6847,184.3184 225.0554,183.8335 225.6505,183.7198 225.8502,183.8935 225.8777,184.6158 226.2087,184.6353 226.9514,183.7536 227.5684,183.5954 227.9227,183.7461 228.0805,184.2056 228.8531,184.3306 229.5658,185.1573 229.9186,185.1547 230.2695,184.5303 230.3146,184.0567 230.5844,183.7071 231.3108,183.2765 231.5513,183.0432 231.7422,182.539 231.9539,182.2574 232.4211,182.2635 232.7547,182.6183 233.6307,182.7663 233.5936,182.9694 233.1874,183.3392 233.1136,183.7651 233.2416,183.9571 233.6203,183.9252 234.9246,183.1023 235.4646,182.6248 235.7565,182.5356 236.0099,182.5725 236.0799,182.8717 236.3439,183.0341 236.6424,183.108 236.7029,183.4361 236.8891,183.6284 237.2107,183.6552 237.5129,183.7599 238.1146,183.6093 238.2816,183.7727 238.3432,184.1585 238.617,184.3982 239.559,184.2069 239.9679,184.2618 240.5354,184.6923 241.1549,185.5283 241.3307,185.6335 241.593,185.6023 241.7464,185.3831 254.3577,190.1208 254.3615,190.1223 255.2406,190.4525 267.0995,194.9074 288.3557,199.5986" stroke="black" /><polygon fill="none" points="214.048,80.9519 213.8803,81.1728 213.3245,81.5434 212.0805,81.7154 204.733,82.1263 168.2067,86.5554 172.464,100.0226 172.3346,100.1988 159.1261,118.1802 159.1205,118.6305 159.0739,122.3212 155.4239,124.8179 155.1612,125.8122 154.126,127.8561 152.7622,128.6857 150.5787,129.2733 150.5579,129.2789 150.5682,130.3856 149.8838,131.4805 148.4353,132.0052 146.5647,132.7808 144.6144,134.0354 143.565,134.9707 142.5937,136.1856 141.9848,137.4504 142.5396,137.953 143.7856,138.0129 145.1754,138.3364 146.4453,138.4442 146.6407,138.4263 147.4496,138.3523 147.4944,138.3482 147.5379,138.3467 147.6001,138.3464 147.6614,138.3452 147.74,138.3435 147.8845,138.3405 148.0041,138.3232 148.035,138.3187 148.1215,138.3061 148.1682,138.2993 148.2037,138.2942 148.3137,138.2709 148.463,138.2292 148.6527,138.1693 148.8118,138.1086 148.9812,138.0503 149.1575,137.9892 149.4376,137.92 149.5511,137.8964 149.7634,137.8764 149.8515,138.6694 149.1936,138.8151 148.5826,138.8997 148.1982,139.0413 147.4612,139.0384 147.4356,139.0383 147.4034,139.0381 147.4533,139.3106 147.4728,139.4167 147.8317,139.6247 147.89,139.7045 147.9305,139.76 148.0336,140.0494 146.7552,139.8032 145.4085,139.5973 144.0221,139.1774 141.7643,139.1536 140.9008,138.6387 140.7136,138.3287 100.2348,167.9676 100.2307,167.9706 100.1763,168.0104 99.3131,167.9044 99.2097,167.807 85.5737,154.9447 85.0913,154.4706 72.5001,142.094 68.5432,138.2029 68.211,137.8762 68.2068,137.8721 53.2323,123.1441 53.0602,126.8803 54.7726,128.6504 54.7494,129.4848 53.6958,130.5231 52.1585,130.9126 48.4614,131.1718 46.9531,132.165 44.7374,131.9763 44.1145,132.4665 41.3659,132.2282 36.0566,133.101 33.2838,132.7469 30.9702,130.3709 30.4761,130.2965 29.6548,130.1733 26.2028,131.5477 24.7334,132.8663 24.1653,134.0822 22.792,135.3721 22.5169,135.1198 9.5236,123.2021 9.4179,123.1052 9.405,123.0934 9.3318,123.0262 9.1164,122.8286 8.8456,122.5802 8.4671,122.2331 0.0706,114.5317 0.3005,114.4124 0.0,111.6009 1.0933,110.7697 1.8634,110.7641 1.8653,110.7641 3.8227,112.3544 3.8245,112.3558 4.0443,110.7512 5.0389,110.3202 7.1516,108.6679 7.6669,108.7286 7.9915,108.7668 7.9935,108.7669 8.0657,109.5156 6.6793,111.1679 6.7005,112.5323 7.0962,113.4253 7.33,113.9529 8.6965,116.0376 9.4519,116.0755 10.3995,115.5336 10.4008,115.5334 11.7647,115.2695 11.7665,115.2693 12.3778,115.7041 12.4636,116.6144 11.9594,118.8513 12.7006,119.4834 13.2155,120.9123 14.2972,121.4812 15.3165,121.4844 15.3185,121.4843 15.7047,120.9475 15.3508,119.5831 15.6672,119.0757 17.2992,119.5059 19.0956,118.1213 19.0974,118.1213 20.3338,118.1304 20.3358,118.1304 21.4353,118.6335 21.8372,118.4724 22.2626,117.0636 22.899,116.6823 24.0216,116.5924 27.7847,119.0227 27.786,119.0226 28.49,118.9387 28.492,118.9385 28.7858,118.337 28.6882,117.5032 28.9657,117.2476 30.3595,117.2375 30.3608,117.2375 31.1601,116.524 33.9449,116.5401 33.9462,116.5401 35.1026,114.5662 35.7901,114.6473 35.792,114.6474 36.1915,115.8389 36.6779,115.7758 37.6652,114.7716 37.6671,114.771 38.7605,114.3814 39.9798,114.3745 39.981,114.3747 41.2842,114.7491 41.2858,114.7492 41.9272,114.2483 41.8744,111.9647 42.4643,111.1372 41.6588,110.1824 41.6862,109.7595 43.7439,108.5517 43.8443,108.032 43.5877,107.6485 41.7633,107.2869 41.3469,106.7355 41.7745,105.6632 40.7567,104.7942 40.7551,104.7945 38.0991,106.058 38.0973,106.058 37.4873,106.0351 37.5373,105.0426 38.4403,103.1936 37.3839,102.0664 37.1763,100.27 36.4181,99.4336 36.273,98.4882 36.7974,93.2992 37.3277,91.3004 37.3152,90.7591 37.2942,89.8485 38.1492,88.2345 38.1469,86.3427 51.5223,79.168 52.6787,78.7933 86.2194,67.9246 88.4334,67.2072 90.004,66.6982 90.0399,66.2232 89.1927,65.5876 89.4746,64.9422 90.7106,66.4694 91.6006,66.1428 92.8903,64.5624 93.3993,64.3292 94.8329,64.3106 95.9621,64.671 95.9639,64.6712 96.6334,63.8137 95.4981,62.2523 95.7637,60.7497 94.9927,58.7604 95.8571,57.503 97.06,57.6559 97.0619,57.656 97.0735,56.8044 97.5954,56.1068 97.6308,55.8372 97.0974,54.9514 98.18,52.6057 97.9172,51.8664 98.4411,49.742 98.9605,48.7221 100.8082,48.9227 100.81,48.9225 102.4863,48.4519 102.4882,48.4515 102.9452,47.9905 102.9462,47.9894 103.1492,48.1963 103.8965,48.959 104.9688,50.0533 106.1259,50.44 106.8906,51.2867 107.8442,50.9965 109.1664,51.2558 109.1679,51.2558 110.2861,50.8549 110.9755,49.9624 112.3813,49.0555 116.6609,48.0398 116.6629,48.0396 117.2522,47.4446 117.7094,46.466 118.8109,44.1085 119.9729,43.6161 120.1193,43.6068 120.1248,43.6065 122.1345,43.4785 123.0221,43.1119 122.9444,41.4082 121.875,39.596 121.8728,39.0392 122.5925,38.2802 122.5944,38.2795 123.6792,37.879 126.5761,37.7767 126.5777,37.7759 127.4005,37.3112 129.5548,34.2976 131.947,33.5517 132.3522,33.4256 133.1983,31.9623 133.2798,29.6329 134.9868,28.5397 138.7007,28.5614 138.7027,28.5614 139.8364,28.9808 140.2698,29.6007 141.2962,30.1993 143.7692,30.575 144.8268,31.0914 144.8012,31.9116 143.8526,33.1205 143.475,35.4792 144.0598,38.5398 145.655,40.3936 147.3404,41.0854 147.3433,41.0856 150.5726,41.1609 150.5752,41.1609 151.5918,40.2987 153.4493,37.2582 154.2653,36.3991 155.2536,35.5168 155.3399,35.5964 155.3413,35.5951 155.8548,35.146 156.1968,34.936 156.1975,34.9367 156.5895,34.6961 158.4364,34.9425 158.4383,34.9426 159.471,36.6727 161.8423,37.4647 167.4976,37.8913 167.4995,37.8913 167.9607,37.8245 168.7149,37.7152 168.7168,37.7151 170.6243,36.7683 171.7295,34.671 174.3052,34.2379 175.6793,34.0067 175.6819,34.0064 178.8912,31.8434 180.1782,32.0523 180.1801,32.0524 182.4696,34.5304 183.3303,35.0076 186.1948,36.1003 190.1352,35.3307 190.1378,35.3304 191.4794,32.9839 193.2125,33.0541 194.8019,35.4162 196.771,37.7135 196.8257,40.0928 197.7555,41.0226 198.1658,42.472 198.9862,43.8121 199.8066,44.5505 199.6699,45.8085 199.8613,46.1914 200.8185,46.6836 201.9398,47.3673 202.3081,47.6985 202.3799,47.7631 203.2274,47.9096 203.6941,47.9732 204.2456,48.8853 204.2668,49.9248 203.9911,51.7066 203.885,52.6188 204.2668,53.4461 204.6911,53.637 204.9456,53.9764 204.9456,54.5491 205.2451,56.7934 205.2539,56.8595 205.3384,57.4925 206.667,67.4492 206.7747,68.0954 207.017,68.2569 207.1247,68.58 206.9631,69.7647 207.3939,70.5454 207.5016,71.1378 207.2593,71.407 206.8285,71.5147 206.8016,71.8916 207.0977,72.3762 207.3939,72.5647 207.9054,72.0532 208.2555,71.8108 208.7401,72.0532 209.1439,72.4839 209.4132,72.9416 209.8978,73.2109 210.3286,73.2916 210.7863,73.6686 211.0286,73.7493 211.2978,73.507 211.567,73.507 211.8363,73.4263 212.1055,73.2647 212.5901,73.4532 212.8055,73.7224 213.0748,73.857 213.2902,73.6955 213.4248,73.2378 213.9363,72.9686 214.4209,72.6455 214.8786,72.8878 215.3902,73.6955 215.444,74.4224 215.5248,74.8263 215.0671,75.3109 214.7979,76.0109 214.9594,76.3878 215.3633,76.7917 215.8479,77.2225 215.9017,77.6263 215.3633,78.0571 215.2017,78.4071 215.2287,78.8917 215.2556,79.3494 214.5825,80.1302 214.2907,80.6322 214.048,80.9519" stroke="black" /><polygon fill="none" points="318.4783,147.3508 315.0489,156.4724 308.6544,174.1004 308.4086,174.7781 305.9722,181.4945 305.7113,182.2139 300.6023,196.2981 297.2151,201.5538 290.6614,200.1074 288.3557,199.5986 267.0995,194.9074 255.2406,190.4525 254.3615,190.1223 254.3577,190.1208 241.7464,185.3831 241.593,185.6023 241.3307,185.6335 241.1549,185.5283 240.5354,184.6923 239.9679,184.2618 239.559,184.2069 238.617,184.3982 238.3432,184.1585 238.2816,183.7727 238.1146,183.6093 237.5129,183.7599 237.2107,183.6552 236.8891,183.6284 236.7029,183.4361 236.6424,183.108 236.3439,183.0341 236.0799,182.8717 236.0099,182.5725 235.7565,182.5356 235.4646,182.6248 234.9246,183.1023 233.6203,183.9252 233.2416,183.9571 233.1136,183.7651 233.1874,183.3392 233.5936,182.9694 233.6307,182.7663 232.7547,182.6183 232.4211,182.2635 231.9539,182.2574 231.7422,182.539 231.5513,183.0432 231.3108,183.2765 230.5844,183.7071 230.3146,184.0567 230.2695,184.5303 229.9186,185.1547 229.5658,185.1573 228.8531,184.3306 228.0805,184.2056 227.9227,183.7461 227.5684,183.5954 226.9514,183.7536 226.2087,184.6353 225.8777,184.6158 225.8502,183.8935 225.6505,183.7198 225.0554,183.8335 224.6847,184.3184 224.2242,184.7381 223.6741,184.8738 223.4776,185.1597 223.3484,185.7647 222.9827,185.8468 222.1816,185.717 221.967,185.9571 221.858,186.673 221.596,186.8452 221.5889,186.8455 221.2536,186.8592 221.0833,187.0077 220.7626,186.9989 220.5544,186.6374 220.3593,186.5139 220.1068,186.7273 220.0877,186.7434 219.9392,186.8688 219.7668,186.8026 219.0766,186.1151 218.5619,186.1529 217.9021,186.5442 217.7724,186.73 217.9589,187.5006 217.7795,187.6118 217.4041,187.559 217.1124,187.6034 217.0872,187.7966 217.2688,187.9742 217.1873,188.1924 216.9384,188.2907 216.9671,188.4012 216.8703,188.5394 216.4422,188.5556 216.2357,188.75 216.1279,189.1782 216.3129,189.7831 216.8714,190.206 217.4045,190.4196 217.9922,191.0355 218.1052,191.3656 217.9405,191.5462 217.415,191.8391 217.2781,192.0749 217.2829,192.627 217.048,192.7793 216.7977,192.7261 216.6179,192.7689 216.6202,193.0999 216.1668,193.2689 216.0857,193.5312 215.7531,193.6441 215.6295,193.8103 215.7297,194.0714 215.7178,194.4434 215.4137,194.6251 214.8038,194.6439 214.1539,194.9242 213.6684,194.9699 213.2078,194.628 212.791,194.5213 212.548,194.6572 212.3902,194.7449 212.2807,194.9658 211.9908,195.1201 211.7399,194.9563 211.4859,194.4349 211.0256,194.1352 210.9828,194.1291 210.7478,194.0958 210.4022,194.2223 210.0806,193.9352 209.8045,194.0889 209.3518,194.8574 209.0197,194.9286 208.6881,195.1241 208.3731,195.6089 208.1385,195.804 207.4593,195.8776 207.0424,195.7567 206.2696,195.805 205.7857,196.0419 205.356,196.1004 205.0804,196.351 204.762,196.4359 204.2899,196.3983 202.5464,196.9902 201.999,197.0656 201.6378,196.9717 201.0408,196.9625 200.4045,197.2155 199.6561,197.3036 199.2688,197.4856 198.7893,198.3157 198.4569,198.3465 197.8174,198.2269 197.3738,198.2712 196.98,198.5026 198.8606,201.1434 198.9115,201.2148 205.0753,209.8686 169.2026,181.7175 169.6653,180.1678 170.8163,176.3125 179.914,145.8449 179.9168,145.8353 179.9897,145.591 180.1047,145.2057 180.2544,145.5004 180.2637,145.5187 180.9151,146.8025 181.061,146.9656 181.2734,147.203 181.5616,147.5254 182.666,148.0631 183.6329,148.8297 184.6503,149.9611 185.5593,152.0247 186.1112,152.3401 187.4434,152.0225 188.2612,151.9127 188.7539,151.1915 188.1331,151.261 187.9807,151.2781 187.9303,150.551 187.426,150.5092 187.2212,150.7619 186.9013,150.7181 186.3496,150.3573 186.2979,149.7664 186.1586,149.4941 186.3353,148.9017 185.9694,148.6762 185.965,148.2657 185.6883,147.7675 186.4219,147.3852 186.4619,147.2609 186.2314,147.034 186.3638,146.3958 185.6013,145.4684 185.5526,145.1501 185.7332,144.7843 186.0979,144.5084 185.591,144.1026 185.7692,143.4635 185.6295,143.1452 185.809,142.6433 186.2207,142.5038 186.0809,142.2321 186.17,141.9576 185.9842,141.5949 185.9321,140.8214 186.0333,140.6016 186.2725,140.3423 186.2707,140.0684 186.4515,139.7932 186.129,139.5215 186.035,139.1116 186.2587,138.6561 186.2991,137.7452 186.9377,137.5123 186.9819,137.3306 186.3411,137.2443 186.2928,136.9713 185.9252,136.8372 185.9442,136.6101 185.9672,136.3357 185.9172,135.7901 186.2604,135.7184 186.1099,135.3168 197.259,103.4732 197.3816,103.1231 204.733,82.1263 212.0805,81.7154 213.3245,81.5434 213.8803,81.1728 214.048,80.9519 214.2907,80.6322 214.054,81.6124 214.275,82.3294 216.2059,83.6096 217.4267,84.0563 216.7688,84.6216 215.8888,85.1987 215.0295,86.0462 214.6936,87.397 214.79,88.741 215.7914,89.6254 217.1296,90.2018 217.7904,90.3997 219.171,90.3654 221.5577,89.6381 222.2292,90.256 222.8494,91.5894 223.0138,92.1096 223.0899,92.7954 223.6691,93.5015 224.4915,93.4564 225.6235,93.1971 226.4657,93.282 227.6618,93.2502 228.5364,92.823 230.515,92.8597 231.3738,93.1252 232.6689,93.2606 232.9902,93.6373 232.8881,94.3061 233.1251,94.9892 232.8881,96.3495 232.4255,97.1354 232.0885,97.9315 232.5492,98.1177 233.2474,97.8361 233.8233,97.7094 234.0793,97.8613 234.4255,98.7057 234.1631,99.097 233.1895,99.2432 232.9777,99.5508 232.9485,99.8205 233.2469,100.2088 233.8672,100.57 234.7945,100.2574 235.5957,99.9873 248.7111,95.5662 248.7384,95.557 249.3909,95.337 262.5113,90.9148 262.9754,90.7584 278.7923,85.4275 279.0293,85.0984 294.1743,54.4438 304.6098,33.3215 308.0572,39.7473 308.2255,40.061 312.868,48.7145 316.1145,54.766 317.8192,57.9433 320.2201,62.4186 320.278,62.5265 320.8448,63.583 337.657,94.9204 337.9705,95.5046 322.7541,135.9779 322.6431,136.273 322.6343,136.2965 318.4783,147.3508" stroke="black" /></svg>