<?xml version="1.0" encoding="utf-8" ?>
<svg baseProfile="tiny" height="500" version="1.2" width="379.2776" xmlns="http://www.w3.org/2000/svg" xmlns:ev="http://www.w3.org/2001/xml-events" xmlns:xlink="http://www.w3.org/1999/xlink"><defs /><polygon fill="none" points="51.6361,280.3965 50.8103,279.7707 49.4243,278.8565 48.0487,278.1281 47.2761,277.7639 46.1864,277.4018 45.1044,277.1461 43.6055,276.9704 42.7909,276.8521 43.1125,276.0917 45.2754,271.3476 46.695,268.219 47.3567,267.7421 47.3991,267.7116 47.9844,267.2897 49.2609,266.3698 50.9514,262.1216 51.1678,261.5779 51.2483,261.3756 51.3789,261.0472 57.2323,252.7003 62.0816,253.9595 66.3506,254.9576 67.776,253.3728 69.0165,251.9948 69.6952,252.4304 70.7814,251.0193 72.0119,249.4206 72.6396,251.5728 79.4826,250.0076 89.067,244.8708 94.3485,242.8919 95.8217,241.321 96.1383,236.8378 96.8068,235.6409 102.6206,234.1035 103.3973,233.8981 103.5058,233.8694 104.6892,234.6675 110.7788,238.7753 109.6908,241.8846 110.212,243.8199 111.682,245.6226 106.4797,248.6015 109.2263,251.9059 107.555,252.6036 107.3855,253.887 105.1388,255.6252 103.9935,261.3198 104.3581,263.7166 100.8032,267.0294 106.1447,267.824 114.1599,269.0162 112.6684,272.7068 112.5199,275.1126 114.3467,281.2312 114.7565,282.603 114.2607,285.9187 110.795,289.6473 113.2643,291.2854 113.3891,292.2473 111.8072,293.5995 109.3067,294.3755 108.7232,294.997 107.5429,296.253 106.7714,298.2288 97.4481,297.6986 105.3253,303.6829 111.5664,306.4128 112.5379,307.5914 110.376,312.7322 111.5738,313.2537 112.6121,315.3547 112.3285,317.7817 111.4179,319.1167 114.0348,324.5667 110.5674,328.8432 104.9961,331.3659 104.8942,331.412 103.5435,330.5467 98.7255,330.6966 93.4036,328.0547 87.0168,327.9495 81.6377,328.9786 74.8224,336.2772 75.2755,339.8478 74.6704,341.5612 66.3016,351.3468 60.8651,355.2462 57.4296,356.1462 54.3334,356.9574 53.1365,358.1909 52.7968,361.3857 51.4399,361.822 49.4337,360.9424 46.2241,363.0328 44.0872,362.9745 43.3326,362.4669 42.2682,362.9749 41.005,361.936 40.3801,362.5737 39.9544,361.9109 39.4683,362.3027 39.1323,363.595 41.0384,366.5415 40.5586,368.2362 31.9257,358.2035 31.7123,357.9558 28.0984,350.7787 26.3243,345.9339 26.1797,345.539 21.9005,333.8506 17.8815,327.1596 15.8094,322.2357 16.1445,315.6466 26.7631,298.5485 28.0821,297.4712 29.5998,296.4105 32.0797,294.8792 35.4706,292.6804 36.907,291.8159 38.7778,290.8902 40.2203,290.4116 42.3985,290.1264 45.6125,290.0118 49.1146,290.129 50.2401,290.1805 51.189,290.1309 51.9158,289.7277 52.3913,289.0002 52.7995,288.0323 53.1829,286.928 53.4402,285.9701 53.5651,284.6931 53.4584,283.3313 52.728,281.8627 51.6361,280.3965" stroke="black" /><polygon fill="none" points="106.3082,70.6144 105.3257,69.9048 103.5962,68.3956 101.2662,66.022 99.5993,63.9601 98.2738,62.508 96.4817,60.9588 94.7641,59.7157 92.8209,58.3541 90.4402,56.5809 88.3975,54.8775 85.378,53.1317 83.9828,52.3985 82.2673,51.5875 81.1054,51.0495 80.3973,50.6983 96.4138,46.9867 101.7503,45.6116 101.8052,45.6847 109.4881,43.9234 109.6055,43.8823 109.7197,43.832 109.8081,43.7589 109.8716,43.6808 141.6962,43.2412 141.6491,53.2167 121.612,57.751 121.7778,60.6766 122.447,60.8622 123.1176,60.9246 123.6265,61.0657 123.8896,61.2287 124.0717,61.479 124.2249,61.7589 124.3965,61.989 124.4705,62.4822 124.3848,63.0787 124.3152,63.6076 124.221,63.9189 124.0183,64.2621 123.7707,64.5642 123.6947,64.6753 123.6459,64.8352 123.6908,64.9541 123.8245,65.0239 124.0378,65.112 124.2912,65.1257 124.7025,65.075 124.9501,64.9834 125.1543,64.8559 125.4706,64.5974 125.648,64.4726 125.8196,64.4161 126.2855,64.3634 126.4883,64.2855 126.6311,64.2634 126.9171,64.303 127.1985,64.3773 127.4903,64.5194 127.7491,64.6923 127.9211,64.8625 128.0612,65.1111 128.1356,65.2641 128.2564,65.344 128.4182,65.3635 128.5704,65.3484 128.66,65.2816 128.6793,65.1794 128.6736,65.0496 128.6561,64.9424 128.714,64.6864 128.7916,64.4434 128.9017,64.1607 129.0469,63.9662 129.1863,63.8351 129.3462,63.724 129.5197,63.6772 129.9699,63.7168 130.5997,63.8527 131.5066,64.0048 132.3272,64.2989 132.6467,64.496 132.9352,64.7806 133.2003,64.9483 133.4407,65.0343 134.214,65.0457 135.0835,64.8703 135.5163,64.8313 135.6917,64.9015 135.836,65.0496 136.0426,65.4064 136.3195,65.7846 136.3974,65.999 136.4169,66.2057 136.4776,66.4617 136.6236,66.8607 136.9667,67.3422 137.2621,67.8878 137.4493,68.3134 137.4828,68.4661 137.5623,68.6692 137.6568,68.7371 137.7771,68.7256 137.9801,68.6457 138.1391,68.5492 138.3067,68.478 138.5002,68.4313 138.7592,68.4643 138.965,68.5824 139.4581,68.8599 139.7194,68.973 139.9591,69.0555 140.195,69.1133 140.3748,69.1527 140.6044,69.1777 140.8247,69.1465 141.0587,69.0938 141.3166,69.0665 141.4599,75.2918 169.6726,74.9771 177.8456,83.8069 177.5587,83.8806 177.1298,83.8338 176.6666,83.8558 175.5157,84.2939 174.8918,84.4421 174.2415,84.4865 173.9951,84.5902 173.8781,84.832 173.8859,85.1517 173.9931,85.4957 174.112,86.3448 174.2154,86.8867 174.3167,87.4248 174.2875,88.0564 174.2388,88.5945 174.0828,89.1481 173.7553,89.9747 173.0691,90.7389 172.5856,91.6434 172.1121,92.2658 171.1976,92.6728 170.1388,92.9671 168.9236,93.2502 167.9818,93.7312 167.3736,94.1991 166.5189,94.8372 166.0006,95.7749 165.7792,96.9389 165.7137,97.6127 165.3862,98.221 164.9339,98.4393 163.8734,98.5485 162.9638,99.0545 162.254,99.632 161.3721,100.2334 160.6572,101.0049 159.8965,101.5117 159.2804,101.8977 158.5825,102.1704 157.5883,102.2798 157.0034,102.4241 156.4576,102.6814 155.9585,102.888 155.5087,103.1803 154.8278,103.6132 154.1015,104.1925 153.6076,104.591 153.2356,105.3454 152.3871,105.9058 151.2018,106.4049 149.7202,106.904 148.7336,107.5658 147.3764,108.1521 145.1155,109.6722 143.3844,110.9511 142.4018,111.7932 141.3881,112.4171 140.1182,113.0394 139.0263,113.9377 138.1608,113.9182 137.069,113.9182 134.1604,114.0429 131.8678,114.0819 130.6826,114.1131 130.0665,114.0429 126.9396,114.078 126.1676,114.0897 125.3761,114.0663 122.2803,114.2418 120.5765,114.3081 117.3481,114.3627 111.952,114.4601 94.2507,114.7876 88.3126,114.8812 81.4777,115.0011 80.581,115.0167 59.5013,115.3861 59.5091,115.2594 59.6319,114.1911 59.6992,113.5751 59.7372,113.46 59.82,113.3499 60.2362,112.883 60.3474,112.7183 60.4058,112.5643 60.4156,112.3986 60.5482,111.1821 60.6612,109.9919 60.7665,109.2238 60.8172,108.7618 60.8718,108.2082 60.9536,108.0931 60.8991,107.9918 53.2758,108.0041 48.5283,108.0046 48.3462,107.7941 47.9467,107.6584 47.5685,107.5921 47.28,107.3972 46.9603,107.2568 46.7342,107.1086 46.5115,107.0757 46.3189,107.1476 46.0206,107.3309 45.8218,107.4206 45.5976,107.4713 45.3637,107.4381 45.1122,107.2685 44.5683,106.6564 46.5256,105.0695 48.1085,103.931 49.8787,102.7535 51.1341,101.7944 52.8575,100.4219 53.7074,99.8449 54.7524,99.3068 56.4211,98.1995 57.3101,97.295 57.9339,95.8914 58.389,95.0309 58.8424,94.1641 59.5364,93.4467 60.2772,93.049 61.9693,92.3784 63.4041,91.5128 64.8935,90.6102 66.1022,90.2515 67.1783,90.2281 68.5118,90.4231 70.6718,90.8598 72.3171,90.9767 73.2451,90.852 73.9781,90.9143 74.6877,91.3666 75.6625,92.201 76.1381,93.4721 75.9822,94.9693 75.0464,97.7765 74.6877,99.0554 73.8923,100.7553 72.941,102.502 71.7401,104.0772 71.0695,104.9194 70.7888,105.8239 71.0071,106.3698 71.6153,106.978 73.0034,107.6643 74.5006,108.1633 75.9822,108.444 77.4794,108.4596 78.9142,108.1477 80.1151,107.6175 80.926,107.0326 83.0939,105.3873 85.3085,103.4066 88.0533,101.2622 90.0496,99.7182 93.5163,97.402 96.0858,95.0957 96.865,94.2986 97.1613,93.4721 97.3952,92.0216 97.7713,90.5518 97.9879,89.3704 98.394,88.6363 99.1264,88.1227 100.0577,87.886 102.5109,87.4338 105.1933,87.0482 107.6322,86.5688 109.1077,85.9549 110.2618,85.0347 111.0572,83.787 111.3535,82.5238 111.3067,81.4165 111.0572,80.2936 110.8544,79.2097 110.831,78.4065 110.7764,77.4863 110.5815,76.6286 110.2847,76.038 109.4196,74.607 108.671,73.3749 107.9536,72.2988 107.2284,71.3708 106.3082,70.6144" stroke="black" /><polygon fill="none" points="113.1783,197.5266 113.3143,211.437 111.5587,214.3187 112.2423,218.1587 112.4905,219.5545 108.6899,221.8846 105.9604,227.8379 104.6631,232.6329 103.5058,233.8694 103.3973,233.8981 102.6206,234.1035 96.8068,235.6409 96.1383,236.8378 95.8217,241.321 94.3485,242.8919 89.067,244.8708 79.4826,250.0076 72.6396,251.5728 72.0119,249.4206 70.7814,251.0193 69.6952,252.4304 69.0165,251.9948 67.776,253.3728 66.3506,254.9576 62.0816,253.9595 57.2323,252.7003 51.3789,261.0472 51.2483,261.3756 51.1678,261.5779 50.9514,262.1216 49.2609,266.3698 47.9844,267.2897 47.3991,267.7116 47.3567,267.7421 46.695,268.219 45.2754,271.3476 43.1125,276.0917 42.7909,276.8521 40.9134,276.6226 37.6404,276.1289 34.4921,275.6645 31.9131,275.4051 29.7282,274.8408 27.5529,274.1172 25.418,273.3752 23.6979,272.4984 22.1026,271.558 20.744,270.279 19.5478,268.6257 18.1104,266.9835 16.5073,265.6319 14.1289,264.2036 11.4237,263.2296 8.5006,262.7541 6.0066,262.4436 4.5031,262.2036 2.7574,261.5905 1.4016,260.6488 0.5678,259.2086 0.1091,257.8492 0.0,256.3948 0.1101,254.879 0.8104,253.0302 2.0341,251.2482 6.8135,245.8056 9.1862,243.2325 11.1174,241.2863 12.4537,239.1695 13.2791,237.2573 14.2472,233.9991 15.6083,229.4974 16.8044,226.3675 18.1539,223.5174 19.1147,221.6948 19.9367,219.618 20.4617,218.0846 20.8633,216.3455 21.3121,214.8469 21.669,213.6635 22.0488,212.1139 22.3572,210.7503 22.5551,209.3892 22.6111,208.2159 22.475,207.1267 22.1464,205.8412 21.6541,204.0583 20.773,201.8685 20.0951,200.2326 19.6032,198.8741 19.0854,197.6471 18.4468,196.5037 17.6067,195.2376 16.9415,194.2396 16.4439,193.5141 16.1123,192.8296 15.9631,192.2734 16.0075,191.7248 16.294,191.2202 17.2461,190.1767 18.3542,189.0757 20.1078,187.2443 22.2346,185.3465 23.7449,184.1264 24.1108,183.7757 24.9255,183.1522 25.4486,182.5753 25.8342,182.046 26.0552,181.3054 26.2574,180.6962 26.5263,180.1546 26.7164,179.7015 27.1737,179.0152 27.3176,178.729 27.4024,178.3941 27.2776,178.0484 27.2467,178.0139 27.0057,177.7449 26.2613,177.226 25.3848,176.5527 24.6004,175.6818 22.4739,174.0539 20.5866,172.5261 19.9147,171.6058 19.4765,170.5123 19.4794,170.479 19.5611,169.5174 19.8961,168.5463 20.0343,168.1615 20.0891,168.0086 20.8025,166.5831 21.5124,164.4511 22.3569,162.6586 22.5013,162.3879 22.6427,162.1228 23.1634,161.4037 24.0011,160.6135 25.3234,159.633 26.8285,158.2197 26.9938,158.1274 27.6688,157.7506 28.7176,157.3672 28.7606,157.3569 31.5747,156.6809 31.6217,156.6696 34.6818,156.108 38.462,154.956 38.9103,154.8084 39.2837,154.6857 41.0514,154.1047 41.201,154.0545 43.1181,153.4115 44.6031,152.5533 45.9064,151.5467 46.7205,150.3662 47.5344,149.3567 48.376,147.9232 48.9666,146.9676 50.0058,145.5118 50.0486,145.4518 51.8361,143.1045 53.3629,140.9126 53.7198,140.1188 54.0523,139.3794 54.8441,137.7767 56.1963,136.3554 57.6776,135.6756 58.7497,135.6722 60.5602,136.1615 62.1917,136.8062 63.5721,137.5901 64.7669,138.7556 65.9036,139.8522 67.3484,140.3556 68.5958,140.3263 69.7756,139.9988 70.713,139.692 71.3916,139.0179 71.7248,137.9682 71.5037,137.0161 70.5202,134.1831 69.3,131.1043 68.6787,128.8804 67.7912,127.4615 66.7751,126.1747 65.4838,124.9905 62.6228,123.4342 58.2777,121.1008 54.9737,119.5485 52.2315,118.8106 50.4063,118.1258 47.8996,117.6281 45.9887,117.3963 44.4705,116.7636 44.462,116.759 43.4413,116.2002 42.1493,115.4313 40.8659,114.6121 39.7154,113.4487 39.2186,111.8503 39.6088,110.7503 40.373,109.8067 41.262,108.9412 42.1197,108.3407 43.2972,107.4868 44.5683,106.6564 45.1122,107.2685 45.3637,107.4381 45.5976,107.4713 45.8218,107.4206 46.0206,107.3309 46.3189,107.1476 46.5115,107.0757 46.7342,107.1086 46.9603,107.2568 47.28,107.3972 47.5685,107.5921 47.9467,107.6584 48.3462,107.7941 48.5283,108.0046 53.2758,108.0041 60.8991,107.9918 60.9536,108.0931 60.8718,108.2082 60.8172,108.7618 60.7665,109.2238 60.6612,109.9919 60.5482,111.1821 60.4156,112.3986 60.4058,112.5643 60.3474,112.7183 60.2362,112.883 59.82,113.3499 59.7372,113.46 59.6992,113.5751 59.6319,114.1911 59.5091,115.2594 59.5013,115.3861 80.581,115.0167 81.4777,115.0011 88.3126,114.8812 94.2507,114.7876 111.952,114.4601 117.3481,114.3627 120.5765,114.3081 122.2803,114.2418 125.3761,114.0663 126.1676,114.0897 126.9396,114.078 130.0665,114.0429 130.6826,114.1131 131.8678,114.0819 134.1604,114.0429 137.069,113.9182 138.1608,113.9182 139.0263,113.9377 137.7238,124.1402 136.4359,135.3591 136.1463,137.619 136.0974,138.0019 134.5519,150.1095 133.9076,151.4102 133.1976,151.794 132.4759,152.1836 125.0664,170.4532 122.773,177.5067 119.0511,188.9501 118.6715,190.1179 117.3507,194.1782 113.1783,197.5266" stroke="black" /><polygon fill="none" points="176.6491,281.1226 176.8898,283.2838 174.8644,284.679 173.5093,292.4523 171.5096,295.0428 169.0446,298.2356 168.0479,297.813 166.3867,299.9214 163.6009,300.1102 162.2457,301.2322 160.1804,304.6406 158.5883,305.71 157.9894,307.8398 155.5487,310.8477 152.7503,311.8615 146.6067,309.9413 143.5091,307.9013 142.0339,308.2358 139.9179,307.0078 138.3825,307.8895 136.5833,304.8833 134.1182,303.483 128.8079,306.0796 126.2186,305.1639 126.1349,304.2196 123.4597,302.1214 120.4692,302.4396 118.5783,301.5204 116.5656,302.712 113.0979,302.7399 112.1696,303.3534 112.3084,304.8105 111.2084,305.5174 111.5664,306.4128 105.3253,303.6829 97.4481,297.6986 106.7714,298.2288 107.5429,296.253 108.7232,294.997 109.3067,294.3755 111.8072,293.5995 113.3891,292.2473 113.2643,291.2854 110.795,289.6473 114.2607,285.9187 114.7565,282.603 114.3467,281.2312 112.5199,275.1126 112.6684,272.7068 114.1599,269.0162 106.1447,267.824 100.8032,267.0294 104.3581,263.7166 103.9935,261.3198 105.1388,255.6252 107.3855,253.887 107.555,252.6036 109.2263,251.9059 106.4797,248.6015 111.682,245.6226 110.212,243.8199 109.6908,241.8846 110.7788,238.7753 104.6892,234.6675 103.5058,233.8694 104.6631,232.6329 105.9604,227.8379 108.6899,221.8846 112.4905,219.5545 118.9314,216.4627 123.8193,216.0419 136.9431,212.8246 147.367,211.5634 149.9297,211.9119 149.9426,211.9136 153.0327,208.2305 153.3514,207.8507 157.3813,206.2968 161.5569,206.7468 161.3059,210.7939 165.137,211.6075 167.2005,214.0722 166.3601,219.2954 166.3731,220.0241 166.4447,224.0643 171.3267,229.3726 176.1287,231.4631 177.6936,232.1447 178.1044,236.1705 179.8238,240.2762 179.075,243.3733 180.2232,245.7774 179.9111,247.2642 177.9751,249.8902 177.8303,255.194 177.7516,258.0997 176.97,260.5716 177.2874,262.8808 179.9555,264.3562 181.0776,266.841 179.7173,268.785 179.1887,275.4949 177.4695,281.4282 176.6491,281.1226" stroke="black" /><polygon fill="none" points="241.4038,34.8259 238.8607,34.789 238.5868,39.4861 238.9526,45.5425 238.9722,45.8672 239.7988,59.5302 219.6635,59.5058 219.8173,66.4467 219.8328,67.1615 219.8364,67.3192 219.8367,67.3203 218.3351,66.223 215.5052,65.2989 211.2309,65.4067 208.7695,65.9101 207.7661,65.7032 206.4955,64.4903 205.3982,63.9128 204.4163,64.1438 203.6655,64.6636 203.243,65.3595 203.1227,66.2865 204.1149,67.0766 204.999,67.4413 205.5493,68.0117 205.6556,68.642 205.992,69.3017 202.9665,71.1444 202.3823,72.6794 202.2835,74.8463 202.4052,75.6001 203.0813,76.7822 204.5,78.6116 196.9263,78.4268 196.8761,82.0077 196.8726,82.2572 192.9912,82.2273 181.6628,82.1397 177.8456,83.8069 169.6726,74.9771 141.4599,75.2918 141.3166,69.0665 141.0587,69.0938 140.8247,69.1465 140.6044,69.1777 140.3748,69.1527 140.195,69.1133 139.9591,69.0555 139.7194,68.973 139.4581,68.8599 138.965,68.5824 138.7592,68.4643 138.5002,68.4313 138.3067,68.478 138.1391,68.5492 137.9801,68.6457 137.7771,68.7256 137.6568,68.7371 137.5623,68.6692 137.4828,68.4661 137.4493,68.3134 137.2621,67.8878 136.9667,67.3422 136.6236,66.8607 136.4776,66.4617 136.4169,66.2057 136.3974,65.999 136.3195,65.7846 136.0426,65.4064 135.836,65.0496 135.6917,64.9015 135.5163,64.8313 135.0835,64.8703 134.214,65.0457 133.4407,65.0343 133.2003,64.9483 132.9352,64.7806 132.6467,64.496 132.3272,64.2989 131.5066,64.0048 130.5997,63.8527 129.9699,63.7168 129.5197,63.6772 129.3462,63.724 129.1863,63.8351 129.0469,63.9662 128.9017,64.1607 128.7916,64.4434 128.714,64.6864 128.6561,64.9424 128.6736,65.0496 128.6793,65.1794 128.66,65.2816 128.5704,65.3484 128.4182,65.3635 128.2564,65.344 128.1356,65.2641 128.0612,65.1111 127.9211,64.8625 127.7491,64.6923 127.4903,64.5194 127.1985,64.3773 126.9171,64.303 126.6311,64.2634 126.4883,64.2855 126.2855,64.3634 125.8196,64.4161 125.648,64.4726 125.4706,64.5974 125.1543,64.8559 124.9501,64.9834 124.7025,65.075 124.2912,65.1257 124.0378,65.112 123.8245,65.0239 123.6908,64.9541 123.6459,64.8352 123.6947,64.6753 123.7707,64.5642 124.0183,64.2621 124.221,63.9189 124.3152,63.6076 124.3848,63.0787 124.4705,62.4822 124.3965,61.989 124.2249,61.7589 124.0717,61.479 123.8896,61.2287 123.6265,61.0657 123.1176,60.9246 122.447,60.8622 121.7778,60.6766 121.612,57.751 141.6491,53.2167 141.6962,43.2412 148.052,43.5715 188.7527,42.5272 197.525,42.3004 194.9499,14.9924 194.8905,14.3631 193.8992,3.8518 196.6252,4.0486 203.3804,2.3515 210.1356,0.6543 216.1369,5.073 219.6609,5.5688 218.3495,7.683 217.8948,10.7181 221.0018,9.7567 226.0818,12.9097 228.1227,10.8331 230.89,11.6565 231.7321,11.2055 232.1273,9.152 230.3691,4.7219 233.5854,2.4871 234.1955,2.3291 238.133,5.5414 240.9858,6.171 242.258,3.9929 242.0192,0.0874 252.7218,0.0 250.8795,2.1292 252.7054,8.1307 254.1856,8.4952 255.7648,6.2354 258.9495,8.6501 263.5404,8.6077 264.8365,9.7788 263.2083,9.0771 261.2913,9.2411 258.8583,11.4647 256.5608,12.1655 256.3885,15.3977 256.3615,15.9038 252.0716,16.7372 249.6849,16.3349 243.478,16.9768 238.8854,19.0495 238.7899,26.686 240.7853,26.7664 243.7574,24.576 246.3787,25.8612 247.5892,25.465 249.6549,23.2074 251.4266,25.6186 254.6587,26.2762 256.6558,26.3936 259.0278,25.235 263.75,25.0672 262.7852,26.1073 262.6929,35.13 241.4038,34.8259" stroke="black" /><polygon fill="none" points="295.3937,192.4711 295.7435,209.7897 296.2146,233.0726 296.5468,249.4696 296.6117,252.6799 297.7237,259.0444 297.1626,260.2142 297.9696,262.5318 302.2573,264.8508 306.1686,269.2794 306.126,273.0108 310.9518,279.758 309.8119,281.5288 310.5163,282.9263 312.1091,283.4705 311.6369,284.511 312.3999,284.9087 313.1672,287.0165 313.1852,289.5472 315.2121,292.0542 318.8875,294.3949 318.9049,294.6323 317.1153,296.522 317.0794,296.5599 317.4402,298.3438 316.4989,299.7849 315.5166,300.4211 312.8098,302.1742 309.7118,302.9675 307.9153,304.9873 307.8806,306.3503 303.089,306.9853 301.5535,308.1501 300.6607,308.0436 298.7863,306.823 296.2975,307.506 291.0884,296.777 289.2086,294.5545 286.1152,293.1701 285.6112,290.0325 286.3838,288.7916 285.4476,286.0744 282.6844,285.3987 282.6834,281.6656 280.2112,280.2297 278.5368,278.3336 274.1233,276.278 269.7096,275.9633 268.6679,274.2879 269.0964,271.4651 266.4004,270.9204 264.6626,269.0546 261.668,268.8444 259.9872,270.2906 255.9424,270.4732 255.0724,271.9967 256.2149,274.6828 259.7989,276.5018 260.5594,279.4112 259.51,281.6079 255.8408,282.9456 252.1965,282.2851 251.2254,284.4574 249.8536,284.7089 248.1709,286.814 240.6441,289.0725 238.1685,289.8151 236.5198,289.5583 234.339,287.7155 231.389,288.1008 228.3831,287.4478 226.548,290.5357 219.3675,294.0891 218.2652,296.9057 216.3951,299.297 215.3728,300.6029 212.9276,308.772 211.0218,312.2794 207.8818,310.6531 203.751,305.7842 198.7417,297.1339 197.8079,294.5303 198.2462,288.9882 197.4413,287.7402 197.1251,287.2499 188.6133,282.857 182.9661,282.1333 177.4695,281.4282 179.1887,275.4949 179.7173,268.785 181.0776,266.841 179.9555,264.3562 177.2874,262.8808 176.97,260.5716 177.7516,258.0997 177.8303,255.194 177.9751,249.8902 179.9111,247.2642 180.2232,245.7774 179.075,243.3733 179.8238,240.2762 178.1044,236.1705 177.6936,232.1447 176.1287,231.4631 171.3267,229.3726 166.4447,224.0643 166.3731,220.0241 166.3601,219.2954 167.2005,214.0722 165.137,211.6075 161.3059,210.7939 161.5569,206.7468 163.9805,204.0107 163.4544,203.6334 163.3636,203.4625 162.783,202.3701 163.3933,201.1739 164.2438,200.14 164.6383,199.6604 165.9995,198.4507 166.2454,198.2321 167.9471,197.6763 172.2978,197.8069 173.6789,197.7926 181.873,197.7074 182.9458,196.5777 184.0411,196.3844 184.9328,196.2271 185.6385,196.1026 186.1661,195.4204 186.2817,195.271 187.6987,195.3201 205.5998,195.8431 205.3315,197.5425 205.3133,197.6579 205.1859,198.4646 207.7323,198.7279 227.3999,200.7621 235.5411,201.6033 236.1914,194.8015 236.2027,194.6835 236.8823,187.5805 236.9758,187.582 264.0474,188.0446 272.2981,188.1844 272.4791,181.5533 295.1733,181.5662 295.3567,190.6394 295.3937,192.4711" stroke="black" /><polygon fill="none" points="333.3654,165.329 331.2023,165.2839 321.0054,165.1855 321.0054,164.8448 314.5457,164.8143 313.1766,164.8079 313.1574,164.6089 310.9282,164.504 310.8795,164.1389 300.8037,164.0392 291.3198,164.035 290.2986,155.1712 272.3806,155.12 272.0492,145.433 271.9545,142.6661 271.9528,142.227 271.9334,137.1874 271.91,131.1404 271.9148,130.6383 271.915,130.6218 271.9797,123.8339 271.9895,122.8012 272.0774,113.5544 281.6698,104.6463 291.2459,108.9477 294.4653,105.4488 295.4243,102.507 300.7968,94.7138 301.7469,92.2287 343.1303,93.5509 345.4639,102.7176 316.4309,108.018 314.022,114.7123 316.0529,120.9105 314.958,123.1704 314.8484,124.1156 338.6747,124.1257 340.3071,124.1264 343.7515,124.1707 347.1216,128.126 346.9411,126.8129 348.0463,125.5672 352.8532,123.8396 353.6528,123.7633 354.7202,121.3805 356.8073,122.4075 359.8998,119.6547 359.2292,128.3111 379.2776,143.9216 363.3758,154.6675 350.8512,159.4503 349.2815,159.6914 348.5848,159.3992 347.7118,159.0868 346.9053,158.7982 346.1205,158.5174 345.4342,158.2825 345.4174,158.2819 344.9284,158.2645 343.8988,158.427 342.3274,158.7702 341.8035,158.9509 341.6229,159.0954 341.5507,159.4386 341.5281,159.5342 341.3159,160.432 340.9546,161.5338 340.6475,162.3828 340.2863,163.0511 339.7805,163.5749 339.3109,164.0626 338.9301,164.3353 338.8936,165.4443 333.3654,165.329" stroke="black" /><polygon fill="none" points="124.5773,461.8556 121.7103,461.6341 120.8995,461.3757 118.7803,460.7003 113.4226,458.9929 110.0907,457.0751 108.6949,455.9717 105.8478,453.7212 105.0752,453.1103 102.1197,449.4958 100.2017,448.5554 93.7945,448.849 90.6021,451.512 89.9094,452.9292 84.3878,455.124 81.3076,455.4579 78.6638,454.8287 76.9957,453.3727 75.9252,452.4384 73.7023,447.7222 70.3268,438.3952 70.2678,438.0174 69.7494,434.6963 70.1322,432.3314 71.7416,430.3632 79.3689,424.5143 81.3134,422.2961 81.8816,419.4947 81.265,417.5163 79.2227,415.5858 70.6899,412.4427 66.166,410.7756 53.051,409.8927 50.4308,408.6035 48.4347,403.8547 49.8382,390.5524 48.816,386.1799 43.5974,373.49 40.5586,368.2362 41.0384,366.5415 39.1323,363.595 39.4683,362.3027 39.9544,361.9109 40.3801,362.5737 41.005,361.936 42.2682,362.9749 43.3326,362.4669 44.0872,362.9745 46.2241,363.0328 49.4337,360.9424 51.4399,361.822 52.7968,361.3857 53.1365,358.1909 54.3334,356.9574 57.4296,356.1462 60.8651,355.2462 66.3016,351.3468 74.6704,341.5612 75.2755,339.8478 74.8224,336.2772 81.6377,328.9786 87.0168,327.9495 93.4036,328.0547 98.7255,330.6966 103.5435,330.5467 104.8942,331.412 104.9961,331.3659 110.5674,328.8432 114.0348,324.5667 111.4179,319.1167 112.3285,317.7817 112.6121,315.3547 111.5738,313.2537 110.376,312.7322 112.5379,307.5914 111.5664,306.4128 111.2084,305.5174 112.3084,304.8105 112.1696,303.3534 113.0979,302.7399 116.5656,302.712 118.5783,301.5204 120.4692,302.4396 123.4597,302.1214 126.1349,304.2196 126.2186,305.1639 128.8079,306.0796 134.1182,303.483 136.5833,304.8833 138.3825,307.8895 139.9179,307.0078 142.0339,308.2358 143.5091,307.9013 146.6067,309.9413 152.7503,311.8615 155.5487,310.8477 157.9894,307.8398 158.5883,305.71 160.1804,304.6406 162.2457,301.2322 163.6009,300.1102 166.3867,299.9214 168.0479,297.813 169.0446,298.2356 171.5096,295.0428 173.5093,292.4523 174.8644,284.679 176.8898,283.2838 176.6491,281.1226 177.4695,281.4282 182.9661,282.1333 188.6133,282.857 197.1251,287.2499 197.4413,287.7402 198.2462,288.9882 197.8079,294.5303 198.7417,297.1339 203.751,305.7842 207.8818,310.6531 211.0218,312.2794 210.2878,313.6336 208.3916,317.1312 208.8867,319.446 208.3645,319.2566 204.7432,317.943 200.9918,318.7047 194.038,315.7471 192.3911,317.9954 191.0786,320.9367 191.9014,327.551 190.09,329.779 187.9627,331.0007 187.0579,333.0904 188.4794,337.5589 187.2364,340.1188 187.9837,340.5602 190.8117,342.2306 193.4579,341.4312 197.9761,341.4008 197.3329,342.5572 197.3427,342.6087 197.8806,345.4476 200.1005,348.2503 200.7251,351.5697 202.0785,353.1134 194.7952,354.4544 192.7687,355.4387 189.8267,359.037 188.7074,362.3514 188.399,363.2641 188.0008,364.4434 183.5697,363.6829 180.4643,367.2003 179.0043,367.2261 178.0127,368.8266 182.0125,374.8632 188.0612,374.7845 189.5577,378.0711 194.8398,379.4174 195.7842,382.6599 197.7272,385.7428 204.2922,385.0647 208.6726,385.9856 211.2852,385.6254 213.1163,386.517 214.9835,386.2417 215.0471,384.0723 216.8226,379.7263 216.9736,376.8647 219.904,374.5681 220.03,371.1575 223.3527,370.631 226.1354,367.8774 226.6738,367.3447 235.0806,367.7816 233.3948,369.5491 233.8071,369.9978 243.0267,370.8298 244.6375,374.5337 247.5488,377.5832 246.4244,379.0173 246.9977,380.3818 246.2486,383.0353 246.5219,384.9376 248.2734,386.5557 247.8531,394.6865 244.9781,397.3751 239.1915,400.3446 236.5544,404.1134 232.2969,406.7333 231.4554,408.099 231.514,409.8145 229.3451,411.0226 229.2183,412.9175 226.0388,414.7486 222.9096,418.1778 221.215,421.7174 221.3092,423.3188 221.3575,424.135 222.8224,425.5868 222.7936,426.9441 219.8762,430.0123 219.5555,431.8407 217.0344,435.2125 213.559,438.0265 213.149,439.4919 213.5548,441.7573 212.5691,444.3647 214.9984,447.6739 214.4572,453.0517 215.5043,456.4146 213.0034,459.9091 212.9918,461.5535 216.7451,464.9324 218.9614,465.4084 220.9734,467.3788 220.9613,470.739 221.8685,472.0693 224.3335,473.5063 224.8244,475.3613 227.6985,475.4186 230.2314,474.1177 231.5661,476.2941 237.7851,476.066 238.2,480.7105 236.3725,484.398 238.9243,487.3496 246.6264,490.6761 250.1116,496.129 249.9019,498.4866 234.3965,492.0838 227.8403,490.7829 222.0911,490.7937 203.3476,499.1289 202.9433,499.3088 195.4307,498.443 192.3222,498.084 175.1664,500.0 162.628,499.4419 154.92,486.6141 151.9694,478.9533 146.0785,471.3899 140.4137,465.9431 139.5603,465.6968 127.1405,462.113 126.8595,462.0319 124.5773,461.8556" stroke="black" /><polygon fill="none" points="155.5087,103.1803 155.9585,102.888 156.4576,102.6814 157.0034,102.4241 157.5883,102.2798 158.5825,102.1704 159.2804,101.8977 159.8965,101.5117 160.6572,101.0049 161.3721,100.2334 162.254,99.632 162.9638,99.0545 163.8734,98.5485 164.9339,98.4393 165.3862,98.221 165.7137,97.6127 165.7792,96.9389 166.0006,95.7749 166.5189,94.8372 167.3736,94.1991 167.9818,93.7312 168.9236,93.2502 170.1388,92.9671 171.1976,92.6728 172.1121,92.2658 172.5856,91.6434 173.0691,90.7389 173.7553,89.9747 174.0828,89.1481 174.2388,88.5945 174.2875,88.0564 174.3167,87.4248 174.2154,86.8867 174.112,86.3448 173.9931,85.4957 173.8859,85.1517 173.8781,84.832 173.9951,84.5902 174.2415,84.4865 174.8918,84.4421 175.5157,84.2939 176.6666,83.8558 177.1298,83.8338 177.5587,83.8806 177.8456,83.8069 181.6628,82.1397 192.9912,82.2273 192.8775,120.4362 192.8444,131.571 192.8431,132.0209 192.843,132.0492 192.8372,134.0358 192.837,134.1002 192.8357,134.5602 192.7979,136.0219 192.5175,146.8811 194.1605,147.3761 194.4602,147.4664 196.2379,145.8932 198.0945,144.4481 200.5775,142.7147 201.1813,142.5172 203.5294,142.1325 204.6884,142.5379 205.3976,143.7519 205.5006,144.4446 205.5084,144.4972 205.1639,145.6796 204.6441,146.3569 203.7278,147.298 203.3487,147.9332 203.2393,148.6583 203.4425,149.0694 203.8945,149.3111 204.5198,149.1355 205.1935,148.8106 205.4458,148.7517 206.323,148.5469 206.7289,148.4522 207.974,147.5626 208.9207,147.1442 209.4432,147.0417 209.9817,147.1343 210.3689,147.4057 210.866,148.0492 211.2378,148.2383 211.5201,148.1922 211.8646,147.9252 212.4595,147.1538 213.3419,146.4132 213.8289,146.2264 214.1206,146.1911 214.5315,146.1415 220.0841,146.7013 223.0407,147.1102 225.5013,147.622 226.5935,147.1741 226.7716,147.101 226.748,146.3646 226.5373,146.1951 226.3562,145.6043 225.9391,144.9682 226.1074,143.387 225.7675,142.7099 225.8532,141.5381 226.4975,140.7523 227.2685,140.397 228.8611,140.0477 229.319,139.207 229.4058,138.0471 228.7196,137.4744 228.5974,136.0171 228.7053,135.7223 229.6965,134.8631 229.5519,132.968 229.5548,132.7026 229.5548,132.7008 229.8545,105.5039 272.0987,106.1098 272.0774,113.5544 271.9895,122.8012 271.9797,123.8339 271.915,130.6218 271.9148,130.6383 271.91,131.1404 271.9334,137.1874 271.9528,142.227 271.9545,142.6661 272.0492,145.433 272.3806,155.12 290.2986,155.1712 291.3198,164.035 292.4548,169.861 272.7926,170.1212 272.4791,181.5533 272.2981,188.1844 264.0474,188.0446 236.9758,187.582 236.8823,187.5805 236.2027,194.6835 236.1914,194.8015 235.5411,201.6033 227.3999,200.7621 207.7323,198.7279 205.1859,198.4646 205.3133,197.6579 205.3315,197.5425 205.5998,195.8431 187.6987,195.3201 186.2817,195.271 186.1661,195.4204 185.6385,196.1026 184.9328,196.2271 184.0411,196.3844 182.9458,196.5777 181.873,197.7074 173.6789,197.7926 172.2978,197.8069 167.9471,197.6763 166.2454,198.2321 165.9995,198.4507 164.6383,199.6604 164.2438,200.14 163.3933,201.1739 162.783,202.3701 163.3636,203.4625 163.4544,203.6334 163.9805,204.0107 161.5569,206.7468 157.3813,206.2968 153.3514,207.8507 153.0327,208.2305 149.9426,211.9136 149.9297,211.9119 147.367,211.5634 136.9431,212.8246 123.8193,216.0419 118.9314,216.4627 112.4905,219.5545 112.2423,218.1587 111.5587,214.3187 113.3143,211.437 113.1783,197.5266 117.3507,194.1782 118.6715,190.1179 119.0511,188.9501 122.773,177.5067 125.0664,170.4532 132.4759,152.1836 133.1976,151.794 133.9076,151.4102 134.5519,150.1095 136.0974,138.0019 136.1463,137.619 136.4359,135.3591 137.7238,124.1402 139.0263,113.9377 140.1182,113.0394 141.3881,112.4171 142.4018,111.7932 143.3844,110.9511 145.1155,109.6722 147.3764,108.1521 148.7336,107.5658 149.7202,106.904 151.2018,106.4049 152.3871,105.9058 153.2356,105.3454 153.6076,104.591 154.1015,104.1925 154.8278,103.6132 155.5087,103.1803" stroke="black" /><polygon fill="none" points="192.837,134.1002 192.8372,134.0358 192.843,132.0492 192.8431,132.0209 192.8444,131.571 192.8775,120.4362 192.9912,82.2273 196.8726,82.2572 196.8761,82.0077 196.9263,78.4268 204.5,78.6116 203.0813,76.7822 202.4052,75.6001 202.2835,74.8463 202.3823,72.6794 202.9665,71.1444 205.992,69.3017 205.6556,68.642 205.5493,68.0117 204.999,67.4413 204.1149,67.0766 203.1227,66.2865 203.243,65.3595 203.6655,64.6636 204.4163,64.1438 205.3982,63.9128 206.4955,64.4903 207.7661,65.7032 208.7695,65.9101 211.2309,65.4067 215.5052,65.2989 218.3351,66.223 219.8367,67.3203 219.8364,67.3192 219.8328,67.1615 219.8173,66.4467 219.6635,59.5058 239.7988,59.5302 240.1738,65.7319 240.1843,65.9057 272.2091,67.6378 272.1636,83.4209 272.1631,83.5942 272.0987,106.1098 229.8545,105.5039 229.5548,132.7008 229.5548,132.7026 229.5519,132.968 229.6965,134.8631 228.7053,135.7223 228.5974,136.0171 228.7196,137.4744 229.4058,138.0471 229.319,139.207 228.8611,140.0477 227.2685,140.397 226.4975,140.7523 225.8532,141.5381 225.7675,142.7099 226.1074,143.387 225.9391,144.9682 226.3562,145.6043 226.5373,146.1951 226.748,146.3646 226.7716,147.101 226.5935,147.1741 225.5013,147.622 223.0407,147.1102 220.0841,146.7013 214.5315,146.1415 214.1206,146.1911 213.8289,146.2264 213.3419,146.4132 212.4595,147.1538 211.8646,147.9252 211.5201,148.1922 211.2378,148.2383 210.866,148.0492 210.3689,147.4057 209.9817,147.1343 209.4432,147.0417 208.9207,147.1442 207.974,147.5626 206.7289,148.4522 206.323,148.5469 205.4458,148.7517 205.1935,148.8106 204.5198,149.1355 203.8945,149.3111 203.4425,149.0694 203.2393,148.6583 203.3487,147.9332 203.7278,147.298 204.6441,146.3569 205.1639,145.6796 205.5084,144.4972 205.5006,144.4446 205.3976,143.7519 204.6884,142.5379 203.5294,142.1325 201.1813,142.5172 200.5775,142.7147 198.0945,144.4481 196.2379,145.8932 194.4602,147.4664 194.1605,147.3761 192.5175,146.8811 192.7979,136.0219 192.8357,134.5602 192.837,134.1002" stroke="black" /></svg>