<?xml version="1.0" encoding="utf-8" ?>
<svg baseProfile="tiny" height="500" version="1.2" width="197.9436" xmlns="http://www.w3.org/2000/svg" xmlns:ev="http://www.w3.org/2001/xml-events" xmlns:xlink="http://www.w3.org/1999/xlink"><defs /><polygon fill="none" points="100.043,158.3112 100.448,157.9298 100.9594,157.6279 101.5085,157.3455 101.8834,157.2373 102.2583,157.129 102.8455,157.0908 103.5024,157.093 104.8711,157.389 105.486,157.4096 105.6817,157.3561 105.8679,157.2483 105.9964,157.0666 106.0383,156.947 106.015,156.6217 107.5754,156.586 108.8725,156.7565 109.6484,156.9949 110.2836,157.2676 110.8223,157.439 111.5069,157.392 112.7565,157.4113 113.5264,157.3186 113.5545,157.9555 113.6181,158.5833 113.6201,158.5847 113.6807,158.6612 113.8305,158.8142 113.9548,158.9289 114.0471,159.0099 114.0787,159.0367 114.0986,159.0598 114.1218,159.0915 114.1315,159.1107 114.1405,159.1237 114.1545,159.1559 114.1642,159.1777 114.1772,159.199 114.1853,159.2158 114.1995,159.2283 114.2197,159.2469 114.2434,159.2628 114.2623,159.2682 114.2777,159.2709 114.2921,159.2725 114.3004,159.2746 114.3081,159.2801 114.3141,159.2883 114.3163,159.3008 114.3147,159.3123 114.3115,159.3225 114.2932,159.3443 114.2645,159.3679 114.241,159.3923 114.2166,159.4245 114.1915,159.4549 114.1595,159.4886 114.0658,159.5429 114.1672,159.7882 113.6786,160.21 113.0848,160.3895 112.5997,160.8131 112.4167,161.1101 112.2337,161.4072 112.202,162.0147 112.4614,162.5938 113.1385,164.2268 113.3548,165.09 113.9042,166.6736 114.4327,168.6441 114.8035,169.137 115.2768,169.6802 115.9456,170.1009 116.6618,170.2385 116.9099,171.0474 115.9365,173.0802 114.9234,174.3542 113.885,175.7249 113.872,176.5387 114.448,176.9771 115.1452,177.2266 115.4974,177.3526 116.344,177.6556 117.1836,178.1108 117.7126,178.443 118.2718,179.0051 118.7149,179.9372 118.8611,180.5699 119.3376,181.3292 119.3878,181.4093 119.8293,182.0457 120.1255,182.5736 120.9234,184.4735 120.9763,185.1243 121.349,185.7742 121.6814,186.2303 122.6313,186.8783 123.2611,187.1227 123.5839,187.1947 124.5046,187.4001 125.082,187.7842 125.5233,188.4704 125.5983,189.6321 125.5131,190.32 125.5021,191.341 125.4368,192.2573 125.0322,192.8061 124.4782,193.4413 124.4994,194.1813 124.6243,195.1319 124.6219,195.1844 124.5919,195.8367 124.7518,196.4173 124.8059,197.0526 125.0061,198.1426 125.2172,198.8118 125.5503,199.4968 125.7664,200.0597 126.1693,200.6921 126.349,200.7624 126.8374,200.9534 127.9373,200.4563 128.8139,200.5062 129.6546,200.5909 131.4217,200.6169 132.0848,200.8436 132.5793,201.4406 132.6493,202.0038 132.9192,202.5842 133.2215,203.974 133.4153,204.6259 133.8734,205.0991 134.3467,205.4327 134.8901,205.9056 135.7372,207.6986 135.8127,208.3141 135.9038,209.6173 136.2218,210.5149 136.2795,211.1306 136.3174,212.1181 136.3016,212.6817 136.1194,214.5142 136.1413,215.4477 136.5134,216.2211 137.3843,216.5351 138.0803,216.8372 138.6545,217.0865 139.3504,217.1943 139.912,216.8752 141.3759,216.2706 142.0388,215.9334 143.0739,215.8584 143.8602,215.9607 144.6353,216.4154 145.7021,216.8865 146.268,217.3418 146.7213,217.9214 147.2367,219.4166 147.6249,220.3122 148.0982,220.7152 148.4711,221.1711 148.5255,221.8408 148.7244,223.3999 148.9181,224.111 149.1869,224.726 150.5794,225.0715 151.3955,225.422 151.8689,225.7901 152.6027,226.2798 153.1855,226.4713 153.2727,226.6423 153.4626,227.0039 153.703,227.2141 153.9053,227.3632 154.0388,227.4616 154.1766,227.5319 154.4023,227.5643 154.9304,227.2273 155.0933,227.1339 155.1692,226.9693 155.2183,227.1477 155.3717,227.7053 155.4581,228.0192 155.5404,228.318 155.5527,228.363 155.5566,228.3771 155.5789,228.4579 155.6601,228.7531 155.8497,229.4422 155.9157,229.682 155.9684,229.8676 156.1911,230.6521 156.1945,230.6643 156.1949,230.6655 156.1955,230.6676 156.4605,231.2125 156.9163,231.963 157.3762,232.4237 157.6923,233.2146 157.871,233.9186 158.157,234.5686 158.7164,234.9714 159.4164,235.3372 159.7345,235.5916 160.0526,235.846 160.3677,236.4621 160.236,238.012 159.9772,238.7873 159.5299,240.5158 159.7783,241.7832 160.1501,242.3975 160.521,242.8531 161.7248,244.2105 161.9817,244.5801 162.1807,245.2056 162.2197,245.8055 162.0284,246.3294 161.4457,247.5031 161.1444,247.9767 160.9426,248.8028 160.9829,249.0014 160.6884,249.3523 160.4781,249.9864 160.4835,250.5674 160.6493,252.2046 160.3912,253.1216 160.0422,253.8816 159.7502,254.6746 159.3154,255.9094 159.1106,256.6499 158.739,257.4203 158.3612,258.2033 158.0692,258.8738 158.0698,259.3558 158.1452,261.0893 157.7199,261.6298 157.2147,262.0853 156.4434,262.9237 156.5949,263.7275 156.5935,264.359 156.2875,265.0666 155.8718,265.7747 155.6515,266.4942 155.5431,267.4696 155.5546,268.1849 156.1637,268.8453 156.5011,269.1572 157.0365,269.6519 157.9138,270.2537 158.5597,270.9874 159.3838,272.7393 159.4709,273.6429 159.622,274.3818 159.919,276.3751 159.1424,276.1804 158.2653,276.0791 157.4335,276.0943 156.599,276.2144 155.8877,276.6619 155.3609,277.0322 154.9669,277.4764 154.3204,278.0128 153.5551,278.5252 152.721,278.7168 151.4616,278.5001 150.7165,278.7086 150.1994,279.3962 149.732,279.7869 147.4907,282.2344 146.984,282.8436 146.7201,283.5928 145.9487,283.8104 145.3672,283.5683 144.5589,283.301 143.9825,283.415 143.5737,284.088 143.0407,284.7096 142.5945,285.1492 142.1197,285.4857 141.3118,285.6929 140.7345,285.6761 140.1095,285.3626 139.9924,285.3038 139.6333,285.0398 139.3458,284.8283 138.5688,284.5522 137.9031,285.0169 137.4333,285.7063 137.1597,286.2391 136.6042,287.6949 136.2967,288.9329 135.352,291.3084 134.8688,291.6428 134.3468,291.8962 133.8077,292.249 133.188,292.944 132.4506,293.8507 132.0355,294.2679 131.4656,294.254 130.9467,294.0135 130.5877,293.5752 130.1887,293.1647 129.6287,293.0153 128.8141,292.9503 128.211,293.0032 127.5209,293.477 127.0373,293.7706 126.5209,294.0795 125.9761,294.3536 125.561,294.7481 125.0549,295.0622 123.6825,295.8331 123.3859,295.9997 122.9593,296.3981 122.416,297.0059 122.0916,297.4872 121.7048,297.9385 121.0623,299.0614 120.8467,299.6572 120.7074,300.2111 120.5146,300.7458 120.2445,301.2789 119.8191,301.6821 118.5879,302.3028 117.9304,302.4889 116.1612,302.9894 115.3371,303.1284 114.7925,302.9075 114.4962,302.4109 114.2917,301.8779 114.1673,301.2956 114.1795,300.7144 114.3786,299.4921 114.5277,298.912 114.7716,298.3509 114.987,297.699 114.901,297.1411 114.6254,296.5909 114.4455,296.409 114.2054,296.1663 113.7369,295.812 113.2039,295.4826 112.1112,294.6508 111.6853,294.0975 111.1574,293.672 110.3646,293.3205 109.7074,293.3507 109.0176,293.495 107.909,293.9671 107.209,294.1722 106.4013,294.4562 105.8043,294.7603 105.646,294.841 105.1993,295.2005 104.8333,295.6888 104.4709,296.2643 103.7659,298.3389 103.1953,299.573 102.9098,300.1067 102.5005,300.6544 102.0848,301.415 101.3075,302.2974 99.7836,303.638 99.3802,304.0819 98.9129,304.4797 98.561,305.0005 98.2233,305.4999 98.0507,306.0442 97.9101,306.6149 97.6567,307.7888 97.5715,308.3947 97.4518,308.9484 97.1779,309.7996 96.8546,310.553 96.0852,311.6696 95.6315,312.1027 95.1154,312.5009 93.9667,313.0132 93.2669,313.2271 92.1587,313.7622 91.6841,314.2475 91.2958,314.8144 91.0259,315.3129 90.6757,315.8188 90.1752,316.231 89.0165,316.3978 88.4416,316.3372 87.4675,316.329 87.1736,316.3264 86.5774,316.4056 85.7418,316.6636 84.7291,317.2331 84.3197,317.713 83.9543,318.2629 83.4352,319.4098 82.8056,322.0883 82.1606,322.5098 81.5998,322.6691 81.5951,323.4651 82.3911,324.8271 82.5417,325.4373 82.6814,326.2781 82.7253,326.8855 82.726,327.5122 82.6007,328.1009 82.5044,328.7508 82.4884,329.58 82.2078,331.3302 82.1704,332.0427 82.1817,332.6868 82.1386,333.2507 81.9313,334.151 81.7297,335.0267 81.4371,335.6584 80.7584,336.4062 79.7266,337.4568 78.7549,338.1576 78.2184,338.464 77.8703,338.6894 77.0501,339.2202 76.5264,339.6151 75.7671,340.5376 75.5078,341.0439 75.2593,341.6843 74.8972,343.1116 74.7952,343.8072 74.4785,345.2483 74.0508,346.7735 73.7401,347.881 73.653,348.4604 73.7083,349.5811 73.8542,350.2791 73.9182,350.9947 74.3004,353.6045 74.3799,354.4091 74.2736,355.6496 74.062,356.1558 73.8401,356.6865 73.821,356.7323 73.8997,357.0099 74.0252,357.4517 74.0117,357.6536 73.9497,358.578 73.3198,358.4495 72.6895,358.6669 72.0915,359.1392 71.6557,359.5951 71.3055,360.1222 71.0187,360.7534 70.8962,361.4398 70.9284,362.0896 71.1926,362.6714 71.5752,363.2162 72.0263,363.5878 72.6349,363.9583 73.3199,364.2455 73.8844,365.0851 73.6326,365.6517 73.7991,366.3006 73.9988,366.8945 74.2842,368.3862 73.6314,368.2018 72.9369,368.1421 72.4858,367.8073 72.0162,367.3134 71.564,366.7672 71.2145,366.1505 71.3757,365.5547 71.4461,364.8856 71.2725,364.235 70.9599,363.6727 70.4384,363.2838 69.5275,363.0346 68.8733,362.9884 68.2191,362.9423 67.6263,362.5538 67.2594,361.9548 66.877,361.4272 66.6185,360.8978 66.2523,360.44 66.0266,359.8771 65.8162,359.1899 65.2782,358.96 64.7875,358.3613 64.4971,357.7274 63.9846,357.4226 62.718,356.3814 62.3197,355.7617 61.8839,355.3653 61.5281,354.8971 61.2484,354.3658 60.7419,354.0761 60.3113,353.694 59.6751,353.7944 59.0674,353.9435 58.4953,353.876 57.7368,353.9087 56.4759,353.6806 55.8405,353.6966 55.1829,353.626 54.5627,353.3261 53.8954,352.9432 53.4164,352.5959 52.9648,352.1384 52.6673,351.616 52.4267,350.9715 52.3008,350.2678 51.9981,349.714 51.4124,349.5521 50.9488,349.1693 50.5815,348.7158 49.9124,348.4779 49.4728,348.0653 49.063,347.6807 48.4932,347.5082 47.4901,348.4293 46.9044,348.5067 46.2018,348.438 45.7243,348.933 45.1525,349.0488 44.6422,349.374 43.9424,349.6304 43.3799,349.7084 42.8197,349.9761 42.1092,350.2047 40.7888,350.1544 40.3053,349.6243 39.6748,349.5472 39.117,349.1803 38.549,349.251 38.4844,349.2516 38.2957,349.2533 38.2671,349.1314 37.5578,350.0116 37.058,350.2921 36.5385,350.5554 36.0987,350.7206 35.7439,350.6955 34.996,350.1303 34.4992,349.8392 34.3422,349.4785 34.3717,349.1224 34.5177,348.4407 34.5443,347.8802 34.5991,347.3037 34.5971,346.6196 35.2331,346.3506 35.6893,346.108 36.031,345.7952 36.222,345.3759 36.0905,345.02 35.7466,344.4805 35.8551,343.8617 37.2275,343.7763 37.3065,343.4673 36.9101,342.9015 36.5703,342.3906 37.1056,342.1854 37.2347,341.9397 37.112,341.6715 36.7803,341.24 36.5971,340.7157 36.4457,340.3373 36.1325,339.9187 36.1112,339.5384 36.2126,339.1258 36.2816,338.6994 36.2047,338.4975 36.2112,337.916 35.999,337.6065 35.834,337.3661 35.2889,337.1337 34.767,337.3909 34.1679,338.5038 34.0778,339.0646 33.506,339.0722 33.037,339.5438 32.5644,339.9665 32.1812,340.5199 31.7559,341.0385 31.1744,341.2255 31.1222,341.286 31.0554,341.2262 30.7957,341.393 30.7292,341.5461 30.8305,341.6897 30.7263,341.7592 30.4429,341.7999 30.0588,342.0093 29.7026,342.0267 29.5662,342.2967 29.3146,342.2589 29.3548,342.4384 29.5874,342.7219 29.2215,342.7798 29.0935,342.6324 28.9544,342.7479 28.9327,343.0892 28.7158,343.1903 28.2594,343.1784 27.8558,343.2537 27.9294,343.5228 27.3789,343.7127 27.004,343.4479 26.9339,343.6897 26.4581,343.5981 25.9624,343.6042 25.6907,343.9044 25.2509,343.616 25.0308,343.6219 25.0093,343.7366 24.8733,343.8552 24.2882,343.4793 23.9674,343.5273 23.8362,343.845 23.503,344.0047 23.1368,344.4342 22.8505,344.9262 22.5124,346.1987 21.7301,347.2357 21.1925,347.5977 20.7181,348.0028 20.3785,348.4598 19.555,349.3263 18.5634,350.8769 18.1283,351.3524 17.5724,351.5345 16.9579,351.8075 16.4792,352.4157 16.3812,353.2005 16.56,353.8928 16.5384,354.5971 16.3766,355.1809 15.9834,355.8009 15.563,356.2374 15.1374,356.6146 14.0704,356.6625 13.575,357.0419 13.483,357.6305 13.1873,358.2272 12.38,359.1582 11.5881,360.2811 11.2758,360.771 10.9036,361.8957 10.779,362.5636 10.441,363.8618 10.5961,364.4088 10.9782,364.9017 11.1364,365.5717 11.2051,366.2736 11.2001,367.1539 11.3558,367.6982 11.8248,368.1574 12.0663,368.7751 12.1909,369.3892 12.0451,370.0917 11.8893,370.6724 11.8362,371.3398 11.8459,372.0615 11.7388,372.7287 11.3557,373.2911 10.5484,374.166 10.2466,375.3446 10.0135,375.9934 9.7352,376.6427 9.126,376.4827 8.512,375.9717 8.0059,375.4603 7.0136,374.5943 6.4914,374.1711 5.9692,373.7478 5.3378,373.0755 4.4495,372.2468 3.7232,371.1196 3.5987,370.5575 3.567,369.9585 3.6267,368.8161 3.7491,367.6205 3.7328,367.023 3.8261,366.3731 3.7088,364.4019 3.5189,363.6632 3.2445,363.0126 2.8773,362.4134 2.6133,361.7437 1.9554,360.6876 1.1211,359.5763 0.7714,358.9071 0.4584,358.185 0.3408,357.586 0.0,356.9309 0.017,356.3195 0.1524,355.753 0.5705,354.5327 0.7156,354.1761 1.3087,352.7193 1.4157,352.522 1.5842,352.2119 1.7948,351.6624 1.9405,351.0241 1.9726,350.3029 1.9512,349.6775 1.8861,349.1066 1.5788,348.5766 1.4824,347.8608 1.5406,347.1722 1.7641,345.3275 1.9073,344.6555 2.0688,344.028 2.451,342.7616 2.5917,342.0886 2.9737,340.735 3.1998,339.2739 3.3241,338.0298 3.3514,337.4042 3.4797,336.6875 3.6517,336.1566 3.7177,335.953 4.0781,335.3824 4.1922,335.1654 4.3966,334.7767 4.9026,334.4063 5.6078,334.1539 6.3886,334.0514 7.6679,333.6204 8.3276,333.6796 9.4539,334.1131 10.4726,334.691 10.9519,335.1136 11.4689,335.3578 12.0934,335.4812 12.6865,335.4964 13.3115,335.2499 13.6616,334.7419 14.5017,333.2281 15.1594,331.4632 15.714,329.599 15.9574,328.9955 16.1658,328.3572 16.4301,327.1634 16.5215,326.4398 16.6513,325.7425 17.065,324.5014 17.3567,323.3267 17.6148,322.6947 18.4278,321.4413 18.8228,320.9627 19.7482,320.1384 19.9368,320.0798 19.9997,320.0603 20.3682,319.9458 21.0028,319.9068 21.0562,319.8943 21.1017,319.8836 21.8803,319.7016 22.1558,319.6372 22.7111,319.3922 23.2503,319.0654 23.7772,318.6408 24.1377,318.1364 24.5859,317.6999 24.9208,317.1747 25.2109,316.4994 25.3512,315.7308 25.0426,314.3465 24.9466,313.7325 24.9251,313.1507 24.9682,312.5166 25.0603,311.9033 25.2585,311.3346 25.5822,310.6946 26.1054,310.3364 26.6592,310.1285 27.2253,309.9936 27.8182,310.0208 28.3839,310.2251 29.1396,310.3357 29.8586,310.2056 30.4857,309.7596 31.0393,308.5808 31.3517,308.0051 31.7229,307.4835 32.0417,306.9302 32.3872,306.4664 32.7093,305.9134 32.9026,305.3729 33.0759,304.6125 33.1449,303.9069 33.2802,303.1836 33.3175,302.4464 33.1725,301.86 32.7784,301.3918 31.9922,300.3256 31.8311,299.7029 31.9111,299.1384 32.1219,298.6157 32.5752,298.1354 33.108,297.9398 34.3619,297.5757 35.0412,297.4474 35.624,297.5412 36.275,297.7135 37.5251,297.7633 38.1707,297.4638 39.1675,296.8634 39.593,296.3538 39.7065,296.1798 40.0186,295.7018 40.5036,294.6005 40.8644,294.0911 41.166,293.5978 41.5652,293.149 42.0711,292.6606 43.3267,291.9001 43.9347,291.7237 45.4276,291.4001 46.0793,291.3259 46.2871,291.2354 46.6937,291.0585 48.0124,290.2925 48.4711,289.8521 48.8093,289.3868 49.0948,288.7485 49.3052,288.1889 49.4028,287.623 49.3483,287.0 49.1821,286.3786 49.1066,285.6927 49.1547,284.9173 49.3057,284.2847 49.5645,283.5134 49.833,283.0063 50.1678,282.5421 50.5284,281.972 50.8711,281.597 50.9591,281.5009 51.4879,281.117 52.6079,280.4353 53.2069,280.1591 53.8683,279.8983 54.5465,279.428 55.0051,278.9688 55.4997,278.3527 56.1095,277.3631 56.2383,277.154 56.4596,276.617 56.6092,276.0685 56.8319,275.4304 56.8631,274.8088 56.5402,274.1463 56.1359,273.7096 55.8778,273.209 55.6511,272.6148 55.6572,271.8569 55.9359,271.3147 55.9711,271.2286 56.1573,270.7741 56.3247,270.215 56.5456,269.6136 56.8417,269.0087 57.2725,268.63 58.5865,268.4108 59.1522,268.2275 59.7663,267.8671 60.2026,267.4447 60.5754,266.8921 60.9519,266.4437 61.5294,266.0053 62.0948,265.6211 62.6602,265.3505 63.2732,265.184 63.9037,265.0614 65.0223,264.3596 65.1071,264.2207 65.3257,263.8626 65.5951,263.1178 65.7308,262.3929 66.5599,261.2674 67.0875,260.0626 67.1793,259.3413 67.2652,259.183 67.5674,258.626 67.7303,258.4131 68.0202,258.0346 68.3866,257.6822 68.5851,257.4913 69.3937,256.9229 70.6859,256.1328 71.2513,255.7123 71.5371,255.1421 71.7957,254.3244 71.7911,253.4794 71.7025,252.913 71.4503,252.0172 71.4343,251.9598 71.3001,251.4835 71.1445,250.8189 71.1627,250.5834 71.1742,250.4356 71.1979,250.1311 71.4243,249.3846 71.7719,248.7557 71.7896,248.7237 71.8195,248.659 71.8417,248.611 72.0369,248.1887 72.4945,246.7736 72.7437,246.2328 73.8471,245.1487 74.1236,244.4078 74.4506,243.6491 74.5384,243.3819 74.5401,243.3766 74.6941,242.908 74.9745,242.3433 75.3271,241.9958 75.433,241.8914 75.5132,241.8124 76.1043,241.334 76.6705,241.0988 78.0825,240.2855 78.322,239.9981 78.3247,239.995 78.4647,239.8269 78.8167,239.3058 79.0023,239.0308 79.385,238.1655 79.7521,237.4066 79.9939,236.7177 80.1833,235.8724 79.984,235.2202 79.8608,234.4655 79.8061,234.1299 79.7514,233.9518 79.7508,233.9499 79.5736,233.3729 79.4,232.4122 79.3998,232.4115 78.9657,230.0098 78.8198,228.4962 78.8682,227.8608 78.9734,227.3797 79.0571,226.9975 79.2806,226.3629 79.2817,226.3597 79.3372,226.2022 79.6695,225.4401 79.6704,225.4381 79.7526,225.2496 80.1395,224.7604 80.1404,224.7592 80.3117,224.5427 80.7965,224.0818 81.4268,223.3575 81.9978,222.4915 82.5037,221.4863 82.692,220.9394 82.8497,220.2021 82.7926,218.314 82.6932,216.6433 82.708,215.8472 83.0388,215.0695 83.1397,214.4879 83.312,213.8189 83.8034,213.2517 84.3791,212.8103 84.8319,212.1039 85.4736,210.4258 85.1008,209.3012 85.483,208.8232 85.2353,208.2952 84.9175,207.4337 84.6477,206.8709 84.4385,206.3248 84.2764,205.6395 84.5569,205.0921 84.3314,204.2998 84.2168,203.737 84.1624,203.0495 84.2129,202.4153 84.2275,201.4467 84.2606,201.1198 84.2936,200.793 84.1853,199.4723 84.1968,198.6276 84.1417,197.5525 84.2617,196.8123 84.9937,195.6473 85.2359,195.0811 85.3704,194.4995 85.3702,193.8658 84.734,193.2513 85.2084,192.7211 85.0636,192.0163 84.6203,191.1725 83.4796,189.5929 82.9463,188.2903 82.5804,187.7097 82.2947,187.0944 82.1757,186.9281 81.805,186.4096 81.3086,185.3024 80.4628,183.7371 80.4006,183.5876 80.0878,182.8362 79.3025,181.5424 78.9978,180.7645 78.6419,179.973 78.2223,179.4647 77.9037,178.9349 77.5324,177.5111 77.1607,176.7369 76.8833,176.2804 76.7022,175.9822 76.3158,175.5261 75.9815,174.9806 75.6093,174.5242 75.0268,173.733 74.9094,173.6319 73.9072,172.7688 73.5887,172.2407 73.338,171.7451 73.3189,171.7072 72.7704,171.113 72.416,170.4586 71.8552,168.9526 72.1721,168.187 72.173,168.1863 72.7494,167.6618 73.3197,166.5571 73.3846,165.6253 73.4334,163.9608 74.0478,163.659 74.8502,163.9731 76.4713,165.5176 76.891,165.9739 77.5596,166.4817 78.1738,166.8504 78.7495,167.1296 79.5899,167.3018 80.2749,167.4051 81.0121,167.3668 81.6425,167.2583 82.3754,166.9738 83.3723,166.3359 83.9972,165.9817 84.5403,165.715 85.0624,165.396 85.3336,165.2721 85.9204,165.0042 86.7283,164.8083 87.4288,164.7352 88.6917,164.9138 89.1374,164.9769 89.3675,165.0094 89.9337,165.0237 90.4829,164.9177 90.768,164.8627 90.896,164.7958 91.3107,164.5789 92.1306,164.1172 92.6784,163.7897 92.9014,163.6564 93.6004,163.1013 94.5238,162.2088 95.0665,161.8723 95.7245,161.6856 96.5275,161.5513 97.2404,161.432 97.5445,161.3811 98.0395,161.084 98.25,160.7908 98.6285,160.2636 99.5601,158.8727 99.9371,158.411 100.043,158.3112" stroke="black" /><polygon fill="none" points="153.2727,226.6423 153.1855,226.4713 152.6027,226.2798 151.8689,225.7901 151.3955,225.422 150.5794,225.0715 149.1869,224.726 148.9181,224.111 148.7244,223.3999 148.5255,221.8408 148.4711,221.1711 148.0982,220.7152 147.6249,220.3122 147.2367,219.4166 146.7213,217.9214 146.268,217.3418 145.7021,216.8865 144.6353,216.4154 143.8602,215.9607 143.0739,215.8584 142.0388,215.9334 141.3759,216.2706 139.912,216.8752 139.3504,217.1943 138.6545,217.0865 138.0803,216.8372 137.3843,216.5351 136.5134,216.2211 136.1413,215.4477 136.1194,214.5142 136.3016,212.6817 136.3174,212.1181 136.2795,211.1306 136.2218,210.5149 135.9038,209.6173 135.8127,208.3141 135.7372,207.6986 134.8901,205.9056 134.3467,205.4327 133.8734,205.0991 133.4153,204.6259 133.2215,203.974 132.9192,202.5842 132.6493,202.0038 132.5793,201.4406 132.0848,200.8436 131.4217,200.6169 129.6546,200.5909 128.8139,200.5062 127.9373,200.4563 126.8374,200.9534 126.349,200.7624 126.1693,200.6921 125.7664,200.0597 125.5503,199.4968 125.2172,198.8118 125.0061,198.1426 124.8059,197.0526 124.7518,196.4173 124.5919,195.8367 124.6219,195.1844 124.6243,195.1319 124.4994,194.1813 124.4782,193.4413 125.0322,192.8061 125.4368,192.2573 125.5021,191.341 125.5131,190.32 125.5983,189.6321 125.5233,188.4704 125.082,187.7842 124.5046,187.4001 123.5839,187.1947 123.2611,187.1227 122.6313,186.8783 121.6814,186.2303 121.349,185.7742 120.9763,185.1243 120.9234,184.4735 120.1255,182.5736 119.8293,182.0457 119.3878,181.4093 119.3376,181.3292 118.8611,180.5699 118.7149,179.9372 118.2718,179.0051 117.7126,178.443 117.1836,178.1108 116.344,177.6556 115.4974,177.3526 115.1452,177.2266 114.448,176.9771 113.872,176.5387 113.885,175.7249 114.9234,174.3542 115.9365,173.0802 116.9099,171.0474 116.6618,170.2385 115.9456,170.1009 115.2768,169.6802 114.8035,169.137 114.4327,168.6441 113.9042,166.6736 113.3548,165.09 113.1385,164.2268 112.4614,162.5938 112.202,162.0147 112.2337,161.4072 112.4167,161.1101 112.5997,160.8131 113.0848,160.3895 113.6786,160.21 114.1672,159.7882 114.0658,159.5429 114.1595,159.4886 114.1915,159.4549 114.2166,159.4245 114.241,159.3923 114.2645,159.3679 114.2932,159.3443 114.3115,159.3225 114.3147,159.3123 114.3163,159.3008 114.3141,159.2883 114.3081,159.2801 114.3004,159.2746 114.2921,159.2725 114.2777,159.2709 114.2623,159.2682 114.2434,159.2628 114.2197,159.2469 114.1995,159.2283 114.1853,159.2158 114.1772,159.199 114.1642,159.1777 114.1545,159.1559 114.1405,159.1237 114.1315,159.1107 114.1218,159.0915 114.0986,159.0598 114.0787,159.0367 114.0471,159.0099 113.9548,158.9289 113.8305,158.8142 113.6807,158.6612 113.6201,158.5847 113.6181,158.5833 113.5545,157.9555 113.5264,157.3186 114.0979,157.2456 115.4656,156.9981 116.8561,156.9646 118.0896,157.0537 118.7308,157.0086 119.4958,157.0101 119.873,156.5817 120.7453,157.1099 122.1192,157.3068 122.6785,157.4174 123.2419,157.5044 123.8106,157.6448 124.4556,157.8784 125.1783,158.2202 126.4014,158.8908 127.0961,159.3843 128.0169,160.0027 129.295,160.5671 130.0211,160.9995 130.6723,161.4534 131.233,161.9701 131.6649,162.5135 131.9435,163.1025 132.0151,163.2068 132.5541,163.9924 132.8328,164.5903 133.0276,165.1338 133.4307,165.962 133.952,166.8707 134.2029,167.2761 134.4538,167.6815 134.8585,168.0866 135.4407,168.8248 135.9279,169.0665 136.1032,169.1536 136.7372,169.542 137.336,169.7844 138.4408,170.4671 138.985,170.6421 139.491,170.8866 140.0512,171.1134 141.8229,171.6687 142.5938,171.8781 143.2249,171.9808 143.7613,171.9898 144.0318,171.9945 144.6787,172.1162 145.4492,172.2013 146.3064,172.145 147.3565,171.875 148.9445,171.3403 149.1665,171.2514 149.6998,171.038 150.6576,170.7354 151.9506,170.7474 152.8128,170.6562 153.4751,170.6353 155.0318,170.8053 155.5915,170.9435 156.3845,170.9411 157.0095,170.744 157.5829,170.4854 158.1129,170.1581 158.6844,169.5933 159.1413,169.0443 159.4539,168.5669 159.4467,168.1936 159.4333,167.475 159.4995,166.5276 159.9579,164.0545 160.1315,163.3072 160.1809,163.0947 160.5151,162.2948 160.7574,161.617 161.1358,161.0528 161.6791,160.3116 162.7514,159.2359 163.4018,158.7336 164.6202,158.1983 165.3689,157.9713 165.8424,157.8589 166.022,157.8162 166.3719,157.8319 166.3989,157.8331 166.5406,157.8394 166.6457,157.844 167.2752,157.9834 167.3721,158.0201 167.8527,158.2018 168.4446,158.6311 168.8865,159.0064 169.3007,159.4536 169.727,159.8398 170.2666,160.2449 170.8204,160.7194 171.445,161.7399 172.7388,163.17 172.8676,163.7419 172.813,164.3035 172.7674,164.5638 172.6742,165.0941 172.3556,166.4624 171.7525,167.678 171.3008,168.18 170.5295,169.1242 169.9258,170.0224 169.6837,170.6562 169.7375,171.2368 169.7532,171.8542 169.8298,172.4702 170.0771,173.8748 169.965,175.2882 169.8781,175.9042 169.9324,176.6083 170.282,177.0644 170.9011,177.4336 171.2572,178.623 171.5812,179.1592 172.1087,179.5709 172.6742,179.8764 173.1912,180.241 174.4251,180.8916 175.152,180.9594 175.7326,181.0587 176.3531,181.0883 176.6716,181.0591 176.9838,181.0306 178.2059,180.591 178.8529,180.1653 179.4284,179.6877 179.7633,179.4429 180.129,179.1759 181.1966,178.28 182.1809,177.5534 182.7149,177.1942 183.9699,176.6937 184.7028,176.4457 186.3832,176.0501 187.1691,176.0372 188.4037,176.2813 189.0648,176.4923 190.8049,177.3922 191.3831,177.7628 193.4211,179.5712 194.8239,181.1175 195.1637,181.6274 195.7021,182.8832 195.7599,183.2029 195.9549,184.2814 196.2456,185.0317 196.6115,185.6217 196.9517,186.2657 197.2912,186.7581 197.6525,187.446 197.9436,188.0992 197.5599,188.5608 196.7674,189.1936 196.7188,189.2907 196.1426,189.8676 195.6363,190.6538 195.4051,191.4545 195.1881,192.0903 194.8388,192.5876 194.2629,193.1646 193.4475,194.4351 193.2896,195.6715 193.2968,196.6334 193.3842,197.5458 193.3744,198.4318 193.7282,199.39 194.3452,200.1661 194.8933,200.5574 195.292,201.2784 195.6313,201.7952 195.8482,202.4971 195.8588,203.0761 195.5575,204.5108 195.6755,205.7969 195.552,206.4059 194.5229,207.1683 194.1447,207.6539 193.9457,208.2023 194.2527,208.7663 194.7866,208.9511 195.285,209.4845 195.0287,209.9966 194.451,210.389 193.9994,210.6958 193.5963,211.1205 193.0472,211.6233 192.5992,212.1528 192.4321,212.7342 192.5614,213.3774 192.6329,213.6068 192.2108,214.6116 191.7922,215.3398 191.1341,215.0124 191.2158,213.8333 191.3166,213.2523 191.5274,212.699 191.9496,211.81 191.944,211.56 192.1374,211.1996 192.2604,210.8084 192.2427,210.4655 192.1282,209.9073 192.0475,209.3144 192.0475,208.7663 192.2527,208.0809 192.2527,207.5327 192.0989,207.0186 191.9272,206.6931 191.739,206.2992 191.6362,205.8879 191.6706,205.2539 191.6876,204.843 191.722,204.6544 191.7904,204.3289 191.8418,204.1576 191.9668,203.8691 192.0645,203.6435 192.2357,203.3694 192.4244,203.0269 192.6296,202.7014 192.7669,202.4099 192.9041,202.1188 192.9725,201.8448 193.0066,201.382 192.9041,201.0225 192.6811,200.5768 192.5272,200.3027 192.4584,199.9429 192.4584,199.5833 192.4758,199.0352 192.407,198.6069 192.1503,198.1441 191.7904,197.613 191.4475,197.1847 190.9678,196.6365 190.6597,196.2766 190.2828,195.7455 190.0427,195.403 189.5974,195.0091 188.9804,194.8548 188.3124,194.7864 187.61,194.8204 186.3765,195.3172 185.8283,195.5402 185.1944,195.8313 184.5155,196.0846 184.1251,196.217 183.7056,196.3825 183.4574,196.4918 183.2447,196.5155 182.9226,196.5156 182.7778,196.4831 182.503,196.3415 182.3937,196.2411 182.2607,196.1112 182.1306,196.0521 181.9799,196.0256 181.7081,195.9193 181.513,195.7629 181.3061,195.5798 181.1819,195.3288 181.1819,195.3258 181.1789,194.9979 181.1966,194.9211 181.1581,194.7528 181.0605,194.7026 180.9866,194.6081 180.9659,194.5047 180.9072,194.4638 180.8935,194.4566 180.8793,194.4554 180.8625,194.4581 180.8396,194.4704 180.8138,194.4955 180.7982,194.5206 180.791,194.5601 180.7899,194.5974 180.7815,194.6382 180.7683,194.678 180.7477,194.7167 180.704,194.7663 180.6615,194.8185 180.6022,194.8794 180.5607,194.9366 180.4834,195.022 180.4192,195.0742 180.3439,195.1081 180.265,195.1361 180.1826,195.1736 180.1246,195.2104 180.068,195.2672 180.0255,195.3145 180.023,195.3169 179.9829,195.3739 179.9365,195.4343 179.8932,195.4738 179.8284,195.5187 179.7798,195.5473 179.7222,195.5809 179.6659,195.6146 179.6107,195.6435 179.5421,195.6845 179.4569,195.7426 179.3659,195.8043 179.3646,195.8056 179.2754,195.8612 179.1741,195.9273 179.0942,195.9823 179.0419,196.0279 178.9662,196.0913 178.9016,196.1502 178.8349,196.2113 178.805,196.2423 178.7828,196.2811 178.7495,196.342 178.7096,196.3986 178.6608,196.4738 178.6575,196.476 178.5975,196.5585 178.5654,196.5983 178.5089,196.6592 178.46,196.7224 178.4077,196.8128 178.3731,196.894 178.3709,196.8985 178.3186,197.0185 178.2584,197.169 178.2057,197.2809 178.143,197.4308 178.1054,197.5202 178.0551,197.6394 178.0132,197.7302 177.9567,197.8471 177.9163,197.9214 177.8692,198.0276 177.8409,198.1004 177.8299,198.155 177.8224,198.2146 177.8093,198.2885 177.8093,198.2918 177.7977,198.343 177.7795,198.3891 177.7388,198.463 177.7011,198.5252 177.6753,198.5874 177.6549,198.6474 177.6313,198.7513 177.6153,198.8423 177.6014,198.9066 177.5758,198.9919 177.5441,199.0745 177.5199,199.1488 177.5072,199.1866 177.5017,199.2177 177.5025,199.244 177.5067,199.2774 177.5098,199.3172 177.5098,199.3204 177.5076,199.3935 177.4957,199.4954 177.4818,199.5674 177.4496,199.651 177.4293,199.7121 177.4175,199.7615 177.4143,199.797 177.4143,199.8679 177.4143,199.9356 177.411,199.9861 177.4035,200.0363 177.3939,200.0846 177.3832,200.1254 177.381,200.1276 177.3648,200.1621 177.3465,200.1943 177.3273,200.2243 177.3176,200.2436 177.3112,200.2672 177.3112,200.2909 177.3187,200.319 177.3257,200.3389 177.3395,200.3676 177.3571,200.399 177.3774,200.4359 177.3845,200.4607 177.3921,200.5039 177.3983,200.561 177.3997,200.5728 177.4473,200.7474 177.4906,200.9104 177.4554,200.9985 177.3985,201.0479 177.41,201.1739 177.4732,201.2933 177.5374,201.4318 177.6102,201.528 177.6368,201.5888 177.6277,201.6531 177.6235,201.7373 177.6767,201.8104 177.7779,201.8741 177.8106,201.9093 177.7935,201.9628 177.7383,202.0053 177.7121,202.0535 177.7061,202.1118 177.7196,202.1539 177.7404,202.2043 177.7424,202.2088 177.7679,202.2657 177.7791,202.2866 177.7901,202.3169 177.8024,202.3674 177.8115,202.4053 177.8197,202.4338 177.8313,202.4523 177.8664,202.4924 177.8855,202.525 177.9002,202.5582 177.9115,202.5778 177.9194,202.5956 177.924,202.6134 177.9253,202.6318 177.9173,202.6703 177.9038,202.6952 177.8929,202.711 177.8755,202.7292 177.8573,202.7416 177.8449,202.7515 177.8382,202.7623 177.8348,202.7772 177.8321,202.7937 177.8279,202.812 177.8238,202.8244 177.8147,202.8375 177.8122,202.8516 177.8114,202.8632 177.813,202.8773 177.8211,202.8889 177.8334,202.9014 177.8407,202.9138 177.8461,202.9329 177.8484,202.9519 177.8458,202.9717 177.84,202.9898 177.8318,203.0021 177.8129,203.0119 177.7875,203.0172 177.7814,203.0185 177.7467,203.0227 177.7211,203.0273 177.6941,203.0293 177.6707,203.036 177.636,203.0503 177.5966,203.0579 177.5711,203.055 177.5507,203.0538 177.5347,203.0553 177.5234,203.0607 177.5158,203.0698 177.5137,203.0854 177.5175,203.101 177.5244,203.1139 177.5301,203.1199 177.5357,203.1258 177.5512,203.1344 177.5658,203.1464 177.5746,203.1537 177.5895,203.1766 177.5942,203.1942 177.5937,203.2194 177.5889,203.2305 177.5839,203.2434 177.5745,203.2629 177.5403,203.3136 177.5052,203.3582 177.4762,203.3958 177.4477,203.4332 177.4003,203.4934 177.3503,203.5547 177.3074,203.6087 177.2556,203.6683 177.2013,203.7246 177.1607,203.765 177.1226,203.7852 177.0644,203.7975 177.0151,203.8053 176.9703,203.8154 176.9345,203.8289 176.883,203.8546 176.8324,203.8786 176.7858,203.8948 176.7475,203.9095 176.7205,203.9285 176.6977,203.9461 176.6773,203.9642 176.651,203.9808 176.6296,203.9847 176.6095,203.9839 176.5821,203.9801 176.5462,203.9711 176.505,203.9659 176.4669,203.9631 176.4327,203.9632 176.3984,203.9687 176.3779,203.975 176.3503,203.9851 176.319,203.9961 176.2921,204.0032 176.2553,204.008 176.222,204.0104 176.1971,204.0103 176.176,204.0078 176.1519,204.0032 176.1287,203.998 176.0932,203.9967 176.0677,203.9957 176.0432,203.9986 176.0219,204.0029 175.995,204.0123 175.9591,204.0269 175.9337,204.0406 175.9187,204.0542 175.9048,204.078 175.8855,204.1081 175.8685,204.1255 175.8505,204.1363 175.8265,204.1462 175.8063,204.149 175.7983,204.1481 175.7903,204.1471 175.7738,204.1396 175.7449,204.1199 175.7269,204.1064 175.7047,204.0877 175.6952,204.0757 175.6852,204.0638 175.675,204.0541 175.6648,204.0444 175.6484,204.035 175.6297,204.0297 175.6072,204.0312 175.5855,204.0369 175.5658,204.0482 175.5461,204.0651 175.5025,204.0978 175.4767,204.1161 175.4415,204.1358 175.3895,204.1605 175.3588,204.1755 175.3136,204.1953 175.2786,204.2056 175.2568,204.209 175.2299,204.2199 175.2026,204.2289 175.1143,204.2399 175.0848,204.2415 175.0696,204.2435 175.0574,204.2454 175.0397,204.251 175.0108,204.259 174.9969,204.2622 174.983,204.2672 174.969,204.2825 174.9605,204.2975 174.9524,204.3216 174.9456,204.3446 174.9374,204.3708 174.9323,204.3915 174.9231,204.4206 174.9073,204.46 174.8969,204.4815 174.885,204.5015 174.8761,204.5118 174.8677,204.5161 174.8616,204.517 174.8517,204.5152 174.8437,204.5109 174.8348,204.501 174.8273,204.4887 174.8221,204.476 174.8197,204.4581 174.8183,204.4406 174.8134,204.4141 174.8082,204.3875 174.7883,204.3342 174.7781,204.3054 174.7698,204.2818 174.7625,204.26 174.7532,204.2414 174.7463,204.2319 174.7394,204.2224 174.7251,204.2059 174.7127,204.1954 174.7009,204.1888 174.6889,204.1871 174.6761,204.1886 174.6626,204.1914 174.6504,204.1975 174.6421,204.2059 174.6352,204.2196 174.6299,204.241 174.6293,204.251 174.6284,204.2661 174.6294,204.2975 174.6334,204.3518 174.6342,204.3655 174.635,204.3778 174.6358,204.3911 174.636,204.3971 174.6362,204.407 174.6364,204.4198 174.6366,204.4289 174.6384,204.4847 174.6383,204.5124 174.6382,204.541 174.6381,204.5597 174.6348,204.5803 174.6292,204.5967 174.624,204.6121 174.6175,204.6243 174.6054,204.6365 174.5915,204.6473 174.5719,204.655 174.5538,204.6602 174.5353,204.6621 174.518,204.6596 174.48,204.6456 174.4611,204.6405 174.4376,204.6366 174.4149,204.636 174.3918,204.6381 174.3694,204.6458 174.3497,204.6548 174.3358,204.6673 174.3328,204.6701 174.3186,204.6876 174.3081,204.7082 174.3027,204.7305 174.3026,204.7357 174.3022,204.7529 174.3045,204.7743 174.3109,204.8018 174.3172,204.8241 174.3282,204.8523 174.34,204.8828 174.3519,204.9079 174.3539,204.9115 174.3548,204.9131 174.3624,204.927 174.365,204.9306 174.4024,204.9832 174.421,205.0088 174.426,205.0192 174.4263,205.0198 174.4322,205.0323 174.4337,205.0356 174.4428,205.0602 174.4468,205.0756 174.4472,205.0768 174.4519,205.0951 174.458,205.1145 174.4587,205.1164 174.468,205.1455 174.4873,205.1858 174.4878,205.1868 174.5129,205.2543 174.5179,205.2679 174.5234,205.2802 174.5278,205.2901 174.5365,205.3097 174.5415,205.3265 174.5451,205.3415 174.5519,205.3555 174.5589,205.3659 174.5633,205.3723 174.5713,205.3874 174.5747,205.3937 174.5801,205.4096 174.5821,205.4158 174.5861,205.4283 174.5875,205.434 174.5902,205.4451 174.5927,205.4517 174.5952,205.4583 174.607,205.4823 174.6176,205.5073 174.6281,205.5245 174.6381,205.5491 174.6449,205.5691 174.6526,205.5877 174.6594,205.6055 174.6644,205.6236 174.6676,205.6386 174.6689,205.659 174.6697,205.6698 174.6702,205.6761 174.6711,205.6866 174.6741,205.6997 174.6742,205.7003 174.6814,205.7243 174.685,205.737 174.6859,205.7492 174.6845,205.7618 174.6827,205.7763 174.6828,205.7775 174.6844,205.7986 174.6892,205.8235 174.6929,205.8368 174.6949,205.8444 174.7019,205.8733 174.7022,205.8746 174.7031,205.8801 174.7078,205.9077 174.7105,205.9317 174.7113,205.9486 174.7117,205.9686 174.7121,205.9943 174.7131,206.0139 174.7134,206.021 174.7161,206.0423 174.7188,206.0653 174.7192,206.0736 174.7197,206.0818 174.7188,206.096 174.7139,206.1151 174.7078,206.1414 174.703,206.1969 174.7041,206.2197 174.7048,206.2508 174.7048,206.2542 174.7048,206.2813 174.7029,206.311 174.7,206.337 174.6995,206.3402 174.697,206.3613 174.6924,206.3916 174.6905,206.4118 174.6893,206.427 174.6892,206.4293 174.6891,206.4469 174.6878,206.4645 174.6865,206.4807 174.6839,206.5002 174.6851,206.5223 174.6864,206.5386 174.6897,206.5509 174.6922,206.559 174.6923,206.5592 174.6948,206.5671 174.6954,206.5752 174.6961,206.5833 174.6954,206.5988 174.6901,206.6221 174.6869,206.6439 174.6875,206.662 174.6901,206.6835 174.6901,206.684 174.6927,206.7034 174.6945,206.7209 174.6946,206.7215 174.6946,206.739 174.6945,206.7396 174.6933,206.7532 174.6932,206.7777 174.6933,206.7787 174.6939,206.79 174.6945,206.8022 174.6945,206.8287 174.6941,206.839 174.6932,206.8564 174.6932,206.8796 174.6932,206.9106 174.6911,206.9303 174.6894,206.9453 174.6903,206.9753 174.69,207.0184 174.69,207.0194 174.6866,207.0677 174.6844,207.1076 174.6821,207.1369 174.6809,207.1486 174.6806,207.1512 174.6797,207.1603 174.6747,207.1934 174.6712,207.2105 174.6683,207.2215 174.6646,207.2304 174.6643,207.231 174.6599,207.2387 174.6566,207.2457 174.6563,207.2469 174.655,207.2524 174.6529,207.2618 174.6512,207.2683 174.6446,207.2812 174.6431,207.2841 174.6341,207.3031 174.6283,207.3181 174.62,207.3329 174.6117,207.3477 174.6003,207.3726 174.5911,207.3931 174.5817,207.4191 174.5714,207.4466 174.5552,207.4986 174.5413,207.5429 174.5316,207.5797 174.5221,207.6237 174.5165,207.645 174.5113,207.6694 174.4933,207.7299 174.4927,207.7316 174.4786,207.7677 174.4656,207.7993 174.4524,207.8322 174.4355,207.874 174.4229,207.9049 174.402,207.9469 174.3981,207.9555 174.3878,207.978 174.3809,207.9923 174.37,208.0148 174.3669,208.0217 174.35,208.0589 174.3471,208.0651 174.3426,208.0749 174.3355,208.0872 174.3325,208.0925 174.3196,208.1126 174.3114,208.1278 174.3111,208.1285 174.3032,208.1469 174.2955,208.1636 174.2869,208.178 174.2848,208.1809 174.2791,208.1889 174.2702,208.1994 174.2634,208.2076 174.2564,208.2175 174.2427,208.2429 174.2337,208.2529 174.2272,208.2566 174.2211,208.2595 174.2126,208.2633 174.2082,208.2672 174.2026,208.2723 174.1988,208.2763 174.195,208.2804 174.1924,208.2832 174.192,208.2835 174.1896,208.2865 174.1873,208.2891 174.186,208.2908 174.1826,208.297 174.1796,208.3024 174.1765,208.3081 174.1731,208.312 174.1698,208.3133 174.1654,208.3141 174.1617,208.3155 174.1589,208.3177 174.1565,208.321 174.1536,208.325 174.153,208.3258 174.1499,208.3287 174.1443,208.3339 174.1342,208.34 174.1228,208.3465 174.1078,208.3548 174.1046,208.3566 174.0922,208.3636 174.0849,208.3692 174.0811,208.3736 174.0783,208.3772 174.0757,208.3808 174.0736,208.3821 174.0698,208.3846 174.06,208.3895 174.0589,208.3901 174.0495,208.3964 174.0395,208.4069 174.0236,208.4263 174.0065,208.4495 173.9966,208.464 173.9881,208.4815 173.9875,208.4828 173.9823,208.4995 173.9796,208.5147 173.9796,208.533 173.9791,208.5619 173.9767,208.5999 173.9748,208.6278 173.9723,208.6479 173.9668,208.6694 173.9592,208.6854 173.9513,208.6985 173.9392,208.7131 173.9202,208.7295 173.9013,208.745 173.8766,208.7594 173.8758,208.7597 173.8581,208.7667 173.8356,208.7777 173.8279,208.7814 173.8276,208.7816 173.8223,208.7845 173.8205,208.7855 173.8129,208.7898 173.8098,208.7914 173.8068,208.7931 173.8035,208.7949 173.8033,208.7951 173.7922,208.8001 173.7738,208.8084 173.7666,208.8127 173.756,208.819 173.7409,208.824 173.7269,208.8248 173.726,208.8249 173.7147,208.8272 173.7101,208.8282 173.6972,208.8383 173.6838,208.8558 173.6747,208.8728 173.6686,208.8932 173.6643,208.9223 173.664,208.924 173.6639,208.9253 173.6622,208.9374 173.6613,208.9549 173.6609,208.9792 173.6606,209.0001 173.6581,209.0178 173.6516,209.0307 173.6413,209.0385 173.6273,209.0394 173.6205,209.0389 173.6153,209.0386 173.606,209.0355 173.6057,209.0354 173.5989,209.0322 173.5897,209.0254 173.5842,209.0202 173.5839,209.0198 173.5786,209.013 173.5746,209.005 173.5719,208.9959 173.5712,208.9852 173.5711,208.9846 173.5722,208.974 173.5723,208.9737 173.5739,208.9639 173.5755,208.9606 173.5766,208.9584 173.5786,208.9542 173.5788,208.9537 173.5835,208.947 173.5908,208.9407 173.5943,208.9379 173.599,208.9342 173.603,208.9289 173.6047,208.9243 173.6056,208.9195 173.6052,208.9148 173.6037,208.9107 173.6022,208.9074 173.6021,208.9064 173.602,208.9042 173.6036,208.9009 173.6059,208.8971 173.6067,208.896 173.6093,208.8924 173.6129,208.8868 173.6181,208.8757 173.6229,208.8609 173.6268,208.8446 173.63,208.8314 173.6321,208.8212 173.6313,208.8053 173.6296,208.7857 173.6282,208.7698 173.6253,208.7533 173.6252,208.7526 173.6193,208.7411 173.6079,208.7285 173.6054,208.7271 173.6022,208.7253 173.5921,208.7196 173.5753,208.7147 173.5683,208.712 173.5627,208.7098 173.5602,208.6959 173.5528,208.6837 173.5496,208.6629 173.5324,208.6376 173.5332,208.6017 173.5295,208.5686 173.5293,208.5643 173.5274,208.5357 173.5271,208.5298 173.5125,208.4864 173.5112,208.4825 173.502,208.4617 173.4908,208.4363 173.4707,208.3984 173.4083,208.3609 173.3727,208.3015 173.2524,208.1944 173.1525,208.0902 172.9416,207.8769 172.8689,207.8 172.6947,207.6715 172.3235,207.6243 172.0907,207.7691 171.7051,208.2647 171.5118,208.5058 171.369,208.7259 171.2545,209.0676 171.1401,209.493 171.1307,209.5281 170.8264,210.5339 170.6748,210.9258 170.5395,211.3659 170.247,211.7747 170.06,212.2238 169.8695,212.6275 169.6677,213.2643 169.589,213.4561 169.5475,213.5571 169.5103,213.6478 169.3326,213.9042 169.1692,214.2393 168.9976,214.4835 168.6806,214.6168 168.3494,214.633 168.2798,214.6471 168.2101,214.6613 167.9719,214.8086 167.5885,215.0063 167.3948,215.0967 167.3623,215.1119 167.2012,215.1872 166.7173,215.2834 166.6902,215.2888 166.268,215.5491 166.268,215.5523 166.222,215.5741 166.1109,215.6269 165.9538,215.7014 165.5532,215.7401 165.4125,215.6692 165.1103,215.59 164.9032,215.612 164.7213,215.672 164.6631,215.6906 164.605,215.7092 164.4365,215.6988 164.1444,215.6779 163.9983,215.6526 163.8552,215.6318 163.6838,215.5662 163.4989,215.6273 163.3981,215.8481 163.2783,215.9639 163.0539,215.9867 162.8811,216.0583 162.6587,216.027 162.5053,215.9707 162.2297,216.0051 161.9551,216.1535 161.9268,216.1688 161.6596,216.5051 161.5112,216.782 161.427,217.1182 161.3642,217.2438 161.2934,217.3853 161.128,217.5692 160.9909,217.6528 160.8323,217.6398 160.5719,217.6027 160.4344,217.6462 160.3226,217.7743 160.2446,217.9457 160.2337,218.0123 160.1879,218.1069 160.1694,218.1245 160.1271,218.1646 160.1074,218.1759 160.0734,218.1955 160.0355,218.2393 159.9479,218.3109 159.916,218.4463 159.9379,218.6215 159.9975,218.7924 160.0061,218.817 160.016,218.8455 160.0349,218.8996 160.0365,218.9073 160.0368,218.9081 160.1272,219.3416 160.1904,219.6081 160.1547,220.0244 160.1169,220.3134 160.1009,220.3934 160.0849,220.4734 159.9944,220.6445 159.9874,220.6538 159.9173,220.7457 159.7089,221.0036 159.4265,221.2107 159.2089,221.3152 158.918,221.3006 158.6502,221.3926 158.1717,221.3561 157.9776,221.3501 157.9056,221.3608 157.7901,221.4048 157.6251,221.3971 157.4985,221.485 157.4413,221.584 157.3922,221.7401 157.2958,221.847 157.0549,222.052 156.7759,222.185 156.5772,222.2674 156.4335,222.3414 156.194,222.4086 155.9354,222.577 155.7219,222.7999 155.6436,222.9943 155.3328,223.1484 155.041,223.2504 154.8058,223.5768 154.6055,223.921 154.4979,224.172 154.5497,224.4015 154.6367,224.5491 154.7208,224.6829 154.8046,224.7678 154.8435,224.814 154.8591,224.8655 154.8166,224.9707 154.8435,225.0938 154.9168,225.1818 154.9093,225.3185 154.8642,225.4397 154.889,225.5825 154.8906,225.7174 154.8984,225.8503 154.9102,226.0356 154.8883,226.2053 154.9241,226.3127 155.0309,226.4832 155.0636,226.5674 155.1442,226.775 155.1692,226.9693 155.0933,227.1339 154.9304,227.2273 154.4023,227.5643 154.1766,227.5319 154.0388,227.4616 153.9053,227.3632 153.703,227.2141 153.4626,227.0039 153.2727,226.6423" stroke="black" /><polygon fill="none" points="121.2177,43.0457 121.5865,42.3923 121.7993,41.7573 122.0019,41.1986 122.7435,39.1527 123.2294,37.6917 123.4173,37.125 123.5034,36.8658 124.0763,35.3311 124.1185,35.2181 124.4023,34.5718 124.6758,34.0184 125.0234,33.6081 125.3981,33.1981 125.8454,32.6801 126.2923,32.3804 126.9488,32.0265 127.4599,31.7271 128.0028,31.5808 129.0696,31.3585 129.6454,31.2294 130.3543,31.126 130.9326,31.0219 132.0356,30.998 132.5873,30.999 133.1655,31.0782 133.7427,31.1718 134.4121,31.3308 135.0159,31.4883 135.3967,31.4509 135.8699,31.3608 136.3565,31.0465 136.873,30.6398 137.0773,30.4739 137.6218,30.9811 138.1067,31.3749 139.7231,32.3793 140.2934,32.9036 141.0004,33.7802 141.5276,34.6131 141.7926,35.4922 141.8768,36.1062 141.8474,36.3091 141.7112,37.2509 141.6211,37.3918 141.2315,38.0004 140.9414,38.4159 140.4927,39.0586 140.1921,39.586 139.8409,40.1149 139.6264,40.9513 139.5454,41.6545 139.4159,42.2708 139.6378,42.7973 139.986,43.3806 140.0308,43.4557 140.5152,44.5964 141.1765,45.7908 141.1576,46.0661 141.1348,46.3959 140.9619,47.232 140.5305,47.6305 139.615,48.2059 138.6572,48.3856 137.9992,48.8281 137.741,49.7077 137.6602,50.3675 137.5306,51.027 137.4707,51.4554 137.4443,51.643 137.4441,52.2836 137.4442,52.5225 137.2293,53.1391 137.1049,53.8858 137.0177,54.8543 136.6746,55.8666 136.2867,56.3526 135.3649,56.267 134.5351,56.0063 133.7926,55.8352 132.9895,56.0002 132.9202,56.0144 132.4448,57.2908 132.4222,57.4531 132.3995,57.6154 132.3589,57.9069 132.2785,58.9626 132.4558,59.7965 132.5426,60.5867 132.1972,61.2922 131.588,61.6022 131.3946,61.631 130.6735,61.738 130.4571,62.5743 130.9427,63.2764 131.6004,63.7572 132.4718,63.8846 132.9224,64.2999 132.9674,64.3414 133.0424,64.4105 132.9563,65.201 132.4515,66.1427 131.7509,67.1032 131.2393,67.4848 130.5059,67.549 129.5963,67.3934 128.8834,67.398 128.2218,67.586 127.7329,67.9828 127.3717,68.6679 127.1525,69.4067 126.9938,69.8389 126.4928,70.1695 125.8253,70.042 125.3505,69.6417 124.4187,68.7533 123.8055,68.7997 123.4136,68.9625 123.2654,69.0241 122.6788,69.1664 122.5414,69.1847 122.038,69.2512 120.9385,69.2793 119.5442,69.1335 118.9996,69.3651 118.4878,69.6503 117.8089,69.9724 117.1139,70.082 116.3662,69.9104 115.855,69.6164 115.0563,69.4278 113.8674,69.3566 113.2466,69.4343 112.4228,69.6471 111.7487,69.7354 110.78,69.7687 110.2433,69.62 109.5486,69.4276 85.1596,62.6724 85.1114,61.9687 85.4869,61.5544 85.5914,61.439 85.9405,60.7333 86.2425,59.9419 86.3232,59.2822 86.8033,57.7836 87.6634,55.8046 88.4412,53.293 88.5271,52.7204 89.0023,51.2674 89.0863,51.117 89.3969,50.5597 89.6842,49.9904 90.2197,48.929 90.9249,47.7936 93.7797,48.8109 99.4119,50.3483 104.9427,50.811 105.1629,50.8294 109.3889,50.7206 113.3802,50.4939 115.8476,49.2079 118.2879,47.2459 120.3031,44.4834 120.3925,44.3464 121.0703,43.307 121.2177,43.0457" stroke="black" /><polygon fill="none" points="177.7679,202.2657 177.7424,202.2088 177.7404,202.2043 177.7196,202.1539 177.7061,202.1118 177.7121,202.0535 177.7383,202.0053 177.7935,201.9628 177.8106,201.9093 177.7779,201.8741 177.6767,201.8104 177.6235,201.7373 177.6277,201.6531 177.6368,201.5888 177.6102,201.528 177.5374,201.4318 177.4732,201.2933 177.41,201.1739 177.3985,201.0479 177.4554,200.9985 177.4906,200.9104 177.4473,200.7474 177.3997,200.5728 177.3983,200.561 177.3921,200.5039 177.3845,200.4607 177.3774,200.4359 177.3571,200.399 177.3395,200.3676 177.3257,200.3389 177.3187,200.319 177.3112,200.2909 177.3112,200.2672 177.3176,200.2436 177.3273,200.2243 177.3465,200.1943 177.3648,200.1621 177.381,200.1276 177.3832,200.1254 177.3939,200.0846 177.4035,200.0363 177.411,199.9861 177.4143,199.9356 177.4143,199.8679 177.4143,199.797 177.4175,199.7615 177.4293,199.7121 177.4496,199.651 177.4818,199.5674 177.4957,199.4954 177.5076,199.3935 177.5098,199.3204 177.5098,199.3172 177.5067,199.2774 177.5025,199.244 177.5017,199.2177 177.5072,199.1866 177.5199,199.1488 177.5441,199.0745 177.5758,198.9919 177.6014,198.9066 177.6153,198.8423 177.6313,198.7513 177.6549,198.6474 177.6753,198.5874 177.7011,198.5252 177.7388,198.463 177.7795,198.3891 177.7977,198.343 177.8093,198.2918 177.8093,198.2885 177.8224,198.2146 177.8299,198.155 177.8409,198.1004 177.8692,198.0276 177.9163,197.9214 177.9567,197.8471 178.0132,197.7302 178.0551,197.6394 178.1054,197.5202 178.143,197.4308 178.2057,197.2809 178.2584,197.169 178.3186,197.0185 178.3709,196.8985 178.3731,196.894 178.4077,196.8128 178.46,196.7224 178.5089,196.6592 178.5654,196.5983 178.5975,196.5585 178.6575,196.476 178.6608,196.4738 178.7096,196.3986 178.7495,196.342 178.7828,196.2811 178.805,196.2423 178.8349,196.2113 178.9016,196.1502 178.9662,196.0913 179.0419,196.0279 179.0942,195.9823 179.1741,195.9273 179.2754,195.8612 179.3646,195.8056 179.3659,195.8043 179.4569,195.7426 179.5421,195.6845 179.6107,195.6435 179.6659,195.6146 179.7222,195.5809 179.7798,195.5473 179.8284,195.5187 179.8932,195.4738 179.9365,195.4343 179.9829,195.3739 180.023,195.3169 180.0255,195.3145 180.068,195.2672 180.1246,195.2104 180.1826,195.1736 180.265,195.1361 180.3439,195.1081 180.4192,195.0742 180.4834,195.022 180.5607,194.9366 180.6022,194.8794 180.6615,194.8185 180.704,194.7663 180.7477,194.7167 180.7683,194.678 180.7815,194.6382 180.7899,194.5974 180.791,194.5601 180.7982,194.5206 180.8138,194.4955 180.8396,194.4704 180.8625,194.4581 180.8793,194.4554 180.8935,194.4566 180.9072,194.4638 180.9659,194.5047 180.9866,194.6081 181.0605,194.7026 181.1581,194.7528 181.1966,194.9211 181.1789,194.9979 181.1819,195.3258 181.1819,195.3288 181.3061,195.5798 181.513,195.7629 181.7081,195.9193 181.9799,196.0256 182.1306,196.0521 182.2607,196.1112 182.3937,196.2411 182.503,196.3415 182.7778,196.4831 182.9226,196.5156 183.2447,196.5155 183.4574,196.4918 183.7056,196.3825 184.1251,196.217 184.5155,196.0846 185.1944,195.8313 185.8283,195.5402 186.3765,195.3172 187.61,194.8204 188.3124,194.7864 188.9804,194.8548 189.5974,195.0091 190.0427,195.403 190.2828,195.7455 190.6597,196.2766 190.9678,196.6365 191.4475,197.1847 191.7904,197.613 192.1503,198.1441 192.407,198.6069 192.4758,199.0352 192.4584,199.5833 192.4584,199.9429 192.5272,200.3027 192.6811,200.5768 192.9041,201.0225 193.0066,201.382 192.9725,201.8448 192.9041,202.1188 192.7669,202.4099 192.6296,202.7014 192.4244,203.0269 192.2357,203.3694 192.0645,203.6435 191.9668,203.8691 191.8418,204.1576 191.7904,204.3289 191.722,204.6544 191.6876,204.843 191.6706,205.2539 191.6362,205.8879 191.739,206.2992 191.9272,206.6931 192.0989,207.0186 192.2527,207.5327 192.2527,208.0809 192.0475,208.7663 192.0475,209.3144 192.1282,209.9073 192.2427,210.4655 192.2604,210.8084 192.1374,211.1996 191.944,211.56 191.9496,211.81 191.5274,212.699 191.3166,213.2523 191.2158,213.8333 191.1341,215.0124 191.7922,215.3398 191.1416,216.647 191.1124,216.7934 190.8079,217.4063 190.7663,217.74 190.6458,218.0522 190.6456,218.3499 190.8045,218.9142 191.0147,219.0661 192.1262,219.053 192.587,218.872 193.078,218.7316 193.4989,218.5558 193.8925,218.5328 194.3714,218.9515 194.9109,219.2304 195.0507,219.8406 194.8349,220.4796 194.4356,220.9515 194.3174,221.1274 194.1027,221.4463 193.6772,221.861 193.4172,222.3835 193.0203,222.9601 192.8359,223.5696 192.8097,224.1694 193.0354,225.466 193.037,226.1877 193.1976,226.9267 193.7192,228.7055 193.8752,229.4183 193.848,230.1423 193.7088,230.7428 193.3431,231.3015 192.8686,231.6992 192.8201,231.7644 192.5078,232.1838 192.4963,232.9073 192.6328,233.5188 192.5075,234.1297 192.0338,234.735 191.4742,235.1152 190.9019,235.5389 190.4078,235.8376 189.9597,236.2437 189.6258,237.4096 189.4813,238.0309 189.3723,238.7604 189.384,240.0944 189.3232,240.6927 189.0279,241.3791 188.9534,242.0492 188.9577,242.1421 188.98,242.6296 188.8887,243.9537 188.6994,245.1421 188.8216,245.531 188.6805,247.0246 188.6568,247.2746 188.997,247.5474 189.3906,247.4207 189.6955,247.3225 190.2877,247.0618 190.7574,247.1926 191.0412,247.9679 190.7951,249.0043 190.5288,249.6356 189.8826,250.7635 189.0713,251.3218 188.31,251.9806 187.9566,252.0002 187.6461,252.0802 187.4856,252.1908 187.4948,252.7 187.6545,253.0131 188.2744,253.5084 189.1454,253.6965 189.7663,253.7779 190.4175,253.6733 190.7279,253.6638 190.9784,253.7651 191.3824,253.8555 191.539,254.3957 191.582,255.6159 191.7482,256.2537 191.7602,256.6777 191.7363,256.7699 190.8886,257.4257 189.9527,257.9432 189.0979,258.3588 188.2641,258.8769 187.9528,259.2163 187.776,259.4091 187.0393,260.2123 186.1152,260.3649 184.6971,261.2949 184.3624,262.2414 184.2589,263.1939 184.3214,264.5205 183.5044,265.2253 182.9173,265.3613 181.7666,265.5176 180.7754,265.701 179.7863,266.2185 179.1026,266.9326 178.8001,267.7239 178.3363,268.759 176.8797,270.1782 175.9316,271.2565 175.3177,272.0869 174.9491,272.547 174.5572,273.0364 173.9985,273.626 173.7542,274.3066 173.6026,275.1293 173.4753,275.5428 173.3068,276.2542 173.336,277.1757 172.9878,278.1668 172.5662,278.731 172.8986,277.5316 171.8089,277.4447 171.7436,277.4395 166.5899,277.0285 162.0387,276.6354 161.7945,276.6143 160.3887,276.4928 159.919,276.3751 159.622,274.3818 159.4709,273.6429 159.3838,272.7393 158.5597,270.9874 157.9138,270.2537 157.0365,269.6519 156.5011,269.1572 156.1637,268.8453 155.5546,268.1849 155.5431,267.4696 155.6515,266.4942 155.8718,265.7747 156.2875,265.0666 156.5935,264.359 156.5949,263.7275 156.4434,262.9237 157.2147,262.0853 157.7199,261.6298 158.1452,261.0893 158.0698,259.3558 158.0692,258.8738 158.3612,258.2033 158.739,257.4203 159.1106,256.6499 159.3154,255.9094 159.7502,254.6746 160.0422,253.8816 160.3912,253.1216 160.6493,252.2046 160.4835,250.5674 160.4781,249.9864 160.6884,249.3523 160.9829,249.0014 160.9426,248.8028 161.1444,247.9767 161.4457,247.5031 162.0284,246.3294 162.2197,245.8055 162.1807,245.2056 161.9817,244.5801 161.7248,244.2105 160.521,242.8531 160.1501,242.3975 159.7783,241.7832 159.5299,240.5158 159.9772,238.7873 160.236,238.012 160.3677,236.4621 160.0526,235.846 159.7345,235.5916 159.4164,235.3372 158.7164,234.9714 158.157,234.5686 157.871,233.9186 157.6923,233.2146 157.3762,232.4237 156.9163,231.963 156.4605,231.2125 156.1955,230.6676 156.1949,230.6655 156.1945,230.6643 156.1911,230.6521 155.9684,229.8676 155.9157,229.682 155.8497,229.4422 155.6601,228.7531 155.5789,228.4579 155.5566,228.3771 155.5527,228.363 155.5404,228.318 155.4581,228.0192 155.3717,227.7053 155.2183,227.1477 155.1692,226.9693 155.1442,226.775 155.0636,226.5674 155.0309,226.4832 154.9241,226.3127 154.8883,226.2053 154.9102,226.0356 154.8984,225.8503 154.8906,225.7174 154.889,225.5825 154.8642,225.4397 154.9093,225.3185 154.9168,225.1818 154.8435,225.0938 154.8166,224.9707 154.8591,224.8655 154.8435,224.814 154.8046,224.7678 154.7208,224.6829 154.6367,224.5491 154.5497,224.4015 154.4979,224.172 154.6055,223.921 154.8058,223.5768 155.041,223.2504 155.3328,223.1484 155.6436,222.9943 155.7219,222.7999 155.9354,222.577 156.194,222.4086 156.4335,222.3414 156.5772,222.2674 156.7759,222.185 157.0549,222.052 157.2958,221.847 157.3922,221.7401 157.4413,221.584 157.4985,221.485 157.6251,221.3971 157.7901,221.4048 157.9056,221.3608 157.9776,221.3501 158.1717,221.3561 158.6502,221.3926 158.918,221.3006 159.2089,221.3152 159.4265,221.2107 159.7089,221.0036 159.9173,220.7457 159.9874,220.6538 159.9944,220.6445 160.0849,220.4734 160.1009,220.3934 160.1169,220.3134 160.1547,220.0244 160.1904,219.6081 160.1272,219.3416 160.0368,218.9081 160.0365,218.9073 160.0349,218.8996 160.016,218.8455 160.0061,218.817 159.9975,218.7924 159.9379,218.6215 159.916,218.4463 159.9479,218.3109 160.0355,218.2393 160.0734,218.1955 160.1074,218.1759 160.1271,218.1646 160.1694,218.1245 160.1879,218.1069 160.2337,218.0123 160.2446,217.9457 160.3226,217.7743 160.4344,217.6462 160.5719,217.6027 160.8323,217.6398 160.9909,217.6528 161.128,217.5692 161.2934,217.3853 161.3642,217.2438 161.427,217.1182 161.5112,216.782 161.6596,216.5051 161.9268,216.1688 161.9551,216.1535 162.2297,216.0051 162.5053,215.9707 162.6587,216.027 162.8811,216.0583 163.0539,215.9867 163.2783,215.9639 163.3981,215.8481 163.4989,215.6273 163.6838,215.5662 163.8552,215.6318 163.9983,215.6526 164.1444,215.6779 164.4365,215.6988 164.605,215.7092 164.6631,215.6906 164.7213,215.672 164.9032,215.612 165.1103,215.59 165.4125,215.6692 165.5532,215.7401 165.9538,215.7014 166.1109,215.6269 166.222,215.5741 166.268,215.5523 166.268,215.5491 166.6902,215.2888 166.7173,215.2834 167.2012,215.1872 167.3623,215.1119 167.3948,215.0967 167.5885,215.0063 167.9719,214.8086 168.2101,214.6613 168.2798,214.6471 168.3494,214.633 168.6806,214.6168 168.9976,214.4835 169.1692,214.2393 169.3326,213.9042 169.5103,213.6478 169.5475,213.5571 169.589,213.4561 169.6677,213.2643 169.8695,212.6275 170.06,212.2238 170.247,211.7747 170.5395,211.3659 170.6748,210.9258 170.8264,210.5339 171.1307,209.5281 171.1401,209.493 171.2545,209.0676 171.369,208.7259 171.5118,208.5058 171.7051,208.2647 172.0907,207.7691 172.3235,207.6243 172.6947,207.6715 172.8689,207.8 172.9416,207.8769 173.1525,208.0902 173.2524,208.1944 173.3727,208.3015 173.4083,208.3609 173.4707,208.3984 173.4908,208.4363 173.502,208.4617 173.5112,208.4825 173.5125,208.4864 173.5271,208.5298 173.5274,208.5357 173.5293,208.5643 173.5295,208.5686 173.5332,208.6017 173.5324,208.6376 173.5496,208.6629 173.5528,208.6837 173.5602,208.6959 173.5627,208.7098 173.5683,208.712 173.5753,208.7147 173.5921,208.7196 173.6022,208.7253 173.6054,208.7271 173.6079,208.7285 173.6193,208.7411 173.6252,208.7526 173.6253,208.7533 173.6282,208.7698 173.6296,208.7857 173.6313,208.8053 173.6321,208.8212 173.63,208.8314 173.6268,208.8446 173.6229,208.8609 173.6181,208.8757 173.6129,208.8868 173.6093,208.8924 173.6067,208.896 173.6059,208.8971 173.6036,208.9009 173.602,208.9042 173.6021,208.9064 173.6022,208.9074 173.6037,208.9107 173.6052,208.9148 173.6056,208.9195 173.6047,208.9243 173.603,208.9289 173.599,208.9342 173.5943,208.9379 173.5908,208.9407 173.5835,208.947 173.5788,208.9537 173.5786,208.9542 173.5766,208.9584 173.5755,208.9606 173.5739,208.9639 173.5723,208.9737 173.5722,208.974 173.5711,208.9846 173.5712,208.9852 173.5719,208.9959 173.5746,209.005 173.5786,209.013 173.5839,209.0198 173.5842,209.0202 173.5897,209.0254 173.5989,209.0322 173.6057,209.0354 173.606,209.0355 173.6153,209.0386 173.6205,209.0389 173.6273,209.0394 173.6413,209.0385 173.6516,209.0307 173.6581,209.0178 173.6606,209.0001 173.6609,208.9792 173.6613,208.9549 173.6622,208.9374 173.6639,208.9253 173.664,208.924 173.6643,208.9223 173.6686,208.8932 173.6747,208.8728 173.6838,208.8558 173.6972,208.8383 173.7101,208.8282 173.7147,208.8272 173.726,208.8249 173.7269,208.8248 173.7409,208.824 173.756,208.819 173.7666,208.8127 173.7738,208.8084 173.7922,208.8001 173.8033,208.7951 173.8035,208.7949 173.8068,208.7931 173.8098,208.7914 173.8129,208.7898 173.8205,208.7855 173.8223,208.7845 173.8276,208.7816 173.8279,208.7814 173.8356,208.7777 173.8581,208.7667 173.8758,208.7597 173.8766,208.7594 173.9013,208.745 173.9202,208.7295 173.9392,208.7131 173.9513,208.6985 173.9592,208.6854 173.9668,208.6694 173.9723,208.6479 173.9748,208.6278 173.9767,208.5999 173.9791,208.5619 173.9796,208.533 173.9796,208.5147 173.9823,208.4995 173.9875,208.4828 173.9881,208.4815 173.9966,208.464 174.0065,208.4495 174.0236,208.4263 174.0395,208.4069 174.0495,208.3964 174.0589,208.3901 174.06,208.3895 174.0698,208.3846 174.0736,208.3821 174.0757,208.3808 174.0783,208.3772 174.0811,208.3736 174.0849,208.3692 174.0922,208.3636 174.1046,208.3566 174.1078,208.3548 174.1228,208.3465 174.1342,208.34 174.1443,208.3339 174.1499,208.3287 174.153,208.3258 174.1536,208.325 174.1565,208.321 174.1589,208.3177 174.1617,208.3155 174.1654,208.3141 174.1698,208.3133 174.1731,208.312 174.1765,208.3081 174.1796,208.3024 174.1826,208.297 174.186,208.2908 174.1873,208.2891 174.1896,208.2865 174.192,208.2835 174.1924,208.2832 174.195,208.2804 174.1988,208.2763 174.2026,208.2723 174.2082,208.2672 174.2126,208.2633 174.2211,208.2595 174.2272,208.2566 174.2337,208.2529 174.2427,208.2429 174.2564,208.2175 174.2634,208.2076 174.2702,208.1994 174.2791,208.1889 174.2848,208.1809 174.2869,208.178 174.2955,208.1636 174.3032,208.1469 174.3111,208.1285 174.3114,208.1278 174.3196,208.1126 174.3325,208.0925 174.3355,208.0872 174.3426,208.0749 174.3471,208.0651 174.35,208.0589 174.3669,208.0217 174.37,208.0148 174.3809,207.9923 174.3878,207.978 174.3981,207.9555 174.402,207.9469 174.4229,207.9049 174.4355,207.874 174.4524,207.8322 174.4656,207.7993 174.4786,207.7677 174.4927,207.7316 174.4933,207.7299 174.5113,207.6694 174.5165,207.645 174.5221,207.6237 174.5316,207.5797 174.5413,207.5429 174.5552,207.4986 174.5714,207.4466 174.5817,207.4191 174.5911,207.3931 174.6003,207.3726 174.6117,207.3477 174.62,207.3329 174.6283,207.3181 174.6341,207.3031 174.6431,207.2841 174.6446,207.2812 174.6512,207.2683 174.6529,207.2618 174.655,207.2524 174.6563,207.2469 174.6566,207.2457 174.6599,207.2387 174.6643,207.231 174.6646,207.2304 174.6683,207.2215 174.6712,207.2105 174.6747,207.1934 174.6797,207.1603 174.6806,207.1512 174.6809,207.1486 174.6821,207.1369 174.6844,207.1076 174.6866,207.0677 174.69,207.0194 174.69,207.0184 174.6903,206.9753 174.6894,206.9453 174.6911,206.9303 174.6932,206.9106 174.6932,206.8796 174.6932,206.8564 174.6941,206.839 174.6945,206.8287 174.6945,206.8022 174.6939,206.79 174.6933,206.7787 174.6932,206.7777 174.6933,206.7532 174.6945,206.7396 174.6946,206.739 174.6946,206.7215 174.6945,206.7209 174.6927,206.7034 174.6901,206.684 174.6901,206.6835 174.6875,206.662 174.6869,206.6439 174.6901,206.6221 174.6954,206.5988 174.6961,206.5833 174.6954,206.5752 174.6948,206.5671 174.6923,206.5592 174.6922,206.559 174.6897,206.5509 174.6864,206.5386 174.6851,206.5223 174.6839,206.5002 174.6865,206.4807 174.6878,206.4645 174.6891,206.4469 174.6892,206.4293 174.6893,206.427 174.6905,206.4118 174.6924,206.3916 174.697,206.3613 174.6995,206.3402 174.7,206.337 174.7029,206.311 174.7048,206.2813 174.7048,206.2542 174.7048,206.2508 174.7041,206.2197 174.703,206.1969 174.7078,206.1414 174.7139,206.1151 174.7188,206.096 174.7197,206.0818 174.7192,206.0736 174.7188,206.0653 174.7161,206.0423 174.7134,206.021 174.7131,206.0139 174.7121,205.9943 174.7117,205.9686 174.7113,205.9486 174.7105,205.9317 174.7078,205.9077 174.7031,205.8801 174.7022,205.8746 174.7019,205.8733 174.6949,205.8444 174.6929,205.8368 174.6892,205.8235 174.6844,205.7986 174.6828,205.7775 174.6827,205.7763 174.6845,205.7618 174.6859,205.7492 174.685,205.737 174.6814,205.7243 174.6742,205.7003 174.6741,205.6997 174.6711,205.6866 174.6702,205.6761 174.6697,205.6698 174.6689,205.659 174.6676,205.6386 174.6644,205.6236 174.6594,205.6055 174.6526,205.5877 174.6449,205.5691 174.6381,205.5491 174.6281,205.5245 174.6176,205.5073 174.607,205.4823 174.5952,205.4583 174.5927,205.4517 174.5902,205.4451 174.5875,205.434 174.5861,205.4283 174.5821,205.4158 174.5801,205.4096 174.5747,205.3937 174.5713,205.3874 174.5633,205.3723 174.5589,205.3659 174.5519,205.3555 174.5451,205.3415 174.5415,205.3265 174.5365,205.3097 174.5278,205.2901 174.5234,205.2802 174.5179,205.2679 174.5129,205.2543 174.4878,205.1868 174.4873,205.1858 174.468,205.1455 174.4587,205.1164 174.458,205.1145 174.4519,205.0951 174.4472,205.0768 174.4468,205.0756 174.4428,205.0602 174.4337,205.0356 174.4322,205.0323 174.4263,205.0198 174.426,205.0192 174.421,205.0088 174.4024,204.9832 174.365,204.9306 174.3624,204.927 174.3548,204.9131 174.3539,204.9115 174.3519,204.9079 174.34,204.8828 174.3282,204.8523 174.3172,204.8241 174.3109,204.8018 174.3045,204.7743 174.3022,204.7529 174.3026,204.7357 174.3027,204.7305 174.3081,204.7082 174.3186,204.6876 174.3328,204.6701 174.3358,204.6673 174.3497,204.6548 174.3694,204.6458 174.3918,204.6381 174.4149,204.636 174.4376,204.6366 174.4611,204.6405 174.48,204.6456 174.518,204.6596 174.5353,204.6621 174.5538,204.6602 174.5719,204.655 174.5915,204.6473 174.6054,204.6365 174.6175,204.6243 174.624,204.6121 174.6292,204.5967 174.6348,204.5803 174.6381,204.5597 174.6382,204.541 174.6383,204.5124 174.6384,204.4847 174.6366,204.4289 174.6364,204.4198 174.6362,204.407 174.636,204.3971 174.6358,204.3911 174.635,204.3778 174.6342,204.3655 174.6334,204.3518 174.6294,204.2975 174.6284,204.2661 174.6293,204.251 174.6299,204.241 174.6352,204.2196 174.6421,204.2059 174.6504,204.1975 174.6626,204.1914 174.6761,204.1886 174.6889,204.1871 174.7009,204.1888 174.7127,204.1954 174.7251,204.2059 174.7394,204.2224 174.7463,204.2319 174.7532,204.2414 174.7625,204.26 174.7698,204.2818 174.7781,204.3054 174.7883,204.3342 174.8082,204.3875 174.8134,204.4141 174.8183,204.4406 174.8197,204.4581 174.8221,204.476 174.8273,204.4887 174.8348,204.501 174.8437,204.5109 174.8517,204.5152 174.8616,204.517 174.8677,204.5161 174.8761,204.5118 174.885,204.5015 174.8969,204.4815 174.9073,204.46 174.9231,204.4206 174.9323,204.3915 174.9374,204.3708 174.9456,204.3446 174.9524,204.3216 174.9605,204.2975 174.969,204.2825 174.983,204.2672 174.9969,204.2622 175.0108,204.259 175.0397,204.251 175.0574,204.2454 175.0696,204.2435 175.0848,204.2415 175.1143,204.2399 175.2026,204.2289 175.2299,204.2199 175.2568,204.209 175.2786,204.2056 175.3136,204.1953 175.3588,204.1755 175.3895,204.1605 175.4415,204.1358 175.4767,204.1161 175.5025,204.0978 175.5461,204.0651 175.5658,204.0482 175.5855,204.0369 175.6072,204.0312 175.6297,204.0297 175.6484,204.035 175.6648,204.0444 175.675,204.0541 175.6852,204.0638 175.6952,204.0757 175.7047,204.0877 175.7269,204.1064 175.7449,204.1199 175.7738,204.1396 175.7903,204.1471 175.7983,204.1481 175.8063,204.149 175.8265,204.1462 175.8505,204.1363 175.8685,204.1255 175.8855,204.1081 175.9048,204.078 175.9187,204.0542 175.9337,204.0406 175.9591,204.0269 175.995,204.0123 176.0219,204.0029 176.0432,203.9986 176.0677,203.9957 176.0932,203.9967 176.1287,203.998 176.1519,204.0032 176.176,204.0078 176.1971,204.0103 176.222,204.0104 176.2553,204.008 176.2921,204.0032 176.319,203.9961 176.3503,203.9851 176.3779,203.975 176.3984,203.9687 176.4327,203.9632 176.4669,203.9631 176.505,203.9659 176.5462,203.9711 176.5821,203.9801 176.6095,203.9839 176.6296,203.9847 176.651,203.9808 176.6773,203.9642 176.6977,203.9461 176.7205,203.9285 176.7475,203.9095 176.7858,203.8948 176.8324,203.8786 176.883,203.8546 176.9345,203.8289 176.9703,203.8154 177.0151,203.8053 177.0644,203.7975 177.1226,203.7852 177.1607,203.765 177.2013,203.7246 177.2556,203.6683 177.3074,203.6087 177.3503,203.5547 177.4003,203.4934 177.4477,203.4332 177.4762,203.3958 177.5052,203.3582 177.5403,203.3136 177.5745,203.2629 177.5839,203.2434 177.5889,203.2305 177.5937,203.2194 177.5942,203.1942 177.5895,203.1766 177.5746,203.1537 177.5658,203.1464 177.5512,203.1344 177.5357,203.1258 177.5301,203.1199 177.5244,203.1139 177.5175,203.101 177.5137,203.0854 177.5158,203.0698 177.5234,203.0607 177.5347,203.0553 177.5507,203.0538 177.5711,203.055 177.5966,203.0579 177.636,203.0503 177.6707,203.036 177.6941,203.0293 177.7211,203.0273 177.7467,203.0227 177.7814,203.0185 177.7875,203.0172 177.8129,203.0119 177.8318,203.0021 177.84,202.9898 177.8458,202.9717 177.8484,202.9519 177.8461,202.9329 177.8407,202.9138 177.8334,202.9014 177.8211,202.8889 177.813,202.8773 177.8114,202.8632 177.8122,202.8516 177.8147,202.8375 177.8238,202.8244 177.8279,202.812 177.8321,202.7937 177.8348,202.7772 177.8382,202.7623 177.8449,202.7515 177.8573,202.7416 177.8755,202.7292 177.8929,202.711 177.9038,202.6952 177.9173,202.6703 177.9253,202.6318 177.924,202.6134 177.9194,202.5956 177.9115,202.5778 177.9002,202.5582 177.8855,202.525 177.8664,202.4924 177.8313,202.4523 177.8197,202.4338 177.8115,202.4053 177.8024,202.3674 177.7901,202.3169 177.7791,202.2866 177.7679,202.2657" stroke="black" /><polygon fill="none" points="132.0151,163.2068 131.9435,163.1025 131.6649,162.5135 131.233,161.9701 130.6723,161.4534 130.0211,160.9995 129.295,160.5671 128.0169,160.0027 127.0961,159.3843 126.4014,158.8908 125.1783,158.2202 124.4556,157.8784 123.8106,157.6448 123.2419,157.5044 122.6785,157.4174 122.1192,157.3068 120.7453,157.1099 119.873,156.5817 120.1459,155.9449 120.3788,154.7487 120.6003,154.0843 120.7345,153.4717 120.7885,152.8585 120.8622,152.4973 120.9178,152.225 121.5269,151.8884 122.3612,151.7607 122.689,151.2062 123.1151,150.7781 123.7138,150.4381 124.317,149.9131 124.8278,149.3618 125.0112,148.7735 125.2643,148.2494 125.4752,147.5684 125.4474,146.9717 125.5175,146.3589 125.0981,145.8747 124.5152,145.5136 123.9979,144.9125 123.5577,144.4795 123.2116,144.0177 123.0118,143.8396 122.6999,143.5615 122.7513,143.4874 123.0281,143.088 123.4324,142.4188 123.8583,141.9919 124.1392,141.3925 124.357,141.0538 124.5437,140.7635 125.6033,139.9697 125.6049,139.3178 125.4206,138.7651 125.6199,137.7953 125.7273,137.2448 125.729,137.2365 125.7305,137.2291 125.804,136.8875 125.8105,136.8573 125.8383,136.7283 125.9554,136.184 126.3489,134.3547 126.3535,134.3331 126.5523,133.409 126.5588,133.3787 126.7377,132.5046 128.1132,125.7829 130.1275,115.9428 130.9116,112.1134 130.9471,111.9395 134.9291,109.7205 143.6864,104.8405 143.7403,104.842 145.3087,104.8843 145.7442,104.6872 145.7557,104.682 145.8741,104.6284 146.5151,104.3896 147.1788,104.3095 147.7867,104.1705 148.4065,103.9686 149.0961,103.8415 149.6559,103.9362 150.2318,103.6123 150.696,103.1157 151.0503,102.6753 151.6484,102.8694 152.2091,103.3462 152.6091,103.8322 153.1779,105.0817 153.3134,105.666 153.7242,106.1429 154.2885,106.1748 154.9294,106.1316 155.4202,105.7886 155.954,105.9985 156.4704,106.3443 157.1333,106.7061 157.7189,106.7988 159.0398,106.8667 163.3594,106.4897 163.7086,112.5487 163.8274,114.6105 163.889,116.1996 164.2586,125.7239 164.2593,125.7422 164.4112,129.6489 164.6752,136.4369 164.6962,136.9781 164.5233,137.5732 164.459,138.2731 164.4767,138.4225 164.6263,139.6856 164.6364,141.0044 164.5073,141.5805 164.6467,142.2621 164.8207,142.8687 164.9322,143.5153 165.1324,144.0522 164.9983,144.7991 165.106,145.4145 165.4059,146.1376 165.8998,146.4423 165.9763,146.5897 166.2203,147.0601 166.3529,147.2077 166.5892,147.4705 166.7585,147.6587 167.2597,148.0829 168.5537,148.3832 169.1184,148.4776 170.2662,148.281 170.8087,148.5534 171.504,148.4414 172.21,147.9306 173.0355,147.9508 170.2653,150.6217 167.7627,152.1108 167.7477,152.1198 163.8455,154.4415 149.3107,163.0911 149.2051,163.1519 144.2958,165.9779 145.0552,166.4957 145.7935,166.9142 146.6184,167.0707 147.4261,167.3319 147.9479,167.7335 148.5837,168.0841 149.0376,168.4876 149.4466,168.9263 149.865,169.6458 150.6576,170.7354 149.6998,171.038 149.1665,171.2514 148.9445,171.3403 147.3565,171.875 146.3064,172.145 145.4492,172.2013 144.6787,172.1162 144.0318,171.9945 143.7613,171.9898 143.2249,171.9808 142.5938,171.8781 141.8229,171.6687 140.0512,171.1134 139.491,170.8866 138.985,170.6421 138.4408,170.4671 137.336,169.7844 136.7372,169.542 136.1032,169.1536 135.9279,169.0665 135.4407,168.8248 134.8585,168.0866 134.4538,167.6815 134.2029,167.2761 133.952,166.8707 133.4307,165.962 133.0276,165.1338 132.8328,164.5903 132.5541,163.9924 132.0151,163.2068" stroke="black" /><polygon fill="none" points="145.8741,104.6284 145.7557,104.682 145.7442,104.6872 145.3087,104.8843 143.7403,104.842 143.6864,104.8405 142.7924,103.9509 142.255,103.5909 141.9159,103.0348 142.1742,102.4781 141.8663,101.908 141.8457,101.1963 141.3882,100.8239 141.3881,100.8228 141.3068,100.2344 141.1281,99.5893 140.7837,99.0348 140.7839,98.379 140.1532,98.3243 140.288,97.7659 139.6534,97.5841 139.4882,97.4422 139.1732,97.1716 138.8487,97.0688 138.5544,96.9755 138.0151,96.5403 137.653,95.9095 137.089,96.1182 136.523,96.1613 136.0272,95.7593 135.2744,95.7153 134.6642,95.5529 133.9643,95.8092 133.4427,95.4994 133.1242,94.8391 132.4666,94.4025 131.8739,94.318 131.1476,94.4661 130.4692,94.1935 129.8273,93.8005 129.0887,93.9276 128.3449,94.0931 127.9523,93.6418 128.2055,93.1091 128.0386,92.5459 127.696,92.5602 127.4306,92.5713 126.8104,92.5482 126.3637,92.1285 126.6378,91.6117 127.3062,91.3312 127.5545,90.7479 127.0587,90.3402 126.4879,89.8111 126.0568,89.3513 126.2069,88.7037 126.725,88.111 126.8045,87.8781 126.9189,87.5435 126.6375,87.0204 126.1369,86.7426 125.0173,86.2351 124.9307,85.5896 125.0933,84.968 125.1358,84.3469 125.0966,84.247 124.9203,83.7975 124.3708,83.4286 123.4766,83.3429 122.9579,83.6322 122.4085,84.167 121.784,84.6919 121.2919,84.8863 121.2027,84.9216 120.4606,85.094 120.3571,85.1288 119.6734,85.359 118.9353,85.7389 118.4139,86.1519 117.2603,86.976 116.6839,87.2057 116.1019,87.184 115.3209,86.9829 114.782,86.7012 114.2207,86.5718 113.4887,86.4563 112.8423,86.4923 111.82,86.6944 111.3458,85.6629 110.9299,85.032 110.5209,84.3415 110.149,83.8187 109.3467,82.5777 109.0878,82.0372 108.8077,81.3972 108.6094,80.6508 108.3941,79.9808 107.9895,78.7669 107.7531,78.1968 107.5804,77.6883 107.5639,77.6398 107.5551,77.6374 100.0127,75.5549 79.3055,69.8377 79.9196,69.2636 81.1033,67.8373 81.6097,67.3235 82.9997,66.0955 83.862,65.008 84.6423,63.8166 84.8156,63.2017 85.1596,62.6724 109.5486,69.4276 110.2433,69.62 110.78,69.7687 111.7487,69.7354 112.4228,69.6471 113.2466,69.4343 113.8674,69.3566 115.0563,69.4278 115.855,69.6164 116.3662,69.9104 117.1139,70.082 117.8089,69.9724 118.4878,69.6503 118.9996,69.3651 119.5442,69.1335 120.9385,69.2793 122.038,69.2512 122.5414,69.1847 122.6788,69.1664 123.2654,69.0241 123.4136,68.9625 123.8055,68.7997 124.4187,68.7533 125.3505,69.6417 125.8253,70.042 126.4928,70.1695 126.9938,69.8389 127.1525,69.4067 127.3717,68.6679 127.7329,67.9828 128.2218,67.586 128.8834,67.398 129.3538,68.2889 129.886,68.747 130.5063,68.8316 131.7839,68.645 132.9742,69.1846 133.5932,69.5515 134.2976,69.7161 134.8635,69.5024 135.5703,69.3073 136.0226,69.776 135.9834,70.3743 136.0703,71.1157 136.589,71.2925 136.7014,71.3309 137.5145,71.1288 138.2632,70.8256 139.0822,70.8783 139.6319,71.1755 140.068,71.5465 140.7404,71.5923 141.0327,72.1311 141.4951,72.4774 142.26,72.6833 142.8696,72.6511 143.3973,72.4404 144.0329,72.2754 145.5508,72.4629 146.2087,72.0533 146.8977,71.5163 148.2222,70.8597 148.488,70.273 148.6227,69.6953 148.7184,69.0661 148.8611,69.2535 148.931,69.3454 156.1795,78.8739 158.0097,81.2793 166.1825,92.0185 166.2521,92.1099 169.103,95.8573 169.1417,95.9082 169.3253,96.1496 169.7748,96.7405 169.8469,96.8353 169.861,96.8539 169.8852,96.8856 170.166,97.2548 170.2597,97.3779 170.32,97.4572 172.5643,100.407 176.3282,105.3548 175.8124,105.3999 168.56,106.0346 167.9806,106.0853 163.3594,106.4897 159.0398,106.8667 157.7189,106.7988 157.1333,106.7061 156.4704,106.3443 155.954,105.9985 155.4202,105.7886 154.9294,106.1316 154.2885,106.1748 153.7242,106.1429 153.3134,105.666 153.1779,105.0817 152.6091,103.8322 152.2091,103.3462 151.6484,102.8694 151.0503,102.6753 150.696,103.1157 150.2318,103.6123 149.6559,103.9362 149.0961,103.8415 148.4065,103.9686 147.7867,104.1705 147.1788,104.3095 146.5151,104.3896 145.8741,104.6284" stroke="black" /><polygon fill="none" points="156.8124,23.7601 156.7233,23.7157 156.4116,23.5604 156.2555,23.2493 156.0989,22.8265 155.9986,22.7155 155.8983,22.6044 155.5199,22.6048 155.2662,22.6849 155.0203,22.7286 154.5294,22.6171 153.941,22.3077 153.595,21.8408 153.3607,21.3295 153.1204,21.0448 152.1441,21.032 151.2692,20.8783 151.1678,20.8605 150.5931,20.3344 150.1148,19.8077 149.5427,19.3274 149.014,18.9337 148.5847,19.463 148.2336,20.0795 147.9751,20.8717 147.4097,21.49 146.8453,21.3601 146.7007,21.1337 146.538,20.8789 146.4028,20.2196 145.8739,19.4737 144.6938,19.0397 144.1292,19.0418 143.4672,18.9503 142.8833,18.4072 144.3789,16.6786 149.9192,11.1069 153.2862,7.5219 154.4778,6.1632 155.5357,4.957 155.7008,4.7472 157.271,2.7517 157.9692,2.0872 158.0032,2.0615 158.1229,1.9794 158.3319,1.8317 158.5956,1.6207 158.7287,1.5258 158.888,1.3641 158.972,1.2864 159.0791,1.2319 159.1255,1.1626 159.1545,1.0787 159.1721,1.0036 159.1955,0.9314 159.2473,0.8332 159.3956,0.6915 159.5142,0.576 159.641,0.4799 159.8039,0.38 159.9177,0.3088 160.0185,0.2578 160.1179,0.1915 160.1901,0.1228 160.294,0.077 160.3836,0.034 160.5163,0.0083 160.6549,0.0 160.7529,0.003 160.8565,0.0118 160.9661,0.031 161.0951,0.0542 161.2123,0.1111 161.3444,0.1793 161.5212,0.2999 161.7525,0.4577 161.9918,0.6044 162.1107,0.706 162.2572,0.7665 162.2648,0.7665 162.4235,0.7706 162.5135,0.7445 162.6149,0.7183 162.7734,0.7601 162.7771,0.7563 162.9835,0.7642 163.1826,0.7683 163.3403,0.8212 163.562,0.9006 163.7502,0.9612 163.927,1.0443 164.0588,1.1161 164.1636,1.2103 164.3203,1.3034 164.405,1.3967 164.5555,1.4843 164.5643,1.4873 164.7106,1.525 164.8405,1.5724 164.9555,1.6167 165.0409,1.6371 165.1357,1.664 165.2482,1.7204 165.3434,1.7951 165.4804,1.9027 165.622,2.051 165.702,2.1521 165.758,2.2472 165.8202,2.4287 165.8765,2.613 165.9487,2.849 165.9752,3.022 165.9885,3.2806 165.973,3.6998 165.9516,4.0713 165.9308,4.3107 165.9101,4.4507 165.9068,4.5296 165.924,4.6115 165.9671,4.7161 165.9785,4.7388 166.0629,4.8749 166.1473,5.0026 166.2518,5.0964 166.3793,5.2101 166.5295,5.287 166.7849,5.3612 166.7885,5.3618 167.0062,5.3978 167.1278,5.3838 167.2441,5.3362 167.4341,5.3046 167.5242,5.3132 167.6323,5.3415 167.7806,5.4042 167.9946,5.4815 168.0696,5.4906 168.1947,5.5051 168.2464,5.5124 168.3214,5.5145 168.3984,5.5095 168.4826,5.5008 168.5777,5.4796 168.6421,5.4618 168.703,5.4404 168.7374,5.4244 168.7679,5.4174 168.7911,5.4174 168.839,5.4104 169.2911,5.2916 169.3653,5.2596 169.4684,5.3017 169.5549,5.3113 169.629,5.3017 169.6838,5.2825 169.7322,5.2826 169.8063,5.315 169.9095,5.3249 169.9967,5.296 170.0386,5.2767 170.0838,5.2671 170.1185,5.2915 170.2937,5.535 170.5359,5.7869 170.7701,6.106 170.8248,6.1871 170.9624,6.3915 171.2304,6.5765 171.4398,6.7278 171.8347,6.8205 172.0517,6.8632 172.404,6.8303 172.7065,6.7635 172.9635,6.6788 173.151,6.6453 173.2702,6.6029 173.304,6.5909 173.3379,6.5788 173.5784,6.4594 173.5941,6.449 173.5994,6.4437 173.773,6.3128 173.8186,6.278 174.0412,6.1085 174.3305,5.8465 174.5095,5.6211 174.5587,5.5666 174.7463,5.359 174.807,5.2148 174.9824,5.327 175.2315,5.4864 176.332,5.8779 176.9069,6.4074 177.8115,7.6635 178.0064,8.7256 178.0496,9.9256 177.9954,11.1273 178.3894,13.9209 178.5237,15.4467 178.5562,16.5489 178.4172,17.4608 178.4697,17.8561 178.5841,18.7168 178.7177,20.8447 179.1584,22.035 179.6769,22.7809 178.9923,22.8061 178.7225,22.9722 178.0223,23.2297 177.6339,23.185 177.1922,22.542 176.983,22.4356 176.7793,22.506 176.653,22.6665 176.4231,23.0784 176.2889,23.1537 175.9053,22.9431 175.7376,22.7551 175.3353,22.6092 175.011,22.5591 174.8452,22.207 174.8989,22.0062 175.2323,21.4686 175.3782,21.0725 175.3519,20.7898 175.2259,20.5479 174.7376,20.0182 174.3279,19.8548 173.8101,19.6968 173.4545,19.671 173.277,19.8127 173.1344,20.0396 172.8593,20.3728 172.5502,20.623 172.3289,20.707 172.125,20.6846 171.8869,20.8175 171.8502,20.9935 171.8504,21.1608 171.6346,21.3025 171.3973,21.3379 170.8855,21.3369 170.5892,21.2831 170.2232,21.266 170.217,20.3505 169.846,20.4925 169.576,20.6988 169.5768,20.9847 169.6418,21.5443 169.3537,22.6988 168.8098,23.8715 168.4837,24.3335 167.911,24.6413 167.5728,24.4639 166.93,23.4303 166.4717,23.2787 166.1777,23.3216 164.6593,25.1971 164.2983,26.1955 164.2486,26.7224 164.4371,27.008 164.8953,27.098 165.3863,26.8777 165.9131,27.3409 165.576,27.8458 165.1476,29.2713 165.0245,29.8103 165.0897,30.0615 165.2676,30.2828 165.6714,30.282 165.9886,30.1509 166.446,29.7126 167.0171,29.3732 167.7771,29.6143 167.9852,29.8901 168.0742,30.1113 167.7332,30.5491 167.7234,30.8563 167.8684,31.2295 168.2498,31.2968 168.7727,31.3084 169.5271,31.4749 169.5277,31.7365 169.3765,32.0664 168.7955,32.4614 168.5416,32.8994 168.2146,33.1406 167.7561,33.0752 167.0119,32.886 166.5329,32.8329 166.2475,33.0721 166.5333,33.337 167.0552,33.9745 167.3628,34.4677 167.6473,34.8314 167.7553,35.0523 167.7649,35.5345 167.4917,35.6432 167.0983,35.733 166.6837,35.885 165.8536,36.4118 165.7854,36.568 166.0266,36.7199 166.5544,36.7854 167.2008,36.7966 167.7569,36.8636 168.0411,37.0292 168.3478,37.2919 168.4564,37.6771 168.391,38.0839 168.2134,38.2813 167.9978,38.4351 167.7118,38.2698 167.5024,37.951 167.1851,37.8728 166.8139,38.176 166.6406,38.4111 166.5974,38.5727 166.5436,38.774 166.5215,39.2239 167.1842,39.5753 167.0332,39.9262 166.4187,40.1558 166.3232,40.4314 166.4724,40.9076 166.7046,41.4757 166.9802,41.6966 167.2764,41.7068 167.4486,41.6193 167.4484,41.3769 167.2598,41.1016 167.2053,40.8732 167.426,40.4436 167.5565,40.3544 167.8301,40.3576 168.1596,40.5312 168.7347,40.731 168.9775,40.907 169.0645,41.0165 168.9673,41.1807 168.8283,41.2789 168.6716,41.4778 169.2088,41.9378 169.5002,42.1044 169.6348,42.4234 169.6684,42.566 169.8724,42.9392 169.9044,43.1712 169.9797,43.4327 169.9801,43.7184 169.6899,44.136 169.7426,44.5528 169.7432,44.8181 169.6147,44.9486 169.512,45.1235 169.3939,45.2564 169.382,45.5198 169.3281,45.6087 169.4158,45.8702 169.5221,46.0481 169.7003,46.255 169.9166,46.3003 170.0505,46.1676 170.1581,46.1135 170.6536,46.4369 170.8754,46.5274 171.0895,46.7343 171.1438,46.8514 171.1703,47.0273 171.1494,47.1584 171.0063,47.2468 170.8536,47.2602 170.5886,47.1645 170.4229,47.041 170.1634,46.9387 170.2184,47.0083 169.827,47.3782 169.4824,47.8685 169.522,48.0453 169.7002,48.3538 169.7695,48.5847 169.7861,48.6398 169.7762,48.9676 169.7226,49.1002 169.722,49.9235 169.9052,50.066 170.1578,50.0658 170.4055,50.2103 170.4386,50.3168 170.4392,50.4668 170.3192,50.6901 170.2343,50.9691 170.0671,51.0343 169.8074,51.1863 169.6737,51.3173 169.6083,51.5023 170.0436,51.628 170.1361,51.6547 170.3574,51.5882 170.5785,51.5685 170.9287,51.5854 171.0734,51.6254 171.166,51.7615 171.1277,51.9148 170.9065,52.0752 170.5574,52.1617 170.486,52.4008 170.4662,52.7322 170.497,52.8368 170.595,52.9849 171.1821,53.0817 171.6612,53.0389 172.2029,53.0364 172.2851,53.1277 172.3501,53.4704 172.3511,53.9185 172.3984,54.1752 172.4051,54.7401 172.5816,55.3622 172.7122,55.4475 172.9756,55.4943 173.1864,55.4955 173.3311,55.5474 173.589,55.6763 173.7773,55.9249 173.7987,55.9531 185.9686,60.857 185.1565,63.0023 183.9591,66.166 181.7772,72.4737 181.39,73.593 169.34,76.0397 156.3645,78.6748 156.8693,56.046 156.903,54.5432 157.0051,49.9935 157.0527,47.8726 158.3791,29.4301 158.5468,27.0988 158.4819,26.7277 158.3569,26.354 158.3119,26.01 158.1648,25.6001 158.003,25.2779 157.8195,25.1509 157.7387,25.095 157.5407,25.0733 157.3372,25.1052 157.1591,24.9943 157.0479,24.8499 156.9145,24.8057 157.0257,24.6611 157.0481,24.4835 156.9813,24.306 156.8916,24.1056 156.8124,23.7601" stroke="black" /><polygon fill="none" points="168.3372,0.5661 168.4462,0.586 168.5312,0.5846 168.6562,0.5737 168.6935,0.5935 168.882,0.7404 168.9478,0.8676 169.007,1.0735 169.1503,1.515 169.1576,1.9189 169.078,3.0603 168.9683,3.7244 168.8208,4.3962 168.7728,4.5668 168.6918,4.7016 168.6015,4.8281 168.4312,4.9543 168.3362,5.007 168.2248,5.0233 168.1451,5.0198 168.0349,4.9834 167.8685,4.9236 167.6032,4.826 167.3677,4.7239 167.356,4.6981 167.3489,4.6665 167.3431,4.602 167.356,4.5516 167.3783,4.4567 167.406,4.2626 167.4166,4.1513 167.4166,4.0575 167.3897,3.9004 167.3461,3.6758 167.2993,3.3136 167.2619,3.0118 167.2304,2.6777 167.2082,2.4597 167.1825,2.3132 167.1826,2.135 167.212,1.9504 167.2766,1.6223 167.3048,1.5098 167.3505,1.3433 167.3963,1.1745 167.4204,1.075 167.5108,0.8887 167.6351,0.7071 167.7547,0.6098 167.8579,0.5525 167.9762,0.5132 168.091,0.5085 168.2141,0.525 168.3372,0.5661" stroke="black" /><polygon fill="none" points="171.8548,6.6311 171.8351,6.6356 171.8192,6.6104 171.7883,6.5204 171.757,6.3994 171.7287,6.2868 171.6575,6.0789 171.6032,5.9257 171.554,5.7329 171.4439,5.428 171.3254,5.0159 171.1808,4.6618 171.042,4.3163 171.0262,4.1951 171.0361,4.0904 171.0756,3.9826 171.1481,3.8774 171.2251,3.7691 171.2898,3.7159 171.3743,3.7697 171.4909,3.8858 171.6005,4.0544 171.7217,4.3143 171.8473,4.8921 171.9257,5.4665 171.9571,5.8558 171.9408,6.196 171.9206,6.3802 171.8834,6.5516 171.8548,6.6311" stroke="black" /><polygon fill="none" points="164.2627,337.1016 164.5568,337.2352 165.4827,337.6198 166.042,337.9659 166.1284,338.5362 165.6869,339.1284 164.19,339.0941 163.6623,339.5484 163.4411,340.868 163.1019,341.417 162.6755,341.984 162.046,342.388 161.329,342.7002 160.7741,342.9921 160.6933,343.5977 161.3188,343.8932 161.9119,344.0041 162.3514,344.4156 162.9337,344.8386 163.6287,345.0292 164.2108,345.3669 164.4266,346.0212 164.3022,346.7514 164.0228,347.3996 163.6122,348.0016 163.1126,348.5674 162.4067,349.8525 161.9687,350.563 161.2814,351.79 161.0859,352.3616 160.9946,353.0041 160.839,353.72 160.7953,354.3882 160.8396,355.7556 161.0549,356.3184 161.6135,356.6052 162.9446,356.5905 163.5646,356.4218 165.8761,355.9142 166.4088,356.142 166.4993,356.8344 166.6256,357.1089 166.9643,357.8453 167.3417,358.4734 168.3214,359.8646 168.714,360.297 169.4737,360.9369 170.2876,360.8477 170.9978,360.5463 171.4185,359.9095 171.7087,359.3218 172.2154,358.7424 172.8563,358.23 173.9458,358.1116 174.8337,358.2353 176.7562,359.1939 177.5642,359.7577 178.27,360.3417 178.9381,360.4312 179.6505,360.2622 180.667,359.4884 180.7692,359.0526 181.1547,358.3653 181.471,357.0185 182.18,356.2402 183.4434,356.1449 184.0763,356.7252 184.1319,356.9136 184.1364,357.8904 184.3033,358.5279 184.698,359.7904 184.7012,360.9328 184.4919,362.7265 184.1638,363.7519 183.543,365.3157 182.9244,366.1105 181.965,366.7864 181.392,366.921 179.8553,368.285 179.2811,368.9935 179.2264,369.8316 178.9768,370.5869 178.3465,371.5557 177.6194,372.3081 176.4613,373.3354 175.5222,374.2487 174.9791,375.1877 174.3706,375.9128 172.7762,376.5744 171.9353,376.8592 171.785,377.0044 171.4175,377.1744 170.4208,378.0001 169.9748,378.3213 168.9232,378.6959 168.1179,379.0327 167.4363,379.5967 166.8296,379.8523 164.8038,381.1126 164.4264,381.6619 164.1184,382.2083 163.3119,382.8753 161.9186,384.1557 161.4064,384.8138 161.1473,385.7104 161.3185,387.3707 161.6258,388.2377 161.647,388.6635 161.7441,389.2596 161.9963,389.9073 162.7674,392.4259 163.3483,393.8762 163.522,394.8225 163.5325,395.5429 163.2635,396.5142 162.9621,397.2919 162.7656,397.948 162.4563,398.4574 162.186,399.0958 161.5872,400.0009 161.0913,400.9399 160.3497,402.639 160.0261,403.1536 159.6479,403.8968 159.4817,404.4611 159.228,405.01 158.7389,406.2129 157.9882,407.5073 157.5577,407.9177 156.0559,410.2961 155.6187,411.4965 155.1455,413.8242 155.0375,414.5471 154.9138,415.9192 154.6218,417.5409 154.1147,418.9552 153.8448,420.364 153.19,423.1525 153.1244,423.4319 153.1626,423.8375 153.5125,425.0446 153.6428,425.6056 153.7597,426.3432 153.6099,427.0468 153.2546,427.8267 152.8987,428.5005 152.6455,429.0827 152.7047,429.7331 153.1581,430.465 153.1474,431.0965 152.6295,431.4219 152.411,431.6735 152.4375,432.5381 152.6452,433.7794 152.6964,434.4965 152.1771,435.6249 151.9068,436.0113 151.875,436.2321 150.9227,437.9502 150.4264,438.7832 147.6417,441.6382 146.9845,442.3691 145.8987,443.3492 145.3954,443.6931 144.592,443.8107 143.6578,443.8243 142.5294,443.7012 141.7385,443.4382 141.2136,443.5017 139.9519,443.4326 138.7781,443.725 137.2332,443.7427 135.4773,444.0021 135.2021,444.1114 134.0485,444.5694 132.834,445.4649 131.6269,447.0871 131.0998,448.0671 130.6611,449.9066 130.3171,452.0577 130.1391,452.342 129.4763,454.0139 129.2349,455.1472 128.9758,455.6598 128.7175,456.2947 127.5047,457.9029 126.1149,459.3556 125.458,460.4163 125.2696,461.0854 125.0479,461.7376 124.8645,462.9056 124.6339,463.3771 124.3323,464.3888 123.8898,465.4884 122.7611,467.1755 122.2334,468.1248 121.8692,469.3611 121.5754,470.9251 121.4438,473.0117 121.4506,473.8402 121.5581,475.1298 121.4827,475.9681 121.2648,476.571 120.6252,477.3459 119.5669,477.6279 118.5832,477.2551 117.5008,475.9416 116.9296,475.0082 116.2037,474.361 115.6916,474.0619 115.529,473.7338 115.4477,473.3204 115.3982,473.0683 115.3596,472.5057 114.9304,472.0744 113.677,472.3967 112.577,472.8626 111.59,473.1757 111.1374,473.46 110.7319,474.6965 110.3704,477.6103 110.2989,478.4789 109.8685,479.2616 109.524,479.7748 109.1254,480.2168 108.5005,481.1538 108.3495,481.9105 108.5119,482.3905 108.9222,482.8316 110.2474,484.9855 110.4595,485.8047 110.0153,486.4469 109.0758,487.6913 107.8095,489.4833 107.7565,489.6538 107.4124,490.2023 107.2812,490.3016 106.5145,491.496 105.8954,492.2198 104.9589,492.7781 103.9442,492.4465 103.4377,492.1461 103.2656,492.2371 102.5965,492.3649 102.0035,492.4046 101.0243,492.3418 100.1524,492.4181 99.1559,493.0245 98.3741,493.6273 97.8356,494.0891 97.0707,494.5701 96.5092,494.9605 95.8861,495.2292 95.5591,495.4125 95.1849,495.6222 94.4363,495.8899 93.5803,496.055 92.9646,496.0601 92.476,495.4482 92.2699,494.411 91.8821,493.394 91.646,492.6568 90.8591,492.277 89.8799,492.8462 87.6251,495.8537 87.3774,496.3052 86.2911,497.245 85.9469,497.6068 85.2282,498.3014 84.0511,499.644 83.4036,500.0 83.3718,499.9919 82.6018,499.7953 82.0351,499.5364 81.1963,499.2774 80.0597,499.1804 79.3051,499.3434 78.3936,499.4787 77.6838,499.5665 77.0859,499.5721 76.0504,499.2265 75.4903,498.8804 74.6456,498.5166 73.6431,497.7489 73.3034,497.1694 72.8737,496.7177 72.2791,496.2796 71.817,495.9389 70.3945,494.5138 69.8887,494.2215 69.4629,493.8401 69.0537,493.3691 68.1645,492.4832 67.4598,491.8602 68.2352,491.0042 68.5481,490.491 69.4138,487.2252 69.5116,486.6083 69.7862,486.0585 69.8138,485.355 69.7324,484.4405 69.7058,483.7021 69.7321,483.0859 69.7102,482.5059 69.771,481.8548 70.0391,481.0766 70.9552,479.7813 71.4398,479.3898 71.8176,478.9094 72.3443,477.8468 72.7379,476.6997 73.1304,476.0253 73.3187,475.3679 73.9983,474.1771 74.1878,473.4012 74.5656,472.8527 74.5797,472.2734 73.983,471.8555 72.8611,471.1908 72.6084,470.5603 72.2489,469.8625 71.757,469.5681 71.3811,469.0288 70.9932,468.575 70.8415,467.9437 70.5247,467.3675 70.0455,466.7572 69.7531,466.1808 68.6817,465.4723 68.2519,465.0028 67.8791,464.4619 67.9753,463.8105 68.5859,463.4509 69.1132,463.2249 69.7161,462.7503 70.0226,462.2184 70.1045,461.5839 70.3565,461.0186 70.1752,460.3878 69.6466,460.0413 69.2904,459.5892 69.0533,458.9759 68.8373,458.2576 68.7626,457.6958 68.4344,456.9608 67.8373,456.4402 67.3397,456.0761 66.8131,455.7835 66.4895,455.2247 65.9461,454.0557 65.2826,452.8511 65.0896,452.1989 64.535,450.8454 64.2042,450.1747 63.3329,449.0126 62.9496,448.3965 62.692,447.834 62.5355,447.2882 62.2724,446.6016 62.2237,445.8981 62.1904,444.0704 62.616,442.6646 62.9502,442.2089 63.2307,441.6644 63.7742,441.1907 64.1081,440.6652 64.5615,440.2785 65.0885,439.9303 65.7349,439.7737 66.6825,438.7736 67.0007,438.2121 67.0549,437.5622 67.0714,436.9301 67.4,433.449 67.5776,432.3604 67.7335,431.8153 68.0131,431.1138 68.4875,430.3936 68.8762,429.9729 69.8399,429.0972 70.2278,428.4999 70.7399,427.2545 70.9143,426.6692 71.5483,425.5679 72.0382,425.1658 72.668,424.85 73.3139,424.6341 74.0035,424.7076 74.5694,424.946 75.9375,425.1541 76.8057,424.9124 77.3593,424.3599 77.8069,423.8599 78.0066,423.3127 78.1189,422.7484 77.9743,422.0649 77.5051,421.2445 76.8104,420.4293 76.2072,419.7513 75.711,419.2494 75.3027,418.7623 74.7685,418.3669 73.8809,417.2536 73.815,416.5522 74.1226,415.9485 74.5215,415.503 74.8436,415.0075 75.324,414.4028 75.6528,413.8709 75.884,413.0056 75.9062,412.1218 75.8085,410.2808 76.0077,409.5223 76.4286,408.5304 76.9236,407.7321 77.9945,406.6621 78.3595,406.2016 78.4232,406.1212 79.1651,405.1851 79.8319,404.5606 80.2481,404.0453 80.4844,403.4963 80.6298,402.4366 80.7644,401.0126 80.7327,400.1871 80.7369,399.2022 80.8179,398.638 81.2058,397.6132 81.6647,396.9029 82.003,396.0892 82.3381,395.0298 82.2571,394.0983 82.1429,393.521 81.2656,391.9676 80.8339,391.3237 79.9776,390.1931 79.4281,389.5848 78.6962,388.3484 78.4427,387.7719 78.3303,387.1927 78.4219,386.2776 78.5343,385.6609 78.7502,384.8131 78.8576,383.8452 78.9186,383.513 79.0195,382.9632 79.0947,382.3117 79.2781,381.5708 79.3595,381.0066 79.5451,380.3453 79.5979,380.157 79.7902,379.4719 80.4841,377.7913 80.6136,377.1552 80.4996,376.5955 80.037,376.0388 79.3532,375.6089 78.3895,375.3949 77.6344,375.3354 76.7459,375.4892 76.0773,375.3753 75.41,375.1045 74.9304,374.6891 74.521,373.9905 74.2296,373.1678 74.1331,372.5907 74.0692,371.9397 74.0741,371.0789 74.2144,369.5999 74.2842,368.3862 73.9988,366.8945 73.7991,366.3006 73.6326,365.6517 73.8844,365.0851 73.3199,364.2455 72.6349,363.9583 72.0263,363.5878 71.5752,363.2162 71.1926,362.6714 70.9284,362.0896 70.8962,361.4398 71.0187,360.7534 71.3055,360.1222 71.6557,359.5951 72.0915,359.1392 72.6895,358.6669 73.3198,358.4495 73.9497,358.578 74.0117,357.6536 74.0252,357.4517 73.8997,357.0099 73.821,356.7323 73.8401,356.6865 74.062,356.1558 74.2736,355.6496 74.3799,354.4091 74.3004,353.6045 73.9182,350.9947 73.8542,350.2791 73.7083,349.5811 73.653,348.4604 73.7401,347.881 74.0508,346.7735 74.4785,345.2483 74.7952,343.8072 74.8972,343.1116 75.2593,341.6843 75.5078,341.0439 75.7671,340.5376 76.5264,339.6151 77.0501,339.2202 77.8703,338.6894 78.2184,338.464 78.7549,338.1576 79.7266,337.4568 80.7584,336.4062 81.4371,335.6584 81.7297,335.0267 81.9313,334.151 82.1386,333.2507 82.1817,332.6868 82.1704,332.0427 82.2078,331.3302 82.4884,329.58 82.5044,328.7508 82.6007,328.1009 82.726,327.5122 82.7253,326.8855 82.6814,326.2781 82.5417,325.4373 82.3911,324.8271 81.5951,323.4651 81.5998,322.6691 82.1606,322.5098 82.8056,322.0883 83.4352,319.4098 83.9543,318.2629 84.3197,317.713 84.7291,317.2331 85.7418,316.6636 86.5774,316.4056 87.1736,316.3264 87.4675,316.329 88.4416,316.3372 89.0165,316.3978 90.1752,316.231 90.6757,315.8188 91.0259,315.3129 91.2958,314.8144 91.6841,314.2475 92.1587,313.7622 93.2669,313.2271 93.9667,313.0132 95.1154,312.5009 95.6315,312.1027 96.0852,311.6696 96.8546,310.553 97.1779,309.7996 97.4518,308.9484 97.5715,308.3947 97.6567,307.7888 97.9101,306.6149 98.0507,306.0442 98.2233,305.4999 98.561,305.0005 98.9129,304.4797 99.3802,304.0819 99.7836,303.638 101.3075,302.2974 102.0848,301.415 102.5005,300.6544 102.9098,300.1067 103.1953,299.573 103.7659,298.3389 104.4709,296.2643 104.8333,295.6888 105.1993,295.2005 105.646,294.841 105.8043,294.7603 106.4013,294.4562 107.209,294.1722 107.909,293.9671 109.0176,293.495 109.7074,293.3507 110.3646,293.3205 111.1574,293.672 111.6853,294.0975 112.1112,294.6508 113.2039,295.4826 113.7369,295.812 114.2054,296.1663 114.4455,296.409 114.6254,296.5909 114.901,297.1411 114.987,297.699 114.7716,298.3509 114.5277,298.912 114.3786,299.4921 114.1795,300.7144 114.1673,301.2956 114.2917,301.8779 114.4962,302.4109 114.7925,302.9075 115.3371,303.1284 116.1612,302.9894 117.9304,302.4889 118.5879,302.3028 119.8191,301.6821 120.2445,301.2789 120.5146,300.7458 120.7074,300.2111 120.8467,299.6572 121.0623,299.0614 121.7048,297.9385 122.0916,297.4872 122.416,297.0059 122.9593,296.3981 123.3859,295.9997 123.6825,295.8331 125.0549,295.0622 125.561,294.7481 125.9761,294.3536 126.5209,294.0795 127.0373,293.7706 127.5209,293.477 128.211,293.0032 128.8141,292.9503 129.6287,293.0153 130.1887,293.1647 130.5877,293.5752 130.9467,294.0135 131.4656,294.254 132.0355,294.2679 132.4506,293.8507 133.188,292.944 133.8077,292.249 134.3468,291.8962 134.8688,291.6428 135.352,291.3084 136.2967,288.9329 136.6042,287.6949 137.1597,286.2391 137.4333,285.7063 137.9031,285.0169 138.5688,284.5522 139.3458,284.8283 139.6333,285.0398 139.9924,285.3038 140.1095,285.3626 140.7345,285.6761 141.3118,285.6929 142.1197,285.4857 142.5945,285.1492 143.0407,284.7096 143.5737,284.088 143.9825,283.415 144.5589,283.301 145.3672,283.5683 145.9487,283.8104 146.7201,283.5928 146.984,282.8436 147.4907,282.2344 149.732,279.7869 150.1994,279.3962 150.7165,278.7086 151.4616,278.5001 152.721,278.7168 153.5551,278.5252 154.3204,278.0128 154.9669,277.4764 155.3609,277.0322 155.8877,276.6619 156.599,276.2144 157.4335,276.0943 158.2653,276.0791 159.1424,276.1804 159.919,276.3751 160.3887,276.4928 161.7945,276.6143 162.0387,276.6354 166.5899,277.0285 171.7436,277.4395 171.8089,277.4447 172.8986,277.5316 172.5662,278.731 172.396,279.7581 172.9482,280.8902 173.6785,281.2222 174.2315,281.5093 174.4583,282.173 174.3772,282.8506 173.7026,283.7978 173.6971,283.9412 173.1736,284.4518 173.049,285.1723 173.5548,285.9443 173.8915,286.5475 173.8915,286.5896 173.6759,287.239 173.2824,287.769 172.8136,288.317 172.2856,288.7709 171.7734,289.3068 171.218,290.205 171.5804,290.8147 172.701,291.0717 173.9713,291.4209 174.8395,291.876 175.1956,292.3804 175.4529,293.1345 175.5098,293.8488 174.7537,294.4675 174.5047,294.8395 174.3043,295.2388 174.1271,295.8747 174.2133,296.3031 174.4835,296.8618 175.1723,297.8956 177.1453,300.4219 177.3659,301.5302 177.2422,302.8385 176.7321,303.0014 176.6226,303.0366 175.9543,302.9259 175.325,302.9407 173.848,302.903 172.5278,303.1614 171.9473,303.1762 171.3484,303.3827 170.9013,303.9862 170.9069,304.5565 171.2757,305.1 171.3541,305.2157 172.0602,306.064 172.2968,306.7919 172.5972,307.4067 172.7395,308.0043 172.8237,308.5881 173.0511,309.1977 172.5447,310.2746 172.0388,310.5815 171.4121,310.8511 170.2611,311.189 169.5819,311.3575 169.2469,312.0915 169.1241,312.7951 169.0849,313.4371 168.9952,314.0406 168.3011,315.2109 168.1759,315.8306 167.9445,316.3632 167.4646,316.6743 166.7805,316.8967 166.3767,316.889 166.1981,316.8855 165.5787,316.7519 164.9916,316.859 164.7657,317.4232 164.9271,318.1743 165.1164,318.6664 165.4483,319.43 165.6166,319.9822 165.6646,320.6255 165.2778,321.1052 164.5717,321.5266 163.2948,321.8079 162.5902,322.123 162.0461,322.565 161.5235,323.0416 161.0922,323.5906 160.5966,324.8422 160.3047,325.4471 159.9827,326.0013 160.0732,326.7684 160.2414,327.3452 160.3707,327.9358 160.203,328.6398 159.8809,329.1626 159.6223,329.8025 159.7662,330.4471 160.5316,331.6669 161.0916,332.9428 161.3936,333.5291 161.9482,333.9244 162.4224,334.3187 162.7563,334.9316 163.1287,336.3252 163.5367,336.7717 164.2627,337.1016" stroke="black" /><polygon fill="none" points="148.931,69.3454 148.8611,69.2535 148.7184,69.0661 148.6227,69.6953 148.488,70.273 148.2222,70.8597 146.8977,71.5163 146.2087,72.0533 145.5508,72.4629 144.0329,72.2754 143.3973,72.4404 142.8696,72.6511 142.26,72.6833 141.4951,72.4774 141.0327,72.1311 140.7404,71.5923 140.068,71.5465 139.6319,71.1755 139.0822,70.8783 138.2632,70.8256 137.5145,71.1288 136.7014,71.3309 136.589,71.2925 136.0703,71.1157 135.9834,70.3743 136.0226,69.776 135.5703,69.3073 134.8635,69.5024 134.2976,69.7161 133.5932,69.5515 132.9742,69.1846 131.7839,68.645 130.5063,68.8316 129.886,68.747 129.3538,68.2889 128.8834,67.398 129.5963,67.3934 130.5059,67.549 131.2393,67.4848 131.7509,67.1032 132.4515,66.1427 132.9563,65.201 133.0424,64.4105 132.9674,64.3414 132.9224,64.2999 132.4718,63.8846 131.6004,63.7572 130.9427,63.2764 130.4571,62.5743 130.6735,61.738 131.3946,61.631 131.588,61.6022 132.1972,61.2922 132.5426,60.5867 132.4558,59.7965 132.2785,58.9626 132.3589,57.9069 132.3995,57.6154 132.4222,57.4531 132.4448,57.2908 132.9202,56.0144 132.9895,56.0002 133.7926,55.8352 134.5351,56.0063 135.3649,56.267 136.2867,56.3526 136.6746,55.8666 137.0177,54.8543 137.1049,53.8858 137.2293,53.1391 137.4442,52.5225 137.4441,52.2836 137.4443,51.643 137.4707,51.4554 137.5306,51.027 137.6602,50.3675 137.741,49.7077 137.9992,48.8281 138.6572,48.3856 139.615,48.2059 140.5305,47.6305 140.9619,47.232 141.1348,46.3959 141.1576,46.0661 141.1765,45.7908 140.5152,44.5964 140.0308,43.4557 139.986,43.3806 139.6378,42.7973 139.4159,42.2708 139.5454,41.6545 139.6264,40.9513 139.8409,40.1149 140.1921,39.586 140.4927,39.0586 140.9414,38.4159 141.2315,38.0004 141.6211,37.3918 141.7112,37.2509 141.8474,36.3091 141.8768,36.1062 141.7926,35.4922 141.5276,34.6131 141.0004,33.7802 140.2934,32.9036 139.7231,32.3793 138.1067,31.3749 137.6218,30.9811 137.0773,30.4739 137.3696,30.2342 137.5935,29.9326 137.8965,29.4603 138.0153,29.1716 138.0557,28.6726 138.057,28.0027 138.0447,27.5824 138.0456,27.1359 138.0472,26.3478 138.0824,26.0097 138.1176,25.6715 139.0719,23.3811 139.6308,22.2852 140.2463,21.519 141.7658,19.7058 142.8833,18.4072 143.4672,18.9503 144.1292,19.0418 144.6938,19.0397 145.8739,19.4737 146.4028,20.2196 146.538,20.8789 146.7007,21.1337 146.8453,21.3601 147.4097,21.49 147.9751,20.8717 148.2336,20.0795 148.5847,19.463 149.014,18.9337 149.5427,19.3274 150.1148,19.8077 150.5931,20.3344 151.1678,20.8605 151.2692,20.8783 152.1441,21.032 153.1204,21.0448 153.3607,21.3295 153.595,21.8408 153.941,22.3077 154.5294,22.6171 155.0203,22.7286 155.2662,22.6849 155.5199,22.6048 155.8983,22.6044 155.9986,22.7155 156.0989,22.8265 156.2555,23.2493 156.4116,23.5604 156.7233,23.7157 156.8124,23.7601 156.8916,24.1056 156.9813,24.306 157.0481,24.4835 157.0257,24.6611 156.9145,24.8057 157.0479,24.8499 157.1591,24.9943 157.3372,25.1052 157.5407,25.0733 157.7387,25.095 157.8195,25.1509 158.003,25.2779 158.1648,25.6001 158.3119,26.01 158.3569,26.354 158.4819,26.7277 158.5468,27.0988 158.3791,29.4301 157.0527,47.8726 157.0051,49.9935 156.903,54.5432 156.8693,56.046 156.3645,78.6748 169.34,76.0397 181.39,73.593 179.8608,74.0496 179.1274,74.7594 178.8626,75.3009 177.9401,75.91 177.4462,76.3883 176.8655,76.8282 175.8999,77.7621 175.2109,78.1559 174.6442,78.9334 174.4033,79.5494 173.9878,80.1153 173.6822,81.4567 173.7077,82.0295 173.6275,82.7742 173.4821,83.3378 172.5502,84.3666 172.35,85.3026 171.9576,86.0272 171.7752,86.2068 170.643,87.3219 170.121,87.6442 169.2774,88.6118 168.7192,88.9118 168.2462,89.4618 167.6809,89.8519 167.2498,90.3483 166.899,90.8132 166.595,91.5507 166.1825,92.0185 158.0097,81.2793 156.1795,78.8739 148.931,69.3454" stroke="black" /></svg>