<?xml version="1.0" encoding="utf-8" ?>
<svg baseProfile="tiny" height="401.5087" version="1.2" width="500" xmlns="http://www.w3.org/2000/svg" xmlns:ev="http://www.w3.org/2001/xml-events" xmlns:xlink="http://www.w3.org/1999/xlink"><defs /><polygon fill="none" points="46.282,341.2045 46.2421,341.1895 45.5418,340.9262 43.9496,339.708 42.2392,338.5722 41.1447,337.9052 41.1193,337.8897 41.0471,337.8478 39.79,337.1174 38.8713,336.897 38.8541,336.8929 37.9093,336.7627 37.4091,336.7419 37.0774,336.7281 36.1618,336.8978 35.176,337.1806 34.4999,337.4532 34.1911,337.5777 33.4146,337.987 32.5425,338.5205 31.4859,338.795 31.4096,338.8148 30.4311,338.8603 29.7083,338.8842 28.6718,338.9185 26.956,338.8106 26.2466,338.8213 26.0306,338.8246 25.7386,338.829 24.8099,339.0864 23.6875,339.4307 23.528,339.4818 22.9495,339.6671 22.5375,339.7991 22.4008,339.8171 21.5773,339.9259 21.4449,339.9434 20.1589,339.8494 18.8192,339.743 18.4054,339.7285 17.1367,339.639 17.0889,339.6388 16.5696,339.636 15.7769,339.5366 15.7717,339.4977 15.6063,338.2592 15.4992,337.0554 15.3211,335.4708 15.3439,334.8368 15.3885,333.6001 15.3858,331.6972 15.3051,329.9881 15.2765,329.3819 15.2357,329.1029 14.9563,327.1941 14.9342,326.8028 14.8413,325.1585 14.8743,323.6698 14.7665,321.9588 14.7638,320.3734 14.9368,319.1692 15.216,318.0912 15.3554,317.1073 15.3178,316.0311 15.2261,315.4384 15.1757,315.1121 15.1748,314.2054 15.1369,313.7603 15.0669,312.9386 14.9962,311.5487 15.0232,311.0129 15.0647,310.1873 15.1324,308.9831 15.0583,307.4629 14.7427,306.3541 14.1094,305.2133 14.0121,305.0517 13.4046,304.0419 12.9997,303.5203 12.5948,302.9987 12.1009,301.6051 11.6423,300.0892 11.3082,298.8905 11.2199,298.5735 11.0417,297.0894 11.0743,295.5053 11.1457,294.993 11.3168,293.7652 11.3838,291.8968 11.3563,290.5942 11.3457,290.0912 11.3432,288.8555 11.2645,288.2413 11.2011,287.7467 10.8481,286.6065 10.7416,285.9092 10.635,285.212 10.4275,283.9233 10.1448,282.8815 10.2128,281.8383 10.5607,280.2875 10.8398,279.2097 10.977,277.5319 11.0118,277.4051 10.8795,277.0249 10.4829,275.8851 9.7784,274.6501 8.8298,273.7646 7.6367,272.9436 6.6155,272.0563 5.141,271.1085 4.2573,270.1871 3.2767,269.3671 2.6176,268.6659 1.7761,267.6207 1.2002,266.4921 0.8921,265.8882 0.4364,264.4936 0.2309,263.4232 0.1875,263.1972 0.1815,261.8695 0.1432,260.3809 0.0,259.0189 0.0145,258.7442 0.07,257.6883 0.2103,256.6432 0.5706,256.0354 0.662,255.8812 1.7506,255.7853 2.7645,255.6046 4.2332,254.8118 5.496,253.9229 6.2132,253.3837 6.9305,252.8444 7.1669,252.636 8.3704,251.5752 9.4147,250.1163 10.4281,248.4032 11.1266,246.8171 11.3202,246.2899 11.7549,245.1064 11.8604,244.8192 12.2144,243.4699 12.2744,243.241 12.828,241.699 12.9326,241.4079 13.6278,239.7625 14.201,238.5682 14.3276,238.3045 14.5206,237.8923 14.7137,237.4801 15.69,236.3082 16.4566,234.6921 17.1194,233.3922 17.3471,232.7586 18.2122,230.2365 18.7025,228.4742 18.9909,227.4376 19.976,223.8966 22.0382,220.9658 28.9034,213.1653 34.7184,206.4063 38.2202,202.6631 38.765,202.0807 44.7882,197.3306 47.863,194.9057 56.0553,185.4568 62.3828,175.0448 62.9594,173.8993 62.9747,173.8691 63.3077,173.2074 70.0728,165.1938 73.2891,159.2373 76.2266,153.7972 78.3503,145.4765 80.4739,137.1558 83.1092,125.6766 83.809,123.3829 84.0811,122.4912 86.2418,115.4102 86.6349,114.5122 88.2324,114.9576 90.0865,115.657 90.926,116.357 91.4525,117.9389 93.8798,121.3774 94.3273,123.8803 95.0304,124.081 96.6871,123.8306 98.7242,124.2732 98.9858,123.6339 98.9736,122.172 99.7901,121.6666 102.0255,123.2051 102.682,123.1756 103.8654,122.086 105.0812,121.5978 105.5023,122.1011 104.9169,123.4064 105.0598,124.2711 108.2344,127.3215 112.7299,127.9316 117.0291,127.8432 117.7224,128.017 117.7981,128.85 115.8929,131.0575 116.1598,131.8958 117.7351,132.8286 118.4265,132.7292 119.5393,129.979 120.1024,129.4604 121.627,130.1118 122.9564,129.1996 123.6121,129.387 124.3005,132.4197 123.7295,134.606 124.0899,135.578 124.9094,136.0978 125.7766,136.2389 126.4825,135.8188 126.4382,133.0931 126.8636,132.5383 129.06,131.5787 131.1589,131.1693 131.9194,130.7232 130.6407,128.7341 130.5085,128.1047 130.8684,127.4543 132.1199,126.7807 133.0232,126.7884 133.6907,127.1477 134.8709,128.4227 135.0223,128.749 135.1565,128.7889 135.3206,129.3927 135.2847,131.0678 135.0364,131.686 133.8896,132.7718 133.7876,133.4709 134.4187,134.2355 134.945,134.3884 138.2338,133.9303 138.7807,134.6199 138.0432,136.1545 138.6814,136.5243 138.9956,137.336 138.2428,138.8748 138.9392,142.961 136.9752,146.2102 135.9408,149.695 135.8732,154.5043 136.3179,160.2485 134.8741,163.9429 134.2179,167.4408 135.402,168.6454 135.6112,168.8582 136.9258,170.1955 137.7115,172.2627 137.4689,174.737 136.9144,177.7997 133.2398,198.0973 130.6549,212.3752 127.029,209.6488 125.9636,208.6381 125.2402,207.2383 124.5302,207.071 122.5777,208.117 120.4632,207.9542 120.0161,206.6321 119.2928,201.9935 118.4243,200.1505 117.8031,199.6467 115.6342,200.3126 114.516,199.5684 113.6814,197.9756 111.4309,198.1419 111.1588,198.0611 109.9828,197.7125 108.509,197.9172 107.7533,197.4461 107.3276,196.6334 106.0257,195.7359 105.1244,191.8958 104.6009,191.0289 105.3054,189.2593 104.5851,187.1499 103.8989,187.1473 102.6788,188.3124 101.8107,188.2895 100.4977,186.1617 98.0168,183.8393 95.7534,183.175 94.4536,183.8384 90.6005,181.3877 89.3167,182.4559 88.0358,182.766 88.0887,184.277 87.3483,184.7815 85.8053,184.2537 85.5093,184.8817 85.6698,185.7353 86.0022,186.4475 86.7745,187.1153 86.5593,187.9596 85.1328,188.2527 83.7845,189.2465 84.1458,190.6886 84.0151,193.162 83.1923,193.2452 82.0945,191.8823 80.7979,191.0895 79.7153,190.8022 79.4924,191.058 79.3087,191.2342 79.0485,191.8165 78.7016,192.1138 78.3919,192.4359 77.8344,192.8447 77.4876,193.0553 77.3637,193.1792 76.5584,193.6995 76.1124,194.2446 75.8151,194.8888 75.4434,196.0286 75.1213,196.6232 74.8736,196.9949 74.3037,197.2922 73.6099,197.701 72.2472,198.6921 70.9836,199.8071 70.5624,199.9805 70.0668,200.2531 69.819,200.5256 69.6456,200.7239 69.2987,201.0707 69.1253,201.1946 68.8032,201.4672 68.2333,202.3344 67.8121,203.0281 67.5148,203.9944 66.9449,205.3324 66.6228,206.2244 66.5485,207.3084 67.2918,208.2499 67.936,208.6711 69.4226,209.5879 69.5465,210.8887 68.828,211.9541 68.5802,212.8213 68.1838,213.9362 68.605,215.1008 69.1253,215.6211 70.8101,216.4821 73.5108,218.9846 73.9568,220.7809 74.2541,221.9702 74.4028,222.4658 74.8736,222.7879 75.2948,222.5896 75.7903,223.9524 75.8399,227.8919 78.3671,228.2884 79.377,228.2272 79.3628,232.7946 79.3377,240.8955 79.2823,258.7494 79.2626,265.0947 79.2601,265.9112 79.2363,273.4392 79.2362,273.4643 79.2343,274.0749 79.2232,277.7004 79.211,281.6108 79.1872,289.2253 79.1036,315.9938 86.2452,316.0546 90.725,314.9311 91.6284,315.8233 93.1185,315.6149 107.2066,313.6444 107.5786,313.5924 114.7344,312.5909 115.5722,311.2932 116.2192,310.9313 116.6867,310.939 117.2582,310.9487 118.513,312.0107 139.9374,309.1451 145.0769,308.4577 145.7742,308.6553 146.9234,308.4246 147.4482,307.751 149.5505,307.9057 156.7095,306.9898 159.1755,307.0501 160.9142,306.4771 170.8396,305.3003 171.2185,305.0136 173.3426,304.7063 175.9672,304.8225 176.2125,304.552 177.4816,304.7058 180.1535,304.472 180.3765,304.878 181.2503,305.3024 182.0114,305.2138 183.2647,305.8124 183.9324,306.3574 184.8087,307.255 185.2945,310.8997 184.4976,312.5486 185.1586,314.399 186.3663,314.6901 187.7507,315.6069 189.2269,318.4075 191.4032,319.057 190.1122,320.2683 189.9201,320.4486 187.5691,321.7406 185.6009,322.5416 180.9298,323.3997 180.9182,323.4013 178.1579,323.7645 175.7007,324.9375 173.7235,326.2257 172.1626,327.5132 170.8892,329.7441 169.7148,332.5091 168.6084,335.4328 168.0108,337.7799 167.0733,340.1949 165.6471,342.6124 164.2271,344.9061 162.3696,347.0186 159.7634,348.238 158.0084,348.9302 157.8276,349.0015 155.8648,348.6526 153.8378,347.4177 151.8383,345.5784 150.6292,344.1104 148.5559,342.002 147.1178,340.8426 146.6975,340.7565 145.1071,340.4307 143.8692,340.7345 142.1113,341.336 139.5261,342.0788 137.8032,342.9666 136.7516,344.087 135.7024,346.2399 135.3229,348.3023 135.547,350.8452 136.0546,352.868 136.5592,354.6592 136.7799,356.6415 136.6889,358.602 136.4193,359.614 136.081,360.8842 135.0614,363.1855 134.2348,364.2745 133.1861,365.6759 131.8882,367.5884 129.6416,369.0357 128.1878,370.2272 125.7818,371.1331 124.9335,371.4525 122.8573,372.8514 120.9762,374.1908 118.6221,375.6114 116.4314,377.4286 116.4119,377.4524 115.196,378.9318 114.9918,379.5471 114.7536,380.2646 114.5326,381.2845 114.4691,382.5024 114.2289,383.7174 114.3272,384.9054 114.1698,386.0613 114.6198,389.0024 115.0051,391.1289 115.7687,393.6219 116.1822,395.1928 116.2448,396.8449 116.2446,397.1726 116.2442,397.6698 116.0401,399.0059 114.9211,400.2346 113.5828,401.0311 111.3886,401.5087 109.322,401.3861 108.646,400.8977 107.9333,399.7553 107.4268,398.6453 107.156,397.9566 107.0269,397.6822 106.5735,396.7789 106.1952,395.9663 105.7796,394.6549 105.5555,393.5334 105.426,393.0946 105.3393,392.7698 105.2181,392.4521 105.1458,392.1958 105.1392,391.4984 105.0703,390.5762 104.9572,390.1054 104.5822,389.179 104.354,388.3275 104.1915,387.4061 104.3851,386.9729 104.6212,386.6773 104.4178,386.0939 104.3131,385.3822 104.1071,384.5844 103.5976,383.7263 103.3825,382.9346 102.7935,382.1731 102.603,381.913 102.1934,381.2291 101.5791,380.3717 100.4627,378.8784 99.7955,377.9547 99.5983,377.572 98.4962,376.4909 97.7608,375.6978 97.0555,374.7223 95.8081,373.4254 95.1199,372.474 94.1643,370.9878 93.5762,370.4292 91.9563,369.3122 91.4276,368.7313 91.0063,367.9131 89.8317,366.4911 88.6475,365.2579 87.1376,364.3542 86.2799,363.6921 84.8604,362.526 83.3463,361.3205 81.9818,360.7043 81.1429,360.2537 81.0885,360.2245 80.6753,360.0026 79.7079,358.9976 79.0142,358.1005 77.1572,356.4621 75.4169,354.9773 73.663,353.9542 71.9729,353.054 71.0453,352.7432 70.6278,352.6034 69.5903,352.6473 69.0084,352.8308 68.4214,353.2757 68.1545,353.8135 67.8056,354.2751 67.2995,354.5011 67.1682,354.5598 67.0097,354.5733 66.3256,354.6319 64.9602,354.839 64.1426,355.0579 63.8252,355.53 63.4118,356.1748 62.9737,356.9295 62.6717,357.5717 62.2329,358.0393 61.5895,358.5172 61.0643,358.7466 60.1383,358.8671 59.3913,359.2004 58.9206,359.6963 58.558,360.2749 58.4781,360.4024 57.9538,360.8464 57.2106,361.1155 56.456,361.3218 55.4778,361.1569 54.6661,360.707 53.7669,360.0204 51.1793,357.883 49.7277,356.3651 48.9175,354.8645 48.721,354.2454 48.5852,353.3073 48.5844,353.3018 48.5686,353.1921 48.8955,352.302 49.5822,351.4357 50.1587,350.3534 50.5173,349.4665 50.8217,347.9975 50.905,347.4934 51.0554,346.2219 50.9632,344.6654 50.6341,343.6387 50.0113,342.7691 48.7202,342.196 47.7338,341.7504 46.282,341.2045" stroke="black" /><polygon fill="none" points="231.576,84.6103 234.0757,84.5554 234.1072,84.6024 235.1444,86.1448 235.1025,87.5713 235.1814,88.0084 235.6021,88.4678 237.6541,89.6697 239.0538,91.1741 239.2397,91.4432 238.798,92.2445 238.529,93.5245 238.4802,94.6229 238.2977,95.3615 237.9137,95.9985 237.91,96.7721 237.5864,98.7376 237.9861,99.4696 240.0188,100.5412 240.8937,101.1774 242.1438,101.48 243.4399,101.6734 244.157,101.6813 244.9631,101.3618 245.204,101.4443 246.1904,102.7309 247.0938,103.5842 247.6186,104.2688 246.7756,104.8705 246.1063,105.7408 246.0458,106.8323 247.4951,110.8991 247.9245,111.1419 249.4734,110.3218 251.2599,110.559 251.6459,110.8193 251.2058,112.854 251.5025,114.7009 251.7334,115.5068 252.4819,115.8119 252.7057,116.3377 252.1394,118.3669 252.0157,118.3539 251.6329,118.9632 251.0245,118.7757 250.5155,118.3861 249.7248,116.9878 249.0543,116.7538 248.8946,116.84 248.6309,117.4179 248.6415,119.5616 247.0494,121.5457 246.555,121.8854 245.6877,121.8356 244.607,121.3406 244.4518,121.5287 245.0464,123.0111 245.067,125.0795 244.3267,125.7934 243.2593,126.0853 242.4568,125.1207 241.8806,122.9133 238.925,122.9645 236.7115,123.9429 235.8033,123.1397 235.5076,121.2661 234.8212,121.01 234.0461,121.5429 233.673,124.4233 234.1293,125.9553 234.6279,127.6295 234.8063,129.5039 234.2122,130.4415 233.5092,130.2473 233.3755,129.2937 233.0688,128.9123 233.2254,127.654 232.3415,126.911 230.3207,125.2125 229.2713,125.2541 227.8745,125.7155 227.1891,125.3047 225.4765,124.9322 221.4536,124.5831 218.5854,122.0719 216.8116,122.9865 214.4117,120.6936 211.8044,120.6037 210.9516,118.7178 210.2429,117.9718 208.6014,117.717 206.6488,118.0602 206.1724,118.1442 205.7123,116.4479 204.522,115.8231 203.3833,114.4536 200.9866,113.3591 200.9174,113.1253 201.3783,112.8493 202.4652,113.0317 202.3164,111.1465 198.8025,109.6423 198.074,108.7254 196.3527,108.5956 194.6799,107.2548 193.4652,107.3912 192.2201,108.4333 191.5063,108.5087 189.4366,107.6749 189.2553,107.6932 188.8807,107.8947 188.1539,109.2067 186.5879,109.5598 185.9128,110.3336 186.0808,110.6941 187.9576,111.7607 187.9503,112.5812 186.797,113.1897 186.7567,117.6294 186.6493,117.873 185.8154,118.3008 184.8017,118.4278 184.2696,117.3229 183.4032,116.4605 181.6985,116.1816 181.2883,118.1318 179.7432,118.9143 179.154,120.2041 178.4453,119.834 176.8835,118.2786 175.9688,116.1682 175.2936,116.2628 174.1604,116.9864 172.929,116.9197 172.2409,117.1689 171.3702,118.426 169.3335,116.6449 165.6916,114.924 163.6669,113.3711 162.785,111.8699 162.0669,111.7562 161.1771,112.0433 161.9604,113.1538 161.8153,116.7658 160.9942,116.5616 159.9593,115.6576 158.6591,115.0516 158.5135,114.5125 158.9934,113.4295 158.6149,113.323 158.1449,113.412 155.4428,113.5293 154.2949,113.9949 153.1973,113.9347 151.4886,116.6188 151.7046,116.9554 153.2116,116.8513 155.233,117.7061 155.1666,118.153 154.7093,118.2965 153.8333,118.0127 152.4422,119.4001 152.5217,120.2699 155.6566,124.8721 155.5423,125.2394 154.9138,125.5633 153.3201,126.3842 153.1135,126.6126 153.0642,127.0259 154.4624,128.2836 153.8976,128.6498 152.9183,128.7546 151.7944,128.3902 149.9967,128.956 148.3389,128.4067 146.8099,129.513 145.0834,129.5775 144.5743,129.3788 144.3151,128.4131 145.4488,125.7799 145.0876,124.9803 144.3149,124.4705 142.936,124.6585 141.6194,125.1625 141.0958,125.661 141.0311,127.6151 140.1622,128.2269 138.9769,128.5812 138.304,129.352 137.1267,129.3766 135.1565,128.7889 135.0223,128.749 134.8709,128.4227 133.6907,127.1477 133.0232,126.7884 132.1199,126.7807 130.8684,127.4543 130.5085,128.1047 130.6407,128.7341 131.9194,130.7232 131.1589,131.1693 129.06,131.5787 126.8636,132.5383 126.4382,133.0931 126.4825,135.8188 125.7766,136.2389 124.9094,136.0978 124.0899,135.578 123.7295,134.606 124.3005,132.4197 123.6121,129.387 122.9564,129.1996 121.627,130.1118 120.1024,129.4604 119.5393,129.979 118.4265,132.7292 117.7351,132.8286 116.1598,131.8958 115.8929,131.0575 117.7981,128.85 117.7224,128.017 117.0291,127.8432 112.7299,127.9316 108.2344,127.3215 105.0598,124.2711 104.9169,123.4064 105.5023,122.1011 105.0812,121.5978 103.8654,122.086 102.682,123.1756 102.0255,123.2051 99.7901,121.6666 98.9736,122.172 98.9858,123.6339 98.7242,124.2732 96.6871,123.8306 95.0304,124.081 94.3273,123.8803 93.8798,121.3774 91.4525,117.9389 90.926,116.357 90.0865,115.657 88.2324,114.9576 86.6349,114.5122 90.6298,105.3847 93.677,99.7587 98.903,93.6723 101.8765,89.2683 104.5515,88.6942 108.1411,89.9085 109.7325,90.4087 110.2403,90.548 111.9645,90.0583 113.3044,88.6745 114.2742,87.3027 115.6496,82.9341 115.4385,80.0992 113.4284,76.3043 113.3223,76.1039 112.2764,74.5512 111.3896,72.3217 109.7373,68.1676 107.9113,64.6605 105.8533,61.3609 105.6318,61.0058 103.0353,56.8425 100.1941,53.7612 94.9707,49.8388 93.4991,46.4664 93.6389,43.1731 93.6708,42.4201 95.5864,37.6585 96.1446,33.4316 96.0988,29.3621 94.2494,25.3598 93.382,24.4716 92.8381,23.9146 92.5897,23.1507 92.8569,22.0163 93.6959,19.8195 94.8805,16.7174 96.0296,13.5502 96.3118,12.7675 97.742,12.9751 98.5444,11.1737 99.0211,10.7163 101.1006,10.537 101.5306,9.8655 101.1052,7.6715 101.8631,7.1339 104.1288,8.9183 104.7318,9.117 110.6429,8.1005 111.4472,7.6803 111.6488,6.7952 111.5816,5.91 111.1341,5.1127 111.6287,4.3517 112.7738,4.0659 113.4356,4.0406 114.4498,4.2201 115.1398,4.826 115.5058,5.6806 115.2224,8.0497 115.3889,8.9993 116.4877,9.7984 118.3416,12.0642 119.3313,12.0563 124.2023,10.7259 125.8466,11.1151 127.0101,9.8811 129.2692,9.5757 129.4635,9.9881 129.9615,10.0908 130.1231,10.2774 130.084,10.408 129.6821,10.9879 129.6317,11.1793 129.7228,11.6448 129.8534,11.9839 129.8565,12.4913 129.435,13.8751 128.9831,14.5365 128.2253,15.4276 128.2014,15.929 128.0117,16.4402 127.8881,16.6265 127.4608,16.9257 125.5445,17.462 125.0112,17.9007 124.5922,18.5051 124.2468,19.1758 123.8928,20.2979 123.6272,20.5634 123.3997,20.6417 123.0603,20.9097 122.5098,21.5729 122.3012,21.9607 121.7224,22.7007 121.0743,23.3049 120.7861,23.66 120.1357,24.2754 119.8567,24.4827 119.4103,24.6991 119.2221,24.9045 119.2696,25.0652 119.3928,25.1755 120.1723,25.5549 120.3953,25.6003 120.532,25.5292 120.7194,25.5527 121.2143,26.0918 121.7772,26.2529 122.0375,26.6991 122.2573,26.8305 122.3613,26.7385 122.2847,26.3626 122.2957,26.0596 122.3518,25.9126 122.5773,25.7334 122.8626,25.7262 123.0516,25.795 123.3403,26.1511 123.5054,26.1729 123.6445,26.0901 123.7662,25.7916 123.8997,25.7936 124.0258,25.9305 124.2108,26.2954 124.3419,26.3267 124.5647,26.2601 124.7284,25.8332 124.9135,25.8321 124.9568,26.0201 124.7676,26.5328 124.6725,27.145 124.6008,28.4327 124.4452,28.9028 124.0355,29.6843 124.0066,29.9387 124.1928,30.1238 124.4441,30.1219 124.9928,29.8134 125.2804,29.8083 125.6064,29.9106 125.8542,29.8995 126.2643,29.7059 126.72,29.6912 127.1075,29.6015 127.1775,29.5308 127.0067,29.2662 127.2891,28.7228 127.2979,28.3499 127.223,28.1491 127.3291,27.9568 127.7225,27.6532 127.8564,27.3655 128.0584,27.2343 128.2846,27.1986 128.4354,27.1174 128.612,26.8495 128.7852,26.7299 128.9249,26.8173 128.9877,27.1125 129.1104,27.2067 129.3464,27.059 129.5951,26.5876 129.8685,26.4592 130.4051,26.4276 131.2162,26.649 131.4523,26.647 131.8388,26.4944 132.0631,26.5083 132.5887,26.9909 132.9193,27.1065 133.6221,27.1233 134.2848,27.2392 134.5927,27.1173 134.8839,26.8876 135.2248,26.9173 135.7008,26.5926 136.0341,26.6026 136.3277,26.7367 136.6832,27.1159 136.6558,27.4605 136.5817,27.527 136.1557,27.6048 136.0604,27.7214 136.0373,27.9972 136.1779,28.339 136.2854,28.4396 136.5514,28.4093 136.8706,28.2501 137.4715,28.4576 137.5925,28.5444 137.8827,28.9991 138.3607,29.3808 139.0839,30.3899 139.3859,31.4198 139.3193,31.9196 139.353,32.1741 139.5047,32.3757 139.6442,32.3419 139.8359,32.1274 140.0332,32.1498 140.112,32.2503 140.076,32.5319 139.8697,32.7341 139.796,32.8822 139.9,33.1551 141.0724,33.8629 141.2728,34.032 142.2156,34.5135 142.3744,34.6894 142.515,35.0574 142.6647,35.1634 142.8955,35.1592 143.2569,34.9803 143.4565,34.4596 143.6086,34.3287 143.7687,34.2752 144.5958,34.2731 144.993,34.4704 145.1752,34.4607 145.3543,34.3107 145.5148,33.9505 145.8335,33.7523 145.9506,33.361 146.1811,33.2741 146.3508,33.3348 146.6144,33.528 146.7339,33.5326 146.7891,33.4868 146.8381,33.1599 146.942,33.1074 147.2517,33.153 147.4646,33.2639 147.6881,33.5542 147.744,33.8595 148.0716,34.0188 148.2897,34.1249 148.3089,34.3677 148.4958,34.5811 149.2196,34.6384 149.6605,34.9057 150.4104,34.892 150.5741,34.9917 150.7445,35.4226 151.1289,35.9912 151.1767,36.2715 151.1149,36.3433 150.7721,36.3745 150.4317,36.2077 150.2554,36.1918 150.1668,36.2444 150.1693,36.3976 150.4466,36.8976 150.4929,37.1074 150.4288,37.39 150.2096,37.6173 150.2297,37.9235 150.6059,38.1149 150.7274,38.2337 150.7612,38.4893 150.69,38.7783 150.6078,38.8496 150.1746,38.9403 150.1074,39.082 150.1487,39.3697 150.1148,39.7468 150.5162,40.4814 150.6664,40.6135 150.9427,41.081 151.4039,41.6418 151.653,41.8099 152.4452,42.157 152.7335,42.1455 153.7044,42.3015 153.8973,42.4444 153.9803,42.7114 153.9724,42.9989 153.9028,43.3578 153.7419,43.7063 153.8967,44.0657 153.8947,44.9348 153.941,45.1387 154.6787,45.5215 154.8018,45.6989 154.7757,45.8007 154.4205,46.2416 154.5397,46.5716 154.736,46.5619 155.3328,46.2251 155.5713,46.2273 155.9177,46.3685 156.0624,46.5891 156.1689,46.6385 156.449,46.6082 156.5597,46.2163 156.6982,46.1372 156.9437,46.1202 157.5219,45.9498 157.9994,45.9605 158.6707,46.2043 159.4103,46.3378 160.1983,46.7644 160.3371,47.0112 160.3774,47.2535 160.1738,47.5699 160.1237,47.8771 160.2041,48.0229 160.4824,48.222 160.4696,48.6184 160.557,48.7765 162.2088,49.5711 162.3099,49.6844 162.4668,50.1415 162.4475,50.5506 162.6265,50.6604 163.2842,50.9698 163.8331,51.0303 165.2939,50.7807 165.8286,50.8604 166.4941,51.1233 166.8429,51.6982 167.0764,51.7963 167.3605,51.6188 168.0749,51.5804 169.2848,51.3857 169.466,51.3317 170.1937,50.9226 170.5095,50.9297 170.7948,51.1416 170.9341,51.4332 170.605,51.7776 170.5275,52.0725 170.5516,52.2321 170.7813,52.4641 170.7875,52.7581 170.6798,52.9579 170.4666,53.1468 170.4134,53.3014 170.4457,53.4925 170.6509,53.8782 171.2961,54.5118 171.4191,54.9885 171.3737,55.5198 171.896,56.3084 171.9887,56.6901 172.735,57.4498 172.7126,57.7059 172.4692,57.8056 172.3398,57.9937 172.6786,58.3962 172.9194,58.8326 172.996,59.1315 172.9431,59.6308 172.9775,59.8917 173.26,60.3149 173.8488,60.5915 174.5206,60.5284 174.7893,60.6191 175.0818,60.8246 175.3065,61.1591 175.527,61.3084 175.5875,61.4985 175.3943,61.6624 174.9972,61.7912 174.9792,61.932 175.1436,62.0503 175.7878,62.0004 176.2961,62.1381 176.5255,62.0309 176.6937,62.0286 177.1186,62.2253 177.1785,62.4031 177.0632,62.565 176.8895,62.651 176.9057,62.7338 177.0711,62.9353 177.3836,63.1024 177.5167,63.0739 177.6109,62.9066 177.7374,62.9298 178.0645,63.1279 178.4647,63.1399 178.6465,63.0918 178.7709,63.0067 178.8836,62.7172 179.0269,62.5358 179.264,62.4614 180.3809,62.4921 181.4133,62.5754 181.7448,62.646 181.9378,62.7963 182.1058,63.1061 182.3204,63.3066 183.3704,63.8247 183.5645,64.006 183.8238,64.3458 183.9664,64.7649 184.1685,65.0166 184.5455,64.9331 184.8077,65.0692 185.0955,65.0703 185.4783,65.2487 185.5547,65.1897 185.5937,65.0542 185.5035,64.7878 185.536,64.6721 186.2533,64.4357 186.6137,64.2187 186.8821,63.9771 186.8774,63.7605 186.6979,63.591 186.7651,63.4428 187.1783,63.4228 187.5624,63.3196 187.6144,63.1468 187.4712,62.995 187.5096,62.8415 187.8981,62.6363 188.7063,62.3856 188.9627,62.2277 189.5816,61.9734 189.6992,61.5884 189.7194,61.2363 190.2257,60.9717 193.8917,59.5316 194.5165,59.52 195.3163,59.2692 195.43,59.2796 195.5602,59.4761 195.8274,59.4959 195.9063,59.5648 195.9165,59.7116 196.0479,59.9391 196.4676,59.893 196.5681,59.9871 196.928,60.7085 197.3934,61.1603 197.6141,61.2775 198.1424,61.3954 198.2289,61.4958 198.2423,61.777 198.116,61.9235 197.9475,62.0256 197.5875,62.1311 197.4085,62.2449 197.3032,62.3898 197.2455,62.5231 197.254,62.9088 197.7887,63.5656 198.0825,63.7256 198.6761,64.2395 200.027,65.7604 200.4885,66.4015 201.3689,67.3763 201.582,67.7021 202.034,68.1522 202.2668,68.6472 202.3232,69.6135 203.1353,71.0166 203.2884,71.4741 203.2012,72.4732 203.3455,72.9157 203.698,73.5923 204.1258,73.8833 205.4662,73.8896 206.9346,74.0976 207.3134,74.0066 207.8784,74.0156 208.5713,73.7016 208.8411,73.6071 209.0903,73.5878 209.6717,73.8588 210.3038,74.5705 210.5561,74.6948 211.2956,74.503 212.4797,74.4378 213.4669,74.637 214.9748,75.2862 215.3736,75.1882 215.7838,75.493 216.0563,75.8002 217.512,76.8271 218.1256,77.4171 218.3142,77.7807 218.385,80.1374 218.5362,80.1648 218.997,80.4164 219.4954,80.9166 220.1788,81.2357 220.5702,81.2929 222.7215,81.3066 224.1474,81.4386 226.9668,82.1132 230.2414,83.2376 231.4894,83.2449 231.5185,84.6118 231.576,84.6103" stroke="black" /><polygon fill="none" points="386.0116,213.6753 385.6773,213.6325 385.3002,213.1535 384.2713,213.0796 384.5196,212.5535 384.3467,211.7015 383.6052,212.4966 382.78,211.9318 382.6357,212.6317 381.7772,212.9877 380.8114,214.2032 380.1795,214.1526 379.5011,213.2143 377.0209,211.5459 376.3862,211.9525 376.2217,211.419 375.5739,211.4063 375.7876,210.9885 374.9219,209.3219 375.3763,208.4608 374.6481,208.7159 374.6017,208.3275 373.7878,207.9072 374.3838,207.7759 373.8318,207.0275 373.2052,206.724 372.2264,207.3274 371.9345,207.2314 371.7877,206.7683 372.2786,206.3084 371.5017,206.2935 371.9567,205.8304 371.5422,205.679 370.6842,204.1655 371.0506,203.8822 371.111,203.6821 370.7012,202.9992 370.4628,202.9107 370.1868,203.2169 370.0206,203.1961 369.3342,202.4743 369.3436,202.0529 369.5526,201.8555 369.4833,201.6682 369.1175,201.4762 369.3394,200.7735 369.5485,200.5575 370.2395,200.4806 370.4644,200.2592 370.4532,200.0335 369.9876,199.626 369.8555,198.8295 369.6922,198.5147 369.6816,197.8958 369.5248,197.6115 368.8408,197.1746 368.9236,196.9169 368.7939,196.7585 368.0406,196.4837 367.7781,196.52 367.5991,196.4298 366.8722,195.2519 366.5065,195.0945 365.9522,194.433 365.7926,193.6503 365.3616,192.969 365.1626,191.8754 365.5718,190.97 365.2601,190.9135 365.7345,190.6227 365.7973,190.3384 365.5143,190.0935 365.5096,189.8731 365.3682,189.7504 365.3288,189.5626 365.5296,189.2767 365.5249,189.0878 365.2144,189.0942 365.1422,188.9705 365.5783,188.4588 365.556,188.2556 365.205,188.0427 365.2355,187.8538 365.0899,187.5428 364.6397,187.4884 364.527,187.1149 364.389,187.1181 364.1871,187.3097 363.7627,186.9741 363.4744,187.7124 363.2343,187.8538 362.8545,187.7743 362.7488,187.6628 362.9895,187.5556 362.9425,187.4243 362.1254,186.838 361.954,186.3594 361.6629,186.3332 361.4862,186.0873 360.9454,150.2669 360.7645,138.2625 360.7601,137.9707 360.5638,124.9323 360.559,124.6168 360.4343,116.3572 360.2057,101.1964 360.0822,92.982 353.9468,93.0859 354.0084,86.3791 355.2336,86.3953 355.1508,83.0368 354.0482,83.0596 354.0196,75.4784 355.5347,76.1167 356.8851,76.3414 357.7279,77.0148 359.0279,77.287 359.5882,77.6211 359.9698,77.6766 360.4821,77.5086 361.1761,77.6831 361.9164,77.6249 363.8565,78.3325 364.5687,78.9498 365.1947,79.1562 366.1155,79.6471 366.3242,80.0835 366.8049,80.2857 367.3606,80.8128 368.3453,80.983 368.802,81.4477 374.6927,78.0904 373.7208,77.437 372.8966,76.6709 371.9816,75.6898 371.0097,74.9777 370.6656,74.4682 370.5501,73.8744 369.961,72.952 369.8643,72.7999 369.8656,72.7466 369.8708,72.5332 370.0032,72.3886 369.8971,72.1069 370.0307,71.9015 369.9733,71.6347 369.022,70.7603 368.3949,69.9211 367.16,66.7521 366.1461,64.928 377.7921,65.576 377.3704,63.5551 377.3896,62.7522 377.9219,60.2222 377.9973,58.5053 378.122,58.1596 378.6581,57.5273 378.7558,56.9105 378.1543,54.7872 377.9817,52.9802 377.9038,52.7503 377.422,52.1827 377.7524,51.5264 377.5783,50.8483 377.7013,50.58 378.7699,50.1327 378.941,49.9705 378.9785,49.7603 378.8519,49.4861 378.0157,49.1971 377.759,48.8604 377.7086,48.5505 378.1615,48.3327 378.602,47.8744 378.7291,47.4246 378.4482,46.0466 378.8915,45.1433 379.3215,44.5868 379.6547,43.7406 379.5205,43.302 378.9708,42.5642 378.69,41.541 377.9228,39.7293 377.8858,39.1718 378.1353,38.8036 378.0602,38.085 377.6383,37.3738 376.7566,36.9349 376.1466,35.814 375.559,35.4988 376.0171,35.2773 376.4007,34.8985 376.4663,34.3158 376.3307,32.2992 376.4941,32.0873 376.8701,32.0345 378.1208,32.4467 379.1519,33.0303 379.6903,33.2217 381.4302,33.6205 381.9885,33.8343 382.527,34.4963 383.0638,35.583 383.3392,35.846 383.7651,36.0198 384.1787,36.0128 384.7809,35.7982 386.1351,35.1182 386.6013,34.7863 386.9123,34.7531 387.3225,35.0577 387.8308,36.6362 387.786,37.5032 388.4858,38.6784 389.578,39.4384 391.157,39.9602 391.6844,40.2594 391.9253,40.5885 391.9998,40.852 391.8803,41.0319 391.2506,41.0806 390.7293,41.4169 389.9812,41.5681 389.8981,41.9063 390.7866,42.8435 391.9067,44.4357 391.9134,45.197 392.1158,45.7289 392.9597,46.4553 393.6471,46.7389 393.8822,47.3182 394.6414,48.488 394.7096,49.0631 394.5867,49.3619 393.7527,50.3108 393.717,50.4682 393.7669,50.7712 395.3591,52.6721 395.9341,54.5931 396.3373,54.7819 396.8156,55.1247 396.912,55.941 396.7476,56.6021 397.3221,57.1333 397.7128,58.0614 397.9529,59.1519 398.4942,60.0528 398.4704,60.6941 399.0034,61.2786 398.7921,61.8303 397.6856,63.0322 397.1733,64.0397 397.3403,65.3878 397.9486,66.8286 397.6318,67.3905 396.7467,68.3543 396.3338,69.1499 396.3945,69.9006 396.6842,70.3604 397.4505,71.0915 397.5743,71.4404 397.638,72.2268 397.4729,72.778 397.3411,72.9077 396.9742,72.982 396.2257,72.7944 395.9749,72.8655 395.8473,73.3755 396.8166,74.3905 396.8865,74.9346 396.7472,75.2191 396.7567,75.5055 396.931,76.1654 397.6224,76.9164 397.9833,77.8611 397.3829,78.7395 397.3935,78.9801 397.1281,79.3456 397.1431,80.1139 397.5175,81.0725 397.658,82.1315 397.4051,82.6939 397.2846,83.4739 397.1833,83.5924 396.8843,83.6474 396.802,84.325 396.4582,85.1985 396.3598,85.4493 396.9927,86.3566 397.3707,87.3498 397.8792,88.0486 398.4135,88.5573 399.4068,90.3645 399.3164,91.3291 399.408,91.6935 400.6622,94.495 400.7028,94.7804 400.8453,94.8711 401.1612,94.7237 401.3026,94.8591 401.168,95.4679 401.3906,96.1955 401.7823,96.4323 402.456,96.3808 402.7896,96.4964 404.6417,97.4741 405.204,97.5629 405.5829,97.7884 405.9663,97.8187 406.7425,97.5494 407.6079,97.588 408.3886,97.1005 409.4133,96.9341 410.2718,96.207 410.5757,95.5565 411.0925,95.0638 412.6154,96.1938 412.8047,96.3343 412.4974,97.1587 412.6811,97.4478 412.6542,97.6004 413.036,97.74 413.3405,98.0738 414.141,98.2537 414.3047,98.5204 414.8256,98.7922 417.3112,100.8874 418.0521,102.0842 418.3589,102.3769 418.9203,103.5119 419.1343,103.5608 419.5356,103.8748 421.2043,104.4335 422.7634,105.1314 423.254,105.7537 423.4905,105.912 423.708,105.8713 424.3791,107.0008 425.1202,107.6405 425.3711,108.2363 425.3844,108.6956 425.1745,109.4133 425.451,109.8784 425.4918,110.2299 425.3044,111.3125 425.5082,113.1077 425.3554,113.4769 425.3496,114.2095 425.1529,115.4078 425.2785,116.1781 424.6643,116.735 424.1666,116.9327 424.2011,117.5473 424.5,118.0785 424.5814,118.6701 424.0405,119.2066 423.4102,119.413 423.0448,120.1174 423.212,120.9144 423.4786,121.357 423.4672,121.8276 423.5501,122.0383 424.1648,123.5978 424.4208,123.9418 424.9678,124.3698 426.5249,124.9572 427.3308,125.5862 428.0509,126.784 428.0927,127.0256 427.9903,127.3079 427.53,127.4736 427.2431,127.381 427.0324,127.1363 426.7438,127.1525 426.4819,127.5741 426.5337,128.4293 426.9433,129.3776 427.0214,130.1239 426.4821,130.5505 424.2265,131.0007 423.9063,131.1669 423.805,131.4065 423.8222,131.6689 424.2662,132.2256 426.8659,133.6435 426.811,133.9493 427.0699,134.1518 427.0642,134.3914 426.7794,134.749 426.3397,135.6926 425.5308,136.4795 425.5887,137.0386 425.7846,137.6931 426.4559,138.5889 428.1728,139.0604 428.5487,139.5499 428.5408,139.8998 427.7827,140.4312 427.3463,140.5553 426.8692,140.4142 426.4109,140.9406 425.4856,141.4486 425.3121,141.6418 424.742,141.8567 424.3566,141.8708 423.927,141.7303 423.2247,140.9294 422.8914,140.7696 422.5658,140.8236 422.4064,140.9353 422.2787,141.2608 422.5673,142.0022 423.5892,143.355 424.1894,143.3221 424.569,144.0639 425.4454,144.6502 426.5731,144.7817 426.8555,145.0499 427.2257,145.6925 426.9357,146.2006 426.5938,146.4345 425.5756,146.7649 425.3667,147.4607 424.8049,147.801 424.4899,147.9041 423.2021,147.9327 422.7496,147.7489 422.6859,147.3766 422.3783,147.1501 422.1308,147.3039 421.5097,148.2939 421.5727,148.6673 422.5736,150.0335 423.4533,151.0135 424.1676,151.3369 424.5571,151.9214 445.6478,161.7687 445.8987,161.8859 446.0491,161.9561 446.1929,162.0232 460.455,164.5613 460.7992,164.7322 461.7657,165.5815 462.5754,165.9482 467.1782,167.2298 468.3826,167.7017 469.6172,168.4258 471.1717,169.9225 471.426,170.0487 473.3604,170.4128 474.1367,170.2742 475.4925,170.3755 476.7963,170.161 477.4795,169.8224 478.2797,168.8163 478.5988,168.7396 479.4569,168.0556 479.9902,167.9135 480.2872,167.5461 481.198,167.5417 481.7711,167.3665 482.5674,167.2939 483.7168,167.5351 483.9826,167.4745 484.2451,167.5889 484.4327,167.7887 484.4003,168.1179 484.5612,168.5146 485.1658,168.908 485.0612,169.2133 485.1307,169.3685 484.9949,169.5842 484.6351,169.5367 484.0403,169.7621 483.6945,170.0416 483.5179,170.4313 483.7397,170.7318 484.292,170.7861 484.695,171.0341 484.8794,171.4095 485.2589,171.6357 485.3743,171.8564 484.514,172.6295 484.203,173.0493 484.8341,173.8935 485.0638,175.4088 486.2334,176.4049 486.724,177.0263 487.2726,177.2341 487.7468,177.5498 488.3713,177.5618 488.4638,177.7836 488.3001,178.1364 487.5127,178.997 487.1087,179.6073 486.7674,180.8914 486.335,181.3316 485.7279,181.6045 484.7952,181.2798 484.7373,180.7101 484.4272,180.551 483.4593,181.3318 483.2416,181.3721 482.7512,180.8243 482.1991,180.6522 481.774,181.3009 481.2599,181.7274 479.8189,182.1704 479.3265,182.5979 479.0228,183.2065 478.9637,183.6878 479.2579,184.525 479.5139,184.8789 479.9346,185.1397 482.3508,185.5575 483.5274,185.2956 485.2705,184.7485 485.591,184.3826 485.363,183.8526 485.4439,183.4604 485.6146,183.354 486.2767,183.3574 488.0094,184.3062 488.3711,184.3804 489.6971,184.3177 491.7809,185.3097 492.2841,185.3623 492.3415,184.9701 491.7226,184.159 491.4704,183.6291 491.4386,182.8839 491.6623,182.5821 492.2005,182.2202 493.8516,182.1527 494.1185,182.0488 494.8318,181.4049 494.9875,180.861 495.186,180.5801 495.4038,180.5627 495.6615,180.9176 496.5577,181.1633 496.9806,181.6321 497.2656,182.7958 496.9735,184.5552 497.4899,185.0884 497.7805,186.0792 497.5815,186.4044 497.2899,186.4865 497.1921,186.9092 497.3721,187.1442 498.0743,187.4974 499.4862,187.8521 499.8396,188.1653 500.0,188.5625 499.8954,188.8017 498.7257,188.987 498.5715,189.4225 498.6729,190.2562 498.3058,190.5123 497.9442,190.5049 496.7287,190.0223 495.6605,189.859 495.3274,189.7006 494.7934,188.836 494.1839,188.1028 493.5053,187.7944 493.0961,187.764 492.6825,187.954 492.0525,189.2108 491.0378,190.3982 491.0153,190.9787 491.1655,191.6352 491.8457,192.4819 493.1759,193.7428 493.5162,194.6461 493.4857,194.9523 493.2843,195.3202 492.3248,196.2221 491.984,196.3891 491.1034,196.4496 490.6423,196.6156 490.1007,197.1536 489.744,198.0002 489.5337,199.2964 489.7159,199.7389 490.2697,200.1617 490.9507,200.4643 494.6797,201.1583 494.9954,201.033 495.2202,200.6432 495.3898,200.6462 495.7483,201.7676 495.5041,202.4546 495.2546,202.8225 494.6681,203.2272 494.3065,203.2422 493.3736,203.0056 492.3369,203.1384 490.7909,202.7714 490.4505,202.8962 489.9456,203.9143 489.4791,205.8152 489.4447,206.3024 489.6466,207.9917 489.4486,208.2283 488.9274,208.3827 488.0875,208.2569 487.7082,207.9656 487.2071,206.752 486.9519,203.7398 487.3113,202.7592 486.6137,201.6735 486.5128,201.354 486.1298,201.2591 485.3461,201.7035 484.1676,201.6603 482.0601,203.0059 480.7236,204.407 480.5047,204.4692 479.8603,204.2806 478.5258,205.1856 478.3765,205.4461 478.3699,205.7075 479.4554,206.6915 479.7097,207.1334 479.9643,208.0907 480.222,208.403 480.8879,208.7441 482.1152,208.7681 482.7368,208.9551 483.7374,208.9404 484.6412,209.3745 485.5326,210.4189 486.2899,211.025 487.0392,212.4297 487.9143,213.1471 487.981,213.3887 487.7047,213.9087 486.7788,214.3725 485.8041,214.4528 485.3744,214.2032 484.4551,213.3098 483.6589,212.333 483.1952,212.093 480.0205,212.054 479.6739,212.3121 479.1512,213.4433 478.9439,214.1904 479.0539,214.6523 479.3805,215.1181 479.8992,215.588 481.0968,216.3877 481.5537,216.3962 481.6949,216.5529 481.7594,216.882 481.6029,217.4269 481.6159,217.8419 481.9826,218.7025 482.6067,219.3392 483.5615,219.5758 484.3826,219.5907 485.6385,219.4188 487.7168,218.6157 488.1245,218.6893 488.6449,219.0935 488.8764,219.4479 489.0431,220.0964 488.8816,220.8153 488.1144,221.7206 486.8206,222.5056 485.2972,223.2316 483.7455,224.7345 483.595,224.9945 482.9708,225.4322 482.5384,225.38 482.1586,225.174 481.4401,223.957 480.5918,223.1088 478.4255,222.5531 477.6718,222.824 477.2777,223.1883 476.1957,224.6675 475.6549,225.1387 475.525,228.1899 475.4155,228.7572 475.6517,229.985 475.4748,230.333 474.4564,231.1575 474.2795,231.4826 474.4638,231.8355 475.4397,232.3577 476.3248,232.6372 477.0938,232.697 477.9086,232.3727 478.6679,231.8174 480.0235,231.4059 480.5569,231.394 480.9378,231.5765 481.3069,232.8196 481.9938,233.294 482.2893,234.0437 482.3068,234.3499 482.4711,234.5935 482.8268,234.7739 483.7018,234.9786 483.7647,235.3733 483.6322,235.8958 483.6996,236.1385 483.4504,236.4626 482.6906,237.0169 482.3507,237.1416 481.9283,237.1438 480.4764,236.5701 479.8369,235.9665 479.5719,235.9167 478.2552,236.1221 478.0066,236.4239 478.1881,237.9596 477.893,238.1947 476.0578,238.9594 475.4687,239.4077 475.4407,239.5811 475.4855,239.6915 475.8211,239.7861 476.8585,239.6962 477.9906,239.7406 479.0999,240.2097 480.2654,240.9572 480.7297,241.4186 480.9127,242.0175 482.0434,242.597 482.7518,243.2245 482.795,243.4442 482.6154,243.8782 482.7664,244.6686 482.7248,245.4342 482.4702,246.0422 482.3565,247.2982 482.72,248.2468 482.7308,248.7504 482.5803,249.076 482.2611,249.3325 480.1365,250.0689 478.8112,250.1752 478.0061,250.4883 476.6329,250.824 474.5138,250.935 474.3659,251.0856 474.3593,251.3705 474.8593,252.1349 475.3602,252.3418 475.9407,252.3309 477.6564,251.926 478.1642,251.9797 479.4734,253.1971 480.2787,253.7599 481.2828,254.1075 483.2882,254.3982 483.574,254.5584 483.8017,255.1087 483.6254,255.4322 483.6117,256.0687 484.1451,257.423 484.3828,257.5812 485.8185,258.0471 485.6909,258.3295 483.9072,258.875 482.8427,259.0519 482.4605,258.9132 481.573,257.6932 481.3215,257.6765 479.7651,259.2977 479.0056,259.845 477.5881,260.1775 477.4356,260.7048 477.9696,261.3897 478.6304,262.6548 478.0856,263.7721 477.0088,264.7754 477.3695,265.8323 478.4274,267.0121 478.6173,267.0812 478.8846,266.9987 479.4902,266.4329 480.1379,266.4641 480.4237,266.6008 480.5852,266.9111 480.6377,267.7657 480.3819,269.4838 480.4478,270.2674 481.3333,270.5037 481.6816,270.7385 481.872,271.125 481.9684,272.2009 481.3454,272.5928 480.8469,273.2624 479.5834,273.6994 478.2794,273.8468 476.4539,273.0803 475.347,272.9932 475.0058,273.1622 474.6541,273.8129 474.8679,274.4609 475.7659,275.1794 476.4164,275.4944 477.0725,275.9924 477.1022,277.317 477.7172,278.9044 477.9969,279.2604 479.1213,279.61 479.6276,280.1113 479.8105,280.5085 479.8521,280.8174 479.7491,281.1211 479.4746,281.4874 477.5746,282.8844 477.3993,283.1444 477.3149,283.6876 477.4743,284.1094 478.2268,284.9337 478.849,285.0983 479.3097,284.9974 480.222,284.5881 481.7114,283.7848 481.9524,283.768 482.7871,284.1334 483.0281,284.1384 483.264,283.8473 483.3708,283.4119 483.6683,283.0668 484.2051,282.7711 484.6411,282.6931 487.8457,283.2462 487.9086,283.6217 487.8315,283.8795 487.245,285.0513 487.298,286.1529 487.8029,286.7859 488.3735,287.0161 489.409,287.8768 490.073,290.085 490.8804,290.5725 491.8766,290.7071 493.1149,290.5207 493.4289,290.5779 493.6629,290.8859 493.1118,291.4474 492.1748,293.5011 491.1842,294.1992 490.9919,294.4823 489.7741,296.7262 489.3751,298.2136 489.8733,300.7027 489.7755,301.2987 489.3393,301.6941 488.4519,301.594 486.9439,301.0087 485.8055,300.9303 485.3001,301.0702 485.0729,301.2839 485.057,301.9567 484.8177,302.6943 484.8459,303.0666 485.7723,304.3046 485.8598,304.559 485.8173,304.8114 485.5137,305.0753 485.1012,305.2525 484.5632,305.2586 484.0091,305.1302 483.533,304.8689 482.219,303.5386 481.6969,302.8207 481.0394,302.3702 479.715,301.8225 478.4328,301.5702 477.8318,301.9284 477.411,302.4107 477.3275,302.8125 477.9149,304.6763 478.4574,305.6726 479.9478,307.7401 480.4527,308.6837 479.3874,308.5037 477.7637,308.3906 473.6296,308.6038 472.586,309.1482 466.9672,314.9277 462.1352,318.1858 457.5704,321.0534 449.9898,324.9747 447.9505,326.4005 444.2184,329.5445 439.2105,334.8197 434.8857,337.9179 432.0205,339.4678 428.1069,341.1367 424.6695,341.2202 422.8542,340.7071 421.1067,339.6674 415.8841,334.0295 417.7695,333.3007 419.102,333.4952 420.4926,334.3319 422.8178,334.125 423.8897,334.3148 429.2659,333.8651 429.8268,332.8521 429.882,332.1761 430.8847,330.5846 430.8127,328.9698 430.5132,328.229 427.9201,326.528 426.8064,326.1415 426.0541,326.1708 424.6715,327.825 422.5876,327.8706 422.2942,325.8436 420.9328,326.0696 419.0749,323.8595 419.0806,323.6237 420.1689,323.1727 421.8427,323.0372 421.6397,322.1918 421.813,321.9426 423.0463,321.8617 423.898,321.2802 422.9987,320.4496 419.7705,319.7294 419.4798,319.4532 420.1948,316.9267 419.0512,314.8799 418.1574,314.2397 418.8677,314.0174 422.6633,317.266 423.4777,317.1023 423.5192,316.796 422.9554,316.272 423.3083,314.1298 423.9564,312.6644 424.5341,312.2234 424.5637,311.014 425.5992,309.5307 424.9883,308.9021 422.7186,308.2992 422.9503,307.5756 423.3161,306.9454 423.6578,306.9868 423.7165,307.6616 424.0859,307.8022 425.2032,307.0599 426.7774,307.1703 427.4838,306.7467 427.7319,304.6345 428.1739,303.7502 426.6282,303.8452 427.9132,302.1494 428.0081,301.65 427.8231,301.2575 426.2319,301.0569 425.764,300.5734 426.1556,299.1551 425.8797,297.5719 426.2684,297.5967 426.7129,298.3796 427.3544,298.3642 427.758,297.9697 427.4109,297.7405 426.818,297.5115 427.0134,296.3361 426.4535,295.4088 425.6933,295.357 425.3628,295.9409 425.3582,296.883 424.9462,296.9927 424.1493,295.206 424.3953,293.3365 424.0615,292.1407 423.6994,292.1052 423.5692,292.5694 422.2124,293.4356 421.4252,293.3598 421.6788,292.1358 420.4816,291.7749 420.283,291.1215 420.5496,290.8076 421.5685,290.8955 421.6935,290.618 420.1345,289.1733 420.0308,288.1101 420.3378,287.443 419.5089,286.6326 419.1582,286.9743 419.4519,287.4297 419.4288,288.072 418.6026,288.4593 418.6112,287.3481 417.8429,286.5499 417.5272,285.7856 417.6515,284.4742 418.175,283.2613 419.2403,282.6775 419.0028,281.106 419.4358,280.8278 419.8697,280.8964 420.297,281.6451 420.6497,281.6694 422.0336,280.4506 422.0692,279.3473 421.0562,279.0572 420.458,278.4884 421.7313,277.9578 421.944,277.7806 422.5616,276.1109 422.481,276.0341 421.1515,276.0968 420.6601,276.7347 420.3509,276.785 419.7626,276.1004 418.2925,275.9364 418.1113,274.1008 417.5772,273.4348 417.2406,272.9058 417.12,272.7485 416.1694,272.4406 414.5192,270.8736 415.4659,268.9467 415.9639,268.3932 415.9984,268.2198 415.8105,267.5738 415.1903,266.4667 414.2263,266.1876 413.6971,265.7521 412.8724,263.6836 412.514,263.7164 412.2342,264.4847 411.8281,264.4263 411.9901,262.3402 411.7256,261.3828 409.6411,260.1627 408.8013,259.9854 408.0434,260.307 407.4919,260.8402 406.6041,262.0564 406.0159,262.0594 405.6942,261.5692 405.0601,261.6229 404.7916,262.8297 404.6054,262.8597 404.3385,262.7472 404.0633,262.3867 403.6318,260.9635 403.3485,260.9365 402.7321,262.0624 401.2049,262.3522 400.3549,262.958 398.4541,263.7206 397.9746,263.5938 397.6315,262.6128 397.307,262.1728 397.4109,261.9449 400.4143,260.5157 401.224,259.268 400.5881,257.8711 398.2523,256.3958 397.6736,256.5865 397.6019,257.9992 397.0602,258.1082 396.2972,257.4859 396.2248,257.1338 396.8858,255.787 396.843,254.4891 396.5219,253.977 394.0624,252.5508 395.6691,250.5608 395.8243,249.1652 395.6032,248.7571 395.4563,248.6286 394.885,248.1268 394.9376,247.4706 396.0126,247.1133 396.7327,246.562 398.4894,246.5885 398.9716,246.3045 396.9198,244.5437 397.8678,243.8616 396.8748,242.1526 396.635,242.0705 395.5685,242.8829 394.83,242.7497 394.6488,243.5996 394.2904,243.5987 394.4468,242.5066 393.8029,240.8668 393.6813,240.8114 393.0752,241.3243 392.315,241.2919 391.7537,240.7581 391.7921,239.5241 391.2308,238.6701 391.8681,236.8177 392.6896,235.8401 392.3929,234.3085 391.8476,233.7154 392.5034,232.6088 394.19,231.7168 394.5978,230.5707 394.2359,230.1771 393.7924,230.1495 393.0589,230.5989 392.0574,230.7107 391.6118,231.3686 391.1083,231.1143 393.0066,227.3873 392.2713,225.9444 391.7056,225.6688 391.5181,225.4239 391.5915,225.2975 392.7984,225.033 392.7529,224.3646 390.9033,224.1416 391.3988,223.4506 391.2112,222.7336 391.3003,222.421 391.5708,221.4691 391.4333,221.2526 390.8066,221.121 391.4829,220.3216 391.3248,219.9647 390.7991,219.8182 390.7367,219.3743 389.875,219.0758 390.0097,218.0472 389.1703,217.475 389.5131,216.9419 389.2102,215.4562 388.6781,215.3454 388.494,216.2577 387.8512,215.3029 387.1341,215.0294 386.2969,213.7119 386.0116,213.6753" stroke="black" /><polygon fill="none" points="299.2142,202.5177 298.7403,202.5296 298.4531,202.0348 298.0492,202.0025 297.84,202.1229 297.2464,202.1544 296.6846,202.5888 296.4487,202.4979 296.1392,201.9828 295.6822,201.5098 294.6824,201.3937 293.9095,201.0234 292.2521,200.3978 290.4051,199.0662 289.6823,198.077 289.0568,197.6459 285.4572,193.4925 284.927,193.1879 284.2539,192.801 283.9935,192.5549 283.7909,192.0959 282.8039,191.6494 281.7818,188.7009 281.498,188.3986 281.0942,188.3486 280.0511,187.2881 279.6651,187.1026 279.5025,186.5662 278.7032,185.9066 278.6025,185.2321 278.3182,184.8573 277.8549,184.9779 277.5773,184.9238 277.0133,184.3956 276.6055,184.1908 274.8624,183.9932 274.3067,183.8304 273.2482,183.0019 271.8203,182.7597 265.642,187.0453 264.2383,184.214 264.1296,183.0812 264.1392,182.9345 264.1486,182.7912 264.1992,182.0165 264.3444,181.4559 265.3301,180.0678 265.7481,177.9765 264.9682,174.479 264.2409,173.3365 264.0602,172.8577 264.0904,171.4296 264.3703,170.6718 264.3397,170.2866 264.5445,169.048 264.9762,168.4222 265.0842,167.5693 265.2088,166.5856 265.0393,165.7014 265.1868,164.7146 264.9489,163.6196 264.6126,162.8536 263.7697,162.1559 263.2125,161.9354 262.2201,161.2023 261.3163,159.6567 261.1984,159.1967 261.2341,158.8862 261.3981,158.6906 261.3623,158.2691 261.0492,157.3282 261.1666,156.901 262.1271,155.3385 262.077,155.0316 262.1739,154.6252 262.6927,154.1521 262.8556,153.8594 262.7812,153.3962 262.3994,152.4397 262.4558,151.9772 262.8538,151.0233 262.7643,150.8322 262.2946,150.6476 262.0756,150.3432 261.3879,149.9711 261.0621,149.6687 260.7531,149.1338 260.5643,148.2693 260.6394,147.8628 260.9364,146.9701 261.3839,146.2846 261.3418,146.1522 261.02,145.9838 261.1168,145.5773 260.701,145.0647 259.9128,144.8674 259.7822,144.7157 259.5288,143.8527 258.7514,142.3628 257.9344,141.8176 257.9294,141.5866 258.2435,141.4456 258.1714,141.0235 258.267,140.6165 258.152,140.2328 258.1921,140.1695 258.3149,139.9759 258.0666,139.2895 258.4645,139.1982 258.5275,139.0676 258.8222,138.9271 258.9211,138.6557 258.8374,137.7502 258.9147,137.4787 259.1684,137.1996 259.4329,136.9085 259.8144,136.0148 259.9036,134.3734 260.3035,132.5199 260.9002,131.6142 260.9781,131.323 260.482,130.8284 260.4464,130.3108 260.1635,130.0272 260.0696,129.6243 260.462,129.2716 261.0802,129.2958 261.0252,128.7959 261.4237,128.6139 261.4193,128.4224 260.8218,128.2589 260.7335,128.0886 260.663,127.7807 260.9487,127.3116 261.0049,127.0022 260.8211,126.3687 259.7542,125.1547 258.7673,124.595 258.2543,124.4497 257.5535,124.4051 257.2751,124.2565 257.1557,123.6796 257.9294,123.2409 258.049,122.8911 257.9285,122.2769 257.3235,121.748 257.3185,121.534 257.6632,120.8724 257.3709,119.8872 255.9547,119.3818 254.47,118.426 253.8521,118.264 253.4509,118.2913 253.0101,118.5116 252.3099,118.4861 252.1394,118.3669 252.7057,116.3377 252.4819,115.8119 251.7334,115.5068 251.5025,114.7009 251.2058,112.854 251.6459,110.8193 251.2599,110.559 249.4734,110.3218 247.9245,111.1419 247.4951,110.8991 246.0458,106.8323 246.1063,105.7408 246.7756,104.8705 247.6186,104.2688 250.2277,102.9418 250.7956,102.3669 250.9141,101.96 251.1788,101.8419 251.3792,101.8934 251.9018,102.5588 252.2867,102.706 252.6539,103.0074 252.8955,103.3897 253.0447,104.331 253.4747,104.594 253.9444,105.7225 254.3566,106.1002 254.6538,106.1326 254.9261,105.9926 255.6264,105.1116 256.6228,104.2251 256.8773,104.2196 258.4834,104.9797 259.1446,105.1598 260.2447,105.0822 260.5164,104.9219 260.6165,104.6691 260.2917,103.4411 260.3657,102.9765 260.7807,102.6223 261.0265,102.1728 260.6549,101.6975 260.0088,101.2662 259.7444,100.8274 259.8,100.479 260.1512,100.106 260.9296,99.8605 261.4497,99.4444 262.5449,98.2277 263.0184,96.7531 263.0691,96.1727 262.7505,94.288 262.7583,94.1664 262.7979,93.5545 262.8597,93.3881 262.9568,93.1268 264.0634,93.3175 264.8171,93.8823 265.3426,94.6048 265.5287,95.2377 266.2963,96.4385 266.4541,97.2362 266.5362,97.6498 267.04,98.3727 267.2972,98.5027 267.6572,98.4967 268.2417,98.1186 268.4328,98.1348 268.2611,98.9471 268.2783,99.6802 268.4577,100.1216 269.5305,100.7171 270.6322,101.6029 271.9983,102.9659 273.9524,104.0835 274.2491,104.078 274.3941,103.0159 274.5969,102.6459 274.6641,101.8729 274.9952,101.5382 274.8802,101.155 274.9964,100.6323 275.2847,100.2981 275.8341,100.2683 276.9875,99.745 277.6008,99.7136 277.8514,99.5549 278.028,98.9527 277.8985,97.9133 278.0652,97.7945 278.3624,97.7884 279.933,98.8768 280.3442,99.2373 280.9621,100.3044 281.2794,100.2599 281.7566,99.8266 283.6332,99.4427 283.9677,99.2435 284.0482,99.0493 283.8965,98.9361 283.1104,98.8345 282.7813,97.4337 282.4152,97.1511 282.0812,96.4823 281.9027,95.2129 281.9982,94.7473 282.4147,94.0024 283.0857,93.2225 283.7723,92.6875 284.0462,92.6056 284.9994,92.6257 286.2189,93.1619 286.8684,93.7275 287.3113,94.5687 287.99,96.4265 288.274,96.709 288.7589,96.6614 289.5555,96.2988 289.7883,96.2952 289.9617,96.4458 290.2985,97.2683 290.8865,97.9319 291.2236,97.8869 291.3686,97.7302 291.423,97.3434 292.1016,96.46 292.1147,95.2073 292.4389,94.6042 292.6537,93.7886 293.443,93.1176 294.4739,92.8277 294.8978,92.8195 296.4204,93.39 297.1035,93.876 297.2381,94.1434 297.1604,94.4347 297.2156,94.973 298.4613,95.7204 299.8129,95.5208 299.817,95.5062 299.821,95.4916 299.91,95.1714 299.5346,94.1287 299.4102,93.555 299.3447,92.7323 299.5257,92.343 300.4232,91.767 301.102,91.8118 301.2023,92.4264 301.6095,92.6695 301.8886,92.6606 302.507,92.0924 302.7586,91.9912 304.4775,92.073 304.9812,91.909 305.9766,91.373 306.2085,90.9773 306.0505,90.5573 306.1242,90.0735 306.0091,89.67 305.1046,88.2023 305.0978,87.9136 305.2404,87.6598 305.7425,87.38 307.6667,87.7617 307.8594,93.8428 353.9468,93.0859 360.0822,92.982 360.2057,101.1964 360.4343,116.3572 360.559,124.6168 360.5638,124.9323 360.7601,137.9707 360.7645,138.2625 360.9454,150.2669 361.4862,186.0873 361.6629,186.3332 361.954,186.3594 362.1254,186.838 362.9425,187.4243 362.9895,187.5556 362.7488,187.6628 362.8545,187.7743 363.2343,187.8538 363.4744,187.7124 363.7627,186.9741 364.1871,187.3097 364.389,187.1181 364.527,187.1149 364.6397,187.4884 365.0899,187.5428 365.2355,187.8538 365.205,188.0427 365.556,188.2556 365.5783,188.4588 365.1422,188.9705 365.2144,189.0942 365.5249,189.0878 365.5296,189.2767 365.3288,189.5626 365.3682,189.7504 365.5096,189.8731 365.5143,190.0935 365.7973,190.3384 365.7345,190.6227 365.2601,190.9135 365.5718,190.97 365.1626,191.8754 365.3616,192.969 365.7926,193.6503 365.9522,194.433 366.5065,195.0945 366.8722,195.2519 367.5991,196.4298 367.7781,196.52 368.0406,196.4837 368.7939,196.7585 368.9236,196.9169 368.8408,197.1746 369.5248,197.6115 369.6816,197.8958 369.6922,198.5147 369.8555,198.8295 369.9876,199.626 370.4532,200.0335 370.4644,200.2592 370.2395,200.4806 369.5485,200.5575 369.3394,200.7735 369.1175,201.4762 369.4833,201.6682 369.5526,201.8555 369.3436,202.0529 369.3342,202.4743 370.0206,203.1961 370.1868,203.2169 370.4628,202.9107 370.7012,202.9992 371.111,203.6821 371.0506,203.8822 370.6842,204.1655 370.6431,204.0935 369.3654,204.1143 369.1394,204.8729 368.514,205.7228 367.5587,206.1822 365.645,205.7938 364.5253,204.9951 363.4161,205.2448 359.5267,203.8857 358.7428,203.9251 357.7371,203.2774 356.3469,201.7728 352.4332,200.3654 350.5313,198.4813 348.1656,196.8259 343.8408,189.7747 340.9763,187.1341 339.0902,188.3377 338.8596,188.4849 335.6997,190.502 333.0869,192.5342 330.0465,192.4114 326.7362,197.2754 325.7954,197.6522 324.1015,197.686 323.6851,198.0283 323.3074,199.2648 320.9884,199.9556 316.1253,202.9634 314.9946,202.7008 307.9035,203.353 305.0835,203.2054 303.7802,203.5886 302.4382,204.5469 300.1723,203.2637 299.2488,203.1808 299.4304,202.9996 299.4654,202.6699 299.2142,202.5177" stroke="black" /><polygon fill="none" points="215.3736,75.1882 214.9748,75.2862 213.4669,74.637 212.4797,74.4378 211.2956,74.503 210.5561,74.6948 210.3038,74.5705 209.6717,73.8588 209.0903,73.5878 208.8411,73.6071 208.5713,73.7016 207.8784,74.0156 207.3134,74.0066 206.9346,74.0976 205.4662,73.8896 204.1258,73.8833 203.698,73.5923 203.3455,72.9157 203.2012,72.4732 203.2884,71.4741 203.1353,71.0166 202.3232,69.6135 202.2668,68.6472 202.034,68.1522 201.582,67.7021 201.3689,67.3763 200.4885,66.4015 200.027,65.7604 198.6761,64.2395 198.0825,63.7256 197.7887,63.5656 197.254,62.9088 197.2455,62.5231 197.3032,62.3898 197.4085,62.2449 197.5875,62.1311 197.9475,62.0256 198.116,61.9235 198.2423,61.777 198.2289,61.4958 198.1424,61.3954 197.6141,61.2775 197.3934,61.1603 196.928,60.7085 196.5681,59.9871 196.4676,59.893 196.0479,59.9391 195.9165,59.7116 195.9063,59.5648 195.8274,59.4959 195.5602,59.4761 195.43,59.2796 195.3163,59.2692 194.5165,59.52 193.8917,59.5316 190.2257,60.9717 189.7194,61.2363 189.6992,61.5884 189.5816,61.9734 188.9627,62.2277 188.7063,62.3856 187.8981,62.6363 187.5096,62.8415 187.4712,62.995 187.6144,63.1468 187.5624,63.3196 187.1783,63.4228 186.7651,63.4428 186.6979,63.591 186.8774,63.7605 186.8821,63.9771 186.6137,64.2187 186.2533,64.4357 185.536,64.6721 185.5035,64.7878 185.5937,65.0542 185.5547,65.1897 185.4783,65.2487 185.0955,65.0703 184.8077,65.0692 184.5455,64.9331 184.1685,65.0166 183.9664,64.7649 183.8238,64.3458 183.5645,64.006 183.3704,63.8247 182.3204,63.3066 182.1058,63.1061 181.9378,62.7963 181.7448,62.646 181.4133,62.5754 180.3809,62.4921 179.264,62.4614 179.0269,62.5358 178.8836,62.7172 178.7709,63.0067 178.6465,63.0918 178.4647,63.1399 178.0645,63.1279 177.7374,62.9298 177.6109,62.9066 177.5167,63.0739 177.3836,63.1024 177.0711,62.9353 176.9057,62.7338 176.8895,62.651 177.0632,62.565 177.1785,62.4031 177.1186,62.2253 176.6937,62.0286 176.5255,62.0309 176.2961,62.1381 175.7878,62.0004 175.1436,62.0503 174.9792,61.932 174.9972,61.7912 175.3943,61.6624 175.5875,61.4985 175.527,61.3084 175.3065,61.1591 175.0818,60.8246 174.7893,60.6191 174.5206,60.5284 173.8488,60.5915 173.26,60.3149 172.9775,59.8917 172.9431,59.6308 172.996,59.1315 172.9194,58.8326 172.6786,58.3962 172.3398,57.9937 172.4692,57.8056 172.7126,57.7059 172.735,57.4498 171.9887,56.6901 171.896,56.3084 171.3737,55.5198 171.4191,54.9885 171.2961,54.5118 170.6509,53.8782 170.4457,53.4925 170.4134,53.3014 170.4666,53.1468 170.6798,52.9579 170.7875,52.7581 170.7813,52.4641 170.5516,52.2321 170.5275,52.0725 170.605,51.7776 170.9341,51.4332 170.7948,51.1416 170.5095,50.9297 170.1937,50.9226 169.466,51.3317 169.2848,51.3857 168.0749,51.5804 167.3605,51.6188 167.0764,51.7963 166.8429,51.6982 166.4941,51.1233 165.8286,50.8604 165.2939,50.7807 163.8331,51.0303 163.2842,50.9698 162.6265,50.6604 162.4475,50.5506 162.4668,50.1415 162.3099,49.6844 162.2088,49.5711 160.557,48.7765 160.4696,48.6184 160.4824,48.222 160.2041,48.0229 160.1237,47.8771 160.1738,47.5699 160.3774,47.2535 160.3371,47.0112 160.1983,46.7644 159.4103,46.3378 158.6707,46.2043 157.9994,45.9605 157.5219,45.9498 156.9437,46.1202 156.6982,46.1372 156.5597,46.2163 156.449,46.6082 156.1689,46.6385 156.0624,46.5891 155.9177,46.3685 155.5713,46.2273 155.3328,46.2251 154.736,46.5619 154.5397,46.5716 154.4205,46.2416 154.7757,45.8007 154.8018,45.6989 154.6787,45.5215 153.941,45.1387 153.8947,44.9348 153.8967,44.0657 153.7419,43.7063 153.9028,43.3578 153.9724,42.9989 153.9803,42.7114 153.8973,42.4444 153.7044,42.3015 152.7335,42.1455 152.4452,42.157 151.653,41.8099 151.4039,41.6418 150.9427,41.081 150.6664,40.6135 150.5162,40.4814 150.1148,39.7468 150.1487,39.3697 150.1074,39.082 150.1746,38.9403 150.6078,38.8496 150.69,38.7783 150.7612,38.4893 150.7274,38.2337 150.6059,38.1149 150.2297,37.9235 150.2096,37.6173 150.4288,37.39 150.4929,37.1074 150.4466,36.8976 150.1693,36.3976 150.1668,36.2444 150.2554,36.1918 150.4317,36.2077 150.7721,36.3745 151.1149,36.3433 151.1767,36.2715 151.1289,35.9912 150.7445,35.4226 150.5741,34.9917 150.4104,34.892 149.6605,34.9057 149.2196,34.6384 148.4958,34.5811 148.3089,34.3677 148.2897,34.1249 148.0716,34.0188 147.744,33.8595 147.6881,33.5542 147.4646,33.2639 147.2517,33.153 146.942,33.1074 146.8381,33.1599 146.7891,33.4868 146.7339,33.5326 146.6144,33.528 146.3508,33.3348 146.1811,33.2741 145.9506,33.361 145.8335,33.7523 145.5148,33.9505 145.3543,34.3107 145.1752,34.4607 144.993,34.4704 144.5958,34.2731 143.7687,34.2752 143.6086,34.3287 143.4565,34.4596 143.2569,34.9803 142.8955,35.1592 142.6647,35.1634 142.515,35.0574 142.3744,34.6894 142.2156,34.5135 141.2728,34.032 141.0724,33.8629 139.9,33.1551 139.796,32.8822 139.8697,32.7341 140.076,32.5319 140.112,32.2503 140.0332,32.1498 139.8359,32.1274 139.6442,32.3419 139.5047,32.3757 139.353,32.1741 139.3193,31.9196 139.3859,31.4198 139.0839,30.3899 138.3607,29.3808 137.8827,28.9991 137.5925,28.5444 137.4715,28.4576 136.8706,28.2501 136.5514,28.4093 136.2854,28.4396 136.1779,28.339 136.0373,27.9972 136.0604,27.7214 136.1557,27.6048 136.5817,27.527 136.6558,27.4605 136.6832,27.1159 136.3277,26.7367 136.0341,26.6026 135.7008,26.5926 135.2248,26.9173 134.8839,26.8876 134.5927,27.1173 134.2848,27.2392 133.6221,27.1233 132.9193,27.1065 132.5887,26.9909 132.0631,26.5083 131.8388,26.4944 131.4523,26.647 131.2162,26.649 130.4051,26.4276 129.8685,26.4592 129.5951,26.5876 129.3464,27.059 129.1104,27.2067 128.9877,27.1125 128.9249,26.8173 128.7852,26.7299 128.612,26.8495 128.4354,27.1174 128.2846,27.1986 128.0584,27.2343 127.8564,27.3655 127.7225,27.6532 127.3291,27.9568 127.223,28.1491 127.2979,28.3499 127.2891,28.7228 127.0067,29.2662 127.1775,29.5308 127.1075,29.6015 126.72,29.6912 126.2643,29.7059 125.8542,29.8995 125.6064,29.9106 125.2804,29.8083 124.9928,29.8134 124.4441,30.1219 124.1928,30.1238 124.0066,29.9387 124.0355,29.6843 124.4452,28.9028 124.6008,28.4327 124.6725,27.145 124.7676,26.5328 124.9568,26.0201 124.9135,25.8321 124.7284,25.8332 124.5647,26.2601 124.3419,26.3267 124.2108,26.2954 124.0258,25.9305 123.8997,25.7936 123.7662,25.7916 123.6445,26.0901 123.5054,26.1729 123.3403,26.1511 123.0516,25.795 122.8626,25.7262 122.5773,25.7334 122.3518,25.9126 122.2957,26.0596 122.2847,26.3626 122.3613,26.7385 122.2573,26.8305 122.0375,26.6991 121.7772,26.2529 121.2143,26.0918 120.7194,25.5527 120.532,25.5292 120.3953,25.6003 120.1723,25.5549 119.3928,25.1755 119.2696,25.0652 119.2221,24.9045 119.4103,24.6991 119.8567,24.4827 120.1357,24.2754 120.7861,23.66 121.0743,23.3049 121.7224,22.7007 122.3012,21.9607 122.5098,21.5729 123.0603,20.9097 123.3997,20.6417 123.6272,20.5634 123.8928,20.2979 124.2468,19.1758 124.5922,18.5051 125.0112,17.9007 125.5445,17.462 127.4608,16.9257 127.8881,16.6265 128.0117,16.4402 128.2014,15.929 128.2253,15.4276 128.9831,14.5365 129.435,13.8751 129.8565,12.4913 129.8534,11.9839 129.7228,11.6448 129.6317,11.1793 129.6821,10.9879 130.084,10.408 130.1231,10.2774 129.9615,10.0908 129.4635,9.9881 129.2692,9.5757 129.5498,9.5375 130.6444,8.4387 131.7065,7.9438 132.5515,7.0305 134.6441,7.1054 134.8464,6.8333 134.5092,6.4457 135.2113,6.2501 135.4623,6.3201 136.0629,6.9368 135.7413,7.5261 136.1451,7.7869 137.1249,7.5649 138.1711,6.9013 138.5202,7.0526 138.8132,7.3618 138.1186,7.9735 139.0323,7.8937 138.9787,8.5722 139.4508,8.8941 139.7437,8.858 139.8837,8.1152 140.2612,7.9822 140.4577,8.2463 140.1949,8.9605 140.9768,9.0997 141.3972,8.9247 141.6241,7.9111 143.0051,7.8399 142.9794,7.4461 142.2353,7.3807 141.9315,6.9606 143.8617,6.7217 146.6127,7.6975 147.8952,7.8799 148.5264,8.2934 149.5071,9.7251 150.0982,9.0682 150.4937,8.9827 150.4999,8.462 153.529,8.7405 154.0339,8.1015 154.8042,7.788 156.3379,8.3903 157.2125,8.076 157.1325,7.5893 157.9957,6.7697 158.7888,6.6942 159.3648,6.1322 160.2966,6.0682 160.8396,6.4206 162.8482,5.9734 163.1687,5.5131 164.1689,6.9597 164.1054,7.2599 163.2608,7.338 163.3179,7.6358 164.9676,8.0163 165.8852,8.8816 166.0368,9.3349 167.4586,8.9177 168.0605,9.5833 168.7937,9.1448 169.4724,9.3683 170.4341,9.0999 170.5775,9.3323 170.2163,10.1745 170.5277,10.2323 171.0725,9.7197 171.9793,10.2686 171.6431,11.3722 173.1619,11.5073 173.0865,11.871 172.566,11.8341 172.609,12.1949 173.4374,12.2751 173.5101,13.1396 174.1357,13.9589 174.5243,14.0547 174.6639,13.9883 174.7699,13.75 174.5958,12.9478 175.1177,13.1266 175.4177,12.6167 176.0225,12.4547 175.8753,12.0783 176.1559,11.595 176.639,11.587 177.3113,12.283 177.744,12.3064 178.0975,11.9225 177.4867,11.6982 177.3392,11.2123 178.3664,11.4402 179.6565,10.5403 180.1296,10.7835 180.9199,10.6438 181.62,11.0251 182.7251,10.972 182.9619,11.8426 185.0989,10.6328 185.1466,10.0577 185.3608,7.4904 185.1429,5.4007 184.2966,3.825 184.2429,2.8486 189.6165,1.8331 192.183,1.7789 231.3921,0.9507 231.7528,0.9432 257.6401,0.2957 269.3668,0.0 267.0554,7.5446 266.5569,9.1203 263.2961,19.4271 256.057,42.2955 255.0444,45.4927 251.6757,56.1292 264.3102,55.9005 306.2383,55.1295 307.0328,55.1146 307.2662,67.1391 307.6667,87.7617 305.7425,87.38 305.2404,87.6598 305.0978,87.9136 305.1046,88.2023 306.0091,89.67 306.1242,90.0735 306.0505,90.5573 306.2085,90.9773 305.9766,91.373 304.9812,91.909 304.4775,92.073 302.7586,91.9912 302.507,92.0924 301.8886,92.6606 301.6095,92.6695 301.2023,92.4264 301.102,91.8118 300.4232,91.767 299.5257,92.343 299.3447,92.7323 299.4102,93.555 299.5346,94.1287 299.91,95.1714 299.821,95.4916 299.817,95.5062 299.8129,95.5208 298.4613,95.7204 297.2156,94.973 297.1604,94.4347 297.2381,94.1434 297.1035,93.876 296.4204,93.39 294.8978,92.8195 294.4739,92.8277 293.443,93.1176 292.6537,93.7886 292.4389,94.6042 292.1147,95.2073 292.1016,96.46 291.423,97.3434 291.3686,97.7302 291.2236,97.8869 290.8865,97.9319 290.2985,97.2683 289.9617,96.4458 289.7883,96.2952 289.5555,96.2988 288.7589,96.6614 288.274,96.709 287.99,96.4265 287.3113,94.5687 286.8684,93.7275 286.2189,93.1619 284.9994,92.6257 284.0462,92.6056 283.7723,92.6875 283.0857,93.2225 282.4147,94.0024 281.9982,94.7473 281.9027,95.2129 282.0812,96.4823 282.4152,97.1511 282.7813,97.4337 283.1104,98.8345 283.8965,98.9361 284.0482,99.0493 283.9677,99.2435 283.6332,99.4427 281.7566,99.8266 281.2794,100.2599 280.9621,100.3044 280.3442,99.2373 279.933,98.8768 278.3624,97.7884 278.0652,97.7945 277.8985,97.9133 278.028,98.9527 277.8514,99.5549 277.6008,99.7136 276.9875,99.745 275.8341,100.2683 275.2847,100.2981 274.9964,100.6323 274.8802,101.155 274.9952,101.5382 274.6641,101.8729 274.5969,102.6459 274.3941,103.0159 274.2491,104.078 273.9524,104.0835 271.9983,102.9659 270.6322,101.6029 269.5305,100.7171 268.4577,100.1216 268.2783,99.6802 268.2611,98.9471 268.4328,98.1348 268.2417,98.1186 267.6572,98.4967 267.2972,98.5027 267.04,98.3727 266.5362,97.6498 266.4541,97.2362 266.2963,96.4385 265.5287,95.2377 265.3426,94.6048 264.8171,93.8823 264.0634,93.3175 262.9568,93.1268 262.8597,93.3881 262.7979,93.5545 262.7583,94.1664 262.7505,94.288 263.0691,96.1727 263.0184,96.7531 262.5449,98.2277 261.4497,99.4444 260.9296,99.8605 260.1512,100.106 259.8,100.479 259.7444,100.8274 260.0088,101.2662 260.6549,101.6975 261.0265,102.1728 260.7807,102.6223 260.3657,102.9765 260.2917,103.4411 260.6165,104.6691 260.5164,104.9219 260.2447,105.0822 259.1446,105.1598 258.4834,104.9797 256.8773,104.2196 256.6228,104.2251 255.6264,105.1116 254.9261,105.9926 254.6538,106.1326 254.3566,106.1002 253.9444,105.7225 253.4747,104.594 253.0447,104.331 252.8955,103.3897 252.6539,103.0074 252.2867,102.706 251.9018,102.5588 251.3792,101.8934 251.1788,101.8419 250.9141,101.96 250.7956,102.3669 250.2277,102.9418 247.6186,104.2688 247.0938,103.5842 246.1904,102.7309 245.204,101.4443 244.9631,101.3618 244.157,101.6813 243.4399,101.6734 242.1438,101.48 240.8937,101.1774 240.0188,100.5412 237.9861,99.4696 237.5864,98.7376 237.91,96.7721 237.9137,95.9985 238.2977,95.3615 238.4802,94.6229 238.529,93.5245 238.798,92.2445 239.2397,91.4432 239.0538,91.1741 237.6541,89.6697 235.6021,88.4678 235.1814,88.0084 235.1025,87.5713 235.1444,86.1448 234.1072,84.6024 234.0757,84.5554 231.576,84.6103 231.5185,84.6118 231.4894,83.2449 230.2414,83.2376 226.9668,82.1132 224.1474,81.4386 222.7215,81.3066 220.5702,81.2929 220.1788,81.2357 219.4954,80.9166 218.997,80.4164 218.5362,80.1648 218.385,80.1374 218.3142,77.7807 218.1256,77.4171 217.512,76.8271 216.0563,75.8002 215.7838,75.493 215.3736,75.1882" stroke="black" /><polygon fill="none" points="307.2662,67.1391 307.0328,55.1146 306.2383,55.1295 264.3102,55.9005 251.6757,56.1292 255.0444,45.4927 256.057,42.2955 263.2961,19.4271 266.5569,9.1203 267.0554,7.5446 268.4497,7.5035 274.7145,7.3187 274.7739,8.5357 288.8852,11.5216 291.1931,4.1285 291.6126,2.7849 294.9102,5.03 304.36,11.4638 304.7077,11.7006 316.2974,4.4025 317.3972,5.9466 317.469,6.239 317.1184,7.7732 317.4542,8.3107 317.748,8.5109 318.8408,8.3717 319.5673,7.741 320.2973,7.3151 321.3054,7.6618 322.9745,7.3655 323.7158,7.3499 323.9424,7.4343 324.0764,7.5933 323.9849,7.8595 322.8241,9.205 322.648,9.914 322.8808,10.2321 324.7396,11.2419 325.1276,11.5334 325.2212,11.7281 350.5776,10.3714 350.8709,10.3557 354.1484,7.6635 355.0368,7.0875 356.5108,6.719 357.768,6.7239 359.0644,7.0212 360.1483,7.8371 360.4141,8.155 360.2993,8.7451 360.0533,9.2205 358.1488,10.4335 357.8958,10.704 357.436,11.6392 357.4166,12.1978 357.7152,12.5441 358.2346,12.6807 360.1625,12.3517 361.5709,13.334 362.4118,13.4632 362.8346,13.6318 363.1491,14.6247 362.684,15.3833 360.691,16.8931 360.7946,17.2153 364.0239,17.4582 365.0617,17.7015 365.648,17.9544 366.2641,18.0275 366.9306,18.2922 367.0372,18.4293 366.2272,18.8785 364.138,20.3323 363.1277,20.4705 362.2393,20.3264 361.6922,20.345 361.3115,20.528 361.2043,20.8097 361.4327,21.5972 361.3506,22.1851 362.0224,22.7293 362.9507,23.0698 364.1854,22.9716 365.833,22.5134 366.9247,22.3208 368.1196,22.8697 368.1647,23.2315 368.0148,23.4193 367.2785,23.5713 366.7783,23.8114 366.2377,24.3113 365.765,25.0358 364.4747,25.5763 364.4214,25.7209 364.4829,25.9135 365.0715,26.2976 367.0876,26.8349 368.231,28.0091 368.5122,28.4824 368.5737,28.9503 368.4185,30.817 368.5556,31.2364 368.9522,31.4786 369.6451,31.6925 370.8477,31.8178 371.5009,32.0638 371.8547,32.3006 372.9755,34.4015 373.5549,34.9254 374.2409,35.3399 374.8959,35.5202 375.559,35.4988 376.1466,35.814 376.7566,36.9349 377.6383,37.3738 378.0602,38.085 378.1353,38.8036 377.8858,39.1718 377.9228,39.7293 378.69,41.541 378.9708,42.5642 379.5205,43.302 379.6547,43.7406 379.3215,44.5868 378.8915,45.1433 378.4482,46.0466 378.7291,47.4246 378.602,47.8744 378.1615,48.3327 377.7086,48.5505 377.759,48.8604 378.0157,49.1971 378.8519,49.4861 378.9785,49.7603 378.941,49.9705 378.7699,50.1327 377.7013,50.58 377.5783,50.8483 377.7524,51.5264 377.422,52.1827 377.9038,52.7503 377.9817,52.9802 378.1543,54.7872 378.7558,56.9105 378.6581,57.5273 378.122,58.1596 377.9973,58.5053 377.9219,60.2222 377.3896,62.7522 377.3704,63.5551 377.7921,65.576 366.1461,64.928 367.16,66.7521 368.3949,69.9211 369.022,70.7603 369.9733,71.6347 370.0307,71.9015 369.8971,72.1069 370.0032,72.3886 369.8708,72.5332 369.8656,72.7466 369.8643,72.7999 369.961,72.952 370.5501,73.8744 370.6656,74.4682 371.0097,74.9777 371.9816,75.6898 372.8966,76.6709 373.7208,77.437 374.6927,78.0904 368.802,81.4477 368.3453,80.983 367.3606,80.8128 366.8049,80.2857 366.3242,80.0835 366.1155,79.6471 365.1947,79.1562 364.5687,78.9498 363.8565,78.3325 361.9164,77.6249 361.1761,77.6831 360.4821,77.5086 359.9698,77.6766 359.5882,77.6211 359.0279,77.287 357.7279,77.0148 356.8851,76.3414 355.5347,76.1167 354.0196,75.4784 354.0482,83.0596 355.1508,83.0368 355.2336,86.3953 354.0084,86.3791 353.9468,93.0859 307.8594,93.8428 307.6667,87.7617 307.2662,67.1391" stroke="black" /><polygon fill="none" points="130.1977,222.8149 130.8537,223.3661 131.0978,223.959 130.7031,226.2898 132.3953,227.9065 133.3989,229.9786 135.462,231.1776 137.7308,234.4229 138.0549,235.9388 137.9465,238.6113 139.6616,240.0926 139.8745,240.2766 140.1762,241.1091 142.9368,243.3782 143.902,244.7144 145.1591,245.4502 145.2377,245.4962 145.6039,245.7105 146.9874,246.3126 148.5166,247.7035 149.3059,248.9586 149.9588,248.9181 151.3083,249.3541 153.7878,251.3128 155.149,251.9766 160.6144,253.4354 161.6954,254.3423 163.065,256.2642 163.4377,256.787 163.6219,258.1276 151.3261,278.5688 153.5223,278.9049 157.3476,279.4904 160.206,281.1463 163.0806,285.1963 163.3247,290.3135 165.4238,294.1541 166.2303,297.9448 167.8073,301.0602 168.9891,302.1544 170.9437,303.3752 172.6824,303.8059 173.3426,304.7063 171.2185,305.0136 170.8396,305.3003 160.9142,306.4771 159.1755,307.0501 156.7095,306.9898 149.5505,307.9057 147.4482,307.751 146.9234,308.4246 145.7742,308.6553 145.0769,308.4577 139.9374,309.1451 118.513,312.0107 117.2582,310.9487 116.6867,310.939 116.2192,310.9313 115.5722,311.2932 114.7344,312.5909 107.5786,313.5924 107.2066,313.6444 93.1185,315.6149 91.6284,315.8233 90.725,314.9311 86.2452,316.0546 79.1036,315.9938 79.1872,289.2253 79.211,281.6108 79.2232,277.7004 79.2343,274.0749 79.2362,273.4643 79.2363,273.4392 79.2601,265.9112 79.2626,265.0947 79.2823,258.7494 79.3377,240.8955 79.3628,232.7946 79.377,228.2272 78.3671,228.2884 75.8399,227.8919 75.7903,223.9524 75.2948,222.5896 74.8736,222.7879 74.4028,222.4658 74.2541,221.9702 73.9568,220.7809 73.5108,218.9846 70.8101,216.4821 69.1253,215.6211 68.605,215.1008 68.1838,213.9362 68.5802,212.8213 68.828,211.9541 69.5465,210.8887 69.4226,209.5879 67.936,208.6711 67.2918,208.2499 66.5485,207.3084 66.6228,206.2244 66.9449,205.3324 67.5148,203.9944 67.8121,203.0281 68.2333,202.3344 68.8032,201.4672 69.1253,201.1946 69.2987,201.0707 69.6456,200.7239 69.819,200.5256 70.0668,200.2531 70.5624,199.9805 70.9836,199.8071 72.2472,198.6921 73.6099,197.701 74.3037,197.2922 74.8736,196.9949 75.1213,196.6232 75.4434,196.0286 75.8151,194.8888 76.1124,194.2446 76.5584,193.6995 77.3637,193.1792 77.4876,193.0553 77.8344,192.8447 78.3919,192.4359 78.7016,192.1138 79.0485,191.8165 79.3087,191.2342 79.4924,191.058 79.7153,190.8022 80.7979,191.0895 82.0945,191.8823 83.1923,193.2452 84.0151,193.162 84.1458,190.6886 83.7845,189.2465 85.1328,188.2527 86.5593,187.9596 86.7745,187.1153 86.0022,186.4475 85.6698,185.7353 85.5093,184.8817 85.8053,184.2537 87.3483,184.7815 88.0887,184.277 88.0358,182.766 89.3167,182.4559 90.6005,181.3877 94.4536,183.8384 95.7534,183.175 98.0168,183.8393 100.4977,186.1617 101.8107,188.2895 102.6788,188.3124 103.8989,187.1473 104.5851,187.1499 105.3054,189.2593 104.6009,191.0289 105.1244,191.8958 106.0257,195.7359 107.3276,196.6334 107.7533,197.4461 108.509,197.9172 109.9828,197.7125 111.1588,198.0611 111.4309,198.1419 113.6814,197.9756 114.516,199.5684 115.6342,200.3126 117.8031,199.6467 118.4243,200.1505 119.2928,201.9935 120.0161,206.6321 120.4632,207.9542 122.5777,208.117 124.5302,207.071 125.2402,207.2383 125.9636,208.6381 127.029,209.6488 130.6549,212.3752 131.1311,213.8132 130.9655,216.1526 131.9674,218.4883 132.0542,219.4056 130.6541,221.5619 130.1977,222.8149" stroke="black" /><polygon fill="none" points="176.2125,304.552 175.9672,304.8225 173.3426,304.7063 172.6824,303.8059 170.9437,303.3752 168.9891,302.1544 167.8073,301.0602 166.2303,297.9448 165.4238,294.1541 163.3247,290.3135 163.0806,285.1963 160.206,281.1463 157.3476,279.4904 153.5223,278.9049 151.3261,278.5688 163.6219,258.1276 163.4377,256.787 163.065,256.2642 161.6954,254.3423 160.6144,253.4354 155.149,251.9766 153.7878,251.3128 151.3083,249.3541 149.9588,248.9181 149.3059,248.9586 148.5166,247.7035 146.9874,246.3126 145.6039,245.7105 145.2377,245.4962 145.1591,245.4502 143.902,244.7144 142.9368,243.3782 140.1762,241.1091 139.8745,240.2766 139.6616,240.0926 137.9465,238.6113 138.0549,235.9388 137.7308,234.4229 135.462,231.1776 133.3989,229.9786 132.3953,227.9065 130.7031,226.2898 131.0978,223.959 130.8537,223.3661 130.1977,222.8149 130.6541,221.5619 132.0542,219.4056 131.9674,218.4883 130.9655,216.1526 131.1311,213.8132 130.6549,212.3752 133.2398,198.0973 136.9144,177.7997 137.4689,174.737 137.7115,172.2627 136.9258,170.1955 135.6112,168.8582 135.402,168.6454 134.2179,167.4408 134.8741,163.9429 136.3179,160.2485 135.8732,154.5043 135.9408,149.695 136.9752,146.2102 138.9392,142.961 138.2428,138.8748 138.9956,137.336 138.6814,136.5243 138.0432,136.1545 138.7807,134.6199 138.2338,133.9303 134.945,134.3884 134.4187,134.2355 133.7876,133.4709 133.8896,132.7718 135.0364,131.686 135.2847,131.0678 135.3206,129.3927 135.1565,128.7889 137.1267,129.3766 138.304,129.352 138.9769,128.5812 140.1622,128.2269 141.0311,127.6151 141.0958,125.661 141.6194,125.1625 142.936,124.6585 144.3149,124.4705 145.0876,124.9803 145.4488,125.7799 144.3151,128.4131 144.5743,129.3788 145.0834,129.5775 146.8099,129.513 148.3389,128.4067 149.9967,128.956 151.7944,128.3902 152.9183,128.7546 153.8976,128.6498 154.4624,128.2836 153.0642,127.0259 153.1135,126.6126 153.3201,126.3842 154.9138,125.5633 155.5423,125.2394 155.6566,124.8721 152.5217,120.2699 152.4422,119.4001 153.8333,118.0127 154.7093,118.2965 155.1666,118.153 155.233,117.7061 153.2116,116.8513 151.7046,116.9554 151.4886,116.6188 153.1973,113.9347 154.2949,113.9949 155.4428,113.5293 158.1449,113.412 158.6149,113.323 158.9934,113.4295 158.5135,114.5125 158.6591,115.0516 159.9593,115.6576 160.9942,116.5616 161.8153,116.7658 161.9604,113.1538 161.1771,112.0433 162.0669,111.7562 162.785,111.8699 163.6669,113.3711 165.6916,114.924 169.3335,116.6449 171.3702,118.426 172.2409,117.1689 172.929,116.9197 174.1604,116.9864 175.2936,116.2628 175.9688,116.1682 176.8835,118.2786 178.4453,119.834 179.154,120.2041 179.7432,118.9143 181.2883,118.1318 181.6985,116.1816 183.4032,116.4605 184.2696,117.3229 184.8017,118.4278 185.8154,118.3008 186.6493,117.873 186.7567,117.6294 186.797,113.1897 187.9503,112.5812 187.9576,111.7607 186.0808,110.6941 185.9128,110.3336 186.5879,109.5598 188.1539,109.2067 188.8807,107.8947 189.2553,107.6932 189.4366,107.6749 191.5063,108.5087 192.2201,108.4333 193.4652,107.3912 194.6799,107.2548 196.3527,108.5956 198.074,108.7254 198.8025,109.6423 202.3164,111.1465 202.4652,113.0317 201.3783,112.8493 200.9174,113.1253 200.9866,113.3591 203.3833,114.4536 204.522,115.8231 205.7123,116.4479 206.1724,118.1442 206.6488,118.0602 208.6014,117.717 210.2429,117.9718 210.9516,118.7178 211.8044,120.6037 214.4117,120.6936 216.8116,122.9865 218.5854,122.0719 221.4536,124.5831 225.4765,124.9322 227.1891,125.3047 227.8745,125.7155 229.2713,125.2541 230.3207,125.2125 232.3415,126.911 233.2254,127.654 233.0688,128.9123 233.3755,129.2937 233.5092,130.2473 234.2122,130.4415 234.8063,129.5039 234.6279,127.6295 234.1293,125.9553 233.673,124.4233 234.0461,121.5429 234.8212,121.01 235.5076,121.2661 235.8033,123.1397 236.7115,123.9429 238.925,122.9645 241.8806,122.9133 242.4568,125.1207 243.2593,126.0853 244.3267,125.7934 245.067,125.0795 245.0464,123.0111 244.4518,121.5287 244.607,121.3406 245.6877,121.8356 246.555,121.8854 247.0494,121.5457 248.6415,119.5616 248.6309,117.4179 248.8946,116.84 249.0543,116.7538 249.7248,116.9878 250.5155,118.3861 251.0245,118.7757 251.6329,118.9632 252.0157,118.3539 252.1394,118.3669 252.3099,118.4861 253.0101,118.5116 253.4509,118.2913 253.8521,118.264 254.47,118.426 255.9547,119.3818 257.3709,119.8872 257.6632,120.8724 257.3185,121.534 257.3235,121.748 257.9285,122.2769 258.049,122.8911 257.9294,123.2409 257.1557,123.6796 257.2751,124.2565 257.5535,124.4051 258.2543,124.4497 258.7673,124.595 259.7542,125.1547 260.8211,126.3687 261.0049,127.0022 260.9487,127.3116 260.663,127.7807 260.7335,128.0886 260.8218,128.2589 261.4193,128.4224 261.4237,128.6139 261.0252,128.7959 261.0802,129.2958 260.462,129.2716 260.0696,129.6243 260.1635,130.0272 260.4464,130.3108 260.482,130.8284 260.9781,131.323 260.9002,131.6142 260.3035,132.5199 259.9036,134.3734 259.8144,136.0148 259.4329,136.9085 259.1684,137.1996 258.9147,137.4787 258.8374,137.7502 258.9211,138.6557 258.8222,138.9271 258.5275,139.0676 258.4645,139.1982 258.0666,139.2895 258.3149,139.9759 258.1921,140.1695 258.152,140.2328 258.267,140.6165 258.1714,141.0235 258.2435,141.4456 257.9294,141.5866 257.9344,141.8176 258.7514,142.3628 259.5288,143.8527 259.7822,144.7157 259.9128,144.8674 260.701,145.0647 261.1168,145.5773 261.02,145.9838 261.3418,146.1522 261.3839,146.2846 260.9364,146.9701 260.6394,147.8628 260.5643,148.2693 260.7531,149.1338 261.0621,149.6687 261.3879,149.9711 262.0756,150.3432 262.2946,150.6476 262.7643,150.8322 262.8538,151.0233 262.4558,151.9772 262.3994,152.4397 262.7812,153.3962 262.8556,153.8594 262.6927,154.1521 262.1739,154.6252 262.077,155.0316 262.1271,155.3385 261.1666,156.901 261.0492,157.3282 261.3623,158.2691 261.3981,158.6906 261.2341,158.8862 261.1984,159.1967 261.3163,159.6567 262.2201,161.2023 263.2125,161.9354 263.7697,162.1559 264.6126,162.8536 264.9489,163.6196 265.1868,164.7146 265.0393,165.7014 265.2088,166.5856 265.0842,167.5693 264.9762,168.4222 264.5445,169.048 264.3397,170.2866 264.3703,170.6718 264.0904,171.4296 264.0602,172.8577 264.2409,173.3365 264.9682,174.479 265.7481,177.9765 265.3301,180.0678 264.3444,181.4559 264.1992,182.0165 264.1486,182.7912 264.1392,182.9345 264.1296,183.0812 264.2383,184.214 265.642,187.0453 271.8203,182.7597 273.2482,183.0019 274.3067,183.8304 274.8624,183.9932 276.6055,184.1908 277.0133,184.3956 277.5773,184.9238 277.8549,184.9779 278.3182,184.8573 278.6025,185.2321 278.7032,185.9066 279.5025,186.5662 279.6651,187.1026 280.0511,187.2881 281.0942,188.3486 281.498,188.3986 281.7818,188.7009 282.8039,191.6494 283.7909,192.0959 283.9935,192.5549 284.2539,192.801 284.927,193.1879 285.4572,193.4925 289.0568,197.6459 289.6823,198.077 290.4051,199.0662 292.2521,200.3978 293.9095,201.0234 294.6824,201.3937 295.6822,201.5098 296.1392,201.9828 296.4487,202.4979 296.6846,202.5888 297.2464,202.1544 297.84,202.1229 298.0492,202.0025 298.4531,202.0348 298.7403,202.5296 299.2142,202.5177 299.4654,202.6699 299.4304,202.9996 299.2488,203.1808 298.6288,204.3823 298.9222,204.5906 298.9651,206.3805 299.3227,207.0658 299.8088,207.1164 299.5352,207.7665 299.6231,209.2198 299.1392,209.826 299.3967,210.1671 298.8054,210.7273 298.8639,210.9893 299.5767,211.1185 300.3029,210.7232 302.6323,213.4057 303.1585,215.4622 303.3159,216.0774 301.6758,216.5911 300.3971,217.4613 299.2503,217.8189 297.2912,217.1169 296.5683,215.9506 295.3464,216.2825 295.7004,217.0175 295.5796,217.9867 294.823,218.1685 294.4244,218.0087 293.3857,218.4352 292.9522,219.5775 290.7155,219.335 289.3859,218.6894 288.5096,217.6472 287.8503,217.5175 287.4657,217.9536 287.5169,218.9555 287.0862,220.1678 287.4723,220.9726 289.0554,221.324 289.1138,221.5615 288.4218,221.7305 288.4988,222.7309 287.5768,223.7272 286.9421,223.5014 286.3327,223.8354 285.5157,225.928 285.5983,226.6542 284.715,226.5995 284.5849,226.6237 283.4237,226.8399 283.5916,227.3672 282.9175,229.269 283.2169,230.8655 284.4318,231.7853 284.8462,232.5876 285.7722,232.8802 285.9807,233.9021 287.2013,235.0363 287.1303,236.0451 286.0199,236.7174 286.238,237.0707 287.1466,237.7219 289.29,238.4435 291.7945,238.2867 292.7752,238.6791 293.1407,240.2532 291.7603,240.7109 291.4029,241.4158 291.2879,242.4278 290.3562,244.6164 289.1394,245.176 288.7278,245.4766 288.2565,245.0557 288.0099,243.8402 287.6693,243.706 286.8264,243.6113 286.0993,243.9345 284.1536,243.8537 284.054,244.0713 284.6265,244.4058 284.5269,244.6703 283.6446,245.0456 283.5094,246.1002 282.9199,247.0536 282.5623,247.632 284.2414,248.6968 285.1317,248.584 285.4673,249.9736 285.9122,249.9425 285.7238,250.7474 285.8784,251.7569 286.1797,251.8094 286.1854,250.9276 286.5504,250.8484 288.5193,252.4683 289.1359,253.8415 289.3999,253.1461 290.5969,253.6449 290.108,255.294 290.4258,255.4202 291.3455,254.7637 291.616,255.6538 292.1497,256.0251 291.9237,256.4117 291.0603,256.5955 291.1767,257.0693 292.2432,257.7179 292.1789,257.8987 290.4069,258.2178 290.5665,258.4788 291.9974,258.9997 290.9052,259.9387 291.2718,261.0781 291.7393,260.8064 293.6614,260.8432 293.7355,260.8449 294.0032,261.0756 293.8452,261.5401 293.4837,261.694 292.4919,262.1162 292.6904,263.3125 292.4368,263.6334 291.5717,263.7452 290.8967,262.9711 290.1064,262.844 287.992,263.9709 288.2518,264.9432 287.998,265.3788 285.9863,265.4794 286.0676,265.8177 287.8973,267.1825 287.6823,269.7521 286.9943,270.6482 287.4347,272.0837 288.8619,273.5356 288.1012,275.233 287.1041,275.9971 286.2097,276.358 285.873,276.3561 285.6335,276.0827 286.8394,274.6503 287.0082,274.0018 284.5273,272.988 284.7669,274.2248 283.4387,273.6063 283.7683,274.7568 283.5064,275.5114 283.2263,276.3178 282.3397,276.5522 281.1803,275.7754 280.0539,276.0106 280.7548,276.7369 279.9929,277.3128 279.5651,279.2063 278.5155,280.9572 279.3165,282.5638 280.6274,282.4947 281.0549,282.8296 281.5145,283.9157 282.5582,284.6609 283.0735,285.3683 283.0155,285.6904 281.7657,286.1688 279.7677,286.1359 279.5949,286.5929 280.2665,287.7849 280.0622,288.0504 278.6682,286.2767 279.2226,285.3111 278.718,285.0348 277.4893,285.0896 276.5651,285.6851 276.5771,287.3074 275.4701,288.3076 275.5925,289.5828 276.3722,290.3539 278.7827,291.68 281.7588,292.0281 281.9225,292.263 281.5359,293.0938 280.6579,293.7555 280.3635,294.6429 279.2272,295.4794 279.8235,296.2845 281.3638,297.3546 281.4218,297.3947 281.4368,297.4052 278.3932,300.9668 276.7851,303.2382 276.2181,304.0697 276.1866,304.1158 274.675,306.3327 272.7791,308.3418 272.7461,308.3768 272.617,308.5136 270.1475,310.1999 267.6834,310.4949 264.76,309.812 263.6642,309.355 262.5854,308.905 259.4447,307.5427 259.0796,307.3737 256.0886,305.9888 253.9064,305.3418 253.6037,305.2914 252.5248,305.1118 250.0541,305.7351 248.8649,306.3587 247.7339,306.9517 245.7111,308.3196 244.5742,309.6874 243.8168,311.5098 243.3964,313.7835 243.5217,315.675 243.9398,317.2613 245.0682,318.5831 246.5296,319.7908 248.9918,320.8875 250.724,321.3869 252.5371,321.9097 255.1473,322.2562 255.4153,322.2918 256.208,322.5746 257.9541,323.1975 259.9498,323.9512 260.2431,324.2085 261.1895,325.0387 262.4047,326.6356 263.2786,328.0806 263.3416,328.2314 264.0235,329.8633 264.011,331.9053 263.617,333.3224 263.4973,333.7529 263.2011,334.0357 262.4032,334.7975 262.2774,334.9177 259.8075,335.4384 258.9748,335.4365 258.0457,335.4344 256.4208,335.4308 252.197,334.5929 249.2658,333.8704 248.4195,333.4762 247.4598,333.0292 246.4982,332.5812 246.1296,332.2789 242.7517,329.5088 239.5846,326.9968 237.9774,325.8519 237.3648,325.367 235.6984,324.0478 234.8006,323.3371 234.0897,323.0429 233.2156,322.681 232.5678,322.4128 230.9406,322.2134 230.9186,322.2107 230.3325,322.1388 228.5611,322.6317 228.3732,322.7847 227.3975,323.5793 227.2974,323.6609 226.4566,324.8046 226.3182,326.0163 226.2911,326.2535 226.5897,328.3858 226.9757,330.0321 227.4137,331.9 227.4353,331.9919 227.7513,333.5977 227.9413,334.5635 228.1107,336.5244 228.1528,336.788 228.0928,338.1927 228.0709,338.7056 227.4462,340.3552 227.1355,340.6529 226.2376,341.5134 225.348,341.8903 223.878,342.5173 222.9695,342.616 221.3891,342.6791 218.5111,342.2693 216.5978,341.9969 214.1212,340.3292 212.7811,338.3729 210.5073,335.2242 209.2208,333.3683 204.8021,325.0922 203.0008,321.7869 201.3812,319.3032 199.9175,318.3211 199.0869,317.7638 196.1501,317.1734 193.7604,317.6873 191.9457,318.5479 191.4032,319.057 189.2269,318.4075 187.7507,315.6069 186.3663,314.6901 185.1586,314.399 184.4976,312.5486 185.2945,310.8997 184.8087,307.255 183.9324,306.3574 183.2647,305.8124 182.0114,305.2138 181.2503,305.3024 180.3765,304.878 180.1535,304.472 177.4816,304.7058 176.2125,304.552" stroke="black" /><polygon fill="none" points="293.4837,261.694 293.8452,261.5401 294.0032,261.0756 293.7355,260.8449 293.6614,260.8432 291.7393,260.8064 291.2718,261.0781 290.9052,259.9387 291.9974,258.9997 290.5665,258.4788 290.4069,258.2178 292.1789,257.8987 292.2432,257.7179 291.1767,257.0693 291.0603,256.5955 291.9237,256.4117 292.1497,256.0251 291.616,255.6538 291.3455,254.7637 290.4258,255.4202 290.108,255.294 290.5969,253.6449 289.3999,253.1461 289.1359,253.8415 288.5193,252.4683 286.5504,250.8484 286.1854,250.9276 286.1797,251.8094 285.8784,251.7569 285.7238,250.7474 285.9122,249.9425 285.4673,249.9736 285.1317,248.584 284.2414,248.6968 282.5623,247.632 282.9199,247.0536 283.5094,246.1002 283.6446,245.0456 284.5269,244.6703 284.6265,244.4058 284.054,244.0713 284.1536,243.8537 286.0993,243.9345 286.8264,243.6113 287.6693,243.706 288.0099,243.8402 288.2565,245.0557 288.7278,245.4766 289.1394,245.176 290.3562,244.6164 291.2879,242.4278 291.4029,241.4158 291.7603,240.7109 293.1407,240.2532 292.7752,238.6791 291.7945,238.2867 289.29,238.4435 287.1466,237.7219 286.238,237.0707 286.0199,236.7174 287.1303,236.0451 287.2013,235.0363 285.9807,233.9021 285.7722,232.8802 284.8462,232.5876 284.4318,231.7853 283.2169,230.8655 282.9175,229.269 283.5916,227.3672 283.4237,226.8399 284.5849,226.6237 284.715,226.5995 285.5983,226.6542 285.5157,225.928 286.3327,223.8354 286.9421,223.5014 287.5768,223.7272 288.4988,222.7309 288.4218,221.7305 289.1138,221.5615 289.0554,221.324 287.4723,220.9726 287.0862,220.1678 287.5169,218.9555 287.4657,217.9536 287.8503,217.5175 288.5096,217.6472 289.3859,218.6894 290.7155,219.335 292.9522,219.5775 293.3857,218.4352 294.4244,218.0087 294.823,218.1685 295.5796,217.9867 295.7004,217.0175 295.3464,216.2825 296.5683,215.9506 297.2912,217.1169 299.2503,217.8189 300.3971,217.4613 301.6758,216.5911 303.3159,216.0774 303.1585,215.4622 302.6323,213.4057 300.3029,210.7232 299.5767,211.1185 298.8639,210.9893 298.8054,210.7273 299.3967,210.1671 299.1392,209.826 299.6231,209.2198 299.5352,207.7665 299.8088,207.1164 299.3227,207.0658 298.9651,206.3805 298.9222,204.5906 298.6288,204.3823 299.2488,203.1808 300.1723,203.2637 302.4382,204.5469 303.7802,203.5886 305.0835,203.2054 307.9035,203.353 314.9946,202.7008 316.1253,202.9634 320.9884,199.9556 323.3074,199.2648 323.6851,198.0283 324.1015,197.686 325.7954,197.6522 326.7362,197.2754 330.0465,192.4114 333.0869,192.5342 335.6997,190.502 338.8596,188.4849 339.0902,188.3377 340.9763,187.1341 343.8408,189.7747 348.1656,196.8259 350.5313,198.4813 352.4332,200.3654 356.3469,201.7728 357.7371,203.2774 358.7428,203.9251 359.5267,203.8857 363.4161,205.2448 364.5253,204.9951 365.645,205.7938 367.5587,206.1822 368.514,205.7228 369.1394,204.8729 369.3654,204.1143 370.6431,204.0935 370.6842,204.1655 371.5422,205.679 371.9567,205.8304 371.5017,206.2935 372.2786,206.3084 371.7877,206.7683 371.9345,207.2314 372.2264,207.3274 373.2052,206.724 373.8318,207.0275 374.3838,207.7759 373.7878,207.9072 374.6017,208.3275 374.6481,208.7159 375.3763,208.4608 374.9219,209.3219 375.7876,210.9885 375.5739,211.4063 376.2217,211.419 376.3862,211.9525 377.0209,211.5459 379.5011,213.2143 380.1795,214.1526 380.8114,214.2032 381.7772,212.9877 382.6357,212.6317 382.78,211.9318 383.6052,212.4966 384.3467,211.7015 384.5196,212.5535 384.2713,213.0796 385.3002,213.1535 385.6773,213.6325 386.0116,213.6753 386.2969,213.7119 387.1341,215.0294 387.8512,215.3029 388.494,216.2577 388.6781,215.3454 389.2102,215.4562 389.5131,216.9419 389.1703,217.475 390.0097,218.0472 389.875,219.0758 390.7367,219.3743 390.7991,219.8182 391.3248,219.9647 391.4829,220.3216 390.8066,221.121 391.4333,221.2526 391.5708,221.4691 391.3003,222.421 391.2112,222.7336 391.3988,223.4506 390.9033,224.1416 392.7529,224.3646 392.7984,225.033 391.5915,225.2975 391.5181,225.4239 391.7056,225.6688 392.2713,225.9444 393.0066,227.3873 391.1083,231.1143 391.6118,231.3686 392.0574,230.7107 393.0589,230.5989 393.7924,230.1495 394.2359,230.1771 394.5978,230.5707 394.19,231.7168 392.5034,232.6088 391.8476,233.7154 392.3929,234.3085 392.6896,235.8401 391.8681,236.8177 391.2308,238.6701 391.7921,239.5241 391.7537,240.7581 392.315,241.2919 393.0752,241.3243 393.6813,240.8114 393.8029,240.8668 394.4468,242.5066 394.2904,243.5987 394.6488,243.5996 394.83,242.7497 395.5685,242.8829 396.635,242.0705 396.8748,242.1526 397.8678,243.8616 396.9198,244.5437 398.9716,246.3045 398.4894,246.5885 396.7327,246.562 396.0126,247.1133 394.9376,247.4706 394.885,248.1268 395.4563,248.6286 395.6032,248.7571 395.8243,249.1652 395.6691,250.5608 394.0624,252.5508 396.5219,253.977 396.843,254.4891 396.8858,255.787 396.2248,257.1338 396.2972,257.4859 397.0602,258.1082 397.6019,257.9992 397.6736,256.5865 398.2523,256.3958 400.5881,257.8711 401.224,259.268 400.4143,260.5157 397.4109,261.9449 397.307,262.1728 397.6315,262.6128 397.9746,263.5938 398.4541,263.7206 400.3549,262.958 401.2049,262.3522 402.7321,262.0624 403.3485,260.9365 403.6318,260.9635 404.0633,262.3867 404.3385,262.7472 404.6054,262.8597 404.7916,262.8297 405.0601,261.6229 405.6942,261.5692 406.0159,262.0594 406.6041,262.0564 407.4919,260.8402 408.0434,260.307 408.8013,259.9854 409.6411,260.1627 411.7256,261.3828 411.9901,262.3402 411.8281,264.4263 412.2342,264.4847 412.514,263.7164 412.8724,263.6836 413.6971,265.7521 414.2263,266.1876 415.1903,266.4667 415.8105,267.5738 415.9984,268.2198 415.9639,268.3932 415.4659,268.9467 414.5192,270.8736 416.1694,272.4406 417.12,272.7485 417.2406,272.9058 417.5772,273.4348 418.1113,274.1008 418.2925,275.9364 419.7626,276.1004 420.3509,276.785 420.6601,276.7347 421.1515,276.0968 422.481,276.0341 422.5616,276.1109 421.944,277.7806 421.7313,277.9578 420.458,278.4884 421.0562,279.0572 422.0692,279.3473 422.0336,280.4506 420.6497,281.6694 420.297,281.6451 419.8697,280.8964 419.4358,280.8278 419.0028,281.106 419.2403,282.6775 418.175,283.2613 417.6515,284.4742 417.5272,285.7856 417.8429,286.5499 418.6112,287.3481 418.6026,288.4593 419.4288,288.072 419.4519,287.4297 419.1582,286.9743 419.5089,286.6326 420.3378,287.443 420.0308,288.1101 420.1345,289.1733 421.6935,290.618 421.5685,290.8955 420.5496,290.8076 420.283,291.1215 420.4816,291.7749 421.6788,292.1358 421.4252,293.3598 422.2124,293.4356 423.5692,292.5694 423.6994,292.1052 424.0615,292.1407 424.3953,293.3365 424.1493,295.206 424.9462,296.9927 425.3582,296.883 425.3628,295.9409 425.6933,295.357 426.4535,295.4088 427.0134,296.3361 426.818,297.5115 427.4109,297.7405 427.758,297.9697 427.3544,298.3642 426.7129,298.3796 426.2684,297.5967 425.8797,297.5719 426.1556,299.1551 425.764,300.5734 426.2319,301.0569 427.8231,301.2575 428.0081,301.65 427.9132,302.1494 426.6282,303.8452 428.1739,303.7502 427.7319,304.6345 427.4838,306.7467 426.7774,307.1703 425.2032,307.0599 424.0859,307.8022 423.7165,307.6616 423.6578,306.9868 423.3161,306.9454 422.9503,307.5756 422.7186,308.2992 424.9883,308.9021 425.5992,309.5307 424.5637,311.014 424.5341,312.2234 423.9564,312.6644 423.3083,314.1298 422.9554,316.272 423.5192,316.796 423.4777,317.1023 422.6633,317.266 418.8677,314.0174 418.1574,314.2397 419.0512,314.8799 420.1948,316.9267 419.4798,319.4532 419.7705,319.7294 422.9987,320.4496 423.898,321.2802 423.0463,321.8617 421.813,321.9426 421.6397,322.1918 421.8427,323.0372 420.1689,323.1727 419.0806,323.6237 419.0749,323.8595 420.9328,326.0696 422.2942,325.8436 422.5876,327.8706 424.6715,327.825 426.0541,326.1708 426.8064,326.1415 427.9201,326.528 430.5132,328.229 430.8127,328.9698 430.8847,330.5846 429.882,332.1761 429.8268,332.8521 429.2659,333.8651 423.8897,334.3148 422.8178,334.125 420.4926,334.3319 419.102,333.4952 417.7695,333.3007 415.8841,334.0295 414.1782,332.3292 413.2548,331.5545 410.5519,329.6189 405.2164,327.6566 402.0106,327.3198 400.3674,327.8571 396.8708,329.6072 393.7341,331.811 387.4347,335.5028 385.3107,336.2715 382.4613,336.5959 378.4705,336.4242 371.9048,335.9101 371.7198,335.8956 371.7087,335.8045 371.6904,335.6533 370.6803,335.2505 370.2774,335.0899 368.9669,334.6797 366.7082,333.6697 364.9642,332.3165 364.1064,331.257 363.3639,329.143 363.2079,328.7217 362.5184,326.8587 360.1571,324.3399 357.1589,322.9567 354.5989,322.4377 351.8631,322.7017 349.5549,324.3409 347.2586,327.3088 345.1002,330.9483 341.8176,334.1561 339.7514,335.3465 336.6808,335.3133 335.7501,335.3033 333.2885,333.8748 330.9445,331.2778 330.5911,330.4778 329.4271,327.8431 327.3955,323.4445 324.266,320.3929 323.1263,320.0122 322.833,319.9142 322.1999,319.7028 320.5112,319.2408 319.3756,319.3531 318.4594,320.0969 317.2019,321.7725 316.7907,324.0945 316.5063,326.3346 315.89,329.1356 314.9416,332.0399 313.4992,335.6093 313.5385,337.9265 313.5627,339.3534 313.5765,341.7412 313.9677,345.4799 313.9261,347.888 313.9227,348.0837 313.2094,351.2043 312.8128,353.0753 312.5819,354.1642 311.2071,355.3584 308.8754,355.6906 308.5702,355.5808 307.5691,355.2208 306.3729,354.7906 304.196,352.4275 302.3837,349.0428 301.4875,346.9929 299.6225,342.7276 296.9237,336.2504 295.8956,334.3736 294.5529,329.9063 293.6055,325.2594 293.783,322.1488 294.8454,318.7997 295.3993,317.3794 295.7387,316.5089 296.6298,315.1704 298.2177,313.2439 300.6632,310.349 302.0914,308.6585 304.3347,305.9397 304.4097,305.8301 305.8564,303.7158 306.5921,302.6406 307.8423,300.3514 307.923,300.2037 308.1933,299.7567 309.4716,297.6434 310.1212,295.9988 310.9612,293.9655 311.1573,293.1714 311.5722,291.4916 311.8853,290.224 311.5515,286.3496 311.4136,286.0239 310.9399,284.9051 310.4854,283.8318 308.6871,282.6062 305.2819,281.7207 301.4856,282.3643 298.1512,284.1535 295.4121,285.978 292.8045,288.0266 290.0351,289.9941 287.0622,291.9188 285.2254,293.766 282.6832,295.9467 281.6514,297.1541 281.4368,297.4052 281.4218,297.3947 281.3638,297.3546 279.8235,296.2845 279.2272,295.4794 280.3635,294.6429 280.6579,293.7555 281.5359,293.0938 281.9225,292.263 281.7588,292.0281 278.7827,291.68 276.3722,290.3539 275.5925,289.5828 275.4701,288.3076 276.5771,287.3074 276.5651,285.6851 277.4893,285.0896 278.718,285.0348 279.2226,285.3111 278.6682,286.2767 280.0622,288.0504 280.2665,287.7849 279.5949,286.5929 279.7677,286.1359 281.7657,286.1688 283.0155,285.6904 283.0735,285.3683 282.5582,284.6609 281.5145,283.9157 281.0549,282.8296 280.6274,282.4947 279.3165,282.5638 278.5155,280.9572 279.5651,279.2063 279.9929,277.3128 280.7548,276.7369 280.0539,276.0106 281.1803,275.7754 282.3397,276.5522 283.2263,276.3178 283.5064,275.5114 283.7683,274.7568 283.4387,273.6063 284.7669,274.2248 284.5273,272.988 287.0082,274.0018 286.8394,274.6503 285.6335,276.0827 285.873,276.3561 286.2097,276.358 287.1041,275.9971 288.1012,275.233 288.8619,273.5356 287.4347,272.0837 286.9943,270.6482 287.6823,269.7521 287.8973,267.1825 286.0676,265.8177 285.9863,265.4794 287.998,265.3788 288.2518,264.9432 287.992,263.9709 290.1064,262.844 290.8967,262.9711 291.5717,263.7452 292.4368,263.6334 292.6904,263.3125 292.4919,262.1162 293.4837,261.694" stroke="black" /></svg>