<?xml version="1.0" encoding="utf-8" ?>
<svg baseProfile="tiny" height="500" version="1.2" width="437.3665" xmlns="http://www.w3.org/2000/svg" xmlns:ev="http://www.w3.org/2001/xml-events" xmlns:xlink="http://www.w3.org/1999/xlink"><defs /><polygon fill="none" points="328.2968,273.0741 327.2911,273.4685 325.9297,273.5808 325.5048,274.1055 325.2547,274.4142 325.7089,275.6319 326.6165,276.3739 327.2941,277.4026 328.0227,279.1497 326.8364,279.5557 325.4194,279.4482 324.8119,280.036 325.2707,281.555 326.0289,282.8739 326.1791,283.519 324.1241,284.3662 324.7144,285.5119 325.4707,285.663 326.4666,286.3056 325.9244,286.7815 324.883,287.3675 323.7167,288.4467 322.9778,289.4232 325.8084,289.6212 327.1445,289.9224 326.8374,290.6586 326.3164,291.3814 325.3045,292.4225 325.8669,294.6715 325.589,295.5756 324.3273,297.1167 321.9319,298.9579 321.3873,300.3347 321.292,301.3817 320.9357,302.5146 319.1979,304.0875 318.492,305.9459 316.364,306.1366 315.8577,308.8698 314.9502,310.4907 314.5081,311.684 313.769,312.1404 313.0619,312.2068 312.3194,312.4177 311.7098,312.7408 311.9626,313.522 311.6612,314.2532 311.039,315.1024 310.7516,316.0203 310.1433,316.3614 309.331,317.2021 308.5093,317.7792 307.3108,319.2876 306.0592,320.2474 305.2192,320.1507 304.0911,320.3914 303.6834,321.2123 304.3439,322.8391 305.0517,323.8408 306.1632,324.7291 305.7234,326.8978 305.4016,327.4658 305.5239,328.3403 304.7574,328.9734 304.5124,329.2694 303.2684,330.7727 302.8769,331.7748 302.2028,332.2031 301.3538,332.5481 300.6801,335.0664 301.2204,338.2501 301.0415,339.1412 300.4784,339.9794 299.0656,340.4037 298.7308,342.2278 296.5834,343.4962 296.8843,344.1104 297.9419,345.0064 298.0791,345.4007 297.9154,345.5184 297.5433,345.592 296.7954,345.5514 296.7093,345.3056 296.1766,345.2338 295.6114,344.8023 295.2934,344.7023 294.9708,344.8291 294.9661,345.1568 295.2795,345.8154 295.6752,345.4588 295.923,345.4619 295.9734,345.8714 296.4354,345.9093 296.3258,346.3355 297.5656,346.6418 298.1372,346.517 298.7758,346.6858 299.2354,346.9868 299.5325,347.4651 299.3501,347.8241 298.9907,348.0171 298.0498,349.3849 298.0701,350.6309 297.1929,351.0314 296.3955,352.2373 295.8974,352.1669 295.7222,352.0003 295.5757,352.3266 295.7846,352.6907 296.7612,352.8806 296.6193,353.1959 295.928,354.0841 296.8436,354.9474 296.804,355.3067 296.17,356.2025 296.2332,356.859 296.4774,357.2874 296.4729,357.5812 296.2911,358.007 295.7918,358.1005 295.0433,358.0269 294.4914,358.1033 293.9881,358.491 294.0879,359.1159 294.58,359.6127 294.6475,360.0056 294.4286,360.463 293.4554,361.3006 293.211,362.692 292.8258,363.8574 292.1981,364.4211 290.8543,364.4998 289.6005,364.2484 288.8099,364.3544 288.8407,364.827 288.8951,365.6633 290.0938,366.8633 292.1494,367.9665 292.8434,368.1749 293.9021,369.1465 293.5509,370.3663 292.8082,370.9321 291.9979,372.0685 291.9795,373.105 292.1488,373.9314 292.4874,374.9245 294.3918,376.8253 294.0088,378.7858 294.2917,380.1854 294.291,381.1998 294.4938,382.2994 294.8133,383.1726 295.7553,383.8154 295.1506,385.0661 294.4275,387.6922 294.3893,388.5474 294.1252,389.459 293.6186,390.483 293.078,391.1845 293.2142,393.2711 293.3957,394.0531 293.2452,395.0567 292.7197,395.4507 292.3854,396.4791 291.777,397.521 290.9533,398.5534 290.6855,399.619 290.0399,400.0415 290.1274,401.5531 290.0567,402.6004 288.8411,403.7186 288.1682,404.8647 287.4095,405.7995 287.3154,406.0754 286.8897,407.3206 287.0254,408.2789 285.8428,409.2099 284.2236,411.4825 282.5531,411.4716 282.0798,414.4784 280.9707,415.5463 281.3225,417.2533 280.9367,417.9084 279.0163,417.7787 279.6517,419.2524 279.3499,421.0466 278.642,421.2498 277.2785,421.3565 276.6701,422.3759 276.6169,423.6258 276.7856,424.8353 276.3847,425.8034 274.9488,426.9997 274.3264,428.3869 273.2111,431.1704 273.046,433.5502 272.1328,435.6853 271.5458,436.5943 270.7189,437.2819 269.7043,437.7514 269.3647,440.1108 268.4532,441.1334 268.6651,441.2674 268.4843,441.5283 268.8044,441.6295 268.8009,441.8591 268.4422,442.052 267.6623,443.0098 267.1538,443.8572 266.9295,444.7415 267.2119,444.9406 266.9586,445.2323 267.0775,445.6444 266.721,445.7062 266.7167,446.0334 266.2902,445.9633 265.7158,446.3516 265.3165,446.8719 265.1845,447.3532 265.022,447.5568 264.5204,447.7154 264.3117,448.7798 263.8727,449.7258 263.5842,450.0172 263.5428,450.4433 262.6053,451.2847 262.3971,452.2828 261.8914,452.7384 261.2483,452.8286 260.1337,453.5724 246.5842,449.4769 245.7993,449.5342 244.8729,449.4585 244.1984,449.2864 241.8062,448.1292 240.5628,447.7889 238.7354,447.0969 237.595,447.0855 237.1314,446.9482 236.8144,446.683 236.2833,446.4794 224.7495,443.0283 207.9828,438.0077 197.9322,416.6057 197.1911,415.0275 197.0709,414.7716 189.6509,398.9712 187.4666,397.5664 186.0804,395.9666 185.5553,394.0528 185.6965,392.013 186.8207,390.6157 189.2837,385.1987 191.4423,381.7887 192.3017,381.2561 193.3807,380.269 194.1784,379.328 195.8993,376.7102 196.6013,376.0517 196.7468,374.9671 196.4439,373.8533 196.5175,373.1463 195.2221,370.2614 194.5643,368.7963 193.6868,368.0139 193.4499,367.0568 193.0808,366.3474 193.4989,365.2923 193.4714,363.5597 193.468,363.3416 193.8378,362.6585 192.4903,362.0503 191.7303,361.1408 191.3958,359.0178 190.9241,357.7442 190.888,357.0863 191.1562,355.8736 191.564,354.9276 191.747,353.8405 191.2271,350.8378 190.9023,349.963 190.6854,347.8588 190.7337,346.5711 190.481,345.197 191.5438,344.2463 191.8826,343.0055 192.2214,340.4106 191.9979,338.3069 191.1572,335.0092 190.2144,333.0879 190.1781,332.3599 190.3997,331.256 191.09,330.527 191.7791,329.3041 191.5452,328.4018 191.6161,327.0526 191.1855,326.0537 190.7573,325.0598 190.7011,324.2438 190.2775,323.5397 189.8782,321.7729 189.8534,321.0653 189.8388,320.6464 189.3504,319.4042 189.2037,318.3861 189.3376,317.5197 190.1444,314.6847 190.1239,313.7943 189.7903,313.2189 189.5562,312.344 188.9169,311.4893 188.9989,310.7313 188.8294,309.8241 188.834,308.3822 189.5382,307.3236 187.9181,304.822 187.3155,301.5875 186.5044,299.9933 186.3171,299.3312 186.5202,298.1079 187.0229,296.6516 187.1283,295.0998 187.0441,294.4544 186.3855,293.927 186.0377,293.1659 186.0006,292.9547 186.8421,291.9515 187.3618,290.9011 187.41,287.9293 187.7263,286.5928 187.8842,285.9246 187.6504,285.0047 187.5476,283.6031 186.8729,283.4283 186.8398,281.7193 187.0589,280.4247 186.755,279.8227 187.01,276.5593 187.9365,272.7051 188.0729,271.3558 188.423,269.9495 188.2419,268.5085 188.5464,267.307 188.4748,266.1786 189.248,264.9666 190.2151,262.6954 190.4481,260.8806 192.6387,257.9669 193.4522,256.508 192.7243,255.117 192.2739,253.4486 192.5051,252.8105 192.9808,252.0459 193.2543,251.9067 194.1287,251.4616 195.6588,250.9104 196.4697,249.3155 196.8545,247.8929 198.6485,246.9564 198.1584,246.1658 198.4413,245.3474 198.1898,244.4995 198.7793,243.3334 199.9259,241.9648 201.0066,239.9934 201.4294,238.7623 202.5356,236.5479 202.7952,235.5341 203.3508,234.5041 205.5909,233.6695 206.7888,233.4294 207.8356,233.3719 208.7258,233.1715 209.5549,232.8144 209.6916,231.5912 209.6546,229.64 209.4377,228.7479 209.4351,228.0032 209.7248,227.108 210.279,226.0671 210.0095,225.2144 210.3822,224.3459 210.5333,223.4459 211.3949,222.8244 211.6949,221.2276 213.1962,219.7562 213.7508,218.9307 213.8104,218.8419 216.3325,214.5291 217.4438,213.987 218.7286,212.7656 219.3159,211.9709 220.8209,210.9005 221.8458,209.205 222.6752,206.6431 222.7614,205.6838 223.2847,205.0382 224.7972,204.0767 225.7321,204.0441 228.192,202.9468 229.0644,201.07 232.8263,203.219 233.2312,203.8737 234.9504,204.6097 236.082,205.9153 237.5483,206.8617 239.0669,208.2679 239.5738,208.9979 240.194,210.2815 242.5579,213.4055 243.4501,214.1267 246.5546,218.3369 247.4651,220.6022 247.9369,222.5249 248.0525,224.8584 255.1342,226.3948 267.5685,229.0911 267.6611,229.5742 268.3146,229.8424 269.9386,230.892 271.0556,231.7966 272.0483,232.1357 272.841,232.7341 273.3371,232.8545 275.5008,234.1305 276.9031,234.5562 279.2835,235.9562 279.5332,235.1642 280.3179,233.5158 280.399,232.6475 293.8826,231.3572 305.0214,230.2902 304.6485,229.4229 304.5531,228.5355 304.7353,228.1283 305.3294,227.3692 307.2784,225.6455 308.5752,224.6031 310.1937,223.5577 311.3771,221.9951 312.3881,220.9274 313.9869,218.118 316.2346,215.3841 317.7117,212.9863 318.219,211.5622 318.4241,210.2237 319.2483,209.9616 321.2798,208.9334 323.0763,208.3195 324.5072,207.6055 325.5804,206.6566 325.7724,206.487 326.567,205.2452 326.9731,204.2988 328.8278,203.2184 330.2424,202.1204 331.1883,201.1238 332.6572,200.1128 333.3617,199.7986 333.8188,199.3114 334.1542,198.4807 334.5746,197.8135 334.7863,197.081 335.7229,195.7968 336.416,194.437 336.5637,192.9407 337.2404,192.2266 338.0181,192.0268 338.6259,191.7359 339.213,190.518 359.266,201.9844 360.1905,204.2768 360.6821,205.1317 360.9516,205.8524 361.0551,206.5205 361.6068,207.5288 361.5108,208.3676 360.763,208.4912 360.7349,210.1513 361.3567,210.9507 361.0549,211.5845 360.5443,212.1594 360.196,212.8868 360.2246,213.8017 360.7973,214.5188 361.6286,214.8722 361.4063,215.6471 360.8477,216.2384 360.6962,217.0625 360.1248,217.375 359.235,217.6085 358.5577,217.1999 356.6178,216.4782 356.028,216.9498 356.4632,218.5177 356.0954,219.2074 355.8951,219.9372 356.096,220.7906 356.0111,221.723 355.8091,222.5092 354.98,222.9613 354.8458,223.6372 353.653,224.9362 353.0406,225.4584 352.3839,225.8079 350.1626,226.5762 349.4365,227.0431 349.2676,227.818 349.8733,228.2997 349.9054,228.9734 349.2142,229.3688 348.5369,229.9464 348.3186,230.6155 348.3924,231.2899 348.8093,232.3659 348.7602,233.3138 348.4414,234.0294 348.001,234.522 347.6287,235.2446 347.986,235.7989 348.6562,236.0943 349.1976,236.6748 349.2002,237.4145 348.3688,237.5268 347.7136,237.445 345.5553,237.5758 345.0811,238.1838 346.9534,239.6061 347.5974,240.2579 348.0153,240.9065 347.0692,241.0807 346.3474,241.2133 345.6406,241.8778 346.3475,243.4381 346.0416,244.0921 346.7006,245.7351 346.4976,246.495 346.0462,247.0743 345.4065,247.3113 343.7874,246.7068 342.4878,245.4322 341.2725,246.7752 340.3621,247.3271 339.0817,247.7232 338.4768,248.4085 337.6296,249.7528 336.8862,250.2921 336.4841,251.0265 336.2616,252.8518 335.1158,254.1524 334.5136,256.1195 334.3772,257.7209 334.3942,258.6409 334.552,259.1205 334.9859,260.4397 334.9477,260.9491 334.8454,262.3037 334.4079,263.0696 334.1908,263.811 334.3728,264.6372 334.867,265.1914 335.5206,265.6782 336.0467,266.3636 336.162,268.1221 335.9435,268.7862 335.1888,268.8757 334.6827,268.3228 333.9509,267.7588 333.279,267.8585 332.539,267.6678 331.8159,267.8672 331.4417,268.5508 330.2095,270.0314 329.7721,270.8094 329.6841,271.5001 329.2309,272.1999 328.4227,273.0247 328.2968,273.0741" stroke="black" /><polygon fill="none" points="94.4883,133.5371 94.4519,133.9435 94.2389,134.1884 94.5598,134.7703 94.4973,135.0453 95.0625,135.0792 95.2102,135.1927 95.1715,135.8243 95.3683,136.6236 95.3056,136.8723 94.7055,137.1408 94.6442,137.2766 95.1741,137.6965 95.2245,138.3302 95.096,139.0162 95.1803,139.3757 96.0033,140.1837 96.1182,140.4887 96.1361,141.2861 96.3077,141.8389 96.2415,142.3058 96.4378,143.1901 96.3151,143.4359 96.299,144.5651 95.9105,145.921 96.0408,147.9392 95.8858,148.4412 95.8392,149.6221 95.4152,150.0043 94.5165,150.4607 93.3821,150.5844 93.1402,150.7198 92.0365,150.6788 91.1693,150.9162 90.6934,150.856 89.2299,151.0593 88.0279,151.7035 86.4149,151.9324 85.6872,152.7481 85.5568,153.2137 84.1334,155.1239 83.8044,155.1481 83.5018,155.4198 83.4928,156.0524 83.337,156.5462 83.0623,156.9559 80.6525,158.6607 79.501,159.9123 77.8708,161.2691 77.0496,162.4421 76.9519,162.992 74.9839,165.0586 73.8729,165.5409 69.6534,166.6172 67.6672,167.7768 67.6308,169.1012 67.162,186.0128 67.0626,186.6657 67.1171,187.0802 67.981,189.1838 68.0012,189.8447 68.6917,191.5877 68.6851,192.0279 67.9407,194.0011 67.8352,195.0733 67.5157,196.5289 66.6996,198.3162 66.4997,198.527 65.4853,198.6512 64.4556,199.6836 63.6469,199.8952 63.1947,200.2194 62.8945,200.2982 61.7027,200.0908 60.9844,200.3834 58.683,200.6034 57.3715,200.5317 57.1607,200.6394 56.8867,201.0205 55.3917,201.1961 53.858,202.0569 53.3179,202.2425 53.0429,202.6521 52.5328,202.8106 51.4893,202.7984 50.5588,203.1718 48.8887,203.0952 48.0482,203.4153 46.8852,203.4006 46.3461,203.5039 45.9808,203.6921 44.8543,203.5674 44.1919,203.8612 43.9541,203.8589 43.66,203.5797 42.7321,203.7612 40.8021,203.1304 39.87,203.5316 38.9813,203.162 38.3928,203.0963 38.0317,202.9857 37.3684,203.2515 36.8394,202.7211 36.6067,202.3061 36.3385,202.2201 35.7995,202.4061 35.6223,202.3207 35.5707,201.7148 35.3643,201.5468 34.6382,200.3556 34.2389,199.0544 33.2367,198.2157 33.7757,198.1125 33.9281,197.8945 34.2759,196.5758 34.3535,195.3684 34.0062,194.7288 34.4307,194.2668 34.5863,193.8553 34.5631,193.3863 34.3305,192.9707 34.3944,192.6968 34.2206,192.3636 34.1385,191.8122 34.4459,191.2655 33.5533,191.1452 33.0197,190.8614 32.6388,190.4167 32.1624,190.3825 31.7765,190.2123 31.6013,189.9082 31.8126,189.8005 32.0499,189.885 32.2605,189.751 31.7719,188.5051 31.5067,188.3369 30.9986,188.3577 30.8506,188.2721 30.7113,187.6931 30.4456,187.4701 29.8773,187.545 29.672,187.3501 29.8575,186.8842 29.486,185.8611 29.4902,185.5585 29.7359,185.0379 29.6702,183.4955 28.9929,182.9085 28.8501,182.494 28.9723,182.3025 29.5436,182.0061 29.6437,181.3209 28.8803,180.512 28.8286,179.9615 29.0394,179.8532 29.0724,179.6607 28.8981,179.3148 28.8453,178.8564 28.3582,178.5055 28.1833,178.2419 28.1293,177.7868 27.5284,177.225 27.5256,176.3761 27.1684,176.3005 26.9778,176.0929 26.591,176.0192 26.3424,175.6848 26.3638,175.2868 26.2084,175.1787 26.172,174.9932 25.7153,174.7259 25.5122,174.3523 25.1283,174.113 24.9835,173.8229 24.4655,173.5407 23.9134,173.4647 23.6792,173.2969 23.4889,173.0454 23.2022,172.2163 22.939,171.91 22.0186,171.6922 21.1591,171.2806 20.8052,171.0005 20.3073,170.2128 19.6205,170.4073 18.9223,170.3295 18.9715,169.9176 18.2491,169.3165 17.9645,168.4299 17.6741,168.0579 16.648,167.7673 16.4399,167.5149 15.8466,167.1547 15.6475,166.8315 15.7894,166.3373 15.2395,166.15 15.0488,165.9967 14.9635,165.7078 15.2209,165.3938 15.0237,164.8398 14.9646,163.9156 15.0997,163.616 15.0475,163.231 14.4942,163.3058 14.2409,163.2054 13.6553,162.5234 13.2116,161.2503 13.0873,160.2568 13.131,159.7353 13.3454,159.3936 13.5049,158.7075 14.274,158.0845 14.6608,157.1942 14.6045,156.9726 14.1809,156.4167 13.9913,155.1069 13.7851,155.0216 13.2876,155.3316 12.914,155.2715 11.9271,154.7789 11.3931,154.398 11.1283,154.1053 11.0535,153.9457 10.8682,153.5517 10.7468,152.7939 10.6281,152.6543 10.0963,152.399 9.8797,151.9547 9.9397,151.8036 10.189,151.1756 11.4015,149.9371 12.1675,148.584 12.4563,148.2572 12.6955,147.2555 11.9463,146.5296 10.3099,145.4359 9.4914,144.1574 9.2567,143.0084 10.2946,140.4079 10.8071,140.0577 10.9058,139.4943 10.8206,139.1341 10.8583,137.7034 10.2945,136.5537 10.1708,135.8902 10.223,135.3955 10.6482,134.7955 10.3546,134.5298 10.3353,133.8416 9.7341,132.2098 9.9503,131.7157 9.5869,131.0784 10.2373,130.5076 10.3896,130.2902 10.4565,129.8497 11.0043,129.5487 11.3749,129.2148 11.0773,129.1278 11.0225,128.8662 11.2721,128.7156 11.7715,128.6143 12.0938,128.0133 12.3816,127.727 12.7462,126.2586 13.0056,125.9052 12.9936,125.7249 12.5564,125.0716 12.8618,124.526 12.6784,123.8897 12.8686,123.1765 12.5453,122.8278 12.4913,122.5108 12.5747,121.8915 12.494,121.3264 12.6954,120.8472 12.7732,120.2822 11.6332,119.8382 10.9468,119.4484 10.7814,119.2526 11.0115,118.8018 10.7047,118.4255 10.6962,117.9849 9.9042,117.0493 9.0759,115.6908 8.9125,114.7672 8.9644,114.6353 9.0675,114.3699 9.4023,113.9343 9.4392,113.4523 9.7426,113.1117 9.822,112.7687 10.734,111.5973 10.9691,110.8553 10.7847,110.2475 10.6939,109.352 10.3029,108.5887 9.7639,108.6957 9.3786,108.6191 8.6438,107.9347 8.3619,107.8762 7.6,108.0453 7.3199,107.8201 7.193,105.3825 7.723,104.8514 8.6183,103.6017 9.1626,103.2465 9.417,102.2172 10.0234,101.4938 9.957,101.0273 10.1724,100.5195 10.0732,100.2685 10.7478,98.9714 10.725,98.5298 11.1432,97.4891 11.2626,96.5123 10.898,95.944 10.9056,95.4347 10.523,95.1543 10.7382,94.7013 11.315,94.0066 11.3789,93.7333 11.322,93.5807 11.1143,93.5228 11.121,93.0552 12.2906,91.0047 12.4166,90.7831 12.1375,90.0432 11.6343,87.7077 11.0633,87.0787 10.934,86.76 11.0689,85.7167 10.8027,85.1943 10.7586,84.5961 10.5993,84.2507 10.7796,84.1432 11.2871,84.1357 11.6394,84.4142 11.8052,84.3479 11.9272,84.1438 11.7792,83.0683 12.0723,82.3852 12.3146,82.484 12.5803,83.4289 12.8694,83.5827 13.349,83.7349 13.5904,83.6342 13.861,83.3705 13.8951,83.0809 13.6784,82.2667 13.2232,81.2281 13.3823,80.5689 12.6336,78.8383 12.327,78.3941 11.7798,78.1667 11.7223,78.0141 11.8154,77.7538 12.6013,77.0205 12.7454,76.6677 12.9268,76.2259 13.5168,75.655 13.5937,75.4501 13.6018,74.9245 13.6094,74.4311 12.9753,74.0097 13.3029,73.0227 12.698,72.6839 11.9054,71.8481 12.3307,71.3171 12.3925,70.2704 12.8197,69.4253 12.9114,68.4059 12.3946,68.1087 12.2965,67.6818 12.7866,66.8336 12.6696,66.6672 11.7633,66.6635 11.4348,66.5543 11.2742,66.3327 11.1499,65.7251 11.2139,65.3959 12.313,64.6387 13.7226,63.9827 14.957,63.1583 15.3505,62.7514 15.9304,62.8393 16.1728,62.5533 16.0326,61.891 15.1078,61.0533 15.0683,60.7641 15.2665,60.5184 15.9395,60.2797 16.1359,60.1025 16.0227,59.6466 16.2569,58.9617 16.3486,57.7921 16.0429,57.2925 16.0818,56.6882 15.2922,55.8376 15.2218,55.4511 15.3708,54.4888 14.9748,54.1405 14.8076,53.3391 14.6432,53.126 14.121,52.4489 13.8224,51.536 14.1554,50.1631 14.7697,48.9617 14.9971,48.729 15.3822,47.8393 15.8057,47.4047 15.8473,46.6881 16.3157,46.2264 16.7004,45.5192 16.8362,45.269 16.9163,44.8579 17.3271,44.3254 17.4088,43.8853 17.8302,43.5752 17.7962,42.83 18.1618,42.2708 18.0074,41.6914 18.4266,41.4892 18.6851,41.1346 18.3542,40.428 18.3864,40.208 18.8239,39.8419 18.938,39.2109 19.303,38.7471 19.2648,38.2228 19.571,37.4278 20.209,36.8045 20.5792,36.0776 21.1052,35.7136 21.1744,35.0396 21.8615,34.8823 21.9435,34.4982 21.8396,33.3687 21.9783,33.1085 22.7449,32.6356 22.6614,32.2503 23.281,31.638 23.772,31.6853 23.8632,31.5088 23.694,30.9273 24.1578,30.7544 24.4912,29.3821 24.2989,29.2967 24.1834,29.0755 24.3524,28.6639 24.2852,28.1677 24.83,27.6244 25.0543,27.5578 25.3077,27.5611 25.9115,27.9547 26.2097,27.9994 26.6456,27.659 26.6859,27.4937 26.5768,27.2642 26.4771,26.3819 26.1598,25.8292 25.735,25.4252 25.7481,24.6277 26.29,24.4351 26.1367,23.8349 26.3005,23.6869 26.9457,23.8199 27.2126,23.9727 27.2623,24.2728 27.0983,24.4706 27.0917,24.8685 27.4108,25.1718 27.9543,24.879 28.7225,23.9916 28.8431,23.1468 28.6891,22.6205 28.857,22.2248 29.7225,21.9858 30.6493,21.2981 30.7137,20.5523 31.2083,20.0602 31.2715,19.3873 30.5827,18.5811 30.3804,18.0946 32.7872,19.0088 34.2404,19.2258 36.8797,19.3344 39.0972,18.9632 41.9906,16.5318 43.1856,15.9485 48.2138,15.0152 51.4524,14.7812 53.7232,14.3606 56.2152,13.5439 58.6654,11.8543 60.8402,10.5369 62.8575,9.1137 64.1212,7.5087 65.1722,5.6277 65.4813,2.9389 65.4507,1.3184 65.7855,0.5247 66.9245,0.0407 67.6797,0.0 68.9644,0.6885 70.6609,2.604 73.7183,7.453 74.6194,8.5107 76.5983,9.6574 76.8527,10.7579 76.5657,11.9497 71.4637,20.749 70.6225,22.0871 67.8421,25.8182 66.843,27.7613 66.5587,29.1647 66.5363,30.7537 67.0833,32.5543 68.2544,33.8936 68.6297,34.1552 67.9425,34.8088 67.7588,35.1367 67.8647,36.0732 67.5075,36.0691 67.2718,35.9018 67.3421,35.1861 67.0463,35.073 66.2645,35.6138 66.6744,36.0582 66.9029,36.6662 67.4979,36.729 67.9676,37.2301 68.3915,36.7405 68.7489,36.6904 68.9801,37.1881 68.6133,37.8439 68.6016,38.6157 68.8805,39.8843 68.8736,40.4335 69.326,42.0363 69.0717,43.1879 69.1266,43.5186 70.0059,44.4104 70.1673,45.6786 70.4336,46.2078 70.9192,47.1731 71.213,47.3974 71.0847,48.056 71.3146,48.608 70.7736,48.9323 71.3004,49.6549 71.1154,50.0377 71.9969,50.8187 72.0531,51.094 71.8716,51.2569 71.3363,51.2507 71.3891,51.6921 72.0875,52.8005 72.1312,53.9572 71.9372,55.001 72.1077,55.5528 72.362,55.9528 73.4469,57.6603 74.6816,58.6664 75.4166,61.4275 75.4105,61.9225 74.9882,62.2476 74.9839,62.5222 75.3931,63.0779 75.7928,64.293 76.1415,64.8486 76.6034,66.6294 76.7076,66.8912 76.8848,67.004 77.1089,67.9972 77.6311,68.939 77.6216,69.599 77.905,70.5934 78.5518,71.153 78.8663,72.0935 79.3924,72.7037 79.3859,73.2255 79.6478,73.6139 79.8768,74.2498 102.3895,78.5928 102.4106,79.1933 102.2287,79.5202 102.4319,79.8262 102.3092,80.128 102.5139,80.4044 102.4794,80.6803 102.7128,81.0398 103.3312,81.516 103.5052,81.876 104.0339,82.4888 104.9861,84.5914 105.9942,85.6568 106.2405,86.4223 106.3757,87.5251 106.5751,88.0778 106.8688,88.4117 107.3024,89.3529 107.1724,90.1216 107.6685,90.8706 107.5386,91.5845 107.5938,91.9979 108.3896,92.5852 108.9107,93.6102 109.3907,93.7103 109.475,93.9212 110.2426,94.2588 110.3871,94.5641 110.6234,94.7043 110.849,95.6152 112.0789,97.171 112.7309,97.3159 112.482,98.1393 112.9962,99.7408 113.0688,100.8704 112.9719,101.4203 113.2245,102.5518 113.2457,103.1573 113.7829,105.2284 113.4385,106.4065 113.7918,108.8335 114.0563,109.1396 114.2271,109.6645 114.2968,110.5913 114.4999,111.5659 114.805,112.2433 115.6653,113.2603 116.6827,115.1979 117.3729,116.9412 117.6372,117.2188 117.8081,117.8264 118.2181,118.3271 118.3909,118.7418 118.3986,120.393 119.0968,121.5301 119.7236,123.6837 120.7422,125.4021 121.8948,128.1104 122.3523,129.6328 122.4529,131.502 122.4706,131.8362 122.9992,134.5671 94.4883,133.5371" stroke="black" /><polygon fill="none" points="193.8726,79.0427 193.9052,79.2255 193.454,79.7876 193.5898,80.0183 193.2471,80.63 193.0165,81.4112 193.0623,82.1052 192.8049,82.6921 192.876,83.6171 192.4023,83.6889 191.7599,83.9901 191.3094,84.4338 190.557,84.6049 189.746,85.0323 189.3844,85.0287 189.1382,84.7944 189.0304,84.5103 188.7531,84.5087 188.0544,84.9495 187.7195,84.9462 187.2694,85.3773 186.8225,85.5776 185.0675,85.943 184.7868,86.1453 184.3326,86.8976 183.4307,87.8371 183.2005,88.5536 183.0017,88.8084 183.0477,89.5402 182.7937,89.871 182.7899,90.1533 182.2528,90.8147 182.248,91.1228 181.9116,91.4011 182.0725,91.9676 181.7915,92.1442 181.7012,92.6442 180.4355,93.8622 181.1434,94.8956 181.094,95.329 180.8561,95.7277 180.2392,96.1064 180.2548,96.9524 179.9463,97.2322 179.8575,97.6418 179.5174,98.0999 179.2556,99.0594 179.2744,99.7263 178.5143,100.4886 178.3038,100.6147 178.2997,101.6893 178.5191,102.0184 178.19,102.7132 178.0803,103.3349 177.7146,104.2125 177.6415,105.1267 176.0691,104.9073 173.875,104.1393 168.2467,99.5282 168.1042,99.7291 164.7298,102.3265 159.3231,106.4873 148.5631,114.7658 147.0085,116.7118 145.2991,119.7474 114.2968,110.5913 114.2271,109.6645 114.0563,109.1396 113.7918,108.8335 113.4385,106.4065 113.7829,105.2284 113.2457,103.1573 113.2245,102.5518 112.9719,101.4203 113.0688,100.8704 112.9962,99.7408 112.482,98.1393 112.7309,97.3159 112.0789,97.171 110.849,95.6152 110.6234,94.7043 110.3871,94.5641 110.2426,94.2588 109.475,93.9212 109.3907,93.7103 108.9107,93.6102 108.3896,92.5852 107.5938,91.9979 107.5386,91.5845 107.6685,90.8706 107.1724,90.1216 107.3024,89.3529 106.8688,88.4117 106.5751,88.0778 106.3757,87.5251 106.2405,86.4223 105.9942,85.6568 104.9861,84.5914 104.0339,82.4888 103.5052,81.876 103.3312,81.516 102.7128,81.0398 102.4794,80.6803 102.5139,80.4044 102.3092,80.128 102.4319,79.8262 102.2287,79.5202 102.4106,79.1933 102.3895,78.5928 79.8768,74.2498 79.6478,73.6139 79.3859,73.2255 79.3924,72.7037 78.8663,72.0935 78.5518,71.153 77.905,70.5934 77.6216,69.599 77.6311,68.939 77.1089,67.9972 76.8848,67.004 76.7076,66.8912 76.6034,66.6294 76.1415,64.8486 75.7928,64.293 75.3931,63.0779 74.9839,62.5222 74.9882,62.2476 75.4105,61.9225 75.4166,61.4275 74.6816,58.6664 73.4469,57.6603 72.362,55.9528 72.1077,55.5528 71.9372,55.001 72.1312,53.9572 72.0875,52.8005 71.3891,51.6921 71.3363,51.2507 71.8716,51.2569 72.0531,51.094 71.9969,50.8187 71.1154,50.0377 71.3004,49.6549 70.7736,48.9323 71.3146,48.608 71.0847,48.056 71.213,47.3974 70.9192,47.1731 70.4336,46.2078 70.1673,45.6786 70.0059,44.4104 69.1266,43.5186 69.0717,43.1879 69.326,42.0363 68.8736,40.4335 68.8805,39.8843 68.6016,38.6157 68.6133,37.8439 68.9801,37.1881 68.7489,36.6904 68.3915,36.7405 67.9676,37.2301 67.4979,36.729 66.9029,36.6662 66.6744,36.0582 66.2645,35.6138 67.0463,35.073 67.3421,35.1861 67.2718,35.9018 67.5075,36.0691 67.8647,36.0732 67.7588,35.1367 67.9425,34.8088 68.6297,34.1552 69.561,34.8033 73.0506,37.6016 75.412,38.9343 77.1652,39.7296 78.9234,40.1181 80.3794,40.0336 83.8271,39.4238 86.2994,39.2701 88.0602,39.4551 89.6808,40.2084 92.7995,41.0815 94.3399,41.3036 95.7521,41.1577 97.8844,40.144 98.9084,39.3409 101.5281,38.1499 102.7303,37.2469 104.598,36.1681 106.368,35.7005 108.1181,35.7444 110.0209,36.173 112.4489,37.4522 114.4128,38.9879 115.2442,39.9826 116.7271,41.1792 117.7369,41.7205 118.9303,42.3601 122.7987,43.6378 124.1319,43.628 127.3042,43.1009 128.3581,43.1128 130.1838,43.5712 132.7448,43.0358 133.5855,42.4815 134.2077,41.6416 134.7091,41.4422 135.5429,41.4518 137.0336,42.0852 138.4157,42.5111 139.6356,42.7058 141.1915,42.5187 142.5877,41.9184 143.8817,40.7018 144.8398,39.6088 145.9612,38.7486 147.3045,37.9442 151.5415,36.6322 153.2638,36.5499 154.9804,36.8256 157.0792,37.6447 157.9726,38.0834 158.8993,38.5382 160.494,39.6861 164.4407,43.5029 165.2023,44.7701 165.8399,46.8817 166.2179,47.6554 166.9239,48.2867 167.6521,48.3632 169.3774,48.0751 170.152,48.2905 170.9195,49.0172 171.352,49.7159 171.8647,53.2611 172.7201,54.4442 173.0628,54.9188 174.326,55.9852 175.7572,56.9758 177.9117,57.7698 180.2472,58.1042 184.1853,58.0152 188.8621,56.9682 189.914,57.1855 190.8498,57.863 191.7773,59.1056 192.4088,61.8063 192.6775,62.4776 193.1152,62.9432 193.9419,63.4917 197.1621,63.6601 197.3769,64.1461 198.0382,64.5386 198.034,64.845 198.4226,64.952 198.5868,65.1091 198.584,65.3135 198.1373,65.4635 197.9676,65.7175 197.9627,66.0765 196.9553,66.681 196.4959,67.8576 196.5416,68.602 195.8622,69.6209 195.9865,70.7702 195.9014,70.8723 195.5418,70.8171 195.5105,71.03 195.3143,71.1813 195.8652,71.4963 195.9758,71.7015 195.5249,72.1589 195.7057,73.1374 195.8414,73.2919 195.559,73.7507 195.6896,74.4325 195.5741,74.765 195.2365,75.0955 194.773,76.6048 194.4618,76.9603 193.828,78.7888 193.8726,79.0427" stroke="black" /><polygon fill="none" points="262.3499,166.0546 262.259,166.0849 261.7301,166.2606 261.3849,165.9853 261.2239,165.9834 261.0295,166.5512 260.7564,166.9197 260.3243,167.1378 259.8962,167.06 259.6033,166.7842 259.1974,167.1259 258.8739,167.2219 258.6921,167.8022 258.3117,168.1941 257.3976,168.3584 257.7969,168.636 257.7945,168.8087 257.6865,168.8819 257.2853,168.7046 257.2041,168.7777 257.4161,169.0526 257.3992,169.3136 256.8036,169.703 256.5818,170.3193 256.712,170.6179 256.3045,171.0353 256.2172,171.555 255.9161,172.0958 255.9641,172.5431 255.4893,172.9457 255.3783,173.1928 255.1907,173.2651 255.0043,173.115 254.3062,173.0827 253.4432,173.4202 253.2858,173.1465 252.9363,173.143 252.6181,172.891 252.1151,173.4434 251.9297,173.2182 251.5247,173.3636 251.1004,172.9624 250.1094,172.8275 250.0872,172.4566 249.8456,172.4292 249.175,173.45 248.0206,173.4875 247.9621,173.8091 248.1976,174.1128 247.916,174.4101 247.1709,174.8408 246.4866,174.8709 246.1332,175.1885 246.0769,175.4362 245.5648,175.6292 245.265,176.0707 245.2586,176.4928 244.6653,176.7111 244.4475,176.9799 244.4562,177.3076 244.0288,177.2362 243.8636,177.5314 243.8604,177.8038 243.5356,177.9485 242.9654,178.5125 243.0131,178.9346 242.6369,179.054 242.633,179.3757 242.388,179.5971 242.2873,180.1526 242.0188,180.2234 241.8585,180.1234 240.8606,180.4844 240.6558,181.0348 239.5636,181.7084 238.411,183.4529 238.2411,184.2808 237.5632,184.9552 236.9919,185.9521 236.0636,187.0841 234.6981,188.4275 234.0595,189.3488 233.416,189.7867 233.215,190.4899 232.101,192.6148 231.3582,193.229 229.9095,194.0037 229.2661,194.4646 228.7985,195.2572 228.6292,197.3685 228.6157,197.5363 228.5449,198.422 228.783,200.1688 229.0644,201.07 228.192,202.9468 225.7321,204.0441 224.7972,204.0767 223.2847,205.0382 222.7614,205.6838 222.6752,206.6431 221.8458,209.205 220.8209,210.9005 219.3159,211.9709 218.7286,212.7656 217.4438,213.987 216.3325,214.5291 213.8104,218.8419 212.5604,219.0759 211.6138,218.9036 210.2986,218.3221 209.3167,218.2541 207.6188,217.9296 203.8068,216.6175 198.6984,214.1228 196.3692,213.1987 194.0074,212.9544 191.9323,212.3417 190.1458,212.0049 185.6952,212.4515 184.1085,212.4764 182.3244,211.8216 188.4602,199.2439 190.6858,194.5559 191.3955,192.808 193.4194,189.4961 194.4444,186.6774 196.8935,181.132 197.7708,179.644 198.5101,178.6526 200.6767,174.3089 202.8516,169.9487 202.9182,169.8153 205.0405,165.5604 205.3142,165.0118 205.3672,164.9039 205.3943,164.8496 205.7258,164.1844 206.6421,162.3461 207.7433,160.1366 213.0364,149.5168 225.1029,125.3071 225.1041,125.3046 229.7735,115.9308 230.051,116.4184 230.2595,116.7855 230.0155,118.4601 230.4187,119.7534 230.407,120.7197 229.8402,121.3586 229.9602,122.9063 229.8139,123.4841 230.0191,123.8073 230.0012,125.2263 229.8532,125.8041 230.2676,126.2593 230.3892,127.613 230.095,128.8985 230.5026,129.8058 230.8986,131.6779 230.8807,133.0311 231.4294,133.9669 239.4147,134.5177 238.5915,141.8108 241.3489,142.0649 242.6393,141.1972 246.3459,138.7038 249.2802,135.7063 250.5334,134.0595 252.6037,132.3907 255.8757,130.331 258.475,129.0049 259.7958,128.6896 261.8056,127.0097 262.2042,126.6099 262.5722,126.8692 262.4962,127.6738 262.7889,127.7759 262.89,128.2973 263.4186,128.9711 263.36,129.342 262.5791,129.5819 261.986,129.8979 262.0621,130.1959 262.4757,130.4361 262.6837,131.3588 264.0074,132.4091 264.4277,133.1808 264.1219,134.045 264.0417,135.0722 264.2243,135.5446 264.6521,135.7217 265.3402,136.4225 266.2708,137.0269 266.6173,137.3768 266.5157,138.0079 265.9712,138.5969 265.637,139.5349 265.7113,140.1058 266.6128,140.9817 267.1886,141.0495 267.3393,141.9414 268.2125,142.9436 268.528,143.5162 269.0324,143.9666 269.5723,144.8024 269.5926,145.3223 269.0759,145.9616 269.0906,146.9029 269.6257,147.0571 270.0751,147.5331 270.5963,147.7734 271.5067,147.956 271.5833,148.2288 270.4671,149.6039 270.3051,150.7551 269.3851,151.4149 269.1821,151.7127 268.5774,151.8392 268.6249,152.1254 270.9076,153.1265 272.8639,153.321 273.4753,153.7726 273.7659,154.1717 273.3316,155.6914 273.002,156.3317 272.9967,156.7779 273.4254,156.9806 274.7095,157.1428 274.9226,157.2927 274.4652,158.4887 273.5489,158.8274 273.6494,159.4469 272.8601,160.3308 271.5022,160.5529 271.4189,160.8238 271.175,160.9701 271.1724,161.168 270.9025,161.388 270.7859,162.1064 270.9399,162.6278 271.8289,163.4665 271.929,164.1118 271.7589,164.2651 270.9241,165.0141 269.6323,165.4262 269.415,165.672 269.5042,165.9573 269.98,166.557 269.7593,167.0993 268.7057,167.5598 268.2525,167.3567 267.6748,166.3847 267.1138,166.1064 267.0041,165.225 266.1795,164.623 265.5861,164.8146 264.0463,165.6651 263.6596,165.4505 263.7768,164.6104 263.3219,164.5317 262.7174,165.7148 262.4177,166.032 262.3499,166.0546" stroke="black" /><polygon fill="none" points="332.3697,171.9932 330.6291,173.2221 328.1647,175.1478 322.2686,180.865 321.2628,181.4467 315.9526,180.9698 302.1135,178.913 301.3774,179.7583 299.9501,180.4445 297.9201,180.9746 292.4372,182.1065 292.3004,182.3187 290.6457,183.4847 271.7589,164.2651 271.929,164.1118 271.8289,163.4665 270.9399,162.6278 270.7859,162.1064 270.9025,161.388 271.1724,161.168 271.175,160.9701 271.4189,160.8238 271.5022,160.5529 272.8601,160.3308 273.6494,159.4469 273.5489,158.8274 274.4652,158.4887 274.9226,157.2927 274.7095,157.1428 273.4254,156.9806 272.9967,156.7779 273.002,156.3317 273.3316,155.6914 273.7659,154.1717 273.4753,153.7726 272.8639,153.321 270.9076,153.1265 268.6249,152.1254 268.5774,151.8392 269.1821,151.7127 269.3851,151.4149 270.3051,150.7551 270.4671,149.6039 271.5833,148.2288 271.5067,147.956 270.5963,147.7734 270.0751,147.5331 269.6257,147.0571 269.0906,146.9029 269.0759,145.9616 269.5926,145.3223 269.5723,144.8024 269.0324,143.9666 268.528,143.5162 268.2125,142.9436 267.3393,141.9414 267.1886,141.0495 266.6128,140.9817 265.7113,140.1058 265.637,139.5349 265.9712,138.5969 266.5157,138.0079 266.6173,137.3768 266.2708,137.0269 265.3402,136.4225 264.6521,135.7217 264.2243,135.5446 264.0417,135.0722 264.1219,134.045 264.4277,133.1808 264.0074,132.4091 262.6837,131.3588 262.4757,130.4361 262.0621,130.1959 261.986,129.8979 262.5791,129.5819 263.36,129.342 263.4186,128.9711 262.89,128.2973 262.7889,127.7759 262.4962,127.6738 262.5722,126.8692 262.2042,126.6099 262.385,126.1781 262.3551,125.695 262.0811,125.3374 261.7889,125.397 260.8941,125.2608 260.4831,124.5158 260.1725,124.3514 259.9373,123.6087 260.5709,123.1302 260.5758,122.7449 261.3519,122.0431 261.1105,121.7838 261.2191,121.4951 260.8761,121.0088 261.7377,120.474 262.3244,119.6045 263.1261,119.7103 264.0472,118.5601 264.9631,117.8285 264.9053,116.8936 265.3617,116.6418 266.0934,116.809 266.1673,116.5524 266.9332,116.5281 267.2381,117.4011 268.075,117.409 269.2765,116.3264 270.6024,116.2444 270.922,115.8601 272.0815,115.1954 273.8423,113.8928 274.6646,115.1585 276.573,116.0796 278.6032,115.6486 279.4449,115.2705 278.7181,114.7811 279.4405,113.9038 280.6619,112.7057 281.1255,111.9053 282.1234,110.6939 282.7073,110.9867 284.7109,109.7508 284.2644,109.1981 284.6162,108.9444 285.0655,109.3673 286.2129,109.7021 287.4669,109.9066 288.193,110.4946 289.1408,110.053 291.4081,110.0432 291.6265,109.3688 290.7937,108.9106 291.159,108.7538 291.8071,108.8235 292.6275,110.2819 293.0409,109.6819 293.6551,109.2532 295.6867,108.3796 296.2566,108.9662 296.59,108.71 296.1083,108.1576 296.6692,107.9053 297.13,107.2982 297.3827,106.5594 297.7931,107.336 298.2792,107.5354 298.9341,108.3464 299.6365,107.8379 300.3333,107.9099 302.6745,107.7715 303.0858,107.5293 304.2901,106.821 304.5452,105.9862 304.864,105.5388 305.4271,105.0606 306.7262,104.3969 306.5615,103.8844 306.2892,103.0386 306.8902,102.337 308.1835,102.1239 309.2417,101.1999 308.1373,100.1262 308.7722,99.4873 308.9167,99.0706 308.6829,98.1669 308.6163,97.3416 310.0873,98.1209 310.9432,98.2521 312.1308,98.2026 313.4556,97.6668 314.5188,96.9455 315.5762,96.7728 316.7617,96.9683 317.6808,97.2819 318.9869,98.3913 320.9417,100.4822 322.1761,102.0778 323.0168,103.6087 324.3214,104.78 326.1531,106.1381 327.847,107.9189 329.4177,108.9709 330.9928,109.7778 333.7004,110.4764 335.8587,110.7625 336.9224,110.7687 338.5591,110.6093 339.2843,110.6692 340.3928,111.0087 342.1685,112.5259 343.2951,113.7217 343.5494,113.9921 346.6668,118.5168 347.7917,120.7927 348.2018,121.9582 348.489,124.6263 349.5389,127.6076 349.6216,128.6546 348.3891,131.4006 348.0882,132.6684 347.9848,133.9649 348.2042,137.1412 348.4035,137.9387 348.7093,141.2347 349.4204,144.6972 349.655,148.098 349.9604,149.7987 350.2771,150.4757 350.9165,150.7933 351.5595,150.9509 353.1542,151.0508 354.3424,150.7799 338.6602,166.3236 333.8225,170.9676 332.3697,171.9932" stroke="black" /><polygon fill="none" points="408.8628,206.9242 409.432,207.0843 410.0888,207.4112 410.7619,207.9368 413.3781,210.8723 413.8023,211.4673 415.3522,212.7486 416.2443,213.2341 417.7622,213.3167 418.575,213.2144 421.8787,211.2074 423.3625,210.4124 424.3219,210.2006 425.5826,210.0661 428.185,209.5228 429.1808,209.1834 432.703,208.9704 434.4599,209.1489 435.9723,209.8286 437.3665,210.1917 372.6427,286.0208 361.9022,298.5865 357.7389,303.4563 321.3627,345.9733 321.5447,345.3194 320.7655,344.9378 318.774,343.6423 318.5904,342.6796 318.6262,341.6764 318.9113,340.9284 319.0969,338.5862 318.8937,337.8922 318.167,337.3511 316.7724,337.1567 316.3992,335.324 315.9091,334.2677 315.3887,333.4266 314.0515,333.0831 313.5644,332.1288 312.9237,331.2849 312.1855,330.7757 310.717,330.463 310.5112,329.7356 309.4867,329.126 308.4582,330.2981 305.5239,328.3403 305.4016,327.4658 305.7234,326.8978 306.1632,324.7291 305.0517,323.8408 304.3439,322.8391 303.6834,321.2123 304.0911,320.3914 305.2192,320.1507 306.0592,320.2474 307.3108,319.2876 308.5093,317.7792 309.331,317.2021 310.1433,316.3614 310.7516,316.0203 311.039,315.1024 311.6612,314.2532 311.9626,313.522 311.7098,312.7408 312.3194,312.4177 313.0619,312.2068 313.769,312.1404 314.5081,311.684 314.9502,310.4907 315.8577,308.8698 316.364,306.1366 318.492,305.9459 319.1979,304.0875 320.9357,302.5146 321.292,301.3817 321.3873,300.3347 321.9319,298.9579 324.3273,297.1167 325.589,295.5756 325.8669,294.6715 325.3045,292.4225 326.3164,291.3814 326.8374,290.6586 327.1445,289.9224 325.8084,289.6212 322.9778,289.4232 323.7167,288.4467 324.883,287.3675 325.9244,286.7815 326.4666,286.3056 325.4707,285.663 324.7144,285.5119 324.1241,284.3662 326.1791,283.519 326.0289,282.8739 325.2707,281.555 324.8119,280.036 325.4194,279.4482 326.8364,279.5557 328.0227,279.1497 327.2941,277.4026 326.6165,276.3739 325.7089,275.6319 325.2547,274.4142 325.5048,274.1055 325.9297,273.5808 327.2911,273.4685 328.2968,273.0741 328.4227,273.0247 329.2309,272.1999 329.6841,271.5001 329.7721,270.8094 330.2095,270.0314 331.4417,268.5508 331.8159,267.8672 332.539,267.6678 333.279,267.8585 333.9509,267.7588 334.6827,268.3228 335.1888,268.8757 335.9435,268.7862 336.162,268.1221 336.0467,266.3636 335.5206,265.6782 334.867,265.1914 334.3728,264.6372 334.1908,263.811 334.4079,263.0696 334.8454,262.3037 334.9477,260.9491 334.9859,260.4397 334.552,259.1205 334.3942,258.6409 334.3772,257.7209 334.5136,256.1195 335.1158,254.1524 336.2616,252.8518 336.4841,251.0265 336.8862,250.2921 337.6296,249.7528 338.4768,248.4085 339.0817,247.7232 340.3621,247.3271 341.2725,246.7752 342.4878,245.4322 343.7874,246.7068 345.4065,247.3113 346.0462,247.0743 346.4976,246.495 346.7006,245.7351 346.0416,244.0921 346.3475,243.4381 345.6406,241.8778 346.3474,241.2133 347.0692,241.0807 348.0153,240.9065 347.5974,240.2579 346.9534,239.6061 345.0811,238.1838 345.5553,237.5758 347.7136,237.445 348.3688,237.5268 349.2002,237.4145 349.1976,236.6748 348.6562,236.0943 347.986,235.7989 347.6287,235.2446 348.001,234.522 348.4414,234.0294 348.7602,233.3138 348.8093,232.3659 348.3924,231.2899 348.3186,230.6155 348.5369,229.9464 349.2142,229.3688 349.9054,228.9734 349.8733,228.2997 349.2676,227.818 349.4365,227.0431 350.1626,226.5762 352.3839,225.8079 353.0406,225.4584 353.653,224.9362 354.8458,223.6372 354.98,222.9613 355.8091,222.5092 356.0111,221.723 356.096,220.7906 355.8951,219.9372 356.0954,219.2074 356.4632,218.5177 356.028,216.9498 356.6178,216.4782 358.5577,217.1999 359.235,217.6085 360.1248,217.375 360.6962,217.0625 360.8477,216.2384 361.4063,215.6471 361.6286,214.8722 360.7973,214.5188 360.2246,213.8017 360.196,212.8868 360.5443,212.1594 361.0549,211.5845 361.3567,210.9507 360.7349,210.1513 360.763,208.4912 361.5108,208.3676 363.6487,209.1573 363.9531,209.7631 364.7101,209.92 365.5901,209.412 366.7511,208.4803 367.1449,209.0567 367.2234,209.8072 368.0509,209.8422 369.4692,209.1052 370.0372,208.4145 369.064,208.0242 368.4205,207.4049 368.3507,206.5293 368.8923,206.0641 370.278,207.1024 371.7772,207.6797 372.4688,207.8371 373.0908,208.1421 373.1291,208.9144 373.9204,208.907 374.5422,207.1855 374.6433,205.2337 374.8319,204.5462 375.3166,203.8574 376.2638,203.9564 376.3969,204.6022 375.961,205.4456 375.7243,206.1921 376.1784,206.8287 377.054,207.4122 378.6405,207.7683 379.3499,207.4285 379.6387,206.7614 379.4195,205.8868 378.9109,205.0645 378.9793,204.2692 378.8946,202.6985 379.5363,202.1648 380.2395,201.8069 381.1391,203.0023 381.4575,203.7241 382.0338,204.1884 382.973,204.1684 383.7307,204.3848 384.461,204.2574 385.2164,204.3264 385.9436,204.034 386.1952,203.204 384.8989,202.6462 384.3735,201.9622 384.1212,201.2475 384.1049,200.3862 384.9622,199.9884 387.2923,199.9471 388.1378,200.0557 389.8722,201.0013 390.511,201.1269 391.3063,201.0584 391.825,200.6361 392.1982,199.9802 392.9441,200.3062 393.5806,200.7775 394.8814,202.1451 396.2286,204.442 396.9713,205.92 397.9694,207.2254 398.4736,207.6591 399.3639,208.0176 400.5492,208.1412 402.3523,207.7778 404.388,206.984 406.3999,206.6781 408.2858,206.762 408.8628,206.9242" stroke="black" /><polygon fill="none" points="225.1041,125.3046 225.1029,125.3071 213.0364,149.5168 207.7433,160.1366 206.6421,162.3461 205.7258,164.1844 205.3943,164.8496 205.3672,164.9039 205.3142,165.0118 205.0405,165.5604 202.9182,169.8153 202.8516,169.9487 200.6767,174.3089 198.5101,178.6526 197.7708,179.644 196.8935,181.132 194.4444,186.6774 193.4194,189.4961 191.3955,192.808 190.6858,194.5559 188.4602,199.2439 182.3244,211.8216 153.6433,234.5525 139.0552,246.1051 135.5442,248.8855 129.0839,250.3816 126.4887,250.823 123.9578,250.4533 120.8219,250.3659 118.5599,250.9526 118.3922,250.9214 116.2724,250.5272 114.0433,249.3478 112.2234,248.0902 109.5407,245.9702 108.004,244.3498 106.6762,243.504 105.0741,243.2695 103.0503,243.8097 100.6181,243.1915 99.5432,241.999 98.2265,242.4475 96.7762,243.2142 91.5288,243.8764 89.8818,244.6054 88.8166,244.625 87.8679,244.3462 87.6634,244.1504 86.9091,243.4268 84.8166,240.784 84.3647,239.2241 83.0013,236.9751 82.4072,235.6201 81.6321,234.7431 80.1307,233.5539 79.4593,232.2712 78.3622,231.2035 76.5214,230.8332 74.8207,230.0657 73.4889,228.793 72.0893,227.7448 71.0096,227.3358 68.428,225.8786 67.3486,225.4262 66.1835,225.4988 63.912,224.7804 62.5273,224.1552 61.4301,223.044 60.455,222.3223 58.767,221.7576 57.3795,221.5143 56.8072,221.1132 55.5772,220.638 52.9655,220.4867 51.7847,219.9937 50.3481,219.5494 48.1225,219.2688 46.5758,219.1968 46.5253,218.129 43.8088,215.736 43.8936,214.5499 42.5445,213.9406 41.8828,212.1906 41.2115,211.4995 40.6366,210.121 39.4258,206.5391 38.8848,205.8411 38.0315,204.209 38.3928,203.0963 38.9813,203.162 39.87,203.5316 40.8021,203.1304 42.7321,203.7612 43.66,203.5797 43.9541,203.8589 44.1919,203.8612 44.8543,203.5674 45.9808,203.6921 46.3461,203.5039 46.8852,203.4006 48.0482,203.4153 48.8887,203.0952 50.5588,203.1718 51.4893,202.7984 52.5328,202.8106 53.0429,202.6521 53.3179,202.2425 53.858,202.0569 55.3917,201.1961 56.8867,201.0205 57.1607,200.6394 57.3715,200.5317 58.683,200.6034 60.9844,200.3834 61.7027,200.0908 62.8945,200.2982 63.1947,200.2194 63.6469,199.8952 64.4556,199.6836 65.4853,198.6512 66.4997,198.527 66.6996,198.3162 67.5157,196.5289 67.8352,195.0733 67.9407,194.0011 68.6851,192.0279 68.6917,191.5877 68.0012,189.8447 67.981,189.1838 67.1171,187.0802 67.0626,186.6657 67.162,186.0128 67.6308,169.1012 67.6672,167.7768 69.6534,166.6172 73.8729,165.5409 74.9839,165.0586 76.9519,162.992 77.0496,162.4421 77.8708,161.2691 79.501,159.9123 80.6525,158.6607 83.0623,156.9559 83.337,156.5462 83.4928,156.0524 83.5018,155.4198 83.8044,155.1481 84.1334,155.1239 85.5568,153.2137 85.6872,152.7481 86.4149,151.9324 88.0279,151.7035 89.2299,151.0593 90.6934,150.856 91.1693,150.9162 92.0365,150.6788 93.1402,150.7198 93.3821,150.5844 94.5165,150.4607 95.4152,150.0043 95.8392,149.6221 95.8858,148.4412 96.0408,147.9392 95.9105,145.921 96.299,144.5651 96.3151,143.4359 96.4378,143.1901 96.2415,142.3058 96.3077,141.8389 96.1361,141.2861 96.1182,140.4887 96.0033,140.1837 95.1803,139.3757 95.096,139.0162 95.2245,138.3302 95.1741,137.6965 94.6442,137.2766 94.7055,137.1408 95.3056,136.8723 95.3683,136.6236 95.1715,135.8243 95.2102,135.1927 95.0625,135.0792 94.4973,135.0453 94.5598,134.7703 94.2389,134.1884 94.4519,133.9435 94.4883,133.5371 122.9992,134.5671 122.4706,131.8362 122.4529,131.502 122.3523,129.6328 121.8948,128.1104 120.7422,125.4021 119.7236,123.6837 119.0968,121.5301 118.3986,120.393 118.3909,118.7418 118.2181,118.3271 117.8081,117.8264 117.6372,117.2188 117.3729,116.9412 116.6827,115.1979 115.6653,113.2603 114.805,112.2433 114.4999,111.5659 114.2968,110.5913 145.2991,119.7474 147.0085,116.7118 148.5631,114.7658 159.3231,106.4873 164.7298,102.3265 168.1042,99.7291 168.2467,99.5282 173.875,104.1393 176.0691,104.9073 177.6415,105.1267 177.7146,104.2125 178.0803,103.3349 178.19,102.7132 178.5191,102.0184 178.2997,101.6893 178.3038,100.6147 178.5143,100.4886 179.2744,99.7263 179.2556,99.0594 179.5174,98.0999 179.8575,97.6418 179.9463,97.2322 180.2548,96.9524 180.2392,96.1064 180.8561,95.7277 181.094,95.329 181.1434,94.8956 180.4355,93.8622 181.7012,92.6442 181.7915,92.1442 182.0725,91.9676 181.9116,91.4011 182.248,91.1228 182.2528,90.8147 182.7899,90.1533 182.7937,89.871 183.0477,89.5402 183.0017,88.8084 183.2005,88.5536 183.4307,87.8371 184.3326,86.8976 184.7868,86.1453 185.0675,85.943 186.8225,85.5776 187.2694,85.3773 187.7195,84.9462 188.0544,84.9495 188.7531,84.5087 189.0304,84.5103 189.1382,84.7944 189.3844,85.0287 189.746,85.0323 190.557,84.6049 191.3094,84.4338 191.7599,83.9901 192.4023,83.6889 192.876,83.6171 192.8049,82.6921 193.0623,82.1052 193.0165,81.4112 193.2471,80.63 193.5898,80.0183 193.454,79.7876 193.9052,79.2255 193.8726,79.0427 193.828,78.7888 194.4618,76.9603 194.773,76.6048 195.2365,75.0955 195.5741,74.765 195.6896,74.4325 195.559,73.7507 195.8414,73.2919 195.7057,73.1374 195.5249,72.1589 195.9758,71.7015 195.8652,71.4963 195.3143,71.1813 195.5105,71.03 195.5418,70.8171 195.9014,70.8723 195.9865,70.7702 195.8622,69.6209 196.5416,68.602 196.4959,67.8576 196.9553,66.681 197.9627,66.0765 197.9676,65.7175 198.1373,65.4635 198.584,65.3135 198.5868,65.1091 198.4226,64.952 198.034,64.845 198.0382,64.5386 197.3769,64.1461 197.1621,63.6601 201.255,63.5927 203.2804,63.8134 209.3915,64.0788 213.6324,64.0398 216.3412,63.6703 217.4161,63.7397 219.0359,64.4095 222.2563,67.1704 223.3846,68.0066 225.8542,69.3098 228.2761,69.9908 232.1088,71.3005 233.0797,71.632 234.5466,72.2437 238.4011,74.0472 240.3487,75.3446 241.0806,75.6348 242.7653,76.1651 244.6685,76.4117 246.9732,76.4361 249.0407,76.1453 237.0439,101.5929 236.8436,102.0175 231.6392,113.0514 230.051,116.4184 229.7735,115.9308 225.1041,125.3046" stroke="black" /><polygon fill="none" points="239.4147,134.5177 231.4294,133.9669 230.8807,133.0311 230.8986,131.6779 230.5026,129.8058 230.095,128.8985 230.3892,127.613 230.2676,126.2593 229.8532,125.8041 230.0012,125.2263 230.0191,123.8073 229.8139,123.4841 229.9602,122.9063 229.8402,121.3586 230.407,120.7197 230.4187,119.7534 230.0155,118.4601 230.2595,116.7855 230.051,116.4184 231.6392,113.0514 236.8436,102.0175 237.0439,101.5929 249.0407,76.1453 252.6131,74.4684 254.4376,73.7449 256.9384,72.5398 257.8416,72.105 265.975,68.8053 269.2292,67.8732 269.8261,67.6202 270.8008,67.4076 271.7484,67.3186 273.0381,67.3646 274.6576,67.6768 277.8693,68.864 281.2368,70.2827 282.7221,71.3593 284.6284,72.5077 285.3544,73.1269 287.3301,75.2633 288.2009,76.3125 293.7507,83.0053 295.5102,84.6979 297.9223,87.332 300.2733,89.1905 302.2627,90.5477 304.2827,92.3566 305.4191,93.7199 306.3112,95.0499 307.4368,96.2851 308.6163,97.3416 308.6829,98.1669 308.9167,99.0706 308.7722,99.4873 308.1373,100.1262 309.2417,101.1999 308.1835,102.1239 306.8902,102.337 306.2892,103.0386 306.5615,103.8844 306.7262,104.3969 305.4271,105.0606 304.864,105.5388 304.5452,105.9862 304.2901,106.821 303.0858,107.5293 302.6745,107.7715 300.3333,107.9099 299.6365,107.8379 298.9341,108.3464 298.2792,107.5354 297.7931,107.336 297.3827,106.5594 297.13,107.2982 296.6692,107.9053 296.1083,108.1576 296.59,108.71 296.2566,108.9662 295.6867,108.3796 293.6551,109.2532 293.0409,109.6819 292.6275,110.2819 291.8071,108.8235 291.159,108.7538 290.7937,108.9106 291.6265,109.3688 291.4081,110.0432 289.1408,110.053 288.193,110.4946 287.4669,109.9066 286.2129,109.7021 285.0655,109.3673 284.6162,108.9444 284.2644,109.1981 284.7109,109.7508 282.7073,110.9867 282.1234,110.6939 281.1255,111.9053 280.6619,112.7057 279.4405,113.9038 278.7181,114.7811 279.4449,115.2705 278.6032,115.6486 276.573,116.0796 274.6646,115.1585 273.8423,113.8928 272.0815,115.1954 270.922,115.8601 270.6024,116.2444 269.2765,116.3264 268.075,117.409 267.2381,117.4011 266.9332,116.5281 266.1673,116.5524 266.0934,116.809 265.3617,116.6418 264.9053,116.8936 264.9631,117.8285 264.0472,118.5601 263.1261,119.7103 262.3244,119.6045 261.7377,120.474 260.8761,121.0088 261.2191,121.4951 261.1105,121.7838 261.3519,122.0431 260.5758,122.7449 260.5709,123.1302 259.9373,123.6087 260.1725,124.3514 260.4831,124.5158 260.8941,125.2608 261.7889,125.397 262.0811,125.3374 262.3551,125.695 262.385,126.1781 262.2042,126.6099 261.8056,127.0097 259.7958,128.6896 258.475,129.0049 255.8757,130.331 252.6037,132.3907 250.5334,134.0595 249.2802,135.7063 246.3459,138.7038 242.6393,141.1972 241.3489,142.0649 238.5915,141.8108 239.4147,134.5177" stroke="black" /><polygon fill="none" points="267.5685,229.0911 255.1342,226.3948 248.0525,224.8584 247.9369,222.5249 247.4651,220.6022 246.5546,218.3369 243.4501,214.1267 242.5579,213.4055 240.194,210.2815 239.5738,208.9979 239.0669,208.2679 237.5483,206.8617 236.082,205.9153 234.9504,204.6097 233.2312,203.8737 232.8263,203.219 229.0644,201.07 228.783,200.1688 228.5449,198.422 228.6157,197.5363 228.6292,197.3685 228.7985,195.2572 229.2661,194.4646 229.9095,194.0037 231.3582,193.229 232.101,192.6148 233.215,190.4899 233.416,189.7867 234.0595,189.3488 234.6981,188.4275 236.0636,187.0841 236.9919,185.9521 237.5632,184.9552 238.2411,184.2808 238.411,183.4529 239.5636,181.7084 240.6558,181.0348 240.8606,180.4844 241.8585,180.1234 242.0188,180.2234 242.2873,180.1526 242.388,179.5971 242.633,179.3757 242.6369,179.054 243.0131,178.9346 242.9654,178.5125 243.5356,177.9485 243.8604,177.8038 243.8636,177.5314 244.0288,177.2362 244.4562,177.3076 244.4475,176.9799 244.6653,176.7111 245.2586,176.4928 245.265,176.0707 245.5648,175.6292 246.0769,175.4362 246.1332,175.1885 246.4866,174.8709 247.1709,174.8408 247.916,174.4101 248.1976,174.1128 247.9621,173.8091 248.0206,173.4875 249.175,173.45 249.8456,172.4292 250.0872,172.4566 250.1094,172.8275 251.1004,172.9624 251.5247,173.3636 251.9297,173.2182 252.1151,173.4434 252.6181,172.891 252.9363,173.143 253.2858,173.1465 253.4432,173.4202 254.3062,173.0827 255.0043,173.115 255.1907,173.2651 255.3783,173.1928 255.4893,172.9457 255.9641,172.5431 255.9161,172.0958 256.2172,171.555 256.3045,171.0353 256.712,170.6179 256.5818,170.3193 256.8036,169.703 257.3992,169.3136 257.4161,169.0526 257.2041,168.7777 257.2853,168.7046 257.6865,168.8819 257.7945,168.8087 257.7969,168.636 257.3976,168.3584 258.3117,168.1941 258.6921,167.8022 258.8739,167.2219 259.1974,167.1259 259.6033,166.7842 259.8962,167.06 260.3243,167.1378 260.7564,166.9197 261.0295,166.5512 261.2239,165.9834 261.3849,165.9853 261.7301,166.2606 262.259,166.0849 262.3499,166.0546 262.4177,166.032 262.7174,165.7148 263.3219,164.5317 263.7768,164.6104 263.6596,165.4505 264.0463,165.6651 265.5861,164.8146 266.1795,164.623 267.0041,165.225 267.1138,166.1064 267.6748,166.3847 268.2525,167.3567 268.7057,167.5598 269.7593,167.0993 269.98,166.557 269.5042,165.9573 269.415,165.672 269.6323,165.4262 270.9241,165.0141 271.7589,164.2651 290.6457,183.4847 292.3004,182.3187 292.4372,182.1065 297.9201,180.9746 299.9501,180.4445 301.3774,179.7583 302.1135,178.913 315.9526,180.9698 321.2628,181.4467 322.2686,180.865 328.1647,175.1478 330.6291,173.2221 332.3697,171.9932 333.8225,170.9676 338.6602,166.3236 354.3424,150.7799 354.8349,150.5241 359.9051,149.7228 361.273,149.8303 362.3319,150.2462 363.9688,151.167 365.2162,152.2018 367.126,152.9176 369.2483,153.5118 370.6641,154.209 371.8604,154.8814 373.3641,156.0676 376.1738,157.9967 379.4658,159.4447 380.1722,159.9341 381.1208,160.5963 383.1306,162.7937 383.6496,163.3616 384.0368,163.9385 384.2255,164.8134 384.3105,165.8587 384.2756,168.9502 384.1412,170.1911 383.4122,173.7391 383.3615,174.9693 383.4314,175.8969 383.6803,176.8309 384.2239,177.604 385.5662,178.2666 386.2486,178.372 389.9404,178.4275 392.8732,178.1969 393.7142,178.3882 394.5274,178.8413 395.0831,179.5699 396.1961,180.633 398.0498,183.4525 398.8435,184.3956 399.4688,185.3234 399.2456,186.4705 398.6773,187.1559 397.2898,188.0305 395.1168,189.1379 391.1178,190.807 389.9092,191.6912 389.1634,192.4491 388.6207,193.2492 388.4378,193.9087 388.4383,194.8402 389.4502,197.0163 391.6952,199.2888 392.1982,199.9802 391.825,200.6361 391.3063,201.0584 390.511,201.1269 389.8722,201.0013 388.1378,200.0557 387.2923,199.9471 384.9622,199.9884 384.1049,200.3862 384.1212,201.2475 384.3735,201.9622 384.8989,202.6462 386.1952,203.204 385.9436,204.034 385.2164,204.3264 384.461,204.2574 383.7307,204.3848 382.973,204.1684 382.0338,204.1884 381.4575,203.7241 381.1391,203.0023 380.2395,201.8069 379.5363,202.1648 378.8946,202.6985 378.9793,204.2692 378.9109,205.0645 379.4195,205.8868 379.6387,206.7614 379.3499,207.4285 378.6405,207.7683 377.054,207.4122 376.1784,206.8287 375.7243,206.1921 375.961,205.4456 376.3969,204.6022 376.2638,203.9564 375.3166,203.8574 374.8319,204.5462 374.6433,205.2337 374.5422,207.1855 373.9204,208.907 373.1291,208.9144 373.0908,208.1421 372.4688,207.8371 371.7772,207.6797 370.278,207.1024 368.8923,206.0641 368.3507,206.5293 368.4205,207.4049 369.064,208.0242 370.0372,208.4145 369.4692,209.1052 368.0509,209.8422 367.2234,209.8072 367.1449,209.0567 366.7511,208.4803 365.5901,209.412 364.7101,209.92 363.9531,209.7631 363.6487,209.1573 361.5108,208.3676 361.6068,207.5288 361.0551,206.5205 360.9516,205.8524 360.6821,205.1317 360.1905,204.2768 359.266,201.9844 339.213,190.518 338.6259,191.7359 338.0181,192.0268 337.2404,192.2266 336.5637,192.9407 336.416,194.437 335.7229,195.7968 334.7863,197.081 334.5746,197.8135 334.1542,198.4807 333.8188,199.3114 333.3617,199.7986 332.6572,200.1128 331.1883,201.1238 330.2424,202.1204 328.8278,203.2184 326.9731,204.2988 326.567,205.2452 325.7724,206.487 325.5804,206.6566 324.5072,207.6055 323.0763,208.3195 321.2798,208.9334 319.2483,209.9616 318.4241,210.2237 318.219,211.5622 317.7117,212.9863 316.2346,215.3841 313.9869,218.118 312.3881,220.9274 311.3771,221.9951 310.1937,223.5577 308.5752,224.6031 307.2784,225.6455 305.3294,227.3692 304.7353,228.1283 304.5531,228.5355 304.6485,229.4229 305.0214,230.2902 293.8826,231.3572 280.399,232.6475 280.3179,233.5158 279.5332,235.1642 279.2835,235.9562 276.9031,234.5562 275.5008,234.1305 273.3371,232.8545 272.841,232.7341 272.0483,232.1357 271.0556,231.7966 269.9386,230.892 268.3146,229.8424 267.6611,229.5742 267.5685,229.0911" stroke="black" /><polygon fill="none" points="118.3922,250.9214 118.5599,250.9526 120.8219,250.3659 123.9578,250.4533 126.4887,250.823 129.0839,250.3816 135.5442,248.8855 139.0552,246.1051 153.6433,234.5525 182.3244,211.8216 184.1085,212.4764 185.6952,212.4515 190.1458,212.0049 191.9323,212.3417 194.0074,212.9544 196.3692,213.1987 198.6984,214.1228 203.8068,216.6175 207.6188,217.9296 209.3167,218.2541 210.2986,218.3221 211.6138,218.9036 212.5604,219.0759 213.8104,218.8419 213.7508,218.9307 213.1962,219.7562 211.6949,221.2276 211.3949,222.8244 210.5333,223.4459 210.3822,224.3459 210.0095,225.2144 210.279,226.0671 209.7248,227.108 209.4351,228.0032 209.4377,228.7479 209.6546,229.64 209.6916,231.5912 209.5549,232.8144 208.7258,233.1715 207.8356,233.3719 206.7888,233.4294 205.5909,233.6695 203.3508,234.5041 202.7952,235.5341 202.5356,236.5479 201.4294,238.7623 201.0066,239.9934 199.9259,241.9648 198.7793,243.3334 198.1898,244.4995 198.4413,245.3474 198.1584,246.1658 198.6485,246.9564 196.8545,247.8929 196.4697,249.3155 195.6588,250.9104 194.1287,251.4616 193.2543,251.9067 192.9808,252.0459 192.5051,252.8105 192.2739,253.4486 192.7243,255.117 193.4522,256.508 192.6387,257.9669 190.4481,260.8806 190.2151,262.6954 189.248,264.9666 188.4748,266.1786 188.5464,267.307 188.2419,268.5085 188.423,269.9495 188.0729,271.3558 187.9365,272.7051 187.01,276.5593 186.755,279.8227 187.0589,280.4247 186.8398,281.7193 186.8729,283.4283 187.5476,283.6031 187.6504,285.0047 187.8842,285.9246 187.7263,286.5928 187.41,287.9293 187.3618,290.9011 186.8421,291.9515 186.0006,292.9547 186.0377,293.1659 185.7533,293.1737 185.6313,293.4251 185.6851,293.9431 185.4973,294.1069 185.472,294.3235 185.2065,294.3208 184.9839,294.5007 184.7422,294.3777 184.3576,294.6822 184.0998,294.7287 183.5195,295.2387 182.7716,295.0212 182.5576,295.11 182.3459,295.0652 182.086,295.2223 181.7534,295.1697 181.5243,295.3042 181.0419,295.148 180.9718,295.222 181.0696,295.5577 180.7416,295.4886 180.427,295.5805 180.1559,295.4243 179.926,295.6026 179.3989,295.5038 178.5457,295.5441 177.8502,295.3272 177.4729,295.5193 176.8455,295.5243 176.5466,295.7591 176.2268,295.8121 175.8718,296.2281 174.3442,296.9517 174.3126,297.5817 173.9333,297.5628 173.7318,297.7847 173.3548,297.6408 173.217,297.7926 172.8688,297.6765 172.4421,297.8125 172.2691,298.2721 171.9164,298.5609 171.5149,298.5291 171.2495,299.0436 170.9776,298.929 170.7882,298.3524 170.6533,298.24 169.8596,298.5379 169.4002,298.8676 168.5422,298.8443 168.1934,299.8615 168.5094,300.173 168.5509,300.4116 168.1704,300.5889 167.2872,300.6633 166.4374,301.2701 165.9295,302.9133 165.6318,303.5388 165.4629,303.6914 165.0581,303.7538 163.4664,304.8558 163.1227,305.4674 162.5099,305.7676 161.9254,305.8999 161.0754,305.8491 160.6139,306.2221 160.5188,306.556 160.8511,306.7562 160.8784,306.882 160.5693,307.3831 160.5392,307.858 160.1073,308.2724 160.1045,308.4823 159.4182,308.7546 158.8635,309.3492 158.0819,309.9412 157.2297,310.4926 156.3132,310.9146 156.2629,311.2641 155.6955,311.7196 155.5535,312.0681 155.1074,312.567 154.9987,313.1104 154.1597,313.5499 153.6946,314.1871 153.0353,314.6131 152.9271,314.7652 153.1218,314.9632 152.8537,315.1987 152.8176,315.4779 152.4684,315.5163 152.4048,315.7815 152.2053,315.9047 152.0964,316.1127 151.7918,316.1973 151.6526,316.3458 151.5407,316.7368 151.2866,317.0073 150.8505,317.3023 150.8247,317.4121 150.7134,317.8738 151.1698,318.9428 150.9341,319.4165 151.083,319.6137 151.079,319.8938 151.3648,320.1486 151.3782,320.3727 151.1763,320.6356 150.864,321.767 151.0326,322.8179 150.8481,322.9558 150.4696,323.9578 149.9477,324.9028 149.3463,325.5542 149.1746,325.9161 149.1557,326.1958 149.3021,326.575 149.7118,326.5795 149.9048,326.7791 149.9628,327.0718 149.8764,327.3235 149.1203,328.181 148.8543,328.7947 147.8752,329.5629 146.7955,330.9814 146.4268,331.2988 146.4164,332.0546 146.1703,332.3031 146.1191,332.6247 145.6598,332.9406 145.3428,333.6112 145.2911,333.7205 144.8013,334.0082 143.5967,334.4142 141.8396,335.6389 140.971,336.9154 140.5561,337.2605 139.8915,338.1907 139.6763,338.7612 138.3128,339.7246 137.4794,341.0852 136.7069,342.0704 136.1879,342.2454 135.1375,342.3317 134.6922,342.6908 134.2462,342.6289 133.1494,343.7887 132.693,343.899 132.2155,344.2572 131.9069,344.715 131.0079,345.4178 130.373,346.1531 129.1529,346.6544 128.89,346.9595 128.7208,347.6288 128.1223,348.0416 127.315,348.2132 126.3492,348.7899 125.9704,348.7867 124.0856,349.3647 123.7077,349.2065 123.4033,349.2027 122.6857,349.4876 121.9653,349.9275 120.685,349.6872 120.0155,349.6938 119.5716,349.9393 118.9503,349.8064 118.3266,349.925 117.7364,349.736 117.4697,349.8174 117.1212,349.7427 116.2515,350.0122 114.0166,351.1593 113.119,351.7798 112.839,352.252 112.4406,352.4709 111.3609,352.5693 110.8871,352.7459 109.7919,353.3201 109.0694,353.9414 108.5374,353.9349 107.4362,354.5091 105.2443,355.2808 103.466,356.3646 102.8096,357.0693 102.2745,357.3285 102.26,358.3436 102.575,359.6495 102.4482,361.6069 102.5896,362.3205 102.6438,363.8437 102.4876,364.6669 102.724,365.1452 80.7374,361.2759 80.4506,361.1026 80.0107,361.0706 78.6557,360.2421 77.7136,360.2021 77.3104,359.7775 76.7333,359.6577 76.2555,359.1486 73.4366,357.546 72.8597,357.5116 71.471,356.9053 70.8938,356.8418 70.5002,356.5667 69.9416,356.4379 69.7073,355.9041 69.4655,355.7606 69.0487,355.1962 68.3221,354.9908 66.876,354.1337 66.2111,353.9015 65.5883,353.8653 64.8387,353.239 64.0211,352.9777 63.2677,352.5483 62.4151,352.3678 60.6158,351.6473 60.1995,351.5855 58.9812,351.6272 58.1867,351.8688 57.365,351.9703 56.8591,352.2428 56.6464,352.2404 56.37,352.4604 55.4611,352.2534 55.0339,352.3039 54.7324,352.2166 53.8261,351.6522 54.0985,351.3802 54.1881,350.2111 54.3372,349.946 54.7096,349.7325 55.4125,349.5902 55.8704,349.2785 56.1962,349.3492 56.5277,349.0209 56.872,349.0903 57.1839,348.7769 57.5223,348.0381 58.3375,346.8959 48.8953,335.3495 49.5571,334.8392 49.93,334.1034 51.0752,332.6818 51.5596,331.8849 52.165,330.2723 54.2205,326.2205 54.6279,325.7086 47.2455,305.7452 47.027,305.1542 46.5538,305.2472 46.0112,305.1248 45.6836,305.2541 45.0299,305.2458 44.6724,304.9068 44.2354,304.9683 43.1377,305.5888 41.9359,305.9081 41.1412,305.6804 40.6709,305.6747 39.2466,306.2568 38.7452,305.8512 38.2754,305.6746 38.1125,305.3161 37.7722,305.1879 36.0638,305.5986 35.6208,305.8936 34.2073,306.0091 33.6659,305.8187 33.3451,305.447 32.9831,305.2756 31.97,305.2948 31.0748,304.4483 30.4894,304.3403 29.7697,304.3477 29.2349,303.7724 29.1695,303.3032 28.6053,302.226 26.7169,300.0136 26.2835,299.8399 26.1083,299.504 25.8918,299.3684 25.3125,299.3595 24.9508,299.222 24.0905,298.5754 23.8879,297.52 23.5655,297.3154 23.3914,296.8792 22.9576,296.7389 22.5633,296.4674 22.459,296.131 21.7845,295.2529 21.4607,294.6084 21.1851,294.0598 21.0857,293.4225 20.9096,293.1194 20.0871,292.4067 19.6177,292.2003 19.0866,291.3071 19.1446,290.8415 19.2113,290.306 19.3617,289.9746 19.1854,289.6381 18.8976,289.4339 18.5803,288.8615 18.1877,288.4886 18.0148,287.9011 17.0645,286.0831 17.9527,284.761 18.0324,284.4377 17.6406,283.9316 17.5411,283.3622 17.2939,282.9248 17.5167,282.56 17.4135,282.2916 17.1634,281.9544 16.7685,281.7487 16.7775,281.1134 17.0066,280.3918 16.8375,279.5878 17.06,279.2559 17.184,278.3217 17.5171,277.8247 17.521,277.5561 17.1074,276.1985 17.1129,275.8975 17.5206,275.268 17.2407,274.5945 17.4042,273.3773 17.627,273.0126 18.29,272.3863 18.6305,271.4546 18.6011,271.0191 18.8591,270.756 18.5035,270.299 18.1084,270.0598 18.1934,269.2591 18.0866,269.057 18.3465,268.7265 18.3858,268.4922 18.1742,268.1231 18.2524,267.7554 18.7647,267.4282 19.1373,266.8148 19.3924,266.7172 19.8993,266.7907 20.5325,265.7624 20.5369,265.3957 19.5746,264.3457 18.4391,262.7098 18.4601,261.3066 18.2235,260.2163 18.6999,259.788 18.3864,259.0824 19.0515,258.1876 19.4563,257.8266 19.2486,257.1878 18.7737,256.2865 18.9795,255.7974 18.5455,255.7579 18.4408,255.4479 18.4488,254.9217 18.5755,254.6814 18.877,254.1094 19.706,253.3495 19.9458,251.9153 20.17,251.5171 20.1463,250.6475 19.5028,250.0366 19.7385,248.8535 19.3429,248.6154 19.2037,248.2118 19.2887,247.4094 19.0569,246.0035 18.482,245.6454 18.2289,245.3658 18.057,244.9712 17.6273,244.6977 16.8694,244.4536 16.5488,244.0495 16.4637,242.5264 16.1079,242.1204 16.2241,241.5875 15.8698,241.0471 16.0581,240.6162 15.9924,240.1793 16.2195,239.5141 15.3225,238.9514 15.182,238.6153 14.7481,238.5763 14.7208,237.9407 14.5109,237.4696 14.3288,237.3683 13.2793,237.4198 12.9226,237.0313 13.1479,236.5322 13.8084,236.0063 14.8268,235.7856 15.0867,235.3877 14.5144,234.8794 14.3048,234.3743 13.4391,234.0799 12.9794,233.3709 12.5437,233.3983 11.9586,233.6584 11.6695,233.6553 11.3096,233.4833 11.0366,232.4272 11.1174,231.86 10.9411,231.49 10.5425,231.4849 9.5734,230.8699 9.5816,230.3689 9.8812,229.7034 9.4556,229.0796 9.7261,228.0141 9.5862,227.6762 8.7926,227.4 8.1873,226.757 7.9789,226.1522 7.4428,225.6277 7.008,225.6211 6.6016,226.0834 5.8459,225.7724 5.8275,224.6364 5.6521,224.2335 5.7403,223.2821 5.6068,222.5112 5.7953,222.0129 5.6175,221.7756 5.3301,221.6711 5.3715,221.3036 5.1618,220.7667 4.2272,220.3027 4.1233,220.0009 4.1401,218.8646 3.7529,218.1238 4.1257,217.4605 3.8146,216.5367 3.8209,216.1026 4.1574,215.4379 3.3363,214.6247 2.7574,214.5839 2.6224,213.9133 2.3361,213.7095 1.5755,213.6139 0.7945,212.6689 0.6901,212.3007 0.7315,211.9332 1.1879,211.8202 1.493,211.9104 1.7425,212.2147 2.1081,212.0355 2.1498,211.6346 1.8712,210.9292 1.8645,209.0899 1.1411,208.9634 0.9625,208.7606 1.1486,208.4284 1.3684,208.3306 1.3713,208.0642 1.0493,207.859 0.8012,208.0792 0.5056,207.8185 0.3749,206.847 0.6371,206.3494 1.2256,205.8388 1.0857,205.57 0.797,205.4309 0.2719,204.1878 0.0,203.0807 0.1877,202.6493 0.1274,201.8632 0.5707,201.3349 0.8236,201.3701 1.4073,201.1111 1.7412,200.5807 1.4223,200.142 1.642,200.0113 1.577,199.491 1.1816,199.3203 1.185,199.0517 0.9716,198.8157 0.8705,198.3126 0.9144,197.8783 0.3796,197.3346 0.5514,195.5172 0.9212,195.1208 1.8711,194.5313 1.9549,194.1904 2.1695,193.8696 2.0279,193.7647 1.6631,193.9604 1.4834,193.8574 1.5743,192.6055 1.1806,192.3328 0.933,191.9622 1.6232,191.8045 1.8811,191.5409 1.9967,191.1741 2.288,191.009 2.6236,190.3964 2.4858,189.9264 1.4475,189.2082 1.5306,188.4431 1.7551,188.0115 1.3242,187.6881 1.3291,187.4534 1.6928,187.3591 2.1699,186.9967 2.8358,186.0362 2.6587,185.8 2.8106,185.2668 2.6342,185.0306 2.7471,184.7822 2.5372,184.2776 2.6487,184.0785 2.4024,183.641 2.8466,183.0102 2.8533,182.6106 3.4073,181.8826 3.38,181.3139 3.7082,181.1672 3.892,180.9353 3.8613,180.634 3.503,180.3956 3.3656,179.8923 3.6593,179.6624 3.8364,179.8987 4.057,179.6671 4.1059,178.8655 4.3624,178.6688 4.4423,178.2184 4.0499,177.7796 4.4142,177.6157 4.4204,177.3153 4.673,177.3197 4.7475,177.1861 4.4261,176.8812 4.7175,176.818 4.8284,176.6189 4.6877,176.3161 4.8396,175.9518 5.3132,175.773 5.4976,175.4742 5.3213,175.1711 5.4716,174.8391 5.2016,174.1574 5.299,173.7369 5.9993,172.9445 6.1134,172.6116 6.6251,172.2845 6.7405,171.8848 7.0879,171.858 7.5055,171.4954 8.0521,171.3177 8.2108,170.4178 8.6199,169.7209 8.8853,168.9563 8.7842,168.4538 9.0074,168.089 8.864,167.663 8.5854,167.2641 8.6631,166.9978 10.0099,166.3821 10.2338,165.9489 10.5762,165.7966 10.9336,165.1898 11.1322,165.119 11.2235,165.177 11.0323,165.843 11.2835,165.9801 11.2804,166.2142 11.6047,166.3514 12.2238,166.0921 12.7998,166.2667 13.4543,166.0587 13.6751,165.8606 13.6425,165.6267 13.0656,165.4856 12.8863,165.3492 12.8883,165.2165 14.2413,164.232 14.9646,163.9156 15.0237,164.8398 15.2209,165.3938 14.9635,165.7078 15.0488,165.9967 15.2395,166.15 15.7894,166.3373 15.6475,166.8315 15.8466,167.1547 16.4399,167.5149 16.648,167.7673 17.6741,168.0579 17.9645,168.4299 18.2491,169.3165 18.9715,169.9176 18.9223,170.3295 19.6205,170.4073 20.3073,170.2128 20.8052,171.0005 21.1591,171.2806 22.0186,171.6922 22.939,171.91 23.2022,172.2163 23.4889,173.0454 23.6792,173.2969 23.9134,173.4647 24.4655,173.5407 24.9835,173.8229 25.1283,174.113 25.5122,174.3523 25.7153,174.7259 26.172,174.9932 26.2084,175.1787 26.3638,175.2868 26.3424,175.6848 26.591,176.0192 26.9778,176.0929 27.1684,176.3005 27.5256,176.3761 27.5284,177.225 28.1293,177.7868 28.1833,178.2419 28.3582,178.5055 28.8453,178.8564 28.8981,179.3148 29.0724,179.6607 29.0394,179.8532 28.8286,179.9615 28.8803,180.512 29.6437,181.3209 29.5436,182.0061 28.9723,182.3025 28.8501,182.494 28.9929,182.9085 29.6702,183.4955 29.7359,185.0379 29.4902,185.5585 29.486,185.8611 29.8575,186.8842 29.672,187.3501 29.8773,187.545 30.4456,187.4701 30.7113,187.6931 30.8506,188.2721 30.9986,188.3577 31.5067,188.3369 31.7719,188.5051 32.2605,189.751 32.0499,189.885 31.8126,189.8005 31.6013,189.9082 31.7765,190.2123 32.1624,190.3825 32.6388,190.4167 33.0197,190.8614 33.5533,191.1452 34.4459,191.2655 34.1385,191.8122 34.2206,192.3636 34.3944,192.6968 34.3305,192.9707 34.5631,193.3863 34.5863,193.8553 34.4307,194.2668 34.0062,194.7288 34.3535,195.3684 34.2759,196.5758 33.9281,197.8945 33.7757,198.1125 33.2367,198.2157 34.2389,199.0544 34.6382,200.3556 35.3643,201.5468 35.5707,201.7148 35.6223,202.3207 35.7995,202.4061 36.3385,202.2201 36.6067,202.3061 36.8394,202.7211 37.3684,203.2515 38.0317,202.9857 38.3928,203.0963 38.0315,204.209 38.8848,205.8411 39.4258,206.5391 40.6366,210.121 41.2115,211.4995 41.8828,212.1906 42.5445,213.9406 43.8936,214.5499 43.8088,215.736 46.5253,218.129 46.5758,219.1968 48.1225,219.2688 50.3481,219.5494 51.7847,219.9937 52.9655,220.4867 55.5772,220.638 56.8072,221.1132 57.3795,221.5143 58.767,221.7576 60.455,222.3223 61.4301,223.044 62.5273,224.1552 63.912,224.7804 66.1835,225.4988 67.3486,225.4262 68.428,225.8786 71.0096,227.3358 72.0893,227.7448 73.4889,228.793 74.8207,230.0657 76.5214,230.8332 78.3622,231.2035 79.4593,232.2712 80.1307,233.5539 81.6321,234.7431 82.4072,235.6201 83.0013,236.9751 84.3647,239.2241 84.8166,240.784 86.9091,243.4268 87.6634,244.1504 87.8679,244.3462 88.8166,244.625 89.8818,244.6054 91.5288,243.8764 96.7762,243.2142 98.2265,242.4475 99.5432,241.999 100.6181,243.1915 103.0503,243.8097 105.0741,243.2695 106.6762,243.504 108.004,244.3498 109.5407,245.9702 112.2234,248.0902 114.0433,249.3478 116.2724,250.5272 118.3922,250.9214" stroke="black" /><polygon fill="none" points="83.9523,471.7065 83.408,471.8939 82.9085,472.7256 82.7704,473.8999 82.4246,474.566 81.5466,475.0824 81.092,475.2215 80.5749,475.1589 79.5936,474.6753 78.3649,474.5563 77.892,474.5103 76.9463,474.6386 75.9447,474.5695 75.3097,474.2539 74.8603,473.8011 73.9002,471.8305 73.3599,471.3482 72.8157,471.1169 72.1781,471.0534 71.7159,471.3553 71.4129,472.3027 71.1964,472.524 70.4356,472.6543 68.8668,472.1604 68.3502,471.6494 68.0676,471.1691 68.1043,470.834 69.2481,469.5617 70.2113,468.231 70.7752,467.1743 70.859,466.7002 70.6821,466.223 70.1706,465.8238 69.6962,465.0072 69.6179,464.1934 69.4698,463.8847 68.9735,463.515 67.5129,463.4687 67.2056,463.7448 66.8201,465.1104 66.3895,465.4132 66.0408,465.2956 65.2014,464.4744 64.6816,464.6632 64.2762,464.991 61.5768,464.7361 59.9171,464.8549 58.3683,464.6676 56.9734,464.3423 55.8135,463.6284 55.3972,462.9791 55.2624,461.8582 54.8719,461.5177 53.1229,461.4962 52.4562,461.2908 51.2663,460.5524 47.8208,454.4891 40.16,441.0079 35.1293,432.634 32.0976,427.0337 24.7886,415.2405 21.6691,410.2065 13.2316,399.1446 13.273,398.7848 13.1325,398.4832 12.7722,398.2772 12.7751,398.1106 13.0683,397.9476 13.2176,397.5811 13.4389,397.4509 13.948,397.3918 14.1383,396.859 14.3578,396.7951 14.2668,395.6344 14.5348,394.735 14.7539,394.7045 15.0419,394.877 15.3355,394.6121 15.3462,393.9762 15.2391,393.8416 15.8037,392.595 16.2413,392.4672 15.7771,391.9934 15.9261,391.7606 15.7835,391.4919 15.886,391.3411 16.1531,391.1958 16.3035,390.8298 16.5927,390.9338 16.7775,390.7029 17.0702,390.5559 17.5065,390.5613 18.2022,390.2034 18.2435,389.9028 17.9913,389.7323 18.3267,389.1679 18.3695,388.8344 17.9739,388.5289 17.9424,388.2276 18.2734,387.9471 18.8565,387.8206 19.182,387.9254 19.4366,387.8619 19.5054,388.1305 19.6502,388.1324 19.8011,387.8338 20.2017,387.7715 20.5954,388.145 20.8185,387.7807 20.6493,386.991 20.2176,386.7186 20.6552,386.5903 21.4112,384.7621 21.4155,384.4606 21.7468,384.1477 22.1844,384.0869 22.5801,384.3255 22.7914,384.6962 23.6178,385.3091 23.9086,385.3116 25.0439,384.6922 25.9211,384.3862 27.7369,384.4095 28.0671,384.1805 28.8617,384.4581 30.1167,383.2202 30.625,383.2273 31.31,383.5692 31.568,383.339 31.3169,383.0019 31.6472,382.8726 31.5477,382.2518 31.7703,381.9883 31.7765,381.5526 32.289,381.3256 32.2237,380.8235 32.4458,380.5584 32.5613,380.0919 33.0763,379.7317 33.1525,379.5641 33.1298,378.5448 33.2069,378.2785 33.6143,377.7826 33.6194,377.4477 33.8762,377.2849 34.5298,377.2927 34.6775,377.1268 34.3166,376.9214 34.3927,376.7395 34.2518,376.4691 34.3387,375.5347 34.4909,375.0344 34.7867,374.8385 34.692,373.834 34.8854,373.0336 35.7466,372.1066 35.8828,371.9601 35.9292,371.2582 35.8301,370.621 35.5812,370.2516 35.5858,369.9172 36.3354,368.4726 36.7011,368.3101 36.889,367.8776 37.6249,367.2852 37.6649,366.9857 37.8842,366.9207 37.8907,366.5201 38.8144,365.4113 39.8919,363.7869 40.9986,362.7646 41.1499,362.3822 42.0547,362.5274 42.6385,362.3674 43.1152,362.0727 43.4853,361.6433 43.8488,361.5817 44.1065,361.3169 44.947,361.0093 45.2761,360.7468 45.0296,360.3752 45.0354,359.9077 45.2965,359.4763 45.4525,358.7765 45.7531,358.1437 45.8761,357.1936 46.1687,357.0635 46.8924,357.2066 47.3305,357.0119 47.7777,356.3145 48.6146,356.1587 49.2372,355.8658 49.3521,355.483 49.9004,355.2217 50.5304,354.3604 51.0822,353.9341 51.7162,352.7707 53.1104,351.8362 53.8261,351.6522 54.7324,352.2166 55.0339,352.3039 55.4611,352.2534 56.37,352.4604 56.6464,352.2404 56.8591,352.2428 57.365,351.9703 58.1867,351.8688 58.9812,351.6272 60.1995,351.5855 60.6158,351.6473 62.4151,352.3678 63.2677,352.5483 64.0211,352.9777 64.8387,353.239 65.5883,353.8653 66.2111,353.9015 66.876,354.1337 68.3221,354.9908 69.0487,355.1962 69.4655,355.7606 69.7073,355.9041 69.9416,356.4379 70.5002,356.5667 70.8938,356.8418 71.471,356.9053 72.8597,357.5116 73.4366,357.546 76.2555,359.1486 76.7333,359.6577 77.3104,359.7775 77.7136,360.2021 78.6557,360.2421 80.0107,361.0706 80.4506,361.1026 80.7374,361.2759 102.724,365.1452 102.4876,364.6669 102.6438,363.8437 102.5896,362.3205 102.4482,361.6069 102.575,359.6495 102.26,358.3436 102.2745,357.3285 102.8096,357.0693 103.466,356.3646 105.2443,355.2808 107.4362,354.5091 108.5374,353.9349 109.0694,353.9414 109.7919,353.3201 110.8871,352.7459 111.3609,352.5693 112.4406,352.4709 112.839,352.252 113.119,351.7798 114.0166,351.1593 116.2515,350.0122 117.1212,349.7427 117.4697,349.8174 117.7364,349.736 118.3266,349.925 118.9503,349.8064 119.5716,349.9393 120.0155,349.6938 120.685,349.6872 121.9653,349.9275 122.6857,349.4876 123.4033,349.2027 123.7077,349.2065 124.0856,349.3647 125.9704,348.7867 126.3492,348.7899 127.315,348.2132 128.1223,348.0416 128.7208,347.6288 128.89,346.9595 129.1529,346.6544 130.373,346.1531 131.0079,345.4178 131.9069,344.715 132.2155,344.2572 132.693,343.899 133.1494,343.7887 134.2462,342.6289 134.6922,342.6908 135.1375,342.3317 136.1879,342.2454 136.7069,342.0704 137.4794,341.0852 138.3128,339.7246 139.6763,338.7612 139.8915,338.1907 140.5561,337.2605 140.971,336.9154 141.8396,335.6389 143.5967,334.4142 144.8013,334.0082 145.2911,333.7205 145.3428,333.6112 145.6598,332.9406 146.1191,332.6247 146.1703,332.3031 146.4164,332.0546 146.4268,331.2988 146.7955,330.9814 147.8752,329.5629 148.8543,328.7947 149.1203,328.181 149.8764,327.3235 149.9628,327.0718 149.9048,326.7791 149.7118,326.5795 149.3021,326.575 149.1557,326.1958 149.1746,325.9161 149.3463,325.5542 149.9477,324.9028 150.4696,323.9578 150.8481,322.9558 151.0326,322.8179 150.864,321.767 151.1763,320.6356 151.3782,320.3727 151.3648,320.1486 151.079,319.8938 151.083,319.6137 150.9341,319.4165 151.1698,318.9428 150.7134,317.8738 150.8247,317.4121 150.8505,317.3023 151.2866,317.0073 151.5407,316.7368 151.6526,316.3458 151.7918,316.1973 152.0964,316.1127 152.2053,315.9047 152.4048,315.7815 152.4684,315.5163 152.8176,315.4779 152.8537,315.1987 153.1218,314.9632 152.9271,314.7652 153.0353,314.6131 153.6946,314.1871 154.1597,313.5499 154.9987,313.1104 155.1074,312.567 155.5535,312.0681 155.6955,311.7196 156.2629,311.2641 156.3132,310.9146 157.2297,310.4926 158.0819,309.9412 158.8635,309.3492 159.4182,308.7546 160.1045,308.4823 160.1073,308.2724 160.5392,307.858 160.5693,307.3831 160.8784,306.882 160.8511,306.7562 160.5188,306.556 160.6139,306.2221 161.0754,305.8491 161.9254,305.8999 162.5099,305.7676 163.1227,305.4674 163.4664,304.8558 165.0581,303.7538 165.4629,303.6914 165.6318,303.5388 165.9295,302.9133 166.4374,301.2701 167.2872,300.6633 168.1704,300.5889 168.5509,300.4116 168.5094,300.173 168.1934,299.8615 168.5422,298.8443 169.4002,298.8676 169.8596,298.5379 170.6533,298.24 170.7882,298.3524 170.9776,298.929 171.2495,299.0436 171.5149,298.5291 171.9164,298.5609 172.2691,298.2721 172.4421,297.8125 172.8688,297.6765 173.217,297.7926 173.3548,297.6408 173.7318,297.7847 173.9333,297.5628 174.3126,297.5817 174.3442,296.9517 175.8718,296.2281 176.2268,295.8121 176.5466,295.7591 176.8455,295.5243 177.4729,295.5193 177.8502,295.3272 178.5457,295.5441 179.3989,295.5038 179.926,295.6026 180.1559,295.4243 180.427,295.5805 180.7416,295.4886 181.0696,295.5577 180.9718,295.222 181.0419,295.148 181.5243,295.3042 181.7534,295.1697 182.086,295.2223 182.3459,295.0652 182.5576,295.11 182.7716,295.0212 183.5195,295.2387 184.0998,294.7287 184.3576,294.6822 184.7422,294.3777 184.9839,294.5007 185.2065,294.3208 185.472,294.3235 185.4973,294.1069 185.6851,293.9431 185.6313,293.4251 185.7533,293.1737 186.0377,293.1659 186.3855,293.927 187.0441,294.4544 187.1283,295.0998 187.0229,296.6516 186.5202,298.1079 186.3171,299.3312 186.5044,299.9933 187.3155,301.5875 187.9181,304.822 189.5382,307.3236 188.834,308.3822 188.8294,309.8241 188.9989,310.7313 188.9169,311.4893 189.5562,312.344 189.7903,313.2189 190.1239,313.7943 190.1444,314.6847 189.3376,317.5197 189.2037,318.3861 189.3504,319.4042 189.8388,320.6464 189.8534,321.0653 189.8782,321.7729 190.2775,323.5397 190.7011,324.2438 190.7573,325.0598 191.1855,326.0537 191.6161,327.0526 191.5452,328.4018 191.7791,329.3041 191.09,330.527 190.3997,331.256 190.1781,332.3599 190.2144,333.0879 191.1572,335.0092 191.9979,338.3069 192.2214,340.4106 191.8826,343.0055 191.5438,344.2463 190.481,345.197 190.7337,346.5711 190.6854,347.8588 190.9023,349.963 191.2271,350.8378 191.747,353.8405 191.564,354.9276 191.1562,355.8736 190.888,357.0863 190.9241,357.7442 191.3958,359.0178 191.7303,361.1408 192.4903,362.0503 193.8378,362.6585 193.468,363.3416 193.4714,363.5597 193.4989,365.2923 193.0808,366.3474 193.4499,367.0568 193.6868,368.0139 194.5643,368.7963 195.2221,370.2614 196.5175,373.1463 196.4439,373.8533 196.7468,374.9671 196.6013,376.0517 195.8993,376.7102 194.1784,379.328 193.3807,380.269 192.3017,381.2561 191.4423,381.7887 189.2837,385.1987 186.8207,390.6157 185.6965,392.013 185.5553,394.0528 186.0804,395.9666 187.4666,397.5664 189.6509,398.9712 197.0709,414.7716 197.1911,415.0275 197.9322,416.6057 207.9828,438.0077 214.1757,452.2133 213.7788,452.5411 213.3503,452.6861 208.7924,455.542 207.1288,456.9699 206.146,458.3049 205.7803,461.0485 205.2215,463.0967 201.9857,467.5687 199.4188,469.1904 193.6012,472.0993 192.0505,473.4158 191.1521,474.3927 190.3166,475.3013 189.9934,475.6526 189.8257,475.835 187.9726,478.5207 187.2261,480.8986 187.0181,481.2259 187.0964,481.7343 186.4364,482.0275 186.2037,482.2672 186.1275,483.0805 186.4192,483.3242 186.4156,483.5659 185.9486,484.1944 186.0371,484.8272 186.0021,485.039 185.7703,485.2475 185.7299,485.82 185.237,485.8744 185.1686,486.0849 184.8365,486.3523 184.5439,486.3865 183.9375,486.8611 183.8227,488.1268 182.6276,488.4446 182.503,489.8096 181.6134,490.2509 181.0703,491.6029 180.5522,492.2631 179.9058,492.7358 180.1106,493.6164 179.6064,494.3598 178.9797,494.9688 179.9087,495.5131 179.7226,496.5733 178.8329,496.4556 178.798,498.5219 178.4075,499.3739 176.5037,499.916 174.6999,499.9465 174.3749,498.9742 174.5783,498.3369 174.1908,497.7586 173.2636,498.2149 171.4766,497.9334 170.9181,498.8125 170.9191,499.5441 170.0402,500.0 169.8945,498.4826 170.0603,497.1617 169.8561,496.3358 169.1833,495.9253 167.5807,495.5145 167.0438,494.7746 166.3851,494.6637 164.8976,495.1201 163.7726,494.6572 163.3797,493.0486 163.2819,492.1134 162.9268,491.1627 162.1539,490.1873 162.0037,489.4438 161.5262,488.8656 159.9609,489.2238 159.4023,490.1659 158.475,491.1158 158.7431,492.2859 158.4428,493.4117 157.834,492.76 157.2435,493.3614 156.129,492.9253 155.4068,492.9101 154.9531,493.4617 155.1224,494.2775 154.5507,495.1029 153.6881,495.4511 153.1823,494.3903 152.7085,492.8486 153.4691,490.5859 152.5403,487.5353 151.2743,487.4241 150.4179,486.4383 149.87,486.4278 149.4642,486.42 149.2106,487.5717 148.6975,487.9703 146.8243,488.9116 146.2778,489.4338 145.7665,489.7074 145.2688,489.0481 144.5967,486.3681 144.2357,485.5877 143.9366,485.2421 142.5345,484.3345 141.389,483.752 140.8483,483.7452 140.3374,483.9886 138.8346,485.1817 138.2461,486.1382 137.5923,486.9384 136.9808,487.2089 136.599,487.225 136.3712,487.2338 136.2051,487.0767 136.1448,486.5473 136.1893,485.8022 136.5459,484.4705 136.5957,483.3828 136.4659,482.947 136.0691,482.3522 135.9763,481.7928 135.7131,481.26 135.2109,480.8819 134.1309,480.8068 133.7218,481.0198 133.6472,481.5465 132.4147,482.6821 131.329,483.0422 130.6112,483.5612 130.1715,483.4938 129.9401,483.1805 129.8914,481.8124 130.2443,481.2508 130.5802,480.92 130.6888,480.4544 130.2578,479.8296 129.9309,479.0485 129.6319,478.7038 129.3972,478.6064 129.0582,478.6649 128.3351,479.5883 127.9188,480.0014 127.3759,480.5409 127.2367,480.8483 127.2464,482.5268 126.8662,483.0503 126.3225,483.2923 125.7126,483.4093 125.4101,483.343 124.4709,482.8043 123.9643,482.7972 123.6899,483.0743 123.4277,484.8431 123.2887,485.1182 122.9491,485.2402 122.1076,485.0125 121.8024,485.0389 121.1549,485.4351 120.7136,485.5239 119.975,485.2664 119.3648,485.3526 118.827,485.1287 118.6276,484.9077 118.8391,484.1997 118.8456,483.8549 119.1584,483.2689 119.0963,482.8633 118.8333,482.3315 118.5311,482.2351 117.7152,482.5355 117.2435,482.499 116.311,481.4938 116.2137,481.2139 116.6949,480.5072 117.143,480.0441 117.8226,479.7727 118.1987,479.4652 118.4444,478.8479 117.1449,477.5571 116.6755,477.3042 116.1356,477.2972 115.5547,477.7257 114.3059,479.9474 113.9631,480.2535 113.7272,480.2197 112.1221,479.05 111.518,478.7323 111.081,478.6336 110.7754,478.6928 109.921,479.3655 109.6495,479.4245 109.5182,479.1433 109.5903,478.8019 110.9368,476.8925 110.7053,476.6092 110.3364,476.3873 109.408,475.0717 108.9339,475.1651 108.7435,476.6533 108.3985,477.1145 108.1959,477.1434 107.7927,476.9518 107.5571,476.9497 107.0464,477.1601 106.6449,477.1603 106.1336,477.1608 105.6208,476.8407 105.408,476.3901 105.4668,475.9425 105.2746,474.7651 104.4806,474.9792 103.7953,474.9984 102.038,474.4737 101.031,474.6843 100.605,474.6792 100.1231,474.3391 98.8332,474.126 97.7949,474.3659 96.5967,475.1067 94.9465,476.6246 94.2146,476.7834 93.6689,476.6646 92.8244,476.0673 91.0403,474.2826 90.5253,474.1914 90.3701,474.3849 90.4265,474.6383 90.7003,474.9147 91.1799,475.1233 91.3283,475.3771 91.2092,476.2433 90.7459,476.7683 90.0105,477.0668 88.578,477.2727 88.291,477.1306 88.0536,476.7076 88.162,475.5615 88.0753,475.253 86.8233,473.4469 86.5797,472.4364 86.0796,471.2896 85.7177,471.0259 85.414,471.0236 84.9198,471.4919 84.5726,471.6264 83.9523,471.7065" stroke="black" /></svg>