<?xml version="1.0" encoding="utf-8" ?>
<svg baseProfile="tiny" height="500" version="1.2" width="401.1088" xmlns="http://www.w3.org/2000/svg" xmlns:ev="http://www.w3.org/2001/xml-events" xmlns:xlink="http://www.w3.org/1999/xlink"><defs /><polygon fill="none" points="263.8548,351.4016 263.8476,351.0333 263.8696,350.78 263.8586,350.4936 263.8146,350.2513 263.9181,350.0225 254.9879,323.6687 244.3685,292.2691 248.1517,268.515 248.6713,268.5843 249.1483,268.7433 249.7276,269.1863 250.1933,269.4475 250.6589,269.5384 250.9883,269.4816 251.5676,269.4362 252.0673,269.5838 252.6466,269.6179 253.0782,269.2885 253.4644,268.6071 253.8278,268.255 254.089,267.6984 254.5093,267.4713 255.0431,267.3009 255.4861,267.1192 255.8154,266.7671 256.3038,266.574 257.4851,266.4604 257.61,266.2787 257.6554,265.8925 257.5191,265.495 257.6214,265.1656 257.9735,264.9384 258.4732,264.6772 258.8139,264.6091 259.2683,264.5977 259.6317,264.3365 259.9725,264.4273 260.4041,264.7113 260.511,265.0029 260.6596,265.1361 260.7977,265.1839 260.8402,265.0617 260.8243,264.9236 260.9305,264.7802 261.0102,264.5889 261.0527,264.2543 261.0315,264.0046 261.0687,263.9249 261.2068,263.8612 261.4139,263.8293 261.5096,263.7709 261.5786,263.6487 261.7167,263.6115 261.8548,263.6434 261.9558,263.739 262.1151,263.6806 262.2586,263.4946 262.4232,263.2078 262.5985,262.7722 262.4923,262.5544 262.487,262.4003 262.5985,262.3047 262.7685,262.4482 262.9385,262.3738 262.9438,262.1932 262.7845,261.8745 262.6092,261.5876 262.4392,261.4867 262.4126,261.3486 262.4817,261.2317 262.4126,261.0086 262.2639,260.8917 262.1736,260.7908 262.2373,260.6049 262.317,260.4402 262.3701,260.2065 262.3861,259.9302 262.4232,259.7284 262.4657,259.6168 262.641,259.4681 263.0076,259.3246 263.321,259.0484 263.5122,258.7084 263.645,258.5544 264.1019,258.1985 264.394,257.9063 264.4365,257.6248 264.3622,257.4814 264.1337,257.3273 264.139,257.1732 264.2453,257.0404 264.5056,256.8864 264.6596,256.6898 264.6862,256.488 264.6862,256.3021 264.6171,256.0258 264.5959,255.7655 264.8456,255.3778 264.8509,254.8784 264.8084,254.4747 264.9305,254.3207 265.1749,254.241 265.1855,253.816 265.0262,253.5557 265.0047,253.4722 264.973,253.3485 264.9624,253.1201 265.0633,252.9023 265.3236,252.7005 265.398,252.5039 265.568,252.3552 265.738,252.2702 265.8389,252.1693 265.9505,252.079 266.078,252.0896 266.1842,251.994 266.3064,251.909 266.4764,251.8505 266.6092,251.8346 266.7367,251.7071 266.7101,251.5637 266.742,251.4521 266.8323,251.3459 266.8748,251.1971 266.9651,251.1493 267.1244,251.1918 267.2201,251.2343 267.321,251.2237 267.4803,251.1122 267.6078,251.0856 267.7619,251.1281 267.8841,251.1706 268.0835,251.2387 268.1019,251.245 268.2187,251.3246 268.309,251.3565 268.4153,251.3459 268.479,251.2609 268.5162,251.1759 268.6012,251.0856 268.7553,251.0272 268.9305,251.0803 269.143,251.2131 269.3608,251.3884 269.4458,251.5531 269.5308,251.6699 269.6317,251.6593 269.7645,251.5796 269.908,251.5796 270.0036,251.6646 270.1258,251.739 270.2108,251.7337 270.3648,251.654 270.4551,251.5849 270.5348,251.4787 270.6198,251.4203 270.8854,251.4256 270.997,251.3778 271.0819,251.245 271.1244,251.1175 271.2572,251.0537 271.4432,251.0112 271.6132,251.0697 271.7141,251.1865 271.7778,251.229 271.8788,251.2343 272.0753,251.16 272.309,251.2981 272.4312,251.3034 272.5162,251.2184 272.5268,250.9687 272.58,250.889 272.6862,250.8784 272.8243,250.9794 273.1005,251.075 273.2758,251.0218 273.4724,250.8625 273.5414,250.8412 273.5946,250.7934 273.6318,250.6181 273.7008,250.5384 273.9452,250.6288 274.1045,250.6128 274.2214,250.5756 274.3383,250.4694 274.4392,250.4747 274.6092,250.2994 274.8323,249.2901 274.9279,249.0457 275.4697,248.6102 275.8416,247.8877 275.8416,247.2715 275.8947,247.1015 276.0647,247.059 276.3515,246.8678 276.5428,246.8572 276.649,246.8253 276.7871,246.7403 277.159,246.5491 277.3449,246.5809 277.5786,246.5969 277.8283,246.5384 277.9717,246.411 278.1152,246.2994 278.4445,246.2303 278.6729,246.2038 278.981,246.1135 279.0713,245.9647 279.0554,245.7735 279.1085,245.646 279.4591,245.4017 279.6663,245.2689 279.9425,244.9395 280.0009,244.7483 280.1019,244.6048 280.2612,244.5039 280.4365,244.4455 280.5853,244.4561 280.8987,244.6208 281.1059,244.6314 281.4936,244.5198 281.7168,244.3764 281.8496,244.0736 281.8708,243.8824 281.9983,243.3831 282.062,243.1281 282.2373,242.8678 282.2427,242.2675 282.1045,241.7416 282.0207,241.5719 281.8867,241.3007 281.4777,240.4348 281.414,239.9249 281.4087,238.9209 281.4193,238.5172 281.5308,237.97 281.6052,237.7257 281.7593,237.5185 282.0302,237.3645 282.0729,237.357 282.3967,237.3007 282.9385,237.0298 282.9226,236.6898 282.811,236.5145 282.7261,236.3127 282.6782,235.9621 282.6198,235.7496 282.3117,235.0749 282.3383,234.8731 282.3755,234.7456 282.3542,234.5331 282.1205,234.225 282.1152,233.9435 282.2586,233.8479 282.4923,233.7947 282.6995,233.6566 282.8642,233.3751 282.912,232.9767 282.9067,232.6792 282.6836,231.9143 282.7739,231.8027 282.9704,231.7071 283.0448,231.5265 283.0448,231.3777 282.9279,230.9262 282.9704,230.6925 283.1138,230.4375 283.1563,230.2463 283.151,229.7097 283.1191,229.3857 283.1723,229.0829 283.2519,228.881 283.1882,228.5889 283.0554,228.2436 283.0342,227.9461 283.1723,227.4468 283.1723,227.2662 283.1032,227.0324 282.8642,226.8625 282.6942,226.4003 282.5454,226.0975 282.2745,225.8638 281.5785,225.4566 289.5406,216.3156 294.2011,213.5037 310.8086,203.4825 310.9854,203.6216 311.4073,203.6622 312.1701,203.6622 313.1033,203.719 313.4522,203.6784 313.7362,203.7271 314.2068,203.8813 314.6531,203.8975 314.9615,203.9624 315.3835,203.9624 315.846,204.003 316.341,204.003 316.4789,204.0598 318.4697,206.2334 318.4589,205.4798 318.4913,205.1309 318.6131,204.8956 318.6212,204.6684 318.8159,204.4331 319.4002,204.1653 319.5057,203.9868 319.5787,203.7758 319.603,203.5486 319.8871,203.3619 320.0737,203.1185 320.0818,202.94 319.9844,202.5424 320.0007,202.4206 320.7391,202.1447 321.1367,201.9257 321.3639,201.9013 321.5587,201.8689 321.665,201.8901 321.8021,201.9175 321.9968,201.8689 322.0628,201.7633 322.1186,201.6741 322.1348,201.3739 322.2403,201.1629 322.4269,200.9519 322.7109,200.4001 322.8245,200.319 322.9544,200.3433 323.0112,200.5462 322.9868,200.7166 323.0842,200.887 323.2871,200.9113 323.5143,200.8545 323.6035,200.7085 323.7415,200.5949 323.8632,200.5949 323.9281,200.749 323.8957,201.0331 323.7739,201.098 323.6441,201.2116 323.637,201.2616 323.6279,201.3252 323.7577,201.4631 323.9443,201.4307 324.0498,201.3414 324.1472,201.3089 324.2933,201.3333 324.4312,201.4631 324.6016,201.455 324.699,201.3982 324.7883,201.4388 324.7558,201.6416 324.7801,201.7715 324.9668,201.8526 325.1696,201.7634 325.3238,201.6254 325.4699,201.5848 325.7052,201.5767 325.9075,201.5567 326.1109,201.4388 326.2002,201.2927 326.2895,201.0168 326.6059,200.7166 326.752,200.6354 326.9062,200.5867 327.0766,200.4813 327.1902,200.3839 327.3687,200.319 327.7257,200.3433 327.7582,200.2135 327.7582,200.035 327.6749,199.7702 328.7401,199.6049 329.1701,199.4832 329.4866,199.5075 329.73,199.6049 330.4198,200.0755 331.0608,200.2703 331.4909,200.2459 332.0346,200.0268 332.2861,199.9782 332.5052,200.0106 332.7974,199.9051 333.268,199.6049 333.7549,199.3777 334.2174,199.0369 334.2255,198.8583 334.469,198.6879 334.6475,198.6068 334.6881,198.3877 334.4608,197.8602 334.6881,197.3085 334.8828,197.1299 335.1668,197.0326 335.4427,197.0082 335.4531,197.0206 335.7024,197.3166 335.7998,197.5438 335.8971,197.6574 336.2055,197.8197 336.4327,197.8116 336.668,197.7061 336.879,197.4383 336.8952,197.3328 337.0251,197.1543 337.2523,197.0488 337.4714,196.781 337.4227,196.4808 337.3091,196.2454 337.2441,196.0507 337.2279,195.7586 337.3091,195.4502 337.6174,195.1987 337.7554,195.012 338.0556,194.8497 338.1854,194.8497 338.3315,194.8173 338.5587,194.8254 338.6642,194.8254 338.7859,194.7524 338.9482,194.7199 339.1754,194.728 339.3539,194.8497 339.4919,195.0039 339.6947,195.1175 339.9544,195.1419 340.2384,195.1338 340.4656,195.0526 340.5711,194.8416 340.9282,194.6956 341.0905,194.6874 341.3258,194.7037 341.5124,194.8092 341.7234,194.8822 341.8532,194.9309 342.048,195.0607 342.1372,195.2068 342.3239,195.296 342.4375,195.3204 342.6485,195.3123 342.6809,195.296 342.7864,195.1256 343.0055,195.0607 343.2084,195.1175 343.3788,195.2311 343.4275,195.3366 343.6222,195.4908 343.7683,195.5882 343.8575,195.6125 344.0462,195.5808 344.2633,195.5395 344.5067,195.4908 344.6041,195.4908 344.7988,195.4664 345.1234,195.4827 345.4642,195.4502 345.6509,195.4421 345.9592,195.5395 346.1783,195.6774 346.265,195.7503 346.3812,195.8478 346.6246,195.9777 347.0393,196.1446 347.2494,196.2292 347.3874,196.3266 347.4766,196.4727 347.3549,196.6512 347.3491,196.7449 347.3468,196.781 347.4361,196.9433 347.4601,196.9601 347.5984,197.0569 347.7444,197.0812 347.9229,197.0812 348.1664,197.0975 348.3611,197.1705 348.491,197.2111 348.8886,197.2273 349.0463,197.2703 349.0671,197.276 349.2294,197.2192 349.2341,197.2089 349.3592,196.9352 349.5783,196.8459 349.7568,196.854 349.8948,196.9352 350.0084,196.919 350.2437,196.7404 350.3654,196.7161 350.5439,196.7404 350.5966,196.763 350.828,196.8622 350.9578,196.8865 351.1607,196.8459 351.2824,196.781 351.3716,196.708 351.6881,196.5944 351.7936,196.5944 351.8342,196.5824 352.0127,196.5295 352.2318,196.5051 352.4236,196.5479 352.8869,196.5746 353.2673,196.7347 353.5775,197.115 353.9178,197.6655 354.3182,198.1159 354.4948,198.3582 354.7485,198.7064 355.1783,198.9556 355.249,198.9967 355.3034,199.065 355.6393,199.4871 355.8895,199.8624 356.0347,200.0025 356.0497,200.0926 355.9796,200.1577 355.8995,200.2127 355.8995,200.2928 355.9596,200.3879 356.0497,200.4229 356.1097,200.4079 356.1798,200.3778 356.2699,200.3128 356.3249,200.3178 356.39,200.4429 356.5651,200.588 356.7903,200.7281 356.9605,200.7532 357.1389,200.7205 357.3158,200.7131 357.621,200.7532 357.7912,200.7932 357.9663,200.8783 358.1615,200.9633 358.3166,200.9934 358.5768,200.8933 358.747,200.9033 358.8521,200.9533 358.9221,201.0334 358.9472,201.1535 359.0322,201.1785 359.3375,201.1385 359.4576,201.1335 359.898,201.1885 360.1932,201.2686 360.4935,201.2186 360.7287,201.2236 360.8888,201.1986 361.099,201.1085 361.2942,200.9934 361.6645,200.9333 361.8046,201.0334 361.9498,201.0985 362.1499,201.1035 362.275,201.0534 362.4052,200.9483 362.6303,200.8583 362.7855,200.8833 363.1158,201.0684 363.5011,201.0885 363.6712,201.0684 363.9115,201.0885 364.1016,201.0885 364.2968,201.0334 364.4669,200.9984 364.6371,200.9884 364.8973,201.0534 365.0574,201.1135 365.5979,201.1935 365.763,201.3036 366.1284,201.2236 366.3836,201.2136 366.5888,201.3787 366.6788,201.5539 366.6989,201.669 366.7505,201.8797 366.7589,201.9142 366.7739,202.1193 366.864,202.3345 366.9641,202.4847 367.1192,202.5898 367.2994,202.6398 367.4745,202.7499 367.5896,203.0101 367.6397,203.1002 367.7598,203.2353 368.0,203.3104 368.1651,203.3004 368.7056,203.3954 369.3918,203.7062 369.6428,203.9219 381.8875,217.7557 346.3335,239.4053 346.5168,250.2748 346.9617,276.6747 346.979,277.0948 347.1799,277.2797 347.5496,277.4163 348.313,277.577 348.4979,277.8181 348.4496,278.1074 348.2487,278.4048 348.305,278.678 348.4496,278.9834 348.538,279.2406 348.6023,279.5942 348.8354,279.8513 348.9318,280.1326 348.9479,280.438 349.0443,280.6871 349.2935,280.8479 349.6069,281.1613 349.6069,281.4265 349.7756,281.7078 350.0087,281.8926 350.3543,282.2703 350.8365,282.3828 351.2865,282.3989 351.5356,282.5034 352.2027,282.7043 352.3232,282.9213 352.5241,283.4517 353.0545,283.8213 353.1831,283.958 353.3438,284.2232 353.818,284.5768 354.0189,285.2438 353.9948,285.4126 353.6894,285.6537 353.151,285.951 352.9902,286.5778 353.0706,286.8029 353.2474,286.9475 353.4724,287.2127 353.818,287.4297 354.0993,287.6708 354.4046,287.8798 354.4609,288.4021 354.2761,288.812 353.9948,289.1656 353.7939,289.5996 353.7537,289.8567 353.9626,290.2666 354.2761,290.4514 354.6295,290.5476 354.7323,290.7279 354.8869,291.3152 354.3382,291.8407 354.1218,291.9798 354.0052,292.2374 353.8359,292.3971 353.6736,292.3894 353.5268,292.4899 353.2641,293.0772 352.9627,293.4326 352.9241,293.6026 353.0709,293.734 353.0554,293.8963 352.9395,293.9968 352.8545,294.1977 352.7618,294.87 352.839,295.1405 352.9859,295.5268 353.0322,295.805 352.9936,296.0291 352.839,296.2146 352.7386,296.4155 352.7077,296.686 352.7927,296.856 352.9009,297.3738 352.9086,297.9611 353.0941,298.2006 353.3491,298.162 353.4418,298.2083 353.55,298.3938 353.4109,298.8111 353.5886,298.9888 353.7818,299.0507 353.8436,299.1666 353.8668,299.5684 353.8668,299.7925 353.9287,300.0475 353.8359,300.2253 353.7123,300.1171 353.5036,300.1557 353.4959,300.4726 353.6427,300.7121 353.6547,300.7532 353.6968,300.8976 353.805,300.9439 353.8746,301.0908 354.1677,301.2798 354.4619,301.4694 354.4775,301.5978 354.5005,301.7863 354.5932,301.9717 354.8405,302.0181 354.8942,302.047 354.941,302.0722 355.1419,302.2808 355.2772,302.5345 355.3274,302.6286 355.4033,302.695 355.451,302.7368 355.6133,302.8295 355.9919,302.9454 356.3551,303.3318 356.5174,303.7259 356.5311,304.0197 356.5329,304.0582 356.6488,304.1664 356.7174,304.1936 357.097,304.3441 357.4757,304.375 357.8234,304.5605 357.9702,304.7151 358.2562,304.9082 358.6174,305.2705 358.8377,305.5516 358.7809,305.8926 358.8093,306.0702 359.058,306.2905 359.0367,306.5534 359.0509,306.8234 359.2285,306.9655 359.4346,307.0934 359.4417,307.3137 359.7899,308.3937 360.0528,308.6353 360.4436,308.7063 360.9552,309.1042 361.2678,309.3245 361.5662,309.7722 361.687,309.9001 361.7154,310.099 361.8149,310.3903 361.9925,310.6532 362.0281,310.9019 361.8789,311.3424 361.7083,311.6267 361.9996,312.4083 362.092,312.593 362.021,312.799 361.9286,312.9696 362.0565,313.2538 362.1489,313.3533 362.2199,313.5877 362.4402,313.8578 362.7244,313.8862 362.8949,313.9785 363.0441,314.2201 363.2218,314.682 363.2786,314.9733 363.2431,315.2788 363.2502,315.4067 363.3426,315.6199 363.506,315.7407 363.5131,316.1102 363.641,316.1528 363.7191,316.2452 363.8044,316.4441 364.0673,316.4299 364.3586,316.3304 364.451,316.3802 364.6926,316.5933 364.9342,316.771 365.2326,317.0339 365.3747,317.2612 365.5381,317.6378 365.6873,318.0499 365.8152,318.3484 366.0995,318.6326 366.4476,319.0944 366.8668,319.3893 366.9485,319.5278 367.0125,319.7126 367.1546,319.8973 367.3251,320.0394 367.4424,320.2526 367.8545,320.3556 368.0428,320.6327 367.993,321.0839 367.9007,321.2189 367.787,321.3042 367.7821,321.38 367.9712,321.492 368.1253,321.7162 368.1113,321.9333 368.2234,322.1154 368.4686,322.3536 368.6367,322.6478 368.6437,322.963 368.7347,323.0401 368.9379,323.0961 369.12,323.2362 369.2811,323.4463 369.3512,323.6004 369.3792,323.8386 369.4702,324.0627 369.5543,324.2379 369.7714,324.42 369.8975,324.6231 370.2407,324.8543 370.3878,325.0364 370.696,325.1345 370.9412,325.0784 371.2494,325.1625 371.6767,325.4567 371.8028,325.6668 372.0129,325.8769 372.2511,326.0451 372.3912,326.2202 372.4262,326.4163 372.3562,326.5774 372.3772,326.7455 372.4962,327.0677 372.5243,327.2008 372.6574,327.2779 372.8745,327.3129 372.9936,327.418 373.0216,327.5651 373.0916,327.6982 373.9952,328.0904 374.1914,328.6648 374.6677,329.0641 374.9829,328.952 375.179,328.931 375.4662,328.973 375.5713,329.0431 375.6413,329.3793 375.6203,329.5754 375.4102,329.6525 375.3191,329.7575 375.3051,330.0307 375.3682,330.1498 375.6973,330.4388 375.137,330.617 372.8162,331.6818 372.0517,331.559 371.4783,331.1904 371.0141,330.4941 370.5636,329.989 369.2667,329.0471 368.2838,329.0198 367.8606,328.8559 367.0961,328.2416 366.1405,327.7502 365.7173,327.6273 365.3896,327.6 364.7071,327.8048 364.4477,328.0368 364.4127,328.1269 364.3521,328.2826 363.4921,328.9379 363.2544,328.9478 363.1644,328.9515 362.946,329.0471 362.4985,329.5125 362.2634,329.757 361.7583,330.0982 361.1167,330.4122 360.5706,330.4805 360.312,330.4309 360.1719,330.4353 360.0276,330.5283 360.0031,330.5919 359.3991,332.1592 358.6014,333.4328 358.5593,333.4744 358.5593,333.9656 358.0997,335.6294 357.8304,336.1998 357.3867,336.6277 357.0698,337.42 357.0381,338.1647 356.9272,338.6559 356.7845,339.4324 356.6736,340.0979 356.4518,340.5574 356.2004,340.9117 356.1824,342.6966 356.0259,343.9842 356.1111,344.4159 356.1745,345.8578 356.3171,346.8244 356.5865,347.8069 356.7132,348.5199 357.0777,349.7084 357.2995,350.8017 357.3625,350.9908 357.3946,351.0869 357.6006,351.388 357.9046,351.4375 358.282,351.4989 358.7098,351.6099 359.0901,351.8317 359.4704,352.6715 359.5739,352.8131 359.7715,353.0835 360.2146,353.3411 360.4528,353.4797 360.9758,353.6381 361.3072,354.0079 361.3877,354.0976 361.8314,354.4463 362.2593,354.3987 362.6712,354.2086 363.2259,354.2086 363.8597,354.3829 364.2531,354.7134 364.2558,354.7156 364.5727,354.8741 364.8421,354.8741 364.9976,354.8427 365.574,354.7265 366.4709,370.0646 366.1857,370.5515 366.3147,371.5835 366.2115,372.2286 364.844,373.9314 364.7408,374.3184 364.1216,374.9893 362.7025,375.8665 361.9027,376.1761 360.9481,376.6405 360.303,376.9243 359.6322,377.1307 358.6518,377.3371 356.6135,378.2402 354.0334,379.3238 352.6144,379.2206 351.7035,378.9038 351.4275,378.8078 350.3439,378.3434 348.4604,378.0338 346.7834,377.879 346.0867,377.75 345.7771,377.5694 345.3377,376.5311 344.9515,375.1957 344.6161,373.4928 344.2033,373.3638 343.2228,373.5186 342.1134,373.596 341.1587,373.6218 339.1463,373.8282 337.7788,373.3638 335.8438,373.4928 334.5795,373.9314 333.5991,374.241 332.567,374.4216 331.8446,374.2668 331.1222,374.2668 330.6578,374.4732 329.8837,374.4216 328.3873,375.1957 327.5101,375.1957 326.6328,375.6085 325.8588,375.5053 324.3223,375.529 323.4841,375.4607 322.6444,375.9738 321.8514,376.8601 320.8485,377.3499 319.8456,377.6531 318.7727,377.933 317.8165,378.0729 317.1167,378.0962 316.3471,377.6764 316.0205,377.2333 315.1809,376.7202 312.8719,376.1837 311.8923,374.9242 310.5861,373.5248 310.0497,373.2683 307.1343,372.9184 300.3005,374.9942 299.111,375.8339 296.7553,376.9301 296.1022,377.0467 294.7494,377.14 293.5133,377.0933 291.834,376.9767 291.2976,377.0933 290.0381,378.5627 289.4783,379.589 287.799,381.5248 287.2159,382.2945 286.5679,382.5613 286.4229,382.621 285.9725,382.6532 285.4433,382.691 283.3209,382.7143 281.2451,383.3907 280.1489,384.0438 278.2597,383.554 277.63,383.1108 277.0469,382.3878 276.2305,382.2945 275.7641,382.8543 274.9011,383.484 273.9215,383.6939 271.9157,384.3003 271.7379,384.3035 270.6329,384.3236 270.0265,384.8134 269.4434,385.4432 268.5104,385.8397 267.5775,386.1196 266.5513,386.5627 265.525,387.4257 265.0023,388.086 264.6387,388.5452 263.076,389.898 262.7962,390.551 262.2364,391.0175 261.9099,391.484 261.2568,392.0204 260.3005,392.5102 259.4842,393.723 259.0411,394.7726 258.6212,395.0058 257.9215,394.6327 257.1285,394.0262 255.1227,393.1866 254.3064,393.4198 253.1635,393.5598 252.5338,393.1866 251.7641,393.4665 251.1344,394.2362 250.1315,394.9592 247.5659,397.3149 247.1694,397.105 246.8662,396.2653 246.3531,395.1458 245.63,394.4927 244.5105,394.2595 243.6475,394.1429 243.2743,393.9329 242.6913,392.7668 242.4347,391.8338 241.9449,391.0875 241.3152,390.7376 239.0528,390.5044 238.1665,390.0146 237.0936,389.6414 235.5257,388.9806 252.4757,357.926 252.8227,357.7408 253.1311,357.6086 253.3624,357.4544 253.9902,356.8927 254.5408,356.4302 254.684,356.298 254.7611,356.0887 254.7832,355.7583 254.8823,355.6482 255.3669,355.4499 255.6973,355.3948 256.0498,355.3618 256.215,355.483 256.259,355.6922 256.3471,355.9125 256.7546,356.1658 257.1511,356.1328 258.1094,355.9235 259.0015,355.5931 259.5852,355.3067 259.6623,355.1746 260.18,354.9433 260.6205,354.69 261.1272,354.3045 261.5787,354.1062 261.744,353.941 261.8431,353.7978 261.8211,353.6546 261.6999,353.4894 261.6889,353.3463 261.788,353.17 262.2176,352.9718 263.2419,352.355 263.352,352.1678 263.5943,352.0576 263.8476,351.595 263.8548,351.4016" stroke="black" /><polygon fill="none" points="209.7608,134.9723 147.379,143.6957 147.0496,142.9346 147.4278,142.8827 147.6722,142.7337 147.858,142.5643 147.9276,142.2997 148.0738,142.2947 148.1235,142.3847 148.1157,142.5161 148.151,142.7837 148.3041,142.8984 148.4996,142.911 148.5934,142.9171 148.8027,143.04 148.9918,143.1054 149.1629,143.0971 149.1765,142.9841 149.1239,142.6733 149.2052,142.3384 149.1552,141.9841 149.3135,141.7356 149.5699,141.6518 149.8067,141.8081 150.024,141.9354 150.2456,141.9491 151.1895,141.8962 151.8275,141.5846 152.1668,141.1655 152.4563,140.9231 152.8239,140.7981 153.1206,140.8246 153.4124,140.8276 153.9974,140.6879 154.656,140.4761 154.805,140.1859 154.7367,139.7476 154.5264,138.943 154.3122,138.5032 154.0312,137.4791 154.6969,136.6108 155.07,135.8125 155.4416,135.16 155.8078,135.0179 156.6829,135.0272 157.2687,134.8145 157.7147,134.0169 157.8652,133.5809 158.0924,132.781 158.0963,132.4163 158.2545,131.251 158.6237,130.8173 160.0946,129.6657 160.6354,129.177 161.0519,128.8006 161.2032,128.2916 161.7183,127.8594 162.0852,127.6444 162.9612,127.5807 163.3274,128.08 163.3926,128.1688 163.9714,128.6125 164.2593,128.9802 165.7179,128.9955 166.6691,128.7138 167.1113,128.2808 167.6287,127.6298 167.631,127.411 167.1297,126.5305 167.4291,125.8042 167.7115,125.6667 168.1622,125.4472 168.8255,124.7977 169.1721,124.0671 169.273,123.8542 169.425,123.2723 170.0138,122.7679 170.5343,121.8252 171.2666,121.5411 171.7042,121.5457 171.9524,121.6162 172.5042,121.7729 173.3816,121.5633 174.0411,121.2784 174.2629,120.989 175.0014,120.1215 175.1534,119.5395 175.3806,118.7396 175.3844,118.3749 175.6062,118.0855 176.3416,117.5097 176.9281,117.224 177.7365,116.649 178.3997,115.9995 179.1321,115.7154 179.9366,115.5049 180.5968,115.1471 180.6735,114.7832 180.2405,114.3411 180.3264,113.102 180.2588,112.5907 179.7575,111.7102 179.8357,111.2004 180.1328,110.6929 180.1373,110.2553 180.2908,109.5275 180.3729,108.6531 180.8173,108.0013 181.3286,107.9337 181.9865,107.7946 181.998,106.6907 181.9987,106.6277 181.6439,105.6758 181.7981,104.875 182.1776,103.7751 182.2494,103.5668 182.0382,102.8352 181.9669,102.7805 181.4594,102.3915 182.194,101.8886 182.3783,101.9522 182.848,102.1142 185.1088,102.1378 185.7705,101.6341 186.5066,100.9853 186.6586,100.4034 186.5173,99.9642 186.0129,99.3755 185.8024,98.5709 186.028,97.9168 186.9115,97.1236 187.2648,96.5713 187.4327,96.1079 187.8801,95.1643 188.6116,94.9531 189.2627,95.4704 189.7656,96.2051 190.0543,96.4998 190.9264,96.8007 191.7993,97.0286 192.3183,97.3187 193.17,97.3792 194.0082,97.1533 194.4771,96.3577 194.9863,95.4951 195.9294,95.0324 196.3898,94.9601 196.9123,94.878 197.394,94.4102 197.7729,93.9494 182.3436,62.1615 170.4486,36.3189 171.6825,36.7715 172.0775,36.8335 185.3159,38.9038 190.389,39.4218 192.9573,39.9807 194.8262,40.5426 196.0182,41.657 198.6633,44.8879 200.7888,48.0925 201.9224,49.1474 202.381,49.3673 206.0407,49.8811 218.2569,50.4348 220.4009,50.5319 221.8089,50.5956 225.8239,48.5536 227.4812,49.6835 228.5443,49.8194 229.7252,49.3771 230.852,47.4893 232.3345,47.3737 238.9989,43.4802 239.9245,43.2896 242.3193,45.5845 245.4464,52.4481 247.4312,55.6655 248.2827,61.5238 249.0399,63.8216 250.5117,66.3985 252.4727,67.7159 259.5194,69.3685 263.6171,69.742 254.1647,82.0024 252.3597,82.9075 250.8143,83.5075 248.2361,84.7639 245.3495,86.0685 244.46,87.7526 242.3726,91.1692 239.9493,92.3244 238.1855,94.2049 236.8818,96.2439 235.8817,98.6966 235.6536,100.3065 235.6013,100.7051 235.5908,100.7845 234.361,114.1032 244.5635,120.331 257.4481,133.9027 252.1853,136.7094 242.2294,140.2422 241.819,140.4737 241.4256,140.8141 241.0306,141.3087 240.1654,142.56 239.8257,142.9645 239.377,143.386 238.9299,143.6624 236.0854,145.1651 235.7748,145.3886 234.3559,146.6885 232.267,148.7702 231.8982,149.3557 231.6573,149.8519 231.3158,150.4377 231.0862,150.7163 230.519,151.2 228.3154,152.9723 226.3083,155.0323 209.7608,134.9723" stroke="black" /><polygon fill="none" points="51.4719,354.4566 42.4041,347.6998 57.01,315.3053 65.2407,297.0504 63.7224,283.406 63.9541,283.3466 64.3001,283.3281 64.772,283.2803 65.0595,283.2584 65.4085,283.226 65.7769,283.1994 66.1007,283.1779 66.4022,283.1533 66.6479,283.1282 66.807,283.1216 67.3234,283.0799 67.5885,283.0633 67.9486,283.0338 68.398,283.0053 68.7832,282.9733 69.0987,282.9489 69.3723,282.924 69.6541,282.9104 70.0283,282.8699 70.5921,282.8371 71.0471,282.8003 71.3541,282.7786 71.7337,282.7577 72.2977,282.7026 72.8811,282.6561 73.4058,282.62 73.5286,282.6186 74.2488,282.5624 74.8546,282.5077 75.2705,282.4733 75.8957,282.4384 76.5404,282.3953 76.856,282.3625 77.0067,282.353 78.059,282.2782 79.1617,282.1871 79.8846,282.1421 80.6997,282.0786 81.3362,282.0187 81.9895,281.9673 82.2686,281.9481 82.9524,281.8999 83.3209,281.876 83.7508,281.8417 84.3817,281.7901 84.7864,281.7667 85.2664,281.7385 85.6487,281.7176 86.26,281.6769 87.1392,281.6225 87.5972,281.5661 88.362,281.5132 88.8869,281.4632 89.0823,281.4514 89.7246,281.3804 90.3276,281.3341 90.8692,281.2842 91.9523,281.2041 92.4742,281.1708 94.1321,281.0635 95.6311,280.9545 95.9521,280.9329 98.2159,280.7765 99.2235,280.7039 99.4051,280.6808 100.4603,280.6031 101.1916,280.5554 101.8755,280.4987 102.5789,280.4563 102.8412,280.4396 103.3689,280.3924 103.768,280.3689 104.1672,280.3398 104.6808,280.3092 105.2195,280.2677 105.6298,280.2443 106.6656,280.1552 107.4249,280.0966 108.2092,280.0466 108.7534,280.0191 109.3478,279.995 109.8224,279.9583 110.5623,279.8828 111.0927,279.8412 111.651,279.8054 112.0139,279.7759 112.7899,279.7259 113.482,279.686 114.1046,279.6343 114.7354,279.5937 115.1905,279.5541 115.33,279.5473 116.1813,279.4952 116.6923,279.4478 117.3064,279.4043 117.6582,279.3775 117.8751,279.4087 105.3286,311.3717 105.0701,311.6694 104.8208,312.0124 104.6509,312.2447 104.4471,312.5101 104.3218,312.743 104.0606,313.1639 103.7994,313.5737 103.5488,314.0393 102.4291,316.2254 98.7161,323.2651 95.9924,328.421 94.9434,330.4503 94.8177,330.7165 94.7374,330.9164 94.6333,331.2498 94.5745,331.5168 94.5384,331.7618 94.5126,332.0738 94.5202,332.3973 94.5394,332.6763 94.6027,333.0004 94.6991,333.3695 94.7859,333.5935 94.8724,333.8399 96.3576,336.756 96.3982,336.8707 96.4533,337.0595 96.5153,337.2568 96.5707,337.5362 96.6315,337.845 96.6682,338.1855 96.6684,338.1892 96.6809,338.4213 96.6779,338.6889 96.6594,338.9745 96.6346,339.2014 96.6136,339.3336 96.5605,339.591 96.4272,340.0426 96.3062,340.3897 96.1829,340.6923 96.1068,340.8908 95.941,341.2486 95.8256,341.4648 95.6141,341.7998 95.608,341.8079 95.4244,342.0542 95.2702,342.2421 95.0598,342.4782 94.9464,342.5848 94.7272,342.7909 94.4687,343.0052 93.964,345.429 88.4308,372.0722 65.1359,381.3518 51.4775,354.4608 51.4719,354.4566" stroke="black" /><polygon fill="none" points="78.2298,472.5277 76.2779,472.411 75.1726,472.411 73.55,472.1076 71.8568,471.9675 71.3159,471.8741 70.1401,471.5707 69.1759,471.4307 68.4469,471.5007 67.4827,471.4773 67.0436,471.2618 66.5891,471.1039 66.0952,470.9872 65.6954,470.7771 64.9899,470.637 64.4255,470.8238 63.72,470.7771 62.5442,470.3803 61.7211,470.3569 60.7569,470.1702 60.1455,470.1702 58.805,469.9134 57.9229,470.0431 56.8638,469.9455 56.2914,469.7888 55.798,469.7104 54.3867,469.4362 53.2223,469.2011 52.5808,469.2403 50.992,469.2011 50.311,469.0738 49.5413,469.1521 48.6432,469.1521 47.7353,469.2697 46.8373,469.4166 46.1958,469.3676 45.2978,469.1913 44.499,468.9525 44.4787,468.9464 43.778,468.8191 42.8197,468.8874 41.9721,469.0542 41.5181,469.0052 40.7977,468.9856 40.1168,469.1227 38.6365,469.2795 37.7878,469.2795 37.1266,469.299 36.5838,469.2109 36.2976,469.0346 35.7253,468.8289 35.2417,468.5938 3.8399,450.1881 1.4693,431.2865 0.6729,424.774 0.0,419.5511 0.0522,419.4112 0.1388,419.2911 0.1922,419.2978 0.2989,419.3645 0.4856,419.3445 0.6523,419.2978 0.7523,419.3178 0.8312,419.3592 0.8923,419.3912 1.0323,419.4445 1.2257,419.4712 1.4124,419.4378 1.5925,419.3711 1.7191,419.2245 1.9125,419.0311 2.068,418.9604 2.1326,418.9311 2.5526,418.8377 2.7793,418.8244 2.9194,418.8511 3.0527,418.9111 3.1527,419.0244 3.2952,419.1052 3.3528,419.1378 3.3776,419.1359 3.429,419.1321 3.5328,419.1244 3.9129,419.0177 4.045,418.9999 4.1596,418.9844 4.4263,418.9511 4.6597,418.9644 4.8931,419.0311 5.1598,419.1178 5.4665,419.2245 5.7999,419.3445 6.05,419.3956 6.0933,419.4045 6.1014,419.4023 6.1933,419.3778 6.46,419.3912 6.6067,419.4312 6.7934,419.4978 7.0201,419.5712 7.1668,419.5845 7.2606,419.5696 7.4602,419.5378 7.6869,419.4778 7.8803,419.4912 8.147,419.5912 8.4471,419.6579 8.8072,419.6445 8.8338,419.6245 8.9872,419.5312 9.1139,419.3978 9.1872,419.2778 9.2006,419.0978 9.2806,418.9977 9.3225,418.9726 9.3473,418.9577 9.4739,418.9377 9.5873,418.9244 9.634,418.8577 9.7203,418.8078 9.7607,418.7844 9.8318,418.7891 9.8607,418.791 9.9607,418.7577 10.0274,418.6377 10.0007,418.5243 9.9674,418.431 9.9674,418.3643 10.0074,418.2309 10.1074,418.0842 10.1274,417.9509 10.1874,417.9042 10.3208,417.8375 10.3941,417.7108 10.4541,417.5041 10.4675,417.4108 10.6475,417.3641 10.8009,417.2307 10.8675,417.084 11.0209,416.7773 11.0742,416.684 11.1224,416.6496 11.1676,416.6173 11.281,416.6373 11.401,416.6173 11.4846,416.608 11.581,416.5973 11.7277,416.564 11.8277,416.5239 11.8444,416.52 11.9411,416.4973 12.0744,416.4706 12.2878,416.4706 12.4545,416.5106 12.6185,416.4813 12.6412,416.4773 12.6473,416.4759 12.7279,416.4573 12.8679,416.4973 12.9773,416.4927 13.0279,416.4906 13.1346,416.4639 13.308,416.3239 13.388,416.3039 13.5681,416.1772 13.7748,416.0772 13.8614,415.8972 13.8748,415.7571 13.9681,415.5838 14.2015,415.3304 14.4682,415.237 14.7216,415.1704 14.9817,415.177 15.235,415.2637 15.4951,415.3771 15.8485,415.5571 16.1219,415.6504 16.2603,415.7326 16.3352,415.7771 16.4322,415.7885 16.562,415.8038 16.7263,415.8926 16.8087,415.9372 16.9684,415.9648 17.1554,415.9972 17.5688,416.1639 17.8755,416.3039 18.2289,416.5239 18.589,416.704 19.3025,416.9307 19.3613,416.9424 19.3691,416.944 19.4292,416.9107 19.4658,416.8594 19.5292,416.7707 19.5959,416.6906 19.6892,416.664 19.9093,416.6706 20.1693,416.7707 20.4294,416.8707 20.9161,417.064 21.2095,417.2174 21.3095,417.2307 21.4162,417.2241 21.5229,417.1774 21.7363,417.1441 21.8696,417.1574 21.9877,417.2188 22.0363,417.2441 22.0442,417.2467 22.2164,417.3041 22.3497,417.3308 22.5364,417.3841 22.7698,417.4308 22.8631,417.4374 22.9432,417.4708 23.0965,417.4975 23.2432,417.5575 23.3432,417.6242 23.4366,417.6775 23.6425,417.7225 23.65,417.7242 23.7366,417.6908 23.7967,417.6308 23.8276,417.5484 23.8367,417.5241 23.9433,417.4841 24.0167,417.4708 24.0936,417.4598 24.1567,417.4508 24.3501,417.3441 24.4368,417.2241 24.6222,417.0453 24.6235,417.044 24.6272,417.0424 24.6554,417.0304 24.7168,417.004 24.8435,416.9974 24.9378,416.9921 24.9635,416.9907 25.0169,416.944 25.1169,416.9107 25.1242,416.9088 25.2436,416.8773 25.3236,416.8373 25.437,416.8173 25.5703,416.7973 25.6353,416.746 25.697,416.6973 25.7084,416.6758 25.757,416.584 25.8637,416.5039 26.0237,416.4973 26.0904,416.5173 26.1556,416.6246 26.2038,416.704 26.3238,416.804 26.4238,416.8773 26.4544,416.8757 26.5505,416.8707 26.5972,416.8907 26.6352,416.8988 26.6905,416.9107 26.8239,416.904 26.8461,416.8855 26.8911,416.848 26.9039,416.8373 26.9124,416.8076 26.9172,416.7907 26.9306,416.6973 26.9906,416.6173 27.0306,416.6173 27.2106,416.604 27.2973,416.5506 27.3737,416.5307 27.4507,416.5106 27.4107,416.5173 27.4974,416.4973 27.6289,416.4973 27.7307,416.4973 27.9374,416.4839 28.2108,416.5306 28.4109,416.7373 28.5175,416.8107 28.6976,416.844 28.8643,416.824 28.9009,416.8068 28.9776,416.7707 29.171,416.6306 29.3977,416.4706 29.4736,416.4447 29.6711,416.3772 29.9645,416.4039 30.1712,416.4973 30.3779,416.5573 30.6313,416.684 30.8713,416.6506 31.058,416.6573 31.2314,416.704 31.387,416.7318 31.4181,416.7373 31.5515,416.6906 31.6112,416.6139 31.6298,416.5899 31.6448,416.5706 31.7715,416.4573 31.8251,416.4132 31.8849,416.3639 32.0382,416.3439 32.1516,416.3172 32.3316,416.3372 32.545,416.3973 32.6783,416.4773 32.7984,416.5439 32.905,416.7973 32.9717,416.944 33.1051,417.0907 33.1318,417.1441 33.1984,417.3308 33.2714,417.4768 33.2918,417.5175 33.3566,417.5261 33.4918,417.5441 33.6385,417.5308 33.7985,417.5041 33.9586,417.4908 34.0966,417.4448 34.1986,417.4108 34.2386,417.3574 34.2858,417.3229 34.4387,417.2107 34.6654,417.1441 34.8654,417.1307 35.1455,417.0374 35.3855,416.904 35.8123,416.9174 36.0256,416.9574 36.2257,417.0774 36.4101,417.1389 36.5857,417.1974 36.7724,417.2507 36.918,417.2904 37.0658,417.3308 37.2925,417.3574 37.4739,417.3574 37.5993,417.3574 37.826,417.2908 37.9193,417.2507 38.1327,417.1574 38.146,417.0374 38.1194,416.904 38.112,416.8454 38.106,416.7973 38.1327,416.6506 38.2232,416.5148 38.2927,416.4106 38.3861,416.3172 38.4528,416.2239 38.4128,415.8505 38.3861,415.6504 38.4394,415.4504 38.5861,415.2237 38.7995,415.0503 39.0262,414.7169 39.5196,414.3435 39.6263,414.1035 39.6663,413.7568 39.7597,413.53 39.773,413.29 39.733,413.1166 39.5596,413.05 39.4663,412.9566 39.5063,412.7166 39.5996,412.5565 39.693,412.3565 39.773,412.1164 39.8303,411.7284 39.8797,411.3936 39.893,411.303 39.933,411.2229 40.0531,410.9562 40.1161,410.8689 40.3998,410.4761 40.4931,410.3294 40.5065,410.1694 40.5732,409.956 40.8799,409.7027 40.9999,409.3693 41.0399,409.0225 41.1066,408.8091 41.0409,408.6449 41.0266,408.6091 41.0799,408.4357 41.1864,408.2894 41.32,408.1424 41.3333,408.049 41.3333,407.929 41.4267,407.769 41.6,407.6623 41.68,407.5556 41.7601,407.3555 41.8401,407.2355 41.9868,407.0622 41.957,406.973 41.9068,406.8221 41.9468,406.6487 42.0801,406.5287 42.2668,406.422 42.4669,406.422 42.6802,406.4487 42.7051,406.457 42.9603,406.5421 43.1203,406.5954 43.3535,406.4497 43.4404,406.3954 43.7338,406.3954 43.8404,406.4754 43.8671,406.6754 43.8796,406.6921 43.9471,406.7821 44.0527,406.8138 44.0805,406.8221 44.1472,406.8488 44.1866,406.908 44.2539,407.0088 44.3339,407.3155 44.3489,407.3589 44.4406,407.6223 44.3605,407.9957 44.4139,408.2357 44.3739,408.5024 44.3605,408.7425 44.3472,409.0492 44.2867,409.3141 44.2405,409.5159 44.2539,409.8894 44.2939,410.3028 44.3781,410.4992 44.4939,410.7695 44.6939,411.1163 44.9073,411.423 45.094,411.583 45.2707,411.6675 45.4007,411.7297 45.4107,411.7181 45.4808,411.6364 45.4941,411.4763 45.5741,411.3963 45.6408,411.383 46.1609,411.423 46.2142,411.423 46.3476,411.5297 46.2676,411.7297 46.3476,411.8497 46.4676,411.9431 46.6143,411.9431 46.881,411.7964 46.8852,411.7897 46.9477,411.6897 47.2411,411.5697 47.4411,411.6097 47.5232,411.5857 47.7612,411.5163 47.9479,411.4496 47.9907,411.3854 48.0279,411.3296 48.1746,411.2629 48.4097,411.2159 48.508,411.1963 48.9614,411.1029 49.1881,411.0229 49.5615,410.7829 50.015,410.7829 50.1616,410.6362 50.255,410.3694 50.335,410.0894 50.5617,409.916 50.7751,409.5293 50.8151,409.0625 50.4284,408.5558 49.6949,407.969 49.5491,407.832 49.0281,407.3422 48.708,406.7954 48.6147,406.4487 48.6014,406.2487 48.6814,406.0753 48.7491,406.1092 48.7881,406.1286 49.0281,406.022 49.1748,405.8619 49.3432,405.8667 49.6415,405.8753 49.9616,405.7819 50.295,405.6219 50.7751,405.1418 51.5086,404.635 51.5171,404.6328 51.8686,404.5417 52.3754,404.2216 52.8021,403.8615 53.0764,403.6147 53.2022,403.5015 53.4408,403.4219 53.4423,403.4215 53.4461,403.4195 54.1357,403.0747 54.3213,403.0376 54.6692,402.968 54.7785,402.9162 54.9342,402.8425 55.1759,402.728 55.3093,402.5413 55.3626,402.1946 55.2868,401.858 55.2877,401.8548 55.2843,401.8397 55.1626,401.2877 55.2159,400.7943 55.296,400.4209 55.3696,400.1723 55.4026,400.0608 55.536,399.8341 55.696,399.7141 55.7181,399.6667 55.7894,399.5141 55.7082,399.398 55.696,399.3807 55.4528,399.2185 55.3796,399.1697 55.376,399.1673 55.2826,398.994 55.3093,398.6339 55.1359,398.1805 55.1359,397.7404 55.2282,397.2788 55.2293,397.2736 55.496,396.8069 55.8985,396.3221 55.9699,396.2361 56.0828,396.1001 56.4562,395.8467 57.0963,395.5533 57.2539,395.5235 57.5897,395.46 57.7631,395.2466 57.9248,395.1533 58.1098,395.0465 58.2516,394.9914 58.3499,394.9532 58.3801,394.8957 58.4832,394.6998 58.6032,394.2731 58.6299,394.2464 58.91,394.033 58.9741,393.9618 59.15,393.7663 59.15,393.6329 59.129,393.5277 59.11,393.4329 59.0833,393.1929 59.1545,393.0966 59.31,392.8861 59.3901,392.4994 59.5501,391.8326 59.5736,391.3396 59.5768,391.2725 59.6701,390.9258 59.7768,390.8591 59.9768,390.7791 60.5103,390.1523 61.1104,389.4321 61.6838,388.2986 61.7105,387.7785 61.5238,387.4718 61.5371,387.0584 61.7792,386.4905 61.8839,386.2449 62.1239,385.6181 62.3124,385.5294 62.3506,385.5114 62.4472,385.3947 62.6707,385.1247 63.3508,384.1511 63.6421,383.8598 64.0843,383.4177 64.5146,382.6271 64.6577,382.3641 64.8978,381.7507 65.1359,381.3518 88.4308,372.0722 98.0935,390.7002 99.0937,391.5984 99.1423,391.8059 99.4271,393.0216 101.3274,394.2462 101.3274,395.3715 102.461,395.868 103.4278,395.6694 104.0613,394.9081 104.9948,394.4779 105.2616,394.3707 105.7616,394.1469 106.595,394.511 107.1285,395.2391 107.9286,395.6032 109.1621,395.6032 110.3623,395.4046 111.2625,395.6363 111.5959,397.225 111.7626,398.0193 111.9652,398.5054 112.1627,398.9791 112.6197,398.9997 113.6296,399.0453 114.7298,398.6481 115.5633,399.7072 117.1635,400.8325 118.5378,401.0372 119.1639,401.1304 120.8975,400.634 122.1977,400.4685 124.2314,400.1375 125.1316,400.3692 127.5525,400.4008 127.6654,400.4023 128.6989,400.9318 130.0324,402.1564 130.7325,401.3952 132.2995,401.0642 133.9998,400.7333 134.242,400.8067 135.2,401.0973 136.2002,400.6671 137.2337,400.0713 137.9338,399.6411 139.0006,399.3763 139.0432,399.1015 139.2674,397.6552 140.6009,396.8609 142.3346,396.0996 143.7015,395.7025 145.1684,396.1658 146.602,396.563 147.565,397.2825 155.209,411.0608 162.8669,424.8467 160.361,430.1239 158.2986,434.4718 153.6217,444.2999 148.6108,455.0242 140.3918,472.2946 140.1009,472.7094 139.8811,473.0543 139.7492,473.7401 139.7283,474.4092 139.7228,474.5843 138.9314,475.2174 138.5357,475.6658 137.7443,475.8241 137.7311,475.8272 136.61,476.0879 136.399,476.4572 136.0587,476.8201 136.0033,476.8793 135.6076,477.1694 135.3787,477.2239 135.0537,477.3013 134.0776,477.3277 133.7611,477.7762 133.6542,478.2839 133.55,478.7786 133.6028,479.5172 133.0488,480.1767 131.4978,480.6487 130.6219,480.9153 129.9888,481.2582 129.5347,481.8774 129.1312,482.4273 128.0895,484.1599 127.0607,485.2151 126.2958,485.558 125.9561,485.6319 125.0823,485.8218 122.7609,485.8218 122.3916,485.901 122.1806,486.4022 122.1542,487.3254 121.8904,488.0377 121.4156,488.5916 121.1725,489.102 121.0463,489.7523 120.9144,490.1744 120.9935,490.5701 121.0757,490.7163 121.2309,490.9922 121.2309,491.4406 121.0199,492.232 120.5978,492.8387 119.9384,493.3927 119.5477,493.6304 118.7249,494.1313 118.7374,494.4867 118.804,494.9754 118.7248,495.1999 118.6458,495.4239 118.5809,495.4743 117.9335,495.9778 117.8016,496.4263 117.8906,496.7909 116.4914,496.0788 115.9976,495.6821 114.9158,495.4253 114.3044,495.6821 113.2461,496.5223 111.8135,496.8877 109.3584,497.5139 107.8373,497.806 106.5674,498.0394 105.7443,498.3895 104.5685,499.0897 104.1207,499.4261 103.7689,499.7433 102.7577,500.0 102.0287,499.9066 101.3702,499.7433 100.5471,499.1831 99.7711,498.8797 98.4306,498.8797 97.537,498.5529 97.0432,498.0861 96.4317,497.3159 95.9849,496.0322 95.5616,494.7018 94.715,493.6981 93.5627,492.9979 92.4574,492.5544 91.3591,492.0268 89.8471,491.8075 89.024,491.6208 88.2479,491.3874 87.8209,491.1812 87.3778,490.9673 86.8369,490.5238 86.1766,489.2775 85.6846,487.7929 86.1549,486.0424 86.3901,485.2021 86.8369,484.3851 86.8369,483.4982 86.4136,483.1247 85.1202,482.9613 84.2501,482.6346 83.1918,481.981 82.5334,481.024 82.3923,479.6702 80.8167,478.7132 80.4404,478.2697 80.1111,477.6629 79.8054,476.9393 79.0059,476.3091 78.4885,475.4454 78.3474,474.6285 78.3944,473.2513 78.2298,472.5277" stroke="black" /><polygon fill="none" points="263.7423,132.519 263.6896,132.4003 263.5989,132.1957 263.1834,131.1692 262.7047,131.4862 261.8203,131.9876 261.3737,132.2183 260.6233,132.3648 259.922,132.6088 259.3373,132.9092 257.7066,133.8112 257.4481,133.9027 244.5635,120.331 234.361,114.1032 235.5908,100.7845 235.6013,100.7051 235.6536,100.3065 235.8817,98.6966 236.8818,96.2439 238.1855,94.2049 239.9493,92.3244 242.3726,91.1692 244.46,87.7526 245.3495,86.0685 248.2361,84.7639 250.8143,83.5075 252.3597,82.9075 254.1647,82.0024 263.6171,69.742 266.3182,69.9883 269.6184,68.8323 275.6789,65.0327 278.9162,60.7787 282.6468,58.7048 283.3811,57.556 283.805,55.2571 284.4691,49.7436 284.4032,47.2179 284.8644,45.0866 289.4261,42.8715 293.2668,40.4657 295.4649,38.4946 296.8269,36.4388 298.8417,30.7428 299.4906,29.6788 301.7851,27.746 303.6633,23.314 305.8695,19.6906 306.4817,18.6852 309.0635,16.7983 309.5074,16.7043 313.5153,15.8555 314.2863,14.9371 314.6395,11.607 315.822,10.4453 317.1586,10.1548 319.4245,11.1159 320.3498,10.9202 322.0358,4.5469 322.1343,2.0847 322.4928,1.2631 323.9833,0.1024 326.8635,0.0 327.74,0.3846 329.3898,2.0714 329.651,4.3385 328.4716,7.1405 328.9394,9.4574 334.8564,13.8064 335.5037,16.3213 335.3549,17.7019 333.4117,21.8637 331.5082,25.1382 331.3792,25.8962 331.7468,27.497 334.5085,29.3713 337.288,29.8977 337.6788,29.897 341.3088,29.8889 343.322,29.2268 343.6366,28.9639 347.2502,31.1481 348.7446,32.9871 351.2059,34.9329 351.4696,36.6507 351.8212,40.6975 352.3193,42.8811 351.411,43.9 350.1803,44.7734 347.5725,45.8798 347.426,48.7038 349.2427,51.2366 347.2795,54.5264 346.6348,58.1364 345.2238,63.3047 345.2577,69.3155 346.0488,71.2369 349.0669,72.7216 352.3487,73.3329 353.5905,73.9069 355.3081,74.7012 360.1136,74.0316 366.8979,74.0032 372.7425,74.0899 376.4052,74.0316 379.7163,74.7303 383.0804,75.9259 390.1664,92.3398 397.9235,110.3081 394.4483,111.7526 393.737,114.258 392.8963,115.7355 392.068,116.4212 391.3443,117.0203 391.2145,118.0953 390.9563,120.2323 389.4044,121.6456 390.5037,126.4635 390.3743,129.8681 391.603,132.3091 392.8316,133.6581 395.2243,136.4846 396.8409,138.6686 399.1689,139.6322 401.1088,141.6235 399.1042,146.4412 395.8063,146.6339 393.2888,147.3897 385.2658,148.7536 384.2958,152.415 382.6145,152.2866 380.0279,154.5348 373.044,155.1771 368.7114,153.3143 367.6017,150.7603 367.4827,150.488 362.6975,150.1026 358.9469,152.0296 353.515,153.5712 350.217,153.5712 346.3371,154.0209 342.3925,154.7917 340.137,154.5521 338.0978,153.5219 336.035,151.46 334.18,147.9186 333.2747,146.5696 330.6234,145.0922 329.5887,139.9533 326.0227,133.7847 325.8381,133.4654 325.3855,127.684 321.5702,122.4164 308.3784,120.2965 305.4685,120.6177 299.7779,121.8383 295.5747,124.0224 289.1081,128.2622 288.3321,131.1529 286.3275,133.3369 282.5122,133.2727 279.9964,137.8333 274.5812,139.9486 266.9577,134.0933 263.7423,132.519" stroke="black" /><polygon fill="none" points="285.8617,196.729 285.5815,195.7441 285.2629,193.7413 285.1523,193.0692 284.7625,190.2813 284.5413,189.5094 284.2722,188.7613 283.9674,188.1734 283.6625,187.6628 282.1141,185.1332 281.8391,184.4563 281.4924,183.34 281.2592,182.8412 281.0082,182.3721 280.494,181.6536 278.593,178.9518 278.3658,178.5481 277.4212,175.3831 277.4033,175.0446 277.4691,174.6883 277.7082,174.1896 278.3736,172.9696 278.8022,172.2419 278.9636,171.8143 279.0934,171.4245 279.2565,170.6445 279.8073,167.7718 277.2538,166.8293 277.1373,166.7313 276.9669,166.6422 276.4574,149.9801 275.5815,149.398 275.4607,149.194 275.4063,148.942 275.4124,148.6299 275.4906,148.2367 275.6177,147.8258 276.397,146.3557 276.5239,146.1097 276.5843,145.8516 276.5239,145.5816 275.9017,143.4754 275.7265,143.1333 275.4305,142.7373 275.1707,142.5093 274.9231,142.3712 274.6754,142.1372 274.5485,141.8852 274.5257,141.5647 274.5227,141.5214 274.5536,140.707 274.5661,140.3765 274.5812,139.9486 279.9964,137.8333 282.5122,133.2727 286.3275,133.3369 288.3321,131.1529 289.1081,128.2622 295.5747,124.0224 299.7779,121.8383 305.4685,120.6177 308.3784,120.2965 321.5702,122.4164 325.3855,127.684 325.8381,133.4654 326.0227,133.7847 329.5887,139.9533 330.6234,145.0922 333.2747,146.5696 334.18,147.9186 336.035,151.46 338.0978,153.5219 340.137,154.5521 342.3925,154.7917 346.3371,154.0209 350.217,153.5712 353.515,153.5712 358.9469,152.0296 362.6975,150.1026 367.4827,150.488 367.6017,150.7603 368.7114,153.3143 373.044,155.1771 380.0279,154.5348 382.6145,152.2866 384.2958,152.415 385.2658,148.7536 393.2888,147.3897 352.1197,176.0072 352.366,192.7183 352.4236,196.5479 352.2318,196.5051 352.0127,196.5295 351.8342,196.5824 351.7936,196.5944 351.6881,196.5944 351.3716,196.708 351.2824,196.781 351.1607,196.8459 350.9578,196.8865 350.828,196.8622 350.5966,196.763 350.5439,196.7404 350.3654,196.7161 350.2437,196.7404 350.0084,196.919 349.8948,196.9352 349.7568,196.854 349.5783,196.8459 349.3592,196.9352 349.2341,197.2089 349.2294,197.2192 349.0671,197.276 349.0463,197.2703 348.8886,197.2273 348.491,197.2111 348.3611,197.1705 348.1664,197.0975 347.9229,197.0812 347.7444,197.0812 347.5984,197.0569 347.4601,196.9601 347.4361,196.9433 347.3468,196.781 347.3491,196.7449 347.3549,196.6512 347.4766,196.4727 347.3874,196.3266 347.2494,196.2292 347.0393,196.1446 346.6246,195.9777 346.3812,195.8478 346.265,195.7503 346.1783,195.6774 345.9592,195.5395 345.6509,195.4421 345.4642,195.4502 345.1234,195.4827 344.7988,195.4664 344.6041,195.4908 344.5067,195.4908 344.2633,195.5395 344.0462,195.5808 343.8575,195.6125 343.7683,195.5882 343.6222,195.4908 343.4275,195.3366 343.3788,195.2311 343.2084,195.1175 343.0055,195.0607 342.7864,195.1256 342.6809,195.296 342.6485,195.3123 342.4375,195.3204 342.3239,195.296 342.1372,195.2068 342.048,195.0607 341.8532,194.9309 341.7234,194.8822 341.5124,194.8092 341.3258,194.7037 341.0905,194.6874 340.9282,194.6956 340.5711,194.8416 340.4656,195.0526 340.2384,195.1338 339.9544,195.1419 339.6947,195.1175 339.4919,195.0039 339.3539,194.8497 339.1754,194.728 338.9482,194.7199 338.7859,194.7524 338.6642,194.8254 338.5587,194.8254 338.3315,194.8173 338.1854,194.8497 338.0556,194.8497 337.7554,195.012 337.6174,195.1987 337.3091,195.4502 337.2279,195.7586 337.2441,196.0507 337.3091,196.2454 337.4227,196.4808 337.4714,196.781 337.2523,197.0488 337.0251,197.1543 336.8952,197.3328 336.879,197.4383 336.668,197.7061 336.4327,197.8116 336.2055,197.8197 335.8971,197.6574 335.7998,197.5438 335.7024,197.3166 335.4531,197.0206 335.4427,197.0082 335.1668,197.0326 334.8828,197.1299 334.6881,197.3085 334.4608,197.8602 334.6881,198.3877 334.6475,198.6068 334.469,198.6879 334.2255,198.8583 334.2174,199.0369 333.7549,199.3777 333.268,199.6049 332.7974,199.9051 332.5052,200.0106 332.2861,199.9782 332.0346,200.0268 331.4909,200.2459 331.0608,200.2703 330.4198,200.0755 329.73,199.6049 329.4866,199.5075 329.1701,199.4832 328.7401,199.6049 327.6749,199.7702 327.7582,200.035 327.7582,200.2135 327.7257,200.3433 327.3687,200.319 327.1902,200.3839 327.0766,200.4813 326.9062,200.5867 326.752,200.6354 326.6059,200.7166 326.2895,201.0168 326.2002,201.2927 326.1109,201.4388 325.9075,201.5567 325.7052,201.5767 325.4699,201.5848 325.3238,201.6254 325.1696,201.7634 324.9668,201.8526 324.7801,201.7715 324.7558,201.6416 324.7883,201.4388 324.699,201.3982 324.6016,201.455 324.4312,201.4631 324.2933,201.3333 324.1472,201.3089 324.0498,201.3414 323.9443,201.4307 323.7577,201.4631 323.6279,201.3252 323.637,201.2616 323.6441,201.2116 323.7739,201.098 323.8957,201.0331 323.9281,200.749 323.8632,200.5949 323.7415,200.5949 323.6035,200.7085 323.5143,200.8545 323.2871,200.9113 323.0842,200.887 322.9868,200.7166 323.0112,200.5462 322.9544,200.3433 322.8245,200.319 322.7109,200.4001 322.4269,200.9519 322.2403,201.1629 322.1348,201.3739 322.1186,201.6741 322.0628,201.7633 321.9968,201.8689 321.8021,201.9175 321.665,201.8901 321.5587,201.8689 321.3639,201.9013 321.1367,201.9257 320.7391,202.1447 320.0007,202.4206 319.9844,202.5424 320.0818,202.94 320.0737,203.1185 319.8871,203.3619 319.603,203.5486 319.5787,203.7758 319.5057,203.9868 319.4002,204.1653 318.8159,204.4331 318.6212,204.6684 318.6131,204.8956 318.4913,205.1309 318.4589,205.4798 318.4697,206.2334 316.4789,204.0598 316.341,204.003 315.846,204.003 315.3835,203.9624 314.9615,203.9624 314.6531,203.8975 314.2068,203.8813 313.7362,203.7271 313.4522,203.6784 313.1033,203.719 312.1701,203.6622 311.4073,203.6622 310.9854,203.6216 310.8086,203.4825 294.2011,213.5037 289.5406,216.3156 286.3826,207.9163 286.3287,207.6253 286.3168,207.2038 286.4005,206.8178 286.526,206.4853 287.3749,204.7753 287.5543,204.1281 287.5901,203.7481 287.5901,203.3859 287.5483,202.9881 285.8617,196.729" stroke="black" /><polygon fill="none" points="191.9474,486.741 191.4573,486.6831 190.3973,486.357 189.1742,485.7629 188.3355,485.5765 186.0291,485.5532 185.1438,485.2154 183.2451,485.0523 182.4297,484.7961 181.6143,484.237 180.6126,483.3633 179.9952,483.2119 179.238,483.1187 177.9683,482.3615 176.9433,481.9189 175.8833,481.3015 175.0213,480.6143 174.567,480.5211 173.9845,480.7773 173.5809,480.8342 173.1575,480.8938 172.6683,480.7307 171.6167,479.5025 171.2122,479.0301 170.1638,478.5175 169.1155,478.0865 168.3816,477.6788 167.8458,477.7021 167.1236,477.9584 166.7858,478.1681 165.7723,478.401 164.8405,478.5525 164.0484,478.4709 163.4077,478.3195 162.8486,478.2846 161.6371,478.0166 161.0699,477.8394 159.9597,477.4925 158.9929,477.1896 158.294,477.0382 157.6184,476.747 156.6283,476.4324 154.0772,475.8384 152.6328,475.3608 152.1203,475.0812 151.6427,474.9181 151.5492,474.8513 151.235,474.6269 150.5244,474.2542 149.6857,473.928 148.7189,473.8931 147.9035,473.7999 146.9483,473.5087 145.7369,473.2524 144.805,472.8796 144.2808,472.9612 143.547,472.9612 143.0111,472.7981 140.3918,472.2946 148.6108,455.0242 153.6217,444.2999 158.2986,434.4718 160.361,430.1239 162.8669,424.8467 155.209,411.0608 147.565,397.2825 140.0821,380.2055 201.4641,372.3747 224.1422,369.4564 226.2141,372.9892 235.5257,388.9806 237.0936,389.6414 238.1665,390.0146 239.0528,390.5044 241.3152,390.7376 241.9449,391.0875 242.4347,391.8338 242.6913,392.7668 243.2743,393.9329 243.6475,394.1429 244.5105,394.2595 245.63,394.4927 246.3531,395.1458 246.8662,396.2653 247.1694,397.105 247.5659,397.3149 250.1315,394.9592 251.1344,394.2362 251.7641,393.4665 252.5338,393.1866 253.1635,393.5598 254.3064,393.4198 255.1227,393.1866 257.1285,394.0262 257.9215,394.6327 258.6212,395.0058 259.0411,394.7726 259.4842,393.723 260.3005,392.5102 261.2568,392.0204 261.9099,391.484 262.2364,391.0175 262.7962,390.551 263.076,389.898 264.6387,388.5452 265.0023,388.086 265.525,387.4257 266.5513,386.5627 267.5775,386.1196 268.5104,385.8397 269.4434,385.4432 270.0265,384.8134 270.6329,384.3236 271.7379,384.3035 271.9157,384.3003 273.9215,383.6939 274.9011,383.484 275.7641,382.8543 276.2305,382.2945 277.0469,382.3878 277.63,383.1108 278.2597,383.554 280.1489,384.0438 281.2451,383.3907 283.3209,382.7143 285.4433,382.691 285.9725,382.6532 286.4229,382.621 286.5679,382.5613 287.2159,382.2945 287.799,381.5248 289.4783,379.589 290.0381,378.5627 291.2976,377.0933 291.834,376.9767 293.5133,377.0933 294.7494,377.14 296.1022,377.0467 296.7553,376.9301 299.111,375.8339 300.3005,374.9942 307.1343,372.9184 310.0497,373.2683 310.5861,373.5248 311.8923,374.9242 312.8719,376.1837 315.1809,376.7202 316.0205,377.2333 316.3471,377.6764 317.1167,378.0962 317.8165,378.0729 318.7727,377.933 319.8456,377.6531 320.8485,377.3499 321.8514,376.8601 322.6444,375.9738 323.4841,375.4607 324.3223,375.529 325.8588,375.5053 326.6328,375.6085 327.5101,375.1957 328.3873,375.1957 329.8837,374.4216 330.6578,374.4732 331.1222,374.2668 331.8446,374.2668 332.567,374.4216 333.5991,374.241 334.5795,373.9314 335.8438,373.4928 337.7788,373.3638 339.1463,373.8282 341.1587,373.6218 342.1134,373.596 343.2228,373.5186 344.2033,373.3638 344.6161,373.4928 344.9515,375.1957 345.3377,376.5311 345.7771,377.5694 346.0867,377.75 346.7834,377.879 348.4604,378.0338 350.3439,378.3434 351.4275,378.8078 351.7035,378.9038 352.6144,379.2206 354.0334,379.3238 361.3074,430.5497 358.7003,431.4267 356.9539,432.0099 355.0859,433.1688 353.1012,435.139 350.6494,436.5877 349.4819,437.7466 347.9058,438.6737 347.8075,439.1752 347.4971,440.7598 345.8626,442.7879 343.6444,443.3094 341.7928,445.1473 341.3093,445.6272 339.85,447.3655 339.3246,451.016 338.2738,454.203 336.2307,455.9992 333.0784,457.6216 330.3932,457.6216 326.8323,455.9413 323.0379,455.188 320.411,455.0721 315.7993,452.3487 312.2384,453.102 308.8527,453.16 303.8908,455.1301 303.0151,456.1151 302.0811,458.1431 301.4682,459.7655 301.0012,461.272 299.7169,463.358 299.4251,465.0383 300.9428,466.8345 300.6911,468.819 303.2304,474.1061 302.6467,476.6845 300.5743,480.1609 300.3086,481.5482 300.1138,482.5651 300.2808,483.6332 300.6619,486.0707 298.2101,487.8668 295.2622,488.7649 292.3726,488.4462 290.6507,488.7057 290.2308,488.7859 289.7825,488.5935 289.4097,488.6168 288.571,488.8265 288.2521,489.0011 288.0818,489.0944 287.6042,489.4322 285.8686,489.3623 285.0267,489.3519 284.1213,489.0944 283.1778,489.0012 281.8382,488.5586 278.6931,488.0693 277.0157,487.8596 275.9091,487.6267 274.919,487.4985 272.8106,486.9511 269.7237,486.59 267.394,486.4036 265.3672,486.322 262.3153,485.8561 258.9139,485.8328 257.4112,485.7979 256.1183,485.4484 254.4875,485.297 252.8334,485.2154 251.2608,485.5649 250.3522,485.7862 249.5718,485.8444 248.4535,485.8561 247.1399,486.1203 246.3102,486.2871 245.2618,486.3104 242.0701,486.5434 241.1732,486.4851 240.2297,486.3453 238.96,486.5084 237.8767,486.5667 235.4654,486.986 234.1724,487.0209 232.961,487.2073 231.5777,487.2435 228.057,487.3355 227.3464,487.1258 225.8904,487.0326 224.644,487.2656 223.2228,487.2539 221.825,487.3238 221.2521,487.484 219.6584,487.9295 218.0858,487.9062 216.7812,487.9994 215.5115,487.8713 214.3117,487.7082 212.7858,487.9412 211.8073,487.9761 210.9748,487.9206 209.1864,487.8014 208.3011,487.6267 206.9732,487.2539 204.6085,487.2772 200.683,487.2073 199.0988,487.3588 197.9339,487.1607 197.3049,487.2423 196.14,487.1141 194.0666,487.1374 192.762,486.8346 191.9474,486.741" stroke="black" /><polygon fill="none" points="244.3685,292.2691 254.9879,323.6687 263.9181,350.0225 263.8146,350.2513 263.8586,350.4936 263.8696,350.78 263.8476,351.0333 263.8548,351.4016 263.8476,351.595 263.5943,352.0576 263.352,352.1678 263.2419,352.355 262.2176,352.9718 261.788,353.17 261.6889,353.3463 261.6999,353.4894 261.8211,353.6546 261.8431,353.7978 261.744,353.941 261.5787,354.1062 261.1272,354.3045 260.6205,354.69 260.18,354.9433 259.6623,355.1746 259.5852,355.3067 259.0015,355.5931 258.1094,355.9235 257.1511,356.1328 256.7546,356.1658 256.3471,355.9125 256.259,355.6922 256.215,355.483 256.0498,355.3618 255.6973,355.3948 255.3669,355.4499 254.8823,355.6482 254.7832,355.7583 254.7611,356.0887 254.684,356.298 254.5408,356.4302 253.9902,356.8927 253.3624,357.4544 253.1311,357.6086 252.8227,357.7408 252.4757,357.926 235.5257,388.9806 226.2141,372.9892 224.1422,369.4564 201.4641,372.3747 140.0821,380.2055 147.565,397.2825 146.602,396.563 145.1684,396.1658 143.7015,395.7025 142.3346,396.0996 140.6009,396.8609 139.2674,397.6552 139.0432,399.1015 139.0006,399.3763 137.9338,399.6411 137.2337,400.0713 136.2002,400.6671 135.2,401.0973 134.242,400.8067 133.9998,400.7333 132.2995,401.0642 130.7325,401.3952 130.0324,402.1564 128.6989,400.9318 127.6654,400.4023 127.5525,400.4008 125.1316,400.3692 124.2314,400.1375 122.1977,400.4685 120.8975,400.634 119.1639,401.1304 118.5378,401.0372 117.1635,400.8325 115.5633,399.7072 114.7298,398.6481 113.6296,399.0453 112.6197,398.9997 112.1627,398.9791 111.9652,398.5054 111.7626,398.0193 111.5959,397.225 111.2625,395.6363 110.3623,395.4046 109.1621,395.6032 107.9286,395.6032 107.1285,395.2391 106.595,394.511 105.7616,394.1469 105.2616,394.3707 104.9948,394.4779 104.0613,394.9081 103.4278,395.6694 102.461,395.868 101.3274,395.3715 101.3274,394.2462 99.4271,393.0216 99.1423,391.8059 99.0937,391.5984 98.0935,390.7002 88.4308,372.0722 93.964,345.429 94.4687,343.0052 94.7272,342.7909 94.9464,342.5848 95.0598,342.4782 95.2702,342.2421 95.4244,342.0542 95.608,341.8079 95.6141,341.7998 95.8256,341.4648 95.941,341.2486 96.1068,340.8908 96.1829,340.6923 96.3062,340.3897 96.4272,340.0426 96.5605,339.591 96.6136,339.3336 96.6346,339.2014 96.6594,338.9745 96.6779,338.6889 96.6809,338.4213 96.6684,338.1892 96.6682,338.1855 96.6315,337.845 96.5707,337.5362 96.5153,337.2568 96.4533,337.0595 96.3982,336.8707 96.3576,336.756 94.8724,333.8399 94.7859,333.5935 94.6991,333.3695 94.6027,333.0004 94.5394,332.6763 94.5202,332.3973 94.5126,332.0738 94.5384,331.7618 94.5745,331.5168 94.6333,331.2498 94.7374,330.9164 94.8177,330.7165 94.9434,330.4503 95.9924,328.421 98.7161,323.2651 102.4291,316.2254 103.5488,314.0393 103.7994,313.5737 104.0606,313.1639 104.3218,312.743 104.4471,312.5101 104.6509,312.2447 104.8208,312.0124 105.0701,311.6694 105.3286,311.3717 117.8751,279.4087 117.6582,279.3775 117.3064,279.4043 116.6923,279.4478 116.1813,279.4952 115.33,279.5473 115.1905,279.5541 114.7354,279.5937 114.1046,279.6343 113.482,279.686 112.7899,279.7259 112.0139,279.7759 111.651,279.8054 111.0927,279.8412 110.5623,279.8828 109.8224,279.9583 109.3478,279.995 108.7534,280.0191 108.2092,280.0466 107.4249,280.0966 106.6656,280.1552 105.6298,280.2443 105.2195,280.2677 104.6808,280.3092 104.1672,280.3398 103.768,280.3689 103.3689,280.3924 102.8412,280.4396 102.5789,280.4563 101.8755,280.4987 101.1916,280.5554 100.4603,280.6031 99.4051,280.6808 99.2235,280.7039 98.2159,280.7765 95.9521,280.9329 95.6311,280.9545 94.1321,281.0635 92.4742,281.1708 91.9523,281.2041 90.8692,281.2842 90.3276,281.3341 89.7246,281.3804 89.0823,281.4514 88.8869,281.4632 88.362,281.5132 87.5972,281.5661 87.1392,281.6225 86.26,281.6769 85.6487,281.7176 85.2664,281.7385 84.7864,281.7667 84.3817,281.7901 83.7508,281.8417 83.3209,281.876 82.9524,281.8999 82.2686,281.9481 81.9895,281.9673 81.3362,282.0187 80.6997,282.0786 79.8846,282.1421 79.1617,282.1871 78.059,282.2782 77.0067,282.353 76.856,282.3625 76.5404,282.3953 75.8957,282.4384 75.2705,282.4733 74.8546,282.5077 74.2488,282.5624 73.5286,282.6186 73.4058,282.62 72.8811,282.6561 72.2977,282.7026 71.7337,282.7577 71.3541,282.7786 71.0471,282.8003 70.5921,282.8371 70.0283,282.8699 69.6541,282.9104 69.3723,282.924 69.0987,282.9489 68.7832,282.9733 68.398,283.0053 67.9486,283.0338 67.5885,283.0633 67.3234,283.0799 66.807,283.1216 66.6479,283.1282 66.4022,283.1533 66.1007,283.1779 65.7769,283.1994 65.4085,283.226 65.0595,283.2584 64.772,283.2803 64.3001,283.3281 63.9541,283.3466 63.7224,283.406 62.4688,272.1311 62.1831,271.8046 61.9679,271.7801 61.7531,271.7558 61.5583,271.4891 62.0586,271.0663 62.6434,270.7346 63.2456,270.5513 63.8391,270.3419 63.9874,270.1237 63.8914,269.7048 63.7954,269.2946 63.6558,268.8931 63.4463,268.4741 63.4201,268.2123 63.2019,267.8894 62.9052,267.2435 62.783,266.877 62.783,266.6588 62.8005,266.458 62.9052,266.2486 63.0885,265.882 63.0186,265.5067 62.8354,265.1314 62.6957,264.6776 62.6783,264.3197 62.6695,263.927 62.6434,263.3422 62.4077,263.1066 62.1982,263.0368 62.1546,262.8535 62.2506,262.5655 62.2768,262.2775 62.1022,261.9982 61.919,261.8498 61.8229,261.6491 61.7793,261.2476 61.6662,261.038 61.5771,260.9832 61.4233,260.8886 61.1499,260.9905 60.8869,261.2495 60.6883,261.588 60.3301,261.6778 59.8626,261.5713 59.049,261.3379 58.4628,260.9247 58.3842,260.6366 58.4259,260.2927 58.7374,260.1205 59.1387,260.0097 59.4141,259.9122 59.6061,259.5893 59.5487,259.3119 59.3119,259.1155 59.1187,259.0209 58.9777,258.9347 59.0884,258.6986 59.0317,258.4966 58.7944,258.3762 58.7944,258.1841 58.9893,257.98 59.2488,257.9821 59.4758,257.8532 59.398,257.5715 59.2132,257.5347 59.0926,257.4599 58.9428,257.3114 58.988,257.1723 59.1362,256.9806 59.3889,256.9893 59.4752,256.6568 59.833,256.587 60.1996,256.8313 60.6333,256.972 61.116,257.0932 61.419,257.0138 61.4826,256.9972 61.6833,256.7179 61.8911,256.3854 61.9906,256.1595 61.9102,255.8102 62.0069,255.5245 62.2297,255.2289 62.3292,254.9898 62.4252,254.7803 62.6187,254.7835 63.0871,254.874 63.2543,254.7367 63.0822,254.5383 63.167,254.3701 63.4987,254.2043 63.8463,254.0051 64.1794,253.9686 64.5511,253.8378 64.7991,253.7592 65.1569,253.1831 65.6195,252.9213 66.0384,252.8602 67.0488,252.6973 67.6726,252.6355 68.0633,252.8166 68.526,252.9006 68.9354,252.9064 70.0897,252.8544 70.9172,252.9562 71.502,252.8602 71.8605,252.5336 71.8938,252.1305 72.5266,251.3073 72.6453,250.8878 72.2875,250.3728 71.694,249.7706 71.1005,249.212 70.4983,249.0637 69.9397,249.1771 69.2939,249.212 68.7004,249.0986 68.1855,248.9066 67.6793,248.4876 67.4361,248.0866 67.1294,247.7283 66.4661,247.2745 66.2392,247.0214 66.0384,246.2882 65.8901,245.7297 65.6632,244.9616 65.1395,244.3332 64.3889,243.9928 63.4987,243.5564 62.8179,243.1462 62.3117,242.7797 62.0031,242.4326 61.8229,242.2298 61.6746,241.6625 61.8557,241.4064 61.9102,241.0603 61.657,240.7695 61.4588,240.456 61.2752,239.9033 61.0817,239.796 60.4287,239.7684 59.7708,239.6496 59.3006,239.3671 59.0912,239.2362 58.9777,238.9395 59.047,238.7242 59.0085,238.5638 58.7595,238.2587 58.6158,238.073 58.4802,237.866 58.1224,237.8049 58.0002,237.5954 57.7733,237.255 57.5858,236.7932 57.9042,236.2164 57.9304,235.6928 58.0875,235.2476 58.2533,234.7502 58.4279,234.2527 58.8992,234.017 59.4228,233.9821 59.7632,234.0083 60.4003,233.9821 60.924,233.8774 61.3541,233.8626 61.6135,233.729 62.0848,233.633 62.4775,233.6068 62.642,233.5249 62.8554,233.4185 63.1496,233.1181 63.6296,232.8824 64.0747,232.7428 64.3889,232.3937 64.4675,231.8962 64.3714,231.5296 64.0049,231.006 63.9176,230.4736 64.0311,230.0634 64.0747,229.0509 64.162,228.9026 64.5198,228.6058 64.6856,228.2654 64.4762,227.7767 64.3365,227.2879 64.1707,226.8079 63.9962,226.2406 64.0398,225.874 64.0572,225.3067 63.8827,224.7744 63.6907,224.242 63.3416,223.6485 63.071,222.959 62.8877,222.4353 63.0536,221.9989 63.4288,221.7109 63.3847,221.3423 62.9847,220.6874 62.9576,220.2272 62.975,219.7297 63.0309,219.3125 63.2892,219.1013 63.647,218.7348 63.6907,218.3158 63.3765,217.9318 63.0186,217.5565 62.7394,217.0241 62.7394,216.5965 63.1321,216.0292 63.4463,215.488 63.7256,214.8596 63.7256,214.432 63.5336,213.9694 63.1757,213.6639 62.9401,213.3236 62.879,212.7388 62.7743,212.25 62.5473,211.9969 62.3379,211.8835 62.1808,211.5606 62.1721,211.2376 61.9626,211.0893 61.6397,210.9933 61.4366,210.7403 61.3342,210.6703 61.2644,210.5569 61.308,210.426 61.2382,210.3038 61.3342,210.1379 61.4873,210.0304 61.5032,209.6664 61.3656,209.4255 61.2382,209.1342 61.2391,208.6772 61.5448,208.3826 62.159,208.0069 63.1408,207.4062 63.6659,207.1028 64.7118,206.4985 66.6668,205.3813 68.2029,204.4736 69.7041,203.8801 72.0431,203.0423 73.3348,201.8553 74.3123,200.5636 75.3516,199.2645 75.9881,198.4689 76.7212,197.5613 77.5241,196.0601 78.9233,194.6609 79.0253,194.5589 79.6537,193.8956 79.5069,193.5943 78.9904,192.5341 78.1525,191.9755 78.0129,191.3122 78.1525,190.4045 77.5591,189.811 77.0005,188.7986 76.7212,187.7862 75.3597,187.2974 73.6839,186.8785 73.1254,185.9359 72.2875,184.7839 72.4621,183.6318 71.9733,181.9212 71.9733,181.7117 71.8337,179.7218 71.1704,178.5348 70.9958,177.8715 71.5544,177.5573 72.6017,176.9987 72.6017,175.9863 73.265,174.3804 73.5094,173.7171 73.3697,173.1236 72.7064,172.1112 72.2875,170.8544 71.5544,170.4005 70.6467,170.0165 69.726,169.0959 69.4946,168.8645 68.8662,167.6077 67.8189,166.8396 67.2952,166.316 67.4698,166.0367 68.9011,165.2686 70.123,164.326 71.31,163.174 71.4846,162.7201 72.1828,162.371 73.0206,162.0917 73.7538,161.603 73.6141,159.9272 73.4745,159.0545 72.881,158.1468 72.2875,156.9598 71.8686,156.2267 71.3449,155.3888 70.7514,154.935 70.1928,154.9001 69.5994,154.6906 69.1106,153.9924 68.9361,153.3989 68.3077,152.4214 67.5745,152.0723 67.2603,151.6184 67.7142,150.7108 68.1331,150.0824 67.8887,149.3492 67.9373,148.7413 77.0493,150.5689 77.0991,150.4663 77.1739,150.3544 77.2445,150.2382 77.3622,150.1831 77.6053,150.1467 77.866,150.0845 78.1176,150.0698 78.339,150.0332 78.8041,149.9125 79.0862,149.8766 79.1902,149.8777 79.263,149.9565 79.3271,150.0439 79.361,150.1222 79.3933,150.1425 79.5159,150.2193 79.6461,150.212 79.6984,150.1779 79.8598,150.0886 79.9778,150.0362 80.0122,150.0209 80.0816,150.0173 80.3753,150.1158 80.5049,150.1519 80.6818,150.2318 80.8415,150.2855 81.006,150.309 81.3697,150.3432 81.569,150.354 81.6675,150.4678 81.7752,150.5209 81.8176,150.6081 81.9292,150.7176 82.1374,150.6982 82.2288,150.6645 82.3805,150.6618 82.4674,150.6454 82.5586,150.6334 82.6062,150.6339 82.6535,150.6456 82.71,150.661 82.7877,150.6835 82.8918,150.6846 82.9656,150.6724 82.9875,150.651 83.0447,150.5693 83.1756,150.484 83.2415,150.4067 83.2683,150.3333 83.3303,150.2083 83.4219,150.1529 83.5736,150.1545 83.6381,150.2072 83.8022,150.2567 84.0492,150.268 84.2576,150.2356 84.3142,150.2145 84.4486,150.2073 84.5351,150.2212 84.665,150.2356 84.782,150.2369 85.0029,150.2523 85.1976,150.2847 85.3402,150.3252 85.4395,150.361 85.5128,150.4008 85.7373,150.4812 85.9657,150.6093 86.0689,150.6798 86.2935,150.7515 86.4404,150.7965 86.5096,150.8145 86.7095,150.769 86.7746,150.7567 86.8661,150.71 86.997,150.6334 87.1236,150.5524 87.1549,150.4617 87.1431,150.3446 87.0885,150.1836 87.0737,150.0644 87.0686,150.0231 87.1387,149.9458 87.217,149.9206 87.3048,149.8219 87.4051,149.7623 87.5959,149.7557 87.8035,149.7969 87.8851,149.8715 87.9533,149.9762 88.0428,150.1159 88.2891,150.1879 88.4261,150.3454 88.4612,150.3875 88.5245,150.4635 88.7451,150.4536 88.7587,150.453 88.7633,150.4578 88.8701,150.5712 89.0343,150.625 89.0689,150.6253 89.2077,150.6225 89.3856,150.6027 89.5076,150.5434 89.6477,150.4105 89.7746,150.2992 89.8714,150.1702 89.9291,150.0408 90.126,149.8695 90.243,149.8708 90.304,149.8368 90.4045,149.7685 90.4962,149.7001 90.6099,149.606 90.6233,149.5758 90.5778,149.3673 90.596,149.2851 90.6575,149.2078 90.7537,149.1351 90.8238,149.0622 90.8732,148.9023 90.8043,148.8626 90.8443,148.772 90.9408,148.6647 91.0757,148.6141 91.2231,148.6114 91.3061,148.5516 91.3374,148.4652 91.3775,148.3616 91.535,148.2203 91.6095,148.1518 91.8054,148.0672 91.8879,148.0507 92.2698,148.0071 92.504,148.001 92.8156,148.0433 92.9477,148.0677 93.0405,148.0848 93.2362,148.0305 93.3284,147.9145 93.5841,147.9172 93.7788,147.954 93.9703,147.8823 93.9835,147.8608 94.093,147.758 94.1883,147.7633 94.2481,147.842 94.2426,147.9546 94.2809,148.0157 94.2815,148.3668 94.5199,148.7724 94.7593,148.6796 95.0375,148.6046 95.1384,148.4887 95.1836,148.3201 95.2845,148.1998 95.3254,148.0312 95.3222,147.9228 95.3151,147.7797 95.3612,147.5202 95.475,147.413 95.748,147.4246 95.9904,147.4576 96.1764,147.4899 96.4649,147.6664 96.7419,147.7083 96.8968,147.8097 97.0429,147.9326 97.1784,148.2331 97.4026,148.3396 97.6176,148.8238 97.6269,148.8447 97.6404,148.8544 97.9323,149.0647 98.0395,149.1742 98.1205,149.2964 98.2786,149.5149 98.4663,149.7943 98.5771,149.9732 98.6192,150.1706 98.6225,150.186 98.6157,150.4157 98.6747,150.568 98.7996,150.6474 98.9194,150.7917 98.9872,150.9354 99.2083,150.9628 99.2556,150.9686 99.544,151.1538 99.7603,151.1994 99.921,151.1665 100.1337,151.1341 100.3417,151.145 100.4579,151.2199 100.5474,151.3596 100.702,151.4999 100.8448,151.5231 101.0619,151.4821 101.2529,151.4581 101.3872,151.4682 101.5255,151.5044 101.6504,151.5751 101.736,151.6844 101.7647,151.8364 101.7758,152.0142 101.7958,152.1704 101.7688,152.2612 101.8009,152.5042 101.8896,152.7219 101.9578,152.831 102.0916,152.8758 102.2899,152.9776 102.3528,152.9884 102.4241,153.0007 102.4927,153.0664 102.5134,153.162 102.4899,153.3265 102.4228,153.5251 102.3605,153.6762 102.3161,153.771 102.2288,153.8308 101.984,154.0189 101.8308,154.1603 101.7564,154.2245 101.672,154.2757 101.595,154.3224 101.4945,154.3994 101.4543,154.5116 101.4835,154.616 101.5477,154.6903 101.6815,154.7438 101.8927,154.8544 102.1861,154.967 102.1949,154.9703 102.2805,155.0753 102.2776,155.09 102.253,155.2137 102.1915,155.2867 102.035,155.3284 101.9911,155.3799 101.8501,155.5951 101.8752,155.6821 102.0558,155.814 102.3329,155.843 102.5269,155.9405 102.6874,155.9335 102.7871,155.9346 102.9724,156.0319 102.9878,156.045 103.0497,156.0978 103.0661,156.1502 103.0916,156.2326 103.1684,156.3504 103.2337,156.3757 103.3756,156.4307 103.6564,156.516 103.9468,156.5235 104.1717,156.5692 104.3445,156.6187 104.4563,156.7066 104.5367,156.8939 104.5354,157.0152 104.5386,157.1149 104.5415,157.2493 104.6139,157.3671 104.7388,157.4422 104.8554,157.4824 104.9801,157.5791 104.9915,157.7309 104.9559,157.8129 104.8554,157.8942 104.7032,157.9359 104.6859,157.9357 104.5989,157.9608 104.5422,157.9948 104.484,158.0569 104.3931,158.1536 104.3874,158.2836 104.4163,158.4139 104.5233,158.5451 104.5958,158.6542 104.6522,158.6505 104.7739,158.6215 104.8818,158.5919 104.8956,158.5881 104.9563,158.5887 105.0251,158.6415 105.0895,158.6985 105.1498,158.7382 105.2611,158.8607 105.3121,158.961 105.3447,159.1564 105.3825,159.2651 105.4026,159.417 105.4094,159.5862 105.4652,159.6344 105.539,159.6309 105.6348,159.5886 105.6957,159.5719 105.7511,159.6592 105.7331,159.7153 105.9444,159.8216 106.3777,159.8393 106.5339,159.8193 106.7642,159.7697 106.8906,159.7061 106.9868,159.6247 107.1573,159.4879 107.2147,159.3888 107.2546,159.3112 107.3595,159.23 107.4378,159.2005 107.5635,159.2061 107.7494,159.2471 107.8313,159.2957 108.0735,159.3416 108.3066,159.4308 108.497,159.4675 108.5396,159.5373 108.6168,159.6162 108.6679,159.6947 108.7361,159.8038 108.8002,159.8955 108.8127,159.9347 108.9158,160.0225 108.9576,160.1703 109.0382,160.3315 109.0855,160.3856 109.1453,160.454 109.3182,160.4949 109.3704,160.4781 109.5276,160.3714 109.5576,160.3437 109.6064,160.2986 109.7372,160.2263 109.8246,160.1666 109.9113,160.1675 110.023,160.2597 110.0407,160.3008 110.0737,160.3773 110.0727,160.477 110.1741,160.7208 110.2116,160.8642 110.3092,161.056 110.4248,161.1916 110.566,161.3621 110.774,161.373 110.9781,161.3362 111.0352,161.2675 111.0754,161.1509 111.2247,160.9704 111.3998,160.8119 111.5145,160.6311 111.592,160.5346 111.7156,160.4686 111.884,160.531 111.9178,160.6138 111.986,160.7228 111.998,160.8183 112.0096,160.9441 112.0609,161.014 112.1757,161.219 112.308,161.4155 112.5198,161.4697 112.6933,161.4629 112.7935,161.4163 112.8902,161.2917 112.9609,161.1667 113.0796,161.0119 113.1801,160.935 113.3578,160.9326 113.5267,160.9474 113.6137,160.9845 113.797,160.8363 113.8607,160.8268 114.03,160.8016 114.2533,160.804 114.383,160.8612 114.503,160.9555 114.633,160.9848 114.8298,160.8566 114.9692,160.8674 115.0156,160.8866 115.1538,161.0183 115.2348,161.2704 115.1953,161.484 115.1564,161.6418 115.1082,161.7995 115.1431,162.0139 115.3644,162.2024 115.6428,162.2798 115.7826,162.2627 116.0255,162.1722 116.1559,162.1643 116.2582,162.1654 116.4255,162.1858 116.7687,162.2918 116.8696,162.4325 116.7641,162.7291 116.5392,162.8663 116.3934,162.9339 116.1649,163.0577 116.2554,163.3006 116.3008,163.4035 116.505,163.4615 116.5903,163.5084 116.764,163.6039 116.8813,163.9494 116.6801,164.487 116.5294,164.6529 116.3871,164.9119 116.3751,165.163 116.4203,165.2845 116.4073,165.6287 116.5161,165.8997 116.7636,166.2466 116.983,166.6212 117.1675,166.7721 117.2423,166.7356 117.3814,166.7837 117.4639,166.9055 117.5477,166.8971 117.6305,166.9911 117.7591,167.1506 117.8137,167.2629 117.8951,167.315 118.0355,167.4048 118.1459,167.527 118.1908,167.6764 118.0659,168.0472 117.9415,168.3623 117.9014,168.6317 118.0469,168.9497 118.2122,169.1562 118.4234,169.4283 118.523,169.6806 119.2797,170.2843 119.3878,170.6204 119.4133,170.844 119.5593,171.1155 119.8173,171.3602 120.2899,171.5513 120.6044,171.7315 120.826,171.8921 121.149,172.1468 121.4355,172.336 121.6862,172.3945 121.9562,172.3788 122.1504,172.4024 122.2072,172.4094 122.3087,172.4849 122.5595,172.5341 122.6713,172.5167 122.884,172.6492 122.9941,172.7993 123.0008,173.0413 122.9981,173.2926 123.2475,173.4627 123.3664,173.6594 123.2335,173.9093 123.1203,174.0476 123.0063,174.1857 122.9223,174.2875 122.7811,174.4348 122.677,174.6012 122.5345,174.8696 122.5595,175.1397 122.7433,175.3557 123.1422,175.4809 123.393,175.5208 123.6171,175.4581 123.9839,175.4536 124.3902,174.3609 125.1266,173.7124 126.0142,172.555 126.3138,171.8288 126.3984,170.7357 127.6476,169.8739 128.9736,168.6482 130.5828,168.2278 131.029,167.4302 132.2091,166.2029 132.5117,165.1851 132.9587,164.3147 132.3869,163.2145 132.6949,161.6862 133.1481,160.2323 133.2303,159.358 133.6187,158.433 134.0535,157.3975 134.3262,157.4016 134.9287,157.4069 135.5913,156.8304 135.6838,156.7219 135.9606,156.3968 137.7862,156.1974 137.9251,155.2537 138.0221,154.5953 137.8172,153.2803 137.0941,152.6891 136.6596,152.3928 136.0071,152.0212 135.4283,151.5774 135.1482,150.4804 135.0862,149.4587 135.2367,149.0227 135.7495,148.8093 136.6992,148.6735 137.205,149.1165 137.4215,149.3376 137.8529,149.9257 138.3611,150.1499 139.3875,149.6502 140.1238,149.0016 140.7918,147.9147 142.1922,146.5438 143.498,147.214 144.5919,147.2256 144.5958,146.861 144.5337,145.8392 144.619,144.6732 145.581,143.3705 147.0496,142.9346 147.379,143.6957 209.7608,134.9723 226.3083,155.0323 228.3154,152.9723 230.519,151.2 231.0862,150.7163 231.3158,150.4377 231.6573,149.8519 231.8982,149.3557 232.267,148.7702 234.3559,146.6885 235.7748,145.3886 236.0854,145.1651 238.9299,143.6624 239.377,143.386 239.8257,142.9645 240.1654,142.56 241.0306,141.3087 241.4256,140.8141 241.819,140.4737 242.2294,140.2422 252.1853,136.7094 257.4481,133.9027 257.7066,133.8112 259.3373,132.9092 259.922,132.6088 260.6233,132.3648 261.3737,132.2183 261.8203,131.9876 262.7047,131.4862 263.1834,131.1692 263.5989,132.1957 263.6896,132.4003 263.7423,132.519 266.9577,134.0933 274.5812,139.9486 274.5661,140.3765 274.5536,140.707 274.5227,141.5214 274.5257,141.5647 274.5485,141.8852 274.6754,142.1372 274.9231,142.3712 275.1707,142.5093 275.4305,142.7373 275.7265,143.1333 275.9017,143.4754 276.5239,145.5816 276.5843,145.8516 276.5239,146.1097 276.397,146.3557 275.6177,147.8258 275.4906,148.2367 275.4124,148.6299 275.4063,148.942 275.4607,149.194 275.5815,149.398 276.4574,149.9801 276.9669,166.6422 277.1373,166.7313 277.2538,166.8293 279.8073,167.7718 279.2565,170.6445 279.0934,171.4245 278.9636,171.8143 278.8022,172.2419 278.3736,172.9696 277.7082,174.1896 277.4691,174.6883 277.4033,175.0446 277.4212,175.3831 278.3658,178.5481 278.593,178.9518 280.494,181.6536 281.0082,182.3721 281.2592,182.8412 281.4924,183.34 281.8391,184.4563 282.1141,185.1332 283.6625,187.6628 283.9674,188.1734 284.2722,188.7613 284.5413,189.5094 284.7625,190.2813 285.1523,193.0692 285.2629,193.7413 285.5815,195.7441 285.8617,196.729 287.5483,202.9881 287.5901,203.3859 287.5901,203.7481 287.5543,204.1281 287.3749,204.7753 286.526,206.4853 286.4005,206.8178 286.3168,207.2038 286.3287,207.6253 286.3826,207.9163 289.5406,216.3156 281.5785,225.4566 282.2745,225.8638 282.5454,226.0975 282.6942,226.4003 282.8642,226.8625 283.1032,227.0324 283.1723,227.2662 283.1723,227.4468 283.0342,227.9461 283.0554,228.2436 283.1882,228.5889 283.2519,228.881 283.1723,229.0829 283.1191,229.3857 283.151,229.7097 283.1563,230.2463 283.1138,230.4375 282.9704,230.6925 282.9279,230.9262 283.0448,231.3777 283.0448,231.5265 282.9704,231.7071 282.7739,231.8027 282.6836,231.9143 282.9067,232.6792 282.912,232.9767 282.8642,233.3751 282.6995,233.6566 282.4923,233.7947 282.2586,233.8479 282.1152,233.9435 282.1205,234.225 282.3542,234.5331 282.3755,234.7456 282.3383,234.8731 282.3117,235.0749 282.6198,235.7496 282.6782,235.9621 282.7261,236.3127 282.811,236.5145 282.9226,236.6898 282.9385,237.0298 282.3967,237.3007 282.0729,237.357 282.0302,237.3645 281.7593,237.5185 281.6052,237.7257 281.5308,237.97 281.4193,238.5172 281.4087,238.9209 281.414,239.9249 281.4777,240.4348 281.8867,241.3007 282.0207,241.5719 282.1045,241.7416 282.2427,242.2675 282.2373,242.8678 282.062,243.1281 281.9983,243.3831 281.8708,243.8824 281.8496,244.0736 281.7168,244.3764 281.4936,244.5198 281.1059,244.6314 280.8987,244.6208 280.5853,244.4561 280.4365,244.4455 280.2612,244.5039 280.1019,244.6048 280.0009,244.7483 279.9425,244.9395 279.6663,245.2689 279.4591,245.4017 279.1085,245.646 279.0554,245.7735 279.0713,245.9647 278.981,246.1135 278.6729,246.2038 278.4445,246.2303 278.1152,246.2994 277.9717,246.411 277.8283,246.5384 277.5786,246.5969 277.3449,246.5809 277.159,246.5491 276.7871,246.7403 276.649,246.8253 276.5428,246.8572 276.3515,246.8678 276.0647,247.059 275.8947,247.1015 275.8416,247.2715 275.8416,247.8877 275.4697,248.6102 274.9279,249.0457 274.8323,249.2901 274.6092,250.2994 274.4392,250.4747 274.3383,250.4694 274.2214,250.5756 274.1045,250.6128 273.9452,250.6288 273.7008,250.5384 273.6318,250.6181 273.5946,250.7934 273.5414,250.8412 273.4724,250.8625 273.2758,251.0218 273.1005,251.075 272.8243,250.9794 272.6862,250.8784 272.58,250.889 272.5268,250.9687 272.5162,251.2184 272.4312,251.3034 272.309,251.2981 272.0753,251.16 271.8788,251.2343 271.7778,251.229 271.7141,251.1865 271.6132,251.0697 271.4432,251.0112 271.2572,251.0537 271.1244,251.1175 271.0819,251.245 270.997,251.3778 270.8854,251.4256 270.6198,251.4203 270.5348,251.4787 270.4551,251.5849 270.3648,251.654 270.2108,251.7337 270.1258,251.739 270.0036,251.6646 269.908,251.5796 269.7645,251.5796 269.6317,251.6593 269.5308,251.6699 269.4458,251.5531 269.3608,251.3884 269.143,251.2131 268.9305,251.0803 268.7553,251.0272 268.6012,251.0856 268.5162,251.1759 268.479,251.2609 268.4153,251.3459 268.309,251.3565 268.2187,251.3246 268.1019,251.245 268.0835,251.2387 267.8841,251.1706 267.7619,251.1281 267.6078,251.0856 267.4803,251.1122 267.321,251.2237 267.2201,251.2343 267.1244,251.1918 266.9651,251.1493 266.8748,251.1971 266.8323,251.3459 266.742,251.4521 266.7101,251.5637 266.7367,251.7071 266.6092,251.8346 266.4764,251.8505 266.3064,251.909 266.1842,251.994 266.078,252.0896 265.9505,252.079 265.8389,252.1693 265.738,252.2702 265.568,252.3552 265.398,252.5039 265.3236,252.7005 265.0633,252.9023 264.9624,253.1201 264.973,253.3485 265.0047,253.4722 265.0262,253.5557 265.1855,253.816 265.1749,254.241 264.9305,254.3207 264.8084,254.4747 264.8509,254.8784 264.8456,255.3778 264.5959,255.7655 264.6171,256.0258 264.6862,256.3021 264.6862,256.488 264.6596,256.6898 264.5056,256.8864 264.2453,257.0404 264.139,257.1732 264.1337,257.3273 264.3622,257.4814 264.4365,257.6248 264.394,257.9063 264.1019,258.1985 263.645,258.5544 263.5122,258.7084 263.321,259.0484 263.0076,259.3246 262.641,259.4681 262.4657,259.6168 262.4232,259.7284 262.3861,259.9302 262.3701,260.2065 262.317,260.4402 262.2373,260.6049 262.1736,260.7908 262.2639,260.8917 262.4126,261.0086 262.4817,261.2317 262.4126,261.3486 262.4392,261.4867 262.6092,261.5876 262.7845,261.8745 262.9438,262.1932 262.9385,262.3738 262.7685,262.4482 262.5985,262.3047 262.487,262.4003 262.4923,262.5544 262.5985,262.7722 262.4232,263.2078 262.2586,263.4946 262.1151,263.6806 261.9558,263.739 261.8548,263.6434 261.7167,263.6115 261.5786,263.6487 261.5096,263.7709 261.4139,263.8293 261.2068,263.8612 261.0687,263.9249 261.0315,264.0046 261.0527,264.2543 261.0102,264.5889 260.9305,264.7802 260.8243,264.9236 260.8402,265.0617 260.7977,265.1839 260.6596,265.1361 260.511,265.0029 260.4041,264.7113 259.9725,264.4273 259.6317,264.3365 259.2683,264.5977 258.8139,264.6091 258.4732,264.6772 257.9735,264.9384 257.6214,265.1656 257.5191,265.495 257.6554,265.8925 257.61,266.2787 257.4851,266.4604 256.3038,266.574 255.8154,266.7671 255.4861,267.1192 255.0431,267.3009 254.5093,267.4713 254.089,267.6984 253.8278,268.255 253.4644,268.6071 253.0782,269.2885 252.6466,269.6179 252.0673,269.5838 251.5676,269.4362 250.9883,269.4816 250.6589,269.5384 250.1933,269.4475 249.7276,269.1863 249.1483,268.7433 248.6713,268.5843 248.1517,268.515 244.3685,292.2691" stroke="black" /><polygon fill="none" points="150.0133,38.0963 151.7066,38.3494 154.8202,37.7217 159.5749,34.1369 159.9793,34.0555 160.6418,33.9224 161.7089,33.7079 164.7846,34.2414 170.4486,36.3189 182.3436,62.1615 197.7729,93.9494 197.394,94.4102 196.9123,94.878 196.3898,94.9601 195.9294,95.0324 194.9863,95.4951 194.4771,96.3577 194.0082,97.1533 193.17,97.3792 192.3183,97.3187 191.7993,97.0286 190.9264,96.8007 190.0543,96.4998 189.7656,96.2051 189.2627,95.4704 188.6116,94.9531 187.8801,95.1643 187.4327,96.1079 187.2648,96.5713 186.9115,97.1236 186.028,97.9168 185.8024,98.5709 186.0129,99.3755 186.5173,99.9642 186.6586,100.4034 186.5066,100.9853 185.7705,101.6341 185.1088,102.1378 182.848,102.1142 182.3783,101.9522 182.194,101.8886 181.4594,102.3915 181.9669,102.7805 182.0382,102.8352 182.2494,103.5668 182.1776,103.7751 181.7981,104.875 181.6439,105.6758 181.9987,106.6277 181.998,106.6907 181.9865,107.7946 181.3286,107.9337 180.8173,108.0013 180.3729,108.6531 180.2908,109.5275 180.1373,110.2553 180.1328,110.6929 179.8357,111.2004 179.7575,111.7102 180.2588,112.5907 180.3264,113.102 180.2405,114.3411 180.6735,114.7832 180.5968,115.1471 179.9366,115.5049 179.1321,115.7154 178.3997,115.9995 177.7365,116.649 176.9281,117.224 176.3416,117.5097 175.6062,118.0855 175.3844,118.3749 175.3806,118.7396 175.1534,119.5395 175.0014,120.1215 174.2629,120.989 174.0411,121.2784 173.3816,121.5633 172.5042,121.7729 171.9524,121.6162 171.7042,121.5457 171.2666,121.5411 170.5343,121.8252 170.0138,122.7679 169.425,123.2723 169.273,123.8542 169.1721,124.0671 168.8255,124.7977 168.1622,125.4472 167.7115,125.6667 167.4291,125.8042 167.1297,126.5305 167.631,127.411 167.6287,127.6298 167.1113,128.2808 166.6691,128.7138 165.7179,128.9955 164.2593,128.9802 163.9714,128.6125 163.3926,128.1688 163.3274,128.08 162.9612,127.5807 162.0852,127.6444 161.7183,127.8594 161.2032,128.2916 161.0519,128.8006 160.6354,129.177 160.0946,129.6657 158.6237,130.8173 158.2545,131.251 158.0963,132.4163 158.0924,132.781 157.8652,133.5809 157.7147,134.0169 157.2687,134.8145 156.6829,135.0272 155.8078,135.0179 155.4416,135.16 155.07,135.8125 154.6969,136.6108 154.0312,137.4791 154.3122,138.5032 154.5264,138.943 154.7367,139.7476 154.805,140.1859 154.656,140.4761 153.9974,140.6879 153.4124,140.8276 153.1206,140.8246 152.8239,140.7981 152.4563,140.9231 152.1668,141.1655 151.8275,141.5846 151.1895,141.8962 150.2456,141.9491 150.024,141.9354 149.8067,141.8081 149.5699,141.6518 149.3135,141.7356 149.1552,141.9841 149.2052,142.3384 149.1239,142.6733 149.1765,142.9841 149.1629,143.0971 148.9918,143.1054 148.8027,143.04 148.5934,142.9171 148.4996,142.911 148.3041,142.8984 148.151,142.7837 148.1157,142.5161 148.1235,142.3847 148.0738,142.2947 147.9276,142.2997 147.858,142.5643 147.6722,142.7337 147.4278,142.8827 147.0496,142.9346 145.581,143.3705 144.619,144.6732 144.5337,145.8392 144.5958,146.861 144.5919,147.2256 143.498,147.214 142.1922,146.5438 140.7918,147.9147 140.1238,149.0016 139.3875,149.6502 138.3611,150.1499 137.8529,149.9257 137.4215,149.3376 137.205,149.1165 136.6992,148.6735 135.7495,148.8093 135.2367,149.0227 135.0862,149.4587 135.1482,150.4804 135.4283,151.5774 136.0071,152.0212 136.6596,152.3928 137.0941,152.6891 137.8172,153.2803 138.0221,154.5953 137.9251,155.2537 137.7862,156.1974 135.9606,156.3968 135.6838,156.7219 135.5913,156.8304 134.9287,157.4069 134.3262,157.4016 134.0535,157.3975 133.6187,158.433 133.2303,159.358 133.1481,160.2323 132.6949,161.6862 132.3869,163.2145 132.9587,164.3147 132.5117,165.1851 132.2091,166.2029 131.029,167.4302 130.5828,168.2278 128.9736,168.6482 127.6476,169.8739 126.3984,170.7357 126.3138,171.8288 126.0142,172.555 125.1266,173.7124 124.3902,174.3609 123.9839,175.4536 123.6171,175.4581 123.393,175.5208 123.1422,175.4809 122.7433,175.3557 122.5595,175.1397 122.5345,174.8696 122.677,174.6012 122.7811,174.4348 122.9223,174.2875 123.0063,174.1857 123.1203,174.0476 123.2335,173.9093 123.3664,173.6594 123.2475,173.4627 122.9981,173.2926 123.0008,173.0413 122.9941,172.7993 122.884,172.6492 122.6713,172.5167 122.5595,172.5341 122.3087,172.4849 122.2072,172.4094 122.1504,172.4024 121.9562,172.3788 121.6862,172.3945 121.4355,172.336 121.149,172.1468 120.826,171.8921 120.6044,171.7315 120.2899,171.5513 119.8173,171.3602 119.5593,171.1155 119.4133,170.844 119.3878,170.6204 119.2797,170.2843 118.523,169.6806 118.4234,169.4283 118.2122,169.1562 118.0469,168.9497 117.9014,168.6317 117.9415,168.3623 118.0659,168.0472 118.1908,167.6764 118.1459,167.527 118.0355,167.4048 117.8951,167.315 117.8137,167.2629 117.7591,167.1506 117.6305,166.9911 117.5477,166.8971 117.4639,166.9055 117.3814,166.7837 117.2423,166.7356 117.1675,166.7721 116.983,166.6212 116.7636,166.2466 116.5161,165.8997 116.4073,165.6287 116.4203,165.2845 116.3751,165.163 116.3871,164.9119 116.5294,164.6529 116.6801,164.487 116.8813,163.9494 116.764,163.6039 116.5903,163.5084 116.505,163.4615 116.3008,163.4035 116.2554,163.3006 116.1649,163.0577 116.3934,162.9339 116.5392,162.8663 116.7641,162.7291 116.8696,162.4325 116.7687,162.2918 116.4255,162.1858 116.2582,162.1654 116.1559,162.1643 116.0255,162.1722 115.7826,162.2627 115.6428,162.2798 115.3644,162.2024 115.1431,162.0139 115.1082,161.7995 115.1564,161.6418 115.1953,161.484 115.2348,161.2704 115.1538,161.0183 115.0156,160.8866 114.9692,160.8674 114.8298,160.8566 114.633,160.9848 114.503,160.9555 114.383,160.8612 114.2533,160.804 114.03,160.8016 113.8607,160.8268 113.797,160.8363 113.6137,160.9845 113.5267,160.9474 113.3578,160.9326 113.1801,160.935 113.0796,161.0119 112.9609,161.1667 112.8902,161.2917 112.7935,161.4163 112.6933,161.4629 112.5198,161.4697 112.308,161.4155 112.1757,161.219 112.0609,161.014 112.0096,160.9441 111.998,160.8183 111.986,160.7228 111.9178,160.6138 111.884,160.531 111.7156,160.4686 111.592,160.5346 111.5145,160.6311 111.3998,160.8119 111.2247,160.9704 111.0754,161.1509 111.0352,161.2675 110.9781,161.3362 110.774,161.373 110.566,161.3621 110.4248,161.1916 110.3092,161.056 110.2116,160.8642 110.1741,160.7208 110.0727,160.477 110.0737,160.3773 110.0407,160.3008 110.023,160.2597 109.9113,160.1675 109.8246,160.1666 109.7372,160.2263 109.6064,160.2986 109.5576,160.3437 109.5276,160.3714 109.3704,160.4781 109.3182,160.4949 109.1453,160.454 109.0855,160.3856 109.0382,160.3315 108.9576,160.1703 108.9158,160.0225 108.8127,159.9347 108.8002,159.8955 108.7361,159.8038 108.6679,159.6947 108.6168,159.6162 108.5396,159.5373 108.497,159.4675 108.3066,159.4308 108.0735,159.3416 107.8313,159.2957 107.7494,159.2471 107.5635,159.2061 107.4378,159.2005 107.3595,159.23 107.2546,159.3112 107.2147,159.3888 107.1573,159.4879 106.9868,159.6247 106.8906,159.7061 106.7642,159.7697 106.5339,159.8193 106.3777,159.8393 105.9444,159.8216 105.7331,159.7153 105.7511,159.6592 105.6957,159.5719 105.6348,159.5886 105.539,159.6309 105.4652,159.6344 105.4094,159.5862 105.4026,159.417 105.3825,159.2651 105.3447,159.1564 105.3121,158.961 105.2611,158.8607 105.1498,158.7382 105.0895,158.6985 105.0251,158.6415 104.9563,158.5887 104.8956,158.5881 104.8818,158.5919 104.7739,158.6215 104.6522,158.6505 104.5958,158.6542 104.5233,158.5451 104.4163,158.4139 104.3874,158.2836 104.3931,158.1536 104.484,158.0569 104.5422,157.9948 104.5989,157.9608 104.6859,157.9357 104.7032,157.9359 104.8554,157.8942 104.9559,157.8129 104.9915,157.7309 104.9801,157.5791 104.8554,157.4824 104.7388,157.4422 104.6139,157.3671 104.5415,157.2493 104.5386,157.1149 104.5354,157.0152 104.5367,156.8939 104.4563,156.7066 104.3445,156.6187 104.1717,156.5692 103.9468,156.5235 103.6564,156.516 103.3756,156.4307 103.2337,156.3757 103.1684,156.3504 103.0916,156.2326 103.0661,156.1502 103.0497,156.0978 102.9878,156.045 102.9724,156.0319 102.7871,155.9346 102.6874,155.9335 102.5269,155.9405 102.3329,155.843 102.0558,155.814 101.8752,155.6821 101.8501,155.5951 101.9911,155.3799 102.035,155.3284 102.1915,155.2867 102.253,155.2137 102.2776,155.09 102.2805,155.0753 102.1949,154.9703 102.1861,154.967 101.8927,154.8544 101.6815,154.7438 101.5477,154.6903 101.4835,154.616 101.4543,154.5116 101.4945,154.3994 101.595,154.3224 101.672,154.2757 101.7564,154.2245 101.8308,154.1603 101.984,154.0189 102.2288,153.8308 102.3161,153.771 102.3605,153.6762 102.4228,153.5251 102.4899,153.3265 102.5134,153.162 102.4927,153.0664 102.4241,153.0007 102.3528,152.9884 102.2899,152.9776 102.0916,152.8758 101.9578,152.831 101.8896,152.7219 101.8009,152.5042 101.7688,152.2612 101.7958,152.1704 101.7758,152.0142 101.7647,151.8364 101.736,151.6844 101.6504,151.5751 101.5255,151.5044 101.3872,151.4682 101.2529,151.4581 101.0619,151.4821 100.8448,151.5231 100.702,151.4999 100.5474,151.3596 100.4579,151.2199 100.3417,151.145 100.1337,151.1341 99.921,151.1665 99.7603,151.1994 99.544,151.1538 99.2556,150.9686 99.2083,150.9628 98.9872,150.9354 98.9194,150.7917 98.7996,150.6474 98.6747,150.568 98.6157,150.4157 98.6225,150.186 98.6192,150.1706 98.5771,149.9732 98.4663,149.7943 98.2786,149.5149 98.1205,149.2964 98.0395,149.1742 97.9323,149.0647 97.6404,148.8544 97.6269,148.8447 97.6176,148.8238 97.4026,148.3396 97.1784,148.2331 97.0429,147.9326 96.8968,147.8097 96.7419,147.7083 96.4649,147.6664 96.1764,147.4899 95.9904,147.4576 95.748,147.4246 95.475,147.413 95.3612,147.5202 95.3151,147.7797 95.3222,147.9228 95.3254,148.0312 95.2845,148.1998 95.1836,148.3201 95.1384,148.4887 95.0375,148.6046 94.7593,148.6796 94.5199,148.7724 94.2815,148.3668 94.2809,148.0157 94.2426,147.9546 94.2481,147.842 94.1883,147.7633 94.093,147.758 93.9835,147.8608 93.9703,147.8823 93.7788,147.954 93.5841,147.9172 93.3284,147.9145 93.2362,148.0305 93.0405,148.0848 92.9477,148.0677 92.8156,148.0433 92.504,148.001 92.2698,148.0071 91.8879,148.0507 91.8054,148.0672 91.6095,148.1518 91.535,148.2203 91.3775,148.3616 91.3374,148.4652 91.3061,148.5516 91.2231,148.6114 91.0757,148.6141 90.9408,148.6647 90.8443,148.772 90.8043,148.8626 90.8732,148.9023 90.8238,149.0622 90.7537,149.1351 90.6575,149.2078 90.596,149.2851 90.5778,149.3673 90.6233,149.5758 90.6099,149.606 90.4962,149.7001 90.4045,149.7685 90.304,149.8368 90.243,149.8708 90.126,149.8695 89.9291,150.0408 89.8714,150.1702 89.7746,150.2992 89.6477,150.4105 89.5076,150.5434 89.3856,150.6027 89.2077,150.6225 89.0689,150.6253 89.0343,150.625 88.8701,150.5712 88.7633,150.4578 88.7587,150.453 88.7451,150.4536 88.5245,150.4635 88.4612,150.3875 88.4261,150.3454 88.2891,150.1879 88.0428,150.1159 87.9533,149.9762 87.8851,149.8715 87.8035,149.7969 87.5959,149.7557 87.4051,149.7623 87.3048,149.8219 87.217,149.9206 87.1387,149.9458 87.0686,150.0231 87.0737,150.0644 87.0885,150.1836 87.1431,150.3446 87.1549,150.4617 87.1236,150.5524 86.997,150.6334 86.8661,150.71 86.7746,150.7567 86.7095,150.769 86.5096,150.8145 86.4404,150.7965 86.2935,150.7515 86.0689,150.6798 85.9657,150.6093 85.7373,150.4812 85.5128,150.4008 85.4395,150.361 85.3402,150.3252 85.1976,150.2847 85.0029,150.2523 84.782,150.2369 84.665,150.2356 84.5351,150.2212 84.4486,150.2073 84.3142,150.2145 84.2576,150.2356 84.0492,150.268 83.8022,150.2567 83.6381,150.2072 83.5736,150.1545 83.4219,150.1529 83.3303,150.2083 83.2683,150.3333 83.2415,150.4067 83.1756,150.484 83.0447,150.5693 82.9875,150.651 82.9656,150.6724 82.8918,150.6846 82.7877,150.6835 82.71,150.661 82.6535,150.6456 82.6062,150.6339 82.5586,150.6334 82.4674,150.6454 82.3805,150.6618 82.2288,150.6645 82.1374,150.6982 81.9292,150.7176 81.8176,150.6081 81.7752,150.5209 81.6675,150.4678 81.569,150.354 81.3697,150.3432 81.006,150.309 80.8415,150.2855 80.6818,150.2318 80.5049,150.1519 80.3753,150.1158 80.0816,150.0173 80.0122,150.0209 79.9778,150.0362 79.8598,150.0886 79.6984,150.1779 79.6461,150.212 79.5159,150.2193 79.3933,150.1425 79.361,150.1222 79.3271,150.0439 79.263,149.9565 79.1902,149.8777 79.0862,149.8766 78.8041,149.9125 78.339,150.0332 78.1176,150.0698 77.866,150.0845 77.6053,150.1467 77.3622,150.1831 77.2445,150.2382 77.1739,150.3544 77.0991,150.4663 77.0493,150.5689 67.9373,148.7413 68.028,147.7287 68.2464,146.455 68.0644,145.6181 68.5375,144.672 69.1561,144.1261 70.2114,142.2339 70.5025,141.6153 71.3031,139.3227 71.485,137.9035 71.7761,136.7755 71.3758,135.8294 70.9756,134.9196 69.993,134.301 69.1561,133.7552 68.1736,133.3185 67.1911,132.6635 66.718,131.9721 66.4997,131.2807 66.7544,130.5165 67.7369,129.7887 68.7194,129.4612 69.5564,128.9154 70.2478,128.4059 70.5753,127.6054 71.0847,126.914 72.1764,126.4045 72.795,125.7859 73.3543,124.4719 75.3957,123.4583 76.5419,122.3364 76.6463,120.1501 81.4568,117.285 85.0288,116.594 86.3758,117.8197 90.1639,121.2668 95.8516,118.9821 100.2538,117.1615 104.0879,114.6907 107.5996,112.0544 109.1792,108.2632 111.4093,104.2358 111.018,101.3427 110.4326,97.0146 110.5359,94.9092 109.6792,91.6593 107.9454,90.0849 107.5126,89.6919 106.2654,85.0606 99.9142,80.4563 97.2532,79.2939 95.9898,76.2018 99.0159,73.4792 102.1757,73.4315 105.0952,73.1383 107.6923,72.6796 109.413,70.8342 111.6025,70.6143 114.0326,70.6399 115.9033,69.9304 118.4092,70.4429 123.2762,69.8458 125.0548,70.1886 126.6605,69.1399 123.2305,61.0434 120.7611,55.2145 119.3322,55.3882 125.4921,50.1879 128.8279,48.2918 133.1834,47.0671 135.4927,45.8182 140.8518,41.511 142.7133,37.8593 146.8938,36.2014 149.8169,37.9769 150.0133,38.0963" stroke="black" /></svg>