<?xml version="1.0" encoding="utf-8" ?>
<svg baseProfile="tiny" height="500" version="1.2" width="329.5855" xmlns="http://www.w3.org/2000/svg" xmlns:ev="http://www.w3.org/2001/xml-events" xmlns:xlink="http://www.w3.org/1999/xlink"><defs /><polygon fill="none" points="82.0311,283.4593 78.0082,283.2637 75.1711,283.1258 58.2493,282.3031 58.3175,281.5032 58.0499,281.221 57.722,280.8854 57.3486,280.5078 57.0984,280.1917 56.9836,279.7712 57.0364,279.1906 56.8235,278.7151 56.3963,278.2527 56.309,277.7474 56.357,277.3126 56.302,276.904 56.1717,276.5148 56.0009,275.9918 55.581,275.079 55.293,274.6944 54.8376,274.0862 54.4932,273.3785 54.3959,272.9262 54.3575,272.4196 54.4957,271.7175 55.1879,270.5823 55.1092,270.1272 54.2282,268.538 53.9738,268.1522 52.9706,266.7013 53.3075,265.5601 52.971,263.3858 52.6253,262.6991 50.1244,261.3853 49.4877,260.9141 49.4465,260.5528 49.5703,260.155 49.8315,259.812 50.5431,259.1996 50.7069,258.8721 50.7663,258.3443 50.3635,257.1871 49.9834,256.3364 49.9974,255.4766 50.1076,254.2145 50.3002,253.0072 49.8582,251.9025 48.8725,250.4974 47.906,246.9576 47.3032,245.5717 47.0545,244.6255 46.8871,243.9517 46.7437,243.3161 46.6786,243.0386 46.4942,242.2524 46.3301,241.5528 46.6631,240.0285 46.6584,239.436 46.5773,238.1984 46.5584,237.4099 46.5442,236.76 46.5347,236.2917 46.7066,235.3882 46.9151,234.8731 47.1992,233.6598 47.5454,232.5351 47.785,232.1367 48.1076,231.7725 48.7787,231.0564 49.2092,230.7498 49.4201,230.6423 50.4953,230.0944 50.9062,229.7975 50.9363,229.3107 51.0441,228.6805 51.1877,228.4028 51.8339,227.8803 52.2079,227.6205 52.6775,227.3966 53.316,227.1122 53.3476,227.0981 54.0417,226.6861 54.4186,226.4801 54.6699,226.1367 54.817,225.8722 54.7957,225.4146 55.0719,225.1383 55.3237,224.8541 55.7041,224.6038 55.9804,224.173 56.238,223.885 56.3956,223.3767 56.484,222.8791 56.6039,222.378 56.7765,221.9927 56.7406,221.6244 56.6562,221.2306 56.4046,220.6764 56.4849,220.1675 56.1453,219.9932 56.0501,219.5904 56.0152,219.2002 55.8633,218.7751 56.2594,218.391 56.3369,217.932 56.3597,217.7974 56.2658,217.24 56.0416,216.9921 55.6276,216.7269 54.9353,216.3445 54.4834,215.9685 54.4374,215.5293 54.0864,215.079 53.6207,214.7174 53.4069,214.3963 53.0571,213.7034 52.5083,213.3135 52.2527,212.9745 52.2079,212.631 52.0763,212.2965 52.0086,211.9799 52.2679,211.8366 52.552,211.6664 53.0306,211.7621 53.3755,211.7721 53.6318,211.4486 53.9939,211.395 54.3267,211.5887 54.6068,211.6803 54.7665,211.346 55.1194,211.212 55.1335,210.5271 55.1814,210.1229 55.5778,209.7765 55.6661,209.4301 55.5501,208.9654 55.2913,208.6973 55.3119,208.0383 55.7202,207.6163 55.7682,207.1842 55.9597,206.7462 56.4004,206.2366 56.3636,205.8314 55.8702,205.4968 55.3797,205.2966 55.0747,205.1831 54.7188,204.9889 54.4123,204.6812 54.1368,204.5916 53.7498,204.5168 53.5052,204.3502 53.0809,204.2464 52.4722,204.114 52.3503,203.5314 52.3366,203.4113 52.3045,203.1278 52.0085,202.8251 51.842,202.5513 51.7748,202.2168 51.5189,201.7772 51.4565,201.281 52.4653,201.7986 53.0085,202.4261 53.2848,202.7666 54.488,204.1734 54.5694,204.2685 54.9282,204.4908 56.8411,204.9857 58.6426,206.1651 60.114,207.1724 61.4993,208.1546 62.6116,210.1188 63.1014,210.9557 63.7025,211.4127 64.5387,211.9648 64.8904,212.1727 65.4575,212.5562 65.7984,212.7785 66.1681,213.0222 66.7674,213.4129 67.6036,213.9578 68.4004,214.4847 70.3241,215.7393 71.7309,216.6534 72.5528,217.209 73.1414,217.3703 75.3093,217.8794 75.8692,218.0157 76.075,218.0632 76.3218,218.1201 76.4678,218.1538 76.6969,218.2067 76.8168,218.2344 76.8702,218.2471 76.9058,218.2557 77.0084,218.2802 77.1089,218.3042 77.3675,218.366 77.3981,218.3733 77.4018,218.3742 77.4051,218.3749 77.4218,218.3784 77.4946,218.3939 77.5585,218.4075 77.5847,218.413 77.5992,218.4161 77.6143,218.4193 77.7187,218.4415 77.755,218.4492 77.7838,218.4553 77.7978,218.4583 77.8063,218.4601 77.8105,218.461 77.8169,218.4624 77.8211,218.4632 77.8322,218.4655 77.8434,218.4677 77.8478,218.4686 77.8514,218.4693 77.8548,218.47 77.8586,218.4708 77.8702,218.4731 77.8846,218.476 77.9057,218.4803 77.9686,218.4936 78.076,218.5163 78.6046,218.6279 78.938,218.7363 79.0469,218.7973 79.2404,218.9057 79.5221,219.1924 79.7994,219.4747 80.1529,219.851 80.4458,220.1033 81.3176,220.4137 82.0732,220.6342 82.7836,220.8517 83.3389,220.9761 84.1424,221.0357 84.8818,221.0214 85.2372,221.0394 85.5712,221.083 85.9712,221.2455 87.6707,222.1827 88.1283,222.4247 88.4938,222.54 89.0885,222.5949 91.0483,222.5448 91.7033,222.5538 92.091,222.6703 92.3727,222.8567 92.8752,223.3763 93.1588,223.6702 93.5123,223.9874 93.8551,224.1254 94.2715,224.1899 94.8602,224.2813 95.4345,224.4909 96.2044,224.8673 96.619,225.093 97.0473,225.6175 97.9375,227.1084 98.6554,228.26 99.0765,229.0914 99.4307,229.6601 100.0721,230.74 101.594,233.2917 102.0918,234.2952 102.3024,234.7157 102.5653,235.3857 103.4607,237.296 103.846,238.131 104.0785,238.8116 104.0968,238.8794 104.4079,240.0341 104.8692,241.7328 105.3251,243.3473 105.8673,245.2593 106.395,247.1874 106.7836,248.6494 107.0341,249.5097 107.7414,252.0434 107.9963,252.9537 108.4847,254.6704 109.1094,256.9425 109.666,258.8491 110.1148,260.5299 110.2742,261.0918 110.2764,261.0997 110.8042,261.9347 111.4181,262.741 112.348,263.9953 113.0408,264.952 113.3417,265.3589 113.6844,265.8233 113.9586,266.1974 114.3976,266.7955 114.8879,267.4631 115.3905,268.1477 115.624,268.4652 115.8456,268.765 115.952,268.9089 116.2689,269.2632 116.2504,269.7194 116.2024,270.9003 116.1179,271.5933 116.0903,271.8204 115.9468,272.8846 115.8357,273.5176 115.654,273.9234 114.9229,274.8899 114.4291,275.5345 114.1241,275.94 113.9733,276.2379 113.8793,276.6123 113.7024,277.7258 113.6183,278.243 113.3343,280.0357 113.1895,280.9471 112.9381,282.4712 112.8185,283.3026 112.751,283.675 112.6285,284.0967 112.3918,284.6686 112.3165,284.9316 111.9988,284.9162 111.701,284.9017 111.0794,284.8715 110.2181,284.8296 109.5481,284.797 109.0107,284.7709 108.5568,284.7488 107.971,284.7204 107.2171,284.6837 105.9347,284.6214 104.1885,284.5365 103.3692,284.4966 102.398,284.4494 101.1946,284.3909 99.8663,284.3263 97.6913,284.2206 97.1273,284.1932 96.7742,284.176 96.5349,284.1644 96.2452,284.1503 96.0337,284.14 95.8469,284.1309 95.5038,284.1143 95.4284,284.1106 95.2158,284.1003 95.0654,284.0929 94.7699,284.0786 94.5415,284.0675 94.2902,284.0553 94.0858,284.0453 93.6303,284.0232 93.2557,284.005 93.2502,284.0047 92.8537,283.9854 82.2882,283.4718 82.0311,283.4593" stroke="black" /><polygon fill="none" points="164.9987,68.9575 161.9121,75.4018 155.1778,89.0803 153.71,92.0617 153.317,92.86 148.0703,102.7924 147.822,103.2627 142.7157,112.9315 142.7034,112.9328 118.3086,112.4536 116.6862,114.0947 116.4498,114.3339 84.5767,146.5743 84.1791,146.5238 83.7545,146.7878 83.3993,147.0052 82.8849,147.163 82.5112,147.3582 82.107,147.2193 81.7721,147.5051 81.3833,147.4065 81.3474,146.8103 81.3342,146.5179 81.3766,146.0555 80.8428,145.9742 80.3249,145.8579 80.1042,146.1544 79.481,146.2177 79.0923,146.1185 78.7658,146.1229 78.2771,146.2826 77.9561,146.1769 77.6006,145.8567 77.236,145.7091 76.8978,145.5332 76.6424,145.1076 76.8223,144.6979 76.9279,144.3613 76.8355,143.9978 76.7865,143.692 76.8057,143.4352 76.7265,143.0216 76.4119,142.5929 76.0489,142.7229 75.6911,142.686 74.7677,142.5259 74.428,142.4775 73.9448,142.65 73.1808,142.5568 72.7422,141.8089 72.5126,141.1781 72.2735,140.662 71.6659,140.3609 71.1445,140.4803 70.7808,140.6809 70.3407,140.9102 69.2116,141.1108 68.1017,141.34 67.2788,141.6171 66.6759,141.7604 66.1496,142.3767 65.6233,142.974 65.3074,143.4518 65.0267,143.9837 64.651,144.141 64.2172,144.5218 63.9563,144.8487 63.5383,145.0702 63.2512,145.0314 62.9825,145.0765 62.7623,145.1134 62.2824,145.0521 61.8698,145.0103 61.2427,145.0631 61.5489,144.7593 62.0849,144.5071 61.9237,144.1143 61.7862,143.7798 61.862,143.4676 61.6199,143.1326 61.3132,142.9181 61.0419,142.6049 60.692,142.8836 60.5753,143.2062 60.4467,143.5406 60.493,144.0036 60.623,144.3082 60.6693,144.6427 60.2641,144.7308 59.8724,144.6097 59.5196,144.7102 59.6391,145.2403 59.4536,145.7505 59.0021,145.9476 58.5087,146.3298 58.1917,146.5089 57.9599,146.9165 58.0585,147.4228 57.9901,147.9693 58.128,148.406 58.4305,148.6473 58.683,148.9982 58.6053,149.4134 58.224,149.6478 57.6978,149.7164 57.3001,149.6954 56.8563,149.8357 56.4209,149.9581 56.021,149.8065 55.4103,149.7299 54.9438,149.8981 54.5132,149.9518 53.9968,150.0323 53.353,150.068 52.9223,150.1814 52.4539,150.2291 52.3243,150.0081 52.1689,149.6153 51.8161,149.6287 51.6557,149.9459 51.7681,150.4411 51.9594,150.8025 52.2005,151.2186 52.1865,151.6298 52.2282,152.0748 52.4764,152.4855 52.368,152.9923 52.0068,153.0902 51.6998,152.9269 51.4806,152.5734 51.3013,152.22 51.04,151.8113 50.6137,151.2457 50.0457,150.816 49.8145,150.4536 49.7827,149.9927 49.871,149.5492 49.9579,148.9448 49.5215,148.7572 49.3357,148.4437 48.8127,148.5619 48.4463,148.8157 48.1901,149.0317 47.911,149.3591 47.2101,149.5386 46.8884,149.111 46.3876,148.6749 45.9475,148.9007 46.1124,149.414 46.5952,149.6557 46.3482,150.1528 46.1809,150.6982 45.7505,150.6087 45.2335,150.6039 45.2376,150.1822 45.1539,149.7348 44.7892,149.4749 44.4404,149.447 43.8323,149.4568 43.3061,149.3312 43.022,149.4013 43.0177,149.8054 42.7498,150.0523 42.3312,149.8611 41.9818,149.4484 41.6494,149.8385 41.4854,150.3797 41.3035,150.7309 40.9724,150.4344 40.864,150.1987 40.5866,149.7685 40.2422,149.4626 39.8356,149.1472 39.7735,148.8795 39.8645,148.6 40.0128,148.2942 39.9771,147.8833 39.5741,147.3934 39.033,147.3311 39.2745,146.8122 39.0708,146.3382 38.9752,145.9836 38.8015,145.563 38.5863,145.1409 38.5275,144.6789 37.999,144.8747 37.8035,144.4494 37.7438,144.0687 37.3874,144.0256 37.1451,143.8471 36.7727,143.7124 36.4051,143.9617 36.3293,143.3983 36.4344,142.9084 36.1903,142.8006 35.9463,142.9141 35.2625,143.1827 34.7757,143.1384 34.4983,142.9663 34.1,143.0062 33.7758,143.2026 33.1155,143.4055 32.7535,143.5249 32.3836,143.3193 32.0584,142.9847 31.6637,142.7409 30.872,142.7789 30.5411,142.7645 30.6161,142.4826 30.7222,142.1768 30.9919,141.7229 31.435,141.2715 31.2581,140.9493 31.0352,140.7624 30.7075,140.6455 30.445,140.5227 29.9558,140.1791 29.435,140.0889 29.2288,139.6416 29.9012,139.3802 29.8773,138.9861 29.7334,138.3985 29.6327,137.7658 29.7074,137.3209 29.4778,136.9138 30.5616,136.645 31.0453,136.4352 31.7744,135.8258 32.3848,135.3518 32.8441,134.7295 33.3322,134.2279 34.25,133.5066 34.5765,132.3025 35.3865,130.4759 36.3704,128.0209 37.6422,126.0909 37.9137,124.821 38.304,123.5342 39.4231,122.129 39.6437,121.1131 39.6438,120.5487 39.644,119.9843 39.7289,119.4706 39.9868,118.2103 40.2209,117.5911 41.132,116.9283 42.253,116.2907 42.1707,115.7121 41.9504,115.3057 41.8976,114.7765 41.6837,114.2896 41.1245,113.8323 40.4636,113.2056 39.8874,112.7483 38.7009,112.494 37.5231,112.3373 36.5528,112.0454 36.0569,111.6974 35.4129,111.3925 34.4305,111.2944 33.9384,111.0195 33.2944,110.7145 32.0569,110.9174 31.2871,111.0023 30.4976,110.7984 29.8537,110.0363 29.4132,109.4265 29.0407,108.2243 28.7303,107.411 28.1709,107.2325 27.7728,106.9242 27.7801,106.3651 27.7578,105.8256 27.3771,104.8247 26.9451,104.2922 26.6254,103.8262 25.5993,101.8096 21.2884,93.3371 18.7812,88.4097 18.9646,86.1996 19.6173,78.3305 18.6277,77.2699 16.2109,74.6797 16.6577,71.3848 18.4049,70.0238 19.7285,68.8901 19.7863,67.7189 20.1535,66.9207 21.1234,66.5756 22.1065,65.8377 22.7448,65.0098 22.8997,63.2982 25.5055,63.1879 26.3108,63.0762 27.7391,62.2354 29.3469,62.0426 30.3818,61.9161 32.4108,61.9166 33.0878,61.5958 33.9408,60.4478 36.1592,58.1998 39.4823,54.5813 42.1447,53.0477 43.1128,53.2562 43.8678,53.4188 44.1498,53.3845 44.1531,53.3805 44.1536,53.3841 45.1406,53.0818 46.3125,52.2016 46.7188,51.57 47.0954,48.428 48.116,47.2249 48.6246,46.7896 49.4857,45.4906 50.6412,44.0197 50.9901,43.5596 52.2809,43.1461 52.8606,41.9734 53.4613,41.0131 53.9467,40.3639 53.6095,39.6945 52.7173,39.8115 52.1688,39.7206 51.9493,39.3611 54.0901,37.3302 55.6106,36.9408 57.7911,37.3909 59.9275,36.4918 60.851,36.8712 61.6137,36.7368 60.529,35.8638 60.0678,35.0573 60.4356,34.6953 62.0208,33.6277 63.2671,32.9528 63.7873,32.1465 63.0319,31.2808 62.2494,30.7664 62.7705,30.3565 65.1051,29.8737 66.9543,27.4909 68.8077,27.0603 71.3168,26.3238 72.9908,25.8214 73.5949,25.8892 74.7719,25.9145 74.8208,25.9155 75.9196,24.8216 75.1391,22.7337 75.6104,21.8226 79.1952,20.6006 85.9705,19.6953 86.8704,19.3701 86.5979,17.4921 86.7318,16.8662 87.2615,16.4033 87.8443,15.5635 88.3694,14.2184 89.6887,12.3542 89.5898,10.9689 90.0348,10.4749 91.3098,10.2303 93.9998,8.6771 96.9522,8.7561 97.7903,8.6572 98.5036,8.1104 99.4293,7.2367 100.7806,6.815 102.856,6.0417 108.0914,5.9921 107.8885,5.6856 107.6785,5.3454 107.4466,5.0124 107.1858,4.6793 106.9395,4.2811 106.8308,3.7816 106.8453,3.1373 107.0191,2.7753 107.7193,2.4112 108.8084,2.4494 109.598,2.6376 110.2304,3.2351 110.6339,3.4122 111.5032,3.4339 111.9052,3.4049 112.3358,3.1225 112.6984,2.7858 114.8137,2.7821 116.8308,3.1764 118.6082,3.705 119.4331,3.9704 120.6435,5.0521 121.8846,5.3973 123.0981,5.2649 124.9865,4.9798 126.3576,4.4884 128.0096,3.2479 128.5223,3.0447 131.653,2.2301 137.0865,2.3747 138.1567,2.0896 140.0898,1.8481 141.5309,1.6006 143.9294,1.302 151.6472,0.3567 152.6718,0.3118 155.5681,0.1332 158.4197,0.3998 159.6677,1.023 161.3163,1.6014 163.4832,2.0713 164.009,2.0043 164.3405,1.7586 165.6963,0.0 166.6703,0.0656 169.1518,1.289 173.3945,1.8961 174.7832,1.7573 175.4943,1.6792 177.3357,1.0161 179.8918,0.4831 182.4057,0.4941 185.7488,0.2517 187.29,0.1399 187.7281,0.5162 188.5224,2.4599 189.0134,3.4617 190.4127,4.0025 190.6767,4.201 192.2454,4.0826 199.9449,3.4473 204.1062,3.3398 205.1514,3.999 207.3617,5.4695 208.4333,5.3823 209.7731,5.8684 209.9923,5.9897 210.0171,6.9876 209.8861,7.9286 210.2892,10.0794 209.2081,14.0366 207.9566,14.9434 205.2305,15.9258 204.5642,17.1199 204.3579,17.6902 204.0256,19.0887 204.5295,19.3143 205.4925,20.0931 205.0733,22.1369 204.7549,24.2127 204.9804,24.4731 207.7663,25.3554 208.6623,25.4105 209.5854,24.5992 212.9726,25.506 213.8252,26.3815 214.5642,26.9724 214.4898,27.1965 216.9696,28.7426 217.4614,29.4655 217.6094,30.0366 217.6893,34.3546 215.9699,34.9525 215.8713,34.9867 216.4529,36.3477 216.838,36.6403 217.2985,36.6391 217.9221,37.3405 218.3001,38.9086 218.3261,39.0163 219.0154,39.7889 219.2317,40.5279 219.2767,40.6813 219.4481,41.2668 219.2116,41.7677 218.0878,42.0303 218.0285,42.0442 217.8532,42.0851 216.6612,43.2152 216.5644,43.307 215.065,44.0075 214.537,44.8663 214.4042,45.6638 214.2771,46.4275 215.066,47.8776 217.1768,49.903 218.4209,50.7756 218.9379,50.9419 221.9367,50.9349 222.8294,51.2975 223.5799,51.9752 224.0776,52.9508 223.152,53.9582 223.0782,54.0385 223.0257,55.0322 223.6361,55.8476 223.9544,56.8637 224.1489,56.9351 225.4088,57.3977 225.7717,57.7222 225.8,57.7475 225.9334,58.8126 225.8457,58.9138 225.6199,59.1744 225.5503,59.2547 224.9235,59.9775 223.8165,61.254 222.5816,62.0673 221.5289,65.4981 221.1228,65.9523 219.7253,66.471 219.5631,66.4822 216.5923,66.6863 214.6562,68.1689 214.5247,68.2696 214.5787,68.6039 214.6687,68.6969 214.6746,68.7326 213.2708,68.7099 212.2426,68.5068 211.8437,68.7323 211.7128,70.1435 210.4251,72.0918 208.3343,72.0733 206.5581,71.9402 204.9063,71.0075 203.6673,70.3552 202.0134,69.2764 200.5015,68.7994 198.0709,68.0934 196.0354,66.9778 195.3753,66.7415 193.9182,66.3933 192.0688,66.9192 190.5952,66.7447 189.1028,66.3152 187.7972,66.1962 184.3858,66.1379 183.5677,65.2198 182.7726,63.6488 181.3819,63.0606 178.1924,62.8743 175.8582,62.4191 172.9561,62.215 171.8716,62.0393 170.4852,61.9869 169.6928,61.4439 169.0807,60.435 164.9987,68.9575" stroke="black" /><polygon fill="none" points="255.4985,159.4923 255.1091,160.6571 255.0532,161.9285 253.8346,163.0498 253.0965,166.5672 253.2999,166.4428 255.1072,165.3378 255.7456,165.2238 256.0851,165.1632 259.0293,166.274 259.5171,165.9312 259.9865,164.4833 260.293,164.1368 260.9007,164.0849 262.8201,164.3993 264.5841,164.3248 267.3257,163.1164 269.592,163.1064 272.0793,163.8437 273.1884,163.3534 274.3308,163.2044 274.7647,163.3387 274.872,163.3718 275.1562,163.4599 275.5692,163.8903 275.5989,163.9213 275.8916,164.9235 277.3052,165.9797 278.6916,168.361 279.8208,168.2176 281.9227,167.2399 283.4679,167.0595 284.5556,167.1459 285.7537,168.0673 286.0136,168.2672 287.0553,170.0084 285.488,173.3508 285.4299,175.3066 286.6714,176.992 287.0815,178.7823 287.0813,178.7863 286.9551,181.5061 286.9388,181.514 285.7768,181.4742 284.4724,182.008 283.271,181.9807 281.8387,182.1491 280.2528,182.5808 279.1003,182.4214 276.5423,182.5431 276.0381,182.4428 275.6748,182.1208 275.1097,181.5975 274.4036,181.1546 273.8592,181.0345 273.3149,181.1555 272.9721,181.5788 272.7509,182.0625 272.4186,182.6271 272.0094,183.2139 271.4109,183.2925 270.7856,183.293 269.9182,182.9311 268.8696,182.7508 267.8764,182.9579 267.2014,183.5526 266.5565,184.4597 266.0405,184.9543 264.5168,185.4604 263.3881,185.7637 260.7256,187.4474 247.9033,188.5395 244.1527,188.8589 243.6324,188.9032 242.3227,189.0148 237.9114,189.3905 237.7225,189.4066 236.9788,189.4699 234.6383,189.6693 232.0919,189.8862 227.898,190.2434 227.8889,190.2441 227.8742,190.2454 227.8518,190.2473 223.2701,189.8964 220.9924,190.0787 219.6556,190.3207 219.5416,190.3414 218.4733,190.4223 217.776,190.2804 216.3932,189.0224 215.7683,188.9225 214.9427,189.0344 214.2376,189.4664 213.5523,189.7286 212.4849,189.8096 211.1839,189.5312 210.3284,189.3677 209.7442,189.1671 209.119,188.6034 208.6353,187.7381 208.2846,187.2149 208.0151,187.0852 207.8097,186.9863 207.3054,186.8647 206.7981,186.5949 206.4276,186.1555 206.0327,185.6916 205.6889,185.2408 205.5868,184.8587 205.2767,184.6096 205.1758,184.5113 204.9347,184.2765 204.8785,183.7434 204.9066,183.3139 204.3451,182.2354 204.3477,181.7857 204.483,181.3364 204.7767,180.5932 204.3786,180.3689 203.7469,180.6164 203.4104,180.7924 203.0297,180.9398 202.5885,181.0781 202.1995,181.1302 201.6922,181.1469 201.1921,181.403 200.8368,181.6397 200.4568,181.8895 199.4926,181.4945 199.1488,181.1187 198.8208,180.6112 198.3001,180.5258 198.0049,181.0414 197.9406,181.7155 197.7786,182.7224 197.5966,183.713 197.4846,184.2297 197.4714,184.6229 197.5917,185.0493 197.8942,185.5584 197.9656,186.0097 198.023,186.3786 198.0323,186.9027 198.0611,187.256 197.8073,187.5197 197.4675,187.6333 196.9635,187.7963 196.6252,187.4755 196.3113,187.0158 196.0774,186.2962 195.7769,185.8032 194.6222,185.2172 194.0682,185.0308 193.4742,184.9378 192.9192,185.0464 191.8583,184.9837 191.3948,184.96 190.8006,184.9646 190.0038,184.1303 189.3279,184.053 187.6456,184.4546 186.9539,184.8003 186.1584,185.4575 185.2594,186.1834 184.3599,186.5987 183.6335,187.1864 183.2187,187.8778 183.0114,188.5001 182.3542,188.9496 181.5242,189.1919 180.4517,189.3305 179.813,189.7294 178.8001,190.5542 177.9357,190.9866 177.2196,191.2103 177.1052,191.2461 176.2403,191.3326 175.4965,191.2119 174.8607,191.0031 173.9469,190.904 171.5923,191.2073 170.7572,191.1101 170.3768,190.8339 170.0996,190.4366 169.8575,190.0046 169.3559,189.3223 168.8024,189.0374 168.4736,188.8302 168.3179,188.4329 168.2138,188.018 168.1616,187.232 167.8332,186.8952 167.4241,186.9407 167.2018,187.4223 167.3606,188.0065 167.7905,189.202 167.5746,189.7638 167.2804,190.3684 166.9347,190.9388 166.6341,191.5614 167.0525,192.2942 166.7993,192.483 166.3848,192.5618 165.9712,192.4961 165.5714,191.9325 165.2469,191.7579 164.8664,191.6781 164.4554,191.7256 163.9998,192.231 163.3485,192.8525 162.7811,193.5506 162.4597,193.5512 161.8294,193.2868 161.3374,193.005 161.0913,192.6147 161.1201,192.2318 161.0983,191.8774 160.7293,191.6247 160.3964,191.3791 160.107,191.0753 159.7447,190.6056 158.8692,190.2011 157.9141,189.5363 157.3499,189.4931 156.6844,189.7104 154.99,190.8202 147.8557,192.5088 147.2331,192.5753 146.752,192.4706 146.4083,192.0387 146.3432,191.4037 146.0499,190.9745 145.6122,190.6712 145.2938,190.431 144.8722,190.1434 143.8069,192.0227 143.3545,192.0946 142.8399,191.8172 142.4005,191.9337 139.9537,192.9415 138.0986,187.1056 136.4861,182.0332 129.9745,161.549 123.9096,143.988 123.7157,143.4268 123.3917,142.4886 134.6099,128.6566 142.7157,112.9315 147.822,103.2627 148.0703,102.7924 153.317,92.86 153.71,92.0617 155.1778,89.0803 161.9121,75.4018 164.9987,68.9575 169.0807,60.435 169.6928,61.4439 170.4852,61.9869 171.8716,62.0393 172.9561,62.215 175.8582,62.4191 178.1924,62.8743 181.3819,63.0606 182.7726,63.6488 183.5677,65.2198 184.3858,66.1379 187.7972,66.1962 189.1028,66.3152 190.5952,66.7447 192.0688,66.9192 193.9182,66.3933 195.3753,66.7415 196.0354,66.9778 198.0709,68.0934 200.5015,68.7994 202.0134,69.2764 203.6673,70.3552 204.9063,71.0075 206.5581,71.9402 208.3343,72.0733 210.4251,72.0918 211.7128,70.1435 211.8437,68.7323 212.2426,68.5068 213.2708,68.7099 214.6746,68.7326 214.6687,68.6969 214.5787,68.6039 215.7453,69.7763 216.2009,69.7524 217.73,70.8829 218.2108,70.9512 221.1258,70.114 221.5702,70.309 223.3721,72.5909 224.965,72.8948 226.6868,73.5558 228.6417,74.9994 228.7602,75.1228 230.4027,76.8334 231.6326,77.5794 231.7566,77.6546 238.4799,80.1071 239.3483,80.3828 240.2752,80.6771 240.9967,80.9061 241.6726,81.1207 244.0578,82.8251 245.8733,83.7275 249.5628,85.0984 251.1401,86.0981 251.2941,86.1957 251.3197,86.2418 251.5206,86.6028 251.5184,87.6169 250.6855,89.0759 251.129,90.7101 252.1125,91.731 256.8265,93.6016 258.3643,94.0728 260.1035,94.7246 262.0714,95.4621 262.0869,95.548 262.3768,97.1619 261.9835,98.5974 261.9618,98.6766 261.3377,99.6867 259.3444,101.4896 259.3637,101.6741 259.4167,102.1787 259.4889,102.867 259.3536,103.4126 258.5295,104.5791 258.4523,104.6884 258.3813,105.1443 258.4382,105.2078 259.0864,105.9322 260.6199,106.2945 260.7068,106.315 261.2716,106.8566 261.3899,107.062 261.4029,107.0846 261.6197,107.4609 261.7671,107.8931 261.7752,107.9169 261.9984,109.8928 262.5616,111.1226 263.0217,111.7468 263.6493,112.4215 266.157,113.4537 266.6309,114.1141 267.0869,114.349 268.1697,116.9436 268.7814,117.784 268.4167,118.6813 268.1406,119.3606 268.1025,119.4544 267.8409,120.0982 267.8308,120.4649 267.7763,122.4451 267.587,123.2339 266.5304,125.029 265.9121,126.6453 265.4663,127.3486 265.3142,127.4542 265.2771,127.4799 263.5467,128.6813 263.202,128.9206 263.0901,128.9983 262.9978,129.0624 262.723,130.2107 262.2987,131.9838 262.0933,132.8423 261.9964,132.9164 260.57,134.0075 258.4815,136.7595 258.2949,137.0054 258.0617,137.8738 258.067,137.9114 258.0722,137.9487 258.1759,138.6896 258.7425,140.3252 259.0477,140.6861 259.2267,141.699 259.5328,143.4312 259.5298,148.1937 259.3542,149.3773 258.6736,150.5117 258.1738,150.8108 255.8163,151.1793 254.8175,151.7082 254.4123,152.1835 254.4854,153.2492 254.5187,153.2907 254.8717,153.7297 255.6916,154.2234 255.7455,154.2559 258.1851,154.8717 258.6426,155.2922 258.7106,156.1038 258.4373,156.9714 258.1727,157.8116 257.3272,159.0155 255.4996,159.4891 255.4985,159.4923" stroke="black" /><polygon fill="none" points="114.1715,374.6013 113.6023,374.4775 113.1966,374.4057 112.9759,374.8957 112.4057,375.1753 112.0009,375.1438 111.6293,375.3521 111.0911,375.3313 110.45,375.6234 110.1644,375.885 109.5844,376.1628 109.4757,376.6144 109.2252,376.8993 108.8517,377.0391 108.6092,377.2792 108.2416,377.5833 107.9896,377.1502 107.8953,376.8268 107.643,376.6234 107.5316,376.9173 107.5083,377.2757 107.3222,377.4678 107.0252,377.2859 106.8546,377.5794 105.925,377.7424 105.5615,378.4118 105.1608,378.6678 104.9545,378.253 104.5845,378.2936 104.3319,378.6699 104.0517,378.9781 103.6742,379.2242 103.6471,379.5109 103.4136,379.8705 102.5839,379.628 101.9933,380.1529 100.6788,381.062 100.8064,381.278 99.4989,381.1757 99.2218,381.0879 98.7202,381.3194 97.6741,381.4045 97.2756,381.6496 97.0944,381.9165 96.8249,382.3895 96.2285,382.8129 95.1315,382.5803 94.5594,383.2669 93.1185,383.1823 92.4354,383.0757 92.0091,383.2525 91.3642,383.2873 91.0512,383.3456 90.6747,383.3704 90.2484,383.5137 90.3741,384.0047 90.635,384.2881 90.7225,384.694 90.9237,385.1121 90.9476,385.4586 90.6387,385.5661 90.3569,385.75 89.7766,386.0534 89.3934,386.2087 89.198,386.7061 88.7588,387.1285 88.3261,386.9286 87.7434,386.9206 87.2549,386.9541 86.9412,386.8812 86.5358,386.9795 85.9948,387.2179 85.5334,387.5408 85.0483,387.9921 84.5011,388.2907 84.1172,388.2418 83.7244,388.2389 83.2977,387.3346 82.2117,384.725 82.0029,384.2303 81.7937,383.7194 81.6773,383.2617 81.5834,382.5234 81.5984,381.8855 81.7565,380.7889 81.9031,379.5278 81.9973,378.644 81.9003,378.2049 81.4676,376.6549 81.4108,376.3704 81.3832,376.0025 81.3833,375.9984 81.3835,375.9907 81.3889,375.7742 81.4098,374.9492 81.4318,374.0799 81.4654,372.7478 81.4958,371.5441 81.5137,370.8374 81.5253,370.3758 81.5272,370.303 81.5426,369.693 81.645,365.6405 81.7829,360.1826 81.7836,360.1555 81.7852,360.0908 81.7861,360.0562 81.7863,360.0479 81.7864,360.0444 81.7865,360.0415 81.7868,360.0276 81.7869,360.0252 81.787,360.0225 81.787,360.0198 81.7871,360.017 81.7914,359.8458 81.7979,359.5898 81.8095,359.1306 81.8219,358.6399 81.8969,355.6721 81.9643,353.0058 82.0314,350.3504 82.1353,346.2354 82.2066,343.416 82.2177,342.9774 82.222,342.8036 82.2285,342.5465 82.2356,342.2675 82.236,342.2498 82.2383,342.1588 82.2407,342.0655 82.2429,341.9774 82.2454,341.8785 82.2479,341.7819 82.2483,341.7649 82.2492,341.7307 82.2503,341.6867 82.2509,341.6629 82.2511,341.6527 82.2514,341.6428 82.254,341.5374 82.3515,337.6795 74.2307,331.099 72.6552,329.8223 67.3499,325.5233 53.1531,314.0193 48.1703,312.9727 36.6449,306.1611 24.3293,298.8827 20.6658,296.7175 23.6858,298.1775 24.1896,298.1454 24.7228,298.1796 25.1142,298.2962 25.606,298.489 26.1105,298.5187 26.527,298.5332 27.035,298.5764 27.5108,298.6984 27.8399,298.812 28.3007,298.7721 28.8357,298.611 29.3205,298.4528 29.7478,298.4613 30.5006,298.4197 30.99,298.8034 31.4153,299.025 31.8149,299.1408 31.8664,299.1557 32.3264,299.2671 32.8392,299.3913 33.4876,299.5483 34.0462,299.6835 34.4701,299.8386 34.9297,300.0898 35.3218,300.4267 35.7059,300.8279 36.1741,301.3224 36.6229,301.4454 36.9997,301.5358 37.2832,301.6428 37.9909,301.7902 38.6946,301.972 38.7806,301.9805 39.3241,302.0343 39.9559,301.6818 40.3681,301.566 40.9621,301.4847 41.3929,301.4863 41.8121,301.5081 42.386,301.6966 42.9615,301.8246 43.3896,302.072 43.7607,302.1366 44.0814,302.206 44.4452,302.3494 44.9048,302.5168 45.5718,302.6746 46.7527,302.78 47.5714,302.8567 48.1052,302.9643 48.5001,302.9716 48.8528,303.0162 49.2661,303.2107 49.7257,303.3201 50.1039,303.273 50.4167,303.2013 50.9466,302.9363 51.7485,302.6593 52.2609,302.4348 52.711,302.1434 53.0394,301.9839 54.2819,300.5277 55.5364,300.4042 56.6101,300.2644 57.0639,299.8764 57.2988,299.0689 57.2804,298.281 56.9056,296.4581 57.7257,294.9837 58.0977,294.3326 58.2588,293.7074 58.4849,290.9488 58.8259,290.3258 59.0842,289.3912 59.0481,288.4051 59.1116,287.7306 59.3139,286.81 59.1689,286.0929 58.8809,285.0368 58.838,284.5695 58.2791,282.8109 58.2493,282.3031 75.1711,283.1258 78.0082,283.2637 82.0311,283.4593 82.2882,283.4718 92.8537,283.9854 93.2502,284.0047 93.2557,284.005 93.6303,284.0232 94.0858,284.0453 94.2902,284.0553 94.5415,284.0675 94.7699,284.0786 95.0654,284.0929 95.2158,284.1003 95.4284,284.1106 95.5038,284.1143 95.8469,284.1309 96.0337,284.14 96.2452,284.1503 96.5349,284.1644 96.7742,284.176 97.1273,284.1932 97.6913,284.2206 99.8663,284.3263 101.1946,284.3909 102.398,284.4494 103.3692,284.4966 104.1885,284.5365 105.9347,284.6214 107.2171,284.6837 107.971,284.7204 108.5568,284.7488 109.0107,284.7709 109.5481,284.797 110.2181,284.8296 111.0794,284.8715 111.701,284.9017 111.9988,284.9162 112.3165,284.9316 115.6827,285.009 118.8736,285.0824 120.6985,285.1243 121.7188,285.1478 122.3564,285.1624 122.8454,285.1737 123.2317,285.1825 123.5066,285.1889 123.6985,285.1933 123.9598,285.1993 124.0774,285.202 124.2569,285.2061 124.3544,285.2083 124.4055,285.2095 124.4929,285.2115 124.5285,285.2123 124.6024,285.214 124.6958,285.2162 124.8254,285.2192 124.9074,285.2211 125.0094,285.2234 125.1638,285.227 125.2697,285.2294 125.272,285.2294 125.4196,285.2328 125.5413,285.2356 126.3643,285.2545 126.3935,285.2552 126.9698,285.2685 127.6782,285.623 133.5847,288.5793 156.0016,299.7991 156.5766,300.5935 170.0039,319.1458 178.3358,330.658 183.0339,337.1492 189.7374,346.4113 209.1564,373.2423 238.4207,384.2281 238.2401,384.5528 238.1485,384.5444 236.5982,384.4025 235.1793,384.5508 234.361,385.6131 232.8469,386.4702 230.955,388.0355 230.1116,388.0998 230.0394,388.1053 229.2537,388.1652 229.0138,388.1835 228.7779,388.2015 228.4463,388.5679 228.4178,389.2412 229.2364,389.8573 229.5695,390.8267 229.3452,391.2327 228.8085,391.5472 228.7522,391.5801 227.8516,392.1078 227.7664,392.8236 227.7233,393.1859 226.1471,395.2769 225.7441,397.2501 225.9248,398.7322 225.6313,399.1388 225.658,401.2409 225.2301,401.4126 224.3838,401.0485 223.1379,401.2748 221.4871,400.9425 219.8356,400.9519 219.3603,400.6285 219.2332,400.5421 217.8573,399.6062 216.8856,399.1403 216.7682,399.0841 215.121,399.2839 212.8452,400.0624 212.4624,400.466 211.436,400.6237 210.5072,401.5967 209.3728,402.2948 208.357,402.4953 207.674,401.9247 207.3531,401.8956 207.0559,401.8686 206.9856,401.8622 206.9096,401.8553 206.1806,402.0115 205.5566,404.398 205.2394,404.7623 204.6391,405.065 204.5677,405.101 204.0387,405.3676 202.8015,406.2171 202.6749,406.304 201.7266,406.6454 201.3257,406.437 200.8566,405.1215 200.6012,405.1405 199.9811,405.1864 199.3878,405.5296 197.4181,405.6623 197.1859,405.5972 196.0108,405.2678 195.6857,405.0668 194.6218,404.8537 194.3269,404.7946 193.2443,404.9275 192.0896,405.5422 191.0233,405.4712 190.997,405.423 190.5538,404.6095 189.2966,403.2034 189.2091,403.1056 188.9257,403.062 188.1571,402.9442 187.2806,403.4899 186.5283,407.2237 184.9665,409.6923 185.0089,410.2365 187.1685,411.9003 187.1987,411.9428 187.4895,412.352 187.5385,412.539 187.5538,412.5976 187.8528,413.7401 189.2064,414.3891 189.5694,415.0458 189.6056,415.3195 189.4188,416.7173 189.6096,419.7432 188.683,420.8792 188.6696,421.3275 188.6689,421.3499 188.6687,421.3558 188.0921,422.0479 188.0437,422.1061 187.9049,422.5347 188.4195,423.97 187.5832,425.7685 186.1464,428.43 184.8399,428.9767 183.0782,430.8359 181.8099,431.2285 181.2242,431.2569 180.3616,430.8326 179.8973,430.8625 178.1299,430.9761 177.8554,430.9938 174.0973,431.2354 172.3075,429.5935 171.2808,429.0005 171.2373,428.9922 170.2691,428.8068 169.9361,429.002 169.8848,429.0321 169.3958,429.3186 168.3707,428.4565 168.2881,428.387 166.693,428.3368 164.9461,427.8548 163.8347,426.6758 163.1515,426.6445 162.7423,426.6258 162.2966,426.8065 160.6316,428.466 160.5081,429.5786 160.0921,430.5756 157.2755,432.6762 156.7221,433.5063 156.665,434.1408 156.5835,435.0465 157.3614,436.6404 157.4346,437.2678 157.5121,437.9323 157.0569,438.7975 157.1004,438.9707 157.0486,439.1002 156.6963,439.9821 156.652,440.3975 156.6266,440.6355 156.5569,441.2887 156.5862,441.5462 156.6042,441.7024 156.607,441.7269 156.618,441.8219 156.7522,442.9934 156.8651,443.9797 156.4802,444.7207 154.587,445.1144 153.4213,445.0929 153.3546,445.0916 151.3524,445.7218 150.8485,446.1473 150.5456,446.1705 150.2951,446.1897 149.7852,446.2287 149.7934,441.0684 149.9559,433.7931 150.9611,388.7801 151.2325,376.6284 150.8612,376.8922 149.9871,376.763 149.4962,376.6496 148.9305,376.7184 148.5385,377.1994 148.2453,377.8147 147.8144,378.2388 147.2428,378.7945 146.731,378.9797 146.0006,378.9978 145.4619,379.0846 144.8392,378.8308 144.4261,378.4069 144.1566,378.0187 143.4591,377.5455 143.1506,377.0751 142.8498,376.7303 142.4082,376.6871 141.9812,376.5358 141.6509,376.505 141.3882,376.7169 141.0693,376.6395 140.8397,376.2902 140.7279,375.9866 140.7367,375.3255 140.4743,374.9493 140.1091,374.9733 139.8009,375.2779 139.1154,375.3916 138.4869,375.538 137.8823,375.6277 136.8985,375.8897 136.1432,375.7774 135.7571,375.653 135.3799,375.6939 135.0837,375.9538 134.958,376.4376 134.6558,376.814 134.2767,377.258 133.7539,377.0351 133.5823,377.3418 133.7101,377.6683 133.5984,377.9789 132.9468,377.7371 132.1925,377.779 132.0637,377.4177 132.1295,377.116 132.6324,376.892 132.9751,376.88 132.8778,376.5873 132.5221,376.1394 132.1384,376.3186 131.8496,376.6009 131.4889,376.3187 131.0398,375.8947 130.4711,375.7813 129.9458,375.8561 129.6929,376.2354 129.369,376.5315 129.2558,375.9547 129.3176,375.2817 128.8607,375.4202 128.4117,375.8055 127.8652,376.1883 127.3534,376.1294 126.9077,376.4583 126.5261,376.6898 126.3865,376.9566 126.6101,377.6335 126.5881,377.9202 126.1312,377.9472 125.5863,377.329 125.2211,377.0991 125.1772,376.7437 124.8249,376.3854 124.4129,376.6423 124.404,377.0365 124.6237,377.3674 124.6878,377.7126 124.3975,377.9516 124.0176,377.9542 123.4226,377.6091 123.1242,377.9499 122.8193,378.1551 122.7362,377.7215 122.3824,377.5343 122.1574,377.2051 122.1794,376.8211 121.865,376.6051 121.6698,376.0997 121.2843,376.2005 121.0065,375.9791 120.6221,375.6171 120.2873,376.0433 120.0475,376.4289 119.7699,376.5398 119.498,376.3358 119.2774,376.2011 118.8814,376.5187 118.697,376.6979 118.4169,376.9344 118.0875,377.2396 117.6302,376.833 117.5332,376.3754 117.7235,376.0875 117.2602,375.7268 116.9225,375.7555 116.7861,376.1103 116.5284,376.3424 116.3263,375.924 116.1153,375.448 116.1574,374.968 115.8298,374.3557 115.9813,373.9475 115.342,374.0712 114.911,374.2773 114.1715,374.6013" stroke="black" /><polygon fill="none" points="109.2337,458.6686 93.269,460.0756 90.4916,458.5815 86.3808,456.3702 67.574,446.2527 63.0056,437.0005 59.4572,433.4995 38.4675,412.7907 39.0264,409.4647 44.1442,379.0107 61.0674,384.1856 61.4017,383.952 61.79,383.6124 62.0633,383.3286 62.2595,383.0602 62.4307,382.8067 62.5927,382.3438 62.8346,382.012 63.2662,381.8783 63.6973,381.6663 64.1682,381.5957 64.8867,381.4027 65.172,381.6795 65.0203,382.0398 65.0102,382.4679 65.2656,383.0003 65.6986,383.2525 66.0977,383.4636 66.357,383.9574 66.4012,384.4445 66.915,384.7422 67.4115,384.8664 67.7138,385.1163 68.1075,385.1014 68.4372,385.3205 68.6121,385.6809 68.7956,385.9527 69.1046,386.1678 69.3497,386.6021 69.8579,386.4735 70.1666,386.1904 70.5717,385.9723 70.6457,386.4472 71.1691,386.9995 71.0745,387.4809 71.4388,387.6105 71.7006,388.0585 72.0957,388.4289 72.6007,388.8379 72.8799,389.1278 73.0056,389.6386 72.8349,389.9909 73.2608,391.118 73.6011,391.4783 74.047,391.9562 74.5379,392.2788 75.0887,392.0758 75.797,391.8978 76.2844,391.9027 76.9567,391.9027 77.5671,391.4483 77.8059,391.0955 78.0483,390.6923 78.4102,390.3645 78.7499,390.0073 79.0117,389.7646 79.4235,389.5675 80.5166,389.6 80.8256,389.2488 81.1835,388.7952 81.7277,388.5506 83.2719,388.323 83.7244,388.2389 84.1172,388.2418 84.5011,388.2907 85.0483,387.9921 85.5334,387.5408 85.9948,387.2179 86.5358,386.9795 86.9412,386.8812 87.2549,386.9541 87.7434,386.9206 88.3261,386.9286 88.7588,387.1285 89.198,386.7061 89.3934,386.2087 89.7766,386.0534 90.3569,385.75 90.6387,385.5661 90.9476,385.4586 90.9237,385.1121 90.7225,384.694 90.635,384.2881 90.3741,384.0047 90.2484,383.5137 90.6747,383.3704 91.0512,383.3456 91.3642,383.2873 92.0091,383.2525 92.4354,383.0757 93.1185,383.1823 94.5594,383.2669 95.1315,382.5803 96.2285,382.8129 96.8249,382.3895 97.0944,381.9165 97.2756,381.6496 97.6741,381.4045 98.7202,381.3194 99.2218,381.0879 99.4989,381.1757 100.8064,381.278 100.6788,381.062 101.9933,380.1529 102.5839,379.628 103.4136,379.8705 103.6471,379.5109 103.6742,379.2242 104.0517,378.9781 104.3319,378.6699 104.5845,378.2936 104.9545,378.253 105.1608,378.6678 105.5615,378.4118 105.925,377.7424 106.8546,377.5794 107.0252,377.2859 107.3222,377.4678 107.5083,377.2757 107.5316,376.9173 107.643,376.6234 107.8953,376.8268 107.9896,377.1502 108.2416,377.5833 108.6092,377.2792 108.8517,377.0391 109.2252,376.8993 109.4757,376.6144 109.5844,376.1628 110.1644,375.885 110.45,375.6234 111.0911,375.3313 111.6293,375.3521 112.0009,375.1438 112.4057,375.1753 112.9759,374.8957 113.1966,374.4057 113.6023,374.4775 114.1715,374.6013 114.911,374.2773 115.342,374.0712 115.9813,373.9475 115.8298,374.3557 116.1574,374.968 116.1153,375.448 116.3263,375.924 116.5284,376.3424 116.7861,376.1103 116.9225,375.7555 117.2602,375.7268 117.7235,376.0875 117.5332,376.3754 117.6302,376.833 118.0875,377.2396 118.4169,376.9344 118.697,376.6979 118.8814,376.5187 119.2774,376.2011 119.498,376.3358 119.7699,376.5398 120.0475,376.4289 120.2873,376.0433 120.6221,375.6171 121.0065,375.9791 121.2843,376.2005 121.6698,376.0997 121.865,376.6051 122.1794,376.8211 122.1574,377.2051 122.3824,377.5343 122.7362,377.7215 122.8193,378.1551 123.1242,377.9499 123.4226,377.6091 124.0176,377.9542 124.3975,377.9516 124.6878,377.7126 124.6237,377.3674 124.404,377.0365 124.4129,376.6423 124.8249,376.3854 125.1772,376.7437 125.2211,377.0991 125.5863,377.329 126.1312,377.9472 126.5881,377.9202 126.6101,377.6335 126.3865,376.9566 126.5261,376.6898 126.9077,376.4583 127.3534,376.1294 127.8652,376.1883 128.4117,375.8055 128.8607,375.4202 129.3176,375.2817 129.2558,375.9547 129.369,376.5315 129.6929,376.2354 129.9458,375.8561 130.4711,375.7813 131.0398,375.8947 131.4889,376.3187 131.8496,376.6009 132.1384,376.3186 132.5221,376.1394 132.8778,376.5873 132.9751,376.88 132.6324,376.892 132.1295,377.116 132.0637,377.4177 132.1925,377.779 132.9468,377.7371 133.5984,377.9789 133.7101,377.6683 133.5823,377.3418 133.7539,377.0351 134.2767,377.258 134.6558,376.814 134.958,376.4376 135.0837,375.9538 135.3799,375.6939 135.7571,375.653 136.1432,375.7774 136.8985,375.8897 137.8823,375.6277 138.4869,375.538 139.1154,375.3916 139.8009,375.2779 140.1091,374.9733 140.4743,374.9493 140.7367,375.3255 140.7279,375.9866 140.8397,376.2902 141.0693,376.6395 141.3882,376.7169 141.6509,376.505 141.9812,376.5358 142.4082,376.6871 142.8498,376.7303 143.1506,377.0751 143.4591,377.5455 144.1566,378.0187 144.4261,378.4069 144.8392,378.8308 145.4619,379.0846 146.0006,378.9978 146.731,378.9797 147.2428,378.7945 147.8144,378.2388 148.2453,377.8147 148.5385,377.1994 148.9305,376.7184 149.4962,376.6496 149.9871,376.763 150.8612,376.8922 151.2325,376.6284 150.9611,388.7801 149.9559,433.7931 149.7934,441.0684 149.7852,446.2287 148.6262,445.2883 147.6012,443.8599 147.0277,443.451 147.0187,443.4445 145.9918,443.4443 143.6896,444.2921 142.1828,444.0974 142.167,444.0954 141.8022,443.6891 141.13,443.4139 140.862,443.3041 140.8467,443.2979 139.4197,443.2507 138.9888,443.4789 138.9504,443.526 138.0869,444.5883 139.5419,447.8522 139.6275,449.4662 139.1535,450.264 138.5375,450.4188 138.5299,450.4208 138.145,450.1462 137.1037,448.2832 137.1031,448.282 135.4968,447.8275 133.4041,447.9022 130.1987,450.4097 129.712,450.4736 128.5764,450.1112 127.4402,450.3811 126.4139,451.6529 126.3439,452.0393 126.3367,452.0792 126.3323,452.1033 126.3071,452.2426 126.2491,452.5625 126.1384,453.1759 126.6374,455.0039 126.7192,456.6902 124.8943,459.3944 124.0443,461.6739 124.0874,462.3843 124.5499,463.6549 124.6944,464.0517 126.868,466.0741 127.3303,466.7443 127.247,468.5162 124.8488,472.9094 123.3385,474.522 123.337,474.5235 121.5188,475.474 120.8131,476.2232 120.616,480.6318 120.2172,481.6993 118.208,483.7422 114.781,485.8475 114.5036,486.8274 114.992,487.7847 117.1724,489.5328 117.5658,490.0577 117.6393,491.0601 117.3596,492.0018 116.1919,493.0082 115.8197,493.3285 114.4267,493.7243 114.2428,493.7322 113.7774,492.1556 114.0948,491.3552 114.5349,490.725 114.7505,490.2412 114.7595,489.9216 114.6756,489.5931 114.5103,489.2001 114.0526,488.6614 113.6846,488.6738 113.2879,488.8307 112.7603,488.5151 112.3657,488.3353 112.2527,488.106 112.1359,487.7327 112.0011,487.3117 111.9861,486.8965 112.2136,486.5322 112.4211,486.158 112.4352,485.69 112.3213,485.1016 112.4651,484.6955 112.5309,484.3789 112.751,483.9832 113.1059,483.5566 113.2121,483.123 113.4951,482.8139 113.8904,482.563 114.3411,482.3554 115.1511,481.649 115.5374,481.3384 115.9602,481.1341 116.3915,481.0409 116.6873,480.8336 117.1288,480.479 117.5377,480.0301 117.933,479.6359 118.0068,479.2875 118.2624,479.1461 118.4579,478.8574 118.5929,478.4663 118.5797,478.044 118.3281,477.609 118.4179,476.942 118.5676,476.4104 118.8897,475.9481 118.8589,475.4149 118.6632,475.0844 118.5834,474.7758 118.2858,474.1766 117.2717,473.3083 116.9684,473.0708 116.6959,472.7184 116.5431,472.372 116.5431,471.9837 116.2854,471.4203 115.9129,470.8059 115.5655,470.4043 115.6094,469.8459 115.7331,469.4015 115.5175,469.2088 115.1658,468.9489 115.2759,468.6104 115.522,468.383 115.3832,467.9992 114.8067,467.7069 114.6262,467.3644 114.6165,466.4613 114.5254,465.9978 114.4487,465.5152 114.1708,465.0422 114.0797,464.5834 114.0797,464.1247 113.8039,463.1856 113.561,463.0198 113.1254,462.7773 113.2699,462.309 113.175,461.8713 112.6422,461.4848 112.2972,461.1814 112.2502,460.7284 112.23,460.1158 112.0407,459.6165 111.7317,459.3226 111.4722,459.1705 111.1855,458.9834 110.8741,459.024 110.452,459.1403 110.1171,459.0647 109.5146,459.0432 109.2337,458.6686" stroke="black" /><polygon fill="none" points="304.7966,287.8653 304.2724,288.6825 303.1168,288.1466 301.1669,287.8066 300.1078,287.9603 300.0699,287.976 299.4221,288.2444 299.0024,290.1092 298.8949,290.5868 298.0248,291.2796 294.039,293.5538 294.3623,294.4332 294.4269,294.609 294.7855,295.2385 294.9511,295.5293 295.5159,298.0379 295.2744,300.0512 294.9335,300.1192 294.1643,300.2726 292.1427,299.9041 290.0041,299.9594 288.8967,299.7249 288.3583,299.8393 285.9567,301.5875 283.2955,301.5055 277.9291,300.2296 276.1147,300.3428 274.515,301.2626 273.8469,302.6099 273.8892,302.9198 276.1262,303.7326 276.5008,306.0976 278.8424,308.034 278.862,308.1001 279.0547,308.7493 279.1394,309.0348 279.148,309.0638 279.217,309.7392 279.5617,310.5795 279.6939,310.9019 280.2746,311.6376 281.4908,312.4832 281.6793,313.2086 281.6145,313.8546 281.5103,314.8944 280.8692,315.6632 280.8153,315.7279 280.1203,316.5613 279.5777,316.9634 277.8477,317.2886 275.5883,319.9071 273.9775,322.1799 273.8914,322.8335 274.4896,324.2799 273.1073,325.6563 272.7799,326.9229 273.0859,327.7804 274.0044,328.3939 274.0944,329.0224 273.7381,329.9742 272.6762,331.0371 272.4705,331.1549 270.2961,331.7822 269.6539,332.3103 269.5838,332.8639 270.1537,334.2516 270.7309,334.7032 270.77,334.7338 271.2335,335.0964 271.3402,336.6241 271.3458,336.7045 271.3413,336.7314 270.6277,340.9884 270.6266,341.0052 270.6256,341.0221 270.6119,341.2423 270.5942,341.5273 269.0852,343.3914 268.7406,344.2754 268.8322,345.2963 270.356,346.4269 270.4856,347.4828 270.1953,348.4556 269.8235,348.7735 269.4592,349.7501 268.2093,350.5916 267.4212,351.4762 267.4151,351.7381 267.409,352.0004 267.7521,352.3416 269.0589,352.9348 269.3476,353.4344 269.3208,353.9334 268.3905,354.1129 266.3975,355.3054 259.7661,355.8243 258.4167,356.4424 257.0823,358.5155 255.5116,360.5221 253.9805,361.7483 252.6038,362.2405 249.6031,362.4018 248.4258,362.198 247.0451,361.741 245.7172,361.6593 245.1958,361.6272 243.5567,362.985 242.3961,363.6805 242.268,364.1433 241.5191,364.4606 241.4356,364.9176 241.8647,366.5088 241.4939,367.5073 241.4247,368.4833 241.7105,368.9535 241.9341,369.662 241.9457,369.6988 241.9937,369.851 240.9956,370.1334 239.997,370.8038 240.3973,372.3472 240.8964,373.255 240.522,375.3016 240.1196,375.5639 238.2336,375.4794 237.8882,375.8018 238.0267,376.2761 239.2321,377.1646 239.4937,378.5478 239.5478,379.2544 239.4786,382.0729 239.4292,382.0981 239.3981,382.1139 238.7361,383.6656 238.2401,384.5528 238.4207,384.2281 209.1564,373.2423 189.7374,346.4113 183.0339,337.1492 178.3358,330.658 170.0039,319.1458 156.5766,300.5935 156.0016,299.7991 156.6259,296.8997 163.3782,265.5376 167.0297,248.5779 173.6263,237.6764 182.2548,223.4169 184.2715,220.0841 193.8963,204.1783 196.5188,199.8444 201.107,192.2619 205.5868,184.8587 205.6889,185.2408 206.0327,185.6916 206.4276,186.1555 206.7981,186.5949 207.3054,186.8647 207.8097,186.9863 208.0151,187.0852 208.2846,187.2149 208.6353,187.7381 209.119,188.6034 209.7442,189.1671 210.3284,189.3677 211.1839,189.5312 212.4849,189.8096 213.5523,189.7286 214.2376,189.4664 214.9427,189.0344 215.7683,188.9225 216.3932,189.0224 217.776,190.2804 218.4733,190.4223 219.5416,190.3414 219.6556,190.3207 220.9924,190.0787 223.2701,189.8964 227.8518,190.2473 227.8742,190.2454 227.8889,190.2441 227.898,190.2434 232.0919,189.8862 234.6383,189.6693 236.9788,189.4699 237.7225,189.4066 237.9114,189.3905 242.3227,189.0148 243.6324,188.9032 244.1527,188.8589 247.9033,188.5395 260.7256,187.4474 263.3881,185.7637 264.5168,185.4604 266.0405,184.9543 266.5565,184.4597 267.2014,183.5526 267.8764,182.9579 268.8696,182.7508 269.9182,182.9311 270.7856,183.293 271.4109,183.2925 272.0094,183.2139 272.4186,182.6271 272.7509,182.0625 272.9721,181.5788 273.3149,181.1555 273.8592,181.0345 274.4036,181.1546 275.1097,181.5975 275.6748,182.1208 276.0381,182.4428 276.5423,182.5431 279.1003,182.4214 280.2528,182.5808 281.8387,182.1491 283.271,181.9807 284.4724,182.008 285.7768,181.4742 286.9388,181.514 286.9551,181.5061 286.9551,181.5069 286.9677,181.5206 287.1683,181.739 287.8119,182.4394 287.8704,182.5031 288.7644,184.0567 289.2648,186.5449 289.5669,186.7116 292.3588,188.2521 294.091,189.7642 294.2279,189.8837 296.1979,188.6766 296.2212,188.6853 296.6139,188.8322 296.624,188.9391 296.6979,189.7263 297.0914,190.0801 297.1154,190.0853 297.5402,190.177 297.8157,190.735 297.8554,190.8155 298.1019,193.5341 299.3748,194.7023 300.5423,195.2439 303.0538,195.7577 305.3791,195.6275 308.0114,194.4659 315.2119,192.4071 317.4608,191.1525 318.0571,191.1409 318.2823,191.2271 318.3156,191.2398 318.4324,191.2846 319.482,191.6874 319.5781,191.7876 320.9129,193.1797 320.7943,194.7779 320.788,194.8624 319.6737,197.3618 319.5931,198.0008 319.4421,199.1997 319.9811,201.4243 320.8442,203.2032 320.9459,203.2823 322.3523,204.3754 323.1466,204.6849 325.4647,204.2482 325.8128,204.3719 325.8461,204.8066 325.4163,205.3957 325.3178,205.9542 325.2196,207.8775 325.6342,209.0865 325.5703,210.6059 326.0688,211.8461 327.6756,212.7438 327.7427,213.7681 328.737,214.6353 328.6385,215.5652 329.3718,216.4324 329.4592,216.6291 329.4593,216.6306 329.5855,218.2935 329.2084,219.7626 329.1237,220.0927 329.038,220.1547 327.7498,221.0865 327.598,222.3792 327.5191,223.0517 327.3315,223.5962 326.8286,224.4955 325.7266,224.7991 323.8667,227.7375 322.0646,228.5822 321.715,229.1103 321.2298,231.0766 321.2065,231.4444 321.2066,231.4453 321.2879,232.4704 322.223,234.0635 322.35,234.2799 322.5622,234.6417 322.6295,237.4296 322.2005,238.8601 321.2049,240.3172 321.1171,240.5994 320.7884,241.6566 320.3243,243.1495 320.2004,243.5479 319.8141,244.1615 318.7482,244.4506 318.2761,244.9153 318.068,245.437 318.0415,247.2208 317.7224,248.3129 316.3102,250.4732 315.2817,251.1805 314.6307,251.9328 313.0765,254.0687 311.4357,256.8497 309.692,258.894 308.6744,259.6298 308.3559,259.9734 307.5846,261.1967 307.4207,261.7912 307.8202,263.2597 307.8523,264.4178 306.5584,266.883 306.4074,267.1708 306.3372,267.3473 305.1201,270.409 304.6671,270.9613 304.6349,271.0006 303.8727,271.3221 302.6222,271.3949 301.7347,271.8949 301.1855,273.601 299.2669,277.0358 298.8695,278.6701 299.118,279.0812 301.9469,278.595 302.1925,278.6018 303.2873,278.6321 303.8845,278.8227 304.6734,279.4664 304.7835,279.8386 305.2037,281.258 303.901,285.1993 304.7966,287.8653" stroke="black" /><polygon fill="none" points="126.3643,285.2545 125.5413,285.2356 125.4196,285.2328 125.272,285.2294 125.2697,285.2294 125.1638,285.227 125.0094,285.2234 124.9074,285.2211 124.8254,285.2192 124.6958,285.2162 124.6024,285.214 124.5285,285.2123 124.4929,285.2115 124.4055,285.2095 124.3544,285.2083 124.2569,285.2061 124.0774,285.202 123.9598,285.1993 123.6985,285.1933 123.5066,285.1889 123.2317,285.1825 122.8454,285.1737 122.3564,285.1624 121.7188,285.1478 120.6985,285.1243 118.8736,285.0824 115.6827,285.009 112.3165,284.9316 112.3918,284.6686 112.6285,284.0967 112.751,283.675 112.8185,283.3026 112.9381,282.4712 113.1895,280.9471 113.3343,280.0357 113.6183,278.243 113.7024,277.7258 113.8793,276.6123 113.9733,276.2379 114.1241,275.94 114.4291,275.5345 114.9229,274.8899 115.654,273.9234 115.8357,273.5176 115.9468,272.8846 116.0903,271.8204 116.1179,271.5933 116.2024,270.9003 116.2504,269.7194 116.2689,269.2632 115.952,268.9089 115.8456,268.765 115.624,268.4652 115.3905,268.1477 114.8879,267.4631 114.3976,266.7955 113.9586,266.1974 113.6844,265.8233 113.3417,265.3589 113.0408,264.952 112.348,263.9953 111.4181,262.741 110.8042,261.9347 110.2764,261.0997 110.2742,261.0918 110.1148,260.5299 109.666,258.8491 109.1094,256.9425 108.4847,254.6704 107.9963,252.9537 107.7414,252.0434 107.0341,249.5097 106.7836,248.6494 106.395,247.1874 105.8673,245.2593 105.3251,243.3473 104.8692,241.7328 104.4079,240.0341 104.0968,238.8794 104.0785,238.8116 103.846,238.131 103.4607,237.296 102.5653,235.3857 102.3024,234.7157 102.0918,234.2952 101.594,233.2917 100.0721,230.74 99.4307,229.6601 99.0765,229.0914 98.6554,228.26 97.9375,227.1084 97.0473,225.6175 96.619,225.093 96.2044,224.8673 95.4345,224.4909 94.8602,224.2813 94.2715,224.1899 93.8551,224.1254 93.5123,223.9874 93.1588,223.6702 92.8752,223.3763 92.3727,222.8567 92.091,222.6703 91.7033,222.5538 91.0483,222.5448 89.0885,222.5949 88.4938,222.54 88.1283,222.4247 87.6707,222.1827 85.9712,221.2455 85.5712,221.083 85.2372,221.0394 84.8818,221.0214 84.1424,221.0357 83.3389,220.9761 82.7836,220.8517 82.0732,220.6342 81.3176,220.4137 80.4458,220.1033 80.1529,219.851 79.7994,219.4747 79.5221,219.1924 79.2404,218.9057 79.0469,218.7973 78.938,218.7363 78.6046,218.6279 78.076,218.5163 77.9686,218.4936 77.9057,218.4803 77.8846,218.476 77.8702,218.4731 77.8586,218.4708 77.8548,218.47 77.8514,218.4693 77.8478,218.4686 77.8434,218.4677 77.8322,218.4655 77.8211,218.4632 77.8169,218.4624 77.8105,218.461 77.8063,218.4601 77.7978,218.4583 77.7838,218.4553 77.755,218.4492 77.7187,218.4415 77.6143,218.4193 77.5992,218.4161 77.5847,218.413 77.5585,218.4075 77.4946,218.3939 77.4218,218.3784 77.4051,218.3749 77.4018,218.3742 77.3981,218.3733 77.3675,218.366 77.1089,218.3042 77.0084,218.2802 76.9058,218.2557 76.8702,218.2471 76.8168,218.2344 76.6969,218.2067 76.4678,218.1538 76.3218,218.1201 76.075,218.0632 75.8692,218.0157 75.3093,217.8794 73.1414,217.3703 72.5528,217.209 71.7309,216.6534 70.3241,215.7393 68.4004,214.4847 67.6036,213.9578 66.7674,213.4129 66.1681,213.0222 65.7984,212.7785 65.4575,212.5562 64.8904,212.1727 64.5387,211.9648 63.7025,211.4127 63.1014,210.9557 62.6116,210.1188 61.4993,208.1546 60.114,207.1724 58.6426,206.1651 56.8411,204.9857 54.9282,204.4908 54.5694,204.2685 54.488,204.1734 53.2848,202.7666 53.0085,202.4261 52.4653,201.7986 51.4565,201.281 51.2171,199.6537 51.0211,198.6598 50.9542,198.2632 50.9606,197.9557 51.3563,197.7028 51.7829,197.9878 51.876,197.5838 52.1292,197.2097 52.5944,196.933 52.8239,197.0753 53.0743,197.0737 53.4811,197.0308 53.3657,196.7583 53.4357,196.4263 53.6734,196.2018 53.3265,196.0161 53.2468,195.7597 53.2142,195.4005 52.9252,194.968 52.8834,194.5172 52.6516,194.2257 52.6018,193.7036 52.7348,193.1208 53.0428,193.2264 53.2904,193.0933 53.6206,192.907 54.0727,192.3093 53.6136,192.1773 53.6918,191.7267 54.0962,191.8478 54.4333,191.6748 54.7751,191.3896 55.075,191.4034 55.3877,191.0839 55.7238,190.882 55.3097,190.4099 55.4382,190.0844 55.2159,189.7224 54.8096,189.8466 54.7246,189.3917 54.372,189.0037 54.2339,188.7188 54.4158,188.3246 55.0403,188.3329 55.4004,188.1778 55.3319,187.7016 55.4795,187.2854 55.8689,186.9315 56.2631,187.0569 56.6746,187.1404 57.0156,186.6901 57.2938,186.2672 57.714,186.1488 58.0828,186.0324 58.4597,185.8279 59.0216,185.6618 59.9549,185.0428 60.663,184.5732 84.6319,168.6763 84.5767,146.5743 116.4498,114.3339 116.6862,114.0947 118.3086,112.4536 142.7034,112.9328 142.7157,112.9315 134.6099,128.6566 123.3917,142.4886 123.7157,143.4268 123.9096,143.988 129.9745,161.549 136.4861,182.0332 138.0986,187.1056 139.9537,192.9415 142.4005,191.9337 142.8399,191.8172 143.3545,192.0946 143.8069,192.0227 144.8722,190.1434 145.2938,190.431 145.6122,190.6712 146.0499,190.9745 146.3432,191.4037 146.4083,192.0387 146.752,192.4706 147.2331,192.5753 147.8557,192.5088 154.99,190.8202 156.6844,189.7104 157.3499,189.4931 157.9141,189.5363 158.8692,190.2011 159.7447,190.6056 160.107,191.0753 160.3964,191.3791 160.7293,191.6247 161.0983,191.8774 161.1201,192.2318 161.0913,192.6147 161.3374,193.005 161.8294,193.2868 162.4597,193.5512 162.7811,193.5506 163.3485,192.8525 163.9998,192.231 164.4554,191.7256 164.8664,191.6781 165.2469,191.7579 165.5714,191.9325 165.9712,192.4961 166.3848,192.5618 166.7993,192.483 167.0525,192.2942 166.6341,191.5614 166.9347,190.9388 167.2804,190.3684 167.5746,189.7638 167.7905,189.202 167.3606,188.0065 167.2018,187.4223 167.4241,186.9407 167.8332,186.8952 168.1616,187.232 168.2138,188.018 168.3179,188.4329 168.4736,188.8302 168.8024,189.0374 169.3559,189.3223 169.8575,190.0046 170.0996,190.4366 170.3768,190.8339 170.7572,191.1101 171.5923,191.2073 173.9469,190.904 174.8607,191.0031 175.4965,191.2119 176.2403,191.3326 177.1052,191.2461 177.2196,191.2103 177.9357,190.9866 178.8001,190.5542 179.813,189.7294 180.4517,189.3305 181.5242,189.1919 182.3542,188.9496 183.0114,188.5001 183.2187,187.8778 183.6335,187.1864 184.3599,186.5987 185.2594,186.1834 186.1584,185.4575 186.9539,184.8003 187.6456,184.4546 189.3279,184.053 190.0038,184.1303 190.8006,184.9646 191.3948,184.96 191.8583,184.9837 192.9192,185.0464 193.4742,184.9378 194.0682,185.0308 194.6222,185.2172 195.7769,185.8032 196.0774,186.2962 196.3113,187.0158 196.6252,187.4755 196.9635,187.7963 197.4675,187.6333 197.8073,187.5197 198.0611,187.256 198.0323,186.9027 198.023,186.3786 197.9656,186.0097 197.8942,185.5584 197.5917,185.0493 197.4714,184.6229 197.4846,184.2297 197.5966,183.713 197.7786,182.7224 197.9406,181.7155 198.0049,181.0414 198.3001,180.5258 198.8208,180.6112 199.1488,181.1187 199.4926,181.4945 200.4568,181.8895 200.8368,181.6397 201.1921,181.403 201.6922,181.1469 202.1995,181.1302 202.5885,181.0781 203.0297,180.9398 203.4104,180.7924 203.7469,180.6164 204.3786,180.3689 204.7767,180.5932 204.483,181.3364 204.3477,181.7857 204.3451,182.2354 204.9066,183.3139 204.8785,183.7434 204.9347,184.2765 205.1758,184.5113 205.2767,184.6096 205.5868,184.8587 201.107,192.2619 196.5188,199.8444 193.8963,204.1783 184.2715,220.0841 182.2548,223.4169 173.6263,237.6764 167.0297,248.5779 163.3782,265.5376 156.6259,296.8997 156.0016,299.7991 133.5847,288.5793 127.6782,285.623 126.9698,285.2685 126.3935,285.2552 126.3643,285.2545" stroke="black" /><polygon fill="none" points="46.4167,464.2346 46.3124,463.377 47.0888,460.9397 47.2017,458.834 46.0617,456.5033 45.6477,455.6569 44.9745,453.7948 44.1966,451.1066 42.6835,449.4116 38.1921,445.6213 37.9487,445.2385 37.4133,444.3964 35.462,442.6312 34.4968,441.1126 33.9501,440.2523 33.4624,438.7605 32.0374,436.6404 31.0182,434.3357 30.4209,433.6627 30.2528,433.4731 29.5784,432.7129 28.91,432.2765 28.2907,432.012 26.2548,430.542 25.5684,430.3095 25.5495,430.303 24.6594,430.2657 24.179,430.1507 24.1318,430.1394 24.1504,430.1295 24.315,429.8234 25.1056,429.2359 25.5177,428.8299 25.8915,428.5147 26.2916,427.9931 26.3276,427.9462 26.8882,427.4176 27.1638,427.0613 27.6069,426.8285 27.9567,426.733 28.2897,426.53 28.5449,426.3261 28.6155,426.2697 28.9821,425.7824 29.6049,425.5198 29.9115,425.4315 30.2536,425.2496 30.5559,425.0494 30.7434,424.709 30.9743,424.361 31.2436,424.1442 31.7314,423.9888 32.0054,423.6904 32.1684,423.2939 32.3435,422.7031 32.6933,422.1735 32.7557,421.6137 32.6169,421.1043 32.6279,420.5847 32.4312,420.0701 32.5311,419.7413 32.8135,419.4941 33.1779,419.3233 33.5145,419.1251 33.638,418.5844 34.426,418.4158 35.3689,417.9673 35.8238,417.3758 36.3426,415.9463 36.7979,415.5065 37.5618,414.8025 37.622,414.7469 37.9877,414.5858 38.2291,414.1242 38.2395,413.7817 38.2547,413.2849 38.4675,412.7907 59.4572,433.4995 63.0056,437.0005 67.574,446.2527 86.3808,456.3702 90.4916,458.5815 93.269,460.0756 109.2337,458.6686 109.5146,459.0432 110.1171,459.0647 110.452,459.1403 110.8741,459.024 111.1855,458.9834 111.4722,459.1705 111.7317,459.3226 112.0407,459.6165 112.23,460.1158 112.2502,460.7284 112.2972,461.1814 112.6422,461.4848 113.175,461.8713 113.2699,462.309 113.1254,462.7773 113.561,463.0198 113.8039,463.1856 114.0797,464.1247 114.0797,464.5834 114.1708,465.0422 114.4487,465.5152 114.5254,465.9978 114.6165,466.4613 114.6262,467.3644 114.8067,467.7069 115.3832,467.9992 115.522,468.383 115.2759,468.6104 115.1658,468.9489 115.5175,469.2088 115.7331,469.4015 115.6094,469.8459 115.5655,470.4043 115.9129,470.8059 116.2854,471.4203 116.5431,471.9837 116.5431,472.372 116.6959,472.7184 116.9684,473.0708 117.2717,473.3083 118.2858,474.1766 118.5834,474.7758 118.6632,475.0844 118.8589,475.4149 118.8897,475.9481 118.5676,476.4104 118.4179,476.942 118.3281,477.609 118.5797,478.044 118.5929,478.4663 118.4579,478.8574 118.2624,479.1461 118.0068,479.2875 117.933,479.6359 117.5377,480.0301 117.1288,480.479 116.6873,480.8336 116.3915,481.0409 115.9602,481.1341 115.5374,481.3384 115.1511,481.649 114.3411,482.3554 113.8904,482.563 113.4951,482.8139 113.2121,483.123 113.1059,483.5566 112.751,483.9832 112.5309,484.3789 112.4651,484.6955 112.3213,485.1016 112.4352,485.69 112.4211,486.158 112.2136,486.5322 111.9861,486.8965 112.0011,487.3117 112.1359,487.7327 112.2527,488.106 112.3657,488.3353 112.7603,488.5151 113.2879,488.8307 113.6846,488.6738 114.0526,488.6614 114.5103,489.2001 114.6756,489.5931 114.7595,489.9216 114.7505,490.2412 114.5349,490.725 114.0948,491.3552 113.7774,492.1556 114.2428,493.7322 114.1695,493.7353 112.1245,493.8225 112.1128,493.823 112.1061,493.8233 109.9401,492.4091 109.5144,492.5457 108.5141,493.6813 107.6025,493.9845 106.1439,493.982 102.7992,493.1064 102.0943,492.9219 101.7344,492.7163 99.8866,491.0966 97.4384,491.0158 96.5784,490.9874 95.5773,489.991 94.9916,488.8958 94.6094,488.181 93.5281,482.7356 92.0558,479.1512 91.9847,479.0358 91.3772,478.051 90.5085,477.4281 90.4477,477.3844 89.1105,477.0389 88.2762,477.2811 87.6412,477.4654 86.5037,478.3733 85.9213,479.3037 85.6637,480.4484 84.6998,482.6273 84.1078,483.2553 82.8497,483.3667 80.4808,481.8888 78.1516,481.3515 77.5937,481.2228 77.1087,481.1503 75.0576,480.9927 73.3781,480.8636 71.931,480.6318 70.4502,480.5947 69.1551,481.4434 68.4511,482.4047 68.4504,482.4067 67.3385,485.8067 67.2255,486.1523 67.2237,486.1576 67.2173,486.1773 67.1997,486.2309 66.9536,486.9837 66.9346,487.0418 66.8538,487.2888 66.8501,487.2999 66.7478,487.6127 66.489,488.1647 65.9339,489.3486 64.8977,490.677 63.527,491.8601 61.4175,493.1887 54.6802,496.7706 53.8645,497.4751 53.3528,498.2973 52.5331,499.6143 51.7126,499.9995 51.7116,500.0 50.866,499.6882 49.6461,497.5451 49.0914,495.994 49.4055,494.4958 49.4807,494.137 50.5615,492.438 50.7903,492.1667 52.5601,490.7125 52.597,490.6641 53.0151,490.1157 53.1942,489.8808 53.2638,489.7895 53.4489,489.0137 53.3756,487.2472 53.3753,487.2399 53.3751,487.2391 52.7168,485.8716 51.5006,483.3441 51.3924,483.1194 51.0818,482.4741 50.9332,481.5885 51.1559,480.0003 51.675,478.818 52.0821,476.7848 52.0823,475.7531 51.0089,473.4623 50.1212,472.1318 49.1602,468.5127 48.4201,467.1823 46.7553,465.3717 46.6825,465.18 46.4606,464.596 46.4167,464.2346" stroke="black" /><polygon fill="none" points="82.2066,343.416 82.1353,346.2354 82.0314,350.3504 81.9643,353.0058 81.8969,355.6721 81.8219,358.6399 81.8095,359.1306 81.7979,359.5898 81.7914,359.8458 81.7871,360.017 81.787,360.0198 81.787,360.0225 81.7869,360.0252 81.7868,360.0276 81.7865,360.0415 81.7864,360.0444 81.7863,360.0479 81.7861,360.0562 81.7852,360.0908 81.7836,360.1555 81.7829,360.1826 81.645,365.6405 81.5426,369.693 81.5272,370.303 81.5253,370.3758 81.5137,370.8374 81.4958,371.5441 81.4654,372.7478 81.4318,374.0799 81.4098,374.9492 81.3889,375.7742 81.3835,375.9907 81.3833,375.9984 81.3832,376.0025 81.4108,376.3704 81.4676,376.6549 81.9003,378.2049 81.9973,378.644 81.9031,379.5278 81.7565,380.7889 81.5984,381.8855 81.5834,382.5234 81.6773,383.2617 81.7937,383.7194 82.0029,384.2303 82.2117,384.725 83.2977,387.3346 83.7244,388.2389 83.2719,388.323 81.7277,388.5506 81.1835,388.7952 80.8256,389.2488 80.5166,389.6 79.4235,389.5675 79.0117,389.7646 78.7499,390.0073 78.4102,390.3645 78.0483,390.6923 77.8059,391.0955 77.5671,391.4483 76.9567,391.9027 76.2844,391.9027 75.797,391.8978 75.0887,392.0758 74.5379,392.2788 74.047,391.9562 73.6011,391.4783 73.2608,391.118 72.8349,389.9909 73.0056,389.6386 72.8799,389.1278 72.6007,388.8379 72.0957,388.4289 71.7006,388.0585 71.4388,387.6105 71.0745,387.4809 71.1691,386.9995 70.6457,386.4472 70.5717,385.9723 70.1666,386.1904 69.8579,386.4735 69.3497,386.6021 69.1046,386.1678 68.7956,385.9527 68.6121,385.6809 68.4372,385.3205 68.1075,385.1014 67.7138,385.1163 67.4115,384.8664 66.915,384.7422 66.4012,384.4445 66.357,383.9574 66.0977,383.4636 65.6986,383.2525 65.2656,383.0003 65.0102,382.4679 65.0203,382.0398 65.172,381.6795 64.8867,381.4027 64.1682,381.5957 63.6973,381.6663 63.2662,381.8783 62.8346,382.012 62.5927,382.3438 62.4307,382.8067 62.2595,383.0602 62.0633,383.3286 61.79,383.6124 61.4017,383.952 61.0674,384.1856 48.6662,376.1964 45.0852,373.8894 43.6188,372.9446 43.152,372.644 41.5194,371.5922 40.5901,370.9935 39.126,370.0503 38.7056,369.7794 38.4865,369.6383 38.1225,369.4038 38.0694,369.3696 38.058,369.3622 38.0359,369.348 38.0148,369.3344 37.9453,369.2896 37.8978,369.259 37.8505,369.2286 37.8089,369.2017 37.7791,369.1825 30.8122,364.6943 16.5696,355.5187 12.0034,352.577 11.4431,351.1972 4.4366,333.9415 0.0,323.0152 3.8199,308.2141 16.5313,299.5391 20.6658,296.7175 24.3293,298.8827 36.6449,306.1611 48.1703,312.9727 53.1531,314.0193 67.3499,325.5233 72.6552,329.8223 74.2307,331.099 82.3515,337.6795 82.254,341.5374 82.2514,341.6428 82.2511,341.6527 82.2509,341.6629 82.2503,341.6867 82.2492,341.7307 82.2483,341.7649 82.2479,341.7819 82.2454,341.8785 82.2429,341.9774 82.2407,342.0655 82.2383,342.1588 82.236,342.2498 82.2356,342.2675 82.2285,342.5465 82.222,342.8036 82.2177,342.9774 82.2066,343.416" stroke="black" /></svg>