<?xml version="1.0" encoding="utf-8" ?>
<svg baseProfile="tiny" height="500" version="1.2" width="462.199" xmlns="http://www.w3.org/2000/svg" xmlns:ev="http://www.w3.org/2001/xml-events" xmlns:xlink="http://www.w3.org/1999/xlink"><defs /><polygon fill="none" points="342.7387,129.3617 342.6352,130.0562 342.6475,131.1574 342.3478,131.9889 341.961,132.7471 340.7244,133.7803 339.5487,135.0839 337.7731,136.8529 337.2851,137.4841 336.84,138.5231 336.5333,140.8076 335.8819,142.8354 335.1158,146.2997 335.0952,147.3913 335.3287,150.4878 335.4365,151.908 335.2355,153.091 334.4649,154.0017 333.3013,154.3474 331.3107,154.6813 327.7499,155.8628 324.4334,156.6386 321.4191,157.8829 316.9727,159.1147 315.1899,159.3876 313.0323,159.415 311.51,159.6152 309.4906,160.2902 308.5147,160.4891 306.0276,160.3399 304.3287,160.3585 304.0702,160.2568 303.4422,159.2095 303.0105,158.7417 302.7181,158.5479 302.1386,158.5721 301.7808,158.7445 301.2737,159.3434 301.2484,159.3732 300.0397,161.491 299.4219,162.1639 297.6544,163.3752 294.5304,165.8468 293.579,166.4493 291.8273,167.1345 291.2547,167.1951 290.6992,167.0993 290.0189,166.9819 290.0034,166.9793 289.5557,167.0501 289.1301,167.1174 288.9324,167.0667 288.9006,167.0161 288.7801,166.8241 288.7253,166.2282 288.4398,165.7088 287.6633,165.2794 287.4256,165.0593 287.2274,164.6975 286.8512,164.4811 286.4655,164.4126 285.9987,164.4624 285.4463,164.3329 284.858,164.5434 284.2095,164.5969 283.161,164.4441 282.5337,164.1097 281.9569,163.9161 280.411,163.9551 279.8883,163.7244 279.1756,163.6911 278.8585,163.8276 278.3092,164.3835 276.9949,164.8673 276.4191,165.295 276.1273,165.6741 275.7808,165.956 273.9668,166.1589 272.9982,166.5617 272.1985,166.3358 271.8301,166.3725 270.8093,166.7965 270.3021,166.9087 269.8401,166.8866 268.9984,166.5897 268.6779,166.648 267.8994,167.0542 266.9199,167.1755 266.0939,167.4076 265.3626,167.3433 264.6981,167.3815 264.111,167.8788 263.5801,168.5273 262.9907,168.8746 262.3602,169.6095 262.0363,169.8556 261.5393,170.5762 261.343,171.0559 261.0699,171.3892 260.7165,171.5805 260.5626,171.9818 259.4407,172.6032 258.3783,173.8044 256.9883,174.5103 256.3991,174.6231 255.2104,174.5773 254.0636,174.6432 253.2808,174.9962 252.4605,174.9553 251.3839,175.2613 249.9894,175.1049 248.9683,174.8632 248.1211,174.8241 247.5819,174.5655 246.5606,174.76 246.0849,174.7741 245.7576,174.8835 245.2866,175.3838 244.9965,176.0622 244.6471,176.3609 244.0858,176.6344 243.1557,176.8955 242.2222,177.8056 241.6738,178.8676 241.2556,180.2249 240.9202,180.6582 240.5923,181.4566 240.3705,181.7312 239.9257,182.6174 238.9791,183.0726 238.6585,183.0324 237.8082,182.6222 237.0406,182.7544 236.3812,182.7264 235.7372,183.1257 235.016,183.1659 234.5002,183.3701 232.2918,185.2901 231.8346,185.7372 231.6175,186.1176 230.5912,186.8669 230.0508,188.1914 230.166,188.594 230.8959,189.812 231.0843,190.2994 231.0693,190.9906 230.7166,191.9234 229.7681,193.3453 229.4173,194.2596 229.3192,195.1458 229.3398,195.376 229.3419,195.3998 229.3443,195.427 229.4149,196.2181 229.3424,197.4354 228.7906,198.666 228.1826,199.3876 228.094,199.763 228.1245,200.0604 228.8788,201.944 229.1329,204.2605 229.059,207.6173 228.841,210.0896 228.8431,210.607 228.2772,209.4333 225.0132,202.6639 224.9941,202.6243 224.9393,202.5106 224.4707,201.5388 224.4509,201.4979 224.4182,201.43 223.8184,200.186 223.8022,200.1525 223.7968,200.1412 223.7882,200.1233 223.3732,199.2628 223.3611,199.2377 223.3127,199.1373 212.1375,175.9608 212.2368,175.3133 213.2052,173.5044 213.8147,172.5295 213.9455,172.1844 213.951,171.8941 213.6867,171.1362 213.4019,170.5657 213.1551,169.9591 213.1672,169.2819 213.3369,168.7253 214.3147,166.756 214.7683,165.0102 214.8879,163.6865 214.6894,162.5056 214.0892,161.5799 213.6486,161.2886 212.8908,160.9677 212.1886,160.8452 211.3917,160.7905 210.658,160.8703 210.2489,160.9547 209.7044,161.1374 209.018,161.2701 208.2592,161.4806 207.8547,161.5845 207.4095,161.7264 206.416,161.9509 205.8084,162.1392 204.8557,162.514 204.2537,162.6216 203.43,162.6652 202.4801,162.7385 201.7816,162.9333 201.3679,163.0437 200.8271,163.2125 200.0034,163.5975 199.2232,164.0251 198.7603,164.2598 198.4737,164.3702 198.2622,164.4796 197.2502,164.9778 196.3189,166.2384 195.5053,166.8191 194.8133,167.0408 194.3551,167.1252 193.5833,166.9378 193.0314,166.756 192.6112,166.6011 191.1706,165.6902 190.5129,165.2013 189.8431,164.6308 189.2996,164.0548 188.4462,162.9797 187.7746,162.1559 186.872,160.9324 186.2393,160.0039 185.9713,159.6105 185.8423,159.2859 185.6818,158.8462 185.6178,158.3944 185.5919,157.8536 185.6021,157.3073 185.6123,156.7943 185.6067,156.35 185.577,156.0077 185.5854,155.5698 185.6591,155.079 185.7282,154.671 185.8275,154.3649 186.0186,153.992 186.3071,153.505 186.526,153.2146 186.7514,152.9113 187.038,152.5532 187.474,151.9939 187.8942,151.5366 188.345,150.9837 188.6474,150.5245 188.7606,149.9995 188.8293,149.5079 188.8135,149.1804 188.7031,148.8233 188.282,148.2222 187.5844,147.4931 186.9722,146.866 186.5807,146.2584 186.4175,145.9272 186.3618,145.3939 186.2765,144.9004 186.1976,144.3865 186.1438,143.8318 186.0269,143.0294 185.8479,142.4125 185.7106,141.9459 185.5696,141.6342 185.4416,141.4274 185.3461,141.0702 185.2885,140.8615 185.2403,140.6649 185.1939,140.4302 185.1605,140.1853 185.142,139.9293 185.1336,139.6899 185.1151,139.5768 185.0975,139.4664 184.9917,139.2966 184.8915,139.2048 184.7375,139.112 184.3739,138.9692 183.9444,138.7707 183.2747,138.4441 182.8007,138.2447 182.1782,137.8171 181.4556,137.2716 181.1319,136.9377 180.9612,136.6965 180.8582,136.319 180.6857,135.7207 180.2321,134.9526 179.9612,134.512 179.4362,133.9359 178.9724,133.4934 178.5095,133.1159 177.977,132.5603 177.3147,131.962 176.6366,131.3757 176.1135,131.0807 175.6626,130.8534 175.2536,130.7375 174.8027,130.5251 174.4363,130.2783 174.3621,130.1754 174.0198,129.7013 173.8714,129.565 173.5013,129.3655 173.1312,129.2116 172.6507,129.1967 172.3659,129.078 171.7861,128.9815 170.2231,128.9008 169.1211,128.6281 168.2055,128.4453 167.8215,128.3322 167.2222,128.0817 167.0163,127.9435 166.6787,127.6226 166.5729,127.5613 166.2909,127.2487 165.7047,126.7302 165.2585,126.0938 164.9913,125.7951 164.6453,125.5215 164.3902,125.3165 163.6157,124.9083 163.5016,124.887 162.9598,124.631 162.5879,124.5104 162.0934,124.3221 161.7966,124.1431 161.4933,123.951 161.074,123.7191 160.804,123.5494 160.4655,123.3741 160.2401,123.2729 159.9571,123.1978 159.6853,123.1477 159.408,123.1134 159.1557,123.1496 158.7855,123.2136 148.5221,106.7693 149.32,105.838 150.1978,104.8136 150.6721,104.26 151.0265,103.6438 151.4991,102.8219 151.9433,102.0493 152.151,101.6882 153.2167,100.2005 153.4136,100.0566 153.6357,99.8943 154.6389,99.161 155.0982,98.8253 155.7851,98.3232 157.2021,97.5216 157.7842,97.1923 158.6548,96.2826 159.5335,94.5398 159.7711,94.0687 159.9986,93.4931 160.1125,93.2021 160.221,92.8902 160.3811,92.3433 160.4265,91.8628 160.3761,90.7778 160.1219,89.6821 160.0988,89.6258 159.917,89.1819 159.4183,87.9645 159.1739,86.9894 159.4644,84.6682 159.4251,83.9035 159.3658,82.9192 159.3329,82.3711 159.108,81.6059 158.8161,80.6289 158.3128,79.8285 157.74,79.1114 157.738,78.6352 158.0652,78.4234 160.5377,78.1555 161.8974,78.0081 162.777,77.7854 163.0656,77.7087 163.4165,77.5343 163.5699,77.458 163.6943,77.3962 164.0378,77.1042 164.3483,76.8403 164.7212,76.5233 165.0428,76.2499 165.1734,76.1087 165.3439,75.9244 166.9177,74.2227 168.3214,73.2061 170.0456,72.6453 170.6168,72.6645 173.2578,73.8607 173.9843,74.015 174.5418,74.0097 176.5556,72.7513 179.0012,71.5766 179.3027,71.0843 179.4897,70.7789 179.6563,70.64 179.9215,70.5009 182.3311,69.2371 182.6254,69.1793 183.7199,69.2319 185.617,70.3485 186.992,70.826 188.6961,71.9515 189.1285,72.1278 189.741,72.2254 190.7482,72.1554 191.1834,72.0279 192.2426,71.322 192.5973,70.7788 192.6919,70.287 192.7583,69.9419 192.7784,69.5232 192.8019,69.0344 193.1267,68.3675 193.2661,68.0813 193.3664,67.8756 193.4289,67.7472 193.4643,67.6746 193.6531,67.287 193.934,66.3771 193.9887,64.4782 193.835,63.2596 193.8212,63.1508 193.8036,63.0898 193.5209,62.1145 193.5252,61.8654 193.5295,61.6162 193.6502,61.3956 193.76,61.285 193.788,61.2569 194.2274,61.2068 195.4491,61.7167 195.9722,61.8077 197.0364,61.829 197.5746,61.6934 197.7412,61.5095 197.9683,61.2588 198.2199,60.4842 198.2809,59.5979 198.0698,58.7109 197.5204,57.1669 197.5827,56.9085 197.9151,56.3895 198.2095,55.7035 198.1467,54.5665 198.5531,54.0522 198.6159,53.601 198.4566,53.1602 198.4396,53.1131 198.3964,53.0665 198.2046,52.8596 198.1685,52.8206 197.9221,52.3529 197.6292,51.573 197.4134,50.9984 197.0042,50.359 196.9381,50.2558 196.9598,49.6218 196.9679,49.3838 196.6007,48.4202 196.5486,47.9142 196.387,47.5132 196.3743,47.0833 196.5223,46.8992 197.0445,46.2494 197.0978,46.183 197.157,46.1093 197.1564,46.0973 197.147,45.9217 197.1159,45.3414 197.1007,45.0563 197.2132,44.8818 197.2453,44.8319 197.6201,44.2508 197.6642,44.113 197.7953,43.7038 197.9356,43.2662 198.0858,42.7974 198.1805,42.5019 198.1837,42.4918 198.1841,42.4901 198.3006,41.9295 198.5005,40.9683 198.5571,40.8887 198.5628,40.8808 198.9544,40.3305 198.9897,40.2507 199.0821,40.042 199.2347,39.6971 199.4043,39.3141 199.8663,38.9211 200.2681,38.4279 201.1467,38.1384 202.504,38.1201 203.7376,37.7662 204.8569,37.5718 205.1017,37.4323 205.13,37.2129 205.1807,36.8196 205.272,36.7742 205.6551,36.5838 205.7509,36.3292 205.8114,36.1683 205.8273,36.126 205.8307,36.1231 205.8538,36.1036 206.4542,35.5966 206.5001,35.4412 206.7413,34.6248 206.8475,34.4953 207.1049,34.1814 207.1283,34.0521 207.2676,33.2852 207.324,33.2558 207.8382,32.9882 208.2046,32.2844 209.055,32.011 209.9056,31.1311 211.2592,30.1962 211.8092,30.126 212.1954,29.7693 212.9303,29.5887 213.205,29.3955 213.4798,29.2024 214.1332,29.2542 214.5014,29.0592 215.1872,28.3999 215.2627,28.25 215.551,27.6771 215.5652,27.6651 216.3408,27.0114 216.3778,26.9104 216.4959,26.5883 216.5631,26.4048 216.6481,26.2123 216.9616,25.9409 218.1309,25.2932 219.1547,25.18 219.5839,24.5956 219.8008,23.9083 220.084,23.664 220.9311,23.2138 221.1186,22.3116 221.3653,21.9711 221.8505,21.8208 222.5934,22.0043 222.9281,21.9465 223.3893,21.4768 223.6017,21.3986 224.7126,21.4463 226.0316,20.445 226.379,20.451 226.6357,20.6222 227.0425,21.4416 227.3102,21.76 227.5175,21.7696 228.4495,20.8448 228.7856,20.7586 229.6574,20.8471 230.9223,20.1081 231.7569,19.7642 232.2432,19.4154 232.8565,19.2726 233.6077,19.279 235.236,19.1108 235.9705,19.1861 236.6258,19.4421 237.6887,20.0687 238.0317,20.0564 238.456,19.7908 238.7448,19.4895 238.9311,19.4307 239.4581,19.574 240.1001,19.5302 240.5328,19.291 242.5474,17.5957 242.6688,17.1707 242.2352,15.9512 242.2581,15.5575 242.3964,15.3086 242.8277,14.9785 242.9377,14.2753 243.2687,13.7314 243.5978,13.5886 244.5678,13.6224 245.0608,13.7895 245.8452,14.4017 246.4219,14.448 246.9422,14.338 247.7694,13.4856 248.4737,13.3502 248.7949,13.1502 249.1148,12.7201 249.3561,11.8384 249.7806,11.1524 250.7842,9.9595 251.8251,9.5468 252.5222,9.1056 253.1599,8.8259 253.3692,8.5585 253.4885,7.8858 253.7003,7.6725 254.4627,7.4689 254.7756,6.9423 255.0777,6.8398 255.7196,6.8778 256.0148,6.7013 256.2664,6.1112 257.0691,5.8435 257.44,5.509 257.7741,4.8531 258.617,4.3562 258.8438,4.018 259.0574,3.4227 259.525,3.1603 259.7694,2.8732 260.024,2.1095 260.3967,1.7957 260.8327,1.7123 261.0347,1.5853 261.3706,0.9919 261.6228,0.7378 262.0098,0.6053 262.8825,0.536 263.6562,0.0 263.5445,0.4597 263.6653,0.7495 264.8378,1.8171 265.6718,2.9377 266.0217,3.7066 266.3259,4.9643 266.3969,7.2819 266.3604,8.1374 266.2516,8.5811 265.9485,9.124 265.9123,9.4832 266.1056,9.9053 266.5685,10.2829 266.8745,10.7732 266.8519,12.101 266.9316,12.4566 267.7358,13.2089 267.9769,13.6934 268.5028,14.3362 268.5583,15.4976 268.6632,15.9748 269.0388,16.3523 269.5467,17.1527 269.6658,18.249 270.3168,18.671 270.4526,18.9135 270.383,19.9729 270.2889,20.18 269.7684,20.5887 269.6413,20.8238 269.6317,21.4339 269.4947,22.0722 269.492,22.858 269.6718,23.5208 269.7133,24.0471 269.8861,24.4725 270.8367,25.1782 270.9933,26.3082 271.1572,26.4745 271.7235,26.6087 271.9248,27.1681 271.9443,27.6853 272.7321,28.7701 273.444,29.1455 274.1181,29.7384 275.1095,29.9854 275.434,30.184 275.5813,30.3801 275.8118,31.1294 276.0488,31.3629 276.4305,31.5509 276.6045,31.7611 276.5268,32.136 276.6168,32.2568 277.3375,32.0831 277.8172,32.2114 278.1628,32.6585 278.2963,32.9694 278.6582,34.5635 279.9575,35.9421 280.8332,36.0551 281.3753,35.9908 282.0001,35.7824 283.2792,35.8665 283.612,36.1072 283.9134,36.5118 284.2787,36.7145 284.5719,37.4363 284.9038,37.8589 285.4797,38.2053 285.9871,38.2299 287.3952,37.9379 288.7001,37.9542 289.0278,37.8206 289.4077,37.5274 289.8404,36.7667 290.5082,35.9937 290.9422,35.8243 291.1842,35.8249 292.356,36.3243 292.7154,36.3162 293.5775,36.0661 294.7465,36.4404 295.8887,36.6581 297.1513,37.2748 297.5629,37.5692 298.4696,37.9311 299.9392,38.8292 300.0795,38.9889 300.2376,38.8243 300.5132,38.013 300.7969,37.7209 301.2908,37.4625 302.8988,36.899 303.5492,36.4001 303.9625,35.3892 304.2015,33.7244 304.4477,33.0986 305.777,31.5776 309.2794,28.3411 310.3233,28.5134 310.8326,28.7005 312.1349,29.8193 312.926,30.6301 313.4819,31.4108 313.6062,32.255 314.1738,32.9769 314.2299,33.5035 314.404,33.7745 314.899,34.1214 315.538,34.4102 316.0306,35.0424 316.5407,35.1853 317.2713,35.7307 318.483,35.8738 319.209,36.1567 320.7015,37.0829 321.6717,37.855 322.2827,38.1198 322.6279,38.3758 322.8335,38.8048 322.7629,41.0093 323.1414,42.6016 323.7184,43.3482 324.5486,44.0848 324.8078,45.0847 325.169,45.5735 325.5088,46.366 325.9262,46.6867 326.3246,47.3817 326.8722,48.7732 327.2851,49.2404 327.515,49.5004 353.0032,68.7319 353.8789,70.3839 354.0265,71.0586 354.6608,72.7826 355.1336,74.6555 355.7815,75.6083 356.6465,76.3884 358.3858,77.4595 358.9898,77.9396 359.354,78.3915 361.0396,81.2685 362.2266,83.843 363.5263,85.5517 365.2593,88.3392 365.8078,89.0015 366.9581,90.806 368.19,92.0912 368.6192,92.7715 369.0484,93.4518 369.3691,94.3394 369.5684,94.8908 369.6814,95.5927 369.4989,96.8985 369.3903,97.6756 369.1287,98.6882 369.0847,99.2228 369.2023,99.7285 370.2057,101.8407 371.0979,102.9348 371.0676,104.5588 371.3135,106.0026 371.5905,106.4921 374.2461,109.8611 374.7385,110.7299 375.6023,114.371 376.3752,116.5922 377.6183,119.1768 378.3999,121.6653 378.8603,122.7763 380.2343,125.3265 380.3181,125.6435 380.3049,126.3178 379.8965,127.779 379.5172,129.0707 379.1467,130.3361 378.6483,130.8535 377.7975,131.379 375.9936,131.8494 373.5526,132.3457 372.0408,132.8054 371.3308,132.7699 370.1686,132.5696 369.5854,132.5908 369.1893,132.6489 367.7138,133.1188 366.6391,133.1177 363.2885,132.4011 362.4041,132.2115 360.6461,132.1303 359.7854,132.3234 358.1208,132.949 356.9877,133.0502 356.4638,132.9306 356.1792,132.7291 354.9469,130.9903 354.0036,130.4777 351.8179,128.6135 350.534,127.3404 349.701,126.8559 348.5127,126.8516 345.6836,127.2625 343.5353,128.4332 343.0198,128.8937 342.7387,129.3617" stroke="black" /><polygon fill="none" points="335.3287,150.4878 335.0952,147.3913 335.1158,146.2997 335.8819,142.8354 336.5333,140.8076 336.84,138.5231 337.2851,137.4841 337.7731,136.8529 339.5487,135.0839 340.7244,133.7803 341.961,132.7471 342.3478,131.9889 342.6475,131.1574 342.6352,130.0562 342.7387,129.3617 343.0198,128.8937 343.5353,128.4332 345.6836,127.2625 348.5127,126.8516 349.701,126.8559 350.534,127.3404 351.8179,128.6135 354.0036,130.4777 354.9469,130.9903 356.1792,132.7291 356.4638,132.9306 356.9877,133.0502 358.1208,132.949 359.7854,132.3234 360.6461,132.1303 362.4041,132.2115 363.2885,132.4011 366.6391,133.1177 367.7138,133.1188 369.1893,132.6489 369.5854,132.5908 370.1686,132.5696 371.3308,132.7699 372.0408,132.8054 373.5526,132.3457 375.9936,131.8494 377.7975,131.379 378.6483,130.8535 379.1467,130.3361 379.5172,129.0707 379.8965,127.779 380.5505,128.086 381.8888,128.989 382.4991,129.5787 383.3077,130.9429 383.8475,131.4878 384.6133,132.0339 384.8903,132.5984 385.2995,132.9834 385.3942,133.1839 385.6346,134.894 386.1082,135.5057 386.3064,136.8647 386.3376,138.3903 386.2584,139.5117 386.139,140.2044 385.9605,140.4733 385.8429,141.5811 385.3143,142.9921 384.9103,144.4673 384.9017,144.928 385.1335,145.5276 385.7546,145.9976 386.2888,146.6145 386.6446,146.8748 387.5863,147.2488 388.697,147.4018 389.4673,147.7309 390.6185,147.6663 391.1937,147.8621 392.8828,148.124 393.0342,148.2256 393.6753,148.2078 394.2583,148.063 395.5956,148.0936 396.0295,148.1724 396.7864,148.5194 397.4328,149.1276 397.9847,149.7955 398.2301,149.925 399.4802,150.0349 400.7971,150.7968 401.033,150.855 401.4269,150.7885 401.735,150.5379 401.9571,150.0621 402.7879,149.5515 402.9978,149.2405 403.2029,148.6111 404.1684,148.0918 404.4046,147.6689 405.3132,146.7549 405.919,146.4024 406.0368,145.8715 407.1172,145.4819 407.4474,144.891 407.8615,144.5002 408.0511,144.1608 408.3551,143.9203 409.318,143.4828 410.3631,142.4258 411.468,141.8467 412.0229,141.1527 412.549,140.7116 412.9641,140.2249 413.6653,140.0087 414.1844,139.5929 414.6352,139.3916 415.4522,139.1891 418.9177,138.8734 420.0452,138.6111 422.0623,138.3719 423.1282,138.3155 423.7874,138.3802 424.8721,137.972 426.3595,137.2367 427.2596,137.2152 427.9992,137.0733 428.9854,136.5372 429.5182,136.5361 430.6382,136.8719 432.6097,137.2264 433.0924,137.1522 433.9975,136.8502 434.3216,136.6572 434.5131,136.4362 434.2328,137.3062 434.6683,137.8484 434.7486,138.2221 434.7046,138.5173 434.2243,139.4211 434.44,139.8228 434.6091,140.6199 435.2793,140.5132 435.4513,140.649 435.3856,141.1752 435.7724,141.5601 435.6189,142.0173 435.9023,142.5005 435.8007,142.8148 435.4959,143.0178 435.0907,143.4633 435.0457,145.0202 434.6959,145.6145 434.8738,146.0143 435.3043,146.2724 435.3011,146.4176 434.98,147.0082 435.0064,147.1889 435.3379,147.5643 435.2849,148.4036 434.9912,148.6329 434.7402,148.6762 434.5713,148.8189 434.4609,149.0609 434.4975,149.2871 434.8456,149.6902 434.9396,149.9708 434.8937,150.3412 434.7253,150.5538 434.2107,150.6185 434.1016,150.752 434.4249,151.1636 434.3604,151.4422 434.4233,151.7132 434.7457,152.1248 434.7998,152.9231 434.9984,153.1695 435.5148,153.5309 435.7128,153.8216 435.4646,154.2167 435.4702,154.359 435.671,154.6512 435.2319,154.7346 435.0169,154.874 434.7838,155.4586 434.1956,155.9398 434.0651,156.2902 434.058,156.6048 434.1867,157.0308 434.6104,157.7052 434.7466,158.1592 434.5076,159.221 434.0268,160.0565 434.0482,160.5009 434.5472,161.2449 435.3632,161.7177 435.445,161.8712 435.3792,162.4133 435.0668,162.9586 435.0652,163.5482 435.2467,164.0454 436.0714,165.3676 436.2576,165.8105 436.3995,166.291 436.3821,167.5474 437.1112,168.4582 437.1408,169.5635 437.2952,169.8258 437.8356,170.3547 438.0534,171.0914 438.5385,171.4182 438.7796,171.6854 439.1069,172.6863 440.5909,175.5849 441.1213,176.2258 441.5442,176.9961 441.6765,177.5003 441.5321,178.329 441.2874,178.8966 441.2264,179.4661 441.2918,179.8278 441.7662,180.9121 442.0894,182.717 441.6023,184.2515 441.1583,185.0279 440.9703,185.6925 440.4878,186.6272 440.3864,187.3334 440.5132,187.6418 441.0895,188.4369 441.21,188.8798 441.1879,189.4511 441.2982,189.7518 441.7508,190.074 442.077,190.041 442.9255,189.6945 443.1562,189.7178 443.4865,189.8889 444.1709,190.6838 444.5379,191.433 444.8092,192.3677 445.0468,192.6376 445.5891,192.8161 445.6527,192.9445 445.7163,193.0728 445.685,193.5227 445.7993,193.8708 446.4174,194.4215 446.5328,194.48 447.158,194.7972 447.315,195.2104 447.2547,195.7914 446.7728,196.6053 446.7009,197.0935 446.9884,197.3488 447.3798,197.4775 447.5528,197.6732 447.4881,198.2978 447.6006,198.7019 447.691,198.8067 448.4718,199.1157 448.6648,199.3356 448.7587,199.6312 448.5432,200.2452 448.4296,201.1544 448.7398,201.8983 448.7583,202.8214 449.3709,203.4249 449.5316,203.7428 449.3383,204.8754 449.6406,206.2441 449.5622,206.5132 449.2974,206.7464 448.4772,207.1402 448.1448,207.4495 447.3683,208.6278 446.8234,209.1907 446.6304,209.9013 446.5999,210.6004 446.7991,210.9727 447.3682,211.2794 447.6768,211.2721 448.5332,210.7851 448.8649,210.7527 449.3827,210.9246 450.253,210.8524 450.5759,210.9012 450.6137,210.92 450.9825,211.1042 451.5437,211.492 451.9812,211.9899 452.1445,212.2668 452.43,212.7507 452.7938,213.194 453.9806,213.8653 454.3979,214.258 454.5711,214.593 454.6249,215.4963 424.2118,214.895 423.2354,214.8757 422.0806,214.8541 376.2635,213.9351 367.2246,215.2091 339.2079,219.1587 339.1144,225.4217 339.1133,225.4968 339.0919,226.9333 339.0851,227.3931 338.9652,235.4947 338.8066,246.2157 338.5817,246.3021 337.8758,247.1971 337.6274,247.3603 337.4543,247.3963 336.9932,247.1625 336.7283,247.3205 336.3833,247.6952 335.7261,247.8627 335.5798,248.0136 335.3518,248.6614 335.2189,249.5005 334.8356,249.7666 334.5366,250.182 334.4942,251.3637 333.745,252.4372 333.0747,253.0873 332.6207,254.6271 332.0658,255.7131 331.5691,256.338 330.8286,257.0309 330.1605,257.4524 328.4074,258.2667 327.7198,259.5446 326.9895,260.2821 325.3755,260.7891 324.6645,260.9045 322.0637,262.2549 321.0422,262.8728 319.1831,264.7404 316.5927,269.3053 304.5352,294.1158 304.296,294.6079 302.2419,298.8349 268.4796,298.4745 267.2197,298.4611 266.6436,297.898 265.9477,297.6965 264.7511,296.8656 264.4176,296.5866 264.1404,296.1361 263.4691,295.6009 263.5182,295.0326 263.4099,294.5314 262.1291,292.9756 261.5124,291.8527 261.0219,290.0752 260.9248,288.5259 260.7781,288.3306 258.2289,286.5996 257.9372,286.5675 257.7999,286.6379 257.7144,287.1808 257.5327,287.2671 256.7567,287.2455 256.0083,287.614 255.3893,287.7748 254.9489,288.0204 254.6959,288.544 254.3466,288.9304 253.922,288.9276 253.3153,288.6834 251.0436,286.5712 250.7619,285.7814 250.5739,285.5484 250.5255,285.2951 250.8026,285.0049 250.6446,284.8584 250.5791,284.5265 250.4015,284.4233 249.5963,284.3727 248.4547,283.8373 247.9037,283.6676 247.67,283.3013 247.1802,283.0317 246.4493,282.371 246.1292,282.3867 245.8608,282.2095 245.699,282.1982 245.3539,282.3183 245.1019,282.3056 244.8438,282.1562 244.4934,281.6994 244.1382,281.5763 243.7067,281.2794 242.2725,279.7084 241.5008,278.5397 241.3535,278.1308 241.3245,277.1277 241.045,276.0626 240.5164,275.3306 240.2959,275.1565 239.6283,275.0372 239.0769,274.4588 238.9176,274.1029 239.026,273.6091 238.8065,273.4158 238.5753,272.8442 238.2874,272.6126 238.0276,271.7652 237.5353,271.559 236.8726,271.7898 236.3935,271.4947 235.3911,271.1439 234.5316,270.6057 234.2339,270.5363 233.3997,270.541 232.871,270.3237 232.6114,270.3028 231.8411,269.782 231.5302,269.4804 231.3504,269.1704 231.0821,268.9931 230.4226,268.7541 229.9443,268.4573 229.0667,268.2367 228.3935,267.9507 227.5686,267.5997 227.0913,267.1852 226.3919,266.2171 226.2552,265.7803 226.3227,264.333 225.9371,262.7097 225.5351,259.493 225.2946,258.8125 224.6421,257.9043 224.1945,257.0032 223.9348,255.9155 223.7484,255.5156 223.5262,255.1814 222.7962,254.714 222.5239,254.3475 222.4932,253.5004 222.159,252.9194 222.1651,252.4329 221.6468,251.9031 221.5379,251.2634 221.3434,251.1241 220.9402,251.0729 220.8872,250.9773 220.8621,249.934 220.4928,249.0707 220.2363,248.7144 219.1466,247.9197 218.7619,247.2939 218.8418,246.7262 219.4488,246.3392 219.541,246.2055 219.5457,245.9075 219.2902,245.0924 219.2842,244.8382 219.4794,244.3678 219.4853,243.9972 219.2343,243.4414 219.2025,243.134 219.2286,242.811 219.7245,242.158 219.827,241.873 219.7564,241.019 219.518,240.8247 220.3527,239.7725 220.6664,239.0739 221.805,238.3695 222.8946,236.5709 223.3592,236.1635 224.1133,234.9818 224.5611,234.6634 224.904,234.616 225.288,234.2793 225.5109,233.7861 225.9749,231.8598 227.1591,230.0634 227.6243,229.5309 228.2347,228.4998 228.7091,228.092 228.6893,225.5988 228.9878,225.1869 230.1942,224.4507 230.4236,224.0832 230.4202,223.8047 230.5527,223.4451 231.145,222.8952 231.2348,222.6081 231.2205,222.2292 230.9051,221.5023 230.3408,220.609 229.6129,219.1182 229.1339,217.2324 228.8625,215.3152 228.8545,213.2862 228.8431,210.607 228.841,210.0896 229.059,207.6173 229.1329,204.2605 228.8788,201.944 228.1245,200.0604 228.094,199.763 228.1826,199.3876 228.7906,198.666 229.3424,197.4354 229.4149,196.2181 229.3443,195.427 229.3419,195.3998 229.3398,195.376 229.3192,195.1458 229.4173,194.2596 229.7681,193.3453 230.7166,191.9234 231.0693,190.9906 231.0843,190.2994 230.8959,189.812 230.166,188.594 230.0508,188.1914 230.5912,186.8669 231.6175,186.1176 231.8346,185.7372 232.2918,185.2901 234.5002,183.3701 235.016,183.1659 235.7372,183.1257 236.3812,182.7264 237.0406,182.7544 237.8082,182.6222 238.6585,183.0324 238.9791,183.0726 239.9257,182.6174 240.3705,181.7312 240.5923,181.4566 240.9202,180.6582 241.2556,180.2249 241.6738,178.8676 242.2222,177.8056 243.1557,176.8955 244.0858,176.6344 244.6471,176.3609 244.9965,176.0622 245.2866,175.3838 245.7576,174.8835 246.0849,174.7741 246.5606,174.76 247.5819,174.5655 248.1211,174.8241 248.9683,174.8632 249.9894,175.1049 251.3839,175.2613 252.4605,174.9553 253.2808,174.9962 254.0636,174.6432 255.2104,174.5773 256.3991,174.6231 256.9883,174.5103 258.3783,173.8044 259.4407,172.6032 260.5626,171.9818 260.7165,171.5805 261.0699,171.3892 261.343,171.0559 261.5393,170.5762 262.0363,169.8556 262.3602,169.6095 262.9907,168.8746 263.5801,168.5273 264.111,167.8788 264.6981,167.3815 265.3626,167.3433 266.0939,167.4076 266.9199,167.1755 267.8994,167.0542 268.6779,166.648 268.9984,166.5897 269.8401,166.8866 270.3021,166.9087 270.8093,166.7965 271.8301,166.3725 272.1985,166.3358 272.9982,166.5617 273.9668,166.1589 275.7808,165.956 276.1273,165.6741 276.4191,165.295 276.9949,164.8673 278.3092,164.3835 278.8585,163.8276 279.1756,163.6911 279.8883,163.7244 280.411,163.9551 281.9569,163.9161 282.5337,164.1097 283.161,164.4441 284.2095,164.5969 284.858,164.5434 285.4463,164.3329 285.9987,164.4624 286.4655,164.4126 286.8512,164.4811 287.2274,164.6975 287.4256,165.0593 287.6633,165.2794 288.4398,165.7088 288.7253,166.2282 288.7801,166.8241 288.9006,167.0161 288.9324,167.0667 289.1301,167.1174 289.5557,167.0501 290.0034,166.9793 290.0189,166.9819 290.6992,167.0993 291.2547,167.1951 291.8273,167.1345 293.579,166.4493 294.5304,165.8468 297.6544,163.3752 299.4219,162.1639 300.0397,161.491 301.2484,159.3732 301.2737,159.3434 301.7808,158.7445 302.1386,158.5721 302.7181,158.5479 303.0105,158.7417 303.4422,159.2095 304.0702,160.2568 304.3287,160.3585 306.0276,160.3399 308.5147,160.4891 309.4906,160.2902 311.51,159.6152 313.0323,159.415 315.1899,159.3876 316.9727,159.1147 321.4191,157.8829 324.4334,156.6386 327.7499,155.8628 331.3107,154.6813 333.3013,154.3474 334.4649,154.0017 335.2355,153.091 335.4365,151.908 335.3287,150.4878" stroke="black" /><polygon fill="none" points="197.4397,420.5719 196.4389,420.1826 196.1798,419.9974 195.1769,418.2585 194.5277,417.8648 193.341,417.5544 192.7223,417.1553 190.977,417.0775 190.3558,416.9054 188.9148,415.7113 188.189,414.8768 188.2789,413.4669 187.6072,410.8052 187.0764,409.4901 186.7471,407.6418 185.9838,406.9538 184.8062,406.2601 183.472,405.6132 182.6618,404.6843 180.4979,401.4659 179.2817,400.0495 177.7971,399.2057 176.5094,398.8472 174.9096,398.53 173.3053,398.4548 172.0575,398.627 171.3811,398.8073 170.5968,399.1785 169.9478,399.8708 168.1827,398.4211 168.0047,398.2728 167.5375,397.8903 165.9942,396.9994 164.8144,396.5933 164.2884,396.3073 162.5931,394.7006 162.2295,394.4943 161.8997,394.3793 159.4166,394.7381 158.3289,394.7372 157.6872,394.3847 157.0525,393.7425 155.787,392.2043 154.3752,391.2681 153.7551,390.7312 153.1754,389.825 152.8733,389.1191 152.7991,388.6081 152.9481,387.0958 152.3781,384.0019 152.4022,383.6331 152.683,382.8933 153.2159,382.022 154.5122,380.4359 156.8633,378.2755 157.7202,377.0081 157.8112,376.5617 157.6898,375.0748 158.1276,374.882 158.331,374.6715 158.7385,373.378 158.9716,371.6915 159.0549,370.0216 158.597,368.772 158.6679,367.9368 158.8408,367.3846 158.578,366.4679 158.6269,364.8151 158.3915,364.2077 157.5481,363.128 157.7044,362.8509 157.9357,362.701 158.5083,362.5407 159.4964,361.2232 159.5752,360.6046 159.4234,359.0413 159.1925,358.1701 158.8235,357.5177 158.4287,357.2375 158.2709,356.8339 158.5601,356.5442 159.3298,356.0944 159.4673,355.8806 159.5567,355.541 159.558,353.8108 159.6324,353.4176 159.8884,353.0516 160.6172,352.3514 160.8055,352.0464 161.0082,351.0918 161.6468,349.8662 161.7074,349.325 161.8611,349.1122 162.1304,348.9634 163.1929,348.7109 163.6111,348.1835 163.721,347.5754 163.6448,346.9185 164.0795,345.93 164.0291,345.1253 164.0996,344.9666 164.2772,344.8055 164.4778,344.7553 164.816,344.7991 165.1377,344.5724 165.9501,343.3217 167.4764,342.0696 168.3382,341.6654 168.4323,341.4916 168.4455,341.3218 168.1288,340.75 168.1866,339.318 167.8429,339.1727 167.1814,339.2772 166.982,339.2732 166.818,339.1552 166.6828,338.9117 166.6852,338.7432 166.8966,338.2904 167.1318,338.0846 168.0868,337.5884 168.4245,336.9523 168.7247,336.7715 169.2358,336.5885 169.5847,336.6101 169.9042,336.4152 171.3021,335.8846 171.9253,334.9431 172.561,334.2381 172.7098,333.877 172.6321,333.5897 172.4176,333.4703 171.4982,333.4313 171.23,333.5425 170.9065,333.8685 170.6232,334.3281 169.2451,334.7362 168.9294,334.6924 168.3445,334.2502 167.2818,333.9305 167.2525,333.2342 167.124,333.0006 166.4076,332.6017 167.0927,331.4302 167.7026,329.6417 168.0663,329.3075 169.7781,328.9434 171.5054,327.9371 172.0945,327.4833 172.5622,326.9157 172.9528,325.6695 173.3643,325.074 173.7524,324.7013 175.1043,324.2132 175.5746,323.925 176.1427,323.366 176.3181,322.9339 176.36,322.4785 176.1222,317.6569 176.3859,316.0728 176.4773,314.8289 176.421,313.4872 177.7135,311.9712 181.216,308.623 182.3719,307.1799 183.9225,305.7366 185.1007,303.6644 187.5598,299.5595 189.5199,297.4415 191.5597,295.5749 192.6222,294.8284 193.3923,294.4769 193.9083,294.3153 193.9339,294.3072 195.8808,293.6974 197.9435,292.7282 198.7952,292.5103 200.692,292.4658 201.7763,292.5709 203.2133,293.0445 204.0508,293.4928 205.3727,294.7365 206.5493,294.9899 208.6835,294.5917 209.6939,294.6362 210.5047,294.8511 212.3758,296.1203 213.804,296.9795 215.1611,298.1017 215.6719,298.3572 216.3717,298.5088 217.4014,298.4791 219.157,297.9986 219.8911,297.9486 220.5177,298.0353 221.2604,298.3579 221.6559,298.6754 221.9624,299.0982 222.1339,299.6262 222.0859,301.3447 222.1578,302.0425 222.4713,303.0222 223.8318,305.819 223.9489,307.4001 224.0046,310.5417 224.0975,310.8835 224.8694,312.0523 226.4075,313.345 226.9179,313.5696 228.7605,313.7562 229.3201,314.0132 230.2179,314.8943 230.7166,315.5607 230.909,315.9511 231.0628,317.4232 231.2958,318.2941 231.6003,318.9497 232.1006,319.671 232.7348,320.3613 233.3212,321.553 233.4254,322.283 233.3959,322.9498 233.2472,323.6895 233.2841,325.2662 233.5699,326.6873 234.2286,328.3008 236.7629,330.504 237.5935,330.9514 238.6097,331.2774 238.8875,331.4401 239.351,331.9435 239.4093,332.3558 239.2784,333.9081 238.9162,335.5286 238.3032,336.6867 238.0304,337.4721 238.2417,338.5582 238.2703,339.7115 238.4134,339.9846 238.6754,340.2363 238.9639,340.3569 239.7872,340.34 240.2645,340.1697 241.042,340.0587 241.4787,340.2061 242.0214,340.5462 242.6251,341.3569 242.8972,342.3898 242.7522,342.8917 242.9425,343.0728 243.3212,343.2325 243.8608,343.3216 244.2102,343.2947 247.5134,342.0965 249.6739,341.7682 250.431,341.2851 250.5132,340.93 250.1354,338.54 250.1508,337.2858 250.233,336.9306 250.629,336.2797 251.0548,336.2256 252.0237,336.6192 252.5951,337.0549 254.0417,337.9237 254.8752,338.6504 256.3048,339.0444 257.167,339.4104 258.6171,340.475 260.6684,340.7781 261.9113,340.8315 262.9781,340.7784 264.337,340.507 265.0549,340.5733 265.6021,340.8306 266.0784,340.8571 266.7568,340.6472 268.5779,340.4095 270.1983,340.3981 270.6839,340.4309 272.1012,340.7502 272.8316,341.4281 273.3718,342.6415 273.3891,343.042 272.8302,343.5992 272.8483,343.7978 273.0796,344.1867 273.0423,344.3766 272.7701,344.755 273.3186,346.0907 273.7153,345.9142 273.8613,346.0512 273.8145,346.2899 273.7188,346.367 273.3601,346.3901 273.0021,346.8645 273.014,347.0667 273.3806,347.0783 273.4501,347.2399 273.1608,347.4988 273.0924,347.7792 272.8899,347.9064 272.8527,348.1189 273.1406,348.2044 273.2291,348.4854 273.5265,348.6406 273.5472,348.8183 273.291,349.1535 273.2906,349.4013 273.5555,349.4768 273.8639,349.3989 274.0233,349.4945 274.0436,349.6229 273.8537,350.009 273.885,350.1004 274.0931,350.1965 274.1474,350.498 274.6693,350.4768 274.7564,350.5476 274.8863,350.9446 274.7887,351.4755 275.1937,352.2529 275.3593,352.9466 275.402,353.1255 275.3871,353.2921 275.0691,353.8132 275.047,354.0626 275.3243,354.2111 275.4562,354.5529 275.6372,354.5292 275.8621,354.1226 276.0342,354.2377 276.1066,354.5801 276.466,354.8505 276.2782,355.4992 276.5986,355.7628 276.6768,356.1943 276.8553,356.2916 277.2507,356.0059 277.334,356.0527 277.3432,356.2558 276.9626,356.767 277.014,356.8875 277.3977,356.6807 277.6042,356.7386 277.5858,357.2464 277.8008,357.3139 278.291,356.8519 278.4573,356.8621 278.5134,356.9658 278.4427,357.4924 278.9091,357.6159 279.2655,357.8781 279.3992,358.1022 279.3396,358.4173 279.4151,358.5904 279.6176,358.64 279.9634,358.3938 280.1162,358.4037 280.3662,358.8043 280.9116,358.8205 281.2005,358.9685 281.2505,359.1759 281.1814,359.5373 280.6265,360.3604 280.4976,360.4214 280.3421,360.3332 280.0036,359.9302 279.8247,360.119 279.8729,360.6818 279.6933,360.718 279.4239,360.128 279.2605,360.3037 278.9835,361.1694 277.9801,362.1627 277.5528,363.1552 277.5157,363.4302 277.7706,363.5821 278.0934,363.4052 278.2863,363.4035 278.3919,363.4836 278.3952,364.0323 278.3016,364.1935 278.3451,364.4362 278.6428,364.5789 279.1162,363.9849 279.2866,363.9849 279.3264,364.2645 279.1415,364.5995 279.1336,364.8216 279.2156,364.9185 279.5122,364.8385 279.8287,364.978 279.8827,365.4304 279.7519,366.0027 279.7983,367.5163 279.9919,368.1635 280.7228,368.6303 282.4463,368.7749 282.9416,368.9382 283.9412,369.3645 284.1469,369.5041 284.2835,369.7314 284.2715,369.902 283.5401,370.6337 283.376,370.9504 283.3288,371.6745 283.6313,372.4358 284.221,373.3828 284.2968,374.3139 284.1245,375.3207 284.1531,375.5522 284.527,376.0781 285.2263,376.6396 285.5695,377.0865 285.5695,377.3426 285.3574,377.5953 285.0888,377.6383 284.3179,377.4841 283.3544,377.7119 282.5249,377.6376 282.1291,377.8157 281.8503,378.0509 281.5659,378.5566 281.6072,379.0479 282.526,379.7752 282.767,379.8016 283.1934,379.599 283.6942,379.1899 283.8707,379.1455 284.0762,379.2033 284.2982,379.3448 284.9739,380.1791 285.9409,380.856 286.0387,381.004 285.9313,381.4369 285.44,382.351 285.1389,382.3928 284.7614,382.084 284.3822,381.9153 284.1484,381.9119 284.0099,382.0183 283.9502,382.2725 285.1355,383.4038 285.3277,383.9793 285.1552,384.5665 285.4208,385.0507 285.3728,386.1535 285.5276,386.8972 285.8203,387.3812 286.9492,388.3445 287.5371,389.0129 287.8302,390.2759 287.8721,391.9023 287.7594,392.2011 287.3001,392.6886 286.8208,392.9367 285.2286,393.4227 284.5164,393.785 284.3946,394.1009 284.4155,394.3019 285.0941,395.4547 285.0931,395.8484 284.8837,396.0617 283.6378,396.5684 282.5377,397.126 282.0938,397.2418 281.3453,397.1835 281.1513,397.3203 281.0205,397.5582 281.0544,398.0623 281.5138,398.7215 281.6889,399.2585 282.6807,399.6651 282.792,399.9309 282.7818,400.496 282.222,401.0758 281.9982,401.7852 281.8215,401.9055 280.9562,401.8993 280.826,402.0304 280.7336,402.7529 280.8323,403.2745 281.0014,403.579 281.355,403.8162 281.8192,403.9098 282.9009,403.9534 283.3377,404.1165 283.4761,404.3037 283.494,404.6758 283.3835,404.8219 281.6412,405.6999 280.9336,405.7093 280.6905,405.9565 279.3092,406.8571 279.0001,407.2787 278.7306,408.25 278.766,408.6306 279.1889,410.0703 279.6337,410.7035 280.141,410.8121 280.9156,410.7467 281.1488,410.8369 281.3772,411.0573 281.5385,411.3696 281.4743,412.0577 281.2615,412.2562 280.9451,412.3202 280.4124,412.2702 279.338,411.8135 279.1694,411.9352 279.2426,412.4319 279.4662,412.9611 280.2557,414.3089 280.7648,415.7585 281.0049,416.1753 281.2376,416.2947 281.8952,416.2739 282.2313,416.1082 282.7797,415.2969 283.1267,415.0147 283.7474,414.7786 284.7463,414.7069 285.2208,415.1429 285.2219,415.4815 285.1172,415.7758 284.1101,417.3858 283.7792,418.1977 283.8105,418.8028 283.9957,419.085 284.3683,419.3231 285.2721,419.4395 286.1721,419.4143 286.6436,419.2682 287.512,418.4143 287.831,418.21 288.3934,418.1588 289.0909,418.2232 289.6359,418.4812 290.726,419.436 291.1054,419.6438 292.1482,419.6838 292.6728,419.891 292.8885,420.3662 292.6691,420.9144 292.6895,421.6351 292.8802,422.1338 293.0887,422.3926 293.4653,422.422 293.6759,422.2936 293.9657,421.5683 294.1534,421.335 294.4135,421.1838 294.8154,421.1347 295.0889,421.2165 295.5325,421.5261 295.9746,422.2568 296.2091,423.0033 296.4849,424.7681 296.4587,425.2803 295.8734,427.0156 295.7438,427.8505 295.824,428.457 296.712,430.7658 296.6595,431.2932 295.8351,432.203 295.7201,432.567 295.7991,432.8341 296.2018,433.0568 297.2644,432.8967 297.487,432.9697 297.6846,433.1671 297.8246,433.7204 297.72,433.9196 296.8002,434.5387 296.5911,434.9573 296.5657,435.2677 296.7387,435.813 297.7398,436.6511 297.9109,437.2732 297.8211,437.6579 297.5098,438.2256 297.5192,438.5697 297.9307,439.7904 297.9043,440.316 297.6445,440.8091 297.2704,441.1899 296.4749,441.7658 295.6855,442.0628 294.8305,442.1881 294.5146,442.324 294.4129,442.5056 294.483,443.0508 295.2649,444.0259 295.3094,444.3662 295.1563,444.5498 293.8722,444.5268 293.4244,444.6195 292.9537,444.8606 292.4628,445.2535 291.9643,445.9912 291.7097,447.1505 291.2019,447.6842 290.6666,448.6051 290.4451,448.7714 289.6813,448.6046 289.2217,448.2239 288.5537,447.2518 288.3935,447.1421 287.1146,447.6477 286.7605,447.8743 285.7404,449.1837 285.1388,449.2673 284.8861,449.4031 284.7078,450.0815 284.9428,450.7212 285.6886,451.9121 286.2423,452.5568 286.6125,453.3088 286.8143,454.0707 286.6891,454.5485 286.3193,454.7281 283.9703,454.5659 283.3405,454.6072 282.956,454.7232 282.7182,454.8893 282.7011,455.0285 283.4275,456.1109 283.6348,457.5248 284.2632,458.6353 284.2919,458.9469 283.9873,459.9797 284.0166,460.2455 284.5188,461.004 284.4975,461.2658 284.3776,461.4665 283.7881,461.6573 282.2409,461.6462 282.0393,461.7375 281.8648,461.9671 281.7568,462.4459 282.0404,463.3172 281.9922,464.0772 281.7713,464.2593 281.5218,464.3484 280.985,464.3711 279.1825,463.6127 278.8998,463.6087 278.4308,463.7706 278.1406,464.0755 278.0172,464.414 278.078,464.7569 278.4927,465.694 279.175,466.6814 279.3749,467.5585 279.9691,468.7296 279.9272,469.1941 279.51,469.9169 279.44,470.2591 279.5689,470.4917 280.3486,470.6897 280.9187,470.5447 281.2732,470.2865 281.9584,470.1737 283.2814,471.0951 283.3223,471.1235 283.231,471.2404 283.1475,471.3472 283.0093,471.8512 282.9975,471.8944 282.9511,471.9535 282.755,472.2029 282.5976,472.403 281.933,472.8486 280.9978,473.2364 280.8489,473.4023 280.8123,473.443 280.7416,474.1831 280.8687,474.9296 281.8116,477.7208 281.8032,478.0471 281.8025,478.0731 281.4863,478.4592 280.7809,478.8013 280.3303,478.8957 279.9544,478.7862 277.903,477.6055 277.4536,477.6248 277.1698,477.8536 277.0057,478.1927 276.8631,478.487 276.8395,479.0351 277.0214,479.676 277.3253,479.966 278.5952,480.244 280.2887,480.311 281.3776,480.5377 281.8201,480.8173 281.9305,481.0023 281.9033,482.317 281.7394,484.7464 281.7324,484.85 281.5583,485.1078 278.6513,486.9008 277.5575,487.7302 276.9501,487.9292 274.9417,487.9245 274.3645,487.9938 274.1248,488.1192 273.9665,488.3964 273.7922,488.7018 273.569,489.3328 273.5549,489.3725 273.0423,489.7679 272.5514,489.8489 271.8403,489.6557 269.9096,488.7263 269.6288,488.7564 269.6141,488.7579 268.9297,487.6679 268.9423,487.3522 269.5089,486.9138 269.5621,486.7165 269.4971,486.5589 269.1186,486.2943 269.1389,485.5746 269.0186,485.4117 268.2786,485.0194 268.1986,484.7882 268.3167,484.3916 268.2282,484.2516 267.7979,484.0207 267.6022,483.3536 267.0761,482.8813 267.0775,482.7553 267.4028,482.4465 267.3575,482.1863 267.2463,482.124 266.7528,482.1274 266.6216,481.9024 266.7095,481.6746 266.9771,481.5465 267.0202,481.3838 266.8953,481.1393 266.9082,480.7693 267.2404,480.376 268.0548,479.9113 268.3684,478.8339 268.7791,478.4425 268.9362,478.0885 268.8354,477.1859 269.1709,476.5889 269.1908,475.2286 269.4888,474.8199 269.5996,474.4787 269.5292,473.9868 269.364,473.8281 269.1703,473.8149 268.9358,473.9175 268.6491,473.8645 268.4311,473.6561 268.258,473.2842 268.3094,472.9469 268.7795,472.8285 268.8267,472.714 268.8076,472.4554 268.4868,471.8732 268.6344,471.2536 268.4419,471.0885 268.1952,471.1207 268.009,471.0562 267.919,470.646 267.7112,470.2663 267.4306,470.0104 267.0037,469.872 266.9585,469.5743 267.019,469.4569 267.4879,469.4685 267.5807,469.3073 267.4296,468.7252 267.6307,468.0717 267.6693,466.6849 268.0921,466.3597 268.672,466.2737 268.6904,465.9835 268.4363,465.6974 268.4714,465.5767 268.9554,465.386 268.9137,465.1249 268.7189,464.9106 268.7074,464.7776 268.908,464.467 268.925,464.2854 268.6587,463.5535 268.3042,463.0836 268.3108,462.7139 268.3841,462.6601 268.9872,462.7258 269.1042,462.6603 269.4502,462.2923 269.7472,461.8011 270.2535,461.4093 270.2345,461.0531 269.54,458.3162 268.6918,456.7955 268.2789,456.6465 268.2534,456.3047 267.7548,455.8788 266.8071,454.7666 265.8537,453.828 265.6358,453.6797 264.6702,453.3221 264.0713,452.7925 263.9501,452.5687 263.9198,451.0944 263.7632,450.8078 263.3871,450.4347 262.8942,449.559 262.7322,449.4102 262.2808,449.246 262.0259,448.5837 261.7241,448.4762 261.5403,448.1647 261.5026,447.4773 261.3456,447.2007 261.0153,447.0601 260.8594,446.7876 259.3446,446.3154 258.5931,446.4957 258.2506,446.4457 257.8591,445.7929 257.6811,445.6697 257.1264,445.5546 256.8021,445.2094 256.178,444.8985 255.5157,444.8576 254.9702,444.1532 254.4957,443.8189 253.7716,443.7887 253.5913,443.7132 252.7759,442.865 252.2859,441.9925 251.4702,438.2635 251.1283,437.5503 250.5977,436.7753 250.4708,435.8702 250.2762,435.5992 249.7742,435.6113 249.1353,435.7655 248.2731,435.5355 246.9435,435.4813 245.6382,436.2786 244.5985,436.4876 243.295,436.5717 242.2652,436.8403 240.7916,437.5098 239.055,438.5466 237.4657,439.1105 236.2182,439.0172 235.5811,439.0753 234.6614,439.4639 234.015,439.5549 233.5955,439.9724 232.9882,440.1895 231.952,440.8753 229.2062,441.007 228.7392,440.9359 227.615,440.419 226.43,440.1105 225.6296,440.1074 224.7183,440.267 223.6076,440.1257 222.9035,439.6993 222.1139,438.9792 221.6238,439.0132 220.5913,439.7422 219.7643,440.8461 219.2877,442.4953 218.9713,445.0132 196.0925,436.6402 196.2017,436.3799 197.1275,435.143 197.4058,433.4724 197.5892,433.1975 199.0502,432.3862 199.4854,431.8147 199.8375,430.8802 200.0667,430.541 201.072,429.8266 201.2645,429.654 201.3575,429.4368 201.4178,428.074 201.2579,427.669 200.5746,426.7987 200.4927,426.444 200.4978,424.9957 199.2929,424.1022 199.2206,423.7797 199.4493,423.5079 199.5768,423.3563 199.5839,423.0925 198.6463,422.1452 197.4397,420.5719" stroke="black" /><polygon fill="none" points="111.2305,399.2638 110.741,399.3909 110.0481,400.0779 109.5432,400.0612 109.1272,399.7917 108.4072,399.0932 108.1855,399.0975 107.0979,399.5067 104.5064,399.2555 104.1531,399.0778 103.4673,398.1511 102.6795,397.9591 102.1119,397.9297 101.2784,397.7036 100.1958,398.1033 99.7993,398.1726 98.8276,398.1644 98.0151,398.3295 96.4393,399.4279 95.8377,399.2638 95.5033,399.002 94.5856,397.6652 94.6915,396.8979 95.4872,395.8015 95.7764,395.1407 95.7706,394.0105 95.9665,393.4424 97.539,391.5391 98.3508,390.3571 98.9199,389.9918 99.1461,389.6629 99.2683,389.1427 99.2207,388.7582 98.9118,388.2577 98.7102,388.1861 98.5057,388.1897 97.6626,388.7447 97.4698,388.7478 97.1984,388.6063 96.1858,387.7528 95.4602,387.3723 94.0427,387.5186 93.2333,387.4875 92.2031,387.1536 90.7827,386.0702 90.5991,386.058 89.0735,386.5945 88.606,386.6289 87.9125,386.4633 87.1484,386.0909 85.444,386.3764 84.0656,386.1815 82.6157,385.7366 81.4158,385.5625 80.0363,385.7514 79.6672,385.8896 79.3004,386.1813 78.4366,387.1467 76.7627,388.1059 76.4415,388.4917 75.7756,390.6134 75.6237,390.8086 75.3562,390.8796 75.026,390.8136 74.792,390.6397 73.92,389.7207 72.8324,389.2703 72.4518,389.0227 72.2132,388.6429 72.1394,388.2569 72.1385,387.7022 72.3037,387.2955 72.3028,386.9284 71.8358,386.4179 71.7791,386.0305 71.6561,385.9208 71.2908,385.857 69.9779,386.3328 69.4911,386.3778 68.4042,386.0851 67.5435,385.974 66.6966,385.4578 66.5358,385.267 66.4758,385.0098 66.2243,384.7848 64.9514,384.6509 64.3084,384.2396 62.9642,382.0109 62.6051,381.5947 62.2677,381.5098 58.8066,382.884 58.2062,383.0517 56.3841,383.1219 55.0252,383.576 53.6077,384.2383 53.3253,385.4896 53.2026,385.6318 52.3869,385.9495 52.0202,386.3888 51.245,386.8292 50.4397,387.5503 50.2289,387.5541 49.9485,387.3101 49.6219,387.2023 49.3829,387.2237 49.1609,387.3639 48.7677,388.0828 47.967,388.8888 46.6785,389.1808 45.8777,389.14 45.2553,389.0357 44.7486,388.7293 42.9036,387.2058 42.5465,386.7128 41.8725,385.6326 41.4424,383.7164 41.2888,382.3063 41.1569,382.0335 40.8751,381.8162 41.1573,381.7339 41.5011,381.3681 41.992,380.4478 42.0095,379.0947 41.9221,378.2511 41.4208,377.2212 40.6795,376.6215 39.5141,376.3465 38.5601,376.3656 37.532,376.2181 36.6349,375.7886 36.099,375.1629 35.0692,372.9121 34.3465,371.0418 33.6867,369.0233 33.3036,367.0836 33.4402,365.0702 32.7801,365.15 31.604,365.018 29.3444,364.2081 22.7448,360.9733 21.9888,360.6083 21.2824,360.5581 20.8295,360.325 20.5747,360.1939 19.9416,359.3377 19.5376,359.0538 19.1254,359.1584 18.6551,359.7329 18.2784,359.6812 17.8788,359.516 17.6648,358.2797 17.3803,358.0503 17.1685,358.181 17.0085,358.5294 16.754,358.7789 16.127,359.1636 15.2157,359.304 14.4022,359.3789 13.3031,359.2766 12.4088,358.9912 10.8285,358.0729 10.0468,357.7896 9.5719,357.8183 9.0635,358.2356 8.5801,358.3458 8.2853,358.2407 7.8651,357.8698 5.4114,357.2167 5.5549,356.9575 5.8596,356.1101 5.8649,353.9455 5.9632,353.6348 6.1602,353.3129 8.0679,351.4663 8.5783,350.8049 9.2154,349.3852 9.5779,346.5624 9.9876,345.5977 10.7309,344.6939 11.5395,344.3401 13.2641,343.9679 15.3575,343.9291 14.882,343.0065 13.5212,341.2108 11.9043,340.0128 8.585,338.1342 7.7777,337.2097 7.1031,336.0848 5.8547,333.5915 5.5239,331.4503 4.9556,328.9241 4.7686,328.4571 3.724,328.0838 2.3627,328.0576 1.3711,327.8058 0.7021,327.8031 0.0,327.9702 0.3302,327.4781 0.7042,326.3303 1.4151,325.7624 2.5628,323.8733 3.4535,322.8172 4.2115,322.1091 4.7593,321.1058 5.3213,319.6181 4.8929,300.1014 5.861,299.7317 7.0424,299.0228 7.6015,298.2002 7.5486,297.7883 6.9238,296.2212 6.7458,295.3351 6.9326,294.5489 7.3486,293.7925 8.1982,293.1009 9.0888,292.1917 9.6916,285.3401 13.1949,285.3576 25.8759,293.6236 25.4868,293.1292 24.5224,292.5652 23.7849,291.891 23.4437,291.4006 22.8547,290.2028 22.3131,288.7695 21.6216,287.7014 20.8015,286.6615 20.4346,286.3664 19.0637,285.8993 18.3875,285.393 18.2262,285.1212 17.7682,283.1208 17.8414,282.5849 18.2311,281.6801 18.4216,279.9818 18.8187,279.3321 19.7057,278.3838 21.327,277.1454 21.7983,276.8967 22.2114,276.8029 22.458,276.6285 23.6108,275.3491 24.4927,274.9717 25.6398,274.3099 26.3669,273.6445 27.1961,273.6503 28.1277,273.3169 28.811,273.2831 29.5137,272.5753 29.954,271.8839 30.6676,271.199 30.8034,270.6333 30.5521,269.4921 30.5624,268.5272 31.1161,266.5659 31.3019,264.7009 31.2823,264.0633 30.9505,262.3962 30.9347,261.4281 31.1268,260.3121 31.2172,259.0097 31.3385,258.5463 31.3708,257.0892 30.9335,255.3567 32.1719,251.1105 32.583,249.0419 32.8369,246.5878 34.0077,244.4625 34.6979,243.7602 36.2589,243.0729 39.2506,242.4332 39.7579,242.0005 40.3352,241.1054 40.4405,239.8809 40.5221,239.7043 41.3155,238.1535 41.438,236.1736 41.6081,235.2669 42.1078,234.7343 44.3298,234.2002 44.9989,233.9197 45.462,233.0281 45.4837,232.4291 45.3646,231.4282 45.1321,230.2938 45.3181,229.1815 46.4291,227.7826 47.0691,226.6568 47.5424,225.149 47.5948,223.7419 47.8735,223.2054 48.6904,222.5268 48.6655,222.039 48.2946,221.5982 48.0433,220.6198 48.2676,219.8982 48.7065,219.1366 48.7404,218.9627 48.687,218.2313 48.7556,217.0532 48.6661,216.6711 47.8026,215.5745 47.7298,215.3711 47.7663,214.5738 48.0215,214.2489 48.1094,213.9903 48.1463,212.4546 48.4797,211.9608 49.6457,211.3124 49.8952,210.7333 50.0343,209.6218 50.7696,208.7408 50.9151,208.4409 51.5144,206.3962 51.4949,205.47 50.429,202.5304 50.3641,202.1348 50.4131,201.8527 50.6512,201.425 51.069,201.0715 51.7486,200.1117 52.6144,199.4578 53.5646,199.0052 54.4209,198.3801 54.6036,198.0062 54.6508,197.6607 54.8248,197.4381 54.6559,195.9952 54.9713,195.3769 55.6225,194.968 56.1326,194.2915 56.3732,193.4682 56.8601,192.4872 57.0207,191.083 57.1617,190.5562 57.4256,190.1034 58.4681,189.4546 60.0302,189.2861 60.4755,188.9449 60.6676,188.891 61.4774,188.8975 62.3034,188.3734 64.2023,187.6608 68.1613,186.6051 72.3228,186.3286 73.1674,186.0192 73.789,185.633 74.1775,185.228 74.5132,184.211 74.5885,183.3781 74.5561,181.3703 74.0503,178.9757 73.0627,175.9775 72.2069,174.0823 71.4494,172.7916 70.8265,171.9448 68.4897,169.3023 66.8844,167.8289 64.1871,165.6278 63.4977,164.886 62.4341,163.3197 61.4989,160.6481 60.9815,159.6346 60.1456,158.3576 58.1435,155.7817 56.2378,152.9512 55.6656,152.1013 55.3198,151.5877 53.1877,147.8039 53.0908,147.6319 52.8135,146.9022 52.6234,145.0888 52.8842,143.9603 52.8858,143.9195 52.8902,143.8082 52.933,142.9818 53.3399,141.3065 53.5088,140.956 53.8143,140.7978 54.1691,140.9743 54.3237,141.3175 54.4649,141.9875 54.7336,142.2348 55.0305,142.1817 55.1232,142.0773 55.1997,141.8074 55.2264,141.0522 55.1426,140.3629 54.2521,137.3809 54.2121,136.7683 54.2323,136.4864 54.446,136.2265 55.3907,135.4271 55.4687,135.1714 55.6111,134.0638 55.6884,133.7214 55.9718,133.6152 56.2634,133.6171 56.6992,133.9049 56.8141,133.9816 57.1471,134.3922 57.7357,135.1436 57.839,135.8178 57.8787,136.0769 58.2293,136.3809 58.4504,136.3526 58.6575,136.2298 59.2512,135.5777 59.274,135.4825 59.4279,135.267 59.5081,135.1548 59.5582,134.8283 59.489,134.6263 59.323,134.539 59.2915,134.5225 58.8643,134.2978 58.3286,134.0161 58.298,133.8512 58.3874,133.6068 58.4767,133.3623 58.5726,133.266 58.776,133.0617 58.9693,132.9961 59.1387,133.0423 59.5319,133.4123 59.728,133.3683 59.8652,133.2113 59.8883,133.1081 59.9098,133.0117 59.9428,132.8638 59.9614,132.6271 59.9869,132.3027 60.0305,131.7485 60.1899,131.5445 60.23,131.4932 60.8266,131.1164 61.8505,130.6936 62.9881,130.4218 63.5989,130.3748 63.9212,130.4379 64.324,130.7191 64.6461,131.0917 65.5057,131.7796 66.474,132.7938 66.4613,133.4342 66.5522,133.7454 66.9305,134.0625 67.1035,134.3388 67.3616,134.3534 67.7943,133.6439 67.7962,133.6348 67.8504,133.3713 67.8395,133.1139 67.8073,132.5731 67.8662,132.2955 67.9501,131.9 67.9852,131.7346 67.9544,131.35 67.9281,131.0201 67.9885,130.7108 67.8495,130.5401 67.4932,130.1028 67.4938,129.8166 67.4945,129.5304 67.6303,129.4238 67.6435,129.4134 67.8035,129.2878 68.5707,129.2758 68.9976,129.4076 69.6153,129.8092 71.1361,131.2566 73.0183,132.1132 73.6264,132.7888 73.8976,133.4186 74.66,134.4554 74.9873,134.5942 75.3092,134.6081 76.4225,134.337 76.9222,134.3208 77.1878,134.4244 77.882,134.9299 78.1846,134.9327 78.8332,134.5948 79.2719,134.4774 79.9916,134.7817 80.6569,134.5358 81.8232,133.6428 82.0909,133.2085 82.1806,133.063 82.4058,132.6975 82.4479,132.6548 82.6403,132.4593 83.528,131.9272 84.8189,131.395 85.2108,130.929 85.9593,130.5264 86.2585,130.184 86.8818,129.907 87.1911,129.5484 87.6506,129.3318 88.5666,128.6643 88.8212,128.3319 89.0215,128.2401 89.3221,128.2397 89.7238,127.9152 90.3768,127.8023 90.7374,127.6503 91.3316,127.7373 92.1271,128.1071 92.4852,128.4374 93.421,129.7755 94.3477,130.5517 94.966,131.3169 95.2655,131.4984 95.2379,132.0625 95.082,132.2027 95.0238,132.4168 95.1494,132.7591 95.335,132.8456 96.0781,132.9003 96.739,133.1533 97.2373,133.1864 97.7299,133.0294 98.5858,132.3866 98.8796,132.3748 99.2012,132.4228 99.7358,132.8983 100.4635,133.0937 103.1561,132.3853 104.8595,132.2437 106.563,132.1021 107.5125,131.2773 107.5981,131.1155 107.599,131.092 107.6029,130.9882 107.6119,130.7471 107.6227,130.4576 107.6356,130.1112 107.6392,130.0153 107.7542,129.8735 107.8273,129.7833 108.085,129.4655 108.1204,129.3248 108.1433,129.2339 108.1926,129.0381 108.2016,129.0023 108.3357,128.8966 108.6453,128.6527 109.4566,128.3102 110.1871,127.6854 110.3569,127.6382 110.9772,127.7642 111.5966,127.645 112.9227,127.6335 114.7108,126.5593 115.338,125.9793 116.1089,125.5807 119.7236,125.3604 120.5754,125.6162 122.5217,125.9166 123.985,126.8392 125.1154,127.3322 126.0688,127.8727 127.3158,128.7667 127.7671,128.9824 128.0516,129.3137 128.0661,129.8704 128.3944,130.3994 128.2111,131.1029 128.2784,131.3039 128.384,131.4134 128.6875,131.4186 129.0407,131.5496 129.3214,131.7535 129.5381,132.0982 129.5812,132.7374 129.5461,132.7838 129.5112,132.8416 129.4357,132.9666 129.3861,133.0628 129.3493,133.1341 129.2002,133.4231 129.1487,134.1383 128.9961,134.7013 128.9985,135.4329 129.0905,135.7255 129.3087,136.021 129.6619,136.3372 130.7222,136.811 131.9889,137.2479 133.1703,137.4844 134.4966,137.5578 134.518,137.4085 134.4012,137.276 134.3468,137.2142 134.2575,137.113 134.1312,136.9696 134.008,136.8298 133.8452,136.6451 133.6497,136.4232 133.3576,136.0917 133.2248,135.5787 133.1012,135.101 133.0921,135.0657 133.1206,134.6472 133.1497,134.2207 133.2028,133.4425 133.2208,133.1788 133.4917,132.306 133.7626,131.4332 134.124,130.7881 134.5972,130.1448 134.9029,129.7293 134.9426,129.6969 135.1735,129.509 135.6758,129.1003 135.8727,128.9402 136.1275,128.7631 136.9036,128.2238 137.4188,127.8658 138.0308,127.4405 138.7092,126.7792 139.3876,126.1179 139.7272,125.532 139.6692,124.4147 139.5001,124.0205 139.1148,123.1226 138.8446,122.3394 138.6409,121.749 138.4263,121.1268 138.029,119.9753 137.8549,119.166 137.857,118.2074 138.0053,117.4861 138.3333,116.7633 138.882,115.5545 139.0061,115.281 139.2831,114.6706 139.4972,114.1989 140.1198,111.8465 140.28,111.2412 140.5548,110.7579 141.002,110.2646 141.6776,109.7253 142.1101,109.492 142.8478,109.2206 143.9714,108.9863 145.0949,108.752 146.4207,108.1429 147.7893,107.4222 148.2352,107.1042 148.5221,106.7693 158.7855,123.2136 159.1557,123.1496 159.408,123.1134 159.6853,123.1477 159.9571,123.1978 160.2401,123.2729 160.4655,123.3741 160.804,123.5494 161.074,123.7191 161.4933,123.951 161.7966,124.1431 162.0934,124.3221 162.5879,124.5104 162.9598,124.631 163.5016,124.887 163.6157,124.9083 164.3902,125.3165 164.6453,125.5215 164.9913,125.7951 165.2585,126.0938 165.7047,126.7302 166.2909,127.2487 166.5729,127.5613 166.6787,127.6226 167.0163,127.9435 167.2222,128.0817 167.8215,128.3322 168.2055,128.4453 169.1211,128.6281 170.2231,128.9008 171.7861,128.9815 172.3659,129.078 172.6507,129.1967 173.1312,129.2116 173.5013,129.3655 173.8714,129.565 174.0198,129.7013 174.3621,130.1754 174.4363,130.2783 174.8027,130.5251 175.2536,130.7375 175.6626,130.8534 176.1135,131.0807 176.6366,131.3757 177.3147,131.962 177.977,132.5603 178.5095,133.1159 178.9724,133.4934 179.4362,133.9359 179.9612,134.512 180.2321,134.9526 180.6857,135.7207 180.8582,136.319 180.9612,136.6965 181.1319,136.9377 181.4556,137.2716 182.1782,137.8171 182.8007,138.2447 183.2747,138.4441 183.9444,138.7707 184.3739,138.9692 184.7375,139.112 184.8915,139.2048 184.9917,139.2966 185.0975,139.4664 185.1151,139.5768 185.1336,139.6899 185.142,139.9293 185.1605,140.1853 185.1939,140.4302 185.2403,140.6649 185.2885,140.8615 185.3461,141.0702 185.4416,141.4274 185.5696,141.6342 185.7106,141.9459 185.8479,142.4125 186.0269,143.0294 186.1438,143.8318 186.1976,144.3865 186.2765,144.9004 186.3618,145.3939 186.4175,145.9272 186.5807,146.2584 186.9722,146.866 187.5844,147.4931 188.282,148.2222 188.7031,148.8233 188.8135,149.1804 188.8293,149.5079 188.7606,149.9995 188.6474,150.5245 188.345,150.9837 187.8942,151.5366 187.474,151.9939 187.038,152.5532 186.7514,152.9113 186.526,153.2146 186.3071,153.505 186.0186,153.992 185.8275,154.3649 185.7282,154.671 185.6591,155.079 185.5854,155.5698 185.577,156.0077 185.6067,156.35 185.6123,156.7943 185.6021,157.3073 185.5919,157.8536 185.6178,158.3944 185.6818,158.8462 185.8423,159.2859 185.9713,159.6105 186.2393,160.0039 186.872,160.9324 187.7746,162.1559 188.4462,162.9797 189.2996,164.0548 189.8431,164.6308 190.5129,165.2013 191.1706,165.6902 192.6112,166.6011 193.0314,166.756 193.5833,166.9378 194.3551,167.1252 194.8133,167.0408 195.5053,166.8191 196.3189,166.2384 197.2502,164.9778 198.2622,164.4796 198.4737,164.3702 198.7603,164.2598 199.2232,164.0251 200.0034,163.5975 200.8271,163.2125 201.3679,163.0437 201.7816,162.9333 202.4801,162.7385 203.43,162.6652 204.2537,162.6216 204.8557,162.514 205.8084,162.1392 206.416,161.9509 207.4095,161.7264 207.8547,161.5845 208.2592,161.4806 209.018,161.2701 209.7044,161.1374 210.2489,160.9547 210.658,160.8703 211.3917,160.7905 212.1886,160.8452 212.8908,160.9677 213.6486,161.2886 214.0892,161.5799 214.6894,162.5056 214.8879,163.6865 214.7683,165.0102 214.3147,166.756 213.3369,168.7253 213.1672,169.2819 213.1551,169.9591 213.4019,170.5657 213.6867,171.1362 213.951,171.8941 213.9455,172.1844 213.8147,172.5295 213.2052,173.5044 212.2368,175.3133 212.1375,175.9608 223.3127,199.1373 223.3611,199.2377 223.3732,199.2628 223.7882,200.1233 223.7968,200.1412 223.8022,200.1525 223.8184,200.186 224.4182,201.43 224.4509,201.4979 224.4707,201.5388 224.9393,202.5106 224.9941,202.6243 225.0132,202.6639 228.2772,209.4333 228.8431,210.607 228.8545,213.2862 228.8625,215.3152 229.1339,217.2324 229.6129,219.1182 230.3408,220.609 230.9051,221.5023 231.2205,222.2292 231.2348,222.6081 231.145,222.8952 230.5527,223.4451 230.4202,223.8047 230.4236,224.0832 230.1942,224.4507 228.9878,225.1869 228.6893,225.5988 228.7091,228.092 228.2347,228.4998 227.6243,229.5309 227.1591,230.0634 225.9749,231.8598 225.5109,233.7861 225.288,234.2793 224.904,234.616 224.5611,234.6634 224.1133,234.9818 223.3592,236.1635 222.8946,236.5709 221.805,238.3695 220.6664,239.0739 220.3527,239.7725 219.518,240.8247 219.7564,241.019 219.827,241.873 219.7245,242.158 219.2286,242.811 219.2025,243.134 219.2343,243.4414 219.4853,243.9972 219.4794,244.3678 219.2842,244.8382 219.2902,245.0924 219.5457,245.9075 219.541,246.2055 219.4488,246.3392 218.8418,246.7262 218.7619,247.2939 219.1466,247.9197 220.2363,248.7144 220.4928,249.0707 220.8621,249.934 220.8872,250.9773 220.9402,251.0729 221.3434,251.1241 221.5379,251.2634 221.6468,251.9031 222.1651,252.4329 222.159,252.9194 222.4932,253.5004 222.5239,254.3475 222.7962,254.714 223.5262,255.1814 223.7484,255.5156 223.9348,255.9155 224.1945,257.0032 224.6421,257.9043 225.2946,258.8125 225.5351,259.493 225.9371,262.7097 226.3227,264.333 226.2552,265.7803 226.3919,266.2171 227.0913,267.1852 227.5686,267.5997 228.3935,267.9507 227.9333,268.3789 228.0282,268.7264 227.5023,268.6516 227.3588,268.7063 227.2287,268.9791 227.0221,269.0337 226.7415,268.8052 226.2957,269.1293 226.1451,269.1276 225.493,268.5514 225.2529,268.5222 224.9646,268.6426 224.9643,268.8161 224.7954,269.0887 224.6349,269.0849 224.5107,268.9079 224.1894,268.9961 224.1061,269.1687 224.227,269.4117 224.2006,269.8273 223.657,270.242 222.9326,271.4685 222.2497,271.67 222.1104,271.8196 222.1888,272.021 222.4884,272.1913 222.5049,272.2774 222.2171,272.3694 221.906,272.3238 221.5172,272.0927 221.478,271.8423 221.6063,271.2477 221.2642,270.8938 221.2036,270.3265 220.9231,270.0378 220.4883,269.8652 219.7936,270.2273 219.6239,270.2397 219.4812,270.2135 219.2099,269.8686 218.5937,269.8923 218.1671,269.7428 217.217,268.8476 217.2355,268.3565 216.5694,268.1294 216.4644,267.9783 216.4543,267.2905 216.0396,266.6016 214.6302,265.5307 214.0472,265.2695 212.622,264.9706 212.1064,265.9922 211.8047,266.3358 211.3438,266.5863 209.8347,267.0113 208.5463,267.5963 207.8982,268.3144 207.7907,268.7706 207.7792,269.36 207.9874,270.146 207.8568,270.8909 207.203,271.9871 205.4728,274.4967 205.4144,274.7434 205.8374,275.5771 205.5842,276.1215 205.6461,277.4621 205.463,277.862 205.0523,278.4291 204.475,281.0922 204.0869,281.5416 203.1547,282.2172 201.6768,283.5027 200.5094,284.2591 197.4584,285.6933 196.0115,286.1234 194.4265,287.1943 193.635,287.4883 189.8116,290.0531 185.7785,292.2839 184.4187,293.2161 182.0697,295.1629 181.2401,296.0388 180.5821,296.9666 180.4368,298.0107 180.5578,299.1272 180.9998,300.1663 181.5607,300.9397 182.523,301.9039 183.4538,302.6873 185.1007,303.6644 183.9225,305.7366 182.3719,307.1799 181.216,308.623 177.7135,311.9712 176.421,313.4872 176.4773,314.8289 176.3859,316.0728 176.1222,317.6569 176.36,322.4785 176.3181,322.9339 176.1427,323.366 175.5746,323.925 175.1043,324.2132 173.7524,324.7013 173.3643,325.074 172.9528,325.6695 172.5622,326.9157 172.0945,327.4833 171.5054,327.9371 169.7781,328.9434 168.0663,329.3075 167.7026,329.6417 167.0927,331.4302 166.4076,332.6017 167.124,333.0006 167.2525,333.2342 167.2818,333.9305 168.3445,334.2502 168.9294,334.6924 169.2451,334.7362 170.6232,334.3281 170.9065,333.8685 171.23,333.5425 171.4982,333.4313 172.4176,333.4703 172.6321,333.5897 172.7098,333.877 172.561,334.2381 171.9253,334.9431 171.3021,335.8846 169.9042,336.4152 169.5847,336.6101 169.2358,336.5885 168.7247,336.7715 168.4245,336.9523 168.0868,337.5884 167.1318,338.0846 166.8966,338.2904 166.6852,338.7432 166.6828,338.9117 166.818,339.1552 166.982,339.2732 167.1814,339.2772 167.8429,339.1727 168.1866,339.318 168.1288,340.75 168.4455,341.3218 168.4323,341.4916 168.3382,341.6654 167.4764,342.0696 165.9501,343.3217 165.1377,344.5724 164.816,344.7991 164.4778,344.7553 164.2772,344.8055 164.0996,344.9666 164.0291,345.1253 164.0795,345.93 163.6448,346.9185 163.721,347.5754 163.6111,348.1835 163.1929,348.7109 162.1304,348.9634 161.8611,349.1122 161.7074,349.325 161.6468,349.8662 161.0082,351.0918 160.8055,352.0464 160.6172,352.3514 159.8884,353.0516 159.6324,353.4176 159.558,353.8108 159.5567,355.541 159.4673,355.8806 159.3298,356.0944 158.5601,356.5442 158.2709,356.8339 158.4287,357.2375 158.8235,357.5177 159.1925,358.1701 159.4234,359.0413 159.5752,360.6046 159.4964,361.2232 158.5083,362.5407 157.9357,362.701 157.7044,362.8509 157.5481,363.128 158.3915,364.2077 158.6269,364.8151 158.578,366.4679 158.8408,367.3846 158.6679,367.9368 158.597,368.772 159.0549,370.0216 158.9716,371.6915 158.7385,373.378 158.331,374.6715 158.1276,374.882 157.6898,375.0748 157.8112,376.5617 157.7202,377.0081 156.8633,378.2755 154.5122,380.4359 153.2159,382.022 152.683,382.8933 152.4022,383.6331 152.3781,384.0019 152.9481,387.0958 152.7991,388.6081 152.8733,389.1191 153.1754,389.825 153.7551,390.7312 154.3752,391.2681 155.787,392.2043 157.0525,393.7425 157.6872,394.3847 158.3289,394.7372 159.4166,394.7381 161.8997,394.3793 162.2295,394.4943 162.5931,394.7006 164.2884,396.3073 164.8144,396.5933 165.9942,396.9994 167.5375,397.8903 168.0047,398.2728 168.1827,398.4211 169.9478,399.8708 172.0531,400.8227 172.8155,401.5342 173.2121,402.4323 173.2972,403.325 173.0985,404.2861 172.7222,405.0254 172.2952,405.4998 171.8263,405.6846 170.075,405.4107 168.1498,404.8981 167.3245,404.8355 165.5693,405.1189 165.1555,405.0639 163.7597,403.8836 163.1781,403.8267 162.6189,404.0083 161.4203,404.9176 160.6399,405.1544 159.8004,405.1398 159.3103,404.9509 158.1142,404.1609 156.5563,403.7734 154.8656,403.6421 150.7954,404.2341 149.7194,404.5981 147.9804,405.7091 144.8737,405.56 144.3683,405.6528 143.7198,405.9578 143.436,406.2265 141.1362,409.3066 140.8192,409.6015 140.2335,409.9576 137.9197,410.8234 136.6325,411.6325 136.2642,411.7692 135.7111,411.7853 135.3269,411.6849 135.0268,411.5086 134.549,410.6034 134.3782,410.4322 134.2243,410.4014 133.7826,410.5275 132.8884,411.0671 132.5173,411.1797 131.6388,411.1824 131.3266,411.1184 131.0449,410.8897 130.8164,410.4371 130.7696,409.9926 130.8529,408.2167 130.8319,405.5755 130.482,404.8263 130.2799,404.6438 129.9739,404.4762 129.2538,404.3651 128.165,403.1653 127.2417,402.9886 125.7089,403.0203 125.2609,403.21 124.5633,403.6679 124.2958,403.6956 124.0333,403.5729 123.7913,403.2209 123.614,402.5403 123.6747,402.14 124.5701,400.0863 124.7066,399.3219 124.6657,399.1308 124.5015,399.0094 123.28,399.0217 121.2072,399.3609 118.2036,399.7012 117.0602,399.4836 116.7423,399.2487 116.3947,398.2867 116.2524,398.1286 115.9033,398.0651 115.7459,398.1554 115.3408,398.7631 115.0848,398.9889 114.7431,399.1354 114.2517,399.2391 111.2305,399.2638" stroke="black" /><polygon fill="none" points="367.2246,215.2091 376.2635,213.9351 422.0806,214.8541 423.2354,214.8757 424.2118,214.895 454.6249,215.4963 454.7214,216.448 454.6845,218.4607 455.3795,219.8454 455.9529,223.6288 456.1979,224.7113 456.799,226.515 457.2043,227.4793 457.6392,228.2307 458.066,229.4627 458.2644,230.1051 458.4778,231.5324 458.3488,235.78 458.4108,236.879 457.5928,240.7614 456.9738,244.4867 456.3411,245.8519 455.5818,246.9196 455.2525,247.7015 455.2327,248.8805 455.4186,250.3556 456.0283,251.6444 457.7969,253.1679 459.3918,255.3536 460.7713,257.9782 461.3271,261.5455 461.3651,262.3578 461.1387,263.3365 460.4349,264.3562 459.2768,265.6641 458.3938,266.3966 457.9612,266.9551 457.5747,267.8827 457.224,269.8662 457.0278,270.527 456.3175,271.892 456.3601,272.4573 456.6704,272.8301 457.0098,272.9591 457.3825,272.8925 458.0223,272.5075 458.7111,272.3206 459.3439,272.3069 459.8706,272.4134 460.3394,272.7648 461.0179,273.5547 461.6329,274.6424 461.8042,275.3576 461.8326,276.6972 461.6041,278.4415 461.0323,281.0126 460.3018,283.4866 460.0453,283.9371 458.4493,286.0773 457.0255,287.506 456.6871,288.0174 456.3023,288.8466 455.7021,290.6792 455.5318,291.4307 455.4428,293.4796 455.7765,296.1628 455.9059,299.4128 455.8584,300.5929 455.7276,301.3419 455.4236,302.0511 455.1128,302.4772 454.115,302.9391 453.6159,303.0792 453.3088,303.2958 453.0301,304.1016 453.0864,304.5938 453.3505,305.4212 453.4249,306.4346 453.2897,307.3789 452.9962,308.2929 452.3931,309.5628 451.8956,310.4023 451.8941,310.4048 451.81,310.5467 451.707,310.716 451.3187,311.3736 451.0923,312.2765 450.6781,313.3279 450.5297,315.0315 450.7257,317.2942 450.691,320.0597 450.5239,321.3229 450.197,322.621 447.9394,328.6075 447.1992,330.861 446.4056,332.5321 445.7389,334.3157 444.99,335.1679 443.8927,335.9365 443.1591,336.4053 442.5992,336.6554 442.2389,336.9325 441.9261,337.3194 441.4722,338.4091 441.5237,339.1816 441.9431,340.2855 442.5593,341.1814 443.9836,342.7761 445.4404,344.0426 446.3249,345.5072 446.4149,345.7137 446.7188,346.4103 447.2979,347.2051 448.0225,348.6427 450.3958,351.1865 451.178,351.7746 451.5878,352.2643 452.0362,353.7714 452.1909,354.032 452.5412,354.3681 453.2229,354.6759 455.2186,355.2595 456.0552,355.6202 457.8704,356.6804 458.5852,357.2312 459.1928,358.0156 460.0302,359.9872 460.4578,360.4719 461.4074,361.3001 461.9555,362.487 462.199,363.6954 462.1667,364.6406 462.0127,365.4657 461.7885,366.667 461.0017,367.8468 460.3947,368.5366 458.7854,369.9071 457.4349,370.7227 456.9526,371.2441 456.7829,371.2409 455.3675,370.4815 454.3012,370.3201 453.7053,370.4574 453.3308,370.6843 452.5222,371.5931 451.1858,372.71 450.4659,373.1266 448.9974,373.2165 448.219,373.1927 447.4139,373.0449 446.6107,373.0697 443.6925,373.4178 442.73,373.3539 440.8258,372.7482 440.3111,372.7147 438.845,372.8143 437.7448,372.5274 436.8184,371.8283 436.465,371.7715 436.1052,371.8885 435.6228,372.2748 435.3186,372.8456 435.1194,373.8125 435.1871,375.1231 435.1386,376.2658 435.0015,376.7074 434.5403,377.3754 433.7545,377.9848 432.1522,378.917 431.1823,379.1969 430.6894,379.4359 429.5889,380.4147 428.5778,381.4534 426.832,382.8474 426.0344,383.1295 425.3165,383.1683 424.1457,382.99 422.7843,382.304 421.9343,382.2188 421.0311,382.4984 419.1643,383.4653 418.0268,384.2721 417.3674,384.9264 416.0572,386.729 415.5215,387.2124 414.0204,387.631 413.4891,387.8807 411.4157,389.2744 409.4068,390.4078 408.7148,390.6931 408.1302,390.8065 407.5629,390.7474 406.669,390.5129 405.7504,390.1168 403.1706,388.1742 400.7471,386.7582 399.3001,386.2088 398.866,386.2011 398.4318,386.1934 397.8604,386.3188 397.5136,386.5622 397.5015,386.5707 397.1593,387.1056 397.044,387.6722 396.85,388.1723 396.6559,388.6725 396.3845,389.0244 396.212,389.1606 395.8487,389.4477 395.1214,389.7518 394.5595,390.1578 394.1817,390.5473 392.9077,392.3208 392.3737,393.1895 392.3446,393.2369 392.0466,393.4909 391.7486,393.7449 391.6703,393.8145 391.592,393.884 390.7362,394.4488 390.5571,394.5671 390.3435,394.7081 389.744,394.8518 389.5839,394.8902 389.3177,394.954 389.1421,394.9961 388.9532,395.0414 388.8395,395.0687 388.5721,395.1328 388.1032,395.1616 387.8445,395.3938 387.5858,395.6259 387.0153,396.1699 386.7655,396.6088 386.6422,396.8255 386.2399,397.5324 386.0866,397.8018 385.8767,398.1406 385.7345,398.3702 385.3232,399.0343 385.1347,399.3226 384.6803,400.1517 384.2252,400.9378 384.2114,400.9683 384.1286,401.1516 384.0321,401.3654 383.9935,401.4296 383.8557,401.6594 383.8302,401.7018 383.7838,401.7791 383.7243,401.8079 383.6649,401.8367 383.5459,401.8944 383.5065,401.9134 383.2235,402.0505 382.9011,402.2067 382.8211,402.2369 382.4347,402.3831 382.3463,402.4166 381.4691,402.863 379.9298,403.2787 378.0673,404.3317 376.7516,405.4665 375.9299,406.303 375.1079,407.4337 374.9684,407.6255 374.7566,408.205 374.7539,408.2123 374.5394,408.7992 373.7559,408.7494 373.6365,408.8209 373.6853,409.7554 373.4713,410.0233 373.194,409.9943 372.2777,409.6479 371.9723,409.6583 371.8231,409.8044 371.757,410.6159 371.9623,411.0356 372.2586,411.3365 372.6638,411.5748 373.5504,411.7472 373.7815,411.9248 374.0504,412.3728 374.1366,412.7146 374.1046,413.0361 373.9527,413.3407 373.4507,413.3698 373.0838,413.2176 371.9682,412.0185 371.4293,411.8748 371.149,411.9193 370.7755,412.3069 370.6223,412.6224 370.3805,412.7187 368.8576,412.6558 368.0205,412.8891 367.7357,413.3024 367.7485,414.0057 367.6001,414.2109 367.3564,414.4408 366.0647,414.949 365.3965,415.4609 365.2563,415.8017 365.2614,416.3802 365.1079,416.7466 364.4026,416.9822 363.6977,416.5273 363.1261,416.0288 362.484,415.2929 362.3391,415.2403 362.1135,415.2976 361.9698,415.9346 362.2146,416.9339 362.7569,418.4177 363.5526,419.7021 363.6271,419.9485 363.5724,420.0707 363.4988,420.1003 363.4253,420.1299 363.1536,420.0273 362.5495,419.6259 361.1856,419.0246 360.6845,418.9185 360.0132,418.8959 359.6933,419.0387 359.655,419.137 359.6223,419.2208 359.7919,420.6618 359.4115,422.1672 360.1615,422.973 360.3001,423.3161 360.2293,423.5616 360.0828,423.6708 359.7641,423.7035 359.2116,423.5978 357.997,423.0839 357.6678,423.0285 357.1082,423.3151 356.7286,423.863 355.7692,424.2046 354.4591,424.3174 354.095,424.6571 354.224,425.5927 353.9732,426.3148 353.4676,427.1838 353.3398,427.6367 353.3768,427.8337 353.5466,427.9354 355.0124,428.0074 355.5618,428.2992 355.6612,428.5955 355.6028,429.0489 354.7579,429.8245 354.4804,430.0792 354.4764,430.1685 353.3111,458.1996 353.0938,460.2272 353.0074,462.0436 353.1264,463.5008 353.3513,464.2041 353.632,464.75 354.8454,465.6167 355.6179,465.9497 359.5587,467.1884 361.8847,468.3444 362.502,469.1404 364.0618,470.7404 365.1919,472.5302 366.5438,473.8299 368.4745,476.3758 366.9679,477.1454 363.0098,478.7847 361.2157,479.0587 358.9913,479.7668 358.3483,480.3018 358.0542,480.9065 357.8877,481.7137 357.9505,482.8895 358.4225,484.5604 358.4414,486.9864 358.1492,488.6234 357.7192,489.5278 356.7878,490.3062 355.8453,490.5938 353.8823,490.5208 349.8943,490.6258 349.8318,490.6275 348.7461,490.9216 347.2148,491.0674 346.2913,491.0265 344.5668,490.567 342.8264,489.8446 341.8294,489.2286 341.1881,489.1406 340.8761,489.2647 340.132,490.676 339.9791,490.966 339.7726,491.3575 339.1335,492.3894 334.7614,496.8768 333.4532,497.8451 333.1159,498.0225 332.9801,498.0939 332.2722,498.4661 331.7895,498.72 330.4851,499.1686 327.2886,499.9639 327.2777,499.9643 327.0735,499.9724 326.3758,500.0 324.2825,499.5123 323.184,499.0253 320.8224,497.6717 319.8874,497.4218 319.2302,497.3602 318.7403,497.4045 318.4534,497.5317 318.061,497.7057 317.8508,497.8387 317.4786,498.074 316.6882,498.3738 315.9851,498.4924 315.7529,498.4676 314.3649,498.3194 313.6764,498.2458 313.064,498.0406 313.0147,497.9984 311.8855,497.0313 311.7469,496.9462 310.9704,496.4694 310.0208,496.2717 307.8067,496.3139 305.1245,495.8534 303.1095,494.8661 302.3113,494.0184 302.0927,493.4849 302.0244,493.3181 301.9361,493.1025 301.3203,490.0984 299.9628,487.7849 299.0398,486.516 297.9816,485.5652 296.3945,484.2615 295.5369,483.7664 294.4977,483.3077 291.5087,482.2317 290.7751,481.8027 290.2855,481.2711 289.1963,480.0882 288.7529,479.8863 288.3617,479.8774 287.8816,480.0931 287.4059,480.111 287.1284,479.925 287.0061,479.6996 286.983,479.4128 287.1208,478.8161 286.8377,478.0949 284.6519,475.4984 283.978,474.876 283.8013,474.5059 283.8436,474.1381 283.8858,473.7703 283.3223,471.1235 283.2814,471.0951 281.9584,470.1737 281.2732,470.2865 280.9187,470.5447 280.3486,470.6897 279.5689,470.4917 279.44,470.2591 279.51,469.9169 279.9272,469.1941 279.9691,468.7296 279.3749,467.5585 279.175,466.6814 278.4927,465.694 278.078,464.7569 278.0172,464.414 278.1406,464.0755 278.4308,463.7706 278.8998,463.6087 279.1825,463.6127 280.985,464.3711 281.5218,464.3484 281.7713,464.2593 281.9922,464.0772 282.0404,463.3172 281.7568,462.4459 281.8648,461.9671 282.0393,461.7375 282.2409,461.6462 283.7881,461.6573 284.3776,461.4665 284.4975,461.2658 284.5188,461.004 284.0166,460.2455 283.9873,459.9797 284.2919,458.9469 284.2632,458.6353 283.6348,457.5248 283.4275,456.1109 282.7011,455.0285 282.7182,454.8893 282.956,454.7232 283.3405,454.6072 283.9703,454.5659 286.3193,454.7281 286.6891,454.5485 286.8143,454.0707 286.6125,453.3088 286.2423,452.5568 285.6886,451.9121 284.9428,450.7212 284.7078,450.0815 284.8861,449.4031 285.1388,449.2673 285.7404,449.1837 286.7605,447.8743 287.1146,447.6477 288.3935,447.1421 288.5537,447.2518 289.2217,448.2239 289.6813,448.6046 290.4451,448.7714 290.6666,448.6051 291.2019,447.6842 291.7097,447.1505 291.9643,445.9912 292.4628,445.2535 292.9537,444.8606 293.4244,444.6195 293.8722,444.5268 295.1563,444.5498 295.3094,444.3662 295.2649,444.0259 294.483,443.0508 294.4129,442.5056 294.5146,442.324 294.8305,442.1881 295.6855,442.0628 296.4749,441.7658 297.2704,441.1899 297.6445,440.8091 297.9043,440.316 297.9307,439.7904 297.5192,438.5697 297.5098,438.2256 297.8211,437.6579 297.9109,437.2732 297.7398,436.6511 296.7387,435.813 296.5657,435.2677 296.5911,434.9573 296.8002,434.5387 297.72,433.9196 297.8246,433.7204 297.6846,433.1671 297.487,432.9697 297.2644,432.8967 296.2018,433.0568 295.7991,432.8341 295.7201,432.567 295.8351,432.203 296.6595,431.2932 296.712,430.7658 295.824,428.457 295.7438,427.8505 295.8734,427.0156 296.4587,425.2803 296.4849,424.7681 296.2091,423.0033 295.9746,422.2568 295.5325,421.5261 295.0889,421.2165 294.8154,421.1347 294.4135,421.1838 294.1534,421.335 293.9657,421.5683 293.6759,422.2936 293.4653,422.422 293.0887,422.3926 292.8802,422.1338 292.6895,421.6351 292.6691,420.9144 292.8885,420.3662 292.6728,419.891 292.1482,419.6838 291.1054,419.6438 290.726,419.436 289.6359,418.4812 289.0909,418.2232 288.3934,418.1588 287.831,418.21 287.512,418.4143 286.6436,419.2682 286.1721,419.4143 285.2721,419.4395 284.3683,419.3231 283.9957,419.085 283.8105,418.8028 283.7792,418.1977 284.1101,417.3858 285.1172,415.7758 285.2219,415.4815 285.2208,415.1429 284.7463,414.7069 283.7474,414.7786 283.1267,415.0147 282.7797,415.2969 282.2313,416.1082 281.8952,416.2739 281.2376,416.2947 281.0049,416.1753 280.7648,415.7585 280.2557,414.3089 279.4662,412.9611 279.2426,412.4319 279.1694,411.9352 279.338,411.8135 280.4124,412.2702 280.9451,412.3202 281.2615,412.2562 281.4743,412.0577 281.5385,411.3696 281.3772,411.0573 281.1488,410.8369 280.9156,410.7467 280.141,410.8121 279.6337,410.7035 279.1889,410.0703 278.766,408.6306 278.7306,408.25 279.0001,407.2787 279.3092,406.8571 280.6905,405.9565 280.9336,405.7093 281.6412,405.6999 283.3835,404.8219 283.494,404.6758 283.4761,404.3037 283.3377,404.1165 282.9009,403.9534 281.8192,403.9098 281.355,403.8162 281.0014,403.579 280.8323,403.2745 280.7336,402.7529 280.826,402.0304 280.9562,401.8993 281.8215,401.9055 281.9982,401.7852 282.222,401.0758 282.7818,400.496 282.792,399.9309 282.6807,399.6651 281.6889,399.2585 281.5138,398.7215 281.0544,398.0623 281.0205,397.5582 281.1513,397.3203 281.3453,397.1835 282.0938,397.2418 282.5377,397.126 283.6378,396.5684 284.8837,396.0617 285.0931,395.8484 285.0941,395.4547 284.4155,394.3019 284.3946,394.1009 284.5164,393.785 285.2286,393.4227 286.8208,392.9367 287.3001,392.6886 287.7594,392.2011 287.8721,391.9023 287.8302,390.2759 287.5371,389.0129 286.9492,388.3445 285.8203,387.3812 285.5276,386.8972 285.3728,386.1535 285.4208,385.0507 285.1552,384.5665 285.3277,383.9793 285.1355,383.4038 283.9502,382.2725 284.0099,382.0183 284.1484,381.9119 284.3822,381.9153 284.7614,382.084 285.1389,382.3928 285.44,382.351 285.9313,381.4369 286.0387,381.004 285.9409,380.856 284.9739,380.1791 284.2982,379.3448 284.0762,379.2033 283.8707,379.1455 283.6942,379.1899 283.1934,379.599 282.767,379.8016 282.526,379.7752 281.6072,379.0479 281.5659,378.5566 281.8503,378.0509 282.1291,377.8157 282.5249,377.6376 283.3544,377.7119 284.3179,377.4841 285.0888,377.6383 285.3574,377.5953 285.5695,377.3426 285.5695,377.0865 285.2263,376.6396 284.527,376.0781 284.1531,375.5522 284.1245,375.3207 284.2968,374.3139 284.221,373.3828 283.6313,372.4358 283.3288,371.6745 283.376,370.9504 283.5401,370.6337 284.2715,369.902 284.2835,369.7314 284.1469,369.5041 283.9412,369.3645 282.9416,368.9382 282.4463,368.7749 280.7228,368.6303 279.9919,368.1635 279.7983,367.5163 279.7519,366.0027 279.8827,365.4304 279.8287,364.978 279.5122,364.8385 279.2156,364.9185 279.1336,364.8216 279.1415,364.5995 279.3264,364.2645 279.2866,363.9849 279.1162,363.9849 278.6428,364.5789 278.3451,364.4362 278.3016,364.1935 278.3952,364.0323 278.3919,363.4836 278.2863,363.4035 278.0934,363.4052 277.7706,363.5821 277.5157,363.4302 277.5528,363.1552 277.9801,362.1627 278.9835,361.1694 279.2605,360.3037 279.4239,360.128 279.6933,360.718 279.8729,360.6818 279.8247,360.119 280.0036,359.9302 280.3421,360.3332 280.4976,360.4214 280.6265,360.3604 281.1814,359.5373 281.2505,359.1759 281.2005,358.9685 280.9116,358.8205 280.3662,358.8043 280.1162,358.4037 279.9634,358.3938 279.6176,358.64 279.4151,358.5904 279.3396,358.4173 279.3992,358.1022 279.2655,357.8781 278.9091,357.6159 278.4427,357.4924 278.5134,356.9658 278.4573,356.8621 278.291,356.8519 277.8008,357.3139 277.5858,357.2464 277.6042,356.7386 277.3977,356.6807 277.014,356.8875 276.9626,356.767 277.3432,356.2558 277.334,356.0527 277.2507,356.0059 276.8553,356.2916 276.6768,356.1943 276.5986,355.7628 276.2782,355.4992 276.466,354.8505 276.1066,354.5801 276.0342,354.2377 275.8621,354.1226 275.6372,354.5292 275.4562,354.5529 275.3243,354.2111 275.047,354.0626 275.0691,353.8132 275.3871,353.2921 275.402,353.1255 275.3593,352.9466 275.1937,352.2529 274.7887,351.4755 274.8863,350.9446 274.7564,350.5476 274.6693,350.4768 274.1474,350.498 274.0931,350.1965 273.885,350.1004 273.8537,350.009 274.0436,349.6229 274.0233,349.4945 273.8639,349.3989 273.5555,349.4768 273.2906,349.4013 273.291,349.1535 273.5472,348.8183 273.5265,348.6406 273.2291,348.4854 273.1406,348.2044 272.8527,348.1189 272.8899,347.9064 273.0924,347.7792 273.1608,347.4988 273.4501,347.2399 273.3806,347.0783 273.014,347.0667 273.0021,346.8645 273.3601,346.3901 273.7188,346.367 273.8145,346.2899 273.8613,346.0512 273.7153,345.9142 273.3186,346.0907 272.7701,344.755 273.0423,344.3766 273.0796,344.1867 272.8483,343.7978 272.8302,343.5992 273.3891,343.042 273.3718,342.6415 272.8316,341.4281 272.1012,340.7502 270.6839,340.4309 270.1983,340.3981 268.5779,340.4095 266.7568,340.6472 266.0784,340.8571 265.6021,340.8306 265.0549,340.5733 264.337,340.507 262.9781,340.7784 261.9113,340.8315 260.6684,340.7781 258.6171,340.475 257.167,339.4104 256.3048,339.0444 254.8752,338.6504 254.0417,337.9237 252.5951,337.0549 252.0237,336.6192 251.0548,336.2256 250.629,336.2797 250.233,336.9306 250.1508,337.2858 250.1354,338.54 250.5132,340.93 250.431,341.2851 249.6739,341.7682 247.5134,342.0965 244.2102,343.2947 243.8608,343.3216 243.3212,343.2325 242.9425,343.0728 242.7522,342.8917 242.8972,342.3898 242.6251,341.3569 242.0214,340.5462 241.4787,340.2061 241.042,340.0587 240.2645,340.1697 239.7872,340.34 238.9639,340.3569 238.6754,340.2363 238.4134,339.9846 238.2703,339.7115 238.2417,338.5582 238.0304,337.4721 238.3032,336.6867 238.9162,335.5286 239.2784,333.9081 239.4093,332.3558 239.351,331.9435 238.8875,331.4401 238.6097,331.2774 237.5935,330.9514 236.7629,330.504 234.2286,328.3008 233.5699,326.6873 233.2841,325.2662 233.2472,323.6895 233.3959,322.9498 233.4254,322.283 233.3212,321.553 232.7348,320.3613 232.1006,319.671 231.6003,318.9497 231.2958,318.2941 231.0628,317.4232 230.909,315.9511 230.7166,315.5607 230.2179,314.8943 229.3201,314.0132 228.7605,313.7562 226.9179,313.5696 226.4075,313.345 224.8694,312.0523 224.0975,310.8835 224.0046,310.5417 223.9489,307.4001 223.8318,305.819 222.4713,303.0222 222.1578,302.0425 222.0859,301.3447 222.1339,299.6262 221.9624,299.0982 221.6559,298.6754 221.2604,298.3579 220.5177,298.0353 219.8911,297.9486 219.157,297.9986 217.4014,298.4791 216.3717,298.5088 215.6719,298.3572 215.1611,298.1017 213.804,296.9795 212.3758,296.1203 210.5047,294.8511 209.6939,294.6362 208.6835,294.5917 206.5493,294.9899 205.3727,294.7365 204.0508,293.4928 203.2133,293.0445 201.7763,292.5709 200.692,292.4658 198.7952,292.5103 197.9435,292.7282 195.8808,293.6974 193.9339,294.3072 193.9083,294.3153 193.3923,294.4769 192.6222,294.8284 191.5597,295.5749 189.5199,297.4415 187.5598,299.5595 185.1007,303.6644 183.4538,302.6873 182.523,301.9039 181.5607,300.9397 180.9998,300.1663 180.5578,299.1272 180.4368,298.0107 180.5821,296.9666 181.2401,296.0388 182.0697,295.1629 184.4187,293.2161 185.7785,292.2839 189.8116,290.0531 193.635,287.4883 194.4265,287.1943 196.0115,286.1234 197.4584,285.6933 200.5094,284.2591 201.6768,283.5027 203.1547,282.2172 204.0869,281.5416 204.475,281.0922 205.0523,278.4291 205.463,277.862 205.6461,277.4621 205.5842,276.1215 205.8374,275.5771 205.4144,274.7434 205.4728,274.4967 207.203,271.9871 207.8568,270.8909 207.9874,270.146 207.7792,269.36 207.7907,268.7706 207.8982,268.3144 208.5463,267.5963 209.8347,267.0113 211.3438,266.5863 211.8047,266.3358 212.1064,265.9922 212.622,264.9706 214.0472,265.2695 214.6302,265.5307 216.0396,266.6016 216.4543,267.2905 216.4644,267.9783 216.5694,268.1294 217.2355,268.3565 217.217,268.8476 218.1671,269.7428 218.5937,269.8923 219.2099,269.8686 219.4812,270.2135 219.6239,270.2397 219.7936,270.2273 220.4883,269.8652 220.9231,270.0378 221.2036,270.3265 221.2642,270.8938 221.6063,271.2477 221.478,271.8423 221.5172,272.0927 221.906,272.3238 222.2171,272.3694 222.5049,272.2774 222.4884,272.1913 222.1888,272.021 222.1104,271.8196 222.2497,271.67 222.9326,271.4685 223.657,270.242 224.2006,269.8273 224.227,269.4117 224.1061,269.1687 224.1894,268.9961 224.5107,268.9079 224.6349,269.0849 224.7954,269.0887 224.9643,268.8161 224.9646,268.6426 225.2529,268.5222 225.493,268.5514 226.1451,269.1276 226.2957,269.1293 226.7415,268.8052 227.0221,269.0337 227.2287,268.9791 227.3588,268.7063 227.5023,268.6516 228.0282,268.7264 227.9333,268.3789 228.3935,267.9507 229.0667,268.2367 229.9443,268.4573 230.4226,268.7541 231.0821,268.9931 231.3504,269.1704 231.5302,269.4804 231.8411,269.782 232.6114,270.3028 232.871,270.3237 233.3997,270.541 234.2339,270.5363 234.5316,270.6057 235.3911,271.1439 236.3935,271.4947 236.8726,271.7898 237.5353,271.559 238.0276,271.7652 238.2874,272.6126 238.5753,272.8442 238.8065,273.4158 239.026,273.6091 238.9176,274.1029 239.0769,274.4588 239.6283,275.0372 240.2959,275.1565 240.5164,275.3306 241.045,276.0626 241.3245,277.1277 241.3535,278.1308 241.5008,278.5397 242.2725,279.7084 243.7067,281.2794 244.1382,281.5763 244.4934,281.6994 244.8438,282.1562 245.1019,282.3056 245.3539,282.3183 245.699,282.1982 245.8608,282.2095 246.1292,282.3867 246.4493,282.371 247.1802,283.0317 247.67,283.3013 247.9037,283.6676 248.4547,283.8373 249.5963,284.3727 250.4015,284.4233 250.5791,284.5265 250.6446,284.8584 250.8026,285.0049 250.5255,285.2951 250.5739,285.5484 250.7619,285.7814 251.0436,286.5712 253.3153,288.6834 253.922,288.9276 254.3466,288.9304 254.6959,288.544 254.9489,288.0204 255.3893,287.7748 256.0083,287.614 256.7567,287.2455 257.5327,287.2671 257.7144,287.1808 257.7999,286.6379 257.9372,286.5675 258.2289,286.5996 260.7781,288.3306 260.9248,288.5259 261.0219,290.0752 261.5124,291.8527 262.1291,292.9756 263.4099,294.5314 263.5182,295.0326 263.4691,295.6009 264.1404,296.1361 264.4176,296.5866 264.7511,296.8656 265.9477,297.6965 266.6436,297.898 267.2197,298.4611 268.4796,298.4745 302.2419,298.8349 304.296,294.6079 304.5352,294.1158 316.5927,269.3053 319.1831,264.7404 321.0422,262.8728 322.0637,262.2549 324.6645,260.9045 325.3755,260.7891 326.9895,260.2821 327.7198,259.5446 328.4074,258.2667 330.1605,257.4524 330.8286,257.0309 331.5691,256.338 332.0658,255.7131 332.6207,254.6271 333.0747,253.0873 333.745,252.4372 334.4942,251.3637 334.5366,250.182 334.8356,249.7666 335.2189,249.5005 335.3518,248.6614 335.5798,248.0136 335.7261,247.8627 336.3833,247.6952 336.7283,247.3205 336.9932,247.1625 337.4543,247.3963 337.6274,247.3603 337.8758,247.1971 338.5817,246.3021 338.8066,246.2157 338.9652,235.4947 339.0851,227.3931 339.0919,226.9333 339.1133,225.4968 339.1144,225.4217 339.2079,219.1587 367.2246,215.2091" stroke="black" /><polygon fill="none" points="367.7485,414.0057 367.7357,413.3024 368.0205,412.8891 368.8576,412.6558 370.3805,412.7187 370.6223,412.6224 370.7755,412.3069 371.149,411.9193 371.4293,411.8748 371.9682,412.0185 373.0838,413.2176 373.4507,413.3698 373.9527,413.3407 374.1046,413.0361 374.1366,412.7146 374.0504,412.3728 373.7815,411.9248 373.5504,411.7472 372.6638,411.5748 372.2586,411.3365 371.9623,411.0356 371.757,410.6159 371.8231,409.8044 371.9723,409.6583 372.2777,409.6479 373.194,409.9943 373.4713,410.0233 373.6853,409.7554 373.6365,408.8209 373.7559,408.7494 374.5394,408.7992 374.7539,408.2123 374.7566,408.205 374.9684,407.6255 375.1079,407.4337 375.9299,406.303 376.7516,405.4665 378.0673,404.3317 379.9298,403.2787 381.4691,402.863 382.3463,402.4166 382.4347,402.3831 382.8211,402.2369 382.9011,402.2067 383.2235,402.0505 383.5065,401.9134 383.5459,401.8944 383.6649,401.8367 383.7243,401.8079 383.7838,401.7791 383.8302,401.7018 383.8557,401.6594 383.9935,401.4296 384.0321,401.3654 384.1286,401.1516 384.2114,400.9683 384.2252,400.9378 384.6803,400.1517 385.1347,399.3226 385.3232,399.0343 385.7345,398.3702 385.8767,398.1406 386.0866,397.8018 386.2399,397.5324 386.6422,396.8255 386.7655,396.6088 387.0153,396.1699 387.5858,395.6259 387.8445,395.3938 388.1032,395.1616 388.5721,395.1328 388.8395,395.0687 388.9532,395.0414 389.1421,394.9961 389.3177,394.954 389.5839,394.8902 389.744,394.8518 390.3435,394.7081 390.5571,394.5671 390.7362,394.4488 391.592,393.884 391.6703,393.8145 391.7486,393.7449 392.0466,393.4909 392.3446,393.2369 392.3737,393.1895 392.9077,392.3208 394.1817,390.5473 394.5595,390.1578 395.1214,389.7518 395.8487,389.4477 396.212,389.1606 396.3845,389.0244 396.6559,388.6725 396.85,388.1723 397.044,387.6722 397.1593,387.1056 397.5015,386.5707 397.5136,386.5622 397.8604,386.3188 398.4318,386.1934 398.866,386.2011 399.3001,386.2088 400.7471,386.7582 403.1706,388.1742 405.7504,390.1168 406.669,390.5129 407.5629,390.7474 408.1302,390.8065 408.7148,390.6931 409.4068,390.4078 411.4157,389.2744 413.4891,387.8807 414.0204,387.631 415.5215,387.2124 416.0572,386.729 417.3674,384.9264 418.0268,384.2721 419.1643,383.4653 421.0311,382.4984 421.9343,382.2188 422.7843,382.304 424.1457,382.99 425.3165,383.1683 426.0344,383.1295 426.832,382.8474 428.5778,381.4534 429.5889,380.4147 430.6894,379.4359 431.1823,379.1969 432.1522,378.917 433.7545,377.9848 434.5403,377.3754 435.0015,376.7074 435.1386,376.2658 435.1871,375.1231 435.1194,373.8125 435.3186,372.8456 435.6228,372.2748 436.1052,371.8885 436.465,371.7715 436.8184,371.8283 437.7448,372.5274 438.845,372.8143 440.3111,372.7147 440.8258,372.7482 442.73,373.3539 443.6925,373.4178 446.6107,373.0697 447.4139,373.0449 448.219,373.1927 448.9974,373.2165 450.4659,373.1266 451.1858,372.71 452.5222,371.5931 453.3308,370.6843 453.7053,370.4574 454.3012,370.3201 455.3675,370.4815 456.7829,371.2409 456.9526,371.2441 456.6944,371.9482 456.7176,373.4798 457.1033,375.8059 457.1744,376.2347 457.4766,377.4858 457.7033,380.6027 457.8243,381.2957 459.8583,386.8262 460.7161,390.5864 460.8611,391.5986 460.9472,397.8579 460.5222,399.4826 459.8423,400.9067 459.7868,401.681 460.2831,404.7662 460.2978,404.8572 460.5059,406.1505 460.5443,407.408 460.3953,407.7875 459.9962,408.3339 459.2865,409.0275 443.4579,424.4968 438.2175,429.6184 438.1024,429.7309 437.835,429.9922 434.8769,432.746 434.0007,433.7234 433.4547,435.0854 433.0451,437.2198 432.8086,440.2745 432.9611,442.0045 433.4584,443.4104 435.4476,447.2445 435.8162,448.9633 435.8603,449.9579 435.3843,452.4636 435.4853,453.6928 436.041,455.3006 437.0938,456.4857 437.3875,457.2043 437.4187,457.886 436.813,459.8215 435.1954,462.0179 433.925,463.4824 433.2185,464.6173 432.931,465.5861 432.8434,466.2175 432.8531,467.7498 433.4555,469.6976 433.884,470.6535 434.1602,471.1135 435.8385,472.948 436.4394,473.8085 435.2853,473.3897 432.3061,473.3335 431.5413,473.4027 430.0727,473.7244 428.5597,473.9469 427.2308,474.514 424.6932,473.6937 424.3654,473.7085 423.0217,474.1344 419.8108,475.5241 418.9152,476.1729 417.9022,476.6847 417.7692,476.9669 417.9965,478.6939 418.1546,482.0822 418.0659,483.4417 417.6177,484.1434 416.6035,484.5727 415.5318,484.7191 411.7695,484.6357 408.552,484.3719 406.1146,484.0726 405.0728,483.8 404.0401,483.4102 402.5932,482.6568 402.0986,482.2321 401.6068,481.6372 400.8332,480.3623 400.6769,479.3178 401.0815,476.9501 400.7247,475.1682 399.935,473.587 398.7487,471.7432 397.729,470.4139 396.1813,469.1223 394.6785,468.2868 393.6392,467.9464 392.3685,467.6936 390.6372,467.7068 389.0701,468.1989 388.4815,468.7169 387.9666,469.7323 387.4193,470.3821 386.8802,470.7997 386.3497,471.0543 385.2002,471.3112 382.4791,471.5799 382.2363,471.4253 381.5127,470.4417 380.5589,470.0186 379.0835,469.7122 377.6595,469.8114 376.5589,470.3615 375.5859,471.0766 374.4304,472.2334 372.5671,473.9079 369.7431,475.7282 368.4745,476.3758 366.5438,473.8299 365.1919,472.5302 364.0618,470.7404 362.502,469.1404 361.8847,468.3444 359.5587,467.1884 355.6179,465.9497 354.8454,465.6167 353.632,464.75 353.3513,464.2041 353.1264,463.5008 353.0074,462.0436 353.0938,460.2272 353.3111,458.1996 354.4764,430.1685 354.4804,430.0792 354.7579,429.8245 355.6028,429.0489 355.6612,428.5955 355.5618,428.2992 355.0124,428.0074 353.5466,427.9354 353.3768,427.8337 353.3398,427.6367 353.4676,427.1838 353.9732,426.3148 354.224,425.5927 354.095,424.6571 354.4591,424.3174 355.7692,424.2046 356.7286,423.863 357.1082,423.3151 357.6678,423.0285 357.997,423.0839 359.2116,423.5978 359.7641,423.7035 360.0828,423.6708 360.2293,423.5616 360.3001,423.3161 360.1615,422.973 359.4115,422.1672 359.7919,420.6618 359.6223,419.2208 359.655,419.137 359.6933,419.0387 360.0132,418.8959 360.6845,418.9185 361.1856,419.0246 362.5495,419.6259 363.1536,420.0273 363.4253,420.1299 363.4988,420.1003 363.5724,420.0707 363.6271,419.9485 363.5526,419.7021 362.7569,418.4177 362.2146,416.9339 361.9698,415.9346 362.1135,415.2976 362.3391,415.2403 362.484,415.2929 363.1261,416.0288 363.6977,416.5273 364.4026,416.9822 365.1079,416.7466 365.2614,416.3802 365.2563,415.8017 365.3965,415.4609 366.0647,414.949 367.3564,414.4408 367.6001,414.2109 367.7485,414.0057" stroke="black" /></svg>