<?xml version="1.0" encoding="utf-8" ?>
<svg baseProfile="tiny" height="500" version="1.2" width="336.8712" xmlns="http://www.w3.org/2000/svg" xmlns:ev="http://www.w3.org/2001/xml-events" xmlns:xlink="http://www.w3.org/1999/xlink"><defs /><polygon fill="none" points="173.5147,208.7449 172.5591,208.494 171.9778,208.3414 171.4411,208.2005 170.0131,207.8255 169.1826,206.7671 165.1118,201.5792 160.0285,195.1007 159.473,194.3928 157.5199,191.9036 157.2485,191.32 156.9737,190.7291 149.8709,175.4546 148.1996,174.3902 147.3976,173.8795 146.5957,173.3688 146.5283,173.3258 145.41,173.3035 145.0332,173.296 141.1256,173.2181 134.2826,173.0816 132.3734,173.0435 130.7355,170.5399 128.5954,167.2687 128.345,166.8859 128.0946,166.5032 125.9854,163.2791 125.2267,162.1194 125.0048,161.7802 124.4863,160.9877 124.3606,160.7956 124.0468,160.6848 118.8355,158.8452 118.6475,158.7789 111.9625,156.4191 110.4248,155.8762 109.9611,155.7126 109.4973,155.5489 109.4921,155.5677 109.4545,155.5987 109.3409,155.7328 109.2765,155.839 109.1917,155.9861 109.0531,156.0675 108.992,156.1022 108.8613,156.1522 108.655,156.244 108.5172,156.2958 108.5013,156.3104 108.4512,156.3772 108.3853,156.4773 108.2728,156.6511 108.249,156.6929 108.1692,156.8594 108.1632,156.8879 108.1138,157.134 108.0484,157.2487 108.0195,157.3285 107.9906,157.4083 107.9765,157.4717 107.9751,157.4721 107.9042,157.6328 107.8196,157.7929 107.7655,157.8142 107.7211,157.8086 107.6546,157.7972 107.5827,157.7844 107.5107,157.7716 107.4075,157.7497 107.318,157.7051 107.2009,157.6563 106.9674,157.6266 106.7438,157.6246 106.5904,157.6317 106.4014,157.6337 106.2029,157.6343 106.124,157.6346 105.9151,157.65 105.8153,157.6994 105.7363,157.724 105.656,157.753 105.6103,157.7633 105.5984,157.7653 105.5333,157.7727 105.4806,157.7767 105.3889,157.7756 105.2074,157.7666 105.1557,157.7417 105.104,157.7168 105.0662,157.7048 105.0468,157.7017 104.9528,157.6897 104.912,157.6876 104.9058,157.6882 104.8095,157.7079 104.7206,157.7368 104.6518,157.783 104.6373,157.7946 104.4735,157.8809 104.3519,157.8989 104.1672,157.9249 104.1261,157.9316 104.0005,157.9616 103.8633,157.968 103.7538,157.9834 103.66,157.9896 103.4025,157.9659 103.2696,157.9284 103.2379,157.9143 103.2274,157.9092 103.1759,157.8844 102.9584,157.7899 102.8008,157.7346 102.7223,157.7076 102.6751,157.6822 102.4307,157.5507 102.1832,157.4318 102.0203,157.3579 101.7164,157.227 101.4851,157.1086 101.4691,157.1018 101.3518,157.0457 101.206,156.981 100.9452,156.8692 100.7901,156.8013 100.7312,156.7774 100.5418,156.6907 100.4517,156.6518 100.3615,156.6128 100.2487,156.5466 100.2328,156.5408 100.0122,156.4106 99.9558,156.3823 99.9245,156.3692 99.8565,156.3223 99.8276,156.2977 99.7739,156.2541 99.7256,156.1931 99.6751,156.1195 99.6155,156.0231 99.5894,155.9852 99.5737,155.9664 99.5395,155.9264 99.4806,155.859 99.3807,155.7527 99.2462,155.5928 99.1707,155.5399 99.1108,155.5139 99.0247,155.4841 98.9713,155.4697 98.8892,155.4663 98.7758,155.4864 98.6597,155.5127 98.6019,155.4955 98.4561,155.4545 98.3044,155.4037 98.2323,155.369 98.1935,155.3514 98.0389,155.2743 98.0255,155.2686 97.9253,155.1795 97.8689,155.1067 97.8036,155.0087 97.7476,154.9403 97.6303,154.8054 97.6085,154.7862 97.4571,154.6553 97.3596,154.6023 97.233,154.5397 97.1185,154.4879 96.9967,154.4324 96.9182,154.4167 96.8397,154.4011 96.7097,154.3964 96.418,154.3626 96.2642,154.3023 96.2215,154.2856 96.1912,154.272 96.1632,154.2562 96.1407,154.2412 96.0806,154.2087 95.9397,154.1318 95.9332,154.1206 95.917,154.0369 95.9073,153.9643 95.8916,153.8238 95.8829,153.7468 95.8811,153.5887 95.881,153.3474 95.8892,153.0053 95.8721,152.8764 95.8719,152.8565 95.844,152.7051 95.8299,152.6037 95.8158,152.5023 95.8059,152.4094 95.811,152.3575 95.798,152.258 95.7792,152.1967 95.7632,152.1091 95.7371,152.0142 95.7058,151.9143 95.6657,151.8054 95.6256,151.6965 95.5735,151.5405 95.5579,151.3264 95.5934,151.051 95.629,150.8094 95.6401,150.7408 95.6694,150.5657 95.6797,150.4686 95.6802,150.3351 95.6816,150.2859 95.6831,150.2366 95.6758,150.1669 95.6684,150.0971 95.6723,150.0671 95.7031,149.9573 95.6963,149.8943 95.686,149.8429 95.6855,149.8109 95.6829,149.7085 95.6829,149.7062 95.7109,149.6176 95.7256,149.5712 95.725,149.5448 95.7245,149.5183 95.6735,149.4378 95.6187,149.4256 95.6039,149.4229 95.5564,149.4113 95.1348,149.295 94.4222,149.0985 94.2134,148.9846 94.0046,148.8707 92.3426,147.9744 90.3794,146.9157 87.1147,145.0556 85.8893,144.3664 84.3815,143.5182 81.3067,141.6771 80.7399,141.2329 80.6044,141.1267 80.3098,140.9302 80.1226,140.9885 79.891,141.0756 79.8347,141.0968 78.9793,141.4186 73.3807,143.5246 67.7821,145.6306 63.7488,147.1477 62.1241,147.7594 61.3682,148.0441 60.7419,148.2799 60.4205,148.4009 59.478,148.7558 59.1236,148.8893 58.104,149.2732 56.7301,149.7905 53.2301,151.1093 52.8005,151.2712 52.651,151.3275 52.3564,151.4385 52.0742,151.6263 51.8465,151.776 51.7753,151.8228 51.5641,151.9591 51.1992,152.1295 51.061,152.1928 50.9228,152.256 50.6261,152.3474 50.513,152.3904 50.3998,152.4335 50.1547,152.4872 50.0892,152.5016 49.9743,152.4587 49.8979,152.3286 49.8204,152.1969 49.5115,151.6713 49.3816,151.4503 48.3372,149.6733 47.617,148.448 47.32,147.9427 47.2351,147.7982 46.133,145.9231 44.8725,143.7786 43.249,141.0164 42.7517,140.1702 42.3423,139.6937 42.2964,139.629 42.2504,139.5643 42.2072,139.5077 42.1288,139.3999 42.1044,139.3541 42.0962,139.3109 42.0285,139.1652 42.0059,139.123 41.9184,138.9599 41.8636,138.749 41.7883,138.4904 41.7199,138.2864 41.4595,137.5739 41.4249,137.398 41.3344,137.1364 41.2439,136.9006 40.9357,135.9104 40.8596,135.6996 40.8038,135.5182 40.7781,135.4347 40.7182,135.1968 40.4686,134.0968 40.4096,133.9286 40.4045,133.8607 40.3882,133.8014 40.3595,133.6969 40.2681,133.4389 40.26,133.4194 40.1913,133.2531 40.1443,133.1492 40.0415,132.9722 39.9989,132.8492 39.9629,132.6641 39.959,132.6439 39.8798,132.3592 39.8128,132.1603 39.7369,131.9573 39.6937,131.8618 39.6279,131.7165 39.6134,131.694 39.4481,131.4381 39.2877,131.2187 39.2825,131.2116 39.2168,131.1403 39.151,131.0691 39.031,130.906 38.9934,130.8492 38.9761,130.7938 39.0636,130.7588 39.382,130.6312 40.7749,130.0729 43.186,129.1066 43.7408,128.8843 44.0897,128.7444 44.4882,128.5847 44.7038,128.6082 44.9194,128.6316 45.352,128.6787 47.4168,128.9031 48.4397,129.0143 52.47,129.4524 52.8443,129.4931 52.8455,129.4918 52.9132,129.4207 52.9315,129.4015 52.932,129.401 53.0849,129.2404 55.0554,127.1705 56.0523,126.1234 56.7448,125.3961 56.7499,125.3907 59.2224,124.1265 61.6002,122.9108 72.4103,117.3839 76.6521,115.2151 77.0261,115.0165 77.2084,114.9196 77.3186,114.861 77.3929,114.8209 77.3836,114.822 77.5456,114.7459 77.6277,114.7241 77.6728,114.6903 77.8043,114.6201 77.806,114.6192 77.8065,114.6189 77.8043,114.6129 77.8131,114.6072 78.0833,114.4738 78.334,114.3506 78.5846,114.2275 78.8113,114.1162 79.4152,113.8173 79.5577,113.7461 79.7416,113.6539 79.8841,113.5826 80.1989,113.4268 80.5286,113.2657 80.7415,113.1601 81.089,112.9875 81.4849,112.7931 81.7637,112.655 81.9422,112.5668 82.1259,112.4804 82.1706,112.4585 82.3064,112.3932 82.8354,112.1325 83.1081,111.9959 83.4736,111.8171 83.8802,111.6041 83.9236,111.5827 84.4164,111.3417 84.9117,111.0987 84.9598,111.0763 85.5642,110.7836 86.1482,110.4851 86.4399,110.3408 86.5662,110.2775 86.8413,110.139 87.1165,110.0005 87.2513,109.9369 88.0707,109.5289 88.6455,109.2428 89.2237,108.9539 89.9947,108.5742 90.5874,108.2824 90.9002,108.1283 91.3503,107.9102 91.6948,107.7393 92.1489,107.5048 92.5819,107.2952 93.0898,107.0412 93.5674,106.7981 94.0127,106.5816 94.7243,106.239 94.8394,106.1827 96.1486,105.4282 96.8032,105.051 97.4579,104.6737 97.5141,104.6413 97.5259,104.6216 97.5054,104.6205 98.3369,104.1931 99.3963,104.1177 101.6136,103.9601 102.321,103.9098 103.738,103.809 106.1831,103.6352 106.7965,103.5916 106.942,103.5776 108.0614,103.4704 108.726,103.4067 109.3905,103.3431 109.8341,103.3006 110.2776,103.2581 111.0027,103.7163 111.5004,104.0288 111.9981,104.3413 118.5477,109.3703 119.0227,109.7351 120.7104,111.0592 125.1199,114.5187 127.5018,116.3873 128.1379,116.9552 128.7741,117.5232 129.2502,117.9425 129.371,118.1628 129.4274,118.3214 129.5081,118.4845 129.6577,118.7868 129.6728,118.8173 129.9182,119.3132 130.0041,119.3626 130.4191,119.601 130.5943,119.6591 132.075,120.1504 132.255,120.2759 132.7804,120.6422 134.184,121.6208 134.6966,121.9783 134.9967,122.0899 135.2968,122.2016 135.4829,122.2709 135.493,122.2549 135.7151,121.9046 135.704,121.7996 135.6111,120.92 135.6388,120.7472 135.6972,120.3829 136.1381,119.9848 136.7762,119.4086 137.1497,119.1771 138.614,118.2692 138.6739,118.1257 138.8482,117.7076 138.6072,116.693 138.4598,116.39 137.4598,114.3348 137.0368,113.4654 136.9292,112.9146 136.8216,112.3639 136.8423,112.2228 136.863,112.0818 137.0025,111.1311 137.028,110.9578 136.8088,110.7318 136.4698,110.3823 136.1484,109.495 136.0062,109.1026 135.8948,108.2067 135.8564,108.1082 135.7033,107.716 135.5449,107.4701 135.0864,106.7578 134.9685,106.5747 134.6061,105.6381 134.4636,105.27 134.4882,104.4553 134.5256,104.3924 134.8939,103.7718 134.8929,103.4923 134.8925,103.3926 134.4466,102.3603 134.4002,102.253 134.3749,102.1944 134.3623,102.1653 134.394,102.1688 134.465,102.1767 134.5012,102.1807 134.7042,102.2034 134.837,102.2182 134.8571,102.2204 134.8656,102.2153 134.9929,102.1734 135.1709,102.118 135.3379,102.0677 135.3806,102.0521 135.4526,102.026 135.6863,101.9448 135.7718,101.92 135.8573,101.8952 136.0186,101.8506 136.2186,101.7884 136.526,101.6928 136.9077,101.5669 137.0062,101.5325 137.3376,101.4333 137.7089,101.3075 137.9034,101.2425 138.1584,101.1567 138.2215,101.1358 138.5402,101.0314 138.9168,100.9032 138.9757,100.8832 139.4663,100.7127 139.6288,100.6527 139.6699,100.6401 140.0339,100.5276 140.1549,100.479 140.6749,100.3053 140.7216,100.289 141.0991,100.1603 141.2167,100.1248 141.2225,100.1235 141.2345,100.1194 141.314,100.0963 141.535,100.0328 141.7658,99.9569 142.0016,99.8755 142.0611,99.856 142.3023,99.7751 142.4792,99.7174 142.6503,99.6601 142.7601,99.6257 142.9692,99.5446 143.2788,99.4394 143.652,99.3112 143.9547,99.2113 144.1792,99.1339 144.3868,99.0617 144.7153,98.9533 145.0153,98.8439 145.1785,98.7972 145.5048,98.6839 145.7245,98.6115 146.0026,98.5171 146.4375,98.3647 146.9366,98.2008 147.2503,98.0889 147.3295,98.0652 147.9768,97.8553 148.1844,97.788 148.3991,97.7164 148.5663,97.659 148.7855,97.5869 149.0627,97.4908 149.2749,97.4212 149.3768,97.3894 149.5237,97.3438 149.6647,97.298 149.9303,97.2104 150.1928,97.1215 150.4072,97.049 150.6488,96.9615 151.0205,96.8631 151.3832,96.7258 151.5164,96.6811 151.5485,96.6672 151.6137,96.6464 151.7639,96.595 151.9886,96.5176 152.2538,96.4281 152.3559,96.3941 152.5577,96.3307 152.8521,96.233 153.2429,96.0996 153.4652,96.0223 153.9213,95.8664 154.2744,95.7576 154.7386,95.6085 155.0733,95.4936 155.4682,95.3634 155.5259,95.3466 155.7435,95.2737 155.7985,95.2556 155.9671,95.1961 156.1829,95.1178 156.3947,95.0465 156.4966,95.0122 156.955,94.8511 157.031,94.8217 157.6828,94.6124 157.7831,94.5798 158.0262,94.499 158.1233,94.4655 158.9016,94.2066 159.0088,94.1738 159.3572,94.0603 159.6048,93.9762 159.8087,93.9072 160.0337,93.8322 160.2984,93.751 160.3512,93.722 160.6643,93.6228 160.7125,93.6079 160.8069,93.5779 160.9657,93.5276 161.0699,93.493 161.277,93.4233 161.4719,93.358 161.6181,93.3088 161.9031,93.2162 162.188,93.1235 162.424,93.0432 162.5424,93.0044 163.1429,92.802 163.5182,92.6792 163.6676,92.6212 163.8209,92.5726 164.0699,92.4917 164.2053,92.4428 164.25,92.4258 164.2932,92.4073 164.3359,92.3878 164.3814,92.3683 164.6972,92.2726 165.0951,92.2008 165.5336,92.1986 165.9404,92.2586 165.9798,92.2621 166.568,92.3614 166.9234,92.4224 167.2788,92.4833 167.9089,92.5976 168.4847,92.705 168.9273,92.7788 169.2014,92.8282 169.4004,92.8626 169.6316,92.91 170.0985,93.0076 170.5175,93.0802 170.5794,93.0905 170.8348,93.1342 170.8938,93.1442 170.8999,93.1452 171.2498,93.2068 171.4999,93.25 171.9529,93.3282 172.2903,93.3883 172.385,93.4048 172.556,93.4346 172.6854,93.4574 173.1968,93.5425 173.7463,93.6333 174.4209,93.7502 174.6783,93.7945 175.0505,93.8629 175.6046,93.9657 175.7258,93.9862 176.0751,94.0486 176.1873,94.0682 176.3562,94.0985 176.5329,94.1311 176.768,94.1747 177.1224,94.2358 177.529,94.3041 177.9816,94.3856 178.3046,94.4443 178.6276,94.5029 178.6998,94.5161 178.7405,94.5234 179.0697,94.5819 179.2433,94.6126 179.2992,94.6225 179.5012,94.6593 179.5239,94.6635 179.6039,94.6781 179.68,94.6917 179.6932,94.694 179.8161,94.7153 179.9809,94.7439 180.0335,94.7531 180.6853,94.8677 181.358,94.9888 181.6038,95.0331 181.8496,95.0774 181.9906,95.1028 182.6165,95.215 182.8196,95.2491 183.0885,95.2975 183.4992,95.3703 183.8469,95.4309 184.5033,95.5435 185.273,95.6823 185.6059,95.7407 185.868,95.788 186.1239,95.8316 186.6211,95.9202 186.9264,95.9771 187.168,96.0195 187.2278,96.0308 187.5242,96.0866 188.0894,96.1887 188.3975,96.2411 188.9372,96.3365 189.2821,96.399 189.4216,96.4236 189.4236,96.424 189.6169,96.4582 189.6235,96.4593 189.7825,96.488 189.9347,96.5163 190.0883,96.5496 190.3074,96.5847 190.4607,96.6133 190.614,96.6419 190.8164,96.6712 190.8269,96.6812 190.8675,96.6865 190.8933,96.691 190.9259,96.6968 191.005,96.7134 191.4102,96.7761 191.8716,96.702 192.2362,96.5047 192.5469,96.3196 192.6902,96.2227 192.8447,96.1273 192.9232,96.0792 193.0814,95.9776 193.2097,95.8961 193.3358,95.8112 193.5453,95.6747 193.6263,95.6215 193.7776,95.5172 193.8522,95.4655 194.008,95.3648 194.0472,95.3387 194.289,95.18 194.4936,95.0448 195.319,94.5111 195.7893,94.2038 196.354,93.8406 196.5278,93.7249 196.6476,93.6462 196.7245,93.5961 196.8337,93.5237 196.9409,93.4542 197.0526,93.3841 197.2045,93.2866 197.4048,93.162 197.7556,92.9468 198.2286,92.6468 198.3684,92.5508 198.5447,92.4337 198.7879,92.2722 198.8224,92.2468 198.988,92.1381 199.2256,91.985 199.2926,91.9387 199.2864,91.9372 199.4736,91.8163 199.5531,91.7685 199.6931,91.6837 199.8331,91.5988 199.8699,91.5738 199.9112,91.5454 199.959,91.5127 200.0082,91.4785 200.1578,91.3808 200.4022,91.2368 200.4476,91.2071 200.5797,91.1192 200.6714,91.0588 200.7718,90.9942 200.9228,90.8942 201.0591,90.7992 201.1321,90.7418 201.2363,90.6691 201.4289,90.5533 201.5989,90.4389 201.7981,90.311 202.0053,90.1782 202.0501,90.1481 202.0921,90.1192 202.134,90.0899 202.2221,90.036 202.267,90.0112 202.4342,89.9025 202.9517,89.5643 203.3275,89.3283 203.3229,87.6785 203.3218,87.2952 203.3192,86.36 203.3171,85.5864 203.3166,85.4248 203.3148,84.7619 203.3112,83.4705 203.3087,82.559 203.2938,77.1829 204.2321,77.1803 207.6274,77.1708 209.6212,77.1652 210.4771,77.1628 210.4773,77.2171 210.4774,77.2715 210.479,77.8344 210.4805,78.3583 210.4814,78.6922 210.4836,79.482 210.4846,79.8431 210.4876,80.9088 210.4901,81.7987 210.5029,81.8538 210.527,81.9577 210.7847,83.0693 210.9694,83.8662 211.0624,84.2675 211.0792,84.34 211.164,84.3492 211.5236,84.3883 211.9679,84.4366 217.4857,85.0367 217.7248,85.0627 217.7619,85.0667 217.829,85.163 217.8849,85.2474 217.9463,85.3317 218.0892,85.5571 218.147,85.6481 218.173,85.7104 218.1858,85.7376 218.1995,85.7666 218.2376,85.8765 218.2775,85.948 218.403,86.173 218.6386,86.6226 218.7017,86.7685 218.7649,86.9145 218.7841,86.9363 218.9632,87.1393 219.0917,87.2781 219.1088,87.297 219.3639,87.5816 219.3843,87.6007 219.4713,87.6842 219.4947,87.7051 219.7031,87.8769 219.7378,87.9035 219.9901,88.0968 220.1699,88.2435 220.4018,88.4059 220.6338,88.5684 220.7214,88.6474 220.7456,88.6674 220.8456,88.7371 221.01,88.8352 221.064,88.8676 221.1562,88.9168 221.1818,88.9346 221.3719,89.0505 221.7386,89.2653 221.9479,89.4311 222.0294,89.587 222.111,89.7429 222.1662,90.011 222.218,90.2526 222.2679,90.465 222.291,90.5634 222.3964,90.8136 222.54,90.984 222.5863,91.0029 222.6327,91.0218 222.8773,91.084 222.9026,91.0931 223.1867,91.1945 223.2729,91.2554 223.503,91.4743 223.5839,91.5629 223.6476,91.6434 223.6626,91.6623 223.6754,91.6794 223.6883,91.6966 223.7569,91.7795 223.8014,91.8603 223.8666,91.9425 223.9435,92.0489 224.0723,92.206 224.188,92.56 224.2009,92.6209 224.2138,92.6819 224.2649,92.9509 224.2903,93.0826 224.2923,93.1296 224.3054,93.1732 224.3264,93.3114 224.3353,93.359 224.4173,93.6289 224.4305,93.6742 224.467,93.8105 224.5312,94.0141 224.6104,94.2522 224.6706,94.419 224.7095,94.5084 224.7531,94.5913 224.7601,94.6061 224.8981,94.8948 224.9687,95.0904 224.9825,95.2563 224.9863,95.3729 224.9559,95.5966 224.8998,95.846 224.8816,95.9018 224.8619,95.998 224.8328,96.0966 224.8037,96.1952 224.7363,96.3542 224.7026,96.4435 224.6689,96.5328 224.6221,96.6478 224.586,96.8925 224.6165,97.1888 224.6333,97.2624 224.6471,97.3096 224.659,97.348 224.6748,97.401 224.7294,97.5743 224.7415,97.6265 224.7573,97.674 224.7964,97.8128 224.8179,97.909 224.8218,98.0974 224.7929,98.5145 224.7504,98.784 224.6579,99.0681 224.6176,99.1716 224.5773,99.2752 224.5232,99.4011 224.5161,99.4307 224.5155,99.4431 224.505,99.4747 224.4368,99.6329 224.3114,99.836 224.2836,99.878 224.2179,99.9623 224.1105,100.2017 224.0146,100.5549 223.9121,100.9565 223.7958,101.4839 223.6974,102.031 223.6755,102.1935 223.6511,102.5173 223.6481,102.6547 223.6459,102.7918 223.7266,103.2025 223.8013,103.4287 223.8309,103.5036 223.8986,103.6459 223.9501,103.7695 223.9721,103.82 223.981,103.8405 224.0816,104.0207 224.1551,104.1265 224.1605,104.1338 224.1686,104.1442 224.2568,104.2963 224.2664,104.3982 224.2483,104.5692 224.2277,104.7129 224.2021,104.8622 224.1971,104.8812 224.1828,105.0067 224.1646,105.1497 224.1464,105.2927 224.1114,105.5613 224.023,105.8506 223.8858,106.2728 223.8733,106.3767 223.8669,106.6687 223.8583,106.829 223.8528,106.9305 223.8521,106.9519 223.8273,107.0466 223.8131,107.0996 223.7869,107.162 223.7663,107.197 223.7658,107.1983 223.7343,107.2823 223.7091,107.3609 223.5983,107.5672 223.5256,107.7796 223.5205,107.812 223.4914,107.9992 223.5032,108.1514 223.5087,108.1735 223.5427,108.3238 223.6168,108.5734 223.7058,108.8341 223.7257,108.881 223.7682,109.0696 223.7579,109.2164 223.7435,109.2748 223.7416,109.2922 223.7413,109.2931 223.7413,109.2966 223.7417,109.3288 223.7203,109.4085 223.7031,109.4782 223.6965,109.5016 223.6929,109.514 223.6641,109.6243 223.6492,109.6612 223.6226,109.7556 223.6076,109.8082 223.5931,109.8779 223.5889,109.9386 223.5874,109.9668 223.5731,110.0367 223.5591,110.2048 223.5098,110.4248 223.3534,110.6695 223.2938,110.7384 223.1926,110.9173 223.1797,110.9411 223.141,111.002 223.1078,111.0608 223.0681,111.1139 222.9464,111.3456 222.7943,111.5729 222.7537,111.6118 222.6844,111.6631 222.6596,111.6794 222.6349,111.6958 222.4748,111.7788 222.3901,111.807 222.1628,111.9435 221.7936,112.1506 221.5783,112.2577 221.4789,112.3088 221.1273,112.4151 220.9642,112.4797 220.8356,112.6071 220.8158,112.6346 220.8129,112.6392 220.777,112.6802 220.6853,112.7863 220.6347,112.8416 220.5306,112.9462 220.4946,112.9993 220.471,113.071 220.4508,113.1388 220.4324,113.2271 220.4224,113.2884 220.4371,113.359 220.4496,113.4314 220.4446,113.4817 220.399,113.5748 220.3634,113.6268 220.3172,113.8871 220.3106,114.1055 220.2843,114.228 220.253,114.3046 220.2264,114.353 220.0314,114.6505 219.8873,114.9563 219.7201,115.1612 219.686,115.203 219.4478,115.4032 219.1784,115.5627 219.1515,115.5762 219.0684,115.6213 219.024,115.6432 218.991,115.6627 218.8407,115.7142 218.6936,115.7752 218.5565,115.8585 218.4831,115.9077 218.4051,115.9617 218.2656,116.0422 218.2367,116.0599 218.1583,116.1273 218.083,116.2039 217.8588,116.5235 217.6025,116.956 217.5831,116.9916 217.4592,117.2833 217.4161,117.4187 217.3936,117.5104 217.3916,117.6646 217.3299,117.8327 217.2681,118.0008 217.1473,118.2303 217.0156,118.5344 216.9723,118.6341 216.9071,118.9695 216.8466,119.1629 216.7792,119.3536 216.648,119.6805 216.5844,119.7939 216.4007,120.1566 216.3205,120.3387 216.2747,120.4147 216.0455,120.9027 215.6151,121.8189 216.3382,123.3113 216.4926,123.6299 216.7703,124.2031 220.1969,131.2751 221.5433,134.0539 222.4264,135.8767 222.5182,136.066 222.9704,136.6848 223.4216,137.3021 226.1166,140.9896 226.7027,141.7914 226.7423,141.8457 227.4207,142.7739 228.5908,143.5155 229.8973,144.3435 231.2037,145.1715 233.5456,146.6558 237.322,148.6737 238.307,149.2 241.6306,150.9759 242.4343,151.4054 243.9908,152.2371 245.4975,152.2324 246.0098,152.2307 246.7509,152.2284 248.4189,152.2231 250.828,152.2155 252.1146,152.2115 252.8724,152.2091 253.4298,152.2073 255.9539,152.1993 257.0599,153.0319 257.5876,153.4291 274.3187,166.024 278.6394,169.131 284.271,173.5551 284.0564,174.134 283.8521,174.809 283.4819,177.6341 283.1783,180.0512 282.8293,181.9697 282.6653,183.1782 282.4972,183.6303 282.1464,184.2659 280.7622,185.3657 278.6862,186.97 278.0291,187.5522 277.2597,188.5108 275.8938,190.5652 275.2261,191.8643 274.7423,192.927 274.3611,193.9792 274.1513,195.955 274.2227,196.896 274.1849,197.9973 274.0436,198.8064 273.7995,199.689 273.1318,201.2448 271.5231,203.0423 269.5595,204.5618 268.6093,205.15 267.9871,205.6404 267.4138,206.3056 266.8641,207.1659 266.6685,208.0144 266.4999,208.9634 266.424,210.5342 266.5802,211.165 266.5909,211.6306 266.533,212.0219 265.9839,213.2681 265.301,214.5822 264.8608,215.3525 264.4056,216.1832 264.1263,216.5859 263.7378,216.7873 263.2451,216.8355 262.5482,216.6692 261.9056,216.5825 261.2034,216.5608 260.6088,216.4597 259.959,216.5004 258.8663,216.8779 257.5763,217.6029 255.2544,218.3279 253.1753,218.5545 252.2538,218.5952 251.3086,218.5091 250.4136,218.6137 249.5937,218.781 248.9768,218.8962 248.5511,219.1204 248.1824,219.4003 247.0897,220.3367 246.164,221.5148 245.481,222.6475 244.9651,223.6745 221.9315,221.0028 220.0937,220.7753 219.9716,220.752 219.963,220.7504 217.3263,220.2473 214.0343,219.3831 207.9821,217.7941 203.333,216.5735 186.4883,212.151 182.4394,211.088 176.7587,209.5966 175.3254,209.2203 173.5438,208.7525 173.5147,208.7449" stroke="black" /><polygon fill="none" points="248.5769,249.8314 249.0626,252.9573 249.7607,255.3432 250.6864,258.016 250.8989,259.7676 250.8989,261.1266 250.3527,262.398 250.1844,262.6732 249.8595,262.9961 249.6543,263.1626 249.4572,263.2557 249.1542,263.3564 248.7672,263.405 248.4039,263.3911 248.0003,263.3312 247.4083,263.2264 246.7347,262.9323 246.4237,262.845 246.2673,262.784 246.082,262.7513 245.8759,262.7941 245.6776,262.9064 245.4068,263.0694 245.198,263.2246 245.0258,263.452 244.4383,264.7331 243.5082,266.5324 243.2252,267.4193 243.0225,268.3141 243.3109,270.0204 243.8572,273.4781 243.9938,275.5164 243.9179,278.1436 244.3428,279.5025 245.4203,281.0123 246.1943,282.3561 246.3612,283.5941 245.8149,285.6173 244.616,288.9388 244.4642,290.4184 245.132,292.0489 246.4978,294.0115 248.0154,295.8232 249.2599,297.9972 250.5043,300.0805 251.1113,301.3486 251.1721,302.194 250.9713,303.2364 250.474,304.1868 249.3206,305.5756 247.4387,307.0853 246.0729,308.4741 244.7916,310.7598 243.8875,312.1236 243.7054,312.4896 243.6149,312.7012 243.5658,312.9501 243.5222,313.3314 243.5401,313.6534 243.605,313.9388 244.4946,315.237 209.2304,315.5574 179.7439,315.6413 172.6547,315.6607 170.7141,315.6658 146.8289,315.7289 142.8402,315.7949 120.4709,316.1647 103.015,316.2565 102.7493,316.2578 98.7951,316.2784 98.8004,315.1976 98.5634,314.7698 97.5307,313.9794 97.4542,313.5989 98.2281,312.5979 98.4463,312.1216 98.2258,311.662 97.3879,310.9191 96.9634,310.1267 96.8682,308.8902 97.1039,308.7148 97.4747,308.6825 99.4363,309.5973 100.2552,309.5001 100.0651,307.9457 100.1483,307.3431 100.4426,306.8826 100.8133,306.5014 101.9947,306.2599 102.365,305.8309 103.3869,305.8121 103.6229,305.7008 103.5513,303.9403 103.3202,302.7197 104.3795,301.9389 105.2643,300.4947 104.8069,299.8137 104.2566,299.3864 104.1194,298.5784 103.7468,298.0075 103.7289,297.7069 104.4458,297.4351 104.5297,297.0382 103.565,296.3747 103.5048,295.9307 103.6897,295.5181 103.909,295.422 105.0913,295.4825 105.7575,295.2904 105.8764,295.2016 106.1625,294.9879 106.3805,294.6067 106.1154,293.2275 106.3003,293.021 107.921,292.8425 108.2493,292.4764 108.2655,292.0805 108.0617,291.7159 106.9634,291.2726 106.4452,290.2456 105.7353,289.9137 105.3363,288.9633 104.9471,288.774 104.5079,288.8383 103.9848,288.7285 103.6463,288.4761 103.2472,287.6839 103.3643,287.2237 103.785,286.6512 103.8849,286.144 103.3339,285.1305 102.9756,283.8618 102.7386,283.5141 101.6161,283.6915 100.8215,283.3285 100.4988,282.5841 100.4697,281.1408 99.6574,280.397 100.2706,279.2695 100.1607,275.7011 101.3324,275.0643 101.4671,274.8734 101.4824,274.3182 101.0086,273.8435 100.5593,273.1152 100.4392,272.4338 99.5266,272.0236 99.0947,271.5652 97.9458,271.4243 97.3055,271.6163 96.2685,272.5052 95.5095,272.715 94.3384,273.7653 93.5277,273.6088 92.4964,273.0247 91.8798,272.883 91.0025,273.1704 90.5474,273.5523 90.1581,273.1572 89.6599,272.9359 88.9267,272.8889 88.1457,270.4718 88.1647,269.1253 87.9971,268.2465 87.4612,267.8965 86.9474,267.1806 86.6127,267.5732 86.2033,267.5919 85.4939,266.8324 84.8797,265.1944 84.2577,264.5519 84.2391,263.9362 85.4748,262.946 86.2122,261.9871 86.2013,261.7733 88.1615,258.7373 88.1432,257.3542 88.7864,257.1023 89.6399,257.0152 90.2549,256.5416 91.8897,254.7107 91.7119,253.6035 92.1419,252.9337 92.3472,252.0742 92.1044,250.6111 91.3693,249.9126 90.2079,249.1359 90.0855,247.8655 89.6596,246.9241 88.5639,246.6691 87.951,246.7988 87.3831,247.3538 87.0102,246.8448 86.1773,246.6752 85.8026,245.7394 86.0632,244.9298 87.0687,244.118 87.2417,243.4362 87.2187,242.5843 86.6451,241.99 85.0303,241.7778 84.3482,241.4425 84.1428,240.2788 83.9599,239.242 83.7613,239.2389 83.7484,238.4625 82.5448,238.0816 81.4485,237.8715 80.66,237.9161 80.1759,237.7914 79.6743,237.6623 79.6186,237.5915 78.9718,236.7701 78.1166,236.1331 77.2397,235.9224 76.014,235.9677 75.4657,235.5857 75.2913,235.2895 75.2875,234.2663 75.0664,233.5853 74.4448,232.9008 73.7975,232.7949 72.8087,232.2277 72.3007,230.3979 71.7778,230.3988 71.3382,230.6984 71.2648,230.6789 70.2273,230.403 68.0506,229.2577 67.4806,228.8326 67.6531,227.8961 67.4976,226.8313 66.4435,225.5981 66.1794,224.876 66.7042,224.4912 67.6886,224.1907 68.3444,223.5928 68.2542,222.5277 66.8267,220.7428 66.8256,220.1892 67.4815,219.6766 67.502,219.1232 67.2824,218.7403 67.0471,218.6565 66.6619,218.1999 65.9308,218.207 65.0475,217.8519 64.9157,218.1376 64.852,218.2758 64.9406,219.1286 64.81,219.1008 64.156,218.9615 61.8059,217.3478 60.1179,217.3532 58.8102,218.3323 54.4561,217.6202 54.0773,217.2367 54.1641,216.9959 54.3384,216.5126 54.3381,216.3331 54.3377,216.0833 54.3374,215.916 54.2054,215.7887 54.1606,215.8449 53.9001,216.1721 53.6811,216.1731 53.5705,215.7045 52.8686,215.2804 52.2997,215.2816 51.2727,216.1359 50.6172,216.9461 50.1959,216.8444 49.3344,216.6362 48.6574,216.5449 48.1076,216.4707 47.7465,216.422 47.2665,216.3572 46.9152,215.8465 46.6865,214.9279 46.5245,214.7744 46.3985,214.655 46.2018,214.4686 45.6871,213.981 45.5274,213.8296 45.5181,213.8208 45.0529,213.6777 45.0166,213.6665 45.0141,213.6658 44.8977,213.6299 44.2941,213.7942 44.0607,213.8577 43.8273,213.9212 43.2744,214.2359 42.7415,214.7512 42.7131,214.7786 42.5063,215.0822 42.2996,215.3858 41.9623,215.8811 41.6921,215.9546 41.4218,216.0281 41.1018,215.9828 40.6899,215.9244 40.2616,215.8637 39.5969,215.7694 38.6828,215.9071 38.3395,215.6157 38.002,214.8015 37.5633,214.3763 35.8536,213.528 35.6616,213.1912 36.1353,212.4639 36.2228,212.0369 35.9552,211.6933 35.4539,211.2852 34.7101,210.6797 33.5521,210.3823 32.7522,209.6738 31.8407,208.5175 30.4111,207.1084 29.885,207.1523 29.3612,207.7067 28.8138,207.5383 26.9315,206.5204 26.2948,206.6485 25.7683,206.5219 25.1989,205.6307 25.0666,205.9269 24.6946,205.7996 24.7738,205.4006 24.5109,204.9859 25.0358,204.6698 24.6994,204.363 24.0522,204.2272 22.8198,204.774 21.8491,204.217 19.7723,203.8794 19.8703,203.6778 19.2939,203.2241 19.0951,203.142 19.1052,203.0899 19.2854,203.1545 19.3016,203.1157 19.3225,203.0656 19.3531,202.9926 19.3911,202.769 19.3309,202.5183 19.255,202.31 19.3368,202.145 19.476,202.1112 19.5554,202.0367 19.7448,201.8249 20.1535,201.5209 20.2965,201.4446 20.7038,201.3844 20.773,201.2365 20.7233,200.9062 20.6625,200.4729 20.6093,200.2435 20.3839,200.0652 20.185,200.06 19.9861,200.1766 19.9933,200.1989 19.9166,200.2435 19.7322,200.0036 19.7149,199.9098 19.7997,199.7667 19.8809,199.7008 19.977,199.6127 19.4313,199.1104 19.2676,199.0698 18.9391,198.9543 18.7334,198.9824 18.5992,199.1521 18.3727,199.4033 18.2859,199.3356 18.0227,198.6273 18.0117,198.4643 18.0778,198.2801 18.1699,198.202 18.1668,198.1014 17.7894,197.854 17.3791,197.7033 17.2545,197.4853 17.2058,197.217 16.8782,197.0381 16.5643,196.9541 16.1558,197.0409 15.9099,196.9669 15.8298,196.8218 15.8414,196.6077 15.7386,196.5368 15.3114,196.4419 14.8644,196.4433 14.3479,196.289 14.0527,196.3502 13.9207,196.5088 13.882,196.7293 13.9332,196.8821 13.9948,196.9306 13.984,197.0181 13.7902,197.0478 13.444,196.8946 13.3384,196.8917 13.2355,196.5647 13.3371,196.2038 13.2097,195.8656 12.8851,195.7846 12.7022,195.8522 12.6255,196.1445 12.494,196.3245 12.3949,196.3418 12.2116,196.3142 11.8809,195.9645 11.7827,195.8885 11.7912,195.8364 11.8711,195.644 11.8239,195.515 11.6729,195.4253 11.4752,195.4615 11.1791,195.3201 10.9056,195.119 10.7945,194.9189 10.7836,194.7119 10.8662,194.4897 10.7986,194.3946 10.6724,194.343 10.5107,194.3771 10.4202,194.4521 10.3048,194.6548 10.218,194.6852 10.0829,194.6428 9.8033,194.3652 9.6183,194.0835 9.4649,193.9294 9.2644,193.7177 9.2401,193.5655 9.3325,193.2834 9.4353,193.143 9.6057,193.0346 9.5963,192.9325 9.4637,192.8823 9.3806,192.8991 9.3547,193.0017 9.2708,193.0246 9.0077,192.9173 8.9158,192.8384 8.9496,192.7915 8.9644,192.5063 9.1078,192.3205 9.1306,192.2385 8.8582,192.093 8.3921,192.0161 8.0993,191.8017 7.8805,191.5395 7.8693,191.3634 8.0813,190.911 8.0783,190.7344 7.9198,190.6338 7.5418,190.6434 7.4792,190.5508 7.4128,190.3277 7.488,190.0544 7.7165,189.7722 7.6929,189.608 7.6447,189.5907 7.5823,189.6216 7.4984,189.7965 7.3185,189.8563 7.2666,189.8152 6.9447,189.9432 6.8172,189.6752 6.4194,189.4768 6.0484,189.4254 5.8168,189.2796 5.7162,189.0868 5.83,188.8634 5.8153,188.7854 5.7011,188.6214 5.4506,188.4665 5.3526,188.2345 5.5071,188.1086 5.5863,187.9494 5.5496,187.8453 5.2287,187.6864 5.1271,187.7163 4.9762,187.6544 4.8661,187.5257 4.9082,187.383 5.116,187.2213 5.4783,187.0156 5.5606,186.85 5.5298,186.7146 5.2816,186.6448 5.0476,186.7398 4.9489,186.7446 4.8109,186.6958 4.6997,186.5138 4.7791,186.2786 4.9099,186.1684 5.2636,185.9974 5.3874,185.9022 5.3606,185.5736 5.1447,185.3511 5.002,185.0905 5.1408,184.5633 5.3104,184.2188 5.6067,184.0103 5.9498,183.9684 6.1611,183.9068 6.1953,183.7606 5.9337,183.4221 5.864,183.1896 5.8775,182.818 6.0761,182.6601 6.1906,182.5259 6.2237,182.3517 5.8077,181.6416 5.5779,181.4123 5.4299,181.4149 5.1749,181.5534 5.1566,181.6229 5.026,181.6685 4.9222,181.4968 4.9183,181.305 4.812,180.6715 4.8299,180.5583 4.8982,180.414 5.0132,180.3382 5.2477,180.2867 5.349,180.1937 5.4063,180.1051 5.3925,179.9262 5.3283,179.8245 5.18,179.7607 5.0263,179.7964 4.847,179.836 4.7331,179.8414 4.5995,179.8103 4.4879,179.7061 4.4784,179.6967 4.8246,179.1388 5.1505,178.647 5.4512,178.3823 5.4369,177.8183 4.3367,176.6157 4.7116,175.4161 3.9606,174.7335 4.3472,174.4397 3.59,173.7583 3.158,173.4051 3.3737,173.0315 3.7866,172.9328 4.202,172.6391 4.0798,172.1897 4.6329,171.9485 4.7537,171.4349 5.2885,171.4177 5.6191,171.0416 5.6001,170.6185 5.772,170.3415 6.1186,169.7829 6.1852,169.4134 6.5489,169.3748 6.9274,168.8845 6.6093,168.5001 6.648,168.2968 6.7282,167.8756 7.0478,167.3835 7.4534,166.8347 7.2911,166.0215 6.5212,164.9479 5.7118,164.2662 5.6006,163.5077 5.4165,163.0621 5.0726,162.7638 5.0302,162.2559 4.0224,161.4978 4.0299,160.9609 4.3488,160.3889 3.8063,159.9794 3.6767,159.5896 4.0032,159.3544 4.1341,158.9844 3.7017,158.5738 3.3133,158.6441 2.9234,157.2734 2.3581,156.8533 1.8313,156.4618 2.1303,156.1403 1.837,155.6975 1.3548,155.6861 0.9833,155.4433 0.7153,154.1834 1.1308,153.8585 1.0883,153.4941 0.2945,153.1226 0.0432,152.5097 0.3974,152.0201 1.285,151.6814 0.733,151.0211 1.1385,150.4453 1.52,150.1486 1.2775,149.707 1.3802,149.3076 1.7172,149.1854 2.1226,148.8051 2.2425,148.0953 1.9511,147.7654 1.6129,147.6351 1.5111,147.2441 1.6286,146.6751 0.7529,146.2798 0.5869,145.6358 0.6834,145.1831 0.3127,144.7992 0.5187,144.2288 0.0,143.1696 0.0772,142.7756 0.1402,142.1799 0.1357,142.0643 0.1204,141.6763 0.4312,141.4948 1.0176,141.5323 1.2861,141.1294 1.2582,140.0575 0.9323,139.5862 0.43,139.7161 0.0259,138.6478 0.036,138.0076 0.3187,137.038 0.691,136.52 1.0272,135.635 1.4162,135.2827 1.5303,135.0732 1.6822,134.7941 2.5807,133.8643 3.1044,133.5071 3.6924,133.3203 3.8654,132.7508 3.912,132.453 3.9589,132.1549 4.3047,132.3703 4.7808,132.3546 4.9705,131.9812 4.6148,131.4833 4.9787,131.2749 5.6496,131.3393 5.6061,130.7747 5.5042,130.3261 6.4784,128.9416 7.5051,128.5151 7.756,127.688 8.0587,127.198 8.4476,126.9901 8.4805,126.4536 9.6619,126.3844 10.1523,125.4473 10.1972,125.4358 10.6978,125.3082 12.173,125.7684 12.6982,125.4698 13.2437,125.566 13.5103,125.2459 13.6055,124.7355 14.0613,124.8637 14.4343,125.1024 15.3476,124.6797 16.0979,123.5014 16.4094,123.2909 17.6264,123.5068 18.2474,123.7982 18.523,123.536 18.4189,123.0018 18.6872,122.43 18.9284,122.1396 20.3054,121.3663 20.5626,121.2218 20.785,121.0969 21.1926,121.0696 21.3064,121.2293 21.5934,121.6663 22.2957,122.7359 22.7403,122.8503 22.8738,122.8846 23.9107,123.1515 25.6663,123.6032 28.8238,124.4157 29.6658,124.6324 33.4734,125.6122 34.1052,125.7748 36.0558,126.2767 41.5272,127.6847 42.3945,127.9079 43.2619,128.1311 43.8425,128.2805 44.383,128.4195 44.5401,128.46 44.4882,128.5847 44.0897,128.7444 43.7408,128.8843 43.186,129.1066 40.7749,130.0729 39.382,130.6312 39.0636,130.7588 38.9761,130.7938 38.9934,130.8492 39.031,130.906 39.151,131.0691 39.2168,131.1403 39.2825,131.2116 39.2877,131.2187 39.4481,131.4381 39.6134,131.694 39.6279,131.7165 39.6937,131.8618 39.7369,131.9573 39.8128,132.1603 39.8798,132.3592 39.959,132.6439 39.9629,132.6641 39.9989,132.8492 40.0415,132.9722 40.1443,133.1492 40.1913,133.2531 40.26,133.4194 40.2681,133.4389 40.3595,133.6969 40.3882,133.8014 40.4045,133.8607 40.4096,133.9286 40.4686,134.0968 40.7182,135.1968 40.7781,135.4347 40.8038,135.5182 40.8596,135.6996 40.9357,135.9104 41.2439,136.9006 41.3344,137.1364 41.4249,137.398 41.4595,137.5739 41.7199,138.2864 41.7883,138.4904 41.8636,138.749 41.9184,138.9599 42.0059,139.123 42.0285,139.1652 42.0962,139.3109 42.1044,139.3541 42.1288,139.3999 42.2072,139.5077 42.2504,139.5643 42.2964,139.629 42.3423,139.6937 42.7517,140.1702 43.249,141.0164 44.8725,143.7786 46.133,145.9231 47.2351,147.7982 47.32,147.9427 47.617,148.448 48.3372,149.6733 49.3816,151.4503 49.5115,151.6713 49.8204,152.1969 49.8979,152.3286 49.9743,152.4587 50.0892,152.5016 50.1547,152.4872 50.3998,152.4335 50.513,152.3904 50.6261,152.3474 50.9228,152.256 51.061,152.1928 51.1992,152.1295 51.5641,151.9591 51.7753,151.8228 51.8465,151.776 52.0742,151.6263 52.3564,151.4385 52.651,151.3275 52.8005,151.2712 53.2301,151.1093 56.7301,149.7905 58.104,149.2732 59.1236,148.8893 59.478,148.7558 60.4205,148.4009 60.7419,148.2799 61.3682,148.0441 62.1241,147.7594 63.7488,147.1477 67.7821,145.6306 73.3807,143.5246 78.9793,141.4186 79.8347,141.0968 79.891,141.0756 80.1226,140.9885 80.3098,140.9302 80.6044,141.1267 80.7399,141.2329 81.3067,141.6771 84.3815,143.5182 85.8893,144.3664 87.1147,145.0556 90.3794,146.9157 92.3426,147.9744 94.0046,148.8707 94.2134,148.9846 94.4222,149.0985 95.1348,149.295 95.5564,149.4113 95.6039,149.4229 95.6187,149.4256 95.6735,149.4378 95.7245,149.5183 95.725,149.5448 95.7256,149.5712 95.7109,149.6176 95.6829,149.7062 95.6829,149.7085 95.6855,149.8109 95.686,149.8429 95.6963,149.8943 95.7031,149.9573 95.6723,150.0671 95.6684,150.0971 95.6758,150.1669 95.6831,150.2366 95.6816,150.2859 95.6802,150.3351 95.6797,150.4686 95.6694,150.5657 95.6401,150.7408 95.629,150.8094 95.5934,151.051 95.5579,151.3264 95.5735,151.5405 95.6256,151.6965 95.6657,151.8054 95.7058,151.9143 95.7371,152.0142 95.7632,152.1091 95.7792,152.1967 95.798,152.258 95.811,152.3575 95.8059,152.4094 95.8158,152.5023 95.8299,152.6037 95.844,152.7051 95.8719,152.8565 95.8721,152.8764 95.8892,153.0053 95.881,153.3474 95.8811,153.5887 95.8829,153.7468 95.8916,153.8238 95.9073,153.9643 95.917,154.0369 95.9332,154.1206 95.9397,154.1318 96.0806,154.2087 96.1407,154.2412 96.1632,154.2562 96.1912,154.272 96.2215,154.2856 96.2642,154.3023 96.418,154.3626 96.7097,154.3964 96.8397,154.4011 96.9182,154.4167 96.9967,154.4324 97.1185,154.4879 97.233,154.5397 97.3596,154.6023 97.4571,154.6553 97.6085,154.7862 97.6303,154.8054 97.7476,154.9403 97.8036,155.0087 97.8689,155.1067 97.9253,155.1795 98.0255,155.2686 98.0389,155.2743 98.1935,155.3514 98.2323,155.369 98.3044,155.4037 98.4561,155.4545 98.6019,155.4955 98.6597,155.5127 98.7758,155.4864 98.8892,155.4663 98.9713,155.4697 99.0247,155.4841 99.1108,155.5139 99.1707,155.5399 99.2462,155.5928 99.3807,155.7527 99.4806,155.859 99.5395,155.9264 99.5737,155.9664 99.5894,155.9852 99.6155,156.0231 99.6751,156.1195 99.7256,156.1931 99.7739,156.2541 99.8276,156.2977 99.8565,156.3223 99.9245,156.3692 99.9558,156.3823 100.0122,156.4106 100.2328,156.5408 100.2487,156.5466 100.3615,156.6128 100.4517,156.6518 100.5418,156.6907 100.7312,156.7774 100.7901,156.8013 100.9452,156.8692 101.206,156.981 101.3518,157.0457 101.4691,157.1018 101.4851,157.1086 101.7164,157.227 102.0203,157.3579 102.1832,157.4318 102.4307,157.5507 102.6751,157.6822 102.7223,157.7076 102.8008,157.7346 102.9584,157.7899 103.1759,157.8844 103.2274,157.9092 103.2379,157.9143 103.2696,157.9284 103.4025,157.9659 103.66,157.9896 103.7538,157.9834 103.8633,157.968 104.0005,157.9616 104.1261,157.9316 104.1672,157.9249 104.3519,157.8989 104.4735,157.8809 104.6373,157.7946 104.6518,157.783 104.7206,157.7368 104.8095,157.7079 104.9058,157.6882 104.912,157.6876 104.9528,157.6897 105.0468,157.7017 105.0662,157.7048 105.104,157.7168 105.1557,157.7417 105.2074,157.7666 105.3889,157.7756 105.4806,157.7767 105.5333,157.7727 105.5984,157.7653 105.6103,157.7633 105.656,157.753 105.7363,157.724 105.8153,157.6994 105.9151,157.65 106.124,157.6346 106.2029,157.6343 106.4014,157.6337 106.5904,157.6317 106.7438,157.6246 106.9674,157.6266 107.2009,157.6563 107.318,157.7051 107.4075,157.7497 107.5107,157.7716 107.5827,157.7844 107.6546,157.7972 107.7211,157.8086 107.7655,157.8142 107.8196,157.7929 107.9042,157.6328 107.9751,157.4721 107.9765,157.4717 107.9906,157.4083 108.0195,157.3285 108.0484,157.2487 108.1138,157.134 108.1632,156.8879 108.1692,156.8594 108.249,156.6929 108.2728,156.6511 108.3853,156.4773 108.4512,156.3772 108.5013,156.3104 108.5172,156.2958 108.655,156.244 108.8613,156.1522 108.992,156.1022 109.0531,156.0675 109.1917,155.9861 109.2765,155.839 109.3409,155.7328 109.4545,155.5987 109.4921,155.5677 109.4973,155.5489 109.9611,155.7126 110.4248,155.8762 111.9625,156.4191 118.6475,158.7789 118.8355,158.8452 124.0468,160.6848 124.3606,160.7956 124.4863,160.9877 125.0048,161.7802 125.2267,162.1194 125.9854,163.2791 128.0946,166.5032 128.345,166.8859 128.5954,167.2687 130.7355,170.5399 132.3734,173.0435 134.2826,173.0816 141.1256,173.2181 145.0332,173.296 145.41,173.3035 146.5283,173.3258 146.5957,173.3688 147.3976,173.8795 148.1996,174.3902 149.8709,175.4546 156.9737,190.7291 157.2485,191.32 157.5199,191.9036 159.473,194.3928 160.0285,195.1007 165.1118,201.5792 169.1826,206.7671 170.0131,207.8255 171.4411,208.2005 171.9778,208.3414 172.5591,208.494 173.5147,208.7449 173.5438,208.7525 175.3254,209.2203 176.7587,209.5966 182.4394,211.088 186.4883,212.151 203.333,216.5735 207.9821,217.7941 214.0343,219.3831 217.3263,220.2473 219.963,220.7504 219.9716,220.752 220.0937,220.7753 221.9315,221.0028 244.9651,223.6745 244.2518,225.2755 244.0937,225.8732 244.0393,226.4535 244.0033,226.7412 244.0255,226.9918 244.0498,227.1947 244.1152,227.3446 244.2249,227.4455 244.3635,227.5405 244.7222,227.7011 245.8301,228.0846 246.6041,228.5679 247.5753,229.2866 248.1217,229.7308 248.6546,230.5402 248.9867,231.2864 249.4572,232.7362 249.6089,234.2616 249.4864,235.0484 249.275,235.7114 248.5921,237.2065 248.1368,238.3241 247.6209,239.2604 246.9379,241.284 247.0027,242.2758 247.036,242.7868 247.0897,243.6097 247.2898,244.5219 247.5602,245.7541 248.2886,247.8079 248.5769,249.8314" stroke="black" /><polygon fill="none" points="232.8801,470.7431 210.6868,461.4463 209.0937,460.7785 206.7906,459.8131 199.5279,456.7681 182.3121,449.547 180.8142,449.7891 175.8821,450.5861 170.1812,451.1686 169.2989,451.2587 163.8935,451.8107 163.8953,451.7953 163.9066,451.6388 163.9179,451.4978 163.9204,451.468 163.9292,451.3647 163.9524,451.2786 163.9618,451.2641 163.9953,451.2119 164.0343,451.1785 164.0734,451.1451 164.2649,450.9589 164.3312,450.8726 164.3661,450.7747 164.3812,450.5907 164.3844,450.3715 164.3763,450.2737 164.3443,450.0469 164.2967,449.8631 164.2573,449.7849 164.1629,449.6483 164.0763,449.492 163.9777,449.3722 163.7625,449.1838 163.6078,448.8984 165.5647,448.9147 166.8355,448.9253 169.5631,448.948 169.5857,448.9605 169.6296,448.9804 169.696,448.994 169.7449,448.9938 169.775,448.9887 169.8355,448.9871 169.905,448.9839 169.9929,448.9781 170.0519,448.9802 170.0803,448.9715 170.118,448.9596 170.1542,448.9476 170.1907,448.9168 170.2194,448.91 170.2402,448.9052 170.2611,448.9131 170.2773,448.9388 170.2758,448.9709 170.2967,448.9644 170.3255,448.945 170.3431,448.9273 170.364,448.9144 170.3848,448.9063 170.4105,448.8966 170.4426,448.874 170.4634,448.8514 170.4987,448.8353 170.5356,448.8271 170.5614,448.8383 170.6064,448.8397 170.6288,448.8252 170.6577,448.8235 170.6995,448.8234 170.7558,448.8296 170.8024,448.8391 170.8338,448.8722 170.8857,448.8694 170.9912,448.8673 171.0502,448.8903 171.0807,448.909 171.1281,448.8981 171.1611,448.8828 171.2003,448.8433 171.2288,448.82 171.2735,448.8083 171.2981,448.8059 171.3227,448.8036 171.3987,448.8061 171.447,448.8059 171.6088,448.8009 171.6713,448.798 171.7017,448.7872 171.7185,448.7469 171.8702,448.7115 172.0036,448.6793 172.1699,448.6063 172.3174,448.5252 172.5016,448.3865 172.5657,448.3248 172.6707,448.2041 172.7255,448.1331 172.8195,448.0125 172.8576,447.9536 172.8876,447.9166 172.96,447.8699 173.0529,447.8259 173.1513,447.7955 173.2415,447.7665 173.2811,447.7677 173.3084,447.754 173.3276,447.7416 173.3357,447.7252 173.3863,447.7031 173.4874,447.6591 173.5624,447.6069 173.6296,447.5466 173.7184,447.5067 173.8699,447.4091 173.9286,447.3584 174.0432,447.2596 174.1428,447.1704 174.1891,447.1333 174.2128,447.0752 176.2429,446.5307 176.1935,446.4746 176.0948,446.3625 175.9394,446.2285 175.8265,446.1001 175.7393,445.9598 175.6169,445.7893 175.5628,445.6712 175.5105,445.573 175.4783,445.4022 175.416,445.1515 175.4039,444.8936 175.3994,444.6376 175.3817,444.3503 175.3643,444.1653 175.3393,443.8831 175.3421,443.8134 175.3769,443.5747 175.39,443.5153 175.4589,443.2283 175.467,442.9956 175.4591,442.8459 175.4395,442.7348 175.4084,442.6753 175.3312,442.5107 175.2635,442.4281 175.1526,442.196 175.0579,442.0132 174.9588,441.7932 174.9618,441.7457 174.9518,441.6853 174.9419,441.6249 174.9413,441.4454 174.9448,441.3206 174.9873,441.1917 174.975,440.9706 174.8995,440.777 174.7978,440.6496 174.674,440.5487 174.5196,440.492 174.3872,440.4307 174.2437,440.3144 174.1001,440.1982 173.954,439.9784 173.8141,439.8433 173.7025,439.7368 173.5842,439.6193 173.4768,439.4887 173.3979,439.3908 173.33,439.319 173.3313,439.2249 173.3329,439.2002 173.3721,439.1728 173.4147,439.1505 173.4325,439.1274 173.4316,439.1121 173.4196,439.0942 173.3837,439.0781 173.3488,439.0782 173.3172,439.0732 173.2967,439.0648 173.2915,439.0383 173.2982,439.0076 173.322,438.9845 173.3441,438.9666 173.3683,438.9266 173.3561,438.892 173.2832,438.83 173.2145,438.7727 173.1381,438.7358 173.1007,438.6402 173.0574,438.5446 173.0258,438.4549 172.9102,438.34 172.7467,438.1883 172.7038,438.151 172.6618,438.142 172.6183,438.1422 172.5809,438.1537 172.5588,438.1523 172.5442,438.1309 172.5258,438.0944 172.5081,438.0471 172.4842,437.9823 172.4111,437.9304 172.28,437.8302 172.2393,437.7861 172.2158,437.7371 172.1924,437.6979 172.1886,437.6586 172.192,437.585 172.2065,437.5235 172.2273,437.4854 172.2505,437.4571 172.3106,437.425 172.4001,437.3645 172.4607,437.3188 172.4918,437.2304 172.5211,437.1276 172.5267,437.0466 172.5334,436.9967 172.5215,436.9702 172.5096,436.9438 172.4954,436.8936 172.4981,436.8365 172.5052,436.7477 172.4765,436.6587 172.4558,436.5169 172.4855,436.3355 172.4852,436.2309 172.4921,436.1263 172.5097,436.0 172.4841,435.9063 172.4185,435.7354 172.3459,435.6274 172.2952,435.5591 172.2299,435.4547 172.1863,435.3682 172.1931,435.2275 172.2038,435.1734 172.2467,435.0614 172.2393,435.0109 172.2246,434.928 172.2533,434.8702 172.271,434.7583 172.2993,434.5707 172.3132,434.4047 172.3559,434.2422 172.3607,434.0402 172.3488,433.9001 172.3685,433.7943 172.3969,433.7284 172.3939,433.6941 172.391,433.6598 172.3362,433.5313 172.3187,433.4227 172.2583,433.3228 172.1596,433.194 172.076,433.1435 171.9888,433.0894 171.9051,433.0207 171.8033,432.9521 171.6905,432.8582 171.5596,432.7716 171.4288,432.7103 171.298,432.6273 171.1413,432.4066 171.0174,432.1956 170.9618,432.0735 170.8843,431.9581 170.8159,431.8405 170.7839,431.759 170.7337,431.6639 170.645,431.569 170.613,431.4988 170.6106,431.4331 170.6212,431.3629 170.663,431.2803 170.7091,431.2257 170.7396,431.2 170.7842,431.1526 170.8186,431.1039 170.8363,431.0437 170.8323,430.9926 170.8064,430.9032 170.7445,430.8423 170.6879,430.807 170.6668,430.799 170.5894,430.775 170.5635,430.7558 170.5279,430.6995 170.51,430.6318 170.4991,430.5907 170.4795,430.5991 170.4298,430.6256 170.4019,430.6272 170.3669,430.6507 170.3494,430.6713 170.3159,430.7284 170.2867,430.7666 170.2488,430.815 170.2124,430.8678 170.1672,430.9324 170.1219,430.9574 170.0883,430.9721 170.0605,430.9927 170.0431,431.0264 169.9847,431.0764 169.9408,431.0999 169.8984,431.1044 169.8065,431.1029 169.5691,431.0677 169.5081,431.0571 169.4459,431.059 169.3836,431.0608 169.3045,431.0876 169.2511,431.1061 169.2003,431.1492 169.144,431.2626 169.084,431.376 168.9644,431.4891 168.8915,431.5483 168.7455,431.636 168.5288,431.7287 168.3217,431.859 168.2535,431.9441 168.1853,431.9868 168.1239,431.9893 168.1027,431.98 168.0484,431.9684 168.0248,431.9826 167.999,432.0275 167.9779,432.044 167.9356,432.043 167.8957,432.0128 167.849,431.9349 167.7982,431.9076 167.7286,431.931 167.6781,431.9776 167.5011,432.0922 167.4399,432.1177 167.2232,432.1277 167.0459,432.1706 166.9368,432.2261 166.7633,432.3371 166.6124,432.4225 166.5243,432.4681 166.4625,432.5088 166.4174,432.5781 166.3723,432.6402 166.3222,432.6523 166.2602,432.6477 166.2101,432.6431 166.1292,432.6495 166.1107,432.6668 166.0816,432.6961 166.0539,432.7453 166.0355,432.7997 166.0329,432.8369 166.0331,432.8793 166.0398,432.9125 166.0479,432.9443 166.0453,432.9615 166.0374,432.9788 166.0056,432.9882 165.9604,432.9857 165.9233,432.9898 165.9061,432.9938 165.8663,433.0059 165.8265,433.0126 165.7813,433.0022 165.7376,432.9996 165.7189,432.9745 165.6843,432.9536 165.656,432.9281 165.6276,432.9026 165.5657,432.8948 165.4903,432.8977 165.3873,432.9237 165.3362,432.9786 165.2973,433.0315 165.2806,433.0729 165.25,433.0929 165.2148,433.0976 165.1673,433.0917 165.103,433.0704 165.0356,433.0599 164.9835,433.0769 164.8936,433.1435 164.8875,433.181 164.8814,433.2216 164.8504,433.3029 164.8506,433.3654 164.7476,433.517 164.7071,433.5733 164.6325,433.6829 164.589,433.7829 164.5454,433.8143 164.5018,433.8551 164.3645,433.9055 164.2739,433.9245 164.1803,433.9435 164.0741,433.9782 163.9899,434.0191 163.8745,434.0757 163.7933,434.0915 163.734,434.1011 163.709,434.123 163.6936,434.1981 163.6187,434.2233 163.5718,434.2141 163.553,434.186 163.5665,434.1271 163.5366,434.1096 163.4857,434.1203 163.4418,434.1398 163.3743,434.132 163.321,434.1334 163.254,434.1361 163.2181,434.1524 163.1665,434.1567 163.078,434.1481 163.0298,434.1414 162.9684,434.1405 162.8798,434.1445 162.8037,434.1223 162.6963,434.0852 162.5477,434.0296 162.4915,434.0061 162.4641,434.0024 162.4163,434.0088 162.3747,434.0057 162.3427,433.993 162.3171,433.9931 162.3012,434.0043 162.2757,434.0444 162.2311,434.1037 162.1818,434.1773 162.1579,434.2078 162.1394,434.258 162.1268,434.3239 162.1109,434.3915 162.0821,434.4462 162.0695,434.5138 162.0697,434.5684 162.0778,434.615 162.095,434.6808 162.1137,434.7888 162.1199,434.8173 162.1098,434.8561 162.0835,434.9071 162.0756,434.9907 162.0998,435.0761 162.1277,435.1382 162.1209,435.1842 162.1003,435.2119 162.0501,435.2548 161.9288,435.3299 161.8403,435.4096 161.7425,435.5267 161.7004,435.7375 161.6368,435.8642 161.6034,435.9293 161.5434,435.9951 161.4901,436.0233 161.4392,436.0284 161.3572,436.0287 161.2235,435.9957 161.1111,435.9627 160.9775,435.954 160.8651,435.9574 160.7589,435.9699 160.6442,436.0082 160.6234,435.9331 160.6323,435.8625 160.6049,435.8216 160.5433,435.7854 160.5067,435.7582 160.4655,435.6968 160.4653,435.6399 160.4857,435.6034 160.506,435.5396 160.5058,435.469 160.4898,435.4326 160.4645,435.3734 160.4553,435.3484 160.4234,435.3235 160.3527,435.3009 160.3298,435.2896 160.3001,435.2487 160.2954,435.2032 160.2519,435.1282 160.228,435.097 160.2025,435.0801 160.1117,435.0521 160.0351,435.007 159.9485,434.9379 159.9328,434.8983 159.9327,434.853 159.9467,434.8119 159.9593,434.7553 159.9468,434.6778 159.9542,434.6452 159.9767,434.6126 159.9841,434.5812 159.964,434.5537 159.9276,434.54 159.8936,434.5176 159.8559,434.47 159.8168,434.3949 159.7903,434.3411 159.79,434.2622 159.8136,434.1844 159.847,434.1029 159.8754,434.0649 159.9401,434.0362 160.0128,433.9996 160.0538,433.9568 160.0821,433.9093 160.082,433.865 160.0454,433.8019 159.9772,433.7451 159.9106,433.7026 159.8204,433.6903 159.7539,433.6778 159.7288,433.6517 159.6952,433.627 159.653,433.6247 159.6033,433.5901 159.577,433.5282 159.5459,433.4383 159.5301,433.393 159.5297,433.3542 159.5388,433.3258 159.5519,433.3095 159.6137,433.2595 159.6437,433.2417 159.6517,433.2348 159.6814,433.2141 159.7089,433.198 159.7443,433.1841 159.7809,433.1726 159.8027,433.1713 159.8187,433.1587 159.8221,433.1438 159.838,433.106 159.8551,433.0796 159.8848,433.0531 159.8996,433.0279 159.9007,432.9993 159.896,432.9569 159.8867,432.9272 159.8866,432.8905 159.8899,432.8631 159.8967,432.8298 159.9104,432.8012 159.9298,432.7816 159.9443,432.7239 159.9446,432.7189 159.9368,432.6878 159.9223,432.6723 159.8816,432.6558 159.8132,432.6313 159.7468,432.6236 159.6785,432.6406 159.6301,432.6635 159.5896,432.7112 159.5789,432.7548 159.5532,432.7677 159.5086,432.7777 159.4819,432.7857 159.4483,432.8056 159.4359,432.8062 159.4236,432.8067 159.4106,432.7751 159.3957,432.7652 159.3333,432.7446 159.2588,432.6993 159.234,432.6826 159.1696,432.657 159.0705,432.6316 158.7688,432.4832 158.6227,432.4023 158.5374,432.3802 158.4921,432.34 158.435,432.2488 158.3907,432.1732 158.3781,432.1394 158.3677,432.0807 158.3382,432.0254 158.3189,432.004 158.2861,431.9815 158.2772,431.958 158.2513,431.9122 158.1879,431.8379 158.1218,431.7722 158.0787,431.7426 158.0308,431.7211 157.99,431.7122 157.9513,431.7066 157.9035,431.6977 157.8477,431.6717 157.7975,431.6321 157.6645,431.5204 157.6221,431.4754 157.5836,431.4202 157.5688,431.3564 157.56,431.3334 157.554,431.3111 157.5574,431.2801 157.5484,431.261 157.5325,431.2452 157.5085,431.229 157.4784,431.219 157.452,431.215 157.4235,431.2151 157.4032,431.2078 157.3691,431.1626 157.361,431.1179 157.3401,431.0799 157.3193,431.0442 157.3077,431.0335 157.2924,431.0284 157.2747,431.0242 157.212,431.0166 157.1737,431.0167 157.1271,431.0251 157.1127,431.0303 157.0714,431.0532 157.0208,431.075 156.9675,431.0893 156.9225,431.0902 156.8642,431.0838 156.8101,431.074 156.756,431.0641 156.7244,431.0346 156.6725,431.0051 156.627,430.9839 156.612,430.957 156.5377,430.9008 156.4875,430.8601 156.4532,430.8519 156.4142,430.8511 156.3697,430.867 156.3442,430.8918 156.323,430.911 156.2973,430.9286 156.2569,430.9369 156.2143,430.9346 156.1774,430.9288 156.131,430.9031 156.0609,430.859 155.991,430.8371 155.9092,430.8237 155.8308,430.8239 155.7575,430.8242 155.7268,430.8021 155.6125,430.7656 155.537,430.7572 155.455,430.7553 155.3332,430.7643 155.2727,430.7742 155.0724,430.8115 155.0032,430.8305 154.9117,430.853 154.6552,430.8814 154.5828,430.8828 154.5131,430.8843 154.4528,430.8734 154.3805,430.8712 154.3131,430.8652 154.2652,430.8507 154.2209,430.8361 154.1632,430.802 154.1093,430.796 154.054,430.7754 154.0221,430.7509 154.0047,430.6995 154.0059,430.6578 154.012,430.616 154.0285,430.6014 154.045,430.5926 154.0751,430.5895 154.0937,430.6022 154.1074,430.6361 154.1172,430.6614 154.124,430.6788 154.1368,430.6934 154.1542,430.7059 154.1737,430.7088 154.2039,430.7049 154.2388,430.6862 154.2563,430.6648 154.2727,430.6356 154.2775,430.6162 154.2764,430.5831 154.2548,430.518 154.2302,430.4442 154.1714,430.3749 154.1389,430.3488 154.1063,430.3351 154.0639,430.324 154.0326,430.3191 154.0188,430.3104 154.0026,430.303 153.9838,430.2905 153.9388,430.2907 153.8889,430.2846 153.8551,430.2722 153.8389,430.2672 153.7851,430.2762 153.68,430.3139 153.6578,430.3196 153.5728,430.3092 153.5456,430.2933 153.5231,430.2424 153.4832,430.2138 153.4352,430.1917 153.4129,430.1726 153.3985,430.1487 153.3952,430.1153 153.4035,430.0793 153.409,430.0365 153.4189,430.0036 153.4204,429.9808 153.4059,429.9451 153.3701,429.9166 153.3359,429.9025 153.3143,429.8954 153.2716,429.9012 153.2658,429.9013 153.2501,429.9185 153.2416,429.9313 153.2417,429.9527 153.2489,429.9641 153.2719,429.9898 153.2762,430.0183 153.2705,430.0397 153.2535,430.0612 153.2306,430.067 153.1907,430.0828 153.1193,430.1116 153.0836,430.1217 153.0538,430.1532 153.0396,430.1804 153.0298,430.2133 152.9941,430.2305 152.9541,430.2577 152.9099,430.2867 152.8676,430.314 152.8365,430.3301 152.8045,430.3406 152.7741,430.3519 152.7565,430.3512 152.7412,430.3384 152.7131,430.3193 152.6779,430.305 152.6523,430.3043 152.6202,430.298 152.5832,430.2804 152.5469,430.2419 152.5095,430.1763 152.455,430.1187 152.4069,430.0974 152.3578,430.0587 152.327,430.018 152.288,429.9476 152.2715,429.8966 152.2457,429.8242 152.2292,429.7814 152.1975,429.7549 152.1596,429.7081 152.093,429.6093 152.0305,429.5334 151.9807,429.5082 151.9375,429.5122 151.9065,429.5268 151.8725,429.5693 151.8634,429.6096 151.85,429.6428 151.8314,429.6872 151.8048,429.7556 151.7699,429.8187 151.7425,429.9233 151.7248,429.9591 151.7024,429.9827 151.6788,429.9909 151.6408,429.9927 151.6172,429.9928 151.589,429.9831 151.5584,429.9699 151.514,429.9465 151.4645,429.9156 151.4026,429.8593 151.3614,429.8124 151.3324,429.7719 151.3038,429.7412 151.275,429.731 151.2566,429.731 151.2199,429.7377 151.1788,429.7466 151.1442,429.7446 151.1112,429.7432 151.0699,429.7345 151.0272,429.7251 150.955,429.7088 150.9106,429.6803 150.8765,429.6519 150.8579,429.6315 150.8374,429.6171 150.8176,429.5821 150.7901,429.5548 150.7638,429.5184 150.7606,429.5008 150.7628,429.4726 150.7691,429.442 150.777,429.4249 150.7917,429.4059 150.8083,429.3929 150.8277,429.3892 150.8481,429.3882 150.8759,429.3844 150.8996,429.3739 150.9181,429.3456 150.9323,429.3165 150.9506,429.2525 150.975,429.1795 150.9843,429.0894 150.979,429.014 150.9529,428.9359 150.9512,428.9308 150.9373,428.9004 150.934,428.8935 153.2226,428.4699 175.2683,424.3895 176.411,411.1199 176.5509,409.4945 177.0869,403.2702 173.0931,380.5119 172.4242,376.7006 175.8409,356.646 176.3809,353.4759 176.7834,351.1136 179.1381,349.6347 171.85,320.2474 170.7406,315.774 170.7141,315.6658 172.6547,315.6607 179.7439,315.6413 209.2304,315.5574 244.4946,315.237 246.3552,316.6466 246.884,317.2444 247.1644,317.6402 247.4387,318.1654 247.637,319.1532 247.7119,320.1278 247.5905,322.3015 247.5298,325.0789 247.7119,327.7657 248.2886,330.0298 249.533,332.2335 251.4756,335.041 252.4468,336.3088 253.9948,337.2748 254.9661,337.622 255.7856,337.7427 257.3639,338.7992 258.6235,340.0369 259.3823,341.3198 259.5768,341.9212 259.6706,342.4518 259.6099,344.0667 259.3032,346.3995 259.1547,347.606 258.6994,348.919 258.1227,349.8245 257.2425,350.9565 256.1953,352.0431 255.2999,352.9637 254.4197,353.4919 253.3271,354.0956 252.2344,354.654 251.4604,355.2879 251.1385,355.7043 250.9292,356.0727 250.7834,356.554 250.7775,356.9329 250.7775,357.6271 250.8837,358.5024 251.0355,360.0267 251.2783,361.1132 251.6729,361.6867 252.3861,362.396 253.494,363.2713 254.1586,363.9231 254.5986,364.3675 255.1027,365.052 255.8615,366.3347 256.7872,368.1155 257.3639,369.8207 258.0923,372.0692 258.7753,373.8951 259.185,374.8307 259.6251,375.555 260.017,376.0433 260.4266,376.3696 261.947,377.064 263.9806,377.8638 266.3481,378.0448 268.7459,377.9241 270.9009,377.9996 272.4293,378.2307 273.9513,378.5579 275.6166,379.17 276.8347,379.7952 278.6711,381.4702 279.9914,383.0546 280.7198,384.6088 281.1447,386.2987 281.5241,389.4372 281.7063,392.5153 282.2526,394.9294 283.1632,397.1323 283.4415,397.8909 283.5881,398.1281 283.7879,398.3525 286.1225,399.7727 288.2775,401.1457 289.4881,401.6019 291.7225,402.1111 294.1354,402.5337 294.7343,402.7846 295.1978,403.1372 296.0476,404.2537 296.943,405.7474 298.6124,407.8294 301.0861,409.9265 303.7419,411.4955 305.6996,412.5666 307.6725,413.3059 308.8726,413.5264 309.2417,413.5593 309.5194,413.5484 310.7593,413.4386 311.5426,413.2634 312.0251,413.1519 312.4656,413.1837 312.7498,413.2695 313.0296,413.4115 313.8036,414.0451 314.8443,414.9856 316.3076,416.3081 317.3099,417.3974 317.4459,417.5452 318.3716,418.8275 318.8451,419.5911 319.0545,419.9287 319.1896,420.1513 319.4619,420.6002 319.5327,420.7167 319.6312,420.8792 319.6919,421.6033 319.3125,423.6398 319.1911,424.6355 319.267,425.5557 319.5171,426.2085 319.8133,426.7625 320.8149,428.1353 321.6041,429.2667 321.8654,429.6766 322.029,430.1265 322.1098,430.6709 322.0897,431.107 321.771,432.6004 321.4068,434.1089 321.2702,435.3911 321.201,436.216 321.2247,437.0051 321.3006,438.227 321.2792,438.6717 321.1792,439.0113 319.9651,440.746 319.3277,441.9075 318.6448,443.3404 318.1988,444.5721 318.0377,445.1957 317.9922,445.7538 318.1367,446.1701 318.2805,446.4175 318.5937,446.6834 318.9786,446.8398 319.4087,446.881 319.8892,446.87 321.0426,446.508 322.196,445.784 323.3645,444.9846 324.3965,444.4566 325.1401,444.2756 325.52,444.2121 325.823,444.2756 326.1324,444.4314 326.339,444.6829 326.9157,445.5125 327.4013,447.0812 327.462,448.4537 327.4461,449.0633 327.2041,449.7509 326.7332,450.333 326.1873,450.8067 324.3965,451.6966 322.7119,452.6921 321.6951,453.4161 320.5569,454.6528 319.8285,456.1762 319.2973,457.6995 319.0329,458.4532 318.9938,458.9966 319.1456,459.8714 319.5098,461.2891 319.6464,462.0884 319.5844,462.8198 319.4036,463.3553 318.8876,464.5619 318.2502,465.5271 317.203,466.1907 316.4898,467.0654 315.4881,468.5736 314.8811,469.5991 313.4849,471.5596 312.5592,472.7661 312.3549,473.2542 312.2405,473.8821 312.3922,475.0584 312.7565,476.6117 313.2686,477.9773 313.9554,479.8088 314.3803,481.5581 314.9418,483.3526 315.1846,484.363 315.243,484.8035 315.2301,485.0868 314.9355,486.4471 314.7608,487.4384 314.7293,488.1781 314.8507,488.9773 315.4274,490.8321 315.8524,491.8122 316.0952,492.4154 316.2014,493.0336 316.1241,493.5622 315.9738,494.0741 315.7917,494.8884 315.4691,495.2828 315.298,495.5024 315.0329,495.6272 313.5153,495.9589 311.9369,496.3208 311.4469,496.4838 310.996,496.7732 310.6452,497.1744 310.389,497.6176 310.0248,498.839 309.7212,500.0 308.0715,499.8322 305.4748,499.7751 304.3353,499.1791 302.7395,498.7643 285.9765,492.0957 259.2275,481.4547 243.5548,475.2117 234.1753,471.2852 233.2861,470.9131 232.8801,470.7431" stroke="black" /><polygon fill="none" points="331.8646,72.1094 332.229,73.2756 332.2351,73.2951 332.4701,74.0472 332.5938,74.6998 332.8191,75.6403 333.2103,76.3292 334.094,77.705 334.8831,78.8537 335.1715,80.1536 335.5812,82.708 335.8544,85.0205 336.0669,86.5621 336.7346,89.5547 336.8712,91.6102 336.6587,93.5297 336.1276,95.2224 335.2018,96.8547 333.7905,98.8798 332.804,99.9227 329.01,103.8521 327.8111,105.6203 327.5856,106.2076 327.4013,107.0106 327.6138,109.0508 328.1753,110.7434 328.3574,112.4209 329.3439,114.8086 330.8767,116.8638 331.9693,118.7377 332.7585,120.4 332.9406,122.6667 332.7888,124.1929 332.3639,128.4694 331.6658,131.4764 330.7704,133.879 329.6474,137.5811 329.1921,139.3187 328.9914,139.8208 328.698,140.2733 328.1753,140.8146 326.8761,142.1232 325.6257,143.0811 322.0897,144.9094 319.8437,145.8613 317.9315,146.5261 317.0121,146.9017 316.5049,147.2212 316.1445,147.6492 315.7917,148.2033 315.0025,149.9106 314.4562,151.0891 313.0752,152.4641 312.0886,153.3103 311.3972,153.8428 310.5711,154.2167 309.6493,154.4159 308.5982,154.3678 307.7539,154.225 307.0047,153.975 306.3873,153.8639 305.8604,153.8279 305.4244,153.8929 304.9592,153.99 304.1481,154.2706 303.0286,154.8211 302.5404,155.2193 302.1636,155.6521 301.7835,156.4055 301.4262,157.181 300.6763,159.2026 300.0389,161.5293 299.4622,163.1761 298.8097,164.8833 298.1116,166.4545 297.0796,167.9653 296.5682,168.5716 295.9717,169.0984 294.6059,169.7631 293.1945,170.0955 290.2353,170.3764 288.9059,170.4762 287.6418,170.7832 286.5626,171.2529 285.8546,171.6579 285.1814,172.2107 284.271,173.5551 278.6394,169.131 274.3187,166.024 257.5876,153.4291 257.0599,153.0319 255.9539,152.1993 253.4298,152.2073 252.8724,152.2091 252.1146,152.2115 250.828,152.2155 248.4189,152.2231 246.7509,152.2284 246.0098,152.2307 245.4975,152.2324 243.9908,152.2371 242.4343,151.4054 241.6306,150.9759 238.307,149.2 237.322,148.6737 233.5456,146.6558 231.2037,145.1715 229.8973,144.3435 228.5908,143.5155 227.4207,142.7739 226.7423,141.8457 226.7027,141.7914 226.1166,140.9896 223.4216,137.3021 222.9704,136.6848 222.5182,136.066 222.4264,135.8767 221.5433,134.0539 220.1969,131.2751 216.7703,124.2031 216.4926,123.6299 216.3382,123.3113 215.6151,121.8189 216.0455,120.9027 216.2747,120.4147 216.3205,120.3387 216.4007,120.1566 216.5844,119.7939 216.648,119.6805 216.7792,119.3536 216.8466,119.1629 216.9071,118.9695 216.9723,118.6341 217.0156,118.5344 217.1473,118.2303 217.2681,118.0008 217.3299,117.8327 217.3916,117.6646 217.3936,117.5104 217.4161,117.4187 217.4592,117.2833 217.5831,116.9916 217.6025,116.956 217.8588,116.5235 218.083,116.2039 218.1583,116.1273 218.2367,116.0599 218.2656,116.0422 218.4051,115.9617 218.4831,115.9077 218.5565,115.8585 218.6936,115.7752 218.8407,115.7142 218.991,115.6627 219.024,115.6432 219.0684,115.6213 219.1515,115.5762 219.1784,115.5627 219.4478,115.4032 219.686,115.203 219.7201,115.1612 219.8873,114.9563 220.0314,114.6505 220.2264,114.353 220.253,114.3046 220.2843,114.228 220.3106,114.1055 220.3172,113.8871 220.3634,113.6268 220.399,113.5748 220.4446,113.4817 220.4496,113.4314 220.4371,113.359 220.4224,113.2884 220.4324,113.2271 220.4508,113.1388 220.471,113.071 220.4946,112.9993 220.5306,112.9462 220.6347,112.8416 220.6853,112.7863 220.777,112.6802 220.8129,112.6392 220.8158,112.6346 220.8356,112.6071 220.9642,112.4797 221.1273,112.4151 221.4789,112.3088 221.5783,112.2577 221.7936,112.1506 222.1628,111.9435 222.3901,111.807 222.4748,111.7788 222.6349,111.6958 222.6596,111.6794 222.6844,111.6631 222.7537,111.6118 222.7943,111.5729 222.9464,111.3456 223.0681,111.1139 223.1078,111.0608 223.141,111.002 223.1797,110.9411 223.1926,110.9173 223.2938,110.7384 223.3534,110.6695 223.5098,110.4248 223.5591,110.2048 223.5731,110.0367 223.5874,109.9668 223.5889,109.9386 223.5931,109.8779 223.6076,109.8082 223.6226,109.7556 223.6492,109.6612 223.6641,109.6243 223.6929,109.514 223.6965,109.5016 223.7031,109.4782 223.7203,109.4085 223.7417,109.3288 223.7413,109.2966 223.7413,109.2931 223.7416,109.2922 223.7435,109.2748 223.7579,109.2164 223.7682,109.0696 223.7257,108.881 223.7058,108.8341 223.6168,108.5734 223.5427,108.3238 223.5087,108.1735 223.5032,108.1514 223.4914,107.9992 223.5205,107.812 223.5256,107.7796 223.5983,107.5672 223.7091,107.3609 223.7343,107.2823 223.7658,107.1983 223.7663,107.197 223.7869,107.162 223.8131,107.0996 223.8273,107.0466 223.8521,106.9519 223.8528,106.9305 223.8583,106.829 223.8669,106.6687 223.8733,106.3767 223.8858,106.2728 224.023,105.8506 224.1114,105.5613 224.1464,105.2927 224.1646,105.1497 224.1828,105.0067 224.1971,104.8812 224.2021,104.8622 224.2277,104.7129 224.2483,104.5692 224.2664,104.3982 224.2568,104.2963 224.1686,104.1442 224.1605,104.1338 224.1551,104.1265 224.0816,104.0207 223.981,103.8405 223.9721,103.82 223.9501,103.7695 223.8986,103.6459 223.8309,103.5036 223.8013,103.4287 223.7266,103.2025 223.6459,102.7918 223.6481,102.6547 223.6511,102.5173 223.6755,102.1935 223.6974,102.031 223.7958,101.4839 223.9121,100.9565 224.0146,100.5549 224.1105,100.2017 224.2179,99.9623 224.2836,99.878 224.3114,99.836 224.4368,99.6329 224.505,99.4747 224.5155,99.4431 224.5161,99.4307 224.5232,99.4011 224.5773,99.2752 224.6176,99.1716 224.6579,99.0681 224.7504,98.784 224.7929,98.5145 224.8218,98.0974 224.8179,97.909 224.7964,97.8128 224.7573,97.674 224.7415,97.6265 224.7294,97.5743 224.6748,97.401 224.659,97.348 224.6471,97.3096 224.6333,97.2624 224.6165,97.1888 224.586,96.8925 224.6221,96.6478 224.6689,96.5328 224.7026,96.4435 224.7363,96.3542 224.8037,96.1952 224.8328,96.0966 224.8619,95.998 224.8816,95.9018 224.8998,95.846 224.9559,95.5966 224.9863,95.3729 224.9825,95.2563 224.9687,95.0904 224.8981,94.8948 224.7601,94.6061 224.7531,94.5913 224.7095,94.5084 224.6706,94.419 224.6104,94.2522 224.5312,94.0141 224.467,93.8105 224.4305,93.6742 224.4173,93.6289 224.3353,93.359 224.3264,93.3114 224.3054,93.1732 224.2923,93.1296 224.2903,93.0826 224.2649,92.9509 224.2138,92.6819 224.2009,92.6209 224.188,92.56 224.0723,92.206 223.9435,92.0489 223.8666,91.9425 223.8014,91.8603 223.7569,91.7795 223.6883,91.6966 223.6754,91.6794 223.6626,91.6623 223.6476,91.6434 223.5839,91.5629 223.503,91.4743 223.2729,91.2554 223.1867,91.1945 222.9026,91.0931 222.8773,91.084 222.6327,91.0218 222.5863,91.0029 222.54,90.984 222.3964,90.8136 222.291,90.5634 222.2679,90.465 222.218,90.2526 222.1662,90.011 222.111,89.7429 222.0294,89.587 221.9479,89.4311 221.7386,89.2653 221.3719,89.0505 221.1818,88.9346 221.1562,88.9168 221.064,88.8676 221.01,88.8352 220.8456,88.7371 220.7456,88.6674 220.7214,88.6474 220.6338,88.5684 220.4018,88.4059 220.1699,88.2435 219.9901,88.0968 219.7378,87.9035 219.7031,87.8769 219.4947,87.7051 219.4713,87.6842 219.3843,87.6007 219.3639,87.5816 219.1088,87.297 219.0917,87.2781 218.9632,87.1393 218.7841,86.9363 218.7649,86.9145 218.7017,86.7685 218.6386,86.6226 218.403,86.173 218.2775,85.948 218.2376,85.8765 218.1995,85.7666 218.1858,85.7376 218.173,85.7104 218.147,85.6481 218.0892,85.5571 217.9463,85.3317 217.8849,85.2474 217.829,85.163 217.7619,85.0667 217.7248,85.0627 217.4857,85.0367 211.9679,84.4366 211.5236,84.3883 211.164,84.3492 211.0792,84.34 211.0624,84.2675 210.9694,83.8662 210.7847,83.0693 210.527,81.9577 210.5029,81.8538 210.4901,81.7987 210.4876,80.9088 210.4846,79.8431 210.4836,79.482 210.4814,78.6922 210.4805,78.3583 210.479,77.8344 210.4774,77.2715 210.4773,77.2171 210.4771,77.1628 210.59,77.1125 210.7029,77.0623 211.0848,76.8922 211.4667,76.7222 211.716,76.6112 212.1889,76.4007 212.6318,76.2035 218.4522,73.612 221.2595,72.3621 228.4794,69.1475 229.773,68.5715 230.1629,68.6231 230.4381,68.3953 232.717,66.5098 233.3332,65.9999 233.3318,65.4911 233.3304,65.025 233.3291,64.5589 233.3276,64.0574 233.3148,59.6191 233.3454,59.5905 233.3721,59.5615 233.4663,59.4464 233.5721,59.3419 233.6319,59.2618 233.8414,59.0507 234.0455,58.9199 234.2036,58.8242 234.416,58.7164 234.6054,58.6011 234.7879,58.5274 234.9155,58.456 235.0014,58.3607 235.0874,58.2654 235.4204,57.8851 235.6512,57.7483 235.8336,57.6325 236.0658,57.5455 236.215,57.449 236.2897,57.4126 236.7143,57.3718 237.052,57.2943 237.2462,57.2763 237.411,57.2903 237.4873,57.2724 237.5636,57.2545 237.7722,57.1595 237.9896,57.0202 238.0658,56.9566 238.1419,56.8931 238.2767,56.6821 238.3702,56.5577 238.6284,56.3617 238.7511,56.1772 238.927,56.0343 239.0655,55.9811 239.3163,55.8979 239.4247,55.8261 239.6411,55.5588 239.7323,55.2945 239.8529,55.0373 239.9471,54.9085 240.1085,54.8341 240.277,54.7894 240.3948,54.779 240.5126,54.7687 240.7112,54.7409 241.1426,54.5946 241.4496,54.5061 241.5639,54.5028 241.893,54.5448 242.1709,54.5763 242.4088,54.6611 242.6517,54.7033 242.849,54.7027 243.4103,54.633 243.5815,54.6244 243.7526,54.6159 243.8663,54.613 244.0821,54.577 244.246,54.4711 244.549,54.1138 244.6935,53.9633 244.8153,53.8966 244.8754,53.8943 244.9591,53.9132 245.2274,54.0121 245.4956,54.111 245.6913,54.1976 245.7797,54.2603 245.868,54.323 246.0465,54.4313 246.2111,54.5691 246.4692,54.7988 246.8171,55.1495 246.958,55.2979 247.0793,55.4889 247.2324,55.6407 247.3888,55.8044 247.5726,55.9642 247.6282,55.977 247.6838,55.9898 247.8027,56.02 247.9434,56.0881 247.9815,56.098 248.0195,56.1079 248.2316,56.1132 248.2852,56.113 248.4666,56.1001 248.6863,56.0995 249.0773,56.1051 249.2695,56.1007 249.3565,56.1286 249.4683,56.1457 249.4965,56.163 249.5451,56.1769 249.5905,56.1908 249.6327,56.2153 249.7368,56.2112 249.9818,56.3155 250.1807,56.3953 250.3623,56.4611 250.5751,56.5166 250.7253,56.5302 250.96,56.6386 251.1948,56.7469 251.6886,56.8202 252.1232,56.8881 252.4248,57.0099 252.5771,57.038 252.7294,57.0661 253.1526,57.1445 253.5758,57.2228 254.7859,57.8755 256.2513,57.9063 256.6058,57.6207 257.3603,57.5747 258.2713,57.858 258.8099,57.2137 259.4214,56.9625 260.3598,56.8161 260.9819,56.1737 261.0185,54.9007 261.667,32.3046 261.6682,32.2594 261.6721,32.1237 262.2417,12.4486 262.3083,10.1473 273.4423,7.7049 273.5634,7.6783 292.6819,3.4844 302.5853,1.3119 308.6558,0.0 309.1597,1.1788 309.9609,3.0725 310.2221,3.5073 310.5935,3.771 311.9521,4.9287 312.8922,5.4286 313.7429,6.3802 314.5624,8.2249 315.2605,9.9788 315.6955,10.5303 316.2014,10.904 318.5082,11.7629 319.0431,12.0317 319.411,12.3694 319.8133,13.2144 319.1694,16.5166 317.9922,19.6856 317.3979,21.0721 316.9299,22.8001 317.6887,26.1263 318.7206,30.299 319.9651,33.1413 321.0578,36.0137 322.6968,40.2165 323.2029,42.4397 323.3645,43.1493 323.5466,46.9892 323.6099,48.0389 323.672,49.0702 323.7287,50.0126 324.1054,51.8051 324.2751,52.6127 325.2911,55.1611 325.5657,55.6732 325.8348,55.9614 326.1794,56.4259 326.9612,57.3291 327.2932,57.8042 327.4523,58.0318 328.0387,58.8709 328.3603,59.2073 328.8324,59.701 328.9478,59.8217 329.2528,60.1407 329.5798,60.589 329.7866,61.0059 330.1482,61.5919 330.4382,62.1084 330.892,62.9977 331.074,63.685 331.0969,63.8018 331.1954,64.2976 331.2046,64.4851 331.2462,65.3272 331.2495,65.3937 331.2864,66.1418 331.2926,66.3177 331.3176,67.0362 331.3471,67.8801 331.3584,67.9959 331.5383,69.8426 331.5444,69.9056 331.7569,71.7648 331.8646,72.1094" stroke="black" /></svg>