<?xml version="1.0" encoding="utf-8" ?>
<svg baseProfile="tiny" height="500" version="1.2" width="321.1521" xmlns="http://www.w3.org/2000/svg" xmlns:ev="http://www.w3.org/2001/xml-events" xmlns:xlink="http://www.w3.org/1999/xlink"><defs /><polygon fill="none" points="273.887,152.0835 274.5733,152.2908 275.2047,152.4769 275.2156,152.4798 275.5008,152.5569 275.8469,152.6584 275.8475,152.6586 276.1811,152.755 276.1894,152.7574 276.7613,152.919 277.2591,153.0655 277.2363,153.1198 276.9463,153.8113 276.476,154.9323 276.1991,155.6437 275.8141,156.6329 275.7033,156.9176 275.2966,157.9045 275.0241,158.5658 274.4189,160.1658 274.2518,160.6077 274.225,160.6746 273.7713,161.8066 273.7252,161.9218 273.5215,162.4379 273.3792,162.7985 273.3335,162.9142 273.1483,163.3836 273.1163,163.4648 273.1098,163.4812 272.9098,163.9799 272.6907,164.5263 272.5723,164.8279 272.2489,165.6509 272.0882,166.0598 271.4182,167.5629 271.3471,167.7223 270.7984,169.078 270.6839,169.3618 270.5085,169.7962 270.4472,169.9479 270.3292,170.2403 270.2066,170.5301 269.9046,171.2443 269.8681,171.3308 269.6528,171.8372 269.6454,171.8346 269.2953,171.7152 269.0963,171.6473 268.5436,171.4796 267.8572,171.2687 267.8474,171.2657 267.3789,171.123 266.4225,170.8086 264.0262,169.998 259.506,168.201 259.3997,168.1587 259.435,168.0918 259.4971,168.0161 259.5306,167.9543 259.5761,167.9523 259.6304,167.8675 259.6759,167.725 259.6893,167.61 259.7264,167.5558 259.7467,167.524 259.7791,167.5005 259.7714,167.4619 259.7558,167.4201 259.6922,167.376 259.6316,167.3128 259.5528,167.2314 259.491,167.1824 259.3918,167.1032 259.3084,167.031 259.222,166.9897 259.128,166.9569 259.082,166.8792 259.1556,166.8074 259.2987,166.747 259.3626,166.6428 259.3183,166.5743 259.3517,166.456 259.3589,166.3682 259.3,166.2539 259.1972,166.1685 259.1522,166.0489 259.0931,165.9485 259.0259,165.8791 259.1156,165.7541 260.426,163.9273 260.6704,163.6784 261.1137,163.2423 261.7056,162.7655 261.4184,162.5682 261.1076,162.2786 260.7782,161.9477 260.2099,161.0678 260.0686,160.8486 259.9062,160.7366 259.8181,160.5779 259.7787,160.4078 259.6969,160.218 259.596,160.1084 259.4751,159.9424 259.4237,159.6963 259.3701,159.5401 259.3754,159.2931 259.4218,159.0771 259.5201,158.9138 259.6711,158.8018 259.9232,158.7042 260.0439,158.7238 260.2688,158.6923 260.4387,158.7059 260.5678,158.6043 260.6108,158.4942 260.5397,158.3242 260.5573,158.1421 260.618,157.9794 260.8758,157.7371 260.9017,157.5833 260.6869,157.3627 260.563,157.236 260.4916,157.0457 260.2721,156.7869 260.1807,156.6244 260.0761,156.3326 260.1149,156.1535 260.0971,156.0142 260.1955,155.8356 260.2773,155.4555 260.4945,155.1635 260.7105,154.9708 260.9051,154.8241 261.0874,154.7014 261.324,154.6185 261.5995,154.5473 261.8553,154.4787 262.1279,154.4561 262.3555,154.4493 262.5986,154.4383 262.8403,154.4701 263.126,154.5486 263.3007,154.6266 263.4379,154.6909 263.5004,154.785 263.6057,154.9026 263.7045,154.9406 263.7633,155.0353 263.8477,155.0994 263.943,155.198 264.0332,155.3293 264.1157,155.5615 264.1813,155.6542 264.2243,155.7957 264.3238,155.9828 264.3304,156.1055 264.6042,156.6922 264.6895,156.805 264.7524,156.913 264.7846,157.0296 264.9167,157.0777 265.0497,157.223 265.1068,157.4843 265.1047,157.6744 265.1843,157.8617 265.3872,158.012 265.5584,158.0608 265.6579,157.9938 265.6365,157.8367 265.6934,157.6643 265.7865,157.5391 265.7737,157.2492 265.5845,157.0978 265.448,156.9569 265.4205,156.8211 265.2969,156.561 265.2472,156.4236 265.1579,156.3446 265.0844,156.2393 265.0541,156.081 264.9814,155.934 264.9034,155.8694 264.886,155.6408 264.9281,155.4043 264.9296,155.203 264.9619,154.9838 265.0588,154.932 265.0222,154.7393 264.9785,154.2346 265.0037,154.0962 265.0683,153.9662 265.1532,153.7992 265.2601,153.6918 265.3699,153.6298 265.4951,153.6814 265.5996,153.7516 265.6443,153.8393 265.9372,153.8366 266.005,153.724 266.0909,153.661 266.1826,153.5841 266.2671,153.5086 266.3683,153.5242 266.5041,153.5368 266.6389,153.5127 266.744,153.4877 266.8983,153.5162 266.9195,153.3992 266.8613,153.248 266.7395,153.1264 266.563,152.9999 266.4211,152.8491 266.1554,152.5972 265.9297,152.4298 265.6759,152.2265 265.5788,152.2027 265.5082,152.1798 265.4674,152.0865 265.0735,151.6692 264.9369,151.4682 264.6541,150.9739 264.5743,150.7607 264.4687,150.5485 264.3911,150.3744 264.323,150.2871 264.2736,150.1671 264.2938,150.0584 264.3284,149.9471 264.3414,149.8593 264.4189,149.7874 264.5053,149.7626 264.5767,149.8676 264.5549,149.9863 264.5678,150.1281 264.7267,150.2173 264.857,150.2777 265.0067,150.3748 265.0581,150.4572 265.1448,150.4942 265.2474,150.4649 265.3957,150.4394 265.4844,150.4743 265.5926,150.5613 265.6745,150.6222 265.739,150.7136 265.7508,150.7835 265.839,150.8323 265.8938,150.7736 265.973,150.7013 266.1181,150.5961 266.0637,150.5334 265.9944,150.4369 265.5114,149.8099 265.3552,149.6093 265.2747,149.501 265.172,149.4064 265.0723,149.3318 264.9747,149.2693 264.6877,149.1523 263.1434,148.5965 261.3433,147.916 259.7655,147.3433 259.2153,147.1294 258.9594,147.0434 258.7066,146.9619 258.4641,146.8934 258.0894,146.803 252.9979,145.7003 251.0583,145.2859 250.0788,145.0716 249.8246,145.0166 248.7488,144.7768 247.7695,144.5553 247.5499,144.5056 245.9484,144.167 245.6089,144.1012 245.1461,143.9781 244.4938,143.7484 243.7254,143.4699 242.9969,143.1655 241.85,142.6305 240.9233,142.2585 240.423,142.0765 239.9657,141.9106 239.1734,141.6252 238.9743,141.502 238.7827,141.3916 238.5541,141.2434 238.197,141.0013 237.9093,140.7797 237.6728,140.5597 237.4239,140.3169 236.1856,139.1551 235.5921,138.5474 235.4444,138.3242 234.6135,135.9818 234.48,135.7557 233.7544,135.0798 231.5689,133.1266 230.2762,132.0115 229.9924,131.7822 229.8119,131.6749 229.5962,131.5772 229.4345,131.5176 229.515,131.498 229.6542,131.5059 230.1897,131.5737 230.7119,131.6248 230.9471,131.6551 231.8722,131.7503 232.2515,131.7983 232.7094,131.8521 233.477,131.9423 234.2518,132.0304 234.7979,132.0885 235.2902,132.1373 235.7917,132.1901 236.0108,132.2167 236.2449,132.2265 237.0518,132.2226 238.0231,132.2264 238.6639,132.2329 240.4807,132.2316 241.3625,132.2337 241.6273,132.2411 242.0387,132.2401 242.3132,132.2328 242.5366,132.2223 242.7205,132.2049 242.9428,132.1966 243.1349,132.1871 243.3974,132.1594 243.6363,132.1207 243.8384,132.0848 244.0373,132.0315 244.4608,131.9146 244.8842,131.7845 245.8882,131.4343 247.0334,130.9931 247.9299,130.6669 248.5493,130.4194 250.0713,129.8557 251.4408,129.3824 252.0826,129.1283 252.582,128.9439 253.0151,128.7832 253.2059,128.7293 253.4774,128.6672 253.5996,128.6462 254.5161,128.5436 254.7643,129.2622 254.9855,129.2241 255.0494,129.2343 255.0903,129.2709 255.7267,129.8898 256.4628,130.5885 257.6141,131.6388 257.4806,131.8282 257.5694,132.1472 257.6148,132.1563 257.6494,132.1481 257.68,132.1467 257.7115,132.156 257.7782,132.1611 257.8272,132.1634 257.8812,132.1595 257.9277,132.1661 257.9701,132.1589 258.0068,132.1676 258.0493,132.2032 258.2103,132.2157 258.3597,132.1885 258.5409,132.1981 258.7219,132.1677 258.8384,132.1819 258.9976,132.1827 259.1688,132.1502 259.3953,132.1443 259.5566,132.1744 259.809,132.2009 259.9341,132.1719 260.0779,132.1363 260.1872,132.0696 260.2812,132.0755 260.3598,132.1082 260.4293,132.1304 260.5634,132.086 260.5841,131.9932 260.6699,131.9529 260.7771,131.9734 260.8983,132.0231 261.0582,132.038 261.1594,132.031 261.2441,132.0629 261.319,132.1214 261.413,132.1425 261.4961,132.139 261.6051,132.1295 261.6828,132.0831 261.7598,132.0522 261.8263,132.02 261.8712,131.9879 262.4042,132.6419 263.0818,133.4711 263.3056,133.3593 263.5611,133.2218 263.8776,133.0485 265.9484,134.7329 266.1774,134.9236 266.2656,134.9948 266.3919,135.0811 266.5621,135.1598 266.6874,135.2175 266.8788,135.2801 267.0337,135.3167 267.1908,135.3383 267.3538,135.3587 267.4689,135.362 267.6053,135.3792 267.6347,135.4282 267.6864,135.4847 268.2753,135.6911 268.682,139.0859 269.0043,141.7507 269.1655,143.0834 269.1907,143.3857 269.4234,145.468 269.6138,147.2695 269.7825,148.7583 269.9429,150.1862 270.0256,150.8858 273.887,152.0835" stroke="black" /><polygon fill="none" points="193.9279,146.809 193.7551,145.6786 193.3197,145.2941 192.4448,145.0936 192.1953,144.7481 192.1472,144.113 191.5659,143.9498 190.5338,145.2025 190.4727,145.2768 189.8664,153.6077 190.116,157.4624 189.6321,157.6992 189.2197,157.1645 188.1657,157.2916 188.4598,156.7014 188.3018,156.5429 187.518,156.8019 187.1334,157.3757 186.6511,157.4825 185.6297,157.1858 185.2347,157.2837 184.3076,156.7957 183.0974,155.8912 182.9816,155.0142 182.711,154.8378 182.4175,154.4049 182.0548,154.9501 181.7852,154.916 181.8158,154.1277 181.1342,153.6025 180.6051,152.8172 180.5569,152.4437 181.1348,152.4471 181.0887,152.2173 180.5175,151.6761 180.1523,151.6331 179.5238,150.9246 179.3528,150.393 179.6674,149.8488 178.9995,149.7005 178.3857,149.1664 178.2382,148.18 177.0172,146.5774 176.9203,145.5325 176.4384,144.3588 175.5963,143.2999 175.7835,142.85 175.3794,141.7615 173.8872,141.0195 174.0736,141.4398 174.889,141.7833 174.9045,142.0546 173.2381,141.954 172.4072,142.5074 171.4225,142.5271 170.8912,143.1484 169.6423,143.2013 168.7456,142.6958 168.7239,142.7087 168.5203,132.5969 168.539,121.5273 168.5395,121.2237 168.2257,121.1844 168.166,120.8494 166.7224,112.7271 165.91,108.3997 165.5955,108.0798 164.8185,106.9916 164.938,104.3925 164.6761,103.6062 164.2567,103.8613 163.9179,104.1306 163.6755,104.2581 162.3659,104.5864 162.3012,104.6709 162.0167,104.5029 161.87,105.0678 161.768,104.9264 160.6353,104.9296 160.4084,104.8735 160.0349,104.5217 159.792,104.4801 158.5346,101.2117 158.8205,100.9041 159.1836,100.5857 159.515,100.3837 160.464,99.8435 160.603,99.8508 213.6599,102.5778 213.7029,102.7406 213.9432,102.8278 213.9938,102.8832 223.7095,114.5031 223.8305,114.6478 223.9291,114.7657 223.9908,114.8395 224.2478,115.7055 224.98,116.5596 226.3938,115.8087 229.3323,114.8783 230.5273,114.176 232.991,114.4382 233.0315,114.4426 233.5156,112.432 234.8989,110.5374 236.8569,109.5622 238.1689,109.1929 238.7828,109.9701 237.5773,110.7775 236.602,112.7122 236.2174,115.6278 235.4577,117.0415 235.3424,117.9825 236.076,119.2194 234.4843,120.0165 233.6511,121.3518 232.5732,122.5042 232.6045,124.2671 234.1881,126.1092 233.7729,126.7811 232.8156,127.64 232.317,129.9224 230.8035,130.7706 230.7503,131.2833 230.7252,131.511 230.7119,131.6248 230.1897,131.5737 229.6542,131.5059 229.515,131.498 229.4345,131.5176 229.5962,131.5772 229.8119,131.6749 229.9924,131.7822 230.2762,132.0115 231.5689,133.1266 233.7544,135.0798 234.48,135.7557 234.6135,135.9818 235.4444,138.3242 235.5921,138.5474 236.1856,139.1551 237.4239,140.3169 237.6728,140.5597 237.9093,140.7797 238.197,141.0013 238.5541,141.2434 238.7827,141.3916 238.9743,141.502 239.1734,141.6252 239.9657,141.9106 240.423,142.0765 240.9233,142.2585 240.8894,142.3239 240.8654,142.379 240.8202,142.4497 240.7771,142.5133 239.9242,143.5724 239.3248,144.6632 236.4425,145.3453 234.4806,146.1815 231.7897,146.1708 230.0991,147.0059 227.7315,147.5834 225.3889,148.7686 225.7902,147.6928 225.8054,147.5927 225.7824,145.851 225.7242,145.8593 223.9507,146.1074 221.3805,145.9262 220.5528,145.8678 220.3259,145.7729 219.1384,145.5258 218.9075,145.5082 218.9501,145.405 219.1315,145.2316 219.1574,145.1148 219.0766,145.0122 218.8281,144.8451 218.1208,144.4738 217.7698,144.2466 217.6146,144.1041 217.5574,144.0147 217.1035,143.8285 216.943,143.6726 216.7986,143.5791 216.716,143.5663 216.5678,143.4981 216.2056,143.0856 216.0873,143.1637 215.9183,143.1826 215.1877,143.1671 214.9372,143.1965 214.6069,143.3699 214.5615,143.4752 214.5848,143.6952 214.64,143.8419 214.3024,143.8737 214.0638,143.9443 213.8619,144.0434 213.6913,144.3116 212.7635,144.2496 211.3048,144.3727 210.767,144.3749 209.5378,144.5403 209.4431,144.5064 208.4818,143.6979 208.0533,143.5974 207.1843,144.4336 205.723,144.852 204.1782,145.8349 204.0852,145.8645 203.3706,146.0917 202.8347,146.2619 202.4024,146.3992 200.8965,146.8777 198.9943,147.1202 196.1642,148.9984 195.1066,149.1768 194.8057,147.9458 193.9279,146.809" stroke="black" /><polygon fill="none" points="228.6015,45.4227 228.1382,45.0857 227.9368,44.4999 226.96,44.2651 225.7117,42.8352 223.6569,42.1334 223.6284,42.0639 223.478,41.6996 223.4945,40.8384 223.5163,39.7005 222.3952,39.1696 221.679,38.3951 221.0836,38.5497 219.7636,38.2902 220.0014,37.4358 219.7411,36.6995 220.1959,35.8489 219.608,35.271 218.3351,35.2905 217.7639,34.6863 217.7075,34.1422 216.5915,33.5999 216.1276,33.6113 215.9033,34.2577 215.4053,34.5852 214.2991,34.3998 213.8114,34.0107 213.1064,34.0239 213.1231,33.7191 213.125,33.6847 213.1514,33.204 213.1516,33.1995 213.1634,32.9844 212.4599,32.1881 210.6606,31.7383 208.9506,30.123 208.0361,30.3175 207.988,30.3277 207.3972,30.8599 206.0787,30.6112 205.9936,30.1223 207.4095,29.0784 207.9539,29.1695 208.4815,28.8132 209.6174,29.4326 211.2309,29.8107 211.6645,29.3531 211.476,28.7817 211.7027,28.1373 210.7388,26.1108 211.5966,25.6668 213.0293,24.4635 214.573,24.3692 214.5302,23.6698 215.8999,22.835 216.6279,22.1007 216.8305,22.0454 217.3109,21.9142 218.287,20.666 219.6987,20.3289 219.9432,19.5383 219.5977,18.5899 219.6191,17.8445 222.1306,16.7371 222.8506,15.5874 222.8097,14.7317 222.1562,13.7123 222.8595,12.9078 223.3787,11.6664 224.2903,11.2956 225.3859,9.2701 225.8024,8.8187 226.2695,8.3692 227.1817,7.9825 228.0362,7.9823 229.1829,8.3629 230.5092,9.2162 233.2978,11.3181 233.7165,11.6334 236.4452,11.5997 237.9147,10.8502 240.4518,10.6679 240.5764,10.5148 240.8377,10.1938 240.8551,8.3659 241.3074,7.2797 244.6056,5.9751 245.2189,6.0537 245.8962,6.479 246.1954,6.6208 246.4617,6.5309 246.605,6.353 246.5735,6.0853 246.4947,5.4395 246.5795,4.8299 247.1925,3.4094 246.9379,2.8309 247.6802,1.6851 248.5492,1.6687 249.2284,1.3656 250.7369,1.5539 251.0035,1.3972 251.3883,1.1341 251.8852,0.7054 252.046,0.5592 252.2263,0.4423 252.1434,0.7103 252.0899,0.9636 252.085,1.1341 252.1093,1.3095 252.1775,1.4654 252.2534,1.566 252.3278,1.6294 252.4401,1.6916 252.5523,1.8014 252.6182,1.9015 252.6657,2.0173 252.7563,2.1906 252.8243,2.2565 252.9012,2.3016 252.9854,2.3333 253.0769,2.348 253.1635,2.348 253.2525,2.3358 253.4307,2.2845 253.527,2.2748 253.6234,2.2821 253.8918,2.3284 254.1577,2.3358 254.6091,2.2772 255.084,2.1955 255.9135,2.0637 256.0477,2.0686 256.1722,2.1027 256.2698,2.1735 256.3625,2.2662 256.5211,2.4492 256.8553,2.825 256.9871,2.9762 257.1102,3.0846 257.2466,3.1431 257.4556,3.1812 257.7435,3.1909 258.0314,3.2007 258.3217,3.1714 258.4218,3.1421 258.5047,3.0763 258.5462,3.0031 258.5755,2.9079 258.5828,2.7322 258.534,2.5395 258.4876,2.3614 258.4791,2.3053 258.4828,2.2491 258.5084,2.1955 258.5511,2.1564 258.6121,2.1284 258.6901,2.1162 258.8134,2.1174 259.0927,2.1369 259.3149,2.1361 259.5142,2.1556 259.6601,2.1774 259.7661,2.215 259.8448,2.2528 259.9125,2.3028 260.1736,2.5712 260.2872,2.6466 260.4078,2.7005 260.6591,2.8079 260.8001,2.8824 260.9153,2.9616 261.1642,3.0641 261.2984,3.0763 261.4423,3.0641 261.7205,3.0055 261.9791,3.0006 262.2585,3.0397 262.4988,3.1129 262.6781,3.2349 262.7989,3.3495 262.9087,3.5325 262.9807,3.7472 263.0234,4.0254 263.0197,4.3523 263.0234,4.5012 263.021,4.5646 263.0051,4.611 262.9612,4.6488 262.9014,4.6707 262.7635,4.7037 262.6391,4.7573 262.5403,4.8354 262.4732,4.933 262.4525,5.055 262.4549,5.1673 262.4305,5.2722 262.3939,5.3124 262.3475,5.338 262.228,5.3576 262.0804,5.3478 261.9303,5.3234 261.4606,5.2099 261.202,5.127 261.1288,5.1124 261.0507,5.1075 260.9897,5.1172 260.9556,5.1294 260.9287,5.1563 260.9202,5.2014 260.9251,5.2514 260.9348,5.3002 260.9714,5.3612 261.0251,5.4149 261.1191,5.4783 261.3118,5.6101 261.5241,5.7321 261.7778,5.8785 261.9169,6.0542 261.9925,6.2274 262.0096,6.4031 261.9925,6.5665 262.0145,6.6641 262.0657,6.7568 262.2097,6.8947 262.3927,7.013 262.4878,7.0521 262.5976,7.0704 262.8587,7.0655 262.9758,7.0826 263.06,7.1143 263.1137,7.1631 263.1466,7.2192 263.1881,7.351 263.2296,7.6218 263.3272,8.1342 263.3808,8.3538 263.4418,8.444 263.515,8.4989 263.6077,8.5367 263.7151,8.5526 263.9201,8.5428 264.4324,8.5038 264.9253,8.5026 265.2962,8.5282 266.0232,8.577 266.2843,8.5868 266.5039,8.5965 266.6967,8.6429 266.8174,8.6941 266.9333,8.7576 267.0773,8.8771 267.1175,8.9381 267.1456,9.0028 267.1688,9.1077 267.1981,9.2028 267.2761,9.2809 267.3676,9.3297 267.4823,9.3626 267.5921,9.3736 267.9971,9.3492 268.3485,9.2614 268.7632,9.1589 269.178,9.0955 269.6367,9.0857 270.1149,9.1345 270.559,9.2224 270.9591,9.3736 271.3056,9.5249 271.7302,9.7396 272.0571,9.8323 272.3206,9.8567 272.5695,9.8323 272.7793,9.7445 273.6333,9.1833 274.1115,8.9491 274.5702,8.7905 275.046,8.6221 275.3022,8.5441 275.5095,8.5123 275.6755,8.5245 275.8804,8.5709 276.0366,8.649 276.2293,8.8076 276.473,8.9752 276.6314,9.0775 276.7215,9.1676 276.7612,9.2565 276.8246,9.4712 276.8368,9.7201 276.8271,9.8909 276.7954,9.9885 276.6953,10.1788 276.5807,10.3276 276.5123,10.4667 276.444,10.6765 276.4172,10.9108 276.4196,11.1474 276.4489,11.4183 276.5372,11.6442 276.6667,11.8727 276.9123,12.2142 277.1998,12.5065 277.3508,12.7403 277.4336,12.9084 277.4872,13.0838 277.497,13.286 277.4872,13.3688 277.4657,13.4501 277.4084,13.5303 277.3354,13.601 277.1989,13.7008 277.0528,13.7715 276.7702,13.9079 276.5117,14.0674 276.014,14.4382 275.5797,14.8687 275.2516,15.5244 275.1627,15.7169 275.3384,17.0387 275.6719,18.4564 275.586,18.9502 275.0238,19.5801 274.2968,19.8668 272.3559,19.823 270.9574,20.142 269.1858,21.0587 268.555,21.9806 269.0515,25.5914 269.6306,27.3377 269.5042,27.8945 269.4424,27.9912 268.4259,29.58 268.3532,29.6937 269.1981,34.178 269.1561,34.9942 267.9515,36.2669 267.6392,37.0637 267.5798,38.2061 267.3732,38.5965 266.5254,39.1905 266.1988,40.8014 264.204,42.1123 263.7434,42.5442 263.014,43.2277 262.9072,43.7908 263.2922,44.847 263.1302,45.5106 262.4275,46.5093 262.5831,46.9694 262.2752,47.558 262.0529,48.4062 262.4866,49.1235 262.4685,49.4578 261.6218,49.9039 261.5864,49.902 260.5641,49.1815 260.1823,49.136 259.9868,48.8299 257.8318,48.0932 257.7481,48.0645 256.9942,47.4878 255.7905,47.1687 255.6765,46.928 255.3619,47.1377 255.1377,46.9877 254.9489,47.2368 254.0532,46.8979 253.4372,47.4183 253.3253,47.8011 252.4896,47.8069 251.8247,48.2056 250.6763,48.6779 250.2909,48.8666 250.1455,48.508 249.5084,48.4698 249.1146,48.1676 247.249,48.478 246.9255,47.696 245.7394,47.2353 243.9265,47.0088 243.2123,47.3178 242.4474,47.0181 242.2147,46.4464 242.328,45.6302 241.2501,44.6579 236.6658,49.6536 235.9727,50.4086 234.7269,48.9052 232.973,47.7791 231.8496,47.4111 230.7315,46.4465 228.8804,45.6256 228.6015,45.4227" stroke="black" /><polygon fill="none" points="289.3919,114.104 289.9712,114.3015 291.447,114.8041 291.9735,114.9834 291.3694,116.5302 290.7917,117.8746 290.0528,119.7089 289.951,120.0221 289.7004,120.7054 289.3322,121.7602 288.7271,123.1266 287.9938,125.1317 287.1524,127.2149 287.1222,127.3136 286.7202,128.6265 286.5637,129.0099 286.1706,129.9734 285.9653,130.4767 285.8564,130.7571 285.3002,132.1898 285.2645,132.2815 284.9335,133.0812 284.6872,133.7416 284.183,135.0937 283.8963,135.8546 283.7109,136.3467 283.2807,137.4884 282.9471,138.3489 282.3965,139.7693 281.8309,141.2162 281.4639,142.1551 281.1788,142.8685 280.7367,143.9746 280.0627,145.7723 279.7628,146.5591 279.7479,146.5983 279.4526,147.3729 279.0224,148.3123 278.7831,148.9318 278.6515,149.2911 278.5163,149.6942 278.2344,150.5344 278.0857,150.9556 277.9554,151.3247 277.6817,152.0106 277.6043,152.2046 277.293,152.9846 277.2591,153.0655 276.7613,152.919 276.1894,152.7574 276.1811,152.755 275.8475,152.6586 275.8469,152.6584 275.5008,152.5569 275.2156,152.4798 275.2047,152.4769 274.5733,152.2908 273.887,152.0835 270.0256,150.8858 269.9429,150.1862 269.7825,148.7583 269.6138,147.2695 269.4234,145.468 269.1907,143.3857 269.1655,143.0834 269.0043,141.7507 268.682,139.0859 268.2753,135.6911 267.6864,135.4847 267.6347,135.4282 267.6053,135.3792 267.4689,135.362 267.3538,135.3587 267.1908,135.3383 267.0337,135.3167 266.8788,135.2801 266.6874,135.2175 266.5621,135.1598 266.3919,135.0811 266.2656,134.9948 266.1774,134.9236 265.9484,134.7329 263.8776,133.0485 263.5611,133.2218 263.3056,133.3593 263.0818,133.4711 262.4042,132.6419 261.8712,131.9879 261.8263,132.02 261.7598,132.0522 261.6828,132.0831 261.6051,132.1295 261.4961,132.139 261.413,132.1425 261.319,132.1214 261.2441,132.0629 261.1594,132.031 261.0582,132.038 260.8983,132.0231 260.7771,131.9734 260.6699,131.9529 260.5841,131.9932 260.5634,132.086 260.4293,132.1304 260.3598,132.1082 260.2812,132.0755 260.1872,132.0696 260.0779,132.1363 259.9341,132.1719 259.809,132.2009 259.5566,132.1744 259.3953,132.1443 259.1688,132.1502 258.9976,132.1827 258.8384,132.1819 258.7219,132.1677 258.5409,132.1981 258.3597,132.1885 258.2103,132.2157 258.0493,132.2032 258.0068,132.1676 257.9701,132.1589 257.9277,132.1661 257.8812,132.1595 257.8272,132.1634 257.7782,132.1611 257.7115,132.156 257.68,132.1467 257.6494,132.1481 257.6148,132.1563 257.5694,132.1472 257.4806,131.8282 257.6141,131.6388 256.4628,130.5885 255.7267,129.8898 255.0903,129.2709 255.0494,129.2343 254.9855,129.2241 254.7643,129.2622 254.5161,128.5436 253.5996,128.6462 253.4774,128.6672 253.2059,128.7293 253.0151,128.7832 252.582,128.9439 252.0826,129.1283 251.4408,129.3824 250.0713,129.8557 248.5493,130.4194 247.9299,130.6669 247.0334,130.9931 245.8882,131.4343 244.8842,131.7845 244.4608,131.9146 244.0373,132.0315 243.8384,132.0848 243.6363,132.1207 243.3974,132.1594 243.1349,132.1871 242.9428,132.1966 242.7205,132.2049 242.5366,132.2223 242.3132,132.2328 242.0387,132.2401 241.6273,132.2411 241.3625,132.2337 240.4807,132.2316 238.6639,132.2329 238.0231,132.2264 237.0518,132.2226 236.2449,132.2265 236.0108,132.2167 235.7917,132.1901 235.2902,132.1373 234.7979,132.0885 234.2518,132.0304 233.477,131.9423 232.7094,131.8521 232.2515,131.7983 231.8722,131.7503 230.9471,131.6551 230.7119,131.6248 230.7252,131.511 230.7503,131.2833 230.8035,130.7706 232.317,129.9224 232.8156,127.64 233.7729,126.7811 234.1881,126.1092 232.6045,124.2671 232.5732,122.5042 233.6511,121.3518 234.4843,120.0165 236.076,119.2194 235.3424,117.9825 235.4577,117.0415 236.2174,115.6278 236.602,112.7122 237.5773,110.7775 238.7828,109.9701 238.1689,109.1929 239.0661,107.5039 238.8659,106.5701 239.0425,105.8041 243.1723,102.9949 244.2557,104.6682 244.7755,105.1158 247.0539,106.2289 248.8098,106.4997 249.771,106.4704 251.7984,106.7121 254.6228,106.8524 254.7122,106.7836 255.0078,106.4193 255.4573,105.6135 255.7618,104.984 257.418,104.2037 258.043,103.9815 258.4674,103.7097 258.802,103.5415 258.9248,103.5755 259.2593,103.5484 259.5957,103.4267 260.0618,102.9954 260.4369,102.7243 260.7724,102.4283 261.9423,101.3512 262.3964,101.0832 262.7366,100.9105 263.1922,100.6791 263.7138,100.4143 263.7285,100.4068 263.862,100.561 264.0356,100.7617 264.5089,101.1975 266.1505,102.9189 266.4404,103.3497 267.5063,105.3884 268.2645,106.2925 269.9768,105.0849 271.3755,104.7413 272.0076,104.2302 273.2766,103.8286 274.7551,103.8334 275.7791,103.2766 276.5963,103.1472 277.7087,103.5881 277.7817,104.9863 278.899,103.8825 278.0846,102.4177 278.0015,101.6129 278.2285,101.5135 278.6803,101.7749 278.2899,101.0098 279.1168,100.9675 280.3612,100.2632 280.6705,99.7679 281.6215,99.3644 282.6328,99.2561 283.9046,99.4928 284.4633,100.3585 285.1377,100.6499 284.6518,101.5408 284.9877,101.6832 285.3184,101.3063 285.7363,101.3527 286.2096,101.8907 285.7259,102.044 285.5862,102.2374 285.7159,102.5324 286.165,102.3937 286.4035,102.0323 286.758,102.0173 286.3267,102.5983 286.5297,102.9842 287.0387,103.1114 287.5209,103.5528 287.5694,103.8332 287.0755,104.1164 286.9802,104.4281 287.1043,105.2131 286.624,105.4434 285.1377,107.9894 284.8648,108.0823 284.7934,107.6036 284.3126,107.8756 284.0474,108.3278 284.5844,108.1959 284.6376,108.377 283.7633,109.1004 282.7183,108.5688 282.3818,107.5411 282.2536,108.0137 281.6819,108.0006 281.4955,108.2273 281.5837,109.5099 280.9705,109.564 281.1258,109.8389 280.8898,110.2675 281.1966,110.8895 280.9243,111.2183 289.3919,114.104" stroke="black" /><polygon fill="none" points="309.9962,73.5741 309.5631,74.3451 309.5155,74.4432 309.4399,74.5991 309.3047,74.878 308.9699,75.5996 308.8689,75.8175 308.4973,76.5738 308.2671,77.1497 308.1418,77.4631 307.633,78.4998 307.4214,79.0371 307.3171,79.3017 307.0324,80.0987 306.9051,80.4422 306.8044,80.7136 306.6916,81.0181 306.6081,81.1856 306.5581,81.2395 306.1314,81.699 306.0235,81.8186 305.947,81.9054 305.9451,81.9091 305.8502,81.9236 305.2413,81.7788 305.1895,81.7664 304.9785,81.8368 304.8577,81.877 304.6365,82.2404 304.5065,82.3341 304.3765,82.4278 303.7137,82.6738 303.0168,82.9324 302.5828,83.0935 302.3634,83.325 302.2984,83.3937 301.3347,83.4253 300.4529,83.8431 296.1486,84.7761 296.1611,84.5727 296.5032,78.9766 297.7014,78.8216 298.2656,78.157 299.043,77.7483 299.7651,77.705 299.9851,76.6701 300.8661,77.3789 301.4274,77.1967 301.4315,77.1954 301.72,77.1017 301.9832,76.6187 301.7118,76.2583 301.4062,75.8522 301.1739,75.5437 301.2631,74.8516 302.3829,74.1336 302.475,74.0746 303.2926,74.1154 303.5227,73.8989 303.5488,73.8742 303.575,73.8495 303.0928,73.0063 303.3323,72.1108 302.8909,71.7257 302.4026,70.5096 301.177,69.4702 300.243,69.0779 300.0118,68.7061 299.5191,68.8255 298.65,67.41 298.6288,67.3068 298.4106,66.245 297.1873,65.3441 297.145,64.8558 299.8082,64.9553 300.8668,64.1944 300.9561,63.4634 301.6899,62.566 302.4105,62.3354 303.5954,63.0341 304.2702,61.8101 305.7705,61.6677 305.8243,61.3099 305.4027,60.9325 305.4354,60.2482 306.0017,59.832 306.7621,59.7813 306.8697,59.0272 307.2527,59.3665 307.4041,59.2797 307.4317,58.1166 307.3141,57.6874 307.7971,57.3632 307.8046,57.3582 308.7023,57.7637 309.0617,57.4812 308.7311,56.8345 308.8674,56.8344 310.1951,56.8326 310.3598,56.8324 311.2837,56.8312 311.5209,56.8309 311.8161,56.8305 312.0916,56.8301 312.5851,56.8295 313.9725,56.8277 317.5946,56.8225 317.8962,56.822 317.9765,56.8219 317.6879,57.4598 316.9808,58.8421 316.5221,59.8125 316.4074,60.055 316.4043,60.0615 315.7973,61.3313 315.5716,61.7947 315.2027,62.5524 315.1594,62.6541 314.8299,63.4288 314.6711,63.8021 314.1843,64.7731 313.9675,65.2055 313.8546,65.4452 313.5323,66.1294 313.4359,66.3342 313.0524,67.1304 312.9002,67.4466 312.4284,68.4462 311.9523,69.4527 311.8564,69.6552 311.6841,70.029 311.3706,70.7089 311.3437,70.7745 311.0969,71.3769 310.9989,71.6161 310.9303,71.7845 310.5779,72.65 310.5764,72.6524 310.3761,72.9697 310.3634,72.9896 310.0112,73.5473 309.9962,73.5741" stroke="black" /><polygon fill="none" points="117.5689,404.1649 116.9241,404.7851 116.6019,405.095 115.661,406.1025 115.2463,406.5466 114.1663,407.7384 113.7498,408.2174 113.5547,408.4418 113.2131,408.8346 112.3698,409.8269 111.3966,410.8534 110.4989,411.831 109.5396,412.7102 108.275,413.8935 108.177,413.9966 103.1815,413.7109 102.0689,413.6494 79.9652,412.4551 79.7903,412.448 78.5679,412.3671 77.8574,412.3215 77.1868,412.2882 76.4833,412.2492 75.7966,412.2082 75.3914,412.1789 75.3143,412.1427 75.2545,412.2 74.5717,412.8659 73.8347,413.6114 73.0361,414.3781 72.2696,415.1547 71.4645,415.9297 70.6722,416.7079 69.8302,417.5322 68.9743,418.3759 68.9221,418.4327 68.8286,418.3715 67.6368,417.6466 66.3123,416.8645 65.53,416.3815 64.8782,415.9999 63.9679,415.4419 63.8503,415.3826 63.3647,415.0971 61.9125,414.2062 60.7398,413.5077 59.3223,412.6614 57.8871,411.8 57.813,411.741 57.7869,411.676 57.7683,411.5688 57.7566,411.5412 57.7352,411.5225 57.2655,411.0508 57.2265,411.0279 57.1858,411.0155 56.9273,410.9388 56.897,410.9401 56.8713,410.9507 56.8631,410.9712 56.862,411.003 56.8631,411.039 56.8455,411.0634 56.811,411.0751 56.3969,411.0829 55.7206,411.1055 55.662,411.1016 55.6033,411.0834 55.3322,410.9094 55.3045,410.8612 55.3213,410.8066 55.7167,410.0734 55.7839,409.963 55.8122,409.9007 55.7781,409.8646 53.3299,408.4444 50.7078,406.9129 50.6511,406.8822 50.5562,406.8622 47.338,406.5034 44.249,406.1686 41.3104,405.8365 41.0634,405.7988 41.0201,405.77 41.039,405.7206 41.8328,404.7945 32.9249,403.2554 32.9128,402.6802 32.7827,402.1502 32.5063,401.589 32.2577,401.2231 32.2761,401.0417 31.9556,400.7378 31.8121,400.5279 31.6171,400.288 31.4938,400.0463 31.4428,399.8405 31.5231,399.6019 31.4003,399.3744 31.0315,399.0913 30.9145,398.8956 30.7606,398.7563 30.722,398.6427 30.8667,398.4532 31.0712,398.3426 31.2962,398.0296 31.3926,397.7618 31.4467,397.5009 31.4143,397.3116 31.3251,397.1147 31.1124,396.6752 30.9571,396.4119 30.809,396.2368 30.6114,396.0111 30.412,395.8297 30.1838,395.7018 29.9384,395.621 29.2709,395.6217 28.8366,395.6768 28.3727,395.7692 27.9851,395.8621 16.0181,398.7228 16.0186,398.4633 15.8904,398.2297 16.1518,397.8187 16.0085,397.0625 15.5132,396.3146 15.7073,390.2671 16.0748,386.6799 16.5934,383.8322 19.0861,379.1602 19.7098,378.9572 20.0526,380.2 20.0217,381.031 19.5889,380.3046 19.4545,380.7016 20.4783,382.6439 21.1244,383.4546 24.1907,385.9483 26.3377,387.1033 30.8849,388.8679 34.6855,389.3728 36.6402,389.1978 40.0355,387.5989 41.781,385.9696 45.3349,383.5082 46.4111,382.5343 50.8498,379.7156 51.7106,378.8597 54.7131,377.9811 56.4243,377.0479 57.5589,376.7456 58.5025,376.1086 62.194,375.5237 64.9125,375.0927 66.3686,375.1693 67.2142,374.8266 68.1731,373.9878 70.1724,372.9022 69.9752,373.293 70.3063,373.2401 70.9867,372.6356 71.7185,371.3344 72.54,371.017 72.6249,370.3391 73.1034,370.05 73.3085,368.86 73.8667,367.6364 73.9807,367.4693 74.7081,366.4029 75.8874,365.7313 76.7554,364.6261 77.4143,362.881 77.491,362.1742 77.1046,361.7379 77.0083,361.2236 77.0307,360.1272 77.4039,359.2188 77.9788,357.108 77.9862,353.0881 78.2712,350.9429 78.0741,349.6625 77.1406,347.3879 76.8108,346.0895 75.6001,341.3194 74.1649,337.0739 73.7181,334.0549 74.0803,333.5862 76.5588,334.6314 80.984,335.7396 86.9727,336.3986 89.2564,336.2293 91.0909,335.7557 93.6797,334.5774 96.7377,332.6343 96.8775,332.0906 97.1764,332.3498 98.3414,330.8676 98.3445,330.5565 99.0441,330.1185 99.9341,328.9945 102.6593,326.719 102.8054,326.5122 103.2051,325.9482 104.1287,325.1885 107.0257,323.4113 109.9114,322.6231 111.0965,321.7997 112.0256,321.5671 112.6998,321.9257 113.301,321.5692 113.5745,320.8239 113.479,319.7317 113.98,318.7096 114.4069,318.3905 114.7677,318.625 115.1925,318.5635 120.8499,316.1544 122.3071,315.3354 126.4768,314.7696 129.2304,313.6245 130.0698,313.6292 130.8244,313.221 130.9157,312.7781 132.3494,312.474 133.4701,311.1943 134.8972,310.6545 134.8215,310.2416 135.8352,309.4402 135.8913,308.7642 136.9385,307.6603 137.0542,307.4288 137.3227,306.8937 141.3806,301.7526 142.2815,300.2048 142.1431,299.0837 142.4049,298.1746 142.7002,297.8365 142.9442,298.3197 143.2702,298.0538 143.8837,296.0543 144.4031,296.0365 146.5179,292.6093 146.9903,289.0212 147.3559,289.2832 147.5227,288.9192 147.3953,288.4699 147.7253,286.9757 148.2266,286.3261 148.7952,283.7635 149.7657,281.8294 149.8177,280.0138 150.7817,275.4639 151.6372,269.9768 151.9231,265.8089 152.6587,255.0864 151.4457,236.9447 151.4268,233.2091 150.7741,225.4378 177.8935,225.4643 195.5502,225.4704 213.5362,225.4675 214.2072,225.4674 216.0081,225.4663 229.368,225.4579 247.1222,225.4383 246.9426,225.7299 246.8055,225.992 246.2603,227.0346 245.9126,227.6231 245.524,228.281 244.7469,229.4387 244.2036,230.4334 244.0491,230.7163 243.283,231.9615 242.5603,233.0142 242.5312,233.0566 241.8044,234.1697 240.9471,235.5558 240.3358,236.4645 240.0987,236.8163 239.5397,237.6455 238.8184,238.7137 238.6913,238.902 238.0692,239.7567 237.1602,241.0821 236.2544,242.4248 236.1375,242.5783 235.4529,243.4774 234.4069,244.8475 233.711,245.7031 232.581,247.221 232.0342,247.9233 231.1976,248.9978 230.2745,250.0508 229.6553,250.836 223.2705,258.8739 221.2833,261.3756 217.5003,266.4184 216.047,268.3556 215.199,269.4816 214.4706,270.4011 213.7088,271.4967 212.889,272.6198 212.4659,273.2028 212.0886,273.7227 211.3777,274.6566 210.6277,275.8002 209.8874,276.9619 209.3827,277.66 208.7385,278.4758 208.6651,278.5687 207.8569,279.6463 207.3635,280.4162 207.1903,280.6864 206.9707,281.0088 206.4944,281.7075 206.2509,282.0527 206.0295,282.3665 205.5093,283.342 204.7642,284.5128 203.9044,285.7273 202.9213,287.2453 201.321,289.7669 201.2555,289.8679 199.9742,291.8428 199.8985,291.9463 199.1434,292.9789 199.0303,293.1493 198.5375,293.8919 197.7742,294.8932 197.119,295.8206 197.0139,295.9694 196.2779,297.054 195.8472,297.7352 195.5152,298.2601 194.7001,299.4455 194.0262,300.5028 193.3419,301.4918 192.4078,302.7189 191.6644,303.8245 190.933,304.8996 190.3078,305.841 189.7215,306.6737 188.8791,308.0091 188.3569,308.653 188.3202,308.6982 187.5532,309.8284 186.5288,311.2417 185.8246,312.2715 185.3562,312.8452 184.9385,313.3851 184.3985,314.1091 184.2278,314.3379 183.7415,315.0402 183.084,315.9412 182.634,316.4989 182.0984,317.1664 181.4003,317.981 180.6116,318.9877 179.8684,319.9829 179.0495,321.1068 178.1318,322.2576 177.6162,322.9382 177.1858,323.5065 176.5614,324.2907 176.0052,324.9929 175.6966,325.3824 174.6827,326.5177 173.8577,327.649 172.9509,328.9193 172.3281,329.7518 171.6672,330.5705 171.0476,331.4065 170.2269,332.4425 169.415,333.5507 168.6818,334.4578 168.2697,335.0658 168.1505,335.2417 167.4968,336.0954 166.7236,337.1118 166.1191,337.9168 165.5411,338.7016 165.5227,338.7266 165.0915,339.2969 164.7723,339.6848 164.4713,340.0894 164.1165,340.6145 163.8298,340.9883 163.6725,341.2013 163.5505,341.374 163.4473,341.4971 163.2763,341.7078 163.0259,341.9369 162.5727,342.6271 162.1039,343.3129 161.6094,343.9692 161.0694,344.6928 160.8191,345.0893 160.4996,345.5173 160.1793,345.9443 159.4511,346.9176 158.9249,347.6354 158.5528,348.1648 158.5509,348.1676 158.3182,348.5194 158.075,348.8887 157.9959,349.0057 157.9958,349.0076 157.9957,349.0115 157.7419,349.3173 157.1244,350.1303 156.6434,350.7822 155.8562,351.8606 155.1432,352.8849 154.5965,353.6753 153.9169,354.6234 153.227,355.5857 151.9679,357.4537 151.8694,357.5998 151.058,358.7242 150.9498,358.8742 150.1143,360.0199 149.3286,361.2741 149.025,361.7103 148.439,362.5523 147.737,363.5875 146.8975,364.8436 146.0443,366.0451 145.205,367.3434 144.4262,368.5043 143.7468,369.5616 143.1146,370.5649 142.5439,371.508 142.4252,371.6754 141.952,372.3427 141.9454,372.352 141.5267,373.0296 141.4338,373.1799 140.8411,374.167 140.2297,375.1216 139.5742,376.1458 139.1043,376.8685 138.947,377.1525 138.1202,378.3227 137.856,378.7782 137.2725,379.6522 136.592,380.7715 135.9964,381.7183 135.424,382.6514 134.8526,383.4414 134.3663,384.2054 133.8902,384.842 133.122,386.0507 132.3331,387.1928 131.4481,388.4118 131.3521,388.5377 130.7681,389.3032 130.5025,389.6515 129.6309,390.8077 128.6663,392.1337 127.775,393.1568 127.0352,394.0322 126.1902,394.9496 125.3623,395.905 124.4095,396.89 123.7892,397.5696 123.4669,397.8992 122.7227,398.6601 121.9579,399.452 121.0987,400.3927 120.4004,401.1424 120.2783,401.2753 119.5189,402.1008 118.4822,403.2277 117.729,404.011 117.5689,404.1649" stroke="black" /><polygon fill="none" points="289.3745,85.8943 289.2494,85.9759 288.592,86.4043 288.2254,86.8386 288.0496,87.047 288.0449,87.0525 288.0402,87.0581 288.0278,87.0727 287.1213,86.5711 286.9568,86.4134 286.9174,86.3756 286.8627,86.3232 286.6201,86.0908 285.8563,85.3589 285.2108,84.7403 285.162,84.6935 285.1301,84.6699 285.125,84.6661 284.5698,84.2553 283.3254,83.3343 283.3241,83.3334 283.253,83.2807 282.9911,83.2284 282.9682,83.2239 282.9337,83.217 282.063,83.0432 281.7768,82.9861 281.7709,82.9849 281.5184,82.9345 281.2123,82.8734 279.5743,82.5463 279.1021,82.4519 278.8392,82.3994 278.8187,82.3953 278.7669,82.3849 278.2012,82.272 278.1519,82.2622 278.1039,82.2048 275.8298,79.4817 275.7398,79.3741 275.3795,80.2334 275.5248,80.7608 274.5429,81.1044 271.735,84.1604 271.1245,84.5105 270.0835,85.1077 268.965,86.3058 265.3137,88.6195 262.4477,89.9754 259.9411,91.71 254.6176,94.2722 253.8488,95.3955 251.6771,97.2868 249.3616,98.3445 245.6572,97.8478 245.5279,97.8978 244.1959,98.4113 243.7688,99.112 243.1723,102.9949 239.0425,105.8041 238.8659,106.5701 239.0661,107.5039 238.1689,109.1929 236.8569,109.5622 234.8989,110.5374 233.5156,112.432 233.0315,114.4426 232.991,114.4382 230.5273,114.176 229.3323,114.8783 226.3938,115.8087 224.98,116.5596 224.2478,115.7055 223.9908,114.8395 223.9291,114.7657 223.8305,114.6478 223.7095,114.5031 213.9938,102.8832 213.9432,102.8278 213.7029,102.7406 213.6599,102.5778 213.574,102.247 213.8449,102.147 213.7796,101.6451 213.1152,100.9035 213.1211,100.425 213.4115,100.3623 213.6828,99.8779 212.9103,98.9925 213.1847,98.8801 213.2404,98.5238 211.92,96.9453 211.33,96.2402 211.4433,95.8432 211.4953,95.7797 212.6228,94.9404 212.826,94.7892 212.6648,94.4223 212.8872,94.006 212.8485,93.0137 218.2502,89.1345 224.2262,83.7328 225.0496,83.2829 226.8643,82.7954 227.3948,82.3672 228.1536,81.1286 229.3186,80.7109 229.3682,80.693 231.8512,64.1797 232.8902,57.2663 232.9278,57.0161 232.9395,56.9382 233.1893,56.8287 233.4131,56.7305 235.4338,57.1477 235.6177,57.1856 236.6219,56.7074 236.6232,56.4776 236.6498,52.209 236.6658,49.6536 241.2501,44.6579 242.328,45.6302 242.2147,46.4464 242.4474,47.0181 243.2123,47.3178 243.9265,47.0088 245.7394,47.2353 246.9255,47.696 247.249,48.478 249.1146,48.1676 249.5084,48.4698 250.1455,48.508 250.2909,48.8666 250.6763,48.6779 251.8247,48.2056 252.4896,47.8069 253.3253,47.8011 253.4372,47.4183 254.0532,46.8979 254.9489,47.2368 255.1377,46.9877 255.3619,47.1377 255.6765,46.928 255.7905,47.1687 256.9942,47.4878 257.7481,48.0645 257.8318,48.0932 259.9868,48.8299 260.1823,49.136 260.5641,49.1815 261.5864,49.902 261.6218,49.9039 262.4685,49.4578 262.4866,49.1235 262.0529,48.4062 262.2752,47.558 262.5831,46.9694 262.4275,46.5093 263.1302,45.5106 263.2922,44.847 262.9072,43.7908 263.014,43.2277 263.7434,42.5442 264.204,42.1123 266.1988,40.8014 266.5254,39.1905 267.3732,38.5965 267.5798,38.2061 267.6392,37.0637 267.9515,36.2669 269.1561,34.9942 269.1981,34.178 268.3532,29.6937 268.4259,29.58 269.4424,27.9912 269.5042,27.8945 269.6306,27.3377 269.0515,25.5914 268.555,21.9806 269.1858,21.0587 270.9574,20.142 272.3559,19.823 274.2968,19.8668 275.0238,19.5801 275.586,18.9502 275.6719,18.4564 275.3384,17.0387 275.1627,15.7169 275.2516,15.5244 275.5797,14.8687 276.014,14.4382 276.5117,14.0674 276.7702,13.9079 277.0528,13.7715 277.1989,13.7008 277.3354,13.601 277.4084,13.5303 277.4657,13.4501 277.4841,13.4528 277.5987,13.4684 277.7414,13.5092 277.9927,13.6166 278.2416,13.7752 278.4514,13.9557 278.6613,14.19 278.7808,14.2778 278.9297,14.3266 279.8959,14.3315 280.3155,14.3608 280.501,14.3974 280.6562,14.4495 280.8035,14.534 280.9353,14.6804 281.0914,14.9 281.3208,15.1098 281.7746,15.3831 282.2284,15.5636 282.7554,15.6515 283.5362,15.7491 283.9412,15.8418 284.1291,15.8735 284.2535,15.9406 284.3365,16.015 284.4145,16.1199 284.5134,16.2187 284.6244,16.2956 284.9062,16.3969 285.1965,16.4945 285.5747,16.675 286.0102,16.9788 286.5177,17.3106 286.9276,17.5253 287.2741,17.7156 287.5339,17.9413 287.695,18.1658 287.7535,18.4049 287.7731,18.6489 287.7779,19.1564 287.8121,19.7566 287.8902,20.3422 287.8463,20.7569 287.7487,21.1571 287.6559,21.4499 287.6089,21.621 287.573,21.811 287.5676,21.9638 287.5827,22.1135 287.6218,22.2624 287.695,22.4161 287.9292,22.6869 288.0463,22.8699 288.1,23.0407 288.1927,23.4164 288.344,23.8946 288.5111,24.2878 288.616,24.4851 288.6917,24.6782 288.7014,24.7815 288.6868,24.8852 288.6307,25.0731 288.5685,25.2273 288.4867,25.3955 288.4587,25.5092 288.4501,25.6282 288.4745,25.8527 288.555,26.2982 288.5648,26.4578 288.5453,26.6383 288.4818,26.9567 288.4672,27.1409 288.477,27.3081 288.4916,27.4654 288.5502,27.6057 288.6648,27.7363 288.7844,27.8351 289.1113,28.1815 289.2821,28.3828 289.4139,28.5866 289.5993,28.9586 289.7555,29.338 289.9745,29.8326 289.9751,29.834 289.9836,30.0679 290.0065,30.0731 290.0257,30.0825 290.0422,30.0981 290.0635,30.1249 290.0925,30.1661 290.1669,30.2625 290.2926,30.4528 290.4255,30.6394 290.5646,30.8651 290.6659,31.0518 290.7464,31.2372 290.8684,31.4812 290.9489,31.6837 291.0123,31.8191 291.105,31.9692 291.1807,32.0594 291.3685,32.2132 291.4918,32.2876 291.6162,32.3461 291.7553,32.39 291.8968,32.4108 292.3067,32.4169 292.5421,32.4169 292.6275,32.4242 292.6583,32.4193 292.6873,32.4096 292.7117,32.3968 292.7311,32.3799 292.755,32.3303 292.7611,32.2656 292.7404,32.1558 292.7489,32.0985 292.7733,32.0509 292.8209,32.0119 292.877,31.9814 292.9636,31.9545 293.0698,31.9411 293.2259,31.9423 293.426,31.9484 293.8212,31.9387 294.3653,31.9435 294.635,31.9594 294.9216,31.957 295.0924,31.9716 295.2449,32.0021 295.5219,32.0729 295.8037,32.1717 295.9708,32.2412 296.1001,32.3254 296.4014,32.5804 296.5173,32.6828 296.7836,32.9523 297.1078,33.5185 297.2859,33.8918 297.4518,34.2627 297.669,34.5774 297.9935,34.9824 298.1057,35.1191 298.1935,35.2777 298.3106,35.5997 298.7206,36.1829 298.9743,36.5025 299.0475,36.5732 299.1439,36.644 299.2451,36.7806 299.4062,36.9856 299.6575,37.3979 299.7477,37.4992 299.8243,37.5654 299.9015,37.6187 299.9649,37.6517 300.0137,37.6724 300.0616,37.6843 300.0988,37.6886 300.121,37.6887 300.1429,37.6874 300.1586,37.6828 300.1671,37.6788 300.1705,37.6759 300.1723,37.6724 300.1724,37.6685 300.1711,37.6642 300.1656,37.6569 300.1515,37.6474 300.118,37.6309 300.0881,37.6065 300.0802,37.5907 300.0765,37.5718 300.0765,37.5507 300.082,37.523 300.0994,37.4961 300.1267,37.4718 300.161,37.4534 300.2031,37.4388 300.287,37.4235 300.4587,37.4126 300.6237,37.4089 300.8408,37.4113 300.8893,37.4113 300.9296,37.4092 300.9564,37.404 300.9735,37.3967 300.9875,37.3876 300.9964,37.3751 301.0,37.3601 301.0,37.3436 300.9906,37.3113 300.9701,37.2503 300.9387,37.193 300.8918,37.1283 300.799,37.0149 300.5313,36.7044 300.2701,36.3793 299.9384,35.8431 299.7163,35.4991 299.4162,34.9794 299.1625,34.4085 299.0258,34.1108 298.9185,33.7741 298.8355,33.3349 298.7867,32.8664 298.7233,32.1589 298.7087,31.8588 298.6965,31.5562 298.6983,31.3464 298.6849,31.1854 298.6763,31.017 298.6934,30.8486 298.7007,30.7779 298.694,30.6998 298.6397,30.5546 298.6092,30.3924 298.5232,30.1289 298.4885,29.9874 298.4689,29.8263 298.4616,29.6555 298.4703,29.5709 298.4909,29.4945 298.5459,29.4001 298.6092,29.3237 298.7703,29.1554 298.9703,29.0187 299.2582,28.8601 299.5559,28.7723 299.901,28.7132 300.183,28.704 300.4221,28.7284 300.6539,28.7918 300.8344,28.8772 301.0833,29.0285 301.2492,29.1114 301.4273,29.1651 301.6981,29.2554 301.847,29.3018 302.0056,29.3213 302.5472,29.3115 303.2938,29.3506 303.8672,29.3457 304.4463,29.3828 304.7919,29.4286 305.1213,29.5018 305.7362,29.6677 306.2729,29.7605 306.534,29.7763 306.7951,29.8117 306.8378,29.8276 306.8719,29.8495 306.8994,29.8812 306.9146,29.919 306.9226,29.9611 306.9201,30.0087 306.9061,30.0581 306.8805,30.1014 306.8512,30.1374 306.8008,30.2242 306.786,30.3011 306.7949,30.3691 306.8481,30.4934 306.9162,30.5969 306.9591,30.6309 307.0167,30.6531 307.0796,30.6532 307.1484,30.6398 307.2114,30.6141 307.2687,30.5787 307.3846,30.4738 307.5048,30.3248 307.7902,30.1015 308.0845,29.9166 308.2132,29.9033 308.3448,29.9284 308.3895,30.6622 308.1009,31.0842 307.5835,31.8406 309.1298,32.7783 309.3894,34.1358 309.0332,34.5812 308.3177,35.4764 307.3787,36.6512 307.4759,36.9146 308.275,37.1423 308.9479,37.9693 308.9534,38.6426 308.957,39.0798 308.2362,39.0852 309.5574,40.2025 309.143,40.6173 307.8934,41.0837 307.821,41.5821 308.4302,41.6706 308.5467,41.9574 307.6594,42.5926 308.1572,42.9628 309.7544,43.1307 310.5191,43.583 311.2578,43.2841 311.5469,43.7709 310.9707,45.2825 310.1777,45.8548 310.2426,46.4374 310.469,46.4896 311.2379,47.5336 311.2538,48.2725 311.2695,49.0004 311.5547,48.9111 311.6257,48.2586 311.6955,47.616 311.292,47.0444 311.3647,46.8024 311.7973,46.2715 312.1775,46.2526 312.4099,46.7716 312.3327,47.6567 312.2966,48.0718 313.5812,48.4029 314.185,48.5586 315.6758,48.9428 316.322,49.1094 316.3453,49.1143 316.4542,49.1375 317.6162,49.385 317.9693,49.4602 318.0453,49.4764 318.6318,49.6013 318.717,49.6194 318.7174,49.6195 318.7714,49.633 318.9351,49.6738 318.9553,49.6782 320.8247,50.0847 321.1521,50.1404 320.4569,51.5746 320.3611,51.773 319.7568,53.0232 319.7522,53.0329 319.6182,53.3165 319.5226,53.5187 319.3052,53.9787 319.0346,54.5514 318.8878,54.8622 318.3065,56.0928 317.9765,56.8219 317.8962,56.822 317.5946,56.8225 313.9725,56.8277 312.5851,56.8295 312.0916,56.8301 311.8161,56.8305 311.5209,56.8309 311.2837,56.8312 310.3598,56.8324 310.1951,56.8326 308.8674,56.8344 308.7311,56.8345 309.0617,57.4812 308.7023,57.7637 307.8046,57.3582 307.7971,57.3632 307.3141,57.6874 307.4317,58.1166 307.4041,59.2797 307.2527,59.3665 306.8697,59.0272 306.7621,59.7813 306.0017,59.832 305.4354,60.2482 305.4027,60.9325 305.8243,61.3099 305.7705,61.6677 304.2702,61.8101 303.5954,63.0341 302.4105,62.3354 301.6899,62.566 300.9561,63.4634 300.8668,64.1944 299.8082,64.9553 297.145,64.8558 297.1873,65.3441 298.4106,66.245 298.6288,67.3068 298.65,67.41 299.5191,68.8255 300.0118,68.7061 300.243,69.0779 301.177,69.4702 302.4026,70.5096 302.8909,71.7257 303.3323,72.1108 303.0928,73.0063 303.575,73.8495 303.5488,73.8742 303.5227,73.8989 303.2926,74.1154 302.475,74.0746 302.3829,74.1336 301.2631,74.8516 301.1739,75.5437 301.4062,75.8522 301.7118,76.2583 301.9832,76.6187 301.72,77.1017 301.4315,77.1954 301.4274,77.1967 300.8661,77.3789 299.9851,76.6701 299.7651,77.705 299.043,77.7483 298.2656,78.157 297.7014,78.8216 296.5032,78.9766 296.1611,84.5727 296.1486,84.7761 290.3077,85.4299 290.1148,85.4515 290.0411,85.4598 289.3745,85.8943" stroke="black" /><polygon fill="none" points="266.8291,179.0267 266.6911,179.3599 266.3522,180.1558 266.2631,180.365 266.0072,181.0651 265.789,181.6621 265.4213,182.6096 265.3637,182.7578 264.8445,184.1491 264.7924,184.2888 264.625,184.7081 264.4433,185.1633 264.339,185.4246 264.2089,185.7675 263.9547,186.4377 263.5554,187.4742 263.5453,187.5005 263.0467,188.7811 262.974,188.9756 262.8221,189.3822 262.5953,189.9892 262.5896,190.0066 262.4471,190.4385 262.2561,191.0175 262.0557,191.6039 261.7336,192.5466 261.4143,193.5504 261.1645,194.2578 260.9948,194.7384 260.5635,195.9305 260.132,197.1967 259.9249,197.7513 259.884,197.8606 259.7959,198.0966 259.3817,199.3034 258.9838,200.2669 258.6188,201.2784 258.0781,202.579 257.7859,203.3699 257.5119,204.0504 257.2633,204.6927 257.1112,205.1358 256.4915,206.738 255.9555,207.9263 255.3857,209.4576 254.8357,210.7507 254.3993,211.6435 253.9685,212.5236 253.432,213.5736 253.0291,214.3643 252.4263,215.64 251.758,216.9655 251.345,217.833 250.8265,218.8923 250.3391,219.8145 249.2385,221.7653 248.4547,223.1791 247.8574,224.2449 247.1222,225.4383 229.368,225.4579 216.0081,225.4663 214.2072,225.4674 213.5362,225.4675 195.5502,225.4704 177.8935,225.4643 150.7741,225.4378 148.0532,209.1047 147.6007,207.8874 146.9213,204.6354 144.9058,200.3649 143.5401,198.0335 140.2829,193.4763 139.0962,191.0293 138.9926,189.1438 139.8669,188.3045 141.0636,187.9988 141.0822,187.159 141.6071,186.4998 141.9688,185.0203 142.263,184.7252 142.7615,184.5502 142.9912,184.8125 143.591,184.8115 144.0976,185.2672 144.7483,185.2386 145.5337,183.5336 147.3075,183.0848 147.5223,183.3353 147.3567,184.2117 148.7986,184.6453 149.7435,185.5936 150.7008,186.0525 151.8465,188.3065 152.6353,189.33 153.4829,189.8081 154.8054,191.0315 155.4629,191.2779 156.2534,192.2322 157.5794,193.1347 158.4238,193.5624 159.815,195.0336 161.0827,195.4869 161.0709,196.1091 161.3208,196.6202 161.9245,196.9588 162.5349,196.7444 163.1389,195.9209 162.1653,194.6338 163.1431,194.2221 163.831,194.3164 163.1863,194.5351 163.2457,194.7743 164.9542,196.0118 165.3999,196.0538 166.3114,195.5441 167.8553,195.7001 164.7628,194.4081 164.9336,194.0671 165.8679,194.1821 166.1624,193.2366 165.8124,192.9231 164.5097,192.6849 164.0454,192.0969 165.6333,190.9899 166.0527,189.005 165.9466,187.3081 165.1722,186.0964 164.7398,183.6622 164.6756,181.7204 165.5086,179.3979 166.2456,178.945 166.5913,178.2452 166.9346,178.121 167.562,178.2752 167.3289,178.5985 167.1815,180.2329 167.1918,182.4555 168.7666,186.0348 169.3328,187.098 170.3739,188.204 175.3138,195.4037 176.2368,196.2648 176.3078,197.9544 176.21,198.1589 175.3345,198.3546 174.2456,197.9852 173.473,197.9803 173.3423,197.7507 172.7407,197.9641 172.8041,198.1905 172.0748,198.9272 171.2048,199.3019 170.0133,199.0462 169.0449,199.699 168.6926,200.4197 169.0357,200.6809 168.4072,201.1876 167.4261,201.1135 166.4485,199.787 165.311,199.5525 163.5751,200.4454 162.8299,200.5203 161.9205,201.3225 161.2026,201.2517 160.6903,201.5738 159.7191,202.6468 158.9814,205.0444 158.9827,206.2997 159.6571,207.6677 159.8936,208.753 159.9358,209.2529 159.535,209.6143 159.8737,209.6382 160.1686,210.1028 160.1337,210.5739 160.3858,210.6974 160.275,210.9971 160.4595,211.2264 160.9568,211.1772 161.3402,211.68 161.413,211.9168 160.9548,212.5262 163.3628,215.205 164.3342,215.8872 164.9035,215.9729 165.9963,217.199 167.4407,218.038 170.4461,220.3021 170.754,220.8452 171.3835,221.3097 175.2026,222.7255 175.7507,222.5341 176.7199,222.5303 179.1633,222.5202 181.4179,220.151 181.3713,219.0891 182.2643,217.3012 181.5532,216.1403 181.3957,215.4585 181.9892,214.5257 182.9907,213.8436 182.9973,213.1895 183.3578,212.8787 183.3207,211.7176 183.8283,210.9962 183.7783,209.8783 184.1279,208.141 183.4372,205.9867 184.0872,204.1645 184.0919,202.6076 184.563,200.5115 183.8234,199.0116 184.0686,197.8557 183.9043,197.2796 183.3202,196.6879 183.8208,194.5538 185.6096,192.2014 185.7593,191.1515 187.0977,190.0837 187.2717,189.4193 187.8059,188.6764 187.7263,188.4516 187.128,188.4745 187.1617,188.0451 188.214,187.9893 189.3801,185.8176 189.8232,182.0343 189.0274,181.1048 189.1212,179.0452 188.2348,177.7837 186.6098,176.5372 186.5214,176.0052 186.626,175.1075 188.8037,172.1315 190.0105,170.4815 190.2399,167.9322 189.7859,165.5658 190.1731,164.6361 191.0508,164.1198 191.442,163.353 191.0726,162.0516 191.2374,160.8228 190.4289,158.6221 190.0149,158.1857 190.116,157.4624 189.8664,153.6077 190.4727,145.2768 190.5338,145.2025 191.5659,143.9498 192.1472,144.113 192.1953,144.7481 192.4448,145.0936 193.3197,145.2941 193.7551,145.6786 193.9279,146.809 194.8057,147.9458 195.1066,149.1768 196.1642,148.9984 198.9943,147.1202 200.8965,146.8777 202.4024,146.3992 202.8347,146.2619 203.3706,146.0917 204.0852,145.8645 204.1782,145.8349 205.723,144.852 207.1843,144.4336 208.0533,143.5974 208.4818,143.6979 209.4431,144.5064 209.5378,144.5403 210.767,144.3749 211.3048,144.3727 212.7635,144.2496 213.6913,144.3116 213.8619,144.0434 214.0638,143.9443 214.3024,143.8737 214.64,143.8419 214.5848,143.6952 214.5615,143.4752 214.6069,143.3699 214.9372,143.1965 215.1877,143.1671 215.9183,143.1826 216.0873,143.1637 216.2056,143.0856 216.5678,143.4981 216.716,143.5663 216.7986,143.5791 216.943,143.6726 217.1035,143.8285 217.5574,144.0147 217.6146,144.1041 217.7698,144.2466 218.1208,144.4738 218.8281,144.8451 219.0766,145.0122 219.1574,145.1148 219.1315,145.2316 218.9501,145.405 218.9075,145.5082 219.1384,145.5258 220.3259,145.7729 220.5528,145.8678 221.3805,145.9262 223.9507,146.1074 225.7242,145.8593 225.7824,145.851 225.8054,147.5927 225.7902,147.6928 225.3889,148.7686 227.7315,147.5834 230.0991,147.0059 231.7897,146.1708 234.4806,146.1815 236.4425,145.3453 239.3248,144.6632 239.9242,143.5724 240.7771,142.5133 240.8202,142.4497 240.8654,142.379 240.8894,142.3239 240.9233,142.2585 241.85,142.6305 242.9969,143.1655 243.7254,143.4699 244.4938,143.7484 245.1461,143.9781 245.6089,144.1012 245.9484,144.167 247.5499,144.5056 247.7695,144.5553 248.7488,144.7768 249.8246,145.0166 250.0788,145.0716 251.0583,145.2859 252.9979,145.7003 258.0894,146.803 258.4641,146.8934 258.7066,146.9619 258.9594,147.0434 259.2153,147.1294 259.7655,147.3433 261.3433,147.916 263.1434,148.5965 264.6877,149.1523 264.9747,149.2693 265.0723,149.3318 265.172,149.4064 265.2747,149.501 265.3552,149.6093 265.5114,149.8099 265.9944,150.4369 266.0637,150.5334 266.1181,150.5961 265.973,150.7013 265.8938,150.7736 265.839,150.8323 265.7508,150.7835 265.739,150.7136 265.6745,150.6222 265.5926,150.5613 265.4844,150.4743 265.3957,150.4394 265.2474,150.4649 265.1448,150.4942 265.0581,150.4572 265.0067,150.3748 264.857,150.2777 264.7267,150.2173 264.5678,150.1281 264.5549,149.9863 264.5767,149.8676 264.5053,149.7626 264.4189,149.7874 264.3414,149.8593 264.3284,149.9471 264.2938,150.0584 264.2736,150.1671 264.323,150.2871 264.3911,150.3744 264.4687,150.5485 264.5743,150.7607 264.6541,150.9739 264.9369,151.4682 265.0735,151.6692 265.4674,152.0865 265.5082,152.1798 265.5788,152.2027 265.6759,152.2265 265.9297,152.4298 266.1554,152.5972 266.4211,152.8491 266.563,152.9999 266.7395,153.1264 266.8613,153.248 266.9195,153.3992 266.8983,153.5162 266.744,153.4877 266.6389,153.5127 266.5041,153.5368 266.3683,153.5242 266.2671,153.5086 266.1826,153.5841 266.0909,153.661 266.005,153.724 265.9372,153.8366 265.6443,153.8393 265.5996,153.7516 265.4951,153.6814 265.3699,153.6298 265.2601,153.6918 265.1532,153.7992 265.0683,153.9662 265.0037,154.0962 264.9785,154.2346 265.0222,154.7393 265.0588,154.932 264.9619,154.9838 264.9296,155.203 264.9281,155.4043 264.886,155.6408 264.9034,155.8694 264.9814,155.934 265.0541,156.081 265.0844,156.2393 265.1579,156.3446 265.2472,156.4236 265.2969,156.561 265.4205,156.8211 265.448,156.9569 265.5845,157.0978 265.7737,157.2492 265.7865,157.5391 265.6934,157.6643 265.6365,157.8367 265.6579,157.9938 265.5584,158.0608 265.3872,158.012 265.1843,157.8617 265.1047,157.6744 265.1068,157.4843 265.0497,157.223 264.9167,157.0777 264.7846,157.0296 264.7524,156.913 264.6895,156.805 264.6042,156.6922 264.3304,156.1055 264.3238,155.9828 264.2243,155.7957 264.1813,155.6542 264.1157,155.5615 264.0332,155.3293 263.943,155.198 263.8477,155.0994 263.7633,155.0353 263.7045,154.9406 263.6057,154.9026 263.5004,154.785 263.4379,154.6909 263.3007,154.6266 263.126,154.5486 262.8403,154.4701 262.5986,154.4383 262.3555,154.4493 262.1279,154.4561 261.8553,154.4787 261.5995,154.5473 261.324,154.6185 261.0874,154.7014 260.9051,154.8241 260.7105,154.9708 260.4945,155.1635 260.2773,155.4555 260.1955,155.8356 260.0971,156.0142 260.1149,156.1535 260.0761,156.3326 260.1807,156.6244 260.2721,156.7869 260.4916,157.0457 260.563,157.236 260.6869,157.3627 260.9017,157.5833 260.8758,157.7371 260.618,157.9794 260.5573,158.1421 260.5397,158.3242 260.6108,158.4942 260.5678,158.6043 260.4387,158.7059 260.2688,158.6923 260.0439,158.7238 259.9232,158.7042 259.6711,158.8018 259.5201,158.9138 259.4218,159.0771 259.3754,159.2931 259.3701,159.5401 259.4237,159.6963 259.4751,159.9424 259.596,160.1084 259.6969,160.218 259.7787,160.4078 259.8181,160.5779 259.9062,160.7366 260.0686,160.8486 260.2099,161.0678 260.7782,161.9477 261.1076,162.2786 261.4184,162.5682 261.7056,162.7655 261.1137,163.2423 260.6704,163.6784 260.426,163.9273 259.1156,165.7541 259.0259,165.8791 259.0931,165.9485 259.1522,166.0489 259.1972,166.1685 259.3,166.2539 259.3589,166.3682 259.3517,166.456 259.3183,166.5743 259.3626,166.6428 259.2987,166.747 259.1556,166.8074 259.082,166.8792 259.128,166.9569 259.222,166.9897 259.3084,167.031 259.3918,167.1032 259.491,167.1824 259.5528,167.2314 259.6316,167.3128 259.6922,167.376 259.7558,167.4201 259.7714,167.4619 259.7791,167.5005 259.7467,167.524 259.7264,167.5558 259.6893,167.61 259.6759,167.725 259.6304,167.8675 259.5761,167.9523 259.5306,167.9543 259.4971,168.0161 259.435,168.0918 259.3997,168.1587 259.506,168.201 264.0262,169.998 266.4225,170.8086 267.3789,171.123 267.8474,171.2657 267.8572,171.2687 268.5436,171.4796 269.0963,171.6473 269.2953,171.7152 269.6454,171.8346 269.6528,171.8372 269.5565,172.0637 269.5045,172.1981 269.2382,172.8858 268.8207,174.0069 268.4347,175.0035 268.0566,175.8988 267.834,176.4883 267.7594,176.6989 267.4908,177.4571 267.0727,178.4384 266.8291,179.0267" stroke="black" /><polygon fill="none" points="236.6498,52.209 236.6232,56.4776 236.6219,56.7074 235.6177,57.1856 235.4338,57.1477 233.4131,56.7305 233.1893,56.8287 232.9395,56.9382 232.9278,57.0161 232.8902,57.2663 231.8512,64.1797 229.3682,80.693 229.3186,80.7109 228.1536,81.1286 227.3948,82.3672 226.8643,82.7954 225.0496,83.2829 224.2262,83.7328 218.2502,89.1345 212.8485,93.0137 212.8872,94.006 212.6648,94.4223 212.826,94.7892 212.6228,94.9404 211.4953,95.7797 211.4433,95.8432 211.33,96.2402 211.92,96.9453 213.2404,98.5238 213.1847,98.8801 212.9103,98.9925 213.6828,99.8779 213.4115,100.3623 213.1211,100.425 213.1152,100.9035 213.7796,101.6451 213.8449,102.147 213.574,102.247 213.6599,102.5778 160.603,99.8508 160.464,99.8435 159.515,100.3837 159.5458,99.5763 160.0097,98.7733 158.7658,99.7313 156.7832,100.7541 154.8797,102.25 153.4086,102.8239 152.9872,103.1902 151.2907,102.5314 151.2346,102.4344 151.0214,102.065 151.2961,101.3407 151.4147,99.8067 150.7098,99.6804 149.8305,99.5228 146.9282,97.7299 146.7114,96.5248 147.1191,94.4425 146.9111,93.346 146.1932,92.9058 144.6109,92.6733 143.3255,91.4712 143.8541,89.3339 143.0419,88.0341 143.1665,86.7029 142.5653,85.0183 142.1534,84.9012 142.1772,82.6653 145.1883,82.1275 146.4295,81.7273 147.0792,81.06 147.4141,80.1422 147.3998,79.4122 147.8399,78.7933 149.9507,76.9721 150.819,76.2228 150.9985,75.4305 150.609,74.4595 149.6309,73.6992 146.8011,72.7842 145.9154,72.2165 145.9093,72.1729 145.3567,68.2295 145.9923,66.9957 148.6899,64.7444 148.6726,64.2482 149.3777,62.3281 151.4996,59.8368 152.3556,58.186 152.7811,57.3653 152.699,55.6575 152.1854,55.7187 152.2667,54.8124 151.5246,53.8348 152.6365,52.2425 152.336,51.2452 152.7237,50.7729 152.4252,50.2428 152.5502,49.2363 151.7705,47.7689 151.794,47.5198 151.8911,46.4819 151.4011,46.4749 151.0665,45.7865 151.2026,44.8837 151.2142,44.8055 151.2045,44.781 151.0723,44.4456 150.4453,44.4879 150.1842,44.3218 149.5297,43.9055 148.959,44.4186 148.7724,44.386 148.2731,43.2755 148.0653,43.1559 147.7476,42.9731 147.3817,42.7624 147.3357,42.6376 147.3245,42.6075 146.9619,41.6233 144.6282,40.2485 143.9535,40.1888 142.9632,40.6896 141.1311,38.8769 140.2648,38.7837 138.6516,37.7105 137.7393,37.4235 137.4327,36.84 137.4256,35.8923 136.8154,35.6079 136.5326,35.1742 135.63,35.1989 135.0831,34.6844 134.7916,32.5223 133.6298,31.9701 133.5518,31.0016 132.82,30.6571 133.1477,30.0256 133.4728,29.9932 133.9221,29.4557 136.0261,28.7965 136.3795,28.8943 138.2499,29.412 139.0596,29.6361 141.6798,31.1791 143.8334,30.4707 146.0022,30.7997 146.7775,31.3244 147.2729,32.6002 148.7929,31.0174 148.815,30.5461 148.7078,30.5331 148.6421,30.4861 148.5867,30.3745 148.5773,30.2935 148.5545,30.2382 148.4809,30.167 148.3915,30.1144 148.295,30.0356 148.2009,29.9894 148.1064,29.9746 147.9825,29.9893 147.8657,29.9501 147.7934,29.8727 147.7648,29.7533 147.7672,29.5729 147.6824,29.4018 147.6171,29.194 147.5897,28.9688 147.5148,28.7953 147.5414,28.522 147.4947,28.4095 147.3711,28.2809 147.1798,28.1986 146.9866,28.162 146.806,27.9871 146.7433,27.8202 146.7549,27.7147 146.7643,27.6151 146.7282,27.5326 146.6979,27.4894 146.6836,27.4436 146.7046,27.3999 146.6868,27.3689 146.6361,27.3575 146.5435,27.3275 146.4952,27.251 146.4948,27.1934 146.5426,27.1364 146.5807,26.9816 146.5594,26.8496 146.4692,26.7308 146.2989,26.648 146.1358,26.4934 145.9473,26.2806 145.8148,26.0317 145.6976,25.9413 145.4993,25.9157 145.3629,25.9191 145.2518,25.847 145.2198,25.6718 145.153,25.478 145.0198,25.3367 144.9738,25.1082 144.9729,24.9278 145.0166,24.6924 145.0231,24.6272 144.996,24.5587 144.9414,24.5143 144.79,24.5002 144.7147,24.4694 144.6454,24.3489 144.6337,24.2988 144.5214,24.1863 144.4217,24.1396 144.3727,24.0499 144.3256,24.0037 144.3171,23.9753 144.3373,23.9302 144.3742,23.9008 144.3993,23.8752 144.4069,23.8343 144.3919,23.7945 144.2974,23.7282 144.2117,23.6415 144.1252,23.4872 144.0865,23.2622 144.0833,23.0906 144.0354,23.021 143.9502,22.9613 143.8842,22.893 143.8718,22.8354 143.9021,22.7699 143.9105,22.6947 143.8706,22.6092 143.8147,22.5367 143.7553,22.4919 143.7232,22.4245 143.7148,22.3456 143.7337,22.2402 143.7179,22.1275 143.6825,22.0047 143.6751,21.9352 143.6581,21.8559 143.6326,21.8256 143.6485,21.8004 143.6615,21.7767 143.6517,21.7408 143.6309,21.6863 143.6199,21.651 143.5981,21.594 143.5879,21.5739 143.5943,21.5642 143.6072,21.5576 143.6207,21.5579 143.6488,21.5695 143.6783,21.576 143.7624,21.5641 143.8279,21.5952 143.9063,21.5848 143.9575,21.5418 144.0375,21.5281 144.1094,21.5152 144.1687,21.5279 144.2215,21.5742 144.343,21.609 144.5688,21.6775 144.8026,21.7157 145.1359,21.8217 145.491,21.8482 145.7585,21.919 146.023,21.9319 146.3777,21.9733 146.7656,22.1507 146.9958,22.3957 150.755,19.0655 150.7035,18.9836 150.6784,18.805 150.6207,18.5886 150.6214,18.5629 150.6716,18.4926 150.6874,18.4593 150.7178,18.0867 150.741,17.8195 150.7255,17.7918 150.3961,17.5519 150.212,17.3544 150.153,17.2724 149.9902,17.1053 149.8483,16.9705 149.6585,16.8356 149.5043,16.752 149.242,16.6906 149.1562,16.641 149.0207,16.5736 148.9909,16.5326 148.9869,16.4741 149.0618,16.1537 149.0646,16.1113 149.0463,16.0805 148.8856,16.0031 148.8623,15.9903 148.8473,15.9659 148.7694,15.6806 148.8195,15.2916 148.8335,14.6474 148.0488,12.1841 147.9016,11.6541 147.9668,11.6229 148.0133,11.5652 148.0339,11.4984 148.0284,11.4095 148.009,11.3303 147.9562,11.2509 147.8386,11.163 147.7577,11.067 147.68,10.9389 147.6429,10.8457 147.6424,10.7676 147.6589,10.6868 147.6512,10.5794 147.6359,10.4752 147.6173,10.3775 147.5984,10.3201 147.549,10.2593 147.4863,10.2212 147.4552,10.1653 147.4599,10.0889 147.504,10.0239 147.5998,9.9343 147.6976,9.8375 147.7611,9.7996 147.8281,9.7945 147.8996,9.8132 147.9731,9.8571 148.0623,9.96 148.1745,10.0514 148.2984,10.0889 148.4014,10.0509 148.4585,9.9962 148.4786,9.9245 148.4614,9.8357 148.4046,9.756 148.3621,9.6803 148.3439,9.6019 148.3145,9.5305 148.3109,9.4602 148.3227,9.3467 148.3049,9.2559 148.2767,9.1648 148.2363,9.0828 148.17,8.9842 148.1115,8.8895 148.0653,8.7776 148.0443,8.686 148.0455,8.616 148.0721,8.5733 148.1188,8.5442 148.1948,8.5279 148.3518,8.5101 148.5557,8.4797 148.712,8.5008 148.8832,8.5706 149.0691,8.6765 149.2604,8.7627 149.3741,8.781 149.484,8.7659 149.5761,8.7404 149.622,8.688 149.637,8.6042 149.6223,8.5303 149.5491,8.469 149.4746,8.3447 149.4047,8.1399 149.4275,7.9871 149.4651,7.8704 149.5026,7.8181 149.5621,7.7964 149.6242,7.805 149.7487,7.8636 149.8166,7.8755 149.8649,7.8602 149.8914,7.8287 149.902,7.7578 149.8837,7.6713 149.8264,7.5737 149.7549,7.4054 149.7712,7.2851 149.8141,7.1972 149.9025,7.073 149.9298,6.9941 149.9167,6.9245 149.8813,6.8679 149.8014,6.8038 149.7375,6.678 149.7184,6.5489 149.7252,6.4586 149.7698,6.3849 149.8392,6.3435 149.9365,6.3268 150.1142,6.3336 150.2963,6.3442 150.5048,6.3305 150.7062,6.2827 150.8722,6.1974 151.0203,6.1281 151.0709,6.0737 151.0763,6.04 151.0681,6.0111 151.0419,5.9902 150.9668,5.9645 150.8307,5.89 150.7671,5.8101 150.7518,5.7319 150.7816,5.6568 150.8471,5.6009 151.0219,5.5255 151.1783,5.4237 151.32,5.2414 151.4182,5.026 151.4562,4.8281 151.4479,4.7065 151.3962,4.6362 151.2355,4.5903 151.1083,4.4741 151.0788,4.3133 151.0887,4.1717 151.1272,4.0848 151.1882,4.0149 151.213,3.8591 151.1823,3.7215 151.1134,3.6031 151.0792,3.45 151.0992,3.3281 151.1609,3.2048 151.181,3.073 151.1739,2.8447 151.1942,2.5575 151.1824,2.3015 151.2238,2.1166 151.1568,1.9928 150.9538,1.9272 150.8681,1.826 150.7519,1.7169 150.5583,1.6215 150.3527,1.5793 150.1602,1.5086 150.0092,1.3494 149.9373,1.1897 149.9466,1.0215 150.0304,0.8848 150.2044,0.782 150.392,0.6348 150.5179,0.4645 150.5907,0.308 150.7519,0.2136 150.9496,0.1991 151.1175,0.1715 151.276,0.0897 151.409,0.0146 151.5343,0.0 159.3878,1.4463 159.5839,1.4749 159.7877,1.4882 160.138,1.4844 160.5056,1.4463 160.7188,1.3873 160.9531,1.3435 161.2082,1.3111 161.4405,1.3054 161.6976,1.2882 161.9509,1.2863 162.1737,1.2997 162.3984,1.3301 162.6174,1.3796 162.8021,1.4501 163.499,1.7795 163.8437,1.9471 164.0322,2.0271 164.2268,2.0789 164.3026,2.0899 164.3769,2.0842 164.533,2.0423 164.8834,1.9642 165.2046,1.9115 165.3728,1.9109 165.5423,1.9243 165.6898,1.9633 165.7898,2.0109 165.8784,2.0794 165.9384,2.1737 165.9783,2.3536 166.0164,2.6983 166.0412,2.8411 166.0869,2.9535 166.1669,3.0554 166.2583,3.1449 166.4868,3.3277 167.0066,3.7051 167.8019,4.2081 168.1705,4.3856 168.57,4.4664 169.4524,4.6223 169.8696,4.7159 170.2695,4.8377 171.0659,5.123 171.7844,5.3881 172.1128,5.588 172.3891,5.8125 172.5699,6.0717 172.7039,6.3333 173.0373,7.3723 173.1973,7.8064 173.3147,8.0759 173.3687,8.1378 173.4296,8.1873 173.5048,8.2206 173.5798,8.2371 176.5234,8.6925 177.7373,9.7741 177.8532,9.8383 177.9903,9.884 178.1731,9.9297 178.3567,9.9444 178.6872,9.922 179.0075,9.8706 180.0392,9.6223 181.398,9.3328 182.3469,10.7705 182.3529,10.8837 182.338,11.0101 182.2986,11.2274 182.2721,11.3966 182.26,11.4961 182.2515,11.6032 182.251,11.624 182.2543,11.6451 182.2615,11.6556 182.2724,11.6651 182.3007,11.6851 182.3138,11.6989 182.3224,11.7146 182.3348,11.7542 182.3393,11.7958 182.3195,11.896 182.2873,12.0068 182.2852,12.0188 182.2868,12.0306 182.3042,12.0813 182.3072,12.0949 182.3078,12.1092 182.3067,12.1892 182.3069,12.1933 182.3109,12.1982 182.3188,12.2043 182.3267,12.2094 182.3308,12.2132 182.3331,12.2187 182.3342,12.228 182.3342,12.2358 182.3319,12.2432 182.3272,12.2504 182.3194,12.2574 182.2938,12.2747 182.2862,12.2823 182.2793,12.2916 182.2529,12.3339 182.228,12.3765 182.2162,12.3912 182.2109,12.395 182.2047,12.397 182.1908,12.3968 182.1845,12.3965 182.1783,12.398 182.1651,12.4025 182.153,12.4093 182.0759,12.4565 182.058,12.4684 182.0427,12.484 182.0007,12.5444 181.9805,12.5663 181.9543,12.5793 181.9274,12.5905 181.8054,12.6596 181.7716,12.6805 181.7603,12.6881 181.7563,12.6928 181.7538,12.6982 181.7529,12.7072 181.7547,12.7169 181.7607,12.74 181.7731,12.7896 181.7761,12.8251 181.7766,12.8349 181.7756,12.8441 181.7683,12.8616 181.7579,12.8791 181.7552,12.8906 181.7547,12.9031 181.7588,13.0201 181.7588,13.1442 181.7614,13.1873 181.7655,13.2076 181.7728,13.2255 181.7864,13.2424 181.8026,13.2564 181.8361,13.2827 181.8602,13.3104 181.8805,13.3343 181.9011,13.3698 181.9502,13.4701 181.96,13.4842 181.9724,13.4949 182.0142,13.5244 182.031,13.5441 182.0427,13.5651 182.0602,13.603 182.0727,13.6299 182.0863,13.6551 182.0945,13.6673 182.096,13.6743 182.0955,13.6822 182.0944,13.6912 182.0914,13.6988 182.0834,13.7175 182.0725,13.7445 182.0665,13.7635 182.0635,13.7744 182.0633,13.7792 182.0639,13.7837 182.0655,13.7885 182.0679,13.7926 182.0763,13.8009 182.0825,13.811 182.0865,13.8224 182.0947,13.85 182.0979,13.8782 182.1017,13.9333 182.0998,13.9922 182.0884,14.3091 182.0934,14.6012 182.082,14.6652 182.0313,14.8173 182.0237,14.8686 182.0187,15.0296 182.0136,15.1513 181.994,15.3246 181.9851,15.4238 181.9851,15.4776 181.9948,15.5287 182.0161,15.5701 182.0468,15.604 182.1131,15.5067 182.1898,15.4259 182.3146,15.3267 182.4566,15.2583 182.6201,15.2038 182.7886,15.1683 182.8317,15.1398 182.8507,15.1284 182.8723,15.1208 182.9293,15.1113 182.9566,15.1034 182.9825,15.0897 183.0035,15.0828 183.0146,15.0815 183.0256,15.0815 183.0427,15.0845 183.0586,15.0891 183.0922,15.1015 183.1304,15.1227 183.1551,15.1309 183.1823,15.1335 183.2704,15.1297 183.624,15.124 183.6547,15.1205 183.6826,15.1132 183.7225,15.0999 183.7577,15.0821 183.7973,15.0634 183.8292,15.0441 183.854,15.0191 183.8724,14.9912 183.9027,14.9351 183.9724,14.8046 184.0543,14.6902 184.1411,14.5888 184.236,14.5004 184.3843,14.3331 184.4161,14.3074 184.4343,14.2968 184.454,14.29 184.4934,14.2859 184.5074,14.2818 184.5175,14.2739 184.5246,14.2639 184.5289,14.2529 184.5308,14.2118 184.525,14.1633 184.5205,14.1447 184.5126,14.1267 184.4936,14.0997 184.4912,14.0926 184.4903,14.0852 184.4915,14.0788 184.4944,14.0738 184.4998,14.0705 184.5056,14.0685 184.5256,14.0655 184.5921,14.0581 184.6181,14.0515 184.6431,14.0398 184.6668,14.0271 184.6799,14.0212 184.685,14.0201 184.6904,14.02 184.6958,14.0207 184.7008,14.0219 184.7111,14.0274 184.7325,14.0398 184.7699,14.064 184.8146,14.0872 184.8409,14.1077 184.8602,14.1297 184.8798,14.1645 184.8917,14.1775 184.9,14.1832 184.909,14.1863 184.9543,14.2023 184.9701,14.2044 184.986,14.2042 185.0021,14.2022 185.0167,14.1976 185.0408,14.186 185.0509,14.18 185.0579,14.1734 185.0736,14.1439 185.0821,14.1285 185.0868,14.124 185.0921,14.1208 185.1043,14.115 185.1112,14.1131 185.1183,14.1123 185.1439,14.1146 185.1992,14.1205 185.2101,14.1218 185.2208,14.1245 185.228,14.1287 185.2353,14.1347 185.2501,14.1564 185.2551,14.1624 185.2579,14.1649 185.2612,14.1667 185.2656,14.1673 185.2698,14.1669 185.2776,14.1656 185.3253,14.1493 185.3502,14.1365 185.4185,14.0891 185.4355,14.0818 185.4532,14.0769 185.4707,14.0733 185.48,14.0721 185.4846,14.0727 185.4885,14.0742 185.4957,14.0803 185.5016,14.0899 185.5068,14.1014 185.5098,14.1073 185.5131,14.1103 185.5152,14.1112 185.5174,14.1112 185.5214,14.1101 185.5287,14.1067 185.5359,14.1007 185.5412,14.0941 185.5445,14.0793 185.5456,14.0466 185.5473,14.0317 185.5503,14.0201 185.5609,14.0009 185.5673,13.9919 185.5708,13.9887 185.575,13.9865 185.579,13.9849 185.5833,13.9841 185.5928,13.9835 185.6117,13.9839 185.6428,13.9876 185.6587,13.9913 185.6653,13.9934 185.6685,13.9947 185.6709,13.9962 185.6726,13.998 185.674,14.0005 185.6754,14.0056 185.6755,14.0123 185.6753,14.016 185.6758,14.0194 185.6773,14.023 185.6801,14.0266 185.687,14.0327 185.6964,14.0377 185.7022,14.0393 185.7047,14.0396 185.7071,14.0394 185.7095,14.0387 185.7115,14.0377 185.715,14.0349 185.721,14.0277 185.7282,14.0216 185.736,14.0175 185.7426,14.0153 185.7496,14.0139 185.7689,14.0116 185.7746,14.0109 185.7792,14.009 185.7918,14.0023 185.7958,14.0013 185.7999,14.0014 185.8057,14.0024 185.8139,14.0046 185.8267,14.0097 185.8366,14.0128 185.8463,14.0135 185.8604,14.0114 185.8756,14.0076 185.8842,14.0068 185.8925,14.0072 185.9049,14.0106 185.9296,14.0211 185.9462,14.0229 185.962,14.0204 185.9742,14.0151 185.9844,14.008 185.9934,14.0001 186.0003,13.991 186.0218,13.9353 186.0349,13.9109 186.0436,13.9012 186.0542,13.8934 186.0728,13.8857 186.0839,13.8828 186.0895,13.8821 186.0947,13.882 186.1008,13.8828 186.1066,13.8844 186.1181,13.8883 186.1288,13.8936 186.1397,13.8965 186.1457,13.8965 186.1512,13.8946 186.1563,13.8917 186.16,13.8877 186.1626,13.8814 186.164,13.8748 186.167,13.8601 186.1688,13.8418 186.167,13.8218 186.1321,13.728 186.1012,13.6372 186.0969,13.6271 186.0944,13.6225 186.0928,13.62 186.0909,13.6184 186.0879,13.6172 186.0843,13.6166 186.0765,13.6166 186.0691,13.6176 186.0618,13.6209 186.0453,13.6346 186.0371,13.6403 186.0269,13.6443 186.0144,13.6444 186.0014,13.6414 185.9891,13.6364 185.9794,13.6272 185.9758,13.6135 185.9748,13.5964 185.9743,13.5632 185.9795,13.5205 185.9815,13.5102 185.9845,13.5018 185.9877,13.4966 185.9918,13.4927 186.0102,13.4779 186.0212,13.4658 186.0275,13.4536 186.0341,13.43 186.0497,13.3919 186.0531,13.3848 186.0549,13.3773 186.0539,13.3695 186.0508,13.3632 186.0421,13.3525 186.036,13.3409 186.033,13.3304 186.0334,13.3258 186.0352,13.3219 186.041,13.3114 186.045,13.2924 186.0472,13.2528 186.0504,13.2308 186.0589,13.2129 186.0732,13.1959 186.082,13.1786 186.0841,13.1711 186.084,13.1631 186.0822,13.1557 186.0786,13.1497 186.0684,13.1353 186.0637,13.1266 186.061,13.1163 186.0602,13.0995 186.0596,13.0735 186.0618,13.0573 186.0667,13.0496 186.0751,13.0436 186.1084,13.034 186.1275,13.0317 186.1441,13.0328 186.1747,13.0432 186.2031,13.0569 186.2112,13.0586 186.2191,13.0568 186.233,13.048 186.2817,13.0182 186.315,12.9992 186.3286,12.9871 186.3338,12.9773 186.3362,12.968 186.34,12.9453 186.3479,12.9162 186.3666,12.8598 186.41,12.7774 186.4502,12.7141 186.4886,12.654 186.5117,12.6186 186.5222,12.606 186.5282,12.6006 186.5751,12.5754 186.5827,12.5679 186.5875,12.5596 186.5894,12.5468 186.5908,12.5421 186.5932,12.5387 186.5994,12.5342 186.6095,12.5303 186.6118,12.5283 186.6131,12.5259 186.6168,12.5199 186.6219,12.5139 186.6629,12.4797 186.6879,12.4626 186.6973,12.4567 186.7008,12.4539 186.7031,12.4505 186.7042,12.4468 186.7045,12.4432 186.7044,12.4396 186.7035,12.4361 186.6973,12.4237 186.6955,12.4174 186.6953,12.4143 186.6955,12.4112 186.697,12.4069 186.6996,12.4035 186.7064,12.397 186.7265,12.382 186.7336,12.3782 186.7415,12.3755 186.7509,12.3736 186.7601,12.3731 186.7729,12.3749 186.7866,12.3775 186.8001,12.378 186.8068,12.377 186.8121,12.375 186.8157,12.3721 186.8188,12.3688 186.8242,12.3607 186.829,12.3574 186.8345,12.3552 186.8408,12.354 186.8469,12.3541 186.8537,12.356 186.8595,12.3591 186.865,12.365 186.87,12.3725 186.8723,12.3747 186.8753,12.3765 186.8846,12.3814 186.8914,12.3845 186.8952,12.3855 186.8989,12.3858 186.9039,12.3845 186.9085,12.3819 186.9179,12.3744 186.9353,12.3576 186.9635,12.3224 186.9709,12.2928 186.9727,12.2759 186.9724,12.2591 186.9624,12.2245 186.9611,12.2062 186.9617,12.1964 186.9635,12.1881 186.9663,12.1833 186.9697,12.1792 186.977,12.1727 186.9943,12.1578 187.0094,12.1327 187.0116,12.1266 187.0125,12.12 187.0124,12.09 187.0142,12.0806 187.0179,12.0724 187.0358,12.0542 187.0485,12.0319 187.0514,12.0238 187.0528,12.0184 187.0533,12.0158 187.0534,12.0145 187.0533,12.0132 187.0531,12.0124 187.0527,12.0116 187.0516,12.01 187.049,12.0076 187.0454,12.0059 187.0421,12.0036 187.041,12.0009 187.0408,11.998 187.042,11.9914 187.044,11.9857 187.0452,11.9834 187.0468,11.9817 187.0672,11.9663 187.0872,11.9529 187.1037,11.944 187.1181,11.9372 187.1299,11.9317 187.1331,11.9294 187.1343,11.928 187.1352,11.9264 187.1356,11.9243 187.1356,11.9224 187.1351,11.9185 187.1308,11.9086 187.1251,11.8948 187.1197,11.8824 187.1175,11.8747 187.1171,11.8701 187.1178,11.8662 187.1195,11.8627 187.1251,11.8568 187.1278,11.8551 187.131,11.8541 187.1345,11.8541 187.1373,11.8549 187.1408,11.8566 187.1427,11.8571 187.1446,11.857 187.1489,11.8557 187.1521,11.8538 187.1549,11.8515 187.1586,11.8467 187.1596,11.8437 187.16,11.8408 187.1586,11.8345 187.1552,11.8281 187.1492,11.8198 187.1463,11.8134 187.1457,11.8048 187.1474,11.7975 187.1585,11.7707 187.168,11.7422 187.1771,11.7248 187.1853,11.7162 187.194,11.7102 187.2181,11.7022 187.2392,11.6971 187.2598,11.6945 187.269,11.6926 187.2756,11.687 187.2869,11.6677 187.3246,11.576 187.3417,11.5378 187.3601,11.4809 187.366,11.4671 187.3695,11.4613 187.3732,11.4571 187.379,11.4535 187.3833,11.4487 187.3849,11.446 187.3856,11.4426 187.3851,11.4356 187.3786,11.4156 187.3642,11.3805 187.3437,11.3326 187.3317,11.299 187.3215,11.2635 187.3207,11.2242 187.3304,11.1672 187.3469,11.1191 187.3792,11.0513 187.4445,10.9556 187.5129,10.8821 187.5826,10.8009 187.6637,10.7325 187.8488,10.5766 187.992,10.4549 188.113,10.3529 188.1561,10.3149 188.2027,10.2843 188.6195,9.755 188.8858,9.9179 189.1685,10.089 189.754,10.4084 190.504,10.7833 190.7498,10.8661 190.8946,10.8938 191.0434,10.9017 191.22,10.88 191.3788,10.8241 191.5333,10.7494 192.0961,10.4629 192.5714,10.3108 192.9548,10.2233 193.3629,10.1723 193.477,10.1752 193.5845,10.1864 193.6791,10.2126 193.7584,10.2433 193.8242,10.2778 193.88,10.3165 193.93,10.3665 193.9688,10.4202 194.0232,10.5275 194.0853,10.6542 194.1983,10.8532 194.3312,11.0915 194.4148,11.2119 194.5058,11.318 194.6113,11.4045 194.7272,11.4603 194.8781,11.2613 194.9579,11.1409 194.9972,11.1048 195.0454,11.0788 195.1334,11.049 195.231,11.0212 195.3191,10.9863 195.3856,10.9457 195.4142,10.9242 195.4357,10.9001 195.4978,10.7645 195.6366,10.5345 195.8172,10.2994 195.9129,10.1999 196.0206,10.1251 196.1613,10.0415 196.2202,10.0034 196.2449,9.9832 196.2633,9.961 196.2817,9.9293 196.3013,9.8691 196.3356,9.762 196.3615,9.7252 196.3958,9.6974 196.4705,9.6372 196.5111,9.5985 196.5364,9.5484 196.5497,9.5142 196.5523,9.48 196.5491,9.4458 196.5383,9.4141 196.5149,9.3596 196.487,9.3146 196.4452,9.2183 196.4217,9.1384 196.3856,8.9749 196.3368,8.8178 196.3248,8.7265 196.3273,8.6353 196.3267,8.539 196.3305,8.487 196.3377,8.4498 196.3405,8.4257 196.3455,8.4066 196.349,8.3998 196.3532,8.3947 196.36,8.3883 196.3619,8.386 196.3629,8.3834 196.363,8.3808 196.3626,8.3784 196.361,8.3744 196.3527,8.3638 196.3509,8.3611 196.3493,8.358 196.3484,8.3551 196.3481,8.3522 196.3494,8.3405 196.3518,8.322 196.3578,8.3009 196.3648,8.2827 196.3718,8.2592 196.3722,8.2473 196.3708,8.2355 196.3675,8.2218 196.3619,8.2098 196.3417,8.1873 196.3702,8.1857 196.4031,8.1886 196.4494,8.2019 196.5261,8.2304 196.6677,8.2668 196.7536,8.2963 196.8274,8.3327 196.8876,8.3803 196.9497,8.4208 196.9763,8.43 197.0035,8.4341 197.0587,8.4373 197.1639,8.4424 197.3096,8.4487 197.3533,8.4493 197.3971,8.4424 197.4313,8.4297 197.4585,8.412 197.6246,8.2637 197.7627,8.1724 197.8109,8.1521 197.8628,8.1382 197.9554,8.1293 198.0682,8.1293 198.1848,8.1306 198.2969,8.13 198.4341,8.142 198.4972,8.1483 198.5225,8.1461 198.545,8.1369 198.5729,8.1141 198.6268,8.0463 198.6502,8.0134 198.6832,7.9817 198.7383,7.9538 198.7719,7.9329 198.8004,7.9031 198.8549,7.841 198.9246,7.7687 198.9753,7.6902 198.9981,7.5824 199.0082,7.4772 199.0101,6.9798 199.0456,6.4804 199.0722,6.2992 199.0875,6.2092 199.1014,6.1706 199.128,6.1306 199.166,6.0971 199.2205,6.0584 199.289,6.0185 199.3283,5.9843 199.3441,5.9538 199.3599,5.9006 199.3834,5.8544 199.4411,5.7834 199.654,5.5806 199.7135,5.4526 199.7275,5.3271 199.7478,5.1041 199.9113,5.0774 200.2847,4.9965 200.4393,4.9496 200.6307,4.8723 200.6723,4.8591 200.7092,4.8533 200.8721,4.8381 201.0128,4.8203 201.0556,4.8114 201.0996,4.8057 201.1408,4.808 201.182,4.8159 201.3284,4.8587 201.3889,4.8853 201.4526,4.9068 201.585,4.9315 201.6325,4.9398 201.6728,4.9509 201.7263,4.9746 201.7872,5.0088 201.9044,5.0906 202.2523,5.3409 202.341,5.4303 202.3841,5.4771 202.4196,5.531 202.4487,5.6071 202.4918,5.692 202.5248,5.7484 202.5603,5.7946 202.6629,5.8859 202.7783,5.948 202.9012,5.9961 203.1547,6.0785 203.2193,6.1026 203.2954,6.1362 203.4101,6.1958 203.5298,6.2655 203.6227,6.333 203.6784,6.39 203.6921,6.4046 203.7044,6.4242 203.7222,6.4137 203.745,6.4046 203.7925,6.3916 204.0244,6.3523 204.1708,6.3089 204.2323,6.2978 204.3736,6.281 204.4198,6.2737 204.4667,6.2591 204.5304,6.2173 204.4772,6.1299 204.4496,6.0744 204.4237,6.0205 204.3926,5.9787 204.366,5.9426 204.3387,5.9008 204.2896,5.8206 204.2392,5.7538 204.1797,5.6847 204.1245,5.6327 204.077,5.596 204.0409,5.5586 203.9956,5.4949 203.962,5.4651 203.9484,5.448 203.9386,5.4277 203.9344,5.4055 203.9354,5.3834 203.9449,5.3377 203.9829,5.2325 203.994,5.1733 203.9994,5.102 204.0209,4.9258 204.0235,4.7535 204.0374,4.5849 204.0678,4.4468 204.1122,4.2617 204.1718,4.0919 204.263,3.8511 204.301,3.6838 204.2998,3.5228 204.2706,3.3311 204.2304,3.1955 204.2015,3.1455 204.1122,3.0333 204.0951,3.0048 204.09,2.9775 204.16,3.0076 204.224,3.0371 204.3039,3.0691 204.4804,3.1493 204.5349,3.1721 204.5951,3.1854 204.7155,3.2095 204.834,3.2462 204.8923,3.2722 204.935,3.2842 204.9791,3.2906 205.0615,3.2887 205.1242,3.2925 205.185,3.3039 205.352,3.3628 205.7322,3.4642 206.0998,3.6062 206.4965,3.8546 206.7157,3.9661 206.8932,4.0307 207.0453,4.065 207.1504,4.0726 207.262,4.065 207.3684,4.0345 207.5205,3.9762 207.6713,3.9357 207.831,3.9141 207.9819,3.904 208.2987,3.9091 208.5877,3.942 208.8716,3.9876 209.1155,4.0535 209.3278,4.1486 209.5287,4.2614 209.7467,4.3527 209.8544,4.3862 209.9622,4.411 210.1485,4.4401 210.246,4.4616 210.3373,4.4933 210.7112,4.6385 210.881,4.6885 211.0534,4.7246 211.246,4.7703 211.4165,4.8317 211.4691,4.8463 211.4941,4.8549 211.516,4.8666 211.5654,4.9097 211.6275,4.9537 211.7035,4.9883 211.829,5.0263 212.0521,5.1049 212.2745,5.1422 212.412,5.1549 212.5512,5.1562 212.6408,5.1486 212.7299,5.1372 212.832,5.1164 212.8827,5.1028 212.9014,5.0953 212.9162,5.0865 212.9337,5.0698 212.9486,5.0473 212.9759,5.003 213.0442,4.9331 213.0673,4.909 213.0765,4.903 213.0867,4.8997 213.0974,4.8987 213.1063,4.9002 213.1494,4.9217 213.1712,4.9312 213.1899,4.9338 213.2077,4.9268 213.2241,4.9135 213.2539,4.8799 213.2764,4.8647 213.3018,4.8549 213.3292,4.8491 213.362,4.8488 213.4032,4.859 213.4234,4.8615 213.4425,4.8596 213.476,4.8482 213.6231,4.8203 213.7197,4.8184 213.8363,4.7956 214.0061,4.7411 214.1037,4.7234 214.2026,4.7234 214.3825,4.7335 214.6208,4.7741 214.7127,4.7741 214.8122,4.7652 214.9757,4.7221 215.1056,4.6689 215.2235,4.6049 215.3324,4.5187 215.3857,4.4832 215.4414,4.4604 215.5067,4.4597 215.5847,4.4731 215.7089,4.5035 215.7491,4.5073 215.7893,4.5076 215.8673,4.4997 216.0092,4.4756 216.0954,4.4604 216.1689,4.4274 216.2966,4.3455 216.9949,3.2665 216.8378,3.2956 216.7738,3.2995 216.7098,3.2817 216.559,3.193 216.3613,3.103 216.3403,3.0827 216.3346,3.0555 216.346,2.968 216.3384,2.923 216.3169,2.8844 215.962,2.3641 215.9101,2.3007 215.8632,2.1613 215.8366,2.0726 215.7802,1.9807 215.7339,1.9186 215.6566,1.8686 215.5653,1.8448 215.3968,1.8366 215.3505,1.8372 215.2884,1.8309 215.2174,1.808 215.1693,1.7827 215.1363,1.7593 215.1091,1.7228 215.0787,1.6705 215.0622,1.6427 215.0413,1.6192 215.0105,1.5942 214.9633,1.5615 215.6364,0.7109 220.3675,3.341 226.0385,6.8869 228.0362,7.9823 227.1817,7.9825 226.2695,8.3692 225.8024,8.8187 225.3859,9.2701 224.2903,11.2956 223.3787,11.6664 222.8595,12.9078 222.1562,13.7123 222.8097,14.7317 222.8506,15.5874 222.1306,16.7371 219.6191,17.8445 219.5977,18.5899 219.9432,19.5383 219.6987,20.3289 218.287,20.666 217.3109,21.9142 216.8305,22.0454 216.6279,22.1007 215.8999,22.835 214.5302,23.6698 214.573,24.3692 213.0293,24.4635 211.5966,25.6668 210.7388,26.1108 211.7027,28.1373 211.476,28.7817 211.6645,29.3531 211.2309,29.8107 209.6174,29.4326 208.4815,28.8132 207.9539,29.1695 207.4095,29.0784 205.9936,30.1223 206.0787,30.6112 207.3972,30.8599 207.988,30.3277 208.0361,30.3175 208.9506,30.123 210.6606,31.7383 212.4599,32.1881 213.1634,32.9844 213.1516,33.1995 213.1514,33.204 213.125,33.6847 213.1231,33.7191 213.1064,34.0239 213.8114,34.0107 214.2991,34.3998 215.4053,34.5852 215.9033,34.2577 216.1276,33.6113 216.5915,33.5999 217.7075,34.1422 217.7639,34.6863 218.3351,35.2905 219.608,35.271 220.1959,35.8489 219.7411,36.6995 220.0014,37.4358 219.7636,38.2902 221.0836,38.5497 221.679,38.3951 222.3952,39.1696 223.5163,39.7005 223.4945,40.8384 223.478,41.6996 223.6284,42.0639 223.6569,42.1334 225.7117,42.8352 226.96,44.2651 227.9368,44.4999 228.1382,45.0857 228.6015,45.4227 228.8804,45.6256 230.7315,46.4465 231.8496,47.4111 232.973,47.7791 234.7269,48.9052 235.9727,50.4086 236.6658,49.6536 236.6498,52.209" stroke="black" /><polygon fill="none" points="68.9221,418.4327 68.9743,418.3759 69.8302,417.5322 70.6722,416.7079 71.4645,415.9297 72.2696,415.1547 73.0361,414.3781 73.8347,413.6114 74.5717,412.8659 75.2545,412.2 75.3143,412.1427 75.3914,412.1789 75.7966,412.2082 76.4833,412.2492 77.1868,412.2882 77.8574,412.3215 78.5679,412.3671 79.7903,412.448 79.9652,412.4551 102.0689,413.6494 103.1815,413.7109 108.177,413.9966 107.2592,414.9611 106.8979,415.3382 106.8352,415.4037 106.318,415.9435 105.1961,417.1215 104.0792,418.1882 104.055,418.2113 102.7954,419.4316 101.8005,420.3725 100.5677,421.6471 99.4316,422.7368 98.0522,424.1234 96.6676,425.3363 95.3689,426.459 94.1286,427.6181 93.7461,427.986 92.8086,428.8521 92.3658,429.2367 91.709,429.8071 90.5447,430.7799 90.0109,431.2369 89.5209,431.6564 88.3045,432.6856 87.3358,433.5137 87.0139,433.7889 85.7776,434.9021 84.2663,436.1259 82.8118,437.2868 82.0809,437.8796 81.1668,438.621 80.8683,438.8718 80.0311,439.5755 78.4812,440.8623 77.4763,441.7573 76.5155,442.5119 75.5795,443.2472 74.4516,444.2109 73.0939,445.4169 71.5565,446.6061 70.5088,447.4855 70.142,447.7933 69.8698,447.9943 68.5771,448.9487 67.2957,449.9698 65.7398,451.1713 64.2804,452.2916 63.133,453.1836 62.023,453.9916 61.1494,454.7703 60.1066,455.599 59.1664,456.3669 58.1488,457.2577 57.3488,457.8583 56.4575,458.6117 55.8362,459.1653 55.2469,459.5937 54.6226,460.0827 54.0222,460.4833 53.5585,461.0966 52.9187,461.6549 52.7642,461.7897 51.9641,462.4458 50.9072,463.3901 49.7445,464.5596 48.9122,465.3269 48.145,466.0167 47.6165,466.5173 47.1252,467.0438 46.43,467.716 46.1196,467.9863 45.0629,469.0272 43.8063,470.1766 43.0456,470.9514 42.1805,471.7917 41.4574,472.4786 40.7787,473.1465 39.5198,474.3891 38.765,475.1496 38.1326,475.771 37.2281,476.6184 36.5326,477.305 35.4911,478.3849 33.8429,480.0939 33.833,480.0771 31.4846,482.4853 28.3842,485.5349 25.7521,488.1928 23.2211,490.7848 20.695,493.3152 20.4721,493.5334 19.393,494.5895 17.8232,496.1893 16.3611,497.6788 14.8952,499.1943 14.1118,500.0 12.0862,498.3285 12.0114,498.2668 5.3414,492.0991 1.7478,488.8103 0.0,487.1547 0.4621,486.6828 1.1948,485.8441 2.4148,484.3271 2.7332,483.8694 3.4204,483.0012 4.0556,482.0162 4.2518,481.8253 4.3534,481.584 4.4823,481.4791 4.5629,481.3683 4.6105,481.2141 4.8315,481.0079 4.9534,480.6935 5.0845,480.5655 5.1912,480.3104 5.3067,480.1785 5.3994,479.9749 5.6002,479.7047 6.0631,478.9853 6.5201,478.3811 6.799,478.0704 7.0372,477.6661 7.2748,477.456 7.4836,477.3688 7.5858,477.2452 7.7348,477.1195 7.7554,476.8995 7.9444,476.7857 8.0243,476.6602 8.0766,476.5143 8.2684,476.394 8.3982,476.1301 8.4004,475.9601 8.5564,475.7437 8.7918,475.5725 8.9484,475.4914 9.0548,475.3594 9.2108,475.1719 9.5036,474.6404 9.6589,474.477 9.7147,474.2372 10.0233,473.7631 10.1802,473.5891 10.3299,473.2302 10.5024,472.967 10.701,472.5165 10.7779,472.3801 10.8932,472.272 11.7024,470.9409 12.4376,469.3714 13.1356,467.8891 13.8449,466.3133 13.9257,466.0323 14.0445,465.9149 14.4299,465.011 14.5498,464.5404 14.7759,464.013 15.3584,462.8076 15.9862,461.861 16.2558,461.1617 16.6165,459.7998 16.8421,459.2828 17.3239,457.5763 18.0921,455.0261 18.5098,453.7986 18.9087,452.4117 19.3568,450.8679 19.6023,449.609 20.0747,446.9118 20.6043,445.1758 20.8365,444.6023 21.049,444.5521 21.2055,443.2841 21.62,441.3115 21.9048,439.901 21.95,439.0554 22.012,438.3644 22.0673,436.5308 22.1778,435.3448 22.1794,434.2909 22.1277,432.2948 22.0389,429.4686 21.8483,427.0585 21.6312,425.685 21.544,424.5002 21.2512,422.3179 21.0642,421.1372 20.8294,419.215 20.3083,415.9915 19.5703,412.7471 19.2535,411.4099 18.8076,409.7641 17.8903,406.9516 16.8669,403.8784 16.414,402.6458 16.1277,401.6826 15.9615,400.6667 15.8462,399.8412 15.8345,399.0238 16.0181,398.7228 27.9851,395.8621 28.3727,395.7692 28.8366,395.6768 29.2709,395.6217 29.9384,395.621 30.1838,395.7018 30.412,395.8297 30.6114,396.0111 30.809,396.2368 30.9571,396.4119 31.1124,396.6752 31.3251,397.1147 31.4143,397.3116 31.4467,397.5009 31.3926,397.7618 31.2962,398.0296 31.0712,398.3426 30.8667,398.4532 30.722,398.6427 30.7606,398.7563 30.9145,398.8956 31.0315,399.0913 31.4003,399.3744 31.5231,399.6019 31.4428,399.8405 31.4938,400.0463 31.6171,400.288 31.8121,400.5279 31.9556,400.7378 32.2761,401.0417 32.2577,401.2231 32.5063,401.589 32.7827,402.1502 32.9128,402.6802 32.9249,403.2554 41.8328,404.7945 41.039,405.7206 41.0201,405.77 41.0634,405.7988 41.3104,405.8365 44.249,406.1686 47.338,406.5034 50.5562,406.8622 50.6511,406.8822 50.7078,406.9129 53.3299,408.4444 55.7781,409.8646 55.8122,409.9007 55.7839,409.963 55.7167,410.0734 55.3213,410.8066 55.3045,410.8612 55.3322,410.9094 55.6033,411.0834 55.662,411.1016 55.7206,411.1055 56.3969,411.0829 56.811,411.0751 56.8455,411.0634 56.8631,411.039 56.862,411.003 56.8631,410.9712 56.8713,410.9507 56.897,410.9401 56.9273,410.9388 57.1858,411.0155 57.2265,411.0279 57.2655,411.0508 57.7352,411.5225 57.7566,411.5412 57.7683,411.5688 57.7869,411.676 57.813,411.741 57.8871,411.8 59.3223,412.6614 60.7398,413.5077 61.9125,414.2062 63.3647,415.0971 63.8503,415.3826 63.9679,415.4419 64.8782,415.9999 65.53,416.3815 66.3123,416.8645 67.6368,417.6466 68.8286,418.3715 68.9221,418.4327" stroke="black" /><polygon fill="none" points="303.1511,89.282 303.0608,89.52 302.9898,89.7072 302.7505,90.2495 302.3538,91.1491 302.2112,91.4722 302.0339,91.8387 301.682,92.5661 301.1338,93.6994 301.0963,93.7815 300.7932,94.4459 300.5748,94.9248 300.523,95.0384 300.2704,95.5921 299.948,96.314 299.7396,96.7809 299.3526,97.7168 299.1839,98.0698 298.6107,99.2694 298.5125,99.4923 297.8813,100.9252 297.5329,101.7159 297.3637,102.1036 296.8739,103.226 296.3891,104.3367 296.086,105.0051 295.3508,106.6266 295.1709,107.073 294.6197,108.4407 294.5282,108.6679 294.4529,108.8548 294.0941,109.6631 293.6138,110.745 293.1186,112.1739 292.477,113.8057 292.0253,114.8505 291.9735,114.9834 291.447,114.8041 289.9712,114.3015 289.3919,114.104 280.9243,111.2183 281.1966,110.8895 280.8898,110.2675 281.1258,109.8389 280.9705,109.564 281.5837,109.5099 281.4955,108.2273 281.6819,108.0006 282.2536,108.0137 282.3818,107.5411 282.7183,108.5688 283.7633,109.1004 284.6376,108.377 284.5844,108.1959 284.0474,108.3278 284.3126,107.8756 284.7934,107.6036 284.8648,108.0823 285.1377,107.9894 286.624,105.4434 287.1043,105.2131 286.9802,104.4281 287.0755,104.1164 287.5694,103.8332 287.5209,103.5528 287.0387,103.1114 286.5297,102.9842 286.3267,102.5983 286.758,102.0173 286.4035,102.0323 286.165,102.3937 285.7159,102.5324 285.5862,102.2374 285.7259,102.044 286.2096,101.8907 285.7363,101.3527 285.3184,101.3063 284.9877,101.6832 284.6518,101.5408 285.1377,100.6499 284.4633,100.3585 283.9046,99.4928 282.6328,99.2561 281.6215,99.3644 280.6705,99.7679 280.3612,100.2632 279.1168,100.9675 278.2899,101.0098 278.6803,101.7749 278.2285,101.5135 278.0015,101.6129 278.0846,102.4177 278.899,103.8825 277.7817,104.9863 277.7087,103.5881 276.5963,103.1472 275.7791,103.2766 274.7551,103.8334 273.2766,103.8286 272.0076,104.2302 271.3755,104.7413 269.9768,105.0849 268.2645,106.2925 267.5063,105.3884 266.4404,103.3497 266.1505,102.9189 264.5089,101.1975 264.0356,100.7617 263.862,100.561 263.7285,100.4068 263.7138,100.4143 263.1922,100.6791 262.7366,100.9105 262.3964,101.0832 261.9423,101.3512 260.7724,102.4283 260.4369,102.7243 260.0618,102.9954 259.5957,103.4267 259.2593,103.5484 258.9248,103.5755 258.802,103.5415 258.4674,103.7097 258.043,103.9815 257.418,104.2037 255.7618,104.984 255.4573,105.6135 255.0078,106.4193 254.7122,106.7836 254.6228,106.8524 251.7984,106.7121 249.771,106.4704 248.8098,106.4997 247.0539,106.2289 244.7755,105.1158 244.2557,104.6682 243.1723,102.9949 243.7688,99.112 244.1959,98.4113 245.5279,97.8978 245.6572,97.8478 249.3616,98.3445 251.6771,97.2868 253.8488,95.3955 254.6176,94.2722 259.9411,91.71 262.4477,89.9754 265.3137,88.6195 268.965,86.3058 270.0835,85.1077 271.1245,84.5105 271.735,84.1604 274.5429,81.1044 275.5248,80.7608 275.3795,80.2334 275.7398,79.3741 275.8298,79.4817 278.1039,82.2048 278.1519,82.2622 278.2012,82.272 278.7669,82.3849 278.8187,82.3953 278.8392,82.3994 279.1021,82.4519 279.5743,82.5463 281.2123,82.8734 281.5184,82.9345 281.7709,82.9849 281.7768,82.9861 282.063,83.0432 282.9337,83.217 282.9682,83.2239 282.9911,83.2284 283.253,83.2807 283.3241,83.3334 283.3254,83.3343 284.5698,84.2553 285.125,84.6661 285.1301,84.6699 285.162,84.6935 285.2108,84.7403 285.8563,85.3589 286.6201,86.0908 286.8627,86.3232 286.9174,86.3756 286.9568,86.4134 287.1213,86.5711 288.0278,87.0727 288.0402,87.0581 288.0449,87.0525 288.0496,87.047 288.2254,86.8386 288.592,86.4043 289.2494,85.9759 289.3745,85.8943 290.0411,85.4598 290.1148,85.4515 290.3077,85.4299 296.1486,84.7761 300.4529,83.8431 301.3347,83.4253 302.2984,83.3937 302.3634,83.325 302.5828,83.0935 303.0168,82.9324 303.7137,82.6738 304.3765,82.4278 304.5065,82.3341 304.6365,82.2404 304.8577,81.877 304.9785,81.8368 305.1895,81.7664 305.2413,81.7788 305.8502,81.9236 305.9451,81.9091 305.9085,81.9784 305.8907,82.0478 305.8804,82.0931 305.9136,82.1912 305.9424,82.2894 305.9478,82.3401 305.9598,82.4531 305.9337,82.5656 305.9244,82.6057 305.8534,82.9108 305.4379,83.7429 305.3435,83.9318 305.1784,84.306 304.9656,84.788 304.6919,85.408 304.6324,85.5427 304.492,85.8865 304.3726,86.1787 304.3281,86.2877 304.2475,86.485 304.1919,86.6212 304.0794,86.8966 304.0196,87.0479 304.0011,87.0948 303.7969,87.6115 303.7171,87.8137 303.4928,88.3813 303.4185,88.5771 303.3552,88.7441 303.1511,89.282" stroke="black" /></svg>