<?xml version="1.0" encoding="utf-8" ?>
<svg baseProfile="tiny" height="489.421" version="1.2" width="500" xmlns="http://www.w3.org/2000/svg" xmlns:ev="http://www.w3.org/2001/xml-events" xmlns:xlink="http://www.w3.org/1999/xlink"><defs /><polygon fill="none" points="356.6434,387.2845 356.245,387.6638 355.8626,387.6485 355.151,387.62 348.6222,387.3591 345.3724,387.4364 340.5658,387.1456 340.3892,387.135 340.2021,387.1237 340.1761,387.1221 339.9506,387.1084 339.7259,387.0948 339.6652,387.0912 339.6138,387.0881 339.5591,387.0848 339.5037,387.0814 339.4758,387.0797 339.462,387.0789 339.4202,387.0764 337.6897,386.9717 337.6398,386.9687 334.0469,386.7517 330.3429,385.6396 325.4821,383.0658 325.0114,382.8166 322.3702,382.4698 319.3943,382.2765 316.262,382.5378 315.4124,382.6086 313.1298,382.799 310.4305,383.1812 306.9539,383.3407 306.0904,383.3803 305.9027,383.3889 307.0394,374.3549 307.0505,374.2665 307.2116,372.986 307.241,372.7527 307.297,372.3076 307.3969,371.5136 307.929,367.2848 308.6717,361.3814 308.9249,359.369 309.2906,356.4628 309.657,353.5507 310.1473,349.6535 310.557,346.3977 310.6104,345.9727 310.5831,345.9305 310.4582,345.7408 311.3861,345.1991 311.057,344.7082 311.0521,344.7009 310.7401,344.1754 310.7485,344.1704 311.6269,343.6499 311.2657,343.0806 311.1477,342.8981 311.0137,342.6809 311.3581,340.0469 311.9882,339.7906 311.074,337.4312 311.727,337.1611 312.3937,336.8852 311.5018,334.5588 312.0748,334.3346 313.0782,333.8832 311.6505,331.7583 312.3028,331.4996 312.4834,331.428 312.9449,331.2449 313.2997,331.1553 311.9867,328.9576 312.7654,328.913 312.937,327.5336 313.5333,322.742 315.8832,304.0661 316.0081,303.0733 316.3556,300.3108 316.8241,296.3976 317.0179,294.8783 318.7093,281.6143 321.0471,263.2825 321.1619,263.5129 321.2768,263.7433 321.5065,264.2042 321.5126,264.2097 321.902,264.5576 321.9074,264.5625 322.1763,264.8819 322.1796,264.8858 322.4877,265.1214 322.4948,265.1269 322.7497,265.3669 322.7555,265.3723 323.4547,265.7633 323.4571,265.7655 323.8145,266.0828 324.1736,266.4585 324.361,266.9142 324.758,267.4005 324.7601,267.4036 325.0373,267.8084 325.548,268.1421 326.6456,268.3559 326.6511,268.3569 327.4435,268.5044 327.6008,268.5336 327.6029,268.5341 329.5896,268.929 330.1184,269.0342 330.1673,269.0439 330.1711,269.0446 330.7228,269.1533 331.0316,269.214 331.5629,269.3117 332.2443,269.6018 333.6244,269.8586 334.3939,269.8944 334.689,269.9218 336.0045,269.9302 336.437,269.9329 336.949,269.9767 337.8432,270.1519 338.394,270.2358 339.3493,270.4207 339.9991,270.5462 340.001,270.5465 340.4693,270.8903 340.9393,271.0647 343.0292,272.7172 343.0347,272.7215 343.4386,273.041 343.7957,273.3638 344.4559,273.9609 344.4971,273.9981 345.1226,274.6377 345.7937,275.2946 345.8173,275.3177 346.2288,275.7206 347.0078,276.4831 347.3271,276.7957 347.4346,276.9009 347.439,276.9052 347.715,277.1754 347.9697,277.4247 348.1414,277.5927 348.1821,277.621 348.4128,277.7812 348.4198,277.786 348.5836,277.8998 348.7887,278.0421 349.7149,278.6848 350.257,279.0618 350.6584,279.6887 350.6626,279.7008 350.6726,279.7064 350.6873,279.7149 352.0953,280.5177 352.1909,280.7428 352.4847,280.9982 353.02,280.9543 354.7255,280.8154 356.085,280.4431 357.7283,279.7199 358.8985,278.9663 359.8167,278.7475 360.9199,278.8466 361.3935,279.1344 362.9373,279.5535 364.262,279.6842 364.8605,280.003 366.524,281.5396 368.5414,283.4036 370.6173,284.9921 371.5872,287.3076 372.5584,288.6733 373.9582,289.8127 376.4072,291.806 377.0895,292.3613 377.4991,292.5851 377.9087,292.809 379.2049,292.962 380.1169,293.0696 380.9609,293.7763 381.4065,294.1494 381.7223,294.5881 382.4794,295.6395 383.5097,297.0715 384.1337,297.5716 384.1955,297.6211 384.5471,297.9029 384.5794,297.9288 384.7791,297.3674 385.6989,294.7824 385.7581,294.6161 386.1619,294.0664 386.5657,293.5166 388.4996,290.933 389.4381,289.5902 390.4273,288.3004 390.4335,288.2924 390.7109,287.9319 391.3224,286.6043 391.7485,285.5989 392.1876,284.6542 392.475,284.0605 394.018,285.0118 394.257,285.0915 394.3666,285.128 395.769,286.0119 395.6032,286.3563 396.178,286.634 396.7528,286.9117 397.3079,287.1799 397.8192,287.4269 397.8534,287.4473 398.8802,288.0605 399.1096,288.0703 399.2288,288.0468 399.2488,288.0464 399.4026,288.0429 399.4174,288.0462 399.5994,288.0866 399.6432,288.1081 399.7805,288.1757 399.7391,288.2683 399.6188,288.5024 399.3092,289.1048 398.6539,290.3799 399.2222,290.6734 400.8974,291.5383 401.8342,292.022 401.9137,291.9031 401.9971,291.7513 402.1806,291.3842 403.1382,292.1323 403.2942,292.2518 404.6457,293.2871 404.8084,293.4118 405.2433,293.7449 405.2817,293.7728 405.3106,293.7937 406.4712,294.6359 406.7237,294.8192 406.7341,294.8288 407.2101,295.273 407.2515,295.3067 407.2934,295.3409 407.3353,295.3751 408.6875,296.3593 409.2508,296.7694 409.3281,296.8265 409.6311,297.0506 411.2052,298.215 411.2218,298.2276 411.3212,298.303 411.5073,298.4442 411.582,298.5033 411.6184,298.5321 414.1099,300.5022 414.3198,300.6682 415.4762,301.5826 416.0615,302.0455 416.4644,302.3641 416.6764,302.5317 419.4031,304.6878 420.7512,305.6641 424.6214,308.4667 435.4569,316.3134 438.7136,318.6718 439.0413,318.6423 460.1479,316.7445 462.0613,316.5743 463.1829,316.4745 463.1816,316.5856 462.7358,318.6785 462.4985,319.514 462.4269,320.1557 462.3211,320.8065 462.0699,321.8751 462.0385,322.0315 461.6834,323.8045 461.4447,325.6104 461.2403,327.157 460.9654,329.5429 460.7939,331.8134 460.7502,334.0555 460.7463,334.757 460.614,335.6925 460.4846,336.1914 460.2895,336.7404 460.199,337.781 460.0154,339.8933 460.0151,340.5155 460.0136,343.0641 460.2026,345.3533 460.4133,346.5919 460.5649,347.5783 460.7082,347.7204 460.7943,347.7625 460.8797,347.8519 460.9183,347.9387 460.965,348.0808 461.048,348.2163 461.1594,348.2892 461.244,348.3759 461.3971,348.4462 461.4719,348.5279 461.5683,348.6981 461.753,348.8424 461.8971,348.8393 461.9837,348.9162 462.0576,349.0011 462.0595,349.0308 462.0647,349.1114 462.1256,349.1919 462.212,349.2636 462.3064,349.3404 462.344,349.4384 462.3272,349.5213 462.3191,349.5915 462.3451,349.7156 462.4044,349.8552 462.4725,349.9978 462.5984,350.2143 462.6823,350.3006 462.7549,350.3616 462.84,350.431 462.9189,350.5153 462.9717,350.5989 462.9961,350.7019 462.9862,350.81 463.0096,350.9162 463.0244,351.0126 463.0474,352.4891 462.9448,354.2842 463.0269,355.1112 462.8385,356.3907 463.0149,359.6074 463.0434,360.2495 463.1131,361.8198 463.5633,365.2808 464.0177,368.2359 464.4423,370.9578 464.4688,371.0556 465.189,373.7194 465.9081,376.0378 466.6683,378.4167 467.5903,380.6245 468.2637,381.9439 468.9541,383.2966 470.4576,385.5516 471.9166,387.3093 473.0471,388.5256 474.8125,390.0616 474.9889,390.2017 475.4687,390.5826 476.1136,390.6942 476.4251,390.6304 476.6391,390.5158 476.869,390.4584 477.2362,390.4191 477.4476,390.4846 477.8246,390.6583 478.4199,390.9304 479.2321,391.4207 479.6422,391.7299 480.4693,392.1837 481.2434,392.4191 481.8019,392.5345 482.0038,392.5077 482.1198,392.395 482.2156,392.1849 482.3362,392.0245 482.4758,391.8741 482.646,391.6625 482.8933,391.5211 483.1729,391.5481 483.4838,391.6021 484.0316,391.6924 484.4952,391.6595 484.6743,391.5595 484.8053,391.3279 484.9662,391.086 485.1045,390.7809 485.3034,390.5317 485.6971,390.4385 486.1069,390.4029 486.4337,390.5198 486.8593,391.0114 487.5105,391.6644 487.7931,391.9477 488.1573,392.313 489.1233,392.9346 489.8874,393.0933 490.417,393.1116 490.8344,393.1711 491.1442,393.3373 491.4233,393.6459 491.4401,393.8602 491.7374,394.2854 492.3254,394.9529 494.027,396.9083 494.5301,397.6237 495.4424,398.9211 496.4604,400.6061 496.9688,401.7692 498.0913,403.7314 498.7599,404.8038 499.4734,405.9519 499.9264,406.8292 500.0,407.243 499.8995,407.6484 499.7891,407.9931 499.5718,408.2218 499.5188,408.2776 499.6048,408.5444 499.8813,409.4025 499.0635,410.7589 498.9321,410.9769 498.913,411.0086 498.8867,411.0549 498.5579,411.633 497.9763,412.656 497.0551,412.7255 496.8035,412.6995 495.3604,412.5295 494.2321,412.2027 493.2128,411.9073 492.9364,411.5376 491.7327,409.9275 490.124,409.8447 489.4198,409.2335 486.4674,406.6845 479.4519,401.077 476.4056,398.3173 472.2257,395.0526 466.0792,390.252 462.566,386.7333 462.3986,386.5473 457.5875,381.2045 457.4073,380.958 456.1516,379.2394 456.1155,379.2221 454.3015,378.3512 453.2703,377.8561 450.1307,376.3488 440.1623,371.5631 439.3417,371.0 433.0061,362.2731 432.8744,362.1387 431.4899,360.725 424.6387,359.3488 407.8569,355.9778 405.7512,356.3342 402.1115,356.6474 400.379,357.0505 399.0017,357.3709 397.838,357.9288 395.9015,359.5123 393.7373,360.3453 392.0741,360.6394 389.3074,361.6487 384.9723,364.5105 383.8664,364.8352 379.614,366.9467 376.847,369.3964 376.0125,369.8048 374.3533,370.2744 372.6014,370.503 372.0231,371.2434 371.9331,371.3585 371.6712,371.6939 371.0439,372.115 370.9865,372.1536 368.5082,372.8139 367.7718,373.2001 366.4194,375.4791 364.7463,375.5043 363.1551,376.3456 361.1199,378.8757 359.7265,382.8677 357.9599,384.5044 357.4076,385.5365 357.0851,386.864 356.6434,387.2845" stroke="black" /><polygon fill="none" points="327.6667,100.8886 326.8105,102.2083 323.3327,103.039 323.0216,103.1133 322.067,103.9441 321.3923,104.3818 319.2338,106.8495 318.01,108.5737 317.732,109.532 317.6759,111.4774 317.5099,117.2369 316.5278,120.4649 315.9775,121.6249 313.0516,123.5228 308.6208,125.394 303.5732,128.2619 300.2466,129.6118 296.8306,131.5184 293.9458,133.5104 292.5201,135.5334 290.9002,136.9647 289.0229,138.2974 286.9291,139.3807 285.5693,139.4715 284.524,139.305 283.173,138.7387 280.53,136.8865 279.8143,136.1368 278.5211,135.502 277.5067,135.3621 269.2062,135.5041 265.7234,136.0509 263.6034,136.9828 262.8567,137.7484 261.0114,139.0831 259.9678,139.5904 258.523,139.8046 257.4487,139.6675 256.5228,139.1812 256.0004,138.2274 255.2367,136.0225 254.0336,133.9283 252.3047,132.5358 250.2413,131.5496 244.5247,130.5669 240.5214,129.6816 237.2961,129.3729 234.4375,128.9711 233.9532,128.9031 244.4053,114.6037 261.6582,91.0064 261.8557,90.7364 273.0267,75.4593 273.2133,75.2043 287.9286,55.0885 309.0614,26.2001 309.5946,25.4719 318.3915,13.4509 323.2367,12.4278 324.4237,12.177 324.5103,12.1587 335.743,9.7918 373.3688,1.8633 380.8977,0.2476 381.659,0.1124 382.2916,0.0 382.3243,1.0522 382.5601,2.22 382.9671,4.5934 383.1858,6.6205 383.4977,8.1404 383.9026,9.9698 384.193,11.4235 384.5787,12.5569 384.6535,12.7765 385.2148,14.0521 385.9383,15.6201 386.6315,16.892 387.5487,18.2164 388.5961,19.2992 389.009,19.596 389.4171,19.8041 389.9296,20.0558 390.3082,20.1988 390.8896,20.2539 391.2776,20.1626 391.4884,20.049 391.6215,19.8985 391.8402,19.6424 392.0371,19.4377 392.2218,19.1958 392.2736,19.1279 392.4785,18.8423 392.7656,18.7529 392.9058,18.7909 393.0972,18.8826 393.4752,18.9099 393.6793,18.7239 393.715,18.3623 393.8046,18.0558 394.0204,18.0171 394.2211,18.0044 394.3869,18.1025 394.5612,18.3338 394.8042,18.7196 395.1998,19.1291 395.5116,19.3492 396.2819,19.8026 395.9052,20.3489 395.6844,20.7791 395.4572,20.4835 394.8571,20.5857 394.3176,20.875 393.8986,21.1522 393.5283,21.4013 393.3865,21.8113 393.3755,23.0189 393.1873,24.4124 393.1712,24.9943 393.142,25.7696 393.1336,26.2561 393.1188,26.7955 393.0462,27.6624 393.0051,28.0962 392.9523,29.118 392.9221,30.0305 392.971,31.1059 392.9531,32.057 392.9144,33.1461 392.8526,33.8744 392.8405,34.6095 392.724,35.4 392.6617,36.4429 392.7103,37.7349 392.7016,38.277 392.7073,38.4991 392.7145,38.779 392.7834,39.5623 392.9451,40.3124 393.1021,40.9647 393.3389,41.5372 393.4899,42.9874 393.5434,44.4673 393.7377,45.0683 394.223,46.0989 394.5904,46.6009 394.5865,46.8506 394.3174,47.4311 394.0479,48.3891 393.9376,49.1128 394.0484,49.7461 394.3606,50.2964 394.5854,50.6553 394.7623,51.1416 394.8885,51.5713 394.6535,52.0183 394.0955,52.4703 393.5795,52.9823 393.1537,53.7567 393.0048,54.0275 392.7783,55.3975 392.7116,56.4325 392.7933,57.9422 392.6729,59.9226 392.7997,61.1501 392.9659,62.9445 392.895,63.7801 392.8251,65.2545 393.0882,66.6618 393.5068,67.9033 394.0907,69.4984 394.4115,71.1538 394.7744,72.0554 395.4147,73.4057 395.5768,73.7476 396.4671,75.3491 397.3087,76.8468 398.2092,78.6204 399.0275,80.0751 399.555,80.6265 400.0811,81.0806 400.6177,81.6941 401.0788,82.2831 402.8461,84.5877 403.3469,85.2179 404.4086,86.5037 406.0336,88.3719 407.387,89.8779 408.675,90.7779 409.514,91.2829 410.3626,91.5731 410.6861,91.5853 410.9322,91.563 411.4268,91.4518 411.7419,91.2523 412.0028,91.0428 412.1709,90.9524 412.2916,90.9114 412.3478,90.9079 412.4791,90.8998 412.6794,90.8808 412.799,90.7732 412.9109,90.6527 413.1787,90.4753 413.4727,90.3763 413.7272,90.2801 414.1821,90.2523 414.5202,90.2918 414.7817,90.3894 415.1112,90.4093 415.3058,90.3236 415.5945,90.0446 416.1461,89.7886 416.6125,89.6516 416.9209,89.6582 417.0931,89.7339 417.2729,89.9291 417.3669,90.143 417.4287,90.3791 417.3863,90.5625 417.3942,90.69 417.6106,90.8638 417.887,91.17 418.3674,91.8378 418.5282,92.2111 418.7207,92.6851 419.0423,93.2863 419.1784,93.9424 419.3543,94.417 419.5081,94.9527 419.7427,95.6707 419.9506,96.1092 420.0117,96.2076 420.2561,96.6012 420.4954,96.9951 420.9825,97.9769 420.936,98.8576 420.7539,99.6275 420.5829,100.1677 420.2728,100.8094 419.819,101.2131 419.3298,101.4656 418.7651,102.1406 418.2278,102.8391 417.8848,103.636 417.5552,104.2359 416.9811,105.2879 416.8371,106.2515 416.5671,106.8396 416.318,107.2128 415.8982,108.2866 415.6099,111.5112 415.1587,112.2592 413.7998,114.3025 412.9734,116.7419 412.9226,116.9242 411.945,120.4294 411.2905,123.8087 411.2088,124.5362 410.938,126.767 410.4096,129.7894 410.0646,131.6099 409.2656,134.2836 408.916,135.9804 409.5355,136.7801 409.5426,137.2948 409.0608,137.3846 408.8465,137.8562 408.6603,139.159 408.4144,141.8103 408.3566,144.3088 408.3198,145.2226 407.6397,144.9609 406.2835,144.439 406.2429,144.3681 406.0617,144.0517 405.3361,142.785 403.6492,141.8876 403.9641,141.5869 404.4564,141.1169 400.5481,138.3561 399.8744,137.8182 399.7265,137.7001 399.5791,137.5208 399.5433,137.4965 397.8638,136.3581 383.4691,127.5061 383.7675,127.5147 383.7614,126.6847 383.6856,126.6514 383.6099,126.6181 383.3709,126.5173 382.9943,126.3537 382.7121,126.0055 382.2012,125.5169 382.0632,125.297 381.8744,125.1262 381.3658,124.6006 380.7016,124.1614 379.9934,123.8773 379.4725,123.5852 379.0623,122.7348 378.7066,122.1992 378.3705,121.966 377.9313,121.7324 377.6989,121.7576 377.5556,121.6205 377.3906,121.1124 376.8757,120.6982 376.8363,120.6327 376.7894,120.5546 376.1455,119.4826 375.6806,118.0747 375.6005,117.8494 375.2245,117.4835 374.9477,117.3441 374.5878,117.1732 373.6635,116.2505 372.2095,114.5386 372.0381,114.3549 371.2331,113.4916 370.7413,113.2611 370.5565,113.3344 370.0936,113.5967 369.589,113.9071 369.0966,114.0895 368.3717,114.7573 367.868,115.0184 367.5815,115.0486 367.3522,115.0757 366.7936,115.1418 366.1188,115.1189 365.8684,115.4359 365.5792,115.6638 365.3202,115.9023 364.8188,115.9652 364.6553,115.9596 364.409,115.7488 363.9885,115.4006 363.1891,114.797 362.8179,114.3272 362.5275,113.9656 361.556,113.0604 360.8947,112.6071 360.5743,112.1652 360.5742,111.1037 360.414,110.7025 359.7127,110.209 358.6505,109.5538 357.8389,109.0198 357.0673,108.5761 356.3252,108.3629 355.9241,108.2411 355.2206,108.4385 354.7685,108.5369 354.4674,108.5357 354.2269,108.4045 353.896,108.293 353.5146,108.2915 353.1632,108.3202 352.43,108.4274 351.7672,108.5048 351.0555,108.1815 350.2438,107.7176 349.8129,107.4756 349.4922,107.284 348.9213,106.791 348.0798,106.1167 348.0175,106.0609 345.9364,104.1954 345.5187,105.135 345.5137,105.1484 345.462,105.2851 344.1119,104.075 341.9282,102.9395 339.7445,101.8041 335.42,99.3654 330.2275,98.0965 328.7726,98.0073 328.1361,98.3295 327.886,98.7798 327.6667,100.8886" stroke="black" /><polygon fill="none" points="320.342,250.1861 320.5994,251.9537 320.9977,254.6888 320.8804,256.6713 320.798,257.7382 320.7393,258.5002 320.7636,259.0269 320.8183,260.2107 320.8623,261.5102 320.8736,261.8271 320.874,261.8385 320.9137,262.9511 320.914,262.9582 320.9157,263.0189 321.0471,263.2825 318.7093,281.6143 317.0179,294.8783 316.8241,296.3976 316.3556,300.3108 316.0081,303.0733 315.8832,304.0661 313.5333,322.742 312.937,327.5336 312.7654,328.913 311.9867,328.9576 313.2997,331.1553 312.9449,331.2449 312.4834,331.428 312.3028,331.4996 311.6505,331.7583 313.0782,333.8832 312.0748,334.3346 311.5018,334.5588 312.3937,336.8852 311.727,337.1611 311.074,337.4312 311.9882,339.7906 311.3581,340.0469 311.0137,342.6809 311.1477,342.8981 311.2657,343.0806 311.6269,343.6499 310.7485,344.1704 310.7401,344.1754 311.0521,344.7009 311.057,344.7082 311.3861,345.1991 310.4582,345.7408 310.5831,345.9305 310.6104,345.9727 310.557,346.3977 310.1473,349.6535 309.657,353.5507 309.2906,356.4628 308.9249,359.369 308.6717,361.3814 307.929,367.2848 307.3969,371.5136 307.297,372.3076 307.241,372.7527 307.2116,372.986 307.0505,374.2665 307.0394,374.3549 305.9027,383.3889 303.5706,383.4768 299.4439,383.2396 297.1917,383.4749 295.7877,384.0617 291.7155,387.2388 289.7463,388.3208 288.1517,389.5258 287.2227,390.4106 287.0599,390.6213 284.5519,393.8683 282.941,394.8023 282.3149,395.1654 281.6889,395.5284 277.8146,396.6414 268.5836,401.0992 267.1226,401.5718 266.7918,401.5873 265.6574,401.6429 264.2023,401.0006 263.3464,400.4018 262.1525,400.1852 260.7754,400.539 259.6002,400.4855 258.4525,400.1322 255.4565,399.7689 253.0365,400.2744 251.7487,400.8348 247.7691,403.684 243.6305,405.0542 240.7269,405.7296 237.8204,406.8078 236.4464,407.6795 235.527,408.6974 234.9433,408.9238 232.764,409.1864 232.311,409.3827 231.843,409.5855 230.2582,411.1553 228.2305,412.5442 223.4406,413.728 222.2989,414.1733 220.2109,415.6671 183.5328,430.2207 169.2774,435.6628 166.7804,436.616 166.3814,436.7682 166.3795,436.7689 166.023,436.9048 132.4808,449.6892 37.0227,486.0727 35.3853,486.6969 33.3652,487.467 28.2391,489.421 28.1241,489.2328 27.7953,488.6947 26.8467,486.8557 26.7209,486.6029 26.2799,485.7569 25.5525,485.0206 25.549,485.017 25.3065,484.7716 24.8182,484.2772 23.159,483.19 21.5928,482.8403 20.2226,482.8817 18.7078,482.6285 17.3381,481.7405 16.06,481.4692 38.4876,425.0993 38.5788,424.8705 34.7424,414.9322 34.6468,414.6885 18.4003,372.5959 18.0658,372.27 0.0,354.6638 2.5657,351.665 21.2514,329.8342 47.782,298.838 47.8741,298.7217 90.8515,244.3355 92.1656,242.6725 93.0068,241.8326 93.8568,240.9838 94.6987,241.3748 95.2598,241.1877 96.5932,241.2556 101.6313,243.1721 103.3922,244.1297 111.4882,246.6743 112.3021,246.93 114.7286,247.6925 114.9606,247.7654 115.2322,247.8508 115.3268,247.8766 116.9429,248.3179 119.0519,248.8938 120.4387,249.2725 123.3159,250.0581 130.213,251.9415 130.3405,251.9763 130.8481,252.1149 155.4087,257.0821 155.395,258.2077 161.2051,257.9903 182.1819,257.2057 202.4358,256.448 206.5395,256.2945 214.1386,256.0103 214.2117,256.0075 214.3167,255.9971 220.2641,255.4065 226.4333,254.7938 226.7756,254.7598 227.8747,254.6507 227.942,254.644 228.0148,254.6368 228.682,254.5705 228.8206,254.5568 232.7598,254.1656 232.9383,254.1478 234.4493,253.9978 234.4593,253.9968 234.4954,253.9932 234.5947,253.9833 234.6549,253.9774 234.7151,253.9714 235.578,253.8857 235.7145,253.8721 235.8488,253.8588 236.4421,253.7999 236.5092,253.7932 236.5262,253.7915 236.6078,253.7834 240.8016,253.3669 240.9237,253.3548 242.7661,253.1719 242.8155,253.1669 242.8662,253.1619 246.8232,252.769 246.8833,252.763 246.9353,252.7578 249.083,252.5445 249.133,252.5396 254.6243,251.9999 254.6385,251.9985 254.8687,251.9759 264.9658,250.9835 268.375,250.6484 270.5716,250.4325 271.8025,250.3116 272.41,250.2519 274.8192,250.0151 274.8597,250.0111 275.4839,249.9498 292.0103,248.3255 292.1494,248.7319 293.557,249.9972 296.5702,251.8855 296.5732,251.8874 297.2176,251.9762 297.2576,252.0387 298.003,252.163 300.3691,252.0797 303.1766,251.0925 305.0338,249.5672 309.7488,246.4774 311.8545,244.0278 314.0077,242.6684 317.2125,241.5651 321.5393,240.7452 321.5451,241.4012 321.8205,243.2441 321.9119,245.4082 322.7094,247.8755 322.9383,248.5834 320.9995,248.8456 320.342,250.1861" stroke="black" /><polygon fill="none" points="398.8802,288.0605 397.8534,287.4473 397.8192,287.4269 397.3079,287.1799 396.7528,286.9117 396.178,286.634 395.6032,286.3563 395.769,286.0119 394.3666,285.128 394.257,285.0915 394.018,285.0118 392.475,284.0605 392.1876,284.6542 391.7485,285.5989 391.3224,286.6043 390.7109,287.9319 390.4335,288.2924 390.4273,288.3004 389.4381,289.5902 388.4996,290.933 386.5657,293.5166 386.1619,294.0664 385.7581,294.6161 385.6989,294.7824 384.7791,297.3674 384.5794,297.9288 384.5471,297.9029 384.1955,297.6211 384.1337,297.5716 383.5097,297.0715 382.4794,295.6395 381.7223,294.5881 381.4065,294.1494 380.9609,293.7763 380.1169,293.0696 379.2049,292.962 377.9087,292.809 377.4991,292.5851 377.0895,292.3613 376.4072,291.806 373.9582,289.8127 372.5584,288.6733 371.5872,287.3076 370.6173,284.9921 368.5414,283.4036 366.524,281.5396 364.8605,280.003 364.262,279.6842 362.9373,279.5535 361.3935,279.1344 360.9199,278.8466 359.8167,278.7475 358.8985,278.9663 357.7283,279.7199 356.085,280.4431 354.7255,280.8154 353.02,280.9543 352.4847,280.9982 352.1909,280.7428 352.0953,280.5177 350.6873,279.7149 350.6726,279.7064 350.6626,279.7008 350.6584,279.6887 350.257,279.0618 349.7149,278.6848 348.7887,278.0421 348.5836,277.8998 348.4198,277.786 348.4128,277.7812 348.1821,277.621 348.1414,277.5927 347.9697,277.4247 347.715,277.1754 347.439,276.9052 347.4346,276.9009 347.3271,276.7957 347.0078,276.4831 346.2288,275.7206 345.8173,275.3177 345.7937,275.2946 345.1226,274.6377 344.4971,273.9981 344.4559,273.9609 343.7957,273.3638 343.4386,273.041 343.0347,272.7215 343.0292,272.7172 340.9393,271.0647 340.4693,270.8903 340.001,270.5465 339.9991,270.5462 339.3493,270.4207 338.394,270.2358 337.8432,270.1519 336.949,269.9767 336.437,269.9329 336.0045,269.9302 334.689,269.9218 334.3939,269.8944 333.6244,269.8586 332.2443,269.6018 331.5629,269.3117 331.0316,269.214 330.7228,269.1533 330.1711,269.0446 330.1673,269.0439 330.1184,269.0342 329.5896,268.929 327.6029,268.5341 327.6008,268.5336 327.4435,268.5044 326.6511,268.3569 326.6456,268.3559 325.548,268.1421 325.0373,267.8084 324.7601,267.4036 324.758,267.4005 324.361,266.9142 324.1736,266.4585 323.8145,266.0828 323.4571,265.7655 323.4547,265.7633 322.7555,265.3723 322.7497,265.3669 322.4948,265.1269 322.4877,265.1214 322.1796,264.8858 322.1763,264.8819 321.9074,264.5625 321.902,264.5576 321.5126,264.2097 321.5065,264.2042 321.2768,263.7433 321.1619,263.5129 321.0471,263.2825 320.9157,263.0189 320.914,262.9582 320.9137,262.9511 320.874,261.8385 320.8736,261.8271 320.8623,261.5102 320.8183,260.2107 320.7636,259.0269 320.7393,258.5002 320.798,257.7382 320.8804,256.6713 320.9977,254.6888 320.5994,251.9537 320.342,250.1861 320.9995,248.8456 322.9383,248.5834 322.7094,247.8755 321.9119,245.4082 321.8205,243.2441 321.5451,241.4012 321.5393,240.7452 321.529,239.5998 321.6321,237.8491 321.6931,236.2592 322.0426,232.5169 322.8341,231.0196 324.0932,229.0505 325.5202,228.3674 328.0968,227.7238 329.8676,226.9202 332.0661,224.5699 333.8425,223.1337 333.9621,223.0296 338.2442,220.9096 340.1551,220.441 341.5984,220.0137 342.6039,219.6773 343.0855,219.5173 343.8982,219.2403 344.2618,219.2758 344.5051,219.2059 347.5785,217.374 348.8684,215.8957 350.8132,213.6668 352.5966,210.4792 353.5364,207.4694 354.4265,206.0986 354.6432,204.7363 355.0919,201.9155 354.9781,198.3252 355.7311,194.7593 357.2706,192.293 359.0531,190.2943 359.656,188.428 359.271,187.4738 359.2556,187.4314 359.1124,187.0349 358.9852,186.6827 358.9443,186.5695 358.9438,186.5682 358.5644,185.5193 358.3085,184.815 358.2915,184.7683 358.291,184.7668 358.2165,184.5576 358.2058,184.5324 358.2042,184.5269 358.0578,184.0555 358.0559,184.0494 358.0466,184.0192 358.0334,183.9769 357.9997,183.9297 357.943,183.85 357.9131,183.8081 357.7886,183.6335 357.7162,183.5319 357.6727,183.471 357.67,183.4685 357.6148,183.4196 357.5017,183.3195 357.3887,183.2194 357.3781,183.21 357.3675,183.2006 357.3172,183.1562 357.1152,182.9777 357.0731,182.9406 356.8916,182.8592 356.5706,182.7111 355.4576,182.2064 355.2749,182.1699 355.2701,182.1689 355.0425,182.0892 354.8986,182.0389 354.4211,181.8683 354.211,181.7933 353.5653,181.5595 352.8663,181.3054 351.7074,180.886 351.417,180.7721 350.7107,180.4925 350.7065,180.4909 350.6441,180.4678 350.0746,180.257 349.2549,179.9525 349.0271,179.8679 348.025,179.4957 347.9242,179.4581 347.3077,179.228 346.204,178.8162 345.2703,178.4678 344.5931,178.2145 344.0295,178.0035 343.6507,177.8618 338.471,175.8787 338.4489,175.8702 338.1922,175.7719 338.1626,175.7616 337.65,175.5823 337.1375,175.4031 336.6037,175.2164 336.318,175.1115 335.9878,174.9902 335.6289,174.8584 334.9695,174.6136 334.9248,174.597 334.4492,174.4197 333.812,174.1822 332.9835,173.869 332.5528,173.7062 332.5235,173.6952 332.0239,173.5063 331.6211,173.3541 331.0948,173.1536 330.3288,172.8619 330.1681,172.8007 330.0653,172.7616 329.784,172.6545 329.464,172.5326 329.235,172.4444 329.0662,172.3785 328.5144,172.1669 327.1232,171.6311 326.6509,171.4491 326.2924,171.3108 325.6821,171.0747 325.6723,171.0709 325.2877,170.9221 324.7659,170.7203 324.0221,170.4325 323.9794,170.416 323.9821,170.4137 323.65,170.2934 322.6334,169.9142 322.0906,169.7117 320.7313,169.2046 320.3745,169.0715 319.5898,168.7788 319.5421,168.761 319.2757,168.6616 318.553,168.3961 318.2375,168.2814 317.4899,168.0097 317.4757,168.0045 316.4385,167.6624 316.2199,167.3472 316.1713,167.2772 316.1002,167.1427 316.0549,167.0613 315.9802,166.9268 315.8679,166.7024 315.6692,166.0784 315.526,165.544 315.4127,165.1196 315.4024,165.0813 315.3962,165.0581 314.9272,163.2136 314.9153,163.1667 314.8235,162.8057 314.7407,162.536 314.7196,162.442 314.5169,161.5386 314.4808,161.3779 314.3969,160.7414 314.3876,160.6709 314.386,160.658 314.3844,160.645 314.1818,159.0125 313.8749,156.4726 313.866,156.3989 313.8535,156.2803 313.76,155.6385 313.6388,154.5106 313.6386,154.5085 313.4278,152.6702 313.4201,152.6033 313.4115,152.5286 313.2627,151.3401 313.1028,150.1084 313.0712,149.8695 313.0181,149.4605 313.0142,149.429 313.0068,149.3689 312.7501,147.2712 312.4527,144.7984 312.2245,142.201 312.1656,141.8979 312.0033,140.4918 311.8088,138.8723 311.7709,138.5562 311.6408,137.4217 311.3525,135.1034 311.2359,133.9602 311.1572,133.3188 311.4621,131.5997 312.4498,130.3201 313.8065,129.1423 316.1107,127.4651 317.134,126.7202 317.328,126.6294 321.6697,124.5978 322.5441,124.1858 323.5077,123.7222 323.9943,123.4957 324.0052,123.4914 324.3226,123.3688 325.4454,122.935 325.638,122.7878 326.3941,122.2798 326.4365,122.2513 326.568,122.2151 326.7512,122.0898 326.9762,121.929 327.378,121.5422 327.5983,121.3069 327.8089,120.9764 327.9726,120.7463 328.2481,120.3033 329.0523,119.0153 329.2178,118.6863 329.7484,117.5536 330.0167,116.9808 330.3826,116.1822 330.4247,116.0959 330.5662,115.8056 331.1729,114.5615 331.5032,114.0207 332.1656,112.9364 332.1736,112.9234 332.1871,112.9013 332.9407,111.8926 333.2786,111.4622 333.6587,110.9784 335.9311,108.2598 336.2128,107.8898 337.0848,106.7443 338.0313,105.2764 338.8374,103.7867 338.9864,103.4643 339.5878,102.1569 339.7445,101.8041 341.9282,102.9395 344.1119,104.075 345.462,105.2851 345.5137,105.1484 345.5187,105.135 345.9364,104.1954 348.0175,106.0609 348.0798,106.1167 348.9213,106.791 349.4922,107.284 349.8129,107.4756 350.2438,107.7176 351.0555,108.1815 351.7672,108.5048 352.43,108.4274 353.1632,108.3202 353.5146,108.2915 353.896,108.293 354.2269,108.4045 354.4674,108.5357 354.7685,108.5369 355.2206,108.4385 355.9241,108.2411 356.3252,108.3629 357.0673,108.5761 357.8389,109.0198 358.6505,109.5538 359.7127,110.209 360.414,110.7025 360.5742,111.1037 360.5743,112.1652 360.8947,112.6071 361.556,113.0604 362.5275,113.9656 362.8179,114.3272 363.1891,114.797 363.9885,115.4006 364.409,115.7488 364.6553,115.9596 364.8188,115.9652 365.3202,115.9023 365.5792,115.6638 365.8684,115.4359 366.1188,115.1189 366.7936,115.1418 367.3522,115.0757 367.5815,115.0486 367.868,115.0184 368.3717,114.7573 369.0966,114.0895 369.589,113.9071 370.0936,113.5967 370.5565,113.3344 370.7413,113.2611 371.2331,113.4916 372.0381,114.3549 372.2095,114.5386 373.6635,116.2505 374.5878,117.1732 374.9477,117.3441 375.2245,117.4835 375.6005,117.8494 375.6806,118.0747 376.1455,119.4826 376.7894,120.5546 376.8363,120.6327 376.8757,120.6982 377.3906,121.1124 377.5556,121.6205 377.6989,121.7576 377.9313,121.7324 378.3705,121.966 378.7066,122.1992 379.0623,122.7348 379.4725,123.5852 379.9934,123.8773 380.7016,124.1614 381.3658,124.6006 381.8744,125.1262 382.0632,125.297 382.2012,125.5169 382.7121,126.0055 382.9943,126.3537 383.3709,126.5173 383.6099,126.6181 383.6856,126.6514 383.7614,126.6847 383.7675,127.5147 383.4691,127.5061 397.8638,136.3581 399.5433,137.4965 399.5791,137.5208 399.7265,137.7001 399.8744,137.8182 400.5481,138.3561 404.4564,141.1169 403.9641,141.5869 403.6492,141.8876 405.3361,142.785 406.0617,144.0517 406.2429,144.3681 406.2835,144.439 407.6397,144.9609 408.3198,145.2226 408.2828,146.141 408.4104,147.8666 408.4591,148.6842 408.4411,149.3379 408.4312,149.6964 408.5373,150.8526 408.7241,151.7426 409.2762,152.9778 409.3794,153.1084 410.0912,154.0099 411.0716,155.0239 411.357,155.1462 413.813,156.1984 415.5319,156.9347 416.6895,157.4307 418.4614,158.1898 418.6186,158.4389 418.6171,159.0059 418.6465,159.4665 418.676,159.639 418.7008,159.7638 418.6904,159.8586 418.6437,160.0565 418.6004,160.2019 418.566,160.376 418.551,160.4938 418.552,160.6562 418.5682,160.8653 418.6185,161.0994 418.6877,161.3608 418.7234,161.5564 418.7539,161.7232 418.7497,161.8598 418.7554,162.0086 418.7466,162.126 418.723,162.265 418.7208,162.4858 418.6994,162.6656 418.671,162.8392 418.6554,162.9992 418.6355,163.1909 418.626,163.3927 418.6637,163.5658 418.7314,163.747 418.7655,163.9142 418.7988,164.0197 418.833,164.1384 418.7744,164.2431 418.7047,164.3302 418.6979,164.4283 418.7219,164.5473 418.7718,164.7135 418.8179,164.8213 418.8237,164.909 418.8076,165.06 418.8051,165.1714 418.7899,165.2375 418.7957,165.3251 418.832,165.4271 418.8842,165.5216 418.8994,165.6022 418.9088,165.706 418.8888,165.8149 418.8302,165.9912 418.8046,166.2296 418.7635,166.4167 418.6886,166.7303 418.6329,166.8279 418.6053,166.9076 418.6368,166.9964 418.7224,167.1205 418.7783,167.2304 418.7943,167.3753 418.7905,167.4665 418.7801,167.5548 418.7811,167.6198 418.7968,167.7097 418.812,167.7932 418.7986,167.8852 418.7835,167.9543 418.7568,168.0469 418.7709,168.1629 418.8242,168.2797 418.8753,168.3641 418.9007,168.5023 418.8536,168.628 418.8351,168.7981 418.7882,169.1359 418.7377,169.5716 418.7114,169.7733 418.718,169.8769 418.7518,169.9464 418.7551,169.9983 418.7375,170.0806 418.6947,170.1776 418.6819,170.3345 418.6708,170.6214 418.6703,171.074 418.6686,171.193 418.6656,171.4093 418.6263,171.5614 418.6351,171.6487 418.6559,171.7677 418.6766,171.8868 418.674,171.9975 418.6897,172.2402 418.6943,172.3345 418.6992,172.4381 418.7256,172.6972 418.7405,173.0289 418.7472,173.233 418.7565,173.5327 418.7613,173.6075 418.7966,173.7489 418.8339,173.8197 418.8823,173.9603 418.9031,174.1842 418.9371,174.4596 418.9384,174.6538 418.9386,174.688 418.9488,174.8473 418.9498,175.017 418.9362,175.1125 418.9077,175.1796 418.9053,175.2451 418.9207,175.3322 418.9623,175.4177 418.9978,175.5126 419.0223,175.6906 419.0249,175.9875 419.0238,176.1246 419.0611,176.9644 419.0696,177.1364 419.0722,177.189 419.1124,177.3562 419.1368,177.421 419.14,177.4295 419.1613,177.5065 419.1599,177.5189 419.1508,177.5986 419.1465,177.7882 419.1427,177.8725 419.1389,178.0716 419.2118,178.3513 419.221,178.3868 419.2852,178.4855 419.3921,178.5287 419.3996,178.5317 419.4996,178.6123 419.5942,178.6894 419.5467,178.7647 419.52,178.8842 419.5015,178.9845 419.5207,179.0685 419.5648,179.1237 419.6312,179.2589 419.6657,179.348 419.6772,179.4294 419.6577,179.5478 419.7067,179.6889 419.7446,179.8281 419.7891,179.9881 419.7898,180.1726 419.7913,180.2642 419.7917,180.2873 419.7645,180.4284 419.7502,180.481 419.772,180.5321 419.8221,180.6551 419.8839,180.809 419.8484,181.0452 419.8836,181.2679 419.8768,181.4749 419.8887,181.6613 419.9129,181.8571 419.962,182.0556 419.9967,182.1839 420.0253,182.2903 420.0197,182.3501 420.0087,182.4586 420.0072,182.573 419.9935,182.7377 420.0092,183.0506 420.0114,183.2478 420.0406,183.9124 420.0655,184.1981 420.0878,184.5481 420.1483,184.9332 420.2263,185.6692 420.3028,186.085 420.4435,186.5776 420.5465,186.9735 420.6531,187.2812 420.6588,187.2965 420.8094,187.6996 421.0534,188.1412 421.2223,188.4796 421.4699,188.741 421.6253,188.8709 421.8075,188.9478 421.91,188.9615 422.2772,189.0106 422.3934,189.0035 422.445,188.9785 422.4764,188.9578 422.5181,188.9388 422.5618,188.8916 422.619,188.851 422.6827,188.7851 422.7344,188.7376 422.8315,188.7119 422.8727,188.7052 422.8897,188.7024 422.9409,188.7087 422.9741,188.7587 423.0134,188.8115 423.0506,188.8387 423.0599,188.8924 423.0778,188.9371 423.1057,189.0002 423.14,189.0505 423.1688,189.0853 423.2086,189.1135 423.2192,189.1764 423.2108,189.2201 423.2697,189.2677 423.3388,189.3319 423.3807,189.4262 423.3858,189.5107 423.3932,189.6018 423.4205,189.6724 423.4767,189.7409 423.5894,189.8615 423.7154,189.9721 423.7711,190.0933 423.8421,190.1468 423.9515,190.2412 424.0554,190.3647 424.1058,190.4609 424.124,190.4955 424.1346,190.661 424.1175,190.7722 424.0712,190.857 423.8935,191.0669 423.7958,191.3393 423.808,191.7667 423.8892,192.1684 423.9357,192.4999 424.0969,192.9257 424.2872,193.2964 424.4604,193.6348 424.5811,193.8011 424.6828,193.9413 424.9953,194.1099 425.1932,194.171 425.3568,194.2838 425.4436,194.4568 425.5379,194.745 425.6321,195.1562 425.7765,195.5405 426.0075,196.0278 426.231,196.4588 426.4362,196.8702 426.6643,197.253 426.9818,197.5983 427.2071,197.7506 427.4627,197.8175 427.7001,197.8384 427.9575,197.8212 428.1275,197.8096 428.232,197.8787 428.3743,198.1643 428.5277,198.4893 428.6606,198.8152 428.8426,199.1539 428.9774,199.4313 429.1336,199.5968 429.2817,199.7538 429.6408,200.0561 430.0366,200.1298 430.2553,200.1167 430.3141,200.0867 430.4113,200.0522 430.4486,200.0222 430.4906,199.993 430.5478,199.9934 430.5902,199.9937 430.6607,199.982 430.6967,199.9835 430.7168,199.9956 430.7209,200.0316 430.7551,200.0518 430.7785,200.0625 430.8037,200.044 430.8306,200.0002 430.8733,200.0271 430.8946,200.0485 430.8959,200.0671 430.8784,200.0936 430.8677,200.1201 430.8742,200.1559 430.8795,200.1718 430.9073,200.1958 430.9419,200.2131 430.9834,200.1843 431.0064,200.1435 431.0159,200.0917 431.0698,200.0414 431.118,200.0231 431.159,200.0207 431.1979,200.017 431.2239,200.028 431.2358,200.042 431.2262,200.0657 431.2211,200.081 431.2353,200.1015 431.2627,200.1108 431.288,200.1122 431.3093,200.1243 431.3213,200.1377 431.3521,200.1685 431.3903,200.1757 431.4328,200.1759 431.4635,200.1867 431.5007,200.1948 431.5473,200.2016 431.5992,200.2097 431.6701,200.2395 431.7181,200.2544 431.7888,200.2546 431.8396,200.2319 431.9242,200.2424 431.9641,200.246 432.0016,200.2554 432.0204,200.2661 432.0568,200.2835 432.1027,200.3036 432.1242,200.3171 432.1501,200.3171 432.1568,200.3305 432.1457,200.3573 432.1726,200.3816 432.1779,200.3923 432.202,200.4058 432.2202,200.4194 432.2184,200.4448 432.1854,200.4656 432.184,200.467 432.1799,200.471 432.1758,200.4751 432.1703,200.4792 432.1621,200.4833 432.158,200.486 432.1498,200.4888 432.143,200.4915 432.1362,200.4942 432.1294,200.497 432.1227,200.4997 432.1119,200.5023 432.0998,200.5062 432.0918,200.5074 432.0838,200.5099 432.0758,200.5139 432.0704,200.5165 432.0637,200.5191 432.0582,200.5218 432.0514,200.5259 432.0431,200.5317 432.039,200.5332 432.0223,200.5514 432.017,200.558 432.0129,200.566 432.0102,200.57 432.0074,200.5781 432.0073,200.5848 432.0073,200.5902 432.0085,200.5969 432.0085,200.6022 432.0111,200.6075 432.0137,200.6142 432.0164,200.6182 432.0204,200.6208 432.0271,200.6221 432.0324,200.6221 432.039,200.6221 432.0445,200.6221 432.0525,200.6221 432.0809,200.6285 432.0781,200.6749 432.0386,200.6846 432.0186,200.6741 431.997,200.6835 431.9969,200.7034 432.0289,200.7245 432.0449,200.7377 432.0677,200.7483 432.0595,200.7695 432.0219,200.7919 431.9858,200.8182 431.9985,200.8901 431.9856,200.9864 431.9994,201.0739 431.9985,201.1233 431.9978,201.1664 432.0275,201.2409 432.0159,201.3247 432.0488,201.5299 432.0308,201.6595 432.0854,201.7519 432.0855,201.8751 432.1838,202.2031 432.1962,202.3045 432.2186,202.4938 432.2721,202.6174 432.3225,202.8093 432.4524,203.0516 432.5087,203.184 432.5643,203.3431 432.5953,203.4683 432.634,203.5639 432.6468,203.5956 432.6699,203.6529 432.6782,203.773 432.7187,203.8956 432.7106,203.9651 432.7614,204.0623 432.7436,204.1598 432.659,204.3314 432.6541,204.339 432.5872,204.4432 432.5737,204.5676 432.5959,204.7267 432.6662,204.8054 432.7566,204.9068 432.854,205.1147 433.0375,205.3496 433.1459,205.4645 433.3312,205.6616 433.451,205.8282 433.6672,205.9893 433.7512,206.0671 433.8889,206.1332 433.9849,206.187 434.0627,206.2349 434.1528,206.2348 434.2129,206.2826 434.2424,206.3426 434.3142,206.4023 434.458,206.3786 434.5895,206.4086 434.6694,206.4554 434.7222,206.5037 434.7583,206.5693 434.7759,206.641 434.8492,206.6406 434.9498,206.635 435.1343,206.7057 435.2783,206.8253 435.3381,206.9568 435.3199,207.0585 435.0694,207.2371 434.9402,207.3448 434.8602,207.4638 434.7879,207.7095 434.7505,208.0371 434.7108,208.435 434.67,208.8115 434.6211,209.2456 434.6045,209.5303 434.598,209.9535 434.5594,210.3374 434.4688,210.7109 434.3643,211.0922 434.3089,211.4628 434.285,211.8804 434.2422,212.3331 434.185,213.117 434.1375,213.6921 434.1501,214.2951 434.1164,214.65 434.0827,215.0051 434.022,215.398 433.9492,216.0454 433.8596,216.6646 433.7899,217.3719 433.7341,218.4651 433.6623,219.653 433.545,221.027 433.4885,221.9871 433.4028,222.5797 433.3542,223.0335 433.3233,223.43 433.2861,223.8491 433.3313,224.3262 433.369,224.5781 433.4201,224.9283 433.3381,225.2099 433.27,225.4842 433.1237,225.7571 433.014,226.0406 433.0113,226.4424 433.0703,226.6989 433.1369,226.9618 433.1954,227.3172 433.1706,227.5939 433.1538,228.2157 433.1263,228.7851 433.0844,229.6839 433.0277,230.6432 432.9653,231.6968 432.9555,233.6497 432.9109,236.5193 432.9947,237.9738 433.0334,238.9744 433.0723,240.0071 433.1661,240.5864 433.2171,241.1606 433.2782,241.8961 433.2406,242.5179 433.0841,244.2449 433.0253,245.7089 433.0409,247.527 433.0413,247.8661 433.0563,248.5433 433.1075,249.2039 433.2828,250.353 433.3948,250.8953 433.5525,251.3709 433.7127,251.8902 433.8006,252.4802 433.8225,252.9089 433.78,253.4739 433.6844,254.0453 433.4464,255.8532 433.4245,256.6086 433.5309,259.0264 433.5307,261.9251 433.6568,265.2569 433.8685,268.156 434.0974,271.2197 434.3421,273.3508 434.6873,276.2586 435.0055,277.995 435.2859,279.5251 435.8145,281.6128 435.8614,281.7625 436.6235,284.1927 436.7906,284.631 437.8514,287.4136 439.0387,289.9575 440.3943,292.2809 440.5557,292.5574 442.1644,294.8246 444.1537,297.0392 446.0777,298.5084 446.2563,298.6362 446.5864,298.8724 447.1234,299.2187 447.7961,299.6443 448.2457,299.8551 448.6243,300.0264 449.2264,300.1821 449.5667,300.2419 449.8685,300.3028 450.1904,300.3358 450.4612,300.319 450.7587,300.293 451.12,300.2035 451.3824,300.0649 451.5861,299.8949 451.6594,299.7294 451.6756,299.5611 451.6131,299.4099 451.6028,299.3548 451.6289,299.3455 451.7041,299.3637 451.7886,299.3566 451.8549,299.3545 451.8781,299.3064 451.8995,299.2638 451.9411,299.2528 451.9943,299.2512 452.0386,299.2394 452.0641,299.2015 452.0879,299.1295 452.1113,299.0826 452.1537,299.0371 452.195,299.0012 452.2073,298.9604 452.1718,298.9033 452.1496,298.8463 452.1883,298.7986 452.231,298.6997 452.2594,298.5917 452.376,298.5061 452.4569,298.4674 452.5694,298.3675 452.6252,298.2868 452.7881,298.1605 452.8882,298.0544 452.9912,297.9599 453.0754,297.8677 453.1519,297.8203 453.2342,297.6945 453.3254,297.5514 453.3764,297.4889 453.4898,297.439 453.6421,297.4385 453.7415,297.4139 453.8397,297.3864 453.9744,297.3007 454.1369,297.2051 454.2023,297.1431 454.2336,297.1134 454.3343,297.0144 454.4369,296.9492 454.5669,296.8435 454.6288,296.7541 454.6917,296.6202 454.6812,296.5284 454.6816,296.4427 454.724,296.36 454.8629,296.2724 454.9938,296.215 455.142,296.2172 455.2214,296.2614 455.263,296.3174 455.307,296.3569 455.3565,296.3667 455.4324,296.3417 455.5373,296.3564 455.6602,296.3544 455.7735,296.3425 455.9056,296.3343 456.0453,296.3401 456.2933,296.39 456.5034,296.3931 456.6952,296.4466 456.8339,296.5001 457.0367,296.5781 457.1329,296.5997 457.1848,296.618 457.2389,296.6408 457.2836,296.6603 457.388,296.692 457.5833,296.7875 457.6654,296.8675 457.7983,296.9878 457.9491,297.1607 458.1108,297.3625 458.2072,297.5344 458.4732,297.8176 458.7775,298.0525 458.9285,298.1615 459.2971,298.3837 459.6403,298.5136 459.9388,298.6371 460.1087,298.7126 460.2045,298.8372 460.2538,298.9819 460.3127,299.2039 460.3868,299.4158 460.5168,299.6492 460.7311,299.9327 460.8805,300.0741 461.1209,300.2739 461.3098,300.4346 461.5685,300.4911 461.6464,300.5081 461.8194,300.518 462.0393,300.5307 462.3302,300.4689 462.4712,300.3557 462.4925,300.2665 462.4918,300.2256 462.454,300.2016 462.4217,300.168 462.3965,300.1307 462.36,300.0649 462.3531,300.0382 462.3685,300.0026 462.3784,299.9732 462.3644,299.9572 462.3495,299.9183 462.3638,299.8858 462.378,299.8678 462.402,299.8636 462.432,299.8687 462.4631,299.8306 462.4652,299.8234 462.4895,299.7698 462.5324,299.7094 462.569,299.6823 462.6903,299.6756 462.7451,299.6765 462.8403,299.6987 462.9118,299.7546 462.9443,299.7972 463.0433,299.8262 463.1375,299.8674 463.2099,299.9049 463.2781,299.9586 463.3394,299.9915 463.3821,299.9883 463.4658,300.1049 463.5033,300.1768 463.5361,300.4089 463.5498,300.5249 463.564,300.6463 463.5251,300.7765 463.5755,300.9537 463.6175,301.1127 463.6345,301.3407 463.7052,301.6495 463.8418,301.9804 463.9036,302.3852 463.9836,302.7428 464.083,303.0023 464.2484,303.2884 464.4242,303.4989 464.4797,303.6703 464.4499,303.848 464.393,303.9479 464.336,304.1912 464.3897,304.4107 464.4077,305.4016 464.3084,305.8483 464.2641,306.0476 464.2566,306.3585 464.2271,307.5808 463.986,309.8498 463.6286,312.7385 463.4137,314.149 463.2925,314.8701 463.1937,315.6096 463.1829,316.4745 462.0613,316.5743 460.1479,316.7445 439.0413,318.6423 438.7136,318.6718 435.4569,316.3134 424.6214,308.4667 420.7512,305.6641 419.4031,304.6878 416.6764,302.5317 416.4644,302.3641 416.0615,302.0455 415.4762,301.5826 414.3198,300.6682 414.1099,300.5022 411.6184,298.5321 411.582,298.5033 411.5073,298.4442 411.3212,298.303 411.2218,298.2276 411.2052,298.215 409.6311,297.0506 409.3281,296.8265 409.2508,296.7694 408.6875,296.3593 407.3353,295.3751 407.2934,295.3409 407.2515,295.3067 407.2101,295.273 406.7341,294.8288 406.7237,294.8192 406.4712,294.6359 405.3106,293.7937 405.2817,293.7728 405.2433,293.7449 404.8084,293.4118 404.6457,293.2871 403.2942,292.2518 403.1382,292.1323 402.1806,291.3842 401.9971,291.7513 401.9137,291.9031 401.8342,292.022 400.8974,291.5383 399.2222,290.6734 398.6539,290.3799 399.3092,289.1048 399.6188,288.5024 399.7391,288.2683 399.7805,288.1757 399.6432,288.1081 399.5994,288.0866 399.4174,288.0462 399.4026,288.0429 399.2488,288.0464 399.2288,288.0468 399.1096,288.0703 398.8802,288.0605" stroke="black" /><polygon fill="none" points="275.4839,249.9498 274.8597,250.0111 274.8192,250.0151 272.41,250.2519 271.8025,250.3116 270.5716,250.4325 268.375,250.6484 264.9658,250.9835 254.8687,251.9759 254.6385,251.9985 254.6243,251.9999 249.133,252.5396 249.083,252.5445 246.9353,252.7578 246.8833,252.763 246.8232,252.769 242.8662,253.1619 242.8155,253.1669 242.7661,253.1719 240.9237,253.3548 240.8016,253.3669 236.6078,253.7834 236.5262,253.7915 236.5092,253.7932 236.4421,253.7999 235.8488,253.8588 235.7145,253.8721 235.578,253.8857 234.7151,253.9714 234.6549,253.9774 234.5947,253.9833 234.4954,253.9932 234.4593,253.9968 234.4493,253.9978 232.9383,254.1478 232.7598,254.1656 228.8206,254.5568 228.682,254.5705 228.0148,254.6368 227.942,254.644 227.8747,254.6507 226.7756,254.7598 226.4333,254.7938 220.2641,255.4065 214.3167,255.9971 214.2117,256.0075 214.1386,256.0103 206.5395,256.2945 202.4358,256.448 182.1819,257.2057 161.2051,257.9903 155.395,258.2077 155.4087,257.0821 130.8481,252.1149 130.3405,251.9763 130.213,251.9415 123.3159,250.0581 120.4387,249.2725 119.0519,248.8938 116.9429,248.3179 115.3268,247.8766 115.2322,247.8508 114.9606,247.7654 114.7286,247.6925 112.3021,246.93 111.4882,246.6743 117.815,220.6885 118.05,219.7234 119.3164,214.5219 119.3427,214.4135 119.5925,213.3884 119.6173,213.2864 133.7247,155.3866 134.1486,153.6471 134.5524,151.9916 135.0794,149.8307 135.4105,148.4731 136.0102,146.0144 137.2562,140.9045 138.8734,134.2724 140.6744,134.8665 143.9175,135.5996 145.9284,136.0542 146.827,135.8446 147.8732,135.1142 150.6651,133.9824 152.0731,133.7143 155.1605,133.5496 159.2045,134.2167 161.6645,134.6224 168.271,136.4051 169.07,136.6207 175.9721,138.7913 179.756,139.1945 184.571,138.8324 194.8982,137.2717 205.0443,136.486 206.4102,136.2823 207.9765,136.0488 208.6866,135.7973 210.4462,134.5604 210.8147,134.3014 214.5754,132.5514 216.1644,132.052 222.5111,130.0573 223.0554,129.8862 224.5172,129.5554 233.2283,129.5148 233.8406,128.8865 233.9532,128.9031 234.4375,128.9711 237.2961,129.3729 240.5214,129.6816 244.5247,130.5669 250.2413,131.5496 252.3047,132.5358 254.0336,133.9283 255.2367,136.0225 256.0004,138.2274 256.5228,139.1812 257.4487,139.6675 258.523,139.8046 259.9678,139.5904 261.0114,139.0831 262.8567,137.7484 263.6034,136.9828 265.7234,136.0509 269.2062,135.5041 277.5067,135.3621 278.5211,135.502 279.8143,136.1368 280.53,136.8865 283.173,138.7387 284.524,139.305 285.5693,139.4715 286.9291,139.3807 289.0229,138.2974 290.9002,136.9647 292.5201,135.5334 293.9458,133.5104 296.8306,131.5184 300.2466,129.6118 303.5732,128.2619 308.6208,125.394 313.0516,123.5228 315.9775,121.6249 316.5278,120.4649 317.5099,117.2369 317.6759,111.4774 317.732,109.532 318.01,108.5737 319.2338,106.8495 321.3923,104.3818 322.067,103.9441 323.0216,103.1133 323.3327,103.039 326.8105,102.2083 327.6667,100.8886 327.886,98.7798 328.1361,98.3295 328.7726,98.0073 330.2275,98.0965 335.42,99.3654 339.7445,101.8041 339.5878,102.1569 338.9864,103.4643 338.8374,103.7867 338.0313,105.2764 337.0848,106.7443 336.2128,107.8898 335.9311,108.2598 333.6587,110.9784 333.2786,111.4622 332.9407,111.8926 332.1871,112.9013 332.1736,112.9234 332.1656,112.9364 331.5032,114.0207 331.1729,114.5615 330.5662,115.8056 330.4247,116.0959 330.3826,116.1822 330.0167,116.9808 329.7484,117.5536 329.2178,118.6863 329.0523,119.0153 328.2481,120.3033 327.9726,120.7463 327.8089,120.9764 327.5983,121.3069 327.378,121.5422 326.9762,121.929 326.7512,122.0898 326.568,122.2151 326.4365,122.2513 326.3941,122.2798 325.638,122.7878 325.4454,122.935 324.3226,123.3688 324.0052,123.4914 323.9943,123.4957 323.5077,123.7222 322.5441,124.1858 321.6697,124.5978 317.328,126.6294 317.134,126.7202 316.1107,127.4651 313.8065,129.1423 312.4498,130.3201 311.4621,131.5997 311.1572,133.3188 311.2359,133.9602 311.3525,135.1034 311.6408,137.4217 311.7709,138.5562 311.8088,138.8723 312.0033,140.4918 312.1656,141.8979 312.2245,142.201 312.4527,144.7984 312.7501,147.2712 313.0068,149.3689 313.0142,149.429 313.0181,149.4605 313.0712,149.8695 313.1028,150.1084 313.2627,151.3401 313.4115,152.5286 313.4201,152.6033 313.4278,152.6702 313.6386,154.5085 313.6388,154.5106 313.76,155.6385 313.8535,156.2803 313.866,156.3989 313.8749,156.4726 314.1818,159.0125 314.3844,160.645 314.386,160.658 314.3876,160.6709 314.3969,160.7414 314.4808,161.3779 314.5169,161.5386 314.7196,162.442 314.7407,162.536 314.8235,162.8057 314.9153,163.1667 314.9272,163.2136 315.3962,165.0581 315.4024,165.0813 315.4127,165.1196 315.526,165.544 315.6692,166.0784 315.8679,166.7024 315.9802,166.9268 316.0549,167.0613 316.1002,167.1427 316.1713,167.2772 316.2199,167.3472 316.4385,167.6624 317.4757,168.0045 317.4899,168.0097 318.2375,168.2814 318.553,168.3961 319.2757,168.6616 319.5421,168.761 319.5898,168.7788 320.3745,169.0715 320.7313,169.2046 322.0906,169.7117 322.6334,169.9142 323.65,170.2934 323.9821,170.4137 323.9794,170.416 324.0221,170.4325 324.7659,170.7203 325.2877,170.9221 325.6723,171.0709 325.6821,171.0747 326.2924,171.3108 326.6509,171.4491 327.1232,171.6311 328.5144,172.1669 329.0662,172.3785 329.235,172.4444 329.464,172.5326 329.784,172.6545 330.0653,172.7616 330.1681,172.8007 330.3288,172.8619 331.0948,173.1536 331.6211,173.3541 332.0239,173.5063 332.5235,173.6952 332.5528,173.7062 332.9835,173.869 333.812,174.1822 334.4492,174.4197 334.9248,174.597 334.9695,174.6136 335.6289,174.8584 335.9878,174.9902 336.318,175.1115 336.6037,175.2164 337.1375,175.4031 337.65,175.5823 338.1626,175.7616 338.1922,175.7719 338.4489,175.8702 338.471,175.8787 343.6507,177.8618 344.0295,178.0035 344.5931,178.2145 345.2703,178.4678 346.204,178.8162 347.3077,179.228 347.9242,179.4581 348.025,179.4957 349.0271,179.8679 349.2549,179.9525 350.0746,180.257 350.6441,180.4678 350.7065,180.4909 350.7107,180.4925 351.417,180.7721 351.7074,180.886 352.8663,181.3054 353.5653,181.5595 354.211,181.7933 354.4211,181.8683 354.8986,182.0389 355.0425,182.0892 355.2701,182.1689 355.2749,182.1699 355.4576,182.2064 356.5706,182.7111 356.8916,182.8592 357.0731,182.9406 357.1152,182.9777 357.3172,183.1562 357.3675,183.2006 357.3781,183.21 357.3887,183.2194 357.5017,183.3195 357.6148,183.4196 357.67,183.4685 357.6727,183.471 357.7162,183.5319 357.7886,183.6335 357.9131,183.8081 357.943,183.85 357.9997,183.9297 358.0334,183.9769 358.0466,184.0192 358.0559,184.0494 358.0578,184.0555 358.2042,184.5269 358.2058,184.5324 358.2165,184.5576 358.291,184.7668 358.2915,184.7683 358.3085,184.815 358.5644,185.5193 358.9438,186.5682 358.9443,186.5695 358.9852,186.6827 359.1124,187.0349 359.2556,187.4314 359.271,187.4738 359.656,188.428 359.0531,190.2943 357.2706,192.293 355.7311,194.7593 354.9781,198.3252 355.0919,201.9155 354.6432,204.7363 354.4265,206.0986 353.5364,207.4694 352.5966,210.4792 350.8132,213.6668 348.8684,215.8957 347.5785,217.374 344.5051,219.2059 344.2618,219.2758 343.8982,219.2403 343.0855,219.5173 342.6039,219.6773 341.5984,220.0137 340.1551,220.441 338.2442,220.9096 333.9621,223.0296 333.8425,223.1337 332.0661,224.5699 329.8676,226.9202 328.0968,227.7238 325.5202,228.3674 324.0932,229.0505 322.8341,231.0196 322.0426,232.5169 321.6931,236.2592 321.6321,237.8491 321.529,239.5998 321.5393,240.7452 317.2125,241.5651 314.0077,242.6684 311.8545,244.0278 309.7488,246.4774 305.0338,249.5672 303.1766,251.0925 300.3691,252.0797 298.003,252.163 297.2576,252.0387 297.2176,251.9762 296.5732,251.8874 296.5702,251.8855 293.557,249.9972 292.1494,248.7319 292.0103,248.3255 275.4839,249.9498" stroke="black" /></svg>