<?xml version="1.0" encoding="utf-8" ?>
<svg baseProfile="tiny" height="500" version="1.2" width="497.8023" xmlns="http://www.w3.org/2000/svg" xmlns:ev="http://www.w3.org/2001/xml-events" xmlns:xlink="http://www.w3.org/1999/xlink"><defs /><polygon fill="none" points="281.3579,162.3562 259.9434,177.4692 242.9841,189.4404 231.1548,196.0709 215.2188,205.0033 174.0779,227.269 187.3674,214.2656 188.2949,213.6999 189.2417,213.3958 189.6391,213.0534 190.4816,210.0851 190.9365,209.2968 192.5859,208.0282 194.1908,207.0088 195.2858,206.9892 195.8941,206.8412 198.1378,204.9821 200.088,204.2411 200.5812,203.8591 201.0686,203.2719 201.2189,202.1007 202.0149,200.7182 201.9844,198.7621 202.2075,198.5136 204.1786,197.5149 204.8516,196.9613 205.5298,195.6031 206.8272,194.1639 207.0728,194.0218 207.2586,193.9143 208.3343,193.7067 208.6814,193.4582 209.4883,191.8651 209.3642,190.2352 209.4495,189.2332 209.2363,188.6631 208.5222,188.3658 208.2505,188.0912 208.1502,187.7602 208.168,186.6215 207.7551,186.1848 207.7164,185.9013 207.9074,184.0372 206.9759,183.4535 206.6222,182.5636 206.2184,182.1871 204.757,181.298 204.9011,180.9338 205.9271,179.7035 206.1008,178.2208 206.7656,176.8387 207.6318,175.9933 208.4272,175.874 208.7576,175.6155 208.8689,175.2601 208.8255,174.7157 208.4108,173.7927 208.4268,173.4908 208.6206,173.0806 209.113,172.5378 209.2545,172.1614 208.9674,170.9341 208.9671,170.3745 209.2489,169.5019 209.8667,168.7953 210.6811,168.3618 211.8553,167.4169 212.3142,166.8441 212.7343,166.0538 213.1797,164.5677 213.3511,164.3186 213.6742,164.2225 214.8543,164.1928 215.0536,163.9429 215.0358,163.692 214.6729,163.197 214.7547,162.8475 214.9355,162.6698 215.347,162.537 216.2597,162.533 217.5947,161.9595 218.3258,161.0057 218.3591,160.7838 218.5845,159.3101 218.5478,157.6016 218.3547,156.2926 216.0264,119.05 230.3991,121.2538 230.6234,121.2883 246.564,123.7325 246.0267,121.4277 245.7819,119.8165 245.0014,118.0326 244.5997,117.4834 248.0172,116.1417 248.2558,115.9379 248.033,115.2428 247.9829,114.282 248.1684,114.0021 248.5038,113.873 249.0321,113.9632 249.8383,114.3795 250.6907,114.6283 251.3152,114.6567 251.7891,114.8763 251.9056,115.3838 251.772,116.1742 251.0788,118.2124 250.374,119.5217 250.394,119.8235 250.5218,119.9744 250.8548,120.0179 254.3829,118.9408 254.7598,118.6416 254.9775,118.2992 255.0648,117.9008 254.9474,117.5232 254.4902,116.8104 254.6197,116.5955 255.0073,116.3399 255.9767,115.9681 257.3212,115.7272 257.8138,115.8807 257.8854,116.1942 257.5807,117.3984 257.7412,117.657 259.4849,118.6018 260.2059,118.454 260.6949,117.5105 260.8905,117.3391 261.3305,117.2772 261.6732,117.5046 261.8096,117.9465 261.7118,118.3441 261.0746,118.9975 260.9861,119.4281 261.7687,119.7129 262.3359,120.1986 263.1199,120.0728 263.951,119.3895 264.3169,119.3376 264.6814,119.4362 265.037,119.7875 265.0754,120.289 264.7725,120.764 263.7093,121.566 263.439,122.0072 263.4581,122.6275 264.271,122.7216 265.5203,123.4913 267.3277,124.1837 268.3782,124.0096 269.7232,122.589 270.3175,122.4279 272.2859,122.4034 272.9657,122.0855 273.3278,121.697 273.8475,121.4078 274.4565,121.3207 274.8468,121.4578 275.3285,121.3696 275.6847,121.1167 275.8767,120.7539 275.965,119.4179 276.36,118.9823 276.5792,118.8916 276.5857,118.8947 276.7687,118.9758 277.54,119.8051 279.1727,122.3116 283.7267,125.6914 284.3264,125.7732 284.765,125.6192 285.3436,125.5779 286.5982,125.6759 287.429,125.877 288.8458,126.2201 290.4377,126.798 291.1488,127.9281 291.2613,128.1066 300.9482,148.5349 281.3579,162.3562" stroke="black" /><polygon fill="none" points="490.1149,173.899 490.1704,174.0407 492.4,179.8166 492.3471,179.9496 479.3126,212.7105 470.9111,233.8071 437.5753,206.2069 421.5279,192.9205 419.783,167.4237 448.1354,151.3746 451.1876,149.6469 469.9789,139.014 480.4783,149.2463 480.6728,149.4357 490.1149,173.899" stroke="black" /><polygon fill="none" points="92.8148,289.4871 93.1465,289.4963 93.2525,289.6949 97.469,297.5938 100.4806,303.2327 102.1288,306.3189 102.1716,306.3989 108.4555,318.165 104.0256,338.1328 103.817,339.0738 98.9188,361.1698 95.719,375.6148 95.5765,375.6344 90.1648,375.2608 77.6419,374.3953 75.0377,375.4339 73.7136,377.0671 72.9032,377.4298 65.8794,376.2963 62.2419,376.6093 61.2054,377.2484 56.9697,381.0617 53.4935,381.096 52.8367,379.7376 52.4312,379.4801 50.9161,379.1587 50.2675,379.4383 49.4894,380.0961 46.9357,382.2551 46.0263,382.3726 43.8136,381.8308 42.2968,383.4491 40.2112,382.6797 39.7208,382.1297 39.6205,381.5125 40.0694,380.4522 39.9681,379.606 38.8576,378.5058 37.6582,378.1033 36.0554,377.1058 29.8208,377.871 27.9443,379.4264 25.0551,379.8639 24.182,380.6985 22.9466,381.0294 21.4221,381.1368 19.0456,380.3571 14.8602,387.0882 14.6689,382.3715 14.3855,381.4448 10.296,376.9998 9.7671,376.4249 6.326,372.6844 4.6594,370.6579 4.391,366.6205 5.6641,366.3525 5.4366,365.1047 6.6525,364.5282 6.8705,363.4863 6.5281,362.0315 7.1606,360.9351 8.4866,360.1482 11.754,359.4561 13.1341,358.668 13.3185,356.7426 14.8524,353.1466 15.1755,351.3757 17.6864,349.4382 19.7335,348.5949 21.3345,347.4952 21.6256,347.0653 23.562,344.2063 26.547,342.579 28.0343,340.8537 28.3036,339.1882 27.3202,336.8518 25.8709,335.1954 23.9797,332.2664 23.3157,331.2381 22.6582,330.2195 22.5963,328.9204 23.138,326.5751 24.4562,324.3321 25.1387,322.456 27.8563,311.9876 28.6814,310.5797 29.2086,284.3276 43.9507,288.6975 48.9416,288.2607 77.9897,289.0728 92.4736,289.4778 92.8148,289.4871" stroke="black" /><polygon fill="none" points="68.2242,443.5717 52.7969,441.9906 52.1618,441.9256 37.535,434.4107 23.4248,427.1613 3.7847,421.071 4.2498,419.919 6.0375,417.4675 13.3041,410.8948 15.2838,407.5165 16.1484,404.4705 16.3976,401.7694 15.1062,393.1504 14.8602,387.0882 19.0456,380.3571 21.4221,381.1368 22.9466,381.0294 24.182,380.6985 25.0551,379.8639 27.9443,379.4264 29.8208,377.871 36.0554,377.1058 37.6582,378.1033 38.8576,378.5058 39.9681,379.606 40.0694,380.4522 39.6205,381.5125 39.7208,382.1297 40.2112,382.6797 42.2968,383.4491 43.8136,381.8308 46.0263,382.3726 46.9357,382.2551 49.4894,380.0961 50.2675,379.4383 50.9161,379.1587 52.4312,379.4801 52.8367,379.7376 53.4935,381.096 56.9697,381.0617 61.2054,377.2484 62.2419,376.6093 65.8794,376.2963 72.9032,377.4298 73.7136,377.0671 75.0377,375.4339 77.6419,374.3953 90.1648,375.2608 95.5765,375.6344 104.8,394.9016 122.0558,430.9277 132.6985,453.1254 132.4559,453.1646 131.1099,452.9489 80.3955,444.8182 68.2242,443.5717" stroke="black" /><polygon fill="none" points="52.7969,441.9906 68.2242,443.5717 80.3955,444.8182 131.1099,452.9489 132.4559,453.1646 131.9325,453.2493 130.5904,454.3029 128.1853,453.9937 127.5109,454.4606 126.1882,455.3765 125.6797,456.4207 125.3788,457.0386 125.3771,457.042 124.4394,457.4626 123.6305,458.9081 122.5982,459.0426 122.0222,459.0096 115.8332,457.673 112.5415,456.3487 111.8385,456.3521 110.1718,457.999 109.7091,458.2483 109.4352,458.1936 106.3988,456.6727 103.6812,457.2911 102.6923,456.5956 102.0229,456.4256 86.6604,459.0033 84.5811,459.6402 83.9927,459.8204 83.6023,459.8445 82.2486,459.9279 81.6188,459.9667 78.4627,459.6659 73.2025,460.9302 69.1257,460.0353 68.5897,460.1397 66.1162,460.6216 63.3543,460.8451 63.3399,460.8464 63.1127,460.8647 61.927,460.9606 58.2471,461.2584 48.7252,462.029 47.133,462.1582 41.9183,462.9445 41.8687,462.952 41.866,462.9524 40.7589,463.1194 35.2934,463.9436 34.9692,463.9925 34.7267,464.029 34.6474,464.041 34.5991,464.0483 34.5553,464.0549 34.51,464.0617 34.4678,464.0681 34.4448,464.0715 34.4225,464.0749 34.3785,464.0815 34.3328,464.0884 34.288,464.0952 34.2652,464.0986 34.2428,464.102 34.2206,464.1053 34.1986,464.1087 34.177,464.1119 34.1552,464.1152 34.1438,464.1169 34.0522,464.1307 33.9623,464.1443 33.8698,464.1582 33.7803,464.1717 33.7783,464.172 33.7762,464.1723 33.7744,464.1726 33.7686,464.1735 33.7666,464.1738 33.7648,464.1741 32.8693,442.9691 27.819,443.198 26.1547,441.6099 25.7351,441.586 21.6706,441.3561 21.3246,441.3365 19.3522,440.8082 16.1764,439.0745 12.4238,438.4599 6.8285,437.5432 4.5038,436.6192 4.0222,435.7638 4.0799,435.43 4.3683,433.7629 2.9468,431.9422 2.1628,430.2108 1.9136,428.5693 2.1914,425.0177 3.7847,421.071 23.4248,427.1613 37.535,434.4107 52.1618,441.9256 52.7969,441.9906" stroke="black" /><polygon fill="none" points="490.927,258.7553 490.7537,259.8422 491.129,260.4775 491.5988,260.8914 492.9368,261.71 493.3491,262.3557 493.7597,263.3487 494.3518,265.8068 494.154,267.0219 493.317,269.2754 492.91,271.3465 492.9787,272.6847 493.1821,273.7886 493.3315,273.9786 493.6717,274.0367 493.6203,274.2355 493.5914,274.3473 493.5607,274.4652 493.4241,274.992 484.0193,311.2948 480.9431,310.8356 478.0984,310.2113 477.4845,312.3517 472.8797,315.0547 467.1536,317.1091 465.5105,317.1469 461.8149,317.8942 459.7751,318.4742 457.2942,318.8472 456.5732,317.62 456.0551,317.2465 454.6435,317.2145 454.2506,317.0851 453.7895,316.6765 453.223,316.5772 452.679,316.6318 451.6263,316.5109 449.9128,316.7914 449.5771,316.7155 449.2669,316.3772 448.5346,314.59 448.1427,314.3442 447.7565,314.255 447.7031,314.2427 447.53,314.2026 446.9763,313.8253 446.4226,313.0928 445.8937,312.7888 445.7105,312.453 445.4223,312.2076 445.1012,311.581 445.0456,311.2464 444.5972,310.8661 444.5282,310.6806 444.5293,310.5647 444.7829,310.3801 444.7392,310.0552 444.4377,310.0541 444.323,309.844 443.8598,309.8626 443.3584,309.7112 442.6329,310.1264 442.0796,309.7756 441.7781,309.775 441.3133,310.3051 440.9197,310.3497 440.6843,310.9271 440.3137,311.1117 439.0538,313.4109 438.0575,314.7183 437.7639,314.8577 437.4503,314.8625 436.573,314.3722 436.3914,314.0152 436.5095,313.0853 436.4408,312.923 436.1865,312.8289 435.2136,313.1951 434.6749,313.5931 433.7459,315.2846 432.8836,316.3001 431.1903,317.4383 430.9117,317.4597 430.1283,316.9929 428.7573,317.8656 428.1084,318.1292 426.7663,318.3121 426.2079,318.908 425.9054,319.4168 425.114,320.108 423.7449,321.0156 423.4362,321.4441 422.6963,322.4713 421.929,323.2315 421.1623,323.7956 420.3506,324.1156 419.5635,324.2735 417.8739,324.4275 417.5959,324.6118 417.1508,325.3969 416.8736,325.5241 416.5271,325.5212 414.6571,324.6834 414.3092,324.7226 413.4772,325.6602 411.5056,311.2653 411.4304,310.7141 411.3338,310.0072 394.5922,308.7202 361.5483,300.2042 373.9516,294.0624 374.704,296.1835 399.1854,290.8672 411.7734,294.8682 417.4589,296.6753 419.8568,291.3821 424.2235,281.7431 424.7315,275.4039 425.2736,270.6116 425.3242,270.1644 432.2775,264.3754 433.006,263.7689 433.1925,263.6136 434.8347,262.2464 443.1728,255.3045 445.7453,253.1628 447.6446,251.5816 451.7367,248.1747 456.6508,244.0834 459.2621,244.9156 460.0881,243.7153 461.6463,242.043 463.2761,240.5817 464.5305,239.8628 464.9914,239.4357 465.4558,239.0051 465.4774,238.9787 466.547,237.6688 467.8663,235.7363 469.1064,234.3493 470.1217,233.7496 470.9111,233.8071 479.3126,212.7105 480.0554,212.8683 480.8515,213.3843 481.7318,213.5315 482.5282,213.5074 483.4384,213.7106 484.4027,214.3425 484.6865,214.6298 484.8274,214.7725 484.8294,214.7746 485.2522,215.2025 485.5085,215.6942 485.5816,215.8411 486.1329,216.9099 486.324,217.2226 486.3908,217.332 486.8902,218.0047 486.892,218.0071 486.8938,218.0095 487.2572,218.4124 487.2583,218.4138 487.5549,218.7865 487.5562,218.7882 487.6776,218.9407 488.5539,220.0421 488.8841,220.779 489.1557,221.3852 490.1722,225.368 492.0189,229.7033 492.6237,230.5178 492.8849,231.1103 492.7797,232.0044 492.0566,234.6029 493.2667,236.1106 493.2851,236.6794 493.0567,237.8583 493.0327,238.6118 493.2934,239.32 494.0458,240.3241 494.4638,240.6888 496.0572,241.5951 492.9865,242.9209 491.6291,243.6697 489.6228,245.0937 489.7197,247.2081 489.7225,247.2696 489.7226,247.2709 489.7877,248.6915 490.0744,254.9524 490.927,258.7553" stroke="black" /><polygon fill="none" points="216.954,457.2726 217.0959,432.2675 219.0707,432.3548 221.2784,430.2852 223.1215,429.5325 227.7422,428.8769 230.2639,426.4733 234.7826,424.0771 236.647,423.4481 240.7469,423.0459 241.5204,422.6676 242.8498,419.6575 245.0815,418.701 245.4625,418.2715 246.2091,415.9376 246.9068,415.1356 249.3394,414.3605 251.2281,413.7588 252.4599,413.5096 252.9866,413.0841 253.313,411.432 254.3192,409.6102 255.5158,409.5321 257.0629,409.9206 258.7802,409.3606 259.3099,409.3251 263.4806,409.6001 264.0058,409.7935 266.6805,411.2859 267.7353,411.6825 269.3859,411.7761 270.2906,412.2071 272.9279,414.4803 275.0982,415.0027 277.9164,416.1598 279.2535,429.9316 281.5464,429.398 284.5181,427.2247 285.8236,426.8891 287.1627,426.9646 287.9353,427.3798 289.9789,427.051 290.9298,427.2599 291.6378,426.921 292.703,425.6313 294.4886,425.9104 295.5294,425.1176 295.366,425.811 294.3678,430.0158 293.2274,432.4721 292.6084,436.1632 292.7989,439.7899 293.8871,440.6322 294.4987,441.8638 292.5542,448.1852 292.3906,448.7168 288.1994,462.3443 292.4138,464.6242 292.9043,465.3106 292.9021,465.79 291.1725,466.3286 291.4647,470.8436 292.3651,473.3793 293.666,473.8661 298.4223,473.9749 329.7424,490.2874 330.1992,490.5291 336.2588,493.7355 334.5512,493.8367 334.5183,493.8388 314.4863,495.0271 312.1848,495.1636 289.1543,496.5283 284.6443,496.7953 278.6011,497.1535 278.0357,497.1871 230.5072,500.0 226.6633,499.5765 221.7605,497.5817 218.1605,495.2255 216.9499,494.4332 216.7921,485.8141 216.954,457.2726" stroke="black" /><polygon fill="none" points="272.5768,207.5446 271.0101,206.5861 242.9841,189.4404 259.9434,177.4692 281.3579,162.3562 300.9482,148.5349 337.2816,192.8156 324.1778,210.007 319.8884,210.4879 308.8316,229.7067 277.203,210.3748 272.5768,207.5446" stroke="black" /><polygon fill="none" points="102.1288,306.3189 100.4806,303.2327 97.469,297.5938 93.2525,289.6949 93.1465,289.4963 92.8148,289.4871 92.4736,289.4778 77.9897,289.0728 48.9416,288.2607 48.5045,287.9728 47.8274,285.8653 47.6832,284.6997 47.676,283.2002 48.3904,281.919 49.2169,280.9699 49.4896,280.0802 49.6226,278.9687 49.4504,277.9697 49.6015,274.887 50.0324,273.6876 50.3892,273.3633 50.756,273.0299 51.8486,272.6273 56.0949,271.8839 57.5824,271.0491 58.6691,269.4028 60.4662,268.1586 63.8502,266.6579 65.7042,266.0383 67.4426,265.8365 69.7517,266.0178 70.8453,265.7642 71.895,265.1818 72.9747,264.2839 75.3991,263.8742 76.4819,263.4919 77.598,263.336 82.6978,260.9736 83.3932,258.4547 84.8475,257.2277 86.0468,256.5763 87.3725,255.3867 88.1553,252.9524 88.9818,251.7988 89.6903,251.1434 91.428,250.5967 92.0296,250.5082 94.3311,251.0833 95.1904,250.9933 96.1551,250.6649 97.1639,250.1429 98.0186,249.4063 100.9033,246.0851 101.5018,245.6505 102.4878,245.2804 103.9702,245.0135 106.3312,244.3338 107.7035,243.7737 108.9216,242.7562 109.9058,241.6522 111.7487,240.6961 114.8405,239.8939 115.9346,239.7593 116.6244,239.7986 117.5285,240.2889 119.1473,241.6467 119.6472,242.6348 118.8002,248.8366 119.061,249.5528 119.6443,249.8293 120.2025,249.8689 121.1253,249.6063 122.2263,248.6547 123.4568,247.5919 124.3979,246.5732 125.6422,246.0832 132.0285,246.6302 132.8888,246.4319 135.5771,246.5755 136.4582,246.527 137.037,246.2648 137.8486,245.2919 138.2132,245.0099 139.1578,244.8433 139.5444,244.8849 139.6534,245.0775 139.7663,245.9594 139.9396,246.3466 141.9912,247.9501 142.8403,248.2725 143.1729,259.7683 144.9694,287.3383 145.212,291.0616 144.4437,308.8767 108.4555,318.165 102.1716,306.3989 102.1288,306.3189" stroke="black" /><polygon fill="none" points="416.599,4.6656 417.0371,6.4439 424.2202,35.5978 427.1374,47.4259 426.8273,46.9545 426.3049,46.7766 425.7506,47.2259 425.308,47.9405 424.9008,47.9387 423.593,49.0607 423.0592,49.3608 422.5353,49.2412 422.0149,48.3041 421.6061,48.361 420.4101,48.9099 418.5876,48.7954 418.1369,49.0753 416.0659,49.6201 414.4311,50.3709 411.9479,51.7908 411.482,51.788 411.0207,50.6179 410.4405,50.3819 409.6249,50.3771 408.3722,50.1685 407.1017,56.1733 398.5994,96.4044 398.7994,97.1935 398.5021,98.2426 397.6862,98.4726 396.23,98.4658 395.151,98.607 394.4505,98.8954 393.8062,99.4182 393.1077,99.4733 392.527,99.0036 391.5724,97.7429 389.9995,97.5019 389.4174,97.5572 389.012,96.9712 388.685,95.7967 388.3158,95.7312 387.5749,96.0491 387.3499,96.0162 387.1421,95.8054 386.9288,94.9833 386.7519,94.9101 386.0033,95.3092 385.533,95.3177 385.2521,95.1469 385.149,94.7271 385.4008,94.1561 385.4545,93.625 385.2272,93.4059 382.415,93.7245 382.0168,93.2829 381.4786,93.0352 380.7353,93.1575 380.0645,93.5348 379.5551,94.059 378.9945,94.2017 378.461,94.0259 377.9939,93.3347 377.273,92.8776 376.2776,92.8913 375.5891,93.1234 375.0253,93.7557 374.7406,94.5795 374.628,95.4678 373.9324,98.0606 373.3479,98.2889 372.0487,97.6574 371.2343,97.5718 370.067,97.7306 369.4693,97.9987 368.4802,97.8714 366.7893,98.4784 366.143,98.5118 364.9768,98.2354 364.3931,98.299 362.7563,99.9239 361.9893,100.2421 360.5973,100.3625 359.4498,99.8315 358.7013,99.6457 356.1118,99.4783 355.1084,99.3426 354.7304,98.8243 354.4133,97.3526 354.1151,96.9437 351.6656,95.9396 351.0706,95.4202 350.3948,95.0087 348.7814,94.634 347.0221,93.6721 346.2875,94.159 345.7547,94.9036 345.3193,95.1195 344.5321,95.0613 343.9371,94.8407 340.2092,94.3735 339.5063,93.6899 338.6947,93.115 336.5948,92.5745 335.428,92.7309 334.9682,92.3758 334.2362,92.1273 332.1901,91.8041 330.7632,91.1589 329.3479,90.3215 327.7394,89.0491 326.7139,88.0919 325.3835,88.1402 333.5521,70.0836 334.0114,69.0684 336.4825,63.606 338.0783,0.0 351.4136,0.1774 360.3211,0.295 415.8656,1.0281 415.7236,1.1128 416.599,4.6656" stroke="black" /><polygon fill="none" points="374.704,296.1835 373.9516,294.0624 370.1219,283.2659 366.9533,274.3332 366.9132,274.3317 329.9436,272.9535 318.0257,272.5092 309.9715,265.8803 306.7242,233.3698 308.3919,230.471 308.8316,229.7067 319.8884,210.4879 324.1778,210.007 333.5771,208.9532 333.6075,208.9498 334.1243,208.8919 334.1634,208.8875 335.1383,208.7782 335.1819,208.8045 337.1152,209.968 342.2302,213.0465 344.3606,214.3286 358.1526,222.6293 373.7677,230.5015 387.1871,228.7735 387.1916,228.7739 396.1842,229.6307 396.4842,229.6593 396.5199,229.6675 444.4821,240.7272 447.5023,241.4237 447.6553,241.4589 448.0537,241.5508 449.1403,241.8014 449.7752,241.9757 453.9293,243.1161 456.6508,244.0834 451.7367,248.1747 447.6446,251.5816 445.7453,253.1628 443.1728,255.3045 434.8347,262.2464 433.1925,263.6136 433.006,263.7689 432.2775,264.3754 425.3242,270.1644 425.2736,270.6116 424.7315,275.4039 424.2235,281.7431 419.8568,291.3821 417.4589,296.6753 411.7734,294.8682 399.1854,290.8672 374.704,296.1835" stroke="black" /><polygon fill="none" points="276.5792,118.8916 276.36,118.9823 275.965,119.4179 275.8767,120.7539 275.6847,121.1167 275.3285,121.3696 274.8468,121.4578 274.4565,121.3207 273.8475,121.4078 273.3278,121.697 272.9657,122.0855 272.2859,122.4034 270.3175,122.4279 269.7232,122.589 268.3782,124.0096 267.3277,124.1837 265.5203,123.4913 264.271,122.7216 263.4581,122.6275 263.439,122.0072 263.7093,121.566 264.7725,120.764 265.0754,120.289 265.037,119.7875 264.6814,119.4362 264.3169,119.3376 263.951,119.3895 263.1199,120.0728 262.3359,120.1986 261.7687,119.7129 260.9861,119.4281 261.0746,118.9975 261.7118,118.3441 261.8096,117.9465 261.6732,117.5046 261.3305,117.2772 260.8905,117.3391 260.6949,117.5105 260.2059,118.454 259.4849,118.6018 257.7412,117.657 257.5807,117.3984 257.8854,116.1942 257.8138,115.8807 257.3212,115.7272 255.9767,115.9681 255.0073,116.3399 254.6197,116.5955 254.4902,116.8104 254.9474,117.5232 255.0648,117.9008 254.9775,118.2992 254.7598,118.6416 254.3829,118.9408 250.8548,120.0179 250.5218,119.9744 250.394,119.8235 250.374,119.5217 251.0788,118.2124 251.772,116.1742 251.9056,115.3838 251.7891,114.8763 251.3152,114.6567 250.6907,114.6283 249.8383,114.3795 249.0321,113.9632 248.5038,113.873 248.1684,114.0021 247.9829,114.282 248.033,115.2428 248.2558,115.9379 248.0172,116.1417 244.5997,117.4834 245.0014,118.0326 245.7819,119.8165 246.0267,121.4277 246.564,123.7325 230.6234,121.2883 230.3991,121.2538 216.0264,119.05 205.1872,103.9683 185.6065,76.5108 187.0459,75.4998 187.3855,74.6305 188.5794,73.0529 188.7796,71.7826 189.7324,69.8387 190.7563,68.429 192.0904,67.1175 193.7973,64.7022 194.5298,64.0308 196.3753,62.3393 197.3442,61.8929 197.621,61.1639 198.5547,60.0002 199.9305,59.1407 201.6472,58.8154 203.9149,58.1615 205.4991,57.3234 206.7717,56.21 209.1584,52.3883 210.2655,50.3935 212.8291,52.3075 215.3075,53.8198 215.742,54.1194 217.6479,55.4334 219.9405,56.4783 221.3796,56.8198 223.2308,57.0294 228.203,57.1557 229.0243,57.4931 229.4984,58.6281 229.1803,60.395 229.6548,61.5961 230.8146,62.6025 232.2547,63.0099 233.4557,62.8495 234.1464,61.8539 235.8016,60.2616 237.5189,59.3374 239.5466,58.8472 242.4293,58.6617 242.6114,56.63 242.5218,53.9955 290.4377,126.798 288.8458,126.2201 287.429,125.877 286.5982,125.6759 285.3436,125.5779 284.765,125.6192 284.3264,125.7732 283.7267,125.6914 279.1727,122.3116 277.54,119.8051 276.7687,118.9758 276.5857,118.8947 276.5792,118.8916" stroke="black" /><polygon fill="none" points="172.7961,375.3023 171.9778,375.3569 170.7367,376.6878 169.6785,376.7442 168.9774,377.4109 167.5699,377.9275 167.0251,377.4211 166.3432,376.0095 164.5476,375.8574 164.1704,376.3168 165.2636,377.7889 165.296,378.6014 164.4327,379.5229 163.078,380.2938 161.5316,379.9981 160.6656,380.1048 159.208,381.4873 158.447,381.2879 158.253,380.3823 157.1687,379.7547 156.4028,379.4666 154.9392,379.679 153.3879,378.6191 152.0879,378.9817 151.2114,378.0222 150.3695,377.4133 149.0661,377.2683 148.1476,377.7328 147.176,378.7045 146.4147,378.9089 145.4696,378.0644 144.8128,378.0121 144.0548,378.4241 143.1106,379.4933 141.5673,379.6594 141.2346,380.2614 117.3802,391.1298 117.3589,391.1395 116.1181,392.3176 114.5718,393.354 114.0441,393.5136 113.4443,393.2971 113.3209,391.836 112.9683,391.3158 111.4561,390.6064 110.981,390.8187 109.0114,392.8231 104.8,394.9016 95.5765,375.6344 95.719,375.6148 98.9188,361.1698 103.817,339.0738 104.0256,338.1328 108.4555,318.165 144.4437,308.8767 145.212,291.0616 144.9694,287.3383 143.1729,259.7683 142.8403,248.2725 148.2995,247.255 149.9707,246.0805 150.9594,245.0255 152.1904,242.9791 154.2885,240.6926 155.3135,239.9364 162.5623,237.5489 163.1452,237.1372 163.9749,235.8603 165.4992,234.1175 166.0686,233.7852 166.4827,233.4338 167.2912,232.7479 168.0059,231.9173 168.892,231.1661 171.4602,229.3366 172.3155,228.5338 174.0779,227.269 175.5554,227.2684 176.2798,227.2671 176.9166,227.8344 177.9726,229.2909 178.6462,230.0131 179.935,230.9268 182.1284,231.9317 182.7368,232.4344 183.762,233.634 185.6982,235.571 189.9976,239.0824 190.8919,239.6864 191.5336,239.6821 193.9414,238.3896 194.8799,238.1649 195.846,238.3357 197.101,239.3285 198.5055,241.7029 200.0195,243.2876 200.6176,244.2279 201.2968,244.8231 202.816,245.4231 203.2876,245.8695 203.3014,247.7378 203.2249,247.8753 202.56,249.07 202.5461,251.5833 203.4507,254.1516 204.5483,254.996 205.539,256.3811 206.8436,262.6007 206.6481,264.7189 205.6256,269.1498 204.0089,271.8027 202.944,274.6062 203.0162,275.4456 203.2247,276.0874 204.0336,276.9891 204.4247,277.4246 205.9483,278.36 206.4413,278.126 207.1824,277.1944 207.551,276.95 208.2834,277.6926 209.9064,278.441 211.0876,278.4485 212.3913,278.849 212.959,278.9252 213.3972,278.7057 213.6626,278.0182 214.0593,277.5774 214.4803,277.4323 215.9485,277.9807 216.8907,278.5289 217.472,277.9406 218.1824,277.5991 218.8628,277.801 219.2293,278.2472 218.7689,280.7056 218.9255,280.9565 220.205,281.179 220.3152,281.284 220.7064,281.6564 220.5977,282.3954 219.7551,282.7845 218.7567,282.8777 217.7334,282.7724 216.3117,283.1469 215.6297,283.4508 215.3629,283.943 215.0536,285.3564 215.2564,289.0693 215.462,290.0075 215.1586,292.4206 215.3656,292.9635 215.8894,293.2136 217.3612,293.0739 221.2259,292.1581 224.402,292.4224 227.2389,292.1426 231.4017,289.9477 232.848,289.4142 233.7935,289.271 234.9062,289.3183 238.6655,290.9325 239.2485,290.842 239.9459,289.1155 240.6861,288.4461 241.2466,288.2287 242.6478,288.1868 247.2317,287.4015 247.6691,287.3257 251.7696,304.8379 262.8721,352.1784 267.342,371.209 271.6878,389.698 277.9164,416.1598 275.0982,415.0027 272.9279,414.4803 270.2906,412.2071 269.3859,411.7761 267.7353,411.6825 266.6805,411.2859 264.0058,409.7935 263.4806,409.6001 259.3099,409.3251 258.7802,409.3606 257.0629,409.9206 255.5158,409.5321 254.3192,409.6102 253.313,411.432 252.9866,413.0841 252.4599,413.5096 251.2281,413.7588 249.3394,414.3605 246.9068,415.1356 246.2091,415.9376 245.4625,418.2715 245.0815,418.701 242.8498,419.6575 241.5204,422.6676 240.7469,423.0459 236.647,423.4481 234.7826,424.0771 230.2639,426.4733 227.7422,428.8769 223.1215,429.5325 221.2784,430.2852 219.0707,432.3548 217.0959,432.2675 216.954,457.2726 216.7921,485.8141 215.0272,481.3061 201.8182,446.6255 196.191,433.9025 184.6122,404.9138 172.7961,375.3023" stroke="black" /><polygon fill="none" points="142.6967,443.9067 142.6046,444.02 142.8584,444.5182 142.6611,445.2825 140.0941,447.4751 139.5636,449.4929 138.7244,450.3167 136.9917,450.9551 135.4774,452.3027 134.3195,452.8627 132.8822,453.0956 132.6985,453.1254 122.0558,430.9277 104.8,394.9016 109.0114,392.8231 110.981,390.8187 111.4561,390.6064 112.9683,391.3158 113.3209,391.836 113.4443,393.2971 114.0441,393.5136 114.5718,393.354 116.1181,392.3176 117.3589,391.1395 117.3802,391.1298 141.2346,380.2614 141.5673,379.6594 143.1106,379.4933 144.0548,378.4241 144.8128,378.0121 145.4696,378.0644 146.4147,378.9089 147.176,378.7045 148.1476,377.7328 149.0661,377.2683 150.3695,377.4133 151.2114,378.0222 152.0879,378.9817 153.3879,378.6191 154.9392,379.679 156.4028,379.4666 157.1687,379.7547 158.253,380.3823 158.447,381.2879 159.208,381.4873 160.6656,380.1048 161.5316,379.9981 163.078,380.2938 164.4327,379.5229 165.296,378.6014 165.2636,377.7889 164.1704,376.3168 164.5476,375.8574 166.3432,376.0095 167.0251,377.4211 167.5699,377.9275 168.9774,377.4109 169.6785,376.7442 170.7367,376.6878 171.9778,375.3569 172.7961,375.3023 184.6122,404.9138 196.191,433.9025 201.8182,446.6255 215.0272,481.3061 216.7921,485.8141 216.9499,494.4332 215.8784,494.6752 212.4437,496.4798 210.8769,497.303 208.9629,497.3601 206.906,496.7957 202.7989,494.9887 199.7368,495.124 194.989,493.9046 194.3925,493.2803 191.1285,492.3045 190.2842,490.6888 189.836,488.0995 189.4348,487.8238 187.4394,487.8917 186.7115,487.7202 186.2583,486.9847 186.2928,485.8562 187.3529,484.7925 188.3252,483.9867 188.9288,483.2117 189.2042,482.0462 187.4774,477.5047 186.0188,475.5574 183.7422,473.6162 173.2085,469.7065 170.9368,468.6198 161.5773,460.8539 158.723,456.9897 156.4895,451.7182 155.2679,447.1425 154.824,446.7174 154.1839,447.0967 153.6182,447.432 151.2912,449.8348 150.7373,450.0255 147.0823,449.6958 147.0187,448.7892 148.0827,447.646 147.7616,446.8313 145.8191,445.3801 145.1161,443.738 144.5341,443.3986 143.0579,443.4622 142.6967,443.9067" stroke="black" /><polygon fill="none" points="411.4304,310.7141 411.5056,311.2653 413.4772,325.6602 411.8029,329.2751 411.1347,332.4384 410.8968,333.1735 409.3409,336.4798 409.7484,337.8725 409.6254,338.7601 409.7412,339.4708 410.1518,340.1539 410.7688,340.7188 410.9753,341.1049 412.5601,354.9948 424.2686,392.322 423.979,392.6355 422.4503,392.9624 421.5481,393.0016 420.9817,392.8283 420.3349,392.1744 420.1483,389.7081 420.2385,388.8304 420.1567,388.2634 419.8741,387.9204 419.1843,387.5079 418.3162,387.3823 417.4387,387.475 416.8395,387.7756 416.14,387.9443 415.7999,387.9435 415.4477,387.7995 415.223,387.4163 415.2736,385.8022 414.9894,385.5762 413.7893,385.6663 413.3493,385.6073 412.3111,385.1244 411.5245,384.484 410.8654,383.5721 409.6843,382.3772 409.3678,381.4045 408.721,381.2931 407.64,381.8271 406.9911,382.3632 406.2286,383.7629 406.1186,385.1092 406.4724,393.084 407.1351,396.1837 407.0765,407.0936 399.1127,409.5876 398.6473,413.1496 372.5641,432.4228 367.0433,436.2764 357.7731,442.7471 346.075,452.1049 340.4283,445.0427 328.8737,440.114 295.366,425.811 295.5294,425.1176 294.4886,425.9104 292.703,425.6313 291.6378,426.921 290.9298,427.2599 289.9789,427.051 287.9353,427.3798 287.1627,426.9646 285.8236,426.8891 284.5181,427.2247 281.5464,429.398 279.2535,429.9316 277.9164,416.1598 279.3673,416.1873 281.4661,416.0672 283.8722,415.767 285.6112,414.9886 286.4793,414.8098 287.5411,414.8686 288.6577,415.2951 291.1989,415.8154 293.7297,414.5872 296.5489,412.7985 297.6141,411.949 298.0105,411.633 298.4069,411.3169 298.631,411.1382 298.6659,411.1104 300.2271,409.523 301.9385,407.5207 303.242,405.6196 303.9182,403.8883 306.29,402.9309 305.4523,400.6016 308.271,398.8826 310.1636,397.5391 310.4303,397.1928 310.6938,396.8505 311.2803,396.0889 314.6597,393.4349 317.708,390.3993 318.9739,389.3692 320.7147,387.9527 320.8663,387.3291 321.4626,386.6386 322.0298,383.9006 322.4073,382.5845 323.7481,380.8575 324.5322,379.3021 325.36,376.6676 325.9566,375.8379 325.9291,373.862 325.6404,372.7494 325.6459,371.6393 325.9862,370.2879 326.509,369.2517 327.6373,365.788 327.1625,364.5008 326.4282,363.7337 324.142,362.4044 323.8485,362.1246 323.6678,361.4061 325.4665,360.4912 326.537,360.1624 327.4518,360.0239 327.9628,359.55 328.2447,359.0503 329.0107,358.5774 329.6751,357.9136 330.8495,357.1082 331.6405,356.2773 331.8614,355.3426 332.057,354.5141 333.3309,353.9013 333.0065,352.8254 332.3016,351.7245 332.6583,351.3439 332.7116,350.8679 332.4734,350.3755 333.2244,349.7256 333.1029,349.033 332.4968,348.2177 331.9906,347.8345 332.1466,347.1671 332.8649,346.0258 332.4361,345.3322 332.5887,345.2135 332.7413,345.0947 333.456,344.8598 334.0706,343.7658 334.1773,342.8593 334.4612,342.1212 334.314,341.3096 333.6022,340.972 333.2414,340.5298 332.3901,339.4861 332.2683,338.6515 331.4217,335.4497 330.4877,334.0373 329.2214,333.3146 329.1718,333.1 329.1223,332.8853 329.3306,331.7885 329.2835,331.1206 329.4389,330.5475 329.8228,330.049 331.0466,329.4841 332.8624,326.9885 333.8923,326.2758 335.4115,325.8485 335.7164,325.7627 337.7731,326.3219 340.4207,325.4778 341.3376,324.958 341.7254,324.0291 341.8361,322.2657 342.117,322.0044 342.3978,321.7431 342.6066,320.7896 343.2974,319.6234 344.9806,318.0619 344.9256,317.8841 344.6839,317.1028 343.7549,314.9742 343.512,312.9208 343.1597,312.0134 343.1633,311.4105 343.1668,310.772 343.9118,309.1299 344.8774,309.3262 345.5861,309.7112 345.8874,310.5243 345.8332,311.049 346.3164,311.7623 346.4653,311.9822 346.9202,312.3666 347.932,312.4194 348.2654,312.302 348.5988,312.1846 348.9075,311.5184 349.0399,310.4931 349.3564,309.9149 350.4448,308.8497 351.2893,308.0232 351.3647,307.5696 351.5785,306.2836 351.2773,305.4711 351.5339,305.0429 352.3987,304.8571 353.2126,304.8133 353.8466,305.0304 354.558,305.0831 355.3739,304.8007 356.036,304.0881 356.7546,302.8996 357.1883,302.6381 357.8022,301.9259 359.1258,301.5505 360.0416,301.5571 361.3127,301.3237 361.5483,300.2042 394.5922,308.7202 411.3338,310.0072 411.4304,310.7141" stroke="black" /><polygon fill="none" points="302.0803,123.9963 302.2637,123.8808 325.3835,88.1402 326.7139,88.0919 327.7394,89.0491 329.3479,90.3215 330.7632,91.1589 332.1901,91.8041 334.2362,92.1273 334.9682,92.3758 335.428,92.7309 336.5948,92.5745 338.6947,93.115 339.5063,93.6899 340.2092,94.3735 343.9371,94.8407 344.5321,95.0613 345.3193,95.1195 345.7547,94.9036 346.2875,94.159 347.0221,93.6721 348.7814,94.634 350.3948,95.0087 351.0706,95.4202 351.6656,95.9396 354.1151,96.9437 354.4133,97.3526 354.7304,98.8243 355.1084,99.3426 356.1118,99.4783 358.7013,99.6457 359.4498,99.8315 360.5973,100.3625 361.9893,100.2421 362.7563,99.9239 364.3931,98.299 364.9768,98.2354 366.143,98.5118 366.7893,98.4784 368.4802,97.8714 369.4693,97.9987 370.067,97.7306 371.2343,97.5718 372.0487,97.6574 373.3479,98.2889 373.9324,98.0606 374.628,95.4678 374.7406,94.5795 375.0253,93.7557 375.5891,93.1234 376.2776,92.8913 377.273,92.8776 377.9939,93.3347 378.461,94.0259 378.9945,94.2017 379.5551,94.059 380.0645,93.5348 380.7353,93.1575 381.4786,93.0352 382.0168,93.2829 382.415,93.7245 385.2272,93.4059 385.4545,93.625 385.4008,94.1561 385.149,94.7271 385.2521,95.1469 385.533,95.3177 386.0033,95.3092 386.7519,94.9101 386.9288,94.9833 387.1421,95.8054 387.3499,96.0162 387.5749,96.0491 388.3158,95.7312 388.685,95.7967 389.012,96.9712 389.4174,97.5572 389.9995,97.5019 391.5724,97.7429 392.527,99.0036 393.1077,99.4733 393.8062,99.4182 394.4505,98.8954 395.151,98.607 396.23,98.4658 397.6862,98.4726 398.5021,98.2426 397.1341,105.1866 396.5032,117.0947 396.4996,117.1769 395.795,130.5081 404.3776,166.0999 408.0571,172.2223 382.3569,182.7094 382.3483,182.7129 381.7673,182.95 337.2816,192.8156 300.9482,148.5349 291.2613,128.1066 295.162,127.6101 296.1641,127.2926 299.8221,125.4146 302.0803,123.9963" stroke="black" /><polygon fill="none" points="437.0204,68.2134 454.803,95.9997 455.6223,97.2799 455.8533,97.3846 457.6008,98.1764 470.372,100.5917 497.8023,106.5016 497.7488,106.5692 482.3297,124.5835 471.47,137.2711 469.9789,139.014 451.1876,149.6469 448.1354,151.3746 419.783,167.4237 408.0571,172.2223 404.3776,166.0999 395.795,130.5081 396.4996,117.1769 396.5032,117.0947 397.1341,105.1866 398.5021,98.2426 398.7994,97.1935 398.5994,96.4044 407.1017,56.1733 408.3722,50.1685 409.6249,50.3771 410.4405,50.3819 411.0207,50.6179 411.482,51.788 411.9479,51.7908 414.4311,50.3709 416.0659,49.6201 418.1369,49.0753 418.5876,48.7954 420.4101,48.9099 421.6061,48.361 422.0149,48.3041 422.5353,49.2412 423.0592,49.3608 423.593,49.0607 424.9008,47.9387 425.308,47.9405 425.7506,47.2259 426.3049,46.7766 426.8273,46.9545 427.1374,47.4259 429.2808,56.1117 437.0204,68.2134" stroke="black" /><polygon fill="none" points="156.2655,90.0064 158.0568,89.0569 160.8024,87.7719 162.6532,86.6925 164.8108,84.7764 165.839,84.1703 167.2085,83.5616 169.3738,82.7792 170.744,81.8373 175.8444,77.3652 177.2176,76.6892 179.5883,76.5104 185.6065,76.5108 205.1872,103.9683 216.0264,119.05 218.3547,156.2926 218.5478,157.6016 218.5845,159.3101 218.3591,160.7838 218.3258,161.0057 217.5947,161.9595 216.2597,162.533 215.347,162.537 214.9355,162.6698 214.7547,162.8475 214.6729,163.197 215.0358,163.692 215.0536,163.9429 214.8543,164.1928 213.6742,164.2225 213.3511,164.3186 213.1797,164.5677 212.7343,166.0538 212.3142,166.8441 211.8553,167.4169 210.6811,168.3618 209.8667,168.7953 209.2489,169.5019 208.9671,170.3745 208.9674,170.9341 209.2545,172.1614 209.113,172.5378 208.6206,173.0806 208.4268,173.4908 208.4108,173.7927 208.8255,174.7157 208.8689,175.2601 208.7576,175.6155 208.4272,175.874 207.6318,175.9933 206.7656,176.8387 206.1008,178.2208 205.9271,179.7035 204.9011,180.9338 204.757,181.298 206.2184,182.1871 206.6222,182.5636 206.9759,183.4535 207.9074,184.0372 207.7164,185.9013 207.7551,186.1848 208.168,186.6215 208.1502,187.7602 208.2505,188.0912 208.5222,188.3658 209.2363,188.6631 209.4495,189.2332 209.3642,190.2352 209.4883,191.8651 208.6814,193.4582 208.3343,193.7067 207.2586,193.9143 207.0728,194.0218 206.8272,194.1639 205.5298,195.6031 204.8516,196.9613 204.1786,197.5149 202.2075,198.5136 201.9844,198.7621 202.0149,200.7182 201.2189,202.1007 201.0686,203.2719 200.5812,203.8591 200.088,204.2411 198.1378,204.9821 195.8941,206.8412 195.2858,206.9892 194.1908,207.0088 192.5859,208.0282 190.9365,209.2968 190.4816,210.0851 189.6391,213.0534 189.2417,213.3958 188.2949,213.6999 187.3674,214.2656 174.0779,227.269 172.3155,228.5338 171.4602,229.3366 168.892,231.1661 168.0059,231.9173 167.2912,232.7479 166.4827,233.4338 166.0686,233.7852 165.4992,234.1175 163.9749,235.8603 163.1452,237.1372 162.5623,237.5489 155.3135,239.9364 154.2885,240.6926 152.1904,242.9791 150.9594,245.0255 149.9707,246.0805 148.2995,247.255 142.8403,248.2725 141.9912,247.9501 139.9396,246.3466 139.7663,245.9594 139.6534,245.0775 139.5444,244.8849 139.1578,244.8433 138.2132,245.0099 137.8486,245.2919 137.037,246.2648 136.4582,246.527 135.5771,246.5755 132.8888,246.4319 132.0285,246.6302 125.6422,246.0832 124.3979,246.5732 123.4568,247.5919 122.2263,248.6547 121.1253,249.6063 120.2025,249.8689 119.6443,249.8293 119.061,249.5528 118.8002,248.8366 119.6472,242.6348 119.1473,241.6467 117.5285,240.2889 116.6244,239.7986 115.9346,239.7593 114.8405,239.8939 111.7487,240.6961 109.9058,241.6522 108.9216,242.7562 107.7035,243.7737 106.3312,244.3338 103.9702,245.0135 102.4878,245.2804 101.5018,245.6505 100.9033,246.0851 98.0186,249.4063 97.1639,250.1429 96.1551,250.6649 95.1904,250.9933 94.3311,251.0833 92.0296,250.5082 91.428,250.5967 89.6903,251.1434 88.9818,251.7988 88.1553,252.9524 87.3725,255.3867 86.0468,256.5763 84.8475,257.2277 83.3932,258.4547 82.6978,260.9736 77.598,263.336 76.4819,263.4919 75.3991,263.8742 72.9747,264.2839 71.895,265.1818 70.8453,265.7642 69.7517,266.0178 67.4426,265.8365 65.7042,266.0383 63.8502,266.6579 60.4662,268.1586 58.6691,269.4028 57.5824,271.0491 56.0949,271.8839 51.8486,272.6273 50.756,273.0299 50.3892,273.3633 50.0324,273.6876 49.6015,274.887 49.4504,277.9697 49.6226,278.9687 49.4896,280.0802 49.2169,280.9699 48.3904,281.919 47.676,283.2002 47.6832,284.6997 47.8274,285.8653 48.5045,287.9728 48.9416,288.2607 43.9507,288.6975 29.2086,284.3276 4.1955,261.2475 0.0,256.8731 13.4298,210.95 30.425,173.9094 30.5265,173.6884 31.7551,171.0109 44.7423,133.8988 48.4118,123.4127 50.2417,118.1835 57.5172,101.2978 67.8566,107.3437 69.1679,103.5403 70.3199,100.6582 71.3896,98.191 73.4348,94.1066 74.9791,91.2795 76.1398,90.0617 77.3415,89.0139 78.6709,88.2562 79.9181,88.2078 83.2156,89.527 85.0912,89.893 86.424,89.8442 92.1516,86.1849 93.0244,85.805 93.8981,85.7174 94.9002,86.0871 95.8194,86.8759 96.4084,88.0421 96.4989,89.5434 96.8382,90.6683 97.3955,91.6459 98.0946,91.9969 99.5924,91.698 102.1682,90.6402 103.2509,90.5934 104.085,90.9648 104.5051,91.5887 104.8904,93.5482 105.3531,94.5475 106.1033,95.0025 106.36,95.0008 106.9378,94.9971 109.4268,93.3163 111.0737,92.5073 112.6683,92.0894 116.658,92.1107 118.2069,92.0186 118.7051,91.8501 119.1581,91.0164 119.8977,89.0062 120.3818,85.7489 121.3198,81.9463 122.145,81.0013 122.5867,80.0158 122.5851,79.6809 123.3378,78.7415 125.1325,77.5999 125.6687,77.2592 127.2709,74.6771 129.0523,73.1977 130.4616,73.0894 132.6002,74.3488 134.7024,75.1738 135.2559,75.8391 135.2614,76.842 136.1646,78.5082 136.7517,78.9402 138.194,78.8653 138.5416,79.2647 138.5435,79.7323 138.7517,80.0664 139.614,80.4301 140.5075,80.5579 141.742,79.75 143.3921,79.6071 143.9457,80.2051 144.6733,81.3049 146.3307,82.568 147.088,82.7633 147.9853,83.3608 149.8823,84.2527 152.4343,85.7106 152.6108,86.4783 150.9085,89.8964 151.3594,90.7296 152.6028,91.6591 153.4973,91.654 155.8279,90.2383 156.2521,90.0135 156.2607,90.0089 156.2655,90.0064" stroke="black" /><polygon fill="none" points="396.5199,229.6675 396.4842,229.6593 396.1842,229.6307 387.1916,228.7739 387.1871,228.7735 373.7677,230.5015 358.1526,222.6293 344.3606,214.3286 342.2302,213.0465 337.1152,209.968 335.1819,208.8045 335.1383,208.7782 334.1634,208.8875 334.1243,208.8919 333.6075,208.9498 333.5771,208.9532 324.1778,210.007 337.2816,192.8156 381.7673,182.95 382.3483,182.7129 382.3569,182.7094 408.0571,172.2223 419.783,167.4237 421.5279,192.9205 437.5753,206.2069 470.9111,233.8071 470.1217,233.7496 469.1064,234.3493 467.8663,235.7363 466.547,237.6688 465.4774,238.9787 465.4558,239.0051 464.9914,239.4357 464.5305,239.8628 463.2761,240.5817 461.6463,242.043 460.0881,243.7153 459.2621,244.9156 456.6508,244.0834 453.9293,243.1161 449.7752,241.9757 449.1403,241.8014 448.0537,241.5508 447.6553,241.4589 447.5023,241.4237 444.4821,240.7272 396.5199,229.6675" stroke="black" /><polygon fill="none" points="204.0336,276.9891 203.2247,276.0874 203.0162,275.4456 202.944,274.6062 204.0089,271.8027 205.6256,269.1498 206.6481,264.7189 206.8436,262.6007 205.539,256.3811 204.5483,254.996 203.4507,254.1516 202.5461,251.5833 202.56,249.07 203.2249,247.8753 203.3014,247.7378 203.2876,245.8695 202.816,245.4231 201.2968,244.8231 200.6176,244.2279 200.0195,243.2876 198.5055,241.7029 197.101,239.3285 195.846,238.3357 194.8799,238.1649 193.9414,238.3896 191.5336,239.6821 190.8919,239.6864 189.9976,239.0824 185.6982,235.571 183.762,233.634 182.7368,232.4344 182.1284,231.9317 179.935,230.9268 178.6462,230.0131 177.9726,229.2909 176.9166,227.8344 176.2798,227.2671 175.5554,227.2684 174.0779,227.269 215.2188,205.0033 231.1548,196.0709 242.9841,189.4404 271.0101,206.5861 272.5768,207.5446 277.203,210.3748 308.8316,229.7067 308.3919,230.471 262.1504,273.5096 247.2317,287.4015 242.6478,288.1868 241.2466,288.2287 240.6861,288.4461 239.9459,289.1155 239.2485,290.842 238.6655,290.9325 234.9062,289.3183 233.7935,289.271 232.848,289.4142 231.4017,289.9477 227.2389,292.1426 224.402,292.4224 221.2259,292.1581 217.3612,293.0739 215.8894,293.2136 215.3656,292.9635 215.1586,292.4206 215.462,290.0075 215.2564,289.0693 215.0536,285.3564 215.3629,283.943 215.6297,283.4508 216.3117,283.1469 217.7334,282.7724 218.7567,282.8777 219.7551,282.7845 220.5977,282.3954 220.7064,281.6564 220.3152,281.284 220.205,281.179 218.9255,280.9565 218.7689,280.7056 219.2293,278.2472 218.8628,277.801 218.1824,277.5991 217.472,277.9406 216.8907,278.5289 215.9485,277.9807 214.4803,277.4323 214.0593,277.5774 213.6626,278.0182 213.3972,278.7057 212.959,278.9252 212.3913,278.849 211.0876,278.4485 209.9064,278.441 208.2834,277.6926 207.551,276.95 207.1824,277.1944 206.4413,278.126 205.9483,278.36 204.4247,277.4246 204.0336,276.9891" stroke="black" /><polygon fill="none" points="329.9436,272.9535 366.9132,274.3317 366.9533,274.3332 370.1219,283.2659 373.9516,294.0624 361.5483,300.2042 361.3127,301.3237 360.0416,301.5571 359.1258,301.5505 357.8022,301.9259 357.1883,302.6381 356.7546,302.8996 356.036,304.0881 355.3739,304.8007 354.558,305.0831 353.8466,305.0304 353.2126,304.8133 352.3987,304.8571 351.5339,305.0429 351.2773,305.4711 351.5785,306.2836 351.3647,307.5696 351.2893,308.0232 350.4448,308.8497 349.3564,309.9149 349.0399,310.4931 348.9075,311.5184 348.5988,312.1846 348.2654,312.302 347.932,312.4194 346.9202,312.3666 346.4653,311.9822 346.3164,311.7623 345.8332,311.049 345.8874,310.5243 345.5861,309.7112 344.8774,309.3262 343.9118,309.1299 343.1668,310.772 343.1633,311.4105 343.1597,312.0134 343.512,312.9208 343.7549,314.9742 344.6839,317.1028 344.9256,317.8841 344.9806,318.0619 343.2974,319.6234 342.6066,320.7896 342.3978,321.7431 342.117,322.0044 341.8361,322.2657 341.7254,324.0291 341.3376,324.958 340.4207,325.4778 337.7731,326.3219 335.7164,325.7627 335.4115,325.8485 333.8923,326.2758 332.8624,326.9885 331.0466,329.4841 329.8228,330.049 329.4389,330.5475 329.2835,331.1206 329.3306,331.7885 329.1223,332.8853 329.1718,333.1 329.2214,333.3146 330.4877,334.0373 331.4217,335.4497 332.2683,338.6515 332.3901,339.4861 333.2414,340.5298 333.6022,340.972 334.314,341.3096 334.4612,342.1212 334.1773,342.8593 334.0706,343.7658 333.456,344.8598 332.7413,345.0947 332.5887,345.2135 332.4361,345.3322 332.8649,346.0258 332.1466,347.1671 331.9906,347.8345 332.4968,348.2177 333.1029,349.033 333.2244,349.7256 332.4734,350.3755 332.7116,350.8679 332.6583,351.3439 332.3016,351.7245 333.0065,352.8254 333.3309,353.9013 332.057,354.5141 331.8614,355.3426 331.6405,356.2773 330.8495,357.1082 329.6751,357.9136 329.0107,358.5774 328.2447,359.0503 327.9628,359.55 327.4518,360.0239 326.537,360.1624 325.4665,360.4912 323.6678,361.4061 323.8485,362.1246 324.142,362.4044 326.4282,363.7337 327.1625,364.5008 327.6373,365.788 326.509,369.2517 325.9862,370.2879 325.6459,371.6393 325.6404,372.7494 325.9291,373.862 325.9566,375.8379 325.36,376.6676 324.5322,379.3021 323.7481,380.8575 322.4073,382.5845 322.0298,383.9006 321.4626,386.6386 320.8663,387.3291 320.7147,387.9527 318.9739,389.3692 317.708,390.3993 314.6597,393.4349 311.2803,396.0889 310.6938,396.8505 310.4303,397.1928 310.1636,397.5391 308.271,398.8826 305.4523,400.6016 306.29,402.9309 303.9182,403.8883 303.242,405.6196 301.9385,407.5207 300.2271,409.523 298.6659,411.1104 298.631,411.1382 298.4069,411.3169 298.0105,411.633 297.6141,411.949 296.5489,412.7985 293.7297,414.5872 291.1989,415.8154 288.6577,415.2951 287.5411,414.8686 286.4793,414.8098 285.6112,414.9886 283.8722,415.767 281.4661,416.0672 279.3673,416.1873 277.9164,416.1598 271.6878,389.698 267.342,371.209 262.8721,352.1784 251.7696,304.8379 247.6691,287.3257 247.2317,287.4015 262.1504,273.5096 308.3919,230.471 306.7242,233.3698 309.9715,265.8803 318.0257,272.5092 329.9436,272.9535" stroke="black" /></svg>