<?xml version="1.0" encoding="utf-8" ?>
<svg baseProfile="tiny" height="500" version="1.2" width="459.1128" xmlns="http://www.w3.org/2000/svg" xmlns:ev="http://www.w3.org/2001/xml-events" xmlns:xlink="http://www.w3.org/1999/xlink"><defs /><polygon fill="none" points="376.7271,91.342 375.4899,93.1603 375.0104,93.3885 374.4771,93.8117 374.3725,93.8487 373.9476,93.9992 373.253,94.034 372.5483,94.0693 371.6207,93.9815 370.7624,93.6637 370.01,92.8863 368.9695,92.4724 367.872,91.3613 367.2071,91.197 366.6785,90.877 365.8802,90.8101 365.0074,89.7598 364.5544,89.5867 364.1902,89.4475 364.292,88.9474 364.4266,88.2865 364.1264,87.6831 363.9099,87.5224 363.908,87.521 363.6896,87.3589 361.3996,86.173 360.7796,85.6013 360.5416,85.2251 360.3321,84.266 360.6325,82.6 361.2997,80.8636 361.2999,80.3674 361.2999,80.1895 360.6416,79.0735 360.0385,78.3838 360.0288,77.6317 359.8014,77.2776 358.1445,76.0091 357.5294,75.7479 356.8738,75.7336 357.048,75.2823 357.5328,74.0267 357.652,73.718 357.6069,72.0387 358.2424,71.2164 360.1173,69.8852 360.3011,69.6619 360.1864,69.1909 360.0054,69.0959 359.0716,69.2127 358.9799,69.2242 356.5077,70.3448 355.8124,70.3426 355.8025,70.3426 355.5358,70.3417 354.8924,70.0527 354.5879,69.6392 354.2834,69.2257 353.9477,68.9603 351.9964,68.7468 351.7808,68.7684 351.4509,68.9834 350.6912,68.7856 350.0627,68.4927 348.9757,67.7583 348.5895,67.4974 347.8886,67.0239 346.5837,65.9285 346.375,65.9261 345.6691,66.5634 344.5894,68.039 343.9592,68.6997 343.163,69.2185 342.5544,69.4074 341.9033,69.4552 340.5057,69.0487 339.5287,68.4138 339.4534,68.3654 337.6704,66.2008 337.396,65.8677 335.9463,64.6022 335.8506,64.5186 333.474,62.1074 332.3912,61.3297 329.2489,59.5943 328.4437,59.1496 327.2493,58.2221 326.6342,57.5425 326.2551,56.2273 326.1347,55.8098 325.2939,52.8932 325.2881,52.8359 325.2043,51.9952 325.2746,51.0127 325.32,50.8981 325.4699,50.5198 325.5821,50.2365 325.9476,49.3137 327.7637,46.3223 328.0498,45.1031 328.9908,44.9015 329.4267,44.6409 329.8955,43.5736 330.2974,43.1555 333.0996,43.1868 333.6603,43.085 333.8467,42.9863 334.0331,42.8876 335.5832,41.3767 335.7323,41.2314 337.4314,39.5751 339.8971,37.5681 341.3208,36.7733 341.4731,36.6883 343.2603,36.2321 344.0344,35.8488 344.47,35.4087 344.9275,34.5627 344.9718,34.4807 345.0053,34.2997 345.0306,34.1625 345.4026,32.152 345.7482,31.1354 346.1053,30.6729 346.8414,29.7195 347.5139,29.4848 348.5413,29.5285 348.82,29.5997 349.7431,30.2459 350.2729,30.4176 350.8027,30.5892 351.9682,30.5149 352.9652,29.987 354.1351,28.5686 355.5652,27.1301 355.9046,26.7887 356.7137,25.9747 357.915,24.928 359.1286,23.5678 360.7987,22.4235 363.148,20.0324 364.1159,19.1994 364.5825,18.5332 365.2008,16.9076 366.0922,15.4256 366.9387,14.3024 367.6443,13.5749 368.7818,12.6911 369.6241,12.2336 371.5137,11.8049 372.1852,11.554 373.0996,10.8535 373.3804,10.575 373.5818,10.3752 374.4582,9.5061 375.687,8.6762 376.1151,8.2936 376.1972,8.2203 376.5387,7.9151 377.0508,7.2727 377.4999,6.4064 377.5696,6.272 377.58,6.2521 378.2915,3.8214 379.2363,3.7387 383.5364,0.0 390.4607,7.5283 393.6609,9.1381 397.004,7.2229 402.6995,7.2677 404.4976,6.6106 407.7117,3.1983 410.5941,3.3034 415.6155,4.7954 420.3392,7.0613 424.1851,8.9061 425.8175,9.9318 426.3709,10.2795 426.8443,10.5769 427.2226,10.8146 428.6125,11.6879 428.6769,11.7284 428.7362,11.7656 429.3412,12.1458 427.5802,14.89 428.9109,19.2719 430.496,21.1198 430.5595,21.1937 431.9814,20.057 435.9959,18.4813 437.5857,16.7926 439.9235,14.3093 443.3153,13.5274 443.7076,13.5223 451.923,13.4201 453.5222,14.9173 459.1128,23.6041 458.4859,25.9848 456.3867,27.7385 455.8274,29.3819 456.6894,33.1744 457.1053,39.2436 457.8494,40.8411 455.7252,40.7011 454.7518,40.8199 453.2788,41.5915 451.225,42.3941 448.8833,44.0601 447.5567,45.3893 446.6901,46.0428 446.3712,47.5881 446.1635,49.4465 445.7709,50.2073 444.9358,50.3186 443.0908,50.0882 441.9355,50.0724 441.1762,50.1652 440.4931,50.462 440.2565,51.263 440.028,53.4953 438.9749,56.0782 438.8969,56.9052 439.6511,57.9746 440.5065,58.7169 440.9775,58.9393 442.7321,58.8309 441.9488,59.7139 441.037,61.3283 440.2306,62.0844 439.1365,62.6032 438.5353,62.0599 435.1411,60.0591 434.6298,60.0191 434.1669,60.2273 433.2966,60.6198 432.459,61.4041 428.2373,61.3932 424.9309,61.7218 424.2205,62.1177 423.1093,63.5584 422.4016,64.0272 419.1079,64.1585 415.519,64.9127 412.3136,64.8238 411.5507,64.9371 412.0877,65.8048 413.0873,66.9137 413.5522,67.1311 413.9062,67.6707 414.5153,68.0567 414.8346,68.4495 415.3957,68.8323 415.7965,69.4622 415.8267,69.678 415.6482,69.9344 414.9097,70.395 414.4863,71.2345 414.3767,71.691 414.305,72.2452 414.2334,72.7994 414.3048,73.8066 414.2271,74.51 414.4048,74.9759 414.5824,75.4418 414.674,76.0869 414.8045,76.2831 415.3951,76.6382 415.9857,76.9934 416.2144,77.4559 416.4053,78.2566 417.3872,78.9244 417.5388,79.2529 417.6366,80.533 417.9811,81.2428 418.1544,82.6495 418.4055,83.182 419.021,83.9031 419.238,84.4285 419.6654,84.9238 420.5218,85.0534 421.2456,85.4696 422.0418,86.5393 422.0238,86.9421 422.1547,87.2113 422.1341,87.3058 422.0051,87.8976 422.2155,88.1706 422.3181,89.5827 422.0394,89.8169 421.5347,89.9013 421.3783,90.2019 421.4168,90.485 421.7516,90.9029 421.747,91.3611 421.372,91.9082 420.7615,92.4181 420.7338,92.4414 420.5701,92.578 420.0166,92.8603 419.7466,92.9984 419.7265,93.5142 419.307,93.8172 419.3821,94.6523 419.2983,94.8722 418.3962,95.4778 417.823,96.392 417.4144,96.6396 417.282,96.6597 416.5833,96.7658 415.5025,96.3648 414.8115,95.9321 414.5511,95.8773 413.795,96.2075 413.4655,96.1904 413.1915,96.0363 413.011,95.7554 413.1847,94.8229 412.9724,94.2758 412.5751,93.7339 412.3902,93.6532 412.1348,93.7584 411.949,93.8357 411.3338,93.7735 411.2194,94.4205 410.9934,94.792 410.423,95.0868 410.04,95.7235 409.735,95.9256 409.3905,95.9983 407.8773,96.0965 406.2509,95.929 405.2431,95.673 404.2623,95.2889 404.0382,95.2547 402.8101,95.0671 400.6108,95.0827 399.0424,95.2811 398.7737,94.6807 397.6946,93.5485 397.5699,93.1135 397.6546,91.9959 397.7534,91.6606 398.0442,90.6742 398.0123,90.3608 398.0041,90.281 397.9214,89.4693 397.2505,90.3893 397.1983,90.4609 396.623,91.2497 396.1204,91.6953 395.9845,91.8158 394.9843,92.7026 393.3778,93.7563 389.579,95.1971 389.2605,95.0107 388.4831,94.5558 387.4054,94.2771 386.9661,93.8843 386.4719,93.6435 385.5093,91.5051 384.6024,90.6918 383.8886,89.6773 383.7227,89.5695 383.3043,89.2976 382.7951,89.2101 382.632,89.2181 381.7363,89.2626 380.6187,90.0241 379.4346,90.5005 379.0388,90.8787 378.9655,91.1658 377.1869,90.7438 376.7271,91.342" stroke="black" /><polygon fill="none" points="177.8706,498.5063 177.8526,498.5053 177.7253,498.4982 177.4317,498.4974 177.133,498.4981 177.0008,498.38 176.9671,497.8998 177.2197,497.1991 177.298,496.4966 177.2013,496.0816 176.7884,495.8518 174.9966,495.7658 174.6552,495.6059 174.012,494.4456 173.5889,494.0883 172.2144,493.7211 171.5612,493.2978 171.2287,492.5568 171.4137,491.7936 174.7966,488.6013 174.8401,488.1208 174.431,487.8295 172.7793,487.2996 172.338,486.7538 171.8981,483.4325 171.1501,482.7844 170.6011,482.5855 169.9815,482.708 168.1416,483.7403 167.6549,483.7686 166.9026,483.2809 166.2544,482.666 165.5696,482.3054 163.8857,481.8714 163.6513,481.5485 164.0379,480.7526 165.0125,480.2539 165.7076,479.7495 166.0234,479.2729 166.1028,478.6983 166.0417,477.9419 165.7708,477.5239 164.3582,477.3165 162.1487,477.675 161.5949,477.6052 160.6649,477.7546 159.9368,478.0335 159.0303,478.7593 157.5206,480.7574 157.0512,481.1355 156.4261,481.3518 155.9462,481.3765 155.6001,481.1491 155.6412,480.7999 155.8546,480.4171 156.9967,480.0153 156.8013,479.2143 155.3332,478.0447 154.9958,477.5619 154.5506,477.2701 153.9948,477.295 153.235,477.6378 151.6711,478.6113 151.1823,479.086 149.1673,482.8391 148.7477,483.1214 147.9927,482.9811 147.3758,482.6894 146.2375,482.6115 145.7249,482.414 145.5222,482.0274 145.9887,480.7536 146.0646,480.1781 145.8942,479.8255 145.4195,479.5952 144.8635,479.7492 144.3384,480.2233 143.5639,481.527 142.8513,483.4054 142.9879,485.8372 142.8141,486.2181 141.1472,486.9671 140.5644,487.3664 140.0697,488.1952 138.6878,488.5927 137.0792,490.2047 136.5223,490.519 135.9034,490.5446 135.3526,490.3768 135.2931,489.7364 135.1587,489.4477 134.713,489.2806 133.9871,489.3357 132.4019,489.2229 132.3059,488.7755 132.3559,487.7527 132.1144,487.5592 131.422,487.7419 130.5336,488.6592 129.668,488.9679 127.1788,489.387 126.4863,489.6998 125.9291,490.143 125.4789,490.2664 123.139,489.8851 122.0694,489.9352 119.8669,489.6563 118.1164,488.9313 117.1865,488.7954 116.704,488.8837 116.3551,489.2004 116.0485,489.5168 115.6929,489.5922 115.1432,489.4485 114.3241,488.8354 113.8445,488.5093 114.2266,487.8406 114.4757,487.1143 114.9568,486.7131 115.3484,486.2074 115.39,485.7334 115.0203,483.2367 114.5255,482.0253 114.3904,481.2098 114.338,478.1956 113.7551,476.7289 113.7547,475.3879 113.612,475.0287 112.286,473.1565 112.0317,472.6291 111.862,471.6247 111.1658,470.3771 110.9273,469.0854 110.3572,467.9043 110.1302,467.096 110.1695,466.9114 111.1347,465.9876 111.8772,465.0725 112.1886,464.8866 112.7602,464.8965 113.7156,464.7194 114.3915,464.8473 114.5999,464.6788 114.6292,460.8609 114.7624,459.1299 114.9327,458.3039 115.1981,457.7114 116.7154,455.2959 117.1306,454.3966 117.4588,453.3313 118.354,447.8583 119.0648,445.5198 120.2963,443.9119 123.0536,441.9873 123.6508,441.3304 123.8055,440.5643 123.7118,439.6469 122.9401,438.4296 122.0102,437.9098 120.9698,437.4885 118.0063,436.824 115.622,435.9584 116.0365,408.8073 116.0451,408.2595 115.9108,407.8138 114.2547,406.2219 107.2873,400.8534 105.3238,399.5848 105.1278,399.2762 105.0165,398.6886 105.3841,395.7009 105.3686,394.9359 104.8483,393.4943 103.6275,392.4077 101.383,391.6785 100.7175,391.364 99.454,390.3287 98.7261,389.29 98.6386,388.2432 98.8652,386.9737 98.7206,382.8946 98.8007,381.636 100.3291,377.0039 100.206,376.6136 97.8406,376.1123 97.3222,375.7966 94.456,374.8691 93.6146,374.671 90.2588,374.3363 89.4746,374.07 88.7304,373.7439 87.2981,372.7138 86.7693,372.02 86.4657,371.2595 86.3006,370.846 85.9876,370.0597 86.0414,369.4347 88.1905,363.7426 88.0147,361.9266 87.9879,361.6491 87.8495,361.3466 87.5345,361.0799 86.3063,360.3343 85.7371,359.7821 85.6411,359.3744 85.8447,358.4579 85.8471,358.4469 85.6382,357.6184 84.4446,355.4334 84.1355,354.6615 84.0984,354.569 83.1712,352.7012 82.8004,351.6777 82.1305,350.446 80.9462,349.2424 79.5999,348.8924 79.466,348.7978 78.5469,348.1486 77.7729,347.1118 77.6214,346.5371 77.272,345.2108 77.2695,345.2015 76.974,344.5242 74.9044,341.624 74.6591,341.4187 73.6674,341.0411 73.311,340.8074 71.4122,338.8546 70.785,337.9478 70.2782,337.5154 69.9682,337.4119 69.6764,337.4567 69.673,337.4572 68.8979,338.0798 68.1245,338.3765 66.5348,338.7206 65.5017,339.0143 64.6296,339.2266 63.6306,339.2148 62.7619,339.1768 61.6084,339.5062 60.9864,338.9613 60.1383,338.1449 58.3596,337.2794 57.7907,336.7292 57.0673,335.5042 57.3194,333.8758 57.6382,332.2447 57.9368,331.7913 58.4469,331.0621 58.5337,329.8304 59.4025,328.3947 59.1551,326.7604 59.8858,325.9256 60.0979,325.4813 60.7702,324.9704 61.3085,324.2808 61.4332,323.1773 61.5546,322.931 61.5482,322.847 61.4763,321.8955 61.788,321.3612 62.1717,320.1881 62.8766,319.4729 63.1428,317.5898 63.5132,316.9271 63.5331,316.2992 63.9053,314.5469 64.0941,313.9408 64.3633,313.0769 64.188,312.5555 63.9099,312.2108 63.8392,311.4772 63.2901,310.7229 62.6401,308.6985 62.6344,308.4095 62.9091,307.7671 62.8623,306.5066 62.9852,305.9537 62.6817,305.4778 62.254,305.4203 61.7581,304.8809 61.3762,304.7386 61.0635,304.7553 60.4338,304.7889 59.7181,305.2733 59.2221,305.2489 58.7889,304.8368 58.7932,304.2792 59.2065,303.2737 58.616,302.6272 57.6947,302.7925 57.4699,302.479 57.1921,302.2953 56.3142,302.2108 56.1917,301.6718 55.0913,300.3334 53.633,299.6025 52.5852,299.5252 51.9107,299.9066 49.3133,299.9315 48.8498,300.2226 48.8266,300.9932 49.4352,301.2398 48.9424,301.8754 48.3694,302.4785 48.4291,303.9437 48.3524,304.4433 47.5607,304.6286 46.7718,304.61 46.8128,303.0811 46.2976,302.7692 45.2995,303.4433 44.3172,303.6465 43.3234,303.4247 43.0103,303.5645 43.0884,304.4274 42.7657,304.646 42.2594,304.4176 41.314,304.1561 39.8734,302.8692 38.1754,301.4123 37.6145,300.071 36.8675,298.4679 36.2436,298.8034 35.2728,299.6631 34.1304,299.9276 33.002,299.9049 31.9038,299.864 31.5635,300.6386 30.8942,300.6398 30.0615,300.908 29.3662,301.2286 28.5216,301.0194 26.7873,300.7485 26.4425,301.1244 26.9185,302.094 26.8239,302.4358 26.6925,303.2684 26.7073,305.0853 26.467,306.5654 26.5151,307.4187 26.5227,308.3086 25.9891,308.8038 25.5669,309.5207 24.9813,310.6908 24.6141,311.9563 25.0559,313.9543 25.7464,315.3065 25.6135,316.2411 25.3592,316.5452 24.9001,316.5384 24.2597,316.6142 23.5863,316.912 22.7271,316.9203 22.0288,316.8471 21.0866,316.3538 20.7639,315.8587 21.2272,314.8632 21.3558,314.2345 19.972,311.7432 19.3114,311.1142 18.6989,309.9112 17.7662,308.7415 17.0991,307.8622 16.4565,307.3818 16.3409,306.8939 15.7656,306.0666 14.9015,305.7133 14.2884,305.2703 13.9,304.4686 13.5322,304.3344 12.847,304.0481 12.456,303.4317 12.1625,302.9925 12.0272,301.9528 11.8269,301.2738 11.4011,301.0091 10.4683,301.2852 9.5309,301.172 8.0136,301.0981 6.9579,300.8815 5.5922,299.966 5.0876,299.6263 4.9553,299.0871 5.6176,296.7223 5.162,295.7343 4.7326,295.0154 4.1443,294.2298 3.6723,294.4095 3.2884,294.72 2.8166,294.8904 2.2752,295.0322 1.8008,295.3879 0.8835,295.177 0.2332,294.8947 0.0085,294.6088 0.0,294.3768 0.7035,293.4715 0.3575,291.6916 0.8321,290.8512 1.5068,290.1558 2.2949,288.9908 2.7471,288.6655 2.935,288.3518 3.0361,287.8913 2.9229,286.0775 3.2982,285.7093 3.579,285.6131 5.3694,285.8346 5.5212,285.7225 5.5804,284.9036 5.7864,284.5773 6.6651,284.5591 6.8223,284.4189 7.2398,283.3755 7.4806,283.1348 7.9153,282.9683 8.3175,282.9421 8.6858,283.0926 10.4908,284.276 10.8777,284.3365 11.5282,284.2165 11.7172,283.9898 11.8983,283.0903 12.8329,282.0769 13.0813,281.9627 13.3587,281.9796 13.6819,282.1407 14.3284,282.2349 15.2332,281.6154 15.9685,280.8776 18.159,280.0596 20.6004,278.7681 21.2093,278.3165 22.2884,277.0752 22.6146,276.9092 23.913,276.7962 24.7833,276.4599 25.2674,276.1214 26.3489,274.9725 27.1607,274.4958 27.7451,273.4128 28.959,270.4243 29.2933,270.0536 30.7238,269.383 31.0397,269.0862 31.198,268.8319 31.3492,267.9433 32.2728,267.0347 33.8898,265.0545 34.3263,264.7438 34.8568,264.5355 36.187,264.321 36.7845,264.4151 39.2635,265.6191 39.9939,265.6591 40.2976,265.6757 41.0396,265.4548 41.167,265.2115 41.512,262.7926 41.9955,261.2247 41.8644,259.5473 41.5222,257.4856 40.9016,256.446 40.5661,255.167 40.5921,250.9542 40.7792,248.6164 40.96,247.8029 41.6013,246.3335 41.6684,245.6465 42.9004,243.7575 43.6791,243.3231 44.8706,243.02 45.278,242.8246 46.2324,241.9308 46.5337,241.2614 45.9841,240.7371 45.2606,239.3515 45.304,238.5215 44.9088,237.871 44.919,237.2995 44.6926,236.8685 44.8088,236.4547 44.6901,236.0071 44.8181,235.5498 44.6571,234.918 44.8172,234.5173 44.5994,233.5966 44.2501,233.0882 43.5944,232.7224 43.2828,232.7178 42.1971,233.0797 41.7964,232.9306 41.5554,232.5551 41.5627,232.0407 41.365,231.758 41.1024,231.6405 40.3917,231.6319 39.7763,230.5093 40.1004,230.5972 40.3619,230.5126 40.5511,230.315 40.6768,229.9717 40.6711,229.3407 41.4212,228.6451 41.378,227.2672 41.6497,226.8143 43.1424,226.1151 43.3871,225.1192 43.528,224.9334 44.0856,224.8701 44.4672,225.1469 44.7928,225.1508 45.074,224.9954 45.3554,224.641 46.4414,224.3093 47.2878,223.5159 47.4478,223.1142 47.5045,222.2018 47.8165,222.0795 48.4461,222.2582 48.6471,222.13 48.8428,221.517 48.7911,220.7868 49.5112,220.1453 49.5958,219.5479 49.7538,219.2882 50.2056,219.05 50.5899,219.1524 52.1551,220.0622 52.9157,220.0437 53.8837,219.4375 54.8128,218.0124 55.4697,217.7479 56.3872,218.1732 56.8055,218.1225 57.3736,218.3738 57.8521,218.4485 58.8622,219.1084 59.5587,219.1594 61.6933,217.0305 61.9487,216.3556 62.4457,216.0906 62.6399,215.7637 62.9753,214.652 63.3849,214.1381 64.5025,213.18 65.9832,212.3641 66.9997,211.4126 68.6639,210.4723 69.6676,209.5203 71.1281,208.8794 71.4735,208.4792 72.2588,206.9356 72.9468,206.4417 74.6083,205.9006 75.4254,204.9504 75.7438,204.2534 76.1526,203.6825 76.9237,203.1721 78.3527,202.8014 79.719,202.2571 80.8119,201.5657 81.9902,200.094 82.2356,199.0916 82.1734,197.8705 81.4795,195.5492 80.9219,194.6661 79.9608,193.5783 76.5833,191.9594 75.7431,191.6975 75.2064,191.376 74.1341,190.1425 73.8418,188.8207 73.924,187.2093 74.4472,185.2655 74.5172,184.6354 74.2169,184.0593 73.6689,183.3597 72.3865,182.2558 71.3443,181.7834 69.4862,181.9912 70.1191,180.7943 71.0663,179.5416 72.3758,178.4653 73.4322,178.0176 75.3586,177.824 76.4225,179.0998 77.2494,179.7151 78.156,180.0665 79.3904,180.3551 81.1647,180.4897 81.7684,180.3953 82.9084,179.9632 83.9992,179.158 84.1885,179.0183 84.6156,178.4187 85.0321,177.2313 85.3465,176.7754 87.2989,175.2169 88.783,174.8126 92.8979,173.1186 94.6188,172.9425 97.7796,173.6233 99.8486,173.8211 100.7266,173.8016 102.308,172.9771 102.6426,172.8027 105.2685,171.7584 105.825,171.6767 108.8081,171.6522 111.0667,171.9522 112.6878,171.9428 114.6485,171.0881 114.9596,171.1517 116.4689,172.4452 116.9149,172.5942 117.5024,172.6144 118.4657,172.3534 119.3728,171.8841 121.2305,170.4833 122.2323,169.4592 123.5531,167.8693 125.1295,166.5519 127.288,159.6856 128.1502,158.4461 129.9229,156.6254 130.4578,155.8155 131.0553,154.4394 131.56,153.6557 131.6882,153.5283 133.0009,152.2238 134.2556,150.6422 134.7243,149.2105 134.9785,147.2862 135.8214,145.5432 135.9238,144.7558 135.7887,142.3379 135.944,141.0449 136.1968,140.6154 136.728,140.2068 137.5048,139.9271 139.4534,139.7654 141.0377,139.2337 143.1172,137.8036 145.3665,135.7196 145.6344,135.0894 145.5987,134.2694 145.8387,132.5221 146.2013,131.8521 146.6074,131.5266 147.4931,131.2334 148.1729,131.2849 148.7723,131.4927 149.5227,132.0024 149.9347,132.439 150.3855,132.6813 150.4803,132.733 150.7021,132.8522 151.0838,133.3557 151.4644,133.5904 151.8121,133.7151 151.8275,133.7206 153.563,134.3423 155.075,134.5482 156.0972,134.2587 157.0177,133.65 159.9128,130.8113 161.1093,129.015 161.1629,128.1437 161.3195,127.8604 161.086,126.8912 162.7923,126.6464 163.5618,127.0778 164.1541,128.288 165.0578,128.5865 165.5297,129.2107 166.9499,130.0034 166.9879,130.4631 166.8208,131.0802 167.1595,131.2942 167.4229,131.7868 167.5782,131.8132 167.8637,131.6338 168.1238,131.2136 168.3224,131.3338 168.3893,131.5211 168.4331,132.0934 168.8127,132.0195 169.0738,131.6842 169.2587,131.6555 169.4256,131.7266 169.5933,132.0138 170.808,132.1736 171.1374,132.0988 171.7546,131.4863 172.006,131.503 172.1449,131.9517 172.6665,131.7865 173.7211,132.4955 174.5426,132.4255 175.1616,132.6958 175.5134,132.7145 175.9909,133.0868 176.2169,133.0617 176.9766,132.545 177.5237,132.6432 177.8277,133.2641 178.3823,133.7512 178.4716,134.5451 178.9831,135.589 178.6102,135.9475 178.5063,136.235 177.9634,136.6624 177.1834,137.8392 177.1621,138.3681 177.5195,139.1855 177.6382,140.8319 177.5299,141.8357 177.4693,142.0588 176.9804,142.4742 176.6047,143.1791 175.5866,144.1289 175.3461,145.3246 175.3908,146.1807 175.2551,146.9739 175.4864,147.6077 175.7117,147.6363 176.0244,147.5084 176.4051,147.7226 176.6958,149.2914 177.3655,150.1046 180.6439,151.6982 181.0085,152.0056 181.6291,153.1962 182.0199,153.5809 183.1101,153.7645 183.4065,153.9255 184.021,154.5303 184.6666,154.6165 185.0446,154.9115 185.7265,154.866 186.0827,154.634 186.4214,153.7575 186.9808,153.0637 187.886,152.52 188.6379,152.4553 189.1737,152.6023 190.2568,153.2733 192.5574,153.9554 196.164,155.6007 196.8871,155.7404 197.4873,155.9835 199.5134,157.2294 200.4614,157.4365 201.4062,157.4469 202.7339,157.7789 203.5832,157.8807 204.1358,157.8592 205.02,157.382 205.2233,157.3911 206.2336,158.2943 206.5224,158.8663 207.2489,159.7144 208.1351,160.1199 210.1565,160.4982 210.8309,160.8863 211.1202,161.1787 212.1759,162.8346 212.0813,163.8066 213.0673,165.1785 213.3676,166.2339 214.2737,167.1276 214.7568,167.9339 215.2487,168.4657 216.8734,169.61 217.5923,170.4014 217.9797,171.4711 217.6288,173.0901 217.8113,173.212 219.211,173.4922 220.4669,173.9197 221.0845,174.3565 222.4293,176.1187 224.136,177.8873 231.8565,184.2845 233.1678,185.9147 235.0213,187.9658 235.62,188.8399 236.1701,190.0947 236.3114,191.2044 236.2219,191.5848 235.9938,191.7262 235.1408,191.8903 233.8654,191.9154 230.0188,191.2937 227.6974,190.7184 223.8498,189.1472 222.3787,187.8036 220.3145,186.3317 219.3091,185.8596 218.3348,185.756 216.2887,186.1554 215.9748,186.2845 215.3007,186.8556 212.7559,187.6181 211.3751,188.4972 210.5446,189.5538 209.8066,190.7309 209.3188,191.1216 208.3973,192.621 208.0768,192.9127 207.0543,193.2457 206.2539,194.145 205.4278,194.4659 204.0093,194.6972 202.9051,195.1402 201.8252,195.9122 201.2784,196.5131 200.0179,198.6426 198.7451,201.647 198.7302,201.9616 199.9931,203.9938 201.256,206.026 202.5672,208.8317 204.3717,211.7917 206.7615,214.6362 207.9414,215.5865 208.5218,215.7562 209.9702,215.6031 210.6083,215.7411 211.0513,215.9301 211.0998,215.9508 211.1654,215.9788 211.4802,216.1131 211.9742,216.3239 213.6811,216.5839 216.5319,217.0183 218.0482,217.4018 218.9645,217.9929 219.2275,218.4026 219.2935,218.8372 219.1169,219.4021 218.6691,219.9782 214.7529,222.6067 213.4749,223.9146 212.2184,226.5849 211.7285,228.7962 211.7174,229.559 211.9862,230.7211 215.4326,236.2792 225.6311,256.8614 226.1642,257.9373 226.6097,258.1173 226.8713,258.223 226.9163,258.2411 227.7468,258.4403 231.0115,258.3718 233.0236,259.1425 235.0077,259.4295 236.2642,259.9416 236.9465,260.0292 238.9218,260.7875 241.6358,262.235 242.4157,262.3494 244.0457,262.5886 244.9203,262.8481 246.0595,264.0289 246.2883,264.6928 246.0833,267.7589 246.1507,269.1407 246.4635,269.7395 246.6873,270.7272 246.6423,271.0002 246.4574,271.2311 245.8114,271.4559 245.516,271.7144 245.5166,272.8057 245.6572,273.7412 245.8913,274.2629 245.8991,276.8969 245.5864,278.4378 244.768,280.2961 244.6147,281.1234 245.1835,282.5891 245.585,283.0989 246.4281,283.6651 247.4981,284.0641 249.4112,285.0508 249.2749,286.1548 248.9775,286.9703 247.8787,287.8543 247.0563,288.7796 246.8687,289.202 246.6345,290.462 246.0785,291.286 245.4472,292.7122 244.6887,293.2379 244.2919,293.6988 244.1398,294.812 244.4779,295.5118 244.9217,295.9605 245.9608,296.3706 247.4604,297.9168 249.3225,298.5316 249.8815,298.4472 250.2291,298.5552 251.0604,299.0713 251.9663,299.1702 252.4061,299.4976 252.5763,299.5394 253.2062,299.3389 254.2371,299.5063 254.8358,299.6415 255.1393,299.93 255.3805,299.99 256.1677,302.136 257.2047,303.961 257.8592,305.1127 257.8737,305.1383 258.0649,305.4748 258.0241,306.3314 257.4889,306.5588 256.2789,306.4039 255.9008,306.5554 255.2516,307.0535 253.856,307.1155 253.2913,307.3152 253.0399,307.5234 253.0044,308.1303 253.1149,308.2882 253.2254,308.4461 253.2784,308.4578 253.6498,308.5398 254.0743,308.6335 254.3788,309.016 254.3763,309.1623 254.2931,309.3243 254.1045,309.6916 253.7225,310.2185 253.2555,310.7609 253.113,310.9789 253.0962,311.1477 253.0914,311.5621 253.0991,311.6444 253.1258,311.9322 253.1783,311.9903 253.2308,312.0484 253.3527,312.1834 253.9403,312.834 254.0153,313.3661 254.1546,313.5501 255.5748,314.2342 255.9976,314.4387 256.1432,314.9837 256.1621,315.6473 256.261,315.7655 256.3598,315.8837 257.2798,316.9838 257.6186,317.1109 257.9573,317.2381 258.1521,317.2464 258.3619,317.2553 258.5311,317.167 259.2983,316.0592 259.565,315.9385 260.6222,315.4006 261.0215,315.1974 261.2076,315.2971 261.3938,315.3967 261.7753,316.0228 261.8694,316.1773 262.1511,316.2968 263.3401,316.0774 263.9133,315.8622 264.4213,315.5188 264.8694,315.4329 264.9663,315.4984 264.9959,317.5905 265.0035,318.1288 265.1894,318.7268 265.6205,319.0438 266.1336,319.2141 266.4105,319.5059 266.4208,319.7645 265.9541,320.5555 265.5929,320.9385 264.8477,321.3636 264.8412,322.6875 263.8185,323.1176 263.6181,323.3869 263.532,323.852 263.8354,324.9038 264.2789,325.4536 265.3276,326.2813 265.832,326.8122 266.709,329.1261 266.8193,330.4737 267.1421,331.4525 267.1425,332.4901 266.8334,332.7998 266.5379,332.925 265.6617,332.6442 265.5888,332.9421 265.9218,333.2991 266.1111,333.5023 267.1885,333.6169 268.0307,334.0691 269.2739,333.9891 269.9551,334.0485 270.4697,334.4424 270.8293,334.5777 271.799,334.094 272.1638,334.1505 273.1053,334.5616 273.5533,334.4499 274.1199,333.849 275.745,333.5538 275.9661,333.7384 275.8355,334.0475 276.1512,334.6073 275.8241,335.0598 275.7941,335.1977 275.9603,335.36 276.5189,335.353 277.0093,334.9415 277.3742,334.898 277.7085,334.8582 279.5627,336.4513 279.5289,336.8905 279.0223,337.1726 278.9488,337.3909 279.2792,337.7437 279.3057,337.9779 280.0009,338.256 280.0337,338.8943 280.3386,339.1406 280.4036,339.5054 280.2769,340.696 279.9105,341.1873 279.8851,341.2213 279.4513,341.8032 279.5623,343.14 279.4032,343.658 278.7841,343.9753 278.6401,344.557 278.4255,344.8657 278.2121,344.9141 277.9678,344.7316 277.7165,344.7677 277.474,345.0131 277.3969,345.58 277.5618,345.8284 278.0079,345.8985 279.0605,345.7206 279.4607,345.653 280.1306,345.7635 280.5942,345.5489 280.7362,345.279 280.5781,344.5261 280.7319,344.346 280.9447,344.3094 282.1967,344.874 282.424,344.824 282.5355,344.6834 282.5559,344.103 282.7137,343.9109 282.9073,343.9752 282.9279,344.4688 283.1262,344.5996 283.2638,344.5751 283.2945,344.3189 283.5762,344.0868 283.9496,344.4139 284.771,344.5411 285.7519,345.405 286.3231,345.5662 286.7746,346.023 287.5115,346.382 287.5772,346.694 287.4126,347.6767 287.5224,348.0276 288.1987,348.6065 288.4856,349.0611 288.4862,350.0331 288.6634,350.4239 289.9943,351.6106 290.9984,351.5951 291.3489,351.7544 291.9669,352.2908 292.5394,352.3239 293.2956,352.125 293.6162,352.1835 294.0667,352.9038 293.4656,355.3062 293.5716,355.6949 294.2496,356.3908 294.8454,356.6422 295.0807,356.8508 295.1749,357.0852 295.1413,357.591 295.32,357.8549 295.8416,357.9849 296.0606,358.348 296.3657,358.5309 296.53,358.8965 297.6641,359.6094 297.7838,360.0361 298.1577,360.1965 298.1261,360.6312 298.3855,361.1151 299.2755,361.4111 300.1743,362.0658 300.7621,361.9928 301.0236,362.2551 300.9597,362.7838 300.791,362.9893 300.1477,363.0745 300.2693,363.3614 300.4641,363.4675 300.5572,363.7031 300.5002,363.882 299.9091,364.3293 298.9019,364.6159 298.6684,365.3781 298.1572,366.0325 297.1405,366.512 296.7627,367.5442 296.2144,368.0293 295.571,368.2435 295.2742,368.5 294.9188,369.0784 294.3123,369.5662 293.6554,369.5714 293.2674,369.4094 293.0827,369.6017 293.1018,370.2427 292.816,370.8997 292.3972,370.8833 291.9976,370.5037 291.6755,370.5925 291.4858,371.2591 291.5089,371.6903 292.1516,372.9029 292.4107,373.1642 292.7775,373.3227 293.2228,373.224 293.9664,372.6365 294.5416,372.434 295.8946,371.3897 296.4837,371.2522 297.1607,370.4666 297.4285,370.3673 297.887,370.4497 298.2883,370.7518 298.3814,371.4002 297.2263,373.2407 297.4703,373.7876 298.6358,374.4087 298.7154,374.6964 298.5572,375.0552 298.5796,375.5606 297.7351,376.0958 297.2812,376.6873 296.2029,376.9762 295.6785,377.6688 295.2558,377.9504 294.7186,378.0339 292.5863,377.9095 291.8005,378.1463 291.4165,378.7787 291.1839,379.4495 290.4835,379.9082 290.3631,380.3856 290.1374,380.7475 289.5725,381.1215 289.4007,381.3799 289.2525,382.1446 289.0963,382.3882 288.4793,382.4195 287.8967,382.3095 287.4464,382.5762 286.9305,383.6683 286.1433,383.988 285.8906,384.2177 285.7743,384.4886 285.7796,385.4603 283.776,387.7232 282.9455,388.2609 282.5544,388.3475 281.903,388.1718 280.9345,387.2406 280.4913,386.9651 280.0451,386.895 279.7666,386.9701 279.2291,387.3536 279.3168,388.2732 279.2411,388.6486 278.5721,389.0607 276.7159,389.1698 275.9109,389.8343 275.0116,390.1095 274.6175,390.5994 274.5139,391.0643 274.2725,391.4634 272.3107,393.1126 271.8667,394.4832 271.4407,395.01 270.6953,395.6761 269.2008,396.6568 267.4501,398.2609 267.4739,398.5974 268.5297,398.9559 268.6181,399.6056 267.9485,400.0306 267.8584,400.4852 267.2913,401.1249 267.2158,402.51 266.6211,403.3315 266.016,403.7622 265.6491,404.1724 265.4426,404.8978 265.7847,405.6629 267.137,406.6746 267.2965,407.4522 266.9183,408.394 266.9149,409.3802 267.3799,410.3923 268.4172,411.9967 267.4412,413.2216 265.9866,414.3844 262.6924,415.4242 261.1975,415.6124 259.5135,415.6087 259.4504,415.6086 259.3875,415.6086 256.1998,415.6026 254.3027,415.9575 252.5833,416.9945 251.5095,418.7518 250.9147,420.0787 249.8863,421.8134 248.4512,423.8257 247.8861,425.905 248.0572,427.8004 247.9648,431.4313 247.5543,433.038 245.2887,436.1202 243.995,437.4809 243.559,439.5963 243.3973,441.1401 243.1006,442.6062 242.9999,444.4387 243.3941,446.3337 243.4965,448.2537 243.3952,449.9277 243.2979,451.5346 242.1069,453.0488 242.6582,454.6474 242.8002,456.6527 240.8663,457.42 239.3999,457.494 236.015,458.143 234.456,458.9556 232.7522,460.0758 231.79,461.743 231.2608,463.2078 230.2937,465.0032 228.234,464.9255 226.7017,464.683 222.8363,464.4504 221.6122,462.9553 220.6825,461.2877 219.5128,459.718 217.5194,459.7866 214.5918,462.2953 212.7953,463.4303 211.2995,465.3904 211.1916,466.348 210.8193,467.2541 210.8587,468.6523 210.4898,470.5432 209.952,472.3568 209.4534,474.7073 208.5549,476.5242 206.1767,479.0468 205.7092,479.6991 205.4046,480.4064 205.245,481.1621 205.1958,482.4772 205.2648,483.0935 205.5636,483.9886 205.6968,485.417 205.0169,488.2478 204.8118,489.8162 204.8089,491.0777 204.9428,492.1222 204.9479,492.1624 205.1171,493.4825 205.1644,493.8509 204.6272,493.8978 203.7925,494.3677 201.3813,496.7359 198.215,499.2284 196.8266,499.7879 195.8929,500.0 194.5503,499.795 193.831,499.2737 193.3002,497.9901 193.0381,496.7729 192.7048,495.8427 192.2627,495.3261 191.7155,495.097 191.3504,495.0715 190.6122,495.0199 190.4926,494.963 189.9231,494.6918 189.3461,494.0781 189.3365,493.9012 189.3269,493.7243 189.2924,493.088 189.0578,492.5426 188.1824,492.2692 187.7648,492.3788 187.5937,492.4237 187.0011,493.1203 185.9178,494.0359 185.3277,494.3184 184.8032,494.8228 184.9745,495.0796 185.5561,495.4071 186.1681,495.9559 186.3532,496.2508 186.4752,496.4455 186.3844,496.8064 185.8611,497.3117 184.963,497.3991 184.0362,497.0998 183.3256,497.1289 181.5466,497.6159 179.675,498.3308 178.5764,498.5539 178.3911,498.5355 178.0945,498.5189 177.8706,498.5063" stroke="black" /><polygon fill="none" points="328.566,133.5081 328.5065,133.5119 327.1651,133.9103 326.1029,133.881 323.9715,133.3402 323.7827,133.2257 323.5523,133.0861 323.013,132.5439 322.327,131.6333 321.952,131.1342 321.518,130.9077 320.7916,130.8503 319.7963,130.7717 319.2339,130.5844 318.3959,129.6489 317.1709,128.2814 315.6329,127.3684 314.1994,127.1505 310.561,126.8949 309.0421,126.4723 307.9503,126.4991 307.9529,125.011 308.6076,123.5547 309.3708,122.4526 309.776,122.1149 310.9747,121.578 311.52,120.8942 311.9551,120.5499 312.2147,120.0608 312.1491,119.1746 311.575,117.9105 311.5975,117.4332 311.8659,116.7598 310.9591,115.6365 310.453,113.8726 310.1295,113.4872 309.2307,112.8339 308.3319,112.1806 307.9552,111.7364 307.2067,110.1909 305.089,108.2751 304.7707,107.8315 304.1891,107.4341 303.7024,106.2552 303.5625,105.4391 303.7676,104.8675 303.9259,103.5218 304.7157,101.3322 304.8688,100.9075 305.0404,98.8667 304.9832,98.2264 304.7458,96.9351 304.0314,94.601 303.0059,92.614 302.9264,92.4599 302.4675,91.2539 302.2582,89.8677 301.9203,87.6296 301.6709,86.8582 301.8574,85.7585 301.7658,85.4369 301.3734,85.2439 301.2155,85.3865 300.9898,85.988 300.6059,86.1547 299.7227,86.1108 299.0513,85.9529 298.574,85.9831 298.211,86.2586 297.9087,86.8216 297.412,87.3214 297.0225,87.3379 296.329,86.7392 295.969,86.6296 295.7352,86.7477 295.8902,87.3428 295.632,87.5512 294.0351,86.8577 293.022,85.7681 292.7194,85.686 292.5346,85.7836 291.8961,86.5994 290.6908,87.3634 290.1391,87.971 289.3432,89.2046 288.2143,90.0027 287.3052,90.0867 286.9726,89.9888 286.505,89.5627 285.8202,88.4012 285.0878,87.6182 284.713,87.448 283.9055,87.3156 282.9489,87.5167 281.8964,88.062 280.0833,89.2758 279.4688,89.554 277.5837,89.9797 274.3554,90.4111 272.5136,90.3091 269.8759,89.8752 269.0316,89.6411 268.3346,89.3285 267.0655,88.463 266.2948,87.4602 264.2296,82.9169 262.9889,81.7717 263.0419,81.3963 263.235,80.0296 263.7359,78.6996 263.948,77.2182 264.3254,76.6862 264.7987,76.3585 265.1429,75.9258 265.2459,75.4471 265.4426,75.177 265.7518,75.0308 266.061,74.8847 267.272,74.7603 267.8623,74.1983 268.2344,73.1021 269.1225,72.6214 269.6017,72.6482 270.2065,73.0478 270.702,73.5642 271.2511,73.6363 271.4127,73.5183 271.4718,73.0931 270.913,72.2613 271.0576,71.5785 271.3392,71.2626 271.834,71.078 272.6955,70.9758 273.5767,71.0066 274.458,71.0374 275.9613,70.6891 276.6931,70.625 277.6285,70.9753 278.7758,71.7204 279.6609,71.9117 280.425,71.6536 281.1891,71.3956 282.8989,71.0519 283.7973,70.6782 285.4215,69.2224 286.8745,68.386 287.8759,68.0441 291.7895,65.7078 292.1261,65.3292 292.187,65.0265 292.2479,64.7238 292.3311,62.8364 292.2464,61.9833 292.1113,61.7959 291.9762,61.6085 290.6807,60.9035 290.1016,60.4608 289.4822,59.6523 289.0124,58.7424 288.5169,57.0348 288.3708,56.8022 287.6317,55.6254 286.4686,54.2941 286.0194,53.6187 285.874,53.2027 285.9276,52.8724 286.1228,52.6181 286.6482,51.9336 289.5261,49.6376 289.6907,49.5063 290.6861,48.7122 291.3662,48.39 292.0704,48.0564 292.6305,47.9459 292.9397,47.885 294.4696,48.1558 295.2716,48.1433 296.5015,47.718 297.5432,46.9958 298.5666,46.6315 300.5189,46.165 300.8394,46.1677 301.118,46.3339 302.2937,47.0353 303.8061,48.5615 304.8188,49.2964 305.4796,49.6547 306.395,49.7811 306.4898,49.7663 307.2882,49.6418 309.471,49.0432 309.9887,48.9013 310.4701,48.7693 312.5963,47.1627 315.0206,45.7556 315.4241,45.675 315.9362,45.7325 316.4935,46.004 318.0611,46.9879 319.0319,48.0954 319.5995,48.4525 320.2636,48.5633 320.7162,48.4644 321.2817,48.0335 322.9342,45.9118 324.2021,45.0406 324.7439,44.8226 325.261,44.753 328.0498,45.1031 327.7637,46.3223 325.9476,49.3137 325.5821,50.2365 325.4699,50.5198 325.32,50.8981 325.2746,51.0127 325.2043,51.9952 325.2881,52.8359 325.2939,52.8932 326.1347,55.8098 326.2551,56.2273 326.6342,57.5425 327.2493,58.2221 328.4437,59.1496 329.2489,59.5943 332.3912,61.3297 333.474,62.1074 335.8506,64.5186 335.9463,64.6022 337.396,65.8677 337.6704,66.2008 339.4534,68.3654 339.5287,68.4138 340.5057,69.0487 341.9033,69.4552 342.5544,69.4074 343.163,69.2185 343.9592,68.6997 344.5894,68.039 345.6691,66.5634 346.375,65.9261 346.5837,65.9285 347.8886,67.0239 348.5895,67.4974 348.9757,67.7583 350.0627,68.4927 350.6912,68.7856 351.4509,68.9834 351.7808,68.7684 351.9964,68.7468 353.9477,68.9603 354.2834,69.2257 354.5879,69.6392 354.8924,70.0527 355.5358,70.3417 355.8025,70.3426 355.8124,70.3426 356.5077,70.3448 358.9799,69.2242 359.0716,69.2127 360.0054,69.0959 360.1864,69.1909 360.3011,69.6619 360.1173,69.8852 358.2424,71.2164 357.6069,72.0387 357.652,73.718 357.5328,74.0267 357.048,75.2823 356.8738,75.7336 357.5294,75.7479 358.1445,76.0091 359.8014,77.2776 360.0288,77.6317 360.0385,78.3838 360.6416,79.0735 361.2999,80.1895 361.2999,80.3674 361.2997,80.8636 360.6325,82.6 360.3321,84.266 360.5416,85.2251 360.7796,85.6013 361.3996,86.173 363.6896,87.3589 363.908,87.521 363.9099,87.5224 364.1264,87.6831 364.4266,88.2865 364.292,88.9474 364.1902,89.4475 364.5544,89.5867 365.0074,89.7598 365.8802,90.8101 366.6785,90.877 367.2071,91.197 367.872,91.3613 368.9695,92.4724 370.01,92.8863 370.7624,93.6637 371.6207,93.9815 372.5483,94.0693 373.253,94.034 373.9476,93.9992 374.3725,93.8487 374.4771,93.8117 375.0104,93.3885 375.4899,93.1603 376.7271,91.342 377.1869,90.7438 378.9655,91.1658 379.0388,90.8787 379.4346,90.5005 380.6187,90.0241 381.7363,89.2626 382.632,89.2181 382.7951,89.2101 383.3043,89.2976 383.7227,89.5695 383.8886,89.6773 384.6024,90.6918 385.5093,91.5051 386.4719,93.6435 386.9661,93.8843 387.4054,94.2771 388.4831,94.5558 389.2605,95.0107 389.579,95.1971 393.3778,93.7563 394.9843,92.7026 395.9845,91.8158 396.1204,91.6953 396.623,91.2497 397.1983,90.4609 397.2505,90.3893 397.9214,89.4693 398.0041,90.281 398.0123,90.3608 398.0442,90.6742 397.7534,91.6606 397.6546,91.9959 397.5699,93.1135 397.6946,93.5485 398.7737,94.6807 399.0424,95.2811 398.9807,96.2396 398.7609,97.0763 397.6769,98.7469 396.7296,99.6426 395.8498,100.2956 392.7766,102.1236 391.5742,103.2158 391.1803,103.9799 390.96,104.6962 390.5027,105.2761 389.166,106.5841 389.145,106.6137 388.7834,107.1218 388.7799,107.1353 388.764,107.1969 388.0257,110.0589 385.8474,113.9563 384.8418,114.8095 384.4027,116.427 384.3814,119.9293 384.4629,121.1909 384.7672,122.7401 384.6672,123.309 383.7563,124.8223 382.4547,125.8739 380.8427,126.9837 380.2699,127.7151 379.8208,128.8203 379.6533,129.5879 379.6445,130.3839 380.0216,131.288 380.1604,131.9653 380.5524,132.7784 380.8267,134.2236 381.161,134.632 381.2265,134.8225 381.2921,135.013 381.1987,135.1375 380.9298,135.4961 380.5044,135.6488 379.4061,135.4043 379.0554,135.1892 378.6525,134.4776 378.4806,133.4653 378.6473,132.4418 378.6392,132.0498 378.489,131.8126 378.0395,131.4934 376.8143,130.9749 376.7026,130.9276 374.4256,129.5866 373.5327,128.4727 373.0579,126.8947 372.7693,126.38 372.3623,126.1126 371.9401,125.9781 371.5588,126.0396 370.8729,126.7922 370.4973,127.6166 370.4732,127.7419 370.3915,128.1665 370.453,128.7055 371.5707,131.1035 372.0466,132.6589 371.4627,133.5111 370.8653,133.8469 369.6477,134.0303 369.2675,133.896 368.868,133.1585 369.0148,131.4135 369.0061,130.6398 368.8444,130.2312 368.1296,129.8972 367.9464,129.8709 366.8082,129.7079 364.6447,127.9133 364.212,127.4492 363.9636,126.923 363.2906,126.9795 363.0197,127.1025 362.8416,127.3902 362.777,129.2357 362.4709,129.7248 361.7147,129.7302 360.6195,129.3447 359.8868,129.3849 359.5529,129.4033 357.9977,129.4887 357.3011,129.9332 356.5195,131.0116 355.666,131.4439 355.4337,131.9608 355.1392,132.2312 353.8261,132.2189 353.5412,132.4705 353.6178,133.2077 353.4712,133.6272 352.7975,133.6288 351.1793,132.8563 350.3568,132.6993 350.2926,132.687 348.4831,132.7865 347.9619,132.9585 347.936,132.9911 346.6138,134.6496 346.3974,135.7434 346.2905,136.2833 346.2621,137.565 345.7505,138.3763 345.345,139.4053 345.0326,139.7109 344.692,139.7285 344.6503,139.6715 344.3726,139.2915 344.1343,138.4939 343.9072,138.1924 343.3212,138.1975 342.7614,138.4541 342.1015,139.1332 341.9658,139.2729 341.9273,140.1702 341.7519,140.6845 341.4949,140.9789 340.9254,141.251 340.8479,141.4169 341.053,141.9182 341.0489,142.2345 340.1548,142.5836 339.7302,141.4838 339.1541,138.8093 339.1758,138.3203 338.8198,137.3914 338.0528,136.0096 336.5958,133.3845 336.1375,132.8334 335.6083,132.4166 335.2449,132.3342 334.6072,132.3805 333.222,132.4809 333.0656,132.4923 331.8281,132.8377 329.6763,133.4384 328.6406,133.5034 328.566,133.5081" stroke="black" /><polygon fill="none" points="277.3742,334.898 277.0093,334.9415 276.5189,335.353 275.9603,335.36 275.7941,335.1977 275.8241,335.0598 276.1512,334.6073 275.8355,334.0475 275.9661,333.7384 275.745,333.5538 274.1199,333.849 273.5533,334.4499 273.1053,334.5616 272.1638,334.1505 271.799,334.094 270.8293,334.5777 270.4697,334.4424 269.9551,334.0485 269.2739,333.9891 268.0307,334.0691 267.1885,333.6169 266.1111,333.5023 265.9218,333.2991 265.5888,332.9421 265.6617,332.6442 266.5379,332.925 266.8334,332.7998 267.1425,332.4901 267.1421,331.4525 266.8193,330.4737 266.709,329.1261 265.832,326.8122 265.3276,326.2813 264.2789,325.4536 263.8354,324.9038 263.532,323.852 263.6181,323.3869 263.8185,323.1176 264.8412,322.6875 264.8477,321.3636 265.5929,320.9385 265.9541,320.5555 266.4208,319.7645 266.4105,319.5059 266.1336,319.2141 265.6205,319.0438 265.1894,318.7268 265.0035,318.1288 264.9959,317.5905 264.9663,315.4984 264.8694,315.4329 264.4213,315.5188 263.9133,315.8622 263.3401,316.0774 262.1511,316.2968 261.8694,316.1773 261.7753,316.0228 261.3938,315.3967 261.2076,315.2971 261.0215,315.1974 260.6222,315.4006 259.565,315.9385 259.2983,316.0592 258.5311,317.167 258.3619,317.2553 258.1521,317.2464 257.9573,317.2381 257.6186,317.1109 257.2798,316.9838 256.3598,315.8837 256.261,315.7655 256.1621,315.6473 256.1432,314.9837 255.9976,314.4387 255.5748,314.2342 254.1546,313.5501 254.0153,313.3661 253.9403,312.834 253.3527,312.1834 253.2308,312.0484 253.1783,311.9903 253.1258,311.9322 253.0991,311.6444 253.0914,311.5621 253.0962,311.1477 253.113,310.9789 253.2555,310.7609 253.7225,310.2185 254.1045,309.6916 254.2931,309.3243 254.3763,309.1623 254.3788,309.016 254.0743,308.6335 253.6498,308.5398 253.2784,308.4578 253.2254,308.4461 253.1149,308.2882 253.0044,308.1303 253.0399,307.5234 253.2913,307.3152 253.856,307.1155 255.2516,307.0535 255.9008,306.5554 256.2789,306.4039 257.4889,306.5588 258.0241,306.3314 258.0649,305.4748 257.8737,305.1383 257.8592,305.1127 257.2047,303.961 256.1677,302.136 255.3805,299.99 255.1393,299.93 254.8358,299.6415 254.2371,299.5063 253.2062,299.3389 252.5763,299.5394 252.4061,299.4976 251.9663,299.1702 251.0604,299.0713 250.2291,298.5552 249.8815,298.4472 249.3225,298.5316 247.4604,297.9168 245.9608,296.3706 244.9217,295.9605 244.4779,295.5118 244.1398,294.812 244.2919,293.6988 244.6887,293.2379 245.4472,292.7122 246.0785,291.286 246.6345,290.462 246.8687,289.202 247.0563,288.7796 247.8787,287.8543 248.9775,286.9703 249.2749,286.1548 249.4112,285.0508 247.4981,284.0641 246.4281,283.6651 245.585,283.0989 245.1835,282.5891 244.6147,281.1234 244.768,280.2961 245.5864,278.4378 245.8991,276.8969 245.8913,274.2629 245.6572,273.7412 245.5166,272.8057 245.516,271.7144 245.8114,271.4559 246.4574,271.2311 246.6423,271.0002 246.6873,270.7272 246.4635,269.7395 246.1507,269.1407 246.0833,267.7589 246.2883,264.6928 246.0595,264.0289 244.9203,262.8481 246.8556,262.9372 249.7665,262.9037 251.6017,262.4477 252.1845,262.4408 253.0571,262.5922 254.0388,262.7624 254.1446,262.7711 255.5418,262.8849 256.8932,262.62 257.0307,262.5931 257.5806,262.4853 258.757,261.9783 259.2582,261.7623 260.4098,261.6586 260.4872,261.6814 260.5482,261.6993 260.6055,261.7161 260.962,261.8208 261.5236,262.1825 262.0824,262.7776 262.0881,262.7948 263.2733,266.3375 263.5933,266.8284 263.9313,267.0851 265.4389,266.8095 265.8981,266.5371 266.5026,265.6195 266.7752,264.789 266.7933,264.734 266.805,264.6985 266.8731,264.491 267.2048,264.1255 267.4253,264.0056 267.4677,263.9825 267.5031,263.9632 267.9567,263.7165 268.037,263.6729 268.606,263.1859 269.7566,262.7113 269.9728,262.2585 269.9999,262.2382 270.4563,261.8958 270.7118,261.4134 271.719,260.8302 273.2923,261.088 273.8618,261.3569 274.2932,261.3309 274.5087,261.2158 274.822,260.8625 274.881,260.796 276.7438,258.6955 278.1078,258.0015 281.1221,257.3017 281.5552,256.8273 281.8504,255.8635 282.4466,255.2301 282.9025,255.022 283.1971,254.8875 284.8698,254.6688 285.8547,254.8306 287.2325,255.2746 288.7543,255.969 289.0731,256.0191 289.9413,255.8077 290.4932,255.9429 291.6224,255.8992 292.5712,256.1497 292.8758,256.1316 293.5612,255.8156 295.3783,254.6731 295.8636,254.521 297.6955,254.4885 299.1916,254.2626 300.3524,253.9583 302.0822,253.0401 303.4042,251.7566 303.6266,251.3778 304.0894,250.1687 304.4463,248.7688 304.5192,246.8099 304.6012,246.2901 304.9014,245.7733 306.1507,244.3318 307.1119,243.5453 308.3848,242.7661 310.2147,241.4509 310.8982,240.5555 310.9949,240.2185 311.0047,240.1842 311.014,240.1517 311.3388,239.0195 311.5521,238.8195 312.0848,238.8126 312.4216,239.0499 313.3134,240.4845 314.4046,241.9186 314.7936,242.6739 314.8799,243.701 315.0986,244.4329 315.3118,244.6039 316.1295,244.6212 315.5353,246.4977 315.6061,247.0149 316.3409,248.4802 316.6415,249.4342 317.2712,250.0442 318.0885,250.1908 318.5965,250.486 318.9892,250.8724 319.6027,251.7895 320.5875,252.6038 321.3626,253.0082 321.9933,253.6999 322.1307,254.1108 322.0921,254.6769 322.8175,255.9846 323.0482,256.6353 323.2325,257.9676 323.2846,259.4446 323.4084,259.84 323.6896,260.32 323.6904,260.3214 325.0899,262.7103 325.3627,263.7547 325.2549,265.3175 325.3703,265.6863 325.4064,265.752 326.8527,268.3647 327.7889,271.9538 328.5743,273.922 329.794,275.2641 330.4141,275.6261 332.2906,276.0943 333.016,276.1117 333.8247,275.9642 334.6135,275.5541 335.9464,274.4559 337.8076,271.6317 338.7369,268.9887 339.1976,267.0906 340.0285,265.225 342.5925,261.87 346.3016,258.8809 346.7848,258.8202 350.2095,259.8433 351.7848,260.0477 352.9101,260.0425 355.3464,259.6195 355.884,259.6391 356.1795,259.7976 356.9501,260.7031 358.0632,261.5993 358.4519,262.1161 358.5518,262.2489 359.0665,263.2317 359.2905,263.4709 359.5314,263.5254 360.7014,263.4182 361.5282,262.7827 362.3204,261.6543 363.05,261.2081 362.7583,262.1202 362.1074,262.881 362.576,263.7647 363.4656,264.9733 364.9555,265.934 366.7642,267.5735 366.0945,271.4152 366.0624,274.2054 365.8775,274.8019 364.3024,276.4704 362.6275,277.4973 361.8067,278.2239 361.6332,278.7952 361.7149,279.1656 361.9279,279.6557 362.6761,280.3784 362.9683,281.1702 362.9363,281.6823 362.696,282.2706 361.6529,283.1794 359.4366,286.292 359.3454,287.0046 359.6806,287.902 360.7403,288.7556 362.382,289.6276 363.3528,290.0197 364.6412,290.3521 366.599,290.57 367.8932,291.3579 369.5988,292.5043 372.8573,295.2771 373.0738,295.3542 373.669,295.27 374.5541,295.023 374.8939,295.116 375.1218,295.642 375.0361,295.8072 374.1105,296.2979 373.428,297.0151 372.4773,299.5538 372.0126,300.2631 369.517,302.6952 369.0794,303.7128 369.1512,304.5696 369.4177,305.2723 369.9715,306.1102 371.0864,307.2492 373.3002,308.382 373.8718,308.8342 374.2612,309.413 375.2815,312.5138 375.9947,314.1486 376.1871,315.0117 376.3023,316.8253 376.1223,318.0097 375.8122,318.7947 374.9047,319.9275 374.129,321.3638 373.7409,321.8052 373.1025,322.2591 372.7129,322.8037 371.7784,324.7354 370.9301,325.6891 369.0342,327.2789 366.7045,330.0453 365.7467,331.9996 365.3765,332.9916 364.9862,334.6081 364.8661,335.694 364.9221,336.5375 365.3401,338.3395 365.7579,338.9471 366.6721,339.7986 370.2809,342.7272 371.0309,343.5421 371.6696,344.5133 372.465,346.1769 372.589,349.0168 372.741,350.8837 372.9525,351.7544 373.2328,352.2544 373.7786,352.8744 374.9227,353.8313 376.8323,354.3693 376.8948,354.3869 377.6703,354.7201 378.294,355.2892 378.3604,355.6979 378.1881,358.646 377.4725,359.856 377.1248,360.1601 377.0733,361.001 377.6474,362.4894 377.6555,363.0502 378.1975,364.8958 379.5886,367.2239 379.8006,368.7719 379.8618,370.7902 380.1604,372.3428 380.4392,373.2018 380.8956,374.1742 382.4892,376.7918 382.5844,377.2677 382.7803,378.2469 382.7731,378.8697 382.4565,380.1592 380.228,382.5138 379.9009,383.3298 379.7725,385.489 379.4576,385.9496 378.6182,386.5095 377.4432,386.628 375.1456,386.625 373.3555,387.8704 372.1855,387.908 369.611,386.3018 368.8195,386.0199 368.0094,386.0646 367.2789,386.9561 366.4404,386.973 365.5582,386.1997 365.1889,385.5232 365.0551,385.0553 364.9859,383.7727 364.8092,383.4615 364.4766,383.1617 362.1671,382.0496 360.4951,381.9553 359.0647,381.3436 357.9047,381.5011 356.643,381.4621 356.2162,381.6645 355.5599,382.4611 355.1284,382.6002 354.6666,382.5429 354.1219,382.2915 353.8073,381.977 353.5103,381.1456 352.8594,380.7636 350.7818,380.662 350.4178,380.7518 350.1929,380.933 350.0189,381.4076 349.7336,381.769 348.9616,382.3688 348.9739,382.6402 348.6185,383.1284 348.377,383.262 346.4464,383.1128 345.8865,383.1653 344.9825,383.7206 344.4612,384.1208 343.7828,384.8764 343.1463,385.9559 342.9385,386.6933 342.7975,389.1918 342.5565,389.464 341.9965,389.795 341.1329,390.1699 340.5417,390.6808 340.0848,391.5177 338.5534,393.4971 338.4878,393.5388 338.0894,393.7914 337.2644,393.9496 336.5182,394.4009 335.2475,395.6943 334.8351,396.3388 332.7842,397.0175 331.5405,397.1625 330.8149,397.1516 329.2715,396.6954 327.8965,396.7001 326.646,397.4787 325.5949,397.8417 324.9012,398.7271 324.8553,399.1764 322.7032,398.8855 320.8265,398.9852 319.3756,398.8805 314.2875,398.0495 311.8513,398.003 310.5829,397.9787 308.0629,397.7711 306.4298,398.4713 304.6967,399.5276 303.1405,400.0512 301.5746,400.2398 299.6781,400.1649 296.6558,399.5177 295.1928,399.0123 293.7579,399.2734 291.664,399.3698 290.1961,399.2086 288.273,399.7058 286.1707,400.7743 285.2714,401.2315 284.0763,402.047 282.3432,401.556 279.8235,398.8428 278.1212,399.8019 276.6977,400.2321 275.1957,400.5477 273.8736,401.6077 273.0665,403.0431 272.6831,403.4886 270.602,405.9065 269.7683,407.1292 268.4172,411.9967 267.3799,410.3923 266.9149,409.3802 266.9183,408.394 267.2965,407.4522 267.137,406.6746 265.7847,405.6629 265.4426,404.8978 265.6491,404.1724 266.016,403.7622 266.6211,403.3315 267.2158,402.51 267.2913,401.1249 267.8584,400.4852 267.9485,400.0306 268.6181,399.6056 268.5297,398.9559 267.4739,398.5974 267.4501,398.2609 269.2008,396.6568 270.6953,395.6761 271.4407,395.01 271.8667,394.4832 272.3107,393.1126 274.2725,391.4634 274.5139,391.0643 274.6175,390.5994 275.0116,390.1095 275.9109,389.8343 276.7159,389.1698 278.5721,389.0607 279.2411,388.6486 279.3168,388.2732 279.2291,387.3536 279.7666,386.9701 280.0451,386.895 280.4913,386.9651 280.9345,387.2406 281.903,388.1718 282.5544,388.3475 282.9455,388.2609 283.776,387.7232 285.7796,385.4603 285.7743,384.4886 285.8906,384.2177 286.1433,383.988 286.9305,383.6683 287.4464,382.5762 287.8967,382.3095 288.4793,382.4195 289.0963,382.3882 289.2525,382.1446 289.4007,381.3799 289.5725,381.1215 290.1374,380.7475 290.3631,380.3856 290.4835,379.9082 291.1839,379.4495 291.4165,378.7787 291.8005,378.1463 292.5863,377.9095 294.7186,378.0339 295.2558,377.9504 295.6785,377.6688 296.2029,376.9762 297.2812,376.6873 297.7351,376.0958 298.5796,375.5606 298.5572,375.0552 298.7154,374.6964 298.6358,374.4087 297.4703,373.7876 297.2263,373.2407 298.3814,371.4002 298.2883,370.7518 297.887,370.4497 297.4285,370.3673 297.1607,370.4666 296.4837,371.2522 295.8946,371.3897 294.5416,372.434 293.9664,372.6365 293.2228,373.224 292.7775,373.3227 292.4107,373.1642 292.1516,372.9029 291.5089,371.6903 291.4858,371.2591 291.6755,370.5925 291.9976,370.5037 292.3972,370.8833 292.816,370.8997 293.1018,370.2427 293.0827,369.6017 293.2674,369.4094 293.6554,369.5714 294.3123,369.5662 294.9188,369.0784 295.2742,368.5 295.571,368.2435 296.2144,368.0293 296.7627,367.5442 297.1405,366.512 298.1572,366.0325 298.6684,365.3781 298.9019,364.6159 299.9091,364.3293 300.5002,363.882 300.5572,363.7031 300.4641,363.4675 300.2693,363.3614 300.1477,363.0745 300.791,362.9893 300.9597,362.7838 301.0236,362.2551 300.7621,361.9928 300.1743,362.0658 299.2755,361.4111 298.3855,361.1151 298.1261,360.6312 298.1577,360.1965 297.7838,360.0361 297.6641,359.6094 296.53,358.8965 296.3657,358.5309 296.0606,358.348 295.8416,357.9849 295.32,357.8549 295.1413,357.591 295.1749,357.0852 295.0807,356.8508 294.8454,356.6422 294.2496,356.3908 293.5716,355.6949 293.4656,355.3062 294.0667,352.9038 293.6162,352.1835 293.2956,352.125 292.5394,352.3239 291.9669,352.2908 291.3489,351.7544 290.9984,351.5951 289.9943,351.6106 288.6634,350.4239 288.4862,350.0331 288.4856,349.0611 288.1987,348.6065 287.5224,348.0276 287.4126,347.6767 287.5772,346.694 287.5115,346.382 286.7746,346.023 286.3231,345.5662 285.7519,345.405 284.771,344.5411 283.9496,344.4139 283.5762,344.0868 283.2945,344.3189 283.2638,344.5751 283.1262,344.5996 282.9279,344.4688 282.9073,343.9752 282.7137,343.9109 282.5559,344.103 282.5355,344.6834 282.424,344.824 282.1967,344.874 280.9447,344.3094 280.7319,344.346 280.5781,344.5261 280.7362,345.279 280.5942,345.5489 280.1306,345.7635 279.4607,345.653 279.0605,345.7206 278.0079,345.8985 277.5618,345.8284 277.3969,345.58 277.474,345.0131 277.7165,344.7677 277.9678,344.7316 278.2121,344.9141 278.4255,344.8657 278.6401,344.557 278.7841,343.9753 279.4032,343.658 279.5623,343.14 279.4513,341.8032 279.8851,341.2213 279.9105,341.1873 280.2769,340.696 280.4036,339.5054 280.3386,339.1406 280.0337,338.8943 280.0009,338.256 279.3057,337.9779 279.2792,337.7437 278.9488,337.3909 279.0223,337.1726 279.5289,336.8905 279.5627,336.4513 277.7085,334.8582 277.3742,334.898" stroke="black" /><polygon fill="none" points="316.1295,244.6212 315.3118,244.6039 315.0986,244.4329 314.8799,243.701 314.7936,242.6739 314.4046,241.9186 313.3134,240.4845 312.4216,239.0499 312.0848,238.8126 311.5521,238.8195 311.3388,239.0195 311.014,240.1517 311.0047,240.1842 310.9949,240.2185 310.8982,240.5555 310.2147,241.4509 308.3848,242.7661 307.1119,243.5453 306.1507,244.3318 304.9014,245.7733 304.6012,246.2901 304.5192,246.8099 304.4463,248.7688 304.0894,250.1687 303.6266,251.3778 303.4042,251.7566 302.0822,253.0401 300.3524,253.9583 299.1916,254.2626 297.6955,254.4885 295.8636,254.521 295.3783,254.6731 293.5612,255.8156 292.8758,256.1316 292.5712,256.1497 291.6224,255.8992 290.4932,255.9429 289.9413,255.8077 289.0731,256.0191 288.7543,255.969 287.2325,255.2746 285.8547,254.8306 284.8698,254.6688 283.1971,254.8875 282.9025,255.022 282.4466,255.2301 281.8504,255.8635 281.5552,256.8273 281.1221,257.3017 278.1078,258.0015 276.7438,258.6955 274.881,260.796 274.822,260.8625 274.5087,261.2158 274.2932,261.3309 273.8618,261.3569 273.2923,261.088 271.719,260.8302 270.7118,261.4134 270.4563,261.8958 269.9999,262.2382 269.9728,262.2585 269.7566,262.7113 268.606,263.1859 268.037,263.6729 267.9567,263.7165 267.5031,263.9632 267.4677,263.9825 267.4253,264.0056 267.2048,264.1255 266.8731,264.491 266.805,264.6985 266.7933,264.734 266.7752,264.789 266.5026,265.6195 265.8981,266.5371 265.4389,266.8095 263.9313,267.0851 263.5933,266.8284 263.2733,266.3375 262.0881,262.7948 262.0824,262.7776 261.5236,262.1825 260.962,261.8208 260.6055,261.7161 260.5482,261.6993 260.4872,261.6814 260.4098,261.6586 259.2582,261.7623 258.757,261.9783 257.5806,262.4853 257.0307,262.5931 256.8932,262.62 255.5418,262.8849 254.1446,262.7711 254.0388,262.7624 253.0571,262.5922 252.1845,262.4408 251.6017,262.4477 249.7665,262.9037 246.8556,262.9372 244.9203,262.8481 244.0457,262.5886 242.4157,262.3494 241.6358,262.235 238.9218,260.7875 236.9465,260.0292 236.2642,259.9416 235.0077,259.4295 233.0236,259.1425 231.0115,258.3718 227.7468,258.4403 226.9163,258.2411 226.8713,258.223 226.6097,258.1173 226.1642,257.9373 225.6311,256.8614 215.4326,236.2792 211.9862,230.7211 211.7174,229.559 211.7285,228.7962 212.2184,226.5849 213.4749,223.9146 214.7529,222.6067 218.6691,219.9782 219.1169,219.4021 219.2935,218.8372 219.2275,218.4026 218.9645,217.9929 218.0482,217.4018 216.5319,217.0183 213.6811,216.5839 211.9742,216.3239 211.4802,216.1131 211.1654,215.9788 211.0998,215.9508 211.0513,215.9301 210.6083,215.7411 209.9702,215.6031 208.5218,215.7562 207.9414,215.5865 206.7615,214.6362 204.3717,211.7917 202.5672,208.8317 201.256,206.026 199.9931,203.9938 198.7302,201.9616 198.7451,201.647 200.0179,198.6426 201.2784,196.5131 201.8252,195.9122 202.9051,195.1402 204.0093,194.6972 205.4278,194.4659 206.2539,194.145 207.0543,193.2457 208.0768,192.9127 208.3973,192.621 209.3188,191.1216 209.8066,190.7309 210.5446,189.5538 211.3751,188.4972 212.7559,187.6181 215.3007,186.8556 215.9748,186.2845 216.2887,186.1554 218.3348,185.756 219.3091,185.8596 220.3145,186.3317 222.3787,187.8036 223.8498,189.1472 227.6974,190.7184 230.0188,191.2937 233.8654,191.9154 235.1408,191.8903 235.9938,191.7262 236.2219,191.5848 236.3114,191.2044 236.1701,190.0947 235.62,188.8399 235.0213,187.9658 233.1678,185.9147 231.8565,184.2845 224.136,177.8873 222.4293,176.1187 221.0845,174.3565 220.4669,173.9197 219.211,173.4922 217.8113,173.212 217.6288,173.0901 217.9797,171.4711 217.5923,170.4014 216.8734,169.61 215.2487,168.4657 214.7568,167.9339 214.2737,167.1276 213.3676,166.2339 213.0673,165.1785 212.0813,163.8066 212.1759,162.8346 211.1202,161.1787 210.8309,160.8863 210.1565,160.4982 208.1351,160.1199 207.2489,159.7144 206.5224,158.8663 206.2336,158.2943 205.2233,157.3911 205.02,157.382 204.1358,157.8592 203.5832,157.8807 202.7339,157.7789 201.4062,157.4469 200.4614,157.4365 199.5134,157.2294 197.4873,155.9835 196.8871,155.7404 196.164,155.6007 192.5574,153.9554 190.2568,153.2733 189.1737,152.6023 188.6379,152.4553 187.886,152.52 186.9808,153.0637 186.4214,153.7575 186.0827,154.634 185.7265,154.866 185.0446,154.9115 184.6666,154.6165 184.021,154.5303 183.4065,153.9255 183.1101,153.7645 182.0199,153.5809 181.6291,153.1962 181.0085,152.0056 180.6439,151.6982 177.3655,150.1046 176.6958,149.2914 176.4051,147.7226 176.0244,147.5084 175.7117,147.6363 175.4864,147.6077 175.2551,146.9739 175.3908,146.1807 175.3461,145.3246 175.5866,144.1289 176.6047,143.1791 176.9804,142.4742 177.4693,142.0588 177.5299,141.8357 177.6382,140.8319 177.5195,139.1855 177.1621,138.3681 177.1834,137.8392 177.9634,136.6624 178.5063,136.235 178.6102,135.9475 178.9831,135.589 178.4716,134.5451 178.3823,133.7512 177.8277,133.2641 177.5237,132.6432 176.9766,132.545 176.2169,133.0617 175.9909,133.0868 175.5134,132.7145 175.1616,132.6958 174.5426,132.4255 173.7211,132.4955 172.6665,131.7865 172.1449,131.9517 172.006,131.503 171.7546,131.4863 171.1374,132.0988 170.808,132.1736 169.5933,132.0138 169.4256,131.7266 169.2587,131.6555 169.0738,131.6842 168.8127,132.0195 168.4331,132.0934 168.3893,131.5211 168.3224,131.3338 168.1238,131.2136 167.8637,131.6338 167.5782,131.8132 167.4229,131.7868 167.1595,131.2942 166.8208,131.0802 166.9879,130.4631 166.9499,130.0034 165.5297,129.2107 165.0578,128.5865 164.1541,128.288 163.5618,127.0778 162.7923,126.6464 161.086,126.8912 161.3505,126.131 161.6501,125.8187 163.4671,124.4571 166.6967,123.2305 170.6331,122.5972 175.0741,122.3197 177.7527,121.9928 181.2287,121.268 185.4858,121.1738 188.7602,120.9201 190.6021,120.5734 192.1389,120.5209 193.102,120.664 193.8047,120.8842 195.071,121.7653 195.7651,122.5343 196.6794,124.1257 197.5028,126.1847 198.0897,126.7982 199.1563,127.4689 200.3312,127.8938 201.2347,128.0093 204.2109,127.6225 204.3524,127.6753 204.3503,127.8582 202.8867,129.3978 202.3648,130.3373 202.3591,130.7827 202.6928,131.2355 205.1038,133.1836 205.8355,133.5326 208.2,134.016 208.8304,134.1448 210.658,134.9007 211.6997,135.5175 212.9028,135.9002 215.9844,136.2751 217.034,136.1539 217.6257,135.9231 218.7675,135.2268 220.2179,134.6371 221.4979,134.3088 222.6571,134.3213 223.3328,134.6469 223.7229,135.1509 224.1622,136.257 224.954,137.6624 225.2651,137.6387 226.6363,136.7601 228.7292,135.9967 229.5102,135.7118 229.9147,135.6371 230.5861,135.5131 231.9743,135.5798 232.7712,135.2204 233.2268,134.7516 233.575,134.1252 234.1976,132.1576 235.093,130.2583 235.5837,129.8148 237.1173,128.9923 237.4925,128.5238 237.3921,127.0381 236.8831,125.1374 237.097,123.8869 237.7307,122.4414 237.7689,121.0182 237.9475,119.7823 238.2696,118.884 238.5797,118.4196 239.9584,117.3997 240.5559,117.0836 242.6815,115.3539 243.8349,114.6817 244.4858,114.6492 245.9698,114.9224 246.9905,114.9195 247.9762,114.7591 249.7596,114.2124 250.5673,113.7718 251.4931,112.8733 252.4158,112.4039 253.3737,111.2523 253.6138,110.6104 253.6708,109.0154 253.2495,107.6108 252.5548,106.3905 252.006,105.6614 252.1726,104.8422 251.5021,103.6605 251.2775,102.7384 251.324,102.3815 252.1295,100.3498 252.2213,99.7693 252.2431,99.1437 251.9472,97.7947 252.0378,96.5047 252.5132,95.5963 252.7278,95.3802 253.8978,94.8266 254.2939,94.3164 254.5145,92.0873 254.7868,90.6429 254.98,90.2181 255.2195,89.8977 256.5586,88.7946 257.858,88.0459 258.5575,86.9898 258.7519,86.6112 258.9304,84.269 259.5745,83.1358 259.8912,82.8657 261.8469,82.0348 262.6841,81.7596 262.9889,81.7717 264.2296,82.9169 266.2948,87.4602 267.0655,88.463 268.3346,89.3285 269.0316,89.6411 269.8759,89.8752 272.5136,90.3091 274.3554,90.4111 277.5837,89.9797 279.4688,89.554 280.0833,89.2758 281.8964,88.062 282.9489,87.5167 283.9055,87.3156 284.713,87.448 285.0878,87.6182 285.8202,88.4012 286.505,89.5627 286.9726,89.9888 287.3052,90.0867 288.2143,90.0027 289.3432,89.2046 290.1391,87.971 290.6908,87.3634 291.8961,86.5994 292.5346,85.7836 292.7194,85.686 293.022,85.7681 294.0351,86.8577 295.632,87.5512 295.8902,87.3428 295.7352,86.7477 295.969,86.6296 296.329,86.7392 297.0225,87.3379 297.412,87.3214 297.9087,86.8216 298.211,86.2586 298.574,85.9831 299.0513,85.9529 299.7227,86.1108 300.6059,86.1547 300.9898,85.988 301.2155,85.3865 301.3734,85.2439 301.7658,85.4369 301.8574,85.7585 301.6709,86.8582 301.9203,87.6296 302.2582,89.8677 302.4675,91.2539 302.9264,92.4599 303.0059,92.614 304.0314,94.601 304.7458,96.9351 304.9832,98.2264 305.0404,98.8667 304.8688,100.9075 304.7157,101.3322 303.9259,103.5218 303.7676,104.8675 303.5625,105.4391 303.7024,106.2552 304.1891,107.4341 304.7707,107.8315 305.089,108.2751 307.2067,110.1909 307.9552,111.7364 308.3319,112.1806 309.2307,112.8339 310.1295,113.4872 310.453,113.8726 310.9591,115.6365 311.8659,116.7598 311.5975,117.4332 311.575,117.9105 312.1491,119.1746 312.2147,120.0608 311.9551,120.5499 311.52,120.8942 310.9747,121.578 309.776,122.1149 309.3708,122.4526 308.6076,123.5547 307.9529,125.011 307.9503,126.4991 309.0421,126.4723 310.561,126.8949 314.1994,127.1505 315.6329,127.3684 317.1709,128.2814 318.3959,129.6489 319.2339,130.5844 319.7963,130.7717 320.7916,130.8503 321.518,130.9077 321.952,131.1342 322.327,131.6333 323.013,132.5439 323.5523,133.0861 323.7827,133.2257 323.9715,133.3402 326.1029,133.881 327.1651,133.9103 328.5065,133.5119 328.566,133.5081 328.6406,133.5034 329.6763,133.4384 331.8281,132.8377 333.0656,132.4923 333.222,132.4809 334.6072,132.3805 335.2449,132.3342 335.6083,132.4166 336.1375,132.8334 336.5958,133.3845 338.0528,136.0096 338.8198,137.3914 339.1758,138.3203 339.1541,138.8093 339.7302,141.4838 340.1548,142.5836 341.0489,142.2345 341.053,141.9182 340.8479,141.4169 340.9254,141.251 341.4949,140.9789 341.7519,140.6845 341.9273,140.1702 341.9658,139.2729 342.1015,139.1332 342.7614,138.4541 343.3212,138.1975 343.9072,138.1924 344.1343,138.4939 344.3726,139.2915 344.6503,139.6715 344.692,139.7285 345.0326,139.7109 345.345,139.4053 345.7505,138.3763 346.2621,137.565 346.2905,136.2833 346.3974,135.7434 346.6138,134.6496 347.936,132.9911 347.9619,132.9585 348.4831,132.7865 350.2926,132.687 350.3568,132.6993 351.1793,132.8563 352.7975,133.6288 353.4712,133.6272 353.6178,133.2077 353.5412,132.4705 353.8261,132.2189 355.1392,132.2312 355.4337,131.9608 355.666,131.4439 356.5195,131.0116 357.3011,129.9332 357.9977,129.4887 359.5529,129.4033 359.8868,129.3849 360.6195,129.3447 361.7147,129.7302 362.4709,129.7248 362.777,129.2357 362.8416,127.3902 363.0197,127.1025 363.2906,126.9795 363.9636,126.923 364.212,127.4492 364.6447,127.9133 366.8082,129.7079 367.9464,129.8709 368.1296,129.8972 368.8444,130.2312 369.0061,130.6398 369.0148,131.4135 368.868,133.1585 369.2675,133.896 369.6477,134.0303 370.8653,133.8469 371.4627,133.5111 372.0466,132.6589 371.5707,131.1035 370.453,128.7055 370.3915,128.1665 370.4732,127.7419 370.4973,127.6166 370.8729,126.7922 371.5588,126.0396 371.9401,125.9781 372.3623,126.1126 372.7693,126.38 373.0579,126.8947 373.5327,128.4727 374.4256,129.5866 376.7026,130.9276 376.8143,130.9749 378.0395,131.4934 378.489,131.8126 378.6392,132.0498 378.6473,132.4418 378.4806,133.4653 378.6525,134.4776 379.0554,135.1892 379.4061,135.4043 380.5044,135.6488 380.9298,135.4961 381.1987,135.1375 381.2921,135.013 381.8196,135.3953 382.488,136.1678 383.6281,136.6931 384.8306,137.6852 385.5395,137.9947 385.5875,138.2817 385.2386,139.5801 385.3927,140.5643 386.0485,142.6897 386.6501,143.6706 387.5768,146.1073 387.8661,146.6337 389.0945,147.9127 389.4596,148.8313 390.7652,150.8314 391.0583,151.1663 392.8767,152.4914 393.5864,153.5942 393.5701,154.2915 393.1745,155.0879 392.0198,156.8586 391.8201,157.5041 391.1368,158.6963 389.51,160.4047 389.3828,161.1404 389.4367,161.4508 389.7583,161.9263 391.1089,163.0019 391.9598,163.8558 392.1919,164.0887 392.6983,164.7707 392.9778,165.7212 392.9435,166.7107 392.5567,167.4981 391.5449,168.9343 390.1218,170.485 388.5631,171.8345 387.6359,173.0873 387.2987,174.0617 386.6508,175.1319 386.3142,176.5953 385.3493,178.5175 384.1102,181.7175 385.8502,183.9858 386.3613,184.8632 386.2322,186.3247 386.321,187.0678 386.494,187.6322 386.6391,188.1057 386.6349,188.5488 386.2929,189.4341 385.3571,190.5508 385.2467,190.9483 385.7612,193.2575 385.9714,194.9357 385.8969,196.3721 385.0978,199.1671 385.177,200.8825 385.4722,201.2549 385.8675,201.4712 390.2416,202.1031 391.1755,202.3624 391.6142,202.6047 391.8804,202.9376 391.8065,204.2955 391.6881,204.7846 391.3834,205.363 391.3829,205.6371 391.918,207.2832 391.9366,207.8241 391.3883,209.838 391.309,210.5103 390.8713,211.5881 390.1486,212.5049 389.4768,212.9592 389.3605,213.1827 389.37,213.6188 390.6702,218.0668 390.7548,219.1196 391.833,221.7545 392.1228,223.6967 392.1882,225.1504 392.0825,225.5702 391.6006,226.7801 390.8233,227.7241 390.265,229.2923 390.289,229.6083 391.8322,232.1585 392.0094,232.4514 392.4806,232.7986 394.2885,233.6682 395.908,234.8721 396.1876,235.3646 396.2609,236.4007 395.6439,238.3081 395.0615,239.3185 394.614,239.8668 393.5117,240.5817 390.999,241.5052 389.2896,241.7545 388.9067,241.6817 388.3854,241.2939 386.3549,238.7154 384.3649,236.9962 383.0161,235.6636 382.3836,235.526 381.2992,235.7272 379.9716,236.3717 378.5213,236.839 378.1061,237.231 377.4621,238.7677 376.9471,239.2772 376.4494,239.4569 375.9416,240.1004 375.4579,241.5179 375.3788,242.0429 375.4543,242.7318 376.1015,244.576 376.0582,245.7884 374.8224,248.2305 373.8914,249.4642 373.8011,249.8467 373.7969,250.2673 374.1147,250.9719 374.4742,252.8218 374.7113,253.3699 374.6641,253.9892 374.4994,254.4633 373.8506,255.3272 373.1358,255.8082 372.7925,255.911 371.6707,255.9386 370.4692,255.5033 370.0823,255.4888 369.6423,255.6798 369.3529,256.0468 369.2883,256.798 369.0108,257.2568 368.7116,257.4403 367.7138,257.6924 366.9209,258.0468 365.715,258.9846 365.1873,259.085 364.6587,259.3425 363.7288,260.0988 363.05,261.2081 362.3204,261.6543 361.5282,262.7827 360.7014,263.4182 359.5314,263.5254 359.2905,263.4709 359.0665,263.2317 358.5518,262.2489 358.4519,262.1161 358.0632,261.5993 356.9501,260.7031 356.1795,259.7976 355.884,259.6391 355.3464,259.6195 352.9101,260.0425 351.7848,260.0477 350.2095,259.8433 346.7848,258.8202 346.3016,258.8809 342.5925,261.87 340.0285,265.225 339.1976,267.0906 338.7369,268.9887 337.8076,271.6317 335.9464,274.4559 334.6135,275.5541 333.8247,275.9642 333.016,276.1117 332.2906,276.0943 330.4141,275.6261 329.794,275.2641 328.5743,273.922 327.7889,271.9538 326.8527,268.3647 325.4064,265.752 325.3703,265.6863 325.2549,265.3175 325.3627,263.7547 325.0899,262.7103 323.6904,260.3214 323.6896,260.32 323.4084,259.84 323.2846,259.4446 323.2325,257.9676 323.0482,256.6353 322.8175,255.9846 322.0921,254.6769 322.1307,254.1108 321.9933,253.6999 321.3626,253.0082 320.5875,252.6038 319.6027,251.7895 318.9892,250.8724 318.5965,250.486 318.0885,250.1908 317.2712,250.0442 316.6415,249.4342 316.3409,248.4802 315.6061,247.0149 315.5353,246.4977 316.1295,244.6212" stroke="black" /></svg>