<?xml version="1.0" encoding="utf-8" ?>
<svg baseProfile="tiny" height="389.4102" version="1.2" width="500" xmlns="http://www.w3.org/2000/svg" xmlns:ev="http://www.w3.org/2001/xml-events" xmlns:xlink="http://www.w3.org/1999/xlink"><defs /><polygon fill="none" points="127.641,226.2015 127.8463,226.1078 128.1435,226.2599 128.7681,226.5796 138.4401,231.5343 143.0455,228.2151 143.623,228.2977 147.1285,228.7919 148.7166,229.7804 146.6421,236.174 149.41,241.5948 146.2569,247.9077 142.6739,254.8916 142.6658,254.9073 142.6045,254.9684 141.4838,256.0866 139.5292,256.0511 137.572,254.3225 135.4698,255.7931 133.4936,254.911 132.2932,256.7206 125.4112,253.2646 124.9418,254.4137 105.9825,245.5159 105.7396,245.5611 105.9207,237.8923 114.2137,232.3321 127.641,226.2015" stroke="black" /><polygon fill="none" points="265.5012,293.1258 278.468,290.2274 278.5876,290.2007 282.1071,289.414 282.9291,287.6779 284.1838,286.5205 284.4171,286.061 284.3412,284.953 284.2484,283.599 285.1682,280.7825 290.494,271.4036 290.7936,270.2708 290.9513,267.084 291.6335,265.1758 291.8107,263.8639 307.8976,267.1488 309.0822,267.3907 330.2638,271.7127 328.7612,273.1451 327.3588,273.9965 317.8593,277.4154 320.542,283.3507 321.2785,292.8997 321.2893,293.0388 326.8878,294.9082 337.1777,298.3439 338.6286,299.6731 339.5473,299.839 340.3039,299.614 341.2899,298.9204 341.8859,298.8077 343.6993,299.7529 348.4664,300.0042 348.5903,301.2814 349.1777,301.9481 352.6507,304.0774 352.6803,304.3888 352.1924,305.9597 350.4141,307.8774 348.7603,309.0777 348.0318,310.0345 347.9408,310.8807 348.3708,311.6033 349.5383,312.3569 349.6696,313.3276 349.6265,313.4098 349.2513,314.1251 347.4186,314.9326 344.8376,315.0648 343.2567,315.6747 341.063,319.4652 340.6226,319.712 339.3893,319.5279 334.8368,317.0415 333.5845,316.6617 329.5588,316.008 327.5341,314.648 327.2306,314.7565 327.0572,315.0844 326.8007,317.6233 327.0955,325.5276 327.6597,326.4457 328.6783,326.9132 328.9939,327.2072 329.0994,327.6343 329.0187,327.9731 328.8434,328.7081 328.162,330.1453 327.238,331.3189 326.2724,331.6235 324.5301,331.0221 323.169,330.9121 322.2025,330.9901 320.9548,331.4085 318.4067,333.254 316.6112,334.5544 312.5064,337.0522 310.8624,338.4756 310.2762,340.6575 309.3915,341.5284 308.4174,341.743 306.2517,342.5172 303.5532,342.9009 301.741,342.9045 300.249,342.2274 298.3917,340.0406 295.6424,335.3616 295.4791,333.8882 295.501,332.9474 295.5528,330.7149 293.0978,331.7781 291.9303,331.9314 290.6827,332.6896 289.598,333.9756 289.7292,339.1888 289.2887,340.3992 288.1643,342.1382 284.3813,344.1483 283.8272,344.3331 282.3287,344.8328 280.4595,344.9974 279.6964,345.0645 278.7039,345.0665 275.8009,344.052 273.1885,344.7689 271.3802,344.8061 268.0585,344.4945 267.515,345.1303 267.7296,345.8928 269.9772,345.7253 270.5659,346.2218 270.6384,346.7417 268.8216,349.6167 267.1975,351.3637 265.2401,352.6082 265.1001,353.2557 265.1565,353.6968 268.5155,363.7577 268.4846,363.8392 268.4603,363.9031 268.4117,364.0311 267.7876,364.2858 267.1429,364.2872 265.6444,363.7637 265.0201,363.6963 264.2293,363.8435 263.4405,364.6068 262.6947,366.1501 261.8981,366.8151 261.7248,366.9599 260.616,367.3246 258.6167,367.329 258.4014,367.3294 256.8706,367.0395 255.3495,366.0072 255.147,365.1255 255.218,364.708 256.2665,362.9045 257.3367,360.6123 257.4187,359.8519 257.0622,358.4668 253.8032,356.0714 253.5456,354.7954 254.1952,353.2521 254.0513,352.0034 253.1427,351.0744 252.6599,350.8626 251.0735,350.919 250.2527,351.5582 250.0552,352.0108 250.0009,353.3669 249.0723,356.8771 248.5627,356.9849 247.3147,356.4556 246.5785,356.6156 245.9272,357.2554 245.7327,359.0895 245.308,359.5954 243.1006,360.0629 242.8561,360.1146 241.4341,361.1539 241.097,361.7076 238.1421,361.5818 234.518,359.3851 232.1535,357.9519 228.8614,351.7454 228.3635,346.2993 228.2836,345.4276 231.2626,338.7643 224.7366,336.599 222.4505,332.5533 222.7926,330.5086 224.3152,321.4145 217.314,318.433 215.2803,316.1084 225.6529,310.932 227.0457,301.3469 227.4322,298.6872 228.5955,299.1242 232.5734,300.0262 232.3599,292.4434 234.4689,292.2798 239.2709,291.0039 241.6099,290.9403 244.7493,291.2697 245.3728,291.1363 247.892,289.68 248.3579,289.5812 248.9802,290.2366 249.9149,290.3064 250.8131,290.7873 251.1944,290.5443 254.0203,290.2888 254.011,294.1038 257.7034,294.5813 259.8589,294.387 265.5012,293.1258" stroke="black" /><polygon fill="none" points="368.4135,217.2269 368.2669,216.9747 368.2172,216.8893 368.1378,216.7528 368.2933,216.4471 368.4381,216.3094 368.6406,216.1169 368.8129,215.9522 368.3877,215.3992 368.523,214.6907 368.8317,214.4068 369.7912,214.1708 370.0823,213.9366 370.1497,213.4041 369.7188,212.4044 368.7065,211.6252 367.9664,208.8073 365.1134,206.9097 364.8608,206.4451 364.9134,206.0255 365.6392,205.3605 365.6388,205.0598 364.6795,204.473 364.4253,203.132 364.1704,202.6371 363.539,202.1237 363.5888,201.6265 364.016,201.008 363.5323,199.4853 363.7583,198.3898 363.7865,198.3738 363.8013,198.3591 363.8107,198.3007 363.8165,198.2685 363.8224,198.2277 363.8428,198.1722 363.8691,198.1284 363.9041,198.0904 363.9421,198.0525 363.9829,198.0174 364.018,197.959 364.0355,197.9153 364.0495,197.8942 364.0705,197.8627 364.0822,197.8189 364.1114,197.7459 364.1202,197.6554 364.1465,197.5795 364.1611,197.5269 364.1873,197.4656 364.2253,197.413 364.2165,197.3546 364.2165,197.3284 364.2048,197.2846 364.1815,197.2495 364.1815,197.2028 364.1523,197.1561 364.1289,197.1181 364.0968,197.0773 364.0501,197.0393 364.0034,197.0159 363.9537,196.9926 364.0505,196.6743 366.655,193.7655 366.9478,192.9491 366.7448,191.9209 365.5571,190.9188 365.7489,189.91 366.0449,189.4049 366.7193,189.2964 368.4556,190.425 369.688,190.7193 370.6505,190.6106 371.8611,189.8821 371.9153,188.4736 372.4127,187.3239 372.72,186.9663 373.9768,186.392 374.0054,185.7856 374.0944,185.1733 375.151,184.9791 375.7609,184.3821 376.8753,182.5229 376.3796,180.9006 376.5795,180.5531 377.6722,180.6057 378.1269,180.3673 377.7235,179.0861 378.3039,178.0827 378.429,177.1338 379.8612,175.4859 379.5158,174.8837 381.4497,174.9195 381.9572,176.2603 385.2904,179.3723 386.7857,182.6849 388.3586,183.462 389.0274,184.3767 387.936,184.7964 387.0996,185.4397 386.6068,186.6806 388.0484,186.8501 389.1055,187.473 390.0382,187.6978 391.0704,188.8116 391.9545,190.6708 392.062,190.8967 392.404,192.3772 393.377,193.9717 393.3817,195.4152 394.3261,197.1155 395.11,197.8729 396.098,200.3305 410.7799,204.613 412.2037,203.3033 413.6832,203.493 414.1888,203.317 414.2441,203.2174 418.6937,198.7241 421.8273,194.4713 411.7544,226.395 408.3228,227.4285 408.3169,227.4305 408.2589,227.4479 400.8482,230.0763 396.0137,232.0407 394.4028,233.0104 392.7936,234.3299 390.7503,236.5178 390.2613,237.3311 390.1231,238.2091 391.4152,241.5549 391.5363,242.6951 390.965,244.045 389.5555,245.3312 388.8366,245.5994 386.7271,245.6683 385.8876,246.153 380.3365,252.0215 380.4313,252.5258 380.6425,252.6529 385.2329,253.3388 386.3939,253.9051 386.9256,254.3537 387.1375,255.4059 387.0308,255.8941 386.2552,256.6395 384.9553,257.1699 382.9126,257.5581 379.8665,258.8745 378.0736,255.9571 377.9833,254.5435 377.0311,254.2147 373.374,253.5843 372.758,253.2887 372.7501,251.9812 371.9918,251.556 372.1227,250.5403 371.8153,250.2687 370.7838,250.1006 369.9714,249.363 369.6464,248.641 369.6976,248.2361 369.8657,246.9103 370.4633,246.0798 369.8791,245.3815 369.7411,245.0486 369.8014,244.8245 370.887,244.0124 369.7205,242.6681 369.1645,240.193 369.4887,239.4092 370.7201,238.0985 370.4935,236.5656 369.9591,235.3073 370.1272,233.7985 369.4335,232.2305 368.8546,231.6866 367.3287,229.4043 366.8198,227.112 366.5096,226.6656 365.6172,226.251 364.7893,224.544 364.8767,224.0778 365.7816,223.6094 365.9134,223.3797 365.9684,223.2838 365.9014,222.8311 364.9152,222.4422 364.2613,222.4568 364.1165,222.4603 363.7903,222.2101 364.5022,220.4162 364.6765,220.2916 365.7925,220.0871 367.2326,220.3339 367.8303,219.8844 367.5564,219.233 368.6185,218.4728 368.8557,217.9874 368.4135,217.2269" stroke="black" /><polygon fill="none" points="307.8976,267.1488 291.8107,263.8639 288.0101,263.3461 286.7081,263.3215 257.4772,262.7685 257.4386,262.7677 244.5504,262.5239 247.493,235.2277 248.6198,218.8596 254.8704,222.6687 253.8291,223.5885 252.525,223.9753 252.2803,224.1007 252.1558,224.2682 252.1509,224.7728 252.4062,225.7587 252.4994,226.4758 252.581,227.9502 252.7329,228.3164 253.6566,229.5352 254.6029,230.4876 256.6728,232.2248 259.5906,233.6591 260.2579,234.4178 260.8063,235.5787 260.7335,236.8204 261.1898,237.9844 261.4836,238.5238 263.1243,239.9389 263.7337,240.8967 263.9654,241.7164 264.1695,241.837 265.2784,241.92 266.0867,241.92 267.2991,241.9039 268.851,241.9362 269.53,241.7907 270.7424,241.5644 271.0657,241.5967 271.4861,241.7746 271.874,242.0655 272.6289,242.5352 273.6199,242.5182 274.3474,242.3727 275.0587,242.2919 275.9317,242.2757 277.7069,242.0818 278.2172,241.8608 278.8935,241.4267 280.5341,240.052 281.6344,239.4327 281.8828,239.2342 282.0238,239.1215 282.6522,238.1997 282.8544,238.0255 283.0778,237.9215 283.8244,237.5739 285.2963,235.0362 285.8331,233.8379 286.1837,233.4019 287.1961,232.8493 287.8245,231.321 287.9281,230.4092 288.0818,230.114 289.2951,229.0682 289.7001,228.5148 290.5262,226.5263 291.598,225.3277 292.9724,224.4839 294.2818,224.0102 294.571,223.8211 295.2935,222.9642 295.8573,222.5282 295.9443,222.2813 296.5507,221.5694 296.8601,220.8509 297.1791,220.6318 298.2637,220.1663 299.4751,218.6005 300.244,218.9293 300.5543,218.9269 301.5402,218.6626 301.6694,218.787 301.7176,219.0525 301.6584,219.8122 301.7836,220.0709 302.2315,219.9446 302.7433,219.3845 303.5786,218.8815 305.3964,219.0518 305.5927,219.3318 305.4023,220.0161 305.3706,220.577 305.5963,220.9954 306.044,221.0268 306.5249,220.5583 306.522,219.2511 306.0709,217.8522 306.2619,217.23 306.6448,216.9019 307.4135,216.7142 308.2466,216.7746 308.5026,216.5866 308.694,216.2136 309.0131,216.0573 309.3341,216.305 309.3994,216.7092 309.6238,216.9897 310.1053,217.0665 310.9375,217.0025 311.1273,217.169 311.0967,217.4072 310.6828,218.0301 310.5879,218.4348 310.6833,218.9013 310.4964,220.014 310.4961,220.5974 310.7846,220.8153 311.1688,220.7212 311.3279,220.189 311.4863,219.133 311.7409,218.6658 312.4124,217.8556 312.4102,217.1236 312.2169,216.4403 311.6711,215.8805 310.5782,214.0877 310.7706,213.745 310.7366,213.2944 310.4164,213.0142 310.2238,212.6725 310.4472,212.4221 311.0234,212.2671 311.8559,212.1712 312.2076,211.9212 312.2071,211.6416 311.5661,211.1466 309.8996,210.8212 309.7707,210.5408 310.0905,210.447 310.7968,210.5707 311.597,210.5997 312.3969,210.4431 313.2609,209.9279 313.9969,209.7711 314.8642,210.983 315.1203,211.2301 315.6012,211.3545 316.0478,211.1043 316.3035,210.4655 316.3025,209.906 316.3966,209.5013 316.6216,209.2214 316.9736,209.2203 317.2624,209.4073 317.5835,209.8106 318.0007,210.0276 318.8328,210.0561 319.1539,210.2118 319.1856,210.5073 318.8341,210.6948 318.1955,211.2872 318.1968,211.5355 319.285,211.9072 320.4393,212.7764 320.6011,213.211 320.3129,213.4456 319.5451,213.5405 318.6474,213.4171 317.9104,213.1708 317.5899,213.1706 317.2633,213.3886 316.9179,213.3596 316.5657,213.08 315.8927,213.0966 314.7086,213.7221 314.3895,214.1267 314.2323,215.5271 314.3303,216.6003 314.5552,216.6936 314.8112,216.6315 315.0028,216.3197 315.0319,215.2613 315.1263,214.6998 315.5757,214.1088 315.8307,214.0147 316.1829,214.0456 316.5687,214.5578 316.602,215.3049 316.4433,216.0205 316.4452,216.9232 316.5415,217.2653 316.8621,217.4206 317.5671,217.2942 317.8231,217.4646 317.8238,217.8069 317.6005,218.1808 317.0247,218.6803 316.1936,219.0859 315.6495,219.5225 315.2024,219.7731 314.7862,220.2093 314.691,220.6616 315.0434,220.7536 316.195,220.4402 317.0914,219.9708 318.3123,218.7144 320.6674,214.8762 321.0834,214.626 321.5319,214.6561 322.3981,215.2771 322.9421,215.3225 323.3271,215.1976 323.9347,215.2588 324.2887,215.5692 324.6108,216.5015 324.5801,216.9687 324.1956,217.3432 323.9087,217.9348 323.974,218.5417 324.2952,218.8522 324.5194,219.2246 324.5516,219.536 323.3702,220.9082 322.4106,221.5942 322.0923,221.9991 321.8377,222.9175 321.3894,223.0742 321.0364,222.8258 320.5875,222.329 320.3622,222.3918 319.1814,223.9184 318.3518,224.8543 318.1916,225.2437 318.4162,225.7097 319.7937,225.7693 321.748,226.2949 322.2919,226.2245 323.0525,225.5813 324.4675,224.8414 324.4674,224.593 323.6974,224.3137 323.4727,223.9413 324.473,222.9845 325.9355,222.116 326.6307,221.6159 327.6966,222.2261 340.252,229.4084 340.6221,229.3558 342.8666,229.6013 369.8791,245.3815 370.4633,246.0798 369.8657,246.9103 369.6976,248.2361 369.6464,248.641 369.9714,249.363 370.7838,250.1006 371.8153,250.2687 372.1227,250.5403 371.9918,251.556 372.7501,251.9812 372.758,253.2887 373.374,253.5843 377.0311,254.2147 377.9833,254.5435 378.0736,255.9571 379.8665,258.8745 376.4529,261.5832 375.4282,262.1839 373.8211,262.6534 372.9322,263.4364 372.1802,263.7373 371.4614,263.8727 365.6079,263.7693 361.5791,262.837 359.064,262.703 355.6113,262.1634 352.3568,262.0697 349.1051,262.3592 346.7111,262.9303 345.2203,263.5987 343.0181,265.2501 340.8662,267.3988 335.9759,269.5713 334.9838,269.7898 332.8604,269.3954 331.9017,269.4977 331.1494,269.8311 330.6721,270.5151 330.2638,271.7127 309.0822,267.3907 307.8976,267.1488" stroke="black" /><polygon fill="none" points="47.6571,286.5972 47.5084,286.4743 44.2885,276.4373 47.4303,261.7725 52.8923,262.0976 54.68,258.1872 54.9141,257.3911 56.4834,252.0556 58.7349,251.5615 59.2099,251.2953 59.879,250.1111 61.9043,248.7325 63.009,247.5467 69.4356,252.1049 69.9513,253.1128 71.5424,254.4284 71.8192,254.0349 72.7582,252.698 77.3762,246.1231 77.5227,245.9963 102.401,224.4581 105.8041,237.9697 105.9207,237.8923 105.7396,245.5611 105.7184,245.6349 104.2149,250.8329 99.1522,260.1418 97.0351,263.4695 95.3171,263.8685 94.6789,264.4883 94.644,265.1772 95.6565,266.8112 94.0065,268.8285 92.6287,270.1365 91.2477,270.7917 90.8583,271.0674 90.3099,271.8781 89.3887,272.4288 87.4035,272.2587 86.5001,272.2776 85.7916,272.4502 84.8698,273.0363 84.5162,273.6912 84.2165,274.7413 84.75,275.8768 86.0974,276.6322 86.4169,277.2517 85.9747,278.1302 82.983,280.5946 81.7915,281.3145 76.0134,284.6745 75.0671,285.4235 74.4831,286.628 73.9557,287.23 70.8831,289.0038 69.5642,290.4928 66.1128,291.8418 63.7794,293.4413 61.0513,296.7471 59.227,298.1633 58.7075,298.4096 59.2739,296.2679 47.6571,286.5972" stroke="black" /><polygon fill="none" points="74.4615,222.1763 70.4242,217.3237 66.4839,212.5877 65.5417,211.4551 63.7834,209.3419 58.2127,203.6926 54.7616,200.1929 56.5982,195.8906 56.9942,195.4481 58.0258,194.2951 58.6801,193.862 60.6794,193.2523 61.5902,193.2516 61.7498,191.8022 62.2048,191.3463 64.5092,191.1829 66.0439,189.7483 66.6499,188.6059 65.4706,187.8556 65.3305,187.1398 65.3864,185.7242 65.1481,185.418 65.1463,185.4156 64.306,185.153 64.2889,185.1477 63.5668,183.1472 63.5631,183.137 64.3488,183.2304 65.3597,182.8665 67.0746,181.4439 68.1231,180.098 68.2648,179.9162 69.53,180.1119 70.2879,179.7669 71.1402,178.5224 71.3972,178.147 72.6142,177.6021 72.5562,176.4349 72.5557,176.4264 72.9387,175.638 73.6307,175.2551 74.455,174.3606 75.7455,173.9232 76.5214,172.9047 77.6125,172.5876 78.2686,172.1443 79.6586,170.4241 79.6724,170.4362 80.1642,170.8656 80.1723,170.8645 80.8722,170.7669 81.2261,170.3239 83.5742,169.9382 83.5771,169.9377 83.5889,169.9317 83.5924,169.9299 83.6017,169.9251 84.1322,169.6541 84.8025,168.3756 85.1529,168.1482 88.2391,169.0518 89.5146,168.8748 90.3854,168.0554 91.6018,168.4614 92.6462,168.5139 93.9055,167.601 93.9228,167.6087 94.3875,167.8152 94.4425,168.1366 93.503,170.792 92.7331,172.3484 92.6254,173.4227 93.3491,174.1189 93.3589,174.1186 95.4192,174.0473 95.4319,174.0548 96.0819,174.4374 95.4164,177.0137 95.4705,177.2454 95.4166,177.4962 96.2124,179.4488 96.7328,180.3863 96.7472,180.3875 97.7241,180.471 97.7266,180.477 98.0181,181.1869 98.8395,182.2142 99.4032,182.7263 101.0522,184.223 101.8107,184.5614 101.8128,184.5617 102.2677,184.6374 103.2656,184.2401 104.2585,183.3267 106.6692,183.6448 107.3,183.243 107.3921,182.0943 109.2579,182.1775 110.7005,180.9789 110.7515,179.2329 110.2479,175.9138 110.3594,175.1443 110.9747,174.648 110.9905,174.6568 111.6456,175.0254 112.0328,175.913 113.4256,176.9033 113.7784,177.4504 114.169,179.0104 114.1697,179.0121 114.3681,179.5593 111.408,184.9467 111.6544,188.651 110.0565,200.8175 109.902,201.1407 108.6649,203.5211 106.5739,206.1522 105.51,207.8923 104.8893,209.1167 104.1733,211.33 103.8732,212.7405 101.917,215.5129 99.6617,217.1798 98.9195,218.0314 98.0267,220.2177 98.1368,221.7689 98.0052,222.017 97.7742,222.2157 96.9268,222.5716 96.3524,223.161 95.9535,223.278 95.5514,222.9356 95.174,221.8922 94.7745,221.4908 93.5152,221.3606 91.9973,220.0832 91.139,219.8059 90.7389,219.9562 90.0811,220.6508 89.2684,222.2208 88.9698,223.2685 88.2828,223.8002 87.5445,224.8789 86.999,224.9569 86.0473,224.5641 85.2457,224.6579 84.2339,225.5025 82.8897,225.7976 82.2183,226.3795 81.7276,226.8048 81.2723,226.4634 80.0957,226.6633 79.1692,226.2015 78.9691,225.7529 79.0108,222.2936 74.4615,222.1763" stroke="black" /><polygon fill="none" points="110.0565,200.8175 111.6544,188.651 111.408,184.9467 114.3681,179.5593 114.5208,179.9802 114.5213,179.9816 115.7016,180.8354 115.7058,180.8332 117.744,179.7722 118.4836,179.977 120.2625,179.9741 123.6426,179.2515 123.6578,179.2594 124.1719,179.5242 125.6012,181.5415 128.2273,182.7409 129.9716,183.9649 129.9785,183.9647 130.7728,183.9338 131.2571,183.7241 132.8387,181.1562 134.7916,179.7501 136.4115,179.1323 137.3813,177.4182 138.2438,176.9117 139.9287,176.3414 142.0861,176.5981 143.88,175.9092 144.5289,175.3301 144.7618,174.4004 144.7689,174.3723 144.777,174.3399 144.7917,174.281 144.8224,174.1587 144.848,174.0565 144.8584,174.0149 144.8636,173.9942 144.8745,173.9507 145.5954,175.1062 147.3797,176.6768 148.4857,177.2342 149.1443,177.2819 150.0627,176.5654 151.2723,178.2276 150.9776,191.1736 148.6165,195.8102 148.8671,196.1527 150.0298,197.7421 156.8187,207.0249 157.0344,220.1652 143.623,228.2977 143.0455,228.2151 138.4401,231.5343 128.7681,226.5796 128.1435,226.2599 127.8463,226.1078 127.641,226.2015 114.2137,232.3321 105.9207,237.8923 105.8041,237.9697 102.401,224.4581 102.1857,223.6035 101.2773,219.9966 106.8485,212.9527 107.6426,211.3008 109.9287,202.0207 109.9098,201.3991 109.9032,201.1814 109.902,201.1407 110.0565,200.8175" stroke="black" /><polygon fill="none" points="194.5236,174.525 190.7104,169.4777 185.179,164.7462 185.168,164.1336 184.17,163.3653 183.9002,162.6338 185.0206,159.9951 185.8715,159.4744 186.6746,159.5678 188.0464,158.3329 188.2147,157.3565 187.7999,155.1698 187.9059,153.0122 187.6367,152.3978 187.5871,151.4283 187.9997,150.3407 189.2392,149.5584 190.6619,148.9893 191.6112,149.082 192.7318,149.7659 193.4373,149.7171 194.348,149.1006 195.7353,148.6028 195.9533,147.9637 196.4882,147.4901 197.6313,147.2523 197.7648,146.8972 196.643,145.3383 196.2272,144.3077 196.2158,144.099 196.4002,143.9764 196.4794,143.1455 196.9485,142.4304 197.4264,142.0294 197.9948,141.9717 198.1584,141.9551 198.7856,141.3926 200.106,140.4327 200.8921,138.9013 200.6227,137.7161 201.1064,136.277 203.0154,135.2803 204.5466,134.1437 204.7753,133.4748 204.5187,131.8545 205.0398,130.5965 205.6957,130.0514 206.4014,129.8382 210.1175,129.691 212.8362,129.1433 213.6872,128.6685 214.1237,128.1238 214.4391,127.5796 214.6445,126.279 215.6872,124.1256 216.1732,123.6285 217.0395,123.4413 217.9623,124.5478 218.6687,124.6177 219.3997,124.5218 220.5045,123.6533 231.2121,145.1526 231.3855,145.501 231.3913,145.5124 231.7375,146.2076 232.9758,148.6939 233.6158,149.9788 236.9415,152.1323 237.907,152.8965 238.3513,153.5894 238.584,154.2484 238.8413,154.4721 239.5608,154.5459 239.7673,154.7706 239.9481,155.3443 240.2307,155.5439 240.694,155.7177 240.8437,156.1211 240.063,156.9199 239.7963,157.4344 239.5931,158.3041 239.3625,158.6043 238.8744,158.7549 237.3581,158.7574 236.3052,159.0335 235.3297,159.5729 234.6375,160.4971 234.3551,161.072 234.3053,161.5718 234.4361,162.8627 234.8745,163.7855 235.2885,165.1974 235.8294,166.3945 236.3955,166.867 237.0126,167.0912 237.4752,166.9409 237.7059,166.3781 237.4198,166.0776 236.6769,165.7058 236.5482,165.3792 236.8286,164.6819 236.7751,163.7088 237.0572,163.0082 236.9791,162.5219 236.7732,162.1222 237.3897,161.8464 237.776,161.4678 238.2604,160.2964 238.5418,159.8464 238.722,159.7715 238.8504,159.9589 238.6974,160.5581 238.8015,161.2577 238.7002,161.9311 238.4958,162.6065 238.6761,163.1051 239.653,163.3783 242.2232,163.7856 244.6894,163.6831 245.2303,163.8555 246.309,163.8415 246.6687,163.7159 248.3131,163.5376 248.8787,163.9369 248.9558,164.2609 248.7779,164.9487 247.2124,166.2373 246.0873,169.2856 245.7301,170.5598 245.4735,170.9105 245.3722,171.9088 244.8077,172.4095 243.781,173.0606 242.6504,173.2623 241.9321,173.7382 241.4713,174.3881 241.4721,175.0367 242.4016,177.2991 242.4556,178.8065 242.7629,178.806 243.482,178.5552 245.7949,178.651 246.0516,178.2012 246.3061,177.0018 246.5109,176.7269 248.5662,176.1235 249.2842,175.6229 249.9006,174.9227 250.6708,174.4715 252.0577,174.3451 252.5206,174.5431 252.5211,174.9436 252.6245,175.0919 253.0349,174.8925 253.7531,173.892 254.9842,172.6416 256.1119,171.6652 256.7807,171.4146 257.7576,171.2624 258.7849,171.2107 258.9904,171.3109 258.8887,172.1349 259.4344,173.2287 259.5471,173.4546 259.6108,173.5824 260.177,174.1804 260.2293,174.5297 259.8203,175.6791 259.8214,176.2784 260.441,177.6015 260.4929,178.0502 261.6787,180.0965 262.2463,181.343 262.608,182.4659 263.3288,183.0147 265.5944,184.0098 266.7211,184.2816 267.3405,184.581 267.9889,184.6584 268.1627,184.6792 269.5501,184.6264 269.8086,185.0257 269.964,185.6242 270.3246,186.3979 270.3368,186.9233 269.7558,187.3987 269.5941,187.7602 269.5943,188.1442 269.9434,188.3696 270.3632,188.3691 258.6019,198.3295 254.7974,201.5511 253.8698,202.3365 243.6579,198.7536 234.4146,198.0319 225.6982,196.6057 204.8773,188.2237 194.9123,175.0394 194.5236,174.525" stroke="black" /><polygon fill="none" points="367.5564,219.233 367.8303,219.8844 367.2326,220.3339 365.7925,220.0871 364.6765,220.2916 364.5022,220.4162 363.7903,222.2101 364.1165,222.4603 364.2613,222.4568 364.9152,222.4422 365.9014,222.8311 365.9684,223.2838 365.9134,223.3797 365.7816,223.6094 364.8767,224.0778 364.7893,224.544 365.6172,226.251 366.5096,226.6656 366.8198,227.112 367.3287,229.4043 368.8546,231.6866 369.4335,232.2305 370.1272,233.7985 369.9591,235.3073 370.4935,236.5656 370.7201,238.0985 369.4887,239.4092 369.1645,240.193 369.7205,242.6681 370.887,244.0124 369.8014,244.8245 369.7411,245.0486 369.8791,245.3815 342.8666,229.6013 340.6221,229.3558 340.252,229.4084 327.6966,222.2261 326.6307,221.6159 326.8447,221.301 328.1831,220.345 328.4701,220.0194 328.8986,219.1112 329.2781,217.5063 329.6356,216.936 330.6629,216.0261 330.7324,213.986 332.0454,213.7102 332.5232,213.4066 332.977,212.9883 333.3589,212.2679 335.1528,212.1345 335.6073,211.8775 335.751,211.5754 335.7962,211.1336 335.6285,210.7966 334.7653,210.2876 334.5976,210.0319 334.6695,209.8217 335.1946,209.4723 335.6259,209.3326 335.9837,208.9938 335.8159,208.8316 334.5527,208.7837 334.3322,208.5323 334.3555,208.184 335.12,207.9262 335.3113,207.7048 335.3345,207.2395 335.739,206.5193 335.6899,206.0068 335.3068,205.7056 334.5163,205.3115 333.3439,205.2801 332.6266,205.351 332.4581,205.0718 332.5511,203.6768 332.383,203.2704 331.136,202.1572 330.8947,201.1581 331.0115,199.7041 331.3932,199.3786 331.8959,199.3538 332.6869,199.7234 333.3334,200.2346 334.6758,201.4986 336.3053,202.4485 337.0473,202.7373 338.2936,202.5259 339.1766,202.617 339.2954,202.4186 339.2937,201.5349 339.4127,201.2331 339.8429,201.1386 340.2034,201.2311 341.1594,201.2297 341.637,201.03 341.7783,200.7735 341.97,200.4244 341.4197,199.7988 341.3231,199.5439 341.633,198.9607 341.3688,198.4389 341.5554,197.2305 341.1732,196.5558 338.1793,194.203 337.8171,193.6914 337.7697,193.3545 338.6747,191.9571 344.7788,195.3225 351.1276,199.5646 359.2909,207.9676 359.645,208.3321 361.9946,210.7505 362.5553,210.5512 362.9063,210.255 363.2569,210.095 364.0166,210.1812 365.0148,210.7393 365.3187,210.8072 366.0683,210.5548 366.4891,210.5544 367.0279,210.6663 367.2623,210.9394 367.4039,211.325 367.9593,214.7137 368.3877,215.3992 368.8129,215.9522 368.6406,216.1169 368.4381,216.3094 368.2933,216.4471 368.1378,216.7528 368.2172,216.8893 368.2669,216.9747 368.4135,217.2269 368.8557,217.9874 368.6185,218.4728 367.5564,219.233" stroke="black" /><polygon fill="none" points="313.7568,74.4941 313.7032,73.4386 313.6091,73.4527 312.2883,73.6534 309.81,73.7225 308.9004,74.0539 308.5031,74.2804 307.9415,74.7844 307.4411,75.1114 306.702,75.4172 306.0598,75.5293 305.0728,75.3558 304.2545,75.3311 303.5664,75.4609 301.712,76.3644 300.2715,77.1903 298.7654,77.362 297.9753,78.0666 297.6239,78.5489 272.4931,75.4152 267.8622,74.8331 267.9544,74.5155 267.7098,74.1785 267.7702,74.1025 270.1355,71.4137 270.3344,70.2718 270.8493,68.9772 271.2777,68.4016 271.2478,67.7691 271.4197,67.3377 271.7628,67.049 272.3362,66.9192 272.7049,66.6335 273.1661,66.055 273.481,65.8533 273.9692,65.8235 274.6589,66.5122 275.0312,66.6552 275.3329,66.6309 275.5323,66.6148 275.7426,66.2591 275.7647,65.9801 276.0122,65.4978 276.7261,65.0109 276.9943,64.8282 277.5005,63.7782 277.8167,63.3552 278.9899,62.3154 280.0894,61.8295 280.6615,61.889 281.8834,62.5672 282.5769,62.8443 283.8894,64.2476 284.034,63.7546 285.0177,60.4044 286.2267,56.2868 303.3801,47.871 303.5186,47.8031 312.4649,43.4138 314.7995,42.2684 315.4278,41.9603 315.4405,41.9541 315.6178,41.8671 316.1389,41.6115 317.0772,41.1513 317.4175,39.6404 317.7013,38.3806 320.0973,27.7442 320.2958,26.8632 320.726,24.9539 330.5309,0.0879 341.3032,21.6161 341.7616,22.5322 341.7839,22.5767 342.2646,23.5374 342.388,23.7844 331.1751,27.0569 331.6385,34.6641 331.9397,39.5798 334.7644,85.6928 315.4774,97.4272 315.2659,96.8904 315.49,96.3414 315.7631,96.0666 315.6172,95.544 314.9873,95.0052 314.0139,94.4761 313.6026,94.0975 313.6425,93.7606 314.1241,93.2759 314.0908,92.7522 313.8006,92.4635 313.7764,92.1497 314.3063,91.6969 314.2154,90.6091 314.6335,90.3836 314.8258,89.7958 315.0416,89.4158 315.3396,89.1337 315.3945,88.8276 315.3138,88.5458 314.8554,88.345 314.6289,87.9186 314.3938,87.0401 313.7568,74.4941" stroke="black" /><polygon fill="none" points="365.6079,263.7693 371.4614,263.8727 372.1802,263.7373 372.9322,263.4364 373.8211,262.6534 375.4282,262.1839 376.4529,261.5832 379.8665,258.8745 386.8802,262.175 387.4577,262.749 387.4421,263.5458 386.5525,264.9134 383.2257,267.6898 382.7599,268.1939 382.3245,269.3339 382.3147,271.6974 382.9678,272.7731 385.0757,274.1326 386.4215,276.2119 388.1842,277.5721 388.6068,278.0736 388.7403,278.6374 388.9133,279.3678 388.8036,280.048 388.4974,280.3001 386.6989,280.664 385.3978,280.7386 382.184,280.131 380.0004,280.1026 377.8176,280.0743 374.1021,279.724 371.4226,279.2278 370.0505,279.3853 367.3675,280.3147 365.5295,280.1385 363.9227,280.4658 363.1196,280.9699 361.2096,282.8419 357.5047,287.2454 357.6938,288.1779 358.1074,288.5106 360.9479,289.6009 361.9821,290.2063 362.0869,290.9783 361.8788,291.5414 361.0672,292.0442 358.1444,292.7845 357.7783,292.8902 355.287,293.6099 354.0512,294.078 352.9294,294.6707 349.9006,297.0264 349.4864,297.4902 348.7844,298.5439 348.4664,300.0042 343.6993,299.7529 341.8859,298.8077 341.2899,298.9204 340.3039,299.614 339.5473,299.839 338.6286,299.6731 337.1777,298.3439 326.8878,294.9082 321.2893,293.0388 321.2785,292.8997 320.542,283.3507 317.8593,277.4154 327.3588,273.9965 328.7612,273.1451 330.2638,271.7127 330.6721,270.5151 331.1494,269.8311 331.9017,269.4977 332.8604,269.3954 334.9838,269.7898 335.9759,269.5713 340.8662,267.3988 343.0181,265.2501 345.2203,263.5987 346.7111,262.9303 349.1051,262.3592 352.3568,262.0697 355.6113,262.1634 359.064,262.703 361.5791,262.837 365.6079,263.7693" stroke="black" /><polygon fill="none" points="133.8148,321.8986 133.5595,321.9114 132.1422,321.4565 132.0286,321.4201 131.9657,321.3997 130.5902,320.9584 128.5504,321.0278 126.7326,322.7017 126.0599,323.8316 125.1888,323.9324 122.9777,323.2693 121.4669,322.029 116.7126,320.0524 115.7863,319.393 116.8222,310.4704 117.231,306.9546 118.2779,297.9518 117.4666,293.0508 117.7587,291.5853 117.7963,291.0338 117.3645,290.2496 117.3052,289.847 117.5992,289.453 118.4231,288.9009 118.5016,288.6268 117.8892,286.2686 117.9674,286.0228 118.399,285.8067 119.5965,285.4512 120.1649,285.1747 120.6351,284.781 121.4004,283.9054 121.88,283.2239 122.1059,282.9027 122.7917,282.2531 123.4749,281.8426 123.9842,281.3215 124.4541,280.614 124.8718,279.6513 125.1202,279.4924 125.5517,279.5214 126.5144,279.893 127.5748,280.1679 128.0459,280.1666 128.4779,280.0578 128.9676,279.6636 129.4378,279.0355 129.5944,278.3857 129.6307,276.2233 129.8068,275.5844 130.297,275.2893 130.8069,275.2885 131.3471,275.5793 132.1039,276.1328 132.516,276.141 132.9474,275.7078 133.6521,274.4688 134.1818,274.0562 143.6227,276.2044 145.6447,276.5262 146.391,276.9183 147.1565,276.8974 147.7255,276.7497 148.3628,276.2628 148.8238,275.765 149.2292,275.6505 149.942,275.606 151.0857,275.3216 151.4098,275.2406 151.6299,275.2984 151.8068,275.6132 152.3763,275.7891 153.1216,275.4443 153.514,275.5024 153.8286,275.68 153.9467,276.0129 153.751,276.6621 153.9484,277.1334 154.3812,277.7417 155.7769,279.2247 156.3634,279.7726 156.6002,279.8735 157.0967,279.5762 157.5621,279.6362 157.7301,279.5536 157.7997,298.9728 157.8047,300.3299 162.7427,302.5353 163.1908,303.2476 168.2535,311.2953 163.3431,316.1047 162.246,317.5293 162.0636,324.7635 155.3546,340.2257 153.15,335.1114 152.7922,334.2811 152.729,334.1344 146.5022,332.6768 146.4148,330.8152 143.8436,329.8925 139.3101,327.6725 144.7057,321.3519 133.8148,321.8986" stroke="black" /><polygon fill="none" points="359.2909,207.9676 351.1276,199.5646 344.7788,195.3225 338.6747,191.9571 349.3751,184.58 353.5675,181.6908 347.2274,169.757 347.5168,169.9675 362.5371,180.8863 362.6576,180.9739 364.1891,181.7127 374.0054,185.7856 373.9768,186.392 372.72,186.9663 372.4127,187.3239 371.9153,188.4736 371.8611,189.8821 370.6505,190.6106 369.688,190.7193 368.4556,190.425 366.7193,189.2964 366.0449,189.4049 365.7489,189.91 365.5571,190.9188 366.7448,191.9209 366.9478,192.9491 366.655,193.7655 364.0505,196.6743 363.9537,196.9926 364.0034,197.0159 364.0501,197.0393 364.0968,197.0773 364.1289,197.1181 364.1523,197.1561 364.1815,197.2028 364.1815,197.2495 364.2048,197.2846 364.2165,197.3284 364.2165,197.3546 364.2253,197.413 364.1873,197.4656 364.1611,197.5269 364.1465,197.5795 364.1202,197.6554 364.1114,197.7459 364.0822,197.8189 364.0705,197.8627 364.0495,197.8942 364.0355,197.9153 364.018,197.959 363.9829,198.0174 363.9421,198.0525 363.9041,198.0904 363.8691,198.1284 363.8428,198.1722 363.8224,198.2277 363.8165,198.2685 363.8107,198.3007 363.8013,198.3591 363.7865,198.3738 363.7583,198.3898 363.5323,199.4853 364.016,201.008 363.5888,201.6265 363.539,202.1237 364.1704,202.6371 364.4253,203.132 364.6795,204.473 365.6388,205.0598 365.6392,205.3605 364.9134,206.0255 364.8608,206.4451 365.1134,206.9097 367.9664,208.8073 368.7065,211.6252 369.7188,212.4044 370.1497,213.4041 370.0823,213.9366 369.7912,214.1708 368.8317,214.4068 368.523,214.6907 368.3877,215.3992 367.9593,214.7137 367.4039,211.325 367.2623,210.9394 367.0279,210.6663 366.4891,210.5544 366.0683,210.5548 365.3187,210.8072 365.0148,210.7393 364.0166,210.1812 363.2569,210.095 362.9063,210.255 362.5553,210.5512 361.9946,210.7505 359.645,208.3321 359.2909,207.9676" stroke="black" /><polygon fill="none" points="93.1711,342.0385 91.4481,340.4952 91.3116,340.3841 89.863,339.2033 89.5659,338.9934 89.5157,338.958 88.7735,338.4336 88.6886,338.3736 88.3705,338.1489 86.9968,337.1784 86.1985,336.178 85.0575,336.0678 85.0553,336.0682 84.446,336.1738 84.4212,336.1615 83.292,336.3277 83.0326,336.3659 77.0327,337.1625 75.7582,337.526 74.6687,338.083 73.5966,338.2206 73.1193,338.056 71.9833,337.0477 70.9255,336.4799 67.7945,336.2168 66.9396,335.3298 66.2538,333.7773 64.6267,333.7051 63.2602,333.1409 63.52,331.4907 62.8458,329.0015 61.9242,328.148 61.3244,328.0178 59.68,328.2147 54.842,329.8667 50.7879,329.7017 47.0971,330.6078 45.7627,331.286 45.2096,330.9711 45.0888,330.498 46.0561,328.3182 46.5346,326.6063 46.6958,322.6528 46.1122,319.7653 44.8527,317.8346 43.3342,316.5339 43.1817,315.561 43.5494,314.322 44.1121,313.4545 46.7062,311.1073 48.6809,307.7146 50.0174,305.9649 55.4475,301.8837 57.907,299.5629 58.2782,299.0836 58.3425,298.6486 58.6563,298.6058 58.7075,298.4096 59.227,298.1633 61.0513,296.7471 63.7794,293.4413 66.1128,291.8418 69.5642,290.4928 70.8831,289.0038 73.9557,287.23 74.4831,286.628 75.0671,285.4235 76.0134,284.6745 81.7915,281.3145 87.4821,293.08 87.5401,293.1998 88.4409,305.6665 107.9767,300.6151 110.7126,299.9078 112.4817,299.4504 118.2779,297.9518 117.231,306.9546 116.8222,310.4704 115.7863,319.393 114.5591,324.0724 114.5092,325.5099 113.8974,343.1674 112.4012,348.1719 112.3831,348.2326 110.5988,354.203 112.3806,358.2768 110.1372,357.8472 106.9964,358.5454 104.2814,360.7931 104.0727,358.552 103.6104,357.4016 102.954,356.8574 100.6176,357.7716 98.8416,358.0316 98.8404,358.0314 98.2981,357.8661 97.8157,357.2966 97.7584,357.0271 98.0768,354.7449 97.9926,354.0583 97.8208,353.2318 97.0609,351.0629 97.0608,350.6108 97.7211,349.74 97.6112,349.1878 96.3608,348.9458 94.3957,346.6782 94.0691,345.9345 93.9096,343.2339 93.747,342.9706 93.2371,342.1453 93.1711,342.0385" stroke="black" /><polygon fill="none" points="112.3831,348.2326 112.4012,348.1719 113.8974,343.1674 114.5092,325.5099 114.5591,324.0724 115.7863,319.393 116.7126,320.0524 121.4669,322.029 122.9777,323.2693 125.1888,323.9324 126.0599,323.8316 126.7326,322.7017 128.5504,321.0278 130.5902,320.9584 131.9657,321.3997 132.0286,321.4201 132.1422,321.4565 133.5595,321.9114 133.8148,321.8986 144.7057,321.3519 139.3101,327.6725 138.6062,330.1177 138.1244,330.9269 136.9432,332.4435 134.1541,334.5962 133.5508,339.4985 133.2322,340.2601 129.8134,343.8593 110.5988,354.203 112.3831,348.2326" stroke="black" /><polygon fill="none" points="203.672,230.315 213.6101,225.842 236.1236,233.1683 247.493,235.2277 244.5504,262.5239 228.5165,291.2425 227.4322,298.6872 227.0457,301.3469 225.6529,310.932 215.2803,316.1084 196.8412,325.3141 188.5485,316.5409 185.688,313.5139 184.2221,315.795 182.3081,316.5553 178.7315,322.4965 162.0636,324.7635 162.246,317.5293 163.3431,316.1047 168.2535,311.2953 163.1908,303.2476 162.7427,302.5353 157.8047,300.3299 157.7997,298.9728 157.7301,279.5536 157.3974,279.1217 152.6058,272.8987 154.8171,269.9073 156.0637,268.0748 156.761,266.7199 156.9808,264.9672 157.0287,260.47 165.2968,255.695 170.6205,252.6207 182.8633,247.0365 183.0636,246.9451 183.2293,246.6748 187.8711,239.0954 193.4026,235.0244 194.5152,234.4372 203.672,230.315" stroke="black" /><polygon fill="none" points="312.3969,210.4431 311.597,210.5997 310.7968,210.5707 310.0905,210.447 309.7707,210.5408 309.8996,210.8212 311.5661,211.1466 312.2071,211.6416 312.2076,211.9212 311.8559,212.1712 311.0234,212.2671 310.4472,212.4221 310.2238,212.6725 310.4164,213.0142 310.7366,213.2944 310.7706,213.745 310.5782,214.0877 311.6711,215.8805 312.2169,216.4403 312.4102,217.1236 312.4124,217.8556 311.7409,218.6658 311.4863,219.133 311.3279,220.189 311.1688,220.7212 310.7846,220.8153 310.4961,220.5974 310.4964,220.014 310.6833,218.9013 310.5879,218.4348 310.6828,218.0301 311.0967,217.4072 311.1273,217.169 310.9375,217.0025 310.1053,217.0665 309.6238,216.9897 309.3994,216.7092 309.3341,216.305 309.0131,216.0573 308.694,216.2136 308.5026,216.5866 308.2466,216.7746 307.4135,216.7142 306.6448,216.9019 306.2619,217.23 306.0709,217.8522 306.522,219.2511 306.5249,220.5583 306.044,221.0268 305.5963,220.9954 305.3706,220.577 305.4023,220.0161 305.5927,219.3318 305.3964,219.0518 303.5786,218.8815 302.7433,219.3845 302.2315,219.9446 301.7836,220.0709 301.6584,219.8122 301.7176,219.0525 301.6694,218.787 301.5402,218.6626 300.5543,218.9269 300.244,218.9293 299.4751,218.6005 300.9909,217.2316 302.0697,216.465 302.6169,215.9486 302.6333,215.3618 302.2302,214.5359 301.6801,213.8792 301.3864,213.7555 300.7833,213.8814 299.5588,214.4703 299.0099,214.6139 298.3876,214.6413 298.2785,214.4638 298.4061,214.109 300.2861,212.3104 300.8876,211.0247 301.0146,210.6338 301.0677,209.4087 301.3936,208.3605 301.5245,207.5158 300.9943,206.0189 300.9934,205.5057 301.6785,204.009 301.8609,202.8258 302.0204,202.4808 302.6167,201.9656 302.8226,201.6751 303.0222,200.787 303.0236,199.1495 302.9798,198.811 302.9962,198.808 302.9735,198.6348 302.9734,198.6338 302.9722,198.5164 302.971,198.4093 302.9681,198.1287 302.968,198.1197 302.9612,197.4684 302.96,197.363 302.9666,197.2191 302.975,197.065 302.9793,196.9852 302.9832,196.9144 302.9875,196.8354 302.9879,196.8286 302.9883,196.8235 302.9894,196.8104 302.9902,196.8016 302.9974,196.7185 302.9965,196.6321 302.9957,196.5558 304.0009,194.0959 302.3163,189.7243 283.4821,178.5517 283.7781,178.0119 284.1829,177.641 284.4378,177.2773 284.554,176.8382 284.5537,176.4752 284.4354,176.1308 284.8458,175.7643 284.7879,175.5536 284.8852,175.2482 285.4808,175.115 286.0067,175.1555 286.3273,175.0318 286.7169,174.5706 287.526,173.9722 287.7624,173.6563 287.9157,173.2593 287.9559,172.3494 288.2614,171.0103 288.7304,170.4101 289.135,170.1892 289.6519,169.6645 291.0939,168.8116 291.4338,168.3548 291.8317,168.0129 292.3393,167.0401 292.3975,166.3868 292.3177,165.9468 292.3164,165.2262 292.5508,164.7313 293.6243,163.5732 293.8182,163.2778 293.989,162.469 294.4745,161.921 294.8168,161.6719 295.1063,161.1673 295.1666,160.0577 295.5164,158.6448 295.6164,157.2549 296.0148,156.8568 296.9115,156.3465 297.7973,155.6783 298.0327,154.382 298.1749,154.008 298.5768,153.4579 299.2327,153.0772 299.9014,152.4839 300.611,150.8867 301.0171,150.1924 301.2816,149.2804 301.3602,148.3109 301.3004,147.5567 302.1554,147.6733 302.6863,147.8402 302.9928,148.0972 303.361,148.5922 304.0752,149.0466 304.3838,149.3314 304.5036,149.7579 304.9846,150.2612 305.2302,151.0298 305.6774,144.9338 306.0423,145.2618 307.1197,145.7346 309.0901,146.4376 314.1958,146.3362 317.205,146.4518 317.5519,146.6521 320.5597,146.665 320.8139,146.5179 321.0238,146.5308 323.0204,146.6536 323.2134,146.7943 335.5055,155.7652 336.1082,156.037 338.1505,156.7262 339.811,157.4891 340.3029,158.0702 346.0744,167.5858 347.2274,169.757 353.5675,181.6908 349.3751,184.58 338.6747,191.9571 337.7697,193.3545 337.8171,193.6914 338.1793,194.203 341.1732,196.5558 341.5554,197.2305 341.3688,198.4389 341.633,198.9607 341.3231,199.5439 341.4197,199.7988 341.97,200.4244 341.7783,200.7735 341.637,201.03 341.1594,201.2297 340.2034,201.2311 339.8429,201.1386 339.4127,201.2331 339.2937,201.5349 339.2954,202.4186 339.1766,202.617 338.2936,202.5259 337.0473,202.7373 336.3053,202.4485 334.6758,201.4986 333.3334,200.2346 332.6869,199.7234 331.8959,199.3538 331.3932,199.3786 331.0115,199.7041 330.8947,201.1581 331.136,202.1572 332.383,203.2704 332.5511,203.6768 332.4581,205.0718 332.6266,205.351 333.3439,205.2801 334.5163,205.3115 335.3068,205.7056 335.6899,206.0068 335.739,206.5193 335.3345,207.2395 335.3113,207.7048 335.12,207.9262 334.3555,208.184 334.3322,208.5323 334.5527,208.7837 335.8159,208.8316 335.9837,208.9938 335.6259,209.3326 335.1946,209.4723 334.6695,209.8217 334.5976,210.0319 334.7653,210.2876 335.6285,210.7966 335.7962,211.1336 335.751,211.5754 335.6073,211.8775 335.1528,212.1345 333.3589,212.2679 332.977,212.9883 332.5232,213.4066 332.0454,213.7102 330.7324,213.986 330.6629,216.0261 329.6356,216.936 329.2781,217.5063 328.8986,219.1112 328.4701,220.0194 328.1831,220.345 326.8447,221.301 326.6307,221.6159 325.9355,222.116 324.473,222.9845 323.4727,223.9413 323.6974,224.3137 324.4674,224.593 324.4675,224.8414 323.0525,225.5813 322.2919,226.2245 321.748,226.2949 319.7937,225.7693 318.4162,225.7097 318.1916,225.2437 318.3518,224.8543 319.1814,223.9184 320.3622,222.3918 320.5875,222.329 321.0364,222.8258 321.3894,223.0742 321.8377,222.9175 322.0923,221.9991 322.4106,221.5942 323.3702,220.9082 324.5516,219.536 324.5194,219.2246 324.2952,218.8522 323.974,218.5417 323.9087,217.9348 324.1956,217.3432 324.5801,216.9687 324.6108,216.5015 324.2887,215.5692 323.9347,215.2588 323.3271,215.1976 322.9421,215.3225 322.3981,215.2771 321.5319,214.6561 321.0834,214.626 320.6674,214.8762 318.3123,218.7144 317.0914,219.9708 316.195,220.4402 315.0434,220.7536 314.691,220.6616 314.7862,220.2093 315.2024,219.7731 315.6495,219.5225 316.1936,219.0859 317.0247,218.6803 317.6005,218.1808 317.8238,217.8069 317.8231,217.4646 317.5671,217.2942 316.8621,217.4206 316.5415,217.2653 316.4452,216.9232 316.4433,216.0205 316.602,215.3049 316.5687,214.5578 316.1829,214.0456 315.8307,214.0147 315.5757,214.1088 315.1263,214.6998 315.0319,215.2613 315.0028,216.3197 314.8112,216.6315 314.5552,216.6936 314.3303,216.6003 314.2323,215.5271 314.3895,214.1267 314.7086,213.7221 315.8927,213.0966 316.5657,213.08 316.9179,213.3596 317.2633,213.3886 317.5899,213.1706 317.9104,213.1708 318.6474,213.4171 319.5451,213.5405 320.3129,213.4456 320.6011,213.211 320.4393,212.7764 319.285,211.9072 318.1968,211.5355 318.1955,211.2872 318.8341,210.6948 319.1856,210.5073 319.1539,210.2118 318.8328,210.0561 318.0007,210.0276 317.5835,209.8106 317.2624,209.4073 316.9736,209.2203 316.6216,209.2214 316.3966,209.5013 316.3025,209.906 316.3035,210.4655 316.0478,211.1043 315.6012,211.3545 315.1203,211.2301 314.8642,210.983 313.9969,209.7711 313.2609,209.9279 312.3969,210.4431" stroke="black" /><polygon fill="none" points="413.0839,165.8268 411.9221,166.2019 411.3056,165.472 410.4986,165.2172 409.5479,164.4875 408.8794,164.4079 408.628,164.2453 408.265,163.7054 407.7905,163.3265 407.1301,162.9288 405.7815,162.3159 405.6416,162.0455 405.5827,160.4739 405.3584,160.2317 404.2151,160.1395 403.9355,159.6521 403.6823,158.6782 403.2645,158.4089 402.5396,158.4646 400.9816,159.5134 400.5042,158.2429 400.2708,158.2471 399.8949,158.5414 399.6436,158.615 399.5175,158.4923 399.2399,157.7357 399.1361,157.0036 399.1615,156.4528 399.2858,156.1843 399.6374,155.8908 399.8373,155.572 399.3582,154.9135 399.031,154.5968 397.1939,153.9042 397.1422,153.6353 396.713,152.9765 396.6881,152.7328 396.788,152.3899 397.4141,151.289 397.4087,151.0837 397.2624,150.7995 396.7807,149.1331 395.8737,148.5856 395.3325,148.3907 394.7421,148.3559 393.7849,147.7528 393.6087,147.6064 393.4185,146.8616 393.0859,147.0221 391.2551,146.5731 390.4757,146.563 389.4052,145.8748 387.6578,145.928 385.9467,145.3788 384.6131,144.6858 383.5545,144.3326 383.2255,144.2228 382.3363,143.8351 381.9288,143.7888 381.792,143.5105 381.5446,143.2623 381.3509,142.8498 381.5426,142.3533 382.3725,141.6162 383.437,140.9857 384.2884,140.3497 384.7275,139.9619 384.8914,139.4661 384.7247,138.9015 384.1733,138.1315 383.8964,137.3604 383.9774,136.6713 383.7561,136.2304 383.6456,135.6523 383.6719,135.2671 383.456,134.8794 383.0089,134.0749 382.3147,131.0736 382.697,129.7913 382.5865,129.4618 382.1723,128.7736 382.0331,128.0572 382.2244,127.5615 382.5825,127.2572 383.1575,126.9529 383.3223,126.5946 383.1294,126.3055 382.6057,125.8112 381.67,125.2343 381.2838,124.8764 381.0631,124.41 381.1447,124.1062 382.8196,123.0139 382.984,122.6281 382.8459,122.1877 382.7606,121.1957 382.8687,120.8099 383.3086,120.5336 384.5734,120.3235 384.8199,120.0203 384.8181,119.0563 385.0091,118.4786 385.9977,117.759 387.5346,117.2463 388.3513,115.643 389.2619,114.6799 390.3609,114.1997 400.0058,101.432 400.0619,101.3582 440.2486,115.2428 439.3067,120.9321 436.2929,139.1353 428.0154,151.1175 428.977,165.3338 428.99,165.5255 427.843,165.1067 425.5407,165.0518 424.9148,164.9616 423.7411,165.128 422.8804,165.4944 421.0652,165.9098 418.6151,166.3402 416.7829,166.357 415.8556,166.6077 415.6174,166.7745 414.9622,166.1622 413.8154,165.7638 413.0839,165.8268" stroke="black" /><polygon fill="none" points="152.7922,334.2811 153.15,335.1114 155.3546,340.2257 156.0735,347.5506 163.7607,364.7248 166.5108,370.8661 163.3912,369.7218 161.6972,369.428 161.1095,369.5461 160.7446,369.6194 160.5218,369.6643 157.9031,371.6387 156.1882,371.9844 155.2555,371.845 155.1473,371.7793 153.5374,370.8013 151.2349,371.7145 150.2096,373.7257 147.258,376.098 145.9861,376.7859 143.5872,377.4604 141.7499,378.5047 138.3572,381.3689 137.7441,377.4357 137.4083,376.6433 135.9854,374.6203 135.8536,373.7215 134.2114,372.6864 132.7103,373.293 130.0587,373.8929 128.8334,373.7807 128.7426,373.7724 128.4744,373.7479 128.4403,373.7448 128.415,373.7425 128.3934,373.7369 128.1075,373.6626 127.3746,373.4721 127.1671,373.3185 126.9964,373.1921 126.4991,372.8237 126.3939,372.7457 125.4994,370.4291 125.2466,369.7744 125.102,368.1045 124.5848,366.7595 124.4281,366.3522 124.0799,365.8747 122.2886,364.7236 121.5894,363.9505 120.7514,362.0357 119.6264,360.1652 118.5581,359.3433 117.5735,359.0023 115.7912,359.258 115.1262,359.9009 114.492,359.9152 113.1105,358.7591 112.3806,358.2768 110.5988,354.203 129.8134,343.8593 133.2322,340.2601 133.5508,339.4985 134.1541,334.5962 136.9432,332.4435 138.1244,330.9269 138.6062,330.1177 139.3101,327.6725 143.8436,329.8925 146.4148,330.8152 146.5022,332.6768 152.729,334.1344 152.7922,334.2811" stroke="black" /><polygon fill="none" points="425.3861,232.1264 425.3578,232.1193 425.3544,232.1216 421.2128,231.0825 417.94,231.2443 416.8542,230.922 415.9642,230.2215 414.0747,227.6269 413.0798,226.5865 412.4488,226.325 411.7544,226.395 421.8273,194.4713 428.0628,174.7998 428.9387,166.0389 428.99,165.5255 428.977,165.3338 428.0154,151.1175 436.2929,139.1353 439.3067,120.9321 440.2486,115.2428 466.4126,134.3934 466.4872,134.4646 483.2056,150.4131 483.2518,150.4572 473.825,158.9495 484.2931,181.1675 500.0,214.5046 497.6856,214.4622 493.1741,214.9974 491.4555,221.1727 481.7133,220.5132 477.4841,216.2249 475.6385,217.2833 475.5612,217.6391 475.5432,217.7222 475.5268,217.7977 475.0816,218.2523 471.5184,219.0804 470.2714,219.6161 467.8976,221.1784 464.5899,224.0626 463.1981,224.9835 461.1904,225.6091 455.4941,226.0147 455.5163,225.7717 453.4151,225.9626 445.0121,227.7311 444.2197,228.5667 442.9638,231.137 442.1475,231.7758 441.1278,232.2373 437.4975,232.4461 433.4076,233.0042 428.6502,232.7976 425.3861,232.1264" stroke="black" /><polygon fill="none" points="176.8058,216.2869 163.0937,220.199 161.8748,220.1922 161.7734,220.1917 157.0344,220.1652 156.8187,207.0249 150.0298,197.7421 148.8671,196.1527 148.6165,195.8102 150.9776,191.1736 151.2723,178.2276 150.0627,176.5654 149.1443,177.2819 148.4857,177.2342 147.3797,176.6768 145.5954,175.1062 144.8745,173.9507 144.8832,173.916 144.8942,173.8721 144.9139,173.7931 144.9323,173.7196 144.955,173.6291 144.9702,173.5683 144.9945,173.4713 145.0145,173.3914 145.0298,173.3305 145.0436,173.2751 145.058,173.2175 145.0754,173.1481 145.0951,173.0694 145.1114,173.0044 145.1122,173.0012 145.1292,173.0023 146.0014,173.0639 147.1696,172.4748 147.7512,171.1057 147.8116,170.1533 147.9869,169.914 148.8322,169.7066 149.5556,168.5033 150.1488,168.4304 151.2639,168.7808 152.2864,168.2827 151.5091,167.179 151.8226,166.3659 153.9793,165.0092 155.4059,163.2474 155.404,161.5575 155.4039,161.5555 155.124,160.6078 155.262,159.5246 155.5198,158.9759 156.0613,158.5085 155.4999,155.667 155.464,153.1537 156.2929,149.5736 155.3479,148.5387 155.5932,147.7104 172.9088,154.2896 182.1221,162.1419 182.3059,162.2985 185.179,164.7462 190.7104,169.4777 194.5236,174.525 194.9123,175.0394 204.8773,188.2237 225.6982,196.6057 234.4146,198.0319 243.6579,198.7536 253.8698,202.3365 254.8704,222.6687 248.6198,218.8596 247.493,235.2277 236.1236,233.1683 213.6101,225.842 203.672,230.315 194.5152,234.4372 196.1449,233.0113 196.1994,231.9074 196.4409,231.6049 197.1904,230.9804 198.2113,230.6408 198.2471,230.0537 197.5698,228.3674 195.0396,225.3955 192.7069,223.0842 182.6832,218.7736 176.8058,216.2869" stroke="black" /><polygon fill="none" points="257.4386,262.7677 257.4772,262.7685 286.7081,263.3215 288.0101,263.3461 291.8107,263.8639 291.6335,265.1758 290.9513,267.084 290.7936,270.2708 290.494,271.4036 285.1682,280.7825 284.2484,283.599 284.3412,284.953 284.4171,286.061 284.1838,286.5205 282.9291,287.6779 282.1071,289.414 278.5876,290.2007 278.468,290.2274 265.5012,293.1258 259.8589,294.387 257.7034,294.5813 254.011,294.1038 254.0203,290.2888 251.1944,290.5443 250.8131,290.7873 249.9149,290.3064 248.9802,290.2366 248.3579,289.5812 247.892,289.68 245.3728,291.1363 244.7493,291.2697 241.6099,290.9403 239.2709,291.0039 234.4689,292.2798 232.3599,292.4434 232.5734,300.0262 228.5955,299.1242 227.4322,298.6872 228.5165,291.2425 244.5504,262.5239 257.4386,262.7677" stroke="black" /><polygon fill="none" points="270.2838,134.296 270.4838,134.4609 270.8174,134.4602 270.9681,134.2543 270.6946,133.843 270.7553,133.5477 271.0573,133.4443 271.3302,133.6498 271.9082,134.3552 273.0,135.0314 273.4533,134.8536 273.461,134.8261 273.5446,134.5291 272.6937,133.1906 272.4807,132.6607 272.4194,132.278 272.5389,131.4828 272.3567,131.1885 272.0229,131.0418 271.4779,131.0131 270.2036,130.2348 269.2317,129.2057 268.3802,127.9703 267.9859,127.1751 267.9235,126.4392 268.2257,125.9966 269.1342,125.5679 269.7392,125.42 270.4069,125.5656 270.9535,125.9183 271.1063,126.8319 271.2918,129.0544 271.5969,129.6434 272.142,129.7895 274.4155,130.0507 275.1121,130.0201 275.2939,129.8421 275.3523,129.3567 276.3532,129.2671 276.7474,129.3842 276.8398,129.7964 276.7817,131.6218 277.2683,132.5195 277.7245,132.9013 278.5115,132.9002 279.3299,132.6633 280.329,132.1309 281.3276,131.4077 282.3695,130.1793 282.6585,129.7084 282.6566,129.5023 282.4753,129.2963 282.443,128.855 282.6243,128.0602 282.8055,127.9077 283.1229,127.8623 283.411,127.9794 283.7287,128.2584 284.2744,129.1827 284.3514,129.7201 284.6239,130.1009 284.7161,130.718 285.4462,133.0517 285.9008,133.4061 286.4757,133.5513 286.9293,133.7862 287.1721,134.1087 287.1737,134.4618 285.24,135.8914 284.5452,136.6566 284.3351,137.0974 284.2152,137.7739 284.2769,138.5832 284.641,139.3749 285.3078,140.1676 282.6842,143.801 282.4116,143.9774 281.5646,144.0539 281.3517,144.2323 280.8103,145.3478 280.6302,145.5537 280.2069,145.8194 280.1773,146.0547 280.3903,146.436 280.2697,146.7892 279.6364,147.7541 278.5232,150.3814 280.4265,149.9133 281.5148,149.9261 282.1206,150.1016 283.1498,150.599 283.819,150.8027 284.9646,150.5083 285.3579,150.4923 285.5085,150.6683 285.51,150.8444 285.6605,150.9913 286.2154,151.0191 286.9001,150.4898 287.2925,150.0771 287.716,149.9588 287.9572,149.5762 287.927,149.2235 288.0781,149.0316 289.2519,148.8251 289.4978,148.4121 289.7375,147.4124 290.1004,147.2067 290.7348,147.1752 296.0148,156.8568 295.6164,157.2549 295.5164,158.6448 295.1666,160.0577 295.1063,161.1673 294.8168,161.6719 294.4745,161.921 293.989,162.469 293.8182,163.2778 293.6243,163.5732 292.5508,164.7313 292.3164,165.2262 292.3177,165.9468 292.3975,166.3868 292.3393,167.0401 291.8317,168.0129 291.4338,168.3548 291.0939,168.8116 289.6519,169.6645 289.135,170.1892 288.7304,170.4101 288.2614,171.0103 287.9559,172.3494 287.9157,173.2593 287.7624,173.6563 287.526,173.9722 286.7169,174.5706 286.3273,175.0318 286.0067,175.1555 285.4808,175.115 284.8852,175.2482 284.7879,175.5536 284.8458,175.7643 284.4354,176.1308 284.5537,176.4752 284.554,176.8382 284.4378,177.2773 284.1829,177.641 283.7781,178.0119 283.4821,178.5517 276.1867,184.0111 274.0727,185.5931 270.3632,188.3691 269.9434,188.3696 269.5943,188.1442 269.5941,187.7602 269.7558,187.3987 270.3368,186.9233 270.3246,186.3979 269.964,185.6242 269.8086,185.0257 269.5501,184.6264 268.1627,184.6792 267.9889,184.6584 267.3405,184.581 266.7211,184.2816 265.5944,184.0098 263.3288,183.0147 262.608,182.4659 262.2463,181.343 261.6787,180.0965 260.4929,178.0502 260.441,177.6015 259.8214,176.2784 259.8203,175.6791 260.2293,174.5297 260.177,174.1804 259.6108,173.5824 259.5471,173.4546 259.4344,173.2287 258.8887,172.1349 258.9904,171.3109 258.7849,171.2107 257.7576,171.2624 256.7807,171.4146 256.1119,171.6652 254.9842,172.6416 253.7531,173.892 253.0349,174.8925 252.6245,175.0919 252.5211,174.9436 252.5206,174.5431 252.0577,174.3451 250.6708,174.4715 249.9006,174.9227 249.2842,175.6229 248.5662,176.1235 246.5109,176.7269 246.3061,177.0018 246.0516,178.2012 245.7949,178.651 243.482,178.5552 242.7629,178.806 242.4556,178.8065 242.4016,177.2991 241.4721,175.0367 241.4713,174.3881 241.9321,173.7382 242.6504,173.2623 243.781,173.0606 244.8077,172.4095 245.3722,171.9088 245.4735,170.9105 245.7301,170.5598 246.0873,169.2856 247.2124,166.2373 248.7779,164.9487 248.9558,164.2609 248.8787,163.9369 248.3131,163.5376 246.6687,163.7159 246.309,163.8415 245.2303,163.8555 244.6894,163.6831 242.2232,163.7856 239.653,163.3783 238.6761,163.1051 238.4958,162.6065 238.7002,161.9311 238.8015,161.2577 238.6974,160.5581 238.8504,159.9589 238.722,159.7715 238.5418,159.8464 238.2604,160.2964 237.776,161.4678 237.3897,161.8464 236.7732,162.1222 236.9791,162.5219 237.0572,163.0082 236.7751,163.7088 236.8286,164.6819 236.5482,165.3792 236.6769,165.7058 237.4198,166.0776 237.7059,166.3781 237.4752,166.9409 237.0126,167.0912 236.3955,166.867 235.8294,166.3945 235.2885,165.1974 234.8745,163.7855 234.4361,162.8627 234.3053,161.5718 234.3551,161.072 234.6375,160.4971 235.3297,159.5729 236.3052,159.0335 237.3581,158.7574 238.8744,158.7549 239.3625,158.6043 239.5931,158.3041 239.7963,157.4344 240.063,156.9199 240.8437,156.1211 240.694,155.7177 240.2307,155.5439 239.9481,155.3443 239.7673,154.7706 239.5608,154.5459 238.8413,154.4721 238.584,154.2484 238.3513,153.5894 237.907,152.8965 236.9415,152.1323 233.6158,149.9788 237.5414,149.7745 238.1949,148.9222 239.9587,147.7063 240.6776,147.3768 241.3321,147.3757 241.9857,147.2439 242.8349,146.6519 242.702,145.1122 242.8978,144.7181 244.2022,142.8144 244.0699,141.9624 244.2661,141.5691 244.9859,141.4692 245.5097,141.7306 246.0978,141.7293 246.5559,141.8594 246.557,142.384 245.8385,143.0413 245.3828,144.4516 245.319,145.2389 246.1557,145.816 247.2172,145.7591 249.2439,145.1004 250.5472,145.7178 251.0776,146.1137 254.0218,146.7962 254.0837,145.3712 255.0632,144.1072 255.5225,144.1062 257.8786,144.6591 256.8945,143.0868 256.8278,142.5629 257.1535,141.8411 257.6766,141.5771 259.6384,141.5413 260.5548,141.2778 261.6006,140.751 261.6647,140.2268 261.1396,139.3099 261.1788,139.2855 262.1202,138.6988 263.4806,137.7455 263.9035,137.1352 266.8111,131.3746 267.1439,131.4035 267.2966,131.6247 266.9672,133.5397 267.2101,134.1288 267.9383,134.6275 268.7568,134.98 269.2418,135.0962 269.3328,134.9047 269.1491,133.8744 269.2696,133.7561 269.6646,133.7852 270.2838,134.296" stroke="black" /><polygon fill="none" points="157.0402,259.4252 153.422,256.842 151.4071,251.2027 151.2125,250.6578 151.2065,250.6545 146.2569,247.9077 149.41,241.5948 146.6421,236.174 148.7166,229.7804 147.1285,228.7919 143.623,228.2977 157.0344,220.1652 161.7734,220.1917 161.8748,220.1922 163.0937,220.199 176.8058,216.2869 182.6832,218.7736 192.7069,223.0842 195.0396,225.3955 197.5698,228.3674 198.2471,230.0537 198.2113,230.6408 197.1904,230.9804 196.4409,231.6049 196.1994,231.9074 196.1449,233.0113 194.5152,234.4372 193.4026,235.0244 187.8711,239.0954 183.2293,246.6748 183.0636,246.9451 182.8633,247.0365 170.6205,252.6207 165.2968,255.695 157.0287,260.47 157.0402,259.4252" stroke="black" /><polygon fill="none" points="391.9545,190.6708 391.0704,188.8116 390.0382,187.6978 389.1055,187.473 388.0484,186.8501 386.6068,186.6806 387.0996,185.4397 387.936,184.7964 389.0274,184.3767 388.3586,183.462 386.7857,182.6849 385.2904,179.3723 381.9572,176.2603 381.4497,174.9195 379.5158,174.8837 379.4216,173.3159 379.5844,172.8415 379.4717,171.5298 379.3078,171.1037 378.9789,170.705 378.1382,169.0848 378.5719,167.8981 378.5891,167.498 378.3137,166.271 378.0579,165.5985 377.0005,164.7624 376.5615,163.6894 376.3405,162.4681 376.8667,162.1142 377.1952,161.0795 376.973,160.4183 377.358,159.8936 377.3003,159.231 377.5758,158.7349 378.1655,156.48 378.4479,155.134 378.4744,154.5486 378.7342,153.8581 379.1286,153.1653 379.2104,153.0831 379.282,153.0112 379.7356,152.5555 379.8172,152.1421 378.9217,151.6344 378.6185,151.332 378.4388,150.8908 378.3963,150.179 378.5186,149.7463 378.9765,149.108 379.3681,148.4043 379.834,147.273 380.331,146.547 380.8711,146.3015 381.3439,146.1948 381.8391,145.9276 381.9976,145.7307 382.2362,145.1417 382.1644,144.2637 381.9288,143.7888 382.3363,143.8351 383.2255,144.2228 383.5545,144.3326 384.6131,144.6858 385.9467,145.3788 387.6578,145.928 389.4052,145.8748 390.4757,146.563 391.2551,146.5731 393.0859,147.0221 393.4185,146.8616 393.6087,147.6064 393.7849,147.7528 394.7421,148.3559 395.3325,148.3907 395.8737,148.5856 396.7807,149.1331 397.2624,150.7995 397.4087,151.0837 397.4141,151.289 396.788,152.3899 396.6881,152.7328 396.713,152.9765 397.1422,153.6353 397.1939,153.9042 399.031,154.5968 399.3582,154.9135 399.8373,155.572 399.6374,155.8908 399.2858,156.1843 399.1615,156.4528 399.1361,157.0036 399.2399,157.7357 399.5175,158.4923 399.6436,158.615 399.8949,158.5414 400.2708,158.2471 400.5042,158.2429 400.9816,159.5134 402.5396,158.4646 403.2645,158.4089 403.6823,158.6782 403.9355,159.6521 404.2151,160.1395 405.3584,160.2317 405.5827,160.4739 405.6416,162.0455 405.7815,162.3159 407.1301,162.9288 407.7905,163.3265 408.265,163.7054 408.628,164.2453 408.8794,164.4079 409.5479,164.4875 410.4986,165.2172 411.3056,165.472 411.9221,166.2019 413.0839,165.8268 413.8154,165.7638 414.9622,166.1622 415.6174,166.7745 415.8556,166.6077 416.7829,166.357 418.6151,166.3402 421.0652,165.9098 422.8804,165.4944 423.7411,165.128 424.9148,164.9616 425.5407,165.0518 427.843,165.1067 428.99,165.5255 428.9387,166.0389 428.0628,174.7998 421.8273,194.4713 418.6937,198.7241 414.2441,203.2174 414.1888,203.317 413.6832,203.493 412.2037,203.3033 410.7799,204.613 396.098,200.3305 395.11,197.8729 394.3261,197.1155 393.3817,195.4152 393.377,193.9717 392.404,192.3772 392.062,190.8967 391.9545,190.6708" stroke="black" /><polygon fill="none" points="313.7568,74.4941 314.3938,87.0401 314.6289,87.9186 314.8554,88.345 315.3138,88.5458 315.3945,88.8276 315.3396,89.1337 315.0416,89.4158 314.8258,89.7958 314.6335,90.3836 314.2154,90.6091 314.3063,91.6969 313.7764,92.1497 313.8006,92.4635 314.0908,92.7522 314.1241,93.2759 313.6425,93.7606 313.6026,94.0975 314.0139,94.4761 314.9873,95.0052 315.6172,95.544 315.7631,96.0666 315.49,96.3414 315.2659,96.8904 315.4774,97.4272 315.8116,100.6843 315.6872,102.2367 316.01,102.3886 316.8107,103.7144 317.961,104.1696 318.6639,106.1458 320.033,107.2229 321.1191,108.5845 322.0652,108.6049 322.8956,108.9195 322.9154,109.5281 321.6545,110.5108 321.5957,110.7555 321.8538,111.8968 322.5294,112.8889 322.6072,113.6428 323.526,115.1055 321.2148,116.8336 311.6821,123.9629 296.4055,122.1052 288.4398,122.4338 288.0278,123.352 287.4848,124.0324 286.6592,124.6867 285.8715,124.7629 285.0011,124.7397 283.9815,124.5575 283.7963,124.5911 283.0736,125.1763 282.8612,125.4426 282.6357,125.9278 282.5623,126.9388 282.1838,127.5662 282.2747,127.7427 282.6243,128.0602 282.443,128.855 282.4753,129.2963 282.6566,129.5023 282.6585,129.7084 282.3695,130.1793 281.3276,131.4077 280.329,132.1309 279.3299,132.6633 278.5115,132.9002 277.7245,132.9013 277.2683,132.5195 276.7817,131.6218 276.8398,129.7964 276.7474,129.3842 276.3532,129.2671 275.3523,129.3567 275.2939,129.8421 275.1121,130.0201 274.4155,130.0507 272.142,129.7895 271.5969,129.6434 271.2918,129.0544 271.1063,126.8319 270.9535,125.9183 270.4069,125.5656 269.7392,125.42 269.1342,125.5679 268.2257,125.9966 267.9235,126.4392 267.9859,127.1751 268.3802,127.9703 269.2317,129.2057 270.2036,130.2348 271.4779,131.0131 272.0229,131.0418 272.3567,131.1885 272.5389,131.4828 272.4194,132.278 272.4807,132.6607 272.6937,133.1906 273.5446,134.5291 273.461,134.8261 273.4533,134.8536 273.0,135.0314 271.9082,134.3552 271.3302,133.6498 271.0573,133.4443 270.7553,133.5477 270.6946,133.843 270.9681,134.2543 270.8174,134.4602 270.4838,134.4609 270.2838,134.296 269.6646,133.7852 269.2696,133.7561 269.1491,133.8744 269.3328,134.9047 269.2418,135.0962 268.7568,134.98 267.9383,134.6275 267.2101,134.1288 266.9672,133.5397 267.2966,131.6247 267.1439,131.4035 266.8111,131.3746 263.9035,137.1352 263.4806,137.7455 262.1202,138.6988 253.3421,112.5779 255.0992,112.0264 255.328,112.0829 256.5964,113.061 256.9812,113.1505 257.6345,113.1245 258.1245,112.878 258.963,112.0538 259.6745,111.1727 259.8858,110.7388 259.7296,109.9911 259.17,109.1215 259.0241,108.233 259.0887,107.9375 259.3333,107.5771 260.0753,106.8056 260.3771,106.6494 264.0161,106.4117 265.3081,106.1278 266.1255,105.6582 268.1398,104.2039 270.1147,103.1072 270.8225,102.3306 271.3524,101.3709 272.7379,99.8064 273.2341,98.8612 273.4532,97.9792 274.1128,97.071 274.7227,96.6849 274.6007,96.4644 277.4441,93.881 278.5013,93.104 279.1377,92.5197 279.7896,91.7666 280.0333,91.3171 280.1789,90.7205 280.3203,89.3988 280.4836,88.936 280.7386,88.6682 281.0343,88.511 282.2704,88.3848 282.9466,88.4142 283.5977,88.2139 284.7961,87.4589 285.6116,87.0684 287.4591,85.5223 291.0761,84.1815 293.2415,82.8698 293.7048,82.6578 294.8429,81.8212 297.6239,78.5489 297.9753,78.0666 298.7654,77.362 300.2715,77.1903 301.712,76.3644 303.5664,75.4609 304.2545,75.3311 305.0728,75.3558 306.0598,75.5293 306.702,75.4172 307.4411,75.1114 307.9415,74.7844 308.5031,74.2804 308.9004,74.0539 309.81,73.7225 312.2883,73.6534 313.6091,73.4527 313.7032,73.4386 313.7568,74.4941" stroke="black" /><polygon fill="none" points="132.2932,256.7206 133.4936,254.911 135.4698,255.7931 137.572,254.3225 139.5292,256.0511 141.4838,256.0866 142.6045,254.9684 142.6658,254.9073 142.6739,254.8916 146.2569,247.9077 151.2065,250.6545 151.2125,250.6578 151.4071,251.2027 153.422,256.842 157.0402,259.4252 157.0287,260.47 156.9808,264.9672 156.761,266.7199 156.0637,268.0748 154.8171,269.9073 152.6058,272.8987 157.3974,279.1217 157.7301,279.5536 157.5621,279.6362 157.0967,279.5762 156.6002,279.8735 156.3634,279.7726 155.7769,279.2247 154.3812,277.7417 153.9484,277.1334 153.751,276.6621 153.9467,276.0129 153.8286,275.68 153.514,275.5024 153.1216,275.4443 152.3763,275.7891 151.8068,275.6132 151.6299,275.2984 151.4098,275.2406 151.0857,275.3216 149.942,275.606 149.2292,275.6505 148.8238,275.765 148.3628,276.2628 147.7255,276.7497 147.1565,276.8974 146.391,276.9183 145.6447,276.5262 143.6227,276.2044 134.1818,274.0562 133.6521,274.4688 132.9474,275.7078 132.516,276.141 132.1039,276.1328 131.3471,275.5793 130.8069,275.2885 130.297,275.2893 129.8068,275.5844 129.6307,276.2233 129.5944,278.3857 129.4378,279.0355 128.9676,279.6636 128.4779,280.0578 128.0459,280.1666 127.5748,280.1679 126.5144,279.893 125.5517,279.5214 125.1202,279.4924 124.8718,279.6513 124.4541,280.614 123.9842,281.3215 123.4749,281.8426 122.7917,282.2531 122.1059,282.9027 121.88,283.2239 121.4004,283.9054 120.6351,284.781 120.1649,285.1747 119.5965,285.4512 118.399,285.8067 117.9674,286.0228 117.8892,286.2686 118.5016,288.6268 118.4231,288.9009 117.5992,289.453 117.3052,289.847 117.3645,290.2496 117.7963,291.0338 117.7587,291.5853 117.4666,293.0508 118.2779,297.9518 112.4817,299.4504 110.7126,299.9078 107.9767,300.6151 88.4409,305.6665 87.5401,293.1998 87.4821,293.08 81.7915,281.3145 82.983,280.5946 85.9747,278.1302 86.4169,277.2517 86.0974,276.6322 84.75,275.8768 84.2165,274.7413 84.5162,273.6912 84.8698,273.0363 85.7916,272.4502 86.5001,272.2776 87.4035,272.2587 89.3887,272.4288 90.3099,271.8781 90.8583,271.0674 91.2477,270.7917 92.6287,270.1365 94.0065,268.8285 95.6565,266.8112 94.644,265.1772 94.6789,264.4883 95.3171,263.8685 97.0351,263.4695 99.1522,260.1418 104.2149,250.8329 105.7184,245.6349 105.7396,245.5611 105.9825,245.5159 124.9418,254.4137 125.4112,253.2646 132.2932,256.7206" stroke="black" /><polygon fill="none" points="252.9199,40.7104 267.7702,74.1025 267.7098,74.1785 267.9544,74.5155 267.8622,74.8331 272.4931,75.4152 255.8816,88.4392 250.4219,94.1933 247.4883,96.6288 246.0451,97.5412 239.57,100.1091 236.6021,100.723 232.0871,102.9364 228.0071,105.395 226.3903,106.7643 223.8444,111.1325 221.8954,112.7983 220.5514,115.1866 219.7125,115.6844 218.0309,116.123 217.7981,116.3082 217.1989,117.3751 216.48,117.3148 216.4659,117.0531 217.1585,115.4239 216.5006,115.1171 214.4202,114.908 213.0966,114.4683 212.215,114.5679 212.0661,114.1557 209.6873,112.9225 208.659,113.398 207.5036,114.5349 207.0001,114.6286 204.1808,114.051 202.3439,114.0968 200.2082,113.8434 197.4155,114.1033 196.4973,110.9003 196.8438,109.4033 197.1465,108.7115 197.5483,108.3454 199.0578,107.5307 199.3925,107.3501 199.9774,107.0344 205.3242,103.3895 206.3121,102.2466 206.6481,99.9636 206.5381,98.5412 206.538,98.5402 206.8372,97.2436 207.289,96.5338 208.7203,95.3702 214.3228,91.7802 214.7609,91.1399 215.597,89.918 216.7392,87.1487 217.668,76.1168 219.6771,71.2307 219.7363,68.9478 219.3515,67.6007 218.4792,65.6439 218.3394,65.051 218.461,64.085 219.5103,63.3025 219.8805,62.4612 220.2345,59.817 220.5848,59.0958 221.9158,57.3944 227.1247,50.7364 233.2004,45.323 238.6026,39.6662 239.8356,38.1622 242.3833,33.762 243.503,32.209 245.5097,30.7045 246.31,29.1417 246.885,27.3081 248.3086,30.3317 252.9199,40.7104" stroke="black" /><polygon fill="none" points="197.9948,141.9717 197.4264,142.0294 196.9485,142.4304 196.4794,143.1455 196.4002,143.9764 196.2158,144.099 196.2272,144.3077 196.643,145.3383 197.7648,146.8972 197.6313,147.2523 196.4882,147.4901 195.9533,147.9637 195.7353,148.6028 194.348,149.1006 193.4373,149.7171 192.7318,149.7659 191.6112,149.082 190.6619,148.9893 189.2392,149.5584 187.9997,150.3407 187.5871,151.4283 187.6367,152.3978 187.9059,153.0122 187.7999,155.1698 188.2147,157.3565 188.0464,158.3329 186.6746,159.5678 185.8715,159.4744 185.0206,159.9951 183.9002,162.6338 184.17,163.3653 185.168,164.1336 185.179,164.7462 182.3059,162.2985 182.1221,162.1419 172.9088,154.2896 155.5932,147.7104 156.8803,145.4445 158.8283,143.8844 159.2096,142.6642 159.2108,142.6631 166.0338,136.7265 170.0921,133.1955 170.0928,133.1949 171.5144,132.2002 171.6974,132.0721 172.0489,131.5465 173.3709,130.7995 174.6198,129.4035 176.1814,127.1371 177.3605,126.1065 179.2529,125.0454 180.8823,124.7393 183.7963,123.8507 185.1155,122.8014 187.9401,119.4454 189.2591,119.7427 189.2649,119.7474 190.7636,120.9761 190.7719,120.9759 191.7841,120.9442 192.4736,120.6 193.8377,119.1945 196.8014,117.7045 197.2789,117.1912 197.5782,116.3256 197.5782,116.3249 197.6404,114.887 197.4155,114.1033 200.2082,113.8434 202.3439,114.0968 204.1808,114.051 207.0001,114.6286 207.5036,114.5349 208.659,113.398 209.6873,112.9225 212.0661,114.1557 212.215,114.5679 213.0966,114.4683 214.4202,114.908 216.5006,115.1171 217.1585,115.4239 216.4659,117.0531 216.48,117.3148 217.1989,117.3751 217.879,117.4791 218.4143,117.8329 218.6591,118.3759 219.7538,119.012 219.8274,119.4151 218.9225,120.1589 218.8631,120.5004 219.0169,121.4247 220.0632,121.5182 220.354,122.0155 220.5045,123.6533 219.3997,124.5218 218.6687,124.6177 217.9623,124.5478 217.0395,123.4413 216.1732,123.6285 215.6872,124.1256 214.6445,126.279 214.4391,127.5796 214.1237,128.1238 213.6872,128.6685 212.8362,129.1433 210.1175,129.691 206.4014,129.8382 205.6957,130.0514 205.0398,130.5965 204.5187,131.8545 204.7753,133.4748 204.5466,134.1437 203.0154,135.2803 201.1064,136.277 200.6227,137.7161 200.8921,138.9013 200.106,140.4327 198.7856,141.3926 198.1584,141.9551 197.9948,141.9717" stroke="black" /><polygon fill="none" points="77.5227,245.9963 77.3762,246.1231 72.7582,252.698 71.8192,254.0349 71.5424,254.4284 69.9513,253.1128 69.4356,252.1049 63.009,247.5467 61.9043,248.7325 59.879,250.1111 59.2099,251.2953 58.7349,251.5615 56.4834,252.0556 54.9141,257.3911 54.68,258.1872 52.8923,262.0976 47.4303,261.7725 44.2885,276.4373 47.5084,286.4743 42.3562,282.1839 19.0166,277.9399 18.6543,277.8741 5.5277,281.0752 5.222,280.2151 4.9921,277.0635 4.2519,276.7804 2.8767,276.6305 2.8621,276.6289 2.344,275.7245 1.596,275.1125 1.2039,274.7917 1.4175,274.5353 2.7706,274.1896 3.1961,273.9069 4.451,272.1961 5.8387,270.9761 7.5192,269.8902 8.0591,269.5414 9.0483,269.2893 10.522,268.9139 13.0527,267.1373 12.8734,266.2662 13.1199,265.4167 13.4995,265.1663 14.2396,265.1655 15.068,264.2719 15.8221,261.1485 17.0942,258.663 17.6559,258.7418 17.6652,258.7478 18.4733,259.2687 18.4782,259.2674 19.4455,259.0188 20.5774,259.3564 21.8547,258.6479 23.3998,257.2164 23.4897,257.1331 23.8163,256.8305 25.0576,256.0427 25.3487,255.7154 25.4173,254.563 27.0653,252.7396 27.6622,250.5951 29.4216,248.1044 29.4211,248.1039 24.9064,243.7199 24.9819,242.2949 25.5867,241.0662 25.3828,239.2482 25.4687,238.606 25.5337,238.12 26.5139,236.9553 26.5054,236.41 26.4951,235.7545 25.8883,234.117 28.3796,233.5895 29.9726,232.9304 32.6909,233.48 32.904,233.523 34.5184,233.2647 37.2617,233.5394 37.3099,233.5064 38.0926,232.9706 37.85,231.5976 37.792,229.6093 38.36,227.6582 39.9303,226.1103 41.7569,225.479 42.364,224.6929 42.894,223.3959 42.9202,223.3317 43.0966,222.8995 44.8141,220.8096 49.0365,218.0819 50.2787,216.9802 51.1498,215.4507 51.4815,214.5929 51.8906,213.5346 51.8914,213.0701 51.5663,212.4994 51.5658,212.4985 50.367,212.0562 50.3504,212.0501 50.0547,211.7674 49.84,211.0252 50.6824,210.5109 51.0105,209.6868 50.9477,209.6193 50.7969,209.4569 51.2507,208.1724 51.2505,207.0591 51.6174,206.4825 52.1703,206.2686 52.6281,205.5767 52.8741,204.0844 53.5971,202.9209 54.7616,200.1929 58.2127,203.6926 63.7834,209.3419 65.5417,211.4551 66.4839,212.5877 70.4242,217.3237 74.4615,222.1763 79.0108,222.2936 78.9691,225.7529 79.1692,226.2015 80.0957,226.6633 81.2723,226.4634 81.7276,226.8048 82.2183,226.3795 82.8897,225.7976 84.2339,225.5025 85.2457,224.6579 86.0473,224.5641 86.999,224.9569 87.5445,224.8789 88.2828,223.8002 88.9698,223.2685 89.2684,222.2208 90.0811,220.6508 90.7389,219.9562 91.139,219.8059 91.9973,220.0832 93.5152,221.3606 94.7745,221.4908 95.174,221.8922 95.5514,222.9356 95.9535,223.278 96.3524,223.161 96.9268,222.5716 97.7742,222.2157 98.0052,222.017 98.1368,221.7689 98.0267,220.2177 98.9195,218.0314 99.6617,217.1798 101.917,215.5129 103.8732,212.7405 104.1733,211.33 104.8893,209.1167 105.51,207.8923 106.5739,206.1522 108.6649,203.5211 109.902,201.1407 109.9032,201.1814 109.9098,201.3991 109.9287,202.0207 107.6426,211.3008 106.8485,212.9527 101.2773,219.9966 102.1857,223.6035 102.401,224.4581 77.5227,245.9963" stroke="black" /><polygon fill="none" points="302.9965,196.6321 302.9974,196.7185 302.9902,196.8016 302.9894,196.8104 302.9883,196.8235 302.9879,196.8286 302.9875,196.8354 302.9832,196.9144 302.9793,196.9852 302.975,197.065 302.9666,197.2191 302.96,197.363 302.9612,197.4684 302.968,198.1197 302.9681,198.1287 302.971,198.4093 302.9722,198.5164 302.9734,198.6338 302.9735,198.6348 302.9962,198.808 302.9798,198.811 303.0236,199.1495 303.0222,200.787 302.8226,201.6751 302.6167,201.9656 302.0204,202.4808 301.8609,202.8258 301.6785,204.009 300.9934,205.5057 300.9943,206.0189 301.5245,207.5158 301.3936,208.3605 301.0677,209.4087 301.0146,210.6338 300.8876,211.0247 300.2861,212.3104 298.4061,214.109 298.2785,214.4638 298.3876,214.6413 299.0099,214.6139 299.5588,214.4703 300.7833,213.8814 301.3864,213.7555 301.6801,213.8792 302.2302,214.5359 302.6333,215.3618 302.6169,215.9486 302.0697,216.465 300.9909,217.2316 299.4751,218.6005 298.2637,220.1663 297.1791,220.6318 296.8601,220.8509 296.5507,221.5694 295.9443,222.2813 295.8573,222.5282 295.2935,222.9642 294.571,223.8211 294.2818,224.0102 292.9724,224.4839 291.598,225.3277 290.5262,226.5263 289.7001,228.5148 289.2951,229.0682 288.0818,230.114 287.9281,230.4092 287.8245,231.321 287.1961,232.8493 286.1837,233.4019 285.8331,233.8379 285.2963,235.0362 283.8244,237.5739 283.0778,237.9215 282.8544,238.0255 282.6522,238.1997 282.0238,239.1215 281.8828,239.2342 281.6344,239.4327 280.5341,240.052 278.8935,241.4267 278.2172,241.8608 277.7069,242.0818 275.9317,242.2757 275.0587,242.2919 274.3474,242.3727 273.6199,242.5182 272.6289,242.5352 271.874,242.0655 271.4861,241.7746 271.0657,241.5967 270.7424,241.5644 269.53,241.7907 268.851,241.9362 267.2991,241.9039 266.0867,241.92 265.2784,241.92 264.1695,241.837 263.9654,241.7164 263.7337,240.8967 263.1243,239.9389 261.4836,238.5238 261.1898,237.9844 260.7335,236.8204 260.8063,235.5787 260.2579,234.4178 259.5906,233.6591 256.6728,232.2248 254.6029,230.4876 253.6566,229.5352 252.7329,228.3164 252.581,227.9502 252.4994,226.4758 252.4062,225.7587 252.1509,224.7728 252.1558,224.2682 252.2803,224.1007 252.525,223.9753 253.8291,223.5885 254.8704,222.6687 253.8698,202.3365 254.7974,201.5511 258.6019,198.3295 270.3632,188.3691 274.0727,185.5931 276.1867,184.0111 283.4821,178.5517 302.3163,189.7243 304.0009,194.0959 302.9957,196.5558 302.9965,196.6321" stroke="black" /><polygon fill="none" points="317.4175,39.6404 317.0772,41.1513 316.1389,41.6115 315.6178,41.8671 315.4405,41.9541 315.4278,41.9603 314.7995,42.2684 312.4649,43.4138 303.5186,47.8031 303.3801,47.871 286.2267,56.2868 285.0177,60.4044 284.034,63.7546 283.8894,64.2476 282.5769,62.8443 281.8834,62.5672 280.6615,61.889 280.0894,61.8295 278.9899,62.3154 277.8167,63.3552 277.5005,63.7782 276.9943,64.8282 276.7261,65.0109 276.0122,65.4978 275.7647,65.9801 275.7426,66.2591 275.5323,66.6148 275.3329,66.6309 275.0312,66.6552 274.6589,66.5122 273.9692,65.8235 273.481,65.8533 273.1661,66.055 272.7049,66.6335 272.3362,66.9192 271.7628,67.049 271.4197,67.3377 271.2478,67.7691 271.2777,68.4016 270.8493,68.9772 270.3344,70.2718 270.1355,71.4137 267.7702,74.1025 252.9199,40.7104 248.3086,30.3317 246.885,27.3081 278.3408,17.0313 279.0014,16.8155 286.6012,14.3332 297.2158,10.8662 297.4535,10.7886 303.3674,8.8564 303.99,8.6531 330.0183,0.153 330.4867,0.0 330.5309,0.0879 320.726,24.9539 320.2958,26.8632 320.0973,27.7442 317.7013,38.3806 317.4175,39.6404" stroke="black" /><polygon fill="none" points="297.6239,78.5489 294.8429,81.8212 293.7048,82.6578 293.2415,82.8698 291.0761,84.1815 287.4591,85.5223 285.6116,87.0684 284.7961,87.4589 283.5977,88.2139 282.9466,88.4142 282.2704,88.3848 281.0343,88.511 280.7386,88.6682 280.4836,88.936 280.3203,89.3988 280.1789,90.7205 280.0333,91.3171 279.7896,91.7666 279.1377,92.5197 278.5013,93.104 277.4441,93.881 274.6007,96.4644 274.7227,96.6849 274.1128,97.071 273.4532,97.9792 273.2341,98.8612 272.7379,99.8064 271.3524,101.3709 270.8225,102.3306 270.1147,103.1072 268.1398,104.2039 266.1255,105.6582 265.3081,106.1278 264.0161,106.4117 260.3771,106.6494 260.0753,106.8056 259.3333,107.5771 259.0887,107.9375 259.0241,108.233 259.17,109.1215 259.7296,109.9911 259.8858,110.7388 259.6745,111.1727 258.963,112.0538 258.1245,112.878 257.6345,113.1245 256.9812,113.1505 256.5964,113.061 255.328,112.0829 255.0992,112.0264 253.3421,112.5779 262.1202,138.6988 261.1788,139.2855 261.1396,139.3099 261.6647,140.2268 261.6006,140.751 260.5548,141.2778 259.6384,141.5413 257.6766,141.5771 257.1535,141.8411 256.8278,142.5629 256.8945,143.0868 257.8786,144.6591 255.5225,144.1062 255.0632,144.1072 254.0837,145.3712 254.0218,146.7962 251.0776,146.1137 250.5472,145.7178 249.2439,145.1004 247.2172,145.7591 246.1557,145.816 245.319,145.2389 245.3828,144.4516 245.8385,143.0413 246.557,142.384 246.5559,141.8594 246.0978,141.7293 245.5097,141.7306 244.9859,141.4692 244.2661,141.5691 244.0699,141.9624 244.2022,142.8144 242.8978,144.7181 242.702,145.1122 242.8349,146.6519 241.9857,147.2439 241.3321,147.3757 240.6776,147.3768 239.9587,147.7063 238.1949,148.9222 237.5414,149.7745 233.6158,149.9788 232.9758,148.6939 231.7375,146.2076 231.3913,145.5124 231.3855,145.501 231.2121,145.1526 220.5045,123.6533 220.354,122.0155 220.0632,121.5182 219.0169,121.4247 218.8631,120.5004 218.9225,120.1589 219.8274,119.4151 219.7538,119.012 218.6591,118.3759 218.4143,117.8329 217.879,117.4791 217.1989,117.3751 217.7981,116.3082 218.0309,116.123 219.7125,115.6844 220.5514,115.1866 221.8954,112.7983 223.8444,111.1325 226.3903,106.7643 228.0071,105.395 232.0871,102.9364 236.6021,100.723 239.57,100.1091 246.0451,97.5412 247.4883,96.6288 250.4219,94.1933 255.8816,88.4392 272.4931,75.4152 297.6239,78.5489" stroke="black" /><polygon fill="none" points="163.7607,364.7248 156.0735,347.5506 155.3546,340.2257 162.0636,324.7635 178.7315,322.4965 182.3081,316.5553 184.2221,315.795 185.688,313.5139 188.5485,316.5409 196.8412,325.3141 215.2803,316.1084 217.314,318.433 224.3152,321.4145 222.7926,330.5086 222.4505,332.5533 224.7366,336.599 231.2626,338.7643 228.2836,345.4276 228.3635,346.2993 228.8614,351.7454 232.1535,357.9519 234.518,359.3851 238.1421,361.5818 241.097,361.7076 239.8819,363.7033 238.8474,366.1443 237.5836,367.2089 237.2262,367.7949 236.1165,370.9321 235.3664,372.0644 234.1557,373.15 232.0404,374.4751 229.5279,375.695 229.2739,376.8689 229.3102,378.26 228.9444,381.2967 228.711,382.5629 228.3065,383.1956 226.2518,384.3378 224.4688,386.6808 221.1308,388.7736 219.3132,389.4102 217.8255,389.2746 215.5685,389.0689 211.6874,388.1587 210.6073,387.4331 209.7967,386.0138 209.3797,384.7482 208.9107,381.5217 207.8176,379.7496 206.0952,375.9693 204.7762,374.7053 204.2664,374.8103 200.5959,376.9547 199.7793,377.0184 199.1587,378.0581 198.5083,378.3018 197.9228,378.2269 197.01,377.6046 194.7986,378.7293 194.0232,378.6942 192.8423,378.6407 186.1139,378.3357 184.0983,378.0527 183.8457,377.9317 183.2214,377.3507 182.0507,375.5856 180.5938,373.8061 179.9373,373.1923 178.9079,372.8829 177.4934,372.5751 174.6993,372.2897 167.4079,371.1495 167.1904,371.1154 166.5108,370.8661 163.7607,364.7248" stroke="black" /><polygon fill="none" points="346.0744,167.5858 340.3029,158.0702 339.811,157.4891 338.1505,156.7262 336.1082,156.037 335.5055,155.7652 323.2134,146.7943 323.0204,146.6536 321.0238,146.5308 320.8139,146.5179 320.5597,146.665 317.5519,146.6521 317.205,146.4518 314.1958,146.3362 309.0901,146.4376 307.1197,145.7346 306.0423,145.2618 305.6774,144.9338 305.6387,143.929 311.6821,123.9629 321.2148,116.8336 323.526,115.1055 323.7868,115.4044 365.1279,109.5028 366.0652,109.3689 377.619,107.7187 382.2284,106.4242 400.0058,101.432 390.3609,114.1997 389.2619,114.6799 388.3513,115.643 387.5346,117.2463 385.9977,117.759 385.0091,118.4786 384.8181,119.0563 384.8199,120.0203 384.5734,120.3235 383.3086,120.5336 382.8687,120.8099 382.7606,121.1957 382.8459,122.1877 382.984,122.6281 382.8196,123.0139 381.1447,124.1062 381.0631,124.41 381.2838,124.8764 381.67,125.2343 382.6057,125.8112 383.1294,126.3055 383.3223,126.5946 383.1575,126.9529 382.5825,127.2572 382.2244,127.5615 382.0331,128.0572 382.1723,128.7736 382.5865,129.4618 382.697,129.7913 382.3147,131.0736 383.0089,134.0749 383.456,134.8794 383.6719,135.2671 383.6456,135.6523 383.7561,136.2304 383.9774,136.6713 383.8964,137.3604 384.1733,138.1315 384.7247,138.9015 384.8914,139.4661 384.7275,139.9619 384.2884,140.3497 383.437,140.9857 382.3725,141.6162 381.5426,142.3533 381.3509,142.8498 381.5446,143.2623 381.792,143.5105 381.9288,143.7888 382.1644,144.2637 382.2362,145.1417 381.9976,145.7307 381.8391,145.9276 381.3439,146.1948 380.8711,146.3015 380.331,146.547 379.834,147.273 379.3681,148.4043 378.9765,149.108 378.5186,149.7463 378.3963,150.179 378.4388,150.8908 378.6185,151.332 378.9217,151.6344 379.8172,152.1421 379.7356,152.5555 379.282,153.0112 379.2104,153.0831 379.1286,153.1653 378.7342,153.8581 378.4744,154.5486 378.4479,155.134 378.1655,156.48 377.5758,158.7349 377.3003,159.231 377.358,159.8936 376.973,160.4183 377.1952,161.0795 376.8667,162.1142 376.3405,162.4681 376.5615,163.6894 377.0005,164.7624 378.0579,165.5985 378.3137,166.271 378.5891,167.498 378.5719,167.8981 378.1382,169.0848 378.9789,170.705 379.3078,171.1037 379.4717,171.5298 379.5844,172.8415 379.4216,173.3159 379.5158,174.8837 379.8612,175.4859 378.429,177.1338 378.3039,178.0827 377.7235,179.0861 378.1269,180.3673 377.6722,180.6057 376.5795,180.5531 376.3796,180.9006 376.8753,182.5229 375.7609,184.3821 375.151,184.9791 374.0944,185.1733 374.0054,185.7856 364.1891,181.7127 362.6576,180.9739 362.5371,180.8863 347.5168,169.9675 347.2274,169.757 346.0744,167.5858" stroke="black" /><polygon fill="none" points="47.6587,301.9583 47.6129,301.9926 47.57,302.0247 45.8317,303.3275 45.1793,303.8165 41.4645,305.5357 38.5163,309.0067 37.8659,309.4232 36.7126,310.8764 36.161,311.0496 35.7938,311.0499 33.0182,309.0326 32.1506,307.4093 31.572,306.6462 30.8894,306.204 30.2862,305.9583 27.0297,305.713 23.3326,304.0685 22.7794,304.0774 22.6326,304.1722 20.5075,305.5485 17.4894,305.4279 17.3056,305.8466 17.3852,306.5117 16.3366,307.645 15.2086,308.3111 15.9971,308.827 17.4642,309.2397 17.465,309.7519 13.8817,310.1413 10.244,310.1691 9.2399,310.6452 9.0742,310.5981 9.1899,310.1703 8.9183,309.2767 8.3336,308.8406 6.6283,308.0832 6.6148,308.0772 3.6814,307.3228 2.3689,306.7667 1.505,304.0086 1.1223,300.9598 0.2623,299.0412 0.6537,296.3697 0.0,293.4889 0.3784,292.0446 0.704,291.7178 1.6198,291.3622 2.5399,289.3469 3.208,288.4721 5.0544,287.2082 7.2535,286.482 7.5814,285.6207 7.2973,284.7896 7.2955,284.7843 5.9515,284.6302 5.9439,284.6294 5.5659,284.3968 5.4462,283.8529 5.6879,281.7497 5.5277,281.0752 18.6543,277.8741 19.0166,277.9399 42.3562,282.1839 47.5084,286.4743 47.6571,286.5972 59.2739,296.2679 58.7075,298.4096 58.6563,298.6058 58.3425,298.6486 54.7014,299.1521 52.9151,300.4179 52.2882,300.5924 51.684,300.5292 51.1589,300.0778 50.515,300.0784 49.7986,300.3543 47.6587,301.9583" stroke="black" /><polygon fill="none" points="311.6821,123.9629 305.6387,143.929 305.6774,144.9338 305.2302,151.0298 304.9846,150.2612 304.5036,149.7579 304.3838,149.3314 304.0752,149.0466 303.361,148.5922 302.9928,148.0972 302.6863,147.8402 302.1554,147.6733 301.3004,147.5567 301.3602,148.3109 301.2816,149.2804 301.0171,150.1924 300.611,150.8867 299.9014,152.4839 299.2327,153.0772 298.5768,153.4579 298.1749,154.008 298.0327,154.382 297.7973,155.6783 296.9115,156.3465 296.0148,156.8568 290.7348,147.1752 290.1004,147.2067 289.7375,147.4124 289.4978,148.4121 289.2519,148.8251 288.0781,149.0316 287.927,149.2235 287.9572,149.5762 287.716,149.9588 287.2925,150.0771 286.9001,150.4898 286.2154,151.0191 285.6605,150.9913 285.51,150.8444 285.5085,150.6683 285.3579,150.4923 284.9646,150.5083 283.819,150.8027 283.1498,150.599 282.1206,150.1016 281.5148,149.9261 280.4265,149.9133 278.5232,150.3814 279.6364,147.7541 280.2697,146.7892 280.3903,146.436 280.1773,146.0547 280.2069,145.8194 280.6302,145.5537 280.8103,145.3478 281.3517,144.2323 281.5646,144.0539 282.4116,143.9774 282.6842,143.801 285.3078,140.1676 284.641,139.3749 284.2769,138.5832 284.2152,137.7739 284.3351,137.0974 284.5452,136.6566 285.24,135.8914 287.1737,134.4618 287.1721,134.1087 286.9293,133.7862 286.4757,133.5513 285.9008,133.4061 285.4462,133.0517 284.7161,130.718 284.6239,130.1009 284.3514,129.7201 284.2744,129.1827 283.7287,128.2584 283.411,127.9794 283.1229,127.8623 282.8055,127.9077 282.6243,128.0602 282.2747,127.7427 282.1838,127.5662 282.5623,126.9388 282.6357,125.9278 282.8612,125.4426 283.0736,125.1763 283.7963,124.5911 283.9815,124.5575 285.0011,124.7397 285.8715,124.7629 286.6592,124.6867 287.4848,124.0324 288.0278,123.352 288.4398,122.4338 296.4055,122.1052 311.6821,123.9629" stroke="black" /></svg>