<?xml version="1.0" encoding="utf-8" ?>
<svg baseProfile="tiny" height="365.7306" version="1.2" width="500" xmlns="http://www.w3.org/2000/svg" xmlns:ev="http://www.w3.org/2001/xml-events" xmlns:xlink="http://www.w3.org/1999/xlink"><defs /><polygon fill="none" points="130.8183,107.9508 130.549,108.1568 130.1787,108.4397 129.7629,108.7566 129.3672,109.0582 128.996,109.2968 128.5725,109.4082 128.0986,109.3977 127.6066,109.3728 127.1252,109.3524 126.644,109.3259 126.1706,109.2983 126.1708,108.7345 126.3679,108.1624 126.4396,107.9545 126.8212,106.4146 127.3254,104.1473 127.5621,103.0696 127.8453,101.737 127.862,101.0879 127.8818,98.9123 127.9045,97.1657 127.4508,97.2189 126.7087,97.3256 126.46,96.7027 125.3488,91.7293 125.0747,90.4046 124.4853,87.8788 124.1556,86.1624 123.8921,84.6265 105.9323,75.9361 94.5833,70.4446 82.8299,70.2883 82.0055,69.7067 81.8428,69.6982 80.4218,69.1201 79.6168,68.8705 77.3184,68.1581 71.1069,68.3843 68.4111,68.337 68.1071,68.3317 67.3649,68.2167 66.2717,68.0473 65.0548,67.8587 60.8973,66.0192 58.1607,64.8104 55.6872,62.3928 54.7925,59.5022 54.7925,55.9283 54.8793,55.3237 54.9661,54.7192 55.3114,53.3039 55.3683,51.7526 55.1064,50.5506 54.5289,45.2244 54.3012,43.1249 54.3083,43.0647 60.6025,40.0054 60.6041,40.001 60.9837,39.8163 61.1251,39.7475 61.4156,39.2787 62.0755,38.7233 64.4061,37.8055 65.7182,36.9723 66.6999,36.5377 67.6636,36.0302 68.117,35.8522 68.7546,35.5149 69.556,35.1863 70.1211,34.9173 70.6375,34.5936 71.7188,33.7746 72.986,32.8976 73.8734,32.4481 74.5125,32.105 74.7848,31.6697 75.223,30.9692 75.8029,30.418 77.6654,28.7564 78.8069,27.7419 79.34,27.1392 79.4777,26.8979 80.2083,26.2007 81.1878,25.4695 82.0471,24.7467 82.9402,24.3172 84.9835,23.5622 86.4395,23.1073 87.7531,22.8201 88.7938,22.9315 89.9165,23.4858 91.8279,24.3867 93.0631,24.5013 94.9582,24.9191 95.897,25.0764 97.0422,25.32 99.6581,25.6961 100.0187,25.7184 101.9742,25.8387 103.3468,25.876 106.2302,25.1848 107.2413,25.2485 107.977,25.0959 111.2007,25.8291 115.2515,26.4513 116.0653,26.507 117.3831,26.5298 118.3441,26.4063 118.4804,26.2805 118.5701,26.1978 119.0002,25.801 119.7767,25.3866 120.7077,25.2671 122.0597,25.7896 124.2133,26.3311 125.1695,26.5496 126.9098,26.7055 127.0479,26.7178 127.3201,26.6561 128.0724,26.4854 128.3797,26.3037 128.5955,26.0413 128.8081,25.6684 129.2473,25.517 129.6362,25.2736 129.9302,24.797 130.1768,24.4884 130.3877,24.3782 130.7639,24.4754 131.14,24.5727 131.7576,24.6083 132.1583,24.6155 132.5751,24.4518 132.8507,24.2204 133.1238,24.2673 133.91,24.6514 134.3883,24.6198 134.4187,24.6282 134.449,24.6366 136.6366,25.2416 137.6769,25.445 138.9114,25.4539 140.4553,25.9833 141.5927,26.1284 142.6983,25.9551 144.985,26.7458 148.2807,27.22 149.6963,27.2227 150.4077,27.0291 151.3425,27.1291 153.7489,27.3864 155.6884,27.2536 156.9034,27.3794 158.6029,27.675 160.7495,27.3411 161.5894,27.2546 162.1756,26.834 162.5215,26.5631 163.0992,26.1981 163.327,25.987 163.9828,25.5376 164.3454,25.2436 164.7079,24.9497 164.7326,24.0254 165.1795,23.5935 165.5833,23.4976 165.804,23.6429 166.0247,23.7883 166.3183,24.0977 166.7527,25.3579 167.2318,27.2537 168.0754,28.8315 169.2949,30.1808 173.0294,31.9275 173.2936,32.1546 173.3607,32.1764 174.3881,33.1593 175.2044,33.5898 175.964,33.8867 176.9245,34.1945 177.6758,34.3689 178.8004,34.5544 179.2361,34.642 180.2655,34.984 180.7416,35.2708 181.2483,35.6119 181.5247,35.8365 181.747,36.177 181.9997,36.6953 181.85,37.1485 181.7947,37.754 182.2205,38.3105 182.466,38.9177 182.7891,39.767 183.1114,40.6581 183.4619,41.1252 183.8901,41.3098 184.3957,41.8069 185.0184,42.1475 185.4856,42.305 185.7574,42.8278 185.7566,43.2587 185.7689,43.5982 185.6983,44.3162 185.7962,44.8131 186.238,46.1355 186.7194,47.054 187.1745,47.6051 187.5646,47.775 188.0565,47.722 188.4708,47.5514 188.7243,47.3756 189.202,47.1611 189.6309,46.9758 189.9987,46.897 190.5757,46.9776 190.8577,47.2229 191.1495,47.6252 191.504,48.06 191.8361,48.5934 192.2973,49.5485 192.6185,51.0429 192.7041,52.1398 192.6056,52.7664 192.3608,53.4514 192.0191,53.911 191.4935,54.3434 190.5567,54.6134 189.8263,54.5924 188.7941,54.4632 187.9858,54.3833 187.4986,54.4608 187.0885,55.0182 187.019,55.7623 187.2515,56.409 187.5848,56.7546 188.3698,57.3467 188.8046,57.8113 189.1626,58.2241 189.4158,58.6503 189.5535,58.8767 189.9698,59.5053 190.7726,60.7733 191.2519,61.4271 192.1194,62.865 192.3266,63.1787 192.9477,64.281 193.2288,64.7453 193.245,65.2112 193.1145,65.5304 192.8673,65.7389 192.5667,65.9485 192.2653,66.0832 191.9573,66.2333 191.3858,66.2714 191.087,66.3231 190.5799,66.6486 190.3325,66.9876 190.1494,67.6662 190.0963,68.3059 190.1339,69.011 189.9766,69.8333 189.7289,70.3029 189.3512,70.8897 188.5446,71.6586 188.0512,72.2392 187.7895,72.6495 187.6972,73.3805 187.7736,74.1901 187.7725,74.8038 187.6287,75.2605 187.0155,76.787 186.9109,77.1654 186.6017,77.8362 186.3831,78.763 186.5121,79.2203 186.9191,79.4485 187.2366,79.5687 187.6127,79.8709 187.6862,80.3348 187.5908,80.6309 187.2699,80.9137 186.9513,81.3897 186.9481,81.7917 186.9678,82.1214 187.1632,83.2406 187.557,83.6526 187.7903,83.8661 188.0458,83.9759 188.461,83.9406 188.7229,83.6963 188.9682,82.8333 189.3676,82.5259 189.683,82.7913 189.8309,83.178 189.7804,83.7146 189.5672,84.4193 189.29,84.6429 188.5949,84.9843 187.9535,85.3257 187.6942,85.5906 187.7279,86.0032 187.6642,86.5644 187.3942,87.0328 187.1092,87.3568 186.6603,87.5337 185.9655,87.7282 185.6494,87.9455 185.8258,88.4902 186.0044,88.849 186.2935,89.1072 186.5491,89.44 186.6096,90.1653 186.5625,90.5015 186.4207,90.9598 186.3661,91.3488 185.9715,91.3274 185.6082,91.3831 185.4839,91.6923 185.158,91.9029 184.781,92.0826 184.4536,91.7187 184.1822,91.6125 183.9155,91.8372 183.7148,92.1192 183.4415,92.1998 183.189,92.2711 183.1295,92.6668 183.2315,92.9246 183.4695,93.0771 183.2802,93.5421 183.0596,93.7191 183.1273,94.0022 183.1427,94.2367 183.4708,94.0865 183.4617,94.4992 183.5279,94.757 183.7531,94.9197 183.8326,95.1144 183.7811,95.4342 183.9276,95.7444 184.0618,95.9725 183.6667,96.0278 183.2125,96.1837 182.9454,96.4524 182.9757,96.7397 182.7806,96.9016 182.5491,96.8669 182.3915,97.3363 182.1157,97.5135 181.8419,97.6767 181.8752,97.9807 181.6508,98.0691 181.4233,98.2095 181.1625,98.0991 180.9641,97.9957 180.5247,97.9214 180.1205,98.2336 179.7459,98.4571 179.6672,98.7403 179.5655,98.9771 179.2962,99.1338 179.0189,99.3612 178.8109,99.6249 178.4985,99.7162 178.1595,99.8607 177.7867,99.8239 177.3993,99.3671 177.1922,99.4183 176.7668,99.7781 176.4126,100.0608 176.3076,100.5581 175.9437,100.7117 175.5069,100.6387 175.2593,100.7619 174.9894,100.966 174.6903,101.1761 174.4673,101.2784 174.176,101.3279 173.9606,101.4203 173.842,101.6077 173.8289,101.7458 173.7936,102.1181 173.923,102.8357 173.8883,103.2546 174.0641,103.7994 174.0226,104.1744 173.9132,104.4602 173.9165,104.7191 174.0454,104.9976 174.387,105.243 174.761,105.3648 175.0831,105.5407 175.0114,106.1815 174.9039,106.5851 174.6718,106.9838 174.5793,107.3193 174.3605,107.5705 174.1463,107.8598 174.3047,108.051 174.6751,108.2948 174.7367,108.6393 174.5218,108.9754 174.1479,109.2704 173.935,109.7429 173.856,110.1898 173.5567,110.5486 173.3002,110.682 172.9581,110.9591 172.7296,111.0138 172.5246,111.4998 172.5373,111.7137 172.42,112.1828 172.4887,112.4163 172.4558,112.9265 171.9215,113.266 171.6265,113.4148 171.3267,113.5578 171.2413,113.8443 171.1739,114.0304 170.8924,114.1987 170.6307,114.5283 170.5187,114.9461 169.9145,115.4235 169.253,115.3633 168.8395,115.5176 168.4996,115.7543 168.0988,116.0574 167.7353,116.1369 167.5887,116.3219 167.5352,116.561 167.3968,116.8602 167.0522,117.0117 166.743,117.0444 166.5937,117.2586 166.4429,117.4409 166.1609,117.4935 165.9364,117.6218 165.7068,117.8951 165.5349,118.1653 165.2976,118.5052 165.0903,118.7193 164.8819,119.0322 164.6036,119.5058 164.3532,119.6137 164.2086,119.805 164.0414,119.9919 163.9423,120.1339 163.8519,120.2632 163.6748,120.4913 163.7682,121.0004 164.0169,121.1765 164.2437,121.5071 164.2862,121.8499 164.3963,122.1064 164.493,122.4858 164.55,123.0443 164.6988,123.3062 165.1935,123.7325 165.115,124.0057 165.1499,124.4325 165.509,124.8137 165.79,125.257 165.9211,125.492 165.9972,125.7666 166.3799,125.8363 166.8026,125.9005 166.9713,126.0612 167.2306,126.2245 167.1078,126.7286 167.112,127.0958 167.3406,127.2714 167.4098,127.4727 167.5917,127.7181 167.7068,127.9756 167.8273,128.4354 168.0933,128.3805 168.4093,128.3775 168.798,128.6199 168.9496,128.8523 169.1928,128.9898 169.21,129.0877 169.241,129.2641 169.6014,129.6875 169.8934,130.0774 169.9494,130.8911 170.1522,131.1759 170.3463,131.3043 170.487,131.5575 170.5583,131.8361 170.5937,132.065 171.1602,132.2461 171.4179,132.5167 171.4772,132.9103 171.6177,133.1586 171.6383,133.5378 171.8758,133.8531 171.9834,134.2289 172.0412,134.4641 172.1275,134.6672 172.2294,134.9907 172.5805,135.3286 172.8249,135.434 173.1059,135.7639 173.4152,136.0262 155.812,147.1203 146.6869,152.8712 144.9026,151.5886 143.1321,151.6962 142.6005,151.4176 140.7869,146.6079 138.0669,143.6536 137.3833,142.5885 137.6428,140.8319 137.3739,139.7301 136.8065,138.9677 136.3489,137.9261 137.1684,134.4944 137.1142,133.9022 135.5759,131.7545 135.5782,131.03 135.9942,129.9024 137.2538,128.3455 142.2427,125.3769 143.0777,124.3946 143.189,123.7078 141.3849,120.8825 140.0269,117.8362 138.1732,115.2631 137.3749,114.4316 135.9694,113.3012 135.027,112.8077 131.0343,111.0993 130.8183,107.9508" stroke="black" /><polygon fill="none" points="311.202,23.7745 311.3639,23.8811 311.414,23.9064 311.6519,24.0265 311.9244,23.8981 312.1328,23.7857 312.2383,23.5016 312.2566,23.5016 312.2876,23.4534 312.3381,23.375 312.398,23.2819 312.5299,23.0547 312.7479,22.6793 312.8092,22.5737 312.9093,22.3486 313.3257,22.0229 313.625,21.7888 314.1044,21.5271 314.3506,21.3927 315.1973,20.9832 315.8306,20.6784 316.1119,20.5432 316.4259,20.3922 316.7686,20.2706 316.9774,20.2176 317.2147,20.194 317.3413,20.1467 317.441,20.076 317.5439,19.9688 317.7907,20.0048 317.9896,20.0338 318.4338,20.024 319.4446,19.9812 319.7982,20.0668 323.7534,19.6041 324.7866,19.4462 326.4639,19.1898 327.1793,19.0619 328.2301,18.8657 329.4543,18.637 329.9325,18.4266 330.4703,18.3019 331.6494,17.8479 332.3964,17.6634 333.2086,17.4245 334.3549,17.0741 334.8195,16.9275 336.5097,16.0483 336.6159,15.8356 337.5316,15.4193 337.7081,15.3268 338.2579,15.039 340.056,14.1156 340.3612,13.9056 341.2276,13.3094 342.7455,12.0366 343.4727,11.5708 344.2853,10.895 344.3226,10.8577 344.4543,10.7257 345.1383,10.0405 345.2492,9.8458 345.2595,9.809 345.1873,9.8273 345.067,9.8939 345.051,9.8547 345.1014,9.8214 345.1118,9.7627 345.066,9.7396 345.1245,9.6936 345.152,9.7028 345.152,9.7408 345.1749,9.742 345.1876,9.6868 345.2254,9.6638 345.2644,9.6351 345.3412,9.5718 345.3791,9.5005 345.3872,9.4636 345.4651,9.4373 345.4926,9.4442 345.504,9.4892 345.5177,9.5272 345.5463,9.5146 345.6021,9.4597 345.5595,9.3997 345.4938,9.372 345.6208,9.2171 345.8794,8.938 346.0966,8.7187 346.2801,8.5731 346.4866,8.3339 346.5524,8.3017 346.6045,8.1636 346.7038,8.1668 346.7205,8.2114 346.8183,8.1962 346.8289,8.2607 346.8655,8.2654 346.9191,8.1994 347.0292,8.109 347.1208,8.0938 347.1347,8.0385 346.9514,8.0275 346.9255,7.9767 347.0204,7.8602 347.0434,7.8218 347.1075,7.825 347.135,7.8005 347.2129,7.7914 347.2665,7.7208 347.3002,7.6794 347.3689,7.6642 347.4377,7.6504 347.6212,7.4649 347.6472,7.4772 347.6624,7.4972 347.7173,7.5357 347.754,7.5281 347.7924,7.413 347.8597,7.3194 347.8979,7.3271 347.9574,7.3718 348.02,7.3626 348.02,7.3979 348.0199,7.4579 348.0748,7.4656 348.0885,7.544 348.148,7.5425 348.1956,7.4167 348.2521,7.4091 348.2596,7.4813 348.3116,7.4322 348.3301,7.337 348.4142,7.2972 348.4616,7.2574 348.5759,6.9882 348.6193,6.8859 348.8176,6.8262 349.0018,6.8056 349.0104,6.8046 349.0266,6.8866 349.0945,6.8648 349.1596,6.8868 349.4553,6.6726 349.3898,6.6617 349.2897,6.6451 349.271,6.4785 349.5046,6.3997 349.5592,6.2196 349.9205,6.1137 349.9719,6.2366 350.3014,5.9521 350.4344,5.9714 350.4145,6.2373 350.9561,5.7675 351.1546,5.5767 351.556,5.4992 351.8007,5.2894 352.1763,5.065 352.4124,5.1446 352.2737,5.299 352.1967,5.4303 352.3581,5.4692 352.5274,5.3457 352.7043,5.3151 352.858,5.3153 352.9968,5.0604 353.2124,4.8598 353.4429,4.9374 353.8425,5.0927 354.0115,5.1625 354.2115,5.1164 354.4579,4.8926 354.8502,4.7541 355.2039,4.7469 356.0653,4.5008 356.2583,4.4221 356.8998,4.1605 357.1039,4.0772 357.6422,4.0085 358.0033,3.9428 358.1172,4.003 358.3671,3.957 358.3779,4.0307 358.2338,4.1206 358.3017,4.1535 358.3504,4.2518 358.5776,4.0991 358.6713,4.0931 358.641,3.9722 358.696,3.9191 358.9323,3.8908 359.0921,3.9663 359.3634,4.0923 359.4529,4.1225 359.7489,4.1557 359.9361,4.2297 360.6583,4.2608 361.0139,4.3105 361.3641,4.3738 361.5758,4.4069 362.1025,4.4296 362.3468,4.4873 362.7296,4.507 363.327,4.5133 363.5765,4.4466 363.772,4.451 364.0077,4.397 364.1348,4.3524 364.53,4.3182 364.8601,4.4117 365.4441,4.4445 367.7211,4.9758 369.1949,5.0877 369.5397,5.1264 369.9034,5.1925 370.2781,5.2176 371.3364,5.324 371.665,5.3027 372.5774,5.2412 373.7206,5.2102 375.5369,4.8902 379.6311,4.1733 381.7913,4.3389 384.4437,4.4665 385.683,4.2837 385.9738,4.4069 386.5266,4.3859 386.809,4.3402 386.9513,4.2417 387.2328,4.194 387.7796,4.1366 387.7762,3.9655 388.1564,3.9151 388.2649,4.0063 388.4933,3.7664 388.5584,3.8429 388.8228,3.7632 388.8196,3.5011 388.943,3.2756 389.2663,3.1695 389.3521,3.2362 389.3372,3.5747 389.5965,3.4769 389.4665,3.0361 389.7435,2.8587 390.0819,2.7973 390.32,2.9446 390.3429,3.1147 390.5735,3.1614 391.0428,2.9456 391.7579,2.908 392.037,3.0129 392.5573,3.0716 393.1262,3.0879 394.7779,3.1197 394.5896,5.373 394.5889,5.4347 395.7081,4.2157 396.9811,3.8035 397.3078,2.7998 398.2412,2.7235 399.8378,2.4605 400.8933,2.4427 401.7496,2.2562 402.21,2.1437 402.6704,2.0311 403.5394,1.8964 405.0721,1.3486 405.6462,1.1735 406.2384,1.3242 407.4368,1.762 408.4963,1.9607 410.0336,2.6424 411.4298,2.9972 413.8011,3.8043 415.9873,4.1666 417.1602,4.2363 419.1008,4.273 420.1434,4.3133 421.1018,4.2447 421.8913,4.0004 423.3597,3.4151 424.9383,3.33 425.6289,3.132 426.57,3.0328 428.3012,2.6423 429.5033,2.5712 430.3338,2.6713 432.8185,2.5929 433.435,2.4928 433.8806,2.3351 434.0628,2.1032 433.8212,2.0974 433.384,2.0996 433.069,2.0827 432.2896,2.139 433.1534,1.7473 434.2457,1.2164 436.1071,0.2416 436.5273,0.1183 437.48,0.0 438.5866,0.3381 439.1277,0.6225 440.6704,2.1088 440.9267,2.9376 441.014,3.2992 441.4683,3.6536 441.7795,3.7954 442.9156,3.8397 443.4876,3.9095 445.0019,3.2612 445.8719,3.0208 446.9819,2.9648 447.6421,2.7697 448.7911,2.7568 449.5439,2.8541 450.1914,3.4938 451.3896,3.5739 452.569,3.1031 452.9388,3.3779 453.2788,4.0641 453.7936,5.2206 455.6532,6.0362 456.3727,7.0363 457.2454,7.7003 457.7528,9.4773 457.7109,11.642 457.5926,12.592 457.9899,13.3088 458.1464,13.6898 457.6322,14.3717 457.7249,14.7575 458.7324,15.3375 459.2898,16.4622 460.1322,17.5985 461.2491,18.3493 461.7796,19.1049 462.2829,19.7062 462.7205,20.357 462.8241,20.7208 463.4044,21.1403 463.5352,21.686 464.5097,22.3485 465.474,22.5317 466.8551,22.4234 468.0279,22.3313 469.1234,22.724 470.4607,22.5991 471.5205,22.7936 472.2882,23.0842 473.3923,23.1823 474.1122,23.3281 474.9094,23.4648 475.9511,23.1466 476.5263,23.2576 477.1507,23.5394 477.6657,23.609 478.1148,23.8273 478.2676,24.3454 478.6674,24.5223 479.0013,24.8148 479.9981,25.2238 480.7268,25.313 482.2658,26.0387 482.073,26.6032 481.8846,26.959 481.6401,27.6346 481.1419,28.6232 481.1135,30.1687 480.8024,31.1437 480.0939,31.9929 479.5717,32.6524 479.3557,33.1469 479.2831,33.7963 479.4053,34.415 479.61,34.6833 479.9723,34.9466 479.9852,35.1202 480.0117,35.4622 480.0929,35.7715 480.0699,36.0707 480.0118,36.3808 479.9095,36.6402 479.9312,36.9245 479.739,37.0625 479.6622,37.2807 479.7164,37.5008 479.5827,38.0185 479.4073,38.6747 479.3129,39.2109 479.2162,39.6424 479.0417,39.875 478.8602,40.3542 479.0677,40.933 479.3796,41.2916 479.8009,41.7715 480.469,42.1636 480.7868,42.2192 481.1377,42.1039 481.6198,42.2313 482.0775,42.6166 482.2493,42.7611 482.5281,43.2519 482.7632,43.6434 483.0913,44.2059 483.5067,44.9944 483.8125,45.7993 484.0034,46.5379 484.0297,47.3148 483.8812,47.7114 483.6559,48.1739 483.6277,48.7634 483.5559,49.1435 483.2202,50.1624 483.033,50.8509 482.4947,51.7373 481.9894,52.5025 481.7531,52.9923 481.3741,53.6036 481.1486,54.2204 481.1973,54.7054 481.3938,55.2291 481.6453,55.7143 481.8803,56.183 482.1591,56.6738 482.4819,57.082 482.8376,57.3789 483.1098,57.6534 483.5658,57.9706 484.0039,58.2191 484.7048,58.716 485.0885,58.6449 485.916,58.6625 486.3374,59.1425 486.8888,59.822 486.9793,60.0962 487.1152,60.3705 487.3421,60.5992 487.6145,60.7823 488.0686,60.9199 488.4551,60.9899 489.0831,60.9908 489.6856,60.9723 490.147,60.9471 490.5956,60.9413 490.9032,60.9224 494.1354,81.5207 500.0,118.8957 499.7351,118.9155 499.334,118.8106 499.0676,118.4859 498.7244,118.4401 498.4224,118.2022 498.0358,118.2033 497.8166,118.0115 497.5621,117.7322 497.255,117.1491 496.8883,117.2718 496.5871,117.2347 496.3965,116.874 496.0118,116.8085 495.9398,117.1137 495.6081,116.8778 495.4064,116.6598 495.1238,116.6428 494.7743,116.5523 494.4883,116.2171 494.1603,115.9947 494.025,115.7173 493.8798,115.6013 493.9717,115.4377 493.8557,115.2264 493.8721,115.1359 493.9107,114.9222 493.6294,114.8494 493.3995,114.7708 493.1258,114.7481 492.687,114.8906 492.392,114.7024 491.9714,114.5792 491.4938,114.3342 491.2973,114.1078 490.892,113.9682 490.2358,113.7676 490.0521,113.502 489.8198,113.2641 489.462,112.9573 489.0586,112.9237 488.8185,112.7197 488.8397,112.1449 488.6384,111.9519 488.494,111.6425 488.1675,111.6525 488.0408,111.4572 487.8012,111.2219 487.3256,111.0903 486.9972,111.0044 486.8562,110.6455 486.8597,110.2938 486.7855,109.8943 486.7301,109.6178 486.5237,109.4493 486.0568,109.2067 485.7388,109.1392 485.387,109.0621 485.0355,108.673 484.6673,108.4959 484.3997,108.2909 483.8786,108.147 483.9187,107.8158 483.9381,107.544 483.8536,107.2631 483.8311,106.7736 483.6448,106.682 483.4127,106.5567 483.2295,106.225 483.0447,105.7363 482.3909,105.2411 482.0087,104.8869 481.7401,104.7323 481.5537,104.5594 481.3063,104.4446 480.8628,104.2783 480.4093,103.8098 479.9935,103.8973 479.7218,103.8147 479.318,103.8025 478.8538,103.7357 478.3415,103.6774 478.136,103.5748 478.1497,103.3602 477.9386,103.0816 477.7759,102.933 477.7391,102.7295 477.4967,102.5932 477.1815,102.5986 476.907,102.8084 476.5434,102.7474 476.5385,102.7477 476.234,102.7707 476.0088,102.7038 475.7911,102.5777 475.5729,102.7201 475.5023,102.7662 475.0859,102.7334 474.825,102.3078 474.4526,101.9937 473.916,101.8623 473.4226,101.5104 473.0537,101.2542 472.6734,101.2351 472.5019,100.9389 472.1332,101.0074 471.7148,100.9994 471.4789,100.9386 471.4311,100.6877 471.1142,100.4461 470.5787,100.3486 470.1902,100.5075 469.8703,100.3154 469.6244,100.0737 469.3531,100.1897 469.1668,100.3131 468.8412,100.4167 468.4805,100.1336 468.0324,99.9839 467.2875,99.5247 467.0136,99.3372 466.6174,99.3775 466.2849,99.5123 466.0587,99.3786 465.6748,99.2293 465.4814,99.0033 465.5545,98.5532 465.0358,98.3861 464.6824,98.2234 464.3627,98.2831 464.1286,98.1874 463.8746,98.0263 463.5854,97.7374 463.4695,97.2971 463.2774,97.0848 463.1898,96.8286 462.9769,96.4877 462.9568,96.2146 462.848,95.9372 462.9858,95.5427 463.1999,95.1485 463.3792,94.6385 463.0799,94.3009 462.8893,94.2893 408.9342,90.9992 394.0472,90.0914 360.6468,96.3885 348.6833,98.6441 331.0597,101.9667 314.8481,105.0231 312.5307,103.5854 292.7273,91.2998 292.5926,91.3232 292.442,91.3492 287.9978,92.1187 266.5207,95.8371 251.4064,98.4539 232.4569,101.7348 230.8235,102.6834 228.0224,104.3103 173.4152,136.0262 173.1059,135.7639 172.8249,135.434 172.5805,135.3286 172.2294,134.9907 172.1275,134.6672 172.0412,134.4641 171.9834,134.2289 171.8758,133.8531 171.6383,133.5378 171.6177,133.1586 171.4772,132.9103 171.4179,132.5167 171.1602,132.2461 170.5937,132.065 170.5583,131.8361 170.487,131.5575 170.3463,131.3043 170.1522,131.1759 169.9494,130.8911 169.8934,130.0774 169.6014,129.6875 169.241,129.2641 169.21,129.0877 169.1928,128.9898 168.9496,128.8523 168.798,128.6199 168.4093,128.3775 168.0933,128.3805 167.8273,128.4354 167.7068,127.9756 167.5917,127.7181 167.4098,127.4727 167.3406,127.2714 167.112,127.0958 167.1078,126.7286 167.2306,126.2245 166.9713,126.0612 166.8026,125.9005 166.3799,125.8363 165.9972,125.7666 165.9211,125.492 165.79,125.257 165.509,124.8137 165.1499,124.4325 165.115,124.0057 165.1935,123.7325 164.6988,123.3062 164.55,123.0443 164.493,122.4858 164.3963,122.1064 164.2862,121.8499 164.2437,121.5071 164.0169,121.1765 163.7682,121.0004 163.6748,120.4913 163.8519,120.2632 163.9423,120.1339 164.0414,119.9919 164.2086,119.805 164.3532,119.6137 164.6036,119.5058 164.8819,119.0322 165.0903,118.7193 165.2976,118.5052 165.5349,118.1653 165.7068,117.8951 165.9364,117.6218 166.1609,117.4935 166.4429,117.4409 166.5937,117.2586 166.743,117.0444 167.0522,117.0117 167.3968,116.8602 167.5352,116.561 167.5887,116.3219 167.7353,116.1369 168.0988,116.0574 168.4996,115.7543 168.8395,115.5176 169.253,115.3633 169.9145,115.4235 170.5187,114.9461 170.6307,114.5283 170.8924,114.1987 171.1739,114.0304 171.2413,113.8443 171.3267,113.5578 171.6265,113.4148 171.9215,113.266 172.4558,112.9265 172.4887,112.4163 172.42,112.1828 172.5373,111.7137 172.5246,111.4998 172.7296,111.0138 172.9581,110.9591 173.3002,110.682 173.5567,110.5486 173.856,110.1898 173.935,109.7429 174.1479,109.2704 174.5218,108.9754 174.7367,108.6393 174.6751,108.2948 174.3047,108.051 174.1463,107.8598 174.3605,107.5705 174.5793,107.3193 174.6718,106.9838 174.9039,106.5851 175.0114,106.1815 175.0831,105.5407 174.761,105.3648 174.387,105.243 174.0454,104.9976 173.9165,104.7191 173.9132,104.4602 174.0226,104.1744 174.0641,103.7994 173.8883,103.2546 173.923,102.8357 173.7936,102.1181 173.8289,101.7458 173.842,101.6077 173.9606,101.4203 174.176,101.3279 174.4673,101.2784 174.6903,101.1761 174.9894,100.966 175.2593,100.7619 175.5069,100.6387 175.9437,100.7117 176.3076,100.5581 176.4126,100.0608 176.7668,99.7781 177.1922,99.4183 177.3993,99.3671 177.7867,99.8239 178.1595,99.8607 178.4985,99.7162 178.8109,99.6249 179.0189,99.3612 179.2962,99.1338 179.5655,98.9771 179.6672,98.7403 179.7459,98.4571 180.1205,98.2336 180.5247,97.9214 180.9641,97.9957 181.1625,98.0991 181.4233,98.2095 181.6508,98.0691 181.8752,97.9807 181.8419,97.6767 182.1157,97.5135 182.3915,97.3363 182.5491,96.8669 182.7806,96.9016 182.9757,96.7397 182.9454,96.4524 183.2125,96.1837 183.6667,96.0278 184.0618,95.9725 183.9276,95.7444 183.7811,95.4342 183.8326,95.1144 183.7531,94.9197 183.5279,94.757 183.4617,94.4992 183.4708,94.0865 183.1427,94.2367 183.1273,94.0022 183.0596,93.7191 183.2802,93.5421 183.4695,93.0771 183.2315,92.9246 183.1295,92.6668 183.189,92.2711 183.4415,92.1998 183.7148,92.1192 183.9155,91.8372 184.1822,91.6125 184.4536,91.7187 184.781,92.0826 185.158,91.9029 185.4839,91.6923 185.6082,91.3831 185.9715,91.3274 186.3661,91.3488 186.4207,90.9598 186.5625,90.5015 186.6096,90.1653 186.5491,89.44 186.2935,89.1072 186.0044,88.849 185.8258,88.4902 185.6494,87.9455 185.9655,87.7282 186.6603,87.5337 187.1092,87.3568 187.3942,87.0328 187.6642,86.5644 187.7279,86.0032 187.6942,85.5906 187.9535,85.3257 188.5949,84.9843 189.29,84.6429 189.5672,84.4193 189.7804,83.7146 189.8309,83.178 189.683,82.7913 189.3676,82.5259 188.9682,82.8333 188.7229,83.6963 188.461,83.9406 188.0458,83.9759 187.7903,83.8661 187.557,83.6526 187.1632,83.2406 186.9678,82.1214 186.9481,81.7917 186.9513,81.3897 187.2699,80.9137 187.5908,80.6309 187.6862,80.3348 187.6127,79.8709 187.2366,79.5687 186.9191,79.4485 186.5121,79.2203 186.3831,78.763 186.6017,77.8362 186.9109,77.1654 187.0155,76.787 187.6287,75.2605 187.7725,74.8038 187.7736,74.1901 187.6972,73.3805 187.7895,72.6495 188.0512,72.2392 188.5446,71.6586 189.3512,70.8897 189.7289,70.3029 189.9766,69.8333 190.1339,69.011 190.0963,68.3059 190.1494,67.6662 190.3325,66.9876 190.5799,66.6486 191.087,66.3231 191.3858,66.2714 191.9573,66.2333 192.2653,66.0832 192.5667,65.9485 192.8673,65.7389 193.1145,65.5304 193.245,65.2112 193.2288,64.7453 192.9477,64.281 192.3266,63.1787 192.1194,62.865 191.2519,61.4271 190.7726,60.7733 189.9698,59.5053 189.5535,58.8767 189.4158,58.6503 189.1626,58.2241 188.8046,57.8113 188.3698,57.3467 187.5848,56.7546 187.2515,56.409 187.019,55.7623 187.0885,55.0182 187.4986,54.4608 187.9858,54.3833 188.7941,54.4632 189.8263,54.5924 190.5567,54.6134 191.4935,54.3434 192.0191,53.911 192.3608,53.4514 192.6056,52.7664 192.7041,52.1398 192.6185,51.0429 192.2973,49.5485 191.8361,48.5934 191.504,48.06 191.1495,47.6252 190.8577,47.2229 190.5757,46.9776 189.9987,46.897 189.6309,46.9758 189.202,47.1611 188.7243,47.3756 188.4708,47.5514 188.0565,47.722 187.5646,47.775 187.1745,47.6051 186.7194,47.054 186.238,46.1355 185.7962,44.8131 185.6983,44.3162 185.7689,43.5982 185.7566,43.2587 185.7574,42.8278 185.4856,42.305 185.0184,42.1475 184.3957,41.8069 183.8901,41.3098 183.4619,41.1252 183.1114,40.6581 182.7891,39.767 182.466,38.9177 182.2205,38.3105 181.7947,37.754 181.85,37.1485 181.9997,36.6953 181.747,36.177 181.5247,35.8365 181.2483,35.6119 180.7416,35.2708 180.2655,34.984 179.2361,34.642 178.8004,34.5544 177.6758,34.3689 176.9245,34.1945 175.964,33.8867 175.2044,33.5898 174.3881,33.1593 173.3607,32.1764 173.2936,32.1546 173.043,31.7146 172.8431,31.3845 172.4701,31.1268 172.1913,30.8405 171.9108,30.4744 171.64,30.0888 171.3157,29.7957 171.0398,29.5905 170.8706,29.3026 170.812,29.0502 170.7199,28.721 170.5433,28.3478 170.4427,28.1858 170.2086,27.9551 170.0151,27.5249 169.7661,27.08 169.5939,26.6546 169.6135,26.4614 169.8252,26.3073 170.1902,26.3466 170.9587,26.5026 171.8031,27.1418 173.0132,27.4725 173.7245,27.3386 174.1513,26.8388 175.1516,26.5806 175.8322,26.7292 176.2397,26.7337 176.6472,26.7381 177.1435,26.8517 177.4141,26.9438 177.9427,27.3571 178.5884,27.7136 180.1128,28.349 181.4569,28.5768 183.077,28.7444 186.1367,28.7587 190.868,29.0621 191.7648,28.8558 192.4886,28.9351 193.3075,28.8846 195.3113,28.7477 196.6435,28.6567 198.1177,28.4557 199.592,28.2548 203.2116,28.478 205.2815,27.7711 206.1258,27.9893 207.4363,27.7404 209.4027,27.0939 211.5916,27.2885 212.8587,27.2648 214.5402,26.8172 216.1254,27.236 219.4176,27.4759 222.5127,27.0394 224.7545,26.5841 226.7722,26.1197 227.3698,25.7351 227.9799,24.7873 228.2231,24.519 230.0428,23.9589 230.949,23.2759 231.9452,22.8644 232.3097,23.2709 232.5115,23.2809 232.7133,23.2909 233.8543,22.9257 234.1947,22.9658 234.4851,23.2539 234.6843,23.0154 235.5038,22.9827 235.92,23.3832 237.2291,23.3806 237.3528,23.3885 237.7145,23.4115 238.0969,23.4358 238.3217,23.37 238.8924,23.2032 239.528,22.9703 240.6821,22.8407 241.212,22.7818 242.6704,22.6199 243.8346,22.2466 244.2488,22.2153 244.9063,22.1655 246.2596,21.8023 247.9626,21.1422 248.2283,21.0036 249.7637,20.202 249.7775,20.1948 249.9914,19.9075 250.089,19.5275 250.2354,18.9671 250.5179,18.2266 250.8536,17.5106 250.909,17.4405 251.2035,17.0676 251.3755,16.9263 251.5507,16.7825 252.0479,16.5815 252.9692,16.5587 254.104,16.3754 255.2965,16.4945 256.7263,16.804 258.5292,17.2654 259.1023,17.2273 261.6315,17.6948 263.9153,17.6109 265.2142,17.891 268.048,17.855 269.297,17.901 270.315,17.8217 271.4847,17.6579 272.8107,17.364 273.2827,17.2469 273.673,17.0885 273.9266,17.0834 274.104,17.0398 274.4778,16.8979 275.3868,16.4661 276.4488,15.8125 276.954,15.4267 277.3609,15.1038 277.7434,14.6822 277.9976,14.3288 278.0311,14.0437 278.1737,13.5723 278.2725,13.2406 278.2839,12.9226 278.2979,12.6813 278.3583,12.4455 278.3833,12.1768 278.3921,11.7929 278.4117,11.4776 278.4232,11.1212 278.4096,10.732 278.1479,10.4824 278.0321,10.1458 278.3036,9.896 278.6377,9.6123 278.7792,9.5329 278.909,9.6355 278.9653,9.8403 278.9423,10.0278 279.0327,10.0849 279.1855,10.0055 279.344,9.9205 279.5816,9.8242 279.8589,9.7167 280.1189,9.7853 280.2714,9.9163 280.2653,10.1551 280.2425,10.2859 280.0839,10.4164 280.1969,10.4791 280.3829,10.4154 280.4623,10.2537 280.5933,10.1386 280.9155,10.2415 281.0057,10.4065 281.0054,10.5544 281.237,10.731 281.8557,10.9953 282.1242,11.1021 282.8825,11.2505 283.3461,11.255 283.6762,11.2189 283.8915,11.3042 285.4242,11.3397 285.4651,11.3782 286.0487,11.4148 286.4278,11.388 286.5368,11.4266 286.9623,11.4492 287.387,11.4439 287.4683,11.4579 287.5651,11.4133 287.921,11.3769 288.2249,11.2988 288.5256,11.2992 288.7189,11.2811 289.0229,11.1751 289.2624,11.0614 289.4052,10.9598 289.4328,10.9753 289.5464,10.9662 289.8474,10.7384 290.0316,10.6863 290.0992,10.6463 290.2556,10.665 290.604,10.5546 290.7162,10.4545 290.788,10.4041 290.834,10.4248 290.8595,10.5124 290.9722,10.5693 291.1157,10.585 291.3053,10.5802 291.5155,10.5444 291.6847,10.5241 291.9051,10.4884 292.1768,10.4837 292.3767,10.4892 292.4996,10.5151 292.6175,10.5411 292.7097,10.5464 292.8532,10.5466 292.966,10.5417 293.1146,10.5574 293.2281,10.5514 293.3094,10.5577 293.406,10.5686 293.5265,10.5856 293.6309,10.541 293.7369,10.4548 293.8368,10.3301 293.93,10.265 293.9904,10.3278 293.9861,10.4351 294.0424,10.4713 294.0937,10.4353 294.1092,10.3889 294.0734,10.3322 294.0479,10.2394 294.0583,10.1621 294.0892,10.09 294.1375,10.0243 294.2123,10.0198 294.2276,10.0696 294.2634,10.1109 294.3249,10.1265 294.3849,10.0809 294.4666,10.0093 294.5723,9.9603 294.636,9.9137 294.6722,9.8525 294.7461,9.8155 294.8553,9.7655 294.8785,9.7328 294.9138,9.7173 294.9714,9.674 295.0432,9.669 295.0995,9.7052 295.1558,9.762 295.1505,9.8238 295.0734,9.9628 294.9609,10.0616 294.9029,10.0891 294.7989,10.1765 294.7347,10.2199 294.6338,10.2561 294.61,10.2737 294.5962,10.3382 294.593,10.3935 294.6128,10.4258 294.678,10.4311 294.8113,10.421 295.0418,10.4987 295.2928,10.6176 295.4823,10.6798 295.6923,10.7368 295.8512,10.7629 296.0356,10.7992 296.4251,10.8359 296.5663,10.8504 296.8465,10.7182 296.9703,10.6309 297.0818,10.6418 297.1153,10.6864 297.1274,10.734 297.1976,10.7848 297.1914,10.8217 297.0503,10.8833 297.0297,10.9658 297.185,11.0498 297.6597,11.1673 297.8445,11.2152 298.1055,11.251 298.3437,11.3097 298.4552,11.3206 298.5624,11.36 298.8052,11.3604 299.0336,11.3563 299.0716,11.2516 299.177,11.2518 299.1952,11.3025 299.2856,11.2542 299.3236,11.2536 299.3635,11.2848 299.3866,11.3043 299.3859,11.3652 299.4709,11.3763 299.5431,11.3777 299.6514,11.3649 299.6997,11.3508 299.7365,11.3295 299.7597,11.3049 299.7727,11.2453 299.8095,11.1838 299.8424,11.1346 299.8689,11.1353 299.8688,11.1612 299.8816,11.1949 299.9054,11.2332 299.9176,11.2695 299.9272,11.2922 299.953,11.2916 299.9537,11.2683 299.9756,11.2683 299.9775,11.2929 300.0174,11.293 300.0464,11.293 300.0768,11.2678 300.1122,11.2692 300.1798,11.2693 300.2907,11.2688 300.2907,11.252 300.339,11.2521 300.3384,11.2177 300.3494,11.1873 300.3997,11.1835 300.4248,11.2088 300.4266,11.2464 300.5085,11.2433 300.4959,11.1752 300.5492,11.1719 300.5586,11.2021 300.5955,11.197 300.6393,11.1971 300.6008,11.1538 300.5424,11.101 300.5331,11.0509 300.5699,11.0392 300.6097,11.0568 300.6415,11.0483 300.6716,11.0224 300.6965,11.0311 300.7764,11.0347 300.8237,11.027 300.8719,10.9389 300.8763,10.8802 300.8454,10.8689 300.8007,10.8593 300.7483,10.8584 300.6977,10.8436 300.6977,10.8177 300.7278,10.8057 300.7322,10.766 300.7214,10.736 300.7393,10.7127 300.7659,10.72 300.7934,10.7453 300.816,10.757 300.8392,10.758 300.8634,10.7449 300.9113,10.7227 300.9346,10.6605 300.9839,10.6494 300.9826,10.577 301.0092,10.563 301.0305,10.5154 301.0451,10.479 301.0668,10.4659 301.0069,10.4435 300.9571,10.3453 300.9073,10.3448 300.873,10.3219 300.8586,10.2956 300.8601,10.2699 300.9447,10.19 300.9326,10.1224 300.9479,10.0764 300.9037,10.0517 300.9022,10.0057 300.9314,9.9443 300.9885,9.8692 301.1469,9.6609 301.2206,9.5532 301.3002,9.4658 301.2866,9.3644 301.3081,9.3015 301.3143,9.2385 301.2793,9.1479 301.2641,9.1095 301.2031,9.0479 301.2017,9.0019 301.2018,8.9497 301.2003,8.9067 301.1577,8.8129 301.2021,8.7577 301.2495,8.7271 301.2908,8.6749 301.3199,8.6228 301.317,8.5445 301.2926,8.4722 301.3906,8.3419 301.3907,8.2897 301.3465,8.2251 301.3924,8.1484 301.443,8.0686 301.5988,8.0459 301.5793,8.113 301.6471,8.1678 301.7286,8.1679 301.7803,8.0779 301.8997,8.1354 301.8914,8.2228 301.9592,8.2665 302.2052,8.5006 302.173,8.5386 302.0837,8.5154 302.0058,8.5291 301.937,8.5935 301.9129,8.6211 301.914,8.6545 301.8967,8.6798 301.9082,8.7017 301.9872,8.6949 302.0158,8.7514 302.0259,8.8228 302.0361,8.9334 302.0943,9.0394 302.1881,9.1236 302.2958,9.1181 302.4276,9.0849 302.5169,9.0689 302.5386,9.115 302.6465,9.1268 302.6405,9.143 302.8178,9.2562 302.9792,9.3393 302.9859,9.428 303.0363,9.4742 303.0121,9.5421 303.0063,9.587 303.0406,9.6481 303.0403,9.7851 303.0185,9.83 303.0723,9.8681 303.1571,9.836 303.2384,9.8338 303.2693,9.8823 303.409,9.8929 303.4145,10.0403 303.5268,10.0243 303.5254,10.1407 303.4956,10.1671 303.6008,10.3124 303.5834,10.4206 303.6028,10.4748 303.6656,10.5705 303.646,10.6683 303.7867,10.7688 303.8487,10.6744 304.024,10.6839 304.1235,10.7682 304.2196,10.8063 304.3262,10.8007 304.3706,10.9309 304.4532,10.8401 304.4944,10.9024 304.4851,10.9922 304.533,11.112 304.5501,11.1639 304.5767,11.2926 304.581,11.4953 304.6655,11.651 304.652,11.7097 304.5878,11.748 304.6029,11.8432 304.6867,11.9662 304.6653,12.0137 304.6133,12.0505 304.6238,12.1381 304.691,12.1796 304.6497,12.2164 304.5336,12.2408 304.5532,12.3591 304.605,12.4482 304.5488,12.5581 304.4972,12.6179 304.5486,12.6974 304.6252,12.7644 304.6767,12.8439 304.6742,12.9153 304.6661,13.0074 304.6443,13.0477 304.595,13.0741 304.5571,13.0982 304.6201,13.0923 304.6522,13.1157 304.6819,13.1629 304.7104,13.2148 304.7344,13.2459 304.7309,13.2886 304.7618,13.2967 304.834,13.2945 304.8684,13.2945 304.8833,13.2658 304.9406,13.2613 304.9806,13.2809 304.9748,13.3327 305.0275,13.3501 305.0698,13.372 305.1064,13.3986 305.1442,13.3998 305.1535,13.3468 305.1951,13.2134 305.3348,13.1975 305.5366,13.0746 305.6064,13.1035 305.5998,12.9791 305.6915,12.9252 305.7659,12.9379 305.9182,12.9704 306.0155,13.0098 306.0555,13.064 306.052,13.1089 306.013,13.1353 305.9455,13.1306 305.8572,13.1834 305.8056,13.2294 305.8135,13.2812 305.8214,13.3469 305.7185,13.4886 305.6932,13.5623 305.6873,13.6288 305.6953,13.6809 305.6792,13.7887 305.6958,13.8855 305.7416,13.9378 305.7415,13.9977 305.8194,13.9886 305.885,14.0363 305.8742,14.0931 305.8848,14.1484 305.903,14.2052 305.9182,14.2651 305.9441,14.3036 305.9959,14.3467 306.008,14.4265 306.0049,14.4895 305.9956,14.5325 306.0445,14.5372 306.1071,14.5495 306.1835,14.5343 306.2294,14.4929 306.2004,14.4483 306.1761,14.4007 306.1503,14.3116 306.1489,14.2241 306.2833,14.212 306.3184,14.2443 306.3106,14.295 306.3396,14.3104 306.3626,14.2705 306.4451,14.2368 306.5184,14.26 306.5597,14.2201 306.6697,14.2034 306.72,14.2311 306.7322,14.2788 306.7551,14.2988 306.7795,14.3049 306.8069,14.328 306.8328,14.4016 306.8447,14.4655 306.8911,14.469 306.9177,14.4941 306.9125,14.5218 306.8909,14.5606 306.878,14.6627 306.8291,14.6857 306.7576,14.6735 306.6674,14.6492 306.591,14.6448 306.5659,14.7337 306.5234,14.7324 306.4997,14.6964 306.4523,14.6196 306.3816,14.645 306.3677,14.6792 306.4138,14.7306 306.4201,14.7906 306.39,14.8061 306.2125,14.8294 306.1193,14.8338 306.0537,14.7508 305.9576,14.7169 305.8704,14.7735 305.8108,14.8456 305.7985,14.8809 305.8611,14.8856 305.8763,14.9348 305.8503,14.9747 305.8975,15.0408 305.9432,15.1192 306.0072,15.2052 306.0509,15.2729 306.0829,15.3175 306.179,15.3837 306.2491,15.4375 306.2506,15.4698 306.3224,15.4576 306.4295,15.3457 306.541,15.3305 306.654,15.3768 306.7562,15.4307 306.8477,15.5168 306.8415,15.5675 306.8026,15.6361 306.7262,15.6928 306.7474,15.7727 306.7626,15.805 306.8818,15.7484 306.9765,15.7424 307.1784,15.5753 307.2577,15.6231 307.2484,15.7167 307.2223,15.8349 307.1991,15.9777 307.1821,16.1097 307.1743,16.2448 307.0992,16.3937 307.0837,16.5211 307.0958,16.6317 307.0499,16.6577 306.9628,16.6837 306.9367,16.765 306.9732,16.8618 307.0327,16.9341 307.0892,16.9388 307.2374,16.8976 307.3519,16.8947 307.3961,16.9577 307.3792,17.0375 307.3607,17.1189 307.3575,17.208 307.3284,17.2939 307.2167,17.4181 307.1646,17.5378 307.1632,17.6106 307.2233,17.6513 307.3152,17.6558 307.3314,17.6912 307.3078,17.7315 307.2824,17.7743 307.3452,17.7692 307.352,17.8133 307.3407,17.8884 307.35,17.935 307.4239,17.9611 307.447,18.0069 307.4435,18.0389 307.4229,18.0656 307.4546,18.1028 307.5379,18.1349 307.586,18.088 307.7031,17.9754 307.7889,17.9951 308.1908,17.9298 308.2336,17.8539 308.3208,17.808 308.373,17.633 308.4326,17.6208 308.4432,17.6638 308.5135,17.6256 308.5471,17.6456 308.6129,17.6771 308.7337,17.6082 308.7718,17.659 308.7473,17.705 308.7396,17.7587 308.7303,17.8094 308.8173,17.8402 308.8203,17.9017 308.7668,17.9354 308.6948,18.0259 308.5969,18.1316 308.5005,18.2574 308.4913,18.2766 308.4821,18.2958 308.5355,18.3174 308.6485,18.3175 308.679,18.3621 308.6621,18.4481 308.6711,18.508 308.6344,18.5847 308.6083,18.6246 308.3349,18.6364 308.2875,18.687 308.1912,18.7652 308.2704,18.8974 308.3405,19.0081 308.4349,19.1541 308.5113,19.1358 308.5448,19.2111 308.5187,19.3124 308.6422,19.4293 308.6603,19.5522 309.1527,20.115 309.4078,20.3085 309.5155,20.319 309.5957,20.2235 309.6366,20.0761 309.6124,19.9328 309.7007,19.8503 309.8287,19.9691 309.9361,20.0929 310.0927,20.1342 310.1512,20.1963 310.2126,20.2531 310.1676,20.3718 310.1308,20.4762 310.0378,20.6291 310.017,20.8042 310.0168,20.9073 309.9023,20.9654 309.9284,21.1702 310.0156,21.4037 310.0989,21.5349 310.1599,21.5678 310.1639,21.6435 310.2188,21.6928 310.2881,21.6212 310.3633,21.7442 310.5584,21.9595 310.4972,22.0536 310.5952,22.1914 310.6486,22.2406 310.6988,22.3329 310.7293,22.3636 310.7413,22.5172 310.8358,22.6464 310.8462,22.7907 310.9804,22.9291 311.0303,23.244 311.2333,23.2249 311.0531,23.3173 311.0637,23.3516 311.0584,23.68 311.202,23.7745" stroke="black" /><polygon fill="none" points="90.3493,130.3199 90.3704,130.1814 90.3615,129.7462 90.5258,129.4449 90.763,128.5056 90.7293,127.8559 90.7126,127.8161 90.6052,127.5597 90.1427,127.2917 89.8421,126.9816 89.4268,126.7077 89.2506,126.4169 89.3299,126.0905 89.3594,125.8243 89.6052,125.6679 89.6579,125.2475 89.8186,125.1099 89.8684,124.8533 89.7742,124.6383 89.7842,124.4512 89.9611,124.3857 90.1663,124.1611 90.2368,123.9337 90.04,123.5484 89.8188,123.2913 89.2895,122.9352 89.0558,122.9194 88.7288,122.7847 88.3819,122.3884 87.9377,121.9951 87.7846,121.7697 87.8422,121.5163 87.9462,121.2478 87.8981,120.8654 88.0194,120.5085 88.0592,120.4029 88.277,120.3856 88.4671,120.2435 88.3565,120.0378 88.3911,119.8037 88.4066,119.6036 88.3265,119.3025 88.4588,119.0366 88.4475,118.7836 88.449,118.5974 88.2896,118.3895 88.3311,118.2452 88.4899,118.1707 88.5853,118.0849 88.5916,117.8698 88.662,117.6852 88.8284,117.416 88.8822,117.069 88.769,116.8071 88.4855,116.5885 88.0527,115.8933 87.7664,115.5522 87.6499,115.3745 87.6247,115.1362 87.6698,114.849 87.5925,114.5385 87.5722,114.4867 87.4091,114.0686 87.201,113.8348 87.1954,113.6612 87.2688,113.4759 87.4139,113.1536 87.3757,112.7664 87.3289,112.4524 87.3604,112.2704 87.4688,112.0284 87.7763,111.8717 87.8477,111.6454 87.7997,111.3552 87.8569,111.0114 88.0398,110.7802 88.3732,110.5291 88.7369,110.5271 89.08,110.4651 89.4018,110.3031 89.7023,109.9343 89.8032,109.8106 90.04,109.147 90.1256,108.5648 90.1069,108.3892 90.0907,108.2371 90.2505,107.9316 90.5419,107.6938 90.7839,107.4586 91.0027,106.8378 91.0061,106.828 91.0525,106.1185 91.2736,105.7269 91.5717,105.487 91.8345,105.23 92.0661,104.6929 91.9709,104.3149 91.73,104.0538 91.4024,103.9091 91.0053,103.8971 90.78,103.5621 90.6986,103.0909 90.7096,102.7288 90.741,102.4585 90.9209,102.1507 91.413,101.7457 91.7878,101.5863 92.1451,101.4729 92.4731,101.4258 92.8265,101.407 93.136,101.5822 93.3252,101.9797 93.4675,102.1544 93.6488,102.2303 93.8885,102.1088 94.1267,101.7409 94.3285,101.2956 94.4422,100.7714 94.5372,100.1739 94.565,99.9991 94.4469,99.4376 94.1231,99.1711 93.6862,98.8564 93.3637,98.7094 92.8734,98.6093 92.4529,98.7585 92.0598,98.6141 91.4472,98.0516 90.8318,96.9589 89.7894,93.7947 89.5,91.1933 89.2632,88.802 89.1579,86.9889 88.3159,85.7276 86.7002,83.29 85.2533,80.9901 83.8442,78.4291 83.7864,78.2727 82.9479,76.0049 82.4084,75.0626 82.3763,73.7013 82.369,70.6967 82.249,70.0106 81.8428,69.6982 82.0055,69.7067 82.8299,70.2883 94.5833,70.4446 105.9323,75.9361 123.8921,84.6265 124.1556,86.1624 124.4853,87.8788 125.0747,90.4046 125.3488,91.7293 126.46,96.7027 126.7087,97.3256 127.4508,97.2189 127.9045,97.1657 127.8818,98.9123 127.862,101.0879 127.8453,101.737 127.5621,103.0696 127.3254,104.1473 126.8212,106.4146 126.4396,107.9545 126.3679,108.1624 126.1708,108.7345 126.1706,109.2983 126.644,109.3259 127.1252,109.3524 127.6066,109.3728 128.0986,109.3977 128.5725,109.4082 128.996,109.2968 129.3672,109.0582 129.7629,108.7566 130.1787,108.4397 130.549,108.1568 130.8183,107.9508 131.0343,111.0993 135.027,112.8077 135.9694,113.3012 137.3749,114.4316 138.1732,115.2631 140.0269,117.8362 141.3849,120.8825 143.189,123.7078 143.0777,124.3946 142.2427,125.3769 137.2538,128.3455 135.9942,129.9024 135.5782,131.03 135.5759,131.7545 137.1142,133.9022 137.1684,134.4944 136.3489,137.9261 136.8065,138.9677 137.3739,139.7301 137.6428,140.8319 137.3833,142.5885 138.0669,143.6536 140.7869,146.6079 142.6005,151.4176 143.1321,151.6962 144.9026,151.5886 146.6869,152.8712 138.5256,158.5343 116.8357,171.9104 111.0776,175.4614 100.2104,182.1632 54.5928,181.6952 54.5762,181.6951 54.4069,182.3145 54.4948,181.8414 54.4781,181.5109 54.2887,181.2501 53.9902,181.0447 53.6599,180.8047 53.1372,180.4606 52.7401,180.3185 52.441,180.1676 52.3191,179.9769 52.3301,179.687 52.493,179.4539 52.609,179.3728 52.7024,179.0789 52.7022,178.8767 52.7786,178.7088 52.8842,178.4772 53.1783,178.1543 53.2024,177.9209 52.8713,177.4428 52.746,177.1131 52.6404,176.6678 52.6188,176.5765 52.606,176.5232 52.5135,176.1335 52.4283,175.7013 52.4298,175.3457 52.4947,175.0145 52.4658,174.68 52.4369,174.3456 52.4951,173.9239 52.6352,173.7306 52.6165,173.4762 52.4377,173.1433 52.0822,172.5941 51.8259,172.1528 51.6864,171.6386 51.717,171.3742 51.8812,171.2327 52.0626,171.3067 52.3549,171.2559 52.4649,171.029 52.6112,170.8364 52.8507,170.8515 53.2,170.6499 53.4668,170.4921 53.9242,169.9668 54.0886,169.6758 54.1791,169.4424 54.247,169.1857 54.1914,168.8041 54.3067,168.4932 54.5365,168.2426 54.8306,167.6155 56.1871,166.2622 56.3483,166.0342 56.3275,165.6511 56.293,165.3058 56.2449,165.014 56.4039,164.4687 56.3606,164.1027 56.3977,163.7662 56.3783,163.4806 56.6345,163.2888 56.7506,163.0574 56.9099,162.8155 57.0999,162.7735 57.3333,162.6574 57.4403,162.4403 57.8044,162.1234 58.7038,161.6669 59.5812,160.5474 59.95,159.5624 60.3164,159.0856 60.5206,158.6036 60.7271,158.4538 61.0602,158.3729 61.3701,158.0706 62.5813,157.4867 62.9463,157.1396 63.4371,156.8637 63.6687,156.516 63.7642,156.1205 63.9481,155.8715 64.2744,155.7072 64.5139,155.7005 64.7523,155.5126 65.0114,155.4934 65.0685,155.4891 65.1472,155.4833 65.5787,155.3126 66.185,155.0222 66.5272,154.8428 66.6469,154.5875 66.9724,154.4002 67.2655,154.0757 67.3322,154.0024 67.312,153.7902 67.5483,153.5402 67.6973,153.3183 67.6902,153.1973 67.683,153.0764 67.5023,152.895 67.4493,152.7311 67.7105,152.2002 67.8714,151.984 68.3703,151.8115 69.0913,151.636 69.408,151.5417 69.6459,151.5157 69.8922,151.4099 69.9491,151.286 69.9821,151.0383 69.9163,150.8556 69.6891,150.7755 69.6066,150.5766 69.6098,150.3757 69.7802,150.2925 69.8965,150.1562 70.1729,149.9419 70.2571,149.727 70.3109,149.5639 70.2864,149.365 70.1737,149.2028 70.0834,148.9111 70.1584,148.598 70.42,148.4354 70.6611,148.37 71.13,148.4983 71.3067,148.4761 71.3843,148.6028 71.6174,148.7681 71.9035,148.8786 72.1483,148.8274 72.291,148.7111 72.4412,148.5078 72.4021,148.158 72.4691,147.899 72.6853,147.6521 73.0859,147.1747 73.1743,147.0447 73.3089,147.022 73.6019,147.0939 73.8563,147.1831 74.1133,147.0821 74.5194,146.72 74.6993,146.4283 74.658,146.1394 74.3489,145.8276 74.2119,145.4882 74.261,145.0616 74.2637,144.8688 74.397,144.7047 74.6093,144.6523 74.8522,144.4584 75.0924,144.4813 75.3697,144.3232 75.4223,143.7977 75.3084,143.4503 75.2966,143.1471 75.3387,142.7684 75.2687,142.4773 75.2118,141.9322 74.7908,141.5907 74.5679,141.4531 74.349,141.1694 74.2488,140.9338 74.216,140.6356 74.4361,140.3032 74.5616,140.1572 74.8285,140.1865 75.1131,140.0638 75.3066,140.0009 75.4383,140.0736 75.5699,140.1464 75.8007,140.2069 76.0682,140.1768 76.324,140.1184 76.5296,140.2082 76.896,140.2856 77.2836,140.2943 77.5578,140.2746 77.8239,140.2381 78.8108,140.1264 79.1065,140.0693 79.3669,140.0527 79.5829,139.9295 79.7066,139.7033 79.8748,139.4682 80.1185,139.4073 80.2553,139.4236 80.4282,139.3507 80.5318,139.1801 80.7761,139.1021 81.0483,139.0911 81.6664,139.4232 81.8871,139.3894 82.1542,139.1559 82.3354,139.0732 82.3275,138.9495 82.4413,138.8318 83.2374,138.2275 83.6894,137.8308 83.79,137.6494 83.7859,137.3449 83.6598,137.1054 83.6454,136.8437 83.672,136.5448 83.608,136.3294 83.744,136.1838 83.8175,135.9153 83.8444,135.6687 84.0154,135.5166 84.5114,135.1591 84.8668,134.9729 85.0672,134.9334 85.1885,135.0185 85.3601,134.9217 85.5951,134.8888 85.8515,134.6902 85.9971,134.5468 86.171,134.5478 86.458,134.4649 86.8642,134.3659 87.0642,134.4047 87.375,134.45 87.6197,134.3961 87.9738,134.1811 88.3825,133.8258 88.6584,133.4458 88.8089,133.1861 88.9705,133.0124 89.231,132.9457 89.5182,132.893 89.9578,132.9874 90.19,132.8932 90.3357,132.6593 90.3079,132.2792 90.3216,131.9979 90.4736,131.7638 90.5043,131.5811 90.3683,131.2645 90.3765,130.8558 90.3524,130.6571 90.3283,130.4584 90.3493,130.3199" stroke="black" /><polygon fill="none" points="384.0711,199.8206 384.1941,200.3084 382.7963,201.9324 381.5071,203.4301 380.3571,204.7662 376.4463,209.3098 374.5836,211.4738 338.7934,202.9127 317.2961,197.7706 317.3037,198.1554 317.5281,198.5142 317.9424,198.9693 318.4483,199.5817 318.666,200.0272 318.6654,200.3982 318.4701,200.6762 318.2519,200.8597 318.2133,200.8921 317.9566,201.0772 317.6589,201.2519 317.2791,201.4676 316.8686,201.673 316.6188,202.0498 316.211,202.4346 316.1547,202.5413 316.0155,202.8053 315.9928,202.9464 315.9325,203.3205 315.8802,203.8872 315.8795,204.3098 315.7147,204.7012 315.5552,205.0723 315.5509,205.0822 315.5138,205.146 315.4069,205.3293 315.1827,205.6744 315.0705,205.8737 314.9204,206.1403 314.9197,206.1683 314.9094,206.5526 315.0795,207.1476 315.2811,207.785 315.6601,208.4736 316.1151,209.1878 316.5453,209.5758 317.1027,209.7297 317.9597,209.645 318.8423,209.2343 319.6786,208.9421 320.3002,208.9955 320.8674,209.3359 321.006,209.9151 321.1566,210.7307 321.4594,211.5465 321.5036,211.9189 321.3591,212.4907 321.0094,213.026 320.542,213.5302 320.4238,213.5963 319.9723,213.8487 319.5027,214.0374 319.4233,214.0693 318.9358,214.2591 318.4885,214.3692 317.9565,214.2154 317.5213,213.9113 317.1116,213.6322 316.7426,213.5903 316.271,213.5173 315.881,213.6422 315.8536,213.651 315.8144,213.6757 315.5237,213.8593 315.2444,214.0881 314.9287,214.4743 314.6238,214.8814 314.4274,215.1476 314.3395,215.5288 314.5234,215.9105 314.8767,216.1585 315.3738,216.314 316.076,216.4183 316.8805,216.6878 317.2417,216.9962 317.5451,217.4299 317.95,217.8128 318.4059,218.0175 318.7858,218.1965 319.3681,218.6307 319.5702,218.9878 319.7724,219.2939 320.4274,220.2141 320.9498,220.5603 321.8922,221.0928 322.4552,221.6607 322.8089,222.3185 323.2134,222.8798 323.6159,223.4665 323.9843,223.8692 324.3745,224.2374 324.6137,224.566 324.5747,224.87 324.2949,225.086 324.0384,225.1473 323.6642,225.1364 323.2028,225.084 322.752,224.8616 322.3626,224.665 321.6863,224.4216 320.8814,224.348 320.2302,224.3932 319.6299,224.5879 318.9491,224.8142 318.6413,224.8754 318.3895,225.21 318.2572,225.2822 317.712,225.5798 317.1771,225.6919 317.1273,225.7024 316.6658,225.7015 316.1054,225.674 315.5874,225.9559 315.5204,225.9924 314.8494,226.4403 314.4331,226.9497 314.4786,227.3054 314.632,227.5531 314.8606,227.9083 315.0306,228.265 315.0846,228.7642 315.0635,229.1146 315.2131,229.4403 315.6523,229.5794 315.6584,229.5793 316.2112,229.565 316.6061,229.4833 317.2161,229.5978 317.5696,229.7685 318.0664,230.0528 318.7834,230.5077 319.2602,230.6284 319.3779,230.6582 319.4722,230.6956 320.0712,230.9334 320.685,231.7385 320.8689,232.1098 321.1027,232.4341 321.4915,232.9193 321.7269,233.1774 322.3575,233.2095 322.768,233.0298 323.1751,232.7634 323.4354,232.5672 324.7762,232.0242 325.329,231.6946 326.0986,231.4074 326.6728,231.4806 327.4067,231.1212 328.6542,231.1036 329.1153,231.3209 329.2071,231.6303 329.1138,232.1558 328.9589,232.743 328.9538,233.2923 328.9758,233.6391 328.7928,233.8064 328.758,233.8382 328.7308,233.848 328.4354,233.9543 328.0616,234.3478 327.8741,234.9215 327.7861,235.2607 327.6691,235.5599 327.6189,235.6882 327.4106,236.0376 327.1043,236.1877 327.0411,236.2186 326.6857,236.4228 326.6998,236.7553 326.7773,237.1451 326.9108,237.4485 327.1537,237.7629 327.4012,238.0475 327.6767,237.9526 327.9043,238.0548 327.8719,238.2609 327.6254,238.4731 327.402,238.6891 327.132,239.1341 326.751,239.2986 326.2585,239.4291 326.0619,239.6684 325.9999,239.9388 326.2474,240.3281 326.4025,240.616 326.2425,240.9272 326.2773,241.7946 326.3497,242.1658 326.2722,242.4671 326.1182,242.7124 326.0906,242.9693 325.9499,243.1333 325.6268,243.179 325.413,243.3758 325.4528,243.6851 325.1697,243.9087 325.0278,243.6849 324.787,243.9525 325.1005,244.9715 324.7109,245.1546 324.4038,244.9889 324.1275,244.9871 323.9957,245.2342 323.6848,245.2665 323.4191,245.0375 322.9563,245.1241 322.7671,245.5296 322.5092,245.6567 322.2129,245.7295 321.8836,245.9976 321.6068,245.9913 321.3582,246.3039 321.0542,246.4622 320.7271,246.5114 320.4967,246.3216 319.9544,246.3438 319.786,246.5986 319.4944,246.6019 319.1826,246.7501 319.0434,247.1576 318.7986,247.4896 318.5291,247.6669 318.4014,248.0763 318.3454,248.1096 317.959,248.3391 317.6813,248.8024 317.5378,249.2768 317.3333,249.6204 317.2211,249.704 317.1677,249.7438 317.1245,249.7892 316.9289,249.9946 316.6276,250.1528 316.1803,250.314 315.9391,250.517 315.7521,250.6434 315.6777,250.6937 315.3544,250.8497 315.0489,250.9299 314.9782,251.3072 314.7521,251.3383 314.6683,251.6794 314.4299,251.8305 314.1682,251.7905 313.4742,251.7819 313.0608,251.6783 312.754,251.2507 312.3737,251.0296 312.094,251.0157 311.7971,250.874 311.5451,250.9064 311.2719,251.0199 311.0239,251.0117 310.9089,250.7795 310.6628,250.7675 310.3204,250.8557 310.0203,250.9016 309.7797,251.0731 309.3698,251.2617 308.7346,251.5755 308.5959,251.8366 308.3033,251.9149 308.2668,252.242 308.0297,252.3751 307.6371,252.4277 307.5521,252.6208 307.6234,252.885 307.8019,253.2792 307.6887,253.5135 307.6387,253.617 307.3805,253.8998 307.4826,254.1331 307.7018,254.4935 307.7101,254.5072 307.7328,254.7198 307.551,255.2702 307.331,255.6814 307.5485,255.9241 307.3877,256.2304 307.5296,256.5793 307.7444,256.858 308.0823,257.1678 308.4276,257.2805 308.755,257.207 309.2029,257.2561 309.4235,257.6106 309.3198,257.7861 309.2459,257.9113 308.9532,258.1156 308.6258,258.3875 308.5788,258.8763 308.6975,259.1432 308.7817,259.3637 308.9466,259.6404 309.3116,259.8169 309.5525,259.8676 309.3839,260.1958 309.414,260.5746 309.275,260.8739 309.5057,261.1279 309.1936,261.2313 308.8564,261.2513 308.8494,261.5508 309.1964,261.9162 309.3538,262.5856 309.5456,262.8727 309.4458,263.1301 309.1056,263.384 308.8009,263.48 308.6454,263.7184 308.5952,263.7953 308.2989,264.1922 308.1067,264.548 307.7672,264.4701 307.5134,264.7756 307.5443,265.1752 307.5128,265.5771 307.4825,265.8481 307.7834,266.0677 307.7319,266.2249 307.6674,266.4217 307.5578,266.7565 307.6149,267.0336 307.2833,266.9156 306.6153,266.9093 306.5518,267.2351 306.2521,267.4304 306.2194,267.7782 306.2413,268.0681 306.4493,268.2682 306.4413,268.3158 306.3986,268.5696 306.3073,268.8026 306.2254,269.0105 306.1881,269.1051 306.0592,269.5107 305.8651,269.6638 305.8017,269.7731 305.7539,269.8556 305.4757,269.9448 305.2919,270.2178 304.9554,270.3687 304.9198,270.3846 304.6914,270.8512 304.4349,270.8862 304.2474,271.1797 304.056,271.3106 303.9793,271.3885 303.8408,271.5292 303.7481,271.7182 303.6767,271.8639 303.4847,271.7282 303.3006,271.6184 303.1242,271.7246 303.1393,272.0255 303.1269,272.0279 302.8495,272.0813 302.6611,271.7299 302.2718,271.8328 302.2438,271.8469 301.9844,271.9766 301.8451,272.1406 301.8097,272.1824 301.8297,272.4401 301.5623,272.8209 301.5308,272.9554 301.4899,273.13 301.4996,273.4289 301.7966,273.6768 301.591,273.9238 301.2099,273.9634 301.2012,273.9643 301.006,274.1391 300.7082,274.3859 300.659,274.4302 300.4,274.6636 299.9998,274.7659 299.7432,274.8994 299.3943,274.9709 299.0868,274.8878 298.6562,274.8664 298.3382,274.8658 298.1224,275.1127 297.7936,275.4419 297.762,275.8747 297.6456,276.1029 297.5047,276.3793 297.2581,276.7463 297.1036,276.9763 296.8769,277.5118 296.6915,277.9649 296.3834,278.2014 295.9416,278.6128 295.6337,278.7153 295.5028,278.8919 295.3972,279.0343 295.089,279.3429 294.6784,279.5673 294.3905,279.9394 294.2635,280.2514 293.969,280.4848 293.8734,280.6282 293.6707,280.9326 293.4803,281.2425 293.379,281.4073 292.9464,281.6081 292.6709,281.6997 292.4723,281.8986 293.9817,284.9393 315.3848,278.806 316.2857,280.3281 317.9404,280.2716 320.087,283.582 320.4482,285.8244 320.0994,287.2538 319.8496,287.5357 319.0339,288.456 317.2932,289.7118 316.4374,290.8679 315.957,291.5169 314.9147,293.5441 313.5238,296.1676 312.5207,298.6027 312.2657,299.8385 312.0327,300.9683 311.7248,302.5049 311.3185,303.8182 310.9331,305.4209 310.8726,305.6726 309.3464,310.1433 308.5283,310.326 308.428,310.6819 308.2264,310.9896 307.7497,311.3708 307.7685,311.7697 308.0803,312.114 308.4876,312.3119 308.8794,312.533 309.1902,312.9548 309.2778,313.3879 309.3809,313.7978 309.665,314.0534 309.9453,314.2666 310.095,314.4562 310.2867,314.7658 310.5935,315.2031 310.6453,315.5533 310.6695,315.7173 310.707,316.1812 310.8949,316.5101 311.0134,316.8698 310.9321,317.1363 310.5624,317.3946 310.0738,317.4864 309.6887,317.7253 309.5336,318.0935 308.3959,318.5776 307.6525,319.1294 307.3398,319.3967 307.0083,319.8798 306.9208,320.2276 306.8634,320.4557 306.5729,320.858 306.1068,321.0872 304.3896,321.7644 303.1235,322.0057 302.8491,322.3494 302.7341,322.806 302.5576,323.7334 302.3279,324.1742 302.1132,324.534 302.0033,324.8477 302.0008,325.1275 302.0828,325.5504 302.0133,325.9933 301.774,326.3227 301.2333,326.8834 301.005,327.2672 300.7524,327.849 300.5737,328.896 300.3908,330.5074 299.9505,331.5241 299.7636,331.7698 298.4608,333.2004 298.2176,333.7072 298.2223,334.1801 298.603,335.0269 298.8273,335.5054 298.6907,335.7649 298.4646,335.9912 297.8687,336.5054 297.3447,336.9681 296.8926,337.4001 296.6665,337.647 296.5221,338.0281 296.4188,338.4195 296.3153,338.8831 296.376,339.3264 296.3443,339.7901 296.4051,340.1716 296.5276,340.4501 296.9475,340.7808 297.4083,341.1734 297.9102,341.4732 298.4535,341.6702 298.9251,341.7742 299.4887,342.0123 299.7342,342.3735 299.8564,342.7861 299.6914,343.2598 299.0955,343.7843 298.6742,344.0536 298.0729,344.3193 297.2524,344.4611 296.4435,344.5953 295.5896,344.6958 295.2505,344.851 294.8124,345.2048 294.4507,345.708 293.8248,346.76 293.4338,347.11 292.5904,347.5914 291.8385,347.9543 291.3828,348.1183 290.968,348.1173 290.5963,348.0984 290.3574,348.2948 290.314,348.5717 291.0548,349.5748 291.2087,350.2556 291.3239,351.2449 291.0236,351.8227 290.9601,352.1747 291.0546,352.5374 291.2845,352.8348 291.6427,353.1207 292.1499,353.5004 292.8618,354.0182 293.3131,354.7039 293.5834,354.9399 294.3552,355.2905 294.7098,355.4739 294.9363,355.734 294.9979,355.8408 295.2764,356.1558 295.5715,356.3125 295.926,356.5222 296.1594,356.8011 296.3023,357.1319 296.5131,357.4457 296.991,358.0631 297.6884,358.5022 298.1458,358.7959 298.4395,358.9946 298.594,359.2858 298.6572,359.614 298.5722,359.9028 298.3375,360.1002 298.0454,360.201 297.587,360.3109 297.1888,360.5846 296.8368,360.8847 296.3059,361.0703 295.5933,361.0689 295.241,361.1944 294.641,361.5255 294.3586,361.6434 293.9497,361.6482 293.5709,361.6067 292.5935,361.6414 292.2594,361.7726 291.6906,362.2177 291.2847,362.3998 290.8342,362.5637 290.4619,362.7679 290.289,362.9538 290.0508,363.3967 289.7937,363.7071 289.5523,363.9894 289.335,364.518 289.3436,364.9337 289.3358,365.3527 289.0676,365.7306 265.8543,346.3788 249.2567,332.5422 247.4458,331.0325 247.2329,330.855 237.6679,322.8811 232.0265,318.1781 228.9479,315.6117 226.1846,313.308 215.3618,306.0742 213.6987,305.6261 200.2226,301.9949 201.7347,296.3076 197.1448,294.4052 180.7817,285.8534 178.4548,285.322 177.7929,285.1907 177.7153,285.1774 175.3379,284.759 172.601,283.1117 170.7229,282.662 167.2881,281.6755 166.9207,280.8709 166.0604,280.395 165.3532,280.2492 164.5636,280.2372 163.8659,280.4418 163.3118,280.6157 162.6453,280.6246 162.1237,279.9948 161.5099,279.334 160.9159,278.9926 160.0863,278.5528 159.8602,278.8048 159.5675,279.0051 159.277,278.9736 159.1318,278.9578 158.7319,278.9878 158.3213,279.1724 157.7468,279.3051 156.9978,279.5096 155.9618,279.6619 155.2643,279.7943 154.6898,279.9064 154.3002,279.9159 153.4397,279.5327 152.4708,279.2285 151.863,279.1147 151.2964,279.6104 149.8389,280.2873 148.8025,280.8163 148.2891,280.9537 147.7855,281.1917 142.2588,261.2638 136.4313,240.5271 134.841,260.7775 132.5724,289.6664 128.219,294.4166 123.5265,299.5369 122.7481,300.3862 121.7973,301.676 121.0258,302.7755 120.1575,304.1453 119.2435,304.9468 118.2257,306.1501 118.0989,307.7882 117.7896,308.5294 117.0501,309.0532 117.8797,309.4879 117.5384,310.7546 117.0137,311.5262 116.5807,312.5144 116.1794,313.1318 115.9007,313.9349 115.4386,314.243 114.6076,314.3956 113.9935,313.8996 113.4787,313.0839 112.9497,313.0007 112.3028,313.401 111.3177,313.7079 110.3956,313.3657 109.9061,312.1898 109.5838,313.6821 108.6092,314.3507 107.5616,315.0593 106.2691,315.3036 105.4383,315.3944 104.6695,315.2689 103.8669,316.4727 102.9109,317.5215 102.7239,318.5412 101.6145,319.4041 102.413,319.9624 103.8584,320.1513 104.9047,319.9683 106.2264,320.4351 107.482,320.6776 108.2376,320.9498 108.7368,321.2344 109.2744,321.5705 109.5503,321.9653 108.904,322.1081 108.2158,322.5908 108.0095,323.1261 107.5417,323.1869 107.1778,323.4082 106.6135,323.7514 106.0177,324.2137 105.7828,323.7907 105.4241,323.7074 104.8222,324.0331 105.6855,324.8466 105.3378,325.5414 104.7986,325.9072 103.8736,326.8517 103.0558,327.3007 102.2261,327.0294 101.5486,327.337 101.7939,330.9524 100.9289,330.886 100.4789,331.4484 100.9264,331.9325 100.6212,332.286 99.9141,332.3719 99.0875,332.2927 98.3968,331.6921 97.9757,330.8603 97.7967,331.102 97.59,331.3811 96.9557,331.3023 96.6279,331.6879 96.2044,331.947 95.8398,331.6281 95.4728,332.3614 95.0881,332.4184 94.4129,333.3635 93.7969,333.7098 93.2298,333.5724 92.3948,333.0882 92.1451,332.9717 91.6834,333.1058 91.4517,333.4917 91.8742,333.7052 92.2968,333.8518 92.4302,334.3634 92.6605,334.5765 93.0927,334.7321 92.7537,335.8132 92.4447,336.3728 92.0009,337.0286 91.5573,337.6265 90.9228,337.6443 90.3073,337.7587 89.8639,338.2407 89.1514,338.722 88.593,339.0491 88.3984,340.0533 88.0686,341.2696 88.0473,342.1583 87.8724,342.95 87.6982,343.4133 87.3124,343.9727 86.7882,344.2827 84.335,343.7927 83.5379,343.3732 83.0097,343.1304 82.2727,343.1126 81.6632,343.4009 81.2129,344.1082 80.6509,344.6381 80.1854,344.9912 79.4965,344.9412 79.1762,344.9083 78.9834,345.1332 78.5513,344.9067 78.184,344.3906 77.6713,344.4055 77.2872,344.2275 76.8068,344.0975 76.0856,344.1763 75.2361,344.3513 74.6437,344.1566 73.3446,343.6179 72.8818,343.5546 66.9608,349.9236 66.9497,349.9183 66.9386,349.9129 65.8764,350.3543 64.8836,350.5385 60.9478,348.6315 56.2421,346.3516 55.8857,346.1789 55.7672,345.5607 51.9862,325.8307 53.2231,315.1244 53.5646,293.3176 42.6541,294.5222 42.3768,294.3665 42.2644,294.1079 42.1832,293.653 41.6084,293.2383 41.3208,293.1032 40.734,293.4015 40.7129,293.6184 40.3012,293.7827 39.3636,294.5451 39.055,294.6374 38.7576,294.275 38.4183,294.2742 37.739,294.5412 37.3579,294.8192 37.0381,295.2731 36.1214,295.2174 35.5064,296.002 34.7666,296.0001 34.3014,296.0627 33.9405,296.6779 33.2419,297.1011 32.9879,297.2492 32.9653,297.8227 33.0488,298.2902 33.0046,299.0549 33.1934,299.6714 33.1082,299.9474 32.791,299.9679 32.0522,299.5199 31.5659,299.5612 30.9886,299.2872 30.7,299.2404 30.4251,299.3035 29.9378,299.7484 29.1978,299.8103 28.6268,299.8939 28.055,300.3173 27.4207,300.3583 26.8076,300.4205 25.8986,300.397 25.1147,301.1173 24.5002,301.7319 23.9712,301.9642 23.4422,302.1753 22.7007,302.8108 22.0866,303.2766 21.9167,303.5736 21.4914,304.6135 20.7084,304.9514 20.3049,305.6939 19.924,305.8629 19.6703,305.9048 19.565,305.7346 19.5349,305.4307 19.4619,304.6934 19.4651,304.6509 19.5274,303.8226 19.6361,302.612 20.0823,301.6996 20.1682,301.1263 20.067,299.3203 19.9421,298.5128 19.859,297.939 19.8611,297.0893 19.7781,296.4518 19.6535,295.5168 19.401,295.07 19.0421,294.8567 18.662,294.707 18.3035,294.345 17.8604,294.0253 17.6075,293.706 17.3972,293.2806 16.9332,292.8546 16.2784,292.6618 15.6441,292.7239 15.221,292.8716 14.543,293.4859 14.2675,293.7614 13.9505,293.7606 13.5899,294.2696 13.42,294.5666 13.124,294.5871 13.0593,294.4297 13.019,294.3319 13.084,293.6947 12.9999,293.5033 12.6625,293.1626 12.5573,292.9712 12.8964,292.5896 13.134,290.5296 13.3043,290.0627 13.4562,288.4698 13.0997,287.3006 13.0696,287.0681 13.2492,286.6637 12.8287,285.7492 12.4707,285.1959 12.3868,284.9196 12.0916,284.6427 11.9231,284.3873 11.9876,283.9414 11.9259,283.2615 12.0958,282.9432 12.7522,282.4775 13.0915,282.011 13.1567,281.2889 11.2096,280.6468 10.3122,280.5393 9.5933,280.7476 4.9891,283.9248 2.585,285.0057 1.035,285.0348 0.0,283.6688 0.1115,281.7401 3.1375,277.9042 4.4715,275.3914 4.9362,273.9394 5.2874,272.8399 6.0314,268.9626 8.0841,266.5151 12.3999,263.5832 13.7604,261.881 13.665,260.3425 12.3427,257.9511 12.5246,257.0616 13.6397,255.6336 15.1535,252.8012 15.5188,250.5711 14.8948,249.2539 17.9113,244.1411 19.7725,240.9873 33.7514,217.2995 33.7777,217.255 33.9333,216.9912 54.4069,182.3145 54.5762,181.6951 54.5928,181.6952 100.2104,182.1632 111.0776,175.4614 116.8357,171.9104 138.5256,158.5343 146.6869,152.8712 155.812,147.1203 173.4152,136.0262 228.0224,104.3103 230.8235,102.6834 232.4569,101.7348 251.4064,98.4539 266.5207,95.8371 287.9978,92.1187 292.442,91.3492 292.5926,91.3232 292.7273,91.2998 312.5307,103.5854 314.8481,105.0231 331.0597,101.9667 348.6833,98.6441 360.6468,96.3885 394.0472,90.0914 408.9342,90.9992 462.8893,94.2893 463.0799,94.3009 463.3792,94.6385 463.1999,95.1485 462.9858,95.5427 462.848,95.9372 462.9568,96.2146 462.9769,96.4877 463.1898,96.8286 463.2774,97.0848 463.4695,97.2971 463.5854,97.7374 463.8746,98.0263 464.1286,98.1874 464.3627,98.2831 464.6824,98.2234 465.0358,98.3861 465.5545,98.5532 465.4814,99.0033 465.6748,99.2293 466.0587,99.3786 466.2849,99.5123 466.6174,99.3775 467.0136,99.3372 467.2875,99.5247 468.0324,99.9839 468.4805,100.1336 468.8412,100.4167 469.1668,100.3131 469.3531,100.1897 469.6244,100.0737 469.8703,100.3154 470.1902,100.5075 470.5787,100.3486 471.1142,100.4461 471.4311,100.6877 471.4789,100.9386 471.7148,100.9994 472.1332,101.0074 472.5019,100.9389 472.6734,101.2351 473.0537,101.2542 473.4226,101.5104 473.916,101.8623 474.4526,101.9937 474.825,102.3078 475.0859,102.7334 475.5023,102.7662 475.5729,102.7201 475.7911,102.5777 476.0088,102.7038 476.234,102.7707 476.5385,102.7477 476.5434,102.7474 476.907,102.8084 477.1815,102.5986 477.4967,102.5932 477.7391,102.7295 477.7759,102.933 477.9386,103.0816 478.1497,103.3602 478.136,103.5748 478.3415,103.6774 478.8538,103.7357 479.318,103.8025 479.7218,103.8147 479.9935,103.8973 480.4093,103.8098 480.8628,104.2783 481.3063,104.4446 481.5537,104.5594 481.7401,104.7323 482.0087,104.8869 482.3909,105.2411 483.0447,105.7363 483.2295,106.225 483.4127,106.5567 483.6448,106.682 483.8311,106.7736 483.8536,107.2631 483.9381,107.544 483.9187,107.8158 483.8786,108.147 484.3997,108.2909 484.6673,108.4959 485.0355,108.673 485.387,109.0621 485.7388,109.1392 486.0568,109.2067 486.5237,109.4493 486.7301,109.6178 486.7855,109.8943 486.8597,110.2938 486.8562,110.6455 486.9972,111.0044 487.3256,111.0903 487.8012,111.2219 488.0408,111.4572 488.1675,111.6525 488.494,111.6425 488.6384,111.9519 488.8397,112.1449 488.8185,112.7197 489.0586,112.9237 489.462,112.9573 489.8198,113.2641 490.0521,113.502 490.2358,113.7676 490.892,113.9682 491.2973,114.1078 491.4938,114.3342 491.9714,114.5792 492.392,114.7024 492.687,114.8906 493.1258,114.7481 493.3995,114.7708 493.6294,114.8494 493.9107,114.9222 493.8721,115.1359 493.8557,115.2264 493.9717,115.4377 493.8798,115.6013 494.025,115.7173 494.1603,115.9947 494.4883,116.2171 494.7743,116.5523 495.1238,116.6428 495.4064,116.6598 495.6081,116.8778 495.9398,117.1137 496.0118,116.8085 496.3965,116.874 496.5871,117.2347 496.8883,117.2718 497.255,117.1491 497.5621,117.7322 497.8166,118.0115 498.0358,118.2033 498.4224,118.2022 498.7244,118.4401 499.0676,118.4859 499.334,118.8106 499.7351,118.9155 500.0,118.8957 492.3233,144.0415 492.1781,144.5374 488.0207,146.2024 488.0157,146.2066 485.7282,147.1239 478.4661,150.036 474.9664,151.4394 461.6714,156.7708 459.0412,157.8256 457.2634,158.5385 457.2453,158.5588 443.872,152.1287 417.3924,139.397 396.7345,129.4643 396.2184,129.2162 362.1332,112.8405 364.8354,123.5544 373.0415,156.0904 377.3577,173.2034 381.6948,190.3989 383.7926,198.7166 384.0711,199.8206" stroke="black" /><polygon fill="none" points="393.6846,216.0694 389.0323,214.9547 388.1356,214.7387 385.9185,214.2045 383.8287,213.701 374.5836,211.4738 376.4463,209.3098 380.3571,204.7662 381.5071,203.4301 382.7963,201.9324 384.1941,200.3084 384.0711,199.8206 383.7926,198.7166 381.6948,190.3989 377.3577,173.2034 373.0415,156.0904 364.8354,123.5544 362.1332,112.8405 396.2184,129.2162 396.7345,129.4643 417.3924,139.397 443.872,152.1287 457.2453,158.5588 457.1909,158.6198 457.3098,158.8016 457.2519,158.9639 457.3247,159.107 457.2706,159.2886 457.2642,159.4556 457.1815,159.7971 457.3821,160.1651 457.9851,160.9007 457.585,161.3311 457.6423,162.0854 458.2555,162.5271 457.9135,163.1535 458.3258,164.3883 457.9664,165.2767 458.904,165.4863 458.796,166.0053 458.53,166.5893 458.5805,167.1563 458.5896,167.2 458.8901,168.2485 458.83,169.3161 458.5165,170.4519 457.8686,171.5615 456.8807,174.0284 456.6941,175.0076 456.9814,175.0791 457.2511,175.557 457.7331,175.7855 458.0986,175.7346 458.2807,176.1977 459.2474,176.078 459.8407,176.9638 460.391,177.4242 461.5025,178.2303 462.4562,178.2868 463.978,178.4947 465.2564,178.8787 465.6869,179.3568 466.4831,179.6372 466.8985,180.4533 467.2621,181.6881 467.5018,182.6949 467.7268,183.7385 468.4805,184.1652 468.6556,184.6959 469.3268,184.5351 469.6476,185.0866 470.1224,185.2416 471.7346,186.6954 471.9858,187.324 472.0041,187.4183 472.0184,187.4927 472.0865,187.8451 471.8452,188.2062 471.5951,188.7217 471.7226,189.1568 472.0661,189.3268 471.8721,189.7637 472.0702,190.3806 472.3932,190.7846 472.6489,191.2199 473.0481,192.1547 473.1428,193.1535 472.9651,194.1357 473.0915,195.3278 473.699,196.2469 473.5693,197.4654 474.0005,197.8071 474.5748,197.8183 474.8099,198.3135 475.0454,198.5921 475.0652,199.0973 475.1256,199.4269 474.9036,200.171 475.1864,200.3448 475.4118,200.4585 475.4917,200.7111 475.4006,201.1286 475.3824,201.4909 475.6443,202.7474 475.7974,203.2012 475.9199,203.5828 476.1141,204.016 476.3086,204.2534 476.6855,204.7811 477.0541,205.5659 477.2879,205.6103 477.4193,205.7133 477.2958,206.1488 477.3444,206.6365 477.5538,206.7939 477.2363,207.3875 477.1329,207.9543 477.1976,208.5414 477.6091,208.2858 477.8146,208.3729 477.7854,208.6125 477.9662,208.7161 478.0856,208.5758 478.429,208.6426 478.4615,208.8686 478.4659,209.5849 478.1255,209.9425 478.0375,210.1793 477.7959,210.4269 477.7352,210.6858 477.6195,211.0658 477.46,211.4292 477.4429,211.8369 477.3712,212.1398 477.2663,212.6301 476.9369,212.9822 476.5967,213.1415 476.3555,213.4166 476.4096,213.6646 476.5518,213.8522 477.2044,213.6603 477.5222,213.8261 477.7359,213.8264 478.0861,214.3008 478.5849,214.3236 478.706,213.9987 478.9304,214.2084 478.918,214.4514 479.4778,214.7823 479.8229,214.9426 476.0889,216.6686 437.8351,217.8723 406.2786,218.852 393.6846,216.0694" stroke="black" /></svg>