<?xml version="1.0" encoding="utf-8" ?>
<svg baseProfile="tiny" height="448.9784" version="1.2" width="500" xmlns="http://www.w3.org/2000/svg" xmlns:ev="http://www.w3.org/2001/xml-events" xmlns:xlink="http://www.w3.org/1999/xlink"><defs /><polygon fill="none" points="352.7425,191.7089 352.7411,191.7518 352.7194,192.4056 352.691,200.9644 352.5485,201.4931 352.508,203.4144 352.1876,204.3249 352.0174,205.4921 352.245,206.2359 353.3653,207.8622 353.4976,208.2627 353.5874,209.0157 354.013,210.3121 354.0495,211.0653 354.4706,212.4202 354.5557,213.3127 355.0125,214.0451 355.1269,214.3645 355.1275,216.0025 355.2477,216.2999 355.7823,216.7526 356.2456,216.9655 356.4394,217.2075 356.68,217.3195 357.3734,217.3893 357.9095,217.7252 358.8902,217.9974 359.3471,218.3086 360.1641,218.4553 360.3959,218.8658 361.0364,219.0331 361.2304,219.2782 361.98,219.3384 361.6524,219.6575 361.0947,220.4085 359.8372,221.5647 359.6702,221.884 359.5229,223.1719 359.0806,224.471 358.9999,225.1136 358.5308,225.8555 358.1479,227.1207 357.9169,227.3308 357.3208,228.192 356.4849,228.629 356.426,229.077 356.5374,229.8722 356.7849,230.4573 356.7764,231.2743 356.8681,231.5438 356.7435,231.839 356.1329,232.6906 355.3843,233.261 354.8915,233.8159 354.0329,234.4701 353.5698,235.1292 352.6615,235.8341 352.2637,236.3913 352.1047,236.9914 351.9924,238.0812 352.0436,241.576 351.7758,243.0695 350.5656,245.2714 349.0722,247.6927 348.7604,248.3686 348.6345,248.8967 348.6823,249.6613 349.2534,251.835 349.873,257.01 350.0011,258.5387 349.7768,261.0142 349.6994,262.9 349.7697,263.7503 350.1682,266.0931 350.5944,266.9121 351.5995,267.8009 353.1839,268.9291 353.4668,269.3908 353.586,269.9031 353.5364,270.2683 353.1048,270.6352 352.6963,270.823 352.0099,270.8581 350.0851,270.7314 349.173,270.5668 348.5402,270.3454 346.734,270.759 345.3583,270.5995 343.1292,270.1503 342.3453,270.1176 340.1708,270.2155 336.1589,268.9395 334.9206,268.7566 334.3331,268.5874 333.3565,268.5883 332.5255,268.2083 332.7107,268.9069 332.6731,269.1705 332.4084,269.6175 332.3559,270.3503 332.1195,270.9303 331.8073,272.4666 331.3891,273.1732 330.6751,274.0095 330.285,274.8639 330.0759,275.7288 329.7921,276.0674 329.4683,277.0481 328.9524,277.4606 328.4378,278.2381 327.9688,278.4777 327.3674,278.6266 326.7715,278.9031 326.1526,279.0292 325.608,279.5415 324.1684,280.4809 324.0054,280.7089 323.5075,281.0436 322.7809,281.765 321.6462,282.7092 321.2038,283.4376 321.0043,283.9378 319.8537,284.9907 319.6431,285.3285 319.4797,285.8353 319.2888,285.9638 318.2105,286.2116 317.2291,286.8891 316.1656,287.2439 315.2971,287.9575 315.0582,288.0058 314.9154,288.0345 314.1697,288.1843 312.3609,289.2532 311.4207,289.6763 311.1292,290.0775 310.6703,290.3658 310.4387,290.8109 310.0175,291.193 309.8303,291.8025 309.4802,292.1261 309.1407,292.7368 308.3378,293.2473 307.583,293.5304 306.9356,294.19 306.2567,294.6108 305.0153,295.7795 302.7645,297.3494 302.3006,297.7523 300.3946,299.0345 299.7286,299.6207 299.4897,299.9812 298.7627,300.6769 298.0276,301.7146 297.5548,302.1232 296.8923,302.3574 296.3349,302.7314 295.4739,303.1394 294.7007,303.3304 293.8138,303.8257 293.4806,303.9354 292.8531,303.9917 292.5495,304.1362 292.0591,304.61 291.3403,305.057 290.6895,305.719 290.0671,306.0709 289.8876,306.2598 289.1219,307.5959 288.4988,308.0647 285.9402,308.7357 285.0794,309.083 284.844,309.5827 284.6907,310.6591 284.3656,311.9505 283.1644,314.257 282.406,315.9946 281.9378,317.4262 281.6841,318.5339 281.6094,321.5691 281.506,322.1931 281.1394,323.1339 281.1099,324.2008 281.4474,325.7066 281.5372,326.4257 281.5395,326.4439 281.6858,327.6151 281.8818,328.4528 282.1141,328.9654 282.5796,329.9913 283.3169,331.161 283.0616,331.2393 281.9776,331.2777 281.6961,331.3678 281.0918,331.762 280.5912,331.9192 279.8948,332.3444 279.5074,332.322 279.1497,332.1553 278.1205,331.4257 277.3263,331.2381 276.1755,330.6651 274.6487,330.4203 274.2496,330.1273 273.7354,329.9617 273.1091,329.3833 272.193,329.1397 271.5988,328.8195 271.2671,328.7228 270.6517,328.8868 270.0933,328.7663 269.647,329.241 268.6577,329.407 267.9215,329.7501 267.0036,329.9076 266.8615,329.8943 266.2925,329.5795 265.9848,329.5256 265.6231,329.1379 265.2608,328.9355 264.3538,328.9625 264.107,328.8436 263.8741,328.5599 263.7397,328.5736 263.4435,328.855 263.2485,328.8745 262.8521,328.7425 262.6707,328.7912 262.321,329.0673 261.4685,329.0342 261.3274,329.0925 260.9238,329.5089 260.0905,330.83 259.1705,331.2483 258.5079,331.9129 258.3111,332.156 257.9854,333.1002 257.8597,333.2397 257.552,333.2964 257.0312,333.0914 256.4331,333.1574 256.0367,332.9141 255.6768,333.0472 255.0958,333.0154 254.4088,333.4277 254.0088,333.4687 253.6251,333.4079 253.3441,333.2207 252.3583,332.1508 250.9863,331.3393 250.303,330.8132 249.8906,330.5196 248.94,330.8753 248.4553,330.9227 246.9815,330.7434 246.3615,330.8128 245.8859,330.9807 245.5291,330.9926 245.0196,330.8393 244.4972,330.7666 244.0776,330.8666 243.5974,330.753 243.2212,330.8859 242.5253,330.6884 242.0341,330.3471 241.7067,330.3673 241.0587,330.0082 240.7457,329.7294 239.1955,329.2496 238.5634,329.0176 237.8662,328.7397 237.4499,328.687 236.8855,329.0154 235.4828,328.8216 234.3046,328.3831 233.1471,328.3331 232.0574,328.0676 231.2441,328.1063 230.4638,328.4126 229.8578,328.8905 229.5456,329.8735 229.4733,330.6787 228.8585,331.4918 228.6659,331.9369 228.0609,332.4819 226.3952,333.6454 225.2092,334.4669 224.2267,335.4999 222.1138,338.9886 220.6991,339.7999 220.1092,340.3983 219.009,341.6607 218.2308,342.1009 217.605,342.2575 217.0066,342.3466 216.5474,342.2125 215.1925,341.7271 214.7708,341.6994 214.2138,342.0789 214.1249,341.8859 213.9737,341.8361 213.5763,341.9292 213.337,341.5272 213.4011,341.0806 213.1049,340.7569 212.232,340.6323 212.2716,340.3358 211.7589,340.1588 211.5552,339.8997 210.9127,340.0463 209.9535,339.9292 209.4968,340.3128 208.9461,340.1122 208.933,339.7193 208.1017,338.9443 208.3605,338.8666 207.8904,338.4181 207.7854,337.9853 207.7822,337.3274 206.9031,336.3658 206.4649,336.1595 206.4719,335.8041 206.3602,335.7353 206.1947,336.1154 205.2289,335.599 204.7617,335.481 204.8589,336.0178 203.8293,337.1635 203.1686,337.2765 203.1221,337.3933 202.686,337.4076 202.3504,337.6184 201.8144,337.7696 201.1451,337.4923 200.1776,337.9477 199.882,337.4918 199.4577,337.161 198.1995,334.6086 197.8995,334.1513 197.6029,333.8997 197.2558,333.8111 196.8499,333.8097 196.1997,333.5671 195.815,333.184 195.6496,332.677 195.7385,332.316 195.9567,331.7203 195.8723,331.2106 195.3497,330.7001 194.8113,330.3941 194.0747,330.2402 193.6499,330.0252 193.9628,329.947 193.7019,329.7095 193.4262,329.2242 192.8707,328.8703 192.3589,329.0117 191.9365,328.9441 191.3605,329.0864 191.0017,328.9776 190.7133,328.8075 190.2698,328.7535 189.842,328.7932 189.4744,328.5773 189.0733,328.5026 188.5311,328.7269 188.0661,328.3405 187.4577,328.5884 186.6256,328.4609 185.8805,328.6909 185.6888,328.6417 185.1536,328.6879 184.7528,328.1571 184.2483,327.7899 184.4258,327.2864 184.3096,326.9996 183.5342,326.7956 183.5922,326.2042 183.8177,325.837 183.5722,325.4537 183.1133,325.4415 183.1377,324.5236 182.8032,324.3329 182.4354,324.6277 182.0,324.4218 181.7329,324.7562 181.0447,324.5415 180.3288,323.8404 180.1028,323.0264 179.5835,322.1918 178.7358,322.0155 178.5004,321.8618 177.4704,320.6579 175.3786,319.2953 174.8774,318.6119 174.1368,318.276 173.6611,317.6339 172.4502,317.0926 171.649,316.5145 170.849,316.3637 170.4139,315.3287 169.7944,315.0353 169.501,314.3863 168.8641,314.4577 167.204,314.1443 165.9669,313.6815 165.3912,313.4276 164.8373,312.8739 164.6618,312.5964 164.312,312.4446 163.9723,312.5106 162.9228,312.9753 162.2987,312.8973 161.7502,312.6805 161.4171,312.2201 161.1681,311.6156 160.4897,310.7579 160.8979,310.5151 160.7325,310.1493 161.103,310.0442 161.488,309.5958 161.5595,309.25 161.9011,308.835 161.8358,308.4928 161.9978,308.3811 161.9493,308.2401 161.7635,308.1257 161.4458,308.2113 161.2875,308.2884 161.0908,308.0416 160.9049,307.3394 160.6092,307.1541 160.36,306.8166 160.0343,306.8149 159.6577,306.9513 159.3213,307.112 158.9146,307.0366 158.5724,306.8356 157.8384,306.6525 156.9005,306.6034 156.6484,307.0499 156.1673,306.8882 155.6285,307.2764 155.3909,306.9678 155.0231,306.8232 154.1581,306.7625 153.9777,306.6786 153.6002,306.2793 153.2071,306.3253 153.107,306.4608 153.3034,306.872 153.2749,307.0271 152.8084,307.1477 152.2687,307.4797 151.6262,307.6198 151.0634,307.5466 150.9171,307.3303 150.4974,307.0648 150.0971,307.1765 149.7462,307.0566 149.9052,306.8111 150.0558,306.4658 150.5227,306.3594 150.6738,306.2481 150.6861,305.9796 150.4584,305.6615 150.4883,305.4552 150.6491,305.325 150.9265,305.4209 150.9943,305.2983 150.4492,304.8755 150.4649,304.6132 150.2047,304.3423 150.1107,304.0691 149.8093,303.9236 149.5791,303.6648 149.2735,303.4632 149.4616,303.1704 150.0488,302.9074 149.8113,302.6687 149.6569,302.2911 149.9262,301.8786 149.8205,301.7116 149.9582,301.5943 150.0032,301.082 149.8297,300.6228 149.3499,300.1241 149.5388,299.8844 149.4481,299.8232 149.6873,299.6109 149.638,299.4369 149.1801,299.4807 148.7205,299.4123 148.2817,299.2732 147.8494,298.9691 147.8891,298.538 147.7857,298.3086 147.2953,298.3966 147.2114,298.7206 146.5845,298.7295 146.272,298.8212 145.7998,298.8029 145.6001,298.7838 145.4447,298.6253 144.9505,298.4701 144.245,297.9933 144.1735,297.8804 144.1978,297.7397 144.1609,297.6092 144.0375,297.4768 143.7714,297.3557 143.5792,297.1806 143.4244,297.1625 143.302,297.2001 143.3515,297.3512 143.2577,297.444 143.3497,297.7984 143.3347,297.8984 143.2574,297.9463 142.9481,298.038 142.8283,297.8182 142.6302,297.8471 142.5359,297.7626 142.4566,297.7407 142.3654,297.7513 142.2898,297.8039 142.0987,298.1319 141.4721,298.4716 140.9215,298.9535 140.6248,298.7907 140.4799,298.7631 140.329,298.7824 140.0878,298.8731 140.1288,299.1502 139.3137,299.614 138.5462,299.7555 138.0412,300.0681 137.7613,300.1036 137.4165,300.3642 136.7385,300.0415 136.3263,300.1424 135.9513,299.9626 135.4065,299.9136 134.9913,299.6198 134.7955,299.594 133.9473,299.7454 133.6786,299.6837 133.4755,299.546 133.379,299.2926 133.3621,299.2482 133.3483,299.212 133.2446,298.9396 133.3638,298.6625 133.7725,298.3802 133.7296,297.8581 133.8851,297.6196 134.1768,297.4663 134.2569,297.1694 134.8499,296.7754 134.8899,296.5218 134.7881,296.2859 134.7436,295.7881 134.6371,295.6279 134.2614,295.4847 132.9708,295.4428 132.8267,295.1639 132.8916,294.2599 132.7215,293.9748 132.6759,293.7963 132.7556,293.4636 132.6307,293.3032 131.9435,293.2493 131.5477,293.2672 131.3831,293.3432 130.9647,293.9132 130.587,294.1081 129.9173,294.6845 129.644,295.3045 128.615,296.1024 128.554,296.468 128.7423,297.0501 128.7066,297.5629 128.5243,297.6333 127.7036,297.5306 127.3248,297.2535 126.8448,297.1292 126.1837,296.6212 125.8901,295.4466 125.8733,295.0959 125.2928,294.3041 125.053,293.8389 124.6467,293.7029 124.5438,293.4562 124.9155,292.9087 124.9616,292.7772 124.8864,292.6783 123.4363,292.8064 122.974,293.3372 122.5683,293.2627 122.1104,292.964 121.7578,293.1402 121.2553,293.1077 120.3351,292.6887 119.2811,292.5544 118.5975,292.2534 117.8944,291.6189 117.3319,291.4434 116.8379,291.5321 116.3461,291.0996 115.8386,291.0891 115.1807,290.7841 114.7461,290.7619 114.4843,290.8691 114.2263,290.8491 113.8911,290.6524 113.4508,290.2161 112.9343,290.0453 112.6157,290.0086 111.9225,290.1362 110.623,290.1473 109.9869,289.7529 109.9123,289.3214 109.8138,289.2435 109.3044,289.2734 109.176,289.1996 108.8571,288.5927 108.2957,288.3564 108.2073,288.2104 107.9956,287.1337 107.7986,286.9116 107.1478,286.5698 106.955,286.371 106.4933,285.4968 106.4153,285.1504 106.4022,285.0922 106.0746,283.636 105.5909,282.7259 105.4522,281.8283 105.4325,281.019 105.1113,280.6746 105.0401,280.0086 104.7602,279.7938 104.4304,279.815 104.2646,279.7431 104.0012,279.3611 103.8912,279.335 103.5917,279.4581 103.3034,279.3136 103.1556,279.3486 103.1053,279.6664 102.9838,279.7138 102.4598,279.5666 102.3456,279.6317 102.2824,280.1501 102.1805,280.2553 101.7949,280.2775 101.4912,280.4715 101.0933,280.4489 100.6736,280.6575 100.5127,280.6524 100.0926,280.3127 99.73,280.1612 99.471,279.716 98.6539,278.8451 98.1948,278.6001 97.5492,278.4286 96.4365,277.7421 96.3145,277.3549 96.5307,276.9487 96.8826,276.6386 96.8279,276.3864 96.6701,276.0954 96.3543,275.7851 96.0748,275.6279 95.6884,275.1563 95.1553,274.7781 94.7689,274.329 94.307,274.1729 93.6107,273.6735 93.4324,273.6238 93.1455,273.7254 92.6965,273.6973 92.5348,273.7857 92.7348,274.0708 92.6101,274.2857 92.0438,274.2356 91.7762,273.8771 91.5839,274.0412 91.4607,274.0412 91.0082,273.7032 90.7959,273.6561 89.8056,273.7399 89.2033,273.3786 88.7451,272.7867 86.2051,272.2503 86.2123,271.8571 86.362,271.6554 86.6468,271.5954 87.2315,271.5875 87.5226,271.5086 87.8118,271.2988 88.2752,270.7559 88.5898,270.477 89.6223,269.7829 90.0378,269.5838 90.5143,269.4693 91.2128,269.0811 92.0445,268.7203 92.5821,268.2513 93.5606,267.0774 94.2821,266.4685 94.996,265.3731 95.5848,264.7785 96.5138,264.1606 97.5406,263.5351 98.7032,263.0949 99.9139,262.3296 101.1585,262.038 102.4388,261.4839 104.7821,259.6493 106.1863,258.0756 106.4302,257.5232 107.0716,256.6867 107.3183,256.2514 107.5857,255.4144 107.6282,255.0431 107.5705,253.6329 107.6184,253.2256 107.6489,252.1654 107.7078,251.678 107.9774,251.0753 108.6855,250.4665 109.5569,249.0147 109.6773,248.771 109.9029,247.7686 109.9766,246.0287 110.1812,244.6695 110.5363,244.0533 111.1741,243.2413 111.5563,242.9879 112.5308,242.8406 113.8989,243.2028 115.0338,244.4485 115.351,244.6839 116.7829,245.3416 117.2669,245.7019 118.4796,246.8384 118.9062,247.0128 119.1683,247.061 119.2849,247.0825 119.2911,247.0836 121.1837,247.4321 121.9299,247.4196 122.5981,247.2959 123.2184,247.0444 123.7252,246.5495 124.6825,244.5258 125.1387,243.8495 125.4905,243.5853 126.2295,243.3939 126.9721,243.5132 127.5533,243.8672 128.0993,244.4256 129.3786,245.4922 129.9883,245.896 130.8123,245.9628 131.1133,245.9082 131.3862,245.6707 131.6701,244.7887 132.2204,243.9537 132.6005,242.3888 132.6321,241.2959 132.8076,240.3847 133.0886,239.6079 133.8106,238.6012 134.6234,236.8139 135.27,235.9479 135.3383,235.2231 135.6457,234.7135 135.6903,233.9579 135.9066,233.654 135.8742,232.9528 137.0612,232.4289 138.0554,232.2902 138.7927,232.4959 139.4308,232.7328 140.4055,232.8821 141.904,233.2867 142.5289,233.1168 143.423,233.0536 144.5035,232.6606 144.9066,232.6464 145.8437,232.3646 146.9289,231.5703 147.6388,231.2209 149.254,231.0727 150.3968,231.4884 151.6713,231.3081 152.2881,230.8463 153.5975,230.7825 154.2493,231.0142 155.0444,230.9985 155.9462,231.1235 156.5702,230.9084 157.0042,230.2008 157.252,230.0349 157.6361,229.9278 157.944,229.6727 158.1266,228.8485 158.1042,228.4107 158.0178,228.1378 157.7689,227.8816 157.6014,226.9734 157.3955,226.3397 156.9785,225.8085 156.8732,225.4715 156.0793,224.9436 155.5673,224.36 155.4626,223.9015 155.5968,223.444 155.5627,223.2613 154.7275,222.6911 154.5844,222.5079 154.4771,221.9327 153.9957,221.6682 153.9022,221.5209 153.7366,220.3634 153.7961,219.4939 153.6577,219.2312 153.9677,218.7097 155.1086,218.335 156.5611,217.741 157.4271,217.2659 157.9334,217.2048 158.5006,217.2656 159.255,216.5821 159.3084,216.445 159.2627,215.522 159.3314,215.28 160.1247,214.4061 160.2385,214.1455 160.2337,213.9416 160.0753,213.5868 159.9318,212.5594 159.6509,211.8534 159.5012,211.6712 158.6789,211.2057 158.4706,210.9903 158.0734,209.9865 158.065,209.4518 158.2146,208.9151 158.6643,208.2748 158.7188,207.6158 158.8949,207.3058 158.8988,207.044 159.846,204.9184 160.1208,204.3009 160.9172,202.5112 161.7393,200.6635 161.8582,200.0819 162.3704,198.7737 162.4422,198.2933 162.3933,197.1423 162.358,196.9753 162.3071,196.7353 161.9858,196.0383 161.0974,194.8647 160.6845,193.9782 160.6716,193.0643 160.829,192.2564 160.9989,190.2691 161.5343,189.306 161.7616,188.1984 162.2988,186.6606 162.5775,186.1503 165.4221,182.2103 165.6728,181.4525 166.3145,180.0001 166.3652,179.822 166.6092,178.9644 168.1542,176.5085 169.4014,175.4934 169.7034,175.1451 169.9745,174.6342 170.0981,173.1413 170.7704,171.871 171.0839,170.7801 171.758,168.9809 171.7595,167.657 171.4622,165.4056 171.4772,164.8265 171.7048,163.3825 172.3121,161.2062 172.4012,160.631 172.4348,160.0599 172.3148,159.0606 172.4966,158.3322 173.0692,157.297 172.4112,157.6908 171.9486,157.8059 169.9525,158.0464 169.0625,158.0721 165.6666,158.9695 165.2587,159.0104 163.4309,158.8179 162.6328,158.9723 162.0859,158.9849 160.7748,158.7512 159.9794,158.3526 159.6634,158.0767 158.9607,157.1541 157.9604,155.6335 156.5889,154.6649 156.218,154.0396 155.5783,152.2973 155.0414,151.5174 153.5291,150.1452 153.1795,149.6282 152.8019,148.6058 152.4315,147.0404 151.5021,145.8904 149.9721,144.8115 147.8177,143.9702 145.7718,143.4425 144.8688,143.1242 143.761,143.2197 142.6113,143.2128 141.9305,143.1088 141.2742,142.9463 140.3738,142.5134 140.073,142.2869 139.4737,141.3882 139.3342,140.8599 139.2818,139.0858 139.2024,138.6545 139.1026,138.3524 138.5171,137.6526 137.425,136.9025 134.9748,135.8787 134.2034,135.4456 133.1115,134.6316 132.2892,133.5405 131.9771,132.5751 131.9606,131.4581 132.1198,130.8355 132.493,130.2904 133.2008,129.8236 135.3102,128.8511 135.6953,128.6179 135.9508,128.2486 136.0139,127.6609 135.1389,123.2187 135.3391,122.5793 135.8286,122.1037 136.5065,120.9626 136.5281,120.3988 136.3239,119.6615 136.0155,119.1283 134.1115,117.2197 132.9894,115.0359 132.1005,113.8206 129.7881,111.5338 129.3615,110.3625 129.1566,109.3689 129.1897,107.9115 129.4443,106.7898 129.6151,106.8935 130.0399,107.5711 131.0499,109.4578 131.4774,109.8347 132.1987,110.1953 135.0087,110.4589 136.7966,110.7644 137.0898,110.918 137.782,111.4891 138.4587,111.7413 138.8351,112.154 139.1731,112.3288 139.7609,112.4163 141.6461,112.3481 142.617,112.4789 144.5911,113.8065 144.9372,114.1399 145.3005,114.6496 145.4713,115.8265 145.7318,116.7871 146.3432,117.6332 147.4065,118.3694 147.9968,119.0417 149.5672,120.1225 150.2882,120.3336 151.3139,120.2485 152.4608,119.9259 155.6424,117.732 157.235,116.4313 158.2992,115.7251 160.8573,113.588 161.4888,112.7847 162.1504,111.3567 163.0235,110.3309 164.7962,109.0471 166.6861,107.9948 167.8128,107.0412 168.3843,106.7686 169.3015,106.4913 170.5191,105.8947 171.7995,105.5873 172.8805,105.1475 174.1551,104.8637 174.9325,104.6063 176.0514,103.9948 178.7162,103.2466 179.9747,102.4243 180.9054,101.5719 181.7399,100.6375 182.8577,99.6951 183.3997,99.3657 183.9846,99.1689 186.267,98.8431 188.3792,98.7562 189.9289,98.3794 191.2476,98.2171 192.9364,97.6622 193.2522,97.4506 194.1864,96.5162 194.3536,96.2858 194.6329,95.5224 195.1664,94.7034 196.1912,93.6532 197.215,92.7588 198.9554,91.9796 199.94,91.0817 200.8914,90.357 202.4187,89.1935 204.4925,87.9762 205.3316,87.6358 207.598,87.0353 209.836,86.8912 210.8275,87.0646 211.2577,87.2355 212.0881,87.7846 214.1184,88.8416 214.6474,88.87 215.4457,88.7139 215.886,88.819 216.7688,88.791 218.3642,88.4422 220.2348,87.4483 221.6362,86.5418 222.6618,85.6573 223.6847,84.9528 225.5143,84.0256 226.1047,83.8892 226.7441,84.2131 226.9484,84.3167 227.0513,84.369 227.334,84.5124 227.9239,84.8118 228.5448,84.7375 228.9112,84.7757 229.225,85.222 229.3685,85.3063 229.7797,85.2963 230.2145,85.1104 230.5711,85.085 231.2996,84.6779 231.6816,84.7577 232.0749,84.3441 232.7893,84.1454 233.2787,83.5863 233.4803,83.4607 233.7802,83.5454 234.3168,83.9675 234.8026,84.1116 235.4818,83.7435 236.5423,83.6194 237.732,84.1445 238.9962,84.432 239.6962,84.866 240.5471,85.0359 241.009,85.2322 241.9295,85.1662 242.3385,84.9141 242.5309,84.8776 242.8362,84.9512 243.279,84.9176 243.4415,85.0215 244.0092,84.5354 244.1682,84.496 244.3173,84.5255 244.6717,84.8529 244.8786,84.7801 245.1442,84.5396 245.3032,84.5431 245.4503,84.6108 245.7871,84.9809 246.313,85.0381 246.6594,85.2801 247.3075,85.5202 247.6365,85.5378 248.1413,85.3823 248.4504,85.4892 248.7863,86.1762 249.2506,86.4837 249.5789,87.1444 249.7433,87.1664 249.8492,87.1806 250.0067,87.2016 250.1245,87.2173 250.4893,87.5327 250.9332,88.2388 251.1614,88.842 251.3628,88.9625 252.0588,89.1474 252.6335,89.815 252.8039,90.4745 252.9761,90.7984 253.7091,91.3574 253.9589,91.4359 254.4279,91.3703 254.798,91.4885 255.1913,91.4876 255.9911,91.1217 256.83,90.9383 257.0293,90.8175 257.48,90.1093 257.9469,90.0538 258.5596,90.19 258.7347,90.1104 258.8175,89.987 258.7943,89.6265 258.8888,89.4124 259.0992,89.3893 259.4606,89.5428 259.8012,89.1917 259.9982,89.1674 260.16,89.2721 260.3933,89.2404 260.781,88.5872 260.8794,88.5957 260.9598,88.724 260.9519,89.1914 261.2511,89.2348 261.7685,88.8997 261.8972,88.9166 262.301,89.2276 263.4169,89.1163 263.8738,89.4949 264.5146,89.6683 264.7991,90.015 265.0902,90.2229 265.8811,90.0449 266.5795,90.2741 267.1028,90.2596 267.3883,90.3346 267.7986,90.0263 267.9882,90.1191 268.09,90.3128 268.307,90.3806 268.626,90.0068 268.8115,90.0101 269.1445,90.2261 269.5519,89.8852 269.782,89.9463 269.9782,90.13 270.201,90.1501 270.6867,89.6751 270.8681,89.6584 271.5596,89.8324 272.0236,89.7428 272.6262,90.147 272.8635,90.0421 272.898,89.6656 273.0082,89.497 273.1523,89.4799 273.5808,89.625 273.9096,89.4782 274.0876,89.5465 274.4491,89.9055 274.6549,89.8965 274.8198,89.6748 274.7735,89.2963 274.5496,89.0154 274.5356,88.8383 274.8617,88.5919 274.9428,88.3767 275.232,88.2382 275.3016,87.9587 275.0732,87.5775 275.148,87.0083 275.2514,86.973 275.5766,87.0661 275.8324,86.9435 275.8743,86.7498 275.7456,86.5491 275.7478,86.3817 276.1541,86.4192 276.2717,86.3158 276.2806,86.1496 276.4488,86.1115 276.6381,86.1958 276.7668,86.0312 277.2706,86.1217 277.5418,85.7385 278.2785,85.7646 278.9837,85.4508 279.6497,85.4278 280.356,85.0524 280.4664,84.8432 280.5947,83.7155 280.5651,83.2695 280.7519,82.8306 280.7496,82.2685 280.6121,81.6695 280.6577,81.2569 281.0154,80.6723 281.3492,80.4327 282.2687,80.5697 282.3814,80.5139 282.587,80.1351 282.914,79.937 282.9786,79.748 283.2698,79.5743 283.395,79.3134 283.6184,79.2634 284.082,79.412 284.5298,79.2449 285.2319,79.2558 285.4202,79.1774 285.8136,78.6134 286.1981,78.5333 286.7399,78.2776 287.068,78.2678 287.6186,78.5016 287.8117,78.6426 288.1858,79.1865 288.9251,79.4889 289.5314,80.1273 290.0219,80.4222 290.42,80.3736 290.759,80.1641 290.9195,80.2095 291.0762,80.3805 291.3051,80.4097 291.7349,80.272 292.1242,79.8492 292.4343,79.7566 292.4346,80.1514 292.6008,80.8289 292.5412,81.5144 292.7992,82.1127 293.0935,83.539 293.7306,84.0191 293.8406,84.2531 294.2241,86.0494 294.1166,86.5411 294.1528,86.8911 294.4982,87.7614 294.3594,88.6465 294.6087,89.2543 295.0222,89.5797 295.463,90.2842 295.7218,90.5164 296.3165,90.6802 296.8354,91.2708 297.3136,92.4272 297.6255,92.9053 297.6503,93.8498 298.0462,94.9629 298.4971,95.2387 300.1943,95.8979 300.8186,96.2352 301.2683,96.5913 302.5227,98.0285 303.4761,98.7413 303.9108,99.2349 304.4908,100.7127 305.1243,101.6818 305.5645,102.7514 306.1325,103.8137 306.7691,105.654 307.0693,106.1496 307.4944,106.628 307.5838,106.8649 307.6697,108.09 307.8178,108.3857 308.3416,108.5852 308.99,108.5557 309.6277,108.6207 310.5987,108.9287 311.4938,108.9838 311.7524,109.0728 312.2232,109.4577 312.2685,109.5161 313.0587,110.5347 314.5998,112.0466 315.4474,112.6156 316.2497,113.3962 316.8601,114.4999 317.5536,117.222 317.8799,118.1068 318.2571,118.6809 318.5697,119.4431 319.0799,120.3756 319.3615,120.6359 319.6434,121.0643 320.0631,122.6289 320.5596,123.4833 321.1442,124.2234 321.8449,124.6826 323.8528,125.2963 326.9484,125.8598 326.6681,126.2162 326.5663,126.5005 326.4037,130.0788 326.1606,131.7108 325.2918,134.6152 325.1988,135.2255 325.2243,135.9605 325.5336,137.3013 326.3083,138.567 326.7512,139.026 328.1995,139.9938 328.2489,140.0268 328.6449,140.3751 329.0408,140.7235 330.6995,142.6526 331.1096,143.3041 332.086,145.7412 333.0538,147.7215 334.5792,150.6491 335.94,152.9724 336.339,154.2409 336.3368,155.0764 336.1704,155.7234 335.6382,156.5341 332.4761,159.4176 331.0748,160.9091 330.4065,161.9524 330.148,162.832 330.2686,163.5024 330.8007,164.1647 332.3944,164.9194 333.3824,165.5131 334.1428,166.2965 335.2599,167.2286 335.8957,167.9927 336.602,169.1546 337.1875,169.8635 338.5077,170.9547 339.423,172.074 341.0155,174.2643 341.6517,175.4837 342.0676,175.794 342.2021,175.8535 344.0144,175.0102 345.6842,174.4721 347.0656,173.878 347.908,173.3996 348.5507,172.6522 349.1598,172.2071 349.1923,172.9885 349.654,174.2806 349.7218,175.0928 350.0269,176.1105 350.3152,177.5258 351.1815,179.0904 352.0842,180.1352 352.6521,181.0369 352.8897,182.1393 352.9034,182.5943 352.6889,183.6228 352.5897,184.597 352.6375,185.2525 353.0008,187.1364 352.864,188.0385 352.7435,191.6794 352.7425,191.7089" stroke="black" /><polygon fill="none" points="34.7164,146.1688 34.6807,146.0687 34.5927,145.4748 34.4046,145.042 32.5804,142.5788 31.5837,140.6596 31.245,139.317 31.0946,138.7226 30.9207,137.2635 31.0069,135.3182 31.4028,133.6213 31.963,132.7505 34.3702,129.918 35.6662,128.0144 35.8154,127.1881 35.7465,126.4526 35.6075,125.611 35.3392,124.8317 34.8773,123.0535 34.3161,121.6001 34.0821,120.6577 33.443,119.4045 33.2866,118.3791 33.3641,117.3422 33.6452,116.3432 34.3314,115.4451 36.4911,113.6164 37.2409,112.2712 38.2575,111.0099 39.2372,109.9487 40.1592,109.2532 41.7817,108.5704 43.7026,108.3204 44.0329,108.2162 44.75,108.2379 45.4441,108.497 46.7505,108.4298 49.3083,108.6081 49.8765,108.4383 50.5533,107.5433 51.8911,106.4773 52.8763,104.9042 54.5507,103.2721 55.6152,102.5716 56.4275,101.862 57.3058,101.5757 57.6274,102.2204 57.95,102.4906 59.4248,103.9528 59.8471,104.5217 61.6393,107.296 61.9827,108.9051 62.7674,110.0859 63.7195,110.9641 65.4682,112.0553 66.2726,112.3 67.5492,112.3293 67.7958,112.4128 68.0448,112.6131 69.0349,112.9394 69.4287,113.2123 69.9741,114.0398 70.5571,114.4464 71.0449,114.5536 71.171,114.806 71.334,116.0402 71.2175,116.3234 71.5961,116.3945 71.4824,117.2135 71.6195,117.7202 72.1199,118.1097 72.2813,118.6878 72.6565,118.9199 72.7997,119.1675 73.3062,119.3043 73.4291,119.5335 73.7283,119.5669 74.2784,119.9526 74.7971,120.4573 75.1286,120.8709 75.1805,121.2259 75.5495,121.483 75.8284,121.9285 76.2835,122.2978 76.8525,122.495 77.2537,122.6893 77.3771,122.9497 77.7226,122.97 78.2486,123.0815 78.6346,123.5879 79.0239,123.8697 79.3145,123.7722 80.0775,123.7557 80.3273,124.0331 81.0818,124.3287 81.6533,124.3709 81.8376,124.7054 82.2111,124.8251 82.4954,125.1832 82.9782,125.5074 83.3882,125.4082 83.6839,125.2108 84.0879,125.1554 84.6055,124.2811 85.475,123.8451 85.9124,122.9344 87.1856,121.557 88.7125,120.6989 89.5447,120.2432 90.7218,119.7309 91.6937,119.4868 92.1933,119.014 92.599,118.7944 93.0491,118.7135 93.824,118.6094 94.7853,118.1034 96.5541,117.4617 99.9797,116.6601 101.2722,116.1011 101.7217,116.0 102.2262,116.0056 102.7927,116.1601 103.5251,116.7429 104.2663,117.469 105.3472,117.8349 105.7669,118.1568 106.2544,118.565 106.8077,118.7197 107.1625,119.136 108.0725,119.395 108.8218,119.3536 109.6838,119.7287 110.1092,119.7665 110.7116,119.6709 111.1085,119.5844 111.5816,119.7027 112.226,119.2301 112.3604,118.9932 112.9644,118.9974 113.2723,119.377 113.7997,119.1451 114.332,119.0224 114.8976,119.1145 114.9412,119.3572 115.3938,119.4446 116.6953,119.4829 117.3198,119.0937 117.7504,119.0442 118.0763,118.7036 118.27,118.3132 118.5059,118.1166 118.7852,118.1424 118.9818,117.9915 119.3331,117.9617 119.8038,117.506 120.5382,117.0813 120.9041,116.4936 121.3094,115.523 121.4512,114.3979 121.5182,111.8762 121.5024,110.9391 121.9161,110.1486 121.8475,109.1513 121.4777,107.6657 121.5483,107.5708 122.3154,107.4177 129.4443,106.7898 129.1897,107.9115 129.1566,109.3689 129.3615,110.3625 129.7881,111.5338 132.1005,113.8206 132.9894,115.0359 134.1115,117.2197 136.0155,119.1283 136.3239,119.6615 136.5281,120.3988 136.5065,120.9626 135.8286,122.1037 135.3391,122.5793 135.1389,123.2187 136.0139,127.6609 135.9508,128.2486 135.6953,128.6179 135.3102,128.8511 133.2008,129.8236 132.493,130.2904 132.1198,130.8355 131.9606,131.4581 131.9771,132.5751 132.2892,133.5405 133.1115,134.6316 134.2034,135.4456 134.9748,135.8787 137.425,136.9025 138.5171,137.6526 139.1026,138.3524 139.2024,138.6545 139.2818,139.0858 139.3342,140.8599 139.4737,141.3882 140.073,142.2869 140.3738,142.5134 141.2742,142.9463 141.9305,143.1088 142.6113,143.2128 143.761,143.2197 144.8688,143.1242 145.7718,143.4425 147.8177,143.9702 149.9721,144.8115 151.5021,145.8904 152.4315,147.0404 152.8019,148.6058 153.1795,149.6282 153.5291,150.1452 155.0414,151.5174 155.5783,152.2973 156.218,154.0396 156.5889,154.6649 157.9604,155.6335 158.9607,157.1541 159.6634,158.0767 159.9794,158.3526 160.7748,158.7512 162.0859,158.9849 162.6328,158.9723 163.4309,158.8179 165.2587,159.0104 165.6666,158.9695 169.0625,158.0721 169.9525,158.0464 171.9486,157.8059 172.4112,157.6908 173.0692,157.297 172.4966,158.3322 172.3148,159.0606 172.4348,160.0599 172.4012,160.631 172.3121,161.2062 171.7048,163.3825 171.4772,164.8265 171.4622,165.4056 171.7595,167.657 171.758,168.9809 171.0839,170.7801 170.7704,171.871 170.0981,173.1413 169.9745,174.6342 169.7034,175.1451 169.4014,175.4934 168.1542,176.5085 166.6092,178.9644 166.3652,179.822 166.3145,180.0001 165.6728,181.4525 165.4221,182.2103 162.5775,186.1503 162.2988,186.6606 161.7616,188.1984 161.5343,189.306 160.9989,190.2691 160.829,192.2564 160.6716,193.0643 160.6845,193.9782 161.0974,194.8647 161.9858,196.0383 162.3071,196.7353 162.358,196.9753 162.3933,197.1423 162.4422,198.2933 162.3704,198.7737 161.8582,200.0819 161.7393,200.6635 160.9172,202.5112 160.1208,204.3009 159.846,204.9184 158.8988,207.044 158.8949,207.3058 158.7188,207.6158 158.6643,208.2748 158.2146,208.9151 158.065,209.4518 158.0734,209.9865 158.4706,210.9903 158.6789,211.2057 159.5012,211.6712 159.6509,211.8534 159.9318,212.5594 160.0753,213.5868 160.2337,213.9416 160.2385,214.1455 160.1247,214.4061 159.3314,215.28 159.2627,215.522 159.3084,216.445 159.255,216.5821 158.5006,217.2656 157.9334,217.2048 157.4271,217.2659 156.5611,217.741 155.1086,218.335 153.9677,218.7097 153.6577,219.2312 153.7961,219.4939 153.7366,220.3634 153.9022,221.5209 153.9957,221.6682 154.4771,221.9327 154.5844,222.5079 154.7275,222.6911 155.5627,223.2613 155.5968,223.444 155.4626,223.9015 155.5673,224.36 156.0793,224.9436 156.8732,225.4715 156.9785,225.8085 157.3955,226.3397 157.6014,226.9734 157.7689,227.8816 158.0178,228.1378 158.1042,228.4107 158.1266,228.8485 157.944,229.6727 157.6361,229.9278 157.252,230.0349 157.0042,230.2008 156.5702,230.9084 155.9462,231.1235 155.0444,230.9985 154.2493,231.0142 153.5975,230.7825 152.2881,230.8463 151.6713,231.3081 150.3968,231.4884 149.254,231.0727 147.6388,231.2209 146.9289,231.5703 145.8437,232.3646 144.9066,232.6464 144.5035,232.6606 143.423,233.0536 142.5289,233.1168 141.904,233.2867 140.4055,232.8821 139.4308,232.7328 138.7927,232.4959 138.0554,232.2902 137.0612,232.4289 135.8742,232.9528 135.9066,233.654 135.6903,233.9579 135.6457,234.7135 135.3383,235.2231 135.27,235.9479 134.6234,236.8139 133.8106,238.6012 133.0886,239.6079 132.8076,240.3847 132.6321,241.2959 132.6005,242.3888 132.2204,243.9537 131.6701,244.7887 131.3862,245.6707 131.1133,245.9082 130.8123,245.9628 129.9883,245.896 129.3786,245.4922 128.0993,244.4256 127.5533,243.8672 126.9721,243.5132 126.2295,243.3939 125.4905,243.5853 125.1387,243.8495 124.6825,244.5258 123.7252,246.5495 123.2184,247.0444 122.5981,247.2959 121.9299,247.4196 121.1837,247.4321 119.2911,247.0836 119.2849,247.0825 119.1683,247.061 118.9062,247.0128 118.4796,246.8384 117.2669,245.7019 116.7829,245.3416 115.351,244.6839 115.0338,244.4485 113.8989,243.2028 112.5308,242.8406 111.5563,242.9879 111.1741,243.2413 110.5363,244.0533 110.1812,244.6695 109.9766,246.0287 109.9029,247.7686 109.6773,248.771 109.5569,249.0147 108.6855,250.4665 107.9774,251.0753 107.7078,251.678 107.6489,252.1654 107.6184,253.2256 107.5705,253.6329 107.6282,255.0431 107.5857,255.4144 107.3183,256.2514 107.0716,256.6867 106.4302,257.5232 106.1863,258.0756 104.7821,259.6493 102.4388,261.4839 101.1585,262.038 99.9139,262.3296 98.7032,263.0949 97.5406,263.5351 96.5138,264.1606 95.5848,264.7785 94.996,265.3731 94.2821,266.4685 93.5606,267.0774 92.5821,268.2513 92.0445,268.7203 91.2128,269.0811 90.5143,269.4693 90.0378,269.5838 89.6223,269.7829 88.5898,270.477 88.2752,270.7559 87.8118,271.2988 87.5226,271.5086 87.2315,271.5875 86.6468,271.5954 86.362,271.6554 86.2123,271.8571 86.2051,272.2503 85.8899,272.2796 85.6352,272.4683 85.4815,272.5098 85.2734,272.3753 85.0914,272.0559 84.9134,271.8686 84.8539,271.4576 84.7368,271.2776 84.4909,271.1817 84.4096,271.0861 84.441,270.964 84.6144,270.8078 84.486,270.433 84.2332,269.9872 83.9761,270.1155 83.8392,270.0768 83.8009,269.9619 83.956,269.6759 84.0834,269.3216 84.1264,269.0933 84.0609,268.9382 83.9027,268.8062 84.262,268.402 84.5585,268.242 84.7802,267.9707 84.8067,267.5335 84.3552,266.2606 84.1059,266.0393 83.8795,266.005 83.8559,266.1987 83.686,266.382 83.3673,266.3988 83.215,266.432 83.1448,266.6202 83.3956,266.9412 83.391,267.0786 83.2322,267.1182 82.6578,266.9263 82.4191,266.9607 82.0055,267.2846 81.5439,267.0849 81.4173,267.4922 81.6915,267.607 81.8018,267.8227 81.5977,267.9889 80.069,268.827 79.4675,269.0286 79.4426,269.3534 79.0199,269.0908 78.7973,268.8755 78.6233,268.7967 78.232,268.8395 78.0154,268.5866 75.87,268.6406 75.2141,268.4681 74.8018,268.3119 74.1906,267.8833 73.8526,267.5073 73.8811,267.2012 73.6097,266.8367 73.4039,266.8457 73.2663,266.9724 73.0562,266.2701 73.0717,265.9829 73.2209,265.7438 73.8236,265.3987 74.0179,265.0747 74.1578,264.8763 74.2017,264.7104 74.1402,264.5989 73.9834,264.5542 73.8486,264.6465 73.7322,264.854 73.5836,264.9121 73.4234,264.8644 73.3286,264.7534 73.2932,264.3951 73.2042,264.2247 73.0526,264.0863 72.9044,263.9542 72.8458,263.8115 72.8565,263.646 72.9373,263.4951 73.1931,263.0643 73.2802,262.461 73.3696,262.2258 73.5138,262.0928 73.7222,261.8185 73.7852,261.5962 73.8006,261.2965 73.7882,260.6625 73.8579,260.4088 74.039,260.1889 74.3059,260.0168 75.2333,259.6174 75.5136,259.2673 75.9378,258.9839 76.0485,258.8389 76.0918,258.6262 76.069,258.4393 75.7237,257.8013 75.5732,257.7409 75.4139,257.7462 75.2328,257.8547 74.9045,257.6751 74.6976,257.6155 74.5049,257.615 74.3203,257.7048 74.14,257.6511 74.1773,257.479 73.9123,257.311 73.7829,257.3221 73.6623,257.2613 73.5154,256.995 73.2402,256.9429 72.8844,256.7914 72.6255,256.8042 72.4078,256.907 72.2198,257.2122 72.1343,257.2664 72.0212,257.2585 71.6738,257.2594 71.7869,257.3727 71.7629,257.5303 71.5784,257.6295 71.3725,257.6323 70.0663,257.3785 68.9056,257.2912 68.6227,257.2576 68.3521,257.1614 67.3542,256.6445 66.4455,255.6552 66.4262,255.4808 66.5542,255.3792 66.9817,255.308 67.093,255.2004 67.0375,255.0451 66.7841,254.9862 66.7058,254.8624 66.8544,254.776 66.8785,254.6417 66.7103,254.5036 66.3934,254.4174 66.2204,254.4041 66.0419,254.4627 65.8721,254.4337 65.6597,254.2338 65.6111,254.0972 65.6424,253.9657 65.754,253.8769 66.0262,253.8639 66.1274,253.7471 66.1017,253.5914 65.7488,253.1064 65.6175,252.9865 65.3843,252.9428 65.1731,253.0392 65.0822,252.9593 65.079,252.8109 65.4213,252.1031 65.4741,251.8652 65.4585,251.4942 65.4729,251.3505 65.5441,251.2279 65.9603,250.851 66.7368,250.3632 66.9183,250.2828 67.1901,250.2448 67.3591,250.2145 67.5071,250.122 67.7517,249.8223 67.7861,249.6846 67.7707,249.5379 67.6611,249.3275 67.6288,249.1719 67.6122,248.6369 67.5789,248.4969 67.4975,248.4031 66.9171,248.0272 66.7486,247.8703 66.6657,247.6624 66.6747,247.4565 66.7752,247.2179 66.8163,247.0801 66.7544,246.9468 66.439,246.7389 66.2655,246.6913 66.1103,246.7464 65.9797,246.8948 65.7723,246.9102 65.4445,246.7739 64.9344,246.313 64.5576,246.0061 64.4727,245.8824 64.4344,245.7644 64.429,245.6272 64.3543,245.5221 64.1738,245.4497 64.0016,245.4832 63.429,245.6219 63.2465,245.6306 63.0764,245.5892 62.8511,245.4081 62.638,245.3767 62.4645,245.3229 62.3596,245.1995 62.1368,244.747 61.9942,244.543 61.7954,244.3616 61.3971,244.0518 61.1582,243.9583 60.4072,243.8311 60.1696,243.719 59.9505,243.5065 59.7697,243.4154 59.5735,243.4616 58.5922,244.1799 58.3967,244.2122 58.2442,244.1237 57.8634,243.4409 57.7681,243.2909 57.6383,243.1473 57.2252,242.7569 57.1625,242.5611 57.2036,242.4264 57.3791,242.3898 57.4158,242.2926 57.3848,242.168 57.2309,242.0392 56.9527,241.8864 56.8025,241.6082 56.5008,241.4219 56.034,241.3096 55.571,241.4406 54.8935,241.8864 54.561,242.3089 54.4548,242.7534 54.1976,243.3121 53.905,243.4487 53.3622,243.4231 53.1506,243.476 52.9616,243.7342 52.8279,244.1166 52.4324,244.3216 52.1544,244.3939 51.9908,244.5584 51.9602,245.164 51.7194,245.9347 51.5465,246.3676 51.2643,246.7079 50.3964,247.2071 49.903,247.0759 49.8213,246.9459 49.8721,246.7893 50.2793,246.4781 50.2111,246.2709 49.9459,246.0898 49.2503,245.2127 49.2067,244.9699 49.3434,244.7809 49.3196,244.5254 48.8832,244.2254 48.9312,243.8816 48.5332,243.9244 47.9415,243.4518 47.5675,243.3257 47.8276,242.9541 47.0028,242.7596 46.6879,242.7073 46.3966,242.3368 45.6165,242.1537 45.1616,241.9414 44.9387,241.701 44.7172,241.3197 44.0046,240.9896 43.5346,240.2221 42.8697,239.3012 42.169,238.2124 41.7559,236.3646 41.6402,235.7422 41.7405,235.3415 42.3507,234.3975 42.5493,233.9081 42.5757,233.5023 42.4326,232.7901 42.0285,232.2554 41.7961,231.5346 41.5342,231.3446 41.1879,231.2868 39.8812,231.3281 39.304,231.4678 38.6677,232.0066 38.3064,232.7165 38.0914,233.6496 37.6257,234.1826 36.7601,234.5902 36.5304,234.7804 36.2546,234.6868 36.1851,234.3482 35.8288,234.5089 35.1698,234.4178 34.8758,234.1623 34.8107,233.9546 34.8541,233.7481 34.9438,233.5223 34.7765,233.4434 34.5183,233.5029 34.5138,232.7605 34.9235,232.6115 34.868,232.4563 34.5018,232.405 34.3337,232.2699 34.2307,232.0404 33.9469,230.8336 33.5644,230.5766 33.4742,230.322 33.5641,230.1149 33.9954,229.6412 34.2127,229.5135 34.7095,229.4196 34.9871,229.3223 35.1538,229.1318 35.3343,228.5565 35.6608,228.1778 36.2713,227.6955 36.6222,227.1729 36.6942,226.7355 36.5763,226.3312 36.5777,225.9817 36.473,225.7536 36.2312,225.4622 36.0051,225.0034 35.8106,224.8812 35.6056,224.9401 35.4223,225.1234 34.5475,224.8168 34.1376,224.947 33.9497,224.8185 33.82,224.5831 33.2955,224.5913 33.0476,224.4622 32.7618,224.4473 32.3657,224.6148 32.0089,224.295 31.905,224.0156 31.764,223.9114 31.4746,224.1024 31.5343,223.6523 30.86,223.4304 30.5806,223.4028 30.423,223.5235 30.3146,223.838 29.9818,223.7789 29.4591,223.4738 29.3286,223.1885 29.1269,223.0227 28.39,222.9226 27.6829,222.1701 27.435,222.0281 26.8716,221.9122 26.6979,221.6324 26.6732,221.1627 26.5975,221.0233 26.4477,220.9274 25.7549,220.7741 25.4339,220.495 25.0182,219.9336 24.4146,219.9989 24.307,219.7054 23.8581,219.5065 23.5139,219.1354 22.9765,218.9742 22.8451,218.8326 22.783,218.4139 22.8422,218.2274 23.2492,217.9174 23.4054,217.6953 23.4608,217.1834 23.3633,216.9185 23.1896,216.782 23.0664,216.7819 22.6347,217.5515 22.4518,217.5796 22.3452,217.505 22.4013,216.729 22.3322,216.3479 22.262,216.0759 22.0809,215.8478 21.9134,215.7688 21.6244,215.8594 21.4331,216.2679 21.2762,216.374 21.0603,216.3643 20.7023,216.0971 20.2085,216.0398 20.0211,216.2753 20.1325,216.7237 19.9499,216.9287 19.3503,217.2041 19.2115,217.4007 19.001,218.3076 18.8072,218.6695 18.3141,219.1566 17.5578,219.4726 17.0953,220.3382 16.7394,220.5391 15.7493,220.5935 14.8034,220.2462 14.2389,219.8086 13.8931,219.3183 13.7825,218.8925 14.0406,218.4663 14.0385,218.3106 13.9455,218.2192 13.4458,218.1378 13.3322,218.0533 13.398,217.6976 13.2105,217.451 12.3903,217.4387 11.9552,217.1559 10.5377,216.573 9.4596,216.3473 9.1611,216.2107 9.09,216.033 9.5426,215.7193 9.4731,215.5414 9.1122,215.3086 9.0798,215.2162 9.1394,215.0609 9.6413,214.896 9.6432,214.642 9.386,214.2799 9.5071,213.9825 9.4864,213.8422 9.2628,213.7064 8.866,213.9974 8.6215,213.9075 8.6406,213.2339 8.4712,212.9836 8.6861,212.5813 8.5598,212.3492 8.1899,212.3129 7.7915,212.4871 7.6689,212.4293 7.4729,212.0575 7.0037,212.0625 6.8309,211.9766 6.7503,211.8116 6.8427,211.5727 7.4118,211.3061 7.4779,211.1483 7.4398,210.9142 7.308,210.7383 7.1325,210.6229 6.0092,210.6019 5.1863,210.4128 4.3819,209.7043 3.6187,209.5321 3.3836,209.4013 2.9145,208.9039 2.6936,208.9184 2.3975,209.3052 2.109,209.3623 1.9906,209.3051 1.9624,209.0217 2.2892,208.63 2.1897,208.3301 1.2989,207.3111 0.3932,206.7755 0.0,206.3076 1.7288,205.1208 2.9137,204.4242 4.0216,203.4993 5.5523,202.8669 6.5708,202.3147 8.8807,201.2597 9.3733,200.9962 9.8387,200.573 10.2595,200.3257 10.9579,200.0941 11.4742,199.7722 12.1605,198.8555 13.2461,197.9632 14.0268,197.0607 15.2429,195.0653 16.2789,192.9867 17.0978,191.8914 17.6061,191.5542 20.7404,190.0719 21.8172,189.5023 22.35,189.1285 22.8967,188.4113 23.1616,188.0638 23.4515,187.526 24.4401,185.3117 24.4562,185.2571 25.1088,183.0363 25.4294,182.5661 25.9694,182.1966 27.3276,181.2672 28.645,179.7025 29.7434,178.8962 30.3571,178.8159 30.6619,178.9195 31.8007,180.7042 32.0719,180.9163 32.8761,180.9782 33.5267,180.8593 34.1367,180.5298 34.4687,179.7703 35.4108,176.2293 35.7185,174.8206 35.4545,173.1518 35.5641,172.489 35.9341,171.9978 35.951,171.7226 35.554,170.9291 34.9766,170.5 34.3373,169.4851 33.347,168.0879 33.0744,167.8262 32.5521,167.3247 31.3309,166.4672 30.7426,165.9426 30.3971,165.721 29.9759,165.5922 29.7945,165.424 29.1732,162.8251 28.7885,161.7876 27.0315,158.1298 26.8361,157.4401 26.9208,156.8386 27.3167,156.2625 27.6697,155.9363 28.8433,155.6215 29.2598,155.425 29.7651,154.862 30.628,154.323 31.8213,154.0739 33.022,153.1064 34.3626,151.689 35.2,150.6804 35.4799,150.0977 35.9307,148.7598 35.8574,148.3274 35.6288,147.7346 34.9232,146.7483 34.7164,146.1688" stroke="black" /><polygon fill="none" points="220.5274,426.4282 220.1861,426.4416 219.8067,426.3471 218.6556,425.6733 218.0708,425.4807 217.486,425.2881 216.4167,424.5244 216.1253,424.1498 215.4476,422.4305 214.9767,420.509 214.7811,420.1337 213.8828,418.9431 213.5869,418.2619 213.4428,417.5182 213.4438,416.8442 213.4448,416.1702 213.9859,413.1137 214.0645,412.6702 214.133,411.1129 214.0529,410.568 213.8312,410.1149 213.5523,409.74 213.1322,409.4895 212.4541,409.3649 211.1375,409.4182 209.3869,409.2992 206.6378,408.8378 205.8072,408.5327 204.3812,407.6736 203.7708,407.3927 200.092,406.4656 198.9063,406.4071 198.044,406.6458 196.6116,407.2672 196.3722,407.2858 196.0338,407.1705 194.8961,406.2397 194.1859,405.9183 193.5818,405.9236 191.809,406.2195 191.0879,406.2153 190.4937,406.1035 189.7644,405.6471 188.8094,404.5835 188.4521,404.3629 185.2664,403.672 184.1337,403.8539 183.5141,404.1174 181.6555,405.2125 180.0794,405.5316 177.3585,406.6394 176.8922,406.7197 176.6876,406.7091 176.5411,406.5307 176.2584,406.0235 176.0859,405.272 175.8186,404.6155 175.1839,403.7121 174.5832,403.2407 173.7172,402.1866 173.2302,401.861 172.3941,400.7141 171.6023,398.2667 171.4455,397.5311 171.1622,392.8668 171.0725,392.2809 170.674,391.4315 170.2166,390.9095 168.0348,389.4884 167.3041,388.8521 166.2337,388.1307 164.5087,387.1467 162.5948,387.1974 162.9829,385.5701 163.6436,384.0194 164.5811,382.7998 166.0367,380.9295 166.7447,380.3645 167.3248,378.2071 168.1784,376.2499 168.2809,375.3904 168.0388,374.7143 167.9243,373.8333 168.2119,372.624 169.0705,371.6022 169.6557,371.1288 170.219,370.8095 170.3589,370.73 170.3636,370.7273 170.7693,370.4968 172.1348,370.2649 175.2822,370.0884 176.4922,369.8185 177.6365,369.3911 178.4211,368.9697 179.622,368.0631 183.2618,362.9521 183.6823,362.6934 184.8207,362.471 185.058,362.2158 185.1381,361.9679 185.2042,359.7829 185.0556,359.2262 184.9048,358.9997 184.6872,358.8805 184.1949,358.7 183.4146,358.5979 182.8966,358.3068 182.502,358.268 182.2993,358.1709 182.0155,357.8607 181.9514,357.7015 181.9937,357.4899 182.248,356.992 182.6456,355.995 182.2919,355.5009 181.833,355.0832 181.3839,354.865 180.3451,353.1267 180.1854,351.5325 180.1918,350.6457 180.3826,349.8573 180.7283,348.7342 181.039,347.3366 182.208,345.8789 182.6745,345.0886 183.3159,344.468 184.2434,344.0089 185.3655,343.002 186.1544,342.452 186.5752,340.89 187.5908,339.0311 187.8198,337.7151 188.7805,336.0407 189.4599,334.557 189.9207,332.8247 189.9497,331.7512 189.6919,330.6131 189.3849,330.1309 189.0963,329.5548 189.3114,329.2816 188.5311,328.7269 189.0733,328.5026 189.4744,328.5773 189.842,328.7932 190.2698,328.7535 190.7133,328.8075 191.0017,328.9776 191.3605,329.0864 191.9365,328.9441 192.3589,329.0117 192.8707,328.8703 193.4262,329.2242 193.7019,329.7095 193.9628,329.947 193.6499,330.0252 194.0747,330.2402 194.8113,330.3941 195.3497,330.7001 195.8723,331.2106 195.9567,331.7203 195.7385,332.316 195.6496,332.677 195.815,333.184 196.1997,333.5671 196.8499,333.8097 197.2558,333.8111 197.6029,333.8997 197.8995,334.1513 198.1995,334.6086 199.4577,337.161 199.882,337.4918 200.1776,337.9477 201.1451,337.4923 201.8144,337.7696 202.3504,337.6184 202.686,337.4076 203.1221,337.3933 203.1686,337.2765 203.8293,337.1635 204.8589,336.0178 204.7617,335.481 205.2289,335.599 206.1947,336.1154 206.3602,335.7353 206.4719,335.8041 206.4649,336.1595 206.9031,336.3658 207.7822,337.3274 207.7854,337.9853 207.8904,338.4181 208.3605,338.8666 208.1017,338.9443 208.933,339.7193 208.9461,340.1122 209.4968,340.3128 209.9535,339.9292 210.9127,340.0463 211.5552,339.8997 211.7589,340.1588 212.2716,340.3358 212.232,340.6323 213.1049,340.7569 213.4011,341.0806 213.337,341.5272 213.5763,341.9292 213.9737,341.8361 214.1249,341.8859 214.2138,342.0789 214.7708,341.6994 215.1925,341.7271 216.5474,342.2125 217.0066,342.3466 217.605,342.2575 218.2308,342.1009 219.009,341.6607 220.1092,340.3983 220.6991,339.7999 222.1138,338.9886 224.2267,335.4999 225.2092,334.4669 226.3952,333.6454 228.0609,332.4819 228.6659,331.9369 228.8585,331.4918 229.4733,330.6787 229.5456,329.8735 229.8578,328.8905 230.4638,328.4126 231.2441,328.1063 232.0574,328.0676 233.1471,328.3331 234.3046,328.3831 235.4828,328.8216 236.8855,329.0154 237.4499,328.687 237.8662,328.7397 238.5634,329.0176 239.1955,329.2496 240.7457,329.7294 241.0587,330.0082 241.7067,330.3673 242.0341,330.3471 242.5253,330.6884 243.2212,330.8859 243.5974,330.753 244.0776,330.8666 244.4972,330.7666 245.0196,330.8393 245.5291,330.9926 245.8859,330.9807 246.3615,330.8128 246.9815,330.7434 248.4553,330.9227 248.94,330.8753 249.8906,330.5196 250.303,330.8132 250.9863,331.3393 252.3583,332.1508 253.3441,333.2207 253.6251,333.4079 254.0543,333.6844 254.3843,334.1378 254.7364,335.3716 255.4001,336.3336 255.811,338.7271 255.9207,339.014 256.4707,339.8979 256.8491,340.8014 258.1358,342.2782 258.4565,343.5596 259.8539,345.8418 259.4585,349.6739 259.4565,350.1599 259.5481,350.4972 259.733,350.7879 262.9416,354.3 263.4465,355.1316 263.6361,355.6378 263.7049,356.1012 263.608,356.7904 263.3166,357.3145 262.6398,357.9127 261.3935,358.7699 260.6176,359.7536 260.2413,360.391 259.5575,361.9277 259.1925,363.0951 258.9564,364.143 258.3738,367.9384 257.9661,369.4592 256.8202,372.0192 255.4432,374.3913 254.2307,375.8283 253.2923,376.656 253.0208,376.9989 253.2028,378.0886 253.0664,378.4325 253.1527,378.8712 253.129,379.3127 253.3276,379.768 253.4589,380.456 253.9731,381.6042 254.0186,382.4258 254.4714,382.9305 254.7687,383.7323 255.6261,384.1787 256.0457,384.5521 257.1468,384.7827 257.905,385.4978 258.5856,385.9165 259.1534,386.4626 259.9891,387.088 260.6879,387.0536 261.111,387.3623 261.9751,387.3817 262.2553,387.6778 263.0364,387.7965 263.5184,388.1858 263.9146,388.9804 264.1278,389.225 264.383,389.3631 265.3413,389.4059 265.5019,389.5331 265.5521,390.2797 265.829,390.8018 265.8397,391.1557 265.6243,391.482 265.5591,391.8796 265.0811,392.1132 264.8703,392.363 264.8588,393.2183 265.2508,394.0559 264.993,395.395 265.0671,395.9742 265.3669,396.3274 265.416,396.7961 265.6405,397.1843 265.608,397.8807 265.6921,398.1248 266.4408,399.161 266.6046,399.8246 266.426,400.9594 266.4995,402.0838 265.9803,403.2951 265.8938,403.5915 265.9127,403.9646 266.0197,404.2422 266.3942,404.6972 267.0482,405.2491 267.3358,405.7427 267.1405,406.9015 267.099,407.8676 267.277,410.8822 267.2805,412.7649 266.9531,414.0915 266.2663,415.4811 266.337,415.8339 266.9014,416.4182 267.0484,417.7932 266.9245,418.5167 266.4793,418.6044 263.5636,420.2644 262.0008,420.9187 261.4805,421.0267 259.8084,421.0515 255.4819,421.4279 254.5417,421.5644 249.061,422.6929 248.2778,422.7487 246.8174,422.6816 245.9046,422.7501 245.1649,422.5389 244.0019,422.5338 243.7374,422.4146 243.3634,422.0865 242.8803,421.849 242.1655,421.7024 241.2387,421.6382 239.2028,421.9907 237.781,422.6534 236.9162,422.732 236.4228,423.0509 235.6193,423.9762 235.1623,425.0298 235.138,427.1206 235.0008,427.4684 234.3312,427.8903 233.9042,427.9298 233.4047,427.8362 232.9849,427.5982 231.9402,426.4437 230.9827,425.9786 229.3514,425.7347 227.338,425.9764 226.091,426.2955 224.1328,426.9699 222.8381,426.9447 221.2491,426.3995 220.5274,426.4282" stroke="black" /><polygon fill="none" points="286.6866,422.1458 286.5441,422.1537 285.9364,422.1875 284.8333,422.2488 284.3343,422.1662 284.0389,422.0684 282.251,421.0928 281.1205,420.9997 280.3246,420.736 279.6057,420.2588 278.8423,419.9497 277.8511,419.8605 275.9334,419.9799 272.5777,419.7218 272.0546,419.5987 269.8647,418.7224 269.2635,418.6952 268.2746,418.8232 267.6599,418.7466 267.0012,418.5407 266.9245,418.5167 267.0484,417.7932 266.9014,416.4182 266.337,415.8339 266.2663,415.4811 266.9531,414.0915 267.2805,412.7649 267.277,410.8822 267.099,407.8676 267.1405,406.9015 267.3358,405.7427 267.0482,405.2491 266.3942,404.6972 266.0197,404.2422 265.9127,403.9646 265.8938,403.5915 265.9803,403.2951 266.4995,402.0838 266.426,400.9594 266.6046,399.8246 266.4408,399.161 265.6921,398.1248 265.608,397.8807 265.6405,397.1843 265.416,396.7961 265.3669,396.3274 265.0671,395.9742 264.993,395.395 265.2508,394.0559 264.8588,393.2183 264.8703,392.363 265.0811,392.1132 265.5591,391.8796 265.6243,391.482 265.8397,391.1557 265.829,390.8018 265.5521,390.2797 265.5019,389.5331 265.3413,389.4059 264.383,389.3631 264.1278,389.225 263.9146,388.9804 263.5184,388.1858 263.0364,387.7965 262.2553,387.6778 261.9751,387.3817 261.111,387.3623 260.6879,387.0536 259.9891,387.088 259.1534,386.4626 258.5856,385.9165 257.905,385.4978 257.1468,384.7827 256.0457,384.5521 255.6261,384.1787 254.7687,383.7323 254.4714,382.9305 254.0186,382.4258 253.9731,381.6042 253.4589,380.456 253.3276,379.768 253.129,379.3127 253.1527,378.8712 253.0664,378.4325 253.2028,378.0886 253.0208,376.9989 253.2923,376.656 254.2307,375.8283 255.4432,374.3913 256.8202,372.0192 257.9661,369.4592 258.3738,367.9384 258.9564,364.143 259.1925,363.0951 259.5575,361.9277 260.2413,360.391 260.6176,359.7536 261.3935,358.7699 262.6398,357.9127 263.3166,357.3145 263.608,356.7904 263.7049,356.1012 263.6361,355.6378 263.4465,355.1316 262.9416,354.3 259.733,350.7879 259.5481,350.4972 259.4565,350.1599 259.4585,349.6739 259.8539,345.8418 258.4565,343.5596 258.1358,342.2782 256.8491,340.8014 256.4707,339.8979 255.9207,339.014 255.811,338.7271 255.4001,336.3336 254.7364,335.3716 254.3843,334.1378 254.0543,333.6844 253.6251,333.4079 254.0088,333.4687 254.4088,333.4277 255.0958,333.0154 255.6768,333.0472 256.0367,332.9141 256.4331,333.1574 257.0312,333.0914 257.552,333.2964 257.8597,333.2397 257.9854,333.1002 258.3111,332.156 258.5079,331.9129 259.1705,331.2483 260.0905,330.83 260.9238,329.5089 261.3274,329.0925 261.4685,329.0342 262.321,329.0673 262.6707,328.7912 262.8521,328.7425 263.2485,328.8745 263.4435,328.855 263.7397,328.5736 263.8741,328.5599 264.107,328.8436 264.3538,328.9625 265.2608,328.9355 265.6231,329.1379 265.9848,329.5256 266.2925,329.5795 266.8615,329.8943 267.0036,329.9076 267.9215,329.7501 268.6577,329.407 269.647,329.241 270.0933,328.7663 270.6517,328.8868 271.2671,328.7228 271.5988,328.8195 272.193,329.1397 273.1091,329.3833 273.7354,329.9617 274.2496,330.1273 274.6487,330.4203 276.1755,330.6651 277.3263,331.2381 278.1205,331.4257 279.1497,332.1553 279.5074,332.322 279.8948,332.3444 280.5912,331.9192 281.0918,331.762 281.6961,331.3678 281.9776,331.2777 283.0616,331.2393 283.3169,331.161 283.7306,330.727 284.4004,329.3839 284.4534,329.2568 284.8149,328.3893 285.9631,326.966 286.8414,326.0996 287.3427,325.2221 287.6473,324.3658 287.802,324.1794 288.0672,324.0757 288.4781,324.1044 289.0376,324.6133 290.204,325.0667 291.228,325.5682 292.2014,326.2513 293.768,327.6773 294.5638,327.9543 294.6554,328.2658 294.642,328.5601 294.6086,329.2905 294.6846,330.8412 294.7479,332.1326 295.0134,333.6921 295.6631,334.3164 296.0051,335.4 297.1297,336.6737 297.797,337.9912 298.7022,339.1436 299.2629,339.3908 299.7706,340.0469 300.2337,340.4476 300.8293,341.4489 301.0342,341.6501 301.7457,342.0754 302.4309,342.8651 303.0413,343.1932 303.4762,343.6173 304.3692,344.039 305.1055,344.7273 306.8021,345.8732 307.1047,345.9677 308.2028,345.9909 309.778,345.3399 310.1741,345.2607 311.8088,345.4665 312.5205,345.5156 313.146,345.4671 313.8134,345.1353 314.5105,344.5301 314.9157,344.3595 315.6391,343.8998 316.4851,343.6883 317.1098,343.3969 318.0227,343.3701 318.275,343.3003 318.594,343.0976 319.4094,342.1801 319.6368,342.0239 320.3368,341.8297 321.4271,341.2692 321.7299,341.2359 322.6602,341.3611 323.438,341.3091 324.8165,341.1696 325.5592,340.96 325.9579,340.9274 326.2885,340.9679 327.0314,341.2744 328.3935,341.2071 329.3962,341.3104 329.7805,341.4932 330.2731,341.4996 330.6266,341.685 331.2264,341.7945 332.1362,342.7721 332.3038,343.0858 332.5213,343.8861 332.7203,344.1481 333.3727,344.5502 334.2504,345.4269 335.8886,345.7451 336.3674,346.0019 337.4699,346.2552 338.143,346.7189 338.6429,346.7414 339.0474,346.9733 339.2519,347.0047 339.7001,346.916 340.5596,347.0629 341.6022,346.9849 341.8712,347.0477 342.1328,347.2485 343.1214,347.4378 343.4848,347.6625 344.4627,347.7463 344.8254,347.9531 345.1345,347.9546 345.3971,348.0698 347.3538,348.1259 347.915,348.0062 348.5258,347.9876 349.0215,347.7439 349.7356,347.7258 350.1666,347.5348 351.3954,347.576 352.1364,347.3001 352.8866,347.1764 353.3263,347.0179 353.7498,346.694 354.7529,346.2319 356.0729,345.0493 356.3676,344.2501 356.7093,343.7234 357.069,343.4086 358.453,342.6007 359.0442,342.4815 359.4013,342.3194 360.2959,341.6974 361.0297,341.4294 363.1109,339.9133 363.4305,339.7968 364.2381,339.7397 364.4715,339.6542 364.8707,339.3513 365.238,338.8417 366.6803,337.3941 367.5819,336.7197 368.4102,336.3738 368.6883,335.797 368.8625,335.6885 369.6223,335.6898 370.1728,335.1601 370.6436,335.0534 371.007,334.684 371.3207,334.5631 372.3547,334.3038 373.0734,334.0348 373.7683,334.0398 373.6363,334.2053 373.6452,334.6161 373.7334,334.8778 374.5972,336.0614 374.7684,336.9074 375.3021,337.7578 375.3576,338.0798 375.8824,339.2855 376.097,340.0889 376.6025,341.1831 376.8498,342.366 377.3098,343.1822 377.7427,344.6891 377.6194,346.0938 378.0855,347.9919 378.602,348.716 379.2156,349.274 380.6021,350.8349 381.6109,352.2362 381.7935,352.7424 381.7801,353.3104 381.6882,353.8319 381.4236,354.4978 381.0765,354.8581 380.4758,355.033 379.9444,354.993 377.6009,354.6287 376.2901,354.5772 373.6912,353.6513 368.8993,353.1578 367.8175,353.1267 366.763,353.3103 365.6239,353.7015 364.6012,353.6902 364.1893,353.8152 359.076,356.0592 357.7043,356.7134 356.1564,357.5992 355.7212,358.0542 355.5311,358.8212 355.6882,359.9355 356.3858,360.9768 358.1053,362.6864 359.1004,363.2452 360.1938,363.5796 361.768,364.2243 363.0058,364.9393 364.0426,365.9124 365.075,366.7276 365.8637,367.0012 366.44,366.9946 368.1291,366.3601 369.4843,366.1478 370.8461,366.221 371.8749,366.6532 372.6634,367.1199 373.5241,367.7764 374.355,368.6574 375.2668,370.7689 376.1678,371.8071 379.1392,374.4324 379.2471,374.7504 379.0826,375.1366 378.2905,376.3953 377.1545,377.5308 375.24,378.7941 369.8497,381.399 368.6394,382.3135 366.5336,384.3569 365.8663,385.1553 351.8017,401.9796 351.7785,402.0074 351.7369,402.0572 345.9691,408.9554 345.7517,409.2154 343.8149,409.4647 343.2115,409.6886 342.3298,410.3079 341.1677,410.636 340.3474,410.9636 338.9993,411.0891 338.028,411.4139 337.4925,411.5141 336.8162,411.5286 335.9372,411.8473 334.8144,412.0689 332.3922,412.844 331.4323,413.0509 330.3897,413.079 324.8877,412.3781 323.8388,412.3021 322.9361,411.7494 321.743,411.5427 320.5843,411.4959 318.9321,411.0722 318.6496,411.0745 317.955,411.3761 317.8569,411.7818 315.9481,412.3802 315.0343,413.0409 314.9466,413.2556 314.9645,413.8872 314.7654,414.2013 314.5106,414.9836 313.6082,415.9912 313.4661,416.2894 313.3242,417.1046 312.4208,418.6837 312.4501,418.8875 313.1117,419.7892 313.1203,420.1518 312.8656,421.3592 313.1565,422.266 312.8055,423.1504 312.7441,424.0229 312.4771,424.4825 311.8559,425.1881 311.7417,425.4534 311.7337,426.6364 311.6288,427.7494 311.5006,428.086 311.4331,428.6629 310.9836,429.457 311.1074,430.9736 310.8085,431.6709 309.9557,432.8458 309.396,433.3049 308.9103,433.9344 307.3332,434.2953 306.7984,434.7263 305.7084,435.2947 304.844,436.2083 304.2149,436.4392 303.0335,437.125 302.6065,437.2761 302.1696,437.2966 301.7756,437.2169 301.4054,437.0624 300.9791,436.7198 300.4473,436.5021 300.2854,436.5183 299.9553,436.92 299.65,437.5607 299.4254,438.2836 298.7976,438.994 298.2445,440.2517 297.894,440.7312 297.3564,441.0447 297.1225,441.3451 296.6667,443.8174 296.3141,444.2183 295.8547,444.4638 293.8945,445.1712 292.7149,445.4201 291.2317,445.9568 289.9432,446.2147 289.2987,446.4803 287.4075,446.9642 287.0445,446.8204 286.7125,446.5283 286.233,445.6361 285.4906,443.3782 285.11,442.5194 284.7456,441.9177 282.8848,439.5586 282.5967,438.9202 282.5284,438.4108 282.6379,437.8614 284.8785,433.7299 285.2019,432.9259 285.7291,429.5925 285.7208,429.1474 285.1836,426.6445 285.215,426.1895 285.7111,425.3892 287.4609,423.0958 287.5883,422.8261 287.6055,422.5507 287.4699,422.3122 287.2992,422.1838 287.0395,422.1261 286.6866,422.1458" stroke="black" /><polygon fill="none" points="349.7579,310.3609 353.8719,312.0161 355.0897,312.8378 355.8499,313.4721 356.7253,313.8458 358.4647,314.0305 358.9634,313.9805 360.4381,313.5309 361.6774,313.3514 362.9234,313.3733 363.2805,313.3008 364.772,312.7641 366.5367,312.3181 367.1787,312.226 369.2003,312.2082 370.402,312.2689 372.8647,312.7495 374.6449,313.2176 375.6764,313.3594 376.725,313.622 377.8164,314.2243 378.3174,314.1695 379.2615,314.4644 379.6294,314.4795 382.6563,313.9112 383.9269,313.2626 384.9203,313.1463 386.8506,312.3886 387.5089,312.3325 388.5273,311.9958 389.3595,311.8895 391.872,310.9808 392.5897,310.9749 393.1349,310.6788 393.8886,310.5471 394.6432,310.1943 395.421,310.0812 396.4579,309.7315 397.4387,309.1523 397.8473,309.0336 399.3147,308.8089 400.1298,308.8892 401.3229,308.8339 401.8156,309.0651 402.5848,309.8872 403.7528,310.9219 405.3042,312.6639 405.5184,313.3247 405.554,314.1067 405.0032,315.4127 404.6399,315.7588 404.5132,316.0393 403.8698,315.4613 403.3646,314.7939 402.9694,314.6288 402.3882,314.7003 402.1592,314.8122 401.2838,315.7966 400.2846,316.0222 400.0451,316.1648 398.9615,317.0642 398.5598,317.6062 398.3061,317.8108 397.9426,317.8689 397.7817,317.7777 397.4106,317.284 396.5694,317.2404 396.2588,317.5286 395.9893,317.6474 395.4517,317.4621 395.17,317.7867 393.4606,318.2414 393.1199,318.5929 392.7627,318.6835 392.5083,318.8928 391.7452,319.0661 391.3605,319.5514 390.6657,319.9863 390.2128,320.147 390.0446,320.323 389.4047,321.4817 388.5653,322.1223 388.3093,322.8175 388.0504,323.1507 387.9221,323.545 387.5175,323.9446 387.1567,324.6012 386.6377,325.0591 386.4119,325.3655 386.239,325.4624 385.516,325.5954 385.2821,325.7752 385.0901,326.3359 384.6574,326.611 384.5187,327.1046 384.2424,327.4189 384.0907,327.7681 383.5024,328.2672 381.9579,329.097 380.7703,329.215 380.3892,329.3592 379.8212,329.8896 378.8529,331.0871 376.1462,332.4233 375.7041,332.7144 375.1645,333.2484 374.3463,333.8805 374.079,334.0396 373.7683,334.0398 373.0734,334.0348 372.3547,334.3038 371.3207,334.5631 371.007,334.684 370.6436,335.0534 370.1728,335.1601 369.6223,335.6898 368.8625,335.6885 368.6883,335.797 368.4102,336.3738 367.5819,336.7197 366.6803,337.3941 365.238,338.8417 364.8707,339.3513 364.4715,339.6542 364.2381,339.7397 363.4305,339.7968 363.1109,339.9133 361.0297,341.4294 360.2959,341.6974 359.4013,342.3194 359.0442,342.4815 358.453,342.6007 357.069,343.4086 356.7093,343.7234 356.3676,344.2501 356.0729,345.0493 354.7529,346.2319 353.7498,346.694 353.3263,347.0179 352.8866,347.1764 352.1364,347.3001 351.3954,347.576 350.1666,347.5348 349.7356,347.7258 349.0215,347.7439 348.5258,347.9876 347.915,348.0062 347.3538,348.1259 345.3971,348.0698 345.1345,347.9546 344.8254,347.9531 344.4627,347.7463 343.4848,347.6625 343.1214,347.4378 342.1328,347.2485 341.8712,347.0477 341.6022,346.9849 340.5596,347.0629 339.7001,346.916 339.2519,347.0047 339.0474,346.9733 338.6429,346.7414 338.143,346.7189 337.4699,346.2552 336.3674,346.0019 335.8886,345.7451 334.2504,345.4269 333.3727,344.5502 332.7203,344.1481 332.5213,343.8861 332.3038,343.0858 332.1362,342.7721 331.2264,341.7945 330.6266,341.685 330.2731,341.4996 329.7805,341.4932 329.3962,341.3104 328.3935,341.2071 327.0314,341.2744 326.2885,340.9679 325.9579,340.9274 325.5592,340.96 324.8165,341.1696 323.438,341.3091 322.6602,341.3611 321.7299,341.2359 321.4271,341.2692 320.3368,341.8297 319.6368,342.0239 319.4094,342.1801 318.594,343.0976 318.275,343.3003 318.0227,343.3701 317.1098,343.3969 316.4851,343.6883 315.6391,343.8998 314.9157,344.3595 314.5105,344.5301 313.8134,345.1353 313.146,345.4671 312.5205,345.5156 311.8088,345.4665 310.1741,345.2607 309.778,345.3399 308.2028,345.9909 307.1047,345.9677 306.8021,345.8732 305.1055,344.7273 304.3692,344.039 303.4762,343.6173 303.0413,343.1932 302.4309,342.8651 301.7457,342.0754 301.0342,341.6501 300.8293,341.4489 300.2337,340.4476 299.7706,340.0469 299.2629,339.3908 298.7022,339.1436 297.797,337.9912 297.1297,336.6737 296.0051,335.4 295.6631,334.3164 295.0134,333.6921 294.7479,332.1326 294.6846,330.8412 294.6086,329.2905 294.642,328.5601 294.6554,328.2658 294.5638,327.9543 293.768,327.6773 292.2014,326.2513 291.228,325.5682 290.204,325.0667 289.0376,324.6133 288.4781,324.1044 288.0672,324.0757 287.802,324.1794 287.6473,324.3658 287.3427,325.2221 286.8414,326.0996 285.9631,326.966 284.8149,328.3893 284.4534,329.2568 284.4004,329.3839 283.7306,330.727 283.3169,331.161 282.5796,329.9913 282.1141,328.9654 281.8818,328.4528 281.6858,327.6151 281.5395,326.4439 281.5372,326.4257 281.4474,325.7066 281.1099,324.2008 281.1394,323.1339 281.506,322.1931 281.6094,321.5691 281.6841,318.5339 281.9378,317.4262 282.406,315.9946 283.1644,314.257 284.3656,311.9505 284.6907,310.6591 284.844,309.5827 285.0794,309.083 285.9402,308.7357 288.4988,308.0647 289.1219,307.5959 289.8876,306.2598 290.0671,306.0709 290.6895,305.719 291.3403,305.057 292.0591,304.61 292.5495,304.1362 292.8531,303.9917 293.4806,303.9354 293.8138,303.8257 294.7007,303.3304 295.4739,303.1394 296.3349,302.7314 296.8923,302.3574 297.5548,302.1232 298.0276,301.7146 298.7627,300.6769 299.4897,299.9812 299.7286,299.6207 300.3946,299.0345 302.3006,297.7523 302.7645,297.3494 305.0153,295.7795 305.4237,296.6834 305.5438,297.2237 305.4692,298.1029 305.5103,299.4532 305.6243,300.253 306.1027,301.9395 306.1532,303.27 306.2397,303.6246 307.2479,306.0474 307.552,306.4525 307.8273,306.5338 310.8021,306.4179 311.5446,306.2045 312.392,306.0833 314.2878,306.0891 319.3453,306.39 320.4558,306.3537 321.3781,306.0712 322.0554,306.0116 322.8039,305.8049 325.4586,304.0798 326.9442,303.4534 327.8123,303.2381 328.8554,302.8698 330.572,301.9197 331.871,301.4232 333.5392,300.9581 336.3476,300.6728 338.641,301.1137 340.0036,301.2044 341.7066,301.4879 343.1142,301.514 343.6114,301.6697 345.0178,302.8583 345.6215,303.1218 345.8688,303.3877 346.3735,304.4486 347.3645,305.5994 347.7324,306.1674 347.924,307.0774 348.0123,308.7811 348.2681,309.5357 349.0797,310.1225 349.7186,310.3451 349.7579,310.3609" stroke="black" /><polygon fill="none" points="434.1592,35.1197 434.9058,36.7578 436.2936,38.3193 437.0284,38.9146 437.8411,39.3743 439.2108,39.9236 440.867,40.7733 442.3814,41.433 443.1233,41.6451 444.0219,41.6923 444.9962,41.5651 445.6767,41.3813 446.4881,40.8585 450.5457,37.4465 451.2103,36.9761 451.9712,36.7663 452.6703,36.68 453.5216,36.7529 454.2386,36.9642 455.3708,37.6054 456.3599,38.3097 457.0296,38.8954 457.5959,39.6067 458.2484,40.9675 460.3134,47.7327 461.4152,49.235 463.5037,52.336 464.4317,54.1196 464.8144,56.3619 465.4907,59.3729 466.1234,62.8555 467.5954,66.5234 468.3562,67.8175 468.7409,68.6663 468.9376,69.3783 469.0165,70.0965 467.9979,73.5711 467.6413,74.2727 466.9859,75.0956 466.555,75.9857 465.9784,76.9141 463.7044,79.6484 463.0719,81.0745 462.3302,82.3417 461.6097,83.1169 460.7675,83.8635 459.7902,84.5998 457.9252,85.7572 457.5541,86.2109 457.0381,87.1171 457.1583,90.0206 457.4814,92.4183 458.0287,94.3275 458.4834,95.2885 458.8487,95.7753 458.083,96.5442 457.6087,97.4342 457.3386,97.9422 457.3089,99.1949 457.141,100.0942 456.9563,100.3533 456.6325,101.1324 456.1475,101.72 455.6929,102.449 455.183,103.4959 455.0605,104.6053 454.9738,104.795 453.9743,105.8038 452.2674,106.6469 450.4603,107.3672 449.7796,107.5954 447.8679,108.0172 445.4564,108.679 442.9951,109.6055 440.9692,109.7351 439.1512,110.5235 438.0943,110.6131 436.9253,110.817 436.6141,110.7705 424.7698,118.7701 424.6988,118.7698 424.6532,118.7696 424.6188,118.7695 424.5202,118.769 382.5049,118.5324 369.4629,107.2234 368.2091,108.3194 366.282,109.471 364.8533,110.7868 363.6905,112.2294 362.2617,113.2306 361.9937,113.6022 361.7046,114.2579 361.2703,114.5866 360.8688,114.7695 360.4597,115.1729 360.1652,115.6606 359.1834,116.2953 358.7889,117.0448 358.587,117.2079 357.8925,117.4712 357.1765,118.1431 355.9647,118.8321 355.5882,119.4205 355.0641,119.9959 354.7855,120.1739 354.0027,120.3926 353.69,120.5702 353.1637,121.7794 352.2397,122.5609 351.8942,123.2433 351.5737,123.5497 351.3427,124.0002 351.0062,124.346 350.8831,125.1488 350.0901,126.2998 348.6097,127.1936 347.2765,127.3742 346.663,127.9852 345.8412,128.0502 345.2876,128.2388 344.577,128.3196 343.8878,128.17 343.4034,128.2045 343.1456,128.3165 342.5446,128.7752 341.6403,129.0133 341.138,129.4844 340.3488,129.5545 340.0849,129.6612 339.8421,129.8864 339.6024,130.3068 338.9454,130.7106 338.4162,131.2876 337.7735,131.7414 337.4642,132.3721 337.3689,133.1646 336.9328,133.2225 334.4165,134.449 331.5918,135.4987 325.5336,137.3013 325.2243,135.9605 325.1988,135.2255 325.2918,134.6152 326.1606,131.7108 326.4037,130.0788 326.5663,126.5005 326.6681,126.2162 326.9484,125.8598 323.8528,125.2963 321.8449,124.6826 321.1442,124.2234 320.5596,123.4833 320.0631,122.6289 319.6434,121.0643 319.3615,120.6359 319.0799,120.3756 318.5697,119.4431 318.2571,118.6809 317.8799,118.1068 317.5536,117.222 316.8601,114.4999 316.2497,113.3962 315.4474,112.6156 314.5998,112.0466 313.0587,110.5347 312.2685,109.5161 312.2232,109.4577 311.7524,109.0728 311.4938,108.9838 310.5987,108.9287 309.6277,108.6207 308.99,108.5557 308.3416,108.5852 307.8178,108.3857 307.6697,108.09 307.5838,106.8649 307.4944,106.628 307.0693,106.1496 306.7691,105.654 306.1325,103.8137 305.5645,102.7514 305.1243,101.6818 304.4908,100.7127 303.9108,99.2349 303.4761,98.7413 302.5227,98.0285 301.2683,96.5913 300.8186,96.2352 300.1943,95.8979 298.4971,95.2387 298.0462,94.9629 297.6503,93.8498 297.6255,92.9053 297.3136,92.4272 296.8354,91.2708 296.3165,90.6802 295.7218,90.5164 295.463,90.2842 295.0222,89.5797 294.6087,89.2543 294.3594,88.6465 294.4982,87.7614 294.1528,86.8911 294.1166,86.5411 294.2241,86.0494 293.8406,84.2531 293.7306,84.0191 293.0935,83.539 292.7992,82.1127 292.5412,81.5144 292.6008,80.8289 292.4346,80.1514 292.4343,79.7566 292.9173,79.5534 293.1975,79.2804 293.768,78.9903 294.4542,78.434 294.5141,78.2289 294.3086,77.91 294.3069,77.5465 293.8473,77.3674 293.7902,77.2392 293.8868,76.519 293.6916,76.1157 292.9135,75.574 292.0706,75.2375 291.6036,74.9473 291.5652,74.7609 291.8117,74.0475 291.7185,73.6153 290.3737,71.4909 289.6128,70.7141 289.5336,70.3009 289.7051,70.0571 290.5961,69.5535 291.1555,69.368 291.9989,69.2903 293.3162,69.4176 293.8901,69.3329 294.5794,69.0654 294.6765,68.7205 294.6008,68.2449 294.233,67.2601 294.3602,66.4657 294.3581,65.6832 294.399,65.4849 294.5906,65.2451 294.7848,65.2583 295.0653,65.4946 295.1749,65.4934 295.5409,65.2262 296.0985,65.5391 297.1134,65.5578 297.2395,65.6651 297.5568,66.3151 297.7067,66.4341 298.0964,66.5866 298.7926,66.5751 298.971,66.7025 299.2055,67.1808 299.7177,67.4095 300.3855,67.212 300.659,67.2133 300.956,67.3322 301.4606,67.3323 301.768,66.7835 301.8971,66.6781 302.8905,66.4273 303.7202,65.8874 305.1421,65.3307 305.3465,65.3062 305.7757,65.4489 306.1697,65.3793 306.6571,64.4144 306.6854,63.7603 306.7866,63.6402 307.1701,63.49 307.2391,63.3546 307.1941,62.9901 307.3213,62.8755 308.048,62.655 308.6382,61.9321 309.492,59.9432 310.055,59.633 310.8545,59.3588 311.1912,58.7024 311.5755,58.2135 311.6564,57.9711 311.5953,57.5534 311.1885,57.1617 309.8497,56.3111 309.5828,56.2177 308.9513,56.2716 308.5328,56.3949 307.7144,56.9266 307.3438,57.3147 306.8252,57.6109 306.3741,57.5741 306.2881,57.4959 306.1876,57.0678 306.2396,56.0633 306.4469,55.1199 306.2833,54.5599 306.4141,53.8884 306.3271,53.4661 306.1699,53.2594 305.449,52.8458 304.6184,52.8415 304.2159,52.9931 303.6581,53.5818 302.8969,54.0611 302.4898,54.2268 301.8682,54.2305 301.4997,53.952 300.9641,53.2646 300.4015,52.9292 300.1356,52.659 299.6721,51.8736 298.7627,51.3049 298.319,50.6083 297.7897,50.0453 297.479,49.5289 297.576,49.2058 297.8776,49.1322 299.0894,49.8118 299.353,49.9046 299.7581,49.9125 300.5282,49.6284 301.5418,49.4798 302.2581,49.5423 302.5999,49.4815 303.5134,49.0962 304.0784,49.0227 305.9392,49.1059 306.4208,49.0686 307.0882,48.8866 307.8946,48.349 308.2454,48.2801 309.5578,48.5282 311.1934,48.0043 312.4113,47.8964 312.6485,47.6995 312.8544,47.1284 313.1103,45.4749 313.2406,45.3345 313.4444,45.2718 315.4638,45.8956 315.687,46.02 316.2247,46.6948 316.6439,46.7941 318.2783,45.5134 319.1609,44.2928 319.687,44.2236 321.1443,44.3423 322.0204,44.1871 322.4386,43.9882 323.0845,43.3133 323.401,42.9833 323.4189,42.9646 324.0154,42.3426 324.033,42.0291 323.7137,41.2141 323.8292,40.5828 324.0851,40.3074 325.2551,40.3684 325.9709,40.8942 326.2445,41.0107 326.7034,40.9903 327.4089,40.7152 328.0845,40.5555 328.4607,40.3658 328.6476,40.1815 328.7832,39.3985 328.9711,39.2632 329.5047,39.1501 329.7749,38.4998 331.2798,37.7479 331.735,37.2691 331.9596,37.1599 332.5639,37.1636 332.8633,36.9211 332.986,36.1697 333.1809,36.0676 333.7949,35.9496 334.0991,35.6789 334.3608,35.7218 334.7704,36.1461 335.1856,36.1131 335.3864,35.9252 335.4453,35.6975 335.0805,34.909 335.0834,34.7173 335.3485,34.6068 335.9197,34.6778 336.1646,34.5149 336.0936,33.7838 336.1768,33.651 336.5054,33.5921 336.5614,33.5101 336.4717,32.8364 336.5262,32.7155 336.6931,32.6213 337.7783,32.6593 338.2722,32.3054 338.563,31.7875 338.7852,31.5911 339.0585,31.9715 339.2489,32.0409 339.5655,31.9707 340.0711,32.3396 340.1978,32.3262 340.2931,32.2304 340.4458,31.5933 340.5711,31.4771 340.6809,31.4564 340.9467,31.6323 341.101,31.6024 341.2354,31.3481 341.356,31.3068 341.716,31.4002 342.2709,30.9649 342.8418,30.9634 342.9593,30.881 343.0928,30.5138 343.0466,30.2304 343.2363,29.4713 343.1478,29.2811 342.6417,28.8312 342.7705,28.5171 343.1537,28.4954 343.6293,28.6605 343.8025,28.4657 343.8892,27.8214 344.0282,27.739 344.7988,27.8331 345.0002,27.6599 345.2798,27.1767 346.6783,27.2379 347.0962,26.9666 347.1718,26.7399 347.0482,26.1849 347.0887,25.7056 346.9471,25.1815 346.977,24.9563 347.1415,24.7298 347.3159,24.658 347.8224,24.6703 349.5961,25.1024 351.385,25.1618 351.9896,25.1055 352.9931,24.8003 353.759,24.232 353.8467,23.9971 353.7437,23.3255 353.7947,23.0178 354.1612,22.9732 354.5866,22.7468 354.8874,22.723 355.6936,23.5353 355.997,23.6032 356.2848,23.5658 356.4725,23.4499 356.6866,23.0615 356.7161,22.3987 356.9806,20.6555 357.0822,20.4358 357.2419,20.3068 357.6997,20.281 358.315,20.5365 358.5959,20.5585 359.164,20.417 359.7051,20.4414 359.9202,20.573 360.3806,21.1341 360.799,21.2341 360.915,21.1338 360.8145,20.5765 360.8554,20.154 360.7008,19.7044 360.8078,18.9605 361.1786,18.2485 362.074,17.4976 362.5663,17.4847 362.8532,17.7789 363.3552,18.7451 363.5188,18.8776 364.0199,18.8542 364.9674,18.1195 365.7989,17.6626 366.0388,17.4088 366.1844,17.1448 366.3216,16.3415 366.4647,15.9655 366.8701,15.4018 367.3609,15.3033 367.8568,15.4763 368.5908,14.9463 368.8398,14.9148 369.1123,15.071 369.5392,15.6674 369.7006,15.7182 369.9051,15.6749 369.9605,15.1967 370.1442,14.7959 370.8493,14.3813 370.7313,14.0706 370.2547,13.6105 370.2183,13.4132 370.3062,13.2063 370.5579,13.1382 370.6546,13.0338 370.7145,12.8559 370.6641,11.9023 370.546,11.5192 370.2345,11.0965 369.6771,10.6538 369.5359,10.2084 369.8402,9.5406 370.0641,9.3503 370.5121,9.2174 372.0521,9.2909 372.6142,9.2344 373.3002,9.0018 373.8764,8.5618 374.2174,7.9675 374.4876,7.7687 374.665,7.7801 374.7655,7.8904 374.7852,8.2876 374.8698,8.418 375.1067,8.4632 375.4698,8.1516 375.7972,7.1654 375.9713,7.0896 376.1318,7.2938 376.2512,7.2642 376.4924,7.0018 376.6462,6.9601 376.7756,6.998 376.8452,7.1498 376.7269,8.0584 376.8296,8.2496 377.0401,8.3463 377.1748,8.303 377.3251,8.1221 377.5971,8.0393 377.7837,8.2083 377.8524,8.5588 378.0508,8.5756 378.4258,8.2714 378.9951,8.2295 379.217,8.0945 380.0607,7.1856 380.8422,6.6182 381.1579,6.5269 382.5733,6.5336 382.9791,6.3872 383.8108,5.7582 384.0227,5.7154 384.6829,5.8604 385.1688,5.72 385.3167,5.5189 385.4808,4.7942 385.8916,4.4904 385.9852,4.1027 386.2887,3.8865 386.4372,3.4776 386.7627,3.0699 386.7209,2.8634 386.519,2.5951 386.421,2.1266 386.0313,1.9276 385.9353,1.6691 386.1585,1.169 386.2144,0.7304 387.0048,0.0 388.5626,2.4037 392.2405,7.1793 394.0183,10.7325 394.555,11.9777 395.3015,14.7893 396.2999,17.5818 397.85,20.4807 399.3495,22.6229 401.3899,24.8275 402.3915,25.6751 402.8417,25.8923 404.2585,26.1307 405.393,26.1128 406.2216,26.0007 406.826,25.8298 407.8304,24.7333 408.3921,24.4641 408.4595,24.454 409.4061,24.3109 413.0863,24.0293 415.2154,23.6501 416.461,23.1583 418.5446,21.9904 419.2781,21.6937 420.2633,21.504 422.1593,21.3379 423.0035,21.3116 423.7564,21.3996 425.0871,21.7597 426.4562,22.3217 428.1374,23.4253 428.7013,24.0123 429.1629,24.7499 429.8876,26.4074 430.4195,27.4034 432.6614,31.013 433.6659,33.8507 434.1592,35.1197" stroke="black" /><polygon fill="none" points="424.6532,118.7696 424.6988,118.7698 424.7698,118.7701 436.6141,110.7705 436.9253,110.817 438.0943,110.6131 439.1512,110.5235 440.9692,109.7351 442.9951,109.6055 445.4564,108.679 447.8679,108.0172 449.7796,107.5954 450.4603,107.3672 452.2674,106.6469 453.9743,105.8038 454.9738,104.795 455.0605,104.6053 455.183,103.4959 455.6929,102.449 456.1475,101.72 456.6325,101.1324 456.9563,100.3533 457.141,100.0942 457.3089,99.1949 457.3386,97.9422 457.6087,97.4342 458.083,96.5442 458.8487,95.7753 459.3066,96.3804 460.2482,97.3726 461.3453,98.2351 462.4982,98.7696 464.2373,99.4121 467.6341,100.5013 469.2061,100.9026 471.6005,101.2374 472.3555,101.4114 474.0674,102.0796 475.6457,102.8192 476.2498,103.2435 477.3906,104.3309 477.7154,104.7582 478.0441,105.4377 478.5474,107.6852 478.5417,108.8009 478.4691,109.862 477.9929,113.3979 477.4675,115.6682 477.0481,116.5331 475.4745,118.6214 473.555,120.3422 472.8794,121.0109 472.3497,121.6654 471.2659,123.3628 469.6266,125.3902 468.8474,126.8322 468.635,127.4792 468.5928,128.0504 469.0005,130.9761 469.3118,131.9636 469.9504,133.0702 470.6543,133.9675 471.6834,134.8235 475.4452,137.0109 477.5121,138.5965 478.2229,139.0211 478.9111,139.2463 481.0806,139.509 481.706,139.7472 482.333,140.1107 488.1727,145.1088 489.2303,146.2019 491.6732,148.4059 493.074,149.9217 495.0337,151.3238 496.3761,152.5302 498.491,154.1364 500.0,155.5831 499.0386,156.9326 499.038,157.5654 498.5888,158.8642 497.4173,160.3748 496.4528,161.1709 496.1361,161.5871 495.8579,162.1632 494.9899,163.4122 493.7778,165.7314 492.1834,168.1483 490.6174,170.0474 489.3555,170.9431 488.8901,171.3689 488.1314,172.2157 487.4998,172.7134 486.424,173.9911 485.5841,174.695 485.1301,174.9641 483.7185,175.365 482.9066,175.7371 481.1124,177.1169 466.6325,192.7801 463.5747,196.0961 459.5278,200.4848 456.5431,203.7214 455.8726,203.9447 454.3378,203.9619 453.7662,204.227 451.1092,206.8498 449.9027,208.2065 448.4843,209.5089 447.7974,210.0223 446.9328,210.4186 445.4077,210.6712 443.9216,210.6579 443.5785,210.7394 443.031,211.1337 442.8252,211.4776 442.8191,212.2548 442.6152,213.1731 441.894,214.5718 441.838,214.6805 441.3094,215.2898 439.7259,216.171 438.6628,217.0605 437.576,217.7849 437.2733,218.2738 436.6141,219.757 436.0407,220.5889 435.2462,221.4063 434.1747,222.1855 433.1733,222.6627 432.2386,222.9912 431.4704,223.1033 430.7176,223.1136 429.1664,222.7068 427.1634,222.5432 423.5828,222.6563 418.357,222.8209 407.0698,221.7442 406.2575,221.856 405.2396,222.1443 400.383,223.9683 398.1769,224.1777 396.1314,224.0135 395.2269,223.7336 394.3368,223.6151 393.7571,223.625 386.5316,224.4651 385.7591,224.4182 361.98,219.3384 361.2304,219.2782 361.0364,219.0331 360.3959,218.8658 360.1641,218.4553 359.3471,218.3086 358.8902,217.9974 357.9095,217.7252 357.3734,217.3893 356.68,217.3195 356.4394,217.2075 356.2456,216.9655 355.7823,216.7526 355.2477,216.2999 355.1275,216.0025 355.1269,214.3645 355.0125,214.0451 354.5557,213.3127 354.4706,212.4202 354.0495,211.0653 354.013,210.3121 353.5874,209.0157 353.4976,208.2627 353.3653,207.8622 352.245,206.2359 352.0174,205.4921 352.1876,204.3249 352.508,203.4144 352.5485,201.4931 352.691,200.9644 352.7194,192.4056 352.7411,191.7518 352.7425,191.7089 352.7435,191.6794 352.864,188.0385 353.0008,187.1364 352.6375,185.2525 352.5897,184.597 352.6889,183.6228 352.9034,182.5943 352.8897,182.1393 352.6521,181.0369 352.0842,180.1352 351.1815,179.0904 350.3152,177.5258 350.0269,176.1105 349.7218,175.0928 349.654,174.2806 349.1923,172.9885 349.1598,172.2071 348.5507,172.6522 347.908,173.3996 347.0656,173.878 345.6842,174.4721 344.0144,175.0102 342.2021,175.8535 342.0676,175.794 341.6517,175.4837 341.0155,174.2643 339.423,172.074 338.5077,170.9547 337.1875,169.8635 336.602,169.1546 335.8957,167.9927 335.2599,167.2286 334.1428,166.2965 333.3824,165.5131 332.3944,164.9194 330.8007,164.1647 330.2686,163.5024 330.148,162.832 330.4065,161.9524 331.0748,160.9091 332.4761,159.4176 335.6382,156.5341 336.1704,155.7234 336.3368,155.0764 336.339,154.2409 335.94,152.9724 334.5792,150.6491 333.0538,147.7215 332.086,145.7412 331.1096,143.3041 330.6995,142.6526 329.0408,140.7235 328.6449,140.3751 328.2489,140.0268 328.1995,139.9938 326.7512,139.026 326.3083,138.567 325.5336,137.3013 331.5918,135.4987 334.4165,134.449 336.9328,133.2225 337.3689,133.1646 337.4642,132.3721 337.7735,131.7414 338.4162,131.2876 338.9454,130.7106 339.6024,130.3068 339.8421,129.8864 340.0849,129.6612 340.3488,129.5545 341.138,129.4844 341.6403,129.0133 342.5446,128.7752 343.1456,128.3165 343.4034,128.2045 343.8878,128.17 344.577,128.3196 345.2876,128.2388 345.8412,128.0502 346.663,127.9852 347.2765,127.3742 348.6097,127.1936 350.0901,126.2998 350.8831,125.1488 351.0062,124.346 351.3427,124.0002 351.5737,123.5497 351.8942,123.2433 352.2397,122.5609 353.1637,121.7794 353.69,120.5702 354.0027,120.3926 354.7855,120.1739 355.0641,119.9959 355.5882,119.4205 355.9647,118.8321 357.1765,118.1431 357.8925,117.4712 358.587,117.2079 358.7889,117.0448 359.1834,116.2953 360.1652,115.6606 360.4597,115.1729 360.8688,114.7695 361.2703,114.5866 361.7046,114.2579 361.9937,113.6022 362.2617,113.2306 363.6905,112.2294 364.8533,110.7868 366.282,109.471 368.2091,108.3194 369.4629,107.2234 382.5049,118.5324 424.5202,118.769 424.6188,118.7695 424.6532,118.7696" stroke="black" /><polygon fill="none" points="145.7671,436.4222 145.2362,436.3014 143.7132,435.1107 142.3222,434.2483 140.4165,433.5837 138.2015,433.3073 137.3727,433.3702 136.6392,433.5336 136.2878,433.706 135.2579,434.9613 134.7525,435.348 131.3958,436.8538 130.1575,437.8821 128.9072,439.5704 127.1939,442.4221 126.911,442.6686 126.6121,442.7489 126.0855,442.7645 124.6559,442.8069 123.018,442.7013 121.712,442.8734 120.5179,443.2359 118.0245,444.3964 116.7812,445.22 116.2438,445.7136 115.9053,445.9229 115.2,446.0612 114.5995,446.031 113.9965,445.7962 113.5824,445.4564 112.2646,444.054 111.3149,443.8908 110.3537,443.5457 109.3103,443.0475 107.6411,441.8173 106.4832,441.9613 102.5939,441.2612 102.0631,441.2935 99.6447,441.8509 98.3361,442.3687 97.8597,442.4514 97.4632,442.393 97.2596,442.4345 96.8844,442.8489 95.2318,445.3028 93.5562,446.7675 93.0422,447.0812 92.5948,447.2284 92.2411,447.2457 91.3898,446.848 91.057,446.5204 90.5064,445.3507 90.2183,444.9182 89.6219,444.2616 89.1948,443.9993 88.745,443.9402 88.199,444.0126 86.1927,445.3957 84.8761,445.7859 84.2628,445.9095 82.7067,445.8282 80.9204,446.0485 80.1873,446.2498 78.6982,446.9235 77.5397,447.0018 76.6248,446.9253 75.583,446.6533 73.5913,445.7716 72.8889,445.3388 72.265,444.8426 70.6149,443.1823 70.1974,442.9056 68.074,442.2663 68.2069,441.9814 68.0529,441.7051 67.9848,441.1725 68.3403,440.929 68.3189,440.5128 68.0527,440.4041 67.9998,440.2083 67.7582,440.0759 66.8163,439.1855 66.9164,438.88 66.5742,438.6928 66.5558,438.4731 65.6068,438.0928 65.6529,437.8489 65.1859,437.5305 65.181,437.3358 64.9091,437.1804 64.6878,437.2279 64.3534,437.5483 63.8914,437.5218 63.5956,437.7598 63.1974,437.4984 63.2299,437.3389 63.4998,437.0428 62.9488,436.9098 63.1396,436.6616 63.1186,436.4302 63.0496,436.003 62.5382,435.6823 62.8575,435.4293 62.3527,434.9782 61.7816,434.5799 61.5485,434.603 61.3189,434.4376 61.3927,433.8798 61.4742,433.6657 61.322,433.5017 60.8171,433.2815 60.9059,432.951 60.3259,432.4651 59.8927,431.8633 59.6734,431.7003 58.8016,431.4471 58.3456,431.1661 58.0859,431.1757 57.7556,431.429 57.6272,431.4268 57.7774,430.9547 57.6435,430.8442 57.5139,430.8553 57.2381,431.093 57.1885,431.2762 56.9914,431.2742 56.2873,430.4344 56.0316,430.1851 55.7119,430.1637 55.6547,429.8509 55.4459,429.2477 55.0628,428.9955 54.8231,428.4957 54.8533,428.3478 54.5119,428.0798 54.2062,427.9682 53.957,427.9856 53.6974,427.9727 53.3863,427.8622 53.1927,427.6004 53.0104,427.5912 52.842,427.184 52.805,426.8826 53.1634,426.6696 52.8231,426.2764 52.4218,425.6477 52.0994,425.4485 51.9161,424.8847 52.4203,424.5737 52.4581,424.306 51.7033,423.6896 51.4269,423.5622 51.5589,423.3873 51.5042,422.7469 51.559,422.4139 51.3433,422.342 51.3822,421.9484 51.1335,421.9985 51.0696,421.7326 51.2177,421.6277 51.412,421.2288 51.418,421.2213 52.0842,420.3775 52.0944,420.1745 52.1787,420.033 52.1439,419.7184 51.972,419.3494 51.9597,418.9846 51.3063,418.8904 50.9396,419.0513 50.4651,418.9111 50.6913,418.6959 50.1802,418.3347 50.042,417.9965 49.7664,418.2466 49.3666,417.9868 49.4954,417.7074 49.448,417.5296 49.1626,417.4779 49.1621,417.0131 49.6861,416.9062 49.1884,416.3388 49.1559,416.1677 49.4083,415.9241 50.0466,415.6877 50.2053,415.5156 49.8772,415.0489 50.0129,414.6789 49.8079,414.3214 50.0718,414.2882 50.3938,414.0311 50.4019,413.6894 50.5131,413.5647 50.5371,413.2867 50.3522,413.1566 50.8318,412.977 50.8458,412.6992 50.6867,412.408 50.4589,412.1927 50.4617,411.94 50.6439,411.9202 50.6759,411.6956 49.8948,411.4079 49.6121,410.9796 49.6063,410.5944 49.1955,409.614 49.2477,409.0034 49.3577,408.8023 49.4631,408.4046 49.2723,408.2185 49.2281,407.8291 49.5137,407.585 49.5826,407.7401 49.6964,407.7869 49.751,407.6614 49.6306,407.2855 49.4004,406.6974 49.2435,406.5529 49.3145,406.4068 49.2006,406.2461 49.2206,406.0322 49.9099,405.7601 50.2907,405.2121 50.7383,405.1219 51.2293,405.2556 51.6641,405.6335 52.4421,405.6137 53.1321,405.0616 54.216,404.8224 54.9282,404.4197 55.5652,404.3175 57.5071,403.4209 57.8946,403.3127 58.3042,403.3446 58.9506,403.4719 59.5524,403.7312 60.3347,403.6729 61.142,403.8788 61.4621,403.9973 62.6949,404.8077 62.9329,404.5831 63.4523,404.6228 63.8978,404.3922 65.5273,403.9489 66.4227,403.1319 66.4973,402.794 66.9566,402.17 67.0937,401.3539 67.6953,400.8965 68.2813,400.7201 68.645,400.3689 69.4106,400.1994 70.4501,400.3163 71.3417,399.9018 73.0756,399.7659 74.0971,399.3683 75.0173,399.5149 75.8033,399.3731 76.5332,399.4755 79.2042,397.9978 79.6856,397.5139 80.0558,397.4798 81.2229,396.9131 82.4872,395.4635 83.8029,394.0978 84.4962,393.7701 85.4296,392.8401 87.2034,392.0671 88.3848,391.6953 89.156,391.6494 90.3133,391.2477 91.3737,390.7933 92.2118,390.8005 93.1098,390.1705 93.7465,390.6952 94.8574,390.2775 95.8453,390.292 96.7616,390.1952 97.335,389.8598 99.7876,390.3969 101.7066,390.6232 102.808,391.345 103.1801,390.8675 103.494,390.117 104.4717,389.0551 107.9396,389.0895 108.8109,389.1704 111.4446,389.086 112.0196,388.923 113.078,387.998 114.8324,386.7535 115.2152,386.553 116.5937,386.4433 116.8505,386.4229 118.7212,386.4667 119.8123,386.335 121.0645,385.9101 123.2978,384.8934 124.889,383.8861 125.4076,383.7085 125.8708,383.6596 127.5175,383.9862 128.6974,384.0977 133.9359,383.7142 137.43,383.8982 140.5898,383.8005 141.6714,383.9143 144.0128,384.3698 144.8907,384.817 145.3918,385.1687 145.759,385.6906 146.2344,386.1856 147.5787,387.0612 148.7705,386.6425 150.04,386.5173 151.0357,386.6798 151.6153,386.7498 152.6307,386.8158 153.3993,386.6307 154.6363,386.6941 155.8349,386.1674 157.2357,386.2146 158.5779,386.1688 159.8522,386.3383 161.6884,386.7801 162.5948,387.1974 164.5087,387.1467 166.2337,388.1307 167.3041,388.8521 168.0348,389.4884 170.2166,390.9095 170.674,391.4315 171.0725,392.2809 171.1622,392.8668 171.4455,397.5311 171.6023,398.2667 172.3941,400.7141 173.2302,401.861 173.7172,402.1866 174.5832,403.2407 175.1839,403.7121 175.8186,404.6155 176.0859,405.272 176.2584,406.0235 176.5411,406.5307 176.6876,406.7091 176.8922,406.7197 175.9894,410.8915 175.9332,411.841 175.4719,413.1999 175.4852,414.0436 175.7969,415.138 175.8019,415.5724 175.5589,416.4726 175.5464,417.3172 175.2648,419.3065 175.271,419.7035 175.4858,420.315 175.4369,420.6864 174.5771,422.273 174.4618,422.7221 174.6521,425.1691 174.9379,426.0345 175.0434,426.6386 175.5346,427.4881 175.6213,427.8078 175.7529,429.2645 176.2717,432.9316 176.4453,434.1587 176.6308,435.4681 176.9417,436.1294 177.1061,439.4837 177.0585,439.8684 173.714,447.7629 172.8668,447.8733 172.5865,447.9835 172.253,448.4863 171.9973,448.6058 169.207,448.9784 168.2931,448.9531 167.8084,448.8089 166.8736,448.3232 166.4861,448.0093 165.7049,447.7133 165.2897,447.3473 164.8353,447.0729 162.0518,446.9459 160.803,446.5656 160.3664,446.4327 159.6082,445.9195 158.4462,444.8732 157.8429,444.2632 156.5051,442.5808 155.4944,441.5203 155.0627,440.9507 154.8134,440.447 154.2843,438.9452 153.4789,438.0737 152.1157,437.2214 151.2539,436.9529 149.2801,436.7547 148.3079,436.4756 146.7933,436.4326 146.0684,436.4907 145.8043,436.4306 145.7671,436.4222" stroke="black" /></svg>