<?xml version="1.0" encoding="utf-8" ?>
<svg baseProfile="tiny" height="191.0558" version="1.2" width="500" xmlns="http://www.w3.org/2000/svg" xmlns:ev="http://www.w3.org/2001/xml-events" xmlns:xlink="http://www.w3.org/1999/xlink"><defs /><polygon fill="none" points="234.0668,128.0828 234.2408,128.0878 235.0629,128.1363 235.9341,128.7291 236.6818,129.4134 237.0534,129.8841 237.1985,130.4461 236.9981,131.6416 236.7835,132.5227 236.2414,133.7712 236.1478,134.1821 235.9383,134.5906 235.5461,135.8725 235.3843,136.3032 235.2393,136.9667 234.956,137.2452 234.806,137.8419 234.8736,138.3836 234.758,138.884 234.7944,139.2311 234.9151,139.4093 235.2141,139.6579 235.3373,139.9704 235.3988,140.2702 235.512,140.3547 235.7532,140.696 235.9958,140.772 236.3536,141.2418 236.854,141.5622 237.4633,142.1836 237.8928,142.3355 237.9935,142.4086 238.3536,142.8879 238.4606,143.2666 238.6522,143.5126 238.8455,143.8464 239.0431,144.089 239.5184,144.4435 239.6634,144.6379 239.7757,144.9149 239.8505,145.3012 240.0579,145.7797 240.0754,146.1142 240.0231,146.4142 240.0498,146.5781 240.1211,146.7792 240.3186,147.0415 240.3746,147.2598 240.3228,147.5144 240.3396,147.6788 240.2726,147.8983 240.2913,148.1502 240.1915,148.8646 240.1206,149.7808 240.0284,150.0578 239.7104,150.7227 239.2885,151.2855 238.9202,152.1414 238.6235,152.5852 238.635,152.6654 238.8202,152.9019 239.0409,153.0136 239.245,153.2292 239.5543,153.9124 239.9641,154.4564 240.0147,154.5796 240.0344,155.3857 239.833,155.798 239.7789,156.0273 239.8193,156.2516 240.0421,156.7135 240.0533,156.826 239.9362,157.7067 239.9401,157.9246 240.0315,158.3002 240.0445,158.8269 240.1104,159.2064 240.4403,159.7646 240.546,159.8686 240.8831,160.1177 241.1735,160.1867 241.6015,160.4448 241.8071,160.8509 241.984,161.0111 242.2363,161.9176 242.3415,162.0999 242.343,162.2285 242.2405,162.3516 242.199,162.4794 242.078,162.5928 242.0304,163.0016 242.0361,163.1217 242.1585,163.4183 242.369,163.5999 242.3514,163.7689 242.259,163.9947 242.2475,164.0227 242.1415,164.1448 242.0933,164.3684 242.1953,164.6445 242.3225,164.7966 242.422,165.0069 242.5117,165.5662 242.4689,165.8325 242.1953,166.5397 240.0609,166.9959 238.7852,167.393 234.1971,169.3095 232.0619,170.6321 230.0691,172.3119 225.996,174.6948 224.122,175.5849 222.8279,175.9991 221.4233,176.1179 220.7019,175.9187 219.9831,175.7203 218.1046,174.5737 214.8151,171.4737 213.8349,170.7743 211.7161,169.9618 208.6163,169.3526 208.2051,169.2628 205.8581,167.8023 204.4911,166.2649 202.7562,163.7857 199.3834,161.1188 197.9291,159.602 196.3189,157.2866 196.1591,156.8738 194.7777,153.3053 192.7533,151.631 191.4428,151.1034 189.831,151.163 187.9672,152.0209 185.9901,152.4627 184.3764,153.3699 183.4088,153.8068 182.3325,153.9704 181.8068,154.2159 178.675,156.3432 174.981,160.0766 173.9601,160.7995 169.8479,162.6247 167.2839,164.4715 165.5516,166.1457 162.9696,167.865 162.9683,167.8658 157.635,170.2074 153.1399,172.4001 150.5498,173.366 148.8768,173.6067 146.6613,173.7402 146.4869,173.7507 143.9471,173.3961 142.9348,173.5594 141.3187,173.2734 139.6875,172.7229 137.676,171.7762 135.0384,170.1171 133.1127,169.3015 131.1585,168.0303 126.052,166.6699 126.6589,161.0001 126.7158,160.9593 126.7416,160.8775 126.7675,160.7957 126.7673,160.6687 126.7671,160.4454 126.7667,160.1147 126.8254,159.9379 127.0475,159.7236 127.1276,159.56 127.1445,159.3433 127.3175,159.0692 127.5221,158.566 127.8222,158.3122 128.0856,158.1509 128.5188,158.0373 128.754,157.8953 128.9177,157.607 129.1907,157.2949 129.1566,157.1694 128.9748,157.0162 128.8914,156.8904 128.9357,156.7334 129.2024,156.3483 129.3075,156.0476 129.3123,156.0341 129.408,155.1658 129.6108,154.8137 130.0912,154.2725 130.4585,153.7701 130.73,153.5369 130.8371,152.9071 130.8314,152.7482 130.7559,152.5954 130.7083,152.3848 130.861,151.5516 130.9257,151.4205 131.4124,150.9855 131.4768,150.8884 131.8236,150.3656 131.8803,150.1338 131.9213,149.6819 132.0237,149.4458 132.2036,149.1979 132.2774,148.9294 132.472,147.5169 132.632,147.177 132.942,146.7395 133.2278,146.4407 133.3433,146.2443 133.6762,145.545 133.9444,145.1141 134.2171,144.5047 134.5117,144.1272 134.8543,143.3675 135.1937,142.7675 135.3542,142.2624 135.8089,141.6032 135.9903,141.2108 136.257,140.2605 136.5768,139.5744 136.6876,139.1789 136.7941,138.5689 136.8816,138.3006 137.1979,137.9361 137.3068,137.7141 137.6257,136.3092 137.7134,136.0604 138.0727,135.5971 138.4436,135.3124 138.9051,135.1795 139.1823,135.0377 139.5472,134.713 140.6113,133.8699 140.844,133.5893 141.7928,132.8896 143.467,131.2113 143.6659,130.8832 143.798,130.4968 143.9107,129.9591 144.0486,129.6582 144.9854,128.6693 145.1664,128.4335 145.3488,127.9686 145.7095,127.3684 145.8377,127.2841 145.8747,127.1456 145.8278,127.014 145.4358,126.6547 145.3037,126.4695 145.3309,125.997 145.6924,125.3286 146.0507,124.9246 146.5799,124.4181 146.7826,124.0123 147.0597,123.2923 147.2659,122.9908 147.6747,122.4958 148.1892,122.0543 148.6515,121.7567 148.8821,121.4826 149.1484,120.9253 149.2664,120.6785 149.3367,120.5897 149.4526,120.4439 149.6842,120.2808 150.1032,120.0875 150.5098,119.8154 150.8822,119.4125 151.1288,118.8954 151.4745,117.4249 151.5989,116.8955 152.0894,115.9795 152.4198,115.5625 153.189,114.8266 153.7381,114.4318 153.9316,114.2166 154.0832,113.9488 154.2263,113.7992 154.5748,113.6183 154.6612,113.4616 154.7767,112.7143 154.9279,112.4524 154.9652,112.4154 155.1497,112.2323 156.1867,111.4462 156.7442,110.966 156.9052,110.8188 156.9261,110.7998 157.1942,110.5545 157.6347,110.3443 158.2861,110.2076 158.9162,110.1745 159.1849,110.1246 159.9149,109.7987 160.6411,109.2937 160.7426,109.1812 160.7625,109.1591 161.0817,108.8053 161.1011,108.7839 161.1317,108.7499 161.4037,108.3475 161.9407,107.3062 161.9511,107.286 162.1958,106.8115 162.5812,106.3838 163.0911,106.0093 163.6944,105.8111 164.8841,105.6225 164.9109,105.6183 164.9345,105.6146 166.4594,105.0674 166.5485,104.9995 166.583,104.9732 167.0696,104.6025 167.2587,104.2382 167.3314,103.8219 167.338,103.7842 167.3477,103.729 167.4924,103.3901 167.8478,103.0804 168.4683,102.9166 169.0807,102.8894 169.3739,102.8924 169.396,102.8926 169.4715,102.8933 169.579,102.8944 170.5851,102.9045 172.0786,102.7109 172.9972,102.3148 173.6206,101.9412 174.1903,101.319 174.6759,100.451 174.6992,100.4093 175.045,99.7912 175.4449,99.2323 177.3819,97.8164 177.4607,97.7589 178.0411,97.3346 178.453,96.9207 178.5183,96.8024 178.5243,96.7915 178.5303,96.7806 178.7264,96.4253 178.8758,96.066 178.972,95.8338 179.3114,94.4641 179.6477,93.4199 180.1065,92.6337 180.1126,92.6266 180.5062,92.1668 180.9172,91.8441 181.4691,91.5491 181.7105,91.3291 181.726,91.1855 184.5351,91.5224 184.8317,91.5952 185.2764,91.772 185.8487,92.2107 186.2706,92.6645 186.5666,92.8742 187.2177,93.0193 187.6243,93.1451 188.127,93.4228 189.0224,93.9166 190.0759,94.5324 190.9444,95.0954 191.352,95.3071 191.8718,95.4161 192.5801,95.3711 193.1035,95.1335 195.7539,92.8037 196.4348,92.1211 197.4405,91.1123 199.5838,89.2115 201.3827,88.0337 201.8686,87.8477 202.2592,87.8515 204.3513,88.3564 204.87,88.5693 205.8867,89.1505 206.3141,89.2586 206.7986,89.1769 207.565,88.8376 209.1326,87.796 209.7127,87.5077 210.1045,87.3722 210.7014,87.343 211.2578,87.4351 211.8511,87.6318 212.1643,87.9626 212.4753,88.4511 212.5865,88.4867 212.9042,88.3686 214.0412,87.6901 215.691,86.5623 216.4029,86.1365 216.963,85.9688 217.4651,85.9899 218.0594,86.1516 218.5016,86.5194 219.4573,87.6019 220.4814,89.2916 221.1554,90.5798 221.3951,90.8069 223.2195,91.6121 224.8861,92.4766 225.8452,93.2647 226.8776,94.2783 227.4438,94.7426 228.5554,95.1857 233.9788,96.344 234.4226,96.556 234.7737,96.836 235.0493,97.1329 235.1562,97.5495 235.114,97.9994 234.7491,99.1399 233.9864,100.8124 233.0974,102.2139 231.3405,104.5707 230.304,105.7994 230.0397,106.1781 230.0359,106.6454 230.3637,107.186 230.9528,107.8495 231.7214,109.0863 231.87,109.4194 232.0169,109.7482 233.1207,112.2238 233.6271,113.7355 233.9316,114.9157 234.0845,116.2589 233.9943,117.7479 233.6519,120.3013 233.1579,122.9635 233.0348,123.9503 233.0498,124.349 233.1578,124.6958 233.5452,125.3892 233.6188,125.7021 233.8922,126.381 233.9918,127.0475 234.0666,128.035 234.0668,128.0828" stroke="black" /><polygon fill="none" points="473.2717,6.2987 473.3024,6.3781 473.3489,6.5015 473.4742,7.7929 473.5606,8.0994 473.7801,8.6011 473.9191,8.7911 474.3524,9.2183 474.5833,9.3573 474.7483,9.3988 475.2326,9.4236 475.4231,9.4625 475.6216,9.4208 476.1933,9.4208 476.5896,9.4082 476.9537,9.4583 477.6347,9.6462 478.0581,9.7808 478.9753,10.2942 479.3135,10.4432 479.87,10.789 480.229,10.9542 480.6282,10.9859 480.8524,11.1741 481.1058,11.2786 481.2223,11.2928 481.3883,11.2369 481.483,11.2833 481.5978,11.4091 481.789,11.4786 482.6394,11.5588 483.518,11.7976 483.9946,12.0711 484.1991,12.1269 484.3871,12.2342 484.8675,12.7488 486.0842,13.7101 486.7543,14.0174 487.2867,14.1263 487.6837,14.3719 487.823,14.3772 487.9881,14.3322 488.1485,14.2109 488.5139,13.7358 488.6254,13.449 488.6872,12.9763 488.6891,12.6519 488.6306,12.325 488.4393,11.7426 488.4312,11.6325 488.4622,11.2195 488.7599,10.0366 488.88,9.6744 489.0672,9.2635 489.2518,8.6846 489.3928,8.3891 489.614,8.0926 489.9369,7.8161 490.1665,7.7153 490.4049,7.7025 490.6388,7.7637 490.9642,7.9136 491.7684,7.9795 492.3539,7.9652 493.465,7.8003 493.9196,7.6236 494.2245,7.5898 494.8824,7.6386 495.2812,7.7562 496.2144,7.8907 496.7246,8.0794 498.5541,9.1079 499.3227,10.0004 499.4715,10.1125 500.0,10.3786 499.8809,10.7306 499.8093,11.2952 499.6931,13.0883 499.7003,13.7616 499.6584,14.3235 499.5269,15.1215 499.3883,15.6021 499.1821,15.9274 498.8588,16.2073 498.3893,16.5412 497.9897,16.932 497.7258,17.1432 497.3264,17.41 497.1113,17.5166 496.6518,17.6555 495.9691,17.7627 495.0625,17.7156 493.9714,17.7103 493.0412,17.8636 491.44,17.9754 491.1143,18.0342 490.8676,18.131 490.6198,18.3532 489.9065,19.2154 489.7883,19.4319 489.5897,20.1519 489.3937,20.682 489.2748,20.8991 488.4633,21.9877 487.8764,23.1075 487.5987,24.0391 487.584,24.3416 487.6223,24.5241 487.7118,24.6854 488.3446,25.3962 488.6539,25.8572 488.8478,26.022 489.0594,26.1425 490.1751,26.5046 490.3687,26.6082 490.4468,26.6933 490.6363,27.1819 490.8679,27.5347 491.1464,27.7717 491.4181,27.9365 492.2078,28.5188 492.7764,29.0723 493.9124,29.8804 494.4377,30.2038 494.4761,30.2642 494.3276,31.2852 494.3227,32.3499 494.2035,32.8388 493.7996,33.4106 493.3238,33.915 493.0724,34.3195 493.0128,34.4644 492.9852,34.6806 493.0401,34.8226 493.9613,35.7219 494.1243,35.8125 494.4593,35.8855 494.6197,36.0277 494.6154,36.2212 494.5627,36.3351 493.6744,37.3173 493.2963,37.6726 493.1779,37.9016 493.1389,38.0923 493.1743,38.6067 493.3918,38.8952 493.8186,39.1759 493.9928,39.3643 494.0374,39.4979 494.0238,39.6004 493.8802,39.8231 493.8535,39.9624 493.8724,40.0835 494.0194,40.3624 493.9198,40.8639 494.1125,41.2811 494.1183,41.3543 493.889,41.9027 493.2704,43.0328 493.0134,43.4233 492.6038,43.8227 491.8835,44.24 491.3633,44.7591 491.0276,45.045 490.8266,45.1527 490.5924,45.2138 487.6214,45.3477 487.0809,44.9255 486.8698,44.7977 486.5963,44.7265 485.8024,44.3833 484.9359,44.0777 484.5832,43.9183 484.31,43.75 483.7854,43.2978 483.4967,43.0955 483.1794,42.9383 482.4549,42.6823 481.7217,42.5718 481.4702,42.5947 480.942,42.7479 480.7281,42.9111 480.5402,43.2894 480.443,43.8793 480.3695,46.8319 480.3508,47.5783 480.2344,48.3909 479.8706,49.5517 479.4382,50.6081 479.2108,51.0168 479.2081,51.1597 479.2955,51.521 479.161,52.1052 478.9976,52.4236 478.7134,52.7789 478.1458,53.3113 477.0417,54.1034 476.5869,54.3642 475.4076,54.927 474.3659,55.4849 473.6171,56.0442 473.0084,56.6709 472.7063,57.0599 472.411,57.5459 472.1767,58.062 471.9299,58.8681 471.5273,60.5795 471.4239,60.8687 470.898,61.8152 470.7338,62.2701 470.4221,62.7082 469.1354,65.9591 468.8473,66.8036 468.6574,67.5639 468.426,68.2059 468.3231,68.5939 468.0795,69.9994 467.9776,70.1617 467.7685,70.3481 467.611,70.7598 467.458,71.0267 467.1491,71.3533 466.466,71.8954 466.2262,72.1589 466.0508,72.2139 465.9607,72.2924 465.7816,72.5185 465.0033,73.7509 464.798,74.0251 464.6343,74.2214 464.1107,74.6706 463.7764,75.113 463.6656,75.2052 463.5212,75.3213 463.3386,75.3896 463.2941,75.4885 463.374,75.7813 463.2174,75.9795 463.1082,76.1537 462.9823,76.3156 462.9858,76.3833 463.1194,76.498 463.2738,76.4942 463.3566,76.467 463.3937,76.492 463.3532,76.5983 463.3496,76.7394 463.1849,77.1225 463.3094,77.2321 463.276,77.2807 463.1228,77.2757 463.0425,77.3347 463.0933,77.5466 463.06,77.6158 462.881,77.6236 462.8321,77.7968 462.7491,77.8706 462.7002,78.0239 462.683,78.2344 462.6082,78.2736 462.4457,78.2802 462.3572,78.3887 462.4525,78.4808 462.4147,78.5723 462.2616,78.6109 462.1672,78.5413 462.1006,78.5558 462.1795,78.7196 462.051,78.8205 461.9389,78.8645 461.9571,78.9414 461.8744,78.9707 461.8662,79.0078 461.9589,79.0826 461.9396,79.1455 461.8696,79.1715 461.7933,79.1733 461.7636,79.2302 461.827,79.3246 461.5047,79.7761 461.3523,79.8893 461.2914,80.0106 461.2038,80.2154 461.2618,80.3098 461.2986,80.3967 461.3862,80.4492 461.4979,80.4646 461.6305,80.5495 461.8162,80.6793 461.7326,80.8473 461.7615,80.9068 461.9216,80.8581 461.9341,80.987 461.952,81.1184 461.9327,81.2297 461.9938,81.2498 462.0273,81.2741 461.9251,81.3959 461.932,81.4527 462.0088,81.5438 462.0006,81.584 461.9665,81.8045 461.9765,81.916 461.9335,81.9752 461.7764,81.9768 461.8451,82.0664 461.977,82.0548 462.0179,82.1118 461.9936,82.1612 461.8114,82.1492 461.8277,82.218 462.0494,82.3168 462.0377,82.3877 461.9327,82.4394 461.9319,82.6424 461.8714,82.6649 461.8274,82.6375 461.7363,82.4233 461.6864,82.3762 461.5695,82.3689 461.5257,82.3994 461.4906,82.5124 461.6058,82.7484 461.5863,82.7934 461.4488,82.8288 461.3825,82.9843 461.4782,83.2647 461.4588,83.365 461.3189,83.3145 461.1475,83.101 461.0758,83.1125 461.046,83.2027 461.137,83.4078 461.075,83.5675 461.1487,83.7287 461.1255,83.882 461.1531,83.9267 461.3166,83.9657 461.2495,84.0955 461.289,84.2237 461.2343,84.303 461.2878,84.3711 461.4475,84.4229 461.4472,84.4943 461.2918,84.5855 461.279,84.6512 461.4501,84.8213 461.4575,84.867 461.2977,85.0382 461.307,85.2085 461.2807,85.2707 461.1778,85.2777 461.0285,85.2343 460.9469,85.2699 460.8689,85.3989 460.8793,85.4557 461.0582,85.5102 461.076,85.5593 460.9522,85.6136 460.8782,85.7492 460.7887,85.8234 460.8191,85.9128 460.9851,86.0695 460.9633,86.1518 460.815,86.2646 460.9699,86.3935 460.9521,86.4355 460.8232,86.4787 460.791,86.5229 461.0121,86.7443 460.9987,87.0252 461.0692,87.1664 461.0668,87.3072 460.8891,87.3991 460.8416,87.4632 460.9136,87.6096 460.9056,87.7802 461.0289,87.8776 461.0714,87.9718 460.9623,88.1788 461.0166,88.3462 461.0084,88.4322 460.9409,88.5127 460.7666,88.5944 460.6931,88.7447 460.5572,88.836 460.3275,88.9088 460.195,89.1087 460.1009,89.1826 459.9891,89.166 459.7727,89.0202 459.7238,89.0235 459.6747,89.0735 459.6964,89.2193 459.7763,89.3271 459.7876,89.4155 459.6022,89.6765 459.6096,89.7906 459.8317,89.8429 459.8418,90.0859 459.9839,90.2992 460.0115,90.44 459.9969,90.5034 459.8785,90.5398 459.7125,90.4012 459.619,90.4251 459.6771,90.7267 459.6809,91.2021 459.7149,91.3629 459.862,91.5596 459.8559,91.6657 459.7753,91.7447 459.7195,91.7573 459.5648,91.7097 459.5256,91.876 459.4419,91.9594 459.3512,91.953 459.1949,91.8054 459.1235,91.7909 459.108,91.8875 459.1858,92.0467 459.1405,92.1174 459.0378,92.1566 459.03,92.2268 459.1096,92.3369 459.1179,92.4168 458.9958,92.4694 458.855,92.4749 458.773,92.5309 458.7684,92.5974 458.8275,92.7338 458.7747,92.8467 458.7776,92.9181 459.01,93.0654 459.0392,93.1489 459.0103,93.2246 458.9094,93.249 458.7012,93.181 458.5999,93.2014 458.5712,93.311 458.6523,93.5426 458.6481,93.6397 458.5574,93.6794 458.4303,93.6613 458.3379,93.6866 458.2285,93.9157 458.0631,93.9541 457.9947,94.1159 457.862,94.143 457.7047,94.4836 457.6339,94.4573 457.5182,94.3275 457.4398,94.3398 457.3802,94.4228 457.369,94.5931 457.1573,94.665 457.138,94.7491 457.3689,94.954 457.4062,95.0545 457.288,95.3384 457.2923,95.7104 457.1776,95.7778 457.0594,95.7398 457.0417,95.4627 456.9445,95.334 456.8421,95.3759 456.8171,95.4522 456.8334,95.5928 456.7965,95.6555 456.4168,95.6049 456.2016,95.7456 455.9983,95.7003 455.9164,95.7162 455.8835,95.8081 455.9524,96.1233 455.9632,96.2722 455.9352,96.3177 455.853,96.3586 455.6798,96.3339 455.5345,96.3697 455.5047,96.4139 455.5248,96.664 455.3221,96.7927 455.2804,97.0709 455.0162,97.1412 454.982,97.2157 455.0509,97.3036 455.0371,97.3489 454.7583,97.4526 454.7589,97.5611 454.8909,97.6038 454.8539,97.706 454.8798,97.7609 455.02,97.8288 455.1819,97.8556 455.2559,97.9221 455.2519,97.9626 455.1211,98.1144 455.071,98.3835 455.011,98.4649 454.9639,98.4869 454.739,98.4573 454.6207,98.4786 454.5889,98.5531 454.6391,98.758 454.6109,98.8097 454.5136,98.816 454.3322,98.7647 454.054,98.7931 453.9147,98.6261 453.8791,98.4519 453.8306,98.3851 453.5422,98.2783 453.3207,98.3106 453.1199,98.404 452.922,98.4347 452.7827,98.5726 452.67,98.7149 452.5763,98.7214 452.5298,98.8339 452.3974,98.838 452.3175,98.8376 452.2213,98.8866 452.2057,98.8271 452.171,98.8005 452.0766,98.7646 452.015,98.6527 451.6842,98.9494 451.5293,98.7838 451.3851,98.8474 451.3094,99.0204 451.1651,99.0889 451.0639,99.0934 450.9728,99.1771 450.9189,99.2709 450.8545,99.3448 450.7847,99.4435 450.6937,99.4975 450.6137,99.5169 450.5506,99.544 450.4735,99.5289 450.4106,99.5811 450.368,99.6922 450.3109,99.7097 450.1714,99.6197 450.0615,99.608 449.9317,99.5231 449.9558,99.7627 449.9106,99.7949 449.6498,99.7335 449.4801,99.8443 449.0149,99.8741 448.8508,99.8414 448.5167,99.5299 448.3299,99.4942 448.2035,99.6058 448.1394,99.8626 448.0432,99.9652 448.0167,99.9932 447.7739,100.1148 447.5958,100.1431 447.4535,100.2371 447.4055,100.3394 447.3332,100.3631 447.2108,100.3446 447.1804,100.4414 447.2573,100.6839 447.0896,100.7835 447.1231,100.9617 447.0857,101.0378 446.9954,101.0887 446.7803,101.0761 446.532,100.9562 446.4604,100.974 446.4426,101.0594 446.5265,101.2245 446.492,101.2851 446.1548,101.3948 446.0849,101.4566 446.0531,101.5304 446.074,101.6459 446.1774,101.6953 446.4526,101.6722 446.4836,101.6903 446.4988,101.7825 446.437,101.885 446.217,102.0201 446.1972,102.0918 446.2476,102.1918 446.2377,102.2387 446.1004,102.2694 446.0358,102.3302 446.0361,102.3723 446.1311,102.4516 446.2548,102.5017 446.2628,102.5634 446.1543,102.6454 445.8007,102.6366 445.7241,102.6741 445.7269,102.7695 445.9476,102.8669 445.8213,103.017 445.815,103.0674 445.9069,103.2426 445.8703,103.2783 445.7724,103.2733 445.6184,103.2062 445.4884,103.203 445.3879,103.2971 445.39,103.7629 445.6407,104.0883 445.3593,104.2401 445.3461,104.4689 445.2828,104.6119 444.9676,104.868 444.8337,105.1047 444.6522,105.2048 444.5132,105.2421 444.4729,105.3151 444.5001,105.4285 444.4662,105.5043 444.3969,105.4894 444.3518,105.4384 444.3321,105.233 444.2331,105.1968 444.1519,105.2643 444.0824,105.5867 444.0989,105.8352 444.0514,105.9431 443.7646,106.136 443.547,106.1046 443.3847,106.24 443.2087,106.311 443.2221,106.379 443.4133,106.4443 443.4269,106.5221 443.1889,106.6857 443.1845,106.8427 443.1476,106.882 443.0712,106.8689 443.0141,106.9091 443.0071,107.0563 443.0876,107.2753 443.0898,107.373 443.059,107.4185 442.9035,107.4646 442.8824,107.5205 442.9154,107.5928 442.742,107.7211 442.7291,107.8084 443.0221,108.0017 443.0938,108.2446 443.2118,108.2493 443.3293,108.1948 443.4297,108.2296 443.4012,108.3633 443.4419,108.5243 443.4253,108.6476 443.3167,108.7457 443.0137,108.8316 442.9581,108.9251 442.9743,109.1993 442.8319,109.317 442.8265,109.3552 442.9069,109.4242 443.1746,109.4484 443.1864,109.5259 443.1062,109.5842 442.8029,109.5743 442.6956,109.6001 442.6638,109.6761 442.6868,109.8864 442.6483,109.9126 442.2966,109.9399 442.1717,110.0655 442.159,110.1835 442.2754,110.41 442.2419,110.541 442.0512,110.5998 441.9556,110.7422 441.7542,110.6537 441.6446,110.6679 441.569,110.7551 441.536,110.9154 441.5603,110.9997 441.4782,111.1419 441.4948,111.2128 441.5849,111.2883 441.4846,111.4011 441.4548,111.491 441.5168,111.5408 441.6329,111.538 441.6806,111.5742 441.6297,111.6522 441.3899,111.7909 441.3083,112.0167 441.2771,112.3204 441.2125,112.4108 441.1481,112.4152 441.0009,112.2832 440.8965,112.2895 440.8701,112.3192 440.8289,112.8106 440.794,112.8446 440.5575,112.7753 440.3614,112.9295 440.3521,113.1103 440.2206,113.2466 440.1186,113.4273 439.9679,113.6543 439.8233,113.7526 439.787,113.9 439.6517,113.925 439.4915,113.9687 439.3575,114.0917 439.3192,114.2451 439.3022,114.4035 439.1794,114.4375 439.1743,114.4953 439.0401,114.5556 438.8297,114.7084 438.8343,114.8231 439.0599,114.9397 439.1012,115.026 439.0288,115.1582 438.7532,115.2532 438.7131,115.2959 438.7083,115.3979 438.7702,115.559 438.6026,115.6727 438.5428,115.7913 438.6481,116.1746 438.4541,116.1522 438.4074,116.3307 438.3764,116.4373 438.4246,116.4861 438.6114,116.4922 438.6266,116.5391 438.3922,116.6832 438.3995,116.8901 438.2391,116.9198 438.1983,117.0332 438.116,117.0948 437.8521,117.1144 437.8024,117.1821 437.8319,117.2795 437.8066,117.3193 437.6905,117.3211 437.6222,117.3736 437.6286,117.471 437.7394,117.5607 437.5566,117.8437 437.4211,117.8754 437.3736,117.9224 437.3785,118.1809 437.2925,118.2294 437.1046,118.2664 437.0247,118.3484 436.9992,118.4941 437.0674,118.7177 437.0537,118.8886 437.0015,118.9488 436.8166,119.0216 436.7356,119.1003 436.8097,119.2491 436.8158,119.349 436.7342,119.5021 436.4211,119.8598 436.1532,119.858 436.1078,119.9001 436.0894,120.0168 436.1583,120.2229 436.0944,120.3786 435.9505,120.5154 435.9652,120.6158 436.0508,120.5767 436.2864,120.4046 436.3728,120.4373 436.3858,120.4845 436.3613,120.5735 436.3176,120.6146 436.2556,120.7566 436.1432,120.891 436.1431,120.9541 436.2219,121.1104 436.0831,121.3322 436.1866,121.4465 435.9567,121.7057 435.7845,121.9639 435.7392,122.205 435.6582,122.2854 435.4508,122.2052 435.388,122.2441 435.3122,122.3856 435.2394,122.4194 435.028,122.3583 434.9027,122.386 434.7834,122.5612 434.7068,122.9077 434.6068,122.9978 434.5212,122.9844 434.2953,122.732 434.1859,122.6877 433.9748,122.7138 433.7479,122.6802 433.5011,122.711 433.3637,122.8125 433.2075,123.0734 432.9749,123.2011 432.8993,123.4308 432.6942,123.6667 432.6575,124.0567 432.5749,124.1266 432.4657,124.099 432.1594,123.8937 431.9137,123.9245 431.7575,123.7633 431.6899,123.7662 431.6211,123.8565 431.6203,123.9711 431.4061,124.1248 431.3883,124.1849 431.448,124.3648 431.4037,124.4858 431.2621,124.5646 431.177,124.6986 430.9615,124.7636 430.8549,124.8426 430.6732,125.1963 430.4819,125.4403 430.1181,125.5128 430.0833,125.6521 430.2496,125.8256 430.2333,126.1608 430.4762,126.2952 430.8106,126.4238 430.8529,126.5386 430.6756,126.6934 430.59,126.7511 430.3663,126.7901 430.2634,126.8727 430.1696,127.0332 430.1489,127.1317 430.1539,127.2331 430.0675,127.2912 429.8522,127.2953 429.7677,127.4895 429.6273,127.4673 429.446,127.5409 429.2421,127.5771 428.9299,127.4979 428.6468,127.7895 428.5956,127.9357 428.476,128.0125 428.2645,127.894 428.2319,128.0457 428.1029,128.0183 427.8424,127.9342 427.8158,128.0566 427.8148,128.2006 427.7828,128.295 427.7078,128.3219 427.5912,128.1726 427.3894,128.3074 427.3911,128.4861 427.2294,128.6371 427.3401,128.8137 427.1297,128.8591 427.1411,129.0047 426.8402,128.9201 426.6324,129.0895 426.5473,129.3689 426.606,129.6039 426.4962,129.7205 426.3585,129.7197 426.2739,129.8077 426.1903,129.8088 425.622,130.0113 425.749,130.2474 425.6256,130.2661 425.5886,130.3008 425.5948,130.433 425.379,130.6486 425.2217,130.6488 425.2285,130.8226 424.9767,130.8047 425.0236,130.9815 425.1317,131.2295 425.0104,131.3381 425.0611,131.477 424.6852,131.4854 424.6073,131.5463 424.6786,131.7368 424.6915,131.8214 424.6453,131.8558 424.5305,131.8631 424.3154,131.8512 424.0886,131.8712 424.0785,132.0614 423.9526,132.0383 423.946,132.1583 423.8075,132.2694 423.7496,132.3517 423.7317,132.4556 423.6539,132.4978 423.5765,132.4813 423.4905,132.4728 423.4158,132.4884 423.4022,132.3843 423.3138,132.3012 423.216,132.3299 423.1464,132.4415 423.0778,132.4091 422.9743,132.4298 422.8884,132.4026 422.762,132.4312 422.6177,132.5557 422.537,132.7627 422.5888,133.0007 422.4393,133.0371 422.3034,132.7697 422.1829,132.7717 422.0883,132.7605 422.0719,132.6351 421.8718,132.5273 421.6537,132.5313 421.3803,132.6496 421.1985,132.7952 421.095,132.8212 420.9396,132.895 420.8855,132.8253 420.9786,132.6419 420.9162,132.5456 420.7872,132.5235 420.6735,132.3655 420.4904,132.2925 420.4779,132.4337 420.4033,132.4386 420.2493,132.2964 420.4718,132.0657 420.1508,132.0212 419.9158,131.9691 419.6768,132.101 419.5388,132.1295 419.4575,132.281 419.3402,132.2216 419.2221,132.2929 419.0695,132.3693 418.9123,132.2831 418.7606,132.2208 418.5049,132.2673 418.4948,132.0646 418.1269,132.1531 418.0774,132.2567 417.8993,132.2903 417.8275,132.3019 417.7557,132.3135 417.6073,132.1979 417.6886,132.0625 417.4552,132.1944 417.2459,132.1718 416.9889,131.9996 416.8568,132.0148 416.859,132.1135 416.7709,132.1071 416.6565,131.9363 416.4935,131.8527 416.4752,132.0099 416.3803,132.0306 416.4428,132.127 416.348,132.1477 416.1874,132.1281 416.045,131.9806 415.9424,131.8734 415.8591,131.8835 415.8616,132.0331 415.8046,132.0556 415.6852,132.1358 415.585,132.1058 415.5025,132.0067 415.4805,131.8679 415.3633,131.8086 415.2401,131.7705 415.0742,131.6975 414.8676,131.7043 414.6609,131.7164 414.6737,131.5351 414.4005,131.6241 414.0165,131.9603 413.8096,132.0018 413.6685,132.0783 413.5568,132.0482 413.5203,131.9334 413.3857,131.8953 413.2407,131.6971 413.2641,131.6413 413.4416,131.701 413.385,131.578 413.2907,131.5241 413.055,131.5867 412.9602,131.6074 412.874,131.6122 412.7943,131.5344 412.6636,131.7496 412.591,131.6541 412.4321,131.6149 412.3788,131.4766 412.2615,131.3979 412.3053,131.2862 412.4402,131.2923 412.5928,131.2133 412.6166,131.0908 412.5513,130.9971 412.5085,130.9542 412.3881,130.9401 412.3429,130.8439 412.3523,130.7293 412.5446,130.729 412.6561,130.7791 412.6995,130.7287 412.6552,130.4965 412.1716,130.315 412.2097,130.2006 412.0352,130.1275 412.1107,129.9947 411.9558,129.9884 411.9195,129.8522 411.8193,129.8143 411.7757,129.8994 411.5626,129.7567 411.565,129.6741 411.6346,129.5573 411.7124,129.5124 411.8011,129.5449 411.8606,129.6573 411.9189,129.5297 412.0105,129.5622 412.049,129.3945 412.1994,129.2141 412.0109,128.6825 411.8928,128.7484 411.8058,128.8838 411.7702,129.0436 411.6642,129.0216 411.573,128.9357 411.4413,128.9003 411.3365,128.7077 411.2599,128.5872 411.1838,128.3922 411.0262,128.3619 410.9198,128.3985 410.879,128.4916 410.9832,128.5886 410.8263,128.6379 410.6823,128.709 410.5696,128.8256 410.6398,129.0473 410.5356,129.1747 410.446,129.2594 410.2687,129.2605 410.0831,129.3096 410.0711,129.3647 410.2813,129.4663 410.2405,129.5373 410.0268,129.5564 409.8273,129.7004 409.5384,129.6681 409.4912,129.6157 409.4629,129.47 409.4079,129.1864 409.2025,129.0119 409.0776,128.8272 408.7992,128.8388 408.6531,128.8086 408.5648,128.7227 408.3989,128.6497 408.2981,128.6997 408.289,128.7743 408.4027,128.9137 408.4364,129.0205 408.3898,129.1242 408.2809,129.1022 408.1384,128.968 408.0033,128.9992 407.8261,128.9101 407.7037,128.7707 407.5518,128.7458 407.2072,128.8179 407.1069,128.7751 407.0961,128.6737 407.0251,128.5719 406.9391,128.5661 406.9428,128.6487 406.9465,128.7314 406.8773,128.7816 406.8056,128.7732 406.7546,128.6876 406.7224,128.3675 406.8003,128.3167 406.7642,128.1411 406.7421,128.021 406.6593,127.9672 406.6189,128.0043 406.5915,128.2227 406.5515,128.2038 406.4862,128.1021 406.4612,127.9846 406.3054,127.8813 406.2043,127.8017 406.205,127.6978 406.148,127.6494 405.9242,127.6507 405.9259,127.8107 405.6741,127.8145 405.521,127.9641 405.4672,128.0704 405.3543,128.1977 405.1501,128.2738 404.9549,128.2899 404.8055,128.3116 404.684,128.2495 404.6947,128.163 404.6463,128.1147 404.5598,128.1635 404.3983,128.2851 404.2295,128.4213 404.1273,128.4713 403.9724,128.4557 403.8194,128.3935 403.7076,128.3821 403.6338,128.4683 403.6502,128.5817 403.5707,128.6598 403.3651,128.7185 403.1949,128.8521 403.0994,129.1207 403.1293,129.1996 403.1441,129.3317 403.3697,129.477 403.3128,129.614 403.1544,129.6903 403.0676,129.787 402.9726,129.8371 402.8869,129.7819 402.8389,129.6763 402.7982,129.5521 402.7316,129.4371 402.457,129.322 402.2523,129.2608 402.1074,129.2665 401.9554,129.2509 401.8123,129.2047 401.6961,129.1973 401.5725,129.2272 401.4977,129.2667 401.433,129.2743 401.3471,129.2564 401.1768,129.1941 401.0896,129.1562 401.0309,129.1372 400.9909,129.1116 400.9152,129.0765 400.8248,129.0692 400.7058,129.0631 400.5773,128.9757 400.4908,128.8459 400.3403,128.8289 400.2098,128.8134 400.121,128.7942 400.0497,128.7431 399.9571,128.6532 399.8411,128.6165 399.7586,128.52 399.643,128.4353 399.4143,128.3299 399.0867,128.2065 398.9746,128.1305 398.8625,128.0545 398.6804,127.8587 398.4394,127.8505 398.2422,127.9479 397.9048,128.1817 397.9723,128.3608 397.9689,128.4421 397.9412,128.4965 397.87,128.5338 397.7431,128.5166 397.6283,128.5119 397.5391,128.5487 397.4554,128.6214 397.3444,128.4968 397.2625,128.5162 397.1803,128.5757 397.2997,128.7218 397.3532,128.8581 397.3408,128.9873 397.3031,129.039 397.2241,129.0625 397.0671,129.078 397.0041,129.1278 397.0166,129.1852 397.0777,129.2615 397.1547,129.326 397.16,129.382 397.1524,129.4486 397.0757,129.5321 396.9688,129.6367 396.9161,129.7857 396.9284,129.8564 396.9753,129.926 397.1399,129.9684 397.2354,130.053 397.2692,130.183 397.2299,130.4168 397.2706,130.5357 397.2487,130.5982 397.0529,130.6863 397.0438,130.7529 397.0758,130.8904 396.8966,130.8679 396.7714,130.8801 396.8076,130.934 397.0078,130.9588 397.0246,131.0231 396.7641,131.0924 396.7193,131.1568 396.8,131.3246 396.6078,131.3206 396.5041,131.3746 396.4952,131.4159 396.525,131.4721 396.7287,131.46 396.7366,131.5614 396.7256,131.6933 396.8445,131.7194 396.9102,131.7584 396.819,131.9621 396.8077,132.0639 396.6684,132.0608 396.5886,132.1829 396.6953,132.3009 396.5724,132.4373 396.4849,132.4315 396.4177,132.3938 396.2166,132.4298 396.1588,132.6827 396.304,132.8383 396.1768,132.9614 396.0201,133.0058 395.9044,133.2487 395.8859,133.3061 395.8427,133.3232 395.7998,133.3029 395.7728,133.0762 395.7135,132.9425 395.6494,132.8808 395.5532,132.8975 395.4544,133.0621 395.4906,133.2077 395.5414,133.3293 395.6492,133.5032 395.6037,133.6416 395.6356,133.7804 395.5351,133.9899 395.3691,134.12 395.2547,134.2849 395.2262,134.3497 395.3635,134.4891 395.3342,134.5809 395.2388,134.6108 395.0728,134.6099 395.1506,134.7677 395.2322,134.7869 395.4596,134.6937 395.4862,134.7805 395.3052,135.044 395.164,135.081 395.0123,135.0374 394.8359,135.1406 394.7779,135.1146 394.7311,135.0276 394.6582,135.0005 394.5427,135.0891 394.4831,135.202 394.5758,135.2759 394.8126,135.2707 394.8794,135.3525 394.9121,135.3953 394.9286,135.4914 394.8574,135.6069 394.7619,135.7143 394.6773,135.9097 394.6554,136.0249 394.6313,136.108 394.6395,136.1627 394.6536,136.2015 394.7091,136.2645 394.8192,136.3078 395.0436,136.2333 395.0733,136.2921 395.0399,136.3492 394.9659,136.4567 394.8352,136.5669 394.7691,136.6861 394.7598,136.782 394.799,136.9142 394.8172,136.9756 394.7822,137.0434 394.6635,137.0702 394.6093,137.1489 394.6648,137.2146 394.8186,137.1716 394.9032,137.1748 394.9285,137.2562 394.8272,137.3689 394.8007,137.4567 394.8344,137.5582 394.9449,137.7442 394.9693,137.9443 395.0257,138.0713 394.9888,138.2097 395.1678,138.2575 395.1856,138.3776 395.1045,138.4757 394.8773,138.3583 394.7837,138.3937 394.7761,138.5103 394.8201,138.5259 394.8859,138.5543 394.9718,138.5735 395.0962,138.6396 395.1183,138.745 395.0599,138.89 395.099,139.0342 395.1436,139.2104 394.9487,139.1825 394.8282,139.1791 394.7076,139.1756 394.6662,139.3007 394.7521,139.3785 394.7327,139.6716 394.6739,139.8632 394.5582,139.9798 394.403,140.0108 394.1336,139.9664 393.8684,140.1246 393.6099,140.155 393.4564,140.2822 393.3365,140.4946 393.3099,140.528 393.2367,140.6198 392.6585,141.3456 392.0984,141.2813 389.2034,141.3376 387.8652,141.4352 385.7494,141.4047 384.9861,141.312 384.2219,141.2192 382.7713,140.8357 381.0419,140.0998 379.3502,139.2145 375.8488,136.6204 371.9925,134.8154 368.3633,133.6715 366.0747,133.143 364.8497,133.0093 363.819,133.0392 361.42,133.2061 359.9881,133.6282 358.1462,134.3317 355.2475,136.8803 354.8371,136.3994 354.6454,136.1606 354.4174,135.6589 354.2193,135.2466 354.0507,135.2686 353.76,135.3064 353.6526,135.1097 353.5388,134.8183 353.4336,134.5177 353.4232,134.3883 353.4766,134.3514 353.4888,134.2581 353.533,134.1278 353.4388,134.0658 353.4325,133.9565 353.453,133.906 353.5582,133.8521 353.537,133.7508 353.3899,133.5537 353.3445,133.4854 353.3253,133.3852 353.3057,133.3291 353.2645,133.2689 353.1997,133.3004 353.1424,133.288 353.054,133.2274 353.0329,133.1806 353.0963,133.1424 353.1028,133.0438 353.125,132.9706 353.0447,132.9594 352.9904,132.931 352.9088,132.9198 352.9077,132.8794 352.7983,132.9203 352.7137,132.9091 352.6988,132.9756 352.6412,133.0018 352.5879,133.0281 352.5298,132.9397 352.5391,132.8652 352.5308,132.8185 352.4648,132.822 352.4243,132.8657 352.363,132.8173 352.3293,132.9063 352.2476,132.8898 352.2193,132.8429 352.162,132.8372 352.151,132.7824 352.1473,132.7078 352.1046,132.6675 352.0419,132.6044 351.9421,132.7103 351.829,132.6828 351.6269,132.6614 351.536,132.5501 351.6143,132.4414 351.5716,132.4091 351.4541,132.3896 351.3949,132.4345 351.3825,132.3704 351.3469,132.3355 351.2779,132.3524 351.2301,132.3257 351.2189,132.2677 351.1897,132.1879 351.2136,132.1229 351.1841,132.0744 351.1728,132.0321 351.2225,131.9902 351.2265,131.9686 351.189,131.9574 351.1408,131.9764 351.0721,131.953 351.0504,131.913 350.9623,131.881 350.9176,131.7974 350.8792,131.7308 350.8285,131.7328 350.746,131.7085 350.6621,131.6975 350.5864,131.4904 350.4188,131.4519 350.438,131.3853 350.3925,131.3464 350.2344,131.3799 350.2333,131.3346 350.3717,131.2569 350.4625,131.2082 350.463,131.1456 350.4234,131.0787 350.3587,131.0543 350.2865,130.9711 350.1948,130.9611 350.1091,130.9125 350.0859,130.9403 350.1328,130.9966 350.081,131.0176 349.9641,130.9328 349.9692,130.8302 349.8707,130.7682 349.8089,130.7864 349.7404,130.7486 349.6176,130.6784 349.5114,130.6789 349.4587,130.6279 349.3714,130.6073 349.2591,130.6518 349.1963,130.614 349.1886,130.5114 349.1423,130.5577 349.1215,130.6455 349.0453,130.6676 348.9649,130.671 348.9107,130.6373 348.8539,130.3943 348.8165,130.3981 348.7731,130.4457 348.5564,130.4508 348.5475,130.3215 348.5052,130.2226 348.4179,130.2059 348.336,130.2133 348.3072,130.2358 348.3182,130.2905 348.2679,130.2995 348.1799,130.1909 348.0982,130.181 348.0387,130.0833 348.0038,129.9733 347.9897,129.9403 347.8731,129.9834 347.8253,130.0484 347.8078,130.0829 347.7575,130.0919 347.7336,130.0264 347.6691,130.0193 347.6423,129.9658 347.6757,129.918 347.7345,129.9238 347.7021,129.8622 347.6303,129.8564 347.5647,129.8093 347.4931,129.7914 347.4348,129.735 347.3475,129.7077 347.2578,129.4538 347.1718,129.2799 347.1336,129.2064 347.0884,129.1234 347.0789,129.0607 347.1208,129.0223 347.1384,128.9811 347.1157,128.953 347.0196,128.9483 346.8738,128.8833 346.7161,128.8675 346.737,128.9516 346.6656,128.9058 346.6188,128.8481 346.6199,128.7095 346.5196,128.6981 346.3591,128.6796 346.2428,128.6921 346.1064,128.7058 345.9004,128.635 345.7705,128.5527 345.7586,128.442 345.7218,128.3765 345.6445,128.3626 345.5483,128.3739 345.5506,128.2659 345.4931,128.1069 345.3093,127.9563 345.357,127.8982 345.0816,127.7414 345.0325,127.6104 345.015,127.473 345.0158,127.3757 345.0381,127.2759 344.9982,127.2449 344.8991,127.2615 344.8563,127.2372 344.8616,127.1853 344.9031,127.1296 344.8719,127.0854 344.7779,127.0087 344.7308,126.9711 344.7242,126.9084 344.6429,126.8531 344.6117,126.8049 344.5288,126.7777 344.5065,126.7015 344.4632,126.7332 344.4152,126.6369 344.4163,126.5089 344.3523,126.4432 344.3216,126.3363 344.1537,126.3404 344.0797,126.3661 344.0048,126.3167 343.7657,126.0848 343.6506,125.8679 343.3679,125.5483 343.2201,125.2502 342.942,124.9536 342.8139,124.6148 342.6761,124.4792 342.4628,124.3671 342.0841,123.7787 341.6668,123.5669 341.6286,123.518 341.5852,123.1266 341.5085,122.8971 341.389,122.7537 341.3648,122.6638 341.4012,122.4416 341.3782,122.3593 341.1813,122.0966 341.0338,121.787 340.9347,121.6891 340.6489,121.5594 340.6329,121.4954 340.6951,121.3015 340.6653,121.2406 340.2964,121.0138 339.8403,120.6784 339.5918,120.6098 339.3675,120.6291 339.3073,120.6028 339.2872,120.5017 339.3278,120.3854 339.3003,120.2863 339.1434,120.2338 338.9489,120.2854 338.7708,120.1811 338.5976,119.9395 338.4765,119.4601 338.1821,119.1548 338.0563,118.8311 337.858,118.6731 337.8907,118.4891 337.8654,118.3943 337.9348,118.2063 337.9207,118.1548 337.7455,118.0304 337.6088,117.7578 337.5987,117.5845 337.765,117.3789 337.7376,117.0406 337.8159,116.8252 337.741,116.628 337.7512,116.5653 337.8865,116.4328 337.9232,116.2541 338.0091,116.1307 337.9539,115.8674 337.9995,115.6984 337.8077,115.5778 337.528,115.2578 337.3929,115.1623 337.3217,114.8126 337.1978,114.6558 337.0681,114.3765 336.9975,113.9644 336.6543,113.5539 336.3018,113.3032 336.2056,113.1509 336.1532,112.4677 336.0615,112.1219 335.8443,111.5965 335.7825,111.5239 335.5134,111.3673 335.4054,111.2382 335.2428,110.3897 335.125,110.1515 334.7887,109.6751 334.6459,109.3651 334.5122,108.7545 334.3543,108.3154 334.2324,107.3865 334.0153,106.8377 333.7361,106.4407 333.318,105.9916 332.841,105.5527 332.5747,105.0091 332.235,104.7796 332.1542,104.639 332.1659,104.3917 332.0849,104.0994 332.1146,103.8779 332.212,103.6041 332.0737,102.9797 331.8733,102.7687 331.5673,102.6244 331.5128,102.57 331.4373,102.3757 331.2253,102.1356 331.062,101.7228 330.6394,101.2951 330.4797,100.9681 330.2324,100.2117 330.0405,99.9085 329.9909,99.7744 329.9727,99.5107 330.0176,99.1466 329.9298,98.8225 329.6435,98.1715 329.5794,97.8402 329.5721,97.3865 329.5343,97.2266 329.2794,96.6783 328.7785,95.9971 328.2813,95.2144 327.9613,94.8649 327.8779,94.7062 327.692,94.5122 327.3357,94.3108 327.2646,94.2283 326.9622,93.5896 326.609,93.298 326.0074,92.9052 325.7987,92.7018 325.3936,92.5266 325.3223,92.4612 325.2892,92.2543 325.3885,91.8485 325.3533,91.6182 325.2185,91.4834 324.9822,91.334 324.6921,90.9295 324.4721,90.7282 324.3103,90.5009 324.1368,90.1369 323.7556,89.0058 323.4793,88.4086 323.2336,87.9878 323.0966,87.4566 323.0254,86.8993 323.0239,86.7222 323.1829,85.8353 323.1876,85.6526 323.1413,85.2625 322.9171,84.6437 322.8329,84.2826 322.8148,83.8873 322.8455,83.3525 322.7904,83.0547 322.6492,82.7775 322.089,82.151 322.0535,81.9502 321.9635,81.8826 321.9378,81.7834 321.9546,81.6894 321.9628,81.5558 321.8587,81.3915 321.9821,80.9789 321.9393,80.6938 321.9626,80.471 321.8601,80.3167 322.0366,80.2289 322.1047,80.0511 322.1963,79.933 322.248,79.7913 322.3873,79.7066 322.5087,79.5317 322.326,79.1068 322.3937,78.9785 322.56,78.8337 322.6249,78.7444 322.5921,78.1968 322.3763,76.975 322.3882,76.6583 322.4719,76.1628 322.4374,75.816 322.3035,75.4486 322.269,75.354 321.9424,74.4584 321.7098,73.5863 321.5062,73.2996 321.1997,72.734 320.7149,71.9861 320.46,71.3606 320.2736,70.7782 320.2061,70.2015 320.2403,69.7131 320.0403,68.6135 320.0705,68.2614 320.529,67.0671 320.7862,66.5895 321.2202,66.1283 321.6176,65.9275 322.2826,65.7972 323.2189,65.4371 323.7426,64.9292 324.0027,64.8731 324.2185,64.7624 324.3451,64.5896 324.5134,64.2133 324.6525,63.7415 324.8101,63.5298 325.0083,63.4256 325.9753,63.1715 326.4856,62.9247 326.7679,62.6945 326.9218,62.4736 326.9851,62.2995 327.0098,62.0771 327.0024,61.577 326.9505,61.057 326.8464,60.526 326.765,59.4374 326.7883,58.0698 326.6814,57.2299 326.4024,55.9641 326.3018,55.7302 326.1556,55.5545 325.8453,55.2762 325.58,54.977 325.4339,54.6693 325.3966,54.4371 325.4105,54.1934 325.5365,53.9442 325.9743,53.4843 326.0495,53.3367 326.155,52.4464 326.2174,52.2881 326.7408,51.5847 327.4812,50.8059 327.7522,50.4406 328.3454,49.1098 328.4376,48.9032 328.5473,47.5166 328.6596,46.8901 328.6434,45.5374 328.712,44.5659 328.7079,44.4886 328.6604,43.5924 328.5417,43.1298 328.4978,42.5175 328.5914,42.092 329.2186,41.5454 330.2892,40.988 331.579,40.5624 332.5403,40.4933 332.7157,40.4807 332.9447,40.1025 333.0656,39.9029 333.1927,39.8562 333.5623,39.7207 334.1365,40.1523 334.6568,40.3995 335.193,40.565 335.6255,40.9781 336.3382,41.2759 338.2696,41.6225 339.6479,42.0553 341.2788,42.3858 342.1473,42.2872 343.1229,41.9442 343.565,41.9458 345.1988,42.1116 346.372,42.3254 346.9154,42.6588 347.4166,43.2501 347.6061,43.68 348.0636,43.7952 348.6484,43.6165 349.0724,43.3669 350.0367,43.2381 350.6032,42.9911 351.5042,42.3822 352.1612,42.1006 352.7118,42.2006 354.6052,43.1095 355.0698,43.4402 355.4059,43.77 356.3563,44.2474 357.0833,44.3648 357.6718,44.1671 358.5623,43.3108 359.0688,43.1471 359.6236,43.3453 360.5386,44.3019 361.0021,44.2856 361.5487,44.4514 362.0868,44.7505 363.0595,44.0097 363.6669,44.1409 364.0522,44.3891 365.3258,44.4043 365.7009,44.6526 366.1267,45.0659 367.7264,45.14 368.6212,45.1815 369.0549,45.0396 369.2249,44.9839 371.1177,45.0174 371.8284,44.7885 372.2462,44.3571 372.5958,43.996 373.2867,43.9984 373.9718,44.2244 374.0861,44.2621 374.7239,44.3954 377.5144,44.4776 377.9632,44.365 378.0079,43.9458 378.0353,43.6886 378.0153,43.5902 377.9124,43.0833 378.2881,42.4684 378.7149,42.4607 379.1887,42.4522 379.7773,42.5327 380.9103,42.8456 382.0531,42.6665 382.5179,42.9969 382.7109,43.4253 383.1451,43.9039 383.7099,44.1242 384.1345,44.2102 384.2494,44.2335 384.9602,44.1684 385.4747,43.7546 386.1633,42.9303 386.8648,42.2268 388.1734,40.9144 388.5965,40.4901 390.7623,39.1077 391.8239,38.7427 392.5548,38.3483 393.0759,37.9864 393.1229,37.9538 393.5482,37.508 394.306,37.3768 394.3719,37.3844 394.8728,37.4423 395.4415,37.3426 396.0571,37.1278 396.5336,36.8334 397.009,36.1587 396.9866,35.8606 396.9694,35.6324 396.6549,35.1196 396.6127,35.0184 396.4012,34.5113 396.5931,34.0187 396.8015,33.935 397.3034,33.7333 398.0014,33.3198 398.3992,32.9398 398.6799,32.5083 398.804,31.7506 399.1668,31.453 399.5821,31.7642 400.2285,32.0093 401.2646,32.0039 401.8843,32.1174 402.7799,32.0404 402.9786,32.0234 403.6812,31.7996 404.008,31.2033 405.7111,30.083 406.1254,29.605 406.3059,29.1869 406.607,28.7564 407.0541,27.5986 407.36,27.2266 407.7726,26.9017 408.7064,26.3542 409.2338,25.9419 409.749,25.4256 409.8993,24.7594 409.8215,24.6322 409.6212,24.3047 409.5959,24.2633 409.543,23.962 409.5147,23.8007 409.6481,23.2403 410.0912,22.8982 410.7021,22.6903 411.0809,22.6583 411.8448,22.5938 412.9475,22.2643 413.5373,22.2701 414.0089,22.6071 414.5886,22.8463 415.1554,22.8692 415.6642,22.5783 415.7939,22.0808 415.652,21.5795 414.5306,19.6415 414.3147,19.0355 414.3103,19.0021 414.1521,17.8069 414.2692,17.5325 414.3258,17.3997 414.9424,16.4908 415.8773,15.7181 417.5734,15.0688 417.9875,14.7883 418.1234,14.6963 418.7516,14.4068 420.5652,13.3848 421.6754,12.9342 422.2567,12.8677 422.7688,12.809 423.2855,12.3681 423.4258,11.3394 423.628,10.8539 423.9229,10.4717 424.3475,10.3048 425.5868,10.3257 427.6509,9.8989 428.1182,9.8986 428.5317,9.6952 429.0663,9.778 429.8693,10.518 430.3625,10.8635 430.9004,11.1429 432.0838,11.0212 432.5015,11.1561 433.4734,11.838 434.2229,12.6145 435.1125,14.0137 435.2949,14.3948 435.6268,15.088 435.8918,15.4827 436.4276,15.8598 438.1888,16.137 438.7674,16.324 439.7923,17.0146 440.0345,16.9915 440.336,16.9622 440.654,16.616 440.7869,16.3905 441.1177,15.8292 441.2586,15.2687 441.2481,14.8213 441.1267,14.2859 440.9885,13.676 440.5809,12.5103 440.4693,11.8707 440.8842,11.4403 442.1063,10.5868 442.1197,10.5313 442.5238,8.859 442.7987,8.3286 443.4899,8.2217 444.4382,8.2617 445.4405,8.1566 445.5409,8.0451 445.8463,7.7062 446.3518,7.6417 447.4893,8.0496 447.6703,8.1145 448.4072,8.9798 448.8238,9.3268 449.3682,9.3954 450.4426,9.4314 450.8729,9.2501 451.6328,8.7763 452.4125,8.5121 453.3004,8.3228 454.3079,8.3112 454.6934,8.2285 455.0503,8.0788 455.3064,7.8622 455.4228,7.5152 455.5128,7.0412 455.7209,6.7302 455.8209,6.4729 455.9014,6.3968 456.1627,6.1395 456.4832,5.9034 456.8141,5.707 457.2901,5.1572 457.575,4.75 457.7309,4.601 457.8122,4.5121 457.9396,4.2665 458.4305,3.9818 458.8889,3.8058 459.2617,3.7285 459.5602,3.6112 459.8686,3.6128 460.0822,3.4653 460.2534,3.2978 460.4245,3.1303 460.6378,3.0422 460.9577,2.9052 461.372,2.9866 461.5417,3.0518 461.8186,2.9988 462.0949,3.025 462.3537,2.8851 462.7237,2.8152 463.1287,2.6687 463.5226,2.6014 464.0232,2.4851 464.4386,2.3782 464.7191,2.4848 465.2051,2.5577 465.4879,2.5605 465.7774,2.5956 465.9321,2.5048 466.1562,2.3895 466.3431,2.2493 466.4772,2.0543 466.6884,1.8523 466.6339,1.6365 466.6112,1.411 466.7489,1.065 466.9099,0.8057 467.1609,0.6213 467.4095,0.3971 467.668,0.3019 467.8094,0.2109 467.9775,0.1102 468.1506,0.069 468.4669,0.0756 468.6928,0.099 468.9295,0.0853 469.073,0.091 469.197,0.1804 469.3307,0.1369 469.3734,-0.0 469.5836,0.8707 469.7583,1.1984 469.8066,1.7269 470.2654,2.8499 470.6245,3.5143 471.5754,4.6137 472.1143,4.9879 473.0477,5.8991 473.2384,6.2125 473.2717,6.2987" stroke="black" /><polygon fill="none" points="149.1484,120.9253 148.8821,121.4826 148.6515,121.7567 148.1892,122.0543 147.6747,122.4958 147.2659,122.9908 147.0597,123.2923 146.7826,124.0123 146.5799,124.4181 146.0507,124.9246 145.6924,125.3286 145.3309,125.997 145.3037,126.4695 145.4358,126.6547 145.8278,127.014 145.8747,127.1456 145.8377,127.2841 145.7095,127.3684 145.3488,127.9686 145.1664,128.4335 144.9854,128.6693 144.0486,129.6582 143.9107,129.9591 143.798,130.4968 143.6659,130.8832 143.467,131.2113 141.7928,132.8896 140.844,133.5893 140.6113,133.8699 139.5472,134.713 139.1823,135.0377 138.9051,135.1795 138.4436,135.3124 138.0727,135.5971 137.7134,136.0604 137.6257,136.3092 137.3068,137.7141 137.1979,137.9361 136.8816,138.3006 136.7941,138.5689 136.6876,139.1789 136.5768,139.5744 136.257,140.2605 135.9903,141.2108 135.8089,141.6032 135.3542,142.2624 135.1937,142.7675 134.8543,143.3675 134.5117,144.1272 134.2171,144.5047 133.9444,145.1141 133.6762,145.545 133.3433,146.2443 133.2278,146.4407 132.942,146.7395 132.632,147.177 132.472,147.5169 132.2774,148.9294 132.2036,149.1979 132.0237,149.4458 131.9213,149.6819 131.8803,150.1338 131.8236,150.3656 131.4768,150.8884 131.4124,150.9855 130.9257,151.4205 130.861,151.5516 130.7083,152.3848 130.7559,152.5954 130.8314,152.7482 130.8371,152.9071 130.73,153.5369 130.4585,153.7701 130.0912,154.2725 129.6108,154.8137 129.408,155.1658 129.3123,156.0341 129.3075,156.0476 129.2024,156.3483 128.9357,156.7334 128.8914,156.8904 128.9748,157.0162 129.1566,157.1694 129.1907,157.2949 128.9177,157.607 128.754,157.8953 128.5188,158.0373 128.0856,158.1509 127.8222,158.3122 127.5221,158.566 127.3175,159.0692 127.1445,159.3433 127.1276,159.56 127.0475,159.7236 126.8254,159.9379 126.7667,160.1147 126.7671,160.4454 126.7673,160.6687 126.7675,160.7957 126.7416,160.8775 126.7158,160.9593 126.6589,161.0001 126.052,166.6699 122.2972,165.2242 122.0237,165.1123 120.3311,164.5834 119.2981,164.2758 119.289,164.2731 107.4144,162.4437 102.4617,164.4937 96.6892,166.8831 93.2883,166.5756 91.7679,166.4381 86.4167,162.3627 74.6355,153.3905 67.571,150.9907 66.3818,151.112 50.1898,152.7624 49.986,152.8587 45.6575,154.9005 35.883,163.0823 35.0205,163.3851 32.9075,164.1268 31.2012,165.052 28.9082,166.5877 26.0947,170.2337 26.0239,170.1509 23.6705,172.4383 19.7985,175.4133 19.3192,175.6452 17.0421,176.5301 14.9576,177.3404 12.8996,178.591 9.539,183.5973 9.0431,184.2154 8.1378,184.826 7.4559,182.8199 6.7829,179.87 5.6607,177.3656 3.1916,172.8561 1.795,171.5154 0.5123,169.0039 0.388,168.6932 0.0,167.2488 0.0102,167.0102 0.057,165.9186 0.0925,165.0894 0.4362,162.9079 0.8199,161.8854 4.4918,157.1338 7.0014,152.3598 7.8241,151.0728 8.7804,149.788 10.4192,147.8973 11.7111,146.5121 12.7031,145.4483 13.234,144.879 18.9949,140.5311 20.3957,139.8057 21.457,139.391 22.0248,138.9328 25.6297,137.0557 26.1863,137.0451 31.218,135.8493 32.6168,135.2731 34.9031,134.6025 35.914,133.7112 37.5655,131.8253 38.0728,130.4401 38.0863,130.4031 38.1301,130.2835 38.6292,128.9206 39.6946,127.3483 40.656,124.5838 44.4227,122.2862 47.5403,121.0721 55.4482,118.4931 55.4586,118.4897 55.469,118.4863 56.4924,118.1526 59.0234,117.3556 59.2225,117.2929 62.4981,116.2613 64.0879,115.7354 76.9417,111.483 78.3348,111.0221 80.894,110.1751 81.753,109.8908 91.9575,105.7385 93.0808,104.8745 98.5028,96.1983 99.392,95.4397 106.3316,89.519 109.0533,87.1969 110.0496,86.3467 113.6509,82.6973 132.7868,69.9535 140.5421,67.003 140.6482,66.9626 151.2684,59.4909 165.2099,55.5497 165.7747,55.311 167.1576,59.0687 167.155,59.3484 167.0569,59.6678 166.7746,60.4426 166.7491,60.7989 166.7752,61.2944 166.7141,62.2911 166.4123,64.9851 166.1849,66.211 166.1224,67.904 166.0933,68.5673 165.961,68.9522 165.8292,69.2876 165.774,69.6406 165.7134,69.9929 165.6787,70.5817 165.7865,70.9761 166.2411,72.283 166.3316,72.7296 166.3627,73.25 166.3016,73.7581 166.2663,74.3604 166.3034,74.8307 166.5496,75.3701 167.0323,76.1388 167.235,76.8609 167.3582,78.3014 167.4695,78.9046 167.4735,78.9266 167.4912,79.0223 167.7492,79.7183 168.3858,80.5812 168.4464,81.4314 168.5399,81.7726 168.9416,82.3129 169.2172,82.7734 169.5681,83.9944 170.0458,84.7122 170.5034,85.279 172.1636,86.4084 172.3854,86.607 172.7996,87.265 173.6778,87.9152 174.2133,88.5142 174.7672,89.2267 175.1727,89.4925 175.8857,89.7481 176.701,89.782 176.7383,89.7913 177.2471,89.9182 178.2898,90.4319 179.0179,90.7009 181.2231,90.919 181.5303,91.0529 181.726,91.1855 181.7105,91.3291 181.4691,91.5491 180.9172,91.8441 180.5062,92.1668 180.1126,92.6266 180.1065,92.6337 179.6477,93.4199 179.3114,94.4641 178.972,95.8338 178.8758,96.066 178.7264,96.4253 178.5303,96.7806 178.5243,96.7915 178.5183,96.8024 178.453,96.9207 178.0411,97.3346 177.4607,97.7589 177.3819,97.8164 175.4449,99.2323 175.045,99.7912 174.6992,100.4093 174.6759,100.451 174.1903,101.319 173.6206,101.9412 172.9972,102.3148 172.0786,102.7109 170.5851,102.9045 169.579,102.8944 169.4715,102.8933 169.396,102.8926 169.3739,102.8924 169.0807,102.8894 168.4683,102.9166 167.8478,103.0804 167.4924,103.3901 167.3477,103.729 167.338,103.7842 167.3314,103.8219 167.2587,104.2382 167.0696,104.6025 166.583,104.9732 166.5485,104.9995 166.4594,105.0674 164.9345,105.6146 164.9109,105.6183 164.8841,105.6225 163.6944,105.8111 163.0911,106.0093 162.5812,106.3838 162.1958,106.8115 161.9511,107.286 161.9407,107.3062 161.4037,108.3475 161.1317,108.7499 161.1011,108.7839 161.0817,108.8053 160.7625,109.1591 160.7426,109.1812 160.6411,109.2937 159.9149,109.7987 159.1849,110.1246 158.9162,110.1745 158.2861,110.2076 157.6347,110.3443 157.1942,110.5545 156.9261,110.7998 156.9052,110.8188 156.7442,110.966 156.1867,111.4462 155.1497,112.2323 154.9652,112.4154 154.9279,112.4524 154.7767,112.7143 154.6612,113.4616 154.5748,113.6183 154.2263,113.7992 154.0832,113.9488 153.9316,114.2166 153.7381,114.4318 153.189,114.8266 152.4198,115.5625 152.0894,115.9795 151.5989,116.8955 151.4745,117.4249 151.1288,118.8954 150.8822,119.4125 150.5098,119.8154 150.1032,120.0875 149.6842,120.2808 149.4526,120.4439 149.3367,120.5897 149.2664,120.6785 149.1484,120.9253" stroke="black" /><polygon fill="none" points="167.0569,59.6678 167.155,59.3484 167.1576,59.0687 165.7747,55.311 167.62,54.5299 169.2516,53.5391 169.5749,53.2421 171.353,51.609 172.7128,50.0359 173.779,48.6921 175.185,47.7478 177.4329,46.5157 180.49,45.5645 184.3303,44.3696 185.221,43.9406 186.8506,42.7875 188.5825,40.5777 190.7078,38.3996 193.5336,36.6507 196.511,35.3657 196.8471,35.2757 202.7044,33.7072 202.9074,33.6528 203.4593,33.505 204.6792,33.1785 207.0601,32.3907 210.2414,30.7031 210.9209,30.0785 213.9298,28.2919 217.8832,27.0375 219.9103,26.8692 221.1467,26.9661 221.2713,26.9171 222.0579,26.6074 222.8474,26.2965 224.9392,24.9769 225.2622,24.8115 226.0731,24.3963 226.1018,24.3816 226.8775,23.9847 228.1525,22.5442 229.3298,18.5642 229.702,18.0342 236.7338,13.6095 237.432,13.0756 238.2571,12.4447 238.3706,12.3579 240.5873,12.4517 241.2596,12.4506 241.9698,12.4251 243.0338,12.2599 243.2871,11.9609 243.5413,11.7377 243.6813,11.4879 243.937,11.3025 244.0955,11.2532 244.7627,11.2113 245.4602,11.0575 245.9884,10.8411 246.6415,10.67 247.0177,10.6818 247.24,10.8038 247.5828,11.307 247.6973,11.4319 247.9396,11.6056 248.1983,11.6686 248.6723,11.6354 248.8141,11.6699 248.9731,11.7609 249.1208,11.8447 249.3229,12.0912 249.5957,12.1518 249.8002,12.3864 249.9162,12.3919 250.2518,12.5637 250.2926,12.6054 250.4559,12.6387 250.6307,12.5574 250.7991,12.5443 251.1533,12.6988 251.3584,12.6725 251.6292,12.7116 251.8834,12.6457 251.9946,12.7008 252.173,13.0694 252.4538,13.2671 252.9323,13.6994 253.0643,13.8663 253.464,14.2848 254.0547,14.8088 254.1037,15.1918 254.2968,15.5828 254.3976,15.9017 254.4476,16.33 254.5444,16.5107 254.7266,16.7226 255.3193,17.02 255.4929,17.2097 255.8367,17.5647 255.9182,17.768 256.1272,18.1364 256.1674,18.2602 256.1788,18.2953 256.29,18.3537 256.8327,18.3307 257.0331,18.5008 257.2242,18.5371 257.3604,18.5055 257.4915,18.5638 257.607,18.5553 257.749,18.5744 257.8456,18.5755 258.077,18.8862 258.5946,19.2522 258.8267,19.4523 258.9737,19.6467 259.1582,19.8118 259.3787,20.1059 259.7071,20.2375 260.0765,20.5328 260.3679,20.6542 260.6093,20.7075 260.9135,20.7532 261.0738,20.828 261.2952,21.0088 261.459,21.1143 261.5679,21.4024 261.6744,21.4747 261.9747,21.6783 262.2497,21.8392 262.446,21.8953 262.7114,21.9471 262.9879,21.9594 263.2369,22.045 263.3186,22.0735 263.4156,22.0916 263.6627,22.0459 263.7296,22.0335 263.9437,22.126 264.213,22.3215 265.2707,22.9446 265.6946,23.1117 266.6331,23.5179 266.9464,23.6441 267.3828,23.7131 267.8775,23.9919 268.0966,24.1039 268.3029,24.3664 268.6018,24.5309 269.242,24.6483 269.5486,24.8367 270.0091,25.0019 270.2211,25.1426 270.3824,25.1762 270.7302,25.1323 271.1349,25.2473 271.786,25.1697 272.853,25.4901 273.0464,25.4595 273.3774,25.2531 273.4856,25.224 273.6288,25.2282 273.8711,25.3212 274.2407,25.5761 274.7899,25.8542 274.9987,25.9968 275.2076,26.1393 275.4346,26.3252 276.1827,27.0726 276.327,27.1337 276.5104,27.0035 276.6855,27.0728 276.8087,27.2667 276.9878,27.7358 277.0931,27.8196 277.377,27.8141 277.6696,27.9474 277.9035,27.9836 278.0254,28.0341 278.448,28.2038 278.7884,28.3525 279.1188,28.4796 279.4423,28.6251 279.778,28.6967 280.1278,28.6991 280.3608,28.7954 280.4318,28.9554 280.6844,29.2795 281.2906,29.8844 281.5095,30.1823 281.4076,30.3899 282.1593,31.5552 282.2902,31.5848 282.4023,31.5323 282.4823,31.5082 282.5727,31.5188 282.9904,31.7847 283.6972,31.8747 284.2078,32.0259 284.517,32.0128 284.8222,32.0693 285.0403,32.0367 285.4361,31.9583 285.6931,31.7821 286.0226,31.8195 286.1616,31.9393 286.3724,32.0303 286.6563,32.208 286.7695,32.2417 286.8706,32.1582 287.0256,32.0901 287.1832,32.1486 287.4406,32.0786 287.7967,32.1162 287.9941,32.3008 288.3194,32.3534 288.3946,32.405 288.5782,32.7035 288.7119,32.8295 289.3567,33.2533 289.5976,33.3752 289.7498,33.4161 289.9172,33.4604 290.0533,33.5446 290.2823,33.7676 290.5401,33.9107 290.7891,34.2102 290.9747,34.3524 291.5934,34.4865 291.8298,34.6486 292.3375,34.8411 292.4508,35.2375 292.5006,35.2936 292.7546,35.3574 292.9678,35.5029 293.4246,35.4942 293.7234,35.6379 294.1205,35.7167 294.5393,35.9854 294.7531,36.3014 294.8255,36.3461 295.0461,36.3431 295.2668,36.3402 295.3866,36.3932 295.7985,36.7042 296.1119,36.8338 296.5176,37.1544 296.9578,37.6624 297.6768,38.4921 297.8523,38.7871 297.9113,39.017 297.9703,39.2469 298.0488,39.4218 298.2131,39.637 298.2776,39.9716 298.5056,40.2223 298.5242,40.383 298.6056,40.4799 298.6281,40.7548 298.6942,40.9301 298.9644,41.103 299.144,41.3595 299.2713,41.4427 299.6045,41.9677 299.6689,42.3208 299.8996,42.7017 299.91,43.0626 300.0908,43.2384 300.0963,43.3447 300.0385,43.5677 300.2465,43.688 300.2394,43.9158 300.4233,44.1738 300.5228,44.2096 300.7209,44.2161 300.8696,44.3432 300.9235,44.468 301.0345,44.5185 301.2631,44.4957 301.3673,44.5156 301.9544,44.6865 302.5456,44.7523 302.751,44.9508 302.8462,44.9561 303.0589,44.8452 303.2623,44.878 304.1771,45.2849 304.5829,45.3503 304.9137,45.4459 305.1111,45.6511 305.5317,45.824 305.982,46.1141 306.4104,46.2586 306.4971,46.3248 306.7063,46.6779 306.8798,46.7798 307.0836,46.8115 307.1523,46.8782 307.2514,47.0815 307.3379,47.1517 307.5175,47.1442 307.6119,47.2271 307.8009,47.2688 307.8487,47.3275 307.9376,47.6241 307.9834,47.6371 308.205,47.5334 308.2835,47.5342 308.6374,47.7417 308.8347,47.937 309.0513,48.0097 309.4197,48.0439 309.8738,48.2721 309.9986,48.2898 310.2574,48.2489 310.4773,48.2955 310.812,48.2742 310.9971,48.337 311.2868,48.5343 311.4696,48.5323 311.5644,48.5001 311.7802,48.5593 312.063,48.5158 312.3537,48.5699 312.7035,48.7922 313.0831,49.388 313.143,49.4325 313.6029,49.4357 313.8661,49.5474 314.1294,49.5578 314.2851,49.7565 314.3961,49.8369 314.71,49.9003 315.0611,49.9202 315.4404,50.0652 315.8368,50.1705 316.1434,50.3261 316.7804,50.8003 316.9492,50.8656 317.423,50.898 317.6827,50.8165 317.9837,50.6175 318.4932,50.1703 318.6334,50.1 319.2601,50.0044 319.4143,49.9425 319.645,49.7807 319.9228,49.7605 320.6448,49.9564 321.1172,49.9927 321.4944,49.9784 321.9373,49.8623 322.0021,49.8364 322.2227,49.748 322.9292,49.3885 323.2474,49.2899 323.4511,49.2804 323.6108,49.2968 323.9541,49.4214 323.9699,49.4368 324.3334,49.794 324.6423,49.8778 325.4635,49.9718 326.0047,49.9965 326.646,49.969 326.7886,49.946 327.6742,49.5641 328.3454,49.1098 327.7522,50.4406 327.4812,50.8059 326.7408,51.5847 326.2174,52.2881 326.155,52.4464 326.0495,53.3367 325.9743,53.4843 325.5365,53.9442 325.4105,54.1934 325.3966,54.4371 325.4339,54.6693 325.58,54.977 325.8453,55.2762 326.1556,55.5545 326.3018,55.7302 326.4024,55.9641 326.6814,57.2299 326.7883,58.0698 326.765,59.4374 326.8464,60.526 326.9505,61.057 327.0024,61.577 327.0098,62.0771 326.9851,62.2995 326.9218,62.4736 326.7679,62.6945 326.4856,62.9247 325.9753,63.1715 325.0083,63.4256 324.8101,63.5298 324.6525,63.7415 324.5134,64.2133 324.3451,64.5896 324.2185,64.7624 324.0027,64.8731 323.7426,64.9292 323.2189,65.4371 322.2826,65.7972 321.6176,65.9275 321.2202,66.1283 320.7862,66.5895 320.529,67.0671 320.0705,68.2614 320.0403,68.6135 320.2403,69.7131 320.2061,70.2015 320.2736,70.7782 320.46,71.3606 320.7149,71.9861 321.1997,72.734 321.5062,73.2996 321.7098,73.5863 321.9424,74.4584 322.269,75.354 322.3035,75.4486 322.4374,75.816 322.4719,76.1628 322.3882,76.6583 322.3763,76.975 322.5921,78.1968 322.6249,78.7444 322.56,78.8337 322.3937,78.9785 322.326,79.1068 322.5087,79.5317 322.3873,79.7066 322.248,79.7913 322.1963,79.933 322.1047,80.0511 322.0366,80.2289 321.8601,80.3167 321.9626,80.471 321.9393,80.6938 321.9821,80.9789 321.8587,81.3915 321.9628,81.5558 321.9546,81.6894 321.9378,81.7834 321.9635,81.8826 322.0535,81.9502 322.089,82.151 322.6492,82.7775 322.7904,83.0547 322.8455,83.3525 322.8148,83.8873 322.8329,84.2826 322.9171,84.6437 323.1413,85.2625 323.1876,85.6526 323.1829,85.8353 323.0239,86.7222 323.0254,86.8993 323.0966,87.4566 323.2336,87.9878 323.4793,88.4086 323.7556,89.0058 324.1368,90.1369 324.3103,90.5009 324.4721,90.7282 324.6921,90.9295 324.9822,91.334 325.2185,91.4834 325.3533,91.6182 325.3885,91.8485 325.2892,92.2543 325.3223,92.4612 325.3936,92.5266 325.7987,92.7018 326.0074,92.9052 326.609,93.298 326.9622,93.5896 327.2646,94.2283 327.3357,94.3108 327.692,94.5122 327.8779,94.7062 327.9613,94.8649 328.2813,95.2144 328.7785,95.9971 329.2794,96.6783 329.5343,97.2266 329.5721,97.3865 329.5794,97.8402 329.6435,98.1715 329.9298,98.8225 330.0176,99.1466 329.9727,99.5107 329.9909,99.7744 330.0405,99.9085 330.2324,100.2117 330.4797,100.9681 330.6394,101.2951 331.062,101.7228 331.2253,102.1356 331.4373,102.3757 331.5128,102.57 331.5673,102.6244 331.8733,102.7687 332.0737,102.9797 332.212,103.6041 332.1146,103.8779 332.0849,104.0994 332.1659,104.3917 332.1542,104.639 332.235,104.7796 332.5747,105.0091 332.841,105.5527 333.318,105.9916 333.7361,106.4407 334.0153,106.8377 334.2324,107.3865 334.3543,108.3154 334.5122,108.7545 334.6459,109.3651 334.7887,109.6751 335.125,110.1515 335.2428,110.3897 335.4054,111.2382 335.5134,111.3673 335.7825,111.5239 335.8443,111.5965 336.0615,112.1219 336.1532,112.4677 336.2056,113.1509 336.3018,113.3032 336.6543,113.5539 336.9975,113.9644 337.0681,114.3765 337.1978,114.6558 337.3217,114.8126 337.3929,115.1623 337.528,115.2578 337.8077,115.5778 337.9995,115.6984 337.9539,115.8674 338.0091,116.1307 337.9232,116.2541 337.8865,116.4328 337.7512,116.5653 337.741,116.628 337.8159,116.8252 337.7376,117.0406 337.765,117.3789 337.5987,117.5845 337.6088,117.7578 337.7455,118.0304 337.9207,118.1548 337.9348,118.2063 337.8654,118.3943 337.8907,118.4891 337.858,118.6731 338.0563,118.8311 338.1821,119.1548 338.4765,119.4601 338.5976,119.9395 338.7708,120.1811 338.9489,120.2854 339.1434,120.2338 339.3003,120.2863 339.3278,120.3854 339.2872,120.5017 339.3073,120.6028 339.3675,120.6291 339.5918,120.6098 339.8403,120.6784 340.2964,121.0138 340.6653,121.2406 340.6951,121.3015 340.6329,121.4954 340.6489,121.5594 340.9347,121.6891 341.0338,121.787 341.1813,122.0966 341.3782,122.3593 341.4012,122.4416 341.3648,122.6638 341.389,122.7537 341.5085,122.8971 341.5852,123.1266 341.6286,123.518 341.6668,123.5669 342.0841,123.7787 342.4628,124.3671 342.6761,124.4792 342.8139,124.6148 342.942,124.9536 343.2201,125.2502 343.3679,125.5483 343.6506,125.8679 343.7657,126.0848 344.0048,126.3167 344.0797,126.3661 344.1537,126.3404 344.3216,126.3363 344.3523,126.4432 344.4163,126.5089 344.4152,126.6369 344.4632,126.7332 344.5065,126.7015 344.5288,126.7777 344.6117,126.8049 344.6429,126.8531 344.7242,126.9084 344.7308,126.9711 344.7779,127.0087 344.8719,127.0854 344.9031,127.1296 344.8616,127.1853 344.8563,127.2372 344.8991,127.2615 344.9982,127.2449 345.0381,127.2759 345.0158,127.3757 345.015,127.473 345.0325,127.6104 345.0816,127.7414 345.357,127.8982 345.3093,127.9563 345.4931,128.1069 345.5506,128.2659 345.5483,128.3739 345.6445,128.3626 345.7218,128.3765 345.7586,128.442 345.7705,128.5527 345.9004,128.635 346.1064,128.7058 346.2428,128.6921 346.3591,128.6796 346.5196,128.6981 346.6199,128.7095 346.6188,128.8481 346.6656,128.9058 346.737,128.9516 346.7161,128.8675 346.8738,128.8833 347.0196,128.9483 347.1157,128.953 347.1384,128.9811 347.1208,129.0223 347.0789,129.0607 347.0884,129.1234 347.1336,129.2064 347.1718,129.2799 347.2578,129.4538 347.3475,129.7077 347.4348,129.735 347.4931,129.7914 347.5647,129.8093 347.6303,129.8564 347.7021,129.8622 347.7345,129.9238 347.6757,129.918 347.6423,129.9658 347.6691,130.0193 347.7336,130.0264 347.7575,130.0919 347.8078,130.0829 347.8253,130.0484 347.8731,129.9834 347.9897,129.9403 348.0038,129.9733 348.0387,130.0833 348.0982,130.181 348.1799,130.1909 348.2679,130.2995 348.3182,130.2905 348.3072,130.2358 348.336,130.2133 348.4179,130.2059 348.5052,130.2226 348.5475,130.3215 348.5564,130.4508 348.7731,130.4457 348.8165,130.3981 348.8539,130.3943 348.9107,130.6373 348.9649,130.671 349.0453,130.6676 349.1215,130.6455 349.1423,130.5577 349.1886,130.5114 349.1963,130.614 349.2591,130.6518 349.3714,130.6073 349.4587,130.6279 349.5114,130.6789 349.6176,130.6784 349.7404,130.7486 349.8089,130.7864 349.8707,130.7682 349.9692,130.8302 349.9641,130.9328 350.081,131.0176 350.1328,130.9966 350.0859,130.9403 350.1091,130.9125 350.1948,130.9611 350.2865,130.9711 350.3587,131.0543 350.4234,131.0787 350.463,131.1456 350.4625,131.2082 350.3717,131.2569 350.2333,131.3346 350.2344,131.3799 350.3925,131.3464 350.438,131.3853 350.4188,131.4519 350.5864,131.4904 350.6621,131.6975 350.746,131.7085 350.8285,131.7328 350.8792,131.7308 350.9176,131.7974 350.9623,131.881 351.0504,131.913 351.0721,131.953 351.1408,131.9764 351.189,131.9574 351.2265,131.9686 351.2225,131.9902 351.1728,132.0321 351.1841,132.0744 351.2136,132.1229 351.1897,132.1879 351.2189,132.2677 351.2301,132.3257 351.2779,132.3524 351.3469,132.3355 351.3825,132.3704 351.3949,132.4345 351.4541,132.3896 351.5716,132.4091 351.6143,132.4414 351.536,132.5501 351.6269,132.6614 351.829,132.6828 351.9421,132.7103 352.0419,132.6044 352.1046,132.6675 352.1473,132.7078 352.151,132.7824 352.162,132.8372 352.2193,132.8429 352.2476,132.8898 352.3293,132.9063 352.363,132.8173 352.4243,132.8657 352.4648,132.822 352.5308,132.8185 352.5391,132.8652 352.5298,132.9397 352.5879,133.0281 352.6412,133.0018 352.6988,132.9756 352.7137,132.9091 352.7983,132.9203 352.9077,132.8794 352.9088,132.9198 352.9904,132.931 353.0447,132.9594 353.125,132.9706 353.1028,133.0438 353.0963,133.1424 353.0329,133.1806 353.054,133.2274 353.1424,133.288 353.1997,133.3004 353.2645,133.2689 353.3057,133.3291 353.3253,133.3852 353.3445,133.4854 353.3899,133.5537 353.537,133.7508 353.5582,133.8521 353.453,133.906 353.4325,133.9565 353.4388,134.0658 353.533,134.1278 353.4888,134.2581 353.4766,134.3514 353.4232,134.3883 353.4336,134.5177 353.5388,134.8183 353.6526,135.1097 353.76,135.3064 354.0507,135.2686 354.2193,135.2466 354.4174,135.6589 354.6454,136.1606 354.8371,136.3994 355.2475,136.8803 354.0349,138.4662 352.8622,140.3657 351.947,142.602 350.8657,144.0059 350.433,145.0233 349.2686,152.0597 349.1301,152.3065 347.4766,155.252 345.9846,159.6762 345.428,163.95 345.4176,164.6849 345.4049,165.5725 345.6303,167.4857 346.4631,171.3981 347.4833,173.9767 347.8997,178.6047 347.5475,179.8226 345.0624,181.321 343.8397,181.8664 338.036,183.7093 335.8392,184.0731 332.7829,185.0029 331.3665,185.726 329.7637,186.8232 328.297,188.0578 326.8079,189.752 326.2292,189.9618 325.005,190.7826 323.5257,191.0558 322.8693,190.6832 322.8682,190.6819 321.7764,189.3603 321.3499,187.0748 321.4105,184.0692 321.2607,181.3797 321.5129,179.0199 320.9658,177.6324 320.5071,175.7404 318.9691,172.8823 317.1266,170.7696 314.589,169.5573 313.379,169.1448 309.6465,169.5016 305.9334,170.3561 304.9859,170.6516 303.0697,170.9542 299.8805,173.0332 299.4473,173.401 298.9631,173.8122 298.7007,173.9342 296.6697,175.4857 295.1447,176.442 293.9687,176.8767 293.3443,176.9422 290.5149,176.8311 288.2091,176.3769 285.4851,175.5998 282.3948,175.4871 280.0266,174.8644 277.2974,174.7066 273.8907,174.2453 270.2932,174.2155 269.6165,174.0565 265.9628,173.1977 261.8017,171.5998 260.4123,170.9228 257.847,170.0628 256.8913,169.7424 254.2216,168.4235 251.0611,167.3848 249.1898,166.7697 246.8053,166.1339 245.1344,166.018 244.0116,166.1512 242.1953,166.5397 242.4689,165.8325 242.5117,165.5662 242.422,165.0069 242.3225,164.7966 242.1953,164.6445 242.0933,164.3684 242.1415,164.1448 242.2475,164.0227 242.259,163.9947 242.3514,163.7689 242.369,163.5999 242.1585,163.4183 242.0361,163.1217 242.0304,163.0016 242.078,162.5928 242.199,162.4794 242.2405,162.3516 242.343,162.2285 242.3415,162.0999 242.2363,161.9176 241.984,161.0111 241.8071,160.8509 241.6015,160.4448 241.1735,160.1867 240.8831,160.1177 240.546,159.8686 240.4403,159.7646 240.1104,159.2064 240.0445,158.8269 240.0315,158.3002 239.9401,157.9246 239.9362,157.7067 240.0533,156.826 240.0421,156.7135 239.8193,156.2516 239.7789,156.0273 239.833,155.798 240.0344,155.3857 240.0147,154.5796 239.9641,154.4564 239.5543,153.9124 239.245,153.2292 239.0409,153.0136 238.8202,152.9019 238.635,152.6654 238.6235,152.5852 238.9202,152.1414 239.2885,151.2855 239.7104,150.7227 240.0284,150.0578 240.1206,149.7808 240.1915,148.8646 240.2913,148.1502 240.2726,147.8983 240.3396,147.6788 240.3228,147.5144 240.3746,147.2598 240.3186,147.0415 240.1211,146.7792 240.0498,146.5781 240.0231,146.4142 240.0754,146.1142 240.0579,145.7797 239.8505,145.3012 239.7757,144.9149 239.6634,144.6379 239.5184,144.4435 239.0431,144.089 238.8455,143.8464 238.6522,143.5126 238.4606,143.2666 238.3536,142.8879 237.9935,142.4086 237.8928,142.3355 237.4633,142.1836 236.854,141.5622 236.3536,141.2418 235.9958,140.772 235.7532,140.696 235.512,140.3547 235.3988,140.2702 235.3373,139.9704 235.2141,139.6579 234.9151,139.4093 234.7944,139.2311 234.758,138.884 234.8736,138.3836 234.806,137.8419 234.956,137.2452 235.2393,136.9667 235.3843,136.3032 235.5461,135.8725 235.9383,134.5906 236.1478,134.1821 236.2414,133.7712 236.7835,132.5227 236.9981,131.6416 237.1985,130.4461 237.0534,129.8841 236.6818,129.4134 235.9341,128.7291 235.0629,128.1363 234.2408,128.0878 234.0668,128.0828 234.0666,128.035 233.9918,127.0475 233.8922,126.381 233.6188,125.7021 233.5452,125.3892 233.1578,124.6958 233.0498,124.349 233.0348,123.9503 233.1579,122.9635 233.6519,120.3013 233.9943,117.7479 234.0845,116.2589 233.9316,114.9157 233.6271,113.7355 233.1207,112.2238 232.0169,109.7482 231.87,109.4194 231.7214,109.0863 230.9528,107.8495 230.3637,107.186 230.0359,106.6454 230.0397,106.1781 230.304,105.7994 231.3405,104.5707 233.0974,102.2139 233.9864,100.8124 234.7491,99.1399 235.114,97.9994 235.1562,97.5495 235.0493,97.1329 234.7737,96.836 234.4226,96.556 233.9788,96.344 228.5554,95.1857 227.4438,94.7426 226.8776,94.2783 225.8452,93.2647 224.8861,92.4766 223.2195,91.6121 221.3951,90.8069 221.1554,90.5798 220.4814,89.2916 219.4573,87.6019 218.5016,86.5194 218.0594,86.1516 217.4651,85.9899 216.963,85.9688 216.4029,86.1365 215.691,86.5623 214.0412,87.6901 212.9042,88.3686 212.5865,88.4867 212.4753,88.4511 212.1643,87.9626 211.8511,87.6318 211.2578,87.4351 210.7014,87.343 210.1045,87.3722 209.7127,87.5077 209.1326,87.796 207.565,88.8376 206.7986,89.1769 206.3141,89.2586 205.8867,89.1505 204.87,88.5693 204.3513,88.3564 202.2592,87.8515 201.8686,87.8477 201.3827,88.0337 199.5838,89.2115 197.4405,91.1123 196.4348,92.1211 195.7539,92.8037 193.1035,95.1335 192.5801,95.3711 191.8718,95.4161 191.352,95.3071 190.9444,95.0954 190.0759,94.5324 189.0224,93.9166 188.127,93.4228 187.6243,93.1451 187.2177,93.0193 186.5666,92.8742 186.2706,92.6645 185.8487,92.2107 185.2764,91.772 184.8317,91.5952 184.5351,91.5224 181.726,91.1855 181.5303,91.0529 181.2231,90.919 179.0179,90.7009 178.2898,90.4319 177.2471,89.9182 176.7383,89.7913 176.701,89.782 175.8857,89.7481 175.1727,89.4925 174.7672,89.2267 174.2133,88.5142 173.6778,87.9152 172.7996,87.265 172.3854,86.607 172.1636,86.4084 170.5034,85.279 170.0458,84.7122 169.5681,83.9944 169.2172,82.7734 168.9416,82.3129 168.5399,81.7726 168.4464,81.4314 168.3858,80.5812 167.7492,79.7183 167.4912,79.0223 167.4735,78.9266 167.4695,78.9046 167.3582,78.3014 167.235,76.8609 167.0323,76.1388 166.5496,75.3701 166.3034,74.8307 166.2663,74.3604 166.3016,73.7581 166.3627,73.25 166.3316,72.7296 166.2411,72.283 165.7865,70.9761 165.6787,70.5817 165.7134,69.9929 165.774,69.6406 165.8292,69.2876 165.961,68.9522 166.0933,68.5673 166.1224,67.904 166.1849,66.211 166.4123,64.9851 166.7141,62.2911 166.7752,61.2944 166.7491,60.7989 166.7746,60.4426 167.0569,59.6678" stroke="black" /></svg>