<?xml version="1.0" encoding="utf-8" ?>
<svg baseProfile="tiny" height="500" version="1.2" width="391.0369" xmlns="http://www.w3.org/2000/svg" xmlns:ev="http://www.w3.org/2001/xml-events" xmlns:xlink="http://www.w3.org/1999/xlink"><defs /><polygon fill="none" points="171.0267,464.4225 170.9642,464.399 169.8019,463.9617 167.7727,463.8857 167.5943,463.7659 167.2205,463.1256 166.1645,461.0356 165.8607,460.7179 164.3903,459.83 161.1887,457.1372 160.403,457.0518 159.6528,457.2878 159.2232,457.1028 158.4782,456.6223 156.0496,454.5905 155.7368,454.4769 154.3384,454.726 153.7363,454.5669 151.572,454.4559 151.186,454.6379 150.2613,456.4976 146.0436,456.1852 145.071,454.4783 144.4962,452.4068 144.6241,450.8598 144.9056,448.201 144.9568,447.6532 145.5026,446.7348 145.4736,445.5668 145.4533,444.7432 145.0841,442.5532 145.0698,441.0637 145.3325,439.4967 144.5154,438.0617 143.7502,437.1553 143.0763,436.4694 141.9128,434.9641 141.5794,434.0215 141.4424,432.2893 141.2522,431.0822 141.05,430.378 141.02,429.7992 140.5034,429.4322 139.9866,427.4911 140.2259,425.8253 140.2781,424.3006 140.1657,423.6088 140.4925,422.1605 141.3854,420.9405 141.6054,420.0116 142.1665,418.1605 143.3972,416.5367 144.635,412.0612 145.3633,410.8738 147.5357,409.1799 149.4738,407.4854 151.2557,404.5865 152.5526,402.1154 154.5748,400.0129 156.6591,399.0706 158.5365,398.9837 160.0878,398.507 165.1027,397.8576 166.774,396.9501 168.0922,396.7651 170.2697,396.9177 171.5196,396.3443 172.1392,394.6767 172.3527,392.7294 173.5164,389.727 173.641,386.3427 174.1133,385.0025 175.429,383.0998 176.1385,381.4316 178.3612,379.6292 181.0869,378.1515 183.9872,375.5866 185.1993,373.8218 187.0997,370.2997 187.5442,368.6342 187.5698,366.8607 187.2177,364.9529 186.6647,363.5716 186.5982,363.4684 186.4347,363.2147 186.1664,362.7987 185.9554,362.4712 186.3989,361.888 186.8685,361.6025 187.1025,361.163 187.4857,359.4662 188.3054,358.0637 188.9223,356.4809 189.482,355.7385 191.1541,355.2624 191.9125,354.3916 192.7099,352.7342 193.1751,351.7676 193.2454,351.678 193.2818,351.6317 193.9799,350.7417 194.3202,350.308 194.3751,350.0983 194.4059,349.9808 194.8467,348.2971 195.3713,348.2888 195.8417,347.9947 197.047,348.0984 197.5968,347.7839 198.1046,347.794 199.3098,349.5325 199.7658,350.502 200.0392,351.0831 201.3562,351.9793 204.8181,352.0184 209.3864,352.2098 211.126,358.0065 213.3495,360.4453 220.448,360.0426 222.2396,361.0998 225.7862,363.092 227.1125,363.582 229.5157,363.6856 231.908,366.8928 233.4189,366.9493 236.9321,366.6572 240.9534,368.9102 242.6266,369.7483 244.3892,369.8017 244.7923,370.0822 244.8683,370.2952 244.9702,370.583 244.1453,371.8553 244.6504,372.8361 245.3853,373.6814 245.3353,374.212 245.7607,375.7525 245.6995,376.7329 246.469,380.8053 248.5849,382.8815 249.2243,385.0555 249.3747,387.4526 248.9282,390.9465 249.254,392.1067 249.051,393.9833 249.4307,395.7599 249.283,397.5165 249.3944,399.134 250.1432,401.3585 250.5986,402.123 251.9781,402.5718 254.8282,402.5131 255.6787,402.7589 257.1466,404.7771 256.4998,407.1607 255.9683,408.637 256.5696,410.8662 257.2717,414.163 259.6373,415.7313 259.6703,418.5475 259.9556,420.6477 259.9655,423.0397 259.5776,425.4655 260.8574,430.3726 261.508,431.9281 262.3916,433.1497 263.0407,436.1789 263.4844,436.5606 265.0901,436.97 266.063,437.9518 266.3359,439.8436 267.2295,440.6488 267.8353,440.596 268.8768,441.0088 269.3467,441.2842 269.519,441.7974 269.9386,442.1814 270.1675,443.6425 270.3272,443.8806 271.0281,444.4196 271.2721,445.6241 270.764,446.7593 269.8563,447.0791 269.2406,447.6448 269.0414,448.3045 269.2681,448.8212 269.9255,449.8582 269.9924,451.3069 270.5343,452.6299 271.1443,453.1388 271.7673,453.8119 272.2315,454.5971 272.3222,455.027 272.3172,456.175 272.2866,456.9082 272.0372,457.9311 271.8826,458.9948 272.1662,459.5284 272.6329,459.952 273.3163,460.5167 273.9833,461.364 274.5669,462.0857 274.7676,462.9962 274.6684,463.6872 275.1803,465.508 275.9365,466.1198 277.2532,467.1079 278.6704,468.6925 279.7337,470.5786 280.5365,471.9826 278.6745,473.4148 277.5761,473.7881 275.4681,473.8738 263.8441,473.2508 262.9683,473.6248 262.045,474.9951 261.3007,475.1171 260.1112,475.4929 257.3466,477.4841 256.424,478.6449 254.9783,479.5597 254.2283,479.8485 253.4076,479.948 250.9429,479.7159 248.9467,479.7794 247.8628,480.4714 247.2931,480.977 246.6672,481.1473 245.6306,481.1801 243.5234,480.9626 242.613,480.9779 241.3451,481.1806 240.3981,481.4872 239.4523,481.9585 237.2303,483.6216 236.8208,484.0433 236.1764,485.1076 235.0536,486.0831 232.737,489.0388 232.5775,489.9152 232.7395,490.522 233.597,492.4502 233.7047,493.0208 233.5625,494.4543 233.3129,495.078 232.3153,496.3429 231.7428,496.7132 229.712,497.3315 227.0027,499.3376 226.8023,499.3374 225.8381,498.7486 225.1236,498.547 223.9103,498.4495 222.0889,498.4648 221.9222,498.5332 218.5105,499.9327 217.8328,500.0 217.0818,499.798 215.7247,498.6875 215.3671,498.5195 214.6334,498.4182 211.6878,498.3361 210.7945,498.0986 210.4277,497.8231 209.5351,496.8633 208.8021,495.936 207.1571,492.6174 206.8174,492.2814 205.6384,492.0279 203.0865,491.8891 202.4091,491.6687 201.9268,491.1789 201.4085,489.6476 201.5499,488.72 201.9248,487.834 203.7088,484.8844 203.969,484.1824 204.0992,483.2998 204.0994,482.4014 204.1899,481.811 204.4038,481.3242 204.7762,480.7155 206.3495,479.0309 206.5632,478.6337 206.5265,476.9995 206.222,475.8369 205.9363,475.4656 205.6504,475.3325 200.7043,475.2847 200.2385,475.1147 197.5849,472.1939 196.5484,472.3789 194.6925,469.5697 194.3007,469.1012 193.7631,468.8296 192.8916,468.6621 192.1037,468.6283 190.3913,468.9157 188.9432,469.5214 187.7022,470.4664 186.8446,470.0794 185.953,469.4053 184.7021,468.8338 183.3825,468.312 182.0587,468.0428 181.7051,467.866 181.3656,467.5281 179.5603,463.8899 179.0053,463.2489 178.276,462.7958 177.3911,462.4083 176.7473,462.3415 176.2474,462.4941 173.3184,464.4985 172.5696,464.6488 171.2127,464.4925 171.0267,464.4225" stroke="black" /><polygon fill="none" points="137.0025,247.1938 139.931,268.6423 139.9131,268.7479 139.7906,269.5282 139.6966,270.4606 139.6681,271.0244 139.5889,271.4457 139.3989,272.0338 139.3176,272.7635 139.2352,273.8363 139.2273,274.4447 138.816,274.8047 137.8274,275.6495 137.4327,276.0967 136.9766,276.9155 135.3838,278.158 134.3294,278.504 133.847,278.6554 133.3124,278.9065 133.0133,279.203 132.8937,279.8806 132.3553,280.2195 131.9515,280.5866 131.4947,280.8473 131.3083,281.0243 130.8895,281.102 130.8131,281.2649 130.6203,281.2996 130.6394,282.2553 130.5544,282.3639 130.1323,282.9032 129.3784,283.7057 128.4323,285.0002 128.0153,285.6813 127.7091,286.3486 127.3891,286.8555 126.8126,287.6421 126.3871,288.0602 125.6891,288.6357 125.3914,288.924 124.9817,289.2344 124.27,289.756 124.1243,289.8616 123.5066,290.6271 123.1064,291.0431 122.8329,291.2775 122.4729,291.4972 121.3082,292.0272 120.756,292.1867 120.2893,292.2553 119.6483,292.3905 119.472,292.4665 119.3115,292.5573 118.8142,293.0272 117.979,293.837 117.5144,294.1559 116.4954,294.7536 115.9654,295.2076 115.5325,295.5096 115.3171,295.707 115.0541,295.801 114.8007,295.7809 114.6244,295.7936 114.2189,295.8137 113.352,296.0945 111.8411,296.444 111.3184,296.6098 109.6068,296.6109 108.7557,296.519 108.2236,296.518 107.9353,296.5644 107.4295,296.9583 106.4338,297.3236 104.9747,297.2913 103.3939,297.9909 103.0148,298.1915 102.6125,298.4935 102.2884,298.9338 101.3391,300.7331 100.9083,301.8238 100.3181,303.3 99.8883,304.7128 99.5557,306.3135 99.3733,307.8772 99.3073,309.4302 99.2759,310.1009 99.2084,311.5424 98.5716,314.5537 98.4206,315.5895 98.3161,316.0763 97.9814,317.2737 97.3468,318.4046 96.6277,319.4488 95.7745,320.2862 94.498,321.4582 93.3386,322.2966 92.5868,322.908 91.8698,323.6492 91.0832,324.5193 90.4552,325.233 89.7841,326.0274 89.2447,326.6231 88.7183,327.2934 88.4419,327.9265 88.6129,328.5348 89.1127,329.1431 89.8099,329.826 90.4807,330.484 90.9744,330.9951 91.4739,331.5188 92.1074,331.996 93.0853,332.843 93.7168,333.4389 94.3482,334.221 94.9414,334.9927 95.6573,336.7011 95.9319,337.473 96.9202,340.1486 97.8768,342.5012 98.2855,343.6616 99.0045,345.0525 99.5833,346.145 100.5042,347.3616 102.0304,348.8265 103.353,349.7639 104.2408,350.3474 105.0565,350.9681 105.3723,351.4647 105.6379,352.5016 105.5669,353.4497 104.9798,355.3282 104.5015,356.6174 104.0918,357.9711 103.9905,358.9372 103.9905,360.0649 104.1277,360.935 104.3326,361.483 104.8785,362.031 105.4254,362.674 105.8689,363.4807 105.9365,364.0594 105.7665,364.6728 105.1171,365.9621 104.7074,367.0571 104.3315,368.1203 104.2629,368.8289 104.3305,369.9249 104.4002,371.2458 104.1943,372.0514 103.9884,372.8898 103.9884,373.4051 104.1047,373.8368 104.4677,374.3396 105.0136,374.7588 106.0376,375.3208 106.6604,375.7957 107.7132,376.9626 108.608,378.5516 109.3449,379.7185 109.8449,380.8358 110.4239,382.0523 110.6076,383.1177 110.3776,383.8775 110.0693,384.8436 109.933,385.5215 109.9806,386.1023 110.31,386.9068 110.9921,387.7442 111.3342,388.6786 111.538,389.6775 111.7788,391.0312 112.0512,392.2233 112.426,393.4481 112.803,394.3182 113.4175,395.2526 114.0363,395.882 114.239,396.0245 114.3794,396.11 114.5431,396.1502 114.7205,396.1734 114.9781,396.1702 115.8904,396.3466 116.8777,396.6728 117.2852,396.8956 117.6348,397.1701 118.4129,397.9483 118.848,398.5967 118.9631,399.2883 118.848,399.9577 118.64,400.9312 118.5397,401.6345 118.6083,402.4412 118.8026,403.0473 119.2144,403.6956 119.7413,404.2795 120.5205,405.1221 121.0474,405.7926 121.3684,406.4842 121.5521,407.2181 121.6303,408.1346 121.4381,409.1546 120.889,411.6275 120.738,413.0582 120.9281,414.018 121.3114,414.4995 121.8985,414.8691 122.5626,415.2365 123.1127,415.756 123.5013,416.5332 123.9839,417.2248 124.5561,417.852 125.3586,418.6956 125.725,419.4073 125.9309,420.3587 126.2065,421.309 126.688,422.2392 127.1684,422.801 127.8336,423.2761 128.7048,423.7935 129.5062,424.0965 130.4111,424.3848 130.7448,424.5939 131.1333,425.3721 131.2949,426.3657 131.2959,427.1439 131.203,428.2895 131.1122,429.0455 130.8144,430.1268 130.5621,431.5744 130.7004,432.417 130.9971,432.9143 131.2505,433.1086 131.7542,433.3895 132.6242,433.7348 132.9664,434.0821 133.7224,434.7748 134.5555,435.4527 135.4224,436.2847 135.9577,436.8328 136.4846,437.7451 136.6462,438.6975 136.568,439.765 136.7517,440.219 137.003,440.6509 138.0579,442.0552 138.3335,442.5525 138.4475,443.222 138.3789,443.5461 138.1043,443.9358 137.7158,444.5841 137.6683,444.9737 138.0125,446.68 138.2648,447.7613 138.5172,448.4951 138.9533,449.512 139.0905,450.4623 139.251,452.0831 139.572,452.6448 140.0546,453.0555 140.9711,453.7471 141.7736,454.4599 142.2551,455.1082 143.1705,456.3394 143.7903,456.9444 144.3415,457.334 145.3267,457.7881 145.6012,458.2199 145.8768,458.8461 146.221,459.7288 146.7587,459.9692 145.9868,460.902 145.267,462.1759 144.4218,464.5353 144.0604,466.287 143.773,466.9008 143.1685,467.2409 139.2629,467.764 138.6456,468.072 138.187,468.5258 137.7284,469.1864 137.4639,469.8903 136.8619,470.983 132.7182,477.4048 131.5335,479.7004 130.8125,481.3859 130.4513,481.7037 129.3751,482.191 128.7471,482.9422 128.0737,484.0581 127.664,484.5339 126.8685,485.1488 126.0972,486.1263 125.5179,487.5569 125.3487,488.3791 125.1791,490.0151 124.6311,489.958 124.2552,489.5315 123.8413,489.2844 122.5985,488.7152 121.8446,488.0067 121.6186,487.5802 121.5437,487.1546 121.5817,486.6214 121.777,484.6268 121.6714,482.8645 121.588,482.5583 121.3462,482.1814 121.2016,481.9396 120.7898,481.4306 120.4762,480.7475 120.2587,480.3906 119.8405,479.927 119.7191,479.7 119.1626,479.1224 118.9229,478.7972 118.5523,478.4319 118.2535,478.1584 117.5693,477.6347 117.1744,477.0888 116.941,476.6559 116.7186,475.8344 116.5573,475.1579 116.4914,474.6179 116.4717,474.05 116.5474,473.6217 116.5902,473.4696 116.6593,473.2462 116.7478,473.0458 116.7721,472.7702 116.8634,472.4921 116.949,472.3121 117.0148,472.1321 117.0609,471.9583 117.0023,471.7533 116.893,471.6076 116.758,471.53 116.6264,471.4835 116.4754,471.4661 116.2892,471.4485 116.0752,471.4873 115.8791,471.5517 115.581,471.5844 115.2701,471.6014 114.9781,471.5664 114.5983,471.4064 114.0046,471.1842 113.1831,470.8286 112.0005,470.3944 111.3857,469.879 111.152,469.6276 110.9743,469.429 110.576,468.7865 110.2435,468.2124 109.121,467.3124 107.6502,466.3387 107.2711,466.0616 106.9322,465.7918 106.1552,465.3075 105.5891,464.8729 105.3784,464.7488 105.0953,464.6402 104.7497,464.5595 104.3942,464.516 103.8577,464.5408 103.3705,464.5873 102.9195,464.5842 101.7834,464.7219 101.1897,464.7513 100.7003,464.0178 100.5134,463.7264 99.7423,462.5518 99.0527,461.5159 98.651,460.748 98.5249,460.3481 98.5533,459.9085 98.6729,458.854 98.7232,458.2932 98.416,457.2806 98.4932,456.5078 98.0999,455.4734 97.938,454.8201 97.859,453.8475 97.2475,452.7272 97.1211,452.3774 97.0647,452.0934 97.0271,451.749 97.0234,451.0211 97.1335,450.5605 97.2193,449.9916 97.1817,449.4626 96.8316,449.0613 96.4432,448.8183 96.1874,448.5329 96.2293,448.2038 96.4503,447.4878 96.3363,447.1351 96.255,446.8965 95.8801,445.9441 95.6471,445.3486 95.5221,444.911 95.4145,444.545 95.2529,444.1691 95.0173,443.7391 94.6672,443.2065 94.3735,442.6526 94.2192,442.3757 93.9858,441.9993 93.6892,441.5856 93.3294,441.1604 92.8445,440.9656 92.0183,440.6267 91.5435,440.2524 91.1848,439.852 90.7966,439.3463 90.2865,438.7843 89.7304,438.1666 88.9075,438.8213 88.8647,438.6258 88.7068,438.452 88.1827,438.0481 87.6061,437.5793 87.1535,437.2073 86.5291,436.7346 86.3301,436.4895 85.6789,435.7308 85.0607,434.9849 84.6098,434.6188 83.9723,434.4118 81.7587,432.9399 81.2042,432.6303 80.5591,431.9366 80.0952,431.1296 79.3385,430.3567 78.9522,429.7359 78.5785,429.3169 78.46,429.112 78.2264,428.8203 78.0751,428.6465 77.9468,428.4726 77.8185,428.3361 77.6441,428.156 77.4598,428.0256 77.3479,427.9325 76.7828,427.8643 76.0419,427.182 75.4854,426.687 75.1238,426.1921 74.7815,425.8185 74.6311,425.6236 74.312,425.7138 74.2304,425.7004 74.1003,425.5422 73.8963,425.4863 73.6857,425.48 73.4816,425.4955 73.2974,425.3589 73.1329,424.9958 72.8368,424.6109 72.2619,423.859 71.9387,423.6393 71.5899,423.422 71.0601,423.1767 70.8134,422.8259 70.6031,422.5759 70.1462,422.2628 69.7134,421.809 69.2541,421.3371 68.3624,420.6628 67.7838,420.3471 66.4006,419.6174 65.748,419.156 65.6087,419.0895 65.2803,418.9902 64.8442,418.7769 64.2117,418.4422 63.745,418.2596 63.0994,417.937 62.9474,417.7816 62.9293,417.7631 62.7238,417.4721 62.1992,417.0339 61.8411,416.6012 61.6175,416.1667 61.3742,415.5149 60.8084,414.9623 59.8214,414.3041 59.267,413.8702 58.664,413.4246 58.012,412.8325 57.5724,412.2977 57.3411,411.8392 57.2713,411.4121 57.1668,410.7817 57.0042,410.221 56.7761,409.6519 56.4076,408.8472 56.1709,408.0713 56.0066,407.5747 55.8554,407.0905 55.7339,406.7028 55.6273,406.4261 55.5227,406.1959 55.132,405.5385 54.8142,404.9901 54.489,404.4368 54.2852,404.0905 53.9516,403.6755 53.6506,403.3915 53.3571,403.1761 52.8496,402.9119 52.3075,402.6619 51.7469,402.3145 51.2823,401.947 50.8251,401.531 50.2718,400.9165 49.9476,400.5332 49.6942,400.133 49.4566,399.7888 49.3035,399.4551 49.1082,398.9272 48.975,398.3986 48.8238,398.0013 48.7101,397.5608 48.6784,396.8154 48.6615,396.6158 48.5613,396.1453 48.3775,395.6856 48.0111,395.033 47.4827,394.587 46.838,394.3013 46.3313,394.1521 45.7391,393.9595 45.4036,393.7731 45.0089,393.5744 44.5747,393.2452 44.1032,392.842 43.7611,392.4429 42.9961,391.5067 42.2385,390.7292 41.6778,390.1674 41.189,389.4927 40.9862,389.1158 40.6284,388.6817 40.2732,388.3029 39.9181,387.8931 39.3326,387.4273 38.532,386.8719 37.767,386.3777 37.0434,385.8685 36.3783,385.3272 35.8007,384.7813 35.5727,384.5131 35.182,383.9831 34.9455,383.5301 34.6956,383.093 34.3799,382.7266 34.0379,382.4037 33.5709,382.0001 33.1884,381.7076 32.8868,381.4784 32.5251,381.1369 32.1706,380.7172 31.8369,380.2093 31.6363,379.8535 31.2365,379.0446 30.876,378.1809 30.645,377.5609 30.494,376.9711 30.389,376.4994 30.376,376.1828 30.3935,375.6647 30.4291,375.2518 30.4769,374.8855 30.5392,374.5275 30.6008,374.0726 30.6141,373.7064 30.5814,373.3402 30.5618,373.0546 30.5095,372.5581 30.4439,372.0429 30.4508,371.5525 30.4575,371.1801 30.4906,370.7953 30.4727,370.569 30.441,370.2944 30.3776,370.0009 30.2066,369.6767 29.9025,369.1129 29.4458,368.2314 28.9828,367.3115 28.7811,366.9209 28.6924,366.5249 28.6576,366.2102 28.6354,365.9695 28.6037,365.7784 28.6037,365.2979 28.5573,364.9843 28.4728,364.6771 28.3355,364.3455 28.1413,364.0002 27.816,363.2675 27.5816,362.7638 27.4845,362.3879 27.4834,362.0257 27.5637,361.5939 27.6545,360.8495 27.9544,360.0618 28.2936,359.2236 28.3913,358.5133 28.2538,357.9399 27.9301,357.649 27.5711,357.3597 27.3694,357.157 27.2585,356.912 27.1677,356.4622 27.116,356.2035 27.0178,356.0008 26.6408,355.4412 25.9893,354.5056 25.4762,353.6863 25.1816,353.0168 25.058,352.5723 24.9092,351.5333 24.831,350.924 24.7664,350.2788 24.7793,349.8428 24.7476,349.4848 24.7012,349.2821 24.5121,348.9865 24.2197,348.6053 23.8733,348.2727 23.2356,347.6824 22.5387,347.0415 22.3296,346.7459 22.2641,346.5685 22.2325,346.315 22.2272,345.9655 22.2789,345.5105 22.3697,345.0543 22.3005,344.6729 22.0705,344.3003 21.722,343.934 21.3539,343.5179 20.7151,342.857 19.7258,341.9954 18.4682,341.1454 17.7259,340.6903 17.3152,340.2658 17.1399,340.0061 16.8762,339.5556 16.7251,338.9999 16.6531,338.5934 16.5613,338.0782 16.4431,337.774 16.292,337.4387 16.1241,337.0411 15.9805,336.7265 15.9224,336.4012 15.9224,335.9324 15.9224,335.7107 15.8253,335.5206 15.6564,335.3855 15.1284,335.1817 14.6585,335.1215 14.0461,335.2313 13.6026,335.3781 13.1211,335.508 12.3261,335.6547 11.5827,335.8564 10.1351,336.1457 9.1383,336.2862 7.6981,336.5998 6.3657,336.6883 5.0066,336.5607 3.655,335.4583 2.5368,333.9178 1.6964,332.9485 0.4863,330.7469 0.0,329.9088 8.8535,323.5206 13.8209,319.6097 15.3683,318.3914 16.8122,317.7558 17.1337,317.5153 27.8095,309.5324 32.119,306.849 42.475,298.1868 46.4588,293.4229 53.2771,282.4658 53.9171,280.5799 53.9838,280.3835 54.2498,279.6004 58.6345,266.6928 63.9636,243.8371 73.4758,222.344 75.6476,218.582 76.8476,214.3486 78.9899,210.4832 79.3724,208.3215 84.5937,193.6262 92.7126,174.9631 95.2965,171.2464 97.4988,165.3705 101.5443,159.2871 107.6465,145.6628 107.8188,145.4385 109.538,143.2005 111.8,140.2558 113.0169,137.1301 114.2462,135.8801 118.062,136.8748 119.9324,136.9955 121.6669,136.8688 125.1882,136.2467 126.5641,136.7483 128.2957,137.1094 129.7063,136.8929 131.3691,137.3514 132.7855,139.9664 133.3146,141.3865 133.2805,142.7677 133.8091,144.0049 135.6198,145.7975 137.3813,145.9179 138.9805,146.4747 140.5238,146.532 140.9924,146.7861 141.4233,147.0197 142.0075,147.116 142.0188,147.3313 141.9104,147.3525 141.8096,147.5925 141.8021,147.716 141.9292,147.7583 141.903,147.903 142.0487,147.9277 142.1235,148.0054 142.2169,147.8712 142.4187,147.8803 142.7549,147.6806 142.9604,147.8747 143.0426,147.797 143.1023,147.6099 143.7263,147.7669 144.1187,147.9486 144.7136,147.984 145.0618,148.1812 145.6421,148.7677 146.0948,148.9923 146.3119,148.9613 146.7041,149.206 146.8912,149.2064 147.267,149.4087 147.9054,150.028 148.2963,150.4062 148.864,150.5695 148.8985,150.5718 149.3837,150.6036 149.7909,150.6918 150.2094,150.7093 150.6578,150.8469 150.8895,151.0657 151.0614,151.1786 151.5093,151.7594 152.6989,151.7373 153.2328,152.077 154.3702,152.3454 154.8784,152.3177 156.2156,152.6739 157.2087,153.1706 158.003,153.3805 158.6239,153.3475 159.0301,153.331 159.5873,153.5775 160.0805,153.5226 161.1914,153.527 161.92,153.5276 162.8079,153.7466 163.2896,154.0864 163.899,154.3822 164.0793,155.5442 164.2942,156.2019 164.8056,157.2716 165.9537,158.5368 166.7266,159.3147 168.2913,160.9572 169.8375,160.8431 171.3464,161.0125 172.2859,161.3009 173.1224,161.8013 173.4649,162.1082 173.6391,162.3767 173.9235,162.4479 175.9748,164.3968 177.5743,165.1481 178.7177,164.7101 180.3774,164.6931 180.5632,164.8684 182.1349,164.7971 182.8,164.8146 183.4074,164.6383 184.1146,164.2971 184.8805,164.0885 185.6506,163.9727 186.4821,163.8084 187.4222,163.7477 188.6061,163.8404 189.4846,164.0263 190.3008,164.3111 191.4423,164.813 192.4697,165.6536 193.2614,166.9364 194.4305,168.308 196.6636,170.3727 198.183,171.1637 201.7187,171.967 199.8119,172.2042 199.228,172.7163 198.5396,173.2179 198.0306,173.5579 197.4679,174.0393 196.3866,174.9506 195.5493,175.4722 194.7366,176.1181 193.0225,177.0402 191.2507,178.0327 190.5929,178.4794 190.2656,178.8057 189.9921,179.1837 188.7616,180.6383 188.4077,181.1495 187.9162,181.951 187.2107,182.7619 186.7878,183.1058 186.134,183.8214 185.7702,184.3604 185.5588,184.6532 185.2344,185.2061 184.9985,185.7311 184.4137,186.9206 184.0574,187.4164 182.1295,188.5783 181.5228,188.8631 181.0983,189.0753 180.2483,189.6824 179.7436,190.166 178.5764,191.3184 178.3708,191.149 178.1531,191.2169 177.731,191.3486 177.5675,191.6893 176.9323,192.1342 176.7828,192.099 176.6184,192.3249 176.3679,192.3634 176.1027,192.3957 175.7143,193.0417 175.4378,193.2112 175.4678,193.5006 175.3893,193.6277 175.0492,193.4972 174.6383,194.0148 173.3679,195.0436 172.2573,195.7792 171.3018,196.8442 170.4985,197.7056 170.3694,197.8574 168.9471,199.5287 168.07,200.3287 167.39,200.9712 166.6277,201.5008 165.6112,201.847 164.8264,201.9037 164.1047,201.8083 163.3909,201.6637 162.4375,201.3628 161.3309,200.7873 160.4082,200.4154 159.6757,200.4085 158.7482,200.8475 157.8274,201.1885 156.8169,201.424 156.2161,201.462 155.5013,201.4018 155.2215,201.4778 154.9079,201.6288 154.0748,202.1811 153.3652,202.4862 152.9014,202.6622 151.2106,203.0005 149.9219,203.1895 148.9357,203.4017 148.6876,203.4851 147.3649,203.6772 146.4892,203.4287 146.3942,203.4017 145.84,203.376 144.4496,203.1644 143.8441,203.1716 143.4306,203.1782 136.2871,241.9545 136.7582,245.4043 136.9332,246.686 137.0025,247.1938" stroke="black" /><polygon fill="none" points="209.7475,180.1901 209.7083,180.1457 209.7062,180.1433 209.703,180.1397 209.6998,180.1362 208.6896,178.9954 207.4867,178.4334 205.3433,178.2727 203.6117,177.5884 201.156,174.8951 200.7762,173.6089 201.6191,172.1405 201.6587,172.0715 201.7187,171.967 198.183,171.1637 196.6636,170.3727 194.4305,168.308 193.2614,166.9364 192.4697,165.6536 191.4423,164.813 190.3008,164.3111 189.4846,164.0263 188.6061,163.8404 187.4222,163.7477 186.4821,163.8084 185.6506,163.9727 184.8805,164.0885 184.1146,164.2971 183.4074,164.6383 182.8,164.8146 182.1349,164.7971 180.5632,164.8684 180.3774,164.6931 178.7177,164.7101 177.5743,165.1481 175.9748,164.3968 173.9235,162.4479 173.6391,162.3767 173.4649,162.1082 173.1224,161.8013 172.2859,161.3009 171.3464,161.0125 169.8375,160.8431 168.2913,160.9572 166.7266,159.3147 165.9537,158.5368 164.8056,157.2716 164.2942,156.2019 164.0793,155.5442 163.899,154.3822 163.2896,154.0864 162.8079,153.7466 161.92,153.5276 161.1914,153.527 160.0805,153.5226 159.5873,153.5775 159.0301,153.331 158.6239,153.3475 158.003,153.3805 157.2087,153.1706 156.2156,152.6739 154.8784,152.3177 154.3702,152.3454 153.2328,152.077 152.6989,151.7373 151.5093,151.7594 151.0614,151.1786 150.8895,151.0657 150.6578,150.8469 150.2094,150.7093 149.7909,150.6918 149.3837,150.6036 148.8985,150.5718 148.864,150.5695 148.2963,150.4062 147.9054,150.028 147.267,149.4087 146.8912,149.2064 146.7041,149.206 146.3119,148.9613 146.0948,148.9923 145.6421,148.7677 145.0618,148.1812 144.7136,147.984 144.1187,147.9486 143.7263,147.7669 143.1023,147.6099 143.0426,147.797 142.9604,147.8747 142.7549,147.6806 142.4187,147.8803 142.2169,147.8712 142.1235,148.0054 142.0487,147.9277 141.903,147.903 141.9292,147.7583 141.8021,147.716 141.8096,147.5925 141.9104,147.3525 142.0188,147.3313 142.0075,147.116 141.4233,147.0197 140.9924,146.7861 140.5238,146.532 138.9805,146.4747 137.3813,145.9179 135.6198,145.7975 133.8091,144.0049 133.2805,142.7677 133.3146,141.3865 132.7855,139.9664 131.3691,137.3514 129.7063,136.8929 128.2957,137.1094 126.5641,136.7483 125.1882,136.2467 121.6669,136.8688 119.9324,136.9955 118.062,136.8748 114.2462,135.8801 114.3558,134.2052 115.0024,124.3176 119.1635,115.7967 121.6005,112.3891 126.0656,107.4436 131.3183,100.8205 135.7354,95.251 140.7888,84.4899 145.3594,76.8953 148.1001,72.6429 151.5792,69.6289 155.7385,67.8788 157.0944,67.947 162.4352,69.4226 164.9432,69.9312 168.8478,68.6883 170.8631,67.4857 171.4093,67.1598 173.0335,65.5483 174.7706,63.0393 177.9843,58.3992 181.7972,54.9426 185.5523,49.9243 187.5084,48.7891 192.1013,47.633 194.9963,46.1499 208.5253,37.4117 208.7451,34.9727 209.6343,31.4673 212.5041,28.0971 222.3291,24.13 224.0506,23.7655 229.2316,23.8273 232.2799,24.1355 232.7736,24.1854 235.8773,24.0129 236.1402,27.5771 237.2026,30.2347 240.2504,32.3914 246.3096,32.4973 247.9619,33.3333 250.1614,33.304 253.1534,34.6708 257.8193,38.4087 259.1441,39.1084 261.9842,42.2678 264.0988,45.5867 265.3045,46.279 267.01,46.8823 270.3755,48.6851 273.4771,51.933 275.0055,53.0138 278.3801,56.8322 280.0649,58.3649 281.1797,58.8627 282.5882,59.7669 284.0769,61.5313 284.9756,62.6128 286.0132,63.5884 286.7573,64.8072 288.0024,66.5286 288.7547,67.9649 289.7345,70.1258 294.6874,76.3478 297.0768,80.1332 298.0404,85.2318 299.1708,86.5388 300.078,88.9621 300.0013,90.3387 298.4867,91.0053 295.5847,92.4955 294.0464,94.1186 293.407,94.8811 292.4602,96.2585 290.5467,98.9302 288.9061,100.7424 289.2023,101.7028 289.0229,103.2779 288.5025,104.963 287.007,108.5232 286.6239,110.0095 286.5808,111.8768 287.1126,115.5254 285.8869,116.9591 284.8003,118.3094 284.0436,118.9644 282.7472,120.8599 280.783,122.1088 279.3172,123.0524 277.9692,124.4856 276.7001,126.6854 276.2531,129.5496 275.9129,131.6747 274.8775,132.9505 273.6887,134.1631 271.4912,135.9694 271.2926,137.1939 270.4132,137.9148 268.8733,140.6938 267.2961,140.3342 265.0939,139.4706 263.0538,138.2161 261.5906,137.5752 260.1123,136.6133 259.1403,138.4536 259.196,140.0798 258.1808,141.2068 257.4355,142.4432 257.2375,143.9152 257.9184,145.4221 257.4071,152.2337 256.2302,158.3619 255.3011,160.4981 254.6234,162.969 253.5615,165.3984 253.7327,166.8708 253.7407,167.6035 253.6761,169.9275 253.3824,172.119 251.5166,173.9442 249.6509,173.023 248.0451,172.7525 247.0189,172.041 245.6526,171.653 243.4549,170.9627 240.6147,170.7529 239.9274,171.064 238.5677,171.8413 237.0444,173.5364 235.7304,175.5702 234.2667,177.1806 232.2053,179.1866 230.1733,180.5432 225.5603,181.762 225.0321,181.9015 220.2124,183.5007 218.0443,183.6826 217.2545,183.6745 214.2365,183.6437 212.8305,184.0008 211.5062,183.5867 210.0346,180.5143 209.7475,180.1901" stroke="black" /><polygon fill="none" points="170.3694,197.8574 170.4985,197.7056 171.3018,196.8442 172.2573,195.7792 173.3679,195.0436 174.6383,194.0148 175.0492,193.4972 175.3893,193.6277 175.4678,193.5006 175.4378,193.2112 175.7143,193.0417 176.1027,192.3957 176.3679,192.3634 176.6184,192.3249 176.7828,192.099 176.9323,192.1342 177.5675,191.6893 177.731,191.3486 178.1531,191.2169 178.3708,191.149 178.5764,191.3184 179.7436,190.166 180.2483,189.6824 181.0983,189.0753 181.5228,188.8631 182.1295,188.5783 184.0574,187.4164 184.4137,186.9206 184.9985,185.7311 185.2344,185.2061 185.5588,184.6532 185.7702,184.3604 186.134,183.8214 186.7878,183.1058 187.2107,182.7619 187.9162,181.951 188.4077,181.1495 188.7616,180.6383 189.9921,179.1837 190.2656,178.8057 190.5929,178.4794 191.2507,178.0327 193.0225,177.0402 194.7366,176.1181 195.5493,175.4722 196.3866,174.9506 197.4679,174.0393 198.0306,173.5579 198.5396,173.2179 199.228,172.7163 199.8119,172.2042 201.7187,171.967 201.6587,172.0715 201.6191,172.1405 200.7762,173.6089 201.156,174.8951 203.6117,177.5884 205.3433,178.2727 207.4867,178.4334 208.6896,178.9954 209.6998,180.1362 209.703,180.1397 209.7062,180.1433 209.7083,180.1457 209.7475,180.1901 210.0346,180.5143 211.5062,183.5867 212.8305,184.0008 214.2365,183.6437 217.2545,183.6745 218.0443,183.6826 220.2124,183.5007 225.0321,181.9015 225.5603,181.762 230.1733,180.5432 232.2053,179.1866 234.2667,177.1806 235.7304,175.5702 237.0444,173.5364 238.5677,171.8413 239.9274,171.064 240.6147,170.7529 243.4549,170.9627 245.6526,171.653 247.0189,172.041 248.0451,172.7525 249.6509,173.023 251.5166,173.9442 250.7343,176.2048 249.3675,184.1532 249.5212,188.3176 250.0731,191.1744 250.9436,192.9906 251.5114,195.981 252.0132,199.3646 252.9474,201.0705 253.8843,202.2085 255.9413,203.2229 256.4311,203.9246 257.3266,205.0414 257.9344,207.0705 258.3021,209.2662 257.7933,210.0126 257.3836,210.4002 257.0637,210.6113 256.7427,210.7634 256.3657,211.0369 255.8308,211.2602 255.5183,212.0365 254.1297,212.832 253.6804,213.7192 253.4757,214.3851 252.8095,215.0598 252.2202,215.6155 250.9435,216.8437 250.1029,217.7867 249.2035,218.7296 248.8525,220.2449 248.7555,221.2797 248.5614,223.2568 248.7196,225.2706 248.6231,226.952 248.3115,228.8184 247.1641,231.8468 238.3336,242.3384 235.1706,246.1436 235.0915,246.2388 234.4824,246.9715 234.4514,247.0088 234.4256,247.0398 234.3261,247.1595 234.3054,247.1844 234.2793,247.2159 233.9219,247.6458 233.3233,248.366 233.2743,248.4249 233.1004,248.6341 233.0494,248.6955 233.0096,248.7433 218.2142,266.5426 218.1286,266.6455 218.1175,266.6589 218.0821,266.7015 214.7687,270.6876 214.4601,270.8833 209.9002,273.7749 209.4104,274.0855 208.5302,274.6437 204.6384,277.1116 204.552,277.2711 204.4656,277.4305 203.6522,278.931 203.0652,280.6711 203.0968,283.1904 203.4252,285.5556 204.0408,286.6675 204.3734,287.4658 204.5529,288.0454 204.554,288.9641 203.8138,292.9057 203.8233,293.5699 203.6015,295.4335 203.5984,295.989 203.3682,297.8822 203.3205,298.0767 203.2045,298.3774 203.1179,298.4935 202.4527,298.8758 202.0906,299.0606 201.6534,299.1598 200.4381,299.1744 199.5247,299.3319 198.68,299.617 198.1726,299.923 197.8501,300.2305 197.6241,300.6148 197.4288,301.1702 197.3538,301.7394 197.0983,302.7784 196.9553,303.7705 196.5566,304.9472 196.2842,306.512 195.9833,307.3947 195.6805,307.7727 195.2589,308.136 194.6866,308.5214 194.0372,308.892 192.9655,309.5899 191.8188,310.4875 191.0945,311.1854 190.5359,311.9551 189.933,312.9255 188.4252,316.0013 188.2252,316.7511 188.1844,317.3275 188.064,318.1522 187.8972,318.6369 187.5815,319.1637 187.0377,319.8765 186.5333,320.6474 186.2078,321.3294 185.9523,321.9576 185.6355,322.9829 185.4549,323.8086 185.2892,325.0197 184.8444,327.2614 184.5954,327.8411 183.8109,329.0226 182.8056,330.4114 182.1658,331.5315 181.9092,332.2854 181.8463,332.7256 181.7456,333.7393 181.6685,334.2229 181.6094,335.0064 181.6241,335.8036 181.6094,336.4593 181.5492,336.8859 181.3676,337.2291 181.1522,337.5733 181.0761,338.2026 181.1881,339.0684 181.6051,339.8449 181.8079,340.0853 182.0127,340.2352 182.0898,340.3271 182.1626,340.3957 182.3343,340.5408 183.0158,341.1169 183.7244,341.6423 183.8943,341.7684 184.2238,341.9817 184.5131,342.2615 184.9798,342.6036 185.5024,343.2424 185.6239,343.5687 185.5193,344.2666 185.3905,344.7365 185.1094,345.3609 184.6271,346.2337 184.4349,346.825 184.3304,347.296 184.2016,347.6381 184.0738,348.3371 183.8806,348.9738 183.8806,349.4299 183.9524,349.9611 184.2438,350.9705 184.2912,351.3801 184.2755,352.1235 184.3156,353.058 184.1647,354.1953 184.1646,354.6756 184.2618,355.4264 184.266,356.487 184.4043,357.1485 184.6408,358.1907 185.0748,359.1621 185.5669,360.6879 185.5707,360.6969 185.5745,360.7057 186.0821,361.8863 185.9554,362.4712 186.1664,362.7987 186.4347,363.2147 186.5982,363.4684 186.6647,363.5716 187.2177,364.9529 187.5698,366.8607 187.5442,368.6342 187.0997,370.2997 185.1993,373.8218 183.9872,375.5866 181.0869,378.1515 178.3612,379.6292 176.1385,381.4316 175.429,383.0998 174.1133,385.0025 173.641,386.3427 173.5164,389.727 172.3527,392.7294 172.1392,394.6767 171.5196,396.3443 170.2697,396.9177 168.0922,396.7651 166.774,396.9501 165.1027,397.8576 160.0878,398.507 158.5365,398.9837 156.6591,399.0706 154.5748,400.0129 152.5526,402.1154 151.2557,404.5865 149.4738,407.4854 147.5357,409.1799 145.3633,410.8738 144.635,412.0612 143.3972,416.5367 142.1665,418.1605 141.6054,420.0116 141.3854,420.9405 140.4925,422.1605 140.1657,423.6088 140.2781,424.3006 140.2259,425.8253 139.9866,427.4911 140.5034,429.4322 141.02,429.7992 141.05,430.378 141.2522,431.0822 141.4424,432.2893 141.5794,434.0215 141.9128,434.9641 143.0763,436.4694 143.7502,437.1553 144.5154,438.0617 145.3325,439.4967 145.0698,441.0637 145.0841,442.5532 145.4533,444.7432 145.4736,445.5668 145.5026,446.7348 144.9568,447.6532 144.9056,448.201 144.6241,450.8598 144.4962,452.4068 145.071,454.4783 146.0436,456.1852 150.2613,456.4976 149.1113,458.1153 147.6469,459.3393 146.7587,459.9692 146.221,459.7288 145.8768,458.8461 145.6012,458.2199 145.3267,457.7881 144.3415,457.334 143.7903,456.9444 143.1705,456.3394 142.2551,455.1082 141.7736,454.4599 140.9711,453.7471 140.0546,453.0555 139.572,452.6448 139.251,452.0831 139.0905,450.4623 138.9533,449.512 138.5172,448.4951 138.2648,447.7613 138.0125,446.68 137.6683,444.9737 137.7158,444.5841 138.1043,443.9358 138.3789,443.5461 138.4475,443.222 138.3335,442.5525 138.0579,442.0552 137.003,440.6509 136.7517,440.219 136.568,439.765 136.6462,438.6975 136.4846,437.7451 135.9577,436.8328 135.4224,436.2847 134.5555,435.4527 133.7224,434.7748 132.9664,434.0821 132.6242,433.7348 131.7542,433.3895 131.2505,433.1086 130.9971,432.9143 130.7004,432.417 130.5621,431.5744 130.8144,430.1268 131.1122,429.0455 131.203,428.2895 131.2959,427.1439 131.2949,426.3657 131.1333,425.3721 130.7448,424.5939 130.4111,424.3848 129.5062,424.0965 128.7048,423.7935 127.8336,423.2761 127.1684,422.801 126.688,422.2392 126.2065,421.309 125.9309,420.3587 125.725,419.4073 125.3586,418.6956 124.5561,417.852 123.9839,417.2248 123.5013,416.5332 123.1127,415.756 122.5626,415.2365 121.8985,414.8691 121.3114,414.4995 120.9281,414.018 120.738,413.0582 120.889,411.6275 121.4381,409.1546 121.6303,408.1346 121.5521,407.2181 121.3684,406.4842 121.0474,405.7926 120.5205,405.1221 119.7413,404.2795 119.2144,403.6956 118.8026,403.0473 118.6083,402.4412 118.5397,401.6345 118.64,400.9312 118.848,399.9577 118.9631,399.2883 118.848,398.5967 118.4129,397.9483 117.6348,397.1701 117.2852,396.8956 116.8777,396.6728 115.8904,396.3466 114.9781,396.1702 114.7205,396.1734 114.5431,396.1502 114.3794,396.11 114.239,396.0245 114.0363,395.882 113.4175,395.2526 112.803,394.3182 112.426,393.4481 112.0512,392.2233 111.7788,391.0312 111.538,389.6775 111.3342,388.6786 110.9921,387.7442 110.31,386.9068 109.9806,386.1023 109.933,385.5215 110.0693,384.8436 110.3776,383.8775 110.6076,383.1177 110.4239,382.0523 109.8449,380.8358 109.3449,379.7185 108.608,378.5516 107.7132,376.9626 106.6604,375.7957 106.0376,375.3208 105.0136,374.7588 104.4677,374.3396 104.1047,373.8368 103.9884,373.4051 103.9884,372.8898 104.1943,372.0514 104.4002,371.2458 104.3305,369.9249 104.2629,368.8289 104.3315,368.1203 104.7074,367.0571 105.1171,365.9621 105.7665,364.6728 105.9365,364.0594 105.8689,363.4807 105.4254,362.674 104.8785,362.031 104.3326,361.483 104.1277,360.935 103.9905,360.0649 103.9905,358.9372 104.0918,357.9711 104.5015,356.6174 104.9798,355.3282 105.5669,353.4497 105.6379,352.5016 105.3723,351.4647 105.0565,350.9681 104.2408,350.3474 103.353,349.7639 102.0304,348.8265 100.5042,347.3616 99.5833,346.145 99.0045,345.0525 98.2855,343.6616 97.8768,342.5012 96.9202,340.1486 95.9319,337.473 95.6573,336.7011 94.9414,334.9927 94.3482,334.221 93.7168,333.4389 93.0853,332.843 92.1074,331.996 91.4739,331.5188 90.9744,330.9951 90.4807,330.484 89.8099,329.826 89.1127,329.1431 88.6129,328.5348 88.4419,327.9265 88.7183,327.2934 89.2447,326.6231 89.7841,326.0274 90.4552,325.233 91.0832,324.5193 91.8698,323.6492 92.5868,322.908 93.3386,322.2966 94.498,321.4582 95.7745,320.2862 96.6277,319.4488 97.3468,318.4046 97.9814,317.2737 98.3161,316.0763 98.4206,315.5895 98.5716,314.5537 99.2084,311.5424 99.2759,310.1009 99.3073,309.4302 99.3733,307.8772 99.5557,306.3135 99.8883,304.7128 100.3181,303.3 100.9083,301.8238 101.3391,300.7331 102.2884,298.9338 102.6125,298.4935 103.0148,298.1915 103.3939,297.9909 104.9747,297.2913 106.4338,297.3236 107.4295,296.9583 107.9353,296.5644 108.2236,296.518 108.7557,296.519 109.6068,296.6109 111.3184,296.6098 111.8411,296.444 113.352,296.0945 114.2189,295.8137 114.6244,295.7936 114.8007,295.7809 115.0541,295.801 115.3171,295.707 115.5325,295.5096 115.9654,295.2076 116.4954,294.7536 117.5144,294.1559 117.979,293.837 118.8142,293.0272 119.3115,292.5573 119.472,292.4665 119.6483,292.3905 120.2893,292.2553 120.756,292.1867 121.3082,292.0272 122.4729,291.4972 122.8329,291.2775 123.1064,291.0431 123.5066,290.6271 124.1243,289.8616 124.27,289.756 124.9817,289.2344 125.3914,288.924 125.6891,288.6357 126.3871,288.0602 126.8126,287.6421 127.3891,286.8555 127.7091,286.3486 128.0153,285.6813 128.4323,285.0002 129.3784,283.7057 130.1323,282.9032 130.5544,282.3639 130.6394,282.2553 130.6203,281.2996 130.8131,281.2649 130.8895,281.102 131.3083,281.0243 131.4947,280.8473 131.9515,280.5866 132.3553,280.2195 132.8937,279.8806 133.0133,279.203 133.3124,278.9065 133.847,278.6554 134.3294,278.504 135.3838,278.158 136.9766,276.9155 137.4327,276.0967 137.8274,275.6495 138.816,274.8047 139.2273,274.4447 139.2352,273.8363 139.3176,272.7635 139.3989,272.0338 139.5889,271.4457 139.6681,271.0244 139.6966,270.4606 139.7906,269.5282 139.9131,268.7479 139.931,268.6423 137.0025,247.1938 136.9332,246.686 136.7582,245.4043 136.2871,241.9545 143.4306,203.1782 143.8441,203.1716 144.4496,203.1644 145.84,203.376 146.3942,203.4017 146.4892,203.4287 147.3649,203.6772 148.6876,203.4851 148.9357,203.4017 149.9219,203.1895 151.2106,203.0005 152.9014,202.6622 153.3652,202.4862 154.0748,202.1811 154.9079,201.6288 155.2215,201.4778 155.5013,201.4018 156.2161,201.462 156.8169,201.424 157.8274,201.1885 158.7482,200.8475 159.6757,200.4085 160.4082,200.4154 161.3309,200.7873 162.4375,201.3628 163.3909,201.6637 164.1047,201.8083 164.8264,201.9037 165.6112,201.847 166.6277,201.5008 167.39,200.9712 168.07,200.3287 168.9471,199.5287 170.3694,197.8574" stroke="black" /><polygon fill="none" points="300.0013,90.3387 300.078,88.9621 299.1708,86.5388 298.0404,85.2318 297.0768,80.1332 294.6874,76.3478 289.7345,70.1258 288.7547,67.9649 288.0024,66.5286 286.7573,64.8072 286.0132,63.5884 284.9756,62.6128 284.0769,61.5313 282.5882,59.7669 281.1797,58.8627 280.0649,58.3649 278.3801,56.8322 275.0055,53.0138 273.4771,51.933 270.3755,48.6851 267.01,46.8823 265.3045,46.279 264.0988,45.5867 261.9842,42.2678 259.1441,39.1084 257.8193,38.4087 253.1534,34.6708 250.1614,33.304 247.9619,33.3333 246.3096,32.4973 240.2504,32.3914 237.2026,30.2347 236.1402,27.5771 235.8773,24.0129 237.4972,23.9216 240.5985,24.2939 246.249,24.4728 249.7362,23.1757 254.9127,20.052 260.1061,15.3959 268.9347,4.582 272.2168,2.2374 274.1945,1.6368 278.1471,0.4364 280.1352,0.0 279.9935,2.611 282.4848,5.1485 284.1877,5.8889 285.9237,5.9647 289.7641,5.6182 293.1932,6.2439 296.7276,7.1411 301.0214,9.2794 302.047,10.5071 302.7819,12.0297 303.6018,13.062 305.5723,14.7616 307.585,15.4962 309.9399,16.9859 311.5495,17.4448 313.3722,17.7083 315.2131,18.9242 316.2995,22.8144 317.7467,24.4213 317.8039,28.9073 319.0248,29.8475 320.8513,30.3948 321.7928,31.3429 323.1988,31.6034 324.7257,31.2034 325.5353,33.0093 325.6576,37.014 326.4571,39.1182 328.3017,39.8547 327.4227,41.3024 327.4837,42.9199 326.8609,44.5115 328.7102,49.1138 330.3523,49.9558 329.4733,54.9435 330.4417,56.3083 331.0803,57.6867 333.5171,61.2351 333.6049,62.5767 334.5431,63.9906 335.8958,64.5463 337.0968,65.6287 338.534,67.6584 339.3234,68.5548 341.0853,68.5277 343.3249,68.2994 343.6253,68.626 343.8792,68.7244 344.4619,68.2422 346.1329,69.7615 346.1638,70.7524 346.615,71.3171 346.9692,71.1143 347.5307,71.3788 347.5089,71.5743 347.4131,71.7558 348.0267,72.2157 348.6046,73.6316 348.0294,74.1697 348.423,75.7813 350.0271,76.9447 351.0984,77.3063 351.3128,77.5154 351.6905,78.2686 353.0946,78.9507 354.7144,80.7841 355.2764,81.3277 355.9045,81.5641 355.8015,81.8295 356.0284,82.3375 356.2456,82.5617 356.564,83.1544 356.6016,83.5661 356.6759,83.8801 356.7505,84.4522 356.8248,84.7104 360.1715,85.6272 361.2297,87.1123 361.0901,87.5591 360.935,87.6081 360.6671,87.9576 360.825,88.1317 360.6259,88.3064 360.6337,88.5995 360.4348,88.9278 360.0737,89.4237 360.099,90.6033 360.1267,91.8952 360.7083,92.5415 361.0683,92.8211 361.3865,93.2952 362.4226,94.7035 361.1407,96.8547 361.7175,97.3913 361.6518,97.8938 361.667,98.1729 361.8592,98.2634 362.0264,98.8015 362.2295,98.9608 362.3138,99.2934 362.6516,99.7558 362.7138,100.209 362.6599,100.328 362.7299,100.4623 362.9853,100.6626 363.0374,100.9347 363.2444,101.074 363.2005,101.3323 363.2977,101.5219 363.3341,101.7508 363.615,101.9109 363.6152,102.0714 363.6856,102.2188 363.9331,102.2804 364.0517,102.5943 364.0741,102.785 364.0745,102.9711 364.584,102.9216 364.7611,102.7887 365.0197,102.9 365.5594,103.2203 366.166,103.8616 366.2993,104.1405 366.4399,104.2799 366.3515,104.4336 366.4113,104.9429 366.619,105.5498 366.6343,105.8638 366.3397,106.4016 366.2465,106.6462 366.407,107.0156 366.3191,107.4763 366.7069,109.9253 366.8367,112.7655 366.4114,114.8178 366.9546,117.448 366.809,118.8509 366.757,119.5944 368.7412,121.7235 369.194,123.2094 369.72,124.1996 369.8837,124.6274 369.9427,124.9321 370.2308,124.8898 370.3054,125.4131 370.513,125.9223 371.8542,127.9888 375.4047,131.7287 376.7266,134.5571 377.3912,136.0248 378.52,137.3702 379.0924,137.3623 379.8626,138.6034 380.5545,139.1196 381.6161,140.2619 382.7659,141.0391 385.2616,144.472 386.9889,147.4666 386.4963,149.4762 386.872,151.6717 387.937,152.6246 390.0117,153.4208 390.6324,155.1022 391.0369,158.0982 391.0059,159.5763 390.044,160.9191 387.4068,161.6918 386.8117,162.8954 386.254,165.7607 385.0594,167.4326 383.7906,168.1514 383.1558,169.591 383.0683,171.1664 383.397,172.7186 383.4153,172.8051 383.4164,172.8102 383.7365,174.3157 385.6037,176.7323 383.5654,180.5365 383.0713,181.7002 382.9395,182.0141 382.9723,182.7232 383.1825,183.3585 384.8656,185.71 385.4076,186.7621 385.5004,187.9235 385.2025,188.8045 384.4863,190.3638 383.498,192.1929 382.4229,194.5209 381.2507,196.4525 381.0141,197.5609 381.0762,199.2906 380.8381,199.7447 378.9595,201.5149 375.6615,202.996 373.3837,204.1316 370.8629,206.1232 369.7536,207.1457 369.3638,207.9388 369.4425,208.7156 366.9524,208.2356 363.6158,208.0511 359.188,206.8824 352.8492,210.046 351.2389,210.4917 348.0706,210.6859 341.2026,206.7816 339.684,206.1796 335.106,205.1112 330.7351,205.2279 329.1774,205.6306 327.3377,206.5681 326.6598,208.4456 327.0374,209.7725 327.0708,211.259 326.0126,212.3261 324.9914,213.8203 324.0174,217.135 322.5838,219.2673 321.5823,220.0952 320.4106,221.4959 318.6732,224.292 317.9242,226.9121 316.27,228.0584 314.4672,228.6744 314.262,230.0983 316.2423,233.9123 316.0294,235.908 316.8576,241.0435 316.8203,242.5217 317.291,243.3895 318.6844,246.566 318.2998,251.27 318.6463,254.0359 319.5248,255.9338 317.8521,258.2029 316.3579,259.7066 315.0128,260.6941 313.3439,261.618 311.2049,262.1292 307.7794,262.9457 304.1635,263.3379 302.5166,262.959 301.0531,262.0042 298.7332,256.8965 298.0271,255.5485 295.9848,252.0996 294.4985,250.36 292.0098,247.4801 289.6589,245.2282 288.562,244.3609 287.7196,243.6041 282.4121,239.8398 281.7819,237.4951 280.8969,236.5497 279.5883,234.1146 277.3623,232.5097 276.85,229.8659 275.5321,228.6491 272.7127,227.1549 269.3661,226.8806 269.4233,225.1807 268.6986,224.4977 266.9561,223.5383 266.292,223.2906 263.3377,220.5605 261.8647,219.5146 261.3144,216.725 259.367,213.342 258.3704,209.6741 258.3021,209.2662 257.9344,207.0705 257.3266,205.0414 256.4311,203.9246 255.9413,203.2229 253.8843,202.2085 252.9474,201.0705 252.0132,199.3646 251.5114,195.981 250.9436,192.9906 250.0731,191.1744 249.5212,188.3176 249.3675,184.1532 250.7343,176.2048 251.5166,173.9442 253.3824,172.119 253.6761,169.9275 253.7407,167.6035 253.7327,166.8708 253.5615,165.3984 254.6234,162.969 255.3011,160.4981 256.2302,158.3619 257.4071,152.2337 257.9184,145.4221 257.2375,143.9152 257.4355,142.4432 258.1808,141.2068 259.196,140.0798 259.1403,138.4536 260.1123,136.6133 261.5906,137.5752 263.0538,138.2161 265.0939,139.4706 267.2961,140.3342 268.8733,140.6938 270.4132,137.9148 271.2926,137.1939 271.4912,135.9694 273.6887,134.1631 274.8775,132.9505 275.9129,131.6747 276.2531,129.5496 276.7001,126.6854 277.9692,124.4856 279.3172,123.0524 280.783,122.1088 282.7472,120.8599 284.0436,118.9644 284.8003,118.3094 285.8869,116.9591 287.1126,115.5254 286.5808,111.8768 286.6239,110.0095 287.007,108.5232 288.5025,104.963 289.0229,103.2779 289.2023,101.7028 288.9061,100.7424 290.5467,98.9302 292.4602,96.2585 293.407,94.8811 294.0464,94.1186 295.5847,92.4955 298.4867,91.0053 300.0013,90.3387" stroke="black" /><polygon fill="none" points="244.6504,372.8361 244.1453,371.8553 244.9702,370.583 244.8683,370.2952 244.7923,370.0822 244.3892,369.8017 242.6266,369.7483 240.9534,368.9102 236.9321,366.6572 233.4189,366.9493 231.908,366.8928 229.5157,363.6856 227.1125,363.582 225.7862,363.092 222.2396,361.0998 220.448,360.0426 213.3495,360.4453 211.126,358.0065 209.3864,352.2098 204.8181,352.0184 201.3562,351.9793 200.0392,351.0831 199.7658,350.502 199.3098,349.5325 198.1046,347.794 197.5968,347.7839 197.047,348.0984 195.8417,347.9947 195.3713,348.2888 194.8467,348.2971 194.4059,349.9808 194.3751,350.0983 194.3202,350.308 193.9799,350.7417 193.2818,351.6317 193.2454,351.678 193.1751,351.7676 192.7099,352.7342 191.9125,354.3916 191.1541,355.2624 189.482,355.7385 188.9223,356.4809 188.3054,358.0637 187.4857,359.4662 187.1025,361.163 186.8685,361.6025 186.3989,361.888 185.9554,362.4712 186.0821,361.8863 185.5745,360.7057 185.5707,360.6969 185.5669,360.6879 185.0748,359.1621 184.6408,358.1907 184.4043,357.1485 184.266,356.487 184.2618,355.4264 184.1646,354.6756 184.1647,354.1953 184.3156,353.058 184.2755,352.1235 184.2912,351.3801 184.2438,350.9705 183.9524,349.9611 183.8806,349.4299 183.8806,348.9738 184.0738,348.3371 184.2016,347.6381 184.3304,347.296 184.4349,346.825 184.6271,346.2337 185.1094,345.3609 185.3905,344.7365 185.5193,344.2666 185.6239,343.5687 185.5024,343.2424 184.9798,342.6036 184.5131,342.2615 184.2238,341.9817 183.8943,341.7684 183.7244,341.6423 183.0158,341.1169 182.3343,340.5408 182.1626,340.3957 182.0898,340.3271 182.0127,340.2352 181.8079,340.0853 181.6051,339.8449 181.1881,339.0684 181.0761,338.2026 181.1522,337.5733 181.3676,337.2291 181.5492,336.8859 181.6094,336.4593 181.6241,335.8036 181.6094,335.0064 181.6685,334.2229 181.7456,333.7393 181.8463,332.7256 181.9092,332.2854 182.1658,331.5315 182.8056,330.4114 183.8109,329.0226 184.5954,327.8411 184.8444,327.2614 185.2892,325.0197 185.4549,323.8086 185.6355,322.9829 185.9523,321.9576 186.2078,321.3294 186.5333,320.6474 187.0377,319.8765 187.5815,319.1637 187.8972,318.6369 188.064,318.1522 188.1844,317.3275 188.2252,316.7511 188.4252,316.0013 189.933,312.9255 190.5359,311.9551 191.0945,311.1854 191.8188,310.4875 192.9655,309.5899 194.0372,308.892 194.6866,308.5214 195.2589,308.136 195.6805,307.7727 195.9833,307.3947 196.2842,306.512 196.5566,304.9472 196.9553,303.7705 197.0983,302.7784 197.3538,301.7394 197.4288,301.1702 197.6241,300.6148 197.8501,300.2305 198.1726,299.923 198.68,299.617 199.5247,299.3319 200.4381,299.1744 201.6534,299.1598 202.0906,299.0606 202.4527,298.8758 203.1179,298.4935 203.2045,298.3774 203.3205,298.0767 203.3682,297.8822 203.5984,295.989 203.6015,295.4335 203.8233,293.5699 203.8138,292.9057 204.554,288.9641 204.5529,288.0454 204.3734,287.4658 204.0408,286.6675 203.4252,285.5556 203.0968,283.1904 203.0652,280.6711 203.6522,278.931 204.4656,277.4305 204.552,277.2711 204.6384,277.1116 208.5302,274.6437 209.4104,274.0855 209.9002,273.7749 214.4601,270.8833 214.7687,270.6876 218.0821,266.7015 218.1175,266.6589 218.1286,266.6455 218.2142,266.5426 233.0096,248.7433 233.0494,248.6955 233.1004,248.6341 233.2743,248.4249 233.3233,248.366 233.9219,247.6458 234.2793,247.2159 234.3054,247.1844 234.3261,247.1595 234.4256,247.0398 234.4514,247.0088 234.4824,246.9715 235.0915,246.2388 235.1706,246.1436 238.3336,242.3384 247.1641,231.8468 248.3115,228.8184 248.6231,226.952 248.7196,225.2706 248.5614,223.2568 248.7555,221.2797 248.8525,220.2449 249.2035,218.7296 250.1029,217.7867 250.9435,216.8437 252.2202,215.6155 252.8095,215.0598 253.4757,214.3851 253.6804,213.7192 254.1297,212.832 255.5183,212.0365 255.8308,211.2602 256.3657,211.0369 256.7427,210.7634 257.0637,210.6113 257.3836,210.4002 257.7933,210.0126 258.3021,209.2662 258.3704,209.6741 259.367,213.342 261.3144,216.725 261.8647,219.5146 263.3377,220.5605 266.292,223.2906 266.9561,223.5383 268.6986,224.4977 269.4233,225.1807 269.3661,226.8806 272.7127,227.1549 275.5321,228.6491 276.85,229.8659 277.3623,232.5097 279.5883,234.1146 280.8969,236.5497 281.7819,237.4951 282.4121,239.8398 287.7196,243.6041 288.562,244.3609 289.6589,245.2282 292.0098,247.4801 294.4985,250.36 295.9848,252.0996 298.0271,255.5485 298.7332,256.8965 301.0531,262.0042 302.5166,262.959 302.4475,263.3023 302.412,263.4791 301.6651,267.2051 301.4451,269.4081 300.6662,273.6519 301.883,277.4889 303.0118,280.7551 302.9227,284.9198 301.8412,286.8551 300.0522,288.3469 299.8636,288.6151 299.53,289.0896 299.9756,290.8338 300.1062,291.946 299.1802,293.6289 298.1698,294.7427 297.5616,296.0493 297.116,298.239 296.0069,299.3097 293.5384,300.5299 292.8293,301.2528 291.1559,302.6152 290.3166,304.5368 290.1143,305.8732 290.5185,308.2475 290.4989,310.6761 288.7041,312.7714 286.2705,314.9746 284.8095,316.5071 284.0276,317.2454 283.6624,317.4353 283.1071,317.4452 283.6425,320.3129 283.7621,320.9552 283.9208,321.239 283.8876,321.4065 284.1101,321.9925 284.7116,324.3368 285.7068,326.6649 286.3791,327.6902 287.029,328.6526 287.592,330.7278 287.119,332.8255 284.7417,335.2481 282.1867,337.4348 280.1367,338.1023 278.2076,339.1002 275.0039,341.7167 275.0027,344.0545 274.8908,344.7319 274.8559,344.9431 274.5968,346.5302 271.7469,348.199 269.6345,349.1905 267.3488,349.6603 265.6219,350.6639 264.3563,352.1327 263.2999,356.955 263.3874,358.3358 265.1817,364.9704 265.8742,366.0673 266.4839,366.6933 269.4918,366.3469 270.9045,367.9372 273.0673,368.4775 277.6928,367.2192 278.0605,368.7262 279.4054,370.9966 280.9266,371.9687 282.9586,373.2335 284.5795,373.9438 285.668,374.9791 286.5789,375.8785 288.51,376.1175 290.1746,376.1368 290.8857,377.005 291.0312,378.1668 292.2198,379.2543 292.5544,380.8032 292.4327,381.1487 292.9436,381.5774 294.5199,381.9632 295.6188,382.2238 296.7402,382.788 298.4946,383.6656 298.7306,383.8721 299.1224,384.3584 299.1725,384.4866 299.4059,384.8475 299.5225,384.905 299.8278,384.9649 300.153,385.5664 300.2866,385.9091 300.5672,386.2386 300.6451,386.4217 300.7534,386.576 300.94,387.1515 301.0738,387.7062 301.0495,388.3212 300.7777,388.4026 300.5203,389.0472 300.4345,389.1801 300.1906,389.3479 300.0744,389.662 300.1525,390.0257 300.8192,390.763 300.9722,391.1423 300.9227,391.4747 301.4446,391.7516 301.7833,391.9632 302.0001,392.3267 302.189,392.5411 302.2144,392.9179 302.3534,393.1193 302.4951,393.2893 302.745,393.4853 302.9507,393.7965 303.2813,394.139 303.3065,394.3823 303.4816,394.6779 303.9565,395.0778 304.3719,396.7967 304.5081,396.9535 304.6086,397.503 304.8284,398.0157 304.7623,398.5051 305.2709,399.2347 306.3069,400.1051 306.5263,400.3221 306.7512,400.4605 307.2624,401.0096 307.6069,401.3887 307.9264,401.7024 308.0182,401.8657 309.0679,402.7087 309.1959,402.9702 309.6543,403.4931 309.7767,403.7495 309.9131,404.0607 310.0798,404.2542 310.2162,404.6362 310.3052,404.869 310.7612,405.6431 310.9281,405.9648 310.9726,406.072 311.117,406.174 311.1259,406.6555 310.9737,406.9487 311.0349,407.1371 311.2017,407.3672 310.5587,408.0116 308.2183,409.3016 307.0042,410.3863 306.6109,411.0305 306.0396,411.298 305.491,411.9423 305.4526,412.314 305.2088,412.6492 305.0539,413.1047 304.3889,413.969 303.741,415.187 303.4086,415.739 303.3174,415.9443 303.3317,416.3776 303.0324,416.7234 302.5652,417.6366 301.4534,419.1587 301.1818,419.4102 301.0211,419.6616 300.9994,420.0855 300.9168,420.6352 301.2395,421.3414 302.3605,422.7541 303.1222,423.7453 303.4462,424.2806 303.7922,425.9289 303.7504,427.0024 303.4282,427.9443 302.7583,429.4524 301.7827,430.5525 300.1415,432.0353 299.2299,433.4882 298.7454,434.2344 297.7656,435.0962 295.7222,436.2393 290.7908,438.6349 290.334,438.8568 285.7357,440.3914 283.1058,441.2736 281.8571,441.4318 280.8913,441.5269 279.7592,441.6849 278.2606,441.8275 275.9256,443.1195 274.9283,443.3328 274.3713,443.3533 273.2617,443.1132 271.5816,442.9816 269.9386,442.1814 269.519,441.7974 269.3467,441.2842 268.8768,441.0088 267.8353,440.596 267.2295,440.6488 266.3359,439.8436 266.063,437.9518 265.0901,436.97 263.4844,436.5606 263.0407,436.1789 262.3916,433.1497 261.508,431.9281 260.8574,430.3726 259.5776,425.4655 259.9655,423.0397 259.9556,420.6477 259.6703,418.5475 259.6373,415.7313 257.2717,414.163 256.5696,410.8662 255.9683,408.637 256.4998,407.1607 257.1466,404.7771 255.6787,402.7589 254.8282,402.5131 251.9781,402.5718 250.5986,402.123 250.1432,401.3585 249.3944,399.134 249.283,397.5165 249.4307,395.7599 249.051,393.9833 249.254,392.1067 248.9282,390.9465 249.3747,387.4526 249.2243,385.0555 248.5849,382.8815 246.469,380.8053 245.6995,376.7329 245.7607,375.7525 245.3353,374.212 245.3853,373.6814 244.6504,372.8361" stroke="black" /></svg>