<?xml version="1.0" encoding="utf-8" ?>
<svg baseProfile="tiny" height="416.1076" version="1.2" width="500" xmlns="http://www.w3.org/2000/svg" xmlns:ev="http://www.w3.org/2001/xml-events" xmlns:xlink="http://www.w3.org/1999/xlink"><defs /><polygon fill="none" points="230.8934,148.0749 229.6219,147.4071 228.6914,147.0956 227.8306,146.8977 226.546,146.7411 224.8883,146.0376 223.9159,145.6884 221.515,145.0143 219.8154,144.624 218.984,144.2542 218.4455,143.9152 217.9207,143.3699 217.0955,142.1667 216.6098,141.6008 216.1405,141.3801 215.375,140.5766 211.2296,137.8919 210.6063,136.9849 210.1525,136.4407 209.6679,136.0461 208.8527,135.5946 208.205,135.356 207.6788,135.2719 206.3495,135.4967 205.4635,135.7543 199.5493,137.473 196.945,138.1078 195.1205,138.2625 193.7704,138.2068 192.6492,138.0711 192.1581,137.9297 191.806,137.7155 189.6833,136.7111 186.3506,135.5575 183.6324,135.1544 182.3997,134.8696 181.2935,134.4114 180.2009,133.758 179.2365,133.5445 175.8922,132.5023 175.0539,132.3504 173.498,132.2922 171.4044,132.1062 166.9691,132.0247 165.4316,132.3185 164.2398,132.2857 163.9169,132.3292 163.1556,132.5811 162.8794,132.6091 162.3095,132.5011 161.9788,132.1921 161.6736,131.7201 161.5562,131.3002 161.5622,131.0183 161.8047,130.774 161.7918,130.6158 161.5275,130.3367 161.4958,130.1902 161.5317,130.073 161.705,129.9219 161.7315,129.784 162.0683,129.652 162.0958,129.3135 162.0145,129.1687 161.5023,128.9596 161.3969,128.8541 161.4131,128.4308 161.3276,128.3393 160.8598,128.1217 160.7138,127.7494 160.5875,127.6475 160.0097,127.6424 159.798,127.5836 159.2638,127.2366 158.4663,127.2074 158.2471,127.1488 157.5161,126.434 157.2238,126.382 157.0198,126.4612 156.7342,126.2089 156.5198,126.2593 156.3011,126.1652 155.9278,126.1427 155.7917,126.0458 155.6523,125.8283 155.6165,125.5426 155.6342,125.3689 155.9114,124.847 155.8848,124.5552 155.6929,124.4316 155.0235,124.5643 154.7297,124.3759 154.3856,124.2509 154.3912,124.0898 154.576,123.9781 154.6662,123.8164 154.6738,123.6243 154.4919,123.224 154.5476,122.7912 154.5036,122.5997 154.3338,122.2707 154.1715,122.1053 153.7707,121.8825 153.7604,121.6759 153.4541,121.5019 153.2389,121.0898 152.8667,120.6696 152.6833,120.358 152.4713,120.2444 152.2197,120.3292 152.0282,120.2785 151.9607,120.107 151.7541,119.9874 151.7822,119.5969 151.7225,119.4992 151.5491,119.417 151.3336,119.4399 151.2506,119.2993 150.9564,119.2957 150.781,118.6887 150.5022,118.6637 150.1477,118.4295 149.6664,118.2957 149.5372,118.0685 149.6362,117.7288 149.6124,117.5278 149.212,117.4456 148.9156,117.0222 148.5491,117.0765 148.293,116.8151 148.0624,116.7674 147.9667,116.6703 147.9752,116.3697 147.6355,116.0516 147.6684,115.3636 147.4215,114.917 147.297,114.3562 147.1162,114.0467 146.8882,113.8217 146.8492,113.6615 146.9665,113.215 146.9111,113.1311 146.5057,112.9627 146.2455,112.2997 146.0145,111.4036 145.8965,111.1929 145.0277,110.3776 144.7298,110.3736 144.6348,110.4269 144.4815,110.6781 143.8108,110.7588 143.4672,110.7464 142.2644,110.4321 141.9108,109.8444 140.9343,109.2857 140.7658,109.3019 140.6587,109.4442 140.5259,109.4988 140.3354,109.441 140.108,109.2463 139.5453,109.2102 139.433,109.1172 139.4067,108.9962 139.4569,108.4499 139.1933,108.1374 139.0328,107.8063 138.7718,107.6744 138.3355,107.7088 138.1676,107.6089 138.0947,107.455 137.9644,107.3632 137.5678,107.4452 136.6533,107.0279 136.2257,107.0934 135.9592,107.0318 135.6467,106.8725 135.3324,107.09 135.0505,107.0656 134.9039,106.9684 134.649,106.6393 134.2727,106.5002 134.2408,106.2989 134.4627,106.0507 134.462,105.9341 134.299,105.7488 134.1135,105.6769 133.4209,105.6218 132.8559,105.6873 132.4356,105.8302 131.8525,106.1231 131.5213,106.5225 131.3836,106.5942 131.1436,106.5928 130.9341,106.5077 130.6605,106.5209 130.2482,106.8956 129.6475,106.8537 128.8672,107.1765 128.7789,107.2576 128.6862,107.8141 128.5545,108.0798 128.3789,108.2699 128.1789,108.3553 127.6674,108.4388 127.2904,108.7411 127.0635,108.8391 126.6452,108.8407 126.3178,108.6481 125.9449,108.664 125.3253,108.8479 124.5745,108.6676 124.2677,108.8224 124.1142,109.1693 123.8465,109.2248 123.7443,109.1507 123.4821,109.1868 123.4202,109.3247 123.586,109.4539 123.5984,109.5334 123.4052,109.7008 123.3766,110.0161 123.2942,110.0876 122.8693,110.1116 122.7505,110.1745 122.6819,110.466 122.589,110.5245 122.3389,110.5007 122.197,110.3807 122.0071,110.3217 121.7984,110.3257 121.1989,110.5153 120.6864,110.4245 120.4939,110.5446 120.2893,110.4767 119.879,110.0139 119.5223,109.8992 119.2684,110.0243 119.106,110.0186 119.0154,109.9563 118.9692,109.4907 118.9035,109.4118 118.5903,109.4304 118.268,109.7688 118.0692,109.8198 117.9188,109.8038 117.8378,109.7335 117.6987,109.4215 117.5931,109.3906 117.2349,109.6842 116.926,109.6688 116.7721,109.4272 116.475,109.2294 116.0805,109.3149 115.7802,109.2805 115.735,109.2015 115.9307,109.0527 115.9027,108.87 115.3707,108.8036 115.2144,108.4997 114.7888,108.371 114.6096,108.1017 114.4786,108.0069 114.0736,107.9643 113.7667,108.2982 113.6233,108.3513 113.5083,108.3027 113.359,107.9857 113.2596,107.905 112.6707,107.7793 111.6764,107.2385 112.0441,106.8186 112.242,106.4458 112.641,105.1881 112.8588,104.7989 113.7582,104.2548 114.4144,103.591 115.573,102.683 115.9914,102.2744 116.7468,101.3547 117.8757,99.2815 118.2486,97.8287 118.4551,96.2146 118.5595,95.9995 119.0672,95.4345 119.2763,95.0135 132.7512,65.1174 132.8065,64.7715 132.5903,63.6159 132.4534,62.9308 128.4491,42.8843 128.4764,42.1872 128.4004,41.5546 127.9601,39.7516 127.9015,39.0199 127.7585,38.5185 127.3518,37.7126 127.2035,36.9361 126.8072,36.523 126.6663,36.0786 125.8756,35.0668 125.6655,34.6329 125.5774,33.9401 126.1512,32.9105 127.0938,32.3574 127.3395,31.8704 128.0052,31.621 128.3979,31.2621 128.6602,30.4545 129.4051,29.8508 129.7681,29.2947 130.0994,29.1379 130.2091,29.0153 130.4081,28.5084 130.7945,28.148 131.6571,27.8658 131.8955,27.7156 132.1059,27.4783 132.2425,27.1973 132.3548,26.0197 132.8808,24.9783 133.2616,23.078 133.6044,22.2678 133.9867,21.5775 134.0008,21.5521 134.3535,20.9151 135.3041,19.9861 135.6647,19.1368 136.5181,18.3813 137.4144,17.3935 137.9326,16.6754 139.2488,15.7086 140.0757,15.0257 140.2918,14.7759 140.5657,14.3312 140.5537,13.6826 140.6594,13.5036 141.1147,13.2115 141.7151,12.9956 142.0547,12.7452 142.1232,12.6182 142.1067,12.3126 142.3578,11.9036 142.3134,10.8391 142.4766,10.1911 142.5112,9.3782 142.5798,9.1386 142.917,8.5449 143.8795,7.5898 144.098,7.1405 144.5467,6.5413 144.6492,6.0464 144.5901,5.4984 144.6552,5.249 145.1646,4.5452 145.8016,4.0324 146.4295,3.6564 147.9587,2.3828 149.2103,1.638 149.513,1.1013 149.8762,1.0677 150.0811,0.8713 150.1469,0.8715 150.5616,1.0332 150.9734,0.9886 151.4016,1.2811 151.6095,1.2281 151.5763,0.0 152.2122,0.8757 153.2627,2.688 153.387,3.0046 153.6592,4.8382 153.9318,5.4169 154.2044,5.6463 154.9445,5.761 155.3469,5.7296 155.7003,5.6163 156.8387,4.983 157.3755,4.9745 158.0037,5.2171 158.4181,5.4704 159.6763,6.4786 160.0931,6.9277 160.3375,7.4309 160.277,7.8504 159.3725,9.3366 159.1752,9.5555 158.3673,10.1288 158.2425,10.2945 158.1914,10.4863 158.2163,10.7012 158.4275,11.23 158.7447,11.6877 159.0798,12.0433 159.8069,12.6348 161.1438,13.406 161.7256,13.9784 161.9054,14.2995 162.4164,15.9396 162.964,16.9214 163.3929,17.377 163.6104,17.4946 165.2867,17.8479 165.5885,17.7981 165.8886,17.6528 166.476,17.1434 166.8348,16.9605 168.2662,16.5337 168.5516,16.3643 169.4618,14.8342 169.6708,14.5811 171.4407,13.5195 173.0923,12.154 173.6085,11.4545 173.8283,10.9638 174.5441,8.3713 174.8056,7.9159 174.9571,7.8 175.2301,7.7133 176.4336,7.6171 176.7633,7.6498 177.0335,7.734 177.5295,8.0742 177.8003,8.1905 178.508,8.3499 178.8061,8.5154 179.8393,9.4149 180.0129,9.6528 180.3703,11.2967 180.5497,11.7374 180.7996,12.1202 182.3649,13.733 182.6355,13.8283 183.039,13.8736 185.1017,13.6557 186.4486,13.755 187.6378,13.4935 188.1445,13.3138 188.4421,13.1061 188.6724,12.8109 188.975,12.1466 189.5274,10.5257 190.4968,8.2763 190.6141,8.0968 190.8878,8.0101 191.3351,8.2936 191.5892,8.5748 192.4091,9.7717 192.5025,10.0548 193.0886,14.941 193.4234,16.686 193.8151,17.5276 194.0173,17.7353 194.3646,17.951 195.1687,18.3047 195.7884,18.7258 196.4509,19.6842 198.5925,23.5797 198.7925,23.8558 199.1588,24.1466 200.0654,24.467 200.4342,24.4482 202.8424,23.9238 203.3579,24.1681 203.7687,24.6615 204.2837,26.2901 204.2897,26.9662 204.1705,27.3568 203.59,28.3507 203.0468,29.7538 200.2383,34.1552 199.9906,34.8894 199.9352,36.1035 199.9856,36.658 200.1291,37.1447 200.3546,37.4881 200.6781,37.792 201.3964,38.1718 202.4142,38.3771 203.0314,38.3731 203.5149,38.169 204.6493,37.1675 205.0888,36.9829 206.5356,36.6641 207.0291,36.4462 207.4857,36.1398 207.9531,35.664 208.7761,34.5622 209.1007,34.329 209.6945,34.1661 210.1194,34.1838 210.5166,34.3237 210.9575,34.5944 211.4568,35.0801 211.7531,35.4683 211.9699,35.8895 212.1,36.3498 212.0878,37.6836 212.16,38.3021 212.2774,38.4643 212.9265,38.9181 213.435,39.1562 213.9342,39.3125 215.5997,39.6904 216.5506,40.2703 220.0612,41.3313 220.57,41.398 222.3766,41.2287 222.7584,41.3032 223.1854,41.6158 223.3531,42.0993 223.3334,42.5564 223.219,42.9574 222.6993,44.0437 222.5596,44.5441 222.6295,45.1824 222.8861,46.1037 223.2263,46.8244 223.6426,47.3251 224.437,47.8875 225.4467,48.3295 227.6471,49.0726 228.9223,49.2951 230.7929,49.4284 232.3124,49.2985 233.4174,49.0702 236.3874,47.9942 237.0165,47.9255 237.5597,48.0148 238.7062,48.3605 239.9883,48.8414 240.8789,49.3486 241.625,49.9755 242.1967,50.3652 244.1578,50.8456 244.8698,50.8137 245.2525,50.6059 245.7121,50.1238 246.6516,49.3128 247.4053,48.8684 248.3051,48.4297 249.5381,48.1295 250.8186,48.0229 251.8192,48.2812 252.7498,48.6347 253.8122,49.2316 254.2824,49.5933 254.424,50.2066 254.1836,51.1829 254.3652,51.5099 254.6701,51.7364 255.7989,52.3793 256.5107,52.7544 257.3574,52.8586 258.5548,52.7081 259.5965,52.3337 260.3743,52.3772 260.8176,52.6161 261.3596,53.0219 261.9133,53.5135 262.2279,53.9828 262.3286,54.4623 262.418,55.3589 262.5476,55.8339 262.7222,56.1788 263.1559,56.3672 263.5923,56.4149 264.1808,56.3143 264.8967,56.2461 265.4585,56.4266 266.6346,57.0917 266.9704,57.4698 267.4749,58.1681 267.7991,58.3344 268.1457,58.4298 268.7618,58.2328 269.1452,58.1599 269.6146,58.3205 270.0374,58.6177 270.8199,59.1685 271.4311,59.4022 272.1651,59.4585 272.9374,59.3159 273.7237,59.0719 274.4287,58.4268 275.2102,57.8419 275.6744,57.5995 276.0946,57.631 277.1218,58.0757 278.9235,58.9853 279.4943,59.2834 280.0625,59.3403 281.23,59.2196 282.0132,59.0029 282.6629,58.5555 283.3705,57.6321 283.8254,56.9698 284.6903,56.3115 285.8512,55.7198 286.6133,55.0657 287.4602,54.2753 288.1365,53.0906 288.9175,52.228 289.6079,51.8172 290.2518,51.6068 290.9671,51.5685 292.1665,51.7629 292.5798,52.0181 292.933,52.5169 293.2182,53.2257 293.6133,54.3286 293.9065,55.1357 294.4995,55.9729 295.0742,56.6061 295.8838,57.2232 296.7159,57.7684 297.0864,58.0682 297.4692,59.0898 297.6642,60.4384 297.4404,61.3031 297.0748,62.1164 297.1006,62.814 297.167,63.4144 297.1969,63.8919 297.0291,64.5373 296.6938,65.1188 296.4357,65.3957 296.0072,65.6511 295.574,66.0295 295.1355,66.5847 294.5628,67.3701 294.4522,67.7352 294.1303,68.9773 293.7554,69.5948 293.1733,70.1965 292.7474,70.7642 292.6497,71.1295 292.7249,71.9502 292.8315,72.4901 293.0434,73.2887 293.288,74.0695 293.5703,74.5457 294.296,75.3034 294.7725,76.1737 295.4493,77.084 296.0032,77.6376 296.445,77.9447 296.8702,78.0986 297.3476,78.235 298.4693,78.2743 299.4698,78.1789 300.684,78.1137 301.0912,78.1939 301.3216,78.3568 301.5548,78.7215 301.9644,79.3582 302.4205,79.9407 302.888,80.6029 303.5244,81.5982 304.1167,82.2897 304.1815,82.8751 304.122,83.2777 303.9588,83.6786 303.7729,83.9017 303.4097,84.0936 302.8983,84.1867 301.6023,84.4524 300.6954,84.6576 299.6565,84.7806 298.3662,84.7312 296.8659,84.8112 296.0725,85.0308 295.4445,85.3585 294.6177,85.8167 293.9559,86.0849 293.0594,86.6965 292.7204,87.0551 292.7744,87.4328 293.0164,87.7074 293.3229,87.938 293.7661,88.1108 294.1828,88.4185 294.4384,88.8136 294.6057,89.2372 294.6971,89.6806 294.726,90.4401 294.5637,91.0327 294.2501,91.5985 294.2353,91.959 294.3806,92.2846 294.7094,92.4083 295.5733,92.534 297.3106,92.4917 298.0188,92.5638 298.9072,92.8041 299.6727,93.2153 300.3266,93.6321 300.9268,93.9353 301.3232,94.0979 301.7771,94.0848 302.2423,93.9348 302.7421,93.6426 302.4458,94.5066 302.2273,95.1022 301.4146,96.2017 300.8423,96.7871 300.4517,97.0006 299.4215,97.2602 299.0015,97.4363 297.7899,98.1558 297.0494,98.7802 296.5887,99.5004 296.2149,100.3773 296.0362,101.1886 295.9844,102.1615 296.153,103.8824 296.0694,104.6792 296.0365,106.7592 296.2564,108.8052 296.2719,109.6056 296.2383,110.4253 296.0632,111.5797 296.1442,113.1433 296.1045,113.3831 295.9445,113.7372 295.5506,114.0908 294.9202,114.4514 293.2999,115.1507 290.1335,116.0704 287.6372,116.3599 286.9176,116.5405 285.7015,116.7395 282.6508,116.9695 282.2539,117.0876 281.6434,117.4026 281.1181,117.988 280.6939,118.8655 280.3212,120.0594 279.823,122.0611 279.7355,123.2027 279.5195,124.7445 279.4251,124.9839 279.1118,125.4436 279.0033,125.7196 278.9026,126.3364 278.7178,126.7275 278.4395,127.175 278.0851,127.5703 274.0432,131.4879 271.3901,134.6018 270.2845,136.0071 269.3415,136.9766 266.3657,139.5571 264.983,140.9394 263.1562,142.3643 263.0032,142.4837 262.2264,143.0896 260.3972,144.9017 259.4551,145.9463 257.572,148.2896 254.9165,150.2194 252.1166,151.7495 250.3288,152.927 249.6352,153.6056 248.5906,154.8793 247.4501,155.961 246.3431,156.6923 245.5618,156.9232 244.4598,157.02 243.4359,156.8051 241.0601,155.6048 240.0798,154.9313 239.3501,154.0165 238.2444,152.9142 237.8411,152.6044 235.0039,150.9691 233.8633,150.1658 230.8934,148.0749" stroke="black" /><polygon fill="none" points="271.5978,317.8822 271.2806,329.839 271.2797,329.8749 271.2694,330.2603 271.4637,330.5701 272.4457,331.6352 272.9667,332.3404 273.2356,333.0527 273.2046,333.4927 273.0891,333.7836 272.307,334.6359 271.8174,335.2786 271.7672,335.8762 271.8119,337.2458 272.0263,338.1827 272.3057,338.8439 272.464,339.0743 272.5517,339.2019 272.9388,339.611 273.2934,340.1431 273.0914,340.5929 272.8706,341.1073 272.7344,341.7146 272.5573,342.7582 272.3101,343.5227 272.0955,344.2642 271.8004,344.7998 271.4371,345.5111 271.1565,345.8584 270.8942,346.2857 270.7653,346.7966 270.6859,347.2627 270.5274,348.1795 270.4588,348.6457 270.326,349.0803 270.2512,349.2754 269.5693,350.1951 269.4428,350.5256 269.2193,351.2305 268.8296,351.8131 268.6169,352.0435 267.3243,353.0673 266.6593,353.3555 265.7541,353.5575 265.582,353.602 265.3386,353.716 264.9666,354.0456 264.7265,354.3583 264.3727,354.7147 263.9936,355.0772 263.4406,355.9922 262.7376,357.3848 262.3489,358.1883 262.0961,358.951 261.9118,360.0757 261.5938,360.8576 261.2351,361.442 260.9541,362.0505 260.3631,362.9699 260.0032,363.68 259.851,364.2718 259.8351,364.6053 259.8691,365.0961 259.8085,365.6072 259.5962,366.5027 259.4574,367.237 259.3809,367.825 259.4056,368.3491 259.3821,368.8614 259.3457,369.5293 259.2293,370.0323 259.1234,370.4674 259.0379,370.9638 258.9054,371.4617 258.7218,372.1928 258.5284,372.6771 258.2787,373.2773 258.2541,373.7037 258.2967,374.2836 258.3102,374.6953 258.211,375.0645 258.296,375.4114 258.4407,375.7437 258.5422,376.3556 258.5342,377.0362 258.3106,377.6826 258.1806,378.7879 258.129,379.2086 258.0884,379.5018 258.0021,379.9164 258.1422,380.3341 242.4086,388.615 239.4662,390.1636 238.7942,390.5791 238.1223,390.9946 237.3669,391.7036 236.5117,392.7414 235.0444,394.0151 234.2345,395.14 233.8168,396.0023 233.5843,396.3491 233.2372,396.7588 232.6036,397.224 230.9082,397.8608 229.463,398.2335 228.4568,398.6731 226.0419,399.1488 225.4465,399.51 224.8648,399.7302 224.3959,399.9949 223.6865,400.6247 223.3445,401.1339 222.4575,402.82 221.8346,403.6672 220.8862,404.6225 220.7202,404.7564 219.722,405.5614 218.9291,406.4926 218.5584,407.0973 218.4122,407.8941 218.3214,408.7648 218.3161,410.4541 218.4513,411.5531 218.3614,412.1789 217.6759,413.7308 217.1675,414.6854 216.6234,415.2576 216.0349,415.6833 215.4817,415.9642 215.0816,416.0942 214.0215,416.1076 213.1732,415.9429 212.3468,415.9062 211.8535,415.7607 211.1068,415.3743 210.912,415.1333 210.6859,414.6344 209.9237,413.493 209.0194,412.7605 208.5308,412.2317 207.4188,411.5297 206.8217,410.8735 206.6076,410.7555 206.2038,410.6185 205.4622,410.5963 204.98,410.6847 204.3104,410.954 203.8275,411.0733 203.479,411.0737 202.8813,411.0489 202.1642,410.8707 201.7088,410.6754 201.5561,410.3466 201.0718,409.7651 200.5542,408.7965 200.3826,408.589 199.2237,407.755 198.7875,407.3013 198.4366,406.5927 197.9839,406.0061 197.7854,405.4607 197.2226,404.7542 197.0924,404.6607 196.6676,404.3553 196.3315,404.2276 195.8049,404.2784 195.0426,404.2038 194.3663,403.5275 193.3915,402.6795 191.6069,401.3859 190.6072,400.8064 188.6095,399.8169 187.5241,399.4356 186.4908,398.9668 183.6177,397.1449 182.6489,396.366 181.4692,395.708 181.1615,395.6649 180.9146,395.6967 178.9381,396.2608 177.8853,397.0416 177.3257,397.3022 176.7452,397.4428 175.9313,397.5127 175.1586,397.5065 174.1986,397.3459 172.9235,397.0048 171.9435,396.8453 169.8314,396.7964 167.678,396.9343 167.1023,396.88 166.6242,396.7377 166.2936,396.5397 165.8732,396.1844 164.3791,394.671 163.8962,394.3248 161.5323,393.1549 160.6196,392.5942 159.423,391.656 158.7003,391.2177 157.9703,390.8659 157.3948,390.7007 156.6909,390.6186 155.9689,390.6124 155.0808,390.7295 151.8466,391.5086 149.7446,391.7313 148.9026,391.6871 148.2776,391.5498 147.0691,390.9285 146.1904,390.2767 145.5873,389.738 144.5641,388.4619 144.0491,387.5254 143.4507,386.5626 143.1321,386.1728 142.7615,385.8904 141.7855,385.5078 140.9719,385.3436 140.0715,385.3677 139.4898,385.5076 139.0507,385.7564 138.7193,386.0679 137.6398,387.4545 136.9522,388.0015 136.4227,388.2982 135.972,388.4745 135.4884,388.5096 134.9919,388.4541 133.5185,387.9098 132.6264,387.4223 131.5766,386.9534 130.4843,386.7199 129.7827,386.6946 127.1032,387.0548 126.0361,387.0717 125.4605,386.9978 124.8544,386.7833 124.1551,386.4606 122.9424,385.5965 118.1507,383.0473 117.1609,382.4311 116.6357,382.0809 114.0564,379.697 112.9259,378.6131 111.3415,377.4098 110.3357,376.5059 108.8675,375.4555 107.818,374.3198 105.9878,372.6686 105.1954,371.8496 100.8204,368.1051 100.3507,367.8328 99.8821,367.6543 98.2567,367.4575 97.7411,367.2887 97.2086,366.9707 95.6601,365.7828 92.8418,364.144 92.0707,363.5026 91.5434,362.8304 91.065,362.0014 90.8317,361.2615 90.5263,359.0696 90.5579,358.6416 90.717,358.1569 91.3008,357.0766 92.5289,355.5576 93.3409,354.2859 93.7378,353.7956 94.2439,353.2946 95.6821,352.0054 96.861,350.4408 97.1752,349.7929 97.5688,348.092 97.9256,345.4428 97.98,344.6479 97.9842,343.812 97.6072,342.1282 97.3609,341.6191 97.1176,341.299 96.2629,340.4843 95.8103,340.1665 94.6278,339.6123 93.3453,339.1117 92.7796,338.9813 90.9858,338.7305 89.8081,338.4299 87.2632,337.6138 85.9603,337.1325 85.0965,336.7321 84.2745,336.0859 83.5691,335.3425 83.226,334.8891 82.9524,334.5244 82.6117,333.8045 82.2016,332.3741 81.9596,330.5778 81.8695,328.4025 82.2561,327.7236 82.5341,327.3836 83.9314,326.5165 84.6636,325.9649 85.2945,325.4055 85.8343,324.8247 86.39,323.8754 86.8639,322.8069 88.5676,320.7585 88.9996,320.0629 89.3224,319.396 89.8135,318.7795 90.0806,318.2539 90.8437,315.6507 90.7846,315.1126 90.6373,314.5792 90.349,313.9433 89.779,312.9738 88.6762,310.2258 88.2022,307.6166 87.6955,305.3608 87.4088,303.6809 86.7135,302.3446 85.1489,300.0213 84.3234,298.8958 82.7763,293.8274 82.2875,292.8079 81.8631,292.2749 81.3615,291.8361 80.6204,291.3085 79.7722,290.8281 79.235,290.6698 78.5972,290.6152 78.0734,290.6799 77.5034,290.837 77.0055,291.1895 73.9655,293.7457 73.3576,294.1374 72.8478,294.2751 72.1179,294.3704 71.4446,294.335 70.8888,294.1762 69.7542,293.6819 68.5134,293.0453 67.4872,292.6337 66.8783,292.2894 66.3279,291.8434 65.2881,290.6734 64.7287,289.4462 64.3592,288.4955 63.6066,286.3695 61.927,283.6652 61.5285,282.919 60.9855,281.6772 60.6397,281.1246 60.2172,280.6848 58.9577,279.858 57.932,279.437 56.935,279.1672 56.3709,279.1012 55.7385,279.1209 54.318,279.2454 53.5799,279.3875 53.0304,279.6098 51.4693,280.4848 50.5361,280.8532 48.941,281.1373 46.1838,281.3483 45.4746,281.4555 45.4242,281.4631 45.0033,281.6648 44.2508,282.4862 43.798,282.6143 43.1772,282.6983 42.3272,282.7117 41.2658,282.5331 40.9285,282.3704 40.1781,281.7354 38.6495,280.0837 37.5261,278.4787 36.3647,276.3069 35.6167,274.2148 35.0575,272.1083 34.6553,271.1754 33.3234,268.5134 30.5679,264.9355 29.4009,263.1347 28.7429,262.1157 28.0984,260.3012 27.8458,258.8169 27.7566,257.0391 27.8116,256.2755 27.93,255.6592 28.1482,255.182 28.8964,254.0779 30.0074,252.6376 30.4578,251.8961 30.8002,251.143 31.3354,249.5536 31.815,247.5531 32.2748,246.1784 32.4461,245.246 32.5178,244.3944 32.4469,243.5767 32.2692,243.0494 31.8084,242.1068 31.2303,241.2234 30.6751,240.5679 29.3318,239.4067 27.348,237.1169 26.9674,236.8056 25.6616,236.0818 25.1436,235.6572 24.6804,235.1147 23.8381,233.8164 21.9854,231.7666 21.5508,231.1876 21.3215,230.4933 21.3248,230.1771 22.5657,225.3585 22.783,224.2204 22.8702,222.9968 22.7998,220.7103 23.0922,219.2624 23.338,218.6251 23.6751,218.1171 24.7416,217.0587 25.4721,216.1034 26.0432,215.4625 27.2494,214.3826 28.0216,213.9619 29.2467,213.6776 30.3832,213.2695 31.019,212.8626 31.8458,211.9042 32.1699,211.6558 32.6704,211.2724 33.6657,210.6986 34.5849,210.3361 36.48,209.8152 36.9992,209.5731 37.722,209.1161 39.1502,207.8183 39.7104,207.1555 40.1986,206.3305 40.4339,205.6655 40.56,204.9749 40.6356,204.2118 40.5154,201.3631 41.01,198.535 41.2081,196.8657 41.1299,194.6776 41.0317,194.1115 40.5207,193.1472 39.8728,192.2188 39.2285,191.4846 38.5244,190.7984 38.1122,190.4858 37.7,190.1732 37.161,189.8484 36.5851,189.6328 36.06,189.5303 35.4196,189.5203 34.8274,189.5869 32.0413,190.2424 31.0854,190.4159 30.4941,190.4241 29.8497,190.3412 29.1075,190.1199 28.4694,189.7201 27.7058,189.0538 27.021,188.2823 26.4997,187.5422 25.8701,186.4271 25.3143,185.1905 24.7242,183.6122 23.5354,181.0138 23.072,179.3462 22.7418,178.4207 22.3251,177.5967 21.8203,176.8776 21.4268,176.4273 20.8656,175.9153 20.3174,175.5878 19.9212,175.4543 19.4649,175.4248 17.9876,175.6238 17.5235,175.6038 16.9353,175.5063 15.6443,175.0051 13.7537,173.5726 10.7435,172.1175 10.4022,171.8153 9.9885,171.2722 9.126,169.9364 8.6549,169.506 8.3582,169.4375 7.0004,169.4155 6.2594,169.3222 4.6999,168.6674 3.6002,168.3577 3.2295,168.1865 2.8883,167.9053 2.2366,167.0263 0.7106,165.468 0.4661,165.0058 0.361,164.6166 0.127,161.3186 0.0,160.4821 1.0527,160.7328 1.4766,161.033 1.9922,161.2059 2.128,161.3479 2.2963,161.7146 2.8387,162.1077 2.8547,162.5115 3.1426,162.8836 3.0107,163.1375 3.064,163.3021 3.2321,163.4255 3.7233,163.4569 3.8881,163.6277 4.052,163.6697 4.7109,163.6111 4.7764,163.8044 4.7259,164.0049 4.7673,164.1663 4.5805,164.5141 4.7032,164.5714 5.0467,164.5767 5.2649,164.7609 5.5318,164.5954 5.6033,164.7313 5.517,164.9534 5.6001,165.0843 6.0983,165.102 6.3903,165.3318 6.9661,165.2449 7.1554,165.4383 7.1857,165.7383 7.3091,165.9997 7.6006,166.132 7.8503,166.3613 7.9473,166.3762 8.1577,166.2633 8.2122,165.8678 8.2869,165.751 8.7668,165.7122 8.8904,165.5052 8.899,165.0447 8.7442,164.6239 8.0154,164.0298 7.8076,163.7227 7.7786,162.3418 7.9859,161.6853 8.0138,160.988 8.2169,160.779 8.8704,160.6914 8.9873,160.6234 9.0872,160.3122 9.6032,160.0552 9.6836,159.6723 9.8079,159.3988 9.6716,158.7511 9.374,158.5723 9.3223,158.0269 8.7845,157.538 8.7617,157.425 8.9346,156.9201 8.9249,156.7909 8.7443,156.6474 8.1405,156.6127 7.7605,156.2715 7.4607,156.1348 7.4255,155.9394 7.6076,155.8156 8.4211,155.6844 8.7504,155.4748 9.1751,154.7617 9.3209,154.3988 9.479,154.2677 9.5942,154.2553 10.1743,154.457 10.2714,154.3751 10.2227,154.1142 10.4402,154.0098 10.6689,153.9895 11.0406,153.8165 11.5879,153.7842 11.7977,153.7074 12.0351,153.7202 12.2969,153.8902 12.8734,153.8739 13.1459,154.0132 13.2599,154.223 13.1513,154.4831 13.2448,154.574 15.1408,154.6046 16.0235,154.6188 16.7208,154.5577 17.1258,154.3777 18.0764,154.3889 18.3909,154.0824 18.6894,154.0815 18.7008,153.9178 18.5975,153.7299 18.6689,153.5934 19.0661,153.5898 19.2639,153.4901 19.3819,152.9625 19.7373,152.8862 19.8729,152.7173 19.7886,152.2855 20.0397,152.1812 20.0753,151.8639 20.2007,151.7414 20.4103,151.7941 20.7712,152.0355 21.2382,152.1726 21.8455,152.0153 22.5779,152.233 22.9205,152.4161 23.3064,152.9676 23.6198,153.1365 23.8454,153.0656 24.0042,152.7186 24.1009,152.6437 24.5461,152.6071 24.6102,152.4406 24.2393,152.2315 24.215,152.0783 24.3718,151.809 24.6701,151.5363 24.3882,150.9733 24.4518,150.791 24.8478,150.7034 25.2322,150.793 25.5977,150.6027 26.2521,150.9145 26.5269,150.8956 26.8555,150.7701 26.9299,150.8143 27.0409,151.0586 27.175,151.7297 27.4218,151.9619 27.4762,152.1404 26.9816,152.7561 26.9466,152.9538 27.092,153.2897 27.0767,153.4296 26.8892,153.5902 26.8263,153.7398 27.0039,154.0531 26.9626,154.2644 27.0449,154.5079 27.519,154.496 27.8326,154.5523 28.3125,154.262 28.4598,154.2776 28.8031,154.4473 29.0745,154.2022 29.4221,154.069 30.139,154.4044 30.2559,155.0445 30.4984,155.144 30.8362,155.5179 31.0622,155.5596 31.766,155.1867 32.1674,155.1952 32.3741,155.4551 32.3165,155.8133 32.4188,156.0935 32.4054,156.4707 32.7635,156.9554 32.8735,157.2411 33.0933,157.4323 33.2476,157.4185 33.4272,157.198 33.7131,157.0586 33.858,156.3528 34.0424,156.1928 34.2529,156.1836 34.6419,156.3786 35.2018,156.3371 36.1534,156.8292 36.8676,157.0568 36.9156,157.4122 37.1493,157.425 37.3766,157.2659 37.6704,156.8877 37.6424,156.2663 37.6854,156.1669 37.8437,156.0585 38.0359,155.574 38.1548,155.4756 38.6909,155.2598 38.8668,155.005 39.0546,154.8706 39.0802,154.7887 39.0008,154.6945 38.8241,154.6582 38.7252,154.5559 38.5112,154.5209 38.5139,154.3744 38.8895,154.0717 39.0153,153.8092 39.4484,153.7175 39.4756,153.4267 39.5592,153.2817 39.8803,153.1202 40.1305,152.8262 40.8226,152.743 41.1455,152.6135 41.4589,152.6452 41.5294,152.3828 41.7977,152.2061 42.0521,152.1237 42.4226,152.2895 42.6461,152.0629 43.0704,152.0176 43.1358,151.7524 43.1189,151.4642 42.7654,150.7496 42.7782,150.6431 42.9314,150.4473 43.314,150.1497 43.2567,150.0145 42.8886,149.8783 42.2264,149.8807 41.8948,149.6238 41.6042,149.6169 41.5112,149.5564 41.4968,149.3854 41.6391,149.1999 41.6128,148.8747 41.6768,148.7887 42.0948,148.6584 42.0774,148.4904 42.1949,148.4411 42.4525,148.5295 42.7323,148.7321 42.9849,148.7343 43.2628,148.8338 43.6295,148.4946 43.9643,148.4528 44.1731,148.3322 44.1765,148.5246 44.0333,148.6535 44.0565,148.7764 44.2412,148.677 44.5469,148.6519 44.8419,148.4253 45.2028,148.4001 45.6974,147.9535 45.9401,147.9088 46.3677,147.7199 46.5347,147.7459 46.7114,147.8825 46.9718,147.8285 47.1777,147.9483 47.311,147.9556 47.4112,147.9413 47.9734,147.5911 48.3006,147.6282 48.5013,147.4403 48.7317,147.5995 48.9378,147.475 49.1911,147.5145 49.3099,147.4646 49.4393,147.3 49.746,146.6828 49.9804,146.4821 50.4394,146.4356 51.6024,146.4757 51.9834,146.339 52.1906,146.173 52.2902,146.0088 52.3076,145.5236 52.3936,145.3452 52.7513,145.4157 53.0355,145.1673 53.3388,145.0792 53.4713,144.8474 53.5647,144.8181 53.7601,145.0561 53.9517,145.0749 54.1943,144.9953 54.3573,145.1468 54.4337,145.6476 54.667,145.7351 54.7693,145.8935 54.8352,145.9955 55.1219,145.9797 55.27,146.0704 55.3726,146.1331 55.6619,145.8547 56.0625,146.0598 56.8073,146.0908 56.9809,146.06 57.4475,145.801 57.5666,145.7766 58.035,145.8645 58.6134,145.6508 58.627,145.5156 58.5742,145.4497 58.3293,145.3533 58.1263,145.1261 57.7629,144.8691 57.6981,144.7149 57.6081,143.7964 57.7117,143.5562 58.497,142.4527 59.3087,141.9607 59.5968,141.5984 59.7666,141.1805 59.9778,141.1094 60.2587,141.1049 60.611,140.8501 60.7812,140.627 60.8261,140.2785 60.8489,140.1069 61.0563,139.8155 61.2437,139.3556 61.6911,139.0475 61.7352,138.7621 61.6537,138.4084 62.0082,138.1769 62.1545,137.6799 62.4197,137.7085 62.5076,137.6479 62.4631,137.4854 62.5267,137.4087 62.3767,137.1366 62.4257,137.0492 62.6482,137.0151 62.8994,137.1317 63.1715,137.1088 63.3193,137.0036 63.528,136.6993 63.7983,136.5773 63.9627,136.1666 64.3914,135.9916 64.5126,135.5059 64.8474,135.4156 64.9295,135.2642 64.8521,135.0223 64.436,134.6674 64.478,134.3755 64.6144,134.115 64.5645,133.6262 64.6084,133.5017 64.8202,133.395 64.8608,133.3184 64.7793,133.0989 64.5664,132.8236 64.4707,132.492 64.5257,132.4155 64.6751,132.3698 64.8229,132.183 65.1345,132.3186 65.1945,132.176 64.5453,131.8066 64.5431,131.6468 64.637,131.5959 64.9199,131.6129 65.1266,131.4539 65.9214,131.5293 66.1425,131.4404 66.1877,131.1187 65.9988,130.7021 66.0011,130.3632 65.6685,130.0632 65.4454,129.5795 65.1564,129.5493 65.0298,129.4537 64.9862,128.9512 64.8791,128.7436 64.6324,128.4787 64.6029,128.1035 64.5386,128.0298 63.9365,127.7883 63.9046,127.5484 64.033,127.2217 64.0237,127.04 63.834,126.8369 63.5424,126.7175 63.218,126.3701 62.7399,126.2679 62.5611,126.0387 62.1836,126.0359 62.0199,125.9299 61.8358,126.0776 61.7276,126.0923 61.6564,125.8998 61.716,125.7322 62.0426,125.4526 62.6215,125.2908 62.8956,125.1541 63.1903,125.1899 63.4649,125.4358 63.7771,125.4384 63.9198,125.1316 64.0662,124.9711 64.1753,124.4286 64.4464,124.2611 64.5473,124.0828 64.783,124.0541 65.1247,124.1969 65.7216,124.1348 66.0971,124.2181 66.293,124.137 66.2561,123.93 65.9341,123.5796 65.8948,123.3242 65.9596,123.1944 66.1717,123.0154 66.3563,122.6956 66.6144,122.5821 66.6567,122.3999 66.5308,122.2734 66.3904,122.2419 65.748,122.3207 65.6016,122.312 65.526,122.2509 65.5522,121.8838 65.3897,121.6273 65.3459,121.3365 64.9987,121.2103 64.9902,121.0303 65.2692,120.4432 65.2504,120.2554 65.0482,119.9827 65.0671,119.8217 65.1352,119.7629 65.5683,119.7919 65.8189,119.7294 65.8985,119.7618 66.2254,120.2287 66.5145,120.2793 66.6889,120.2398 67.0439,120.4912 67.2425,120.4829 67.5792,120.0252 67.9709,119.8618 68.0149,119.6569 67.8198,119.3576 67.79,119.0093 67.7038,118.896 67.2956,118.6685 67.2239,118.5111 67.1744,117.982 67.0734,117.8068 66.7964,117.5785 66.7041,117.3868 66.7693,117.268 66.937,117.2147 67.0271,117.0297 67.4018,116.8938 67.6887,116.7176 67.8628,116.3509 68.0137,116.2136 68.4125,116.0226 68.5583,116.0318 69.3246,116.4482 69.7128,116.4069 70.0399,116.2591 70.3246,116.2603 70.8029,116.0661 71.0074,116.0518 71.1338,116.1072 71.5846,116.1268 71.8555,116.2899 72.1715,115.8462 72.3166,115.8549 72.3932,115.9574 72.5088,115.9232 72.6196,115.7441 72.7473,115.734 72.8508,116.0788 72.9258,116.1055 73.1115,116.002 73.3176,116.1107 73.4138,116.0055 73.5118,116.0017 73.7657,116.2751 73.7875,116.1093 73.7074,115.9801 73.892,115.844 73.9946,115.8302 74.1119,115.9237 74.2315,115.8142 74.3656,115.8261 74.4091,116.0936 74.5342,116.132 74.7136,115.6917 74.7777,115.6435 75.1238,115.6718 75.1837,115.6284 75.2078,115.4252 75.051,115.2041 75.1103,115.0948 75.2317,115.1148 75.3471,115.2591 75.5397,115.0749 75.6898,115.0822 75.956,115.27 76.3482,115.1854 76.708,115.401 76.9155,115.2793 77.0507,115.0708 77.2216,115.0033 77.303,115.0368 77.5266,115.3491 77.6981,115.4134 77.8841,115.1688 78.1695,115.1874 78.3107,115.1221 78.5336,114.7508 78.9845,114.5237 79.1741,114.1233 79.2949,114.079 79.3949,114.1947 79.4217,114.5111 79.603,114.5401 79.7995,114.3937 80.046,113.8677 80.2022,113.7576 80.3943,113.774 80.619,114.0168 80.7749,114.0455 80.8067,113.8491 80.5555,113.5979 80.563,113.53 80.7704,113.4083 80.8143,113.1193 80.9595,113.0299 81.0143,113.0486 81.0848,113.2544 81.1967,113.2898 81.2942,113.2207 81.4399,112.9273 81.8338,112.8729 82.2517,112.4118 82.8917,112.2053 83.1499,112.2301 83.8307,112.7337 84.1464,112.6487 84.4975,112.6809 84.7108,112.5823 84.7526,112.238 85.0262,112.0558 85.1521,111.8498 85.6591,111.7958 85.9116,111.6662 86.369,111.6296 86.5799,111.5363 87.2459,111.5435 87.5801,111.2555 87.9009,111.2234 88.2255,110.977 88.4438,110.9331 88.6332,111.1263 88.884,111.202 89.3511,110.9446 89.6486,110.9885 89.9522,110.9277 90.5447,111.2814 90.9305,111.1089 91.261,111.1225 91.3894,111.0332 91.5536,110.7694 91.7522,110.7103 91.9585,110.7601 92.4136,111.1119 92.9382,111.0946 93.2034,111.3221 93.3079,111.3064 93.5725,111.0854 93.8687,111.1298 94.0487,111.0551 93.9977,110.8556 93.8666,110.7409 93.8682,110.5834 94.3595,110.492 94.6497,110.1576 94.7616,110.1568 95.0639,110.3468 95.1915,110.3181 95.2377,110.2408 95.0931,109.7475 95.0826,109.3513 95.366,108.6194 95.5778,108.4013 95.9744,108.3188 96.7,108.3077 97.3677,108.1976 97.8486,108.4406 98.4158,108.4015 98.7229,108.6689 98.9461,108.6685 99.7785,108.0433 100.0416,107.7821 100.2204,107.4455 100.2244,107.1386 100.3376,106.8083 100.7962,106.5056 101.2374,106.3208 101.4113,105.954 101.4231,105.704 101.3326,105.3466 101.2307,105.1966 100.8738,104.9623 100.3221,104.8359 100.2667,104.6663 100.326,104.5897 100.6912,104.4166 100.6806,104.1009 100.8353,103.9518 101.2856,103.9106 101.6434,104.0044 101.9752,104.2004 102.1291,104.2099 102.3763,104.1224 102.6678,104.1064 102.7946,103.8089 103.0137,103.7503 103.3985,103.9364 103.6949,103.852 103.8794,103.8832 104.3568,104.1998 104.9969,104.0807 105.066,104.1175 105.0723,104.3511 104.7873,104.7058 104.6839,104.9827 104.7733,105.2125 105.0776,105.5366 105.1087,105.637 105.0387,105.9571 105.0763,106.0976 105.3649,106.2356 106.5968,106.5343 106.7325,106.6231 106.8096,106.8211 106.6156,107.1355 106.6412,107.2029 106.736,107.2615 107.1244,107.2265 107.3777,107.4007 107.7138,107.3808 107.7578,107.6254 107.8459,107.6721 108.0653,107.6543 108.418,107.3808 108.6138,107.3475 108.8422,107.3557 109.2678,107.5177 109.6871,107.8246 109.8359,108.1305 109.7689,108.4155 109.8327,108.6064 110.0446,108.7545 110.0501,109.099 110.3547,109.1175 110.4215,108.9263 110.4975,108.8818 110.8392,108.976 110.9286,108.7911 111.3157,108.7387 111.4071,108.6581 111.351,108.4372 111.6298,108.3638 111.7205,108.2791 111.7138,108.0863 111.4716,107.9579 111.4403,107.8213 111.5699,107.6624 111.4779,107.3325 111.5308,107.2672 111.6764,107.2385 112.6707,107.7793 113.2596,107.905 113.359,107.9857 113.5083,108.3027 113.6233,108.3513 113.7667,108.2982 114.0736,107.9643 114.4786,108.0069 114.6096,108.1017 114.7888,108.371 115.2144,108.4997 115.3707,108.8036 115.9027,108.87 115.9307,109.0527 115.735,109.2015 115.7802,109.2805 116.0805,109.3149 116.475,109.2294 116.7721,109.4272 116.926,109.6688 117.2349,109.6842 117.5931,109.3906 117.6987,109.4215 117.8378,109.7335 117.9188,109.8038 118.0692,109.8198 118.268,109.7688 118.5903,109.4304 118.9035,109.4118 118.9692,109.4907 119.0154,109.9563 119.106,110.0186 119.2684,110.0243 119.5223,109.8992 119.879,110.0139 120.2893,110.4767 120.4939,110.5446 120.6864,110.4245 121.1989,110.5153 121.7984,110.3257 122.0071,110.3217 122.197,110.3807 122.3389,110.5007 122.589,110.5245 122.6819,110.466 122.7505,110.1745 122.8693,110.1116 123.2942,110.0876 123.3766,110.0161 123.4052,109.7008 123.5984,109.5334 123.586,109.4539 123.4202,109.3247 123.4821,109.1868 123.7443,109.1507 123.8465,109.2248 124.1142,109.1693 124.2677,108.8224 124.5745,108.6676 125.3253,108.8479 125.9449,108.664 126.3178,108.6481 126.6452,108.8407 127.0635,108.8391 127.2904,108.7411 127.6674,108.4388 128.1789,108.3553 128.3789,108.2699 128.5545,108.0798 128.6862,107.8141 128.7789,107.2576 128.8672,107.1765 129.6475,106.8537 130.2482,106.8956 130.6605,106.5209 130.9341,106.5077 131.1436,106.5928 131.3836,106.5942 131.5213,106.5225 131.8525,106.1231 132.4356,105.8302 132.8559,105.6873 133.4209,105.6218 134.1135,105.6769 134.299,105.7488 134.462,105.9341 134.4627,106.0507 134.2408,106.2989 134.2727,106.5002 134.649,106.6393 134.9039,106.9684 135.0505,107.0656 135.3324,107.09 135.6467,106.8725 135.9592,107.0318 136.2257,107.0934 136.6533,107.0279 137.5678,107.4452 137.9644,107.3632 138.0947,107.455 138.1676,107.6089 138.3355,107.7088 138.7718,107.6744 139.0328,107.8063 139.1933,108.1374 139.4569,108.4499 139.4067,108.9962 139.433,109.1172 139.5453,109.2102 140.108,109.2463 140.3354,109.441 140.5259,109.4988 140.6587,109.4442 140.7658,109.3019 140.9343,109.2857 141.9108,109.8444 142.2644,110.4321 143.4672,110.7464 143.8108,110.7588 144.4815,110.6781 144.6348,110.4269 144.7298,110.3736 145.0277,110.3776 145.8965,111.1929 146.0145,111.4036 146.2455,112.2997 146.5057,112.9627 146.9111,113.1311 146.9665,113.215 146.8492,113.6615 146.8882,113.8217 147.1162,114.0467 147.297,114.3562 147.4215,114.917 147.6684,115.3636 147.6355,116.0516 147.9752,116.3697 147.9667,116.6703 148.0624,116.7674 148.293,116.8151 148.5491,117.0765 148.9156,117.0222 149.212,117.4456 149.6124,117.5278 149.6362,117.7288 149.5372,118.0685 149.6664,118.2957 150.1477,118.4295 150.5022,118.6637 150.781,118.6887 150.9564,119.2957 151.2506,119.2993 151.3336,119.4399 151.5491,119.417 151.7225,119.4992 151.7822,119.5969 151.7541,119.9874 151.9607,120.107 152.0282,120.2785 152.2197,120.3292 152.4713,120.2444 152.6833,120.358 152.8667,120.6696 153.2389,121.0898 153.4541,121.5019 153.7604,121.6759 153.7707,121.8825 154.1715,122.1053 154.3338,122.2707 154.5036,122.5997 154.5476,122.7912 154.4919,123.224 154.6738,123.6243 154.6662,123.8164 154.576,123.9781 154.3912,124.0898 154.3856,124.2509 154.7297,124.3759 155.0235,124.5643 155.6929,124.4316 155.8848,124.5552 155.9114,124.847 155.6342,125.3689 155.6165,125.5426 155.6523,125.8283 155.7917,126.0458 155.9278,126.1427 156.3011,126.1652 156.5198,126.2593 156.7342,126.2089 157.0198,126.4612 157.2238,126.382 157.5161,126.434 158.2471,127.1488 158.4663,127.2074 159.2638,127.2366 159.798,127.5836 160.0097,127.6424 160.5875,127.6475 160.7138,127.7494 160.8598,128.1217 161.3276,128.3393 161.4131,128.4308 161.3969,128.8541 161.5023,128.9596 162.0145,129.1687 162.0958,129.3135 162.0683,129.652 161.7315,129.784 161.705,129.9219 161.5317,130.073 161.4958,130.1902 161.5275,130.3367 161.7918,130.6158 161.8047,130.774 161.5622,131.0183 161.5562,131.3002 161.6736,131.7201 161.9788,132.1921 161.9669,132.694 161.7532,133.3169 161.7395,133.5302 161.9637,133.8317 161.8486,134.1721 161.9475,134.4183 161.9244,134.5783 161.7837,134.541 161.5947,134.6057 161.5426,134.6739 161.5577,134.8087 161.8769,135.3694 161.9582,135.9346 162.3257,136.4914 162.356,136.9102 162.7155,137.1401 163.0368,137.2517 163.0649,137.319 162.8629,137.7427 162.972,138.0597 163.1982,138.1548 163.4956,138.178 163.6405,138.4862 163.8712,138.3082 163.9762,138.3711 164.1284,138.955 164.4043,139.3725 164.5697,139.504 164.9629,139.5741 165.3817,140.0247 165.8071,140.1084 165.8788,140.292 165.6933,140.5624 166.0038,140.6178 166.0155,140.7614 166.2369,140.7948 166.5107,140.9634 166.5233,141.0977 166.4006,141.2068 166.4619,141.3452 167.238,141.5774 167.3227,141.662 167.3896,142.0936 167.6885,142.3506 168.152,142.5688 168.627,142.9895 168.6788,143.2221 168.6218,143.5191 168.8574,143.9228 168.8017,144.1411 168.8607,144.2382 169.1269,144.3703 169.1694,144.4738 169.0991,144.927 169.2058,145.082 169.539,145.2579 169.6964,145.5051 170.0166,145.3572 170.2391,145.4524 170.3525,145.9465 170.4954,146.1382 170.5295,147.028 170.7647,147.3886 170.8234,147.7201 170.5091,148.1821 170.4821,148.3223 170.5213,148.549 170.7865,149.0287 170.9645,149.6653 171.3907,150.0631 171.899,150.376 172.1669,150.7804 172.3328,150.9235 172.803,150.9898 173.2096,151.2151 173.5917,151.1101 173.8789,151.122 174.3327,151.2163 174.4544,151.292 174.684,151.6044 174.7792,151.9965 175.1539,152.4737 174.9377,153.0804 174.9772,153.3642 175.1351,153.4755 175.538,153.4741 176.3015,153.7468 176.5627,154.0546 176.5857,154.248 176.8681,154.8344 176.5963,155.2202 176.6323,155.4126 176.7292,155.4752 177.096,155.506 177.1557,155.571 177.1541,155.9337 177.4561,156.2028 177.5175,156.3279 177.3917,156.6621 177.4544,156.8233 177.8312,156.968 177.8423,157.3536 177.9821,157.4142 178.143,157.2805 178.2437,157.2642 178.5459,157.3747 178.7094,157.519 178.8686,157.8612 179.074,158.8041 179.6499,159.1268 179.7442,159.235 179.7785,159.3359 179.6492,159.7251 179.7423,159.9943 180.3297,160.1825 180.6914,160.449 181.359,160.5384 181.4756,160.6283 181.7981,161.1054 182.1774,161.25 182.3459,161.572 182.3922,161.855 182.3607,162.635 182.2265,163.3025 182.8228,164.6234 183.2325,166.5098 183.6463,167.7611 183.9008,168.0055 184.4018,168.1763 184.5662,168.2955 184.7147,168.5155 184.7826,168.9225 185.0389,169.0054 185.1383,169.1005 185.2881,169.5823 185.5032,169.9336 185.3823,170.266 185.3975,170.5156 185.5894,170.6549 185.7411,170.9436 186.0277,171.1491 186.2439,171.1761 186.5823,171.1273 186.742,171.189 187.1077,171.72 188.9158,172.5122 189.2234,172.6015 189.4255,172.7299 189.6211,173.0282 189.5567,173.3254 188.9941,173.6716 188.9309,173.7904 188.9166,174.1291 188.8426,174.2429 188.2936,174.4412 188.2735,174.759 188.1705,175.0547 188.1755,175.3145 188.3728,176.0431 188.9235,176.8063 188.9824,177.2038 189.0227,177.4752 189.1022,177.5682 189.3959,177.7483 189.5259,177.9911 189.6885,177.9978 189.9561,177.8406 190.3158,177.8295 190.4624,178.0006 190.4971,178.498 190.59,178.584 190.895,178.6851 190.9577,178.8106 190.9518,179.0779 191.0661,179.1206 191.4388,179.0432 192.2638,179.4682 192.3805,179.6065 192.4252,180.57 192.2181,181.3758 192.2398,182.5348 192.1465,182.9858 191.7381,183.6679 191.647,184.0477 191.9128,184.68 192.241,185.1726 192.5088,185.8568 192.5425,186.2288 192.4409,186.5798 192.4542,186.7781 192.551,186.9649 192.8433,187.2197 192.8938,187.3369 192.8919,187.4798 192.8023,187.6397 192.8241,187.9148 193.2321,188.1067 193.2918,188.5391 193.5668,188.8288 193.5941,189.1649 193.7195,189.272 193.7902,189.4749 193.9728,189.517 194.2198,189.4375 194.374,189.532 194.3873,190.4218 194.6844,191.1861 194.6846,191.3038 194.527,191.5395 194.5577,191.8043 195.0281,192.8174 195.1935,193.1063 195.4608,193.3082 195.9245,193.507 196.5048,193.6003 197.1623,193.617 198.5911,193.531 198.7903,193.6309 199.7594,194.3967 201.13,194.5114 201.6589,194.6747 202.4394,195.1973 203.0881,195.3373 203.2993,195.4584 203.4631,196.2965 203.7603,196.5178 204.0482,196.8345 204.2931,196.8757 204.7714,196.7136 204.9071,196.7638 205.0347,196.9256 205.2472,196.9976 205.6008,196.9879 205.9079,197.2234 206.3786,197.3123 206.866,197.9924 206.9767,198.0714 207.8742,198.2897 208.2999,198.4541 208.7829,198.507 209.3058,198.9463 209.5274,199.0145 210.5119,198.638 211.0579,198.7266 211.3983,198.4427 211.708,198.3901 211.8654,198.4214 212.0048,198.5362 212.0549,198.8149 212.1279,198.901 212.5923,199.0525 212.953,198.9848 213.1356,199.1523 213.3035,199.1494 213.391,198.8263 213.6841,198.7941 214.2033,198.8842 214.5813,198.7337 214.878,198.8273 215.148,198.5884 215.2217,198.58 215.5291,198.7246 215.6144,198.7088 215.8379,198.3304 215.9268,198.3279 216.1328,198.4736 216.456,199.073 216.7815,199.2676 217.2352,199.3051 218.315,199.2337 218.4945,199.2095 218.9796,198.9655 219.136,198.9567 219.2732,198.9823 219.7641,199.2704 220.2231,199.2826 220.9194,199.6185 221.4542,199.613 222.4292,199.0734 223.2258,198.8409 223.5957,198.6096 224.0039,198.5652 224.2234,198.3531 224.7555,198.0246 225.0985,197.9499 226.3798,197.9245 226.7652,198.2203 226.923,198.7408 227.4612,198.9334 227.9871,198.8902 228.304,198.6881 228.5279,198.639 228.6274,198.6688 228.758,198.9553 228.8706,198.9701 229.2685,198.7885 229.6346,198.3666 229.8116,198.3588 229.8943,198.5472 229.7554,198.8295 229.7678,199.0039 229.9732,199.0377 230.163,198.928 230.5992,198.85 230.8046,199.012 230.9428,199.4918 231.0808,199.5996 231.4689,199.7395 231.8018,199.7578 232.787,199.3992 233.2583,199.0892 233.5346,199.0767 233.7775,199.1628 234.7866,199.7659 236.6715,200.4607 236.9239,200.8683 237.2841,201.0588 237.3553,201.1595 237.3839,201.6354 237.6091,201.9705 238.689,202.3787 239.1176,202.6928 239.8115,203.0303 240.605,203.228 241.07,203.5344 241.4256,203.6865 241.78,203.76 242.0719,203.9039 242.2813,204.1048 242.9503,204.2823 243.5093,204.7661 244.3821,205.126 244.5571,205.2739 244.7683,205.5983 245.2283,205.9043 245.5024,206.198 246.1201,207.1605 246.5284,207.6223 247.1006,208.0958 247.3557,208.2371 247.6492,208.3349 247.9369,208.2516 248.1999,208.2297 248.4426,208.2869 248.7448,208.4202 249.2021,208.707 250.5438,209.2196 251.4104,209.5084 251.7449,209.6687 251.9935,209.9026 252.3201,210.2261 252.6195,210.505 252.807,210.5083 253.0175,210.3807 253.1564,210.3369 253.4343,210.3205 253.7595,210.4762 254.0508,210.6888 254.3848,210.8756 254.7138,211.0755 254.9504,211.2077 255.187,211.4186 255.4294,211.6508 255.6221,211.8683 255.7561,212.123 255.5138,212.851 255.2973,213.3726 255.1472,213.8556 255.1168,214.2127 255.1415,214.5124 255.188,214.885 255.4455,215.6268 255.4169,216.197 255.5758,217.3073 255.5215,218.6995 255.5944,219.88 255.7402,220.7281 255.7512,220.7664 256.0959,221.9649 256.4164,223.7162 256.9087,225.1664 257.3461,225.6765 257.948,226.2777 258.4221,226.9948 259.363,228.8097 259.7698,230.1165 260.0178,231.3171 260.1159,232.4797 260.0819,233.8235 260.1382,234.9653 260.2107,235.3505 260.3582,236.4152 260.7956,237.5913 261.2158,238.785 261.7885,240.2305 262.4521,241.9053 262.9565,242.557 264.061,243.6193 267.36,246.3408 271.0555,249.0873 271.3957,249.722 271.4382,250.2452 271.2178,250.6207 269.9263,251.6615 268.3485,253.1418 267.4819,254.1135 267.0373,254.8653 266.8204,255.4861 266.6569,256.3086 266.4979,256.7723 266.056,257.7176 266.0401,258.4474 266.1326,259.3356 266.3107,260.2802 266.2982,260.7185 260.8995,283.8463 261.0358,284.5499 261.517,286.116 262.0601,287.5621 262.476,289.4913 262.5634,294.2011 262.4866,294.8689 262.112,295.9599 261.0671,297.845 260.8485,298.6286 260.8084,299.3581 260.9324,300.0353 261.2001,300.5653 262.1964,301.9886 263.483,303.2064 264.2157,303.7615 265.3048,304.3368 266.8709,305.0167 268.916,305.8238 269.753,306.0884 271.8681,306.507 273.7788,306.6594 274.2061,306.7546 273.2013,308.2962 272.8896,309.2912 272.8108,310.25 272.9103,311.9482 272.8827,314.7078 272.8135,315.2862 272.5797,316.2953 272.2492,317.0671 271.5978,317.8822" stroke="black" /><polygon fill="none" points="434.7014,339.8649 434.3445,340.0166 433.4855,340.1581 431.3312,340.7798 431.034,340.4672 430.5898,340.3476 430.3602,340.1013 429.8451,339.7314 429.5669,339.4682 429.2457,338.7858 428.7768,338.4334 428.2588,338.1877 426.0934,337.4786 421.7339,335.7688 419.264,334.6709 417.6632,333.7033 417.2928,333.5466 416.6767,333.1406 416.2842,332.962 415.9633,332.554 415.9319,332.2632 415.987,331.968 415.816,331.6455 415.6106,330.5509 414.8414,329.7746 414.3158,328.7417 413.1261,327.4835 412.7896,327.241 411.8571,326.9729 411.6206,326.8434 411.3191,326.4825 411.0544,325.791 410.8213,325.4562 410.2558,324.8577 408.7365,323.609 407.2949,322.2223 406.3871,321.9772 404.9686,321.9463 404.5288,321.8567 403.8841,321.6627 402.4174,320.9756 401.2172,320.7095 400.8378,320.4382 400.4136,320.2425 399.9355,319.8722 398.7195,319.2961 398.4724,319.1348 398.2203,318.7919 397.9814,318.6647 397.3535,318.6792 396.6872,318.6252 396.5119,318.5581 395.6725,318.5505 394.9965,318.3971 394.1172,318.4953 393.2843,318.3289 393.0013,318.324 392.7514,318.2602 392.2502,317.9938 391.5159,317.8927 390.949,317.5582 390.3484,317.3578 389.674,316.773 389.2456,316.0494 388.122,313.1111 387.9644,312.3072 387.76,310.6063 387.7455,309.8421 387.4806,308.2769 387.4924,307.911 387.609,307.3665 387.5478,307.2417 387.2684,307.0052 386.9576,306.5198 386.9185,305.8719 386.5861,305.1787 386.2161,304.0234 386.1063,303.1846 386.1119,302.5159 386.2625,301.4631 386.2508,300.116 386.5361,299.2974 386.5669,298.9547 386.515,298.7812 386.0917,298.3156 385.8672,298.217 383.6,297.9412 383.1663,297.8886 382.8821,297.6109 382.5638,297.4411 381.9625,297.6026 381.7226,297.6147 381.2615,297.2885 380.8039,297.1867 380.4069,297.2097 380.0907,297.3061 379.0999,297.7811 378.6778,298.0883 377.8543,298.4186 377.5775,298.4134 377.2854,298.1849 377.3201,298.014 378.2865,297.1867 378.3926,296.8728 378.3457,296.6857 378.0909,296.3935 377.6533,296.232 376.5878,296.2026 376.359,296.0756 376.2556,295.8782 376.3083,295.1262 376.2595,295.0126 376.0046,294.8556 375.3933,294.863 375.2138,294.7528 374.5527,294.0147 374.378,293.9289 374.1949,293.9611 374.1265,294.2684 373.797,295.0741 373.5813,295.1599 373.4721,295.0944 373.3142,294.8116 372.7468,294.5353 372.6617,294.0068 372.336,293.5807 372.2364,292.499 372.0951,292.2115 371.9975,292.1398 371.7652,292.1242 371.461,292.2546 371.3672,292.2131 370.8441,292.2161 370.1213,292.3568 369.988,292.083 369.8559,292.0801 369.8132,292.3468 369.7253,292.375 369.612,292.3313 369.5773,292.1355 369.4283,292.0266 368.6296,292.0786 368.5348,292.0289 368.545,291.7447 368.3901,291.7193 367.9462,291.86 367.559,291.7112 367.0938,291.6801 366.268,291.9095 366.1892,292.0388 366.5449,292.3164 366.5237,292.3771 366.2262,292.4717 366.1672,292.5543 366.0829,292.9903 365.9806,293.1543 365.9862,293.4752 365.8687,293.7406 365.8251,294.0767 365.7477,294.1465 364.8688,294.4332 364.6272,294.5718 364.2744,294.9324 364.097,294.9947 363.997,294.9569 363.7032,294.5617 363.5757,294.5657 363.346,294.722 363.0688,294.8117 362.6278,294.8106 362.2799,294.9996 362.2417,294.6571 362.0378,294.1789 362.0091,293.9474 362.1068,292.7845 363.7777,288.8109 364.1295,287.143 364.1529,285.5149 364.2084,284.5535 364.2972,284.2111 364.6645,283.4589 365.2974,282.4705 366.5487,281.5316 367.2269,280.7374 367.6292,280.2666 368.5677,279.1682 370.4768,277.3024 371.4042,276.163 372.1991,274.5842 373.1309,272.0883 373.1721,271.1887 373.024,270.7184 372.6856,270.2228 371.4841,269.402 371.003,269.2216 369.1483,268.7663 368.3351,268.3069 366.1097,266.0667 364.6853,264.7991 363.4009,264.0791 362.7672,263.6063 362.0222,263.5973 361.7151,263.5028 361.545,263.162 361.4525,262.7084 361.3255,262.4477 360.0401,260.9344 360.0084,260.2932 359.8531,259.8406 358.9096,258.7143 358.6622,258.2767 357.938,256.5078 357.7579,255.5677 357.7765,255.3362 358.5907,254.2744 358.7072,254.033 358.6914,253.5055 358.7453,253.3287 359.1381,252.8845 359.5536,252.2315 360.0547,251.6943 360.5309,251.4949 360.7687,251.5103 361.6324,251.8386 362.1053,251.8637 362.3133,251.7735 362.4292,251.6383 362.4014,250.8769 362.5441,250.6958 362.778,250.6163 362.9328,250.4114 362.9869,249.5819 363.3071,248.9287 363.3613,247.9796 363.5296,247.7865 364.2027,247.4833 364.3954,247.2923 364.8675,246.611 365.0137,246.53 365.7458,246.4404 365.8729,246.3828 366.1524,245.9065 368.4429,244.4936 369.3636,243.745 369.9051,243.7291 370.0597,243.5499 370.1077,243.3069 370.2518,243.0383 370.8715,242.5441 371.2424,241.8973 372.5028,240.9786 373.0527,239.8364 373.2537,239.5617 373.8173,239.017 374.077,238.5455 374.6722,237.738 375.2087,236.7595 375.5378,236.4032 375.5599,235.4786 375.6528,235.1903 375.939,234.7301 376.199,234.6334 376.3609,234.3455 376.0481,233.9068 376.0141,233.7593 376.1749,232.9394 375.8594,231.8077 375.9612,231.4357 376.5643,230.8383 377.634,230.191 377.8856,229.8445 377.9721,229.247 377.9102,228.7817 377.7732,228.3816 377.6204,228.1597 377.1921,227.8504 377.0451,227.6639 376.9561,227.3716 376.8341,226.4224 376.7194,226.1584 376.1879,225.5904 375.3385,224.9353 375.249,224.2345 375.0573,223.7138 374.7104,223.4307 374.2083,223.1875 374.0537,223.0135 373.8674,222.565 373.9088,221.9906 374.322,220.732 374.403,220.0927 374.4454,218.8386 374.3747,218.2146 373.8271,215.8235 373.7683,215.234 373.7696,214.439 373.8711,213.7517 373.9564,211.8963 374.0158,209.6345 374.2227,209.5042 374.2976,209.4765 375.3716,209.0803 376.797,208.3568 377.0967,208.1369 377.3273,207.8856 377.7953,207.0756 378.3855,206.2252 378.5819,205.8073 378.8426,204.901 379.4555,203.9384 380.2283,203.3874 381.7729,202.5192 382.5817,201.6924 383.1291,201.2754 384.5575,200.7511 385.8308,200.7598 386.0035,200.6749 386.1502,200.4581 386.2913,199.7362 386.6856,198.3997 386.627,198.1681 386.3947,197.766 386.351,197.4103 386.4184,195.7783 386.7444,195.1961 386.7426,194.9228 386.6471,194.654 386.5051,194.4511 386.2213,194.4332 386.0702,194.5272 386.0012,194.7273 385.8251,194.8198 385.707,194.7757 385.6085,194.6323 385.2079,193.7922 385.0214,193.6887 384.8332,193.65 383.8816,193.688 383.4522,193.5169 383.3353,193.38 383.2588,192.8133 383.049,192.4431 382.9827,191.9909 383.0529,191.2674 383.1599,190.8999 383.5469,190.365 383.8551,189.6499 383.9418,189.5635 384.1281,189.5569 384.3226,189.7795 384.4882,189.815 384.6332,189.5557 384.6746,189.1958 384.8143,188.9134 384.9371,188.8734 385.8425,188.9239 385.8893,189.417 386.0482,189.669 386.447,189.9595 388.3451,191.0614 388.6618,190.9726 388.8568,190.993 389.1938,190.9268 389.8881,190.7125 390.986,190.0665 391.6942,189.5079 392.6706,188.0614 393.0475,187.7705 393.4659,187.6407 394.0764,187.6445 394.6847,187.7486 396.4431,188.4894 398.3684,189.22 399.1755,189.683 399.5719,190.0511 400.886,191.5642 402.1783,193.8555 402.2118,194.0501 402.1589,194.2641 401.9448,194.5679 399.9489,195.938 399.7046,196.248 399.4715,196.94 399.4643,197.2836 399.5659,197.9437 399.6961,198.4811 399.888,198.9294 400.2203,199.4024 400.5925,199.7416 401.0487,199.8983 401.9869,199.9125 405.9347,199.7439 407.7894,199.4529 408.6023,199.4004 409.339,199.2812 410.5853,198.7492 410.973,198.4468 411.5031,197.7318 411.6441,197.6213 411.8786,197.5726 414.0485,197.8716 414.7723,197.9074 414.9533,198.0116 415.2114,198.2826 415.3308,199.4818 415.7821,200.3374 415.9873,200.8807 416.0749,201.7413 416.1846,202.1266 416.8069,203.0081 416.8066,203.4726 416.8946,203.7218 417.793,204.616 418.2043,204.8728 420.5157,205.6124 420.9396,205.5557 421.5102,205.2076 422.1077,205.0596 423.9386,205.2651 424.6156,205.4778 424.9152,205.6821 425.0867,205.8874 425.1629,206.1364 425.196,206.7448 424.9674,207.5736 425.0152,207.812 425.1806,207.9908 425.6424,208.2503 426.0397,208.3193 426.5343,208.3154 426.8425,208.26 427.2924,208.0503 427.8154,208.0256 428.3691,208.2509 429.0352,208.6517 429.4712,209.0409 429.8053,209.5539 430.0242,210.0938 430.1271,210.5534 430.1037,211.3748 429.9477,211.8641 429.9724,212.0253 430.145,212.2277 430.4415,212.4162 431.3533,212.8279 431.623,213.0017 431.7839,213.19 432.6782,215.459 433.9358,218.2976 434.1848,218.5694 434.6237,218.8449 435.2367,219.0436 436.2422,219.0684 436.5151,218.9862 436.7779,218.7803 437.2535,217.9693 437.417,217.8142 437.8498,217.7158 439.086,217.872 441.8963,218.5638 443.589,218.6691 445.1603,219.3172 445.5576,219.3983 446.7928,219.4251 447.5044,219.5823 448.1765,219.6266 448.3362,219.6663 448.6082,219.8924 448.7221,219.9238 452.4923,219.8514 453.152,219.9294 453.6032,220.1397 453.9163,220.44 454.0858,220.7765 454.0884,221.1249 454.0064,221.4443 453.5275,221.9472 453.1819,222.092 451.0997,222.5774 450.5783,222.7456 450.3508,222.9333 450.2362,223.1246 450.2077,223.5959 450.3956,224.3012 450.6002,224.6416 451.0671,225.1252 453.5368,226.4666 453.7532,226.7775 454.1015,227.8376 454.2417,228.0236 454.3479,228.1078 454.927,228.293 455.4006,228.5496 455.7587,229.0191 456.0304,229.2522 456.7166,229.2452 457.4994,229.3915 459.5244,229.4156 459.8169,229.2657 460.2101,228.8854 460.3793,228.6595 460.9319,226.918 461.1631,226.476 461.4111,226.1832 461.7537,225.9673 462.3841,225.7404 462.6513,225.7149 466.5421,226.4726 467.5823,227.1957 467.971,227.2788 468.7316,227.3098 468.9819,227.3887 470.0132,227.971 471.2874,228.231 472.3564,228.9721 472.5622,229.249 472.6859,229.6786 472.8406,231.1367 472.9984,231.4141 473.7102,232.0355 474.0939,232.9246 474.1749,233.3139 474.1495,233.616 473.9937,233.8653 473.5954,234.0617 472.7279,234.2286 472.1979,234.2352 471.4365,234.1273 470.1788,233.7432 468.6935,233.889 468.1473,233.8047 466.284,232.9876 465.7803,232.8189 465.455,232.7801 464.0774,232.8945 462.9864,232.7315 462.6318,232.7515 462.3468,232.9011 462.0683,233.2988 461.9794,233.6167 461.9862,233.9166 462.1458,234.3571 462.4653,234.8839 462.9032,235.3266 463.2592,235.5653 463.9645,235.8088 465.1747,235.9773 466.0423,236.0353 466.3762,236.1461 466.588,236.3003 467.0167,237.3435 467.2001,237.6678 467.6157,238.1555 467.7599,238.5849 467.854,238.6916 468.3847,238.9251 468.8876,239.3438 469.4819,239.519 470.1181,240.5213 470.4822,240.7737 471.6284,241.3332 472.0707,241.6101 472.2507,241.8057 472.3112,242.0033 472.2188,242.2194 471.0855,243.6734 470.0735,244.6043 469.7206,244.6353 469.4481,244.7589 468.6531,245.3998 467.6113,246.5999 467.5873,246.6975 467.8213,246.9797 468.011,247.094 468.3919,247.1675 469.7884,247.1595 472.5825,247.0304 472.8832,246.749 472.9436,246.4345 472.9491,246.1493 472.7573,245.2532 472.919,245.1132 473.1668,245.0715 474.2934,245.3962 475.2911,245.7949 477.3644,245.8792 480.1562,246.7704 481.3012,246.983 482.2157,247.0881 482.5333,247.2256 482.7512,247.5381 482.9202,247.9474 483.0318,248.4444 483.2463,248.9126 484.0157,250.0877 484.1097,251.5759 483.8363,252.615 483.8806,252.7952 484.0133,252.9779 485.1891,253.7022 485.4241,253.9767 485.6529,254.5487 485.6006,255.307 485.3793,255.6414 483.9334,256.6764 483.7859,256.9003 483.7708,257.3274 483.9639,258.1344 483.798,258.9889 483.7834,259.3542 483.8493,259.6944 484.089,260.1547 484.2695,260.3759 484.5624,260.5312 485.3624,260.7681 486.0609,261.0937 486.449,261.1005 489.0405,260.7493 489.2021,260.6245 489.3098,260.3857 489.36,259.7709 489.2954,259.4033 489.0127,258.6614 488.9574,258.1582 489.0411,257.9267 489.3113,257.5252 490.0615,256.591 490.3767,255.8825 490.6391,255.4737 490.9,255.2374 491.3948,255.0712 492.7868,254.9209 494.1397,254.5809 494.9285,254.2553 495.3497,253.8942 495.7921,253.6215 496.0899,253.5372 496.5188,253.5814 496.9115,253.9177 497.0188,254.2348 497.0424,254.7228 496.9434,255.8038 496.8597,256.1093 496.2769,257.3987 496.0808,257.6513 495.1854,258.3136 494.8756,258.6612 494.7599,258.9154 494.7672,259.8917 494.8777,260.3882 494.8237,260.7922 494.428,261.5387 494.0452,262.4472 493.8839,263.0242 493.6181,264.5239 493.6103,264.9903 493.8013,265.5345 494.2306,266.0903 494.7856,266.3636 496.0047,266.5995 497.5877,267.0964 497.9145,267.0943 498.4132,266.9296 499.0417,266.6687 499.8147,266.1886 499.8536,266.8031 500.0,267.3669 499.4779,268.1886 499.1895,268.8809 498.8989,268.9901 498.7167,268.9514 498.4055,268.7753 498.1214,268.83 497.8684,269.3585 497.6775,269.4681 497.2542,269.5741 496.9347,269.943 496.9435,270.1665 497.131,270.2289 497.8239,270.1212 497.9617,270.1406 498.0669,270.2305 497.9979,271.3442 497.8953,271.4494 497.4078,271.6142 497.3264,272.0029 497.0968,272.1839 496.9644,272.4125 497.0395,272.8054 496.7573,273.1299 496.5136,273.2338 496.2698,273.3378 496.1076,273.2867 495.9767,273.1488 495.8488,272.625 495.7568,272.4949 495.0671,272.3968 494.853,272.0726 494.3601,271.8577 494.1243,271.6834 493.7721,271.5863 493.5499,271.3643 493.4684,271.3516 493.1946,271.519 493.0326,271.4871 492.8423,271.2109 492.729,271.2273 492.5698,271.3491 492.4633,271.3484 492.3667,271.169 492.4039,270.5424 492.3511,270.4709 492.1508,270.4917 491.9349,270.6436 491.7119,270.5084 491.6637,270.3541 491.4774,270.2753 491.1933,270.3172 490.8828,270.1591 490.5347,270.201 490.4183,270.069 490.564,269.0753 490.5353,268.9395 490.3058,268.7387 490.2711,268.1783 490.2164,268.0772 489.9043,267.9541 489.6949,267.7567 488.9048,268.0095 488.6359,268.3084 488.4393,268.4164 488.1581,268.4233 487.9291,268.5151 487.7476,268.8201 487.6139,268.8833 487.1949,268.9272 487.0129,269.3978 486.9442,270.0774 486.7459,270.2618 486.5245,270.3731 486.5282,271.2027 486.4825,271.3314 486.3363,271.4539 486.0816,271.4971 485.8204,271.8173 485.2327,272.0574 484.8537,272.4169 483.2648,273.2095 483.1545,273.4152 483.1846,273.7765 483.0746,274.0049 482.8916,274.0793 482.5586,274.0991 482.1895,274.355 481.8685,274.3022 481.5974,274.4293 481.3947,274.4076 481.3311,274.4658 481.2742,274.8315 480.9812,275.0468 480.8863,275.4419 480.4812,275.6269 480.3492,275.612 480.1974,275.6753 479.9749,276.1152 479.6973,276.2524 479.5995,276.5474 479.3373,276.6672 479.3088,276.9223 479.1185,277.0021 479.0357,277.1363 478.1291,277.4213 477.9435,277.6134 477.5556,277.7623 477.4402,277.9378 477.2048,278.0706 477.0261,278.2636 476.8815,278.5743 476.7105,278.6837 476.0368,278.8477 475.8123,279.0931 475.531,279.1122 475.4278,279.1765 475.3673,279.4119 474.9853,279.7015 474.9815,279.7338 474.9777,279.7662 474.9701,279.8308 475.2167,280.1131 475.0241,280.288 475.0278,280.9703 474.8512,280.9913 474.8235,281.536 474.7651,281.6582 474.5617,281.7676 474.3942,282.0203 474.1289,282.0807 474.0575,282.2039 474.1424,282.4473 473.8849,282.7528 473.9381,282.9379 474.1379,283.0232 474.5139,283.0648 474.7042,283.2973 474.7253,283.5185 474.3317,283.7707 474.312,283.8361 474.4221,283.9381 474.8867,283.9671 474.935,284.1407 474.8301,284.3415 474.361,284.6058 474.3818,284.7898 474.7162,284.7886 474.9005,284.6851 475.0875,284.7639 475.0709,285.0366 474.787,285.3804 474.7892,285.6693 475.0906,286.266 475.1667,286.656 475.5685,287.0444 475.7342,287.2837 475.7753,287.8037 476.0296,288.3887 475.9863,289.0797 476.0217,289.3741 476.057,289.6685 476.0206,290.3435 475.836,291.1999 475.7433,292.1391 475.2708,293.333 475.1331,293.9269 474.9042,294.9145 474.75,296.1841 474.4892,297.436 474.4545,299.0176 474.1189,300.9081 473.9818,301.1957 473.8447,301.4834 473.8018,301.8264 474.0061,302.7792 473.8953,304.0723 474.0234,304.3053 475.3725,308.5515 475.6387,310.5917 475.6926,311.8461 475.2016,315.4939 474.7798,316.5763 474.1615,317.49 473.294,318.0447 470.9891,319.0262 468.8618,319.8462 468.5055,320.1011 468.3738,320.4061 468.6104,321.8297 469.1293,323.3595 470.1467,329.8655 470.1085,330.1868 469.7854,330.609 468.856,331.2206 468.0305,331.6816 466.9275,332.8363 466.7739,333.7329 466.9151,334.2481 469.1968,337.7084 469.6528,338.9223 469.7881,339.9196 469.5031,341.7377 469.5139,342.5438 469.4531,343.1585 469.0169,343.6489 468.3078,343.9442 467.1477,344.0236 465.1931,343.5197 463.6189,342.8771 462.7681,342.6042 458.8787,341.8327 457.8342,341.3967 457.4567,341.0423 457.497,341.2144 457.4593,341.326 457.3299,341.4659 457.0689,341.6025 455.6393,342.0133 454.8055,342.0865 454.3192,342.1975 453.8192,342.4152 452.6279,343.1768 451.7604,343.8438 450.5717,344.4899 450.2466,344.5251 447.9296,344.1746 446.6261,343.6105 445.4558,343.2489 445.1757,343.0487 444.5702,342.4549 444.374,342.3531 443.5537,342.136 442.9874,341.87 441.8131,341.6816 441.5452,341.5043 441.3093,341.1802 439.6445,339.6151 439.2814,339.154 438.8646,338.4676 438.8037,338.3666 438.7067,337.4885 438.5837,337.3327 438.4768,337.2952 438.2376,337.3273 437.6721,337.6614 437.0948,338.1621 436.329,338.6709 435.1619,339.5824 434.7014,339.8649" stroke="black" /><polygon fill="none" points="326.0817,231.9787 326.1659,231.9831 330.6194,232.216 336.0675,232.6891 336.1693,231.6637 336.44,230.3939 336.8598,229.1969 337.4617,227.9154 338.5794,226.6489 339.1561,225.7308 339.8264,224.8368 340.9876,223.6906 342.418,222.6957 342.9963,222.3744 343.67,222.1518 344.6165,221.9661 345.9842,221.5609 346.5353,221.275 347.5659,220.4592 347.9882,220.1912 348.3216,220.0028 349.1942,219.6524 349.8569,219.0018 350.1996,218.7973 351.4119,218.4139 352.5854,218.3635 353.4907,217.9898 354.3885,217.7096 355.9311,217.3541 358.1601,216.414 358.9884,216.2621 360.1806,216.1813 362.533,215.2787 364.8394,214.6557 365.714,214.3256 366.1654,214.084 366.5435,213.7866 367.0233,213.2497 367.2999,213.0749 368.4136,212.626 370.1014,211.5267 372.8267,210.1257 374.0158,209.6345 373.9564,211.8963 373.8711,213.7517 373.7696,214.439 373.7683,215.234 373.8271,215.8235 374.3747,218.2146 374.4454,218.8386 374.403,220.0927 374.322,220.732 373.9088,221.9906 373.8674,222.565 374.0537,223.0135 374.2083,223.1875 374.7104,223.4307 375.0573,223.7138 375.249,224.2345 375.3385,224.9353 376.1879,225.5904 376.7194,226.1584 376.8341,226.4224 376.9561,227.3716 377.0451,227.6639 377.1921,227.8504 377.6204,228.1597 377.7732,228.3816 377.9102,228.7817 377.9721,229.247 377.8856,229.8445 377.634,230.191 376.5643,230.8383 375.9612,231.4357 375.8594,231.8077 376.1749,232.9394 376.0141,233.7593 376.0481,233.9068 376.3609,234.3455 376.199,234.6334 375.939,234.7301 375.6528,235.1903 375.5599,235.4786 375.5378,236.4032 375.2087,236.7595 374.6722,237.738 374.077,238.5455 373.8173,239.017 373.2537,239.5617 373.0527,239.8364 372.5028,240.9786 371.2424,241.8973 370.8715,242.5441 370.2518,243.0383 370.1077,243.3069 370.0597,243.5499 369.9051,243.7291 369.3636,243.745 368.4429,244.4936 366.1524,245.9065 365.8729,246.3828 365.7458,246.4404 365.0137,246.53 364.8675,246.611 364.3954,247.2923 364.2027,247.4833 363.5296,247.7865 363.3613,247.9796 363.3071,248.9287 362.9869,249.5819 362.9328,250.4114 362.778,250.6163 362.5441,250.6958 362.4014,250.8769 362.4292,251.6383 362.3133,251.7735 362.1053,251.8637 361.6324,251.8386 360.7687,251.5103 360.5309,251.4949 360.0547,251.6943 359.5536,252.2315 359.1381,252.8845 358.7453,253.3287 358.6914,253.5055 358.7072,254.033 358.5907,254.2744 357.7765,255.3362 357.7579,255.5677 357.938,256.5078 358.6622,258.2767 358.9096,258.7143 359.8531,259.8406 360.0084,260.2932 360.0401,260.9344 361.3255,262.4477 361.4525,262.7084 361.545,263.162 361.7151,263.5028 362.0222,263.5973 362.7672,263.6063 363.4009,264.0791 364.6853,264.7991 366.1097,266.0667 368.3351,268.3069 369.1483,268.7663 371.003,269.2216 371.4841,269.402 372.6856,270.2228 373.024,270.7184 373.1721,271.1887 373.1309,272.0883 372.1991,274.5842 371.4042,276.163 370.4768,277.3024 368.5677,279.1682 367.6292,280.2666 367.2269,280.7374 366.5487,281.5316 365.2974,282.4705 364.6645,283.4589 364.2972,284.2111 364.2084,284.5535 364.1529,285.5149 364.1295,287.143 363.7777,288.8109 362.1068,292.7845 362.0091,293.9474 362.0378,294.1789 362.2417,294.6571 362.2799,294.9996 362.0836,295.2264 361.7083,295.4013 361.432,295.4362 361.0133,295.3859 360.7482,295.2537 360.4004,294.9543 360.2273,294.9249 359.7728,295.0508 358.7775,296.1815 358.0845,296.8282 357.6698,297.1041 357.047,297.303 356.1418,297.4513 355.4484,297.4591 354.8761,297.1695 353.9403,296.9161 353.7052,296.8947 353.1648,297.1425 352.9465,297.1963 352.7356,297.1706 352.4013,296.8847 352.2833,296.3713 352.1398,296.1649 351.2384,295.5931 350.9096,295.3035 350.6609,295.0209 350.345,294.419 350.0886,294.2568 349.8949,294.3016 349.2515,294.7908 348.9529,294.8603 348.6151,294.7925 348.4186,294.4929 334.6632,303.3081 334.3549,303.8303 333.7883,305.5734 333.508,307.219 333.2103,307.911 333.0385,308.7775 332.9008,309.0668 332.5483,309.4846 332.1012,310.0989 331.7862,310.641 331.2778,311.4111 331.1332,311.6704 330.8535,312.6083 330.4268,313.2845 329.8042,314.7388 328.9135,316.0336 315.3236,312.1141 315.3316,312.3937 315.3669,312.8262 315.6266,313.5886 315.7739,314.0188 315.8667,314.5335 315.823,315.4066 315.9357,316.1694 316.603,317.4107 316.8779,318.0207 317.2093,318.918 317.2852,319.3257 317.1486,320.2949 317.1192,320.7687 317.1936,321.6404 317.2703,322.2342 317.387,323.1964 317.274,323.7382 317.1023,324.2434 316.8571,324.8164 316.3311,325.8663 316.2131,326.1031 316.053,326.7026 315.7784,327.2009 314.9781,327.8086 314.1693,328.2989 294.212,330.919 288.6462,331.6501 273.2934,340.1431 272.9388,339.611 272.5517,339.2019 272.464,339.0743 272.3057,338.8439 272.0263,338.1827 271.8119,337.2458 271.7672,335.8762 271.8174,335.2786 272.307,334.6359 273.0891,333.7836 273.2046,333.4927 273.2356,333.0527 272.9667,332.3404 272.4457,331.6352 271.4637,330.5701 271.2694,330.2603 271.2797,329.8749 271.2806,329.839 271.5978,317.8822 272.2492,317.0671 272.5797,316.2953 272.8135,315.2862 272.8827,314.7078 272.9103,311.9482 272.8108,310.25 272.8896,309.2912 273.2013,308.2962 274.2061,306.7546 273.7788,306.6594 271.8681,306.507 269.753,306.0884 268.916,305.8238 266.8709,305.0167 265.3048,304.3368 264.2157,303.7615 263.483,303.2064 262.1964,301.9886 261.2001,300.5653 260.9324,300.0353 260.8084,299.3581 260.8485,298.6286 261.0671,297.845 262.112,295.9599 262.4866,294.8689 262.5634,294.2011 262.476,289.4913 262.0601,287.5621 261.517,286.116 261.0358,284.5499 260.8995,283.8463 266.2982,260.7185 266.3107,260.2802 266.1326,259.3356 266.0401,258.4474 266.056,257.7176 266.4979,256.7723 266.6569,256.3086 266.8204,255.4861 267.0373,254.8653 267.4819,254.1135 268.3485,253.1418 269.9263,251.6615 271.2178,250.6207 271.4382,250.2452 271.3957,249.722 271.0555,249.0873 267.36,246.3408 264.061,243.6193 262.9565,242.557 262.4521,241.9053 261.7885,240.2305 261.2158,238.785 260.7956,237.5913 260.3582,236.4152 260.2107,235.3505 260.1382,234.9653 260.0819,233.8235 260.1159,232.4797 260.0178,231.3171 259.7698,230.1165 259.363,228.8097 258.4221,226.9948 257.948,226.2777 257.3461,225.6765 256.9087,225.1664 256.4164,223.7162 256.0959,221.9649 255.7512,220.7664 255.7402,220.7281 255.5944,219.88 255.5215,218.6995 255.5758,217.3073 255.4169,216.197 255.4455,215.6268 255.188,214.885 255.1415,214.5124 255.1168,214.2127 255.1472,213.8556 255.2973,213.3726 255.5138,212.851 255.7561,212.123 255.7036,211.4998 255.9692,210.1561 256.2659,209.3308 257.2918,207.9055 257.9295,207.3348 259.9784,206.0395 261.7418,205.2386 262.539,204.9416 263.8498,204.5761 269.686,203.5685 272.3636,202.8225 273.4608,202.374 275.859,201.0459 277.9172,199.9926 278.8572,199.6288 283.2288,197.4549 285.6716,196.4865 287.0356,195.8193 288.3448,195.056 290.4776,193.6805 292.0024,192.5185 292.385,192.2831 292.6011,192.2108 292.9954,192.2081 293.3403,192.3698 293.6222,192.6701 294.1616,193.8294 294.8598,196.1368 295.173,197.8828 295.2458,198.6649 294.6038,206.3525 294.7812,209.5298 295.1539,210.766 295.8752,212.317 296.7409,213.6829 298.2052,216.4367 298.3921,217.9406 298.3731,220.1967 298.3072,221.0897 298.3319,221.2888 298.5449,221.7914 298.8459,222.021 299.108,222.1028 299.4708,222.0854 301.8164,221.169 303.3396,220.883 305.7153,220.9863 306.9308,221.2858 308.5698,221.9044 311.4984,223.2764 312.8354,224.1224 314.5616,225.3634 316.144,226.4158 318.3227,227.7486 319.8461,228.3502 322.5895,229.1127 323.2752,229.4972 324.1509,230.3045 325.6725,231.8847 325.9731,231.9604 326.0353,231.9763 326.0817,231.9787" stroke="black" /><polygon fill="none" points="383.6,297.9412 385.8672,298.217 386.0917,298.3156 386.515,298.7812 386.5669,298.9547 386.5361,299.2974 386.2508,300.116 386.2625,301.4631 386.1119,302.5159 386.1063,303.1846 386.2161,304.0234 386.5861,305.1787 386.9185,305.8719 386.9576,306.5198 387.2684,307.0052 387.5478,307.2417 387.609,307.3665 387.4924,307.911 387.4806,308.2769 387.7455,309.8421 387.76,310.6063 387.9644,312.3072 388.122,313.1111 389.2456,316.0494 389.674,316.773 390.3484,317.3578 390.949,317.5582 391.5159,317.8927 392.2502,317.9938 392.7514,318.2602 393.0013,318.324 393.2843,318.3289 394.1172,318.4953 394.9965,318.3971 395.6725,318.5505 396.5119,318.5581 396.6872,318.6252 397.3535,318.6792 397.9814,318.6647 398.2203,318.7919 398.4724,319.1348 398.7195,319.2961 399.9355,319.8722 400.4136,320.2425 400.8378,320.4382 401.2172,320.7095 402.4174,320.9756 403.8841,321.6627 404.5288,321.8567 404.9686,321.9463 406.3871,321.9772 407.2949,322.2223 408.7365,323.609 410.2558,324.8577 410.8213,325.4562 411.0544,325.791 411.3191,326.4825 411.6206,326.8434 411.8571,326.9729 412.7896,327.241 413.1261,327.4835 414.3158,328.7417 414.8414,329.7746 415.6106,330.5509 415.816,331.6455 415.987,331.968 415.9319,332.2632 415.9633,332.554 416.2842,332.962 416.6767,333.1406 417.2928,333.5466 417.6632,333.7033 419.264,334.6709 421.7339,335.7688 426.0934,337.4786 428.2588,338.1877 428.7768,338.4334 429.2457,338.7858 429.5669,339.4682 429.8451,339.7314 430.3602,340.1013 430.5898,340.3476 431.034,340.4672 431.3312,340.7798 431.0206,340.8179 430.6808,340.9469 430.2184,341.2895 429.9452,341.6421 428.8012,344.1 427.1926,346.7462 426.5488,347.7178 425.9773,348.4496 425.6191,348.8724 425.28,349.1528 424.3018,349.8464 423.1957,350.2823 420.4522,351.1136 419.8043,351.2059 417.5804,351.6913 416.6167,352.1955 415.1565,352.6868 414.5298,353.0231 413.8448,353.6646 413.413,354.2223 413.1594,354.7053 412.9896,355.0279 412.7522,355.8268 412.2673,356.9203 411.6191,358.7074 411.1551,359.3607 410.9809,360.2103 410.8507,360.3928 410.5383,360.523 410.3028,360.5549 408.9711,360.5729 407.0297,361.0986 406.5958,361.2746 405.0082,362.2017 403.567,363.1725 402.212,364.2409 401.2846,365.0526 400.5269,365.8098 400.1947,366.0514 399.5327,366.1681 397.6441,366.1502 396.9243,366.2573 396.3624,366.5032 395.7958,366.9707 395.27,367.9403 394.7635,369.3027 394.1883,370.302 393.7982,370.8296 393.2167,371.4335 393.0938,371.6431 392.9045,372.5224 392.1401,373.5881 391.922,373.9812 391.8423,374.3455 391.5538,374.9055 390.7026,375.8012 390.3303,376.4135 390.1399,376.7267 389.4053,377.5925 388.7632,378.9656 388.4128,380.0647 388.2904,380.2859 387.6439,380.962 387.3137,381.4502 386.7679,382.6181 386.7609,382.9919 386.824,383.2233 387.5517,384.1348 388.4681,386.2173 388.7076,386.5385 388.8115,387.7995 389.0249,388.1526 389.6921,388.6401 389.9325,388.8908 390.3522,389.5261 390.6369,390.1265 390.8736,390.994 391.0315,391.18 391.4126,392.0445 389.4209,392.3783 388.4779,392.4597 387.7712,392.6321 387.4122,392.7687 386.9139,393.0659 386.0046,394.0074 385.6058,394.2841 383.9975,394.7403 382.8917,394.986 381.5276,395.4375 381.0737,395.5273 380.8135,395.4936 380.5335,395.3388 379.692,393.4231 378.836,391.0177 378.8286,390.6275 378.978,389.8953 379.026,389.3212 378.8109,389.0189 378.545,388.8892 378.2389,388.9183 376.9641,389.2534 374.7933,389.5969 374.2083,389.6215 373.1582,389.4769 372.5266,389.4898 370.6394,390.1832 368.9072,390.9607 368.2316,391.1628 367.7244,391.5168 367.4105,391.6592 366.5208,391.932 365.9858,392.4741 365.1411,392.8688 364.8743,393.0824 364.5654,393.5603 364.3349,393.807 363.8013,393.944 363.5408,394.4785 362.7626,394.8515 361.6509,395.5163 361.3663,395.7527 359.7985,396.5307 359.3465,397.1671 358.9382,397.4586 358.7108,397.8113 358.206,398.0731 357.9948,398.3214 357.7259,398.9372 357.3618,399.4696 357.1736,400.1403 357.0474,400.3622 355.9062,401.3131 355.6351,401.4528 355.1538,401.575 354.6437,402.1634 354.2505,402.4899 354.0679,402.5209 353.6428,402.3876 353.2934,402.4561 352.9591,402.3935 352.2898,402.583 351.8647,402.4782 351.5401,402.2095 350.9497,401.983 350.7918,401.6301 350.6167,401.4791 350.2707,401.4034 350.0279,401.1231 349.2703,400.8162 348.9078,400.2463 348.5119,399.972 348.3298,399.5443 348.2275,399.0718 347.7251,398.8753 347.3641,398.6154 347.1449,398.6827 346.7816,398.8998 346.6524,398.898 346.1068,398.6354 345.9669,398.4323 345.9433,398.2962 346.0568,397.7349 346.0243,397.5787 345.7245,397.3376 345.3844,397.1936 345.0968,396.7621 344.8195,396.6257 344.131,396.437 343.9058,396.1286 343.1713,396.1741 342.6688,396.3261 342.4189,396.282 342.0523,395.9606 341.9684,395.7234 342.0238,395.2318 341.9624,394.752 341.6969,394.5417 341.1886,394.2918 340.9331,394.2642 340.4807,394.3142 340.2251,394.2516 339.9743,393.9266 339.878,393.891 339.5072,394.1374 339.3968,394.1355 339.1206,393.8901 339.0111,393.8654 338.8648,393.8853 338.6142,394.0685 338.4563,394.066 338.2986,394.0052 337.6974,393.5248 337.3219,393.382 336.3474,393.2728 336.094,393.0977 335.8391,393.0234 335.547,393.0298 335.0008,392.8138 334.6662,392.4521 334.0192,392.4525 333.5111,392.1932 333.1572,392.1522 332.5365,392.1092 332.1538,392.3062 332.0048,392.5496 331.6761,393.0561 331.4098,393.4723 330.9501,393.9224 330.4105,394.3033 330.0348,394.59 329.703,394.9697 329.515,395.3651 329.1919,395.7496 329.5354,396.1878 329.4407,396.4237 328.8932,396.7451 328.6606,397.2335 328.4542,397.5262 328.1957,397.8356 327.5787,398.2828 327.4537,398.4289 327.3889,398.7046 327.418,399.0073 325.6016,400.1481 322.6902,401.5133 321.0573,402.0022 320.1899,402.0448 319.8381,401.8888 319.6004,401.5761 319.3658,401.1134 318.8003,399.4408 317.6013,397.15 316.8307,395.9206 315.3529,393.8257 312.6519,390.831 311.3553,389.7409 310.4247,389.2208 309.9042,389.0515 309.435,389.0262 308.7113,389.2431 308.1437,389.543 307.3201,389.8165 306.8196,389.8645 306.296,389.8335 305.7497,389.6751 305.2404,389.46 303.743,388.2557 300.0865,385.5299 299.4255,384.9686 298.7499,384.6002 298.3261,384.4793 297.9225,384.4703 296.9255,384.9265 296.1156,385.4937 294.9702,386.6453 294.3051,387.5741 293.5073,388.4558 291.4055,390.055 290.3371,391.0919 288.9272,393.2468 287.7297,395.615 287.1591,395.3309 286.1949,395.1818 285.7728,395.0405 285.1548,394.681 284.8965,394.3958 284.6377,393.5742 284.3939,393.2942 283.7151,392.9229 283.1223,392.383 282.7069,392.0997 281.3594,391.5468 281.1076,391.3942 280.6795,391.0105 280.3454,390.5454 279.9976,390.3449 279.4139,390.1381 279.141,390.1115 278.6878,389.8313 277.9442,389.7724 277.4992,389.5415 277.0567,389.4498 276.68,389.4928 275.2228,390.0413 274.6546,390.1429 274.5091,390.1206 273.7723,389.6079 272.8084,389.2005 258.1422,380.3341 258.0021,379.9164 258.0884,379.5018 258.129,379.2086 258.1806,378.7879 258.3106,377.6826 258.5342,377.0362 258.5422,376.3556 258.4407,375.7437 258.296,375.4114 258.211,375.0645 258.3102,374.6953 258.2967,374.2836 258.2541,373.7037 258.2787,373.2773 258.5284,372.6771 258.7218,372.1928 258.9054,371.4617 259.0379,370.9638 259.1234,370.4674 259.2293,370.0323 259.3457,369.5293 259.3821,368.8614 259.4056,368.3491 259.3809,367.825 259.4574,367.237 259.5962,366.5027 259.8085,365.6072 259.8691,365.0961 259.8351,364.6053 259.851,364.2718 260.0032,363.68 260.3631,362.9699 260.9541,362.0505 261.2351,361.442 261.5938,360.8576 261.9118,360.0757 262.0961,358.951 262.3489,358.1883 262.7376,357.3848 263.4406,355.9922 263.9936,355.0772 264.3727,354.7147 264.7265,354.3583 264.9666,354.0456 265.3386,353.716 265.582,353.602 265.7541,353.5575 266.6593,353.3555 267.3243,353.0673 268.6169,352.0435 268.8296,351.8131 269.2193,351.2305 269.4428,350.5256 269.5693,350.1951 270.2512,349.2754 270.326,349.0803 270.4588,348.6457 270.5274,348.1795 270.6859,347.2627 270.7653,346.7966 270.8942,346.2857 271.1565,345.8584 271.4371,345.5111 271.8004,344.7998 272.0955,344.2642 272.3101,343.5227 272.5573,342.7582 272.7344,341.7146 272.8706,341.1073 273.0914,340.5929 273.2934,340.1431 288.6462,331.6501 294.212,330.919 314.1693,328.2989 314.9781,327.8086 315.7784,327.2009 316.053,326.7026 316.2131,326.1031 316.3311,325.8663 316.8571,324.8164 317.1023,324.2434 317.274,323.7382 317.387,323.1964 317.2703,322.2342 317.1936,321.6404 317.1192,320.7687 317.1486,320.2949 317.2852,319.3257 317.2093,318.918 316.8779,318.0207 316.603,317.4107 315.9357,316.1694 315.823,315.4066 315.8667,314.5335 315.7739,314.0188 315.6266,313.5886 315.3669,312.8262 315.3316,312.3937 315.3236,312.1141 328.9135,316.0336 329.8042,314.7388 330.4268,313.2845 330.8535,312.6083 331.1332,311.6704 331.2778,311.4111 331.7862,310.641 332.1012,310.0989 332.5483,309.4846 332.9008,309.0668 333.0385,308.7775 333.2103,307.911 333.508,307.219 333.7883,305.5734 334.3549,303.8303 334.6632,303.3081 348.4186,294.4929 348.6151,294.7925 348.9529,294.8603 349.2515,294.7908 349.8949,294.3016 350.0886,294.2568 350.345,294.419 350.6609,295.0209 350.9096,295.3035 351.2384,295.5931 352.1398,296.1649 352.2833,296.3713 352.4013,296.8847 352.7356,297.1706 352.9465,297.1963 353.1648,297.1425 353.7052,296.8947 353.9403,296.9161 354.8761,297.1695 355.4484,297.4591 356.1418,297.4513 357.047,297.303 357.6698,297.1041 358.0845,296.8282 358.7775,296.1815 359.7728,295.0508 360.2273,294.9249 360.4004,294.9543 360.7482,295.2537 361.0133,295.3859 361.432,295.4362 361.7083,295.4013 362.0836,295.2264 362.2799,294.9996 362.6278,294.8106 363.0688,294.8117 363.346,294.722 363.5757,294.5657 363.7032,294.5617 363.997,294.9569 364.097,294.9947 364.2744,294.9324 364.6272,294.5718 364.8688,294.4332 365.7477,294.1465 365.8251,294.0767 365.8687,293.7406 365.9862,293.4752 365.9806,293.1543 366.0829,292.9903 366.1672,292.5543 366.2262,292.4717 366.5237,292.3771 366.5449,292.3164 366.1892,292.0388 366.268,291.9095 367.0938,291.6801 367.559,291.7112 367.9462,291.86 368.3901,291.7193 368.545,291.7447 368.5348,292.0289 368.6296,292.0786 369.4283,292.0266 369.5773,292.1355 369.612,292.3313 369.7253,292.375 369.8132,292.3468 369.8559,292.0801 369.988,292.083 370.1213,292.3568 370.8441,292.2161 371.3672,292.2131 371.461,292.2546 371.7652,292.1242 371.9975,292.1398 372.0951,292.2115 372.2364,292.499 372.336,293.5807 372.6617,294.0068 372.7468,294.5353 373.3142,294.8116 373.4721,295.0944 373.5813,295.1599 373.797,295.0741 374.1265,294.2684 374.1949,293.9611 374.378,293.9289 374.5527,294.0147 375.2138,294.7528 375.3933,294.863 376.0046,294.8556 376.2595,295.0126 376.3083,295.1262 376.2556,295.8782 376.359,296.0756 376.5878,296.2026 377.6533,296.232 378.0909,296.3935 378.3457,296.6857 378.3926,296.8728 378.2865,297.1867 377.3201,298.014 377.2854,298.1849 377.5775,298.4134 377.8543,298.4186 378.6778,298.0883 379.0999,297.7811 380.0907,297.3061 380.4069,297.2097 380.8039,297.1867 381.2615,297.2885 381.7226,297.6147 381.9625,297.6026 382.5638,297.4411 382.8821,297.6109 383.1663,297.8886 383.6,297.9412" stroke="black" /><polygon fill="none" points="326.0353,231.9763 325.9731,231.9604 325.6725,231.8847 324.1509,230.3045 323.2752,229.4972 322.5895,229.1127 319.8461,228.3502 318.3227,227.7486 316.144,226.4158 314.5616,225.3634 312.8354,224.1224 311.4984,223.2764 308.5698,221.9044 306.9308,221.2858 305.7153,220.9863 303.3396,220.883 301.8164,221.169 299.4708,222.0854 299.108,222.1028 298.8459,222.021 298.5449,221.7914 298.3319,221.2888 298.3072,221.0897 298.3731,220.1967 298.3921,217.9406 298.2052,216.4367 296.7409,213.6829 295.8752,212.317 295.1539,210.766 294.7812,209.5298 294.6038,206.3525 295.2458,198.6649 295.173,197.8828 294.8598,196.1368 294.1616,193.8294 293.6222,192.6701 293.3403,192.3698 292.9954,192.2081 292.6011,192.2108 292.385,192.2831 292.0024,192.5185 290.4776,193.6805 288.3448,195.056 287.0356,195.8193 285.6716,196.4865 283.2288,197.4549 278.8572,199.6288 277.9172,199.9926 275.859,201.0459 273.4608,202.374 272.3636,202.8225 269.686,203.5685 263.8498,204.5761 262.539,204.9416 261.7418,205.2386 259.9784,206.0395 257.9295,207.3348 257.2918,207.9055 256.2659,209.3308 255.9692,210.1561 255.7036,211.4998 255.7561,212.123 255.6221,211.8683 255.4294,211.6508 255.187,211.4186 254.9504,211.2077 254.7138,211.0755 254.3848,210.8756 254.0508,210.6888 253.7595,210.4762 253.4343,210.3205 253.1564,210.3369 253.0175,210.3807 252.807,210.5083 252.6195,210.505 252.3201,210.2261 251.9935,209.9026 251.7449,209.6687 251.4104,209.5084 250.5438,209.2196 249.2021,208.707 248.7448,208.4202 248.4426,208.2869 248.1999,208.2297 247.9369,208.2516 247.6492,208.3349 247.3557,208.2371 247.1006,208.0958 246.5284,207.6223 246.1201,207.1605 245.5024,206.198 245.2283,205.9043 244.7683,205.5983 244.5571,205.2739 244.3821,205.126 243.5093,204.7661 242.9503,204.2823 242.2813,204.1048 242.0719,203.9039 241.78,203.76 241.4256,203.6865 241.07,203.5344 240.605,203.228 239.8115,203.0303 239.1176,202.6928 238.689,202.3787 237.6091,201.9705 237.3839,201.6354 237.3553,201.1595 237.2841,201.0588 236.9239,200.8683 236.6715,200.4607 234.7866,199.7659 233.7775,199.1628 233.5346,199.0767 233.2583,199.0892 232.787,199.3992 231.8018,199.7578 231.4689,199.7395 231.0808,199.5996 230.9428,199.4918 230.8046,199.012 230.5992,198.85 230.163,198.928 229.9732,199.0377 229.7678,199.0039 229.7554,198.8295 229.8943,198.5472 229.8116,198.3588 229.6346,198.3666 229.2685,198.7885 228.8706,198.9701 228.758,198.9553 228.6274,198.6688 228.5279,198.639 228.304,198.6881 227.9871,198.8902 227.4612,198.9334 226.923,198.7408 226.7652,198.2203 226.3798,197.9245 225.0985,197.9499 224.7555,198.0246 224.2234,198.3531 224.0039,198.5652 223.5957,198.6096 223.2258,198.8409 222.4292,199.0734 221.4542,199.613 220.9194,199.6185 220.2231,199.2826 219.7641,199.2704 219.2732,198.9823 219.136,198.9567 218.9796,198.9655 218.4945,199.2095 218.315,199.2337 217.2352,199.3051 216.7815,199.2676 216.456,199.073 216.1328,198.4736 215.9268,198.3279 215.8379,198.3304 215.6144,198.7088 215.5291,198.7246 215.2217,198.58 215.148,198.5884 214.878,198.8273 214.5813,198.7337 214.2033,198.8842 213.6841,198.7941 213.391,198.8263 213.3035,199.1494 213.1356,199.1523 212.953,198.9848 212.5923,199.0525 212.1279,198.901 212.0549,198.8149 212.0048,198.5362 211.8654,198.4214 211.708,198.3901 211.3983,198.4427 211.0579,198.7266 210.5119,198.638 209.5274,199.0145 209.3058,198.9463 208.7829,198.507 208.2999,198.4541 207.8742,198.2897 206.9767,198.0714 206.866,197.9924 206.3786,197.3123 205.9079,197.2234 205.6008,196.9879 205.2472,196.9976 205.0347,196.9256 204.9071,196.7638 204.7714,196.7136 204.2931,196.8757 204.0482,196.8345 203.7603,196.5178 203.4631,196.2965 203.2993,195.4584 203.0881,195.3373 202.4394,195.1973 201.6589,194.6747 201.13,194.5114 199.7594,194.3967 198.7903,193.6309 198.5911,193.531 197.1623,193.617 196.5048,193.6003 195.9245,193.507 195.4608,193.3082 195.1935,193.1063 195.0281,192.8174 194.5577,191.8043 194.527,191.5395 194.6846,191.3038 194.6844,191.1861 194.3873,190.4218 194.374,189.532 194.2198,189.4375 193.9728,189.517 193.7902,189.4749 193.7195,189.272 193.5941,189.1649 193.5668,188.8288 193.2918,188.5391 193.2321,188.1067 192.8241,187.9148 192.8023,187.6397 192.8919,187.4798 192.8938,187.3369 192.8433,187.2197 192.551,186.9649 192.4542,186.7781 192.4409,186.5798 192.5425,186.2288 192.5088,185.8568 192.241,185.1726 191.9128,184.68 191.647,184.0477 191.7381,183.6679 192.1465,182.9858 192.2398,182.5348 192.2181,181.3758 192.4252,180.57 192.3805,179.6065 192.2638,179.4682 191.4388,179.0432 191.0661,179.1206 190.9518,179.0779 190.9577,178.8106 190.895,178.6851 190.59,178.584 190.4971,178.498 190.4624,178.0006 190.3158,177.8295 189.9561,177.8406 189.6885,177.9978 189.5259,177.9911 189.3959,177.7483 189.1022,177.5682 189.0227,177.4752 188.9824,177.2038 188.9235,176.8063 188.3728,176.0431 188.1755,175.3145 188.1705,175.0547 188.2735,174.759 188.2936,174.4412 188.8426,174.2429 188.9166,174.1291 188.9309,173.7904 188.9941,173.6716 189.5567,173.3254 189.6211,173.0282 189.4255,172.7299 189.2234,172.6015 188.9158,172.5122 187.1077,171.72 186.742,171.189 186.5823,171.1273 186.2439,171.1761 186.0277,171.1491 185.7411,170.9436 185.5894,170.6549 185.3975,170.5156 185.3823,170.266 185.5032,169.9336 185.2881,169.5823 185.1383,169.1005 185.0389,169.0054 184.7826,168.9225 184.7147,168.5155 184.5662,168.2955 184.4018,168.1763 183.9008,168.0055 183.6463,167.7611 183.2325,166.5098 182.8228,164.6234 182.2265,163.3025 182.3607,162.635 182.3922,161.855 182.3459,161.572 182.1774,161.25 181.7981,161.1054 181.4756,160.6283 181.359,160.5384 180.6914,160.449 180.3297,160.1825 179.7423,159.9943 179.6492,159.7251 179.7785,159.3359 179.7442,159.235 179.6499,159.1268 179.074,158.8041 178.8686,157.8612 178.7094,157.519 178.5459,157.3747 178.2437,157.2642 178.143,157.2805 177.9821,157.4142 177.8423,157.3536 177.8312,156.968 177.4544,156.8233 177.3917,156.6621 177.5175,156.3279 177.4561,156.2028 177.1541,155.9337 177.1557,155.571 177.096,155.506 176.7292,155.4752 176.6323,155.4126 176.5963,155.2202 176.8681,154.8344 176.5857,154.248 176.5627,154.0546 176.3015,153.7468 175.538,153.4741 175.1351,153.4755 174.9772,153.3642 174.9377,153.0804 175.1539,152.4737 174.7792,151.9965 174.684,151.6044 174.4544,151.292 174.3327,151.2163 173.8789,151.122 173.5917,151.1101 173.2096,151.2151 172.803,150.9898 172.3328,150.9235 172.1669,150.7804 171.899,150.376 171.3907,150.0631 170.9645,149.6653 170.7865,149.0287 170.5213,148.549 170.4821,148.3223 170.5091,148.1821 170.8234,147.7201 170.7647,147.3886 170.5295,147.028 170.4954,146.1382 170.3525,145.9465 170.2391,145.4524 170.0166,145.3572 169.6964,145.5051 169.539,145.2579 169.2058,145.082 169.0991,144.927 169.1694,144.4738 169.1269,144.3703 168.8607,144.2382 168.8017,144.1411 168.8574,143.9228 168.6218,143.5191 168.6788,143.2221 168.627,142.9895 168.152,142.5688 167.6885,142.3506 167.3896,142.0936 167.3227,141.662 167.238,141.5774 166.4619,141.3452 166.4006,141.2068 166.5233,141.0977 166.5107,140.9634 166.2369,140.7948 166.0155,140.7614 166.0038,140.6178 165.6933,140.5624 165.8788,140.292 165.8071,140.1084 165.3817,140.0247 164.9629,139.5741 164.5697,139.504 164.4043,139.3725 164.1284,138.955 163.9762,138.3711 163.8712,138.3082 163.6405,138.4862 163.4956,138.178 163.1982,138.1548 162.972,138.0597 162.8629,137.7427 163.0649,137.319 163.0368,137.2517 162.7155,137.1401 162.356,136.9102 162.3257,136.4914 161.9582,135.9346 161.8769,135.3694 161.5577,134.8087 161.5426,134.6739 161.5947,134.6057 161.7837,134.541 161.9244,134.5783 161.9475,134.4183 161.8486,134.1721 161.9637,133.8317 161.7395,133.5302 161.7532,133.3169 161.9669,132.694 161.9788,132.1921 162.3095,132.5011 162.8794,132.6091 163.1556,132.5811 163.9169,132.3292 164.2398,132.2857 165.4316,132.3185 166.9691,132.0247 171.4044,132.1062 173.498,132.2922 175.0539,132.3504 175.8922,132.5023 179.2365,133.5445 180.2009,133.758 181.2935,134.4114 182.3997,134.8696 183.6324,135.1544 186.3506,135.5575 189.6833,136.7111 191.806,137.7155 192.1581,137.9297 192.6492,138.0711 193.7704,138.2068 195.1205,138.2625 196.945,138.1078 199.5493,137.473 205.4635,135.7543 206.3495,135.4967 207.6788,135.2719 208.205,135.356 208.8527,135.5946 209.6679,136.0461 210.1525,136.4407 210.6063,136.9849 211.2296,137.8919 215.375,140.5766 216.1405,141.3801 216.6098,141.6008 217.0955,142.1667 217.9207,143.3699 218.4455,143.9152 218.984,144.2542 219.8154,144.624 221.515,145.0143 223.9159,145.6884 224.8883,146.0376 226.546,146.7411 227.8306,146.8977 228.6914,147.0956 229.6219,147.4071 230.8934,148.0749 233.8633,150.1658 235.0039,150.9691 237.8411,152.6044 238.2444,152.9142 239.3501,154.0165 240.0798,154.9313 241.0601,155.6048 243.4359,156.8051 244.4598,157.02 245.5618,156.9232 246.3431,156.6923 247.4501,155.961 248.5906,154.8793 249.6352,153.6056 250.3288,152.927 252.1166,151.7495 254.9165,150.2194 257.572,148.2896 259.4551,145.9463 260.3972,144.9017 262.2264,143.0896 263.0032,142.4837 263.1562,142.3643 264.983,140.9394 266.3657,139.5571 269.3415,136.9766 270.2845,136.0071 271.3901,134.6018 274.0432,131.4879 278.0851,127.5703 278.4395,127.175 278.7178,126.7275 278.9026,126.3364 279.0033,125.7196 279.1118,125.4436 279.4251,124.9839 279.5195,124.7445 279.7355,123.2027 279.823,122.0611 280.3212,120.0594 280.6939,118.8655 281.1181,117.988 281.6434,117.4026 282.2539,117.0876 282.6508,116.9695 285.7015,116.7395 286.9176,116.5405 287.6372,116.3599 290.1335,116.0704 293.2999,115.1507 294.9202,114.4514 295.5506,114.0908 295.9445,113.7372 296.1045,113.3831 296.1442,113.1433 296.0632,111.5797 296.2383,110.4253 296.2719,109.6056 296.2564,108.8052 296.0365,106.7592 296.0694,104.6792 296.153,103.8824 295.9844,102.1615 296.0362,101.1886 296.2149,100.3773 296.5887,99.5004 297.0494,98.7802 297.7899,98.1558 299.0015,97.4363 299.4215,97.2602 300.4517,97.0006 300.8423,96.7871 301.4146,96.2017 302.2273,95.1022 302.4458,94.5066 302.7421,93.6426 303.2287,93.2073 303.7601,92.9307 304.5546,92.6584 305.1295,92.6079 305.8459,92.6725 306.6307,92.9111 307.8906,93.323 308.6763,93.5165 309.3046,93.5946 310.1197,93.4955 310.8954,93.3732 311.5457,93.5569 312.1599,93.9654 312.4559,94.3386 312.6813,95.0714 312.6031,96.265 312.665,96.8067 313.0662,97.0769 313.5182,97.2122 313.9866,97.3177 314.4595,97.4245 314.8309,97.3618 315.1288,97.209 315.5526,96.72 315.9094,96.6132 316.2662,96.5064 316.802,96.4177 317.4488,95.9399 318.0063,95.5509 318.3201,95.3983 318.7663,95.4132 320.105,95.8789 320.7444,96.2202 321.0366,96.3753 321.3646,96.3131 321.9377,95.9394 322.4909,95.3473 322.9116,95.0236 323.6021,94.7645 324.0609,94.5316 324.4059,94.4171 324.9237,94.4407 325.3875,94.3657 325.8003,94.4627 326.0146,94.9398 325.9871,95.5631 325.8211,96.1588 325.8943,97.1173 325.8476,97.7638 325.5612,98.7351 325.4206,99.3169 325.0919,99.9523 324.9347,100.6862 324.9885,101.2207 325.0762,101.5826 325.6572,102.1336 326.1105,102.6297 326.4843,103.0975 326.8708,103.3337 327.6524,103.7525 328.1526,104.2943 328.7121,105.0777 329.0041,105.6687 329.082,106.1961 329.0284,106.5033 328.7003,106.9939 328.0483,107.7497 327.2906,108.346 326.4555,108.6055 325.8081,108.5769 325.177,108.6416 324.7372,109.0061 324.457,109.2904 323.9484,109.9514 323.6878,110.6686 323.6352,111.3516 323.5225,111.8307 323.4225,112.0621 323.1588,112.2568 322.6499,112.44 321.9832,112.6995 321.0443,113.0146 319.3575,113.6629 318.8773,114.0318 318.5984,114.2718 318.4745,114.5786 318.4183,115.0749 318.3014,115.9751 318.3624,116.5473 318.8052,116.9897 319.5053,117.2652 321.0815,117.8401 322.0607,118.3599 322.4964,118.5174 322.9426,118.547 323.224,118.3995 323.5053,118.2521 323.9449,117.9412 324.6722,117.7344 325.2533,117.7891 325.7813,117.9567 326.143,117.8146 326.4079,117.5973 326.8875,117.0279 327.2569,116.4095 327.5275,115.5797 327.7255,115.0292 328.0718,114.6192 328.5784,114.3947 329.4865,114.4473 330.4152,114.6806 331.8425,115.1175 333.1312,115.4484 333.3494,115.5713 333.5729,115.8625 333.6141,116.1 333.4027,116.4887 333.3668,116.6491 333.4517,116.8145 334.0092,117.2164 335.0553,117.8214 335.8166,118.1584 336.0719,118.3849 336.1693,118.6607 336.2083,119.047 336.0621,119.3097 335.7098,119.7045 335.5131,120.1014 335.4807,120.5513 335.6307,120.9308 336.3154,121.6219 337.976,122.9176 338.6221,123.6072 338.9787,124.2702 339.4055,125.5988 339.9344,126.2814 340.2386,126.9526 341.0982,128.161 341.3992,128.847 341.4391,129.2548 341.3834,129.6974 341.1776,130.2415 340.8639,130.6529 339.8077,131.3237 339.1505,132.1489 338.345,132.9344 336.9232,133.8389 336.6857,134.042 336.5328,134.5883 336.6603,134.8846 337.8594,136.2477 338.5672,137.451 339.0266,138.4887 339.5656,140.2918 340.1443,141.7158 340.4617,142.2828 340.5502,142.6912 340.4248,143.4581 340.5067,143.7321 340.6703,143.7508 342.6209,142.8783 342.8105,142.8302 343.2092,142.896 344.0773,143.9379 345.4021,145.1257 346.4063,145.5263 349.2815,147.4287 349.9527,147.6837 350.6098,147.7391 351.1454,147.6369 351.6988,147.1872 352.2052,146.9431 352.4959,146.8746 353.2128,146.8562 353.438,146.9048 353.5704,146.9806 354.5639,148.4918 354.9835,148.9677 355.2279,149.1246 356.1082,149.6892 357.0632,150.6742 357.4057,150.8574 357.8349,150.9978 359.1942,151.1041 359.4045,151.1678 359.5983,151.3177 359.8257,151.699 359.9674,152.1597 359.9916,152.5605 359.8241,153.1423 358.6933,155.2859 358.1615,156.4745 357.736,156.9646 357.0899,157.5389 356.0261,158.3651 354.557,159.2739 354.3563,159.4949 354.2478,159.9214 354.3149,160.4919 354.6202,160.9713 355.0599,161.3731 355.8908,161.8677 356.8961,162.32 358.3789,162.8328 361.0203,163.6048 361.3614,163.7664 362.3886,164.7313 363.5959,165.4417 363.8526,165.5927 364.1759,165.7433 365.1272,165.8896 365.2894,166.0261 365.5019,166.4207 365.5735,166.7924 365.3475,167.5587 364.8374,168.4668 364.1353,169.3952 364.2657,169.9448 365.0307,170.7745 365.4099,171.0169 365.8257,171.0686 366.2199,170.9572 367.4304,170.0219 368.6018,168.6858 370.387,166.9647 370.5318,166.7311 370.6248,165.5528 370.7527,164.9928 370.9325,164.625 371.8386,164.0834 372.0809,164.0451 372.4015,164.131 373.0064,164.5402 374.6812,165.3963 375.186,166.1599 375.5677,166.4022 375.9666,166.4539 377.2473,166.3932 378.4045,166.493 379.7608,166.1819 380.2788,166.1162 381.1778,166.3086 382.2788,166.9862 382.7493,167.4829 383.0379,168.0508 383.0828,168.6064 382.6417,169.48 382.0373,171.2635 381.7745,171.8382 380.9409,173.2166 380.8171,173.5404 380.8005,174.051 380.909,175.3783 380.8202,176.3775 380.693,176.909 380.2637,178.0264 380.2736,178.3635 380.8347,180.7704 381.1048,181.0202 381.3486,180.9258 381.8207,180.5418 382.7152,180.1269 383.9612,179.4367 384.8004,178.9026 386.0975,177.9401 386.6677,177.6744 387.714,177.5362 388.9261,177.5622 389.6148,177.6863 390.3148,178.0587 390.8563,178.526 391.5175,179.6401 391.9092,180.6303 392.0228,181.3279 392.0537,182.211 391.8988,182.5784 391.4186,182.9616 389.1212,183.7245 388.7542,184.0004 387.9247,185.5728 386.9089,187.0592 386.7573,187.553 386.4772,188.0555 386.0355,188.5154 385.8425,188.9239 384.9371,188.8734 384.8143,188.9134 384.6746,189.1958 384.6332,189.5557 384.4882,189.815 384.3226,189.7795 384.1281,189.5569 383.9418,189.5635 383.8551,189.6499 383.5469,190.365 383.1599,190.8999 383.0529,191.2674 382.9827,191.9909 383.049,192.4431 383.2588,192.8133 383.3353,193.38 383.4522,193.5169 383.8816,193.688 384.8332,193.65 385.0214,193.6887 385.2079,193.7922 385.6085,194.6323 385.707,194.7757 385.8251,194.8198 386.0012,194.7273 386.0702,194.5272 386.2213,194.4332 386.5051,194.4511 386.6471,194.654 386.7426,194.9228 386.7444,195.1961 386.4184,195.7783 386.351,197.4103 386.3947,197.766 386.627,198.1681 386.6856,198.3997 386.2913,199.7362 386.1502,200.4581 386.0035,200.6749 385.8308,200.7598 384.5575,200.7511 383.1291,201.2754 382.5817,201.6924 381.7729,202.5192 380.2283,203.3874 379.4555,203.9384 378.8426,204.901 378.5819,205.8073 378.3855,206.2252 377.7953,207.0756 377.3273,207.8856 377.0967,208.1369 376.797,208.3568 375.3716,209.0803 374.2976,209.4765 374.2227,209.5042 374.0158,209.6345 372.8267,210.1257 370.1014,211.5267 368.4136,212.626 367.2999,213.0749 367.0233,213.2497 366.5435,213.7866 366.1654,214.084 365.714,214.3256 364.8394,214.6557 362.533,215.2787 360.1806,216.1813 358.9884,216.2621 358.1601,216.414 355.9311,217.3541 354.3885,217.7096 353.4907,217.9898 352.5854,218.3635 351.4119,218.4139 350.1996,218.7973 349.8569,219.0018 349.1942,219.6524 348.3216,220.0028 347.9882,220.1912 347.5659,220.4592 346.5353,221.275 345.9842,221.5609 344.6165,221.9661 343.67,222.1518 342.9963,222.3744 342.418,222.6957 340.9876,223.6906 339.8264,224.8368 339.1561,225.7308 338.5794,226.6489 337.4617,227.9154 336.8598,229.1969 336.44,230.3939 336.1693,231.6637 336.0675,232.6891 330.6194,232.216 326.1659,231.9831 326.0817,231.9787 326.0353,231.9763" stroke="black" /></svg>